0
SECTION
2
ENTITIES
0
LINE
8
MCD_Layer_0
10
-0.000000
20
0.000000
30
0.0
11
0.000000
21
0.177500
31
0.0
0
LINE
8
MCD_Layer_0
10
0.000000
20
0.177500
30
0.0
11
-0.013000
21
0.117500
31
0.0
0
LINE
8
MCD_Layer_0
10
-0.022000
20
0.028500
30
0.0
11
-0.025000
21
0.000000
31
0.0
0
LINE
8
MCD_Layer_0
10
-0.025000
20
0.000000
30
0.0
11
0.000000
21
0.000000
31
0.0
0
LINE
8
MCD_Layer_0
10
-0.228500
20
0.057000
30
0.0
11
-0.353500
21
0.165000
31
0.0
0
LINE
8
MCD_Layer_0
10
-0.353500
20
0.165000
30
0.0
11
-0.436500
21
0.292000
31
0.0
0
LINE
8
MCD_Layer_0
10
-0.000000
20
0.000000
30
0.0
11
0.000000
21
-0.492500
31
0.0
0
LINE
8
MCD_Layer_0
10
0.000000
20
-0.492500
30
0.0
11
0.543000
21
-0.483500
31
0.0
0
LINE
8
MCD_Layer_0
10
0.642000
20
-0.441500
30
0.0
11
0.779000
21
0.000000
31
0.0
0
LINE
8
MCD_Layer_0
10
0.779000
20
0.000000
30
0.0
11
0.000000
21
0.000000
31
0.0
0
LINE
8
MCD_Layer_0
10
0.000000
20
0.000000
30
0.0
11
0.000000
21
-0.000000
31
0.0
0
LINE
8
MCD_Layer_0
10
0.000000
20
-0.000000
30
0.0
11
0.000000
21
0.000000
31
0.0
0
LINE
8
MCD_Layer_0
10
-0.259500
20
1.008000
30
0.0
11
-0.127500
21
1.076000
31
0.0
0
LINE
8
MCD_Layer_0
10
-0.127500
20
1.076000
30
0.0
11
-0.020500
21
1.102000
31
0.0
0
LINE
8
MCD_Layer_0
10
-0.000000
20
0.000000
30
0.0
11
0.000000
21
0.244500
31
0.0
0
LINE
8
MCD_Layer_0
10
0.000000
20
0.244500
30
0.0
11
1.066000
21
0.272500
31
0.0
0
LINE
8
MCD_Layer_0
10
1.065000
20
0.287500
30
0.0
11
1.085000
21
0.000000
31
0.0
0
LINE
8
MCD_Layer_0
10
1.085000
20
0.000000
30
0.0
11
0.000000
21
0.000000
31
0.0
0
LINE
8
MCD_Layer_0
10
0.000000
20
-0.000000
30
0.0
11
0.000000
21
0.000000
31
0.0
0
LINE
8
MCD_Layer_0
10
0.000000
20
0.000000
30
0.0
11
0.356500
21
1.085000
31
0.0
0
LINE
8
MCD_Layer_0
10
0.392500
20
1.085000
30
0.0
11
0.000000
21
0.000000
31
0.0
0
LINE
8
MCD_Layer_0
10
0.000000
20
0.000000
30
0.0
11
0.000000
21
0.000000
31
0.0
0
LINE
8
MCD_Layer_0
10
-0.000000
20
0.000000
30
0.0
11
0.000000
21
0.392500
31
0.0
0
LINE
8
MCD_Layer_0
10
0.000000
20
0.392500
30
0.0
11
0.779000
21
0.277500
31
0.0
0
LINE
8
MCD_Layer_0
10
0.779000
20
0.000000
30
0.0
11
0.000000
21
0.000000
31
0.0
0
LINE
8
MCD_Layer_0
10
0.000000
20
0.000000
30
0.0
11
0.000000
21
0.000000
31
0.0
0
LINE
8
MCD_Layer_0
10
0.000000
20
-0.000000
30
0.0
11
0.000000
21
0.000000
31
0.0
0
LINE
8
MCD_Layer_0
10
0.000000
20
0.000000
30
0.0
11
0.228500
21
0.891000
31
0.0
0
LINE
8
MCD_Layer_0
10
0.184500
20
0.920000
30
0.0
11
0.090500
21
0.946000
31
0.0
0
LINE
8
MCD_Layer_0
10
0.090500
20
0.946000
30
0.0
11
0.000000
21
0.000000
31
0.0
0
LINE
8
MCD_Layer_0
10
-0.000003
20
0.991183
30
0.0
11
0.000000
21
0.000000
31
0.0
0
LINE
8
MCD_Layer_0
10
0.000000
20
0.000000
30
0.0
11
-0.000000
21
0.000000
31
0.0
0
LINE
8
MCD_Layer_0
10
0.000000
20
-0.175500
30
0.0
11
0.833000
21
-0.248500
31
0.0
0
LINE
8
MCD_Layer_0
10
0.833000
20
-0.248500
30
0.0
11
0.688000
21
-0.267500
31
0.0
0
LINE
8
MCD_Layer_0
10
0.000000
20
-0.000000
30
0.0
11
0.000000
21
0.000000
31
0.0
0
LINE
8
MCD_Layer_0
10
0.000000
20
0.000000
30
0.0
11
-0.200500
21
0.287000
31
0.0
0
LINE
8
MCD_Layer_0
10
-0.116500
20
0.194000
30
0.0
11
-0.025500
21
0.148000
31
0.0
0
LINE
8
MCD_Layer_0
10
-0.025500
20
0.148000
30
0.0
11
0.000000
21
0.000000
31
0.0
0
LINE
8
MCD_Layer_0
10
0.000000
20
0.224500
30
0.0
11
0.190000
21
0.224500
31
0.0
0
LINE
8
MCD_Layer_0
10
0.190000
20
0.224500
30
0.0
11
0.385000
21
0.000000
31
0.0
0
LINE
8
MCD_Layer_0
10
0.000000
20
0.000000
30
0.0
11
0.000000
21
-0.000000
31
0.0
0
LINE
8
MCD_Layer_0
10
0.000000
20
-0.000000
30
0.0
11
0.000000
21
0.000000
31
0.0
0
LINE
8
MCD_Layer_0
10
0.145500
20
0.385000
30
0.0
11
0.145500
21
0.511000
31
0.0
0
LINE
8
MCD_Layer_0
10
0.145500
20
0.511000
30
0.0
11
0.000000
21
0.000000
31
0.0
0
LINE
8
MCD_Layer_0
10
0.000000
20
0.000000
30
0.0
11
-0.000000
21
0.000000
31
0.0
0
LINE
8
MCD_Layer_0
10
-0.000000
20
0.000000
30
0.0
11
0.000000
21
0.456500
31
0.0
0
LINE
8
MCD_Layer_0
10
0.469000
20
0.456500
30
0.0
11
0.427000
21
0.000000
31
0.0
0
LINE
8
MCD_Layer_0
10
0.427000
20
0.000000
30
0.0
11
0.000000
21
0.000000
31
0.0
0
LINE
8
MCD_Layer_0
10
0.000000
20
-0.000000
30
0.0
11
0.000000
21
0.000000
31
0.0
0
LINE
8
MCD_Layer_0
10
0.000000
20
0.000000
30
0.0
11
0.429500
21
0.427000
31
0.0
0
LINE
8
MCD_Layer_0
10
0.399500
20
0.415000
30
0.0
11
0.387500
21
0.385000
31
0.0
0
LINE
8
MCD_Layer_0
10
0.387500
20
0.385000
30
0.0
11
0.000000
21
0.000000
31
0.0
0
LINE
8
MCD_Layer_0
10
0.000000
20
0.000000
30
0.0
11
-0.000000
21
0.000000
31
0.0
0
LINE
8
MCD_Layer_0
10
-0.000000
20
0.000000
30
0.0
11
0.000000
21
0.387500
31
0.0
0
LINE
8
MCD_Layer_0
10
0.153000
20
0.406500
30
0.0
11
0.131000
21
0.000000
31
0.0
0
LINE
8
MCD_Layer_0
10
0.131000
20
0.000000
30
0.0
11
0.000000
21
0.000000
31
0.0
0
LINE
8
MCD_Layer_0
10
0.000000
20
0.000000
30
0.0
11
0.000000
21
0.000000
31
0.0
0
LINE
8
MCD_Layer_0
10
0.000000
20
0.000000
30
0.0
11
-71.622208
21
-0.000000
31
0.0
0
LINE
8
MCD_Layer_0
10
0.000000
20
0.000000
30
0.0
11
0.000000
21
-0.000000
31
0.0
0
LINE
8
MCD_Layer_0
10
0.000000
20
-0.000000
30
0.0
11
0.000000
21
0.000000
31
0.0
0
LINE
8
MCD_Layer_0
10
0.169500
20
0.021000
30
0.0
11
0.040500
21
0.006000
31
0.0
0
LINE
8
MCD_Layer_0
10
0.040500
20
0.006000
30
0.0
11
-0.135500
21
0.046000
31
0.0
0
LINE
8
MCD_Layer_0
10
-0.000000
20
0.000000
30
0.0
11
0.000000
21
-0.321500
31
0.0
0
LINE
8
MCD_Layer_0
10
0.000000
20
-0.321500
30
0.0
11
0.186000
21
-0.386500
31
0.0
0
LINE
8
MCD_Layer_0
10
0.283000
20
-0.440500
30
0.0
11
0.432000
21
0.000000
31
0.0
0
LINE
8
MCD_Layer_0
10
0.432000
20
0.000000
30
0.0
11
0.000000
21
0.000000
31
0.0
0
LINE
8
MCD_Layer_0
10
-0.435500
20
0.673000
30
0.0
11
-0.392500
21
0.790000
31
0.0
0
LINE
8
MCD_Layer_0
10
-0.392500
20
0.790000
30
0.0
11
-0.306500
21
0.915000
31
0.0
0
LINE
8
MCD_Layer_0
10
-0.000000
20
0.000000
30
0.0
11
0.000000
21
-0.101500
31
0.0
0
LINE
8
MCD_Layer_0
10
0.000000
20
-0.101500
30
0.0
11
1.045000
21
0.071500
31
0.0
0
LINE
8
MCD_Layer_0
10
1.068000
20
0.201500
30
0.0
11
1.043000
21
0.000000
31
0.0
0
LINE
8
MCD_Layer_0
10
1.043000
20
0.000000
30
0.0
11
0.000000
21
0.000000
31
0.0
0
LINE
8
MCD_Layer_0
10
-0.000000
20
0.000000
30
0.0
11
0.000000
21
-0.000000
31
0.0
0
LINE
8
MCD_Layer_0
10
0.000000
20
-0.000000
30
0.0
11
0.000000
21
0.000000
31
0.0
0
LINE
8
MCD_Layer_0
10
0.255500
20
1.020000
30
0.0
11
0.298500
21
1.018000
31
0.0
0
LINE
8
MCD_Layer_0
10
0.298500
20
1.018000
30
0.0
11
0.319500
21
1.043000
31
0.0
0
LINE
8
MCD_Layer_0
10
0.000000
20
0.000000
30
0.0
11
0.000000
21
0.000000
31
0.0
0
LINE
8
MCD_Layer_0
10
0.000000
20
0.000000
30
0.0
11
-0.000000
21
-0.000000
31
0.0
0
LINE
8
MCD_Layer_0
10
-0.000000
20
-0.000000
30
0.0
11
0.000000
21
0.000000
31
0.0
0
LINE
8
MCD_Layer_0
10
0.000000
20
0.000000
30
0.0
11
-0.000000
21
0.000000
31
0.0
0
LINE
8
MCD_Layer_0
10
0.000000
20
0.356500
30
0.0
11
1.043000
21
0.356500
31
0.0
0
LINE
8
MCD_Layer_0
10
1.043000
20
0.356500
30
0.0
11
0.816000
21
0.000000
31
0.0
0
LINE
8
MCD_Layer_0
10
0.313500
20
0.816000
30
0.0
11
0.270500
21
0.906000
31
0.0
0
LINE
8
MCD_Layer_0
10
0.270500
20
0.906000
30
0.0
11
0.194500
21
0.960000
31
0.0
0
LINE
8
MCD_Layer_0
10
0.000000
20
0.000000
30
0.0
11
0.000000
21
0.000000
31
0.0
0
LINE
8
MCD_Layer_0
10
0.000000
20
0.000000
30
0.0
11
0.000000
21
-72.121635
31
0.0
0
LINE
8
MCD_Layer_0
10
-0.000000
20
0.000000
30
0.0
11
0.000000
21
-0.101500
31
0.0
0
LINE
8
MCD_Layer_0
10
0.000000
20
-0.101500
30
0.0
11
0.946000
21
-0.174500
31
0.0
0
LINE
8
MCD_Layer_0
10
0.894000
20
-0.246500
30
0.0
11
0.798000
21
0.000000
31
0.0
0
LINE
8
MCD_Layer_0
10
0.798000
20
0.000000
30
0.0
11
0.000000
21
0.000000
31
0.0
0
LINE
8
MCD_Layer_0
10
-0.000000
20
0.000000
30
0.0
11
0.000000
21
-0.000000
31
0.0
0
LINE
8
MCD_Layer_0
10
0.000000
20
-0.000000
30
0.0
11
0.000000
21
0.000000
31
0.0
0
LINE
8
MCD_Layer_0
10
-0.307500
20
0.573000
30
0.0
11
-0.295500
21
0.428000
31
0.0
0
LINE
8
MCD_Layer_0
10
-0.295500
20
0.428000
30
0.0
11
-0.272500
21
0.349000
31
0.0
0
LINE
8
MCD_Layer_0
10
0.000000
20
0.000000
30
0.0
11
0.000000
21
0.000000
31
0.0
0
LINE
8
MCD_Layer_0
10
0.000000
20
0.000000
30
0.0
11
-0.000000
21
-0.000000
31
0.0
0
LINE
8
MCD_Layer_0
10
-0.000000
20
0.000000
30
0.0
11
0.000000
21
-0.145500
31
0.0
0
LINE
8
MCD_Layer_0
10
0.000000
20
-0.145500
30
0.0
11
0.167000
21
-0.028500
31
0.0
0
LINE
8
MCD_Layer_0
10
0.109000
20
0.085500
30
0.0
11
0.099000
21
0.000000
31
0.0
0
LINE
8
MCD_Layer_0
10
0.099000
20
0.000000
30
0.0
11
0.000000
21
0.000000
31
0.0
0
LINE
8
MCD_Layer_0
10
0.000000
20
0.000000
30
0.0
11
0.000000
21
-0.000000
31
0.0
0
LINE
8
MCD_Layer_0
10
0.000000
20
-0.000000
30
0.0
11
0.000000
21
0.000000
31
0.0
0
LINE
8
MCD_Layer_0
10
0.266500
20
0.174000
30
0.0
11
0.266500
21
0.385000
31
0.0
0
LINE
8
MCD_Layer_0
10
0.266500
20
0.385000
30
0.0
11
0.000000
21
0.000000
31
0.0
0
LINE
8
MCD_Layer_0
10
0.000000
20
0.224500
30
0.0
11
0.427000
21
0.187500
31
0.0
0
LINE
8
MCD_Layer_0
10
0.427000
20
0.187500
30
0.0
11
0.427000
21
0.000000
31
0.0
0
LINE
8
MCD_Layer_0
10
0.000000
20
0.000000
30
0.0
11
0.000000
21
0.000000
31
0.0
0
LINE
8
MCD_Layer_0
10
0.000000
20
0.000000
30
0.0
11
-0.000000
21
0.000000
31
0.0
0
LINE
8
MCD_Layer_0
10
0.000000
20
0.000000
30
0.0
11
0.000000
21
-0.000000
31
0.0
0
LINE
8
MCD_Layer_0
10
0.000000
20
-0.000000
30
0.0
11
0.000000
21
0.000000
31
0.0
0
LINE
8
MCD_Layer_0
10
0.187500
20
0.469000
30
0.0
11
0.456500
21
0.469000
31
0.0
0
LINE
8
MCD_Layer_0
10
0.456500
20
0.469000
30
0.0
11
0.000000
21
0.000000
31
0.0
0
LINE
8
MCD_Layer_0
10
0.000000
20
0.000000
30
0.0
11
0.000000
21
0.000000
31
0.0
0
LINE
8
MCD_Layer_0
10
0.000000
20
0.000000
30
0.0
11
0.000000
21
-17.152344
31
0.0
0
LINE
8
MCD_Layer_0
10
0.000000
20
-17.152344
30
0.0
11
0.000000
21
0.000000
31
0.0
0
LINE
8
MCD_Layer_0
10
0.000000
20
0.000000
30
0.0
11
0.000000
21
0.000000
31
0.0
0
LINE
8
MCD_Layer_0
10
0.000000
20
0.000000
30
0.0
11
0.000000
21
0.000000
31
0.0
0
LINE
8
MCD_Layer_0
10
0.000000
20
0.000000
30
0.0
11
0.000000
21
0.000000
31
0.0
0
LINE
8
MCD_Layer_0
10
0.000000
20
0.000000
30
0.0
11
0.000000
21
0.000000
31
0.0
0
LINE
8
MCD_Layer_0
10
0.000000
20
0.000000
30
0.0
11
0.000000
21
0.000000
31
0.0
0
LINE
8
MCD_Layer_0
10
0.000000
20
0.000000
30
0.0
11
0.000000
21
0.000000
31
0.0
0
LINE
8
MCD_Layer_0
10
0.000000
20
0.000000
30
0.0
11
0.000000
21
-8.000000
31
0.0
0
LINE
8
MCD_Layer_0
10
0.000000
20
0.000000
30
0.0
11
0.000000
21
0.000000
31
0.0
0
LINE
8
MCD_Layer_0
10
0.000000
20
0.000000
30
0.0
11
-0.000000
21
0.000000
31
0.0
0
LINE
8
MCD_Layer_0
10
0.000000
20
0.000000
30
0.0
11
0.000000
21
0.000000
31
0.0
0
LINE
8
MCD_Layer_0
10
0.000000
20
0.000000
30
0.0
11
0.000000
21
-0.000000
31
0.0
0
LINE
8
MCD_Layer_0
10
0.000000
20
0.000003
30
0.0
11
0.000000
21
0.000000
31
0.0
0
LINE
8
MCD_Layer_0
10
0.000000
20
0.000000
30
0.0
11
0.000000
21
0.000000
31
0.0
0
ENDSEC
0
EOF
