0
SECTION
2
ENTITIES
0
LINE
8
MCD_Layer_0
10
-24.000000
20
-6.500000
30
0.0
11
24.000000
21
-6.500000
31
0.0
0
LINE
8
MCD_Layer_0
10
-24.000000
20
-6.500000
30
0.0
11
-24.000000
21
-0.500000
31
0.0
0
LINE
8
MCD_Layer_0
10
24.000000
20
-6.500000
30
0.0
11
24.000000
21
-0.500000
31
0.0
0
LINE
8
MCD_Layer_0
10
-24.000000
20
-0.500000
30
0.0
11
24.000000
21
-0.500000
31
0.0
0
LINE
8
MCD_Layer_0
10
-18.000000
20
0.000000
30
0.0
11
18.000000
21
0.000000
31
0.0
0
LINE
8
MCD_Layer_0
10
-18.000000
20
0.000000
30
0.0
11
-18.000000
21
22.500000
31
0.0
0
LINE
8
MCD_Layer_0
10
18.000000
20
0.000000
30
0.0
11
18.000000
21
22.500000
31
0.0
0
LINE
8
MCD_Layer_0
10
-14.440506
20
14.433882
30
0.0
11
-14.426880
21
14.475126
31
0.0
0
LINE
8
MCD_Layer_0
10
-15.064478
20
15.036505
30
0.0
11
-15.085472
21
14.999510
31
0.0
0
LINE
8
MCD_Layer_0
10
-14.915142
20
15.458727
30
0.0
11
-14.946035
21
15.493830
31
0.0
0
LINE
8
MCD_Layer_0
10
-14.210760
20
16.002485
30
0.0
11
-14.185583
21
15.963526
31
0.0
0
LINE
8
MCD_Layer_0
10
-15.372473
20
15.380720
30
0.0
11
-15.407713
21
15.349798
31
0.0
0
LINE
8
MCD_Layer_0
10
-16.062145
20
15.918394
30
0.0
11
-16.043941
21
15.961496
31
0.0
0
LINE
8
MCD_Layer_0
10
-14.703419
20
17.749601
30
0.0
11
-14.662651
21
17.923185
31
0.0
0
LINE
8
MCD_Layer_0
10
-14.761333
20
17.959936
30
0.0
11
-14.790133
21
17.815821
31
0.0
0
LINE
8
MCD_Layer_0
10
-14.901682
20
17.947206
30
0.0
11
-14.946522
21
17.867346
31
0.0
0
LINE
8
MCD_Layer_0
10
-15.098709
20
17.817522
30
0.0
11
-14.959856
21
18.018286
31
0.0
0
LINE
8
MCD_Layer_0
10
-12.092499
20
20.196474
30
0.0
11
-12.129311
21
20.167440
31
0.0
0
LINE
8
MCD_Layer_0
10
-12.753088
20
20.769510
30
0.0
11
-12.732653
21
20.811598
31
0.0
0
LINE
8
MCD_Layer_0
10
-11.718233
20
19.422014
30
0.0
11
-11.599424
21
19.554972
31
0.0
0
LINE
8
MCD_Layer_0
10
-11.512718
20
19.495218
30
0.0
11
-11.614254
21
19.388964
31
0.0
0
LINE
8
MCD_Layer_0
10
-11.442646
20
19.372950
30
0.0
11
-11.482346
21
19.290411
31
0.0
0
LINE
8
MCD_Layer_0
10
-11.435865
20
19.137171
30
0.0
11
-11.351053
21
19.366064
31
0.0
0
LINE
8
MCD_Layer_0
10
-10.394358
20
19.924669
30
0.0
11
-10.404657
21
19.966867
31
0.0
0
LINE
8
MCD_Layer_0
10
-15.414602
20
16.010099
30
0.0
11
-15.367901
21
16.070999
31
0.0
0
LINE
8
MCD_Layer_0
10
-14.936901
20
16.063900
30
0.0
11
-14.889702
21
16.003901
31
0.0
0
LINE
8
MCD_Layer_0
10
-14.440701
20
16.181601
30
0.0
11
-14.426302
21
16.112700
31
0.0
0
LINE
8
MCD_Layer_0
10
-14.140701
20
15.778399
30
0.0
11
-14.087801
21
15.738899
31
0.0
0
LINE
8
MCD_Layer_0
10
-14.374102
20
15.403200
30
0.0
11
-14.322701
21
15.346300
31
0.0
0
LINE
8
MCD_Layer_0
10
-14.476202
20
15.033800
30
0.0
11
-14.529402
21
14.987299
31
0.0
0
LINE
8
MCD_Layer_0
10
-14.342501
20
14.715500
30
0.0
11
-14.399502
21
14.686998
31
0.0
0
LINE
8
MCD_Layer_0
10
-14.623800
20
14.299500
30
0.0
11
-14.630201
21
14.243500
31
0.0
0
LINE
8
MCD_Layer_0
10
-15.046801
20
14.389500
30
0.0
11
-15.080601
21
14.337900
31
0.0
0
LINE
8
MCD_Layer_0
10
-16.542801
20
13.282200
30
0.0
11
-16.542801
21
13.569099
31
0.0
0
LINE
8
MCD_Layer_0
10
-15.801001
20
14.365400
30
0.0
11
-15.787701
21
14.365400
31
0.0
0
LINE
8
MCD_Layer_0
10
-16.052401
20
15.281900
30
0.0
11
-16.002901
21
15.336699
31
0.0
0
LINE
8
MCD_Layer_0
10
-16.163900
20
15.650099
30
0.0
11
-16.104601
21
15.676300
31
0.0
0
LINE
8
MCD_Layer_0
10
-15.837601
20
16.108799
30
0.0
11
-15.832701
21
16.176899
31
0.0
0
LINE
8
MCD_Layer_0
10
-15.909502
20
16.189499
30
0.0
11
-15.905401
21
16.246199
31
0.0
0
LINE
8
MCD_Layer_0
10
-16.453102
20
16.597200
30
0.0
11
-16.542801
21
16.605700
31
0.0
0
LINE
8
MCD_Layer_0
10
-16.542801
20
16.605700
30
0.0
11
-16.542801
21
13.670198
31
0.0
0
LINE
8
MCD_Layer_0
10
-16.096601
20
14.759600
30
0.0
11
-16.160301
21
14.833899
31
0.0
0
LINE
8
MCD_Layer_0
10
-16.158001
20
15.280600
30
0.0
11
-16.110001
21
15.333700
31
0.0
0
LINE
8
MCD_Layer_0
10
-16.242701
20
15.700100
30
0.0
11
-16.190302
21
15.723099
31
0.0
0
LINE
8
MCD_Layer_0
10
-16.372301
20
15.853701
30
0.0
11
-16.400101
21
15.949200
31
0.0
0
LINE
8
MCD_Layer_0
10
-16.419802
20
17.294001
30
0.0
11
-16.328300
21
17.353899
31
0.0
0
LINE
8
MCD_Layer_0
10
-16.283901
20
18.206699
30
0.0
11
-16.225201
21
18.282400
31
0.0
0
LINE
8
MCD_Layer_0
10
-15.778902
20
18.480900
30
0.0
11
-15.724401
21
18.551500
31
0.0
0
LINE
8
MCD_Layer_0
10
-15.637802
20
18.548100
30
0.0
11
-16.090401
21
19.105999
31
0.0
0
LINE
8
MCD_Layer_0
10
-16.090401
20
19.105999
30
0.0
11
-16.068501
21
19.391399
31
0.0
0
LINE
8
MCD_Layer_0
10
-16.068501
20
19.391399
30
0.0
11
-15.463902
21
19.572500
31
0.0
0
LINE
8
MCD_Layer_0
10
-15.463902
20
19.572500
30
0.0
11
-15.967001
21
20.140200
31
0.0
0
LINE
8
MCD_Layer_0
10
-15.967001
20
20.140200
30
0.0
11
-15.932001
21
20.515999
31
0.0
0
LINE
8
MCD_Layer_0
10
-15.932001
20
20.515999
30
0.0
11
-15.121302
21
20.748600
31
0.0
0
LINE
8
MCD_Layer_0
10
-15.121302
20
20.748600
30
0.0
11
-14.353201
21
19.905399
31
0.0
0
LINE
8
MCD_Layer_0
10
-14.353201
20
19.905399
30
0.0
11
-13.363401
21
20.202099
31
0.0
0
LINE
8
MCD_Layer_0
10
-13.363401
20
20.202099
30
0.0
11
-13.171501
21
19.987600
31
0.0
0
LINE
8
MCD_Layer_0
10
-12.944801
20
20.560900
30
0.0
11
-12.891301
21
20.581200
31
0.0
0
LINE
8
MCD_Layer_0
10
-13.066202
20
20.721199
30
0.0
11
-13.089001
21
20.817900
31
0.0
0
LINE
8
MCD_Layer_0
10
-12.586501
20
21.032200
30
0.0
11
-12.579401
21
21.088699
31
0.0
0
LINE
8
MCD_Layer_0
10
-12.090001
20
20.928699
30
0.0
11
-12.052502
21
20.974699
31
0.0
0
LINE
8
MCD_Layer_0
10
-9.369301
20
21.511999
30
0.0
11
-9.369301
21
21.799898
31
0.0
0
LINE
8
MCD_Layer_0
10
-14.230001
20
20.914900
30
0.0
11
-14.457502
21
20.900999
31
0.0
0
LINE
8
MCD_Layer_0
10
-16.542801
20
21.043499
30
0.0
11
-16.542801
21
19.276899
31
0.0
0
LINE
8
MCD_Layer_0
10
-16.322302
20
18.937399
30
0.0
11
-16.324501
21
18.686800
31
0.0
0
LINE
8
MCD_Layer_0
10
-16.542801
20
18.382500
30
0.0
11
-16.542801
21
16.834900
31
0.0
0
LINE
8
MCD_Layer_0
10
-15.575500
20
18.603300
30
0.0
11
-15.559702
21
18.807600
31
0.0
0
LINE
8
MCD_Layer_0
10
-15.559702
20
18.807600
30
0.0
11
-14.733101
21
19.056900
31
0.0
0
LINE
8
MCD_Layer_0
10
-14.733101
20
19.056900
30
0.0
11
-14.756601
21
18.850100
31
0.0
0
LINE
8
MCD_Layer_0
10
-14.756601
20
18.850100
30
0.0
11
-15.575500
21
18.603300
31
0.0
0
LINE
8
MCD_Layer_0
10
-15.643101
20
18.638899
30
0.0
11
-15.626301
21
18.832600
31
0.0
0
LINE
8
MCD_Layer_0
10
-15.626301
20
18.832600
30
0.0
11
-16.017801
21
19.316500
31
0.0
0
LINE
8
MCD_Layer_0
10
-16.017801
20
19.316500
30
0.0
11
-16.032600
21
19.123899
31
0.0
0
LINE
8
MCD_Layer_0
10
-16.032600
20
19.123899
30
0.0
11
-15.642801
21
18.642000
31
0.0
0
LINE
8
MCD_Layer_0
10
-15.580202
20
18.865000
30
0.0
11
-15.979902
21
19.359098
31
0.0
0
LINE
8
MCD_Layer_0
10
-15.979902
20
19.359098
30
0.0
11
-15.092901
21
19.625099
31
0.0
0
LINE
8
MCD_Layer_0
10
-15.092901
20
19.625099
30
0.0
11
-15.858702
21
20.478600
31
0.0
0
LINE
8
MCD_Layer_0
10
-15.858702
20
20.478600
30
0.0
11
-15.139301
21
20.684900
31
0.0
0
LINE
8
MCD_Layer_0
10
-15.139301
20
20.684900
30
0.0
11
-14.370901
21
19.841400
31
0.0
0
LINE
8
MCD_Layer_0
10
-14.370901
20
19.841400
30
0.0
11
-13.381601
21
20.137999
31
0.0
0
LINE
8
MCD_Layer_0
10
-13.381601
20
20.137999
30
0.0
11
-12.953801
21
19.659899
31
0.0
0
LINE
8
MCD_Layer_0
10
-12.953801
20
19.659899
30
0.0
11
-13.935001
21
19.362900
31
0.0
0
LINE
8
MCD_Layer_0
10
-13.935001
20
19.362900
30
0.0
11
-11.535602
21
16.729099
31
0.0
0
LINE
8
MCD_Layer_0
10
-11.535602
20
16.729099
30
0.0
11
-12.289001
21
16.499899
31
0.0
0
LINE
8
MCD_Layer_0
10
-12.289001
20
16.499899
30
0.0
11
-14.660702
21
19.143299
31
0.0
0
LINE
8
MCD_Layer_0
10
-14.660702
20
19.143299
30
0.0
11
-15.580202
21
18.865000
31
0.0
0
LINE
8
MCD_Layer_0
10
-16.636501
20
19.276899
30
0.0
11
-16.636501
21
21.136499
31
0.0
0
LINE
8
MCD_Layer_0
10
-14.405102
20
20.988600
30
0.0
11
-14.292801
21
20.995600
31
0.0
0
LINE
8
MCD_Layer_0
10
-9.291201
20
21.886900
30
0.0
11
-9.291201
21
21.455799
31
0.0
0
LINE
8
MCD_Layer_0
10
-9.608801
20
20.878099
30
0.0
11
-9.643301
21
20.919800
31
0.0
0
LINE
8
MCD_Layer_0
10
-10.646201
20
20.466000
30
0.0
11
-10.664301
21
20.406099
31
0.0
0
LINE
8
MCD_Layer_0
10
-10.361301
20
20.229399
30
0.0
11
-10.388500
21
20.184900
31
0.0
0
LINE
8
MCD_Layer_0
10
-10.178601
20
20.213200
30
0.0
11
-10.088501
21
20.162800
31
0.0
0
LINE
8
MCD_Layer_0
10
-10.376402
20
19.679199
30
0.0
11
-10.354201
21
19.632599
31
0.0
0
LINE
8
MCD_Layer_0
10
-10.475801
20
19.045599
30
0.0
11
-10.502301
21
18.960400
31
0.0
0
LINE
8
MCD_Layer_0
10
-10.408901
20
18.480999
30
0.0
11
-10.437302
21
18.389500
31
0.0
0
LINE
8
MCD_Layer_0
10
-11.110401
20
17.864000
30
0.0
11
-11.107001
21
17.754700
31
0.0
0
LINE
8
MCD_Layer_0
10
-11.577702
20
17.232698
30
0.0
11
-11.658701
21
17.327700
31
0.0
0
LINE
8
MCD_Layer_0
10
-12.097801
20
17.439798
30
0.0
11
-11.467001
21
16.737299
31
0.0
0
LINE
8
MCD_Layer_0
10
-11.464701
20
16.734699
30
0.0
11
-11.455201
21
16.369600
31
0.0
0
LINE
8
MCD_Layer_0
10
-11.455201
20
16.369600
30
0.0
11
-12.349502
21
16.081200
31
0.0
0
LINE
8
MCD_Layer_0
10
-12.349502
20
16.081200
30
0.0
11
-13.157301
21
16.980200
31
0.0
0
LINE
8
MCD_Layer_0
10
-14.266901
20
16.407299
30
0.0
11
-14.249701
21
16.297699
31
0.0
0
LINE
8
MCD_Layer_0
10
-14.359800
20
16.229300
30
0.0
11
-14.356001
21
16.191900
31
0.0
0
LINE
8
MCD_Layer_0
10
-13.817001
20
16.056799
30
0.0
11
-13.821100
21
15.940599
31
0.0
0
LINE
8
MCD_Layer_0
10
-14.039701
20
15.799700
30
0.0
11
-13.997002
21
15.767900
31
0.0
0
LINE
8
MCD_Layer_0
10
-14.256102
20
15.387999
30
0.0
11
-14.217501
21
15.345400
31
0.0
0
LINE
8
MCD_Layer_0
10
-14.367201
20
15.026400
30
0.0
11
-14.414301
21
14.985199
31
0.0
0
LINE
8
MCD_Layer_0
10
-14.251001
20
14.674700
30
0.0
11
-14.297602
21
14.651400
31
0.0
0
LINE
8
MCD_Layer_0
10
-14.104601
20
14.564199
30
0.0
11
-14.054901
21
14.473700
31
0.0
0
LINE
8
MCD_Layer_0
10
-14.555302
20
14.216101
30
0.0
11
-14.561201
21
14.164900
31
0.0
0
LINE
8
MCD_Layer_0
10
-15.024002
20
14.282999
30
0.0
11
-15.057802
21
14.223600
31
0.0
0
LINE
8
MCD_Layer_0
10
-16.636501
20
13.177500
30
0.0
11
-16.636501
21
18.375898
31
0.0
0
LINE
8
MCD_Layer_0
10
-16.408102
20
18.767698
30
0.0
11
-16.407101
21
18.880299
31
0.0
0
LINE
8
MCD_Layer_0
10
-15.404602
20
19.590399
30
0.0
11
-15.193102
21
19.653700
31
0.0
0
LINE
8
MCD_Layer_0
10
-15.193102
20
19.653700
30
0.0
11
-15.884201
21
20.423899
31
0.0
0
LINE
8
MCD_Layer_0
10
-15.884201
20
20.423899
30
0.0
11
-15.904202
21
20.154299
31
0.0
0
LINE
8
MCD_Layer_0
10
-15.904202
20
20.154200
30
0.0
11
-15.404602
21
19.590399
31
0.0
0
LINE
8
MCD_Layer_0
10
-14.667402
20
19.070999
30
0.0
11
-14.695702
21
18.832800
31
0.0
0
LINE
8
MCD_Layer_0
10
-14.695702
20
18.832800
30
0.0
11
-12.336302
21
16.170700
31
0.0
0
LINE
8
MCD_Layer_0
10
-12.336302
20
16.170700
30
0.0
11
-12.333801
21
16.456900
31
0.0
0
LINE
8
MCD_Layer_0
10
-12.333801
20
16.456900
30
0.0
11
-14.667402
21
19.070999
31
0.0
0
LINE
8
MCD_Layer_0
10
-13.689501
20
19.176899
30
0.0
11
-12.966401
21
19.398199
31
0.0
0
LINE
8
MCD_Layer_0
10
-12.966401
20
19.398199
30
0.0
11
-12.961202
21
19.602699
31
0.0
0
LINE
8
MCD_Layer_0
10
-12.961202
20
19.602699
30
0.0
11
-13.834002
21
19.335600
31
0.0
0
LINE
8
MCD_Layer_0
10
-13.834002
20
19.335600
30
0.0
11
-13.689501
21
19.176899
31
0.0
0
LINE
8
MCD_Layer_0
10
-13.318201
20
18.773600
30
0.0
11
-13.415501
21
18.879299
31
0.0
0
LINE
8
MCD_Layer_0
10
-13.314100
20
19.136700
30
0.0
11
-13.311401
21
19.145100
31
0.0
0
LINE
8
MCD_Layer_0
10
-12.492601
20
17.875898
30
0.0
11
-12.406502
21
17.781099
31
0.0
0
LINE
8
MCD_Layer_0
10
-12.231301
20
17.588400
30
0.0
11
-12.150102
21
17.497900
31
0.0
0
LINE
8
MCD_Layer_0
10
-12.257401
20
16.439798
30
0.0
11
-11.523901
21
16.663000
31
0.0
0
LINE
8
MCD_Layer_0
10
-11.523901
20
16.663000
30
0.0
11
-11.526001
21
16.419899
31
0.0
0
LINE
8
MCD_Layer_0
10
-11.526001
20
16.419899
30
0.0
11
-12.266401
21
16.194700
31
0.0
0
LINE
8
MCD_Layer_0
10
-12.266401
20
16.194700
30
0.0
11
-12.257401
21
16.439798
31
0.0
0
LINE
8
MCD_Layer_0
10
-13.619801
20
17.120501
30
0.0
11
-13.624502
21
17.160000
31
0.0
0
LINE
8
MCD_Layer_0
10
-12.051802
20
20.885599
30
0.0
11
-12.101601
21
20.827200
31
0.0
0
LINE
8
MCD_Layer_0
10
-12.510401
20
21.015600
30
0.0
11
-12.518902
21
20.947899
31
0.0
0
LINE
8
MCD_Layer_0
10
-12.808102
20
20.529999
30
0.0
11
-12.868701
21
20.506899
31
0.0
0
LINE
8
MCD_Layer_0
10
-12.724401
20
20.185499
30
0.0
11
-12.776701
21
20.133400
31
0.0
0
LINE
8
MCD_Layer_0
10
-12.395202
20
20.017599
30
0.0
11
-12.388701
21
20.155298
31
0.0
0
LINE
8
MCD_Layer_0
10
-10.742601
20
20.414499
30
0.0
11
-10.763001
21
20.346899
31
0.0
0
LINE
8
MCD_Layer_0
10
-10.460501
20
20.215500
30
0.0
11
-10.493801
21
20.161098
31
0.0
0
LINE
8
MCD_Layer_0
10
-10.478601
20
19.713600
30
0.0
11
-10.454401
21
19.662699
31
0.0
0
LINE
8
MCD_Layer_0
10
-13.117802
20
19.931099
30
0.0
11
-13.008600
21
19.816099
31
0.0
0
LINE
8
MCD_Layer_0
10
-12.882201
20
20.137600
30
0.0
11
-12.831401
21
20.188099
31
0.0
0
LINE
8
MCD_Layer_0
10
-12.859302
20
20.226999
30
0.0
11
-12.831401
21
20.188099
31
0.0
0
LINE
8
MCD_Layer_0
10
14.440506
20
14.433882
30
0.0
11
14.426880
21
14.475126
31
0.0
0
LINE
8
MCD_Layer_0
10
15.064478
20
15.036505
30
0.0
11
15.085472
21
14.999510
31
0.0
0
LINE
8
MCD_Layer_0
10
14.915142
20
15.458727
30
0.0
11
14.946035
21
15.493830
31
0.0
0
LINE
8
MCD_Layer_0
10
14.210760
20
16.002485
30
0.0
11
14.185583
21
15.963526
31
0.0
0
LINE
8
MCD_Layer_0
10
15.372473
20
15.380720
30
0.0
11
15.407713
21
15.349798
31
0.0
0
LINE
8
MCD_Layer_0
10
16.062145
20
15.918394
30
0.0
11
16.043941
21
15.961496
31
0.0
0
LINE
8
MCD_Layer_0
10
14.703419
20
17.749601
30
0.0
11
14.662651
21
17.923185
31
0.0
0
LINE
8
MCD_Layer_0
10
14.761333
20
17.959936
30
0.0
11
14.790133
21
17.815821
31
0.0
0
LINE
8
MCD_Layer_0
10
14.901682
20
17.947206
30
0.0
11
14.946522
21
17.867346
31
0.0
0
LINE
8
MCD_Layer_0
10
15.098709
20
17.817522
30
0.0
11
14.959856
21
18.018286
31
0.0
0
LINE
8
MCD_Layer_0
10
12.092499
20
20.196474
30
0.0
11
12.129311
21
20.167440
31
0.0
0
LINE
8
MCD_Layer_0
10
12.753088
20
20.769510
30
0.0
11
12.732653
21
20.811598
31
0.0
0
LINE
8
MCD_Layer_0
10
11.718233
20
19.422014
30
0.0
11
11.599424
21
19.554972
31
0.0
0
LINE
8
MCD_Layer_0
10
11.512718
20
19.495218
30
0.0
11
11.614254
21
19.388964
31
0.0
0
LINE
8
MCD_Layer_0
10
11.442646
20
19.372950
30
0.0
11
11.482346
21
19.290411
31
0.0
0
LINE
8
MCD_Layer_0
10
11.435865
20
19.137171
30
0.0
11
11.351053
21
19.366064
31
0.0
0
LINE
8
MCD_Layer_0
10
10.394358
20
19.924669
30
0.0
11
10.404657
21
19.966867
31
0.0
0
LINE
8
MCD_Layer_0
10
15.414602
20
16.010099
30
0.0
11
15.367901
21
16.070999
31
0.0
0
LINE
8
MCD_Layer_0
10
14.936901
20
16.063900
30
0.0
11
14.889702
21
16.003901
31
0.0
0
LINE
8
MCD_Layer_0
10
14.440701
20
16.181601
30
0.0
11
14.426302
21
16.112700
31
0.0
0
LINE
8
MCD_Layer_0
10
14.140701
20
15.778399
30
0.0
11
14.087801
21
15.738899
31
0.0
0
LINE
8
MCD_Layer_0
10
14.374102
20
15.403200
30
0.0
11
14.322701
21
15.346300
31
0.0
0
LINE
8
MCD_Layer_0
10
14.476202
20
15.033800
30
0.0
11
14.529402
21
14.987299
31
0.0
0
LINE
8
MCD_Layer_0
10
14.342501
20
14.715500
30
0.0
11
14.399502
21
14.686998
31
0.0
0
LINE
8
MCD_Layer_0
10
14.623800
20
14.299500
30
0.0
11
14.630201
21
14.243500
31
0.0
0
LINE
8
MCD_Layer_0
10
15.046801
20
14.389500
30
0.0
11
15.080601
21
14.337900
31
0.0
0
LINE
8
MCD_Layer_0
10
16.542801
20
13.282200
30
0.0
11
16.542801
21
13.569099
31
0.0
0
LINE
8
MCD_Layer_0
10
15.801001
20
14.365400
30
0.0
11
15.787701
21
14.365400
31
0.0
0
LINE
8
MCD_Layer_0
10
16.052401
20
15.281900
30
0.0
11
16.002901
21
15.336699
31
0.0
0
LINE
8
MCD_Layer_0
10
16.163900
20
15.650099
30
0.0
11
16.104601
21
15.676300
31
0.0
0
LINE
8
MCD_Layer_0
10
15.837601
20
16.108799
30
0.0
11
15.832701
21
16.176899
31
0.0
0
LINE
8
MCD_Layer_0
10
15.909502
20
16.189499
30
0.0
11
15.905401
21
16.246199
31
0.0
0
LINE
8
MCD_Layer_0
10
16.453102
20
16.597200
30
0.0
11
16.542801
21
16.605700
31
0.0
0
LINE
8
MCD_Layer_0
10
16.542801
20
16.605700
30
0.0
11
16.542801
21
13.670198
31
0.0
0
LINE
8
MCD_Layer_0
10
16.096601
20
14.759600
30
0.0
11
16.160301
21
14.833899
31
0.0
0
LINE
8
MCD_Layer_0
10
16.158001
20
15.280600
30
0.0
11
16.110001
21
15.333700
31
0.0
0
LINE
8
MCD_Layer_0
10
16.242701
20
15.700100
30
0.0
11
16.190302
21
15.723099
31
0.0
0
LINE
8
MCD_Layer_0
10
16.372301
20
15.853701
30
0.0
11
16.400101
21
15.949200
31
0.0
0
LINE
8
MCD_Layer_0
10
16.419802
20
17.294001
30
0.0
11
16.328300
21
17.353899
31
0.0
0
LINE
8
MCD_Layer_0
10
16.283901
20
18.206699
30
0.0
11
16.225201
21
18.282400
31
0.0
0
LINE
8
MCD_Layer_0
10
15.778902
20
18.480900
30
0.0
11
15.724401
21
18.551500
31
0.0
0
LINE
8
MCD_Layer_0
10
15.637802
20
18.548100
30
0.0
11
16.090401
21
19.105999
31
0.0
0
LINE
8
MCD_Layer_0
10
16.090401
20
19.105999
30
0.0
11
16.068501
21
19.391399
31
0.0
0
LINE
8
MCD_Layer_0
10
16.068501
20
19.391399
30
0.0
11
15.463902
21
19.572500
31
0.0
0
LINE
8
MCD_Layer_0
10
15.463902
20
19.572500
30
0.0
11
15.967001
21
20.140200
31
0.0
0
LINE
8
MCD_Layer_0
10
15.967001
20
20.140200
30
0.0
11
15.932001
21
20.515999
31
0.0
0
LINE
8
MCD_Layer_0
10
15.932001
20
20.515999
30
0.0
11
15.121302
21
20.748600
31
0.0
0
LINE
8
MCD_Layer_0
10
15.121302
20
20.748600
30
0.0
11
14.353201
21
19.905399
31
0.0
0
LINE
8
MCD_Layer_0
10
14.353201
20
19.905399
30
0.0
11
13.363401
21
20.202099
31
0.0
0
LINE
8
MCD_Layer_0
10
13.363401
20
20.202099
30
0.0
11
13.171501
21
19.987600
31
0.0
0
LINE
8
MCD_Layer_0
10
12.944801
20
20.560900
30
0.0
11
12.891301
21
20.581200
31
0.0
0
LINE
8
MCD_Layer_0
10
13.066202
20
20.721199
30
0.0
11
13.089001
21
20.817900
31
0.0
0
LINE
8
MCD_Layer_0
10
12.586501
20
21.032200
30
0.0
11
12.579401
21
21.088699
31
0.0
0
LINE
8
MCD_Layer_0
10
12.090001
20
20.928699
30
0.0
11
12.052502
21
20.974699
31
0.0
0
LINE
8
MCD_Layer_0
10
9.369301
20
21.511999
30
0.0
11
9.369301
21
21.799898
31
0.0
0
LINE
8
MCD_Layer_0
10
14.230001
20
20.914900
30
0.0
11
14.457502
21
20.900999
31
0.0
0
LINE
8
MCD_Layer_0
10
16.542801
20
21.043499
30
0.0
11
16.542801
21
19.276899
31
0.0
0
LINE
8
MCD_Layer_0
10
16.322302
20
18.937399
30
0.0
11
16.324501
21
18.686800
31
0.0
0
LINE
8
MCD_Layer_0
10
16.542801
20
18.382500
30
0.0
11
16.542801
21
16.834900
31
0.0
0
LINE
8
MCD_Layer_0
10
15.575500
20
18.603300
30
0.0
11
15.559702
21
18.807600
31
0.0
0
LINE
8
MCD_Layer_0
10
15.559702
20
18.807600
30
0.0
11
14.733101
21
19.056900
31
0.0
0
LINE
8
MCD_Layer_0
10
14.733101
20
19.056900
30
0.0
11
14.756601
21
18.850100
31
0.0
0
LINE
8
MCD_Layer_0
10
14.756601
20
18.850100
30
0.0
11
15.575500
21
18.603300
31
0.0
0
LINE
8
MCD_Layer_0
10
15.643101
20
18.638899
30
0.0
11
15.626301
21
18.832600
31
0.0
0
LINE
8
MCD_Layer_0
10
15.626301
20
18.832600
30
0.0
11
16.017801
21
19.316500
31
0.0
0
LINE
8
MCD_Layer_0
10
16.017801
20
19.316500
30
0.0
11
16.032600
21
19.123899
31
0.0
0
LINE
8
MCD_Layer_0
10
16.032600
20
19.123899
30
0.0
11
15.642801
21
18.642000
31
0.0
0
LINE
8
MCD_Layer_0
10
15.580202
20
18.865000
30
0.0
11
15.979902
21
19.359098
31
0.0
0
LINE
8
MCD_Layer_0
10
15.979902
20
19.359098
30
0.0
11
15.092901
21
19.625099
31
0.0
0
LINE
8
MCD_Layer_0
10
15.092901
20
19.625099
30
0.0
11
15.858702
21
20.478600
31
0.0
0
LINE
8
MCD_Layer_0
10
15.858702
20
20.478600
30
0.0
11
15.139301
21
20.684900
31
0.0
0
LINE
8
MCD_Layer_0
10
15.139301
20
20.684900
30
0.0
11
14.370901
21
19.841400
31
0.0
0
LINE
8
MCD_Layer_0
10
14.370901
20
19.841400
30
0.0
11
13.381601
21
20.137999
31
0.0
0
LINE
8
MCD_Layer_0
10
13.381601
20
20.137999
30
0.0
11
12.953801
21
19.659899
31
0.0
0
LINE
8
MCD_Layer_0
10
12.953801
20
19.659899
30
0.0
11
13.935001
21
19.362900
31
0.0
0
LINE
8
MCD_Layer_0
10
13.935001
20
19.362900
30
0.0
11
11.535602
21
16.729099
31
0.0
0
LINE
8
MCD_Layer_0
10
11.535602
20
16.729099
30
0.0
11
12.289001
21
16.499899
31
0.0
0
LINE
8
MCD_Layer_0
10
12.289001
20
16.499899
30
0.0
11
14.660702
21
19.143299
31
0.0
0
LINE
8
MCD_Layer_0
10
14.660702
20
19.143299
30
0.0
11
15.580202
21
18.865000
31
0.0
0
LINE
8
MCD_Layer_0
10
16.636501
20
19.276899
30
0.0
11
16.636501
21
21.136499
31
0.0
0
LINE
8
MCD_Layer_0
10
14.405102
20
20.988600
30
0.0
11
14.292801
21
20.995600
31
0.0
0
LINE
8
MCD_Layer_0
10
9.291201
20
21.886900
30
0.0
11
9.291201
21
21.455799
31
0.0
0
LINE
8
MCD_Layer_0
10
9.608801
20
20.878099
30
0.0
11
9.643301
21
20.919800
31
0.0
0
LINE
8
MCD_Layer_0
10
10.646201
20
20.466000
30
0.0
11
10.664301
21
20.406099
31
0.0
0
LINE
8
MCD_Layer_0
10
10.361301
20
20.229399
30
0.0
11
10.388500
21
20.184900
31
0.0
0
LINE
8
MCD_Layer_0
10
10.178601
20
20.213200
30
0.0
11
10.088501
21
20.162800
31
0.0
0
LINE
8
MCD_Layer_0
10
10.376402
20
19.679199
30
0.0
11
10.354201
21
19.632599
31
0.0
0
LINE
8
MCD_Layer_0
10
10.475801
20
19.045599
30
0.0
11
10.502301
21
18.960400
31
0.0
0
LINE
8
MCD_Layer_0
10
10.408901
20
18.480999
30
0.0
11
10.437302
21
18.389500
31
0.0
0
LINE
8
MCD_Layer_0
10
11.110401
20
17.864000
30
0.0
11
11.107001
21
17.754700
31
0.0
0
LINE
8
MCD_Layer_0
10
11.577702
20
17.232698
30
0.0
11
11.658701
21
17.327700
31
0.0
0
LINE
8
MCD_Layer_0
10
12.097801
20
17.439798
30
0.0
11
11.467001
21
16.737299
31
0.0
0
LINE
8
MCD_Layer_0
10
11.464701
20
16.734699
30
0.0
11
11.455201
21
16.369600
31
0.0
0
LINE
8
MCD_Layer_0
10
11.455201
20
16.369600
30
0.0
11
12.349502
21
16.081200
31
0.0
0
LINE
8
MCD_Layer_0
10
12.349502
20
16.081200
30
0.0
11
13.157301
21
16.980200
31
0.0
0
LINE
8
MCD_Layer_0
10
14.266901
20
16.407299
30
0.0
11
14.249701
21
16.297699
31
0.0
0
LINE
8
MCD_Layer_0
10
14.359800
20
16.229300
30
0.0
11
14.356001
21
16.191900
31
0.0
0
LINE
8
MCD_Layer_0
10
13.817001
20
16.056799
30
0.0
11
13.821100
21
15.940599
31
0.0
0
LINE
8
MCD_Layer_0
10
14.039701
20
15.799700
30
0.0
11
13.997002
21
15.767900
31
0.0
0
LINE
8
MCD_Layer_0
10
14.256102
20
15.387999
30
0.0
11
14.217501
21
15.345400
31
0.0
0
LINE
8
MCD_Layer_0
10
14.367201
20
15.026400
30
0.0
11
14.414301
21
14.985199
31
0.0
0
LINE
8
MCD_Layer_0
10
14.251001
20
14.674700
30
0.0
11
14.297602
21
14.651400
31
0.0
0
LINE
8
MCD_Layer_0
10
14.104601
20
14.564199
30
0.0
11
14.054901
21
14.473700
31
0.0
0
LINE
8
MCD_Layer_0
10
14.555302
20
14.216101
30
0.0
11
14.561201
21
14.164900
31
0.0
0
LINE
8
MCD_Layer_0
10
15.024002
20
14.282999
30
0.0
11
15.057802
21
14.223600
31
0.0
0
LINE
8
MCD_Layer_0
10
16.636501
20
13.177500
30
0.0
11
16.636501
21
18.375898
31
0.0
0
LINE
8
MCD_Layer_0
10
16.408102
20
18.767698
30
0.0
11
16.407101
21
18.880299
31
0.0
0
LINE
8
MCD_Layer_0
10
15.404602
20
19.590399
30
0.0
11
15.193102
21
19.653700
31
0.0
0
LINE
8
MCD_Layer_0
10
15.193102
20
19.653700
30
0.0
11
15.884201
21
20.423899
31
0.0
0
LINE
8
MCD_Layer_0
10
15.884201
20
20.423899
30
0.0
11
15.904202
21
20.154299
31
0.0
0
LINE
8
MCD_Layer_0
10
15.904202
20
20.154200
30
0.0
11
15.404602
21
19.590399
31
0.0
0
LINE
8
MCD_Layer_0
10
14.667402
20
19.070999
30
0.0
11
14.695702
21
18.832800
31
0.0
0
LINE
8
MCD_Layer_0
10
14.695702
20
18.832800
30
0.0
11
12.336302
21
16.170700
31
0.0
0
LINE
8
MCD_Layer_0
10
12.336302
20
16.170700
30
0.0
11
12.333801
21
16.456900
31
0.0
0
LINE
8
MCD_Layer_0
10
12.333801
20
16.456900
30
0.0
11
14.667402
21
19.070999
31
0.0
0
LINE
8
MCD_Layer_0
10
13.689501
20
19.176899
30
0.0
11
12.966401
21
19.398199
31
0.0
0
LINE
8
MCD_Layer_0
10
12.966401
20
19.398199
30
0.0
11
12.961202
21
19.602699
31
0.0
0
LINE
8
MCD_Layer_0
10
12.961202
20
19.602699
30
0.0
11
13.834002
21
19.335600
31
0.0
0
LINE
8
MCD_Layer_0
10
13.834002
20
19.335600
30
0.0
11
13.689501
21
19.176899
31
0.0
0
LINE
8
MCD_Layer_0
10
13.318201
20
18.773600
30
0.0
11
13.415501
21
18.879299
31
0.0
0
LINE
8
MCD_Layer_0
10
13.314100
20
19.136700
30
0.0
11
13.311401
21
19.145100
31
0.0
0
LINE
8
MCD_Layer_0
10
12.492601
20
17.875898
30
0.0
11
12.406502
21
17.781099
31
0.0
0
LINE
8
MCD_Layer_0
10
12.231301
20
17.588400
30
0.0
11
12.150102
21
17.497900
31
0.0
0
LINE
8
MCD_Layer_0
10
12.257401
20
16.439798
30
0.0
11
11.523901
21
16.663000
31
0.0
0
LINE
8
MCD_Layer_0
10
11.523901
20
16.663000
30
0.0
11
11.526001
21
16.419899
31
0.0
0
LINE
8
MCD_Layer_0
10
11.526001
20
16.419899
30
0.0
11
12.266401
21
16.194700
31
0.0
0
LINE
8
MCD_Layer_0
10
12.266401
20
16.194700
30
0.0
11
12.257401
21
16.439798
31
0.0
0
LINE
8
MCD_Layer_0
10
13.619801
20
17.120501
30
0.0
11
13.624502
21
17.160000
31
0.0
0
LINE
8
MCD_Layer_0
10
12.051802
20
20.885599
30
0.0
11
12.101601
21
20.827200
31
0.0
0
LINE
8
MCD_Layer_0
10
12.510401
20
21.015600
30
0.0
11
12.518902
21
20.947899
31
0.0
0
LINE
8
MCD_Layer_0
10
12.808102
20
20.529999
30
0.0
11
12.868701
21
20.506899
31
0.0
0
LINE
8
MCD_Layer_0
10
12.724401
20
20.185499
30
0.0
11
12.776701
21
20.133400
31
0.0
0
LINE
8
MCD_Layer_0
10
12.395202
20
20.017599
30
0.0
11
12.388701
21
20.155298
31
0.0
0
LINE
8
MCD_Layer_0
10
10.742601
20
20.414499
30
0.0
11
10.763001
21
20.346899
31
0.0
0
LINE
8
MCD_Layer_0
10
10.460501
20
20.215500
30
0.0
11
10.493801
21
20.161098
31
0.0
0
LINE
8
MCD_Layer_0
10
10.478601
20
19.713600
30
0.0
11
10.454401
21
19.662699
31
0.0
0
LINE
8
MCD_Layer_0
10
13.117802
20
19.931099
30
0.0
11
13.008600
21
19.816099
31
0.0
0
LINE
8
MCD_Layer_0
10
12.882201
20
20.137600
30
0.0
11
12.831401
21
20.188099
31
0.0
0
LINE
8
MCD_Layer_0
10
12.859302
20
20.226999
30
0.0
11
12.831401
21
20.188099
31
0.0
0
LINE
8
MCD_Layer_0
10
-11.849272
20
11.618194
30
0.0
11
-11.765271
21
11.618194
31
0.0
0
LINE
8
MCD_Layer_0
10
-11.765271
20
11.618194
30
0.0
11
-11.765271
21
11.588194
31
0.0
0
LINE
8
MCD_Layer_0
10
-11.063671
20
11.828794
30
0.0
11
-11.637471
21
12.273394
31
0.0
0
LINE
8
MCD_Layer_0
10
-10.901271
20
13.110194
30
0.0
11
-10.817271
21
13.110194
31
0.0
0
LINE
8
MCD_Layer_0
10
-10.817271
20
13.110194
30
0.0
11
-10.817271
21
12.643794
31
0.0
0
LINE
8
MCD_Layer_0
10
-10.817271
20
12.643794
30
0.0
11
-10.901271
21
12.643794
31
0.0
0
LINE
8
MCD_Layer_0
10
-10.901271
20
12.643794
30
0.0
11
-10.901271
21
12.685794
31
0.0
0
LINE
8
MCD_Layer_0
10
-11.418471
20
12.396593
30
0.0
11
-10.946072
21
12.056794
31
0.0
0
LINE
8
MCD_Layer_0
10
-11.765271
20
11.036194
30
0.0
11
-11.849272
21
11.036194
31
0.0
0
LINE
8
MCD_Layer_0
10
-11.849272
20
11.036194
30
0.0
11
-11.849272
21
11.618194
31
0.0
0
LINE
8
MCD_Layer_0
10
-10.071223
20
11.072194
30
0.0
11
-10.071223
21
11.156193
31
0.0
0
LINE
8
MCD_Layer_0
10
-10.071223
20
11.156193
30
0.0
11
-9.945223
21
11.156193
31
0.0
0
LINE
8
MCD_Layer_0
10
-9.903223
20
11.198193
30
0.0
11
-9.903223
21
12.906193
31
0.0
0
LINE
8
MCD_Layer_0
10
-9.945223
20
12.948193
30
0.0
11
-10.363223
21
12.948193
31
0.0
0
LINE
8
MCD_Layer_0
10
-10.403223
20
12.906193
30
0.0
11
-10.403223
21
12.708193
31
0.0
0
LINE
8
MCD_Layer_0
10
-10.403223
20
12.708193
30
0.0
11
-10.487223
21
12.708193
31
0.0
0
LINE
8
MCD_Layer_0
10
-10.487223
20
12.708193
30
0.0
11
-10.487223
21
13.072194
31
0.0
0
LINE
8
MCD_Layer_0
10
-10.487223
20
13.072194
30
0.0
11
-9.091224
21
13.072194
31
0.0
0
LINE
8
MCD_Layer_0
10
-9.091224
20
13.072194
30
0.0
11
-9.091224
21
12.708193
31
0.0
0
LINE
8
MCD_Layer_0
10
-9.091224
20
12.708193
30
0.0
11
-9.175224
21
12.708193
31
0.0
0
LINE
8
MCD_Layer_0
10
-9.175224
20
12.708193
30
0.0
11
-9.175224
21
12.906193
31
0.0
0
LINE
8
MCD_Layer_0
10
-9.217223
20
12.948193
30
0.0
11
-9.633223
21
12.948193
31
0.0
0
LINE
8
MCD_Layer_0
10
-9.675224
20
12.906193
30
0.0
11
-9.675224
21
11.198193
31
0.0
0
LINE
8
MCD_Layer_0
10
-9.633223
20
11.156193
30
0.0
11
-9.507223
21
11.156193
31
0.0
0
LINE
8
MCD_Layer_0
10
-9.507223
20
11.156193
30
0.0
11
-9.507223
21
11.072194
31
0.0
0
LINE
8
MCD_Layer_0
10
-9.507223
20
11.072194
30
0.0
11
-10.071223
21
11.072194
31
0.0
0
LINE
8
MCD_Layer_0
10
-8.777727
20
11.072194
30
0.0
11
-8.777727
21
11.156194
31
0.0
0
LINE
8
MCD_Layer_0
10
-8.777727
20
11.156194
30
0.0
11
-8.651727
21
11.156194
31
0.0
0
LINE
8
MCD_Layer_0
10
-8.611727
20
11.198194
30
0.0
11
-8.611727
21
12.948194
31
0.0
0
LINE
8
MCD_Layer_0
10
-8.651727
20
12.988194
30
0.0
11
-8.777727
21
12.988194
31
0.0
0
LINE
8
MCD_Layer_0
10
-8.777727
20
12.988194
30
0.0
11
-8.777727
21
13.072194
31
0.0
0
LINE
8
MCD_Layer_0
10
-8.777727
20
13.072194
30
0.0
11
-7.631727
21
13.072194
31
0.0
0
LINE
8
MCD_Layer_0
10
-7.631727
20
13.072194
30
0.0
11
-7.631727
21
12.698194
31
0.0
0
LINE
8
MCD_Layer_0
10
-7.631727
20
12.698194
30
0.0
11
-7.715728
21
12.698194
31
0.0
0
LINE
8
MCD_Layer_0
10
-7.715728
20
12.698194
30
0.0
11
-7.715728
21
12.864193
31
0.0
0
LINE
8
MCD_Layer_0
10
-7.797727
20
12.948194
30
0.0
11
-8.381727
21
12.948194
31
0.0
0
LINE
8
MCD_Layer_0
10
-8.381727
20
12.948194
30
0.0
11
-8.381727
21
12.198194
31
0.0
0
LINE
8
MCD_Layer_0
10
-8.381727
20
12.198194
30
0.0
11
-7.933727
21
12.198194
31
0.0
0
LINE
8
MCD_Layer_0
10
-7.891727
20
12.238194
30
0.0
11
-7.891727
21
12.342194
31
0.0
0
LINE
8
MCD_Layer_0
10
-7.891727
20
12.342194
30
0.0
11
-7.809727
21
12.342194
31
0.0
0
LINE
8
MCD_Layer_0
10
-7.809727
20
12.342194
30
0.0
11
-7.809727
21
11.948194
31
0.0
0
LINE
8
MCD_Layer_0
10
-7.809727
20
11.948194
30
0.0
11
-7.891727
21
11.948194
31
0.0
0
LINE
8
MCD_Layer_0
10
-7.891727
20
11.948194
30
0.0
11
-7.891727
21
12.052194
31
0.0
0
LINE
8
MCD_Layer_0
10
-7.933727
20
12.092194
30
0.0
11
-8.381727
21
12.092194
31
0.0
0
LINE
8
MCD_Layer_0
10
-8.381727
20
12.092194
30
0.0
11
-8.381727
21
11.290194
31
0.0
0
LINE
8
MCD_Layer_0
10
-7.579727
20
11.364194
30
0.0
11
-7.517727
21
11.540194
31
0.0
0
LINE
8
MCD_Layer_0
10
-7.517727
20
11.540194
30
0.0
11
-7.433727
21
11.500194
31
0.0
0
LINE
8
MCD_Layer_0
10
-7.433727
20
11.500194
30
0.0
11
-7.579727
21
11.072194
31
0.0
0
LINE
8
MCD_Layer_0
10
-7.579727
20
11.072194
30
0.0
11
-8.777727
21
11.072194
31
0.0
0
LINE
8
MCD_Layer_0
10
-6.401464
20
10.968194
30
0.0
11
-7.089464
21
12.934194
31
0.0
0
LINE
8
MCD_Layer_0
10
-7.169464
20
12.988194
30
0.0
11
-7.287464
21
12.988194
31
0.0
0
LINE
8
MCD_Layer_0
10
-7.287464
20
12.988194
30
0.0
11
-7.287464
21
13.072194
31
0.0
0
LINE
8
MCD_Layer_0
10
-7.287464
20
13.072194
30
0.0
11
-6.671464
21
13.072194
31
0.0
0
LINE
8
MCD_Layer_0
10
-6.671464
20
13.072194
30
0.0
11
-6.671464
21
12.988194
31
0.0
0
LINE
8
MCD_Layer_0
10
-6.671464
20
12.988194
30
0.0
11
-6.803464
21
12.988194
31
0.0
0
LINE
8
MCD_Layer_0
10
-6.841464
20
12.934194
30
0.0
11
-6.339464
21
11.496194
31
0.0
0
LINE
8
MCD_Layer_0
10
-6.339464
20
11.496194
30
0.0
11
-5.837464
21
12.934194
31
0.0
0
LINE
8
MCD_Layer_0
10
-5.875464
20
12.988194
30
0.0
11
-5.985464
21
12.988194
31
0.0
0
LINE
8
MCD_Layer_0
10
-5.985464
20
12.988194
30
0.0
11
-5.985464
21
13.072194
31
0.0
0
LINE
8
MCD_Layer_0
10
-5.985464
20
13.072194
30
0.0
11
-5.557464
21
13.072194
31
0.0
0
LINE
8
MCD_Layer_0
10
-5.557464
20
13.072194
30
0.0
11
-5.557464
21
12.988194
31
0.0
0
LINE
8
MCD_Layer_0
10
-5.557464
20
12.988194
30
0.0
11
-5.635464
21
12.988194
31
0.0
0
LINE
8
MCD_Layer_0
10
-5.715464
20
12.932194
30
0.0
11
-6.401464
21
10.968194
31
0.0
0
LINE
8
MCD_Layer_0
10
-5.243552
20
11.072194
30
0.0
11
-5.243552
21
11.156194
31
0.0
0
LINE
8
MCD_Layer_0
10
-5.243552
20
11.156194
30
0.0
11
-5.117552
21
11.156194
31
0.0
0
LINE
8
MCD_Layer_0
10
-5.077552
20
11.198194
30
0.0
11
-5.077552
21
12.948194
31
0.0
0
LINE
8
MCD_Layer_0
10
-5.117552
20
12.988194
30
0.0
11
-5.243552
21
12.988194
31
0.0
0
LINE
8
MCD_Layer_0
10
-5.243552
20
12.988194
30
0.0
11
-5.243552
21
13.072194
31
0.0
0
LINE
8
MCD_Layer_0
10
-5.243552
20
13.072194
30
0.0
11
-4.097552
21
13.072194
31
0.0
0
LINE
8
MCD_Layer_0
10
-4.097552
20
13.072194
30
0.0
11
-4.097552
21
12.698194
31
0.0
0
LINE
8
MCD_Layer_0
10
-4.097552
20
12.698194
30
0.0
11
-4.181552
21
12.698194
31
0.0
0
LINE
8
MCD_Layer_0
10
-4.181552
20
12.698194
30
0.0
11
-4.181552
21
12.864193
31
0.0
0
LINE
8
MCD_Layer_0
10
-4.263552
20
12.948194
30
0.0
11
-4.847552
21
12.948194
31
0.0
0
LINE
8
MCD_Layer_0
10
-4.847552
20
12.948194
30
0.0
11
-4.847552
21
12.198194
31
0.0
0
LINE
8
MCD_Layer_0
10
-4.847552
20
12.198194
30
0.0
11
-4.399552
21
12.198194
31
0.0
0
LINE
8
MCD_Layer_0
10
-4.357552
20
12.238194
30
0.0
11
-4.357552
21
12.342194
31
0.0
0
LINE
8
MCD_Layer_0
10
-4.357552
20
12.342194
30
0.0
11
-4.275552
21
12.342194
31
0.0
0
LINE
8
MCD_Layer_0
10
-4.275552
20
12.342194
30
0.0
11
-4.275552
21
11.948194
31
0.0
0
LINE
8
MCD_Layer_0
10
-4.275552
20
11.948194
30
0.0
11
-4.357552
21
11.948194
31
0.0
0
LINE
8
MCD_Layer_0
10
-4.357552
20
11.948194
30
0.0
11
-4.357552
21
12.052194
31
0.0
0
LINE
8
MCD_Layer_0
10
-4.399552
20
12.092194
30
0.0
11
-4.847552
21
12.092194
31
0.0
0
LINE
8
MCD_Layer_0
10
-4.847552
20
12.092194
30
0.0
11
-4.847552
21
11.290194
31
0.0
0
LINE
8
MCD_Layer_0
10
-4.045552
20
11.364194
30
0.0
11
-3.983552
21
11.540194
31
0.0
0
LINE
8
MCD_Layer_0
10
-3.983552
20
11.540194
30
0.0
11
-3.899552
21
11.500194
31
0.0
0
LINE
8
MCD_Layer_0
10
-3.899552
20
11.500194
30
0.0
11
-4.045552
21
11.072194
31
0.0
0
LINE
8
MCD_Layer_0
10
-4.045552
20
11.072194
30
0.0
11
-5.243552
21
11.072194
31
0.0
0
LINE
8
MCD_Layer_0
10
-3.644296
20
11.072194
30
0.0
11
-3.644296
21
11.156194
31
0.0
0
LINE
8
MCD_Layer_0
10
-3.644296
20
11.156194
30
0.0
11
-3.518296
21
11.156194
31
0.0
0
LINE
8
MCD_Layer_0
10
-3.478296
20
11.198194
30
0.0
11
-3.478296
21
12.948194
31
0.0
0
LINE
8
MCD_Layer_0
10
-3.518296
20
12.988194
30
0.0
11
-3.644296
21
12.988194
31
0.0
0
LINE
8
MCD_Layer_0
10
-3.644296
20
12.988194
30
0.0
11
-3.644296
21
13.072194
31
0.0
0
LINE
8
MCD_Layer_0
10
-3.644296
20
13.072194
30
0.0
11
-3.352296
21
13.072194
31
0.0
0
LINE
8
MCD_Layer_0
10
-3.352296
20
13.072194
30
0.0
11
-2.268295
21
11.592194
31
0.0
0
LINE
8
MCD_Layer_0
10
-2.268295
20
11.592194
30
0.0
11
-2.268295
21
12.948194
31
0.0
0
LINE
8
MCD_Layer_0
10
-2.310295
20
12.988194
30
0.0
11
-2.436295
21
12.988194
31
0.0
0
LINE
8
MCD_Layer_0
10
-2.436295
20
12.988194
30
0.0
11
-2.436295
21
13.072194
31
0.0
0
LINE
8
MCD_Layer_0
10
-2.436295
20
13.072194
30
0.0
11
-1.978296
21
13.072194
31
0.0
0
LINE
8
MCD_Layer_0
10
-1.978296
20
13.072194
30
0.0
11
-1.978296
21
12.988194
31
0.0
0
LINE
8
MCD_Layer_0
10
-1.978296
20
12.988194
30
0.0
11
-2.102296
21
12.988194
31
0.0
0
LINE
8
MCD_Layer_0
10
-2.144296
20
12.948194
30
0.0
11
-2.144296
21
10.998194
31
0.0
0
LINE
8
MCD_Layer_0
10
-2.144296
20
10.998194
30
0.0
11
-3.352296
21
12.686194
31
0.0
0
LINE
8
MCD_Layer_0
10
-3.352296
20
12.686194
30
0.0
11
-3.352296
21
11.198194
31
0.0
0
LINE
8
MCD_Layer_0
10
-3.310296
20
11.156194
30
0.0
11
-3.186296
21
11.156194
31
0.0
0
LINE
8
MCD_Layer_0
10
-3.186296
20
11.156194
30
0.0
11
-3.186296
21
11.072194
31
0.0
0
LINE
8
MCD_Layer_0
10
-3.186296
20
11.072194
30
0.0
11
-3.644296
21
11.072194
31
0.0
0
LINE
8
MCD_Layer_0
10
0.279457
20
10.988194
30
0.0
11
0.581457
21
12.354194
31
0.0
0
LINE
8
MCD_Layer_0
10
0.581457
20
12.354194
30
0.0
11
0.925457
21
10.988194
31
0.0
0
LINE
8
MCD_Layer_0
10
0.925457
20
10.988194
30
0.0
11
1.483457
21
12.958194
31
0.0
0
LINE
8
MCD_Layer_0
10
1.523457
20
12.988194
30
0.0
11
1.655457
21
12.988194
31
0.0
0
LINE
8
MCD_Layer_0
10
1.655457
20
12.988194
30
0.0
11
1.655457
21
13.072194
31
0.0
0
LINE
8
MCD_Layer_0
10
1.655457
20
13.072194
30
0.0
11
1.155457
21
13.072194
31
0.0
0
LINE
8
MCD_Layer_0
10
1.155457
20
13.072194
30
0.0
11
1.155457
21
12.988194
31
0.0
0
LINE
8
MCD_Layer_0
10
1.155457
20
12.988194
30
0.0
11
1.311457
21
12.988194
31
0.0
0
LINE
8
MCD_Layer_0
10
1.351457
20
12.936193
30
0.0
11
0.987457
21
11.708193
31
0.0
0
LINE
8
MCD_Layer_0
10
0.987457
20
11.708193
30
0.0
11
0.645457
21
13.134194
31
0.0
0
LINE
8
MCD_Layer_0
10
0.645457
20
13.134194
30
0.0
11
0.301457
21
11.698194
31
0.0
0
LINE
8
MCD_Layer_0
10
0.301457
20
11.698194
30
0.0
11
-0.108543
21
12.934194
31
0.0
0
LINE
8
MCD_Layer_0
10
-0.068543
20
12.988194
30
0.0
11
0.093457
21
12.988194
31
0.0
0
LINE
8
MCD_Layer_0
10
0.093457
20
12.988194
30
0.0
11
0.093457
21
13.072194
31
0.0
0
LINE
8
MCD_Layer_0
10
0.093457
20
13.072194
30
0.0
11
-0.532543
21
13.072194
31
0.0
0
LINE
8
MCD_Layer_0
10
-0.532543
20
13.072194
30
0.0
11
-0.532543
21
12.988194
31
0.0
0
LINE
8
MCD_Layer_0
10
-0.532543
20
12.988194
30
0.0
11
-0.416543
21
12.988194
31
0.0
0
LINE
8
MCD_Layer_0
10
-0.376543
20
12.960194
30
0.0
11
0.279457
21
10.988194
31
0.0
0
LINE
8
MCD_Layer_0
10
1.925272
20
11.072194
30
0.0
11
1.925272
21
11.156194
31
0.0
0
LINE
8
MCD_Layer_0
10
1.925272
20
11.156194
30
0.0
11
2.051272
21
11.156194
31
0.0
0
LINE
8
MCD_Layer_0
10
2.091272
20
11.198194
30
0.0
11
2.091272
21
12.948194
31
0.0
0
LINE
8
MCD_Layer_0
10
2.051272
20
12.988194
30
0.0
11
1.925272
21
12.988194
31
0.0
0
LINE
8
MCD_Layer_0
10
1.925272
20
12.988194
30
0.0
11
1.925272
21
13.072194
31
0.0
0
LINE
8
MCD_Layer_0
10
1.925272
20
13.072194
30
0.0
11
2.487272
21
13.072194
31
0.0
0
LINE
8
MCD_Layer_0
10
2.487272
20
13.072194
30
0.0
11
2.487272
21
12.988194
31
0.0
0
LINE
8
MCD_Layer_0
10
2.487272
20
12.988194
30
0.0
11
2.363272
21
12.988194
31
0.0
0
LINE
8
MCD_Layer_0
10
2.321272
20
12.948194
30
0.0
11
2.321272
21
12.198194
31
0.0
0
LINE
8
MCD_Layer_0
10
2.321272
20
12.198194
30
0.0
11
3.165272
21
12.198194
31
0.0
0
LINE
8
MCD_Layer_0
10
3.165272
20
12.198194
30
0.0
11
3.165272
21
12.948194
31
0.0
0
LINE
8
MCD_Layer_0
10
3.123272
20
12.988194
30
0.0
11
2.999272
21
12.988194
31
0.0
0
LINE
8
MCD_Layer_0
10
2.999272
20
12.988194
30
0.0
11
2.999272
21
13.072194
31
0.0
0
LINE
8
MCD_Layer_0
10
2.999272
20
13.072194
30
0.0
11
3.561272
21
13.072194
31
0.0
0
LINE
8
MCD_Layer_0
10
3.561272
20
13.072194
30
0.0
11
3.561272
21
12.988194
31
0.0
0
LINE
8
MCD_Layer_0
10
3.561272
20
12.988194
30
0.0
11
3.435272
21
12.988194
31
0.0
0
LINE
8
MCD_Layer_0
10
3.393272
20
12.948194
30
0.0
11
3.393272
21
11.198194
31
0.0
0
LINE
8
MCD_Layer_0
10
3.435272
20
11.156194
30
0.0
11
3.561272
21
11.156194
31
0.0
0
LINE
8
MCD_Layer_0
10
3.561272
20
11.156194
30
0.0
11
3.561272
21
11.072194
31
0.0
0
LINE
8
MCD_Layer_0
10
3.561272
20
11.072194
30
0.0
11
2.999272
21
11.072194
31
0.0
0
LINE
8
MCD_Layer_0
10
2.999272
20
11.072194
30
0.0
11
2.999272
21
11.156194
31
0.0
0
LINE
8
MCD_Layer_0
10
2.999272
20
11.156194
30
0.0
11
3.123272
21
11.156194
31
0.0
0
LINE
8
MCD_Layer_0
10
3.165272
20
11.198194
30
0.0
11
3.165272
21
12.072194
31
0.0
0
LINE
8
MCD_Layer_0
10
3.165272
20
12.072194
30
0.0
11
2.321272
21
12.072194
31
0.0
0
LINE
8
MCD_Layer_0
10
2.321272
20
12.072194
30
0.0
11
2.321272
21
11.198194
31
0.0
0
LINE
8
MCD_Layer_0
10
2.363272
20
11.156194
30
0.0
11
2.487272
21
11.156194
31
0.0
0
LINE
8
MCD_Layer_0
10
2.487272
20
11.156194
30
0.0
11
2.487272
21
11.072194
31
0.0
0
LINE
8
MCD_Layer_0
10
2.487272
20
11.072194
30
0.0
11
1.925272
21
11.072194
31
0.0
0
LINE
8
MCD_Layer_0
10
3.917199
20
11.072194
30
0.0
11
3.917199
21
11.156194
31
0.0
0
LINE
8
MCD_Layer_0
10
3.917199
20
11.156194
30
0.0
11
4.043199
21
11.156194
31
0.0
0
LINE
8
MCD_Layer_0
10
4.083199
20
11.198194
30
0.0
11
4.083199
21
12.948194
31
0.0
0
LINE
8
MCD_Layer_0
10
4.043199
20
12.988194
30
0.0
11
3.917199
21
12.988194
31
0.0
0
LINE
8
MCD_Layer_0
10
3.917199
20
12.988194
30
0.0
11
3.917199
21
13.072194
31
0.0
0
LINE
8
MCD_Layer_0
10
3.917199
20
13.072194
30
0.0
11
5.063199
21
13.072194
31
0.0
0
LINE
8
MCD_Layer_0
10
5.063199
20
13.072194
30
0.0
11
5.063199
21
12.698194
31
0.0
0
LINE
8
MCD_Layer_0
10
5.063199
20
12.698194
30
0.0
11
4.979199
21
12.698194
31
0.0
0
LINE
8
MCD_Layer_0
10
4.979199
20
12.698194
30
0.0
11
4.979199
21
12.864193
31
0.0
0
LINE
8
MCD_Layer_0
10
4.897199
20
12.948194
30
0.0
11
4.313199
21
12.948194
31
0.0
0
LINE
8
MCD_Layer_0
10
4.313199
20
12.948194
30
0.0
11
4.313199
21
12.198194
31
0.0
0
LINE
8
MCD_Layer_0
10
4.313199
20
12.198194
30
0.0
11
4.761199
21
12.198194
31
0.0
0
LINE
8
MCD_Layer_0
10
4.803199
20
12.238194
30
0.0
11
4.803199
21
12.342194
31
0.0
0
LINE
8
MCD_Layer_0
10
4.803199
20
12.342194
30
0.0
11
4.885199
21
12.342194
31
0.0
0
LINE
8
MCD_Layer_0
10
4.885199
20
12.342194
30
0.0
11
4.885199
21
11.948194
31
0.0
0
LINE
8
MCD_Layer_0
10
4.885199
20
11.948194
30
0.0
11
4.803199
21
11.948194
31
0.0
0
LINE
8
MCD_Layer_0
10
4.803199
20
11.948194
30
0.0
11
4.803199
21
12.052194
31
0.0
0
LINE
8
MCD_Layer_0
10
4.761199
20
12.092194
30
0.0
11
4.313199
21
12.092194
31
0.0
0
LINE
8
MCD_Layer_0
10
4.313199
20
12.092194
30
0.0
11
4.313199
21
11.290194
31
0.0
0
LINE
8
MCD_Layer_0
10
5.115199
20
11.364194
30
0.0
11
5.177199
21
11.540194
31
0.0
0
LINE
8
MCD_Layer_0
10
5.177199
20
11.540194
30
0.0
11
5.261199
21
11.500194
31
0.0
0
LINE
8
MCD_Layer_0
10
5.261199
20
11.500194
30
0.0
11
5.115199
21
11.072194
31
0.0
0
LINE
8
MCD_Layer_0
10
5.115199
20
11.072194
30
0.0
11
3.917199
21
11.072194
31
0.0
0
LINE
8
MCD_Layer_0
10
5.530431
20
11.072194
30
0.0
11
5.530431
21
11.156194
31
0.0
0
LINE
8
MCD_Layer_0
10
5.530431
20
11.156194
30
0.0
11
5.656431
21
11.156194
31
0.0
0
LINE
8
MCD_Layer_0
10
5.696431
20
11.198194
30
0.0
11
5.696431
21
12.948194
31
0.0
0
LINE
8
MCD_Layer_0
10
5.656431
20
12.988194
30
0.0
11
5.530431
21
12.988194
31
0.0
0
LINE
8
MCD_Layer_0
10
5.530431
20
12.988194
30
0.0
11
5.530431
21
13.072194
31
0.0
0
LINE
8
MCD_Layer_0
10
5.530431
20
13.072194
30
0.0
11
6.676431
21
13.072194
31
0.0
0
LINE
8
MCD_Layer_0
10
6.676431
20
13.072194
30
0.0
11
6.676431
21
12.698194
31
0.0
0
LINE
8
MCD_Layer_0
10
6.676431
20
12.698194
30
0.0
11
6.592431
21
12.698194
31
0.0
0
LINE
8
MCD_Layer_0
10
6.592431
20
12.698194
30
0.0
11
6.592431
21
12.864193
31
0.0
0
LINE
8
MCD_Layer_0
10
6.510431
20
12.948194
30
0.0
11
5.926431
21
12.948194
31
0.0
0
LINE
8
MCD_Layer_0
10
5.926431
20
12.948194
30
0.0
11
5.926431
21
12.198194
31
0.0
0
LINE
8
MCD_Layer_0
10
5.926431
20
12.198194
30
0.0
11
6.374431
21
12.198194
31
0.0
0
LINE
8
MCD_Layer_0
10
6.416431
20
12.238194
30
0.0
11
6.416431
21
12.342194
31
0.0
0
LINE
8
MCD_Layer_0
10
6.416431
20
12.342194
30
0.0
11
6.498431
21
12.342194
31
0.0
0
LINE
8
MCD_Layer_0
10
6.498431
20
12.342194
30
0.0
11
6.498431
21
11.948194
31
0.0
0
LINE
8
MCD_Layer_0
10
6.498431
20
11.948194
30
0.0
11
6.416431
21
11.948194
31
0.0
0
LINE
8
MCD_Layer_0
10
6.416431
20
11.948194
30
0.0
11
6.416431
21
12.052194
31
0.0
0
LINE
8
MCD_Layer_0
10
6.374431
20
12.092194
30
0.0
11
5.926431
21
12.092194
31
0.0
0
LINE
8
MCD_Layer_0
10
5.926431
20
12.092194
30
0.0
11
5.926431
21
11.290194
31
0.0
0
LINE
8
MCD_Layer_0
10
6.728431
20
11.364194
30
0.0
11
6.790431
21
11.540194
31
0.0
0
LINE
8
MCD_Layer_0
10
6.790431
20
11.540194
30
0.0
11
6.874431
21
11.500194
31
0.0
0
LINE
8
MCD_Layer_0
10
6.874431
20
11.500194
30
0.0
11
6.728431
21
11.072194
31
0.0
0
LINE
8
MCD_Layer_0
10
6.728431
20
11.072194
30
0.0
11
5.530431
21
11.072194
31
0.0
0
LINE
8
MCD_Layer_0
10
7.177361
20
11.072194
30
0.0
11
7.177361
21
11.156194
31
0.0
0
LINE
8
MCD_Layer_0
10
7.177361
20
11.156194
30
0.0
11
7.303361
21
11.156194
31
0.0
0
LINE
8
MCD_Layer_0
10
7.343361
20
11.198194
30
0.0
11
7.343361
21
12.948194
31
0.0
0
LINE
8
MCD_Layer_0
10
7.303361
20
12.988194
30
0.0
11
7.177361
21
12.988194
31
0.0
0
LINE
8
MCD_Layer_0
10
7.177361
20
12.988194
30
0.0
11
7.177361
21
13.072194
31
0.0
0
LINE
8
MCD_Layer_0
10
7.177361
20
13.072194
30
0.0
11
7.739361
21
13.072194
31
0.0
0
LINE
8
MCD_Layer_0
10
7.739361
20
13.072194
30
0.0
11
7.739361
21
12.988194
31
0.0
0
LINE
8
MCD_Layer_0
10
7.739361
20
12.988194
30
0.0
11
7.615361
21
12.988194
31
0.0
0
LINE
8
MCD_Layer_0
10
7.573361
20
12.948194
30
0.0
11
7.573361
21
11.290194
31
0.0
0
LINE
8
MCD_Layer_0
10
8.372961
20
11.367194
30
0.0
11
8.415361
21
11.480194
31
0.0
0
LINE
8
MCD_Layer_0
10
8.415361
20
11.480194
30
0.0
11
8.503361
21
11.446194
31
0.0
0
LINE
8
MCD_Layer_0
10
8.503361
20
11.446194
30
0.0
11
8.375361
21
11.072194
31
0.0
0
LINE
8
MCD_Layer_0
10
8.375361
20
11.072194
30
0.0
11
7.177361
21
11.072194
31
0.0
0
LINE
8
MCD_Layer_0
10
8.799216
20
11.072194
30
0.0
11
8.799216
21
11.156194
31
0.0
0
LINE
8
MCD_Layer_0
10
8.799216
20
11.156194
30
0.0
11
8.925216
21
11.156194
31
0.0
0
LINE
8
MCD_Layer_0
10
8.965216
20
11.198194
30
0.0
11
8.965216
21
12.948194
31
0.0
0
LINE
8
MCD_Layer_0
10
8.925216
20
12.988194
30
0.0
11
8.799216
21
12.988194
31
0.0
0
LINE
8
MCD_Layer_0
10
8.799216
20
12.988194
30
0.0
11
8.799216
21
13.072194
31
0.0
0
LINE
8
MCD_Layer_0
10
8.799216
20
13.072194
30
0.0
11
9.945216
21
13.072194
31
0.0
0
LINE
8
MCD_Layer_0
10
9.945216
20
13.072194
30
0.0
11
9.945216
21
12.698194
31
0.0
0
LINE
8
MCD_Layer_0
10
9.945216
20
12.698194
30
0.0
11
9.861216
21
12.698194
31
0.0
0
LINE
8
MCD_Layer_0
10
9.861216
20
12.698194
30
0.0
11
9.861216
21
12.864193
31
0.0
0
LINE
8
MCD_Layer_0
10
9.779216
20
12.948194
30
0.0
11
9.195216
21
12.948194
31
0.0
0
LINE
8
MCD_Layer_0
10
9.195216
20
12.948194
30
0.0
11
9.195216
21
12.198194
31
0.0
0
LINE
8
MCD_Layer_0
10
9.195216
20
12.198194
30
0.0
11
9.643216
21
12.198194
31
0.0
0
LINE
8
MCD_Layer_0
10
9.685216
20
12.238194
30
0.0
11
9.685216
21
12.342194
31
0.0
0
LINE
8
MCD_Layer_0
10
9.685216
20
12.342194
30
0.0
11
9.767216
21
12.342194
31
0.0
0
LINE
8
MCD_Layer_0
10
9.767216
20
12.342194
30
0.0
11
9.767216
21
11.948194
31
0.0
0
LINE
8
MCD_Layer_0
10
9.767216
20
11.948194
30
0.0
11
9.685216
21
11.948194
31
0.0
0
LINE
8
MCD_Layer_0
10
9.685216
20
11.948194
30
0.0
11
9.685216
21
12.052194
31
0.0
0
LINE
8
MCD_Layer_0
10
9.643216
20
12.092194
30
0.0
11
9.195216
21
12.092194
31
0.0
0
LINE
8
MCD_Layer_0
10
9.195216
20
12.092194
30
0.0
11
9.195216
21
11.290194
31
0.0
0
LINE
8
MCD_Layer_0
10
9.997216
20
11.364194
30
0.0
11
10.059216
21
11.540194
31
0.0
0
LINE
8
MCD_Layer_0
10
10.059216
20
11.540194
30
0.0
11
10.143216
21
11.500194
31
0.0
0
LINE
8
MCD_Layer_0
10
10.143216
20
11.500194
30
0.0
11
9.997216
21
11.072194
31
0.0
0
LINE
8
MCD_Layer_0
10
9.997216
20
11.072194
30
0.0
11
8.799216
21
11.072194
31
0.0
0
LINE
8
MCD_Layer_0
10
10.398472
20
11.072194
30
0.0
11
10.398472
21
11.156194
31
0.0
0
LINE
8
MCD_Layer_0
10
10.398472
20
11.156194
30
0.0
11
10.524472
21
11.156194
31
0.0
0
LINE
8
MCD_Layer_0
10
10.564472
20
11.198194
30
0.0
11
10.564472
21
12.948194
31
0.0
0
LINE
8
MCD_Layer_0
10
10.524472
20
12.988194
30
0.0
11
10.398472
21
12.988194
31
0.0
0
LINE
8
MCD_Layer_0
10
10.398472
20
12.988194
30
0.0
11
10.398472
21
13.072194
31
0.0
0
LINE
8
MCD_Layer_0
10
10.398472
20
13.072194
30
0.0
11
11.086472
21
13.072194
31
0.0
0
LINE
8
MCD_Layer_0
10
11.818472
20
11.176194
30
0.0
11
11.850472
21
11.104194
31
0.0
0
LINE
8
MCD_Layer_0
10
10.794472
20
12.030194
30
0.0
11
10.794472
21
11.198194
31
0.0
0
LINE
8
MCD_Layer_0
10
10.836472
20
11.156194
30
0.0
11
10.960472
21
11.156194
31
0.0
0
LINE
8
MCD_Layer_0
10
10.960472
20
11.156194
30
0.0
11
10.960472
21
11.072194
31
0.0
0
LINE
8
MCD_Layer_0
10
10.960472
20
11.072194
30
0.0
11
10.398472
21
11.072194
31
0.0
0
LINE
8
MCD_Layer_0
10
11.024472
20
12.948194
30
0.0
11
10.794472
21
12.948194
31
0.0
0
LINE
8
MCD_Layer_0
10
10.794472
20
12.948194
30
0.0
11
10.794472
21
12.156194
31
0.0
0
ARC
8
MCD_Layer_0
10
18.000000
20
76.875000
40
54.375000
50
260.472717
51
270.000000
0
ARC
8
MCD_Layer_0
10
0.000000
20
-30.375000
40
54.375000
50
80.472717
51
99.527283
0
ARC
8
MCD_Layer_0
10
-18.000000
20
76.875000
40
54.375000
50
270.000000
51
279.527283
0
ARC
8
MCD_Layer_0
10
-14.303620
20
14.968973
40
0.552323
50
208.755225
51
255.650458
0
ARC
8
MCD_Layer_0
10
-14.291714
20
14.946022
40
0.489911
50
205.934352
51
253.984355
0
ARC
8
MCD_Layer_0
10
-15.338036
20
14.404782
40
0.688409
50
28.505790
51
66.585653
0
ARC
8
MCD_Layer_0
10
-15.395861
20
14.390013
40
0.683980
50
27.257436
51
63.012330
0
ARC
8
MCD_Layer_0
10
-13.573224
20
14.295152
40
1.822481
50
110.476151
51
138.873988
0
ARC
8
MCD_Layer_0
10
-13.052869
20
13.546878
40
2.668937
50
115.113101
51
134.247430
0
ARC
8
MCD_Layer_0
10
-16.539474
20
14.708095
40
1.301025
50
29.553016
51
68.476255
0
ARC
8
MCD_Layer_0
10
-16.376352
20
14.898628
40
1.113636
50
25.651689
51
72.633019
0
ARC
8
MCD_Layer_0
10
-14.822812
20
17.979887
40
0.167238
50
218.958571
51
287.344123
0
ARC
8
MCD_Layer_0
10
-14.856829
20
17.951358
40
0.122851
50
105.277990
51
218.587552
0
ARC
8
MCD_Layer_0
10
-14.861843
20
17.969757
40
0.103782
50
15.817409
51
105.283706
0
ARC
8
MCD_Layer_0
10
-14.833680
20
17.977690
40
0.074522
50
204.145075
51
15.851537
0
ARC
8
MCD_Layer_0
10
-14.804225
20
17.964556
40
0.147652
50
282.225910
51
41.500961
0
ARC
8
MCD_Layer_0
10
-14.872614
20
17.903882
40
0.239076
50
41.530740
51
190.850446
0
ARC
8
MCD_Layer_0
10
-13.898488
20
18.091353
40
1.231078
50
190.885066
51
208.327356
0
ARC
8
MCD_Layer_0
10
-15.363036
20
17.473339
40
0.903730
50
305.810548
51
10.478987
0
ARC
8
MCD_Layer_0
10
-14.851237
20
17.191709
40
0.890063
50
110.819955
51
183.489360
0
ARC
8
MCD_Layer_0
10
-13.293112
20
19.585847
40
1.301032
50
26.552946
51
65.476051
0
ARC
8
MCD_Layer_0
10
-13.120227
20
19.767589
40
1.113628
50
22.651429
51
69.633214
0
ARC
8
MCD_Layer_0
10
-11.461112
20
19.456302
40
0.167240
50
197.656326
51
266.040649
0
ARC
8
MCD_Layer_0
10
-11.464973
20
19.412074
40
0.122854
50
266.412479
51
19.721648
0
ARC
8
MCD_Layer_0
10
-11.447022
20
19.418516
40
0.103782
50
19.717929
51
109.184148
0
ARC
8
MCD_Layer_0
10
-11.456683
20
19.446136
40
0.074521
50
109.146666
51
280.857289
0
ARC
8
MCD_Layer_0
10
-11.484328
20
19.462731
40
0.147656
50
83.500992
51
202.772594
0
ARC
8
MCD_Layer_0
10
-11.494811
20
19.371911
40
0.239079
50
294.150533
51
83.468245
0
ARC
8
MCD_Layer_0
10
-11.899968
20
20.277393
40
1.231072
50
276.672393
51
294.114714
0
ARC
8
MCD_Layer_0
10
-11.566205
20
18.723238
40
0.903717
50
114.520538
51
179.189979
0
ARC
8
MCD_Layer_0
10
-12.090463
20
18.980940
40
0.890078
50
301.511370
51
14.179416
0
ARC
8
MCD_Layer_0
10
-10.561827
20
20.450969
40
0.552302
50
240.754099
51
287.651145
0
ARC
8
MCD_Layer_0
10
-10.539564
20
20.437840
40
0.489913
50
237.934106
51
285.983980
0
ARC
8
MCD_Layer_0
10
-11.069319
20
19.605924
40
0.496324
50
57.296461
51
110.884639
0
ARC
8
MCD_Layer_0
10
-11.144771
20
19.460890
40
0.596895
50
58.360883
51
97.525260
0
ARC
8
MCD_Layer_0
10
-16.476473
20
16.144379
40
0.851299
50
30.504272
51
57.908411
0
ARC
8
MCD_Layer_0
10
-15.695355
20
17.442498
40
0.664042
50
195.449893
51
240.315922
0
ARC
8
MCD_Layer_0
10
-15.875818
20
17.934610
40
0.811659
50
235.512457
51
269.372964
0
ARC
8
MCD_Layer_0
10
-15.894703
20
16.418659
40
0.704411
50
34.574778
51
89.186390
0
ARC
8
MCD_Layer_0
10
-15.238582
20
16.072705
40
0.749570
50
40.851589
51
95.828485
0
ARC
8
MCD_Layer_0
10
-14.246082
20
16.837805
40
0.506542
50
212.854777
51
261.220113
0
ARC
8
MCD_Layer_0
10
-14.606150
20
16.749195
40
0.499688
50
246.399738
51
304.461485
0
ARC
8
MCD_Layer_0
10
-15.130197
20
15.530292
40
0.827107
50
66.938377
51
97.405326
0
ARC
8
MCD_Layer_0
10
-15.600125
20
16.216618
40
0.387206
50
20.228467
51
111.653562
0
ARC
8
MCD_Layer_0
10
-15.432298
20
16.516898
40
0.260426
50
180.747996
51
226.305962
0
ARC
8
MCD_Layer_0
10
-13.182310
20
15.101754
40
2.722045
50
153.210913
51
155.334916
0
ARC
8
MCD_Layer_0
10
-15.803663
20
15.641814
40
0.613908
50
64.648144
51
76.082433
0
ARC
8
MCD_Layer_0
10
-13.389070
20
15.201221
40
2.370807
50
153.006654
51
155.175008
0
ARC
8
MCD_Layer_0
10
-15.467042
20
16.497496
40
0.222891
50
261.080500
51
313.717270
0
ARC
8
MCD_Layer_0
10
-15.600166
20
16.216308
40
0.311264
50
22.694576
51
107.294927
0
ARC
8
MCD_Layer_0
10
-15.800830
20
15.649385
40
0.528476
50
43.043719
51
93.457421
0
ARC
8
MCD_Layer_0
10
-15.700385
20
15.662269
40
0.526883
50
321.350326
51
50.873098
0
ARC
8
MCD_Layer_0
10
-15.573087
20
15.190228
40
0.318124
50
8.054206
51
26.706701
0
ARC
8
MCD_Layer_0
10
-17.514980
20
17.598490
40
3.268108
50
313.675769
51
318.502900
0
ARC
8
MCD_Layer_0
10
-14.569103
20
15.659068
40
0.546959
50
132.255790
51
204.402035
0
ARC
8
MCD_Layer_0
10
-14.456744
20
15.566035
40
0.615775
50
88.507009
51
134.677071
0
ARC
8
MCD_Layer_0
10
-14.294331
20
15.385806
40
0.738776
50
56.688399
51
100.290227
0
ARC
8
MCD_Layer_0
10
-13.759253
20
15.604385
40
0.419265
50
107.969542
51
155.477880
0
ARC
8
MCD_Layer_0
10
-14.687999
20
15.960842
40
0.639919
50
299.375191
51
339.706462
0
ARC
8
MCD_Layer_0
10
-14.657264
20
15.706266
40
0.491435
50
228.995721
51
312.905326
0
ARC
8
MCD_Layer_0
10
-13.607613
20
13.672893
40
2.155587
50
129.533313
51
137.159725
0
ARC
8
MCD_Layer_0
10
-15.200140
20
14.954855
40
0.184132
50
57.239770
51
86.282553
0
ARC
8
MCD_Layer_0
10
-14.837058
20
14.671123
40
0.511616
50
45.144173
51
120.992421
0
ARC
8
MCD_Layer_0
10
-14.903584
20
14.529835
40
0.591004
50
18.309648
51
50.718625
0
ARC
8
MCD_Layer_0
10
-14.128897
20
14.767770
40
0.282403
50
196.619679
51
267.218502
0
ARC
8
MCD_Layer_0
10
-14.545609
20
14.812311
40
0.518738
50
261.330503
51
320.977604
0
ARC
8
MCD_Layer_0
10
-14.583162
20
15.045089
40
0.802968
50
234.731711
51
266.641605
0
ARC
8
MCD_Layer_0
10
-14.825101
20
14.722991
40
0.462142
50
142.410206
51
236.436529
0
ARC
8
MCD_Layer_0
10
-15.234882
20
14.944862
40
0.074188
50
54.024824
51
139.746556
0
ARC
8
MCD_Layer_0
10
-13.756317
20
13.709933
40
2.000635
50
140.116411
51
169.762594
0
ARC
8
MCD_Layer_0
10
-16.703752
20
14.268674
40
0.999518
50
279.266609
51
348.271659
0
ARC
8
MCD_Layer_0
10
-16.681076
20
14.301189
40
0.745033
50
280.695899
51
345.218000
0
ARC
8
MCD_Layer_0
10
-19.377568
20
14.875033
40
3.501225
50
347.397231
51
356.063960
0
ARC
8
MCD_Layer_0
10
-16.052692
20
14.674914
40
0.172834
50
346.545113
51
98.387149
0
ARC
8
MCD_Layer_0
10
-15.942705
20
14.800217
40
0.142707
50
25.031936
51
161.330104
0
ARC
8
MCD_Layer_0
10
-13.106103
20
13.903860
40
2.871379
50
156.234725
51
160.536963
0
ARC
8
MCD_Layer_0
10
-15.682601
20
15.670159
40
0.611324
50
265.176842
51
278.210170
0
ARC
8
MCD_Layer_0
10
-13.636119
20
14.109047
40
2.180007
50
153.988289
51
173.246803
0
ARC
8
MCD_Layer_0
10
-14.087127
20
13.930085
40
1.755406
50
139.522782
51
165.641667
0
ARC
8
MCD_Layer_0
10
-15.518304
20
15.163385
40
0.134138
50
315.639142
51
24.353261
0
ARC
8
MCD_Layer_0
10
-15.682790
20
15.680840
40
0.543843
50
227.185426
51
301.813287
0
ARC
8
MCD_Layer_0
10
-15.707410
20
15.686552
40
0.457943
50
184.565646
51
229.815100
0
ARC
8
MCD_Layer_0
10
-16.367296
20
15.668409
40
0.262814
50
1.720661
51
79.122702
0
ARC
8
MCD_Layer_0
10
-15.898520
20
15.545892
40
0.566194
50
83.823295
51
137.761172
0
ARC
8
MCD_Layer_0
10
-17.259628
20
16.188768
40
1.351317
50
2.406168
51
22.380907
0
ARC
8
MCD_Layer_0
10
-16.322503
20
16.574049
40
0.338083
50
22.476269
51
70.581562
0
ARC
8
MCD_Layer_0
10
-16.284023
20
16.679792
40
0.225565
50
70.869987
51
183.353021
0
ARC
8
MCD_Layer_0
10
-16.340615
20
16.580803
40
0.189162
50
35.072844
51
153.027735
0
ARC
8
MCD_Layer_0
10
-16.917442
20
16.177597
40
0.892941
50
359.968048
51
34.979007
0
ARC
8
MCD_Layer_0
10
-15.812379
20
14.749258
40
1.443512
50
93.857930
51
98.450178
0
ARC
8
MCD_Layer_0
10
-16.915980
20
16.178082
40
0.815948
50
358.526413
51
35.000750
0
ARC
8
MCD_Layer_0
10
-16.340682
20
16.580579
40
0.113829
50
35.141549
51
100.231265
0
ARC
8
MCD_Layer_0
10
-16.340611
20
16.580734
40
0.113689
50
100.280281
51
171.672186
0
ARC
8
MCD_Layer_0
10
-16.663516
20
14.310322
40
0.651406
50
280.679456
51
345.206940
0
ARC
8
MCD_Layer_0
10
-19.349978
20
14.885730
40
3.398214
50
347.392506
51
356.083117
0
ARC
8
MCD_Layer_0
10
-16.052740
20
14.674898
40
0.095444
50
347.106673
51
49.063282
0
ARC
8
MCD_Layer_0
10
-16.052720
20
14.674614
40
0.095646
50
49.183726
51
117.309126
0
ARC
8
MCD_Layer_0
10
-15.942626
20
14.800014
40
0.220296
50
63.578416
51
171.152050
0
ARC
8
MCD_Layer_0
10
-11.581176
20
13.285104
40
4.594388
50
157.091752
51
158.119561
0
ARC
8
MCD_Layer_0
10
-15.683445
20
15.680108
40
0.620331
50
220.092569
51
257.926052
0
ARC
8
MCD_Layer_0
10
-15.706123
20
15.687204
40
0.536733
50
178.623205
51
221.194796
0
ARC
8
MCD_Layer_0
10
-16.367520
20
15.668250
40
0.185512
50
17.197164
51
91.476703
0
ARC
8
MCD_Layer_0
10
-15.897757
20
15.544911
40
0.644824
50
108.306968
51
141.172683
0
ARC
8
MCD_Layer_0
10
-15.695273
20
17.442217
40
0.739534
50
191.561464
51
218.554295
0
ARC
8
MCD_Layer_0
10
-15.843636
20
17.982753
40
0.793950
50
232.378183
51
233.382681
0
ARC
8
MCD_Layer_0
10
-14.618172
20
17.328280
40
1.699117
50
165.969888
51
179.419347
0
ARC
8
MCD_Layer_0
10
-17.050038
20
17.944718
40
0.809692
50
345.369355
51
18.878210
0
ARC
8
MCD_Layer_0
10
-16.169951
20
18.592238
40
0.314725
50
259.889483
51
300.334220
0
ARC
8
MCD_Layer_0
10
-15.727839
20
17.881039
40
0.522872
50
95.945699
51
122.789325
0
ARC
8
MCD_Layer_0
10
-16.842344
20
18.482242
40
1.063443
50
355.623901
51
359.927672
0
ARC
8
MCD_Layer_0
10
-15.714492
20
17.699550
40
0.852008
50
84.835804
51
90.666435
0
ARC
8
MCD_Layer_0
10
-12.417060
20
19.578761
40
0.858097
50
123.863163
51
151.546292
0
ARC
8
MCD_Layer_0
10
-12.409489
20
20.520021
40
0.536871
50
175.633165
51
205.215682
0
ARC
8
MCD_Layer_0
10
-13.071252
20
20.535639
40
0.185629
50
14.207886
51
88.441110
0
ARC
8
MCD_Layer_0
10
-12.609076
20
20.388843
40
0.643753
50
87.990381
51
138.203044
0
ARC
8
MCD_Layer_0
10
-12.506359
20
20.483641
40
0.609451
50
46.908278
51
96.883408
0
ARC
8
MCD_Layer_0
10
-12.168208
20
20.719708
40
0.280015
50
23.999697
51
65.593020
0
ARC
8
MCD_Layer_0
10
-8.928688
20
14.245897
40
7.231899
50
98.782651
51
114.366805
0
ARC
8
MCD_Layer_0
10
-12.895641
20
39.266858
40
18.101660
50
279.099409
51
281.233482
0
ARC
8
MCD_Layer_0
10
-18.008609
20
66.701900
40
45.725566
50
275.135686
51
280.890827
0
ARC
8
MCD_Layer_0
10
-13.875054
20
20.783620
40
0.378447
50
96.135156
51
159.702661
0
ARC
8
MCD_Layer_0
10
-14.793914
20
20.707763
40
0.387960
50
29.873167
51
91.947792
0
ARC
8
MCD_Layer_0
10
-16.971891
20
64.359834
40
43.318460
50
270.567551
51
272.864484
0
ARC
8
MCD_Layer_0
10
-16.150417
20
19.290390
40
0.392615
50
181.969096
51
244.036812
0
ARC
8
MCD_Layer_0
10
-16.255720
20
18.407005
40
0.288125
50
103.810968
51
184.879005
0
ARC
8
MCD_Layer_0
10
-16.284019
20
16.679751
40
0.301727
50
88.021454
51
149.055845
0
ARC
8
MCD_Layer_0
10
-14.626005
20
17.329427
40
1.615762
50
165.945742
51
183.034316
0
ARC
8
MCD_Layer_0
10
-17.051682
20
17.944882
40
0.886798
50
345.430233
51
16.948873
0
ARC
8
MCD_Layer_0
10
-16.169809
20
18.592351
40
0.390399
50
265.063754
51
300.767103
0
ARC
8
MCD_Layer_0
10
-15.729671
20
17.887221
40
0.440985
50
92.135185
51
123.038959
0
ARC
8
MCD_Layer_0
10
-16.677420
20
18.473903
40
0.942693
50
317.670495
51
351.090224
0
ARC
8
MCD_Layer_0
10
-16.247367
20
17.730628
40
0.288068
50
337.049404
51
22.120101
0
ARC
8
MCD_Layer_0
10
-15.068806
20
17.294483
40
0.969003
50
160.477624
51
187.416728
0
ARC
8
MCD_Layer_0
10
-15.876290
20
17.934094
40
0.779932
50
242.244618
51
258.656017
0
ARC
8
MCD_Layer_0
10
-15.068632
20
17.294267
40
0.938113
50
160.475151
51
188.006675
0
ARC
8
MCD_Layer_0
10
-16.245733
20
17.730587
40
0.317626
50
337.258174
51
18.714537
0
ARC
8
MCD_Layer_0
10
-16.679243
20
18.475005
40
0.975743
50
318.815978
51
0.052463
0
ARC
8
MCD_Layer_0
10
-15.714104
20
17.677015
40
0.798954
50
36.817226
51
89.239554
0
ARC
8
MCD_Layer_0
10
-15.714103
20
17.676796
40
0.839907
50
39.584714
51
57.555020
0
ARC
8
MCD_Layer_0
10
-15.060278
20
18.282096
40
0.228064
50
81.406788
51
153.009888
0
ARC
8
MCD_Layer_0
10
-15.014845
20
18.708507
40
0.201229
50
266.764959
51
323.637167
0
ARC
8
MCD_Layer_0
10
-14.616776
20
18.749942
40
0.285562
50
214.256660
51
268.349327
0
ARC
8
MCD_Layer_0
10
-14.637672
20
18.010384
40
0.454292
50
45.895831
51
88.401837
0
ARC
8
MCD_Layer_0
10
-14.267473
20
18.249045
40
0.102882
50
121.677968
51
215.432456
0
ARC
8
MCD_Layer_0
10
-14.621850
20
17.996435
40
0.332313
50
337.786263
51
35.497703
0
ARC
8
MCD_Layer_0
10
-14.699692
20
17.964223
40
0.396649
50
298.998345
51
346.377109
0
ARC
8
MCD_Layer_0
10
-13.295847
20
15.466363
40
2.468683
50
119.391184
51
130.737619
0
ARC
8
MCD_Layer_0
10
-14.116241
20
16.394750
40
1.229953
50
130.003657
51
158.120485
0
ARC
8
MCD_Layer_0
10
-15.238159
20
16.074980
40
0.778363
50
40.433516
51
94.542288
0
ARC
8
MCD_Layer_0
10
-13.781319
20
17.157871
40
1.039867
50
213.773377
51
214.800376
0
ARC
8
MCD_Layer_0
10
-15.393586
20
17.639452
40
1.315631
50
305.200708
51
323.376096
0
ARC
8
MCD_Layer_0
10
-13.941783
20
16.546848
40
0.501461
50
111.442597
51
142.141762
0
ARC
8
MCD_Layer_0
10
-13.391080
20
17.055056
40
0.735191
50
127.026592
51
183.232551
0
ARC
8
MCD_Layer_0
10
-14.453325
20
17.023488
40
0.875423
50
44.953198
51
80.457715
0
ARC
8
MCD_Layer_0
10
-14.785835
20
18.015467
40
0.305256
50
303.151934
51
0.681649
0
ARC
8
MCD_Layer_0
10
-13.306874
20
15.862339
40
2.306979
50
124.661100
51
144.145648
0
ARC
8
MCD_Layer_0
10
-13.942422
20
16.340887
40
1.511644
50
144.737309
51
158.031054
0
ARC
8
MCD_Layer_0
10
-15.894777
20
16.418670
40
0.735404
50
35.997021
51
89.183834
0
ARC
8
MCD_Layer_0
10
-15.876233
20
17.922541
40
0.768585
50
260.914374
51
269.391062
0
ARC
8
MCD_Layer_0
10
-13.974335
20
17.972700
40
1.214046
50
183.877599
51
208.850049
0
ARC
8
MCD_Layer_0
10
-14.875079
20
17.916335
40
0.311588
50
32.641244
51
184.737552
0
ARC
8
MCD_Layer_0
10
-14.803024
20
17.959007
40
0.227916
50
306.204359
51
33.378220
0
ARC
8
MCD_Layer_0
10
-13.309747
20
15.866320
40
2.342942
50
125.442984
51
138.267795
0
ARC
8
MCD_Layer_0
10
-14.802930
20
17.959065
40
0.268690
50
306.184056
51
33.278802
0
ARC
8
MCD_Layer_0
10
-14.875091
20
17.915980
40
0.352677
50
32.697851
51
122.928142
0
ARC
8
MCD_Layer_0
10
-16.219521
20
19.253443
40
0.417639
50
176.780302
51
243.311342
0
ARC
8
MCD_Layer_0
10
-16.965800
20
64.073284
40
42.938047
50
270.439415
51
272.875464
0
ARC
8
MCD_Layer_0
10
-14.775151
20
20.751148
40
0.439681
50
32.687395
51
94.781663
0
ARC
8
MCD_Layer_0
10
-13.899273
20
20.808834
40
0.435598
50
91.871893
51
154.611324
0
ARC
8
MCD_Layer_0
10
-17.268236
20
62.314607
40
41.207191
50
274.669697
51
281.161992
0
ARC
8
MCD_Layer_0
10
-10.651718
20
29.293181
40
7.954594
50
277.890548
51
279.848024
0
ARC
8
MCD_Layer_0
10
-9.732428
20
20.997237
40
0.451046
50
53.114419
51
67.483764
0
ARC
8
MCD_Layer_0
10
-9.667658
20
21.129548
40
0.307585
50
342.567242
51
47.964310
0
ARC
8
MCD_Layer_0
10
-9.586944
20
21.096665
40
0.220844
50
264.606804
51
344.433260
0
ARC
8
MCD_Layer_0
10
-9.759194
20
20.983363
40
0.132180
50
331.256805
51
78.304966
0
ARC
8
MCD_Layer_0
10
-9.846590
20
20.667524
40
0.459741
50
73.485062
51
94.880193
0
ARC
8
MCD_Layer_0
10
-10.246565
20
20.881671
40
0.435572
50
357.516722
51
34.056973
0
ARC
8
MCD_Layer_0
10
-10.282415
20
20.894100
40
0.472105
50
286.225382
51
355.930827
0
ARC
8
MCD_Layer_0
10
-10.273381
20
20.831649
40
0.409714
50
204.568349
51
287.731310
0
ARC
8
MCD_Layer_0
10
-10.380131
20
20.778570
40
0.290692
50
134.922089
51
203.555419
0
ARC
8
MCD_Layer_0
10
-10.375951
20
20.129356
40
0.880323
50
103.764069
51
127.634896
0
ARC
8
MCD_Layer_0
10
-10.068682
20
19.449480
40
1.615101
50
121.809694
51
139.932702
0
ARC
8
MCD_Layer_0
10
-10.495547
20
19.672410
40
1.149657
50
134.734446
51
157.049701
0
ARC
8
MCD_Layer_0
10
-11.410950
20
19.972363
40
0.206215
50
86.093676
51
134.001007
0
ARC
8
MCD_Layer_0
10
-10.860426
20
19.901916
40
0.603393
50
69.204511
51
152.760121
0
ARC
8
MCD_Layer_0
10
-10.838690
20
19.758927
40
0.670256
50
44.581889
51
74.919096
0
ARC
8
MCD_Layer_0
10
-10.307054
20
20.373376
40
0.205321
50
246.629386
51
308.727657
0
ARC
8
MCD_Layer_0
10
-10.684157
20
20.189912
40
0.596273
50
301.073107
51
357.393858
0
ARC
8
MCD_Layer_0
10
-10.839300
20
20.367989
40
0.880976
50
273.944191
51
303.410729
0
ARC
8
MCD_Layer_0
10
-11.077942
20
19.434984
40
0.304094
50
339.341292
51
10.250681
0
ARC
8
MCD_Layer_0
10
-11.201429
20
18.548493
40
0.879573
50
34.413917
51
62.361477
0
ARC
8
MCD_Layer_0
10
-9.997878
20
18.230168
40
0.887514
50
124.635642
51
129.793018
0
ARC
8
MCD_Layer_0
10
-11.021140
20
18.658704
40
0.521010
50
2.166505
51
29.101267
0
ARC
8
MCD_Layer_0
10
-10.186955
20
18.703942
40
0.314585
50
184.657177
51
225.128448
0
ARC
8
MCD_Layer_0
10
-10.213140
20
17.612829
40
0.808373
50
106.099148
51
139.660682
0
ARC
8
MCD_Layer_0
10
-12.115783
20
19.254280
40
1.704513
50
305.597718
51
319.003568
0
ARC
8
MCD_Layer_0
10
-10.964647
20
18.333961
40
0.492044
50
251.152504
51
252.769177
0
ARC
8
MCD_Layer_0
10
-11.401288
20
18.433906
40
0.740220
50
266.459400
51
293.426108
0
ARC
8
MCD_Layer_0
10
-11.688148
20
17.513589
40
0.301824
50
291.464757
51
36.968532
0
ARC
8
MCD_Layer_0
10
-11.736384
20
17.410388
40
0.113455
50
313.212365
51
24.811714
0
ARC
8
MCD_Layer_0
10
-11.736975
20
17.410078
40
0.114122
50
24.828503
51
89.711931
0
ARC
8
MCD_Layer_0
10
-11.736320
20
16.707895
40
0.816303
50
90.005748
51
116.284425
0
ARC
8
MCD_Layer_0
10
-13.570572
20
16.948538
40
0.414482
50
282.253840
51
4.381008
0
ARC
8
MCD_Layer_0
10
-13.536603
20
16.868816
40
0.329768
50
182.314272
51
279.425034
0
ARC
8
MCD_Layer_0
10
-12.325866
20
15.285722
40
2.199211
50
134.455791
51
141.458810
0
ARC
8
MCD_Layer_0
10
-15.193683
20
17.571988
40
1.468403
50
307.671129
51
321.405947
0
ARC
8
MCD_Layer_0
10
-14.238813
20
16.932359
40
0.525810
50
263.723156
51
266.937852
0
ARC
8
MCD_Layer_0
10
-14.602385
20
16.743335
40
0.568311
50
295.267926
51
308.358746
0
ARC
8
MCD_Layer_0
10
-14.268637
20
15.397702
40
0.798989
50
55.579731
51
96.277474
0
ARC
8
MCD_Layer_0
10
-13.759337
20
15.604749
40
0.341482
50
100.420360
51
145.187336
0
ARC
8
MCD_Layer_0
10
-14.690090
20
15.962293
40
0.719833
50
307.077967
51
344.332642
0
ARC
8
MCD_Layer_0
10
-14.656156
20
15.704819
40
0.567098
50
285.406151
51
320.669988
0
ARC
8
MCD_Layer_0
10
-14.841550
20
14.666740
40
0.595283
50
37.170073
51
55.631077
0
ARC
8
MCD_Layer_0
10
-14.903797
20
14.529569
40
0.668734
50
12.534255
51
42.947832
0
ARC
8
MCD_Layer_0
10
-14.128649
20
14.768158
40
0.205371
50
214.647292
51
276.724617
0
ARC
8
MCD_Layer_0
10
-14.545906
20
14.812677
40
0.596650
50
269.097689
51
325.379805
0
ARC
8
MCD_Layer_0
10
-14.582755
20
15.046286
40
0.881650
50
239.968296
51
271.400849
0
ARC
8
MCD_Layer_0
10
-14.841343
20
14.694230
40
0.518022
50
174.186743
51
245.300635
0
ARC
8
MCD_Layer_0
10
-13.760143
20
13.711510
40
1.902791
50
147.041120
51
169.789763
0
ARC
8
MCD_Layer_0
10
-16.703664
20
14.268628
40
1.093193
50
273.522294
51
348.399392
0
ARC
8
MCD_Layer_0
10
-16.238727
20
18.406489
40
0.398948
50
115.122352
51
184.397660
0
ARC
8
MCD_Layer_0
10
-13.263986
20
19.237298
40
0.103676
50
242.784377
51
311.122992
0
ARC
8
MCD_Layer_0
10
-12.517130
20
18.558547
40
0.906299
50
122.134741
51
138.489855
0
ARC
8
MCD_Layer_0
10
-12.400570
20
19.083016
40
0.646065
50
157.907742
51
178.156452
0
ARC
8
MCD_Layer_0
10
-11.896373
20
17.879856
40
1.679396
50
133.214125
51
147.847034
0
ARC
8
MCD_Layer_0
10
-14.206156
20
19.501865
40
1.006342
50
321.782930
51
330.439871
0
ARC
8
MCD_Layer_0
10
-13.420087
20
19.083469
40
0.118603
50
318.834584
51
26.667753
0
ARC
8
MCD_Layer_0
10
-12.727384
20
19.273389
40
0.506343
50
223.757521
51
272.137116
0
ARC
8
MCD_Layer_0
10
-12.784607
20
18.022074
40
0.749200
50
29.166771
51
84.169752
0
ARC
8
MCD_Layer_0
10
-12.125302
20
17.682648
40
0.704570
50
35.820820
51
90.414713
0
ARC
8
MCD_Layer_0
10
-10.893098
20
18.569027
40
0.813323
50
215.649742
51
249.441987
0
ARC
8
MCD_Layer_0
10
-11.400782
20
18.432543
40
0.663325
50
244.648161
51
289.560302
0
ARC
8
MCD_Layer_0
10
-12.016361
20
17.047495
40
0.852706
50
67.118089
51
94.475545
0
ARC
8
MCD_Layer_0
10
-12.459565
20
17.808298
40
0.387106
50
13.337821
51
104.777237
0
ARC
8
MCD_Layer_0
10
-13.291595
20
17.798891
40
0.827619
50
27.621585
51
58.071557
0
ARC
8
MCD_Layer_0
10
-12.593359
20
18.927774
40
0.499763
50
180.524595
51
238.578468
0
ARC
8
MCD_Layer_0
10
-11.593502
20
18.920099
40
1.381808
50
163.528320
51
182.189823
0
ARC
8
MCD_Layer_0
10
-15.096463
20
19.954798
40
2.270772
50
343.553538
51
358.291548
0
ARC
8
MCD_Layer_0
10
-12.715483
20
20.153986
40
0.289134
50
247.377419
51
298.504313
0
ARC
8
MCD_Layer_0
10
-12.449179
20
19.649606
40
0.281272
50
71.472366
51
117.143565
0
ARC
8
MCD_Layer_0
10
-13.040697
20
20.099105
40
0.705008
50
299.942951
51
344.971784
0
ARC
8
MCD_Layer_0
10
-13.142162
20
19.355896
40
0.472272
50
343.010451
51
16.268687
0
ARC
8
MCD_Layer_0
10
-11.421123
20
18.794316
40
1.338187
50
161.546486
51
179.795219
0
ARC
8
MCD_Layer_0
10
-12.725430
20
19.278866
40
0.480961
50
238.838867
51
265.961617
0
ARC
8
MCD_Layer_0
10
-13.209838
20
64.392206
40
45.596650
50
270.605226
51
270.628599
0
ARC
8
MCD_Layer_0
10
-12.782774
20
18.024340
40
0.777411
50
30.422479
51
84.599101
0
ARC
8
MCD_Layer_0
10
-12.125154
20
17.682756
40
0.735354
50
35.808859
51
89.006319
0
ARC
8
MCD_Layer_0
10
-10.903592
20
18.560259
40
0.768638
50
215.583376
51
224.053895
0
ARC
8
MCD_Layer_0
10
-11.880378
20
18.860364
40
0.936267
50
296.953326
51
324.547136
0
ARC
8
MCD_Layer_0
10
-10.849331
20
18.147979
40
0.317320
50
106.264084
51
147.751469
0
ARC
8
MCD_Layer_0
10
-9.990476
20
18.219548
40
0.975960
50
124.959786
51
166.184656
0
ARC
8
MCD_Layer_0
10
-11.197851
20
18.552713
40
0.798683
50
35.754994
51
88.195454
0
ARC
8
MCD_Layer_0
10
-11.198710
20
18.550709
40
0.841618
50
67.453190
51
85.385569
0
ARC
8
MCD_Layer_0
10
-11.077432
20
19.435099
40
0.228133
50
332.000603
51
43.591403
0
ARC
8
MCD_Layer_0
10
-10.753589
20
19.717002
40
0.201701
50
161.441210
51
218.152407
0
ARC
8
MCD_Layer_0
10
-10.948807
20
20.066074
40
0.284904
50
216.576999
51
270.805530
0
ARC
8
MCD_Layer_0
10
-11.542488
20
19.625283
40
0.454525
50
36.602752
51
79.095033
0
ARC
8
MCD_Layer_0
10
-11.559148
20
20.065524
40
0.102827
50
269.580208
51
3.387730
0
ARC
8
MCD_Layer_0
10
-11.562823
20
19.630452
40
0.332261
50
89.496165
51
147.229033
0
ARC
8
MCD_Layer_0
10
-11.545215
20
19.548362
40
0.395994
50
138.588246
51
186.053886
0
ARC
8
MCD_Layer_0
10
-14.398083
20
19.265677
40
2.470856
50
354.263344
51
5.595545
0
ARC
8
MCD_Layer_0
10
-13.163231
20
19.125283
40
1.228262
50
326.865074
51
355.021871
0
ARC
8
MCD_Layer_0
10
-13.312834
20
19.239410
40
1.516275
50
326.991503
51
340.244577
0
ARC
8
MCD_Layer_0
10
-14.065625
20
19.483705
40
2.307462
50
340.853699
51
0.335095
0
ARC
8
MCD_Layer_0
10
-11.453688
20
19.507345
40
0.304683
50
124.281070
51
181.908209
0
ARC
8
MCD_Layer_0
10
-11.489606
20
19.460667
40
0.268653
50
91.705246
51
178.819875
0
ARC
8
MCD_Layer_0
10
-11.489663
20
19.460700
40
0.227787
50
91.594463
51
178.817929
0
ARC
8
MCD_Layer_0
10
-11.483302
20
19.377029
40
0.311628
50
300.273677
51
92.335557
0
ARC
8
MCD_Layer_0
10
-11.953704
20
20.147586
40
1.214376
50
276.150240
51
301.113099
0
ARC
8
MCD_Layer_0
10
-14.059929
20
19.483508
40
2.342597
50
346.727788
51
359.557080
0
ARC
8
MCD_Layer_0
10
-12.456101
20
19.210731
40
0.874979
50
44.544765
51
80.069076
0
ARC
8
MCD_Layer_0
10
-13.039777
20
20.098583
40
0.735034
50
301.758207
51
357.974155
0
ARC
8
MCD_Layer_0
10
-13.141033
20
19.355854
40
0.502132
50
342.899009
51
13.561767
0
ARC
8
MCD_Layer_0
10
-11.415480
20
18.793854
40
1.312728
50
161.600755
51
179.814680
0
ARC
8
MCD_Layer_0
10
-12.306259
20
18.078118
40
0.222536
50
171.242640
51
223.939662
0
ARC
8
MCD_Layer_0
10
-14.288844
20
18.887684
40
2.061601
50
330.608359
51
332.122039
0
ARC
8
MCD_Layer_0
10
-14.606335
20
19.062684
40
2.545924
50
329.775665
51
331.876436
0
ARC
8
MCD_Layer_0
10
-12.309551
20
18.116514
40
0.259073
50
258.545394
51
304.341514
0
ARC
8
MCD_Layer_0
10
-12.459738
20
17.808164
40
0.311020
50
17.675874
51
102.338884
0
ARC
8
MCD_Layer_0
10
-11.735750
20
16.705536
40
0.894163
50
90.041742
51
117.606456
0
ARC
8
MCD_Layer_0
10
-11.736727
20
17.410432
40
0.189267
50
332.008144
51
89.901510
0
ARC
8
MCD_Layer_0
10
-11.688153
20
17.513619
40
0.225667
50
301.691042
51
54.091742
0
ARC
8
MCD_Layer_0
10
-11.752405
20
17.422210
40
0.337392
50
54.358142
51
102.581939
0
ARC
8
MCD_Layer_0
10
-11.529289
20
16.428858
40
1.355492
50
102.639866
51
121.191624
0
ARC
8
MCD_Layer_0
10
-13.540332
20
16.874061
40
0.244560
50
196.183447
51
282.283534
0
ARC
8
MCD_Layer_0
10
-13.639644
20
16.845150
40
0.141126
50
111.340776
51
196.148455
0
ARC
8
MCD_Layer_0
10
-13.547199
20
16.911355
40
0.157911
50
155.596116
51
291.665077
0
ARC
8
MCD_Layer_0
10
-13.557091
20
16.935198
40
0.183723
50
291.786902
51
78.448882
0
ARC
8
MCD_Layer_0
10
-13.588002
20
16.780882
40
0.341103
50
78.552222
51
95.348993
0
ARC
8
MCD_Layer_0
10
-13.531845
20
17.352380
40
0.213531
50
207.585411
51
244.282758
0
ARC
8
MCD_Layer_0
10
-13.587610
20
16.780201
40
0.491764
50
79.228233
51
105.750831
0
ARC
8
MCD_Layer_0
10
-13.556317
20
16.948442
40
0.320640
50
282.246737
51
79.102797
0
ARC
8
MCD_Layer_0
10
-12.327747
20
15.286458
40
2.272853
50
126.720113
51
141.443355
0
ARC
8
MCD_Layer_0
10
-15.186501
20
17.564315
40
1.382432
50
302.816017
51
321.466597
0
ARC
8
MCD_Layer_0
10
-14.243292
20
16.842239
40
0.480637
50
219.040696
51
246.193353
0
ARC
8
MCD_Layer_0
10
-15.389644
20
17.635103
40
1.340873
50
305.206243
51
323.419142
0
ARC
8
MCD_Layer_0
10
-13.941094
20
16.545823
40
0.471639
50
108.724755
51
142.029607
0
ARC
8
MCD_Layer_0
10
-13.390702
20
17.054808
40
0.704559
50
140.009625
51
185.073722
0
ARC
8
MCD_Layer_0
10
-14.097147
20
17.281933
40
0.280527
50
7.778033
51
53.555664
0
ARC
8
MCD_Layer_0
10
-13.531511
20
17.352761
40
0.289560
50
186.516483
51
237.591628
0
ARC
8
MCD_Layer_0
10
-11.880938
20
18.860939
40
0.968106
50
297.574445
51
324.539405
0
ARC
8
MCD_Layer_0
10
-10.847763
20
18.145840
40
0.288786
50
102.933818
51
147.900310
0
ARC
8
MCD_Layer_0
10
-9.992271
20
18.220136
40
0.943163
50
133.911764
51
167.311689
0
ARC
8
MCD_Layer_0
10
-11.020218
20
18.659264
40
0.444409
50
2.080821
51
32.737935
0
ARC
8
MCD_Layer_0
10
-10.187488
20
18.703929
40
0.389659
50
184.198653
51
219.973213
0
ARC
8
MCD_Layer_0
10
-10.210851
20
17.609732
40
0.887623
50
108.065104
51
139.559252
0
ARC
8
MCD_Layer_0
10
-12.112425
20
19.251173
40
1.624437
50
302.008427
51
319.002451
0
ARC
8
MCD_Layer_0
10
-10.890864
20
18.572283
40
0.786134
50
226.419735
51
242.701816
0
ARC
8
MCD_Layer_0
10
-11.483543
20
19.376704
40
0.352777
50
2.094842
51
92.283783
0
ARC
8
MCD_Layer_0
10
-10.441413
20
19.638370
40
1.289940
50
135.692822
51
162.805439
0
ARC
8
MCD_Layer_0
10
-10.064379
20
19.444515
40
1.699732
50
121.845137
51
139.897919
0
ARC
8
MCD_Layer_0
10
-10.375856
20
20.128908
40
0.958882
50
95.730613
51
127.621685
0
ARC
8
MCD_Layer_0
10
-10.395401
20
20.512969
40
0.575100
50
68.924960
51
97.614053
0
ARC
8
MCD_Layer_0
10
-10.279288
20
20.882868
40
0.189800
50
319.855449
51
61.457799
0
ARC
8
MCD_Layer_0
10
-10.271515
20
20.886705
40
0.186502
50
246.326071
51
317.413868
0
ARC
8
MCD_Layer_0
10
-10.257313
20
20.906349
40
0.210257
50
160.249467
51
244.930903
0
ARC
8
MCD_Layer_0
10
-10.380282
20
20.778717
40
0.212338
50
110.660365
51
203.572842
0
ARC
8
MCD_Layer_0
10
-10.273255
20
20.831761
40
0.331698
50
204.577391
51
287.719353
0
ARC
8
MCD_Layer_0
10
-10.282519
20
20.894187
40
0.394114
50
286.239930
51
355.927810
0
ARC
8
MCD_Layer_0
10
-10.246118
20
20.881745
40
0.357056
50
357.504746
51
88.633221
0
ARC
8
MCD_Layer_0
10
-10.347639
20
20.041923
40
1.201824
50
84.746695
51
122.529485
0
ARC
8
MCD_Layer_0
10
-9.874855
20
19.225471
40
2.144800
50
121.449593
51
159.727886
0
ARC
8
MCD_Layer_0
10
-12.251660
20
19.556718
40
0.550244
50
40.668039
51
48.464329
0
ARC
8
MCD_Layer_0
10
-11.610870
20
19.747320
40
0.279532
50
102.989495
51
143.063669
0
ARC
8
MCD_Layer_0
10
-12.303003
20
20.016872
40
0.318257
50
5.667110
51
23.661654
0
ARC
8
MCD_Layer_0
10
-12.405291
20
20.494779
40
0.526968
50
318.354843
51
47.871259
0
ARC
8
MCD_Layer_0
10
-12.506062
20
20.487296
40
0.528322
50
40.043187
51
90.470493
0
ARC
8
MCD_Layer_0
10
-12.609320
20
20.389488
40
0.565684
50
80.802492
51
134.783066
0
ARC
8
MCD_Layer_0
10
-13.071209
20
20.535585
40
0.263166
50
358.783674
51
76.057899
0
ARC
8
MCD_Layer_0
10
-12.410835
20
20.519375
40
0.458036
50
181.560831
51
226.796673
0
ARC
8
MCD_Layer_0
10
-12.386134
20
20.513249
40
0.544819
50
224.203012
51
252.727389
0
ARC
8
MCD_Layer_0
10
-12.393740
20
19.522284
40
0.495317
50
90.169064
51
108.133781
0
ARC
8
MCD_Layer_0
10
-12.333801
20
19.552056
40
0.605735
50
55.808544
51
95.200139
0
ARC
8
MCD_Layer_0
10
-11.314606
20
19.965607
40
0.182507
50
89.276462
51
109.824250
0
ARC
8
MCD_Layer_0
10
-10.856538
20
19.915797
40
0.511552
50
77.130778
51
152.992050
0
ARC
8
MCD_Layer_0
10
-10.838130
20
19.760041
40
0.591648
50
50.337257
51
82.704772
0
ARC
8
MCD_Layer_0
10
-10.307044
20
20.373246
40
0.282639
50
228.642057
51
299.189515
0
ARC
8
MCD_Layer_0
10
-10.684355
20
20.190151
40
0.519071
50
293.352524
51
352.956311
0
ARC
8
MCD_Layer_0
10
-10.838548
20
20.365174
40
0.800650
50
272.523191
51
298.671986
0
ARC
8
MCD_Layer_0
10
-6.798793
20
22.239935
40
4.815574
50
212.756119
51
213.739196
0
ARC
8
MCD_Layer_0
10
-10.708838
20
19.743887
40
0.177542
50
146.801382
51
218.074565
0
ARC
8
MCD_Layer_0
10
-10.853090
20
20.216221
40
0.375147
50
224.731073
51
269.341639
0
ARC
8
MCD_Layer_0
10
-11.592235
20
19.569251
40
0.608303
50
39.015922
51
52.615978
0
ARC
8
MCD_Layer_0
10
-11.581020
20
19.585410
40
0.588565
50
55.352008
51
69.666338
0
ARC
8
MCD_Layer_0
10
-9.933772
20
19.293785
40
2.134022
50
123.021076
51
134.487717
0
ARC
8
MCD_Layer_0
10
-9.312798
20
15.108159
40
6.235561
50
106.623742
51
114.399650
0
ARC
8
MCD_Layer_0
10
-12.093517
20
20.623069
40
0.262215
50
4.183594
51
38.638812
0
ARC
8
MCD_Layer_0
10
-9.640535
20
16.122309
40
5.023139
50
110.859977
51
115.866399
0
ARC
8
MCD_Layer_0
10
-10.245794
20
20.882965
40
0.433920
50
46.171008
51
75.466240
0
ARC
8
MCD_Layer_0
10
-9.845811
20
20.674004
40
0.531392
50
73.343910
51
100.790847
0
ARC
8
MCD_Layer_0
10
-9.739023
20
21.011841
40
0.177205
50
340.674984
51
75.114273
0
ARC
8
MCD_Layer_0
10
-9.591721
20
21.100205
40
0.148349
50
277.716376
51
344.596180
0
ARC
8
MCD_Layer_0
10
-9.667720
20
21.129450
40
0.229526
50
342.596892
51
47.954182
0
ARC
8
MCD_Layer_0
10
-9.756398
20
20.946881
40
0.428226
50
55.524744
51
95.118279
0
ARC
8
MCD_Layer_0
10
-9.611189
20
19.614245
40
1.768690
50
95.952236
51
107.291465
0
ARC
8
MCD_Layer_0
10
-12.331013
20
19.504620
40
0.894941
50
126.178645
51
151.540087
0
ARC
8
MCD_Layer_0
10
-12.428894
20
19.544591
40
0.640138
50
126.615757
51
154.903692
0
ARC
8
MCD_Layer_0
10
-12.401929
20
20.499300
40
0.601239
50
216.983919
51
227.165450
0
ARC
8
MCD_Layer_0
10
14.303620
20
14.968973
40
0.552323
50
284.349542
51
331.244775
0
ARC
8
MCD_Layer_0
10
14.291714
20
14.946022
40
0.489911
50
286.015645
51
334.065648
0
ARC
8
MCD_Layer_0
10
15.338036
20
14.404782
40
0.688409
50
113.414347
51
151.494210
0
ARC
8
MCD_Layer_0
10
15.395861
20
14.390013
40
0.683980
50
116.987670
51
152.742564
0
ARC
8
MCD_Layer_0
10
13.573224
20
14.295152
40
1.822481
50
41.126012
51
69.523849
0
ARC
8
MCD_Layer_0
10
13.052869
20
13.546878
40
2.668937
50
45.752570
51
64.886899
0
ARC
8
MCD_Layer_0
10
16.539474
20
14.708095
40
1.301025
50
111.523745
51
150.446984
0
ARC
8
MCD_Layer_0
10
16.376352
20
14.898628
40
1.113636
50
107.366981
51
154.348311
0
ARC
8
MCD_Layer_0
10
14.822812
20
17.979887
40
0.167238
50
252.655877
51
321.041429
0
ARC
8
MCD_Layer_0
10
14.856829
20
17.951358
40
0.122851
50
321.412448
51
74.722010
0
ARC
8
MCD_Layer_0
10
14.861843
20
17.969757
40
0.103782
50
74.716294
51
164.182591
0
ARC
8
MCD_Layer_0
10
14.833680
20
17.977690
40
0.074522
50
164.148463
51
335.854925
0
ARC
8
MCD_Layer_0
10
14.804225
20
17.964556
40
0.147652
50
138.499039
51
257.774090
0
ARC
8
MCD_Layer_0
10
14.872614
20
17.903882
40
0.239076
50
349.149554
51
138.469260
0
ARC
8
MCD_Layer_0
10
13.898488
20
18.091353
40
1.231078
50
331.672644
51
349.114934
0
ARC
8
MCD_Layer_0
10
15.363036
20
17.473339
40
0.903730
50
169.521013
51
234.189452
0
ARC
8
MCD_Layer_0
10
14.851237
20
17.191709
40
0.890063
50
356.510640
51
69.180045
0
ARC
8
MCD_Layer_0
10
13.293112
20
19.585847
40
1.301032
50
114.523949
51
153.447054
0
ARC
8
MCD_Layer_0
10
13.120227
20
19.767589
40
1.113628
50
110.366786
51
157.348571
0
ARC
8
MCD_Layer_0
10
11.461112
20
19.456302
40
0.167240
50
273.959351
51
342.343674
0
ARC
8
MCD_Layer_0
10
11.464973
20
19.412074
40
0.122854
50
160.278352
51
273.587521
0
ARC
8
MCD_Layer_0
10
11.447022
20
19.418516
40
0.103782
50
70.815852
51
160.282071
0
ARC
8
MCD_Layer_0
10
11.456683
20
19.446136
40
0.074521
50
259.142711
51
70.853334
0
ARC
8
MCD_Layer_0
10
11.484328
20
19.462731
40
0.147656
50
337.227406
51
96.499008
0
ARC
8
MCD_Layer_0
10
11.494811
20
19.371911
40
0.239079
50
96.531755
51
245.849467
0
ARC
8
MCD_Layer_0
10
11.899968
20
20.277393
40
1.231072
50
245.885286
51
263.327607
0
ARC
8
MCD_Layer_0
10
11.566205
20
18.723238
40
0.903717
50
0.810021
51
65.479462
0
ARC
8
MCD_Layer_0
10
12.090463
20
18.980940
40
0.890078
50
165.820584
51
238.488630
0
ARC
8
MCD_Layer_0
10
10.561827
20
20.450969
40
0.552302
50
252.348855
51
299.245901
0
ARC
8
MCD_Layer_0
10
10.539564
20
20.437840
40
0.489913
50
254.016020
51
302.065894
0
ARC
8
MCD_Layer_0
10
11.069319
20
19.605924
40
0.496324
50
69.115361
51
122.703539
0
ARC
8
MCD_Layer_0
10
11.144771
20
19.460890
40
0.596895
50
82.474740
51
121.639117
0
ARC
8
MCD_Layer_0
10
16.476473
20
16.144379
40
0.851299
50
122.091589
51
149.495728
0
ARC
8
MCD_Layer_0
10
15.695355
20
17.442498
40
0.664042
50
299.684078
51
344.550107
0
ARC
8
MCD_Layer_0
10
15.875818
20
17.934610
40
0.811659
50
270.627036
51
304.487543
0
ARC
8
MCD_Layer_0
10
15.894703
20
16.418659
40
0.704411
50
90.813610
51
145.425222
0
ARC
8
MCD_Layer_0
10
15.238582
20
16.072705
40
0.749570
50
84.171515
51
139.148411
0
ARC
8
MCD_Layer_0
10
14.246082
20
16.837805
40
0.506542
50
278.779887
51
327.145223
0
ARC
8
MCD_Layer_0
10
14.606150
20
16.749195
40
0.499688
50
235.538515
51
293.600262
0
ARC
8
MCD_Layer_0
10
15.130197
20
15.530292
40
0.827107
50
82.594674
51
113.061623
0
ARC
8
MCD_Layer_0
10
15.600125
20
16.216618
40
0.387206
50
68.346438
51
159.771533
0
ARC
8
MCD_Layer_0
10
15.432298
20
16.516898
40
0.260426
50
313.694038
51
359.252004
0
ARC
8
MCD_Layer_0
10
13.182310
20
15.101754
40
2.722045
50
24.665084
51
26.789087
0
ARC
8
MCD_Layer_0
10
15.803663
20
15.641814
40
0.613908
50
103.917567
51
115.351856
0
ARC
8
MCD_Layer_0
10
13.389070
20
15.201221
40
2.370807
50
24.824992
51
26.993346
0
ARC
8
MCD_Layer_0
10
15.467042
20
16.497496
40
0.222891
50
226.282730
51
278.919500
0
ARC
8
MCD_Layer_0
10
15.600166
20
16.216308
40
0.311264
50
72.705073
51
157.305424
0
ARC
8
MCD_Layer_0
10
15.800830
20
15.649385
40
0.528476
50
86.542579
51
136.956281
0
ARC
8
MCD_Layer_0
10
15.700385
20
15.662269
40
0.526883
50
129.126902
51
218.649674
0
ARC
8
MCD_Layer_0
10
15.573087
20
15.190228
40
0.318124
50
153.293299
51
171.945794
0
ARC
8
MCD_Layer_0
10
17.514980
20
17.598490
40
3.268108
50
221.497100
51
226.324231
0
ARC
8
MCD_Layer_0
10
14.569103
20
15.659068
40
0.546959
50
335.597965
51
47.744210
0
ARC
8
MCD_Layer_0
10
14.456744
20
15.566035
40
0.615775
50
45.322929
51
91.492991
0
ARC
8
MCD_Layer_0
10
14.294331
20
15.385806
40
0.738776
50
79.709773
51
123.311601
0
ARC
8
MCD_Layer_0
10
13.759253
20
15.604385
40
0.419265
50
24.522120
51
72.030458
0
ARC
8
MCD_Layer_0
10
14.687999
20
15.960842
40
0.639919
50
200.293538
51
240.624809
0
ARC
8
MCD_Layer_0
10
14.657264
20
15.706266
40
0.491435
50
227.094674
51
311.004279
0
ARC
8
MCD_Layer_0
10
13.607613
20
13.672893
40
2.155587
50
42.840275
51
50.466687
0
ARC
8
MCD_Layer_0
10
15.200140
20
14.954855
40
0.184132
50
93.717447
51
122.760230
0
ARC
8
MCD_Layer_0
10
14.837058
20
14.671123
40
0.511616
50
59.007579
51
134.855827
0
ARC
8
MCD_Layer_0
10
14.903584
20
14.529835
40
0.591004
50
129.281375
51
161.690352
0
ARC
8
MCD_Layer_0
10
14.128897
20
14.767770
40
0.282403
50
272.781498
51
343.380321
0
ARC
8
MCD_Layer_0
10
14.545609
20
14.812311
40
0.518738
50
219.022396
51
278.669497
0
ARC
8
MCD_Layer_0
10
14.583162
20
15.045089
40
0.802968
50
273.358395
51
305.268289
0
ARC
8
MCD_Layer_0
10
14.825101
20
14.722991
40
0.462142
50
303.563471
51
37.589794
0
ARC
8
MCD_Layer_0
10
15.234882
20
14.944862
40
0.074188
50
40.253444
51
125.975176
0
ARC
8
MCD_Layer_0
10
13.756317
20
13.709933
40
2.000635
50
10.237406
51
39.883589
0
ARC
8
MCD_Layer_0
10
16.703752
20
14.268674
40
0.999518
50
191.728341
51
260.733391
0
ARC
8
MCD_Layer_0
10
16.681076
20
14.301189
40
0.745033
50
194.782000
51
259.304101
0
ARC
8
MCD_Layer_0
10
19.377568
20
14.875033
40
3.501225
50
183.936040
51
192.602769
0
ARC
8
MCD_Layer_0
10
16.052692
20
14.674914
40
0.172834
50
81.612851
51
193.454887
0
ARC
8
MCD_Layer_0
10
15.942705
20
14.800217
40
0.142707
50
18.669896
51
154.968064
0
ARC
8
MCD_Layer_0
10
13.106103
20
13.903860
40
2.871379
50
19.463037
51
23.765275
0
ARC
8
MCD_Layer_0
10
15.682601
20
15.670159
40
0.611324
50
261.789830
51
274.823158
0
ARC
8
MCD_Layer_0
10
13.636119
20
14.109047
40
2.180007
50
6.753197
51
26.011711
0
ARC
8
MCD_Layer_0
10
14.087127
20
13.930085
40
1.755406
50
14.358333
51
40.477218
0
ARC
8
MCD_Layer_0
10
15.518304
20
15.163385
40
0.134138
50
155.646739
51
224.360858
0
ARC
8
MCD_Layer_0
10
15.682790
20
15.680840
40
0.543843
50
238.186713
51
312.814574
0
ARC
8
MCD_Layer_0
10
15.707410
20
15.686552
40
0.457943
50
310.184900
51
355.434354
0
ARC
8
MCD_Layer_0
10
16.367296
20
15.668409
40
0.262814
50
100.877298
51
178.279339
0
ARC
8
MCD_Layer_0
10
15.898520
20
15.545892
40
0.566194
50
42.238828
51
96.176705
0
ARC
8
MCD_Layer_0
10
17.259628
20
16.188768
40
1.351317
50
157.619093
51
177.593832
0
ARC
8
MCD_Layer_0
10
16.322503
20
16.574049
40
0.338083
50
109.418438
51
157.523731
0
ARC
8
MCD_Layer_0
10
16.284023
20
16.679792
40
0.225565
50
356.646979
51
109.130013
0
ARC
8
MCD_Layer_0
10
16.340615
20
16.580803
40
0.189162
50
26.972265
51
144.927156
0
ARC
8
MCD_Layer_0
10
16.917442
20
16.177597
40
0.892941
50
145.020993
51
180.031952
0
ARC
8
MCD_Layer_0
10
15.812379
20
14.749258
40
1.443512
50
81.549822
51
86.142070
0
ARC
8
MCD_Layer_0
10
16.915980
20
16.178082
40
0.815948
50
144.999250
51
181.473587
0
ARC
8
MCD_Layer_0
10
16.340682
20
16.580579
40
0.113829
50
79.768735
51
144.858451
0
ARC
8
MCD_Layer_0
10
16.340611
20
16.580734
40
0.113689
50
8.327814
51
79.719719
0
ARC
8
MCD_Layer_0
10
16.663516
20
14.310322
40
0.651406
50
194.793060
51
259.320544
0
ARC
8
MCD_Layer_0
10
19.349978
20
14.885730
40
3.398214
50
183.916883
51
192.607494
0
ARC
8
MCD_Layer_0
10
16.052740
20
14.674898
40
0.095444
50
130.936718
51
192.893327
0
ARC
8
MCD_Layer_0
10
16.052720
20
14.674614
40
0.095646
50
62.690874
51
130.816274
0
ARC
8
MCD_Layer_0
10
15.942626
20
14.800014
40
0.220296
50
8.847950
51
116.421584
0
ARC
8
MCD_Layer_0
10
11.581176
20
13.285104
40
4.594388
50
21.880439
51
22.908248
0
ARC
8
MCD_Layer_0
10
15.683445
20
15.680108
40
0.620331
50
282.073948
51
319.907431
0
ARC
8
MCD_Layer_0
10
15.706123
20
15.687204
40
0.536733
50
318.805204
51
1.376795
0
ARC
8
MCD_Layer_0
10
16.367520
20
15.668250
40
0.185512
50
88.523297
51
162.802836
0
ARC
8
MCD_Layer_0
10
15.897757
20
15.544911
40
0.644824
50
38.827317
51
71.693032
0
ARC
8
MCD_Layer_0
10
15.695273
20
17.442217
40
0.739534
50
321.445705
51
348.438536
0
ARC
8
MCD_Layer_0
10
15.843636
20
17.982753
40
0.793950
50
306.617319
51
307.621817
0
ARC
8
MCD_Layer_0
10
14.618172
20
17.328280
40
1.699117
50
0.580653
51
14.030112
0
ARC
8
MCD_Layer_0
10
17.050038
20
17.944718
40
0.809692
50
161.121790
51
194.630645
0
ARC
8
MCD_Layer_0
10
16.169951
20
18.592238
40
0.314725
50
239.665780
51
280.110517
0
ARC
8
MCD_Layer_0
10
15.727839
20
17.881039
40
0.522872
50
57.210675
51
84.054301
0
ARC
8
MCD_Layer_0
10
16.842344
20
18.482242
40
1.063443
50
180.072328
51
184.376099
0
ARC
8
MCD_Layer_0
10
15.714492
20
17.699550
40
0.852008
50
89.333565
51
95.164196
0
ARC
8
MCD_Layer_0
10
12.417060
20
19.578761
40
0.858097
50
28.453708
51
56.136837
0
ARC
8
MCD_Layer_0
10
12.409489
20
20.520021
40
0.536871
50
334.784318
51
4.366835
0
ARC
8
MCD_Layer_0
10
13.071252
20
20.535639
40
0.185629
50
91.558890
51
165.792114
0
ARC
8
MCD_Layer_0
10
12.609076
20
20.388843
40
0.643753
50
41.796956
51
92.009619
0
ARC
8
MCD_Layer_0
10
12.506359
20
20.483641
40
0.609451
50
83.116592
51
133.091722
0
ARC
8
MCD_Layer_0
10
12.168208
20
20.719708
40
0.280015
50
114.406980
51
156.000303
0
ARC
8
MCD_Layer_0
10
8.928688
20
14.245897
40
7.231899
50
65.633195
51
81.217349
0
ARC
8
MCD_Layer_0
10
12.895641
20
39.266858
40
18.101660
50
258.766518
51
260.900591
0
ARC
8
MCD_Layer_0
10
18.008609
20
66.701900
40
45.725566
50
259.109173
51
264.864314
0
ARC
8
MCD_Layer_0
10
13.875054
20
20.783620
40
0.378447
50
20.297339
51
83.864844
0
ARC
8
MCD_Layer_0
10
14.793914
20
20.707763
40
0.387960
50
88.052208
51
150.126833
0
ARC
8
MCD_Layer_0
10
16.971891
20
64.359834
40
43.318460
50
267.135516
51
269.432449
0
ARC
8
MCD_Layer_0
10
16.150417
20
19.290390
40
0.392615
50
295.963188
51
358.030904
0
ARC
8
MCD_Layer_0
10
16.255720
20
18.407005
40
0.288125
50
355.120995
51
76.189032
0
ARC
8
MCD_Layer_0
10
16.284019
20
16.679751
40
0.301727
50
30.944155
51
91.978546
0
ARC
8
MCD_Layer_0
10
14.626005
20
17.329427
40
1.615762
50
356.965684
51
14.054258
0
ARC
8
MCD_Layer_0
10
17.051682
20
17.944882
40
0.886798
50
163.051127
51
194.569767
0
ARC
8
MCD_Layer_0
10
16.169809
20
18.592351
40
0.390399
50
239.232897
51
274.936246
0
ARC
8
MCD_Layer_0
10
15.729671
20
17.887221
40
0.440985
50
56.961041
51
87.864815
0
ARC
8
MCD_Layer_0
10
16.677420
20
18.473903
40
0.942693
50
188.909776
51
222.329505
0
ARC
8
MCD_Layer_0
10
16.247367
20
17.730628
40
0.288068
50
157.879899
51
202.950596
0
ARC
8
MCD_Layer_0
10
15.068806
20
17.294483
40
0.969003
50
352.583272
51
19.522376
0
ARC
8
MCD_Layer_0
10
15.876290
20
17.934094
40
0.779932
50
281.343983
51
297.755382
0
ARC
8
MCD_Layer_0
10
15.068632
20
17.294267
40
0.938113
50
351.993325
51
19.524849
0
ARC
8
MCD_Layer_0
10
16.245733
20
17.730587
40
0.317626
50
161.285463
51
202.741826
0
ARC
8
MCD_Layer_0
10
16.679243
20
18.475005
40
0.975743
50
179.947537
51
221.184022
0
ARC
8
MCD_Layer_0
10
15.714104
20
17.677015
40
0.798954
50
90.760446
51
143.182774
0
ARC
8
MCD_Layer_0
10
15.714103
20
17.676796
40
0.839907
50
122.444980
51
140.415286
0
ARC
8
MCD_Layer_0
10
15.060278
20
18.282096
40
0.228064
50
26.990112
51
98.593212
0
ARC
8
MCD_Layer_0
10
15.014845
20
18.708507
40
0.201229
50
216.362833
51
273.235041
0
ARC
8
MCD_Layer_0
10
14.616776
20
18.749942
40
0.285562
50
271.650673
51
325.743340
0
ARC
8
MCD_Layer_0
10
14.637672
20
18.010384
40
0.454292
50
91.598163
51
134.104169
0
ARC
8
MCD_Layer_0
10
14.267473
20
18.249045
40
0.102882
50
324.567544
51
58.322032
0
ARC
8
MCD_Layer_0
10
14.621850
20
17.996435
40
0.332313
50
144.502297
51
202.213737
0
ARC
8
MCD_Layer_0
10
14.699692
20
17.964223
40
0.396649
50
193.622891
51
241.001655
0
ARC
8
MCD_Layer_0
10
13.295847
20
15.466363
40
2.468683
50
49.262381
51
60.608816
0
ARC
8
MCD_Layer_0
10
14.116241
20
16.394750
40
1.229953
50
21.879515
51
49.996343
0
ARC
8
MCD_Layer_0
10
15.238159
20
16.074980
40
0.778363
50
85.457712
51
139.566484
0
ARC
8
MCD_Layer_0
10
13.781319
20
17.157871
40
1.039867
50
325.199624
51
326.226623
0
ARC
8
MCD_Layer_0
10
15.393586
20
17.639452
40
1.315631
50
216.623904
51
234.799292
0
ARC
8
MCD_Layer_0
10
13.941783
20
16.546848
40
0.501461
50
37.858238
51
68.557403
0
ARC
8
MCD_Layer_0
10
13.391080
20
17.055056
40
0.735191
50
356.767449
51
52.973408
0
ARC
8
MCD_Layer_0
10
14.453325
20
17.023488
40
0.875423
50
99.542285
51
135.046802
0
ARC
8
MCD_Layer_0
10
14.785835
20
18.015467
40
0.305256
50
179.318351
51
236.848066
0
ARC
8
MCD_Layer_0
10
13.306874
20
15.862339
40
2.306979
50
35.854352
51
55.338900
0
ARC
8
MCD_Layer_0
10
13.942422
20
16.340887
40
1.511644
50
21.968946
51
35.262691
0
ARC
8
MCD_Layer_0
10
15.894777
20
16.418670
40
0.735404
50
90.816166
51
144.002979
0
ARC
8
MCD_Layer_0
10
15.876233
20
17.922541
40
0.768585
50
270.608938
51
279.085626
0
ARC
8
MCD_Layer_0
10
13.974335
20
17.972700
40
1.214046
50
331.149951
51
356.122401
0
ARC
8
MCD_Layer_0
10
14.875079
20
17.916335
40
0.311588
50
355.262448
51
147.358756
0
ARC
8
MCD_Layer_0
10
14.803024
20
17.959007
40
0.227916
50
146.621780
51
233.795641
0
ARC
8
MCD_Layer_0
10
13.309747
20
15.866320
40
2.342942
50
41.732205
51
54.557016
0
ARC
8
MCD_Layer_0
10
14.802930
20
17.959065
40
0.268690
50
146.721198
51
233.815944
0
ARC
8
MCD_Layer_0
10
14.875091
20
17.915980
40
0.352677
50
57.071858
51
147.302149
0
ARC
8
MCD_Layer_0
10
16.219521
20
19.253443
40
0.417639
50
296.688658
51
3.219698
0
ARC
8
MCD_Layer_0
10
16.965800
20
64.073284
40
42.938047
50
267.124536
51
269.560585
0
ARC
8
MCD_Layer_0
10
14.775151
20
20.751148
40
0.439681
50
85.218337
51
147.312605
0
ARC
8
MCD_Layer_0
10
13.899273
20
20.808834
40
0.435598
50
25.388676
51
88.128107
0
ARC
8
MCD_Layer_0
10
17.268236
20
62.314607
40
41.207191
50
258.838008
51
265.330303
0
ARC
8
MCD_Layer_0
10
10.651718
20
29.293181
40
7.954594
50
260.151976
51
262.109452
0
ARC
8
MCD_Layer_0
10
9.732428
20
20.997237
40
0.451046
50
112.516236
51
126.885581
0
ARC
8
MCD_Layer_0
10
9.667658
20
21.129548
40
0.307585
50
132.035690
51
197.432758
0
ARC
8
MCD_Layer_0
10
9.586944
20
21.096665
40
0.220844
50
195.566740
51
275.393196
0
ARC
8
MCD_Layer_0
10
9.759194
20
20.983363
40
0.132180
50
101.695034
51
208.743195
0
ARC
8
MCD_Layer_0
10
9.846590
20
20.667524
40
0.459741
50
85.119807
51
106.514938
0
ARC
8
MCD_Layer_0
10
10.246565
20
20.881671
40
0.435572
50
145.943027
51
182.483278
0
ARC
8
MCD_Layer_0
10
10.282415
20
20.894100
40
0.472105
50
184.069173
51
253.774618
0
ARC
8
MCD_Layer_0
10
10.273381
20
20.831649
40
0.409714
50
252.268690
51
335.431651
0
ARC
8
MCD_Layer_0
10
10.380131
20
20.778570
40
0.290692
50
336.444581
51
45.077911
0
ARC
8
MCD_Layer_0
10
10.375951
20
20.129356
40
0.880323
50
52.365104
51
76.235931
0
ARC
8
MCD_Layer_0
10
10.068682
20
19.449480
40
1.615101
50
40.067298
51
58.190306
0
ARC
8
MCD_Layer_0
10
10.495547
20
19.672410
40
1.149657
50
22.950299
51
45.265554
0
ARC
8
MCD_Layer_0
10
11.410950
20
19.972363
40
0.206215
50
45.998993
51
93.906324
0
ARC
8
MCD_Layer_0
10
10.860426
20
19.901916
40
0.603393
50
27.239879
51
110.795489
0
ARC
8
MCD_Layer_0
10
10.838690
20
19.758927
40
0.670256
50
105.080904
51
135.418111
0
ARC
8
MCD_Layer_0
10
10.307054
20
20.373376
40
0.205321
50
231.272343
51
293.370614
0
ARC
8
MCD_Layer_0
10
10.684157
20
20.189912
40
0.596273
50
182.606142
51
238.926893
0
ARC
8
MCD_Layer_0
10
10.839300
20
20.367989
40
0.880976
50
236.589271
51
266.055809
0
ARC
8
MCD_Layer_0
10
11.077942
20
19.434984
40
0.304094
50
169.749319
51
200.658708
0
ARC
8
MCD_Layer_0
10
11.201429
20
18.548493
40
0.879573
50
117.638523
51
145.586083
0
ARC
8
MCD_Layer_0
10
9.997878
20
18.230168
40
0.887514
50
50.206982
51
55.364358
0
ARC
8
MCD_Layer_0
10
11.021140
20
18.658704
40
0.521010
50
150.898733
51
177.833495
0
ARC
8
MCD_Layer_0
10
10.186955
20
18.703942
40
0.314585
50
314.871552
51
355.342823
0
ARC
8
MCD_Layer_0
10
10.213140
20
17.612829
40
0.808373
50
40.339318
51
73.900852
0
ARC
8
MCD_Layer_0
10
12.115783
20
19.254280
40
1.704513
50
220.996432
51
234.402282
0
ARC
8
MCD_Layer_0
10
10.964647
20
18.333961
40
0.492044
50
287.230823
51
288.847496
0
ARC
8
MCD_Layer_0
10
11.401288
20
18.433906
40
0.740220
50
246.573892
51
273.540600
0
ARC
8
MCD_Layer_0
10
11.688148
20
17.513589
40
0.301824
50
143.031468
51
248.535243
0
ARC
8
MCD_Layer_0
10
11.736384
20
17.410388
40
0.113455
50
155.188286
51
226.787635
0
ARC
8
MCD_Layer_0
10
11.736975
20
17.410078
40
0.114122
50
90.288069
51
155.171497
0
ARC
8
MCD_Layer_0
10
11.736320
20
16.707895
40
0.816303
50
63.715575
51
89.994252
0
ARC
8
MCD_Layer_0
10
13.570572
20
16.948538
40
0.414482
50
175.618992
51
257.746160
0
ARC
8
MCD_Layer_0
10
13.536603
20
16.868816
40
0.329768
50
260.574966
51
357.685728
0
ARC
8
MCD_Layer_0
10
12.325866
20
15.285722
40
2.199211
50
38.541190
51
45.544209
0
ARC
8
MCD_Layer_0
10
15.193683
20
17.571988
40
1.468403
50
218.594053
51
232.328871
0
ARC
8
MCD_Layer_0
10
14.238813
20
16.932359
40
0.525810
50
273.062148
51
276.276844
0
ARC
8
MCD_Layer_0
10
14.602385
20
16.743335
40
0.568311
50
231.641254
51
244.732074
0
ARC
8
MCD_Layer_0
10
14.268637
20
15.397702
40
0.798989
50
83.722526
51
124.420269
0
ARC
8
MCD_Layer_0
10
13.759337
20
15.604749
40
0.341482
50
34.812664
51
79.579640
0
ARC
8
MCD_Layer_0
10
14.690090
20
15.962293
40
0.719833
50
195.667358
51
232.922033
0
ARC
8
MCD_Layer_0
10
14.656156
20
15.704819
40
0.567098
50
219.330012
51
254.593849
0
ARC
8
MCD_Layer_0
10
14.841550
20
14.666740
40
0.595283
50
124.368923
51
142.829927
0
ARC
8
MCD_Layer_0
10
14.903797
20
14.529569
40
0.668734
50
137.052168
51
167.465745
0
ARC
8
MCD_Layer_0
10
14.128649
20
14.768158
40
0.205371
50
263.275383
51
325.352708
0
ARC
8
MCD_Layer_0
10
14.545906
20
14.812677
40
0.596650
50
214.620195
51
270.902311
0
ARC
8
MCD_Layer_0
10
14.582755
20
15.046286
40
0.881650
50
268.599151
51
300.031704
0
ARC
8
MCD_Layer_0
10
14.841343
20
14.694230
40
0.518022
50
294.699365
51
5.813257
0
ARC
8
MCD_Layer_0
10
13.760143
20
13.711510
40
1.902791
50
10.210237
51
32.958880
0
ARC
8
MCD_Layer_0
10
16.703664
20
14.268628
40
1.093193
50
191.600608
51
266.477706
0
ARC
8
MCD_Layer_0
10
16.238727
20
18.406489
40
0.398948
50
355.602340
51
64.877648
0
ARC
8
MCD_Layer_0
10
13.263986
20
19.237298
40
0.103676
50
228.877008
51
297.215623
0
ARC
8
MCD_Layer_0
10
12.517130
20
18.558547
40
0.906299
50
41.510145
51
57.865259
0
ARC
8
MCD_Layer_0
10
12.400570
20
19.083016
40
0.646065
50
1.843548
51
22.092258
0
ARC
8
MCD_Layer_0
10
11.896373
20
17.879856
40
1.679396
50
32.152966
51
46.785875
0
ARC
8
MCD_Layer_0
10
14.206156
20
19.501865
40
1.006342
50
209.560129
51
218.217070
0
ARC
8
MCD_Layer_0
10
13.420087
20
19.083469
40
0.118603
50
153.332247
51
221.165416
0
ARC
8
MCD_Layer_0
10
12.727384
20
19.273389
40
0.506343
50
267.862884
51
316.242479
0
ARC
8
MCD_Layer_0
10
12.784607
20
18.022074
40
0.749200
50
95.830248
51
150.833229
0
ARC
8
MCD_Layer_0
10
12.125302
20
17.682648
40
0.704570
50
89.585287
51
144.179180
0
ARC
8
MCD_Layer_0
10
10.893098
20
18.569027
40
0.813323
50
290.558013
51
324.350258
0
ARC
8
MCD_Layer_0
10
11.400782
20
18.432543
40
0.663325
50
250.439698
51
295.351839
0
ARC
8
MCD_Layer_0
10
12.016361
20
17.047495
40
0.852706
50
85.524455
51
112.881911
0
ARC
8
MCD_Layer_0
10
12.459565
20
17.808298
40
0.387106
50
75.222763
51
166.662179
0
ARC
8
MCD_Layer_0
10
13.291595
20
17.798891
40
0.827619
50
121.928443
51
152.378415
0
ARC
8
MCD_Layer_0
10
12.593359
20
18.927774
40
0.499763
50
301.421532
51
359.475405
0
ARC
8
MCD_Layer_0
10
11.593502
20
18.920099
40
1.381808
50
357.810177
51
16.471680
0
ARC
8
MCD_Layer_0
10
15.096463
20
19.954798
40
2.270772
50
181.708452
51
196.446462
0
ARC
8
MCD_Layer_0
10
12.715483
20
20.153986
40
0.289134
50
241.495687
51
292.622581
0
ARC
8
MCD_Layer_0
10
12.449179
20
19.649606
40
0.281272
50
62.856435
51
108.527634
0
ARC
8
MCD_Layer_0
10
13.040697
20
20.099105
40
0.705008
50
195.028216
51
240.057049
0
ARC
8
MCD_Layer_0
10
13.142162
20
19.355896
40
0.472272
50
163.731313
51
196.989549
0
ARC
8
MCD_Layer_0
10
11.421123
20
18.794316
40
1.338187
50
0.204781
51
18.453514
0
ARC
8
MCD_Layer_0
10
12.725430
20
19.278866
40
0.480961
50
274.038383
51
301.161133
0
ARC
8
MCD_Layer_0
10
13.209838
20
64.392205
40
45.596650
50
269.371401
51
269.394774
0
ARC
8
MCD_Layer_0
10
12.782774
20
18.024340
40
0.777411
50
95.400899
51
149.577521
0
ARC
8
MCD_Layer_0
10
12.125154
20
17.682756
40
0.735354
50
90.993681
51
144.191141
0
ARC
8
MCD_Layer_0
10
10.903592
20
18.560259
40
0.768638
50
315.946105
51
324.416624
0
ARC
8
MCD_Layer_0
10
11.880378
20
18.860364
40
0.936267
50
215.452864
51
243.046674
0
ARC
8
MCD_Layer_0
10
10.849331
20
18.147979
40
0.317320
50
32.248531
51
73.735916
0
ARC
8
MCD_Layer_0
10
9.990476
20
18.219548
40
0.975960
50
13.815344
51
55.040214
0
ARC
8
MCD_Layer_0
10
11.197851
20
18.552713
40
0.798683
50
91.804546
51
144.245006
0
ARC
8
MCD_Layer_0
10
11.198710
20
18.550709
40
0.841618
50
94.614431
51
112.546810
0
ARC
8
MCD_Layer_0
10
11.077432
20
19.435099
40
0.228133
50
136.408597
51
207.999397
0
ARC
8
MCD_Layer_0
10
10.753589
20
19.717002
40
0.201701
50
321.847593
51
18.558790
0
ARC
8
MCD_Layer_0
10
10.948807
20
20.066074
40
0.284904
50
269.194470
51
323.423001
0
ARC
8
MCD_Layer_0
10
11.542488
20
19.625283
40
0.454525
50
100.904967
51
143.397248
0
ARC
8
MCD_Layer_0
10
11.559148
20
20.065524
40
0.102827
50
176.612270
51
270.419792
0
ARC
8
MCD_Layer_0
10
11.562823
20
19.630452
40
0.332261
50
32.770967
51
90.503835
0
ARC
8
MCD_Layer_0
10
11.545215
20
19.548362
40
0.395994
50
353.946114
51
41.411754
0
ARC
8
MCD_Layer_0
10
14.398083
20
19.265677
40
2.470856
50
174.404455
51
185.736656
0
ARC
8
MCD_Layer_0
10
13.163231
20
19.125283
40
1.228262
50
184.978129
51
213.134926
0
ARC
8
MCD_Layer_0
10
13.312834
20
19.239410
40
1.516275
50
199.755423
51
213.008497
0
ARC
8
MCD_Layer_0
10
14.065625
20
19.483705
40
2.307462
50
179.664905
51
199.146301
0
ARC
8
MCD_Layer_0
10
11.453688
20
19.507345
40
0.304683
50
358.091791
51
55.718930
0
ARC
8
MCD_Layer_0
10
11.489606
20
19.460667
40
0.268653
50
1.180125
51
88.294754
0
ARC
8
MCD_Layer_0
10
11.489663
20
19.460700
40
0.227787
50
1.182071
51
88.405537
0
ARC
8
MCD_Layer_0
10
11.483302
20
19.377029
40
0.311628
50
87.664443
51
239.726323
0
ARC
8
MCD_Layer_0
10
11.953704
20
20.147586
40
1.214376
50
238.886901
51
263.849760
0
ARC
8
MCD_Layer_0
10
14.059929
20
19.483508
40
2.342597
50
180.442920
51
193.272212
0
ARC
8
MCD_Layer_0
10
12.456101
20
19.210731
40
0.874979
50
99.930924
51
135.455235
0
ARC
8
MCD_Layer_0
10
13.039777
20
20.098583
40
0.735034
50
182.025845
51
238.241793
0
ARC
8
MCD_Layer_0
10
13.141033
20
19.355854
40
0.502132
50
166.438233
51
197.100991
0
ARC
8
MCD_Layer_0
10
11.415480
20
18.793854
40
1.312728
50
0.185320
51
18.399245
0
ARC
8
MCD_Layer_0
10
12.306259
20
18.078118
40
0.222536
50
316.060338
51
8.757360
0
ARC
8
MCD_Layer_0
10
14.288844
20
18.887684
40
2.061601
50
207.877961
51
209.391641
0
ARC
8
MCD_Layer_0
10
14.606335
20
19.062684
40
2.545924
50
208.123564
51
210.224335
0
ARC
8
MCD_Layer_0
10
12.309551
20
18.116514
40
0.259073
50
235.658486
51
281.454606
0
ARC
8
MCD_Layer_0
10
12.459738
20
17.808164
40
0.311020
50
77.661116
51
162.324126
0
ARC
8
MCD_Layer_0
10
11.735750
20
16.705536
40
0.894163
50
62.393544
51
89.958258
0
ARC
8
MCD_Layer_0
10
11.736727
20
17.410432
40
0.189267
50
90.098490
51
207.991856
0
ARC
8
MCD_Layer_0
10
11.688153
20
17.513619
40
0.225667
50
125.908258
51
238.308958
0
ARC
8
MCD_Layer_0
10
11.752405
20
17.422210
40
0.337392
50
77.418061
51
125.641858
0
ARC
8
MCD_Layer_0
10
11.529289
20
16.428858
40
1.355492
50
58.808376
51
77.360134
0
ARC
8
MCD_Layer_0
10
13.540332
20
16.874061
40
0.244560
50
257.716466
51
343.816553
0
ARC
8
MCD_Layer_0
10
13.639644
20
16.845150
40
0.141126
50
343.851545
51
68.659224
0
ARC
8
MCD_Layer_0
10
13.547199
20
16.911355
40
0.157911
50
248.334923
51
24.403884
0
ARC
8
MCD_Layer_0
10
13.557091
20
16.935198
40
0.183723
50
101.551118
51
248.213098
0
ARC
8
MCD_Layer_0
10
13.588002
20
16.780882
40
0.341103
50
84.651007
51
101.447778
0
ARC
8
MCD_Layer_0
10
13.531845
20
17.352380
40
0.213531
50
295.717242
51
332.414589
0
ARC
8
MCD_Layer_0
10
13.587610
20
16.780201
40
0.491764
50
74.249169
51
100.771767
0
ARC
8
MCD_Layer_0
10
13.556317
20
16.948442
40
0.320640
50
100.897203
51
257.753263
0
ARC
8
MCD_Layer_0
10
12.327747
20
15.286458
40
2.272853
50
38.556645
51
53.279887
0
ARC
8
MCD_Layer_0
10
15.186501
20
17.564315
40
1.382432
50
218.533403
51
237.183983
0
ARC
8
MCD_Layer_0
10
14.243292
20
16.842239
40
0.480637
50
293.806647
51
320.959304
0
ARC
8
MCD_Layer_0
10
15.389644
20
17.635103
40
1.340873
50
216.580858
51
234.793757
0
ARC
8
MCD_Layer_0
10
13.941094
20
16.545823
40
0.471639
50
37.970393
51
71.275245
0
ARC
8
MCD_Layer_0
10
13.390702
20
17.054808
40
0.704559
50
354.926278
51
39.990375
0
ARC
8
MCD_Layer_0
10
14.097147
20
17.281933
40
0.280527
50
126.444336
51
172.221967
0
ARC
8
MCD_Layer_0
10
13.531511
20
17.352761
40
0.289560
50
302.408372
51
353.483517
0
ARC
8
MCD_Layer_0
10
11.880938
20
18.860939
40
0.968106
50
215.460595
51
242.425555
0
ARC
8
MCD_Layer_0
10
10.847763
20
18.145840
40
0.288786
50
32.099690
51
77.066182
0
ARC
8
MCD_Layer_0
10
9.992271
20
18.220136
40
0.943163
50
12.688311
51
46.088236
0
ARC
8
MCD_Layer_0
10
11.020218
20
18.659264
40
0.444409
50
147.262065
51
177.919179
0
ARC
8
MCD_Layer_0
10
10.187488
20
18.703929
40
0.389659
50
320.026787
51
355.801347
0
ARC
8
MCD_Layer_0
10
10.210851
20
17.609732
40
0.887623
50
40.440748
51
71.934896
0
ARC
8
MCD_Layer_0
10
12.112425
20
19.251173
40
1.624437
50
220.997549
51
237.991573
0
ARC
8
MCD_Layer_0
10
10.890864
20
18.572283
40
0.786134
50
297.298184
51
313.580265
0
ARC
8
MCD_Layer_0
10
11.483543
20
19.376704
40
0.352777
50
87.716217
51
177.905158
0
ARC
8
MCD_Layer_0
10
10.441413
20
19.638370
40
1.289940
50
17.194561
51
44.307178
0
ARC
8
MCD_Layer_0
10
10.064379
20
19.444515
40
1.699732
50
40.102081
51
58.154863
0
ARC
8
MCD_Layer_0
10
10.375856
20
20.128908
40
0.958882
50
52.378315
51
84.269387
0
ARC
8
MCD_Layer_0
10
10.395401
20
20.512969
40
0.575100
50
82.385947
51
111.075040
0
ARC
8
MCD_Layer_0
10
10.279288
20
20.882868
40
0.189800
50
118.542201
51
220.144551
0
ARC
8
MCD_Layer_0
10
10.271515
20
20.886705
40
0.186502
50
222.586132
51
293.673929
0
ARC
8
MCD_Layer_0
10
10.257313
20
20.906349
40
0.210257
50
295.069097
51
19.750533
0
ARC
8
MCD_Layer_0
10
10.380282
20
20.778717
40
0.212338
50
336.427158
51
69.339635
0
ARC
8
MCD_Layer_0
10
10.273255
20
20.831761
40
0.331698
50
252.280647
51
335.422609
0
ARC
8
MCD_Layer_0
10
10.282519
20
20.894187
40
0.394114
50
184.072190
51
253.760070
0
ARC
8
MCD_Layer_0
10
10.246118
20
20.881745
40
0.357056
50
91.366779
51
182.495254
0
ARC
8
MCD_Layer_0
10
10.347639
20
20.041923
40
1.201824
50
57.470515
51
95.253305
0
ARC
8
MCD_Layer_0
10
9.874855
20
19.225471
40
2.144800
50
20.272114
51
58.550407
0
ARC
8
MCD_Layer_0
10
12.251660
20
19.556718
40
0.550244
50
131.535671
51
139.331961
0
ARC
8
MCD_Layer_0
10
11.610870
20
19.747320
40
0.279532
50
36.936331
51
77.010505
0
ARC
8
MCD_Layer_0
10
12.303003
20
20.016872
40
0.318257
50
156.338346
51
174.332890
0
ARC
8
MCD_Layer_0
10
12.405291
20
20.494779
40
0.526968
50
132.128741
51
221.645157
0
ARC
8
MCD_Layer_0
10
12.506062
20
20.487296
40
0.528322
50
89.529507
51
139.956813
0
ARC
8
MCD_Layer_0
10
12.609320
20
20.389488
40
0.565684
50
45.216934
51
99.197508
0
ARC
8
MCD_Layer_0
10
13.071209
20
20.535585
40
0.263166
50
103.942101
51
181.216326
0
ARC
8
MCD_Layer_0
10
12.410835
20
20.519375
40
0.458036
50
313.203327
51
358.439169
0
ARC
8
MCD_Layer_0
10
12.386134
20
20.513249
40
0.544819
50
287.272611
51
315.796988
0
ARC
8
MCD_Layer_0
10
12.393740
20
19.522284
40
0.495317
50
71.866219
51
89.830936
0
ARC
8
MCD_Layer_0
10
12.333801
20
19.552056
40
0.605735
50
84.799861
51
124.191456
0
ARC
8
MCD_Layer_0
10
11.314606
20
19.965607
40
0.182507
50
70.175750
51
90.723538
0
ARC
8
MCD_Layer_0
10
10.856538
20
19.915797
40
0.511552
50
27.007950
51
102.869222
0
ARC
8
MCD_Layer_0
10
10.838130
20
19.760041
40
0.591648
50
97.295228
51
129.662743
0
ARC
8
MCD_Layer_0
10
10.307044
20
20.373246
40
0.282639
50
240.810485
51
311.357943
0
ARC
8
MCD_Layer_0
10
10.684355
20
20.190151
40
0.519071
50
187.043689
51
246.647476
0
ARC
8
MCD_Layer_0
10
10.838548
20
20.365174
40
0.800650
50
241.328014
51
267.476809
0
ARC
8
MCD_Layer_0
10
6.798793
20
22.239935
40
4.815574
50
326.260804
51
327.243881
0
ARC
8
MCD_Layer_0
10
10.708838
20
19.743887
40
0.177542
50
321.925435
51
33.198618
0
ARC
8
MCD_Layer_0
10
10.853090
20
20.216221
40
0.375147
50
270.658361
51
315.268927
0
ARC
8
MCD_Layer_0
10
11.592235
20
19.569251
40
0.608303
50
127.384022
51
140.984078
0
ARC
8
MCD_Layer_0
10
11.581020
20
19.585410
40
0.588565
50
110.333662
51
124.647992
0
ARC
8
MCD_Layer_0
10
9.933772
20
19.293785
40
2.134022
50
45.512283
51
56.978924
0
ARC
8
MCD_Layer_0
10
9.312798
20
15.108159
40
6.235561
50
65.600350
51
73.376258
0
ARC
8
MCD_Layer_0
10
12.093517
20
20.623069
40
0.262215
50
141.361188
51
175.816406
0
ARC
8
MCD_Layer_0
10
9.640535
20
16.122309
40
5.023139
50
64.133601
51
69.140023
0
ARC
8
MCD_Layer_0
10
10.245794
20
20.882965
40
0.433920
50
104.533760
51
133.828992
0
ARC
8
MCD_Layer_0
10
9.845811
20
20.674004
40
0.531392
50
79.209153
51
106.656090
0
ARC
8
MCD_Layer_0
10
9.739023
20
21.011841
40
0.177205
50
104.885727
51
199.325016
0
ARC
8
MCD_Layer_0
10
9.591721
20
21.100205
40
0.148349
50
195.403820
51
262.283624
0
ARC
8
MCD_Layer_0
10
9.667720
20
21.129450
40
0.229526
50
132.045818
51
197.403108
0
ARC
8
MCD_Layer_0
10
9.756398
20
20.946881
40
0.428226
50
84.881721
51
124.475256
0
ARC
8
MCD_Layer_0
10
9.611189
20
19.614245
40
1.768690
50
72.708535
51
84.047764
0
ARC
8
MCD_Layer_0
10
12.331013
20
19.504620
40
0.894941
50
28.459913
51
53.821355
0
ARC
8
MCD_Layer_0
10
12.428894
20
19.544591
40
0.640138
50
25.096308
51
53.384243
0
ARC
8
MCD_Layer_0
10
12.401929
20
20.499300
40
0.601239
50
312.834550
51
323.016081
0
ARC
8
MCD_Layer_0
10
-11.323486
20
11.581979
40
0.441829
50
179.194029
51
314.342484
0
ARC
8
MCD_Layer_0
10
-11.293483
20
11.525252
40
0.380724
50
317.081178
51
52.870562
0
ARC
8
MCD_Layer_0
10
-11.352668
20
12.629572
40
0.456044
50
136.100052
51
231.353907
0
ARC
8
MCD_Layer_0
10
-11.269005
20
12.511348
40
0.598922
50
63.596654
51
133.499557
0
ARC
8
MCD_Layer_0
10
-10.973794
20
13.114455
40
0.072647
50
246.577364
51
356.637535
0
ARC
8
MCD_Layer_0
10
-11.182637
20
12.683893
40
0.281372
50
0.386965
51
63.541406
0
ARC
8
MCD_Layer_0
10
-11.241200
20
12.513804
40
0.460332
50
66.449457
51
112.919585
0
ARC
8
MCD_Layer_0
10
-11.324150
20
12.705968
40
0.251040
50
112.562524
51
187.087412
0
ARC
8
MCD_Layer_0
10
-11.203764
20
12.698215
40
0.370236
50
183.596050
51
234.555115
0
ARC
8
MCD_Layer_0
10
-11.307751
20
11.556381
40
0.617434
50
11.757277
51
54.141978
0
ARC
8
MCD_Layer_0
10
-11.253870
20
11.588846
40
0.558456
50
302.565788
51
9.622343
0
ARC
8
MCD_Layer_0
10
-11.314134
20
11.688254
40
0.674678
50
240.995388
51
302.334821
0
ARC
8
MCD_Layer_0
10
-11.682271
20
11.025194
40
0.083726
50
60.679490
51
172.450656
0
ARC
8
MCD_Layer_0
10
-9.947724
20
11.200694
40
0.044571
50
273.215849
51
356.783988
0
ARC
8
MCD_Layer_0
10
-9.952223
20
12.899193
40
0.049498
50
8.130281
51
81.869881
0
ARC
8
MCD_Layer_0
10
-10.358405
20
12.903557
40
0.044895
50
96.160643
51
176.633849
0
ARC
8
MCD_Layer_0
10
-9.219723
20
12.903694
40
0.044570
50
3.214905
51
86.784444
0
ARC
8
MCD_Layer_0
10
-9.630724
20
12.903693
40
0.044570
50
93.215131
51
176.784544
0
ARC
8
MCD_Layer_0
10
-9.634223
20
11.197194
40
0.041012
50
178.603139
51
271.397187
0
ARC
8
MCD_Layer_0
10
-8.652727
20
11.197194
40
0.041012
50
271.397213
51
1.397123
0
ARC
8
MCD_Layer_0
10
-8.652728
20
12.947193
40
0.041012
50
1.397330
51
88.602585
0
ARC
8
MCD_Layer_0
10
-7.801180
20
12.862799
40
0.085464
50
0.934566
51
87.684733
0
ARC
8
MCD_Layer_0
10
-7.932727
20
12.239193
40
0.041012
50
268.602737
51
358.602933
0
ARC
8
MCD_Layer_0
10
-7.932727
20
12.051194
40
0.041012
50
1.397067
51
91.397263
0
ARC
8
MCD_Layer_0
10
-7.963924
20
12.356509
40
1.145246
50
248.603759
51
279.864197
0
ARC
8
MCD_Layer_0
10
-7.817887
20
11.495473
40
0.271946
50
280.628934
51
331.135348
0
ARC
8
MCD_Layer_0
10
-7.167910
20
12.904237
40
0.083971
50
20.900608
51
91.060544
0
ARC
8
MCD_Layer_0
10
-6.806106
20
12.949682
40
0.038602
50
86.076028
51
203.655700
0
ARC
8
MCD_Layer_0
10
-5.872822
20
12.949682
40
0.038602
50
336.344170
51
93.924059
0
ARC
8
MCD_Layer_0
10
-5.637535
20
12.906009
40
0.082210
50
88.556445
51
161.427676
0
ARC
8
MCD_Layer_0
10
-5.118552
20
11.197194
40
0.041012
50
271.397213
51
1.397123
0
ARC
8
MCD_Layer_0
10
-5.118552
20
12.947193
40
0.041012
50
1.397330
51
88.602585
0
ARC
8
MCD_Layer_0
10
-4.267004
20
12.862799
40
0.085464
50
0.934566
51
87.684733
0
ARC
8
MCD_Layer_0
10
-4.398552
20
12.239193
40
0.041012
50
268.602737
51
358.602933
0
ARC
8
MCD_Layer_0
10
-4.398552
20
12.051194
40
0.041012
50
1.397067
51
91.397263
0
ARC
8
MCD_Layer_0
10
-4.429748
20
12.356509
40
1.145246
50
248.603759
51
279.864197
0
ARC
8
MCD_Layer_0
10
-4.283712
20
11.495473
40
0.271946
50
280.628934
51
331.135348
0
ARC
8
MCD_Layer_0
10
-3.519296
20
11.197194
40
0.041012
50
271.397213
51
1.397123
0
ARC
8
MCD_Layer_0
10
-3.519296
20
12.947193
40
0.041012
50
1.397330
51
88.602585
0
ARC
8
MCD_Layer_0
10
-2.312932
20
12.943375
40
0.044896
50
6.161054
51
86.633105
0
ARC
8
MCD_Layer_0
10
-2.103295
20
12.947194
40
0.041012
50
88.603019
51
178.602822
0
ARC
8
MCD_Layer_0
10
-3.311295
20
11.197194
40
0.041012
50
178.602875
51
271.397115
0
ARC
8
MCD_Layer_0
10
1.524457
20
12.945193
40
0.043012
50
91.332416
51
162.407379
0
ARC
8
MCD_Layer_0
10
1.313478
20
12.948364
40
0.039881
50
342.232056
51
92.905064
0
ARC
8
MCD_Layer_0
10
-0.070212
20
12.947615
40
0.040613
50
87.644999
51
199.297484
0
ARC
8
MCD_Layer_0
10
-0.418180
20
12.943284
40
0.044939
50
22.102880
51
87.913114
0
ARC
8
MCD_Layer_0
10
2.050272
20
11.197193
40
0.041012
50
271.397157
51
1.397264
0
ARC
8
MCD_Layer_0
10
2.050272
20
12.947194
40
0.041012
50
1.397184
51
88.602645
0
ARC
8
MCD_Layer_0
10
2.362272
20
12.947193
40
0.041012
50
88.603041
51
178.602678
0
ARC
8
MCD_Layer_0
10
3.124272
20
12.947193
40
0.041012
50
1.397322
51
91.396959
0
ARC
8
MCD_Layer_0
10
3.437908
20
12.943375
40
0.044896
50
93.366669
51
173.839091
0
ARC
8
MCD_Layer_0
10
3.437772
20
11.200694
40
0.044570
50
183.215481
51
266.784509
0
ARC
8
MCD_Layer_0
10
3.124272
20
11.197194
40
0.041012
50
268.602845
51
1.397124
0
ARC
8
MCD_Layer_0
10
2.362272
20
11.197194
40
0.041012
50
178.602876
51
271.397155
0
ARC
8
MCD_Layer_0
10
4.042199
20
11.197194
40
0.041012
50
271.397213
51
1.397123
0
ARC
8
MCD_Layer_0
10
4.042199
20
12.947193
40
0.041012
50
1.397330
51
88.602585
0
ARC
8
MCD_Layer_0
10
4.893747
20
12.862799
40
0.085464
50
0.934566
51
87.684733
0
ARC
8
MCD_Layer_0
10
4.762199
20
12.239193
40
0.041012
50
268.602737
51
358.602933
0
ARC
8
MCD_Layer_0
10
4.762199
20
12.051194
40
0.041012
50
1.397067
51
91.397263
0
ARC
8
MCD_Layer_0
10
4.731003
20
12.356509
40
1.145246
50
248.603759
51
279.864197
0
ARC
8
MCD_Layer_0
10
4.877039
20
11.495473
40
0.271946
50
280.628934
51
331.135348
0
ARC
8
MCD_Layer_0
10
5.655431
20
11.197194
40
0.041012
50
271.397213
51
1.397123
0
ARC
8
MCD_Layer_0
10
5.655431
20
12.947193
40
0.041012
50
1.397330
51
88.602585
0
ARC
8
MCD_Layer_0
10
6.506978
20
12.862799
40
0.085464
50
0.934566
51
87.684733
0
ARC
8
MCD_Layer_0
10
6.375431
20
12.239193
40
0.041012
50
268.602737
51
358.602933
0
ARC
8
MCD_Layer_0
10
6.375431
20
12.051194
40
0.041012
50
1.397067
51
91.397263
0
ARC
8
MCD_Layer_0
10
6.344235
20
12.356509
40
1.145246
50
248.603759
51
279.864197
0
ARC
8
MCD_Layer_0
10
6.490271
20
11.495473
40
0.271946
50
280.628934
51
331.135348
0
ARC
8
MCD_Layer_0
10
7.302361
20
11.197194
40
0.041012
50
271.397213
51
1.397123
0
ARC
8
MCD_Layer_0
10
7.302360
20
12.947193
40
0.041012
50
1.397330
51
88.602585
0
ARC
8
MCD_Layer_0
10
7.614361
20
12.947194
40
0.041012
50
88.602970
51
178.602749
0
ARC
8
MCD_Layer_0
10
7.991164
20
12.356509
40
1.145246
50
248.603759
51
279.864197
0
ARC
8
MCD_Layer_0
10
8.144897
20
11.478304
40
0.253690
50
279.635694
51
334.025013
0
ARC
8
MCD_Layer_0
10
8.924216
20
11.197194
40
0.041012
50
271.397213
51
1.397123
0
ARC
8
MCD_Layer_0
10
8.924216
20
12.947193
40
0.041012
50
1.397330
51
88.602585
0
ARC
8
MCD_Layer_0
10
9.775764
20
12.862799
40
0.085464
50
0.934566
51
87.684733
0
ARC
8
MCD_Layer_0
10
9.644216
20
12.239193
40
0.041012
50
268.602737
51
358.602933
0
ARC
8
MCD_Layer_0
10
9.644216
20
12.051194
40
0.041012
50
1.397067
51
91.397263
0
ARC
8
MCD_Layer_0
10
9.613020
20
12.356509
40
1.145246
50
248.603759
51
279.864197
0
ARC
8
MCD_Layer_0
10
9.759056
20
11.495473
40
0.271946
50
280.628934
51
331.135348
0
ARC
8
MCD_Layer_0
10
10.523472
20
11.197194
40
0.041012
50
271.397213
51
1.397123
0
ARC
8
MCD_Layer_0
10
10.523472
20
12.947193
40
0.041012
50
1.397330
51
88.602585
0
ARC
8
MCD_Layer_0
10
11.043770
20
12.528303
40
0.545564
50
53.736374
51
85.510812
0
ARC
8
MCD_Layer_0
10
11.022854
20
12.518771
40
0.565733
50
1.156878
51
52.599356
0
ARC
8
MCD_Layer_0
10
11.043011
20
12.527932
40
0.545465
50
310.667241
51
0.237497
0
ARC
8
MCD_Layer_0
10
10.890472
20
12.708194
40
0.781601
50
303.202093
51
310.537662
0
ARC
8
MCD_Layer_0
10
23.260156
20
14.930537
40
12.283207
50
193.542631
51
196.527851
0
ARC
8
MCD_Layer_0
10
12.339325
20
11.717778
40
0.900036
50
198.231636
51
216.994386
0
ARC
8
MCD_Layer_0
10
11.719472
20
11.271574
40
0.137472
50
223.933362
51
316.066638
0
ARC
8
MCD_Layer_0
10
11.698472
20
11.268001
40
0.223465
50
254.956753
51
312.858812
0
ARC
8
MCD_Layer_0
10
11.757085
20
11.458807
40
0.423005
50
213.036898
51
253.997570
0
ARC
8
MCD_Layer_0
10
19.189949
20
15.140810
40
8.715124
50
201.305906
51
206.676055
0
ARC
8
MCD_Layer_0
10
11.017929
20
12.587197
40
0.615251
50
261.827787
51
274.899054
0
ARC
8
MCD_Layer_0
10
11.021874
20
12.421092
40
0.452232
50
239.811618
51
258.339391
0
ARC
8
MCD_Layer_0
10
10.835472
20
11.197194
40
0.041012
50
178.602807
51
271.397223
0
ARC
8
MCD_Layer_0
10
10.992168
20
12.495964
40
0.393100
50
239.806955
51
274.713729
0
ARC
8
MCD_Layer_0
10
10.953659
20
12.466887
40
0.369542
50
281.047538
51
333.533818
0
ARC
8
MCD_Layer_0
10
10.804787
20
12.556434
40
0.542896
50
332.075686
51
11.664094
0
ARC
8
MCD_Layer_0
10
10.936277
20
12.531047
40
0.422399
50
18.659884
51
63.844804
0
ARC
8
MCD_Layer_0
10
10.928096
20
12.554277
40
0.405535
50
61.359853
51
76.252066
0
ENDSEC
0
EOF
