0
SECTION
2
ENTITIES
0
LINE
8
MCD_Layer_1
10
-12.005738
20
0.023122
30
0.0
11
-12.005738
21
2.000000
31
0.0
0
LINE
8
MCD_Layer_1
10
12.005738
20
0.023122
30
0.0
11
-12.005738
21
0.023122
31
0.0
0
LINE
8
MCD_Layer_1
10
12.005738
20
2.000000
30
0.0
11
-12.005738
21
2.000000
31
0.0
0
LINE
8
MCD_Layer_0
10
-12.005738
20
0.068050
30
0.0
11
-12.083370
21
0.173850
31
0.0
0
LINE
8
MCD_Layer_0
10
-12.005738
20
1.939738
30
0.0
11
-12.110414
21
1.737639
31
0.0
0
LINE
8
MCD_Layer_1
10
12.005738
20
0.023122
30
0.0
11
12.005738
21
2.000000
31
0.0
0
LINE
8
MCD_Layer_0
10
12.005738
20
0.068050
30
0.0
11
12.083370
21
0.173850
31
0.0
0
LINE
8
MCD_Layer_0
10
12.005738
20
1.939738
30
0.0
11
12.110414
21
1.737639
31
0.0
0
LINE
8
MCD_Layer_0
10
-2.429332
20
10.577424
30
0.0
11
-2.435339
21
10.582812
31
0.0
0
LINE
8
MCD_Layer_0
10
-2.723474
20
0.336076
30
0.0
11
-2.721971
21
0.329339
31
0.0
0
LINE
8
MCD_Layer_0
10
-2.323146
20
0.785148
30
0.0
11
-2.323146
21
0.687266
31
0.0
0
LINE
8
MCD_Layer_0
10
-2.917313
20
9.953053
30
0.0
11
-0.074697
21
9.953053
31
0.0
0
LINE
8
MCD_Layer_0
10
-2.917313
20
10.078581
30
0.0
11
-2.917313
21
9.953053
31
0.0
0
LINE
8
MCD_Layer_0
10
-2.338539
20
11.923181
30
0.0
11
-2.338539
21
11.732079
31
0.0
0
LINE
8
MCD_Layer_0
10
-0.082868
20
2.143381
30
0.0
11
-1.471457
21
2.143381
31
0.0
0
LINE
8
MCD_Layer_0
10
-0.082868
20
1.980201
30
0.0
11
-1.382485
21
1.980201
31
0.0
0
LINE
8
MCD_Layer_0
10
-0.082868
20
0.785148
30
0.0
11
-2.322781
21
0.785148
31
0.0
0
LINE
8
MCD_Layer_0
10
-0.082868
20
-0.025527
30
0.0
11
-2.373778
21
-0.025527
31
0.0
0
LINE
8
MCD_Layer_0
10
-2.917313
20
10.078247
30
0.0
11
-0.079925
21
10.078247
31
0.0
0
LINE
8
MCD_Layer_0
10
-0.082868
20
0.687069
30
0.0
11
-2.394759
21
0.687069
31
0.0
0
LINE
8
MCD_Layer_0
10
-0.082664
20
0.687613
30
0.0
11
-0.007903
21
0.687613
31
0.0
0
LINE
8
MCD_Layer_0
10
-0.081200
20
0.784923
30
0.0
11
-0.007903
21
0.784923
31
0.0
0
LINE
8
MCD_Layer_0
10
-0.084492
20
1.980199
30
0.0
11
-0.007127
21
1.980199
31
0.0
0
LINE
8
MCD_Layer_0
10
-0.085979
20
2.143724
30
0.0
11
-0.008613
21
2.143724
31
0.0
0
LINE
8
MCD_Layer_0
10
-0.085957
20
11.922911
30
0.0
11
0.014145
21
11.922911
31
0.0
0
LINE
8
MCD_Layer_0
10
-0.078582
20
-0.024812
30
0.0
11
-0.007919
21
-0.024812
31
0.0
0
LINE
8
MCD_Layer_0
10
0.032020
20
0.687613
30
0.0
11
-0.042742
21
0.687613
31
0.0
0
LINE
8
MCD_Layer_0
10
0.030555
20
0.784923
30
0.0
11
-0.042742
21
0.784923
31
0.0
0
LINE
8
MCD_Layer_0
10
0.033847
20
1.980199
30
0.0
11
-0.043518
21
1.980199
31
0.0
0
LINE
8
MCD_Layer_0
10
0.035334
20
2.143724
30
0.0
11
-0.042031
21
2.143724
31
0.0
0
LINE
8
MCD_Layer_0
10
0.027938
20
-0.024812
30
0.0
11
-0.042726
21
-0.024812
31
0.0
0
LINE
8
MCD_Layer_0
10
-2.801149
20
11.095544
30
0.0
11
-2.801149
21
10.941914
31
0.0
0
LINE
8
MCD_Layer_0
10
-0.025322
20
11.735466
30
0.0
11
-2.338654
21
11.735466
31
0.0
0
LINE
8
MCD_Layer_0
10
-0.025322
20
11.923218
30
0.0
11
-2.338539
21
11.923218
31
0.0
0
LINE
8
MCD_Layer_0
10
2.388511
20
10.577424
30
0.0
11
2.394518
21
10.582812
31
0.0
0
LINE
8
MCD_Layer_0
10
2.682652
20
0.336076
30
0.0
11
2.681150
21
0.329339
31
0.0
0
LINE
8
MCD_Layer_0
10
2.282325
20
0.785148
30
0.0
11
2.282325
21
0.687266
31
0.0
0
LINE
8
MCD_Layer_0
10
2.876492
20
9.953053
30
0.0
11
0.033876
21
9.953053
31
0.0
0
LINE
8
MCD_Layer_0
10
2.876492
20
10.078581
30
0.0
11
2.876492
21
9.953053
31
0.0
0
LINE
8
MCD_Layer_0
10
2.297718
20
11.923181
30
0.0
11
2.297718
21
11.732079
31
0.0
0
LINE
8
MCD_Layer_0
10
0.042047
20
2.143381
30
0.0
11
1.430636
21
2.143381
31
0.0
0
LINE
8
MCD_Layer_0
10
0.042047
20
1.980201
30
0.0
11
1.341664
21
1.980201
31
0.0
0
LINE
8
MCD_Layer_0
10
0.042047
20
0.785148
30
0.0
11
2.281960
21
0.785148
31
0.0
0
LINE
8
MCD_Layer_0
10
0.042047
20
-0.025527
30
0.0
11
2.332957
21
-0.025527
31
0.0
0
LINE
8
MCD_Layer_0
10
2.876492
20
10.078247
30
0.0
11
0.039104
21
10.078247
31
0.0
0
LINE
8
MCD_Layer_0
10
0.042047
20
0.687069
30
0.0
11
2.353938
21
0.687069
31
0.0
0
LINE
8
MCD_Layer_0
10
2.760328
20
11.095544
30
0.0
11
2.760328
21
10.941914
31
0.0
0
LINE
8
MCD_Layer_0
10
-0.015499
20
11.095544
30
0.0
11
2.975201
21
11.095544
31
0.0
0
LINE
8
MCD_Layer_0
10
-0.015499
20
10.941914
30
0.0
11
2.760328
21
10.941914
31
0.0
0
LINE
8
MCD_Layer_0
10
-0.015499
20
11.735466
30
0.0
11
2.297833
21
11.735466
31
0.0
0
LINE
8
MCD_Layer_0
10
-0.015499
20
11.923218
30
0.0
11
2.297718
21
11.923218
31
0.0
0
LINE
8
MCD_Layer_0
10
-0.085169
20
10.077610
30
0.0
11
0.044624
21
10.077610
31
0.0
0
LINE
8
MCD_Layer_0
10
-0.091501
20
9.954499
30
0.0
11
0.041460
21
9.954499
31
0.0
0
LINE
8
MCD_Layer_0
10
-0.025322
20
10.941914
30
0.0
11
-2.801149
21
10.941914
31
0.0
0
LINE
8
MCD_Layer_0
10
-0.025322
20
11.095544
30
0.0
11
-3.016022
21
11.095544
31
0.0
0
LINE
8
MCD_Layer_0
10
-0.025796
20
11.095393
30
0.0
11
-0.008060
21
11.095393
31
0.0
0
LINE
8
MCD_Layer_0
10
-0.026406
20
10.941941
30
0.0
11
-0.014176
21
10.941941
31
0.0
0
LINE
8
MCD_Layer_0
10
-0.027139
20
11.735209
30
0.0
11
-0.015716
21
11.735209
31
0.0
0
LINE
8
MCD_Layer_0
10
-0.390000
20
0.000000
30
0.0
11
-0.214200
21
0.000000
31
0.0
0
LINE
8
MCD_Layer_0
10
-0.214200
20
0.000000
30
0.0
11
-0.214200
21
0.020800
31
0.0
0
LINE
8
MCD_Layer_0
10
-0.276700
20
0.062500
30
0.0
11
-0.276700
21
0.812500
31
0.0
0
LINE
8
MCD_Layer_0
10
-0.276700
20
0.812500
30
0.0
11
0.327500
21
-0.041700
31
0.0
0
LINE
8
MCD_Layer_0
10
0.327500
20
-0.041700
30
0.0
11
0.327500
21
0.937500
31
0.0
0
LINE
8
MCD_Layer_0
10
0.369100
20
0.979200
30
0.0
11
0.390000
21
0.979200
31
0.0
0
LINE
8
MCD_Layer_0
10
0.390000
20
0.979200
30
0.0
11
0.390000
21
1.000000
31
0.0
0
LINE
8
MCD_Layer_0
10
0.390000
20
1.000000
30
0.0
11
0.212900
21
1.000000
31
0.0
0
LINE
8
MCD_Layer_0
10
0.212900
20
1.000000
30
0.0
11
0.212900
21
0.979200
31
0.0
0
LINE
8
MCD_Layer_0
10
0.212900
20
0.979200
30
0.0
11
0.233700
21
0.979200
31
0.0
0
LINE
8
MCD_Layer_0
10
0.275400
20
0.937500
30
0.0
11
0.275400
21
0.229200
31
0.0
0
LINE
8
MCD_Layer_0
10
0.275400
20
0.229200
30
0.0
11
-0.266300
21
1.000000
31
0.0
0
LINE
8
MCD_Layer_0
10
-0.266300
20
1.000000
30
0.0
11
-0.390000
21
1.000000
31
0.0
0
LINE
8
MCD_Layer_0
10
-0.390000
20
1.000000
30
0.0
11
-0.390000
21
0.979200
31
0.0
0
LINE
8
MCD_Layer_0
10
-0.390000
20
0.979200
30
0.0
11
-0.369200
21
0.979200
31
0.0
0
LINE
8
MCD_Layer_0
10
-0.327500
20
0.937500
30
0.0
11
-0.327500
21
0.062500
31
0.0
0
LINE
8
MCD_Layer_0
10
-0.390000
20
0.020800
30
0.0
11
-0.390000
21
0.000000
31
0.0
0
LINE
8
MCD_Layer_0
10
-0.432292
20
0.000000
30
0.0
11
-0.432292
21
0.020833
31
0.0
0
LINE
8
MCD_Layer_0
10
-0.432292
20
0.020833
30
0.0
11
-0.421875
21
0.020833
31
0.0
0
LINE
8
MCD_Layer_0
10
-0.373022
20
0.054862
30
0.0
11
-0.005208
21
1.041667
31
0.0
0
LINE
8
MCD_Layer_0
10
-0.005208
20
1.041667
30
0.0
11
0.348958
21
0.062500
31
0.0
0
LINE
8
MCD_Layer_0
10
0.411459
20
0.020833
30
0.0
11
0.432292
21
0.020833
31
0.0
0
LINE
8
MCD_Layer_0
10
0.432292
20
0.020833
30
0.0
11
0.432292
21
0.000000
31
0.0
0
LINE
8
MCD_Layer_0
10
0.432292
20
0.000000
30
0.0
11
0.182292
21
0.000000
31
0.0
0
LINE
8
MCD_Layer_0
10
0.182292
20
0.000000
30
0.0
11
0.182292
21
0.020833
31
0.0
0
LINE
8
MCD_Layer_0
10
0.182292
20
0.020833
30
0.0
11
0.203958
21
0.020833
31
0.0
0
LINE
8
MCD_Layer_0
10
0.232292
20
0.065833
30
0.0
11
0.114590
21
0.392457
31
0.0
0
LINE
8
MCD_Layer_0
10
0.114590
20
0.392457
30
0.0
11
-0.181042
21
0.392499
31
0.0
0
LINE
8
MCD_Layer_0
10
-0.181042
20
0.392499
30
0.0
11
-0.301042
21
0.054166
31
0.0
0
LINE
8
MCD_Layer_0
10
-0.276042
20
0.020833
30
0.0
11
-0.265625
21
0.020833
31
0.0
0
LINE
8
MCD_Layer_0
10
-0.265625
20
0.020833
30
0.0
11
-0.265625
21
0.000000
31
0.0
0
LINE
8
MCD_Layer_0
10
-0.265625
20
0.000000
30
0.0
11
-0.432292
21
0.000000
31
0.0
0
LINE
8
MCD_Layer_0
10
-0.163363
20
0.442548
30
0.0
11
0.096506
21
0.442537
31
0.0
0
LINE
8
MCD_Layer_0
10
0.096506
20
0.442537
30
0.0
11
-0.034374
21
0.805833
31
0.0
0
LINE
8
MCD_Layer_0
10
-0.034374
20
0.805833
30
0.0
11
-0.163363
21
0.442548
31
0.0
0
LINE
8
MCD_Layer_0
10
0.353315
20
0.316300
30
0.0
11
0.298315
21
0.316300
31
0.0
0
LINE
8
MCD_Layer_0
10
0.298315
20
0.316300
30
0.0
11
0.298315
21
0.256300
31
0.0
0
LINE
8
MCD_Layer_0
10
0.306615
20
0.741300
30
0.0
11
0.321615
21
0.741300
31
0.0
0
LINE
8
MCD_Layer_0
10
0.321615
20
0.741300
30
0.0
11
0.321615
21
0.994600
31
0.0
0
LINE
8
MCD_Layer_0
10
0.321615
20
0.994600
30
0.0
11
0.308315
21
0.994600
31
0.0
0
LINE
8
MCD_Layer_0
10
0.353315
20
0.253000
30
0.0
11
0.353315
21
0.316300
31
0.0
0
LINE
8
MCD_Layer_0
10
-0.427100
20
0.978600
30
0.0
11
-0.427100
21
0.999500
31
0.0
0
LINE
8
MCD_Layer_0
10
-0.427100
20
0.999500
30
0.0
11
-0.166700
21
0.999500
31
0.0
0
LINE
8
MCD_Layer_0
10
-0.166700
20
0.999500
30
0.0
11
-0.166700
21
0.978600
31
0.0
0
LINE
8
MCD_Layer_0
10
-0.166700
20
0.978600
30
0.0
11
-0.178800
21
0.978600
31
0.0
0
LINE
8
MCD_Layer_0
10
-0.208400
20
0.937000
30
0.0
11
0.031200
21
0.499500
31
0.0
0
LINE
8
MCD_Layer_0
10
0.031200
20
0.499500
30
0.0
11
0.268900
21
0.932400
31
0.0
0
LINE
8
MCD_Layer_0
10
0.241200
20
0.978600
30
0.0
11
0.229100
21
0.978600
31
0.0
0
LINE
8
MCD_Layer_0
10
0.229100
20
0.978600
30
0.0
11
0.229100
21
0.999500
31
0.0
0
LINE
8
MCD_Layer_0
10
0.229100
20
0.999500
30
0.0
11
0.427100
21
0.999500
31
0.0
0
LINE
8
MCD_Layer_0
10
0.427100
20
0.999500
30
0.0
11
0.427100
21
0.978600
31
0.0
0
LINE
8
MCD_Layer_0
10
0.322900
20
0.916100
30
0.0
11
0.062500
21
0.437000
31
0.0
0
LINE
8
MCD_Layer_0
10
0.062500
20
0.437000
30
0.0
11
0.062500
21
0.062000
31
0.0
0
LINE
8
MCD_Layer_0
10
0.104100
20
0.020300
30
0.0
11
0.125000
21
0.020300
31
0.0
0
LINE
8
MCD_Layer_0
10
0.125000
20
0.020300
30
0.0
11
0.125000
21
-0.000500
31
0.0
0
LINE
8
MCD_Layer_0
10
0.125000
20
-0.000500
30
0.0
11
-0.114600
21
-0.000500
31
0.0
0
LINE
8
MCD_Layer_0
10
-0.114600
20
-0.000500
30
0.0
11
-0.114600
21
0.020300
31
0.0
0
LINE
8
MCD_Layer_0
10
-0.114600
20
0.020300
30
0.0
11
-0.093800
21
0.020300
31
0.0
0
LINE
8
MCD_Layer_0
10
-0.052100
20
0.062000
30
0.0
11
-0.052100
21
0.437000
31
0.0
0
LINE
8
MCD_Layer_0
10
-0.052100
20
0.437000
30
0.0
11
-0.343800
21
0.947400
31
0.0
0
LINE
8
MCD_Layer_0
10
-0.262900
20
0.062500
30
0.0
11
-0.262900
21
0.937500
31
0.0
0
LINE
8
MCD_Layer_0
10
-0.304600
20
0.979200
30
0.0
11
-0.325400
21
0.979200
31
0.0
0
LINE
8
MCD_Layer_0
10
-0.325400
20
0.979200
30
0.0
11
-0.325400
21
1.000000
31
0.0
0
LINE
8
MCD_Layer_0
10
-0.325400
20
1.000000
30
0.0
11
-0.096200
21
1.000000
31
0.0
0
LINE
8
MCD_Layer_0
10
-0.096200
20
1.000000
30
0.0
11
-0.096200
21
0.979200
31
0.0
0
LINE
8
MCD_Layer_0
10
-0.096200
20
0.979200
30
0.0
11
-0.117100
21
0.979200
31
0.0
0
LINE
8
MCD_Layer_0
10
-0.158700
20
0.937500
30
0.0
11
-0.158700
21
0.104200
31
0.0
0
LINE
8
MCD_Layer_0
10
0.308800
20
0.167500
30
0.0
11
0.325400
21
0.169200
31
0.0
0
LINE
8
MCD_Layer_0
10
0.325400
20
0.169200
30
0.0
11
0.278800
21
0.000000
31
0.0
0
LINE
8
MCD_Layer_0
10
0.278800
20
0.000000
30
0.0
11
-0.325400
21
0.000000
31
0.0
0
LINE
8
MCD_Layer_0
10
-0.325400
20
0.000000
30
0.0
11
-0.325400
21
0.020800
31
0.0
0
LINE
8
MCD_Layer_0
10
-0.325400
20
0.020800
30
0.0
11
-0.304600
21
0.020800
31
0.0
0
LINE
8
MCD_Layer_0
10
-0.437500
20
0.981700
30
0.0
11
-0.437500
21
1.002500
31
0.0
0
LINE
8
MCD_Layer_0
10
-0.437500
20
1.002500
30
0.0
11
-0.187500
21
1.002500
31
0.0
0
LINE
8
MCD_Layer_0
10
-0.187500
20
1.002500
30
0.0
11
-0.187500
21
0.981700
31
0.0
0
LINE
8
MCD_Layer_0
10
-0.187500
20
0.981700
30
0.0
11
-0.208300
21
0.981700
31
0.0
0
LINE
8
MCD_Layer_0
10
-0.237500
20
0.936700
30
0.0
11
0.029100
21
0.198700
31
0.0
0
LINE
8
MCD_Layer_0
10
0.029100
20
0.198700
30
0.0
11
0.295900
21
0.948300
31
0.0
0
LINE
8
MCD_Layer_0
10
0.270700
20
0.981400
30
0.0
11
0.249900
21
0.981400
31
0.0
0
LINE
8
MCD_Layer_0
10
0.249900
20
0.981400
30
0.0
11
0.249900
21
1.002300
31
0.0
0
LINE
8
MCD_Layer_0
10
0.249900
20
1.002300
30
0.0
11
0.437500
21
1.002500
31
0.0
0
LINE
8
MCD_Layer_0
10
0.437500
20
1.002500
30
0.0
11
0.437500
21
0.981700
31
0.0
0
LINE
8
MCD_Layer_0
10
0.354200
20
0.919200
30
0.0
11
0.000000
21
-0.039200
31
0.0
0
LINE
8
MCD_Layer_0
10
0.000000
20
-0.039200
30
0.0
11
-0.354100
21
0.940000
31
0.0
0
LINE
8
MCD_Layer_0
10
-0.406200
20
0.981700
30
0.0
11
-0.437500
21
0.981700
31
0.0
0
LINE
8
MCD_Layer_0
10
0.318500
20
1.017100
30
0.0
11
0.318500
21
0.953300
31
0.0
0
LINE
8
MCD_Layer_0
10
-0.114600
20
0.000000
30
0.0
11
-0.114600
21
0.052100
31
0.0
0
LINE
8
MCD_Layer_0
10
-0.114600
20
0.052100
30
0.0
11
-0.093700
21
0.052100
31
0.0
0
LINE
8
MCD_Layer_0
10
-0.052100
20
0.094600
30
0.0
11
-0.052100
21
0.829400
31
0.0
0
LINE
8
MCD_Layer_0
10
-0.093700
20
0.872000
30
0.0
11
-0.114600
21
0.872000
31
0.0
0
LINE
8
MCD_Layer_0
10
-0.114600
20
0.872000
30
0.0
11
-0.114600
21
0.935800
31
0.0
0
LINE
8
MCD_Layer_0
10
0.010400
20
1.063400
30
0.0
11
0.052100
21
1.063400
31
0.0
0
LINE
8
MCD_Layer_0
10
0.052100
20
1.063400
30
0.0
11
0.052100
21
0.094600
31
0.0
0
LINE
8
MCD_Layer_0
10
0.093800
20
0.052100
30
0.0
11
0.114600
21
0.052100
31
0.0
0
LINE
8
MCD_Layer_0
10
0.114600
20
0.052100
30
0.0
11
0.114600
21
0.000000
31
0.0
0
LINE
8
MCD_Layer_0
10
0.114600
20
0.000000
30
0.0
11
-0.114600
21
0.000000
31
0.0
0
LINE
8
MCD_Layer_0
10
-0.320900
20
-0.019500
30
0.0
11
-0.320900
21
0.044300
31
0.0
0
LINE
8
MCD_Layer_0
10
0.062500
20
-0.000400
30
0.0
11
0.062500
21
0.062100
31
0.0
0
LINE
8
MCD_Layer_0
10
0.062500
20
0.062100
30
0.0
11
0.104200
21
0.062100
31
0.0
0
LINE
8
MCD_Layer_0
10
0.145800
20
0.103800
30
0.0
11
0.145800
21
0.228800
31
0.0
0
LINE
8
MCD_Layer_0
10
0.145800
20
0.228800
30
0.0
11
-0.416700
21
0.228800
31
0.0
0
LINE
8
MCD_Layer_0
10
-0.416700
20
0.228800
30
0.0
11
0.250000
21
1.041300
31
0.0
0
LINE
8
MCD_Layer_0
10
0.250000
20
1.041300
30
0.0
11
0.250000
21
0.291300
31
0.0
0
LINE
8
MCD_Layer_0
10
0.250000
20
0.291300
30
0.0
11
0.312500
21
0.291300
31
0.0
0
LINE
8
MCD_Layer_0
10
0.354200
20
0.332900
30
0.0
11
0.354200
21
0.353800
31
0.0
0
LINE
8
MCD_Layer_0
10
0.354200
20
0.353800
30
0.0
11
0.416700
21
0.353800
31
0.0
0
LINE
8
MCD_Layer_0
10
0.416700
20
0.353800
30
0.0
11
0.416700
21
0.166300
31
0.0
0
LINE
8
MCD_Layer_0
10
0.416700
20
0.166300
30
0.0
11
0.354200
21
0.166300
31
0.0
0
LINE
8
MCD_Layer_0
10
0.354200
20
0.166300
30
0.0
11
0.354200
21
0.187100
31
0.0
0
LINE
8
MCD_Layer_0
10
0.312500
20
0.228800
30
0.0
11
0.250000
21
0.228800
31
0.0
0
LINE
8
MCD_Layer_0
10
0.250000
20
0.228800
30
0.0
11
0.250000
21
0.103800
31
0.0
0
LINE
8
MCD_Layer_0
10
0.291700
20
0.062100
30
0.0
11
0.333300
21
0.062100
31
0.0
0
LINE
8
MCD_Layer_0
10
0.333300
20
0.062100
30
0.0
11
0.333300
21
-0.000400
31
0.0
0
LINE
8
MCD_Layer_0
10
0.333300
20
-0.000400
30
0.0
11
0.062500
21
-0.000400
31
0.0
0
LINE
8
MCD_Layer_0
10
0.145800
20
0.291300
30
0.0
11
0.145800
21
0.791300
31
0.0
0
LINE
8
MCD_Layer_0
10
0.145800
20
0.791300
30
0.0
11
-0.270800
21
0.291300
31
0.0
0
LINE
8
MCD_Layer_0
10
-0.270800
20
0.291300
30
0.0
11
0.145800
21
0.291300
31
0.0
0
LINE
8
MCD_Layer_0
10
-0.385700
20
0.000000
30
0.0
11
-0.385700
21
0.042000
31
0.0
0
LINE
8
MCD_Layer_0
10
-0.385700
20
0.042000
30
0.0
11
-0.333700
21
0.042000
31
0.0
0
LINE
8
MCD_Layer_0
10
-0.312700
20
0.063000
30
0.0
11
-0.312700
21
0.938000
31
0.0
0
LINE
8
MCD_Layer_0
10
-0.333700
20
0.958000
30
0.0
11
-0.385700
21
0.958000
31
0.0
0
LINE
8
MCD_Layer_0
10
-0.385700
20
0.958000
30
0.0
11
-0.385700
21
1.000000
31
0.0
0
LINE
8
MCD_Layer_0
10
-0.385700
20
1.000000
30
0.0
11
0.001200
21
1.000000
31
0.0
0
LINE
8
MCD_Layer_0
10
0.007300
20
0.000000
30
0.0
11
-0.385700
21
0.000000
31
0.0
0
LINE
8
MCD_Layer_0
10
-0.042800
20
0.938000
30
0.0
11
-0.197700
21
0.938000
31
0.0
0
LINE
8
MCD_Layer_0
10
-0.197700
20
0.938000
30
0.0
11
-0.197700
21
0.146400
31
0.0
0
LINE
8
MCD_Layer_0
10
-0.437500
20
0.000000
30
0.0
11
-0.437500
21
0.042000
31
0.0
0
LINE
8
MCD_Layer_0
10
-0.437500
20
0.042000
30
0.0
11
-0.398500
21
0.042000
31
0.0
0
LINE
8
MCD_Layer_0
10
-0.358500
20
0.070000
30
0.0
11
-0.015500
21
1.052000
31
0.0
0
LINE
8
MCD_Layer_0
10
-0.015500
20
1.052000
30
0.0
11
0.328500
21
0.070000
31
0.0
0
LINE
8
MCD_Layer_0
10
0.368500
20
0.042000
30
0.0
11
0.437500
21
0.042000
31
0.0
0
LINE
8
MCD_Layer_0
10
0.437500
20
0.042000
30
0.0
11
0.437500
21
0.000000
31
0.0
0
LINE
8
MCD_Layer_0
10
0.437500
20
0.000000
30
0.0
11
0.130500
21
0.000000
31
0.0
0
LINE
8
MCD_Layer_0
10
0.130500
20
0.000000
30
0.0
11
0.130500
21
0.042000
31
0.0
0
LINE
8
MCD_Layer_0
10
0.130500
20
0.042000
30
0.0
11
0.185500
21
0.042000
31
0.0
0
LINE
8
MCD_Layer_0
10
0.204500
20
0.069000
30
0.0
11
0.097500
21
0.375000
31
0.0
0
LINE
8
MCD_Layer_0
10
0.097500
20
0.375000
30
0.0
11
-0.191500
21
0.375000
31
0.0
0
LINE
8
MCD_Layer_0
10
-0.191500
20
0.375000
30
0.0
11
-0.298500
21
0.069000
31
0.0
0
LINE
8
MCD_Layer_0
10
-0.278500
20
0.042000
30
0.0
11
-0.223500
21
0.042000
31
0.0
0
LINE
8
MCD_Layer_0
10
-0.223500
20
0.042000
30
0.0
11
-0.223500
21
0.000000
31
0.0
0
LINE
8
MCD_Layer_0
10
-0.223500
20
0.000000
30
0.0
11
-0.437500
21
0.000000
31
0.0
0
LINE
8
MCD_Layer_0
10
-0.169500
20
0.438000
30
0.0
11
0.075500
21
0.438000
31
0.0
0
LINE
8
MCD_Layer_0
10
0.075500
20
0.438000
30
0.0
11
-0.047500
21
0.788000
31
0.0
0
LINE
8
MCD_Layer_0
10
-0.047500
20
0.788000
30
0.0
11
-0.169500
21
0.438000
31
0.0
0
LINE
8
MCD_Layer_0
10
0.010500
20
-0.052000
30
0.0
11
-0.333500
21
0.931000
31
0.0
0
LINE
8
MCD_Layer_0
10
-0.373500
20
0.958000
30
0.0
11
-0.432500
21
0.958000
31
0.0
0
LINE
8
MCD_Layer_0
10
-0.432500
20
0.958000
30
0.0
11
-0.432500
21
1.000000
31
0.0
0
LINE
8
MCD_Layer_0
10
-0.432500
20
1.000000
30
0.0
11
-0.124500
21
1.000000
31
0.0
0
LINE
8
MCD_Layer_0
10
-0.124500
20
1.000000
30
0.0
11
-0.124500
21
0.958000
31
0.0
0
LINE
8
MCD_Layer_0
10
-0.124500
20
0.958000
30
0.0
11
-0.190500
21
0.958000
31
0.0
0
LINE
8
MCD_Layer_0
10
-0.209500
20
0.931000
30
0.0
11
0.041500
21
0.212000
31
0.0
0
LINE
8
MCD_Layer_0
10
0.041500
20
0.212000
30
0.0
11
0.292500
21
0.931000
31
0.0
0
LINE
8
MCD_Layer_0
10
0.273500
20
0.958000
30
0.0
11
0.218500
21
0.958000
31
0.0
0
LINE
8
MCD_Layer_0
10
0.218500
20
0.958000
30
0.0
11
0.218500
21
1.000000
31
0.0
0
LINE
8
MCD_Layer_0
10
0.218500
20
1.000000
30
0.0
11
0.432500
21
1.000000
31
0.0
0
LINE
8
MCD_Layer_0
10
0.432500
20
1.000000
30
0.0
11
0.432500
21
0.958000
31
0.0
0
LINE
8
MCD_Layer_0
10
0.432500
20
0.958000
30
0.0
11
0.393500
21
0.958000
31
0.0
0
LINE
8
MCD_Layer_0
10
0.353500
20
0.930000
30
0.0
11
0.010500
21
-0.052000
31
0.0
0
LINE
8
MCD_Layer_0
10
-0.120000
20
0.000000
30
0.0
11
-0.120000
21
0.042000
31
0.0
0
LINE
8
MCD_Layer_0
10
-0.120000
20
0.042000
30
0.0
11
-0.078000
21
0.042000
31
0.0
0
LINE
8
MCD_Layer_0
10
-0.057000
20
0.063000
30
0.0
11
-0.057000
21
0.938000
31
0.0
0
LINE
8
MCD_Layer_0
10
-0.078000
20
0.958000
30
0.0
11
-0.120000
21
0.958000
31
0.0
0
LINE
8
MCD_Layer_0
10
-0.120000
20
0.958000
30
0.0
11
-0.120000
21
1.000000
31
0.0
0
LINE
8
MCD_Layer_0
10
-0.120000
20
1.000000
30
0.0
11
0.120000
21
1.000000
31
0.0
0
LINE
8
MCD_Layer_0
10
0.120000
20
1.000000
30
0.0
11
0.120000
21
0.958000
31
0.0
0
LINE
8
MCD_Layer_0
10
0.120000
20
0.958000
30
0.0
11
0.078000
21
0.958000
31
0.0
0
LINE
8
MCD_Layer_0
10
0.057000
20
0.938000
30
0.0
11
0.057000
21
0.063000
31
0.0
0
LINE
8
MCD_Layer_0
10
0.078000
20
0.042000
30
0.0
11
0.120000
21
0.042000
31
0.0
0
LINE
8
MCD_Layer_0
10
0.120000
20
0.042000
30
0.0
11
0.120000
21
0.000000
31
0.0
0
LINE
8
MCD_Layer_0
10
0.120000
20
0.000000
30
0.0
11
-0.120000
21
0.000000
31
0.0
0
LINE
8
MCD_Layer_0
10
-0.333500
20
-0.010400
30
0.0
11
-0.333500
21
0.280600
31
0.0
0
LINE
8
MCD_Layer_0
10
-0.333500
20
0.280600
30
0.0
11
-0.271300
21
0.280600
31
0.0
0
LINE
8
MCD_Layer_0
10
0.135600
20
0.253700
30
0.0
11
0.135600
21
0.917100
31
0.0
0
LINE
8
MCD_Layer_0
10
0.114600
20
0.937100
30
0.0
11
0.051600
21
0.937100
31
0.0
0
LINE
8
MCD_Layer_0
10
0.051600
20
0.937100
30
0.0
11
0.051600
21
0.999600
31
0.0
0
LINE
8
MCD_Layer_0
10
0.051600
20
0.999600
30
0.0
11
0.333600
21
0.999600
31
0.0
0
LINE
8
MCD_Layer_0
10
0.333600
20
0.999600
30
0.0
11
0.333600
21
0.937100
31
0.0
0
LINE
8
MCD_Layer_0
10
0.333600
20
0.937100
30
0.0
11
0.270600
21
0.937100
31
0.0
0
LINE
8
MCD_Layer_0
10
0.249600
20
0.917100
30
0.0
11
0.249600
21
0.259600
31
0.0
0
LINE
8
MCD_Layer_0
10
-0.271300
20
-0.010400
30
0.0
11
-0.333500
21
-0.010400
31
0.0
0
LINE
8
MCD_Layer_0
10
-0.414000
20
0.938600
30
0.0
11
-0.414000
21
1.001100
31
0.0
0
LINE
8
MCD_Layer_0
10
-0.414000
20
1.001100
30
0.0
11
-0.132000
21
1.001100
31
0.0
0
LINE
8
MCD_Layer_0
10
-0.132000
20
1.001100
30
0.0
11
-0.132000
21
0.938600
31
0.0
0
LINE
8
MCD_Layer_0
10
-0.132000
20
0.938600
30
0.0
11
-0.195000
21
0.938600
31
0.0
0
LINE
8
MCD_Layer_0
10
-0.216000
20
0.918600
30
0.0
11
-0.216000
21
0.293100
31
0.0
0
LINE
8
MCD_Layer_0
10
0.269000
20
0.261100
30
0.0
11
0.269000
21
0.918600
31
0.0
0
LINE
8
MCD_Layer_0
10
0.248000
20
0.938600
30
0.0
11
0.185000
21
0.938600
31
0.0
0
LINE
8
MCD_Layer_0
10
0.185000
20
0.938600
30
0.0
11
0.185000
21
1.001100
31
0.0
0
LINE
8
MCD_Layer_0
10
0.185000
20
1.001100
30
0.0
11
0.414000
21
1.001100
31
0.0
0
LINE
8
MCD_Layer_0
10
0.414000
20
1.001100
30
0.0
11
0.414000
21
0.938600
31
0.0
0
LINE
8
MCD_Layer_0
10
0.414000
20
0.938600
30
0.0
11
0.352000
21
0.938600
31
0.0
0
LINE
8
MCD_Layer_0
10
0.331000
20
0.918600
30
0.0
11
0.331200
21
0.248500
31
0.0
0
LINE
8
MCD_Layer_0
10
-0.330000
20
0.272100
30
0.0
11
-0.330000
21
0.918600
31
0.0
0
LINE
8
MCD_Layer_0
10
-0.351000
20
0.938600
30
0.0
11
-0.414000
21
0.938600
31
0.0
0
LINE
8
MCD_Layer_0
10
-0.416500
20
0.000000
30
0.0
11
-0.416500
21
0.062500
31
0.0
0
LINE
8
MCD_Layer_0
10
-0.416500
20
0.062500
30
0.0
11
-0.353500
21
0.062500
31
0.0
0
LINE
8
MCD_Layer_0
10
-0.333500
20
0.083500
30
0.0
11
-0.333500
21
0.917500
31
0.0
0
LINE
8
MCD_Layer_0
10
-0.353500
20
0.937500
30
0.0
11
-0.416500
21
0.937500
31
0.0
0
LINE
8
MCD_Layer_0
10
-0.416500
20
0.937500
30
0.0
11
-0.416500
21
1.000000
31
0.0
0
LINE
8
MCD_Layer_0
10
-0.416500
20
1.000000
30
0.0
11
-0.270500
21
1.000000
31
0.0
0
LINE
8
MCD_Layer_0
10
-0.270500
20
1.000000
30
0.0
11
0.271500
21
0.260000
31
0.0
0
LINE
8
MCD_Layer_0
10
0.271500
20
0.260000
30
0.0
11
0.271500
21
0.917500
31
0.0
0
LINE
8
MCD_Layer_0
10
0.250500
20
0.937500
30
0.0
11
0.187500
21
0.937500
31
0.0
0
LINE
8
MCD_Layer_0
10
0.187500
20
0.937500
30
0.0
11
0.187500
21
1.000000
31
0.0
0
LINE
8
MCD_Layer_0
10
0.187500
20
1.000000
30
0.0
11
0.416500
21
1.000000
31
0.0
0
LINE
8
MCD_Layer_0
10
0.416500
20
1.000000
30
0.0
11
0.416500
21
0.937500
31
0.0
0
LINE
8
MCD_Layer_0
10
0.416500
20
0.937500
30
0.0
11
0.354500
21
0.937500
31
0.0
0
LINE
8
MCD_Layer_0
10
0.333500
20
0.917500
30
0.0
11
0.333500
21
-0.037000
31
0.0
0
LINE
8
MCD_Layer_0
10
0.333500
20
-0.037000
30
0.0
11
-0.270500
21
0.807000
31
0.0
0
LINE
8
MCD_Layer_0
10
-0.270500
20
0.807000
30
0.0
11
-0.270500
21
0.083500
31
0.0
0
LINE
8
MCD_Layer_0
10
-0.249500
20
0.062500
30
0.0
11
-0.187500
21
0.062500
31
0.0
0
LINE
8
MCD_Layer_0
10
-0.187500
20
0.062500
30
0.0
11
-0.187500
21
0.000000
31
0.0
0
LINE
8
MCD_Layer_0
10
-0.187500
20
0.000000
30
0.0
11
-0.416500
21
0.000000
31
0.0
0
LINE
8
MCD_Layer_0
10
-0.336000
20
0.000000
30
0.0
11
-0.336000
21
0.062500
31
0.0
0
LINE
8
MCD_Layer_0
10
-0.336000
20
0.062500
30
0.0
11
-0.273000
21
0.062500
31
0.0
0
LINE
8
MCD_Layer_0
10
-0.253000
20
0.083500
30
0.0
11
-0.253000
21
0.917500
31
0.0
0
LINE
8
MCD_Layer_0
10
-0.273000
20
0.937500
30
0.0
11
-0.336000
21
0.937500
31
0.0
0
LINE
8
MCD_Layer_0
10
-0.336000
20
0.937500
30
0.0
11
-0.336000
21
1.000000
31
0.0
0
LINE
8
MCD_Layer_0
10
-0.336000
20
1.000000
30
0.0
11
0.237000
21
1.000000
31
0.0
0
LINE
8
MCD_Layer_0
10
0.237000
20
1.000000
30
0.0
11
0.237000
21
0.813000
31
0.0
0
LINE
8
MCD_Layer_0
10
0.237000
20
0.813000
30
0.0
11
0.179000
21
0.813000
31
0.0
0
LINE
8
MCD_Layer_0
10
0.179000
20
0.813000
30
0.0
11
0.179000
21
0.896000
31
0.0
0
LINE
8
MCD_Layer_0
10
0.138000
20
0.938000
30
0.0
11
-0.138000
21
0.938000
31
0.0
0
LINE
8
MCD_Layer_0
10
-0.138000
20
0.938000
30
0.0
11
-0.138000
21
0.563000
31
0.0
0
LINE
8
MCD_Layer_0
10
-0.138000
20
0.563000
30
0.0
11
0.064300
21
0.563000
31
0.0
0
LINE
8
MCD_Layer_0
10
0.085300
20
0.583000
30
0.0
11
0.085300
21
0.635000
31
0.0
0
LINE
8
MCD_Layer_0
10
0.085300
20
0.635000
30
0.0
11
0.148000
21
0.635000
31
0.0
0
LINE
8
MCD_Layer_0
10
0.148000
20
0.635000
30
0.0
11
0.148000
21
0.429700
31
0.0
0
LINE
8
MCD_Layer_0
10
0.148000
20
0.429700
30
0.0
11
0.085300
21
0.429700
31
0.0
0
LINE
8
MCD_Layer_0
10
0.085300
20
0.429700
30
0.0
11
0.085300
21
0.481700
31
0.0
0
LINE
8
MCD_Layer_0
10
0.064300
20
0.501700
30
0.0
11
-0.138000
21
0.501700
31
0.0
0
LINE
8
MCD_Layer_0
10
-0.138000
20
0.501700
30
0.0
11
-0.138000
21
0.109000
31
0.0
0
LINE
8
MCD_Layer_0
10
0.251700
20
0.160100
30
0.0
11
0.279200
21
0.241100
31
0.0
0
LINE
8
MCD_Layer_0
10
0.279200
20
0.241100
30
0.0
11
0.336000
21
0.214000
31
0.0
0
LINE
8
MCD_Layer_0
10
0.336000
20
0.214000
30
0.0
11
0.263000
21
0.000000
31
0.0
0
LINE
8
MCD_Layer_0
10
0.263000
20
0.000000
30
0.0
11
-0.336000
21
0.000000
31
0.0
0
LINE
8
MCD_Layer_0
10
-0.218800
20
0.723100
30
0.0
11
-0.281300
21
0.723100
31
0.0
0
LINE
8
MCD_Layer_0
10
-0.281300
20
0.723100
30
0.0
11
-0.281300
21
1.042100
31
0.0
0
LINE
8
MCD_Layer_0
10
-0.281300
20
1.042100
30
0.0
11
-0.198000
21
1.042100
31
0.0
0
LINE
8
MCD_Layer_0
10
-0.218800
20
0.104200
30
0.0
11
0.094700
21
0.104200
31
0.0
0
LINE
8
MCD_Layer_0
10
0.213800
20
0.191200
30
0.0
11
0.239200
21
0.270700
31
0.0
0
LINE
8
MCD_Layer_0
10
0.239200
20
0.270700
30
0.0
11
0.294100
21
0.239600
31
0.0
0
LINE
8
MCD_Layer_0
10
0.294100
20
0.239600
30
0.0
11
0.218700
21
0.000000
31
0.0
0
LINE
8
MCD_Layer_0
10
0.218700
20
0.000000
30
0.0
11
-0.281300
21
0.000000
31
0.0
0
LINE
8
MCD_Layer_0
10
-0.114500
20
0.000000
30
0.0
11
-0.114500
21
0.052000
31
0.0
0
LINE
8
MCD_Layer_0
10
-0.114500
20
0.052000
30
0.0
11
-0.093500
21
0.052000
31
0.0
0
LINE
8
MCD_Layer_0
10
-0.051500
20
0.095000
30
0.0
11
-0.051500
21
0.829000
31
0.0
0
LINE
8
MCD_Layer_0
10
-0.093500
20
0.872000
30
0.0
11
-0.114500
21
0.872000
31
0.0
0
LINE
8
MCD_Layer_0
10
-0.114500
20
0.872000
30
0.0
11
-0.114500
21
0.936000
31
0.0
0
LINE
8
MCD_Layer_0
10
0.010500
20
1.063000
30
0.0
11
0.052500
21
1.063000
31
0.0
0
LINE
8
MCD_Layer_0
10
0.052500
20
1.063000
30
0.0
11
0.052500
21
0.095000
31
0.0
0
LINE
8
MCD_Layer_0
10
0.093500
20
0.052000
30
0.0
11
0.114500
21
0.052000
31
0.0
0
LINE
8
MCD_Layer_0
10
0.114500
20
0.052000
30
0.0
11
0.114500
21
0.000000
31
0.0
0
LINE
8
MCD_Layer_0
10
0.114500
20
0.000000
30
0.0
11
-0.114500
21
0.000000
31
0.0
0
LINE
8
MCD_Layer_0
10
-0.329600
20
-0.032164
30
0.0
11
-0.329600
21
0.031836
31
0.0
0
LINE
8
MCD_Layer_0
10
0.182400
20
0.701236
30
0.0
11
0.182900
21
0.747236
31
0.0
0
LINE
8
MCD_Layer_0
10
-0.234200
20
0.747236
30
0.0
11
-0.234200
21
0.674236
31
0.0
0
LINE
8
MCD_Layer_0
10
-0.326300
20
0.100100
30
0.0
11
-0.291300
21
0.150100
31
0.0
0
LINE
8
MCD_Layer_0
10
-0.043300
20
0.486100
30
0.0
11
-0.043300
21
0.444100
31
0.0
0
LINE
8
MCD_Layer_0
10
-0.043300
20
0.444100
30
0.0
11
-0.106300
21
0.444100
31
0.0
0
LINE
8
MCD_Layer_0
10
-0.106300
20
0.444100
30
0.0
11
-0.106300
21
0.678100
31
0.0
0
LINE
8
MCD_Layer_0
10
-0.106300
20
0.678100
30
0.0
11
-0.043300
21
0.678100
31
0.0
0
LINE
8
MCD_Layer_0
10
-0.043300
20
0.678100
30
0.0
11
-0.043300
21
0.635100
31
0.0
0
LINE
8
MCD_Layer_0
10
-0.168300
20
0.763100
30
0.0
11
-0.231300
21
0.763100
31
0.0
0
LINE
8
MCD_Layer_0
10
-0.231300
20
0.763100
30
0.0
11
-0.231300
21
1.039100
31
0.0
0
LINE
8
MCD_Layer_0
10
-0.231300
20
1.039100
30
0.0
11
-0.168300
21
1.039100
31
0.0
0
LINE
8
MCD_Layer_0
10
-0.344000
20
0.000000
30
0.0
11
-0.344000
21
0.042000
31
0.0
0
LINE
8
MCD_Layer_0
10
-0.344000
20
0.042000
30
0.0
11
-0.319000
21
0.042000
31
0.0
0
LINE
8
MCD_Layer_0
10
-0.279000
20
0.072000
30
0.0
11
-0.008000
21
1.029000
31
0.0
0
LINE
8
MCD_Layer_0
10
-0.008000
20
1.029000
30
0.0
11
0.282000
21
0.071000
31
0.0
0
LINE
8
MCD_Layer_0
10
0.322000
20
0.042000
30
0.0
11
0.344000
21
0.042000
31
0.0
0
LINE
8
MCD_Layer_0
10
0.344000
20
0.042000
30
0.0
11
0.344000
21
0.000000
31
0.0
0
LINE
8
MCD_Layer_0
10
0.344000
20
0.000000
30
0.0
11
0.114000
21
0.000000
31
0.0
0
LINE
8
MCD_Layer_0
10
0.114000
20
0.000000
30
0.0
11
0.114000
21
0.042000
31
0.0
0
LINE
8
MCD_Layer_0
10
0.114000
20
0.042000
30
0.0
11
0.154000
21
0.042000
31
0.0
0
LINE
8
MCD_Layer_0
10
0.174000
20
0.069000
30
0.0
11
0.112000
21
0.271000
31
0.0
0
LINE
8
MCD_Layer_0
10
0.112000
20
0.271000
30
0.0
11
-0.158000
21
0.271000
31
0.0
0
LINE
8
MCD_Layer_0
10
-0.158000
20
0.271000
30
0.0
11
-0.215000
21
0.068000
31
0.0
0
LINE
8
MCD_Layer_0
10
-0.195000
20
0.042000
30
0.0
11
-0.156000
21
0.042000
31
0.0
0
LINE
8
MCD_Layer_0
10
-0.156000
20
0.042000
30
0.0
11
-0.156000
21
0.000000
31
0.0
0
LINE
8
MCD_Layer_0
10
-0.156000
20
0.000000
30
0.0
11
-0.344000
21
0.000000
31
0.0
0
LINE
8
MCD_Layer_0
10
-0.140000
20
0.333000
30
0.0
11
0.094000
21
0.333000
31
0.0
0
LINE
8
MCD_Layer_0
10
0.094000
20
0.333000
30
0.0
11
-0.027000
21
0.732000
31
0.0
0
LINE
8
MCD_Layer_0
10
-0.027000
20
0.732000
30
0.0
11
-0.140000
21
0.333000
31
0.0
0
LINE
8
MCD_Layer_0
10
-0.292000
20
0.001983
30
0.0
11
-0.292000
21
0.043983
31
0.0
0
LINE
8
MCD_Layer_0
10
-0.292000
20
0.043983
30
0.0
11
-0.250000
21
0.043983
31
0.0
0
LINE
8
MCD_Layer_0
10
-0.229000
20
0.064983
30
0.0
11
-0.229000
21
0.939983
31
0.0
0
LINE
8
MCD_Layer_0
10
-0.250000
20
0.960983
30
0.0
11
-0.292000
21
0.960983
31
0.0
0
LINE
8
MCD_Layer_0
10
-0.292000
20
0.960983
30
0.0
11
-0.292000
21
1.001983
31
0.0
0
LINE
8
MCD_Layer_0
10
-0.292000
20
1.001983
30
0.0
11
-0.166000
21
1.001983
31
0.0
0
LINE
8
MCD_Layer_0
10
-0.166000
20
1.001983
30
0.0
11
0.167000
21
0.345983
31
0.0
0
LINE
8
MCD_Layer_0
10
0.167000
20
0.345983
30
0.0
11
0.167000
21
0.939983
31
0.0
0
LINE
8
MCD_Layer_0
10
0.146000
20
0.960983
30
0.0
11
0.104000
21
0.960983
31
0.0
0
LINE
8
MCD_Layer_0
10
0.104000
20
0.960983
30
0.0
11
0.104000
21
1.001983
31
0.0
0
LINE
8
MCD_Layer_0
10
0.104000
20
1.001983
30
0.0
11
0.292000
21
1.001983
31
0.0
0
LINE
8
MCD_Layer_0
10
0.292000
20
1.001983
30
0.0
11
0.292000
21
0.960983
31
0.0
0
LINE
8
MCD_Layer_0
10
0.292000
20
0.960983
30
0.0
11
0.250000
21
0.960983
31
0.0
0
LINE
8
MCD_Layer_0
10
0.229000
20
0.939983
30
0.0
11
0.229000
21
-0.008017
31
0.0
0
LINE
8
MCD_Layer_0
10
0.229000
20
-0.008017
30
0.0
11
-0.166000
21
0.771983
31
0.0
0
LINE
8
MCD_Layer_0
10
-0.166000
20
0.771983
30
0.0
11
-0.166000
21
0.064983
31
0.0
0
LINE
8
MCD_Layer_0
10
-0.146000
20
0.043983
30
0.0
11
-0.093000
21
0.043983
31
0.0
0
LINE
8
MCD_Layer_0
10
-0.093000
20
0.043983
30
0.0
11
-0.093000
21
0.001983
31
0.0
0
LINE
8
MCD_Layer_0
10
-0.093000
20
0.001983
30
0.0
11
-0.292000
21
0.001983
31
0.0
0
LINE
8
MCD_Layer_0
10
-0.295100
20
0.000000
30
0.0
11
-0.295100
21
0.042000
31
0.0
0
LINE
8
MCD_Layer_0
10
-0.295100
20
0.042000
30
0.0
11
-0.253100
21
0.042000
31
0.0
0
LINE
8
MCD_Layer_0
10
-0.232100
20
0.063000
30
0.0
11
-0.232100
21
0.938000
31
0.0
0
LINE
8
MCD_Layer_0
10
-0.253100
20
0.958000
30
0.0
11
-0.295100
21
0.958000
31
0.0
0
LINE
8
MCD_Layer_0
10
-0.295100
20
0.958000
30
0.0
11
-0.295100
21
1.000000
31
0.0
0
LINE
8
MCD_Layer_0
10
-0.295100
20
1.000000
30
0.0
11
-0.059700
21
0.999900
31
0.0
0
LINE
8
MCD_Layer_0
10
-0.027000
20
0.000000
30
0.0
11
-0.295100
21
0.000000
31
0.0
0
LINE
8
MCD_Layer_0
10
-0.128100
20
0.063000
30
0.0
11
-0.041100
21
0.063000
31
0.0
0
LINE
8
MCD_Layer_0
10
-0.045100
20
0.938000
30
0.0
11
-0.128100
21
0.938000
31
0.0
0
LINE
8
MCD_Layer_0
10
-0.128100
20
0.938000
30
0.0
11
-0.128100
21
0.063000
31
0.0
0
LINE
8
MCD_Layer_0
10
-0.239500
20
0.000000
30
0.0
11
-0.239500
21
0.042000
31
0.0
0
LINE
8
MCD_Layer_0
10
-0.239500
20
0.042000
30
0.0
11
-0.187500
21
0.042000
31
0.0
0
LINE
8
MCD_Layer_0
10
-0.166500
20
0.063000
30
0.0
11
-0.166500
21
0.938000
31
0.0
0
LINE
8
MCD_Layer_0
10
-0.187500
20
0.958000
30
0.0
11
-0.239500
21
0.958000
31
0.0
0
LINE
8
MCD_Layer_0
10
-0.239500
20
0.958000
30
0.0
11
-0.239500
21
1.000000
31
0.0
0
LINE
8
MCD_Layer_0
10
-0.239500
20
1.000000
30
0.0
11
0.198500
21
1.000000
31
0.0
0
LINE
8
MCD_Layer_0
10
0.198500
20
1.000000
30
0.0
11
0.198500
21
0.823000
31
0.0
0
LINE
8
MCD_Layer_0
10
0.198500
20
0.823000
30
0.0
11
0.156500
21
0.823000
31
0.0
0
LINE
8
MCD_Layer_0
10
0.156500
20
0.823000
30
0.0
11
0.156500
21
0.854000
31
0.0
0
LINE
8
MCD_Layer_0
10
0.073500
20
0.938000
30
0.0
11
-0.062500
21
0.938000
31
0.0
0
LINE
8
MCD_Layer_0
10
-0.062500
20
0.938000
30
0.0
11
-0.062500
21
0.615000
31
0.0
0
LINE
8
MCD_Layer_0
10
-0.062500
20
0.615000
30
0.0
11
0.083500
21
0.615000
31
0.0
0
LINE
8
MCD_Layer_0
10
0.104500
20
0.635000
30
0.0
11
0.104500
21
0.688000
31
0.0
0
LINE
8
MCD_Layer_0
10
0.104500
20
0.688000
30
0.0
11
0.135500
21
0.688000
31
0.0
0
LINE
8
MCD_Layer_0
10
0.135500
20
0.688000
30
0.0
11
0.135500
21
0.490000
31
0.0
0
LINE
8
MCD_Layer_0
10
0.135500
20
0.490000
30
0.0
11
0.104500
21
0.490000
31
0.0
0
LINE
8
MCD_Layer_0
10
0.104500
20
0.490000
30
0.0
11
0.104500
21
0.542000
31
0.0
0
LINE
8
MCD_Layer_0
10
0.083500
20
0.563000
30
0.0
11
-0.062500
21
0.563000
31
0.0
0
LINE
8
MCD_Layer_0
10
-0.062500
20
0.563000
30
0.0
11
-0.062500
21
0.063000
31
0.0
0
LINE
8
MCD_Layer_0
10
-0.062500
20
0.063000
30
0.0
11
0.114500
21
0.063000
31
0.0
0
LINE
8
MCD_Layer_0
10
0.198500
20
0.146000
30
0.0
11
0.198500
21
0.198000
31
0.0
0
LINE
8
MCD_Layer_0
10
0.198500
20
0.198000
30
0.0
11
0.239500
21
0.198000
31
0.0
0
LINE
8
MCD_Layer_0
10
0.239500
20
0.198000
30
0.0
11
0.239500
21
0.000000
31
0.0
0
LINE
8
MCD_Layer_0
10
0.239500
20
0.000000
30
0.0
11
-0.239500
21
0.000000
31
0.0
0
LINE
8
MCD_Layer_0
10
-0.313000
20
0.000000
30
0.0
11
-0.313000
21
0.042000
31
0.0
0
LINE
8
MCD_Layer_0
10
-0.313000
20
0.042000
30
0.0
11
-0.261000
21
0.042000
31
0.0
0
LINE
8
MCD_Layer_0
10
-0.240000
20
0.063000
30
0.0
11
-0.240000
21
0.938000
31
0.0
0
LINE
8
MCD_Layer_0
10
-0.261000
20
0.958000
30
0.0
11
-0.313000
21
0.958000
31
0.0
0
LINE
8
MCD_Layer_0
10
-0.313000
20
0.958000
30
0.0
11
-0.313000
21
1.000000
31
0.0
0
LINE
8
MCD_Layer_0
10
-0.313000
20
1.000000
30
0.0
11
-0.042000
21
1.000000
31
0.0
0
LINE
8
MCD_Layer_0
10
0.304000
20
0.020000
30
0.0
11
0.313000
21
-0.006000
31
0.0
0
LINE
8
MCD_Layer_0
10
-0.136000
20
0.464000
30
0.0
11
-0.136000
21
0.063000
31
0.0
0
LINE
8
MCD_Layer_0
10
-0.115000
20
0.042000
30
0.0
11
-0.063000
21
0.042000
31
0.0
0
LINE
8
MCD_Layer_0
10
-0.063000
20
0.042000
30
0.0
11
-0.063000
21
0.000000
31
0.0
0
LINE
8
MCD_Layer_0
10
-0.063000
20
0.000000
30
0.0
11
-0.313000
21
0.000000
31
0.0
0
LINE
8
MCD_Layer_0
10
-0.094000
20
0.938000
30
0.0
11
-0.136000
21
0.938000
31
0.0
0
LINE
8
MCD_Layer_0
10
-0.136000
20
0.938000
30
0.0
11
-0.136000
21
0.526000
31
0.0
0
LINE
8
MCD_Layer_0
10
-0.208600
20
-0.019000
30
0.0
11
-0.208600
21
0.252000
31
0.0
0
LINE
8
MCD_Layer_0
10
-0.208600
20
0.252000
30
0.0
11
-0.166600
21
0.252000
31
0.0
0
LINE
8
MCD_Layer_0
10
-0.166600
20
0.252000
30
0.0
11
-0.166600
21
0.190000
31
0.0
0
LINE
8
MCD_Layer_0
10
0.119400
20
0.998300
30
0.0
11
0.119400
21
1.023000
31
0.0
0
LINE
8
MCD_Layer_0
10
0.119400
20
1.023000
30
0.0
11
0.161400
21
1.023000
31
0.0
0
LINE
8
MCD_Layer_0
10
0.161400
20
1.023000
30
0.0
11
0.161400
21
0.773000
31
0.0
0
LINE
8
MCD_Layer_0
10
0.161400
20
0.773000
30
0.0
11
0.119400
21
0.773000
31
0.0
0
LINE
8
MCD_Layer_0
10
0.119400
20
0.773000
30
0.0
11
0.119400
21
0.815000
31
0.0
0
LINE
8
MCD_Layer_0
10
-0.166600
20
0.000000
30
0.0
11
-0.166600
21
-0.019000
31
0.0
0
LINE
8
MCD_Layer_0
10
-0.166600
20
-0.019000
30
0.0
11
-0.208600
21
-0.019000
31
0.0
0
LINE
8
MCD_Layer_0
10
-0.314789
20
0.000000
30
0.0
11
-0.314789
21
0.042000
31
0.0
0
LINE
8
MCD_Layer_0
10
-0.314789
20
0.042000
30
0.0
11
-0.262789
21
0.042000
31
0.0
0
LINE
8
MCD_Layer_0
10
-0.241789
20
0.063000
30
0.0
11
-0.241789
21
0.938000
31
0.0
0
LINE
8
MCD_Layer_0
10
-0.262789
20
0.958000
30
0.0
11
-0.314789
21
0.958000
31
0.0
0
LINE
8
MCD_Layer_0
10
-0.314789
20
0.958000
30
0.0
11
-0.314789
21
1.000000
31
0.0
0
LINE
8
MCD_Layer_0
10
-0.314789
20
1.000000
30
0.0
11
-0.064789
21
1.000000
31
0.0
0
LINE
8
MCD_Layer_0
10
-0.064789
20
1.000000
30
0.0
11
-0.064789
21
0.958000
31
0.0
0
LINE
8
MCD_Layer_0
10
-0.064789
20
0.958000
30
0.0
11
-0.106789
21
0.958000
31
0.0
0
LINE
8
MCD_Layer_0
10
-0.106789
20
0.958000
30
0.0
11
-0.116789
21
0.958000
31
0.0
0
LINE
8
MCD_Layer_0
10
-0.137789
20
0.938000
30
0.0
11
-0.137789
21
0.677000
31
0.0
0
LINE
8
MCD_Layer_0
10
-0.137789
20
0.677000
30
0.0
11
0.138211
21
0.677000
31
0.0
0
LINE
8
MCD_Layer_0
10
0.138211
20
0.677000
30
0.0
11
0.138211
21
0.938000
31
0.0
0
LINE
8
MCD_Layer_0
10
0.117211
20
0.958000
30
0.0
11
0.065211
21
0.958000
31
0.0
0
LINE
8
MCD_Layer_0
10
0.065211
20
0.958000
30
0.0
11
0.065211
21
1.000000
31
0.0
0
LINE
8
MCD_Layer_0
10
0.065211
20
1.000000
30
0.0
11
0.315211
21
1.000000
31
0.0
0
LINE
8
MCD_Layer_0
10
0.315211
20
1.000000
30
0.0
11
0.315211
21
0.958000
31
0.0
0
LINE
8
MCD_Layer_0
10
0.315211
20
0.958000
30
0.0
11
0.274211
21
0.958000
31
0.0
0
LINE
8
MCD_Layer_0
10
0.274211
20
0.958000
30
0.0
11
0.263211
21
0.958000
31
0.0
0
LINE
8
MCD_Layer_0
10
0.242211
20
0.938000
30
0.0
11
0.242211
21
0.063000
31
0.0
0
LINE
8
MCD_Layer_0
10
0.263211
20
0.042000
30
0.0
11
0.315211
21
0.042000
31
0.0
0
LINE
8
MCD_Layer_0
10
0.315211
20
0.042000
30
0.0
11
0.315211
21
0.000000
31
0.0
0
LINE
8
MCD_Layer_0
10
0.315211
20
0.000000
30
0.0
11
0.065211
21
0.000000
31
0.0
0
LINE
8
MCD_Layer_0
10
0.065211
20
0.000000
30
0.0
11
0.065211
21
0.042000
31
0.0
0
LINE
8
MCD_Layer_0
10
0.065211
20
0.042000
30
0.0
11
0.117211
21
0.042000
31
0.0
0
LINE
8
MCD_Layer_0
10
0.138211
20
0.063000
30
0.0
11
0.138211
21
0.625000
31
0.0
0
LINE
8
MCD_Layer_0
10
0.138211
20
0.625000
30
0.0
11
-0.137789
21
0.625000
31
0.0
0
LINE
8
MCD_Layer_0
10
-0.137789
20
0.625000
30
0.0
11
-0.137789
21
0.063000
31
0.0
0
LINE
8
MCD_Layer_0
10
-0.116789
20
0.042000
30
0.0
11
-0.064789
21
0.042000
31
0.0
0
LINE
8
MCD_Layer_0
10
-0.064789
20
0.042000
30
0.0
11
-0.064789
21
0.000000
31
0.0
0
LINE
8
MCD_Layer_0
10
-0.064789
20
0.000000
30
0.0
11
-0.314789
21
0.000000
31
0.0
0
LINE
8
MCD_Layer_0
10
-0.125000
20
0.000000
30
0.0
11
-0.125000
21
0.042000
31
0.0
0
LINE
8
MCD_Layer_0
10
-0.125000
20
0.042000
30
0.0
11
-0.073000
21
0.042000
31
0.0
0
LINE
8
MCD_Layer_0
10
-0.052000
20
0.063000
30
0.0
11
-0.052000
21
0.938000
31
0.0
0
LINE
8
MCD_Layer_0
10
-0.073000
20
0.958000
30
0.0
11
-0.125000
21
0.958000
31
0.0
0
LINE
8
MCD_Layer_0
10
-0.125000
20
0.958000
30
0.0
11
-0.125000
21
1.000000
31
0.0
0
LINE
8
MCD_Layer_0
10
-0.125000
20
1.000000
30
0.0
11
0.125000
21
1.000000
31
0.0
0
LINE
8
MCD_Layer_0
10
0.125000
20
1.000000
30
0.0
11
0.125000
21
0.958000
31
0.0
0
LINE
8
MCD_Layer_0
10
0.125000
20
0.958000
30
0.0
11
0.073000
21
0.958000
31
0.0
0
LINE
8
MCD_Layer_0
10
0.052000
20
0.938000
30
0.0
11
0.052000
21
0.063000
31
0.0
0
LINE
8
MCD_Layer_0
10
0.073000
20
0.042000
30
0.0
11
0.125000
21
0.042000
31
0.0
0
LINE
8
MCD_Layer_0
10
0.125000
20
0.042000
30
0.0
11
0.125000
21
0.000000
31
0.0
0
LINE
8
MCD_Layer_0
10
0.125000
20
0.000000
30
0.0
11
-0.125000
21
0.000000
31
0.0
0
LINE
8
MCD_Layer_0
10
-0.247350
20
0.000000
30
0.0
11
-0.247350
21
0.040200
31
0.0
0
LINE
8
MCD_Layer_0
10
-0.247350
20
0.040200
30
0.0
11
-0.195350
21
0.040200
31
0.0
0
LINE
8
MCD_Layer_0
10
-0.174350
20
0.061200
30
0.0
11
-0.174350
21
0.936200
31
0.0
0
LINE
8
MCD_Layer_0
10
-0.195350
20
0.957200
30
0.0
11
-0.247350
21
0.957200
31
0.0
0
LINE
8
MCD_Layer_0
10
-0.247350
20
0.957200
30
0.0
11
-0.247350
21
0.998200
31
0.0
0
LINE
8
MCD_Layer_0
10
-0.247350
20
0.998200
30
0.0
11
0.002650
21
0.998200
31
0.0
0
LINE
8
MCD_Layer_0
10
0.002650
20
0.998200
30
0.0
11
0.002650
21
0.957200
31
0.0
0
LINE
8
MCD_Layer_0
10
0.002650
20
0.957200
30
0.0
11
-0.049350
21
0.957200
31
0.0
0
LINE
8
MCD_Layer_0
10
-0.070350
20
0.936200
30
0.0
11
-0.070350
21
0.061200
31
0.0
0
LINE
8
MCD_Layer_0
10
-0.070350
20
0.061200
30
0.0
11
0.117650
21
0.061200
31
0.0
0
LINE
8
MCD_Layer_0
10
0.200650
20
0.144200
30
0.0
11
0.200650
21
0.219000
31
0.0
0
LINE
8
MCD_Layer_0
10
0.200650
20
0.219000
30
0.0
11
0.247350
21
0.219000
31
0.0
0
LINE
8
MCD_Layer_0
10
0.247350
20
0.219000
30
0.0
11
0.247350
21
0.000000
31
0.0
0
LINE
8
MCD_Layer_0
10
0.247350
20
0.000000
30
0.0
11
-0.247350
21
0.000000
31
0.0
0
LINE
8
MCD_Layer_0
10
-0.380450
20
0.000000
30
0.0
11
-0.380450
21
0.062300
31
0.0
0
LINE
8
MCD_Layer_0
10
-0.380450
20
0.062300
30
0.0
11
-0.339450
21
0.062300
31
0.0
0
LINE
8
MCD_Layer_0
10
-0.318450
20
0.082300
30
0.0
11
-0.285450
21
0.894100
31
0.0
0
LINE
8
MCD_Layer_0
10
-0.327450
20
0.937100
30
0.0
11
-0.370450
21
0.937100
31
0.0
0
LINE
8
MCD_Layer_0
10
-0.370450
20
0.937100
30
0.0
11
-0.370450
21
1.001900
31
0.0
0
LINE
8
MCD_Layer_0
10
-0.370450
20
1.001900
30
0.0
11
-0.224450
21
1.001900
31
0.0
0
LINE
8
MCD_Layer_0
10
-0.224450
20
1.001900
30
0.0
11
-0.003450
21
0.261900
31
0.0
0
LINE
8
MCD_Layer_0
10
-0.003450
20
0.261900
30
0.0
11
0.202550
21
1.001900
31
0.0
0
LINE
8
MCD_Layer_0
10
0.202550
20
1.001900
30
0.0
11
0.348550
21
1.001900
31
0.0
0
LINE
8
MCD_Layer_0
10
0.348550
20
1.001900
30
0.0
11
0.348550
21
0.937100
31
0.0
0
LINE
8
MCD_Layer_0
10
0.348550
20
0.937100
30
0.0
11
0.317550
21
0.937100
31
0.0
0
LINE
8
MCD_Layer_0
10
0.275550
20
0.894100
30
0.0
11
0.317550
21
0.082300
31
0.0
0
LINE
8
MCD_Layer_0
10
0.338550
20
0.062300
30
0.0
11
0.380450
21
0.062300
31
0.0
0
LINE
8
MCD_Layer_0
10
0.380450
20
0.062300
30
0.0
11
0.380450
21
0.000000
31
0.0
0
LINE
8
MCD_Layer_0
10
0.380450
20
0.000000
30
0.0
11
0.151350
21
0.000000
31
0.0
0
LINE
8
MCD_Layer_0
10
0.151350
20
0.000000
30
0.0
11
0.151350
21
0.062300
31
0.0
0
LINE
8
MCD_Layer_0
10
0.151350
20
0.062300
30
0.0
11
0.192550
21
0.062300
31
0.0
0
LINE
8
MCD_Layer_0
10
0.213550
20
0.083300
30
0.0
11
0.179550
21
0.685900
31
0.0
0
LINE
8
MCD_Layer_0
10
0.179550
20
0.685900
30
0.0
11
-0.021450
21
-0.038100
31
0.0
0
LINE
8
MCD_Layer_0
10
-0.021450
20
-0.038100
30
0.0
11
-0.232450
21
0.666900
31
0.0
0
LINE
8
MCD_Layer_0
10
-0.232450
20
0.666900
30
0.0
11
-0.255450
21
0.083300
31
0.0
0
LINE
8
MCD_Layer_0
10
-0.234450
20
0.062300
30
0.0
11
-0.192450
21
0.062300
31
0.0
0
LINE
8
MCD_Layer_0
10
-0.192450
20
0.062300
30
0.0
11
-0.192450
21
0.000000
31
0.0
0
LINE
8
MCD_Layer_0
10
-0.192450
20
0.000000
30
0.0
11
-0.380450
21
0.000000
31
0.0
0
LINE
8
MCD_Layer_0
10
-0.273000
20
1.000000
30
0.0
11
0.273000
21
1.000000
31
0.0
0
LINE
8
MCD_Layer_0
10
0.273000
20
1.000000
30
0.0
11
0.273000
21
0.802000
31
0.0
0
LINE
8
MCD_Layer_0
10
0.273000
20
0.802000
30
0.0
11
0.210700
21
0.802000
31
0.0
0
LINE
8
MCD_Layer_0
10
0.210700
20
0.802000
30
0.0
11
0.210700
21
0.875000
31
0.0
0
LINE
8
MCD_Layer_0
10
0.147700
20
0.938000
30
0.0
11
0.054400
21
0.938000
31
0.0
0
LINE
8
MCD_Layer_0
10
0.054400
20
0.938000
30
0.0
11
0.054400
21
0.081500
31
0.0
0
LINE
8
MCD_Layer_0
10
0.075400
20
0.060500
30
0.0
11
0.117100
21
0.060500
31
0.0
0
LINE
8
MCD_Layer_0
10
0.117100
20
0.060500
30
0.0
11
0.117100
21
0.000000
31
0.0
0
LINE
8
MCD_Layer_0
10
0.117100
20
0.000000
30
0.0
11
-0.117400
21
0.000000
31
0.0
0
LINE
8
MCD_Layer_0
10
-0.117400
20
0.000000
30
0.0
11
-0.117400
21
0.060500
31
0.0
0
LINE
8
MCD_Layer_0
10
-0.117400
20
0.060500
30
0.0
11
-0.075700
21
0.060500
31
0.0
0
LINE
8
MCD_Layer_0
10
-0.054700
20
0.081500
30
0.0
11
-0.054700
21
0.938000
31
0.0
0
LINE
8
MCD_Layer_0
10
-0.054700
20
0.938000
30
0.0
11
-0.148500
21
0.938000
31
0.0
0
LINE
8
MCD_Layer_0
10
-0.211500
20
0.875000
30
0.0
11
-0.211500
21
0.802000
31
0.0
0
LINE
8
MCD_Layer_0
10
-0.211500
20
0.802000
30
0.0
11
-0.273000
21
0.802000
31
0.0
0
LINE
8
MCD_Layer_0
10
-0.273000
20
0.802000
30
0.0
11
-0.273000
21
1.000000
31
0.0
0
LINE
8
MCD_Layer_0
10
-0.304750
20
0.000000
30
0.0
11
-0.304750
21
0.062500
31
0.0
0
LINE
8
MCD_Layer_0
10
-0.304750
20
0.062500
30
0.0
11
-0.263050
21
0.062500
31
0.0
0
LINE
8
MCD_Layer_0
10
-0.242050
20
0.083500
30
0.0
11
-0.242050
21
0.917300
31
0.0
0
LINE
8
MCD_Layer_0
10
-0.263050
20
0.937300
30
0.0
11
-0.304750
21
0.937300
31
0.0
0
LINE
8
MCD_Layer_0
10
-0.304750
20
0.937300
30
0.0
11
-0.304750
21
1.000000
31
0.0
0
LINE
8
MCD_Layer_0
10
-0.304750
20
1.000000
30
0.0
11
-0.070750
21
1.000000
31
0.0
0
LINE
8
MCD_Layer_0
10
-0.070750
20
1.000000
30
0.0
11
-0.070750
21
0.937300
31
0.0
0
LINE
8
MCD_Layer_0
10
-0.070750
20
0.937300
30
0.0
11
-0.111950
21
0.937300
31
0.0
0
LINE
8
MCD_Layer_0
10
-0.132950
20
0.917300
30
0.0
11
-0.132950
21
0.687500
31
0.0
0
LINE
8
MCD_Layer_0
10
-0.132950
20
0.687500
30
0.0
11
0.132950
21
0.687500
31
0.0
0
LINE
8
MCD_Layer_0
10
0.132950
20
0.687500
30
0.0
11
0.132950
21
0.917300
31
0.0
0
LINE
8
MCD_Layer_0
10
0.111950
20
0.937300
30
0.0
11
0.069950
21
0.937300
31
0.0
0
LINE
8
MCD_Layer_0
10
0.069950
20
0.937300
30
0.0
11
0.069950
21
1.000000
31
0.0
0
LINE
8
MCD_Layer_0
10
0.069950
20
1.000000
30
0.0
11
0.304250
21
1.000000
31
0.0
0
LINE
8
MCD_Layer_0
10
0.304250
20
1.000000
30
0.0
11
0.304250
21
0.937300
31
0.0
0
LINE
8
MCD_Layer_0
10
0.304250
20
0.937300
30
0.0
11
0.263050
21
0.937300
31
0.0
0
LINE
8
MCD_Layer_0
10
0.242050
20
0.917300
30
0.0
11
0.242050
21
0.083500
31
0.0
0
LINE
8
MCD_Layer_0
10
0.263050
20
0.062500
30
0.0
11
0.304750
21
0.062500
31
0.0
0
LINE
8
MCD_Layer_0
10
0.304750
20
0.062500
30
0.0
11
0.304750
21
0.000000
31
0.0
0
LINE
8
MCD_Layer_0
10
0.304750
20
0.000000
30
0.0
11
0.070250
21
0.000000
31
0.0
0
LINE
8
MCD_Layer_0
10
0.070250
20
0.000000
30
0.0
11
0.070250
21
0.062500
31
0.0
0
LINE
8
MCD_Layer_0
10
0.070250
20
0.062500
30
0.0
11
0.111950
21
0.062500
31
0.0
0
LINE
8
MCD_Layer_0
10
0.132950
20
0.083500
30
0.0
11
0.132950
21
0.625000
31
0.0
0
LINE
8
MCD_Layer_0
10
0.132950
20
0.625000
30
0.0
11
-0.132950
21
0.625000
31
0.0
0
LINE
8
MCD_Layer_0
10
-0.132950
20
0.625000
30
0.0
11
-0.132950
21
0.083500
31
0.0
0
LINE
8
MCD_Layer_0
10
-0.111950
20
0.062500
30
0.0
11
-0.070250
21
0.062500
31
0.0
0
LINE
8
MCD_Layer_0
10
-0.070250
20
0.062500
30
0.0
11
-0.070250
21
0.000000
31
0.0
0
LINE
8
MCD_Layer_0
10
-0.070250
20
0.000000
30
0.0
11
-0.304750
21
0.000000
31
0.0
0
LINE
8
MCD_Layer_0
10
0.198500
20
0.823000
30
0.0
11
0.151400
21
0.823000
31
0.0
0
LINE
8
MCD_Layer_0
10
0.151400
20
0.823000
30
0.0
11
0.151400
21
0.854000
31
0.0
0
LINE
8
MCD_Layer_0
10
0.068400
20
0.938000
30
0.0
11
-0.062500
21
0.938000
31
0.0
0
LINE
8
MCD_Layer_0
10
-0.062500
20
0.938000
30
0.0
11
-0.062500
21
0.623300
31
0.0
0
LINE
8
MCD_Layer_0
10
-0.062500
20
0.623300
30
0.0
11
0.062600
21
0.623300
31
0.0
0
LINE
8
MCD_Layer_0
10
0.083600
20
0.643300
30
0.0
11
0.083600
21
0.696300
31
0.0
0
LINE
8
MCD_Layer_0
10
0.083600
20
0.696300
30
0.0
11
0.146100
21
0.696300
31
0.0
0
LINE
8
MCD_Layer_0
10
0.146100
20
0.696300
30
0.0
11
0.146100
21
0.490000
31
0.0
0
LINE
8
MCD_Layer_0
10
0.146100
20
0.490000
30
0.0
11
0.083600
21
0.490000
31
0.0
0
LINE
8
MCD_Layer_0
10
0.083600
20
0.490000
30
0.0
11
0.083600
21
0.542000
31
0.0
0
LINE
8
MCD_Layer_0
10
0.062600
20
0.563000
30
0.0
11
-0.062500
21
0.563000
31
0.0
0
LINE
8
MCD_Layer_0
10
-0.062500
20
0.063000
30
0.0
11
0.092100
21
0.063000
31
0.0
0
LINE
8
MCD_Layer_0
10
0.176100
20
0.146000
30
0.0
11
0.176100
21
0.198000
31
0.0
0
LINE
8
MCD_Layer_0
10
0.176100
20
0.198000
30
0.0
11
0.239500
21
0.198000
31
0.0
0
LINE
8
MCD_Layer_0
10
-0.239500
20
0.000000
30
0.0
11
-0.239500
21
0.062500
31
0.0
0
LINE
8
MCD_Layer_0
10
-0.239500
20
0.062500
30
0.0
11
-0.187500
21
0.062500
31
0.0
0
LINE
8
MCD_Layer_0
10
-0.166500
20
0.083500
30
0.0
11
-0.166500
21
0.918000
31
0.0
0
LINE
8
MCD_Layer_0
10
-0.187500
20
0.938000
30
0.0
11
-0.239500
21
0.938000
31
0.0
0
LINE
8
MCD_Layer_0
10
-0.239500
20
0.938000
30
0.0
11
-0.239500
21
1.000000
31
0.0
0
LINE
8
MCD_Layer_0
10
-0.307500
20
0.000000
30
0.0
11
-0.307500
21
0.062500
31
0.0
0
LINE
8
MCD_Layer_0
10
-0.307500
20
0.062500
30
0.0
11
-0.265800
21
0.062500
31
0.0
0
LINE
8
MCD_Layer_0
10
-0.244800
20
0.083500
30
0.0
11
-0.244800
21
0.917300
31
0.0
0
LINE
8
MCD_Layer_0
10
-0.265800
20
0.937300
30
0.0
11
-0.307500
21
0.937300
31
0.0
0
LINE
8
MCD_Layer_0
10
-0.307500
20
0.937300
30
0.0
11
-0.307500
21
1.000000
31
0.0
0
LINE
8
MCD_Layer_0
10
-0.307500
20
1.000000
30
0.0
11
-0.063500
21
0.999800
31
0.0
0
LINE
8
MCD_Layer_0
10
0.279900
20
0.050600
30
0.0
11
0.307500
21
-0.006000
31
0.0
0
LINE
8
MCD_Layer_0
10
-0.135700
20
0.461600
30
0.0
11
-0.135700
21
0.083500
31
0.0
0
LINE
8
MCD_Layer_0
10
-0.114700
20
0.062500
30
0.0
11
-0.073000
21
0.062500
31
0.0
0
LINE
8
MCD_Layer_0
10
-0.073000
20
0.062500
30
0.0
11
-0.073000
21
0.000000
31
0.0
0
LINE
8
MCD_Layer_0
10
-0.073000
20
0.000000
30
0.0
11
-0.307500
21
0.000000
31
0.0
0
LINE
8
MCD_Layer_0
10
-0.135700
20
0.523100
30
0.0
11
-0.135700
21
0.917300
31
0.0
0
LINE
8
MCD_Layer_0
10
-0.224150
20
1.000000
30
0.0
11
0.213850
21
1.000000
31
0.0
0
LINE
8
MCD_Layer_0
10
0.213850
20
1.000000
30
0.0
11
0.213850
21
0.823000
31
0.0
0
LINE
8
MCD_Layer_0
10
0.213850
20
0.823000
30
0.0
11
0.149950
21
0.823000
31
0.0
0
LINE
8
MCD_Layer_0
10
0.149950
20
0.823000
30
0.0
11
0.149950
21
0.854000
31
0.0
0
LINE
8
MCD_Layer_0
10
0.066950
20
0.938000
30
0.0
11
-0.040250
21
0.938000
31
0.0
0
LINE
8
MCD_Layer_0
10
-0.040250
20
0.938000
30
0.0
11
-0.040250
21
0.623300
31
0.0
0
LINE
8
MCD_Layer_0
10
-0.040250
20
0.623300
30
0.0
11
0.079650
21
0.623300
31
0.0
0
LINE
8
MCD_Layer_0
10
0.100650
20
0.643300
30
0.0
11
0.100650
21
0.696300
31
0.0
0
LINE
8
MCD_Layer_0
10
0.100650
20
0.696300
30
0.0
11
0.161350
21
0.696300
31
0.0
0
LINE
8
MCD_Layer_0
10
0.161350
20
0.696300
30
0.0
11
0.161350
21
0.490000
31
0.0
0
LINE
8
MCD_Layer_0
10
0.161350
20
0.490000
30
0.0
11
0.100650
21
0.490000
31
0.0
0
LINE
8
MCD_Layer_0
10
0.100650
20
0.490000
30
0.0
11
0.100650
21
0.542000
31
0.0
0
LINE
8
MCD_Layer_0
10
0.079650
20
0.563000
30
0.0
11
-0.040250
21
0.563000
31
0.0
0
LINE
8
MCD_Layer_0
10
-0.040250
20
0.563000
30
0.0
11
-0.040250
21
0.082900
31
0.0
0
LINE
8
MCD_Layer_0
10
-0.019350
20
0.062500
30
0.0
11
0.020650
21
0.062500
31
0.0
0
LINE
8
MCD_Layer_0
10
0.020650
20
0.062500
30
0.0
11
0.020650
21
0.000000
31
0.0
0
LINE
8
MCD_Layer_0
10
0.020650
20
0.000000
30
0.0
11
-0.213850
21
0.000000
31
0.0
0
LINE
8
MCD_Layer_0
10
-0.213850
20
0.000000
30
0.0
11
-0.213850
21
0.062500
31
0.0
0
LINE
8
MCD_Layer_0
10
-0.213850
20
0.062500
30
0.0
11
-0.172150
21
0.062500
31
0.0
0
LINE
8
MCD_Layer_0
10
-0.151150
20
0.083500
30
0.0
11
-0.151150
21
0.918000
31
0.0
0
LINE
8
MCD_Layer_0
10
-0.172150
20
0.938000
30
0.0
11
-0.224150
21
0.938000
31
0.0
0
LINE
8
MCD_Layer_0
10
-0.224150
20
0.938000
30
0.0
11
-0.224150
21
1.000000
31
0.0
0
LINE
8
MCD_Layer_0
10
-0.268656
20
1.000000
30
0.0
11
0.012344
21
1.000000
31
0.0
0
LINE
8
MCD_Layer_0
10
-0.003056
20
0.000000
30
0.0
11
-0.268656
21
0.000000
31
0.0
0
LINE
8
MCD_Layer_0
10
-0.268656
20
0.000000
30
0.0
11
-0.268656
21
0.062500
31
0.0
0
LINE
8
MCD_Layer_0
10
-0.268656
20
0.062500
30
0.0
11
-0.247656
21
0.062500
31
0.0
0
LINE
8
MCD_Layer_0
10
-0.206356
20
0.103500
30
0.0
11
-0.206356
21
0.896500
31
0.0
0
LINE
8
MCD_Layer_0
10
-0.247656
20
0.937500
30
0.0
11
-0.268656
21
0.937500
31
0.0
0
LINE
8
MCD_Layer_0
10
-0.268656
20
0.937500
30
0.0
11
-0.268656
21
1.000000
31
0.0
0
LINE
8
MCD_Layer_0
10
-0.098056
20
0.937300
30
0.0
11
-0.098056
21
0.677000
31
0.0
0
LINE
8
MCD_Layer_0
10
-0.098056
20
0.677000
30
0.0
11
-0.047556
21
0.677000
31
0.0
0
LINE
8
MCD_Layer_0
10
-0.049256
20
0.937300
30
0.0
11
-0.098056
21
0.937300
31
0.0
0
LINE
8
MCD_Layer_0
10
-0.098056
20
0.615200
30
0.0
11
-0.098056
21
0.063000
31
0.0
0
LINE
8
MCD_Layer_0
10
-0.098056
20
0.063000
30
0.0
11
-0.034156
21
0.063100
31
0.0
0
LINE
8
MCD_Layer_0
10
-0.117250
20
0.000000
30
0.0
11
-0.117250
21
0.062500
31
0.0
0
LINE
8
MCD_Layer_0
10
-0.117250
20
0.062500
30
0.0
11
-0.075550
21
0.062500
31
0.0
0
LINE
8
MCD_Layer_0
10
-0.054550
20
0.083500
30
0.0
11
-0.054550
21
0.917300
31
0.0
0
LINE
8
MCD_Layer_0
10
-0.075550
20
0.937300
30
0.0
11
-0.117250
21
0.937300
31
0.0
0
LINE
8
MCD_Layer_0
10
-0.117250
20
0.937300
30
0.0
11
-0.117250
21
1.000000
31
0.0
0
LINE
8
MCD_Layer_0
10
-0.117250
20
1.000000
30
0.0
11
0.116750
21
1.000000
31
0.0
0
LINE
8
MCD_Layer_0
10
0.116750
20
1.000000
30
0.0
11
0.116750
21
0.937300
31
0.0
0
LINE
8
MCD_Layer_0
10
0.116750
20
0.937300
30
0.0
11
0.075550
21
0.937300
31
0.0
0
LINE
8
MCD_Layer_0
10
0.054550
20
0.917300
30
0.0
11
0.054550
21
0.083500
31
0.0
0
LINE
8
MCD_Layer_0
10
0.075550
20
0.062500
30
0.0
11
0.117250
21
0.062500
31
0.0
0
LINE
8
MCD_Layer_0
10
0.117250
20
0.062500
30
0.0
11
0.117250
21
0.000000
31
0.0
0
LINE
8
MCD_Layer_0
10
0.117250
20
0.000000
30
0.0
11
-0.117250
21
0.000000
31
0.0
0
LINE
8
MCD_Layer_0
10
-0.245000
20
0.000000
30
0.0
11
-0.245000
21
0.062500
31
0.0
0
LINE
8
MCD_Layer_0
10
-0.245000
20
0.062500
30
0.0
11
-0.203300
21
0.062500
31
0.0
0
LINE
8
MCD_Layer_0
10
-0.182300
20
0.083500
30
0.0
11
-0.182300
21
0.917300
31
0.0
0
LINE
8
MCD_Layer_0
10
-0.203300
20
0.937300
30
0.0
11
-0.245000
21
0.937300
31
0.0
0
LINE
8
MCD_Layer_0
10
-0.245000
20
0.937300
30
0.0
11
-0.245000
21
1.000000
31
0.0
0
LINE
8
MCD_Layer_0
10
-0.245000
20
1.000000
30
0.0
11
-0.011000
21
1.000000
31
0.0
0
LINE
8
MCD_Layer_0
10
-0.011000
20
1.000000
30
0.0
11
-0.011000
21
0.937300
31
0.0
0
LINE
8
MCD_Layer_0
10
-0.011000
20
0.937300
30
0.0
11
-0.052200
21
0.937300
31
0.0
0
LINE
8
MCD_Layer_0
10
-0.073200
20
0.917300
30
0.0
11
-0.073200
21
0.083500
31
0.0
0
LINE
8
MCD_Layer_0
10
-0.052200
20
0.062500
30
0.0
11
0.098800
21
0.062500
31
0.0
0
LINE
8
MCD_Layer_0
10
0.182500
20
0.148100
30
0.0
11
0.182500
21
0.221100
31
0.0
0
LINE
8
MCD_Layer_0
10
0.182500
20
0.221100
30
0.0
11
0.245000
21
0.221100
31
0.0
0
LINE
8
MCD_Layer_0
10
0.245000
20
0.221100
30
0.0
11
0.245000
21
0.000000
31
0.0
0
LINE
8
MCD_Layer_0
10
0.245000
20
0.000000
30
0.0
11
-0.245000
21
0.000000
31
0.0
0
LINE
8
MCD_Layer_0
10
-0.052200
20
0.062500
30
0.0
11
-0.010500
21
0.062500
31
0.0
0
LINE
8
MCD_Layer_0
10
-0.344000
20
0.999750
30
0.0
11
-0.104000
21
0.999750
31
0.0
0
LINE
8
MCD_Layer_0
10
-0.104000
20
0.999750
30
0.0
11
-0.104000
21
0.937550
31
0.0
0
LINE
8
MCD_Layer_0
10
-0.104000
20
0.937550
30
0.0
11
-0.144000
21
0.937550
31
0.0
0
LINE
8
MCD_Layer_0
10
-0.163000
20
0.908550
30
0.0
11
0.032000
21
0.504750
31
0.0
0
LINE
8
MCD_Layer_0
10
0.032000
20
0.504750
30
0.0
11
0.214000
21
0.908550
31
0.0
0
LINE
8
MCD_Layer_0
10
0.195000
20
0.937550
30
0.0
11
0.151000
21
0.937550
31
0.0
0
LINE
8
MCD_Layer_0
10
0.151000
20
0.937550
30
0.0
11
0.151000
21
0.999750
31
0.0
0
LINE
8
MCD_Layer_0
10
0.151000
20
0.998900
30
0.0
11
0.344000
21
0.998900
31
0.0
0
LINE
8
MCD_Layer_0
10
0.344000
20
0.998900
30
0.0
11
0.344000
21
0.936700
31
0.0
0
LINE
8
MCD_Layer_0
10
0.344000
20
0.936700
30
0.0
11
0.308000
21
0.936700
31
0.0
0
LINE
8
MCD_Layer_0
10
0.289000
20
0.924700
30
0.0
11
0.063000
21
0.415900
31
0.0
0
LINE
8
MCD_Layer_0
10
0.063000
20
0.416750
30
0.0
11
0.063000
21
0.083050
31
0.0
0
LINE
8
MCD_Layer_0
10
0.083000
20
0.063050
30
0.0
11
0.136000
21
0.063050
31
0.0
0
LINE
8
MCD_Layer_0
10
0.136000
20
0.063050
30
0.0
11
0.136000
21
-0.000250
31
0.0
0
LINE
8
MCD_Layer_0
10
0.136000
20
-0.000250
30
0.0
11
-0.114000
21
-0.000250
31
0.0
0
LINE
8
MCD_Layer_0
10
-0.114000
20
-0.000250
30
0.0
11
-0.114000
21
0.063050
31
0.0
0
LINE
8
MCD_Layer_0
10
-0.114000
20
0.063050
30
0.0
11
-0.062000
21
0.063050
31
0.0
0
LINE
8
MCD_Layer_0
10
-0.042000
20
0.083050
30
0.0
11
-0.042000
21
0.416750
31
0.0
0
LINE
8
MCD_Layer_0
10
-0.042000
20
0.416750
30
0.0
11
-0.286000
21
0.925550
31
0.0
0
LINE
8
MCD_Layer_0
10
-0.305000
20
0.937550
30
0.0
11
-0.344000
21
0.937550
31
0.0
0
LINE
8
MCD_Layer_0
10
-0.344000
20
0.937550
30
0.0
11
-0.344000
21
0.999750
31
0.0
0
LINE
8
MCD_Layer_0
10
-0.232000
20
-0.024500
30
0.0
11
-0.232000
21
0.215500
31
0.0
0
LINE
8
MCD_Layer_0
10
-0.232000
20
0.215500
30
0.0
11
-0.169100
21
0.215500
31
0.0
0
LINE
8
MCD_Layer_0
10
-0.169100
20
0.215500
30
0.0
11
-0.169100
21
0.152500
31
0.0
0
LINE
8
MCD_Layer_0
10
0.060700
20
0.142700
30
0.0
11
0.060700
21
0.915800
31
0.0
0
LINE
8
MCD_Layer_0
10
0.039700
20
0.935800
30
0.0
11
-0.002300
21
0.935800
31
0.0
0
LINE
8
MCD_Layer_0
10
-0.002300
20
0.935800
30
0.0
11
-0.002300
21
0.998600
31
0.0
0
LINE
8
MCD_Layer_0
10
-0.002300
20
0.998600
30
0.0
11
0.232000
21
0.998600
31
0.0
0
LINE
8
MCD_Layer_0
10
0.232000
20
0.998600
30
0.0
11
0.232000
21
0.935800
31
0.0
0
LINE
8
MCD_Layer_0
10
0.232000
20
0.935800
30
0.0
11
0.190800
21
0.935800
31
0.0
0
LINE
8
MCD_Layer_0
10
0.169800
20
0.915800
30
0.0
11
0.169800
21
0.152800
31
0.0
0
LINE
8
MCD_Layer_0
10
-0.169100
20
-0.011500
30
0.0
11
-0.169100
21
-0.024500
31
0.0
0
LINE
8
MCD_Layer_0
10
-0.169100
20
-0.024500
30
0.0
11
-0.232000
21
-0.024500
31
0.0
0
LINE
8
MCD_Layer_0
10
0.260062
20
0.998500
30
0.0
11
0.260062
21
0.748500
31
0.0
0
LINE
8
MCD_Layer_0
10
0.260062
20
0.748500
30
0.0
11
0.198362
21
0.748500
31
0.0
0
LINE
8
MCD_Layer_0
10
0.198362
20
0.748500
30
0.0
11
0.198362
21
0.811500
31
0.0
0
LINE
8
MCD_Layer_0
10
0.198762
20
0.265600
30
0.0
11
0.260862
21
0.265600
31
0.0
0
LINE
8
MCD_Layer_0
10
0.198362
20
0.990500
30
0.0
11
0.198362
21
0.998500
31
0.0
0
LINE
8
MCD_Layer_0
10
0.198362
20
0.998500
30
0.0
11
0.260062
21
0.998500
31
0.0
0
LINE
8
MCD_Layer_0
10
-0.213675
20
-0.019000
30
0.0
11
-0.213675
21
0.252000
31
0.0
0
LINE
8
MCD_Layer_0
10
-0.213675
20
0.252000
30
0.0
11
-0.151375
21
0.252000
31
0.0
0
LINE
8
MCD_Layer_0
10
-0.151375
20
0.252000
30
0.0
11
-0.151375
21
0.190000
31
0.0
0
LINE
8
MCD_Layer_0
10
0.114425
20
1.000000
30
0.0
11
0.114425
21
1.023000
31
0.0
0
LINE
8
MCD_Layer_0
10
0.114425
20
1.023000
30
0.0
11
0.177025
21
1.023000
31
0.0
0
LINE
8
MCD_Layer_0
10
0.177025
20
1.023000
30
0.0
11
0.177025
21
0.773000
31
0.0
0
LINE
8
MCD_Layer_0
10
0.177025
20
0.773000
30
0.0
11
0.114425
21
0.773000
31
0.0
0
LINE
8
MCD_Layer_0
10
0.114425
20
0.773000
30
0.0
11
0.114425
21
0.796900
31
0.0
0
LINE
8
MCD_Layer_0
10
-0.151375
20
0.000000
30
0.0
11
-0.151375
21
-0.019000
31
0.0
0
LINE
8
MCD_Layer_0
10
-0.151375
20
-0.019000
30
0.0
11
-0.213675
21
-0.019000
31
0.0
0
LINE
8
MCD_Layer_0
10
-0.295136
20
1.000000
30
0.0
11
-0.060636
21
1.000200
31
0.0
0
LINE
8
MCD_Layer_0
10
-0.035136
20
0.000000
30
0.0
11
-0.295136
21
0.000000
31
0.0
0
LINE
8
MCD_Layer_0
10
-0.295136
20
0.000000
30
0.0
11
-0.295136
21
0.062500
31
0.0
0
LINE
8
MCD_Layer_0
10
-0.295136
20
0.062500
30
0.0
11
-0.253136
21
0.062500
31
0.0
0
LINE
8
MCD_Layer_0
10
-0.232136
20
0.083500
30
0.0
11
-0.232136
21
0.917500
31
0.0
0
LINE
8
MCD_Layer_0
10
-0.253136
20
0.937500
30
0.0
11
-0.295136
21
0.937500
31
0.0
0
LINE
8
MCD_Layer_0
10
-0.295136
20
0.937500
30
0.0
11
-0.295136
21
1.000000
31
0.0
0
LINE
8
MCD_Layer_0
10
-0.123736
20
0.936300
30
0.0
11
-0.123736
21
0.061300
31
0.0
0
LINE
8
MCD_Layer_0
10
-0.123736
20
0.061300
30
0.0
11
-0.051436
21
0.061300
31
0.0
0
LINE
8
MCD_Layer_0
10
-0.056436
20
0.936200
30
0.0
11
-0.123736
21
0.936300
31
0.0
0
LINE
8
MCD_Layer_0
10
-0.344000
20
0.000000
30
0.0
11
-0.344000
21
0.062500
31
0.0
0
LINE
8
MCD_Layer_0
10
-0.344000
20
0.062500
30
0.0
11
-0.319000
21
0.062500
31
0.0
0
LINE
8
MCD_Layer_0
10
-0.279000
20
0.092500
30
0.0
11
-0.008000
21
1.029000
31
0.0
0
LINE
8
MCD_Layer_0
10
-0.008000
20
1.029000
30
0.0
11
0.282000
21
0.091500
31
0.0
0
LINE
8
MCD_Layer_0
10
0.322000
20
0.062500
30
0.0
11
0.344000
21
0.062500
31
0.0
0
LINE
8
MCD_Layer_0
10
0.344000
20
0.062500
30
0.0
11
0.344000
21
0.000000
31
0.0
0
LINE
8
MCD_Layer_0
10
0.344000
20
0.000000
30
0.0
11
0.114000
21
0.000000
31
0.0
0
LINE
8
MCD_Layer_0
10
0.114000
20
0.000000
30
0.0
11
0.114000
21
0.062500
31
0.0
0
LINE
8
MCD_Layer_0
10
0.114000
20
0.062500
30
0.0
11
0.154000
21
0.062500
31
0.0
0
LINE
8
MCD_Layer_0
10
0.174000
20
0.089500
30
0.0
11
0.112000
21
0.271000
31
0.0
0
LINE
8
MCD_Layer_0
10
0.112000
20
0.271000
30
0.0
11
-0.158000
21
0.271000
31
0.0
0
LINE
8
MCD_Layer_0
10
-0.158000
20
0.271000
30
0.0
11
-0.215000
21
0.088500
31
0.0
0
LINE
8
MCD_Layer_0
10
-0.195000
20
0.062500
30
0.0
11
-0.156000
21
0.062500
31
0.0
0
LINE
8
MCD_Layer_0
10
-0.156000
20
0.062500
30
0.0
11
-0.156000
21
0.000000
31
0.0
0
LINE
8
MCD_Layer_0
10
-0.156000
20
0.000000
30
0.0
11
-0.344000
21
0.000000
31
0.0
0
LINE
8
MCD_Layer_0
10
-0.140000
20
0.333000
30
0.0
11
-0.027000
21
0.732000
31
0.0
0
LINE
8
MCD_Layer_0
10
-0.027000
20
0.732000
30
0.0
11
0.094000
21
0.333000
31
0.0
0
LINE
8
MCD_Layer_0
10
0.094000
20
0.333000
30
0.0
11
-0.140000
21
0.333000
31
0.0
0
LINE
8
MCD_Layer_0
10
-0.291403
20
0.000000
30
0.0
11
-0.291403
21
0.063300
31
0.0
0
LINE
8
MCD_Layer_0
10
-0.291403
20
0.063300
30
0.0
11
-0.249403
21
0.063300
31
0.0
0
LINE
8
MCD_Layer_0
10
-0.228403
20
0.084300
30
0.0
11
-0.228403
21
0.916700
31
0.0
0
LINE
8
MCD_Layer_0
10
-0.249403
20
0.937700
30
0.0
11
-0.291403
21
0.937700
31
0.0
0
LINE
8
MCD_Layer_0
10
-0.291403
20
0.937700
30
0.0
11
-0.291403
21
1.001900
31
0.0
0
LINE
8
MCD_Layer_0
10
-0.291403
20
1.001900
30
0.0
11
-0.165403
21
1.001900
31
0.0
0
LINE
8
MCD_Layer_0
10
-0.165403
20
1.001900
30
0.0
11
0.167597
21
0.345900
31
0.0
0
LINE
8
MCD_Layer_0
10
0.167597
20
0.345900
30
0.0
11
0.167597
21
0.916700
31
0.0
0
LINE
8
MCD_Layer_0
10
0.146597
20
0.937700
30
0.0
11
0.104597
21
0.937700
31
0.0
0
LINE
8
MCD_Layer_0
10
0.104597
20
0.937700
30
0.0
11
0.104597
21
1.001900
31
0.0
0
LINE
8
MCD_Layer_0
10
0.104597
20
1.001900
30
0.0
11
0.292597
21
1.001900
31
0.0
0
LINE
8
MCD_Layer_0
10
0.292597
20
1.001900
30
0.0
11
0.292597
21
0.937700
31
0.0
0
LINE
8
MCD_Layer_0
10
0.292597
20
0.937700
30
0.0
11
0.250597
21
0.937700
31
0.0
0
LINE
8
MCD_Layer_0
10
0.229597
20
0.916700
30
0.0
11
0.229597
21
-0.008100
31
0.0
0
LINE
8
MCD_Layer_0
10
0.229597
20
-0.008100
30
0.0
11
-0.165403
21
0.771900
31
0.0
0
LINE
8
MCD_Layer_0
10
-0.165403
20
0.771900
30
0.0
11
-0.165403
21
0.084300
31
0.0
0
LINE
8
MCD_Layer_0
10
-0.145403
20
0.063300
30
0.0
11
-0.103703
21
0.063300
31
0.0
0
LINE
8
MCD_Layer_0
10
-0.103703
20
0.063300
30
0.0
11
-0.103703
21
0.000000
31
0.0
0
LINE
8
MCD_Layer_0
10
-0.103703
20
0.000000
30
0.0
11
-0.291403
21
0.000000
31
0.0
0
LINE
8
MCD_Layer_0
10
-0.463800
20
1.001900
30
0.0
11
-0.223200
21
1.001900
31
0.0
0
LINE
8
MCD_Layer_0
10
-0.223200
20
1.001900
30
0.0
11
-0.223200
21
0.937500
31
0.0
0
LINE
8
MCD_Layer_0
10
-0.223200
20
0.937500
30
0.0
11
-0.268200
21
0.937500
31
0.0
0
LINE
8
MCD_Layer_0
10
-0.288200
20
0.911500
30
0.0
11
-0.116200
21
0.325900
31
0.0
0
LINE
8
MCD_Layer_0
10
-0.116200
20
0.325900
30
0.0
11
0.026800
21
1.022900
31
0.0
0
LINE
8
MCD_Layer_0
10
0.026800
20
1.022900
30
0.0
11
0.201800
21
0.329900
31
0.0
0
LINE
8
MCD_Layer_0
10
0.201800
20
0.329900
30
0.0
11
0.334800
21
0.911500
31
0.0
0
LINE
8
MCD_Layer_0
10
0.314800
20
0.937500
30
0.0
11
0.276800
21
0.937500
31
0.0
0
LINE
8
MCD_Layer_0
10
0.276800
20
0.937500
30
0.0
11
0.276800
21
1.001900
31
0.0
0
LINE
8
MCD_Layer_0
10
0.276800
20
1.001900
30
0.0
11
0.463800
21
1.001900
31
0.0
0
LINE
8
MCD_Layer_0
10
0.463800
20
1.001900
30
0.0
11
0.463800
21
0.937500
31
0.0
0
LINE
8
MCD_Layer_0
10
0.463800
20
0.937500
30
0.0
11
0.421800
21
0.937500
31
0.0
0
LINE
8
MCD_Layer_0
10
0.400800
20
0.921500
30
0.0
11
0.185800
21
-0.032100
31
0.0
0
LINE
8
MCD_Layer_0
10
0.185800
20
-0.032100
30
0.0
11
0.013800
21
0.649900
31
0.0
0
LINE
8
MCD_Layer_0
10
0.013800
20
0.649900
30
0.0
11
-0.130200
21
-0.029100
31
0.0
0
LINE
8
MCD_Layer_0
10
-0.130200
20
-0.029100
30
0.0
11
-0.400200
21
0.923500
31
0.0
0
LINE
8
MCD_Layer_0
10
-0.419200
20
0.937500
30
0.0
11
-0.463800
21
0.937500
31
0.0
0
LINE
8
MCD_Layer_0
10
-0.463800
20
0.937500
30
0.0
11
-0.463800
21
1.001900
31
0.0
0
LINE
8
MCD_Layer_0
10
0.220618
20
1.001000
30
0.0
11
0.220618
21
0.751000
31
0.0
0
LINE
8
MCD_Layer_0
10
0.220618
20
0.751000
30
0.0
11
0.158918
21
0.751000
31
0.0
0
LINE
8
MCD_Layer_0
10
0.158918
20
0.751000
30
0.0
11
0.158918
21
0.814000
31
0.0
0
LINE
8
MCD_Layer_0
10
0.128318
20
0.156700
30
0.0
11
0.128318
21
0.308800
31
0.0
0
LINE
8
MCD_Layer_0
10
0.107318
20
0.328800
30
0.0
11
0.066318
21
0.328800
31
0.0
0
LINE
8
MCD_Layer_0
10
0.066318
20
0.328800
30
0.0
11
0.066018
21
0.328800
31
0.0
0
LINE
8
MCD_Layer_0
10
0.066018
20
0.328800
30
0.0
11
0.066018
21
0.391300
31
0.0
0
LINE
8
MCD_Layer_0
10
0.066018
20
0.391300
30
0.0
11
0.300418
21
0.391300
31
0.0
0
LINE
8
MCD_Layer_0
10
0.300418
20
0.391300
30
0.0
11
0.300418
21
0.328800
31
0.0
0
LINE
8
MCD_Layer_0
10
0.300418
20
0.328800
30
0.0
11
0.258418
21
0.328800
31
0.0
0
LINE
8
MCD_Layer_0
10
0.237418
20
0.308800
30
0.0
11
0.237418
21
0.000000
31
0.0
0
LINE
8
MCD_Layer_0
10
0.237418
20
0.000000
30
0.0
11
0.191318
21
0.000000
31
0.0
0
LINE
8
MCD_Layer_0
10
0.191318
20
0.000000
30
0.0
11
0.191318
21
0.011700
31
0.0
0
LINE
8
MCD_Layer_0
10
0.158918
20
0.993000
30
0.0
11
0.158918
21
1.001000
31
0.0
0
LINE
8
MCD_Layer_0
10
0.158918
20
1.001000
30
0.0
11
0.220618
21
1.001000
31
0.0
0
LINE
8
MCD_Layer_0
10
-0.343950
20
1.001300
30
0.0
11
-0.115050
21
1.001300
31
0.0
0
LINE
8
MCD_Layer_0
10
-0.115050
20
1.001300
30
0.0
11
-0.115050
21
0.937300
31
0.0
0
LINE
8
MCD_Layer_0
10
-0.115050
20
0.937300
30
0.0
11
-0.154050
21
0.937300
31
0.0
0
LINE
8
MCD_Layer_0
10
-0.174050
20
0.911300
30
0.0
11
0.026950
21
0.269300
31
0.0
0
LINE
8
MCD_Layer_0
10
0.026950
20
0.269300
30
0.0
11
0.214950
21
0.911300
31
0.0
0
LINE
8
MCD_Layer_0
10
0.194950
20
0.937300
30
0.0
11
0.155950
21
0.937300
31
0.0
0
LINE
8
MCD_Layer_0
10
0.155950
20
0.937300
30
0.0
11
0.155950
21
1.001300
31
0.0
0
LINE
8
MCD_Layer_0
10
0.155950
20
1.001300
30
0.0
11
0.343950
21
1.001300
31
0.0
0
LINE
8
MCD_Layer_0
10
0.343950
20
1.001300
30
0.0
11
0.343950
21
0.937300
31
0.0
0
LINE
8
MCD_Layer_0
10
0.343950
20
0.937300
30
0.0
11
0.318950
21
0.937300
31
0.0
0
LINE
8
MCD_Layer_0
10
0.278950
20
0.907300
30
0.0
11
0.007950
21
-0.027700
31
0.0
0
LINE
8
MCD_Layer_0
10
0.007950
20
-0.027700
30
0.0
11
-0.282050
21
0.908300
31
0.0
0
LINE
8
MCD_Layer_0
10
-0.322050
20
0.937300
30
0.0
11
-0.343950
21
0.937300
31
0.0
0
LINE
8
MCD_Layer_0
10
-0.343950
20
0.937300
30
0.0
11
-0.343950
21
1.001300
31
0.0
0
LINE
8
MCD_Layer_0
10
-0.114500
20
0.000000
30
0.0
11
-0.114500
21
0.063000
31
0.0
0
LINE
8
MCD_Layer_0
10
-0.114500
20
0.063000
30
0.0
11
-0.073500
21
0.063000
31
0.0
0
LINE
8
MCD_Layer_0
10
-0.052500
20
0.083000
30
0.0
11
-0.052500
21
0.813000
31
0.0
0
LINE
8
MCD_Layer_0
10
-0.052500
20
0.813000
30
0.0
11
-0.114500
21
0.813000
31
0.0
0
LINE
8
MCD_Layer_0
10
-0.114500
20
0.813000
30
0.0
11
-0.114500
21
0.875500
31
0.0
0
LINE
8
MCD_Layer_0
10
-0.011400
20
0.999900
30
0.0
11
0.051500
21
1.000000
31
0.0
0
LINE
8
MCD_Layer_0
10
0.051500
20
1.000000
30
0.0
11
0.051500
21
0.083000
31
0.0
0
LINE
8
MCD_Layer_0
10
0.072500
20
0.063000
30
0.0
11
0.114500
21
0.063000
31
0.0
0
LINE
8
MCD_Layer_0
10
0.114500
20
0.063000
30
0.0
11
0.114500
21
0.000000
31
0.0
0
LINE
8
MCD_Layer_0
10
0.114500
20
0.000000
30
0.0
11
-0.114500
21
0.000000
31
0.0
0
LINE
8
MCD_Layer_0
10
-0.234500
20
0.999800
30
0.0
11
0.234500
21
0.999800
31
0.0
0
LINE
8
MCD_Layer_0
10
0.027500
20
0.064300
30
0.0
11
0.057500
21
0.064300
31
0.0
0
LINE
8
MCD_Layer_0
10
0.057500
20
0.064300
30
0.0
11
0.057500
21
0.001800
31
0.0
0
LINE
8
MCD_Layer_0
10
0.057500
20
0.001800
30
0.0
11
-0.117500
21
0.001800
31
0.0
0
LINE
8
MCD_Layer_0
10
0.098500
20
0.874800
30
0.0
11
-0.164700
21
0.874800
31
0.0
0
LINE
8
MCD_Layer_0
10
-0.164700
20
0.874800
30
0.0
11
-0.164700
21
0.812800
31
0.0
0
LINE
8
MCD_Layer_0
10
-0.164700
20
0.812800
30
0.0
11
-0.234500
21
0.812800
31
0.0
0
LINE
8
MCD_Layer_0
10
-0.234500
20
0.812800
30
0.0
11
-0.234500
21
0.999800
31
0.0
0
LINE
8
MCD_Layer_0
10
-0.183840
20
-0.024100
30
0.0
11
-0.152840
21
0.036900
31
0.0
0
LINE
8
MCD_Layer_0
10
-0.291450
20
0.251800
30
0.0
11
0.166450
21
1.022800
31
0.0
0
LINE
8
MCD_Layer_0
10
0.166450
20
1.022800
30
0.0
11
0.166450
21
0.314800
31
0.0
0
LINE
8
MCD_Layer_0
10
0.166450
20
0.314800
30
0.0
11
0.209150
21
0.314800
31
0.0
0
LINE
8
MCD_Layer_0
10
0.230150
20
0.335800
30
0.0
11
0.230150
21
0.376800
31
0.0
0
LINE
8
MCD_Layer_0
10
0.230150
20
0.376800
30
0.0
11
0.291450
21
0.376800
31
0.0
0
LINE
8
MCD_Layer_0
10
0.291450
20
0.376800
30
0.0
11
0.291450
21
0.189800
31
0.0
0
LINE
8
MCD_Layer_0
10
0.291450
20
0.189800
30
0.0
11
0.230150
21
0.189800
31
0.0
0
LINE
8
MCD_Layer_0
10
0.230150
20
0.189800
30
0.0
11
0.230150
21
0.231800
31
0.0
0
LINE
8
MCD_Layer_0
10
0.209150
20
0.251800
30
0.0
11
0.166450
21
0.251800
31
0.0
0
LINE
8
MCD_Layer_0
10
0.166450
20
0.251800
30
0.0
11
0.166450
21
0.085300
31
0.0
0
LINE
8
MCD_Layer_0
10
0.187450
20
0.064300
30
0.0
11
0.230150
21
0.064300
31
0.0
0
LINE
8
MCD_Layer_0
10
0.230150
20
0.064300
30
0.0
11
0.230150
21
0.001800
31
0.0
0
LINE
8
MCD_Layer_0
10
0.230150
20
0.001800
30
0.0
11
0.000450
21
0.001800
31
0.0
0
LINE
8
MCD_Layer_0
10
0.000450
20
0.001800
30
0.0
11
0.000450
21
0.064300
31
0.0
0
LINE
8
MCD_Layer_0
10
0.000450
20
0.064300
30
0.0
11
0.041450
21
0.064300
31
0.0
0
LINE
8
MCD_Layer_0
10
0.062450
20
0.085300
30
0.0
11
0.062450
21
0.251800
31
0.0
0
LINE
8
MCD_Layer_0
10
0.062450
20
0.251800
30
0.0
11
-0.291450
21
0.251800
31
0.0
0
LINE
8
MCD_Layer_0
10
-0.181450
20
0.314800
30
0.0
11
0.062450
21
0.314800
31
0.0
0
LINE
8
MCD_Layer_0
10
0.062450
20
0.314800
30
0.0
11
0.062450
21
0.725300
31
0.0
0
LINE
8
MCD_Layer_0
10
0.062450
20
0.725300
30
0.0
11
-0.181450
21
0.314800
31
0.0
0
LINE
8
MCD_Layer_0
10
0.750000
20
0.850000
30
0.0
11
0.575000
21
1.000000
31
0.0
0
LINE
8
MCD_Layer_0
10
0.575000
20
1.000000
30
0.0
11
0.150000
21
1.000000
31
0.0
0
LINE
8
MCD_Layer_0
10
0.150000
20
1.000000
30
0.0
11
0.000000
21
0.825000
31
0.0
0
LINE
8
MCD_Layer_0
10
0.000000
20
0.825000
30
0.0
11
0.000000
21
0.150000
31
0.0
0
LINE
8
MCD_Layer_0
10
0.000000
20
0.150000
30
0.0
11
0.150000
21
0.000000
31
0.0
0
LINE
8
MCD_Layer_0
10
0.150000
20
0.000000
30
0.0
11
0.575000
21
0.000000
31
0.0
0
LINE
8
MCD_Layer_0
10
0.575000
20
0.000000
30
0.0
11
0.750000
21
0.150000
31
0.0
0
LINE
8
MCD_Layer_0
10
0.750000
20
0.150000
30
0.0
11
0.750000
21
0.850000
31
0.0
0
LINE
8
MCD_Layer_0
10
0.050000
20
0.000000
30
0.0
11
0.050000
21
0.500000
31
0.0
0
LINE
8
MCD_Layer_0
10
0.050000
20
0.400000
30
0.0
11
0.175000
21
0.500000
31
0.0
0
LINE
8
MCD_Layer_0
10
0.175000
20
0.500000
30
0.0
11
0.600000
21
0.500000
31
0.0
0
LINE
8
MCD_Layer_0
10
0.600000
20
0.500000
30
0.0
11
0.700000
21
0.400000
31
0.0
0
LINE
8
MCD_Layer_0
10
0.700000
20
1.000000
30
0.0
11
0.700000
21
0.000000
31
0.0
0
LINE
8
MCD_Layer_0
10
0.700000
20
0.100000
30
0.0
11
0.600000
21
0.000000
31
0.0
0
LINE
8
MCD_Layer_0
10
0.600000
20
0.000000
30
0.0
11
0.125000
21
0.000000
31
0.0
0
LINE
8
MCD_Layer_0
10
0.125000
20
0.000000
30
0.0
11
0.050000
21
0.075000
31
0.0
0
LINE
8
MCD_Layer_0
10
0.050000
20
0.075000
30
0.0
11
0.050000
21
0.400000
31
0.0
0
LINE
8
MCD_Layer_0
10
0.050000
20
0.400000
30
0.0
11
0.050000
21
0.425000
31
0.0
0
LINE
8
MCD_Layer_0
10
0.050000
20
0.425000
30
0.0
11
0.150000
21
0.500000
31
0.0
0
LINE
8
MCD_Layer_0
10
0.150000
20
0.500000
30
0.0
11
0.600000
21
0.500000
31
0.0
0
LINE
8
MCD_Layer_0
10
0.600000
20
0.500000
30
0.0
11
0.700000
21
0.425000
31
0.0
0
LINE
8
MCD_Layer_0
10
0.700000
20
0.350000
30
0.0
11
0.700000
21
0.425000
31
0.0
0
LINE
8
MCD_Layer_0
10
0.700000
20
0.425000
30
0.0
11
0.600000
21
0.500000
31
0.0
0
LINE
8
MCD_Layer_0
10
0.600000
20
0.500000
30
0.0
11
0.150000
21
0.500000
31
0.0
0
LINE
8
MCD_Layer_0
10
0.150000
20
0.500000
30
0.0
11
0.050000
21
0.400000
31
0.0
0
LINE
8
MCD_Layer_0
10
0.050000
20
0.400000
30
0.0
11
0.050000
21
0.100000
31
0.0
0
LINE
8
MCD_Layer_0
10
0.050000
20
0.100000
30
0.0
11
0.150000
21
0.000000
31
0.0
0
LINE
8
MCD_Layer_0
10
0.150000
20
0.000000
30
0.0
11
0.600000
21
0.000000
31
0.0
0
LINE
8
MCD_Layer_0
10
0.600000
20
0.000000
30
0.0
11
0.700000
21
0.100000
31
0.0
0
LINE
8
MCD_Layer_0
10
0.700000
20
0.350000
30
0.0
11
0.600000
21
0.275000
31
0.0
0
LINE
8
MCD_Layer_0
10
0.600000
20
0.275000
30
0.0
11
0.050000
21
0.275000
31
0.0
0
LINE
8
MCD_Layer_0
10
0.325000
20
0.800000
30
0.0
11
0.100000
21
0.250000
31
0.0
0
LINE
8
MCD_Layer_0
10
0.600000
20
0.800000
30
0.0
11
0.425000
21
0.250000
31
0.0
0
LINE
8
MCD_Layer_0
10
0.175000
20
0.700000
30
0.0
11
0.700000
21
0.700000
31
0.0
0
LINE
8
MCD_Layer_0
10
0.000000
20
0.350000
30
0.0
11
0.600000
21
0.350000
31
0.0
0
LINE
8
MCD_Layer_0
10
0.000000
20
1.000000
30
0.0
11
0.750000
21
0.000000
31
0.0
0
LINE
8
MCD_Layer_0
10
0.750000
20
0.000000
30
0.0
11
0.750000
21
1.000000
31
0.0
0
LINE
8
MCD_Layer_0
10
0.600000
20
0.500000
30
0.0
11
0.700000
21
0.375000
31
0.0
0
LINE
8
MCD_Layer_0
10
0.700000
20
0.375000
30
0.0
11
0.700000
21
0.000000
31
0.0
0
LINE
8
MCD_Layer_0
10
0.700000
20
0.275000
30
0.0
11
0.600000
21
0.375000
31
0.0
0
LINE
8
MCD_Layer_0
10
0.600000
20
0.375000
30
0.0
11
0.175000
21
0.375000
31
0.0
0
LINE
8
MCD_Layer_0
10
0.175000
20
0.375000
30
0.0
11
0.050000
21
0.275000
31
0.0
0
LINE
8
MCD_Layer_0
10
0.050000
20
0.275000
30
0.0
11
0.050000
21
0.075000
31
0.0
0
LINE
8
MCD_Layer_0
10
0.050000
20
0.075000
30
0.0
11
0.150000
21
0.000000
31
0.0
0
LINE
8
MCD_Layer_0
10
0.600000
20
0.000000
30
0.0
11
0.700000
21
0.075000
31
0.0
0
LINE
8
MCD_Layer_0
10
0.050000
20
0.425000
30
0.0
11
0.175000
21
0.500000
31
0.0
0
LINE
8
MCD_Layer_0
10
0.050000
20
0.500000
30
0.0
11
0.050000
21
0.000000
31
0.0
0
LINE
8
MCD_Layer_0
10
0.050000
20
0.425000
30
0.0
11
0.125000
21
0.500000
31
0.0
0
LINE
8
MCD_Layer_0
10
0.125000
20
0.500000
30
0.0
11
0.325000
21
0.500000
31
0.0
0
LINE
8
MCD_Layer_0
10
0.325000
20
0.500000
30
0.0
11
0.375000
21
0.425000
31
0.0
0
LINE
8
MCD_Layer_0
10
0.375000
20
0.425000
30
0.0
11
0.425000
21
0.500000
31
0.0
0
LINE
8
MCD_Layer_0
10
0.425000
20
0.500000
30
0.0
11
0.625000
21
0.500000
31
0.0
0
LINE
8
MCD_Layer_0
10
0.625000
20
0.500000
30
0.0
11
0.700000
21
0.425000
31
0.0
0
LINE
8
MCD_Layer_0
10
0.700000
20
0.425000
30
0.0
11
0.700000
21
0.000000
31
0.0
0
LINE
8
MCD_Layer_0
10
0.375000
20
0.425000
30
0.0
11
0.375000
21
0.000000
31
0.0
0
LINE
8
MCD_Layer_0
10
0.000000
20
0.825000
30
0.0
11
0.000000
21
0.600000
31
0.0
0
LINE
8
MCD_Layer_0
10
0.000000
20
0.600000
30
0.0
11
0.150000
21
0.500000
31
0.0
0
LINE
8
MCD_Layer_0
10
0.150000
20
0.500000
30
0.0
11
0.575000
21
0.500000
31
0.0
0
LINE
8
MCD_Layer_0
10
0.575000
20
0.500000
30
0.0
11
0.750000
21
0.375000
31
0.0
0
LINE
8
MCD_Layer_0
10
0.750000
20
0.375000
30
0.0
11
0.750000
21
0.150000
31
0.0
0
LINE
8
MCD_Layer_0
10
0.750000
20
0.150000
30
0.0
11
0.575000
21
0.000000
31
0.0
0
LINE
8
MCD_Layer_0
10
0.575000
20
0.000000
30
0.0
11
0.150000
21
0.000000
31
0.0
0
LINE
8
MCD_Layer_0
10
0.150000
20
0.000000
30
0.0
11
0.000000
21
0.150000
31
0.0
0
LINE
8
MCD_Layer_0
10
0.175000
20
0.950000
30
0.0
11
0.175000
21
0.075000
31
0.0
0
LINE
8
MCD_Layer_0
10
0.175000
20
0.075000
30
0.0
11
0.300000
21
0.000000
31
0.0
0
LINE
8
MCD_Layer_0
10
0.300000
20
0.000000
30
0.0
11
0.600000
21
0.000000
31
0.0
0
LINE
8
MCD_Layer_0
10
0.050000
20
0.500000
30
0.0
11
0.425000
21
0.500000
31
0.0
0
LINE
8
MCD_Layer_0
10
0.750000
20
0.875000
30
0.0
11
0.575000
21
1.000000
31
0.0
0
LINE
8
MCD_Layer_0
10
0.575000
20
1.000000
30
0.0
11
0.175000
21
1.000000
31
0.0
0
LINE
8
MCD_Layer_0
10
0.175000
20
1.000000
30
0.0
11
0.000000
21
0.850000
31
0.0
0
LINE
8
MCD_Layer_0
10
0.000000
20
0.850000
30
0.0
11
0.000000
21
0.125000
31
0.0
0
LINE
8
MCD_Layer_0
10
0.000000
20
0.125000
30
0.0
11
0.150000
21
0.000000
31
0.0
0
LINE
8
MCD_Layer_0
10
0.575000
20
0.000000
30
0.0
11
0.750000
21
0.125000
31
0.0
0
LINE
8
MCD_Layer_0
10
0.050000
20
0.100000
30
0.0
11
0.200000
21
0.000000
31
0.0
0
LINE
8
MCD_Layer_0
10
0.200000
20
0.000000
30
0.0
11
0.700000
21
0.000000
31
0.0
0
LINE
8
MCD_Layer_0
10
0.050000
20
0.500000
30
0.0
11
0.050000
21
0.100000
31
0.0
0
LINE
8
MCD_Layer_0
10
0.700000
20
0.500000
30
0.0
11
0.700000
21
0.000000
31
0.0
0
LINE
8
MCD_Layer_0
10
0.700000
20
0.000000
30
0.0
11
0.700000
21
-0.150000
31
0.0
0
LINE
8
MCD_Layer_0
10
0.700000
20
-0.150000
30
0.0
11
0.700000
21
-0.250000
31
0.0
0
LINE
8
MCD_Layer_0
10
0.700000
20
-0.250000
30
0.0
11
0.550000
21
-0.350000
31
0.0
0
LINE
8
MCD_Layer_0
10
0.550000
20
-0.350000
30
0.0
11
0.125000
21
-0.350000
31
0.0
0
LINE
8
MCD_Layer_0
10
0.125000
20
-0.350000
30
0.0
11
0.025000
21
-0.275000
31
0.0
0
LINE
8
MCD_Layer_0
10
0.375000
20
0.000000
30
0.0
11
0.375000
21
1.000000
31
0.0
0
LINE
8
MCD_Layer_0
10
0.250000
20
1.000000
30
0.0
11
0.500000
21
1.000000
31
0.0
0
LINE
8
MCD_Layer_0
10
0.250000
20
0.000000
30
0.0
11
0.500000
21
0.000000
31
0.0
0
LINE
8
MCD_Layer_0
10
0.050000
20
0.000000
30
0.0
11
0.050000
21
1.000000
31
0.0
0
LINE
8
MCD_Layer_0
10
0.050000
20
0.400000
30
0.0
11
0.200000
21
0.500000
31
0.0
0
LINE
8
MCD_Layer_0
10
0.200000
20
0.500000
30
0.0
11
0.600000
21
0.500000
31
0.0
0
LINE
8
MCD_Layer_0
10
0.700000
20
0.400000
30
0.0
11
0.700000
21
0.000000
31
0.0
0
LINE
8
MCD_Layer_0
10
0.050000
20
0.500000
30
0.0
11
0.050000
21
0.400000
31
0.0
0
LINE
8
MCD_Layer_0
10
0.050000
20
0.400000
30
0.0
11
0.375000
21
0.000000
31
0.0
0
LINE
8
MCD_Layer_0
10
0.375000
20
0.000000
30
0.0
11
0.700000
21
0.400000
31
0.0
0
LINE
8
MCD_Layer_0
10
0.700000
20
0.400000
30
0.0
11
0.700000
21
0.500000
31
0.0
0
LINE
8
MCD_Layer_0
10
0.700000
20
0.900000
30
0.0
11
0.600000
21
1.000000
31
0.0
0
LINE
8
MCD_Layer_0
10
0.600000
20
1.000000
30
0.0
11
0.250000
21
1.000000
31
0.0
0
LINE
8
MCD_Layer_0
10
0.250000
20
1.000000
30
0.0
11
0.125000
21
0.925000
31
0.0
0
LINE
8
MCD_Layer_0
10
0.125000
20
0.925000
30
0.0
11
0.125000
21
0.000000
31
0.0
0
LINE
8
MCD_Layer_0
10
0.000000
20
0.500000
30
0.0
11
0.375000
21
0.500000
31
0.0
0
LINE
8
MCD_Layer_0
10
0.050000
20
0.500000
30
0.0
11
0.050000
21
0.075000
31
0.0
0
LINE
8
MCD_Layer_0
10
0.150000
20
0.000000
30
0.0
11
0.625000
21
0.000000
31
0.0
0
LINE
8
MCD_Layer_0
10
0.625000
20
0.000000
30
0.0
11
0.700000
21
0.075000
31
0.0
0
LINE
8
MCD_Layer_0
10
0.700000
20
0.075000
30
0.0
11
0.700000
21
0.500000
31
0.0
0
LINE
8
MCD_Layer_0
10
0.700000
20
0.075000
30
0.0
11
0.700000
21
0.000000
31
0.0
0
LINE
8
MCD_Layer_0
10
0.250000
20
1.000000
30
0.0
11
0.375000
21
1.000000
31
0.0
0
LINE
8
MCD_Layer_0
10
0.375000
20
1.000000
30
0.0
11
0.375000
21
0.000000
31
0.0
0
LINE
8
MCD_Layer_0
10
0.225000
20
0.000000
30
0.0
11
0.525000
21
0.000000
31
0.0
0
LINE
8
MCD_Layer_0
10
0.000000
20
1.000000
30
0.0
11
0.000000
21
0.000000
31
0.0
0
LINE
8
MCD_Layer_0
10
0.700000
20
0.500000
30
0.0
11
0.450000
21
0.350000
31
0.0
0
LINE
8
MCD_Layer_0
10
0.450000
20
0.350000
30
0.0
11
0.700000
21
0.000000
31
0.0
0
LINE
8
MCD_Layer_0
10
0.000000
20
0.350000
30
0.0
11
0.450000
21
0.350000
31
0.0
0
LINE
8
MCD_Layer_0
10
0.050000
20
0.400000
30
0.0
11
0.250000
21
0.000000
31
0.0
0
LINE
8
MCD_Layer_0
10
0.250000
20
0.000000
30
0.0
11
0.375000
21
0.450000
31
0.0
0
LINE
8
MCD_Layer_0
10
0.375000
20
0.450000
30
0.0
11
0.500000
21
0.000000
31
0.0
0
LINE
8
MCD_Layer_0
10
0.500000
20
0.000000
30
0.0
11
0.700000
21
0.400000
31
0.0
0
LINE
8
MCD_Layer_0
10
0.700000
20
0.400000
30
0.0
11
0.600000
21
0.500000
31
0.0
0
LINE
8
MCD_Layer_0
10
0.050000
20
0.400000
30
0.0
11
0.050000
21
0.075000
31
0.0
0
LINE
8
MCD_Layer_0
10
0.700000
20
0.400000
30
0.0
11
0.700000
21
-0.025000
31
0.0
0
LINE
8
MCD_Layer_0
10
0.700000
20
-0.025000
30
0.0
11
0.700000
21
-0.100000
31
0.0
0
LINE
8
MCD_Layer_0
10
0.700000
20
-0.100000
30
0.0
11
0.600000
21
-0.225000
31
0.0
0
LINE
8
MCD_Layer_0
10
0.600000
20
-0.225000
30
0.0
11
0.150000
21
-0.225000
31
0.0
0
LINE
8
MCD_Layer_0
10
0.150000
20
-0.225000
30
0.0
11
0.050000
21
-0.125000
31
0.0
0
LINE
8
MCD_Layer_0
10
0.050000
20
1.000000
30
0.0
11
0.050000
21
0.000000
31
0.0
0
LINE
8
MCD_Layer_0
10
0.700000
20
0.075000
30
0.0
11
0.700000
21
0.425000
31
0.0
0
LINE
8
MCD_Layer_0
10
0.700000
20
0.425000
30
0.0
11
0.625000
21
0.500000
31
0.0
0
LINE
8
MCD_Layer_0
10
0.625000
20
0.500000
30
0.0
11
0.150000
21
0.500000
31
0.0
0
LINE
8
MCD_Layer_0
10
0.150000
20
0.500000
30
0.0
11
0.050000
21
0.425000
31
0.0
0
LINE
8
MCD_Layer_0
10
0.375000
20
0.025000
30
0.0
11
0.350000
21
0.000000
31
0.0
0
LINE
8
MCD_Layer_0
10
0.350000
20
0.000000
30
0.0
11
0.375000
21
-0.025000
31
0.0
0
LINE
8
MCD_Layer_0
10
0.375000
20
-0.025000
30
0.0
11
0.400000
21
0.000000
31
0.0
0
LINE
8
MCD_Layer_0
10
0.400000
20
0.000000
30
0.0
11
0.375000
21
0.025000
31
0.0
0
LINE
8
MCD_Layer_0
10
0.050000
20
0.500000
30
0.0
11
0.700000
21
0.500000
31
0.0
0
LINE
8
MCD_Layer_0
10
0.700000
20
0.500000
30
0.0
11
0.050000
21
0.000000
31
0.0
0
LINE
8
MCD_Layer_0
10
0.050000
20
0.000000
30
0.0
11
0.725000
21
0.000000
31
0.0
0
LINE
8
MCD_Layer_0
10
0.400000
20
0.000000
30
0.0
11
0.425000
21
-0.050000
31
0.0
0
LINE
8
MCD_Layer_0
10
0.425000
20
-0.050000
30
0.0
11
0.400000
21
-0.075000
31
0.0
0
LINE
8
MCD_Layer_0
10
0.700000
20
0.425000
30
0.0
11
0.700000
21
0.100000
31
0.0
0
LINE
8
MCD_Layer_0
10
0.600000
20
0.000000
30
0.0
11
0.150000
21
0.000000
31
0.0
0
LINE
8
MCD_Layer_0
10
0.150000
20
0.000000
30
0.0
11
0.050000
21
0.100000
31
0.0
0
LINE
8
MCD_Layer_0
10
0.050000
20
-0.350000
30
0.0
11
0.050000
21
0.500000
31
0.0
0
LINE
8
MCD_Layer_0
10
0.325000
20
0.950000
30
0.0
11
0.375000
21
1.000000
31
0.0
0
LINE
8
MCD_Layer_0
10
0.300000
20
0.975000
30
0.0
11
0.275000
21
0.950000
31
0.0
0
LINE
8
MCD_Layer_0
10
0.275000
20
0.950000
30
0.0
11
0.300000
21
0.925000
31
0.0
0
LINE
8
MCD_Layer_0
10
0.300000
20
0.925000
30
0.0
11
0.325000
21
0.950000
31
0.0
0
LINE
8
MCD_Layer_0
10
0.325000
20
0.950000
30
0.0
11
0.300000
21
0.975000
31
0.0
0
LINE
8
MCD_Layer_0
10
0.450000
20
0.975000
30
0.0
11
0.425000
21
0.950000
31
0.0
0
LINE
8
MCD_Layer_0
10
0.425000
20
0.950000
30
0.0
11
0.450000
21
0.925000
31
0.0
0
LINE
8
MCD_Layer_0
10
0.450000
20
0.925000
30
0.0
11
0.475000
21
0.950000
31
0.0
0
LINE
8
MCD_Layer_0
10
0.475000
20
0.950000
30
0.0
11
0.450000
21
0.975000
31
0.0
0
LINE
8
MCD_Layer_0
10
0.325000
20
0.950000
30
0.0
11
0.350000
21
0.900000
31
0.0
0
LINE
8
MCD_Layer_0
10
0.350000
20
0.900000
30
0.0
11
0.325000
21
0.850000
31
0.0
0
LINE
8
MCD_Layer_0
10
0.475000
20
0.950000
30
0.0
11
0.500000
21
0.900000
31
0.0
0
LINE
8
MCD_Layer_0
10
0.500000
20
0.900000
30
0.0
11
0.475000
21
0.850000
31
0.0
0
LINE
8
MCD_Layer_0
10
0.250000
20
0.350000
30
0.0
11
0.600000
21
0.350000
31
0.0
0
LINE
8
MCD_Layer_0
10
0.250000
20
0.550000
30
0.0
11
0.600000
21
0.550000
31
0.0
0
LINE
8
MCD_Layer_0
10
0.050000
20
0.875000
30
0.0
11
0.050000
21
0.675000
31
0.0
0
LINE
8
MCD_Layer_0
10
0.050000
20
0.675000
30
0.0
11
0.150000
21
0.575000
31
0.0
0
LINE
8
MCD_Layer_0
10
0.150000
20
0.575000
30
0.0
11
0.050000
21
0.450000
31
0.0
0
LINE
8
MCD_Layer_0
10
0.050000
20
0.450000
30
0.0
11
0.050000
21
0.100000
31
0.0
0
LINE
8
MCD_Layer_0
10
0.050000
20
0.100000
30
0.0
11
0.175000
21
0.000000
31
0.0
0
LINE
8
MCD_Layer_0
10
0.175000
20
0.000000
30
0.0
11
0.575000
21
0.000000
31
0.0
0
LINE
8
MCD_Layer_0
10
0.575000
20
0.000000
30
0.0
11
0.700000
21
0.100000
31
0.0
0
LINE
8
MCD_Layer_0
10
0.700000
20
0.100000
30
0.0
11
0.700000
21
0.450000
31
0.0
0
LINE
8
MCD_Layer_0
10
0.700000
20
0.450000
30
0.0
11
0.600000
21
0.575000
31
0.0
0
LINE
8
MCD_Layer_0
10
0.600000
20
0.575000
30
0.0
11
0.700000
21
0.675000
31
0.0
0
LINE
8
MCD_Layer_0
10
0.575000
20
1.000000
30
0.0
11
0.625000
21
1.000000
31
0.0
0
LINE
8
MCD_Layer_0
10
0.700000
20
0.875000
30
0.0
11
0.700000
21
0.675000
31
0.0
0
LINE
8
MCD_Layer_0
10
0.150000
20
0.575000
30
0.0
11
0.575000
21
0.575000
31
0.0
0
LINE
8
MCD_Layer_0
10
0.575000
20
0.575000
30
0.0
11
0.600000
21
0.575000
31
0.0
0
LINE
8
MCD_Layer_0
10
0.050000
20
0.875000
30
0.0
11
0.175000
21
1.000000
31
0.0
0
LINE
8
MCD_Layer_0
10
0.175000
20
1.000000
30
0.0
11
0.575000
21
1.000000
31
0.0
0
LINE
8
MCD_Layer_0
10
0.575000
20
1.000000
30
0.0
11
0.700000
21
0.875000
31
0.0
0
LINE
8
MCD_Layer_0
10
-6.000000
20
0.000000
30
0.0
11
6.000000
21
0.000000
31
0.0
0
LINE
8
MCD_Layer_0
10
6.000000
20
6.000000
30
0.0
11
-6.000000
21
6.000000
31
0.0
0
LINE
8
MCD_Layer_0
10
-6.000000
20
6.000000
30
0.0
11
-6.000000
21
0.000000
31
0.0
0
LINE
8
MCD_Layer_0
10
-27.997286
20
6.000000
30
0.0
11
-27.997286
21
0.000000
31
0.0
0
LINE
8
MCD_Layer_0
10
6.000000
20
6.000000
30
0.0
11
6.000000
21
-0.000000
31
0.0
0
LINE
8
MCD_Layer_0
10
27.997286
20
6.000000
30
0.0
11
27.997286
21
-0.000000
31
0.0
0
LINE
8
MCD_Layer_0
10
-86.000000
20
0.000000
30
0.0
11
-74.000000
21
0.000000
31
0.0
0
LINE
8
MCD_Layer_0
10
-74.000000
20
6.000000
30
0.0
11
-86.000000
21
6.000000
31
0.0
0
LINE
8
MCD_Layer_0
10
-86.000000
20
6.000000
30
0.0
11
-86.000000
21
0.000000
31
0.0
0
LINE
8
MCD_Layer_0
10
-107.997284
20
6.000000
30
0.0
11
-107.997284
21
0.000000
31
0.0
0
LINE
8
MCD_Layer_0
10
-74.000000
20
6.000000
30
0.0
11
-74.000000
21
-0.000000
31
0.0
0
LINE
8
MCD_Layer_0
10
-52.002716
20
6.000000
30
0.0
11
-52.002716
21
-0.000000
31
0.0
0
ARC
8
MCD_Layer_0
10
-0.061201
20
0.268427
40
0.275316
50
217.355350
51
282.843786
0
ARC
8
MCD_Layer_0
10
0.078499
20
-0.011793
40
0.079380
50
188.677676
51
171.455940
0
ARC
8
MCD_Layer_0
10
0.004732
20
0.072338
40
0.072492
50
10.396884
51
266.256915
0
ARC
8
MCD_Layer_0
10
0.151370
20
0.106715
40
0.445636
50
155.798876
51
193.855111
0
ARC
8
MCD_Layer_0
10
-0.140623
20
-0.012700
40
0.141195
50
5.160526
51
354.839474
0
ARC
8
MCD_Layer_0
10
0.004732
20
0.072337
40
0.072492
50
10.397098
51
266.256920
0
ARC
8
MCD_Layer_0
10
-0.044986
20
-0.014500
40
0.047265
50
17.865202
51
342.134798
0
ARC
8
MCD_Layer_0
10
-0.038342
20
-0.014215
40
0.040892
50
20.341405
51
338.803541
0
ARC
8
MCD_Layer_0
10
0.004732
20
0.072337
40
0.072492
50
10.397096
51
266.256916
0
ARC
8
MCD_Layer_0
10
-0.002653
20
0.050003
40
0.050074
50
273.037177
51
166.961734
0
ARC
8
MCD_Layer_0
10
-0.157611
20
-0.317843
40
0.354775
50
63.624256
51
89.229428
0
CIRCLE
8
MCD_Layer_0
10
0.000000
20
0.000000
40
1.000000
0
CIRCLE
8
MCD_Layer_0
10
-0.002200
20
0.066773
40
0.076224
0
CIRCLE
8
MCD_Layer_0
10
-0.002200
20
0.066773
40
0.076224
0
ENDSEC
0
EOF
