0
SECTION
2
ENTITIES
0
LINE
8
MCD_Layer_0
10
5.007521
20
0.626910
30
0.0
11
6.917744
21
4.350529
31
0.0
0
LINE
8
MCD_Layer_0
10
5.007521
20
0.626910
30
0.0
11
10.288837
21
4.500000
31
0.0
0
LINE
8
MCD_Layer_0
10
5.383549
20
4.463807
30
0.0
11
10.288837
21
4.500000
31
0.0
0
LINE
8
MCD_Layer_0
10
5.684371
20
4.477321
30
0.0
11
6.654524
21
4.495417
31
0.0
0
LINE
8
MCD_Layer_0
10
5.684371
20
4.477321
30
0.0
11
12.118214
21
4.488719
31
0.0
0
LINE
8
MCD_Layer_0
10
6.737250
20
4.463572
30
0.0
11
11.054054
21
4.484959
31
0.0
0
LINE
8
MCD_Layer_0
10
9.602585
20
0.626910
30
0.0
11
11.054054
21
4.484959
31
0.0
0
LINE
8
MCD_Layer_0
10
8.843008
20
4.328672
30
0.0
11
11.054054
21
4.484959
31
0.0
0
LINE
8
MCD_Layer_0
10
5.000000
20
4.477438
30
0.0
11
6.917744
21
0.500000
31
0.0
0
LINE
8
MCD_Layer_0
10
16.695884
20
0.500000
30
0.0
11
12.618214
21
4.500000
31
0.0
0
LINE
8
MCD_Layer_0
10
17.402680
20
4.476578
30
0.0
11
12.618214
21
4.500000
31
0.0
0
LINE
8
MCD_Layer_0
10
20.951188
20
0.652122
30
0.0
11
20.159174
21
0.500000
31
0.0
0
LINE
8
MCD_Layer_0
10
20.951188
20
0.652122
30
0.0
11
18.575145
21
4.500000
31
0.0
0
LINE
8
MCD_Layer_0
10
17.902680
20
4.461707
30
0.0
11
18.575145
21
4.500000
31
0.0
0
LINE
8
MCD_Layer_0
10
20.951188
20
4.477701
30
0.0
11
21.500368
21
4.497081
31
0.0
0
LINE
8
MCD_Layer_0
10
20.951188
20
4.477701
30
0.0
11
18.956209
21
4.488792
31
0.0
0
LINE
8
MCD_Layer_0
10
18.287479
20
4.464042
30
0.0
11
18.216497
21
4.486574
31
0.0
0
LINE
8
MCD_Layer_0
10
20.951188
20
4.477701
30
0.0
11
21.802978
21
4.480620
31
0.0
0
LINE
8
MCD_Layer_0
10
20.951188
20
4.477701
30
0.0
11
19.172892
21
4.448865
31
0.0
0
LINE
8
MCD_Layer_0
10
21.971094
20
4.461123
30
0.0
11
20.159174
21
4.325463
31
0.0
0
LINE
8
MCD_Layer_0
10
23.954866
20
0.652122
30
0.0
11
18.216497
21
4.486574
31
0.0
0
LINE
8
MCD_Layer_0
10
27.738538
20
0.669669
30
0.0
11
27.221629
21
4.308019
31
0.0
0
LINE
8
MCD_Layer_0
10
27.738538
20
0.669669
30
0.0
11
27.764570
21
4.500000
31
0.0
0
LINE
8
MCD_Layer_0
10
29.728079
20
4.464555
30
0.0
11
27.764570
21
4.500000
31
0.0
0
LINE
8
MCD_Layer_0
10
27.738538
20
4.477687
30
0.0
11
26.831159
21
4.495468
31
0.0
0
LINE
8
MCD_Layer_0
10
27.738538
20
4.477687
30
0.0
11
24.454866
21
4.458164
31
0.0
0
LINE
8
MCD_Layer_0
10
24.815586
20
4.464091
30
0.0
11
27.221629
21
0.500000
31
0.0
0
LINE
8
MCD_Layer_0
10
31.288273
20
4.476699
30
0.0
11
32.527108
21
2.527306
31
0.0
0
LINE
8
MCD_Layer_0
10
31.288273
20
0.500000
30
0.0
11
32.527108
21
2.527306
31
0.0
0
LINE
8
MCD_Layer_0
10
31.288273
20
0.500000
30
0.0
11
30.228079
21
4.500000
31
0.0
0
LINE
8
MCD_Layer_0
10
35.511191
20
0.626910
30
0.0
11
37.421415
21
4.350529
31
0.0
0
LINE
8
MCD_Layer_0
10
35.511191
20
0.626910
30
0.0
11
40.792508
21
4.500000
31
0.0
0
LINE
8
MCD_Layer_0
10
35.887220
20
4.463807
30
0.0
11
40.792508
21
4.500000
31
0.0
0
LINE
8
MCD_Layer_0
10
36.188042
20
4.477321
30
0.0
11
37.158195
21
4.495417
31
0.0
0
LINE
8
MCD_Layer_0
10
36.188042
20
4.477321
30
0.0
11
42.621885
21
4.488719
31
0.0
0
LINE
8
MCD_Layer_0
10
37.240921
20
4.463572
30
0.0
11
41.557725
21
4.484959
31
0.0
0
LINE
8
MCD_Layer_0
10
40.106256
20
0.626910
30
0.0
11
41.557725
21
4.484959
31
0.0
0
LINE
8
MCD_Layer_0
10
39.346679
20
4.328672
30
0.0
11
41.557725
21
4.484959
31
0.0
0
LINE
8
MCD_Layer_0
10
35.503671
20
4.477438
30
0.0
11
37.421415
21
0.500000
31
0.0
0
LINE
8
MCD_Layer_0
10
47.199555
20
0.500000
30
0.0
11
43.121885
21
4.500000
31
0.0
0
LINE
8
MCD_Layer_0
10
47.906351
20
4.476578
30
0.0
11
43.121885
21
4.500000
31
0.0
0
LINE
8
MCD_Layer_0
10
51.454859
20
0.652122
30
0.0
11
50.662845
21
0.500000
31
0.0
0
LINE
8
MCD_Layer_0
10
51.454859
20
0.652122
30
0.0
11
49.078816
21
4.500000
31
0.0
0
LINE
8
MCD_Layer_0
10
48.406351
20
4.461707
30
0.0
11
49.078816
21
4.500000
31
0.0
0
LINE
8
MCD_Layer_0
10
51.454859
20
4.477701
30
0.0
11
52.004039
21
4.497081
31
0.0
0
LINE
8
MCD_Layer_0
10
51.454859
20
4.477701
30
0.0
11
49.459879
21
4.488792
31
0.0
0
LINE
8
MCD_Layer_0
10
48.791150
20
4.464042
30
0.0
11
48.720168
21
4.486574
31
0.0
0
LINE
8
MCD_Layer_0
10
51.454859
20
4.477701
30
0.0
11
52.306648
21
4.480620
31
0.0
0
LINE
8
MCD_Layer_0
10
51.454859
20
4.477701
30
0.0
11
49.676563
21
4.448865
31
0.0
0
LINE
8
MCD_Layer_0
10
52.474765
20
4.461123
30
0.0
11
50.662845
21
4.325463
31
0.0
0
LINE
8
MCD_Layer_0
10
54.458537
20
0.652122
30
0.0
11
48.720168
21
4.486574
31
0.0
0
LINE
8
MCD_Layer_0
10
58.242209
20
0.669669
30
0.0
11
57.725300
21
4.308019
31
0.0
0
LINE
8
MCD_Layer_0
10
58.242209
20
0.669669
30
0.0
11
58.268240
21
4.500000
31
0.0
0
LINE
8
MCD_Layer_0
10
60.231750
20
4.464555
30
0.0
11
58.268240
21
4.500000
31
0.0
0
LINE
8
MCD_Layer_0
10
58.242209
20
4.477687
30
0.0
11
57.334830
21
4.495468
31
0.0
0
LINE
8
MCD_Layer_0
10
58.242209
20
4.477687
30
0.0
11
54.958537
21
4.458164
31
0.0
0
LINE
8
MCD_Layer_0
10
55.319257
20
4.464091
30
0.0
11
57.725300
21
0.500000
31
0.0
0
LINE
8
MCD_Layer_0
10
61.791944
20
4.476699
30
0.0
11
63.030779
21
2.527306
31
0.0
0
LINE
8
MCD_Layer_0
10
61.791944
20
0.500000
30
0.0
11
63.030779
21
2.527306
31
0.0
0
LINE
8
MCD_Layer_0
10
61.791944
20
0.500000
30
0.0
11
60.731750
21
4.500000
31
0.0
0
ENDSEC
0
EOF
