0
SECTION
2
ENTITIES
0
LINE
8
MCD_Layer_0
10
4.572763
20
0.228183
30
0.0
11
3.384741
21
0.000000
31
0.0
0
LINE
8
MCD_Layer_0
10
4.572763
20
0.228183
30
0.0
11
1.008698
21
6.000000
31
0.0
0
LINE
8
MCD_Layer_0
10
3.384741
20
3.153406
30
0.0
11
3.384916
21
3.153406
31
0.0
0
LINE
8
MCD_Layer_0
10
4.572763
20
0.228183
30
0.0
11
1.008698
21
6.000000
31
0.0
0
LINE
8
MCD_Layer_0
10
0.000000
20
5.942560
30
0.0
11
1.008698
21
6.000000
31
0.0
0
LINE
8
MCD_Layer_0
10
3.384741
20
3.153406
30
0.0
11
3.384916
21
3.153406
31
0.0
0
LINE
8
MCD_Layer_0
10
0.000000
20
5.942560
30
0.0
11
1.008698
21
6.000000
31
0.0
0
LINE
8
MCD_Layer_0
10
4.572763
20
5.966552
30
0.0
11
5.396533
21
5.995622
31
0.0
0
LINE
8
MCD_Layer_0
10
3.384741
20
3.153406
30
0.0
11
3.384916
21
3.153406
31
0.0
0
LINE
8
MCD_Layer_0
10
4.572763
20
5.966552
30
0.0
11
5.396533
21
5.995622
31
0.0
0
LINE
8
MCD_Layer_0
10
4.572763
20
5.966552
30
0.0
11
1.580293
21
5.983188
31
0.0
0
LINE
8
MCD_Layer_0
10
3.384741
20
3.153406
30
0.0
11
3.384916
21
3.153406
31
0.0
0
LINE
8
MCD_Layer_0
10
4.572763
20
5.966552
30
0.0
11
1.580293
21
5.983188
31
0.0
0
LINE
8
MCD_Layer_0
10
0.577199
20
5.946063
30
0.0
11
0.470726
21
5.979861
31
0.0
0
LINE
8
MCD_Layer_0
10
3.384741
20
3.153406
30
0.0
11
3.384916
21
3.153406
31
0.0
0
LINE
8
MCD_Layer_0
10
0.577199
20
5.946063
30
0.0
11
0.470726
21
5.979861
31
0.0
0
LINE
8
MCD_Layer_0
10
4.572763
20
5.966552
30
0.0
11
5.850447
21
5.970930
31
0.0
0
LINE
8
MCD_Layer_0
10
3.384741
20
3.153406
30
0.0
11
3.384916
21
3.153406
31
0.0
0
LINE
8
MCD_Layer_0
10
4.572763
20
5.966552
30
0.0
11
5.850447
21
5.970930
31
0.0
0
LINE
8
MCD_Layer_0
10
4.572763
20
5.966552
30
0.0
11
1.905318
21
5.923297
31
0.0
0
LINE
8
MCD_Layer_0
10
3.384741
20
3.153406
30
0.0
11
3.384916
21
3.153406
31
0.0
0
LINE
8
MCD_Layer_0
10
4.572763
20
5.966552
30
0.0
11
1.905318
21
5.923297
31
0.0
0
LINE
8
MCD_Layer_0
10
6.102621
20
5.941685
30
0.0
11
3.384741
21
5.738194
31
0.0
0
LINE
8
MCD_Layer_0
10
3.384741
20
3.153406
30
0.0
11
3.384916
21
3.153406
31
0.0
0
LINE
8
MCD_Layer_0
10
6.102621
20
5.941685
30
0.0
11
3.384741
21
5.738194
31
0.0
0
LINE
8
MCD_Layer_0
10
4.572763
20
0.228183
30
0.0
11
3.384741
21
0.000000
31
0.0
0
LINE
8
MCD_Layer_0
10
3.384741
20
3.153406
30
0.0
11
3.384916
21
3.153406
31
0.0
0
LINE
8
MCD_Layer_0
10
0.577199
20
5.946063
30
0.0
11
0.470726
21
5.979861
31
0.0
0
LINE
8
MCD_Layer_0
10
9.078279
20
0.228183
30
0.0
11
0.470726
21
5.979861
31
0.0
0
LINE
8
MCD_Layer_0
10
3.384741
20
3.153406
30
0.0
11
3.384916
21
3.153406
31
0.0
0
LINE
8
MCD_Layer_0
10
13.467132
20
5.946374
30
0.0
11
14.892501
21
0.000000
31
0.0
0
LINE
8
MCD_Layer_0
10
16.837710
20
5.966637
30
0.0
11
13.282672
21
5.932749
31
0.0
0
LINE
8
MCD_Layer_0
10
14.892501
20
3.160616
30
0.0
11
14.892675
21
3.160616
31
0.0
0
LINE
8
MCD_Layer_0
10
13.467132
20
5.946374
30
0.0
11
14.892501
21
0.000000
31
0.0
0
LINE
8
MCD_Layer_0
10
15.490597
20
0.227605
30
0.0
11
14.892501
21
5.723485
31
0.0
0
LINE
8
MCD_Layer_0
10
14.892501
20
3.160616
30
0.0
11
14.892675
21
3.160616
31
0.0
0
LINE
8
MCD_Layer_0
10
15.490597
20
0.227605
30
0.0
11
14.892501
21
5.723485
31
0.0
0
LINE
8
MCD_Layer_0
10
16.840505
20
0.242802
30
0.0
11
12.433041
21
5.932574
31
0.0
0
LINE
8
MCD_Layer_0
10
14.892501
20
3.160616
30
0.0
11
14.892675
21
3.160616
31
0.0
0
LINE
8
MCD_Layer_0
10
16.840505
20
0.242802
30
0.0
11
12.433041
21
5.932574
31
0.0
0
LINE
8
MCD_Layer_0
10
16.840505
20
0.242802
30
0.0
11
9.945632
21
5.993362
31
0.0
0
LINE
8
MCD_Layer_0
10
14.892501
20
3.160616
30
0.0
11
14.892675
21
3.160616
31
0.0
0
LINE
8
MCD_Layer_0
10
16.840505
20
0.242802
30
0.0
11
9.945632
21
5.993362
31
0.0
0
LINE
8
MCD_Layer_0
10
13.612464
20
0.222365
30
0.0
11
12.164736
21
6.000000
31
0.0
0
LINE
8
MCD_Layer_0
10
14.892501
20
3.160616
30
0.0
11
14.892675
21
3.160616
31
0.0
0
LINE
8
MCD_Layer_0
10
13.612464
20
0.222365
30
0.0
11
12.164736
21
6.000000
31
0.0
0
LINE
8
MCD_Layer_0
10
19.554296
20
5.946374
30
0.0
11
12.164736
21
6.000000
31
0.0
0
LINE
8
MCD_Layer_0
10
14.892501
20
3.160616
30
0.0
11
14.892675
21
3.160616
31
0.0
0
LINE
8
MCD_Layer_0
10
19.554296
20
5.946374
30
0.0
11
12.164736
21
6.000000
31
0.0
0
LINE
8
MCD_Layer_0
10
9.378279
20
5.966462
30
0.0
11
9.794710
21
5.994585
31
0.0
0
LINE
8
MCD_Layer_0
10
14.892501
20
3.160616
30
0.0
11
14.892675
21
3.160616
31
0.0
0
LINE
8
MCD_Layer_0
10
24.779804
20
0.254503
30
0.0
11
24.004441
21
5.712028
31
0.0
0
LINE
8
MCD_Layer_0
10
24.779804
20
0.254503
30
0.0
11
24.818851
21
6.000000
31
0.0
0
LINE
8
MCD_Layer_0
10
24.004441
20
3.166299
30
0.0
11
24.004615
21
3.166299
31
0.0
0
LINE
8
MCD_Layer_0
10
24.779804
20
0.254503
30
0.0
11
24.818851
21
6.000000
31
0.0
0
LINE
8
MCD_Layer_0
10
27.764116
20
5.946833
30
0.0
11
24.818851
21
6.000000
31
0.0
0
LINE
8
MCD_Layer_0
10
24.004441
20
3.166299
30
0.0
11
24.004615
21
3.166299
31
0.0
0
LINE
8
MCD_Layer_0
10
27.764116
20
5.946833
30
0.0
11
24.818851
21
6.000000
31
0.0
0
LINE
8
MCD_Layer_0
10
24.779804
20
5.966531
30
0.0
11
23.418735
21
5.993202
31
0.0
0
LINE
8
MCD_Layer_0
10
24.004441
20
3.166299
30
0.0
11
24.004615
21
3.166299
31
0.0
0
LINE
8
MCD_Layer_0
10
24.779804
20
5.966531
30
0.0
11
23.418735
21
5.993202
31
0.0
0
LINE
8
MCD_Layer_0
10
24.779804
20
5.966531
30
0.0
11
19.854296
21
5.937246
31
0.0
0
LINE
8
MCD_Layer_0
10
24.004441
20
3.166299
30
0.0
11
24.004615
21
3.166299
31
0.0
0
LINE
8
MCD_Layer_0
10
24.779804
20
5.966531
30
0.0
11
19.854296
21
5.937246
31
0.0
0
LINE
8
MCD_Layer_0
10
20.395377
20
5.946136
30
0.0
11
24.004441
21
0.000000
31
0.0
0
LINE
8
MCD_Layer_0
10
24.004441
20
3.166299
30
0.0
11
24.004615
21
3.166299
31
0.0
0
LINE
8
MCD_Layer_0
10
20.395377
20
5.946136
30
0.0
11
24.004441
21
0.000000
31
0.0
0
LINE
8
MCD_Layer_0
10
24.779804
20
0.254503
30
0.0
11
24.004441
21
5.712028
31
0.0
0
LINE
8
MCD_Layer_0
10
24.004441
20
3.166299
30
0.0
11
24.004615
21
3.166299
31
0.0
0
LINE
8
MCD_Layer_0
10
30.088985
20
5.966357
30
0.0
11
33.421931
21
0.000000
31
0.0
0
LINE
8
MCD_Layer_0
10
30.091774
20
0.254329
30
0.0
11
33.421931
21
5.712028
31
0.0
0
LINE
8
MCD_Layer_0
10
33.421931
20
3.166299
30
0.0
11
33.422105
21
3.166299
31
0.0
0
LINE
8
MCD_Layer_0
10
30.091774
20
0.254329
30
0.0
11
33.421931
21
5.712028
31
0.0
0
LINE
8
MCD_Layer_0
10
30.091774
20
0.254329
30
0.0
11
34.236341
21
6.000000
31
0.0
0
LINE
8
MCD_Layer_0
10
33.421931
20
3.166299
30
0.0
11
33.422105
21
3.166299
31
0.0
0
LINE
8
MCD_Layer_0
10
30.091774
20
0.254329
30
0.0
11
34.236341
21
6.000000
31
0.0
0
LINE
8
MCD_Layer_0
10
28.064116
20
5.966705
30
0.0
11
34.236341
21
6.000000
31
0.0
0
LINE
8
MCD_Layer_0
10
33.421931
20
3.166299
30
0.0
11
33.422105
21
3.166299
31
0.0
0
LINE
8
MCD_Layer_0
10
33.196016
20
0.254329
30
0.0
11
29.193692
21
5.979779
31
0.0
0
LINE
8
MCD_Layer_0
10
28.541048
20
5.937769
30
0.0
11
29.193692
21
5.979779
31
0.0
0
LINE
8
MCD_Layer_0
10
33.421931
20
3.166299
30
0.0
11
33.422105
21
3.166299
31
0.0
0
LINE
8
MCD_Layer_0
10
36.481913
20
0.000000
30
0.0
11
40.477909
21
3.041049
31
0.0
0
LINE
8
MCD_Layer_0
10
36.481913
20
0.000000
30
0.0
11
38.992517
21
6.000000
31
0.0
0
LINE
8
MCD_Layer_0
10
40.477909
20
3.041049
30
0.0
11
40.478091
21
3.041049
31
0.0
0
LINE
8
MCD_Layer_0
10
36.481913
20
0.000000
30
0.0
11
38.992517
21
6.000000
31
0.0
0
LINE
8
MCD_Layer_0
10
36.481913
20
5.964868
30
0.0
11
38.992517
21
6.000000
31
0.0
0
LINE
8
MCD_Layer_0
10
40.477909
20
3.041049
30
0.0
11
40.478091
21
3.041049
31
0.0
0
LINE
8
MCD_Layer_0
10
43.926348
20
0.000000
30
0.0
11
38.433310
21
5.979066
31
0.0
0
LINE
8
MCD_Layer_0
10
45.685518
20
5.931191
30
0.0
11
38.433310
21
5.979066
31
0.0
0
LINE
8
MCD_Layer_0
10
40.477909
20
3.041049
30
0.0
11
40.478091
21
3.041049
31
0.0
0
LINE
8
MCD_Layer_0
10
36.481913
20
0.000000
30
0.0
11
38.992517
21
5.988350
31
0.0
0
LINE
8
MCD_Layer_0
10
36.481913
20
0.000000
30
0.0
11
34.536341
21
5.953399
31
0.0
0
LINE
8
MCD_Layer_0
10
40.477909
20
3.041049
30
0.0
11
40.478091
21
3.041049
31
0.0
0
LINE
8
MCD_Layer_0
10
47.314860
20
5.939592
30
0.0
11
51.842751
21
5.967528
31
0.0
0
LINE
8
MCD_Layer_0
10
47.314860
20
5.939592
30
0.0
11
53.328828
21
5.974603
31
0.0
0
LINE
8
MCD_Layer_0
10
51.726651
20
3.051247
30
0.0
11
51.726833
21
3.051247
31
0.0
0
LINE
8
MCD_Layer_0
10
47.314860
20
5.939592
30
0.0
11
53.328828
21
5.974603
31
0.0
0
LINE
8
MCD_Layer_0
10
55.290914
20
5.965351
30
0.0
11
53.328828
21
5.974603
31
0.0
0
LINE
8
MCD_Layer_0
10
51.726651
20
3.051247
30
0.0
11
51.726833
21
3.051247
31
0.0
0
LINE
8
MCD_Layer_0
10
55.290914
20
5.965351
30
0.0
11
53.328828
21
5.974603
31
0.0
0
LINE
8
MCD_Layer_0
10
55.290914
20
5.965351
30
0.0
11
50.658533
21
5.934512
31
0.0
0
LINE
8
MCD_Layer_0
10
51.726651
20
3.051247
30
0.0
11
51.726833
21
3.051247
31
0.0
0
LINE
8
MCD_Layer_0
10
55.290914
20
5.965351
30
0.0
11
50.658533
21
5.934512
31
0.0
0
LINE
8
MCD_Layer_0
10
57.102071
20
5.939955
30
0.0
11
51.726651
21
3.051247
31
0.0
0
LINE
8
MCD_Layer_0
10
51.726651
20
3.051247
30
0.0
11
51.726833
21
3.051247
31
0.0
0
LINE
8
MCD_Layer_0
10
57.102071
20
5.939955
30
0.0
11
51.726651
21
3.051247
31
0.0
0
LINE
8
MCD_Layer_0
10
57.543250
20
0.004898
30
0.0
11
51.726651
21
3.051247
31
0.0
0
LINE
8
MCD_Layer_0
10
51.726651
20
3.051247
30
0.0
11
51.726833
21
3.051247
31
0.0
0
LINE
8
MCD_Layer_0
10
57.543250
20
0.004898
30
0.0
11
51.726651
21
3.051247
31
0.0
0
LINE
8
MCD_Layer_0
10
55.290914
20
0.021043
30
0.0
11
49.033137
21
5.934875
31
0.0
0
LINE
8
MCD_Layer_0
10
51.726651
20
3.051247
30
0.0
11
51.726833
21
3.051247
31
0.0
0
LINE
8
MCD_Layer_0
10
55.290914
20
0.021043
30
0.0
11
49.033137
21
5.934875
31
0.0
0
LINE
8
MCD_Layer_0
10
55.290914
20
0.021043
30
0.0
11
52.179440
21
5.994376
31
0.0
0
LINE
8
MCD_Layer_0
10
51.726651
20
3.051247
30
0.0
11
51.726833
21
3.051247
31
0.0
0
LINE
8
MCD_Layer_0
10
55.290914
20
0.021043
30
0.0
11
52.179440
21
5.994376
31
0.0
0
LINE
8
MCD_Layer_0
10
53.479758
20
0.000000
30
0.0
11
48.290098
21
6.000000
31
0.0
0
LINE
8
MCD_Layer_0
10
51.726651
20
3.051247
30
0.0
11
51.726833
21
3.051247
31
0.0
0
LINE
8
MCD_Layer_0
10
53.479758
20
0.000000
30
0.0
11
48.290098
21
6.000000
31
0.0
0
LINE
8
MCD_Layer_0
10
57.102071
20
5.939955
30
0.0
11
48.290098
21
6.000000
31
0.0
0
LINE
8
MCD_Layer_0
10
51.726651
20
3.051247
30
0.0
11
51.726833
21
3.051247
31
0.0
0
LINE
8
MCD_Layer_0
10
57.102071
20
5.939955
30
0.0
11
48.290098
21
6.000000
31
0.0
0
LINE
8
MCD_Layer_0
10
56.347422
20
5.965170
30
0.0
11
45.985518
21
5.993107
31
0.0
0
LINE
8
MCD_Layer_0
10
51.726651
20
3.051247
30
0.0
11
51.726833
21
3.051247
31
0.0
0
LINE
8
MCD_Layer_0
10
63.569299
20
0.200581
30
0.0
11
57.843250
21
0.000000
31
0.0
0
LINE
8
MCD_Layer_0
10
63.569299
20
0.200581
30
0.0
11
65.773575
21
6.000000
31
0.0
0
LINE
8
MCD_Layer_0
10
63.608711
20
3.139791
30
0.0
11
63.608887
21
3.139791
31
0.0
0
LINE
8
MCD_Layer_0
10
60.055971
20
0.200581
30
0.0
11
68.186172
21
5.979590
31
0.0
0
LINE
8
MCD_Layer_0
10
63.569299
20
5.966042
30
0.0
11
68.186172
21
5.979590
31
0.0
0
LINE
8
MCD_Layer_0
10
63.608711
20
3.139791
30
0.0
11
63.608887
21
3.139791
31
0.0
0
LINE
8
MCD_Layer_0
10
63.569299
20
5.966042
30
0.0
11
65.773575
21
6.000000
31
0.0
0
LINE
8
MCD_Layer_0
10
63.569299
20
5.966042
30
0.0
11
57.843250
21
5.765461
31
0.0
0
LINE
8
MCD_Layer_0
10
63.608711
20
3.139791
30
0.0
11
63.608887
21
3.139791
31
0.0
0
LINE
8
MCD_Layer_0
10
74.729416
20
0.000724
30
0.0
11
71.914744
21
3.058096
31
0.0
0
LINE
8
MCD_Layer_0
10
72.632891
20
5.931588
30
0.0
11
71.914744
21
3.058096
31
0.0
0
LINE
8
MCD_Layer_0
10
71.914744
20
3.058096
30
0.0
11
71.914925
21
3.058096
31
0.0
0
LINE
8
MCD_Layer_0
10
71.914744
20
3.058096
30
0.0
11
68.486172
21
6.000000
31
0.0
0
LINE
8
MCD_Layer_0
10
71.914744
20
3.058096
30
0.0
11
71.914925
21
3.058096
31
0.0
0
LINE
8
MCD_Layer_0
10
74.092350
20
0.000000
30
0.0
11
68.486172
21
6.000000
31
0.0
0
LINE
8
MCD_Layer_0
10
74.856829
20
5.928511
30
0.0
11
68.486172
21
6.000000
31
0.0
0
LINE
8
MCD_Layer_0
10
71.914744
20
3.058096
30
0.0
11
71.914925
21
3.058096
31
0.0
0
LINE
8
MCD_Layer_0
10
83.040003
20
0.021043
30
0.0
11
76.782226
21
5.934875
31
0.0
0
LINE
8
MCD_Layer_0
10
81.228847
20
0.000000
30
0.0
11
79.475740
21
3.051247
31
0.0
0
LINE
8
MCD_Layer_0
10
79.475740
20
3.051247
30
0.0
11
79.475922
21
3.051247
31
0.0
0
LINE
8
MCD_Layer_0
10
81.228847
20
0.000000
30
0.0
11
79.475740
21
3.051247
31
0.0
0
LINE
8
MCD_Layer_0
10
85.292339
20
5.949206
30
0.0
11
79.475740
21
3.051247
31
0.0
0
LINE
8
MCD_Layer_0
10
79.475740
20
3.051247
30
0.0
11
79.475922
21
3.051247
31
0.0
0
LINE
8
MCD_Layer_0
10
85.292339
20
5.949206
30
0.0
11
79.475740
21
3.051247
31
0.0
0
LINE
8
MCD_Layer_0
10
83.045808
20
5.965351
30
0.0
11
75.156829
21
5.935238
31
0.0
0
LINE
8
MCD_Layer_0
10
79.475740
20
3.051247
30
0.0
11
79.475922
21
3.051247
31
0.0
0
LINE
8
MCD_Layer_0
10
83.045808
20
5.965351
30
0.0
11
75.156829
21
5.935238
31
0.0
0
LINE
8
MCD_Layer_0
10
83.045808
20
5.965351
30
0.0
11
76.039187
21
6.000000
31
0.0
0
LINE
8
MCD_Layer_0
10
79.475740
20
3.051247
30
0.0
11
79.475922
21
3.051247
31
0.0
0
LINE
8
MCD_Layer_0
10
87.952716
20
0.169811
30
0.0
11
90.958377
21
5.796226
31
0.0
0
LINE
8
MCD_Layer_0
10
87.952716
20
0.169811
30
0.0
11
85.592339
21
6.000000
31
0.0
0
LINE
8
MCD_Layer_0
10
90.958377
20
3.124528
30
0.0
11
90.958554
21
3.124528
31
0.0
0
LINE
8
MCD_Layer_0
10
88.303660
20
0.169811
30
0.0
11
90.935735
21
5.975059
31
0.0
0
LINE
8
MCD_Layer_0
10
90.001773
20
5.965684
30
0.0
11
94.484792
21
6.000000
31
0.0
0
LINE
8
MCD_Layer_0
10
90.958377
20
3.124528
30
0.0
11
90.958554
21
3.124528
31
0.0
0
LINE
8
MCD_Layer_0
10
93.901773
20
0.154599
30
0.0
11
91.914981
21
5.980896
31
0.0
0
LINE
8
MCD_Layer_0
10
87.947056
20
5.966038
30
0.0
11
90.958377
21
0.000000
31
0.0
0
LINE
8
MCD_Layer_0
10
90.958377
20
3.124528
30
0.0
11
90.958554
21
3.124528
31
0.0
0
LINE
8
MCD_Layer_0
10
96.375083
20
5.965049
30
0.0
11
98.233336
21
3.040959
31
0.0
0
LINE
8
MCD_Layer_0
10
96.375083
20
0.000000
30
0.0
11
98.233336
21
3.040959
31
0.0
0
LINE
8
MCD_Layer_0
10
98.233336
20
3.040959
30
0.0
11
98.233518
21
3.040959
31
0.0
0
LINE
8
MCD_Layer_0
10
96.375083
20
0.000000
30
0.0
11
98.233336
21
3.040959
31
0.0
0
LINE
8
MCD_Layer_0
10
96.375083
20
0.000000
30
0.0
11
94.784792
21
6.000000
31
0.0
0
LINE
8
MCD_Layer_0
10
98.233336
20
3.040959
30
0.0
11
98.233518
21
3.040959
31
0.0
0
LINE
8
MCD_Layer_0
10
99.225197
20
0.207890
30
0.0
11
103.667689
21
3.143309
31
0.0
0
LINE
8
MCD_Layer_0
10
98.629116
20
0.178895
30
0.0
11
98.533518
21
6.000000
31
0.0
0
LINE
8
MCD_Layer_0
10
103.667689
20
3.143309
30
0.0
11
103.667864
21
3.143309
31
0.0
0
LINE
8
MCD_Layer_0
10
98.629116
20
0.178895
30
0.0
11
98.533518
21
6.000000
31
0.0
0
LINE
8
MCD_Layer_0
10
103.667689
20
0.000000
30
0.0
11
105.011683
21
5.981021
31
0.0
0
LINE
8
MCD_Layer_0
10
103.667689
20
3.143309
30
0.0
11
103.667864
21
3.143309
31
0.0
0
LINE
8
MCD_Layer_0
10
103.667689
20
0.000000
30
0.0
11
105.011683
21
5.981021
31
0.0
0
LINE
8
MCD_Layer_0
10
107.176695
20
5.937088
30
0.0
11
107.367891
21
6.000000
31
0.0
0
LINE
8
MCD_Layer_0
10
103.667689
20
3.143309
30
0.0
11
103.667864
21
3.143309
31
0.0
0
LINE
8
MCD_Layer_0
10
99.225197
20
5.966260
30
0.0
11
103.667689
21
3.143309
31
0.0
0
LINE
8
MCD_Layer_0
10
107.176695
20
5.937088
30
0.0
11
107.367891
21
6.000000
31
0.0
0
LINE
8
MCD_Layer_0
10
103.667689
20
3.143309
30
0.0
11
103.667864
21
3.143309
31
0.0
0
LINE
8
MCD_Layer_0
10
114.693347
20
0.000000
30
0.0
11
111.116539
21
3.040869
31
0.0
0
LINE
8
MCD_Layer_0
10
114.693347
20
0.000000
30
0.0
11
107.667891
21
6.000000
31
0.0
0
LINE
8
MCD_Layer_0
10
111.116539
20
3.040869
30
0.0
11
111.116721
21
3.040869
31
0.0
0
LINE
8
MCD_Layer_0
10
114.693347
20
5.965230
30
0.0
11
111.116539
21
3.040869
31
0.0
0
LINE
8
MCD_Layer_0
10
114.693347
20
5.965230
30
0.0
11
107.667891
21
6.000000
31
0.0
0
LINE
8
MCD_Layer_0
10
111.116539
20
3.040869
30
0.0
11
111.116721
21
3.040869
31
0.0
0
LINE
8
MCD_Layer_0
10
114.693347
20
5.965230
30
0.0
11
111.116539
21
3.040869
31
0.0
0
LINE
8
MCD_Layer_0
10
114.693347
20
0.000000
30
0.0
11
107.667891
21
6.000000
31
0.0
0
LINE
8
MCD_Layer_0
10
111.116539
20
3.040869
30
0.0
11
111.116721
21
3.040869
31
0.0
0
LINE
8
MCD_Layer_0
10
126.571791
20
0.000000
30
0.0
11
120.738997
21
3.048746
31
0.0
0
LINE
8
MCD_Layer_0
10
124.317683
20
0.016158
30
0.0
11
116.416688
21
5.935006
31
0.0
0
LINE
8
MCD_Layer_0
10
120.738997
20
3.048746
30
0.0
11
120.739178
21
3.048746
31
0.0
0
LINE
8
MCD_Layer_0
10
124.317683
20
0.016158
30
0.0
11
116.416688
21
5.935006
31
0.0
0
LINE
8
MCD_Layer_0
10
124.317683
20
0.016158
30
0.0
11
119.879183
21
5.991830
31
0.0
0
LINE
8
MCD_Layer_0
10
120.738997
20
3.048746
30
0.0
11
120.739178
21
3.048746
31
0.0
0
LINE
8
MCD_Layer_0
10
124.317683
20
0.016158
30
0.0
11
119.879183
21
5.991830
31
0.0
0
LINE
8
MCD_Layer_0
10
124.457112
20
0.000363
30
0.0
11
121.790526
21
6.000000
31
0.0
0
LINE
8
MCD_Layer_0
10
120.738997
20
3.048746
30
0.0
11
120.739178
21
3.048746
31
0.0
0
LINE
8
MCD_Layer_0
10
124.457112
20
0.000363
30
0.0
11
121.790526
21
6.000000
31
0.0
0
LINE
8
MCD_Layer_0
10
120.367185
20
5.944265
30
0.0
11
121.790526
21
6.000000
31
0.0
0
LINE
8
MCD_Layer_0
10
120.738997
20
3.048746
30
0.0
11
120.739178
21
3.048746
31
0.0
0
LINE
8
MCD_Layer_0
10
120.367185
20
5.944265
30
0.0
11
121.790526
21
6.000000
31
0.0
0
LINE
8
MCD_Layer_0
10
124.306064
20
5.965143
30
0.0
11
114.993347
21
5.992920
31
0.0
0
LINE
8
MCD_Layer_0
10
120.738997
20
3.048746
30
0.0
11
120.739178
21
3.048746
31
0.0
0
LINE
8
MCD_Layer_0
10
124.306064
20
5.965143
30
0.0
11
114.993347
21
5.992920
31
0.0
0
LINE
8
MCD_Layer_0
10
124.306064
20
5.965143
30
0.0
11
116.416688
21
5.935006
31
0.0
0
LINE
8
MCD_Layer_0
10
120.738997
20
3.048746
30
0.0
11
120.739178
21
3.048746
31
0.0
0
LINE
8
MCD_Layer_0
10
124.306064
20
5.965143
30
0.0
11
116.416688
21
5.935006
31
0.0
0
LINE
8
MCD_Layer_0
10
122.481864
20
5.944083
30
0.0
11
120.738997
21
3.048746
31
0.0
0
LINE
8
MCD_Layer_0
10
120.738997
20
3.048746
30
0.0
11
120.739178
21
3.048746
31
0.0
0
LINE
8
MCD_Layer_0
10
122.481864
20
5.944083
30
0.0
11
120.738997
21
3.048746
31
0.0
0
LINE
8
MCD_Layer_0
10
126.571791
20
0.000000
30
0.0
11
120.738997
21
3.048746
31
0.0
0
LINE
8
MCD_Layer_0
10
120.738997
20
3.048746
30
0.0
11
120.739178
21
3.048746
31
0.0
0
LINE
8
MCD_Layer_0
10
133.594325
20
0.000000
30
0.0
11
132.615654
21
3.040869
31
0.0
0
LINE
8
MCD_Layer_0
10
133.594325
20
0.000000
30
0.0
11
131.130172
21
6.000000
31
0.0
0
LINE
8
MCD_Layer_0
10
132.615654
20
3.040869
30
0.0
11
132.615836
21
3.040869
31
0.0
0
LINE
8
MCD_Layer_0
10
133.594325
20
0.000000
30
0.0
11
131.130172
21
6.000000
31
0.0
0
LINE
8
MCD_Layer_0
10
127.046553
20
5.944294
30
0.0
11
131.130172
21
6.000000
31
0.0
0
LINE
8
MCD_Layer_0
10
132.615654
20
3.040869
30
0.0
11
132.615836
21
3.040869
31
0.0
0
LINE
8
MCD_Layer_0
10
127.046553
20
5.944294
30
0.0
11
131.130172
21
6.000000
31
0.0
0
LINE
8
MCD_Layer_0
10
133.582674
20
5.965230
30
0.0
11
135.033203
21
5.994357
31
0.0
0
LINE
8
MCD_Layer_0
10
132.615654
20
3.040869
30
0.0
11
132.615836
21
3.040869
31
0.0
0
LINE
8
MCD_Layer_0
10
133.582674
20
5.965230
30
0.0
11
135.033203
21
5.994357
31
0.0
0
LINE
8
MCD_Layer_0
10
133.582674
20
5.965230
30
0.0
11
137.444927
21
5.981431
31
0.0
0
LINE
8
MCD_Layer_0
10
132.615654
20
3.040869
30
0.0
11
132.615836
21
3.040869
31
0.0
0
LINE
8
MCD_Layer_0
10
133.582674
20
5.965230
30
0.0
11
137.444927
21
5.981431
31
0.0
0
LINE
8
MCD_Layer_0
10
127.046553
20
5.944294
30
0.0
11
127.535888
21
5.976698
31
0.0
0
LINE
8
MCD_Layer_0
10
132.615654
20
3.040869
30
0.0
11
132.615836
21
3.040869
31
0.0
0
LINE
8
MCD_Layer_0
10
127.046553
20
5.944294
30
0.0
11
127.535888
21
5.976698
31
0.0
0
LINE
8
MCD_Layer_0
10
126.871791
20
0.000000
30
0.0
11
127.535888
21
5.976698
31
0.0
0
LINE
8
MCD_Layer_0
10
132.615654
20
3.040869
30
0.0
11
132.615836
21
3.040869
31
0.0
0
LINE
8
MCD_Layer_0
10
149.195454
20
0.157169
30
0.0
11
143.538079
21
3.126053
31
0.0
0
LINE
8
MCD_Layer_0
10
148.041350
20
0.172727
30
0.0
11
139.328992
21
5.936708
31
0.0
0
LINE
8
MCD_Layer_0
10
143.538079
20
3.126053
30
0.0
11
143.538256
21
3.126053
31
0.0
0
LINE
8
MCD_Layer_0
10
148.041350
20
0.172727
30
0.0
11
139.328992
21
5.936708
31
0.0
0
LINE
8
MCD_Layer_0
10
148.041350
20
0.172727
30
0.0
11
137.942935
21
5.993105
31
0.0
0
LINE
8
MCD_Layer_0
10
143.538079
20
3.126053
30
0.0
11
143.538256
21
3.126053
31
0.0
0
LINE
8
MCD_Layer_0
10
148.041350
20
0.172727
30
0.0
11
137.942935
21
5.993105
31
0.0
0
LINE
8
MCD_Layer_0
10
141.727719
20
0.156462
30
0.0
11
144.562064
21
6.000000
31
0.0
0
LINE
8
MCD_Layer_0
10
143.538079
20
3.126053
30
0.0
11
143.538256
21
3.126053
31
0.0
0
LINE
8
MCD_Layer_0
10
141.727719
20
0.156462
30
0.0
11
144.562064
21
6.000000
31
0.0
0
LINE
8
MCD_Layer_0
10
147.158799
20
5.950675
30
0.0
11
144.562064
21
6.000000
31
0.0
0
LINE
8
MCD_Layer_0
10
143.538079
20
3.126053
30
0.0
11
143.538256
21
3.126053
31
0.0
0
LINE
8
MCD_Layer_0
10
147.158799
20
5.950675
30
0.0
11
144.562064
21
6.000000
31
0.0
0
LINE
8
MCD_Layer_0
10
147.011708
20
5.966056
30
0.0
11
137.942935
21
5.993105
31
0.0
0
LINE
8
MCD_Layer_0
10
143.538079
20
3.126053
30
0.0
11
143.538256
21
3.126053
31
0.0
0
LINE
8
MCD_Layer_0
10
147.011708
20
5.966056
30
0.0
11
137.942935
21
5.993105
31
0.0
0
LINE
8
MCD_Layer_0
10
147.011708
20
5.966056
30
0.0
11
140.913057
21
5.936355
31
0.0
0
LINE
8
MCD_Layer_0
10
143.538079
20
3.126053
30
0.0
11
143.538256
21
3.126053
31
0.0
0
LINE
8
MCD_Layer_0
10
147.011708
20
5.966056
30
0.0
11
140.913057
21
5.936355
31
0.0
0
LINE
8
MCD_Layer_0
10
149.195454
20
5.950321
30
0.0
11
143.538079
21
3.126053
31
0.0
0
LINE
8
MCD_Layer_0
10
143.538079
20
3.126053
30
0.0
11
143.538256
21
3.126053
31
0.0
0
LINE
8
MCD_Layer_0
10
149.195454
20
5.950321
30
0.0
11
143.538079
21
3.126053
31
0.0
0
LINE
8
MCD_Layer_0
10
149.195454
20
0.157169
30
0.0
11
143.538079
21
3.126053
31
0.0
0
LINE
8
MCD_Layer_0
10
143.538079
20
3.126053
30
0.0
11
143.538256
21
3.126053
31
0.0
0
LINE
8
MCD_Layer_0
10
143.198637
20
5.945725
30
0.0
11
143.470191
21
5.940598
31
0.0
0
LINE
8
MCD_Layer_0
10
144.963738
20
5.966409
30
0.0
11
137.744927
21
0.000000
31
0.0
0
LINE
8
MCD_Layer_0
10
143.538079
20
3.126053
30
0.0
11
143.538256
21
3.126053
31
0.0
0
LINE
8
MCD_Layer_0
10
149.506735
20
0.190364
30
0.0
11
152.372070
21
5.775793
31
0.0
0
LINE
8
MCD_Layer_0
10
149.506735
20
0.190364
30
0.0
11
157.428709
21
6.000000
31
0.0
0
LINE
8
MCD_Layer_0
10
155.259967
20
3.134665
30
0.0
11
155.260143
21
3.134665
31
0.0
0
LINE
8
MCD_Layer_0
10
149.506735
20
0.190364
30
0.0
11
157.428709
21
6.000000
31
0.0
0
LINE
8
MCD_Layer_0
10
150.070778
20
5.945711
30
0.0
11
157.428709
21
6.000000
31
0.0
0
LINE
8
MCD_Layer_0
10
155.259967
20
3.134665
30
0.0
11
155.260143
21
3.134665
31
0.0
0
LINE
8
MCD_Layer_0
10
150.070778
20
5.945711
30
0.0
11
157.428709
21
6.000000
31
0.0
0
LINE
8
MCD_Layer_0
10
150.522011
20
5.965981
30
0.0
11
151.977241
21
5.993126
31
0.0
0
LINE
8
MCD_Layer_0
10
155.259967
20
3.134665
30
0.0
11
155.260143
21
3.134665
31
0.0
0
LINE
8
MCD_Layer_0
10
150.522011
20
5.965981
30
0.0
11
151.977241
21
5.993126
31
0.0
0
LINE
8
MCD_Layer_0
10
150.522011
20
5.965981
30
0.0
11
160.172775
21
5.983079
31
0.0
0
LINE
8
MCD_Layer_0
10
155.259967
20
3.134665
30
0.0
11
155.260143
21
3.134665
31
0.0
0
LINE
8
MCD_Layer_0
10
150.522011
20
5.965981
30
0.0
11
160.172775
21
5.983079
31
0.0
0
LINE
8
MCD_Layer_0
10
152.101330
20
5.945358
30
0.0
11
158.576535
21
5.977438
31
0.0
0
LINE
8
MCD_Layer_0
10
155.259967
20
3.134665
30
0.0
11
155.260143
21
3.134665
31
0.0
0
LINE
8
MCD_Layer_0
10
152.101330
20
5.945358
30
0.0
11
158.576535
21
5.977438
31
0.0
0
LINE
8
MCD_Layer_0
10
156.399332
20
0.190364
30
0.0
11
158.576535
21
5.977438
31
0.0
0
LINE
8
MCD_Layer_0
10
155.259967
20
3.134665
30
0.0
11
155.260143
21
3.134665
31
0.0
0
LINE
8
MCD_Layer_0
10
155.259967
20
5.743008
30
0.0
11
158.576535
21
5.977438
31
0.0
0
LINE
8
MCD_Layer_0
10
149.495454
20
5.966157
30
0.0
11
152.372070
21
0.000000
31
0.0
0
LINE
8
MCD_Layer_0
10
155.259967
20
3.134665
30
0.0
11
155.260143
21
3.134665
31
0.0
0
LINE
8
MCD_Layer_0
10
164.208319
20
0.016158
30
0.0
11
163.360124
21
5.934824
31
0.0
0
LINE
8
MCD_Layer_0
10
161.036302
20
0.000000
30
0.0
11
166.055758
21
3.048927
31
0.0
0
LINE
8
MCD_Layer_0
10
166.055758
20
3.048927
30
0.0
11
166.055940
21
3.048927
31
0.0
0
LINE
8
MCD_Layer_0
10
161.036302
20
0.000000
30
0.0
11
166.055758
21
3.048927
31
0.0
0
LINE
8
MCD_Layer_0
10
166.752905
20
5.944446
30
0.0
11
166.055758
21
3.048927
31
0.0
0
LINE
8
MCD_Layer_0
10
166.055758
20
3.048927
30
0.0
11
166.055940
21
3.048927
31
0.0
0
LINE
8
MCD_Layer_0
10
166.752905
20
5.944446
30
0.0
11
166.055758
21
3.048927
31
0.0
0
LINE
8
MCD_Layer_0
10
164.196700
20
5.965143
30
0.0
11
164.986800
21
5.934461
31
0.0
0
LINE
8
MCD_Layer_0
10
166.055758
20
3.048927
30
0.0
11
166.055940
21
3.048927
31
0.0
0
LINE
8
MCD_Layer_0
10
164.196700
20
5.965143
30
0.0
11
164.986800
21
5.934461
31
0.0
0
LINE
8
MCD_Layer_0
10
164.196700
20
5.965143
30
0.0
11
164.858990
21
5.965143
31
0.0
0
LINE
8
MCD_Layer_0
10
166.055758
20
3.048927
30
0.0
11
166.055940
21
3.048927
31
0.0
0
LINE
8
MCD_Layer_0
10
164.196700
20
5.965143
30
0.0
11
164.858990
21
5.965143
31
0.0
0
LINE
8
MCD_Layer_0
10
166.752905
20
5.944446
30
0.0
11
168.972155
21
5.976762
31
0.0
0
LINE
8
MCD_Layer_0
10
166.055758
20
3.048927
30
0.0
11
166.055940
21
3.048927
31
0.0
0
LINE
8
MCD_Layer_0
10
166.752905
20
5.944446
30
0.0
11
168.972155
21
5.976762
31
0.0
0
LINE
8
MCD_Layer_0
10
161.036302
20
0.000000
30
0.0
11
168.972155
21
5.976762
31
0.0
0
LINE
8
MCD_Layer_0
10
166.055758
20
3.048927
30
0.0
11
166.055940
21
3.048927
31
0.0
0
LINE
8
MCD_Layer_0
10
161.036302
20
0.000000
30
0.0
11
168.972155
21
5.976762
31
0.0
0
LINE
8
MCD_Layer_0
10
164.208319
20
0.016158
30
0.0
11
162.558406
21
5.981482
31
0.0
0
LINE
8
MCD_Layer_0
10
166.055758
20
3.048927
30
0.0
11
166.055940
21
3.048927
31
0.0
0
LINE
8
MCD_Layer_0
10
164.208319
20
0.016158
30
0.0
11
162.558406
21
5.981482
31
0.0
0
LINE
8
MCD_Layer_0
10
164.208319
20
0.016158
30
0.0
11
160.472775
21
5.991830
31
0.0
0
LINE
8
MCD_Layer_0
10
166.055758
20
3.048927
30
0.0
11
166.055940
21
3.048927
31
0.0
0
LINE
8
MCD_Layer_0
10
164.208319
20
0.016158
30
0.0
11
160.472775
21
5.991830
31
0.0
0
LINE
8
MCD_Layer_0
10
161.036302
20
0.000000
30
0.0
11
162.616501
21
6.000000
31
0.0
0
LINE
8
MCD_Layer_0
10
166.055758
20
3.048927
30
0.0
11
166.055940
21
3.048927
31
0.0
0
LINE
8
MCD_Layer_0
10
161.036302
20
0.000000
30
0.0
11
162.616501
21
6.000000
31
0.0
0
LINE
8
MCD_Layer_0
10
164.638227
20
5.944628
30
0.0
11
162.616501
21
6.000000
31
0.0
0
LINE
8
MCD_Layer_0
10
166.055758
20
3.048927
30
0.0
11
166.055940
21
3.048927
31
0.0
0
LINE
8
MCD_Layer_0
10
164.638227
20
5.944628
30
0.0
11
162.616501
21
6.000000
31
0.0
0
LINE
8
MCD_Layer_0
10
165.254039
20
5.964961
30
0.0
11
165.852424
21
5.993101
31
0.0
0
LINE
8
MCD_Layer_0
10
166.055758
20
3.048927
30
0.0
11
166.055940
21
3.048927
31
0.0
0
LINE
8
MCD_Layer_0
10
170.763281
20
5.827443
30
0.0
11
169.272155
21
3.041046
31
0.0
0
LINE
8
MCD_Layer_0
10
170.763281
20
5.827443
30
0.0
11
173.104816
21
6.000000
31
0.0
0
LINE
8
MCD_Layer_0
10
169.272155
20
3.041046
30
0.0
11
169.272337
21
3.041046
31
0.0
0
LINE
8
MCD_Layer_0
10
170.588540
20
0.000000
30
0.0
11
173.104816
21
6.000000
31
0.0
0
LINE
8
MCD_Layer_0
10
170.588540
20
5.964506
30
0.0
11
173.104816
21
6.000000
31
0.0
0
LINE
8
MCD_Layer_0
10
169.272155
20
3.041046
30
0.0
11
169.272337
21
3.041046
31
0.0
0
LINE
8
MCD_Layer_0
10
179.899291
20
0.152568
30
0.0
11
179.197797
21
3.125961
31
0.0
0
LINE
8
MCD_Layer_0
10
177.398805
20
0.172722
30
0.0
11
175.961874
21
5.941130
31
0.0
0
LINE
8
MCD_Layer_0
10
179.197797
20
3.125961
30
0.0
11
179.197974
21
3.125961
31
0.0
0
LINE
8
MCD_Layer_0
10
177.398805
20
0.172722
30
0.0
11
175.961874
21
5.941130
31
0.0
0
LINE
8
MCD_Layer_0
10
177.398805
20
0.172722
30
0.0
11
175.848730
21
5.999646
31
0.0
0
LINE
8
MCD_Layer_0
10
179.197797
20
3.125961
30
0.0
11
179.197974
21
3.125961
31
0.0
0
LINE
8
MCD_Layer_0
10
179.899291
20
0.152568
30
0.0
11
179.197797
21
3.125961
31
0.0
0
LINE
8
MCD_Layer_0
10
178.722592
20
5.954566
30
0.0
11
179.197797
21
3.125961
31
0.0
0
LINE
8
MCD_Layer_0
10
179.197797
20
3.125961
30
0.0
11
179.197974
21
3.125961
31
0.0
0
LINE
8
MCD_Layer_0
10
178.722592
20
5.954566
30
0.0
11
179.197797
21
3.125961
31
0.0
0
LINE
8
MCD_Layer_0
10
177.387491
20
5.965703
30
0.0
11
177.545892
21
5.940776
31
0.0
0
LINE
8
MCD_Layer_0
10
179.197797
20
3.125961
30
0.0
11
179.197974
21
3.125961
31
0.0
0
LINE
8
MCD_Layer_0
10
177.387491
20
5.965703
30
0.0
11
173.404816
21
0.000000
31
0.0
0
LINE
8
MCD_Layer_0
10
177.387491
20
5.965703
30
0.0
11
179.426914
21
6.000000
31
0.0
0
LINE
8
MCD_Layer_0
10
179.197797
20
3.125961
30
0.0
11
179.197974
21
3.125961
31
0.0
0
LINE
8
MCD_Layer_0
10
186.315796
20
0.000000
30
0.0
11
180.199291
21
6.000000
31
0.0
0
LINE
8
MCD_Layer_0
10
182.739097
20
3.040777
30
0.0
11
182.739279
21
3.040777
31
0.0
0
LINE
8
MCD_Layer_0
10
187.375990
20
5.964867
30
0.0
11
180.199291
21
6.000000
31
0.0
0
LINE
8
MCD_Layer_0
10
182.739097
20
3.040777
30
0.0
11
182.739279
21
3.040777
31
0.0
0
LINE
8
MCD_Layer_0
10
191.654506
20
0.195474
30
0.0
11
189.645524
21
6.000000
31
0.0
0
LINE
8
MCD_Layer_0
10
197.684267
20
0.161310
30
0.0
11
192.003894
21
0.035397
31
0.0
0
LINE
8
MCD_Layer_0
10
193.446528
20
3.137272
30
0.0
11
193.446704
21
3.137272
31
0.0
0
LINE
8
MCD_Layer_0
10
197.684267
20
0.161310
30
0.0
11
192.003894
21
0.035397
31
0.0
0
LINE
8
MCD_Layer_0
10
187.675990
20
0.000000
30
0.0
11
198.800055
21
5.975522
31
0.0
0
LINE
8
MCD_Layer_0
10
193.446528
20
3.137272
30
0.0
11
193.446704
21
3.137272
31
0.0
0
LINE
8
MCD_Layer_0
10
187.675990
20
0.000000
30
0.0
11
198.800055
21
5.975522
31
0.0
0
LINE
8
MCD_Layer_0
10
197.594102
20
5.931848
30
0.0
11
194.167845
21
5.823369
31
0.0
0
LINE
8
MCD_Layer_0
10
193.446528
20
3.137272
30
0.0
11
193.446704
21
3.137272
31
0.0
0
LINE
8
MCD_Layer_0
10
197.594102
20
5.931848
30
0.0
11
194.167845
21
5.823369
31
0.0
0
LINE
8
MCD_Layer_0
10
191.643235
20
5.966012
30
0.0
11
189.645524
21
6.000000
31
0.0
0
LINE
8
MCD_Layer_0
10
193.446528
20
3.137272
30
0.0
11
193.446704
21
3.137272
31
0.0
0
LINE
8
MCD_Layer_0
10
206.452059
20
0.254503
30
0.0
11
204.555488
21
5.712028
31
0.0
0
LINE
8
MCD_Layer_0
10
206.452059
20
5.966531
30
0.0
11
205.369898
21
6.000000
31
0.0
0
LINE
8
MCD_Layer_0
10
204.555488
20
3.166299
30
0.0
11
204.555662
21
3.166299
31
0.0
0
LINE
8
MCD_Layer_0
10
206.452059
20
5.966531
30
0.0
11
204.555488
21
0.000000
31
0.0
0
LINE
8
MCD_Layer_0
10
199.100055
20
0.254329
30
0.0
11
200.862751
21
5.999826
31
0.0
0
LINE
8
MCD_Layer_0
10
204.555488
20
3.166299
30
0.0
11
204.555662
21
3.166299
31
0.0
0
LINE
8
MCD_Layer_0
10
212.070345
20
3.040866
30
0.0
11
206.752059
21
5.976700
31
0.0
0
LINE
8
MCD_Layer_0
10
212.070345
20
3.040866
30
0.0
11
212.070527
21
3.040866
31
0.0
0
LINE
8
MCD_Layer_0
10
212.070345
20
3.040866
30
0.0
11
206.752059
21
5.976700
31
0.0
0
LINE
8
MCD_Layer_0
10
216.707097
20
0.000000
30
0.0
11
213.124681
21
6.000000
31
0.0
0
LINE
8
MCD_Layer_0
10
212.070345
20
3.040866
30
0.0
11
212.070527
21
3.040866
31
0.0
0
LINE
8
MCD_Layer_0
10
212.070345
20
3.040866
30
0.0
11
206.752059
21
5.976700
31
0.0
0
LINE
8
MCD_Layer_0
10
215.646935
20
5.965050
30
0.0
11
213.124681
21
6.000000
31
0.0
0
LINE
8
MCD_Layer_0
10
212.070345
20
3.040866
30
0.0
11
212.070527
21
3.040866
31
0.0
0
LINE
8
MCD_Layer_0
10
217.333291
20
0.000182
30
0.0
11
218.498269
21
3.040956
31
0.0
0
LINE
8
MCD_Layer_0
10
217.333291
20
5.964869
30
0.0
11
219.144831
21
6.000000
31
0.0
0
LINE
8
MCD_Layer_0
10
218.498269
20
3.040956
30
0.0
11
218.498451
21
3.040956
31
0.0
0
LINE
8
MCD_Layer_0
10
217.333291
20
5.964869
30
0.0
11
219.144831
21
6.000000
31
0.0
0
LINE
8
MCD_Layer_0
10
217.007097
20
0.000000
30
0.0
11
219.144831
21
6.000000
31
0.0
0
LINE
8
MCD_Layer_0
10
218.498269
20
3.040956
30
0.0
11
218.498451
21
3.040956
31
0.0
0
LINE
8
MCD_Layer_0
10
217.333291
20
0.000182
30
0.0
11
218.498269
21
3.040956
31
0.0
0
LINE
8
MCD_Layer_0
10
217.333291
20
5.964869
30
0.0
11
218.498269
21
3.040956
31
0.0
0
LINE
8
MCD_Layer_0
10
218.498269
20
3.040956
30
0.0
11
218.498451
21
3.040956
31
0.0
0
LINE
8
MCD_Layer_0
10
227.594648
20
5.983610
30
0.0
11
225.272373
21
5.934076
31
0.0
0
LINE
8
MCD_Layer_0
10
229.106895
20
5.971773
30
0.0
11
225.318993
21
3.062919
31
0.0
0
LINE
8
MCD_Layer_0
10
225.318993
20
3.062919
30
0.0
11
225.319175
21
3.062919
31
0.0
0
LINE
8
MCD_Layer_0
10
229.106895
20
5.971773
30
0.0
11
225.318993
21
3.062919
31
0.0
0
LINE
8
MCD_Layer_0
10
222.370257
20
0.004917
30
0.0
11
225.318993
21
3.062919
31
0.0
0
LINE
8
MCD_Layer_0
10
225.318993
20
3.062919
30
0.0
11
225.319175
21
3.062919
31
0.0
0
LINE
8
MCD_Layer_0
10
222.370257
20
0.004917
30
0.0
11
225.318993
21
3.062919
31
0.0
0
LINE
8
MCD_Layer_0
10
227.594648
20
0.016208
30
0.0
11
219.444831
21
5.934804
31
0.0
0
LINE
8
MCD_Layer_0
10
225.318993
20
3.062919
30
0.0
11
225.319175
21
3.062919
31
0.0
0
LINE
8
MCD_Layer_0
10
227.594648
20
0.016208
30
0.0
11
219.444831
21
5.934804
31
0.0
0
LINE
8
MCD_Layer_0
10
227.594648
20
0.016208
30
0.0
11
227.906421
21
5.979239
31
0.0
0
LINE
8
MCD_Layer_0
10
225.318993
20
3.062919
30
0.0
11
225.319175
21
3.062919
31
0.0
0
LINE
8
MCD_Layer_0
10
227.594648
20
0.016208
30
0.0
11
227.906421
21
5.979239
31
0.0
0
LINE
8
MCD_Layer_0
10
228.532882
20
0.000000
30
0.0
11
228.372625
21
5.988345
31
0.0
0
LINE
8
MCD_Layer_0
10
225.318993
20
3.062919
30
0.0
11
225.319175
21
3.062919
31
0.0
0
LINE
8
MCD_Layer_0
10
228.532882
20
0.000000
30
0.0
11
228.372625
21
5.988345
31
0.0
0
LINE
8
MCD_Layer_0
10
229.106895
20
5.971773
30
0.0
11
228.372625
21
5.988345
31
0.0
0
LINE
8
MCD_Layer_0
10
225.318993
20
3.062919
30
0.0
11
225.319175
21
3.062919
31
0.0
0
LINE
8
MCD_Layer_0
10
229.106895
20
5.971773
30
0.0
11
228.372625
21
5.988345
31
0.0
0
LINE
8
MCD_Layer_0
10
227.594648
20
5.983610
30
0.0
11
229.363307
21
5.979057
31
0.0
0
LINE
8
MCD_Layer_0
10
225.318993
20
3.062919
30
0.0
11
225.319175
21
3.062919
31
0.0
0
LINE
8
MCD_Layer_0
10
227.594648
20
5.983610
30
0.0
11
228.372625
21
5.988345
31
0.0
0
LINE
8
MCD_Layer_0
10
227.594648
20
5.983610
30
0.0
11
222.335292
21
5.807691
31
0.0
0
LINE
8
MCD_Layer_0
10
225.318993
20
3.062919
30
0.0
11
225.319175
21
3.062919
31
0.0
0
LINE
8
MCD_Layer_0
10
227.594648
20
5.983610
30
0.0
11
228.372625
21
5.988345
31
0.0
0
LINE
8
MCD_Layer_0
10
229.106895
20
5.971773
30
0.0
11
227.352805
21
6.000000
31
0.0
0
LINE
8
MCD_Layer_0
10
225.318993
20
3.062919
30
0.0
11
225.319175
21
3.062919
31
0.0
0
LINE
8
MCD_Layer_0
10
229.106895
20
5.971773
30
0.0
11
227.352805
21
6.000000
31
0.0
0
LINE
8
MCD_Layer_0
10
225.161649
20
0.000182
30
0.0
11
227.352805
21
6.000000
31
0.0
0
LINE
8
MCD_Layer_0
10
225.318993
20
3.062919
30
0.0
11
225.319175
21
3.062919
31
0.0
0
LINE
8
MCD_Layer_0
10
225.161649
20
0.000182
30
0.0
11
227.352805
21
6.000000
31
0.0
0
LINE
8
MCD_Layer_0
10
227.594648
20
0.016208
30
0.0
11
221.915709
21
5.992898
31
0.0
0
LINE
8
MCD_Layer_0
10
225.318993
20
3.062919
30
0.0
11
225.319175
21
3.062919
31
0.0
0
LINE
8
MCD_Layer_0
10
237.066077
20
0.034898
30
0.0
11
233.900040
21
3.076093
31
0.0
0
LINE
8
MCD_Layer_0
10
237.077590
20
5.929484
30
0.0
11
233.900040
21
3.076093
31
0.0
0
LINE
8
MCD_Layer_0
10
233.900040
20
3.076093
30
0.0
11
233.900220
21
3.076093
31
0.0
0
LINE
8
MCD_Layer_0
10
229.663307
20
5.819932
30
0.0
11
233.900040
21
3.076093
31
0.0
0
LINE
8
MCD_Layer_0
10
229.663307
20
5.819932
30
0.0
11
232.812074
21
6.000000
31
0.0
0
LINE
8
MCD_Layer_0
10
233.900040
20
3.076093
30
0.0
11
233.900220
21
3.076093
31
0.0
0
LINE
8
MCD_Layer_0
10
229.663307
20
5.819932
30
0.0
11
232.812074
21
6.000000
31
0.0
0
LINE
8
MCD_Layer_0
10
231.574442
20
0.000000
30
0.0
11
233.416500
21
5.997841
31
0.0
0
LINE
8
MCD_Layer_0
10
233.900040
20
3.076093
30
0.0
11
233.900220
21
3.076093
31
0.0
0
LINE
8
MCD_Layer_0
10
242.614796
20
5.960330
30
0.0
11
242.640881
21
3.055339
31
0.0
0
LINE
8
MCD_Layer_0
10
242.611898
20
0.024635
30
0.0
11
242.640881
21
3.055339
31
0.0
0
LINE
8
MCD_Layer_0
10
242.640881
20
3.055339
30
0.0
11
242.641062
21
3.055339
31
0.0
0
LINE
8
MCD_Layer_0
10
242.611898
20
0.024635
30
0.0
11
242.640881
21
3.055339
31
0.0
0
LINE
8
MCD_Layer_0
10
242.611898
20
0.024635
30
0.0
11
243.197352
21
5.953809
31
0.0
0
LINE
8
MCD_Layer_0
10
242.640881
20
3.055339
30
0.0
11
242.641062
21
3.055339
31
0.0
0
LINE
8
MCD_Layer_0
10
242.611898
20
0.024635
30
0.0
11
243.197352
21
5.953809
31
0.0
0
LINE
8
MCD_Layer_0
10
237.377590
20
5.960692
30
0.0
11
243.991483
21
5.982610
31
0.0
0
LINE
8
MCD_Layer_0
10
242.640881
20
3.055339
30
0.0
11
242.641062
21
3.055339
31
0.0
0
LINE
8
MCD_Layer_0
10
237.377590
20
5.960692
30
0.0
11
243.991483
21
5.982610
31
0.0
0
LINE
8
MCD_Layer_0
10
237.377590
20
5.960692
30
0.0
11
248.194001
21
5.992935
31
0.0
0
LINE
8
MCD_Layer_0
10
242.640881
20
3.055339
30
0.0
11
242.641062
21
3.055339
31
0.0
0
LINE
8
MCD_Layer_0
10
237.377590
20
5.960692
30
0.0
11
248.194001
21
5.992935
31
0.0
0
LINE
8
MCD_Layer_0
10
246.965127
20
5.940223
30
0.0
11
245.611626
21
6.000000
31
0.0
0
LINE
8
MCD_Layer_0
10
242.640881
20
3.055339
30
0.0
11
242.641062
21
3.055339
31
0.0
0
LINE
8
MCD_Layer_0
10
246.965127
20
5.940223
30
0.0
11
245.611626
21
6.000000
31
0.0
0
LINE
8
MCD_Layer_0
10
247.683903
20
0.000000
30
0.0
11
245.611626
21
6.000000
31
0.0
0
LINE
8
MCD_Layer_0
10
242.640881
20
3.055339
30
0.0
11
242.641062
21
3.055339
31
0.0
0
LINE
8
MCD_Layer_0
10
247.683903
20
0.000000
30
0.0
11
245.611626
21
6.000000
31
0.0
0
LINE
8
MCD_Layer_0
10
242.611898
20
0.024635
30
0.0
11
240.745401
21
5.994022
31
0.0
0
LINE
8
MCD_Layer_0
10
242.640881
20
3.055339
30
0.0
11
242.641062
21
3.055339
31
0.0
0
LINE
8
MCD_Layer_0
10
251.671067
20
0.040291
30
0.0
11
259.467743
21
5.939834
31
0.0
0
LINE
8
MCD_Layer_0
10
248.494001
20
0.000000
30
0.0
11
254.310431
21
3.063057
31
0.0
0
LINE
8
MCD_Layer_0
10
254.310431
20
3.063057
30
0.0
11
254.310612
21
3.063057
31
0.0
0
LINE
8
MCD_Layer_0
10
248.494001
20
0.000000
30
0.0
11
254.310431
21
3.063057
31
0.0
0
LINE
8
MCD_Layer_0
10
252.726234
20
5.935678
30
0.0
11
254.310431
21
3.063057
31
0.0
0
LINE
8
MCD_Layer_0
10
254.310431
20
3.063057
30
0.0
11
254.310612
21
3.063057
31
0.0
0
LINE
8
MCD_Layer_0
10
252.726234
20
5.935678
30
0.0
11
254.310431
21
3.063057
31
0.0
0
LINE
8
MCD_Layer_0
10
251.671067
20
5.960793
30
0.0
11
253.200337
21
5.930438
31
0.0
0
LINE
8
MCD_Layer_0
10
254.310431
20
3.063057
30
0.0
11
254.310612
21
3.063057
31
0.0
0
LINE
8
MCD_Layer_0
10
251.671067
20
5.960793
30
0.0
11
253.200337
21
5.930438
31
0.0
0
LINE
8
MCD_Layer_0
10
251.671067
20
5.960793
30
0.0
11
250.413539
21
5.969827
31
0.0
0
LINE
8
MCD_Layer_0
10
254.310431
20
3.063057
30
0.0
11
254.310612
21
3.063057
31
0.0
0
LINE
8
MCD_Layer_0
10
251.671067
20
5.960793
30
0.0
11
250.413539
21
5.969827
31
0.0
0
LINE
8
MCD_Layer_0
10
249.823801
20
5.930619
30
0.0
11
249.239846
21
5.980306
31
0.0
0
LINE
8
MCD_Layer_0
10
254.310431
20
3.063057
30
0.0
11
254.310612
21
3.063057
31
0.0
0
LINE
8
MCD_Layer_0
10
249.823801
20
5.930619
30
0.0
11
249.239846
21
5.980306
31
0.0
0
LINE
8
MCD_Layer_0
10
251.671067
20
5.960793
30
0.0
11
257.056757
21
5.986268
31
0.0
0
LINE
8
MCD_Layer_0
10
254.310431
20
3.063057
30
0.0
11
254.310612
21
3.063057
31
0.0
0
LINE
8
MCD_Layer_0
10
251.671067
20
5.960793
30
0.0
11
257.056757
21
5.986268
31
0.0
0
LINE
8
MCD_Layer_0
10
251.671067
20
5.960793
30
0.0
11
250.014599
21
5.994399
31
0.0
0
LINE
8
MCD_Layer_0
10
254.310431
20
3.063057
30
0.0
11
254.310612
21
3.063057
31
0.0
0
LINE
8
MCD_Layer_0
10
251.671067
20
5.960793
30
0.0
11
250.014599
21
5.994399
31
0.0
0
LINE
8
MCD_Layer_0
10
252.003517
20
5.940195
30
0.0
11
250.806697
21
6.000000
31
0.0
0
LINE
8
MCD_Layer_0
10
254.310431
20
3.063057
30
0.0
11
254.310612
21
3.063057
31
0.0
0
LINE
8
MCD_Layer_0
10
252.003517
20
5.940195
30
0.0
11
250.806697
21
6.000000
31
0.0
0
LINE
8
MCD_Layer_0
10
256.831269
20
0.003433
30
0.0
11
250.806697
21
6.000000
31
0.0
0
LINE
8
MCD_Layer_0
10
254.310431
20
3.063057
30
0.0
11
254.310612
21
3.063057
31
0.0
0
LINE
8
MCD_Layer_0
10
256.831269
20
0.003433
30
0.0
11
250.806697
21
6.000000
31
0.0
0
LINE
8
MCD_Layer_0
10
256.894869
20
0.040111
30
0.0
11
257.444134
21
5.993315
31
0.0
0
LINE
8
MCD_Layer_0
10
254.310431
20
3.063057
30
0.0
11
254.310612
21
3.063057
31
0.0
0
LINE
8
MCD_Layer_0
10
267.124823
20
5.949798
30
0.0
11
259.872511
21
5.781005
31
0.0
0
LINE
8
MCD_Layer_0
10
267.124823
20
5.949798
30
0.0
11
266.496211
21
6.000000
31
0.0
0
LINE
8
MCD_Layer_0
10
262.852594
20
3.043381
30
0.0
11
262.852776
21
3.043381
31
0.0
0
LINE
8
MCD_Layer_0
10
267.124823
20
5.949798
30
0.0
11
266.496211
21
6.000000
31
0.0
0
LINE
8
MCD_Layer_0
10
268.085201
20
0.000000
30
0.0
11
259.767743
21
5.958165
31
0.0
0
LINE
8
MCD_Layer_0
10
262.852594
20
3.043381
30
0.0
11
262.852776
21
3.043381
31
0.0
0
LINE
8
MCD_Layer_0
10
268.085201
20
0.000000
30
0.0
11
259.767743
21
5.958165
31
0.0
0
LINE
8
MCD_Layer_0
10
268.088111
20
5.960166
30
0.0
11
259.767743
21
5.958165
31
0.0
0
LINE
8
MCD_Layer_0
10
262.852594
20
3.043381
30
0.0
11
262.852776
21
3.043381
31
0.0
0
LINE
8
MCD_Layer_0
10
271.589755
20
0.021207
30
0.0
11
273.352978
21
5.920793
31
0.0
0
LINE
8
MCD_Layer_0
10
270.534140
20
0.000000
30
0.0
11
274.234590
21
3.053560
31
0.0
0
LINE
8
MCD_Layer_0
10
274.234590
20
3.053560
30
0.0
11
274.234772
21
3.053560
31
0.0
0
LINE
8
MCD_Layer_0
10
270.534140
20
0.000000
30
0.0
11
274.234590
21
3.053560
31
0.0
0
LINE
8
MCD_Layer_0
10
268.388111
20
5.943268
30
0.0
11
274.234590
21
3.053560
31
0.0
0
LINE
8
MCD_Layer_0
10
274.234590
20
3.053560
30
0.0
11
274.234772
21
3.053560
31
0.0
0
LINE
8
MCD_Layer_0
10
268.388111
20
5.943268
30
0.0
11
274.234590
21
3.053560
31
0.0
0
LINE
8
MCD_Layer_0
10
271.583954
20
5.960487
30
0.0
11
277.761038
21
5.922061
31
0.0
0
LINE
8
MCD_Layer_0
10
274.234590
20
3.053560
30
0.0
11
274.234772
21
3.053560
31
0.0
0
LINE
8
MCD_Layer_0
10
271.583954
20
5.960487
30
0.0
11
277.761038
21
5.922061
31
0.0
0
LINE
8
MCD_Layer_0
10
271.583954
20
5.960487
30
0.0
11
276.160216
21
5.974262
31
0.0
0
LINE
8
MCD_Layer_0
10
274.234590
20
3.053560
30
0.0
11
274.234772
21
3.053560
31
0.0
0
LINE
8
MCD_Layer_0
10
271.583954
20
5.960487
30
0.0
11
276.160216
21
5.974262
31
0.0
0
LINE
8
MCD_Layer_0
10
272.575768
20
5.944899
30
0.0
11
278.613650
21
5.980243
31
0.0
0
LINE
8
MCD_Layer_0
10
274.234590
20
3.053560
30
0.0
11
274.234772
21
3.053560
31
0.0
0
LINE
8
MCD_Layer_0
10
272.575768
20
5.944899
30
0.0
11
278.613650
21
5.980243
31
0.0
0
LINE
8
MCD_Layer_0
10
270.534140
20
0.000000
30
0.0
11
278.613650
21
5.980243
31
0.0
0
LINE
8
MCD_Layer_0
10
274.234590
20
3.053560
30
0.0
11
274.234772
21
3.053560
31
0.0
0
LINE
8
MCD_Layer_0
10
270.534140
20
0.000000
30
0.0
11
278.613650
21
5.980243
31
0.0
0
LINE
8
MCD_Layer_0
10
276.833026
20
0.021025
30
0.0
11
274.350592
21
5.972268
31
0.0
0
LINE
8
MCD_Layer_0
10
274.234590
20
3.053560
30
0.0
11
274.234772
21
3.053560
31
0.0
0
LINE
8
MCD_Layer_0
10
276.833026
20
0.021025
30
0.0
11
274.350592
21
5.972268
31
0.0
0
LINE
8
MCD_Layer_0
10
276.833026
20
0.021025
30
0.0
11
277.207131
21
6.000000
31
0.0
0
LINE
8
MCD_Layer_0
10
274.234590
20
3.053560
30
0.0
11
274.234772
21
3.053560
31
0.0
0
LINE
8
MCD_Layer_0
10
276.833026
20
0.021025
30
0.0
11
277.207131
21
6.000000
31
0.0
0
LINE
8
MCD_Layer_0
10
275.905013
20
5.958856
30
0.0
11
277.207131
21
6.000000
31
0.0
0
LINE
8
MCD_Layer_0
10
274.234590
20
3.053560
30
0.0
11
274.234772
21
3.053560
31
0.0
0
LINE
8
MCD_Layer_0
10
287.962592
20
0.000544
30
0.0
11
284.656248
21
3.053474
31
0.0
0
LINE
8
MCD_Layer_0
10
278.919450
20
0.020846
30
0.0
11
288.136610
21
5.934743
31
0.0
0
LINE
8
MCD_Layer_0
10
284.656248
20
3.053474
30
0.0
11
284.656429
21
3.053474
31
0.0
0
LINE
8
MCD_Layer_0
10
278.919450
20
0.020846
30
0.0
11
288.136610
21
5.934743
31
0.0
0
LINE
8
MCD_Layer_0
10
278.919450
20
0.020846
30
0.0
11
286.228212
21
5.993112
31
0.0
0
LINE
8
MCD_Layer_0
10
284.656248
20
3.053474
30
0.0
11
284.656429
21
3.053474
31
0.0
0
LINE
8
MCD_Layer_0
10
278.919450
20
0.020846
30
0.0
11
286.228212
21
5.993112
31
0.0
0
LINE
8
MCD_Layer_0
10
279.157275
20
0.000000
30
0.0
11
280.566822
21
6.000000
31
0.0
0
LINE
8
MCD_Layer_0
10
284.656248
20
3.053474
30
0.0
11
284.656429
21
3.053474
31
0.0
0
LINE
8
MCD_Layer_0
10
279.157275
20
0.000000
30
0.0
11
280.566822
21
6.000000
31
0.0
0
LINE
8
MCD_Layer_0
10
280.004163
20
5.935831
30
0.0
11
280.566822
21
6.000000
31
0.0
0
LINE
8
MCD_Layer_0
10
284.656248
20
3.053474
30
0.0
11
284.656429
21
3.053474
31
0.0
0
LINE
8
MCD_Layer_0
10
280.004163
20
5.935831
30
0.0
11
280.566822
21
6.000000
31
0.0
0
LINE
8
MCD_Layer_0
10
278.913650
20
5.960665
30
0.0
11
286.280417
21
5.994381
31
0.0
0
LINE
8
MCD_Layer_0
10
284.656248
20
3.053474
30
0.0
11
284.656429
21
3.053474
31
0.0
0
LINE
8
MCD_Layer_0
10
278.919450
20
0.020846
30
0.0
11
288.786278
21
5.974441
31
0.0
0
LINE
8
MCD_Layer_0
10
279.157275
20
0.000000
30
0.0
11
289.331535
21
5.981511
31
0.0
0
LINE
8
MCD_Layer_0
10
284.656248
20
3.053474
30
0.0
11
284.656429
21
3.053474
31
0.0
0
LINE
8
MCD_Layer_0
10
279.157275
20
0.000000
30
0.0
11
289.331535
21
5.981511
31
0.0
0
LINE
8
MCD_Layer_0
10
283.078483
20
5.935287
30
0.0
11
289.331535
21
5.981511
31
0.0
0
LINE
8
MCD_Layer_0
10
284.656248
20
3.053474
30
0.0
11
284.656429
21
3.053474
31
0.0
0
LINE
8
MCD_Layer_0
10
283.078483
20
5.935287
30
0.0
11
289.331535
21
5.981511
31
0.0
0
LINE
8
MCD_Layer_0
10
278.913650
20
5.960665
30
0.0
11
288.786278
21
5.974441
31
0.0
0
LINE
8
MCD_Layer_0
10
284.656248
20
3.053474
30
0.0
11
284.656429
21
3.053474
31
0.0
0
LINE
8
MCD_Layer_0
10
278.913650
20
5.960665
30
0.0
11
288.786278
21
5.974441
31
0.0
0
LINE
8
MCD_Layer_0
10
278.913650
20
5.960665
30
0.0
11
283.426520
21
5.935650
31
0.0
0
LINE
8
MCD_Layer_0
10
284.656248
20
3.053474
30
0.0
11
284.656429
21
3.053474
31
0.0
0
LINE
8
MCD_Layer_0
10
278.913650
20
5.960665
30
0.0
11
283.426520
21
5.935650
31
0.0
0
LINE
8
MCD_Layer_0
10
287.950991
20
5.940363
30
0.0
11
284.656248
21
3.053474
31
0.0
0
LINE
8
MCD_Layer_0
10
284.656248
20
3.053474
30
0.0
11
284.656429
21
3.053474
31
0.0
0
LINE
8
MCD_Layer_0
10
287.950991
20
5.940363
30
0.0
11
284.656248
21
3.053474
31
0.0
0
LINE
8
MCD_Layer_0
10
287.962592
20
0.000544
30
0.0
11
284.656248
21
3.053474
31
0.0
0
LINE
8
MCD_Layer_0
10
284.656248
20
3.053474
30
0.0
11
284.656429
21
3.053474
31
0.0
0
LINE
8
MCD_Layer_0
10
293.001258
20
0.084957
30
0.0
11
295.434313
21
3.098611
31
0.0
0
LINE
8
MCD_Layer_0
10
293.001258
20
0.084957
30
0.0
11
289.677226
21
5.962876
31
0.0
0
LINE
8
MCD_Layer_0
10
295.434313
20
3.098611
30
0.0
11
295.434492
21
3.098611
31
0.0
0
LINE
8
MCD_Layer_0
10
293.001258
20
0.084957
30
0.0
11
289.677226
21
5.962876
31
0.0
0
LINE
8
MCD_Layer_0
10
300.551724
20
0.000000
30
0.0
11
292.978413
21
5.980546
31
0.0
0
LINE
8
MCD_Layer_0
10
295.434313
20
3.098611
30
0.0
11
295.434492
21
3.098611
31
0.0
0
LINE
8
MCD_Layer_0
10
300.551724
20
0.000000
30
0.0
11
292.978413
21
5.980546
31
0.0
0
LINE
8
MCD_Layer_0
10
289.631535
20
5.949133
30
0.0
11
299.152432
21
5.988756
31
0.0
0
LINE
8
MCD_Layer_0
10
295.434313
20
3.098611
30
0.0
11
295.434492
21
3.098611
31
0.0
0
LINE
8
MCD_Layer_0
10
289.631535
20
5.949133
30
0.0
11
299.152432
21
5.988756
31
0.0
0
LINE
8
MCD_Layer_0
10
291.739040
20
5.962162
30
0.0
11
300.585992
21
5.995359
31
0.0
0
LINE
8
MCD_Layer_0
10
295.434313
20
3.098611
30
0.0
11
295.434492
21
3.098611
31
0.0
0
LINE
8
MCD_Layer_0
10
291.739040
20
5.962162
30
0.0
11
300.585992
21
5.995359
31
0.0
0
LINE
8
MCD_Layer_0
10
291.739040
20
5.962162
30
0.0
11
297.516117
21
6.000000
31
0.0
0
LINE
8
MCD_Layer_0
10
295.434313
20
3.098611
30
0.0
11
295.434492
21
3.098611
31
0.0
0
LINE
8
MCD_Layer_0
10
291.739040
20
5.962162
30
0.0
11
297.516117
21
6.000000
31
0.0
0
LINE
8
MCD_Layer_0
10
291.739040
20
0.113692
30
0.0
11
297.516117
21
6.000000
31
0.0
0
LINE
8
MCD_Layer_0
10
295.434313
20
3.098611
30
0.0
11
295.434492
21
3.098611
31
0.0
0
LINE
8
MCD_Layer_0
10
291.739040
20
0.113692
30
0.0
11
297.516117
21
6.000000
31
0.0
0
LINE
8
MCD_Layer_0
10
291.739040
20
0.113692
30
0.0
11
300.585992
21
5.995359
31
0.0
0
LINE
8
MCD_Layer_0
10
295.434313
20
3.098611
30
0.0
11
295.434492
21
3.098611
31
0.0
0
LINE
8
MCD_Layer_0
10
294.863174
20
0.103519
30
0.0
11
297.518973
21
5.977154
31
0.0
0
LINE
8
MCD_Layer_0
10
289.962796
20
5.933962
30
0.0
11
297.518973
21
5.977154
31
0.0
0
LINE
8
MCD_Layer_0
10
295.434313
20
3.098611
30
0.0
11
295.434492
21
3.098611
31
0.0
0
LINE
8
MCD_Layer_0
10
309.071026
20
0.000000
30
0.0
11
306.632931
21
3.051247
31
0.0
0
LINE
8
MCD_Layer_0
10
300.885992
20
0.016327
30
0.0
11
303.335698
21
5.920544
31
0.0
0
LINE
8
MCD_Layer_0
10
306.632931
20
3.051247
30
0.0
11
306.633113
21
3.051247
31
0.0
0
LINE
8
MCD_Layer_0
10
300.885992
20
0.016327
30
0.0
11
303.335698
21
5.920544
31
0.0
0
LINE
8
MCD_Layer_0
10
300.885992
20
0.016327
30
0.0
11
310.661593
21
5.971882
31
0.0
0
LINE
8
MCD_Layer_0
10
306.632931
20
3.051247
30
0.0
11
306.633113
21
3.051247
31
0.0
0
LINE
8
MCD_Layer_0
10
300.885992
20
0.016327
30
0.0
11
310.661593
21
5.971882
31
0.0
0
LINE
8
MCD_Layer_0
10
305.135244
20
0.004354
30
0.0
11
307.701049
21
5.980408
31
0.0
0
LINE
8
MCD_Layer_0
10
306.632931
20
3.051247
30
0.0
11
306.633113
21
3.051247
31
0.0
0
LINE
8
MCD_Layer_0
10
305.135244
20
0.004354
30
0.0
11
307.701049
21
5.980408
31
0.0
0
LINE
8
MCD_Layer_0
10
300.885992
20
0.016327
30
0.0
11
310.261049
21
5.984943
31
0.0
0
LINE
8
MCD_Layer_0
10
306.632931
20
3.051247
30
0.0
11
306.633113
21
3.051247
31
0.0
0
LINE
8
MCD_Layer_0
10
300.885992
20
0.016327
30
0.0
11
310.261049
21
5.984943
31
0.0
0
LINE
8
MCD_Layer_0
10
300.885992
20
0.016327
30
0.0
11
308.258328
21
5.994376
31
0.0
0
LINE
8
MCD_Layer_0
10
306.632931
20
3.051247
30
0.0
11
306.633113
21
3.051247
31
0.0
0
LINE
8
MCD_Layer_0
10
300.885992
20
0.016327
30
0.0
11
308.258328
21
5.994376
31
0.0
0
LINE
8
MCD_Layer_0
10
309.071026
20
0.000000
30
0.0
11
302.540414
21
6.000000
31
0.0
0
LINE
8
MCD_Layer_0
10
306.632931
20
3.051247
30
0.0
11
306.633113
21
3.051247
31
0.0
0
LINE
8
MCD_Layer_0
10
309.071026
20
0.000000
30
0.0
11
302.540414
21
6.000000
31
0.0
0
LINE
8
MCD_Layer_0
10
306.005992
20
5.944671
30
0.0
11
302.540414
21
6.000000
31
0.0
0
LINE
8
MCD_Layer_0
10
306.632931
20
3.051247
30
0.0
11
306.633113
21
3.051247
31
0.0
0
LINE
8
MCD_Layer_0
10
306.005992
20
5.944671
30
0.0
11
302.540414
21
6.000000
31
0.0
0
LINE
8
MCD_Layer_0
10
300.891797
20
5.960635
30
0.0
11
311.816786
21
5.994195
31
0.0
0
LINE
8
MCD_Layer_0
10
306.632931
20
3.051247
30
0.0
11
306.633113
21
3.051247
31
0.0
0
LINE
8
MCD_Layer_0
10
300.891797
20
5.960635
30
0.0
11
311.816786
21
5.994195
31
0.0
0
LINE
8
MCD_Layer_0
10
300.891797
20
5.960635
30
0.0
11
310.261049
21
5.984943
31
0.0
0
LINE
8
MCD_Layer_0
10
306.632931
20
3.051247
30
0.0
11
306.633113
21
3.051247
31
0.0
0
LINE
8
MCD_Layer_0
10
300.891797
20
5.960635
30
0.0
11
310.261049
21
5.984943
31
0.0
0
LINE
8
MCD_Layer_0
10
302.081820
20
5.949206
30
0.0
11
307.701049
21
5.980408
31
0.0
0
LINE
8
MCD_Layer_0
10
306.632931
20
3.051247
30
0.0
11
306.633113
21
3.051247
31
0.0
0
LINE
8
MCD_Layer_0
10
302.081820
20
5.949206
30
0.0
11
307.701049
21
5.980408
31
0.0
0
LINE
8
MCD_Layer_0
10
300.891797
20
5.960635
30
0.0
11
303.544677
21
5.972063
31
0.0
0
LINE
8
MCD_Layer_0
10
306.632931
20
3.051247
30
0.0
11
306.633113
21
3.051247
31
0.0
0
LINE
8
MCD_Layer_0
10
300.891797
20
5.960635
30
0.0
11
303.544677
21
5.972063
31
0.0
0
LINE
8
MCD_Layer_0
10
300.891797
20
5.960635
30
0.0
11
303.335698
21
5.920544
31
0.0
0
LINE
8
MCD_Layer_0
10
306.632931
20
3.051247
30
0.0
11
306.633113
21
3.051247
31
0.0
0
LINE
8
MCD_Layer_0
10
300.891797
20
5.960635
30
0.0
11
303.335698
21
5.920544
31
0.0
0
LINE
8
MCD_Layer_0
10
312.170890
20
5.943764
30
0.0
11
306.632931
21
3.051247
31
0.0
0
LINE
8
MCD_Layer_0
10
306.632931
20
3.051247
30
0.0
11
306.633113
21
3.051247
31
0.0
0
LINE
8
MCD_Layer_0
10
312.170890
20
5.943764
30
0.0
11
306.632931
21
3.051247
31
0.0
0
LINE
8
MCD_Layer_0
10
309.071026
20
0.000000
30
0.0
11
306.632931
21
3.051247
31
0.0
0
LINE
8
MCD_Layer_0
10
306.632931
20
3.051247
30
0.0
11
306.633113
21
3.051247
31
0.0
0
LINE
8
MCD_Layer_0
10
305.135244
20
0.004354
30
0.0
11
307.701049
21
5.980408
31
0.0
0
LINE
8
MCD_Layer_0
10
302.081820
20
5.949206
30
0.0
11
307.701049
21
5.980408
31
0.0
0
LINE
8
MCD_Layer_0
10
306.632931
20
3.051247
30
0.0
11
306.633113
21
3.051247
31
0.0
0
LINE
8
MCD_Layer_0
10
312.470890
20
0.012887
30
0.0
11
316.780537
21
5.930302
31
0.0
0
LINE
8
MCD_Layer_0
10
322.890711
20
0.000000
30
0.0
11
318.220958
21
3.049460
31
0.0
0
LINE
8
MCD_Layer_0
10
318.220958
20
3.049460
30
0.0
11
318.221140
21
3.049460
31
0.0
0
LINE
8
MCD_Layer_0
10
322.890711
20
0.000000
30
0.0
11
318.220958
21
3.049460
31
0.0
0
LINE
8
MCD_Layer_0
10
320.671998
20
5.944097
30
0.0
11
318.220958
21
3.049460
31
0.0
0
LINE
8
MCD_Layer_0
10
318.220958
20
3.049460
30
0.0
11
318.221140
21
3.049460
31
0.0
0
LINE
8
MCD_Layer_0
10
320.671998
20
5.944097
30
0.0
11
318.220958
21
3.049460
31
0.0
0
LINE
8
MCD_Layer_0
10
312.476699
20
5.960432
30
0.0
11
316.989631
21
5.935384
31
0.0
0
LINE
8
MCD_Layer_0
10
318.220958
20
3.049460
30
0.0
11
318.221140
21
3.049460
31
0.0
0
LINE
8
MCD_Layer_0
10
312.476699
20
5.960432
30
0.0
11
316.989631
21
5.935384
31
0.0
0
LINE
8
MCD_Layer_0
10
312.476699
20
5.960432
30
0.0
11
319.841432
21
5.994192
31
0.0
0
LINE
8
MCD_Layer_0
10
318.220958
20
3.049460
30
0.0
11
318.221140
21
3.049460
31
0.0
0
LINE
8
MCD_Layer_0
10
312.476699
20
5.960432
30
0.0
11
319.841432
21
5.994192
31
0.0
0
LINE
8
MCD_Layer_0
10
323.750317
20
5.943552
30
0.0
11
320.338029
21
6.000000
31
0.0
0
LINE
8
MCD_Layer_0
10
318.220958
20
3.049460
30
0.0
11
318.221140
21
3.049460
31
0.0
0
LINE
8
MCD_Layer_0
10
323.750317
20
5.943552
30
0.0
11
320.338029
21
6.000000
31
0.0
0
LINE
8
MCD_Layer_0
10
316.734072
20
0.000908
30
0.0
11
320.338029
21
6.000000
31
0.0
0
LINE
8
MCD_Layer_0
10
318.220958
20
3.049460
30
0.0
11
318.221140
21
3.049460
31
0.0
0
LINE
8
MCD_Layer_0
10
316.734072
20
0.000908
30
0.0
11
320.338029
21
6.000000
31
0.0
0
LINE
8
MCD_Layer_0
10
312.470890
20
0.012887
30
0.0
11
319.841432
21
5.994192
31
0.0
0
LINE
8
MCD_Layer_0
10
318.220958
20
3.049460
30
0.0
11
318.221140
21
3.049460
31
0.0
0
LINE
8
MCD_Layer_0
10
312.470890
20
0.012887
30
0.0
11
319.841432
21
5.994192
31
0.0
0
LINE
8
MCD_Layer_0
10
312.470890
20
0.012887
30
0.0
11
315.723454
21
5.980216
31
0.0
0
LINE
8
MCD_Layer_0
10
318.220958
20
3.049460
30
0.0
11
318.221140
21
3.049460
31
0.0
0
LINE
8
MCD_Layer_0
10
312.470890
20
0.012887
30
0.0
11
315.723454
21
5.980216
31
0.0
0
LINE
8
MCD_Layer_0
10
316.734072
20
0.000908
30
0.0
11
319.893705
21
5.972230
31
0.0
0
LINE
8
MCD_Layer_0
10
318.220958
20
3.049460
30
0.0
11
318.221140
21
3.049460
31
0.0
0
LINE
8
MCD_Layer_0
10
316.734072
20
0.000908
30
0.0
11
319.893705
21
5.972230
31
0.0
0
LINE
8
MCD_Layer_0
10
317.593678
20
5.944460
30
0.0
11
319.893705
21
5.972230
31
0.0
0
LINE
8
MCD_Layer_0
10
318.220958
20
3.049460
30
0.0
11
318.221140
21
3.049460
31
0.0
0
LINE
8
MCD_Layer_0
10
317.593678
20
5.944460
30
0.0
11
319.893705
21
5.972230
31
0.0
0
LINE
8
MCD_Layer_0
10
312.476699
20
5.960432
30
0.0
11
324.005875
21
5.979127
31
0.0
0
LINE
8
MCD_Layer_0
10
318.220958
20
3.049460
30
0.0
11
318.221140
21
3.049460
31
0.0
0
LINE
8
MCD_Layer_0
10
324.771796
20
0.000000
30
0.0
11
324.305875
21
6.000000
31
0.0
0
LINE
8
MCD_Layer_0
10
324.771796
20
5.963782
30
0.0
11
324.305875
21
6.000000
31
0.0
0
LINE
8
MCD_Layer_0
10
326.309333
20
3.063609
30
0.0
11
326.309515
21
3.063609
31
0.0
0
LINE
8
MCD_Layer_0
10
329.610202
20
2.250515
30
0.0
11
332.045696
21
3.018086
31
0.0
0
LINE
8
MCD_Layer_0
10
329.610202
20
1.500343
30
0.0
11
327.514813
21
3.018086
31
0.0
0
LINE
8
MCD_Layer_0
10
327.230934
20
3.006273
30
0.0
11
329.610202
21
3.024130
31
0.0
0
LINE
8
MCD_Layer_0
10
329.610202
20
3.071015
30
0.0
11
329.621924
21
3.000687
31
0.0
0
LINE
8
MCD_Layer_0
10
329.657088
20
3.000687
30
0.0
11
328.860030
21
5.436181
31
0.0
0
LINE
8
MCD_Layer_0
10
329.627601
20
3.000687
30
0.0
11
326.609515
21
0.019414
31
0.0
0
LINE
8
MCD_Layer_0
10
329.615880
20
3.000687
30
0.0
11
329.610202
21
3.000687
31
0.0
0
LINE
8
MCD_Layer_0
10
329.633645
20
3.000687
30
0.0
11
329.680531
21
3.012408
31
0.0
0
LINE
8
MCD_Layer_0
10
329.610202
20
3.047573
30
0.0
11
329.610202
21
0.000000
31
0.0
0
LINE
8
MCD_Layer_0
10
326.628929
20
3.006364
30
0.0
11
329.610202
21
1.500343
31
0.0
0
LINE
8
MCD_Layer_0
10
327.514813
20
3.006364
30
0.0
11
327.230934
21
3.006273
31
0.0
0
LINE
8
MCD_Layer_0
10
329.610202
20
3.024130
30
0.0
11
329.610202
21
3.071015
31
0.0
0
LINE
8
MCD_Layer_0
10
329.621924
20
3.000687
30
0.0
11
329.657088
21
3.000687
31
0.0
0
LINE
8
MCD_Layer_0
10
328.109859
20
0.905298
30
0.0
11
329.615880
21
0.621419
31
0.0
0
LINE
8
MCD_Layer_0
10
328.115445
20
0.905298
30
0.0
11
329.615880
21
2.103173
31
0.0
0
LINE
8
MCD_Layer_0
10
329.615880
20
3.000687
30
0.0
11
329.633645
21
3.000687
31
0.0
0
LINE
8
MCD_Layer_0
10
329.680531
20
3.012408
30
0.0
11
329.610202
21
3.047573
31
0.0
0
LINE
8
MCD_Layer_0
10
329.610202
20
1.500343
30
0.0
11
327.514813
21
3.006364
31
0.0
0
LINE
8
MCD_Layer_0
10
328.712688
20
4.506708
30
0.0
11
332.609515
21
1.506021
31
0.0
0
LINE
8
MCD_Layer_0
10
329.597565
20
3.006364
30
0.0
11
329.610202
21
3.024130
31
0.0
0
LINE
8
MCD_Layer_0
10
329.610202
20
3.071015
30
0.0
11
329.621924
21
3.000687
31
0.0
0
LINE
8
MCD_Layer_0
10
329.657088
20
3.000687
30
0.0
11
331.110546
21
6.000000
31
0.0
0
LINE
8
MCD_Layer_0
10
328.115536
20
2.988050
30
0.0
11
328.865708
21
5.436181
31
0.0
0
LINE
8
MCD_Layer_0
10
328.127258
20
2.988050
30
0.0
11
329.615880
21
3.000687
31
0.0
0
LINE
8
MCD_Layer_0
10
329.633645
20
3.000687
30
0.0
11
329.680531
21
3.012408
31
0.0
0
LINE
8
MCD_Layer_0
10
329.610202
20
3.047573
30
0.0
11
329.610202
21
2.250515
31
0.0
0
LINE
8
MCD_Layer_0
10
332.045696
20
1.517742
30
0.0
11
329.597565
21
1.506021
31
0.0
0
LINE
8
MCD_Layer_0
10
327.514813
20
3.018086
30
0.0
11
328.712688
21
3.006364
31
0.0
0
LINE
8
MCD_Layer_0
10
329.610202
20
3.024130
30
0.0
11
329.610202
21
3.071015
31
0.0
0
LINE
8
MCD_Layer_0
10
329.621924
20
3.000687
30
0.0
11
329.657088
21
3.000687
31
0.0
0
LINE
8
MCD_Layer_0
10
328.109859
20
0.905298
30
0.0
11
329.627601
21
3.000687
31
0.0
0
LINE
8
MCD_Layer_0
10
328.109859
20
0.905298
30
0.0
11
329.627601
21
5.999084
31
0.0
0
LINE
8
MCD_Layer_0
10
329.615971
20
3.000687
30
0.0
11
329.633645
21
3.000687
31
0.0
0
LINE
8
MCD_Layer_0
10
335.899446
20
1.104509
30
0.0
11
333.266254
21
2.997066
31
0.0
0
LINE
8
MCD_Layer_0
10
332.909515
20
3.939661
30
0.0
11
338.909515
21
2.997066
31
0.0
0
LINE
8
MCD_Layer_0
10
335.899446
20
2.989931
30
0.0
11
335.899446
21
3.019390
31
0.0
0
LINE
8
MCD_Layer_0
10
335.899446
20
3.078310
30
0.0
11
335.914176
21
2.989931
31
0.0
0
LINE
8
MCD_Layer_0
10
335.958366
20
2.989931
30
0.0
11
336.842157
21
6.000000
31
0.0
0
LINE
8
MCD_Layer_0
10
335.906581
20
2.989931
30
0.0
11
336.842157
21
6.000000
31
0.0
0
LINE
8
MCD_Layer_0
10
335.921311
20
2.989931
30
0.0
11
335.899446
21
2.989931
31
0.0
0
LINE
8
MCD_Layer_0
10
335.928906
20
2.989931
30
0.0
11
335.987825
21
3.004661
31
0.0
0
LINE
8
MCD_Layer_0
10
335.899446
20
3.048850
30
0.0
11
335.899446
21
3.932642
31
0.0
0
LINE
8
MCD_Layer_0
10
338.909515
20
3.011795
30
0.0
11
335.899446
21
1.104509
31
0.0
0
LINE
8
MCD_Layer_0
10
333.266254
20
3.011795
30
0.0
11
332.909515
21
2.996950
31
0.0
0
LINE
8
MCD_Layer_0
10
335.899446
20
3.019390
30
0.0
11
335.899446
21
3.078310
31
0.0
0
LINE
8
MCD_Layer_0
10
335.914176
20
2.989931
30
0.0
11
335.958366
21
2.989931
31
0.0
0
LINE
8
MCD_Layer_0
10
334.014024
20
0.356739
30
0.0
11
335.921311
21
0.000000
31
0.0
0
LINE
8
MCD_Layer_0
10
334.021044
20
0.356739
30
0.0
11
337.806732
21
1.836169
31
0.0
0
LINE
8
MCD_Layer_0
10
335.906581
20
2.989931
30
0.0
11
335.928906
21
2.989931
31
0.0
0
LINE
8
MCD_Layer_0
10
335.987825
20
3.004661
30
0.0
11
335.899446
21
3.048850
31
0.0
0
LINE
8
MCD_Layer_0
10
335.899446
20
1.104509
30
0.0
11
333.266254
21
4.897217
31
0.0
0
LINE
8
MCD_Layer_0
10
334.745684
20
3.939776
30
0.0
11
338.909515
21
1.126374
31
0.0
0
LINE
8
MCD_Layer_0
10
335.883566
20
2.997066
30
0.0
11
335.899446
21
3.019390
31
0.0
0
LINE
8
MCD_Layer_0
10
335.899446
20
3.078310
30
0.0
11
335.914176
21
2.989931
31
0.0
0
LINE
8
MCD_Layer_0
10
335.958366
20
2.989931
30
0.0
11
336.842157
21
6.000000
31
0.0
0
LINE
8
MCD_Layer_0
10
334.035889
20
2.974050
30
0.0
11
336.849292
21
6.000000
31
0.0
0
LINE
8
MCD_Layer_0
10
334.021159
20
2.974050
30
0.0
11
335.906581
21
2.989931
31
0.0
0
LINE
8
MCD_Layer_0
10
335.928906
20
2.989931
30
0.0
11
335.987825
21
3.004661
31
0.0
0
LINE
8
MCD_Layer_0
10
335.899446
20
3.048850
30
0.0
11
335.899446
21
3.932642
31
0.0
0
LINE
8
MCD_Layer_0
10
338.909515
20
1.111644
30
0.0
11
335.883566
21
1.111644
31
0.0
0
LINE
8
MCD_Layer_0
10
333.266254
20
1.111644
30
0.0
11
334.797354
21
2.997066
31
0.0
0
LINE
8
MCD_Layer_0
10
335.899446
20
3.019390
30
0.0
11
335.899446
21
3.137229
31
0.0
0
LINE
8
MCD_Layer_0
10
342.380289
20
1.997199
30
0.0
11
340.133404
21
3.204098
31
0.0
0
LINE
8
MCD_Layer_0
10
340.895363
20
4.805121
30
0.0
11
344.914973
21
3.204098
31
0.0
0
LINE
8
MCD_Layer_0
10
342.380289
20
3.198039
30
0.0
11
342.380289
21
3.223057
31
0.0
0
LINE
8
MCD_Layer_0
10
342.380289
20
3.273092
30
0.0
11
342.392798
21
3.198039
31
0.0
0
LINE
8
MCD_Layer_0
10
342.430324
20
3.198039
30
0.0
11
343.981410
21
5.732723
31
0.0
0
LINE
8
MCD_Layer_0
10
342.386348
20
3.198039
30
0.0
11
345.182250
21
0.027265
31
0.0
0
LINE
8
MCD_Layer_0
10
342.398857
20
3.198039
30
0.0
11
342.380289
21
3.198039
31
0.0
0
LINE
8
MCD_Layer_0
10
342.405307
20
3.198039
30
0.0
11
342.455342
21
3.210548
31
0.0
0
LINE
8
MCD_Layer_0
10
342.380289
20
3.248074
30
0.0
11
342.380289
21
6.000000
31
0.0
0
LINE
8
MCD_Layer_0
10
339.209515
20
3.216607
30
0.0
11
342.380289
21
1.997199
31
0.0
0
LINE
8
MCD_Layer_0
10
340.133404
20
3.216607
30
0.0
11
339.841207
21
3.204000
31
0.0
0
LINE
8
MCD_Layer_0
10
342.380289
20
3.223057
30
0.0
11
342.380289
21
3.273092
31
0.0
0
LINE
8
MCD_Layer_0
10
342.392798
20
3.198039
30
0.0
11
342.430324
21
3.198039
31
0.0
0
LINE
8
MCD_Layer_0
10
341.179449
20
0.951154
30
0.0
11
342.398857
21
0.658957
31
0.0
0
LINE
8
MCD_Layer_0
10
341.185410
20
0.951154
30
0.0
11
340.797736
21
2.262130
31
0.0
0
LINE
8
MCD_Layer_0
10
342.386348
20
3.198039
30
0.0
11
342.405307
21
3.198039
31
0.0
0
LINE
8
MCD_Layer_0
10
342.455342
20
3.210548
30
0.0
11
342.380289
21
3.248074
31
0.0
0
LINE
8
MCD_Layer_0
10
342.380289
20
1.997199
30
0.0
11
340.133404
21
1.615486
31
0.0
0
LINE
8
MCD_Layer_0
10
341.444380
20
1.602977
30
0.0
11
345.000873
21
1.615486
31
0.0
0
LINE
8
MCD_Layer_0
10
342.366803
20
3.204098
30
0.0
11
342.380289
21
3.223057
31
0.0
0
LINE
8
MCD_Layer_0
10
342.380289
20
3.273092
30
0.0
11
342.392798
21
3.198039
31
0.0
0
LINE
8
MCD_Layer_0
10
342.430324
20
3.198039
30
0.0
11
340.779169
21
5.818623
31
0.0
0
LINE
8
MCD_Layer_0
10
340.797736
20
3.184553
30
0.0
11
341.585788
21
5.775624
31
0.0
0
LINE
8
MCD_Layer_0
10
340.785228
20
3.184553
30
0.0
11
342.386348
21
3.198039
31
0.0
0
LINE
8
MCD_Layer_0
10
342.405307
20
3.198039
30
0.0
11
342.455342
21
3.210548
31
0.0
0
LINE
8
MCD_Layer_0
10
342.380289
20
3.248074
30
0.0
11
342.380289
21
2.397479
31
0.0
0
LINE
8
MCD_Layer_0
10
344.957874
20
1.602977
30
0.0
11
342.366803
21
2.003257
31
0.0
0
LINE
8
MCD_Layer_0
10
340.133404
20
3.204098
30
0.0
11
341.422490
21
3.204098
31
0.0
0
LINE
8
MCD_Layer_0
10
342.380289
20
3.223057
30
0.0
11
342.380289
21
3.273092
31
0.0
0
LINE
8
MCD_Layer_0
10
342.392798
20
3.198039
30
0.0
11
342.430324
21
3.198039
31
0.0
0
LINE
8
MCD_Layer_0
10
341.179449
20
0.951154
30
0.0
11
342.386348
21
2.416242
31
0.0
0
LINE
8
MCD_Layer_0
10
341.197626
20
0.951154
30
0.0
11
340.384947
21
0.000000
31
0.0
0
LINE
8
MCD_Layer_0
10
342.386446
20
3.198039
30
0.0
11
342.405307
21
3.198039
31
0.0
0
LINE
8
MCD_Layer_0
10
348.655027
20
1.401884
30
0.0
11
346.181787
21
3.179478
31
0.0
0
LINE
8
MCD_Layer_0
10
347.206989
20
5.835708
30
0.0
11
351.434692
21
3.179478
31
0.0
0
LINE
8
MCD_Layer_0
10
348.655027
20
3.172777
30
0.0
11
348.655027
21
3.200447
31
0.0
0
LINE
8
MCD_Layer_0
10
348.655027
20
3.255787
30
0.0
11
348.668862
21
3.172777
31
0.0
0
LINE
8
MCD_Layer_0
10
348.710367
20
3.172777
30
0.0
11
351.311365
21
5.952442
31
0.0
0
LINE
8
MCD_Layer_0
10
348.661728
20
3.172777
30
0.0
11
351.311365
21
5.952442
31
0.0
0
LINE
8
MCD_Layer_0
10
348.675563
20
3.172777
30
0.0
11
348.655027
21
3.172777
31
0.0
0
LINE
8
MCD_Layer_0
10
348.682697
20
3.172777
30
0.0
11
348.738037
21
3.186612
31
0.0
0
LINE
8
MCD_Layer_0
10
348.655027
20
3.228117
30
0.0
11
348.655027
21
5.829115
31
0.0
0
LINE
8
MCD_Layer_0
10
351.434692
20
3.193313
30
0.0
11
348.655027
21
1.401884
31
0.0
0
LINE
8
MCD_Layer_0
10
346.181787
20
3.193313
30
0.0
11
347.206989
21
3.179370
31
0.0
0
LINE
8
MCD_Layer_0
10
348.655027
20
3.200447
30
0.0
11
348.655027
21
3.255787
31
0.0
0
LINE
8
MCD_Layer_0
10
348.668862
20
3.172777
30
0.0
11
348.710367
21
3.172777
31
0.0
0
LINE
8
MCD_Layer_0
10
346.884135
20
0.699537
30
0.0
11
348.675563
21
1.724739
31
0.0
0
LINE
8
MCD_Layer_0
10
346.890728
20
0.699537
30
0.0
11
346.904671
21
1.748951
31
0.0
0
LINE
8
MCD_Layer_0
10
348.661728
20
3.172777
30
0.0
11
348.682697
21
3.172777
31
0.0
0
LINE
8
MCD_Layer_0
10
348.738037
20
3.186612
30
0.0
11
348.655027
21
3.228117
31
0.0
0
LINE
8
MCD_Layer_0
10
348.655027
20
1.401884
30
0.0
11
346.181787
21
1.422421
31
0.0
0
LINE
8
MCD_Layer_0
10
347.231201
20
3.179478
30
0.0
11
351.482250
21
0.536975
31
0.0
0
LINE
8
MCD_Layer_0
10
348.659674
20
3.179586
30
0.0
11
348.655027
21
3.200447
31
0.0
0
LINE
8
MCD_Layer_0
10
348.655027
20
3.255787
30
0.0
11
348.668862
21
3.172777
31
0.0
0
LINE
8
MCD_Layer_0
10
348.710367
20
3.172777
30
0.0
11
348.655027
21
6.000000
31
0.0
0
LINE
8
MCD_Layer_0
10
346.019225
20
3.177424
30
0.0
11
349.547282
21
6.000000
31
0.0
0
LINE
8
MCD_Layer_0
10
346.005390
20
3.177424
30
0.0
11
348.661836
21
3.172777
31
0.0
0
LINE
8
MCD_Layer_0
10
348.682697
20
3.172777
30
0.0
11
348.738037
21
3.186612
31
0.0
0
LINE
8
MCD_Layer_0
10
348.655027
20
3.228117
30
0.0
11
348.655027
21
4.058223
31
0.0
0
LINE
8
MCD_Layer_0
10
351.482250
20
0.523140
30
0.0
11
348.659674
21
1.408694
31
0.0
0
LINE
8
MCD_Layer_0
10
346.181787
20
1.408586
30
0.0
11
347.595561
21
3.179478
31
0.0
0
LINE
8
MCD_Layer_0
10
348.655027
20
3.200447
30
0.0
11
348.655027
21
3.255787
31
0.0
0
LINE
8
MCD_Layer_0
10
348.668862
20
3.172777
30
0.0
11
348.710367
21
3.172777
31
0.0
0
LINE
8
MCD_Layer_0
10
346.884135
20
0.699537
30
0.0
11
346.890836
21
2.113311
31
0.0
0
LINE
8
MCD_Layer_0
10
346.890836
20
0.699537
30
0.0
11
346.890836
21
1.020230
31
0.0
0
LINE
8
MCD_Layer_0
10
348.661728
20
3.172777
30
0.0
11
348.682697
21
3.172777
31
0.0
0
LINE
8
MCD_Layer_0
10
348.738037
20
3.186612
30
0.0
11
348.655027
21
3.228117
31
0.0
0
LINE
8
MCD_Layer_0
10
348.655027
20
1.401884
30
0.0
11
346.181787
21
1.408586
31
0.0
0
LINE
8
MCD_Layer_0
10
346.502480
20
1.408586
30
0.0
11
351.387134
21
1.408586
31
0.0
0
LINE
8
MCD_Layer_0
10
345.482250
20
3.179478
30
0.0
11
348.655027
21
3.200447
31
0.0
0
LINE
8
MCD_Layer_0
10
348.655027
20
3.255787
30
0.0
11
348.668862
21
3.172777
31
0.0
0
LINE
8
MCD_Layer_0
10
348.710367
20
3.172777
30
0.0
11
346.884135
21
5.904884
31
0.0
0
LINE
8
MCD_Layer_0
10
346.890836
20
0.000000
30
0.0
11
346.890836
21
0.699537
31
0.0
0
LINE
8
MCD_Layer_0
10
346.904671
20
0.000000
30
0.0
11
348.661728
21
3.172777
31
0.0
0
LINE
8
MCD_Layer_0
10
355.022383
20
3.240133
30
0.0
11
357.630567
21
3.258920
31
0.0
0
LINE
8
MCD_Layer_0
10
355.022383
20
3.240133
30
0.0
11
357.630567
21
4.878986
31
0.0
0
LINE
8
MCD_Layer_0
10
357.782250
20
3.246362
30
0.0
11
355.022383
21
3.265446
31
0.0
0
LINE
8
MCD_Layer_0
10
355.022383
20
3.316073
30
0.0
11
355.035039
21
3.240133
31
0.0
0
LINE
8
MCD_Layer_0
10
355.073010
20
3.240133
30
0.0
11
355.022383
21
5.848317
31
0.0
0
LINE
8
MCD_Layer_0
10
356.661236
20
6.000000
30
0.0
11
351.788480
21
2.021128
31
0.0
0
LINE
8
MCD_Layer_0
10
353.015988
20
0.004252
30
0.0
11
355.028612
21
3.240133
31
0.0
0
LINE
8
MCD_Layer_0
10
355.047696
20
3.240133
30
0.0
11
355.098323
21
3.252789
31
0.0
0
LINE
8
MCD_Layer_0
10
355.022383
20
3.290760
30
0.0
11
355.022383
21
0.000000
31
0.0
0
LINE
8
MCD_Layer_0
10
353.803378
20
1.233738
30
0.0
11
351.786502
21
0.006230
31
0.0
0
LINE
8
MCD_Layer_0
10
351.792336
20
1.221180
30
0.0
11
351.786502
21
3.246362
31
0.0
0
LINE
8
MCD_Layer_0
10
355.022383
20
3.265446
30
0.0
11
355.022383
21
3.316073
31
0.0
0
LINE
8
MCD_Layer_0
10
355.035039
20
3.240133
30
0.0
11
355.073010
21
3.240133
31
0.0
0
LINE
8
MCD_Layer_0
10
351.782250
20
0.010086
30
0.0
11
353.003431
21
0.004252
31
0.0
0
LINE
8
MCD_Layer_0
10
354.218579
20
1.292770
30
0.0
11
355.028513
21
5.844460
31
0.0
0
LINE
8
MCD_Layer_0
10
355.028612
20
3.240133
30
0.0
11
355.047696
21
3.240133
31
0.0
0
LINE
8
MCD_Layer_0
10
355.098323
20
3.252789
30
0.0
11
355.022383
21
3.290760
31
0.0
0
LINE
8
MCD_Layer_0
10
355.022383
20
2.430099
30
0.0
11
353.075020
21
1.638854
31
0.0
0
LINE
8
MCD_Layer_0
10
355.026635
20
3.246362
30
0.0
11
353.586037
21
1.625999
31
0.0
0
LINE
8
MCD_Layer_0
10
355.026635
20
3.246362
30
0.0
11
355.022383
21
3.265446
31
0.0
0
LINE
8
MCD_Layer_0
10
361.381928
20
2.474758
30
0.0
11
359.066676
21
3.318810
31
0.0
0
LINE
8
MCD_Layer_0
10
361.431572
20
1.668972
30
0.0
11
363.949429
21
3.318810
31
0.0
0
LINE
8
MCD_Layer_0
10
364.011459
20
3.318810
30
0.0
11
361.381928
21
3.325456
31
0.0
0
LINE
8
MCD_Layer_0
10
361.381928
20
3.377014
30
0.0
11
361.394817
21
3.299678
31
0.0
0
LINE
8
MCD_Layer_0
10
361.433485
20
3.299678
30
0.0
11
359.732089
21
5.867179
31
0.0
0
LINE
8
MCD_Layer_0
10
361.401061
20
5.929209
30
0.0
11
358.101383
21
6.000000
31
0.0
0
LINE
8
MCD_Layer_0
10
361.388171
20
5.929209
30
0.0
11
361.401061
21
3.299678
31
0.0
0
LINE
8
MCD_Layer_0
10
361.407707
20
3.299678
30
0.0
11
361.459264
21
3.312567
31
0.0
0
LINE
8
MCD_Layer_0
10
361.381928
20
3.351235
30
0.0
11
361.381928
21
0.000000
31
0.0
0
LINE
8
MCD_Layer_0
10
364.082250
20
3.305921
30
0.0
11
364.011459
21
1.668972
31
0.0
0
LINE
8
MCD_Layer_0
10
359.066676
20
3.305921
30
0.0
11
359.942347
21
3.318710
31
0.0
0
LINE
8
MCD_Layer_0
10
361.381928
20
3.325456
30
0.0
11
361.381928
21
3.377014
31
0.0
0
LINE
8
MCD_Layer_0
10
361.394817
20
3.299678
30
0.0
11
361.433485
21
3.299678
31
0.0
0
LINE
8
MCD_Layer_0
10
359.732089
20
0.984425
30
0.0
11
361.388171
21
1.860097
31
0.0
0
LINE
8
MCD_Layer_0
10
359.751121
20
0.984425
30
0.0
11
361.388171
21
1.973281
31
0.0
0
LINE
8
MCD_Layer_0
10
361.388171
20
3.299678
30
0.0
11
361.407707
21
3.299678
31
0.0
0
LINE
8
MCD_Layer_0
10
361.459264
20
3.312567
30
0.0
11
361.381928
21
3.351235
31
0.0
0
LINE
8
MCD_Layer_0
10
361.381928
20
1.649839
30
0.0
11
359.066676
21
3.305921
31
0.0
0
LINE
8
MCD_Layer_0
10
360.055532
20
1.656082
30
0.0
11
364.037943
21
1.656082
31
0.0
0
LINE
8
MCD_Layer_0
10
361.368032
20
3.305921
30
0.0
11
361.381928
21
3.325456
31
0.0
0
LINE
8
MCD_Layer_0
10
361.381928
20
3.377014
30
0.0
11
361.394817
21
3.299678
31
0.0
0
LINE
8
MCD_Layer_0
10
361.433485
20
3.299678
30
0.0
11
359.732089
21
5.955693
31
0.0
0
LINE
8
MCD_Layer_0
10
359.738332
20
3.285781
30
0.0
11
363.038010
21
5.911486
31
0.0
0
LINE
8
MCD_Layer_0
10
359.751222
20
3.285781
30
0.0
11
361.388171
21
3.299678
31
0.0
0
LINE
8
MCD_Layer_0
10
361.407707
20
3.299678
30
0.0
11
361.459264
21
3.312567
31
0.0
0
LINE
8
MCD_Layer_0
10
361.381928
20
3.351235
30
0.0
11
361.381928
21
4.949517
31
0.0
0
LINE
8
MCD_Layer_0
10
363.993737
20
1.668972
30
0.0
11
361.368032
21
2.481002
31
0.0
0
LINE
8
MCD_Layer_0
10
359.066676
20
3.318810
30
0.0
11
360.055532
21
3.305921
31
0.0
0
LINE
8
MCD_Layer_0
10
361.381928
20
3.325456
30
0.0
11
361.381928
21
3.377014
31
0.0
0
LINE
8
MCD_Layer_0
10
361.394817
20
3.299678
30
0.0
11
361.433485
21
3.299678
31
0.0
0
LINE
8
MCD_Layer_0
10
360.557009
20
0.984425
30
0.0
11
361.401061
21
1.973281
31
0.0
0
LINE
8
MCD_Layer_0
10
360.563252
20
0.984425
30
0.0
11
361.401061
21
0.592810
31
0.0
0
LINE
8
MCD_Layer_0
10
361.388071
20
3.299678
30
0.0
11
361.407707
21
3.299678
31
0.0
0
LINE
8
MCD_Layer_0
10
361.459264
20
3.312567
30
0.0
11
361.381928
21
3.351235
31
0.0
0
LINE
8
MCD_Layer_0
10
361.381928
20
2.474758
30
0.0
11
359.066676
21
3.318810
31
0.0
0
LINE
8
MCD_Layer_0
10
358.675060
20
3.305820
30
0.0
11
363.905223
21
3.318810
31
0.0
0
LINE
8
MCD_Layer_0
10
361.381928
20
3.299678
30
0.0
11
361.381928
21
3.325456
31
0.0
0
LINE
8
MCD_Layer_0
10
361.381928
20
3.377014
30
0.0
11
361.394817
21
3.299678
31
0.0
0
LINE
8
MCD_Layer_0
10
361.433485
20
3.299678
30
0.0
11
361.381928
21
5.822973
31
0.0
0
LINE
8
MCD_Layer_0
10
361.401061
20
3.299678
30
0.0
11
358.082250
21
6.000000
31
0.0
0
LINE
8
MCD_Layer_0
10
361.388171
20
3.299678
30
0.0
11
361.381928
21
3.299678
31
0.0
0
LINE
8
MCD_Layer_0
10
361.407707
20
3.299678
30
0.0
11
361.459264
21
3.312567
31
0.0
0
LINE
8
MCD_Layer_0
10
361.381928
20
3.351235
30
0.0
11
361.381928
21
0.000000
31
0.0
0
LINE
8
MCD_Layer_0
10
364.082250
20
3.305921
30
0.0
11
361.381928
21
1.649839
31
0.0
0
LINE
8
MCD_Layer_0
10
359.066676
20
3.305921
30
0.0
11
358.765588
21
3.305820
31
0.0
0
LINE
8
MCD_Layer_0
10
361.381928
20
3.325456
30
0.0
11
361.381928
21
3.428571
31
0.0
0
LINE
8
MCD_Layer_0
10
367.181899
20
0.795041
30
0.0
11
364.382250
21
2.822896
31
0.0
0
LINE
8
MCD_Layer_0
10
367.181899
20
0.795041
30
0.0
11
364.382250
21
5.829809
31
0.0
0
LINE
8
MCD_Layer_0
10
371.160529
20
2.807357
30
0.0
11
367.181899
21
2.830971
31
0.0
0
LINE
8
MCD_Layer_0
10
367.181899
20
2.893615
30
0.0
11
367.197560
21
2.799649
31
0.0
0
LINE
8
MCD_Layer_0
10
367.244543
20
2.799649
30
0.0
11
365.177291
21
0.000000
31
0.0
0
LINE
8
MCD_Layer_0
10
369.209755
20
1.160505
30
0.0
11
365.184877
21
4.385815
31
0.0
0
LINE
8
MCD_Layer_0
10
367.205146
20
2.755358
30
0.0
11
367.189485
21
2.799649
31
0.0
0
LINE
8
MCD_Layer_0
10
367.213221
20
2.799649
30
0.0
11
367.275865
21
2.815310
31
0.0
0
LINE
8
MCD_Layer_0
10
367.181899
20
2.862293
30
0.0
11
367.181899
21
0.795041
31
0.0
0
LINE
8
MCD_Layer_0
10
368.768066
20
2.822896
30
0.0
11
367.137608
21
4.811844
31
0.0
0
LINE
8
MCD_Layer_0
10
370.382250
20
2.807235
30
0.0
11
367.137608
21
2.807235
31
0.0
0
LINE
8
MCD_Layer_0
10
367.181899
20
2.830971
30
0.0
11
367.181899
21
2.893615
31
0.0
0
LINE
8
MCD_Layer_0
10
367.197560
20
2.799649
30
0.0
11
367.244543
21
2.799649
31
0.0
0
LINE
8
MCD_Layer_0
10
369.186508
20
6.000000
30
0.0
11
367.189485
21
2.755358
31
0.0
0
LINE
8
MCD_Layer_0
10
365.184877
20
0.000000
30
0.0
11
369.194094
21
1.160505
31
0.0
0
LINE
8
MCD_Layer_0
10
367.189485
20
2.799649
30
0.0
11
367.213221
21
2.799649
31
0.0
0
LINE
8
MCD_Layer_0
10
367.275865
20
2.815310
30
0.0
11
367.181899
21
2.862293
31
0.0
0
LINE
8
MCD_Layer_0
10
367.181899
20
0.795041
30
0.0
11
364.382250
21
2.807235
31
0.0
0
LINE
8
MCD_Layer_0
10
367.181899
20
0.795041
30
0.0
11
364.382250
21
4.811844
31
0.0
0
LINE
8
MCD_Layer_0
10
365.542755
20
2.807235
30
0.0
11
367.181899
21
2.830971
31
0.0
0
LINE
8
MCD_Layer_0
10
374.073803
20
0.000000
30
0.0
11
374.424500
21
3.513147
31
0.0
0
LINE
8
MCD_Layer_0
10
374.073803
20
1.746447
30
0.0
11
374.424500
21
3.499503
31
0.0
0
LINE
8
MCD_Layer_0
10
374.073803
20
3.492894
30
0.0
11
374.073803
21
3.520182
31
0.0
0
LINE
8
MCD_Layer_0
10
374.073803
20
3.574758
30
0.0
11
374.087447
21
3.492894
31
0.0
0
LINE
8
MCD_Layer_0
10
374.128380
20
3.492894
30
0.0
11
374.073803
21
6.000000
31
0.0
0
LINE
8
MCD_Layer_0
10
374.080199
20
3.492894
30
0.0
11
374.073803
21
6.000000
31
0.0
0
LINE
8
MCD_Layer_0
10
371.460529
20
3.497477
30
0.0
11
374.080519
21
3.492894
31
0.0
0
LINE
8
MCD_Layer_0
10
374.101092
20
3.492894
30
0.0
11
374.155668
21
3.506538
31
0.0
0
LINE
8
MCD_Layer_0
10
374.073803
20
3.547470
30
0.0
11
374.073803
21
3.492894
31
0.0
0
LINE
8
MCD_Layer_0
10
376.580910
20
0.879619
30
0.0
11
374.078387
21
3.499609
31
0.0
0
LINE
8
MCD_Layer_0
10
377.330696
20
0.893370
30
0.0
11
374.078387
21
3.499609
31
0.0
0
LINE
8
MCD_Layer_0
10
374.073803
20
3.520182
30
0.0
11
374.073803
21
3.574758
31
0.0
0
LINE
8
MCD_Layer_0
10
374.087447
20
3.492894
30
0.0
11
374.128380
21
3.492894
31
0.0
0
LINE
8
MCD_Layer_0
10
374.073803
20
4.312287
30
0.0
11
371.474279
21
4.371873
31
0.0
0
LINE
8
MCD_Layer_0
10
374.080519
20
0.632106
30
0.0
11
371.460529
21
4.371873
31
0.0
0
LINE
8
MCD_Layer_0
10
374.080519
20
3.492894
30
0.0
11
374.101092
21
3.492894
31
0.0
0
LINE
8
MCD_Layer_0
10
380.964471
20
5.003822
30
0.0
11
383.630696
21
3.353142
31
0.0
0
LINE
8
MCD_Layer_0
10
384.267667
20
5.010142
30
0.0
11
383.630696
21
3.353142
31
0.0
0
LINE
8
MCD_Layer_0
10
380.881703
20
3.339993
30
0.0
11
380.964471
21
3.359870
31
0.0
0
LINE
8
MCD_Layer_0
10
380.964471
20
3.412059
30
0.0
11
380.977519
21
3.333775
31
0.0
0
LINE
8
MCD_Layer_0
10
381.016660
20
3.333775
30
0.0
11
382.634519
21
6.000000
31
0.0
0
LINE
8
MCD_Layer_0
10
380.983838
20
3.251007
30
0.0
11
379.300642
21
3.355385
31
0.0
0
LINE
8
MCD_Layer_0
10
380.983838
20
3.333775
30
0.0
11
380.964471
21
3.333775
31
0.0
0
LINE
8
MCD_Layer_0
10
380.990566
20
3.333775
30
0.0
11
381.042755
21
3.346822
31
0.0
0
LINE
8
MCD_Layer_0
10
380.964471
20
3.385964
30
0.0
11
380.964471
21
1.663728
31
0.0
0
LINE
8
MCD_Layer_0
10
380.986081
20
3.353142
30
0.0
11
380.964471
21
5.003822
31
0.0
0
LINE
8
MCD_Layer_0
10
381.658422
20
3.340095
30
0.0
11
380.964471
21
3.333775
31
0.0
0
LINE
8
MCD_Layer_0
10
380.964471
20
3.359870
30
0.0
11
380.964471
21
3.412059
31
0.0
0
LINE
8
MCD_Layer_0
10
380.977519
20
3.333775
30
0.0
11
381.016660
21
3.333775
31
0.0
0
LINE
8
MCD_Layer_0
10
382.634519
20
4.027725
30
0.0
11
380.970791
21
3.333775
31
0.0
0
LINE
8
MCD_Layer_0
10
380.964471
20
6.000000
30
0.0
11
377.630696
21
3.338158
31
0.0
0
LINE
8
MCD_Layer_0
10
380.970791
20
3.333775
30
0.0
11
380.990566
21
3.333775
31
0.0
0
LINE
8
MCD_Layer_0
10
381.042755
20
3.346822
30
0.0
11
380.964471
21
3.385964
31
0.0
0
LINE
8
MCD_Layer_0
10
380.964471
20
3.333775
30
0.0
11
383.630696
21
0.000000
31
0.0
0
LINE
8
MCD_Layer_0
10
380.968855
20
3.340095
30
0.0
11
383.630696
21
4.175118
31
0.0
0
LINE
8
MCD_Layer_0
10
382.629728
20
3.340197
30
0.0
11
380.964471
21
3.359870
31
0.0
0
LINE
8
MCD_Layer_0
10
380.964471
20
3.412059
30
0.0
11
380.977519
21
3.333775
31
0.0
0
LINE
8
MCD_Layer_0
10
381.016660
20
3.333775
30
0.0
11
380.964471
21
6.000000
31
0.0
0
LINE
8
MCD_Layer_0
10
381.805815
20
4.999032
30
0.0
11
379.300846
21
3.444982
31
0.0
0
LINE
8
MCD_Layer_0
10
381.805815
20
4.999032
30
0.0
11
380.970893
21
3.333775
31
0.0
0
LINE
8
MCD_Layer_0
10
380.990566
20
3.333775
30
0.0
11
381.042755
21
3.346822
31
0.0
0
LINE
8
MCD_Layer_0
10
380.964471
20
3.385964
30
0.0
11
380.964471
21
1.663728
31
0.0
0
LINE
8
MCD_Layer_0
10
382.285913
20
4.175118
30
0.0
11
383.465873
21
5.010244
31
0.0
0
LINE
8
MCD_Layer_0
10
383.585847
20
4.175118
30
0.0
11
383.465873
21
3.340197
31
0.0
0
LINE
8
MCD_Layer_0
10
380.964471
20
3.359870
30
0.0
11
380.964471
21
3.464247
31
0.0
0
LINE
8
MCD_Layer_0
10
387.992536
20
0.856217
30
0.0
11
385.932681
21
3.444727
31
0.0
0
LINE
8
MCD_Layer_0
10
387.992536
20
0.856217
30
0.0
11
385.935817
21
1.732293
31
0.0
0
LINE
8
MCD_Layer_0
10
391.410401
20
3.431453
30
0.0
11
387.992536
21
3.451625
31
0.0
0
LINE
8
MCD_Layer_0
10
387.992536
20
3.505139
30
0.0
11
388.005914
21
3.424868
31
0.0
0
LINE
8
MCD_Layer_0
10
388.046049
20
3.424868
30
0.0
11
385.423884
21
1.368150
31
0.0
0
LINE
8
MCD_Layer_0
10
388.012394
20
1.358325
30
0.0
11
384.574147
21
2.129777
31
0.0
0
LINE
8
MCD_Layer_0
10
387.998911
20
1.358325
30
0.0
11
387.999016
21
3.424868
31
0.0
0
LINE
8
MCD_Layer_0
10
388.019292
20
3.424868
30
0.0
11
388.072806
21
3.438247
31
0.0
0
LINE
8
MCD_Layer_0
10
387.992536
20
3.478382
30
0.0
11
387.992536
21
0.000000
31
0.0
0
LINE
8
MCD_Layer_0
10
386.697444
20
3.431244
30
0.0
11
385.925992
21
4.287566
31
0.0
0
LINE
8
MCD_Layer_0
10
385.932577
20
6.000000
30
0.0
11
387.992745
21
3.431453
31
0.0
0
LINE
8
MCD_Layer_0
10
387.992536
20
3.451625
30
0.0
11
387.992536
21
3.505139
31
0.0
0
LINE
8
MCD_Layer_0
10
388.005914
20
3.424868
30
0.0
11
388.046049
21
3.424868
31
0.0
0
LINE
8
MCD_Layer_0
10
385.423884
20
1.365014
30
0.0
11
387.999016
21
3.424868
31
0.0
0
LINE
8
MCD_Layer_0
10
384.567667
20
2.129777
30
0.0
11
387.998911
21
1.358325
31
0.0
0
LINE
8
MCD_Layer_0
10
387.999016
20
3.424868
30
0.0
11
388.019292
21
3.424868
31
0.0
0
LINE
8
MCD_Layer_0
10
395.710401
20
4.000000
30
0.0
11
396.434156
21
4.023193
31
0.0
0
LINE
8
MCD_Layer_0
10
395.710401
20
6.000000
30
0.0
11
396.434156
21
4.007568
31
0.0
0
LINE
8
MCD_Layer_0
10
395.710401
20
4.000000
30
0.0
11
395.710401
21
4.031250
31
0.0
0
LINE
8
MCD_Layer_0
10
395.710401
20
4.093750
30
0.0
11
395.726026
21
4.000000
31
0.0
0
LINE
8
MCD_Layer_0
10
395.772901
20
4.000000
30
0.0
11
395.710401
21
0.000000
31
0.0
0
LINE
8
MCD_Layer_0
10
395.716871
20
4.000000
30
0.0
11
395.710401
21
0.000000
31
0.0
0
LINE
8
MCD_Layer_0
10
393.216871
20
0.005249
30
0.0
11
395.718092
21
4.000000
31
0.0
0
LINE
8
MCD_Layer_0
10
395.741651
20
4.000000
30
0.0
11
395.804151
21
4.015625
31
0.0
0
LINE
8
MCD_Layer_0
10
395.710401
20
4.062500
30
0.0
11
395.710401
21
4.000000
31
0.0
0
LINE
8
MCD_Layer_0
10
391.710401
20
1.506470
30
0.0
11
391.715650
21
4.007690
31
0.0
0
LINE
8
MCD_Layer_0
10
395.654859
20
1.523071
30
0.0
11
391.715650
21
4.007690
31
0.0
0
LINE
8
MCD_Layer_0
10
395.710401
20
4.031250
30
0.0
11
395.710401
21
4.156250
31
0.0
0
LINE
8
MCD_Layer_0
10
399.739164
20
2.258097
30
0.0
11
397.626608
21
3.028254
31
0.0
0
LINE
8
MCD_Layer_0
10
399.739164
20
2.258097
30
0.0
11
397.626608
21
3.028254
31
0.0
0
LINE
8
MCD_Layer_0
10
399.705902
20
3.016493
30
0.0
11
399.739164
21
3.034318
31
0.0
0
LINE
8
MCD_Layer_0
10
399.739164
20
3.081362
30
0.0
11
399.750925
21
3.010796
31
0.0
0
LINE
8
MCD_Layer_0
10
399.786207
20
3.010796
30
0.0
11
398.986465
21
0.898240
31
0.0
0
LINE
8
MCD_Layer_0
10
398.251223
20
2.130840
30
0.0
11
401.250258
21
6.000000
31
0.0
0
LINE
8
MCD_Layer_0
10
398.251223
20
3.014747
30
0.0
11
399.744952
21
3.010796
31
0.0
0
LINE
8
MCD_Layer_0
10
399.762686
20
3.010796
30
0.0
11
399.809729
21
3.022557
31
0.0
0
LINE
8
MCD_Layer_0
10
399.739164
20
3.057840
30
0.0
11
399.739164
21
4.516194
31
0.0
0
LINE
8
MCD_Layer_0
10
402.728368
20
1.522856
30
0.0
11
399.743115
21
3.016585
31
0.0
0
LINE
8
MCD_Layer_0
10
401.334423
20
1.522764
30
0.0
11
399.743115
21
3.016585
31
0.0
0
LINE
8
MCD_Layer_0
10
399.739164
20
3.034318
30
0.0
11
399.739164
21
3.081362
31
0.0
0
LINE
8
MCD_Layer_0
10
399.750925
20
3.010796
30
0.0
11
399.786207
21
3.010796
31
0.0
0
LINE
8
MCD_Layer_0
10
399.739164
20
4.606055
30
0.0
11
398.251131
21
3.014747
31
0.0
0
LINE
8
MCD_Layer_0
10
399.744952
20
5.174806
30
0.0
11
396.745458
21
2.151514
31
0.0
0
LINE
8
MCD_Layer_0
10
399.744860
20
3.010796
30
0.0
11
399.762686
21
3.010796
31
0.0
0
LINE
8
MCD_Layer_0
10
399.809729
20
3.022557
30
0.0
11
399.739164
21
3.057840
31
0.0
0
LINE
8
MCD_Layer_0
10
399.739164
20
3.010796
30
0.0
11
401.903173
21
0.017090
31
0.0
0
LINE
8
MCD_Layer_0
10
398.879881
20
3.016493
30
0.0
11
401.496043
21
1.511003
31
0.0
0
LINE
8
MCD_Layer_0
10
399.743115
20
3.016585
30
0.0
11
399.739164
21
3.034318
31
0.0
0
LINE
8
MCD_Layer_0
10
399.739164
20
3.081362
30
0.0
11
399.750925
21
3.010796
31
0.0
0
LINE
8
MCD_Layer_0
10
399.786207
20
3.010796
30
0.0
11
399.739164
21
4.767676
31
0.0
0
LINE
8
MCD_Layer_0
10
398.239370
20
3.014747
30
0.0
11
396.734156
21
5.959572
31
0.0
0
LINE
8
MCD_Layer_0
10
398.239462
20
3.014747
30
0.0
11
399.744952
21
3.010796
31
0.0
0
LINE
8
MCD_Layer_0
10
399.762686
20
3.010796
30
0.0
11
399.809729
21
3.022557
31
0.0
0
LINE
8
MCD_Layer_0
10
399.739164
20
3.057840
30
0.0
11
399.739164
21
0.000000
31
0.0
0
LINE
8
MCD_Layer_0
10
402.687939
20
1.511095
30
0.0
11
399.743115
21
1.511187
31
0.0
0
LINE
8
MCD_Layer_0
10
397.626608
20
1.511095
30
0.0
11
398.859208
21
3.016493
31
0.0
0
LINE
8
MCD_Layer_0
10
399.739164
20
3.034318
30
0.0
11
399.739164
21
3.081362
31
0.0
0
LINE
8
MCD_Layer_0
10
399.750925
20
3.010796
30
0.0
11
399.786207
21
3.010796
31
0.0
0
LINE
8
MCD_Layer_0
10
399.739164
20
5.174806
30
0.0
11
396.745458
21
2.151514
31
0.0
0
LINE
8
MCD_Layer_0
10
399.744860
20
5.174806
30
0.0
11
399.756254
21
0.954105
31
0.0
0
LINE
8
MCD_Layer_0
10
399.744585
20
3.010796
30
0.0
11
399.762686
21
3.010796
31
0.0
0
LINE
8
MCD_Layer_0
10
399.809729
20
3.022557
30
0.0
11
399.739164
21
3.057840
31
0.0
0
LINE
8
MCD_Layer_0
10
399.739164
20
1.505398
30
0.0
11
397.626608
21
3.016493
31
0.0
0
LINE
8
MCD_Layer_0
10
399.739164
20
1.505398
30
0.0
11
397.626608
21
1.511095
31
0.0
0
LINE
8
MCD_Layer_0
10
398.859208
20
3.016493
30
0.0
11
399.739164
21
3.034318
31
0.0
0
LINE
8
MCD_Layer_0
10
406.337889
20
3.309522
30
0.0
11
403.992786
21
3.328902
31
0.0
0
LINE
8
MCD_Layer_0
10
406.337889
20
3.309522
30
0.0
11
403.992786
21
1.657719
31
0.0
0
LINE
8
MCD_Layer_0
10
406.342275
20
3.315948
30
0.0
11
406.337889
21
3.335634
31
0.0
0
LINE
8
MCD_Layer_0
10
406.337889
20
3.387858
30
0.0
11
406.350945
21
3.309522
31
0.0
0
LINE
8
MCD_Layer_0
10
406.390114
20
3.309522
30
0.0
11
406.337889
21
0.964419
31
0.0
0
LINE
8
MCD_Layer_0
10
404.686086
20
1.988814
30
0.0
11
406.344213
21
6.000000
31
0.0
0
LINE
8
MCD_Layer_0
10
404.686086
20
3.295446
30
0.0
11
406.344213
21
3.309522
31
0.0
0
LINE
8
MCD_Layer_0
10
406.364002
20
3.309522
30
0.0
11
406.416226
21
3.322578
31
0.0
0
LINE
8
MCD_Layer_0
10
406.337889
20
3.361746
30
0.0
11
406.337889
21
3.309522
31
0.0
0
LINE
8
MCD_Layer_0
10
409.028368
20
1.657719
30
0.0
11
406.323813
21
4.987029
31
0.0
0
LINE
8
MCD_Layer_0
10
403.028368
20
1.644663
30
0.0
11
406.323813
21
3.315846
31
0.0
0
LINE
8
MCD_Layer_0
10
406.337889
20
3.335634
30
0.0
11
406.337889
21
3.387858
31
0.0
0
LINE
8
MCD_Layer_0
10
406.350945
20
3.309522
30
0.0
11
406.390114
21
3.309522
31
0.0
0
LINE
8
MCD_Layer_0
10
408.009072
20
0.000000
30
0.0
11
404.673030
21
3.295446
31
0.0
0
LINE
8
MCD_Layer_0
10
404.673030
20
0.964317
30
0.0
11
406.344213
21
1.965966
31
0.0
0
LINE
8
MCD_Layer_0
10
406.344213
20
3.309522
30
0.0
11
406.364002
21
3.309522
31
0.0
0
LINE
8
MCD_Layer_0
10
406.416226
20
3.322578
30
0.0
11
406.337889
21
3.361746
31
0.0
0
LINE
8
MCD_Layer_0
10
406.337889
20
1.638339
30
0.0
11
403.992684
21
3.315846
31
0.0
0
LINE
8
MCD_Layer_0
10
406.337889
20
1.638339
30
0.0
11
403.992684
21
3.315846
31
0.0
0
LINE
8
MCD_Layer_0
10
404.994333
20
3.315846
30
0.0
11
406.337889
21
3.335634
31
0.0
0
LINE
8
MCD_Layer_0
10
412.664948
20
3.336580
30
0.0
11
415.283565
21
3.355927
31
0.0
0
LINE
8
MCD_Layer_0
10
412.664948
20
1.668290
30
0.0
11
410.335003
21
3.355927
31
0.0
0
LINE
8
MCD_Layer_0
10
410.019348
20
3.342792
30
0.0
11
412.664948
21
3.362647
31
0.0
0
LINE
8
MCD_Layer_0
10
412.664948
20
3.414782
30
0.0
11
412.677981
21
3.336580
31
0.0
0
LINE
8
MCD_Layer_0
10
412.717082
20
3.336580
30
0.0
11
410.996658
21
1.006636
31
0.0
0
LINE
8
MCD_Layer_0
10
412.684295
20
0.690980
30
0.0
11
411.002869
21
1.006636
31
0.0
0
LINE
8
MCD_Layer_0
10
414.352585
20
2.041069
30
0.0
11
412.671261
21
3.336580
31
0.0
0
LINE
8
MCD_Layer_0
10
412.691015
20
3.336580
30
0.0
11
412.743149
21
3.349614
31
0.0
0
LINE
8
MCD_Layer_0
10
412.664948
20
3.388714
30
0.0
11
412.664948
21
1.668290
31
0.0
0
LINE
8
MCD_Layer_0
10
410.335003
20
5.024217
30
0.0
11
411.369437
21
3.342894
31
0.0
0
LINE
8
MCD_Layer_0
10
415.328368
20
0.853492
30
0.0
11
412.669326
21
3.342995
31
0.0
0
LINE
8
MCD_Layer_0
10
412.664948
20
3.362647
30
0.0
11
412.664948
21
3.414782
31
0.0
0
LINE
8
MCD_Layer_0
10
412.677981
20
3.336580
30
0.0
11
412.717082
21
3.336580
31
0.0
0
LINE
8
MCD_Layer_0
10
412.664948
20
6.000000
30
0.0
11
410.181859
21
3.340959
31
0.0
0
LINE
8
MCD_Layer_0
10
409.334782
20
6.000000
30
0.0
11
410.168826
21
3.340959
31
0.0
0
LINE
8
MCD_Layer_0
10
412.671363
20
3.336580
30
0.0
11
412.691015
21
3.336580
31
0.0
0
LINE
8
MCD_Layer_0
10
412.743149
20
3.349614
30
0.0
11
412.664948
21
3.388714
31
0.0
0
LINE
8
MCD_Layer_0
10
412.664948
20
0.000000
30
0.0
11
415.328368
21
0.840458
31
0.0
0
LINE
8
MCD_Layer_0
10
412.669326
20
1.674705
30
0.0
11
410.335003
21
1.674603
31
0.0
0
LINE
8
MCD_Layer_0
10
411.323616
20
3.342894
30
0.0
11
412.664948
21
3.362647
31
0.0
0
LINE
8
MCD_Layer_0
10
412.664948
20
3.414782
30
0.0
11
412.677981
21
3.336580
31
0.0
0
LINE
8
MCD_Layer_0
10
412.717082
20
3.336580
30
0.0
11
410.996658
21
1.006636
31
0.0
0
LINE
8
MCD_Layer_0
10
411.002971
20
1.995248
30
0.0
11
411.002971
21
1.006636
31
0.0
0
LINE
8
MCD_Layer_0
10
412.671261
20
0.599440
30
0.0
11
412.671159
21
3.336580
31
0.0
0
LINE
8
MCD_Layer_0
10
412.691015
20
3.336580
30
0.0
11
412.743149
21
3.349614
31
0.0
0
LINE
8
MCD_Layer_0
10
412.664948
20
3.388714
30
0.0
11
412.664948
21
1.668290
31
0.0
0
LINE
8
MCD_Layer_0
10
410.335003
20
3.342894
30
0.0
11
409.927807
21
0.006211
31
0.0
0
LINE
8
MCD_Layer_0
10
415.283565
20
3.342894
30
0.0
11
412.664948
21
3.336580
31
0.0
0
LINE
8
MCD_Layer_0
10
412.664948
20
3.362647
30
0.0
11
412.664948
21
3.414782
31
0.0
0
LINE
8
MCD_Layer_0
10
412.677981
20
3.336580
30
0.0
11
412.717082
21
3.336580
31
0.0
0
LINE
8
MCD_Layer_0
10
409.328368
20
5.955197
30
0.0
11
412.671261
21
3.336580
31
0.0
0
LINE
8
MCD_Layer_0
10
412.664948
20
5.955197
30
0.0
11
412.684295
21
3.336580
31
0.0
0
LINE
8
MCD_Layer_0
10
412.664948
20
3.336580
30
0.0
11
412.691015
21
3.336580
31
0.0
0
LINE
8
MCD_Layer_0
10
418.903857
20
1.637745
30
0.0
11
416.605577
21
3.294482
31
0.0
0
LINE
8
MCD_Layer_0
10
416.980627
20
1.656737
30
0.0
11
416.605577
21
1.656737
31
0.0
0
LINE
8
MCD_Layer_0
10
418.867572
20
3.281687
30
0.0
11
418.903857
21
3.301080
31
0.0
0
LINE
8
MCD_Layer_0
10
418.903857
20
3.352259
30
0.0
11
418.916652
21
3.275490
31
0.0
0
LINE
8
MCD_Layer_0
10
418.955037
20
3.275490
30
0.0
11
417.266112
21
0.977209
31
0.0
0
LINE
8
MCD_Layer_0
10
417.285105
20
2.318173
30
0.0
11
415.634565
21
5.868153
31
0.0
0
LINE
8
MCD_Layer_0
10
416.466232
20
3.279788
30
0.0
11
418.910155
21
3.275490
31
0.0
0
LINE
8
MCD_Layer_0
10
418.929447
20
3.275490
30
0.0
11
418.980627
21
3.288285
31
0.0
0
LINE
8
MCD_Layer_0
10
418.903857
20
3.326669
30
0.0
11
418.903857
21
0.000000
31
0.0
0
LINE
8
MCD_Layer_0
10
421.496520
20
0.837865
30
0.0
11
418.908156
21
3.281787
31
0.0
0
LINE
8
MCD_Layer_0
10
421.540503
20
0.825070
30
0.0
11
418.908156
21
3.281787
31
0.0
0
LINE
8
MCD_Layer_0
10
418.903857
20
3.301080
30
0.0
11
418.903857
21
3.352259
31
0.0
0
LINE
8
MCD_Layer_0
10
418.916652
20
3.275490
30
0.0
11
418.955037
21
3.275490
31
0.0
0
LINE
8
MCD_Layer_0
10
418.903857
20
5.912135
30
0.0
11
416.453438
21
3.279788
31
0.0
0
LINE
8
MCD_Layer_0
10
417.272410
20
0.977209
30
0.0
11
420.547800
21
2.273291
31
0.0
0
LINE
8
MCD_Layer_0
10
418.910055
20
3.275490
30
0.0
11
418.929447
21
3.275490
31
0.0
0
LINE
8
MCD_Layer_0
10
418.980627
20
3.288285
30
0.0
11
418.903857
21
3.326669
31
0.0
0
LINE
8
MCD_Layer_0
10
418.903857
20
1.637745
30
0.0
11
416.605577
21
4.919432
31
0.0
0
LINE
8
MCD_Layer_0
10
417.901658
20
1.643942
30
0.0
11
416.605577
21
3.281687
31
0.0
0
LINE
8
MCD_Layer_0
10
417.654557
20
3.281587
30
0.0
11
418.903857
21
3.301080
31
0.0
0
LINE
8
MCD_Layer_0
10
418.903857
20
3.352259
30
0.0
11
418.916652
21
3.275490
31
0.0
0
LINE
8
MCD_Layer_0
10
418.955037
20
3.275490
30
0.0
11
417.266112
21
0.977209
31
0.0
0
LINE
8
MCD_Layer_0
10
418.910055
20
2.026190
30
0.0
11
418.909955
21
5.868153
31
0.0
0
LINE
8
MCD_Layer_0
10
418.910055
20
3.275490
30
0.0
11
418.903857
21
3.275490
31
0.0
0
LINE
8
MCD_Layer_0
10
418.929447
20
3.275490
30
0.0
11
418.980627
21
3.288285
31
0.0
0
LINE
8
MCD_Layer_0
10
418.903857
20
3.326669
30
0.0
11
418.903857
21
3.275490
31
0.0
0
LINE
8
MCD_Layer_0
10
421.496520
20
3.281687
30
0.0
11
418.903857
21
0.000000
31
0.0
0
LINE
8
MCD_Layer_0
10
421.628368
20
3.294482
30
0.0
11
418.903857
21
3.275490
31
0.0
0
LINE
8
MCD_Layer_0
10
418.903857
20
3.301080
30
0.0
11
418.903857
21
3.352259
31
0.0
0
LINE
8
MCD_Layer_0
10
418.916652
20
3.275490
30
0.0
11
418.955037
21
3.275490
31
0.0
0
LINE
8
MCD_Layer_0
10
415.628368
20
6.000000
30
0.0
11
418.922850
21
3.275490
31
0.0
0
LINE
8
MCD_Layer_0
10
417.266112
20
0.977209
30
0.0
11
418.922850
21
2.026190
31
0.0
0
LINE
8
MCD_Layer_0
10
418.909955
20
3.275490
30
0.0
11
418.929447
21
3.275490
31
0.0
0
LINE
8
MCD_Layer_0
10
425.240218
20
1.655925
30
0.0
11
422.927542
21
1.662192
31
0.0
0
LINE
8
MCD_Layer_0
10
423.227416
20
1.675128
30
0.0
11
422.927542
21
3.318117
31
0.0
0
LINE
8
MCD_Layer_0
10
425.203631
20
3.318117
30
0.0
11
425.240218
21
3.337724
31
0.0
0
LINE
8
MCD_Layer_0
10
425.240218
20
3.389472
30
0.0
11
425.253155
21
3.311850
31
0.0
0
LINE
8
MCD_Layer_0
10
425.291966
20
3.311850
30
0.0
11
423.584293
21
0.999175
31
0.0
0
LINE
8
MCD_Layer_0
10
425.246484
20
1.866959
30
0.0
11
421.934533
21
5.333243
31
0.0
0
LINE
8
MCD_Layer_0
10
425.246484
20
3.311850
30
0.0
11
425.240218
21
3.311850
31
0.0
0
LINE
8
MCD_Layer_0
10
425.266092
20
3.311850
30
0.0
11
425.317839
21
3.324787
31
0.0
0
LINE
8
MCD_Layer_0
10
425.240218
20
3.363598
30
0.0
11
425.240218
21
0.000000
31
0.0
0
LINE
8
MCD_Layer_0
10
427.261611
20
3.318117
30
0.0
11
425.240218
21
3.311850
31
0.0
0
LINE
8
MCD_Layer_0
10
427.928368
20
3.331054
30
0.0
11
425.240218
21
3.311850
31
0.0
0
LINE
8
MCD_Layer_0
10
425.240218
20
3.337724
30
0.0
11
425.240218
21
3.389472
31
0.0
0
LINE
8
MCD_Layer_0
10
425.253155
20
3.311850
30
0.0
11
425.291966
21
3.311850
31
0.0
0
LINE
8
MCD_Layer_0
10
425.240218
20
6.000000
30
0.0
11
425.259421
21
3.311850
31
0.0
0
LINE
8
MCD_Layer_0
10
423.584293
20
0.999175
30
0.0
11
425.259421
21
1.957820
31
0.0
0
LINE
8
MCD_Layer_0
10
425.246383
20
3.311850
30
0.0
11
425.266092
21
3.311850
31
0.0
0
LINE
8
MCD_Layer_0
10
425.317839
20
3.324787
30
0.0
11
425.240218
21
3.363598
31
0.0
0
LINE
8
MCD_Layer_0
10
425.240218
20
1.655925
30
0.0
11
422.927542
21
3.331054
31
0.0
0
LINE
8
MCD_Layer_0
10
423.886188
20
1.662090
30
0.0
11
422.927542
21
3.331054
31
0.0
0
LINE
8
MCD_Layer_0
10
424.249634
20
3.318117
30
0.0
11
425.240218
21
3.337724
31
0.0
0
LINE
8
MCD_Layer_0
10
425.240218
20
3.389472
30
0.0
11
425.253155
21
3.311850
31
0.0
0
LINE
8
MCD_Layer_0
10
425.291966
20
3.311850
30
0.0
11
423.584293
21
0.999175
31
0.0
0
LINE
8
MCD_Layer_0
10
425.259421
20
2.321267
30
0.0
11
421.934634
21
5.911059
31
0.0
0
LINE
8
MCD_Layer_0
10
423.603496
20
3.297903
30
0.0
11
425.246484
21
3.311850
31
0.0
0
LINE
8
MCD_Layer_0
10
425.266092
20
3.311850
30
0.0
11
425.317839
21
3.324787
31
0.0
0
LINE
8
MCD_Layer_0
10
425.240218
20
3.363598
30
0.0
11
425.240218
21
0.000000
31
0.0
0
LINE
8
MCD_Layer_0
10
427.839426
20
1.675128
30
0.0
11
425.226270
21
0.006266
31
0.0
0
LINE
8
MCD_Layer_0
10
427.261611
20
1.662192
30
0.0
11
425.226270
21
3.318117
31
0.0
0
LINE
8
MCD_Layer_0
10
425.240218
20
3.337724
30
0.0
11
425.240218
21
3.389472
31
0.0
0
LINE
8
MCD_Layer_0
10
425.253155
20
3.311850
30
0.0
11
425.291966
21
3.311850
31
0.0
0
LINE
8
MCD_Layer_0
10
421.928368
20
5.333243
30
0.0
11
423.590559
21
3.297903
31
0.0
0
LINE
8
MCD_Layer_0
10
423.590559
20
0.999175
30
0.0
11
423.590559
21
2.343906
31
0.0
0
LINE
8
MCD_Layer_0
10
425.246484
20
3.311850
30
0.0
11
425.266092
21
3.311850
31
0.0
0
ENDSEC
0
EOF
