0
SECTION
2
BLOCKS
0
BLOCK
8
0
2
OUTE
70
0
10
0.0
20
0.0
30
0.0
3
OUTE
1
OUTE
0
ENDBLK
0
BLOCK
8
0
2
OUTG
70
0
10
0.0
20
0.0
30
0.0
3
OUTG
1
OUTG
0
ENDBLK
0
BLOCK
8
0
2
OUTO
70
0
10
0.0
20
0.0
30
0.0
3
OUTO
1
OUTO
0
ENDBLK
0
BLOCK
8
0
2
OUTR
70
0
10
0.0
20
0.0
30
0.0
3
OUTR
1
OUTR
0
ENDBLK
0
BLOCK
8
0
2
OUTS
70
0
10
0.0
20
0.0
30
0.0
3
OUTS
1
OUTS
0
ENDBLK
0
BLOCK
8
0
2
OUTV
70
0
10
0.0
20
0.0
30
0.0
3
OUTV
1
OUTV
0
ENDBLK
0
ENDSEC
0
SECTION
2
ENTITIES
0
LINE
8
MCD_Layer_0
10
-6.396428
20
0.000000
30
0.0
11
12.394303
21
0.000000
31
0.0
0
LINE
8
MCD_Layer_0
10
-6.236833
20
1.944258
30
0.0
11
-6.236833
21
2.496036
31
0.0
0
LINE
8
MCD_Layer_0
10
-5.826258
20
1.212174
30
0.0
11
-5.274479
21
1.212174
31
0.0
0
LINE
8
MCD_Layer_0
10
-4.057960
20
1.944258
30
0.0
11
-5.826258
21
1.944258
31
0.0
0
LINE
8
MCD_Layer_0
10
-6.462758
20
3.690832
30
0.0
11
-5.745880
21
2.561207
31
0.0
0
LINE
8
MCD_Layer_0
10
-5.826258
20
1.944258
30
0.0
11
-5.826258
21
2.289663
31
0.0
0
LINE
8
MCD_Layer_0
10
-5.548196
20
2.532966
30
0.0
11
-5.752398
21
2.902267
31
0.0
0
LINE
8
MCD_Layer_0
10
-3.881999
20
1.996395
30
0.0
11
-4.120959
21
2.504726
31
0.0
0
LINE
8
MCD_Layer_0
10
-5.826258
20
1.944258
30
0.0
11
-5.826258
21
3.106468
31
0.0
0
LINE
8
MCD_Layer_0
10
-5.183240
20
2.806683
30
0.0
11
-4.805251
21
2.689376
31
0.0
0
LINE
8
MCD_Layer_0
10
-4.570636
20
1.944258
30
0.0
11
-5.826258
21
1.944258
31
0.0
0
LINE
8
MCD_Layer_0
10
-5.826258
20
1.944258
30
0.0
11
-5.454785
21
3.890689
31
0.0
0
LINE
8
MCD_Layer_0
10
-5.181068
20
4.107924
30
0.0
11
-4.955143
21
4.381641
31
0.0
0
LINE
8
MCD_Layer_0
10
-5.826258
20
1.944258
30
0.0
11
-5.826258
21
2.976127
31
0.0
0
LINE
8
MCD_Layer_0
10
-2.250561
20
2.780615
30
0.0
11
-1.807400
21
2.411315
31
0.0
0
LINE
8
MCD_Layer_0
10
-1.420721
20
1.944258
30
0.0
11
-5.826258
21
1.944258
31
0.0
0
LINE
8
MCD_Layer_0
10
-6.262901
20
6.658270
30
0.0
11
-7.770516
21
6.658270
31
0.0
0
LINE
8
MCD_Layer_0
10
-5.826258
20
0.000000
30
0.0
11
-1.664025
21
0.321509
31
0.0
0
LINE
8
MCD_Layer_0
10
-1.664025
20
1.944258
30
0.0
11
-5.826258
21
1.944258
31
0.0
0
LINE
8
MCD_Layer_0
10
-5.826258
20
1.959373
30
0.0
11
-1.519816
21
1.959390
31
0.0
0
LINE
8
MCD_Layer_0
10
-5.826258
20
1.944258
30
0.0
11
-7.449007
21
2.496036
31
0.0
0
LINE
8
MCD_Layer_0
10
-7.748792
20
2.496036
30
0.0
11
-5.826258
21
1.944258
31
0.0
0
LINE
8
MCD_Layer_0
10
-5.826258
20
1.944258
30
0.0
11
-5.826258
21
0.204201
31
0.0
0
LINE
8
MCD_Layer_0
10
-5.639435
20
1.351205
30
0.0
11
-5.639435
21
1.944258
31
0.0
0
LINE
8
MCD_Layer_0
10
-6.419311
20
2.313558
30
0.0
11
-6.558341
21
2.313558
31
0.0
0
LINE
8
MCD_Layer_0
10
-5.826258
20
1.944258
30
0.0
11
-5.826258
21
1.029696
31
0.0
0
LINE
8
MCD_Layer_0
10
-5.274479
20
1.029696
30
0.0
11
-3.879827
21
1.944258
31
0.0
0
LINE
8
MCD_Layer_0
10
-5.826258
20
1.944258
30
0.0
11
-6.349795
21
3.838552
31
0.0
0
LINE
8
MCD_Layer_0
10
-5.602505
20
2.656791
30
0.0
11
-5.826258
21
1.944258
31
0.0
0
LINE
8
MCD_Layer_0
10
-5.826258
20
2.428693
30
0.0
11
-5.430889
21
2.689376
31
0.0
0
LINE
8
MCD_Layer_0
10
-5.635090
20
3.045642
30
0.0
11
-5.756742
21
1.944258
31
0.0
0
LINE
8
MCD_Layer_0
10
-5.826258
20
1.944258
30
0.0
11
-4.112269
21
2.087634
31
0.0
0
LINE
8
MCD_Layer_0
10
-4.199163
20
2.283145
30
0.0
11
-5.826258
21
1.944258
31
0.0
0
LINE
8
MCD_Layer_0
10
-5.826258
20
1.944258
30
0.0
11
-6.874249
21
0.899469
31
0.0
0
LINE
8
MCD_Layer_0
10
-5.826258
20
3.110813
30
0.0
11
-5.413510
21
2.893578
31
0.0
0
LINE
8
MCD_Layer_0
10
-5.213653
20
2.663308
30
0.0
11
-4.879111
21
1.944258
31
0.0
0
LINE
8
MCD_Layer_0
10
-5.680710
20
3.955859
30
0.0
11
-5.511266
21
4.051443
31
0.0
0
LINE
8
MCD_Layer_0
10
-5.359201
20
4.173095
30
0.0
11
-5.826258
21
1.944258
31
0.0
0
LINE
8
MCD_Layer_0
10
-5.826258
20
2.789304
30
0.0
11
-3.041298
21
2.850131
31
0.0
0
LINE
8
MCD_Layer_0
10
-2.741513
20
2.806683
30
0.0
11
-2.276629
21
1.944258
31
0.0
0
LINE
8
MCD_Layer_0
10
-5.826258
20
1.944258
30
0.0
11
-5.389614
21
6.154283
31
0.0
0
LINE
8
MCD_Layer_0
10
-5.745880
20
6.380207
30
0.0
11
-6.110836
21
6.462757
31
0.0
0
LINE
8
MCD_Layer_0
10
-5.826258
20
1.944258
30
0.0
11
-5.826258
21
1.325137
31
0.0
0
LINE
8
MCD_Layer_0
10
-1.299069
20
0.182478
30
0.0
11
-1.299069
21
1.944258
31
0.0
0
LINE
8
MCD_Layer_0
10
-7.588038
20
6.288969
30
0.0
11
-7.449007
21
6.288969
31
0.0
0
LINE
8
MCD_Layer_0
10
-5.829941
20
6.250694
30
0.0
11
-5.826258
21
1.944258
31
0.0
0
LINE
8
MCD_Layer_0
10
-5.826258
20
1.944258
30
0.0
11
-5.826258
21
0.503986
31
0.0
0
LINE
8
MCD_Layer_0
10
-1.664025
20
0.503986
30
0.0
11
-5.274479
21
1.944258
31
0.0
0
LINE
8
MCD_Layer_0
10
-5.826258
20
1.944258
30
0.0
11
-7.449007
21
2.313558
31
0.0
0
LINE
8
MCD_Layer_0
10
-7.566314
20
2.313558
30
0.0
11
-5.826258
21
1.944258
31
0.0
0
LINE
8
MCD_Layer_0
10
-5.826258
20
1.944258
30
0.0
11
-5.826258
21
1.333826
31
0.0
0
LINE
8
MCD_Layer_0
10
-3.601766
20
1.177417
30
0.0
11
-3.588732
21
1.029696
31
0.0
0
LINE
8
MCD_Layer_0
10
-3.562663
20
1.944258
30
0.0
11
-5.826258
21
1.944258
31
0.0
0
LINE
8
MCD_Layer_0
10
-1.519843
20
1.944258
30
0.0
11
-5.826258
21
1.944258
31
0.0
0
LINE
8
MCD_Layer_0
10
-5.826258
20
1.944258
30
0.0
11
-6.740819
21
6.106491
31
0.0
0
LINE
8
MCD_Layer_0
10
-6.375864
20
6.106491
30
0.0
11
-5.826258
21
1.944258
31
0.0
0
LINE
8
MCD_Layer_0
10
-5.826258
20
1.944258
30
0.0
11
-5.826258
21
6.250651
31
0.0
0
LINE
8
MCD_Layer_0
10
-5.826258
20
2.172355
30
0.0
11
-2.250561
21
2.211458
31
0.0
0
LINE
8
MCD_Layer_0
10
-2.732824
20
2.141942
30
0.0
11
-3.032609
21
1.944258
31
0.0
0
LINE
8
MCD_Layer_0
10
-5.826258
20
1.944258
30
0.0
11
-5.976150
21
4.299091
31
0.0
0
LINE
8
MCD_Layer_0
10
-6.184696
20
4.212197
30
0.0
11
-6.436690
21
4.168750
31
0.0
0
LINE
8
MCD_Layer_0
10
-5.826258
20
1.425065
30
0.0
11
-3.410598
21
1.555407
31
0.0
0
LINE
8
MCD_Layer_0
10
-3.380186
20
1.703127
30
0.0
11
-3.310670
21
1.944258
31
0.0
0
LINE
8
MCD_Layer_0
10
-5.826258
20
1.944258
30
0.0
11
-5.771949
21
5.472163
31
0.0
0
LINE
8
MCD_Layer_0
10
-5.741536
20
5.055071
30
0.0
11
-5.798017
21
4.798733
31
0.0
0
LINE
8
MCD_Layer_0
10
-5.826258
20
1.944258
30
0.0
11
-5.826258
21
1.212174
31
0.0
0
LINE
8
MCD_Layer_0
10
-1.846502
20
1.394652
30
0.0
11
-1.846502
21
1.944258
31
0.0
0
LINE
8
MCD_Layer_0
10
-1.282163
20
1.833468
30
0.0
11
-3.411071
21
4.194818
31
0.0
0
LINE
8
MCD_Layer_0
10
-3.360672
20
4.772230
30
0.0
11
-3.115631
21
5.452178
31
0.0
0
LINE
8
MCD_Layer_0
10
-1.282163
20
1.833967
30
0.0
11
-2.331204
21
1.833468
31
0.0
0
LINE
8
MCD_Layer_0
10
-1.282163
20
1.833468
30
0.0
11
-1.282163
21
0.521365
31
0.0
0
LINE
8
MCD_Layer_0
10
3.030397
20
0.895011
30
0.0
11
3.290645
21
1.217823
31
0.0
0
LINE
8
MCD_Layer_0
10
3.430979
20
1.833468
30
0.0
11
-1.282163
21
1.833468
31
0.0
0
LINE
8
MCD_Layer_0
10
-1.282163
20
6.635677
30
0.0
11
-0.867243
21
6.598313
31
0.0
0
LINE
8
MCD_Layer_0
10
-0.666517
20
6.546610
30
0.0
11
-1.282163
21
1.833468
31
0.0
0
LINE
8
MCD_Layer_0
10
-1.282163
20
3.145571
30
0.0
11
3.030397
21
3.460128
31
0.0
0
LINE
8
MCD_Layer_0
10
2.672393
20
3.666936
30
0.0
11
2.336547
21
1.833468
31
0.0
0
LINE
8
MCD_Layer_0
10
-1.282163
20
1.833468
30
0.0
11
0.846311
21
4.194818
31
0.0
0
LINE
8
MCD_Layer_0
10
0.796347
20
3.617406
30
0.0
11
0.551306
21
2.937459
31
0.0
0
LINE
8
MCD_Layer_0
10
-1.282163
20
1.833468
30
0.0
11
-1.282163
21
3.145571
31
0.0
0
LINE
8
MCD_Layer_0
10
-0.872022
20
2.771926
30
0.0
11
-1.132270
21
2.449114
31
0.0
0
LINE
8
MCD_Layer_0
10
-1.281728
20
1.753960
30
0.0
11
-1.697517
21
1.790890
31
0.0
0
LINE
8
MCD_Layer_0
10
-1.897808
20
1.843026
30
0.0
11
-1.282163
21
1.833468
31
0.0
0
LINE
8
MCD_Layer_0
10
-1.282163
20
0.521365
30
0.0
11
-0.872022
21
0.206374
31
0.0
0
LINE
8
MCD_Layer_0
10
-0.514018
20
0.000000
30
0.0
11
-0.178171
21
1.833468
31
0.0
0
LINE
8
MCD_Layer_0
10
-1.282163
20
1.833468
30
0.0
11
-3.237283
21
4.194818
31
0.0
0
LINE
8
MCD_Layer_0
10
-3.216862
20
4.588449
30
0.0
11
-3.040467
21
5.228425
31
0.0
0
LINE
8
MCD_Layer_0
10
-1.282163
20
1.833468
30
0.0
11
-1.282163
21
0.723394
31
0.0
0
LINE
8
MCD_Layer_0
10
2.978261
20
0.981905
30
0.0
11
3.147704
21
1.252580
31
0.0
0
LINE
8
MCD_Layer_0
10
3.267184
20
1.833468
30
0.0
11
-1.282163
21
1.833468
31
0.0
0
LINE
8
MCD_Layer_0
10
-1.282163
20
6.494908
30
0.0
11
-1.081002
21
6.483177
31
0.0
0
LINE
8
MCD_Layer_0
10
-0.701275
20
6.382815
30
0.0
11
-1.282163
21
1.833468
31
0.0
0
LINE
8
MCD_Layer_0
10
-1.282163
20
2.943542
30
0.0
11
2.978261
21
3.316752
31
0.0
0
LINE
8
MCD_Layer_0
10
2.586368
20
3.591338
30
0.0
11
2.112794
21
1.833468
31
0.0
0
LINE
8
MCD_Layer_0
10
-1.282163
20
1.833468
30
0.0
11
0.672523
21
4.194818
31
0.0
0
LINE
8
MCD_Layer_0
10
0.652103
20
3.801188
30
0.0
11
0.475708
21
3.161212
31
0.0
0
LINE
8
MCD_Layer_0
10
-1.282163
20
1.833468
30
0.0
11
-1.282163
21
2.943542
31
0.0
0
LINE
8
MCD_Layer_0
10
-0.820320
20
2.685031
30
0.0
11
-0.989329
21
2.414356
31
0.0
0
LINE
8
MCD_Layer_0
10
-1.109243
20
1.833468
30
0.0
11
-1.282163
21
1.833468
31
0.0
0
LINE
8
MCD_Layer_0
10
-1.282163
20
1.894294
30
0.0
11
-1.483757
21
1.906459
31
0.0
0
LINE
8
MCD_Layer_0
10
-1.863050
20
2.006388
30
0.0
11
-1.282163
21
1.833468
31
0.0
0
LINE
8
MCD_Layer_0
10
-1.282163
20
0.723394
30
0.0
11
-0.820320
21
0.350184
31
0.0
0
LINE
8
MCD_Layer_0
10
-0.427992
20
0.075164
30
0.0
11
0.045581
21
1.833468
31
0.0
0
LINE
8
MCD_Layer_0
10
-1.282163
20
1.833468
30
0.0
11
-2.628589
21
4.194818
31
0.0
0
LINE
8
MCD_Layer_0
10
-2.577755
20
4.706191
30
0.0
11
-2.501288
21
5.021182
31
0.0
0
LINE
8
MCD_Layer_0
10
-1.282163
20
1.833468
30
0.0
11
-1.282163
21
1.035345
31
0.0
0
LINE
8
MCD_Layer_0
10
2.667614
20
1.253449
30
0.0
11
2.837058
21
1.432017
31
0.0
0
LINE
8
MCD_Layer_0
10
2.923952
20
1.833468
30
0.0
11
-1.282163
21
1.833468
31
0.0
0
LINE
8
MCD_Layer_0
10
-1.282163
20
6.113443
30
0.0
11
-1.186144
21
6.109098
31
0.0
0
LINE
8
MCD_Layer_0
10
-0.880711
20
6.039582
30
0.0
11
-1.282163
21
1.833468
31
0.0
0
LINE
8
MCD_Layer_0
10
-1.282163
20
2.631157
30
0.0
11
2.667614
21
2.910522
31
0.0
0
LINE
8
MCD_Layer_0
10
2.268335
20
3.052594
30
0.0
11
1.905551
21
1.833468
31
0.0
0
LINE
8
MCD_Layer_0
10
-1.282163
20
1.833468
30
0.0
11
0.064263
21
4.194818
31
0.0
0
LINE
8
MCD_Layer_0
10
0.012996
20
3.683446
30
0.0
11
-0.063037
21
3.368454
31
0.0
0
LINE
8
MCD_Layer_0
10
-1.282163
20
1.833468
30
0.0
11
-1.282163
21
2.631157
31
0.0
0
LINE
8
MCD_Layer_0
10
-0.509673
20
2.413053
30
0.0
11
-0.678682
21
2.234919
31
0.0
0
LINE
8
MCD_Layer_0
10
-0.765576
20
1.833468
30
0.0
11
-1.282163
21
1.833468
31
0.0
0
LINE
8
MCD_Layer_0
10
-1.282163
20
1.881466
30
0.0
11
-1.282163
21
1.833468
31
0.0
0
LINE
8
MCD_Layer_0
10
-1.282163
20
2.275760
30
0.0
11
-1.378181
21
2.280104
31
0.0
0
LINE
8
MCD_Layer_0
10
-1.683614
20
2.350054
30
0.0
11
-1.282163
21
1.833468
31
0.0
0
LINE
8
MCD_Layer_0
10
-1.282163
20
1.833468
30
0.0
11
-1.234165
21
1.833468
31
0.0
0
LINE
8
MCD_Layer_0
10
-1.282163
20
1.035345
30
0.0
11
-0.509673
21
0.756414
31
0.0
0
LINE
8
MCD_Layer_0
10
-0.109960
20
0.614342
30
0.0
11
0.252824
21
1.833468
31
0.0
0
LINE
8
MCD_Layer_0
10
-1.282163
20
1.833468
30
0.0
11
-2.454366
21
4.194818
31
0.0
0
LINE
8
MCD_Layer_0
10
-2.410484
20
4.659703
30
0.0
11
-2.262764
21
5.163689
31
0.0
0
LINE
8
MCD_Layer_0
10
-1.282163
20
1.833468
30
0.0
11
-1.282163
21
1.318620
31
0.0
0
LINE
8
MCD_Layer_0
10
2.688034
20
1.663590
30
0.0
11
2.814900
21
1.833468
31
0.0
0
LINE
8
MCD_Layer_0
10
2.832279
20
1.833468
30
0.0
11
-1.282163
21
1.833468
31
0.0
0
LINE
8
MCD_Layer_0
10
-0.767314
20
5.803665
30
0.0
11
-0.470136
21
5.486501
31
0.0
0
LINE
8
MCD_Layer_0
10
-0.301996
20
5.163689
30
0.0
11
-1.282163
21
1.833468
31
0.0
0
LINE
8
MCD_Layer_0
10
-1.282163
20
3.005671
30
0.0
11
1.079188
21
2.961789
31
0.0
0
LINE
8
MCD_Layer_0
10
0.613869
20
2.813635
30
0.0
11
0.110317
21
1.833468
31
0.0
0
LINE
8
MCD_Layer_0
10
-1.282163
20
1.833468
30
0.0
11
-0.767314
21
2.585972
31
0.0
0
LINE
8
MCD_Layer_0
10
-1.112284
20
2.459106
30
0.0
11
-1.282163
21
2.441728
31
0.0
0
LINE
8
MCD_Layer_0
10
-0.529659
20
1.021007
30
0.0
11
-0.212495
21
0.852867
31
0.0
0
LINE
8
MCD_Layer_0
10
1.787848
20
6.006563
30
0.0
11
1.683575
21
6.154283
31
0.0
0
LINE
8
MCD_Layer_0
10
1.509786
20
6.206420
30
0.0
11
3.349772
21
2.044187
31
0.0
0
LINE
8
MCD_Layer_0
10
3.349772
20
2.044187
30
0.0
11
3.349772
21
0.000000
31
0.0
0
LINE
8
MCD_Layer_0
10
7.512005
20
0.000000
30
0.0
11
8.063783
21
2.044187
31
0.0
0
LINE
8
MCD_Layer_0
10
2.973954
20
6.758198
30
0.0
11
2.973954
21
6.206420
31
0.0
0
LINE
8
MCD_Layer_0
10
3.349772
20
1.320792
30
0.0
11
7.512005
21
2.124564
31
0.0
0
LINE
8
MCD_Layer_0
10
5.135448
20
2.044187
30
0.0
11
3.349772
21
2.044187
31
0.0
0
LINE
8
MCD_Layer_0
10
7.664672
20
2.044187
30
0.0
11
3.349772
21
2.044187
31
0.0
0
LINE
8
MCD_Layer_0
10
3.349772
20
2.044187
30
0.0
11
4.264333
21
6.206420
31
0.0
0
LINE
8
MCD_Layer_0
10
3.929791
20
6.206420
30
0.0
11
3.349772
21
2.044187
31
0.0
0
LINE
8
MCD_Layer_0
10
3.349772
20
2.044187
30
0.0
11
3.349771
21
6.359067
31
0.0
0
LINE
8
MCD_Layer_0
10
3.349772
20
2.044187
30
0.0
11
3.349772
21
2.624206
31
0.0
0
LINE
8
MCD_Layer_0
10
8.063783
20
4.088373
30
0.0
11
8.063783
21
2.044187
31
0.0
0
LINE
8
MCD_Layer_0
10
3.349772
20
2.040487
30
0.0
11
3.349772
21
2.044187
31
0.0
0
LINE
8
MCD_Layer_0
10
3.349772
20
2.044187
30
0.0
11
3.349772
21
3.623489
31
0.0
0
LINE
8
MCD_Layer_0
10
7.316493
20
2.198424
30
0.0
11
3.249843
21
2.044187
31
0.0
0
LINE
8
MCD_Layer_0
10
3.260705
20
2.126736
30
0.0
11
1.965981
21
6.036976
31
0.0
0
LINE
8
MCD_Layer_0
10
3.349772
20
2.044187
30
0.0
11
3.349772
21
0.273717
31
0.0
0
LINE
8
MCD_Layer_0
10
7.694483
20
0.182478
30
0.0
11
7.694483
21
2.044187
31
0.0
0
LINE
8
MCD_Layer_0
10
1.488063
20
6.575720
30
0.0
11
2.813200
21
6.575720
31
0.0
0
LINE
8
MCD_Layer_0
10
3.349772
20
1.507615
30
0.0
11
7.694483
21
1.372929
31
0.0
0
LINE
8
MCD_Layer_0
10
7.694483
20
2.044187
30
0.0
11
3.349772
21
2.044187
31
0.0
0
LINE
8
MCD_Layer_0
10
2.483002
20
6.110836
30
0.0
11
3.421459
21
3.299808
31
0.0
0
LINE
8
MCD_Layer_0
10
3.349772
20
3.128192
30
0.0
11
7.459868
21
3.106468
31
0.0
0
LINE
8
MCD_Layer_0
10
7.620623
20
2.963093
30
0.0
11
7.694483
21
2.044187
31
0.0
0
LINE
8
MCD_Layer_0
10
4.112268
20
6.388897
30
0.0
11
4.112268
21
6.575720
31
0.0
0
LINE
8
MCD_Layer_0
10
3.349772
20
3.905895
30
0.0
11
7.881305
21
3.905895
31
0.0
0
LINE
8
MCD_Layer_0
10
3.349772
20
2.044187
30
0.0
11
5.120241
21
6.388897
31
0.0
0
LINE
8
MCD_Layer_0
10
4.959487
20
6.336761
30
0.0
11
4.777009
21
6.115181
31
0.0
0
LINE
8
MCD_Layer_0
10
3.349772
20
2.081117
30
0.0
11
3.432321
21
1.955120
31
0.0
0
LINE
8
MCD_Layer_0
10
7.952993
20
2.424349
30
0.0
11
9.117376
21
2.424349
31
0.0
0
LINE
8
MCD_Layer_0
10
8.774144
20
1.496753
30
0.0
11
7.952993
21
1.496753
31
0.0
0
LINE
8
MCD_Layer_0
10
8.789350
20
2.226664
30
0.0
11
7.668415
21
2.226664
31
0.0
0
LINE
8
MCD_Layer_0
10
10.307826
20
1.496753
30
0.0
11
7.952993
21
1.496753
31
0.0
0
LINE
8
MCD_Layer_0
10
7.952993
20
1.496753
30
0.0
11
8.263640
21
3.556146
31
0.0
0
LINE
8
MCD_Layer_0
10
8.832797
20
3.556146
30
0.0
11
7.952993
21
1.496753
31
0.0
0
LINE
8
MCD_Layer_0
10
7.952993
20
1.496753
30
0.0
11
7.952993
21
2.376557
31
0.0
0
LINE
8
MCD_Layer_0
10
11.289731
20
1.807400
30
0.0
11
11.289731
21
1.496753
31
0.0
0
LINE
8
MCD_Layer_0
10
8.263640
20
4.559774
30
0.0
11
7.646691
21
4.559774
31
0.0
0
LINE
8
MCD_Layer_0
10
7.952993
20
1.190451
30
0.0
11
11.932748
21
2.081117
31
0.0
0
LINE
8
MCD_Layer_0
10
11.932748
20
1.496753
30
0.0
11
7.952993
21
1.496753
31
0.0
0
LINE
8
MCD_Layer_0
10
7.952993
20
1.496753
30
0.0
11
8.537357
21
5.111552
31
0.0
0
LINE
8
MCD_Layer_0
10
9.110859
20
5.111552
30
0.0
11
7.952993
21
1.496753
31
0.0
0
LINE
8
MCD_Layer_0
10
7.952993
20
1.496753
30
0.0
11
7.952993
21
2.654618
31
0.0
0
LINE
8
MCD_Layer_0
10
12.662660
20
0.000000
30
0.0
11
12.662660
21
1.496753
31
0.0
0
LINE
8
MCD_Layer_0
10
6.456240
20
5.658986
30
0.0
11
6.777749
21
5.658986
31
0.0
0
LINE
8
MCD_Layer_0
10
7.952993
20
0.321509
30
0.0
11
8.500427
21
0.021724
31
0.0
0
LINE
8
MCD_Layer_0
10
8.500427
20
1.496753
30
0.0
11
7.952993
21
1.496753
31
0.0
0
LINE
8
MCD_Layer_0
10
7.952993
20
1.496753
30
0.0
11
6.660442
21
1.679231
31
0.0
0
LINE
8
MCD_Layer_0
10
9.245545
20
1.679231
30
0.0
11
7.952993
21
1.496753
31
0.0
0
LINE
8
MCD_Layer_0
10
7.952993
20
1.496753
30
0.0
11
7.952993
21
2.789305
31
0.0
0
LINE
8
MCD_Layer_0
10
8.934898
20
2.606826
30
0.0
11
8.934898
21
1.496753
31
0.0
0
LINE
8
MCD_Layer_0
10
9.063067
20
2.226664
30
0.0
11
9.010930
21
2.100668
31
0.0
0
LINE
8
MCD_Layer_0
10
8.880589
20
2.044186
30
0.0
11
7.952993
21
1.496753
31
0.0
0
LINE
8
MCD_Layer_0
10
7.952993
20
1.496753
30
0.0
11
7.952993
21
1.029696
31
0.0
0
LINE
8
MCD_Layer_0
10
8.500427
20
1.029696
30
0.0
11
10.490304
21
1.496753
31
0.0
0
LINE
8
MCD_Layer_0
10
8.263640
20
4.034064
30
0.0
11
8.393981
21
3.981927
31
0.0
0
LINE
8
MCD_Layer_0
10
8.446118
20
3.851586
30
0.0
11
7.952993
21
1.496753
31
0.0
0
LINE
8
MCD_Layer_0
10
7.952993
20
1.496753
30
0.0
11
7.952993
21
1.989878
31
0.0
0
LINE
8
MCD_Layer_0
10
10.194864
20
2.194079
30
0.0
11
10.194864
21
1.496753
31
0.0
0
LINE
8
MCD_Layer_0
10
8.650319
20
4.677081
30
0.0
11
8.446118
21
4.677081
31
0.0
0
LINE
8
MCD_Layer_0
10
7.952993
20
1.989878
30
0.0
11
11.016014
21
1.937741
31
0.0
0
LINE
8
MCD_Layer_0
10
10.885673
20
1.807400
30
0.0
11
10.833537
21
1.496753
31
0.0
0
LINE
8
MCD_Layer_0
10
7.464213
20
4.377296
30
0.0
11
7.464213
21
5.658986
31
0.0
0
LINE
8
MCD_Layer_0
10
7.952993
20
2.081117
30
0.0
11
12.115226
21
2.211458
31
0.0
0
LINE
8
MCD_Layer_0
10
12.058745
20
2.263594
30
0.0
11
11.932748
21
1.496753
31
0.0
0
LINE
8
MCD_Layer_0
10
7.952993
20
1.496753
30
0.0
11
7.952993
21
1.434701
31
0.0
0
LINE
8
MCD_Layer_0
10
8.719835
20
5.294030
30
0.0
11
8.924036
21
5.294030
31
0.0
0
LINE
8
MCD_Layer_0
10
7.952993
20
2.467796
30
0.0
11
12.480182
21
0.182478
31
0.0
0
LINE
8
MCD_Layer_0
10
12.480182
20
1.496753
30
0.0
11
7.952993
21
1.496753
31
0.0
0
LINE
8
MCD_Layer_0
10
7.952993
20
1.496753
30
0.0
11
6.638718
21
5.841464
31
0.0
0
LINE
8
MCD_Layer_0
10
6.777749
20
5.841464
30
0.0
11
7.952993
21
1.496753
31
0.0
0
LINE
8
MCD_Layer_0
10
7.952993
20
0.503986
30
0.0
11
12.115226
21
0.503986
31
0.0
0
LINE
8
MCD_Layer_0
10
6.777749
20
1.861709
30
0.0
11
6.660442
21
1.861709
31
0.0
0
LINE
8
MCD_Layer_0
10
10.994892
20
1.311503
30
0.0
11
11.042684
21
1.363640
31
0.0
0
LINE
8
MCD_Layer_0
10
11.824132
20
1.681403
30
0.0
11
11.793719
21
2.068082
31
0.0
0
LINE
8
MCD_Layer_0
10
11.980542
20
2.428693
30
0.0
11
12.354187
21
1.311503
31
0.0
0
LINE
8
MCD_Layer_0
10
12.936978
20
3.279657
30
0.0
11
12.789258
21
3.475169
31
0.0
0
LINE
8
MCD_Layer_0
10
11.824132
20
1.077488
30
0.0
11
15.169560
21
0.986249
31
0.0
0
LINE
8
MCD_Layer_0
10
15.295556
20
0.938458
30
0.0
11
15.469345
21
1.311503
31
0.0
0
LINE
8
MCD_Layer_0
10
11.824132
20
1.311503
30
0.0
11
11.581428
21
5.334706
31
0.0
0
LINE
8
MCD_Layer_0
10
11.907281
20
5.452013
30
0.0
11
12.128861
21
5.365119
31
0.0
0
LINE
8
MCD_Layer_0
10
11.824132
20
1.311503
30
0.0
11
11.824132
21
1.807400
31
0.0
0
LINE
8
MCD_Layer_0
10
15.551894
20
1.807400
30
0.0
11
15.278178
21
1.311503
31
0.0
0
LINE
8
MCD_Layer_0
10
12.867462
20
4.765549
30
0.0
11
12.867462
21
6.068962
31
0.0
0
LINE
8
MCD_Layer_0
10
11.824132
20
1.942086
30
0.0
11
16.581591
21
1.876915
31
0.0
0
LINE
8
MCD_Layer_0
10
16.538144
20
1.798710
30
0.0
11
16.551178
21
1.311503
31
0.0
0
LINE
8
MCD_Layer_0
10
11.824132
20
1.311503
30
0.0
11
11.637909
21
6.155856
31
0.0
0
LINE
8
MCD_Layer_0
10
11.346813
20
6.073307
30
0.0
11
11.042684
21
5.886484
31
0.0
0
LINE
8
MCD_Layer_0
10
11.824132
20
1.311503
30
0.0
11
11.824132
21
0.147720
31
0.0
0
LINE
8
MCD_Layer_0
10
15.856024
20
0.078205
30
0.0
11
15.443277
21
0.130341
31
0.0
0
LINE
8
MCD_Layer_0
10
15.047908
20
1.311503
30
0.0
11
11.824132
21
1.311503
31
0.0
0
LINE
8
MCD_Layer_0
10
10.990547
20
3.944398
30
0.0
11
12.141896
21
2.810429
31
0.0
0
LINE
8
MCD_Layer_0
10
11.824132
20
1.311503
30
0.0
11
11.824132
21
1.659680
31
0.0
0
LINE
8
MCD_Layer_0
10
12.627904
20
1.398997
30
0.0
11
12.454115
21
1.129625
31
0.0
0
LINE
8
MCD_Layer_0
10
12.441081
20
1.311503
30
0.0
11
11.824132
21
1.311503
31
0.0
0
LINE
8
MCD_Layer_0
10
11.233851
20
2.150033
30
0.0
11
11.099165
21
2.371613
31
0.0
0
LINE
8
MCD_Layer_0
10
11.038339
20
2.706156
30
0.0
11
11.824132
21
1.311503
31
0.0
0
LINE
8
MCD_Layer_0
10
11.824132
20
1.311503
30
0.0
11
11.824132
21
0.525710
31
0.0
0
LINE
8
MCD_Layer_0
10
13.405607
20
0.000000
30
0.0
11
13.405607
21
1.311503
31
0.0
0
LINE
8
MCD_Layer_0
10
10.695107
20
1.498326
30
0.0
11
10.855861
21
1.498326
31
0.0
0
LINE
8
MCD_Layer_0
10
11.824132
20
1.311503
30
0.0
11
11.824132
21
0.599570
31
0.0
0
LINE
8
MCD_Layer_0
10
12.071781
20
0.812461
30
0.0
11
11.976197
21
1.246932
31
0.0
0
LINE
8
MCD_Layer_0
10
11.889303
20
1.311503
30
0.0
11
11.824132
21
1.311503
31
0.0
0
LINE
8
MCD_Layer_0
10
12.589401
20
1.698183
30
0.0
11
12.715397
21
1.837213
31
0.0
0
LINE
8
MCD_Layer_0
10
12.932633
20
2.262995
30
0.0
11
11.824132
21
1.311503
31
0.0
0
LINE
8
MCD_Layer_0
10
11.824132
20
2.133253
30
0.0
11
13.879181
21
1.034041
31
0.0
0
LINE
8
MCD_Layer_0
10
14.952324
20
1.311503
30
0.0
11
11.824132
21
1.311503
31
0.0
0
LINE
8
MCD_Layer_0
10
11.342469
20
4.717757
30
0.0
11
11.285988
21
4.908924
31
0.0
0
LINE
8
MCD_Layer_0
10
11.281643
20
5.095747
30
0.0
11
11.824132
21
1.311503
31
0.0
0
LINE
8
MCD_Layer_0
10
11.824132
20
0.986249
30
0.0
11
15.999400
21
1.186106
31
0.0
0
LINE
8
MCD_Layer_0
10
16.112362
20
1.377273
30
0.0
11
16.142775
21
1.311503
31
0.0
0
LINE
8
MCD_Layer_0
10
11.824132
20
1.311503
30
0.0
11
12.346097
21
5.404221
31
0.0
0
LINE
8
MCD_Layer_0
10
12.415612
20
5.304293
30
0.0
11
12.480783
21
5.087057
31
0.0
0
LINE
8
MCD_Layer_0
10
11.824132
20
1.968154
30
0.0
11
15.460655
21
2.172356
31
0.0
0
LINE
8
MCD_Layer_0
10
15.460655
20
1.311503
30
0.0
11
11.824132
21
1.311503
31
0.0
0
LINE
8
MCD_Layer_0
10
11.824132
20
1.311503
30
0.0
11
12.684985
21
5.838692
31
0.0
0
LINE
8
MCD_Layer_0
10
12.684985
20
5.886484
30
0.0
11
11.824132
21
1.311503
31
0.0
0
LINE
8
MCD_Layer_0
10
11.824132
20
1.311503
30
0.0
11
11.824132
21
1.989878
31
0.0
0
LINE
8
MCD_Layer_0
10
16.399113
20
1.942086
30
0.0
11
16.316564
21
1.824779
31
0.0
0
LINE
8
MCD_Layer_0
10
16.325253
20
1.311503
30
0.0
11
11.824132
21
1.311503
31
0.0
0
LINE
8
MCD_Layer_0
10
12.002865
20
5.964689
30
0.0
11
11.889902
21
5.977723
31
0.0
0
LINE
8
MCD_Layer_0
10
11.455431
20
5.925586
30
0.0
11
11.824132
21
1.311503
31
0.0
0
LINE
8
MCD_Layer_0
10
11.824132
20
0.430126
30
0.0
11
16.029813
21
0.295440
31
0.0
0
LINE
8
MCD_Layer_0
10
15.730028
20
0.256338
30
0.0
11
15.451966
21
1.311503
31
0.0
0
LINE
8
MCD_Layer_0
10
11.824132
20
1.311503
30
0.0
11
11.064407
21
4.126876
31
0.0
0
LINE
8
MCD_Layer_0
10
12.254858
20
2.949459
30
0.0
11
11.824132
21
1.311503
31
0.0
0
LINE
8
MCD_Layer_0
10
11.824132
20
1.916018
30
0.0
11
12.766935
21
1.768297
31
0.0
0
LINE
8
MCD_Layer_0
10
12.484528
20
1.368584
30
0.0
11
12.258603
21
1.311503
31
0.0
0
LINE
8
MCD_Layer_0
10
11.824132
20
1.311503
30
0.0
11
11.242540
21
1.906729
31
0.0
0
LINE
8
MCD_Layer_0
10
11.007926
20
2.150033
30
0.0
11
10.877585
21
2.571469
31
0.0
0
LINE
8
MCD_Layer_0
10
11.824132
20
0.364956
30
0.0
11
13.218785
21
0.182478
31
0.0
0
LINE
8
MCD_Layer_0
10
13.218785
20
1.311503
30
0.0
11
11.824132
21
1.311503
31
0.0
0
LINE
8
MCD_Layer_0
10
1.075924
20
0.707545
30
0.0
11
0.000000
21
0.000000
31
0.0
0
LINE
8
MCD_Layer_0
10
0.797485
20
0.674044
30
0.0
11
0.073543
21
0.712495
31
0.0
0
LINE
8
MCD_Layer_0
10
0.000000
20
0.000000
30
0.0
11
0.000044
21
0.000000
31
0.0
0
ARC
8
MCD_Layer_0
10
-5.479772
20
2.289960
40
1.837990
50
15.410749
51
105.318620
0
ARC
8
MCD_Layer_0
10
-5.783829
20
2.000830
40
0.062036
50
133.152390
51
294.227745
0
ARC
8
MCD_Layer_0
10
-5.805176
20
47.525612
40
45.581355
50
273.163924
51
270.016167
0
ARC
8
MCD_Layer_0
10
-5.304383
20
2.928607
40
1.054636
50
246.529007
51
119.659109
0
ARC
8
MCD_Layer_0
10
-5.774191
20
2.012144
40
0.062154
50
286.267146
51
146.899175
0
ARC
8
MCD_Layer_0
10
-5.783829
20
4.397641
40
2.453515
50
269.405497
51
337.435810
0
ARC
8
MCD_Layer_0
10
-5.805176
20
3.796011
40
1.851797
50
269.602062
51
277.773296
0
ARC
8
MCD_Layer_0
10
-4.760288
20
3.149236
40
1.534024
50
225.981974
51
73.099593
0
ARC
8
MCD_Layer_0
10
-6.646581
20
-0.107385
40
2.241115
50
45.615211
51
68.528791
0
ARC
8
MCD_Layer_0
10
-5.268849
20
3.352895
40
1.420722
50
258.392245
51
113.100294
0
ARC
8
MCD_Layer_0
10
-5.546227
20
2.097002
40
0.304188
50
202.988717
51
210.141386
0
ARC
8
MCD_Layer_0
10
-5.715943
20
2.012144
40
0.115419
50
197.102729
51
216.027373
0
ARC
8
MCD_Layer_0
10
-5.679632
20
2.038391
40
0.146828
50
219.874590
51
176.995307
0
ARC
8
MCD_Layer_0
10
-5.422328
20
2.097002
40
0.421037
50
339.924694
51
163.610727
0
ARC
8
MCD_Layer_0
10
-5.769686
20
1.998001
40
0.058313
50
247.166346
51
165.963757
0
ARC
8
MCD_Layer_0
10
-5.766857
20
2.083212
40
0.145288
50
114.132380
51
286.979711
0
ARC
8
MCD_Layer_0
10
-5.805110
20
3.795083
40
1.850869
50
269.603915
51
277.775148
0
ARC
8
MCD_Layer_0
10
-5.805110
20
2.139696
40
0.195856
50
266.254299
51
294.326786
0
ARC
8
MCD_Layer_0
10
-6.325813
20
1.961230
40
0.499844
50
179.057653
51
1.945777
0
ARC
8
MCD_Layer_0
10
-3.863681
20
1.052996
40
2.934197
50
80.267735
51
100.737684
0
ARC
8
MCD_Layer_0
10
-1.470571
20
2.582392
40
3.357642
50
86.783253
51
231.445699
0
ARC
8
MCD_Layer_0
10
-3.025054
20
2.179923
40
3.785813
50
262.430873
51
97.336394
0
ARC
8
MCD_Layer_0
10
-1.780431
20
1.641775
40
4.460108
50
148.717939
51
247.422168
0
ARC
8
MCD_Layer_0
10
-1.187956
20
4.399470
40
2.351965
50
30.331717
51
330.009003
0
ARC
8
MCD_Layer_0
10
0.287934
20
-1.373790
40
5.553670
50
105.674936
51
74.452140
0
ARC
8
MCD_Layer_0
10
-1.564888
20
3.603319
40
2.716706
50
135.195696
51
224.637394
0
ARC
8
MCD_Layer_0
10
-1.348605
20
1.248559
40
2.297655
50
344.943468
51
14.747972
0
ARC
8
MCD_Layer_0
10
-3.803290
20
2.445930
40
3.135639
50
295.286097
51
245.461616
0
ARC
8
MCD_Layer_0
10
-2.220195
20
1.981022
40
2.463310
50
125.355391
51
54.665934
0
ARC
8
MCD_Layer_0
10
-2.518823
20
116.183716
40
112.265700
50
268.502322
51
271.518249
0
ARC
8
MCD_Layer_0
10
-2.574518
20
-135.261749
40
139.252150
50
88.753110
51
91.155818
0
ARC
8
MCD_Layer_0
10
-3.480735
20
-36.655088
40
40.661698
50
92.682050
51
87.390807
0
ARC
8
MCD_Layer_0
10
-2.324851
20
3.990178
40
0.695645
50
357.880925
51
357.880925
0
ARC
8
MCD_Layer_0
10
-2.938404
20
69.447386
40
65.509600
50
272.178640
51
267.800110
0
ARC
8
MCD_Layer_0
10
-1.756282
20
2.116774
40
2.855429
50
25.874659
51
231.340594
0
ARC
8
MCD_Layer_0
10
-2.470938
20
0.578257
40
3.566631
50
339.528033
51
20.605531
0
ARC
8
MCD_Layer_0
10
-1.262737
20
3.733206
40
2.247473
50
269.504760
51
19.273853
0
ARC
8
MCD_Layer_0
10
1.082391
20
-0.346785
40
4.896801
50
200.471211
51
159.765198
0
ARC
8
MCD_Layer_0
10
-3.477181
20
1.632157
40
2.447510
50
236.515839
51
301.839199
0
ARC
8
MCD_Layer_0
10
-4.388826
20
0.935441
40
3.106669
50
104.658800
51
285.421414
0
ARC
8
MCD_Layer_0
10
-5.105529
20
3.946688
40
2.850027
50
0.093294
51
0.093294
0
ARC
8
MCD_Layer_0
10
-1.440400
20
34.511839
40
30.571378
50
268.472177
51
270.166104
0
ARC
8
MCD_Layer_0
10
-0.239474
20
3.964058
40
1.112546
50
181.208708
51
181.208708
0
ARC
8
MCD_Layer_0
10
-1.376911
20
39.794551
40
35.853971
50
270.040172
51
272.373896
0
ARC
8
MCD_Layer_0
10
-0.169865
20
3.969759
40
3.475716
50
180.015300
51
180.015300
0
ARC
8
MCD_Layer_0
10
-3.313385
20
-352.310155
40
356.279141
50
90.053423
51
89.807486
0
ARC
8
MCD_Layer_0
10
-25.532912
20
-22.417929
40
33.711534
50
51.505050
51
38.496357
0
ARC
8
MCD_Layer_0
10
0.742349
20
-476.410794
40
480.377176
50
89.826911
51
90.108802
0
ARC
8
MCD_Layer_0
10
-0.207054
20
2.875850
40
1.077380
50
80.590332
51
11.178672
0
ARC
8
MCD_Layer_0
10
-2.258020
20
2.534433
40
3.115136
50
352.197200
51
153.098438
0
ARC
8
MCD_Layer_0
10
-2.366675
20
-53.573354
40
57.482362
50
88.641742
51
92.314952
0
ARC
8
MCD_Layer_0
10
-1.493187
20
3.649982
40
2.710385
50
138.434102
51
222.082887
0
ARC
8
MCD_Layer_0
10
-4.784581
20
0.143890
40
5.863797
50
342.976984
51
16.746462
0
ARC
8
MCD_Layer_0
10
-0.917376
20
-0.254498
40
4.398422
50
106.762400
51
73.705071
0
ARC
8
MCD_Layer_0
10
-1.505579
20
0.963104
40
3.169451
50
274.042161
51
318.049375
0
ARC
8
MCD_Layer_0
10
-1.273180
20
3.050897
40
2.565000
50
210.117133
51
149.930121
0
ARC
8
MCD_Layer_0
10
-1.340966
20
3.423878
40
2.216750
50
14.687670
51
167.094463
0
ARC
8
MCD_Layer_0
10
-1.303955
20
1.622417
40
2.355555
50
22.626143
51
337.508364
0
ARC
8
MCD_Layer_0
10
-3.856945
20
-296.914443
40
300.904356
50
89.906836
51
89.999492
0
ARC
8
MCD_Layer_0
10
-2.020640
20
-3.624010
40
8.409598
50
64.215196
51
84.962161
0
ARC
8
MCD_Layer_0
10
-3.496028
20
36.560812
40
32.611436
50
271.080504
51
271.324690
0
ARC
8
MCD_Layer_0
10
-2.112196
20
76.642381
40
72.736160
50
272.735710
51
267.257733
0
ARC
8
MCD_Layer_0
10
-3.053163
20
-110.579334
40
114.565105
50
91.165487
51
91.235128
0
ARC
8
MCD_Layer_0
10
-3.792268
20
-30.948513
40
34.938489
50
89.303467
51
90.557441
0
ARC
8
MCD_Layer_0
10
-0.578060
20
2.021549
40
3.241399
50
155.555166
51
204.999630
0
ARC
8
MCD_Layer_0
10
-1.000562
20
3.642514
40
2.599600
50
43.997628
51
315.901496
0
ARC
8
MCD_Layer_0
10
-1.861203
20
2.209374
40
3.495751
50
80.465520
51
38.918401
0
ARC
8
MCD_Layer_0
10
-2.404404
20
1.008432
40
3.353388
50
14.242750
51
118.281096
0
ARC
8
MCD_Layer_0
10
-2.419621
20
1.676289
40
2.338463
50
242.300316
51
297.170868
0
ARC
8
MCD_Layer_0
10
-2.335378
20
2.888425
40
1.540751
50
43.225343
51
219.762762
0
ARC
8
MCD_Layer_0
10
-1.104270
20
4.342046
40
2.504073
50
39.497360
51
320.141514
0
ARC
8
MCD_Layer_0
10
-3.844545
20
743.269135
40
739.338469
50
270.031561
51
270.263227
0
ARC
8
MCD_Layer_0
10
5.421570
20
8.503172
40
7.256100
50
218.723184
51
230.849263
0
ARC
8
MCD_Layer_0
10
3.010464
20
952.187408
40
948.250701
50
269.681815
51
269.740627
0
ARC
8
MCD_Layer_0
10
-4.549314
20
3.966842
40
3.267215
50
359.641921
51
359.641921
0
ARC
8
MCD_Layer_0
10
-1.922954
20
61.009992
40
57.067167
50
270.643372
51
268.270210
0
ARC
8
MCD_Layer_0
10
31.648663
20
67.635720
40
73.521739
50
239.869189
51
243.390588
0
ARC
8
MCD_Layer_0
10
-4.688702
20
4.345254
40
3.460896
50
10.168095
51
349.831905
0
ARC
8
MCD_Layer_0
10
-2.342234
20
1.850440
40
1.060207
50
179.562904
51
0.917215
0
ARC
8
MCD_Layer_0
10
-1.586581
20
11.419871
40
7.279663
50
255.555709
51
284.448474
0
ARC
8
MCD_Layer_0
10
-5.291660
20
-0.486970
40
6.249107
50
85.740258
51
343.464218
0
ARC
8
MCD_Layer_0
10
-3.445004
20
3.264339
40
2.518125
50
289.534094
51
214.403463
0
ARC
8
MCD_Layer_0
10
-0.476380
20
0.743036
40
5.279082
50
163.997655
51
123.351442
0
ARC
8
MCD_Layer_0
10
-1.441671
20
3.222755
40
4.206782
50
325.785953
51
241.278216
0
ARC
8
MCD_Layer_0
10
-2.958104
20
2.748293
40
1.969223
50
332.318168
51
134.112382
0
ARC
8
MCD_Layer_0
10
-3.111574
20
1.778772
40
1.838446
50
260.575361
51
1.704888
0
ARC
8
MCD_Layer_0
10
7.354440
20
9.856307
40
13.740261
50
210.609517
51
202.685192
0
ARC
8
MCD_Layer_0
10
-2.103888
20
2.112393
40
3.583388
50
8.351320
51
98.469564
0
ARC
8
MCD_Layer_0
10
-3.753862
20
0.747550
40
2.707254
50
93.550131
51
23.647859
0
ARC
8
MCD_Layer_0
10
-2.224744
20
2.532674
40
3.476966
50
285.729322
51
141.589032
0
ARC
8
MCD_Layer_0
10
-1.798177
20
4.108323
40
2.299555
50
180.660910
51
282.967459
0
ARC
8
MCD_Layer_0
10
-2.782069
20
3.157796
40
1.389000
50
281.889870
51
214.882658
0
ARC
8
MCD_Layer_0
10
-2.299366
20
6.852176
40
3.058102
50
338.747538
51
240.922160
0
ARC
8
MCD_Layer_0
10
-6.388232
20
1.712918
40
5.097881
50
48.421372
51
305.244286
0
ARC
8
MCD_Layer_0
10
-1.214405
20
-0.863480
40
4.650304
50
200.642644
51
152.292275
0
ARC
8
MCD_Layer_0
10
-3.272678
20
2.288286
40
2.034524
50
81.883029
51
348.061218
0
ARC
8
MCD_Layer_0
10
-9.093291
20
5.202051
40
6.957037
50
352.571305
51
7.428695
0
ARC
8
MCD_Layer_0
10
-1.239734
20
-2.009780
40
3.843332
50
90.379516
51
130.309784
0
ARC
8
MCD_Layer_0
10
-3.216068
20
3.564564
40
2.550736
50
319.303597
51
95.953610
0
ARC
8
MCD_Layer_0
10
-0.398557
20
4.853254
40
3.119668
50
7.049608
51
254.872584
0
ARC
8
MCD_Layer_0
10
-1.068244
20
3.445981
40
1.525323
50
98.062003
51
95.433794
0
ARC
8
MCD_Layer_0
10
-1.382863
20
0.972508
40
3.142152
50
343.958540
51
156.347680
0
ARC
8
MCD_Layer_0
10
-1.261147
20
3.914528
40
2.081100
50
192.418744
51
270.355916
0
ARC
8
MCD_Layer_0
10
-2.672938
20
1.901354
40
1.391189
50
182.463529
51
1.398075
0
ARC
8
MCD_Layer_0
10
3.241250
20
1.010326
40
2.420384
50
334.246741
51
154.713351
0
ARC
8
MCD_Layer_0
10
3.457113
20
3.379964
40
4.060406
50
296.931846
51
242.969183
0
ARC
8
MCD_Layer_0
10
-130.553568
20
135.638362
40
190.630748
50
315.508715
51
316.380475
0
ARC
8
MCD_Layer_0
10
5.432228
20
2.138199
40
3.157327
50
227.033686
51
313.117900
0
ARC
8
MCD_Layer_0
10
3.307893
20
1.554499
40
2.236028
50
165.514820
51
309.830497
0
ARC
8
MCD_Layer_0
10
6.031212
20
1.540047
40
2.835244
50
216.996056
51
161.041246
0
ARC
8
MCD_Layer_0
10
-0.633105
20
-4.215976
40
6.956890
50
55.074686
51
28.045322
0
ARC
8
MCD_Layer_0
10
-49.955362
20
2.691937
40
55.520695
50
356.387868
51
3.350754
0
ARC
8
MCD_Layer_0
10
-456.830081
20
3.441171
40
462.332353
50
0.257613
51
359.809638
0
ARC
8
MCD_Layer_0
10
4.112606
20
1.006978
40
3.477695
50
200.119769
51
340.054616
0
ARC
8
MCD_Layer_0
10
4.759329
20
1.662050
40
2.544337
50
96.709295
51
82.586357
0
ARC
8
MCD_Layer_0
10
1.478385
20
-0.200222
40
4.582478
50
29.326157
51
72.410789
0
ARC
8
MCD_Layer_0
10
-1459.469012
20
-1.093497
40
1464.926575
50
359.965024
51
0.084651
0
ARC
8
MCD_Layer_0
10
-2860.567143
20
1.494343
40
2866.052320
50
359.931781
51
0.080476
0
ARC
8
MCD_Layer_0
10
-89.616880
20
1.277821
40
95.099629
50
1.383227
51
358.199775
0
ARC
8
MCD_Layer_0
10
2.086326
20
4.627870
40
4.904339
50
259.524619
51
284.928771
0
ARC
8
MCD_Layer_0
10
1.148391
20
6.309094
40
6.594407
50
259.472404
51
280.733674
0
ARC
8
MCD_Layer_0
10
1.637726
20
3.790804
40
4.233399
50
335.632961
51
5.389543
0
ARC
8
MCD_Layer_0
10
2.800816
20
2.802268
40
2.978624
50
273.877738
51
268.526310
0
ARC
8
MCD_Layer_0
10
2.170223
20
3.395885
40
3.599067
50
252.751390
51
271.072781
0
ARC
8
MCD_Layer_0
10
461.522259
20
-2.566578
40
456.057776
50
179.962211
51
179.735149
0
ARC
8
MCD_Layer_0
10
-118.634455
20
1.234440
40
124.142517
50
359.635776
51
0.373727
0
ARC
8
MCD_Layer_0
10
2.176725
20
0.896445
40
3.307743
50
85.329866
51
4.230475
0
ARC
8
MCD_Layer_0
10
-0.865345
20
1.123409
40
6.435257
50
349.573645
51
28.136125
0
ARC
8
MCD_Layer_0
10
-2.712464
20
5.762141
40
7.751178
50
309.689116
51
321.453718
0
ARC
8
MCD_Layer_0
10
4.428428
20
1.502825
40
3.043459
50
326.440338
51
213.475830
0
ARC
8
MCD_Layer_0
10
0.264958
20
-3.451644
40
7.645770
50
92.408401
51
87.198115
0
ARC
8
MCD_Layer_0
10
4.202251
20
1.278284
40
3.637985
50
147.630803
51
212.322361
0
ARC
8
MCD_Layer_0
10
1.136257
20
0.973785
40
4.441730
50
345.864815
51
45.427636
0
ARC
8
MCD_Layer_0
10
6.779502
20
1.230805
40
3.751141
50
128.155217
51
205.476976
0
ARC
8
MCD_Layer_0
10
3.374831
20
2.044187
40
2.830882
50
311.498710
51
311.498710
0
ARC
8
MCD_Layer_0
10
-16.021131
20
-0.499164
40
22.063139
50
6.801216
51
2.408239
0
ARC
8
MCD_Layer_0
10
3.482455
20
1.118740
40
2.545604
50
226.602998
51
134.482870
0
ARC
8
MCD_Layer_0
10
5.212655
20
0.670808
40
2.336300
50
114.810768
51
291.619302
0
ARC
8
MCD_Layer_0
10
5.068625
20
-0.250291
40
2.807026
50
125.174125
51
316.110738
0
ARC
8
MCD_Layer_0
10
3.379207
20
0.192583
40
1.851609
50
237.106780
51
89.860503
0
ARC
8
MCD_Layer_0
10
3.154069
20
1.042866
40
1.120374
50
65.351779
51
280.059828
0
ARC
8
MCD_Layer_0
10
1.886773
20
2.828528
40
3.870348
50
234.973371
51
348.428036
0
ARC
8
MCD_Layer_0
10
-0.169937
20
2.325859
40
4.271435
50
325.488330
51
31.069505
0
ARC
8
MCD_Layer_0
10
3.409172
20
-0.537296
40
2.581831
50
90.941619
51
214.414803
0
ARC
8
MCD_Layer_0
10
1.170560
20
5.139177
40
5.965980
50
258.248327
51
337.550364
0
ARC
8
MCD_Layer_0
10
5.508502
20
1.585955
40
2.230198
50
165.455857
51
282.044000
0
ARC
8
MCD_Layer_0
10
0.852335
20
2.027215
40
2.500261
50
2.723453
51
300.814667
0
ARC
8
MCD_Layer_0
10
-2.619032
20
-9.983955
40
11.663693
50
62.278136
51
72.366458
0
ARC
8
MCD_Layer_0
10
3.370920
20
-0.697196
40
2.741413
50
333.246281
51
89.732584
0
ARC
8
MCD_Layer_0
10
2.785468
20
0.856180
40
1.376846
50
61.065441
51
294.195543
0
ARC
8
MCD_Layer_0
10
6.752430
20
-0.154289
40
6.238484
50
82.026096
51
82.026096
0
ARC
8
MCD_Layer_0
10
4.700315
20
0.369151
40
2.109728
50
127.443049
51
55.780565
0
ARC
8
MCD_Layer_0
10
2.649696
20
0.584635
40
1.680229
50
61.493462
51
294.623565
0
ARC
8
MCD_Layer_0
10
7.167657
20
3.121613
40
4.607092
50
222.101694
51
137.898306
0
ARC
8
MCD_Layer_0
10
11.577740
20
2.091764
40
1.584282
50
202.059644
51
80.257349
0
ARC
8
MCD_Layer_0
10
7.974075
20
14.600150
40
13.103403
50
287.271159
51
270.056237
0
ARC
8
MCD_Layer_0
10
10.299003
20
1.611336
40
1.884886
50
164.467468
51
113.641310
0
ARC
8
MCD_Layer_0
10
9.379063
20
4.011639
40
2.861600
50
330.238127
51
240.109299
0
ARC
8
MCD_Layer_0
10
9.943139
20
1.564639
40
1.990435
50
358.286056
51
179.022883
0
ARC
8
MCD_Layer_0
10
9.262597
20
0.184635
40
1.848040
50
9.744394
51
134.764674
0
ARC
8
MCD_Layer_0
10
9.626223
20
2.078944
40
0.615004
50
251.199413
51
145.831430
0
ARC
8
MCD_Layer_0
10
8.363568
20
2.077260
40
0.711028
50
305.270624
51
167.870346
0
ARC
8
MCD_Layer_0
10
9.169670
20
1.354464
40
1.224969
50
186.670387
51
173.329613
0
ARC
8
MCD_Layer_0
10
9.773451
20
1.936655
40
1.872854
50
120.149436
51
166.415257
0
ARC
8
MCD_Layer_0
10
12.952197
20
132.820349
40
129.386273
50
269.346557
51
269.808302
0
ARC
8
MCD_Layer_0
10
13.549174
20
3.029991
40
2.005729
50
12.360167
51
78.547286
0
ARC
8
MCD_Layer_0
10
14.220978
20
6.870230
40
3.513943
50
279.703354
51
226.992380
0
ARC
8
MCD_Layer_0
10
12.866821
20
3.442093
40
2.433027
50
0.003122
51
0.003122
0
ARC
8
MCD_Layer_0
10
-141.935679
20
4.029520
40
155.916958
50
0.585016
51
359.537587
0
ARC
8
MCD_Layer_0
10
13.353426
20
3.422602
40
2.363578
50
0.276416
51
0.276416
0
ARC
8
MCD_Layer_0
10
-475.162899
20
1.876526
40
489.122029
50
0.243250
51
359.819795
0
ARC
8
MCD_Layer_0
10
11.431669
20
1.311504
40
0.392464
50
0.000021
51
172.366044
0
ARC
8
MCD_Layer_0
10
11.475239
20
1.311908
40
0.348894
50
172.193921
51
0.081001
0
ARC
8
MCD_Layer_0
10
12.384756
20
1.920033
40
0.609297
50
203.057056
51
267.124259
0
ARC
8
MCD_Layer_0
10
11.819980
20
2.610441
40
1.298944
50
270.183174
51
41.737333
0
ARC
8
MCD_Layer_0
10
-1.281237
20
1.631421
40
0.925877
50
274.727174
51
264.679416
0
ARC
8
MCD_Layer_0
10
-1.436657
20
0.718682
40
0.070165
50
352.507909
51
352.507909
0
ARC
8
MCD_Layer_0
10
-0.716405
20
-0.944837
40
0.471634
50
29.064301
51
330.935699
0
ARC
8
MCD_Layer_0
10
0.572713
20
0.300928
40
0.646961
50
38.939780
51
140.494341
0
INSERT
8
MCD_Layer_0
2
OUTG
10
-5.826258
20
1.944258
30
0.0
41
4.344711
42
4.344711
43
1.0
0
INSERT
8
MCD_Layer_0
2
OUTR
10
-1.282163
20
1.833468
30
0.0
41
4.344711
42
4.344711
43
1.0
0
INSERT
8
MCD_Layer_0
2
OUTO
10
3.349772
20
2.044187
30
0.0
41
4.344711
42
4.344711
43
1.0
0
INSERT
8
MCD_Layer_0
2
OUTV
10
7.952993
20
1.496753
30
0.0
41
4.344711
42
4.344711
43
1.0
0
INSERT
8
MCD_Layer_0
2
OUTE
10
11.824132
20
1.311503
30
0.0
41
4.344711
42
4.344711
43
1.0
0
INSERT
8
MCD_Layer_0
2
OUTS
10
0.000000
20
0.000000
30
0.0
41
1.448237
42
1.448237
43
1.0
0
ENDSEC
0
EOF
