0
SECTION
2
ENTITIES
0
LINE
8
MCD_Layer_0
10
-10.231515
20
1.947014
30
0.0
11
-7.591500
21
3.473198
31
0.0
0
LINE
8
MCD_Layer_0
10
-10.375436
20
1.920555
30
0.0
11
-7.591500
21
3.473198
31
0.0
0
LINE
8
MCD_Layer_0
10
-7.591500
20
3.473198
30
0.0
11
-7.591409
21
3.473198
31
0.0
0
LINE
8
MCD_Layer_0
10
-10.375436
20
1.920555
30
0.0
11
-7.303475
21
4.926506
31
0.0
0
LINE
8
MCD_Layer_0
10
-10.327462
20
1.930351
30
0.0
11
-7.303475
21
4.926506
31
0.0
0
LINE
8
MCD_Layer_0
10
-10.327462
20
1.930351
30
0.0
11
-5.287484
21
4.945366
31
0.0
0
LINE
8
MCD_Layer_0
10
-10.590768
20
3.473198
30
0.0
11
-7.591500
21
3.473473
31
0.0
0
LINE
8
MCD_Layer_0
10
-7.591500
20
0.737236
30
0.0
11
-9.134347
21
5.777214
31
0.0
0
LINE
8
MCD_Layer_0
10
-6.119332
20
5.153191
30
0.0
11
-9.135354
21
5.633202
31
0.0
0
LINE
8
MCD_Layer_0
10
-6.119424
20
3.569328
30
0.0
11
-9.136361
21
2.417229
31
0.0
0
LINE
8
MCD_Layer_0
10
-6.119607
20
3.473198
30
0.0
11
-7.591500
21
3.473289
31
0.0
0
LINE
8
MCD_Layer_0
10
-7.495370
20
1.928337
30
0.0
11
-8.647470
21
4.945091
31
0.0
0
LINE
8
MCD_Layer_0
10
-10.279489
20
4.893272
30
0.0
11
-5.143472
21
4.927879
31
0.0
0
LINE
8
MCD_Layer_0
10
-7.591500
20
0.785210
30
0.0
11
-6.171426
21
5.921227
31
0.0
0
LINE
8
MCD_Layer_0
10
-6.136819
20
5.681450
30
0.0
11
-6.156503
21
4.001183
31
0.0
0
LINE
8
MCD_Layer_0
10
-6.141946
20
2.369072
30
0.0
11
-6.146981
21
3.905144
31
0.0
0
LINE
8
MCD_Layer_0
10
-6.149819
20
3.473198
30
0.0
11
-7.591500
21
3.473289
31
0.0
0
LINE
8
MCD_Layer_0
10
-7.591500
20
0.473930
30
0.0
11
-7.591500
21
3.473198
31
0.0
0
LINE
8
MCD_Layer_0
10
-7.591226
20
3.473198
30
0.0
11
-8.695626
21
4.917717
31
0.0
0
LINE
8
MCD_Layer_0
10
-7.159554
20
4.914879
30
0.0
11
-9.079598
21
4.927238
31
0.0
0
LINE
8
MCD_Layer_0
10
-6.007546
20
4.892174
30
0.0
11
-8.839364
21
4.935204
31
0.0
0
LINE
8
MCD_Layer_0
10
-9.703530
20
1.893639
30
0.0
11
-7.591500
21
3.473198
31
0.0
0
LINE
8
MCD_Layer_0
10
-7.591409
20
3.473198
30
0.0
11
-10.590768
21
3.473198
31
0.0
0
LINE
8
MCD_Layer_0
10
-7.591500
20
3.473473
30
0.0
11
-7.591500
21
2.225334
31
0.0
0
LINE
8
MCD_Layer_0
10
-6.129495
20
1.361168
30
0.0
11
-9.171060
21
1.937218
31
0.0
0
LINE
8
MCD_Layer_0
10
-6.120889
20
6.209160
30
0.0
11
-9.171792
21
4.193260
31
0.0
0
LINE
8
MCD_Layer_0
10
-6.871438
20
4.947289
30
0.0
11
-9.943490
21
4.885674
31
0.0
0
LINE
8
MCD_Layer_0
10
-7.831643
20
4.944633
30
0.0
11
-7.015450
21
4.926689
31
0.0
0
LINE
8
MCD_Layer_0
10
-7.591500
20
3.233055
30
0.0
11
-6.120065
21
4.049248
31
0.0
0
LINE
8
MCD_Layer_0
10
-6.138009
20
3.761131
30
0.0
11
-6.123544
21
0.593132
31
0.0
0
LINE
8
MCD_Layer_0
10
-6.136270
20
3.473198
30
0.0
11
-7.591500
21
3.473289
31
0.0
0
LINE
8
MCD_Layer_0
10
-7.591226
20
3.473198
30
0.0
11
-7.831460
21
4.938774
31
0.0
0
LINE
8
MCD_Layer_0
10
-10.279489
20
4.928429
30
0.0
11
-6.007455
21
4.933189
31
0.0
0
LINE
8
MCD_Layer_0
10
-9.751412
20
4.936577
30
0.0
11
-9.895516
21
4.930626
31
0.0
0
LINE
8
MCD_Layer_0
10
-7.783486
20
4.939781
30
0.0
11
-7.591500
21
3.473198
31
0.0
0
LINE
8
MCD_Layer_0
10
-9.895516
20
4.930626
30
0.0
11
-7.783486
21
4.939781
31
0.0
0
LINE
8
MCD_Layer_0
10
-7.591500
20
4.096855
30
0.0
11
-6.145791
21
5.729240
31
0.0
0
LINE
8
MCD_Layer_0
10
-6.115121
20
5.345451
30
0.0
11
-6.131326
21
1.169182
31
0.0
0
LINE
8
MCD_Layer_0
10
-6.113564
20
3.473198
30
0.0
11
-7.591500
21
3.473289
31
0.0
0
LINE
8
MCD_Layer_0
10
-7.591226
20
3.473198
30
0.0
11
-5.719247
21
4.933372
31
0.0
0
LINE
8
MCD_Layer_0
10
-9.895516
20
4.951134
30
0.0
11
-5.527352
21
4.937401
31
0.0
0
LINE
8
MCD_Layer_0
10
-8.503549
20
4.953972
30
0.0
11
-6.391244
21
4.936852
31
0.0
0
LINE
8
MCD_Layer_0
10
-9.463571
20
4.957268
30
0.0
11
-7.591500
21
3.473198
31
0.0
0
LINE
8
MCD_Layer_0
10
-7.591500
20
3.473473
30
0.0
11
-7.591500
21
4.673454
31
0.0
0
LINE
8
MCD_Layer_0
10
-7.591500
20
3.473289
30
0.0
11
-7.591500
21
0.473930
31
0.0
0
LINE
8
MCD_Layer_0
10
-7.591500
20
3.473198
30
0.0
11
-7.591226
21
3.473198
31
0.0
0
LINE
8
MCD_Layer_0
10
-6.630929
20
4.923027
30
0.0
11
-8.839547
21
4.961571
31
0.0
0
LINE
8
MCD_Layer_0
10
-6.009469
20
4.880455
30
0.0
11
-9.367532
21
4.962212
31
0.0
0
LINE
8
MCD_Layer_0
10
-8.647653
20
1.921654
30
0.0
11
-8.311471
21
4.962395
31
0.0
0
LINE
8
MCD_Layer_0
10
-6.871530
20
1.947289
30
0.0
11
-8.311471
21
4.962395
31
0.0
0
LINE
8
MCD_Layer_0
10
-6.871530
20
1.947289
30
0.0
11
-6.103494
21
4.960472
31
0.0
0
LINE
8
MCD_Layer_0
10
-6.199533
20
1.943810
30
0.0
11
-6.103494
21
4.960472
31
0.0
0
LINE
8
MCD_Layer_0
10
-6.199533
20
1.943810
30
0.0
11
-7.303475
21
4.926506
31
0.0
0
LINE
8
MCD_Layer_0
10
-10.231515
20
1.947014
30
0.0
11
-7.303475
21
4.926506
31
0.0
0
LINE
8
MCD_Layer_0
10
-7.255502
20
1.945091
30
0.0
11
-6.823556
21
4.907280
31
0.0
0
LINE
8
MCD_Layer_0
10
-8.935494
20
1.927330
30
0.0
11
-6.823556
21
4.907280
31
0.0
0
LINE
8
MCD_Layer_0
10
-8.935494
20
1.927330
30
0.0
11
-7.111581
21
4.918816
31
0.0
0
LINE
8
MCD_Layer_0
10
-10.327462
20
1.930351
30
0.0
11
-7.111581
21
4.918816
31
0.0
0
LINE
8
MCD_Layer_0
10
-7.591500
20
0.737236
30
0.0
11
-9.134347
21
3.953117
31
0.0
0
LINE
8
MCD_Layer_0
10
-6.145883
20
5.057152
30
0.0
11
-9.131509
21
1.409142
31
0.0
0
LINE
8
MCD_Layer_0
10
-6.143685
20
0.785210
30
0.0
11
-9.130410
21
3.761223
31
0.0
0
LINE
8
MCD_Layer_0
10
-6.138192
20
3.473198
30
0.0
11
-7.591500
21
3.473289
31
0.0
0
LINE
8
MCD_Layer_0
10
-10.279489
20
1.934288
30
0.0
11
-7.303475
21
4.926506
31
0.0
0
LINE
8
MCD_Layer_0
10
-10.279489
20
1.934288
30
0.0
11
-5.335458
21
4.947289
31
0.0
0
LINE
8
MCD_Layer_0
10
-7.591500
20
0.785210
30
0.0
11
-9.130410
21
5.729240
31
0.0
0
LINE
8
MCD_Layer_0
10
-6.117410
20
6.017082
30
0.0
11
-9.134805
21
1.937218
31
0.0
0
LINE
8
MCD_Layer_0
10
-6.117959
20
2.177177
30
0.0
11
-9.139291
21
1.793205
31
0.0
0
LINE
8
MCD_Layer_0
10
-6.118051
20
3.473198
30
0.0
11
-7.591500
21
3.473289
31
0.0
0
LINE
8
MCD_Layer_0
10
-8.887521
20
1.925407
30
0.0
11
-6.199441
21
4.946739
31
0.0
0
LINE
8
MCD_Layer_0
10
-7.927682
20
4.910393
30
0.0
11
-7.975472
21
4.929893
31
0.0
0
LINE
8
MCD_Layer_0
10
-7.591500
20
3.137016
30
0.0
11
-6.154305
21
3.089226
31
0.0
0
LINE
8
MCD_Layer_0
10
-6.138375
20
5.585136
30
0.0
11
-6.140939
21
5.681084
31
0.0
0
LINE
8
MCD_Layer_0
10
-6.144784
20
3.473198
30
0.0
11
-7.591500
21
3.473289
31
0.0
0
LINE
8
MCD_Layer_0
10
-7.591226
20
3.473198
30
0.0
11
-5.479562
21
4.923759
31
0.0
0
LINE
8
MCD_Layer_0
10
-5.383615
20
4.919914
30
0.0
11
-9.895516
21
4.930626
31
0.0
0
LINE
8
MCD_Layer_0
10
-6.247506
20
4.907646
30
0.0
11
-8.839456
21
4.938133
31
0.0
0
LINE
8
MCD_Layer_0
10
-7.159554
20
4.891441
30
0.0
11
-7.591500
21
3.473198
31
0.0
0
LINE
8
MCD_Layer_0
10
-7.591500
20
3.473473
30
0.0
11
-7.591500
21
2.225243
31
0.0
0
LINE
8
MCD_Layer_0
10
-6.126565
20
3.905144
30
0.0
11
-6.173257
21
1.697166
31
0.0
0
LINE
8
MCD_Layer_0
10
-6.122994
20
5.729240
30
0.0
11
-6.176003
21
3.377159
31
0.0
0
LINE
8
MCD_Layer_0
10
-6.119973
20
4.481194
30
0.0
11
-6.161172
21
3.473198
31
0.0
0
LINE
8
MCD_Layer_0
10
-7.687539
20
4.944725
30
0.0
11
-6.583505
21
4.903526
31
0.0
0
LINE
8
MCD_Layer_0
10
-9.127481
20
4.943810
30
0.0
11
-9.127572
21
4.917442
31
0.0
0
LINE
8
MCD_Layer_0
10
-7.591500
20
1.937218
30
0.0
11
-6.120889
21
1.937126
31
0.0
0
LINE
8
MCD_Layer_0
10
-6.148538
20
6.305199
30
0.0
11
-6.125833
21
0.833092
31
0.0
0
LINE
8
MCD_Layer_0
10
-6.144052
20
3.473198
30
0.0
11
-7.591500
21
3.473289
31
0.0
0
LINE
8
MCD_Layer_0
10
-7.591226
20
3.473198
30
0.0
11
-4.759500
21
4.938866
31
0.0
0
LINE
8
MCD_Layer_0
10
-10.231606
20
4.920647
30
0.0
11
-9.127206
21
4.935020
31
0.0
0
LINE
8
MCD_Layer_0
10
-6.199441
20
4.935020
30
0.0
11
-7.591500
21
3.473198
31
0.0
0
LINE
8
MCD_Layer_0
10
-6.295846
20
4.903709
30
0.0
11
-7.255502
21
4.948021
31
0.0
0
LINE
8
MCD_Layer_0
10
-7.591500
20
4.768852
30
0.0
11
-6.160989
21
3.809196
31
0.0
0
LINE
8
MCD_Layer_0
10
-6.116677
20
6.352715
30
0.0
11
-6.148263
21
5.393242
31
0.0
0
LINE
8
MCD_Layer_0
10
-6.115670
20
4.433769
30
0.0
11
-6.141671
21
5.441124
31
0.0
0
LINE
8
MCD_Layer_0
10
-6.114663
20
3.473198
30
0.0
11
-7.591500
21
3.473289
31
0.0
0
LINE
8
MCD_Layer_0
10
-7.591226
20
3.473198
30
0.0
11
-6.630929
21
4.923027
31
0.0
0
LINE
8
MCD_Layer_0
10
-5.623574
20
4.950035
30
0.0
11
-6.199716
21
4.929161
31
0.0
0
LINE
8
MCD_Layer_0
10
-7.015542
20
4.953056
30
0.0
11
-7.591500
21
3.473198
31
0.0
0
LINE
8
MCD_Layer_0
10
-7.591500
20
3.473473
30
0.0
11
-7.591500
21
4.481194
31
0.0
0
LINE
8
MCD_Layer_0
10
-6.131875
20
4.049156
30
0.0
11
-6.111642
21
0.497551
31
0.0
0
LINE
8
MCD_Layer_0
10
-6.007455
20
4.933189
30
0.0
11
-6.679543
21
4.957176
31
0.0
0
LINE
8
MCD_Layer_0
10
-6.631845
20
4.928886
30
0.0
11
-7.687539
21
4.959373
31
0.0
0
LINE
8
MCD_Layer_0
10
-8.647286
20
4.921654
30
0.0
11
-7.207437
21
4.960747
31
0.0
0
LINE
8
MCD_Layer_0
10
-7.591500
20
2.417412
30
0.0
11
-6.143044
21
3.857262
31
0.0
0
LINE
8
MCD_Layer_0
10
-6.103036
20
4.337090
30
0.0
11
-9.149545
21
4.193169
31
0.0
0
LINE
8
MCD_Layer_0
10
-6.102761
20
3.473198
30
0.0
11
-7.591500
21
3.473289
31
0.0
0
LINE
8
MCD_Layer_0
10
-7.591226
20
3.473198
30
0.0
11
-6.727609
21
1.915154
31
0.0
0
LINE
8
MCD_Layer_0
10
-6.871530
20
4.961937
30
0.0
11
-8.359445
21
1.921837
31
0.0
0
LINE
8
MCD_Layer_0
10
-5.335549
20
4.961937
30
0.0
11
-8.071420
21
1.927879
31
0.0
0
LINE
8
MCD_Layer_0
10
-5.335549
20
4.961937
30
0.0
11
-7.591500
21
3.473198
31
0.0
0
LINE
8
MCD_Layer_0
10
-8.071420
20
1.927879
30
0.0
11
-5.335549
21
4.961937
31
0.0
0
LINE
8
MCD_Layer_0
10
-9.895516
20
1.945274
30
0.0
11
-5.335549
21
4.961937
31
0.0
0
LINE
8
MCD_Layer_0
10
-9.895516
20
1.945274
30
0.0
11
-7.591500
21
4.961479
31
0.0
0
LINE
8
MCD_Layer_0
10
-6.199533
20
1.943810
30
0.0
11
-7.591500
21
4.961479
31
0.0
0
LINE
8
MCD_Layer_0
10
-7.591500
20
4.865166
30
0.0
11
-9.120889
21
3.473198
31
0.0
0
LINE
8
MCD_Layer_0
10
-6.103219
20
2.705254
30
0.0
11
-9.122354
21
3.041161
31
0.0
0
LINE
8
MCD_Layer_0
10
-6.103585
20
1.841179
30
0.0
11
-9.122903
21
4.961205
31
0.0
0
LINE
8
MCD_Layer_0
10
-6.104226
20
3.473198
30
0.0
11
-7.591500
21
3.473289
31
0.0
0
LINE
8
MCD_Layer_0
10
-9.223519
20
1.941795
30
0.0
11
-6.103494
21
4.960472
31
0.0
0
LINE
8
MCD_Layer_0
10
-9.223519
20
1.941795
30
0.0
11
-7.303475
21
4.926506
31
0.0
0
LINE
8
MCD_Layer_0
10
-7.591500
20
1.841179
30
0.0
11
-9.122903
21
3.761223
31
0.0
0
LINE
8
MCD_Layer_0
10
-6.138192
20
2.705254
30
0.0
11
-9.122354
21
1.409142
31
0.0
0
LINE
8
MCD_Layer_0
10
-6.143685
20
4.865166
30
0.0
11
-9.120889
21
3.953117
31
0.0
0
LINE
8
MCD_Layer_0
10
-6.145883
20
3.473198
30
0.0
11
-7.591500
21
3.473289
31
0.0
0
LINE
8
MCD_Layer_0
10
-6.199533
20
1.943810
30
0.0
11
-7.111581
21
4.918816
31
0.0
0
LINE
8
MCD_Layer_0
10
-7.255502
20
1.945091
30
0.0
11
-7.111581
21
4.918816
31
0.0
0
LINE
8
MCD_Layer_0
10
-7.591500
20
2.705254
30
0.0
11
-9.137002
21
3.905144
31
0.0
0
LINE
8
MCD_Layer_0
10
-6.114663
20
1.889336
30
0.0
11
-9.133615
21
2.513176
31
0.0
0
LINE
8
MCD_Layer_0
10
-6.114663
20
0.785210
30
0.0
11
-9.130410
21
5.729149
31
0.0
0
LINE
8
MCD_Layer_0
10
-6.114480
20
3.473198
30
0.0
11
-7.591500
21
3.473289
31
0.0
0
LINE
8
MCD_Layer_0
10
-10.279489
20
1.934288
30
0.0
11
-5.335549
21
4.950218
31
0.0
0
LINE
8
MCD_Layer_0
10
-10.279489
20
1.934288
30
0.0
11
-6.103494
21
4.960472
31
0.0
0
LINE
8
MCD_Layer_0
10
-10.375436
20
1.926414
30
0.0
11
-6.103494
21
4.960472
31
0.0
0
LINE
8
MCD_Layer_0
10
-7.591500
20
0.689262
30
0.0
11
-9.138284
21
4.961205
31
0.0
0
LINE
8
MCD_Layer_0
10
-6.104226
20
5.153374
30
0.0
11
-9.164651
21
5.345177
31
0.0
0
LINE
8
MCD_Layer_0
10
-6.107430
20
3.473198
30
0.0
11
-7.591500
21
3.473289
31
0.0
0
LINE
8
MCD_Layer_0
10
-7.591226
20
3.473198
30
0.0
11
-7.351266
21
4.910851
31
0.0
0
LINE
8
MCD_Layer_0
10
-9.463571
20
4.957268
30
0.0
11
-8.167916
21
4.914146
31
0.0
0
LINE
8
MCD_Layer_0
10
-5.959573
20
4.954704
30
0.0
11
-5.383248
21
4.908195
31
0.0
0
LINE
8
MCD_Layer_0
10
-9.943490
20
4.953056
30
0.0
11
-7.591500
21
3.473198
31
0.0
0
LINE
8
MCD_Layer_0
10
-7.591500
20
3.473473
30
0.0
11
-7.591500
21
5.681450
31
0.0
0
LINE
8
MCD_Layer_0
10
-6.156503
20
1.121208
30
0.0
11
-6.111642
21
5.633842
31
0.0
0
LINE
8
MCD_Layer_0
10
-6.172158
20
3.713158
30
0.0
11
-6.112832
21
5.345268
31
0.0
0
LINE
8
MCD_Layer_0
10
-9.160623
20
1.985191
30
0.0
11
-6.114022
21
3.473198
31
0.0
0
LINE
8
MCD_Layer_0
10
-5.719430
20
1.904076
30
0.0
11
-9.079507
21
4.950676
31
0.0
0
LINE
8
MCD_Layer_0
10
-7.831735
20
1.918266
30
0.0
11
-9.799569
21
4.950218
31
0.0
0
LINE
8
MCD_Layer_0
10
-8.359445
20
1.927696
30
0.0
11
-7.159554
21
4.950035
31
0.0
0
LINE
8
MCD_Layer_0
10
-10.327462
20
1.930351
30
0.0
11
-5.575509
21
4.951042
31
0.0
0
LINE
8
MCD_Layer_0
10
-9.175729
20
1.925224
30
0.0
11
-5.575509
21
4.951042
31
0.0
0
LINE
8
MCD_Layer_0
10
-7.591500
20
1.888969
30
0.0
11
-9.139474
21
5.489189
31
0.0
0
LINE
8
MCD_Layer_0
10
-6.113656
20
5.248955
30
0.0
11
-9.145059
21
4.241142
31
0.0
0
LINE
8
MCD_Layer_0
10
-6.113473
20
5.441216
30
0.0
11
-9.152749
21
4.817192
31
0.0
0
LINE
8
MCD_Layer_0
10
-6.113107
20
3.473198
30
0.0
11
-7.591500
21
3.473289
31
0.0
0
LINE
8
MCD_Layer_0
10
-7.591226
20
3.473198
30
0.0
11
-5.623483
21
1.911949
31
0.0
0
LINE
8
MCD_Layer_0
10
-6.247506
20
4.951591
30
0.0
11
-6.583688
21
1.891808
31
0.0
0
LINE
8
MCD_Layer_0
10
-4.951486
20
4.952415
30
0.0
11
-6.249703
21
4.872490
31
0.0
0
LINE
8
MCD_Layer_0
10
-6.439492
20
4.953423
30
0.0
11
-7.591500
21
3.473198
31
0.0
0
LINE
8
MCD_Layer_0
10
-7.591500
20
3.473473
30
0.0
11
-7.591500
21
2.274956
31
0.0
0
LINE
8
MCD_Layer_0
10
-6.170693
20
5.249138
30
0.0
11
-6.109902
21
3.426323
31
0.0
0
LINE
8
MCD_Layer_0
10
-6.189279
20
4.625206
30
0.0
11
-6.111276
21
3.473198
31
0.0
0
LINE
8
MCD_Layer_0
10
-10.375436
20
1.926414
30
0.0
11
-4.615487
21
4.959465
31
0.0
0
LINE
8
MCD_Layer_0
10
-8.503366
20
1.910027
30
0.0
11
-7.015542
21
4.958916
31
0.0
0
LINE
8
MCD_Layer_0
10
-6.487008
20
4.887962
30
0.0
11
-5.431497
21
4.956993
31
0.0
0
LINE
8
MCD_Layer_0
10
-10.327462
20
1.930351
30
0.0
11
-4.615487
21
4.959465
31
0.0
0
LINE
8
MCD_Layer_0
10
-4.023000
20
3.857262
30
0.0
11
-5.550100
21
4.068474
31
0.0
0
LINE
8
MCD_Layer_0
10
-2.557973
20
3.117973
30
0.0
11
-5.547536
21
4.836418
31
0.0
0
LINE
8
MCD_Layer_0
10
-2.550649
20
2.753227
30
0.0
11
-5.546987
21
4.289116
31
0.0
0
LINE
8
MCD_Layer_0
10
-2.545431
20
3.473198
30
0.0
11
-4.023000
21
3.473289
31
0.0
0
LINE
8
MCD_Layer_0
10
-4.023000
20
0.473930
30
0.0
11
-4.023000
21
3.473198
31
0.0
0
LINE
8
MCD_Layer_0
10
-4.022726
20
3.473198
30
0.0
11
-4.742971
21
1.949211
31
0.0
0
LINE
8
MCD_Layer_0
10
-3.207082
20
4.950768
30
0.0
11
-4.378225
21
1.948662
31
0.0
0
LINE
8
MCD_Layer_0
10
-3.072683
20
4.953880
30
0.0
11
-3.638937
21
1.946098
31
0.0
0
LINE
8
MCD_Layer_0
10
-2.688528
20
4.957542
30
0.0
11
-4.023000
21
3.473198
31
0.0
0
LINE
8
MCD_Layer_0
10
-4.022909
20
3.473198
30
0.0
11
-7.022268
21
3.473198
31
0.0
0
LINE
8
MCD_Layer_0
10
-4.023000
20
3.473473
30
0.0
11
-4.023000
21
3.857262
31
0.0
0
LINE
8
MCD_Layer_0
10
-5.550100
20
4.807671
30
0.0
11
-2.538656
21
1.937218
31
0.0
0
LINE
8
MCD_Layer_0
10
-5.552389
20
3.540398
30
0.0
11
-2.536825
21
1.217247
31
0.0
0
LINE
8
MCD_Layer_0
10
-5.555776
20
4.106743
30
0.0
11
-2.534902
21
3.473198
31
0.0
0
LINE
8
MCD_Layer_0
10
-4.023000
20
3.473289
30
0.0
11
-4.023000
21
0.473930
31
0.0
0
LINE
8
MCD_Layer_0
10
-4.023000
20
3.473198
30
0.0
11
-4.022726
21
3.473198
31
0.0
0
LINE
8
MCD_Layer_0
10
-6.278951
20
1.940422
30
0.0
11
-3.389455
21
4.961296
31
0.0
0
LINE
8
MCD_Layer_0
10
-2.918966
20
1.934837
30
0.0
11
-5.703084
21
4.962029
31
0.0
0
LINE
8
MCD_Layer_0
10
-3.418203
20
1.927879
30
0.0
11
-4.896688
21
4.962395
31
0.0
0
LINE
8
MCD_Layer_0
10
-4.023000
20
3.473198
30
0.0
11
-4.022909
21
3.473198
31
0.0
0
LINE
8
MCD_Layer_0
10
-7.022268
20
3.473198
30
0.0
11
-4.023000
21
3.473473
31
0.0
0
LINE
8
MCD_Layer_0
10
-4.023000
20
4.077995
30
0.0
11
-5.568319
21
2.599510
31
0.0
0
LINE
8
MCD_Layer_0
10
-2.533803
20
2.206017
30
0.0
11
-5.575460
21
5.738853
31
0.0
0
LINE
8
MCD_Layer_0
10
-2.533620
20
3.473198
30
0.0
11
-4.023000
21
6.343559
31
0.0
0
LINE
8
MCD_Layer_0
10
-2.533529
20
3.473198
30
0.0
11
-4.023000
21
3.473289
31
0.0
0
LINE
8
MCD_Layer_0
10
-4.022726
20
3.473198
30
0.0
11
-4.023000
21
3.473198
31
0.0
0
LINE
8
MCD_Layer_0
10
-1.757345
20
4.962578
30
0.0
11
-3.418203
21
4.927879
31
0.0
0
LINE
8
MCD_Layer_0
10
-4.896688
20
4.962395
30
0.0
11
-4.023000
21
3.473198
31
0.0
0
LINE
8
MCD_Layer_0
10
-4.023000
20
3.473473
30
0.0
11
-4.023000
21
4.077995
31
0.0
0
LINE
8
MCD_Layer_0
10
-2.568319
20
2.599510
30
0.0
11
-2.533803
21
4.577232
31
0.0
0
LINE
8
MCD_Layer_0
10
-2.561361
20
1.793114
30
0.0
11
-2.534170
21
1.217247
31
0.0
0
LINE
8
MCD_Layer_0
10
-2.555776
20
4.106743
30
0.0
11
-2.534902
21
3.473198
31
0.0
0
LINE
8
MCD_Layer_0
10
-6.278951
20
4.940422
30
0.0
11
-3.389455
21
4.961296
31
0.0
0
LINE
8
MCD_Layer_0
10
-4.023000
20
3.857262
30
0.0
11
-2.550100
21
4.807671
31
0.0
0
LINE
8
MCD_Layer_0
10
-2.538656
20
3.117973
30
0.0
11
-2.547536
21
4.423515
31
0.0
0
LINE
8
MCD_Layer_0
10
-2.542318
20
2.446068
30
0.0
11
-2.546987
21
4.289116
31
0.0
0
LINE
8
MCD_Layer_0
10
-4.022726
20
3.473198
30
0.0
11
-5.050130
21
4.949211
31
0.0
0
LINE
8
MCD_Layer_0
10
-3.427724
20
4.938225
30
0.0
11
-4.023000
21
3.473198
31
0.0
0
LINE
8
MCD_Layer_0
10
-2.550100
20
4.068474
30
0.0
11
-2.557973
21
1.630058
31
0.0
0
LINE
8
MCD_Layer_0
10
-2.552389
20
3.732475
30
0.0
11
-2.565023
21
1.217247
31
0.0
0
LINE
8
MCD_Layer_0
10
-2.555776
20
5.460350
30
0.0
11
-2.575643
21
3.473198
31
0.0
0
LINE
8
MCD_Layer_0
10
-6.278951
20
4.940422
30
0.0
11
-2.035848
21
4.920555
31
0.0
0
LINE
8
MCD_Layer_0
10
-2.918966
20
4.934837
30
0.0
11
-2.151021
21
4.904076
31
0.0
0
LINE
8
MCD_Layer_0
10
-3.418203
20
4.927879
30
0.0
11
-2.947439
21
4.857475
31
0.0
0
LINE
8
MCD_Layer_0
10
-4.023000
20
4.077995
30
0.0
11
-2.568319
21
4.548759
31
0.0
0
LINE
8
MCD_Layer_0
10
-2.638723
20
0.977196
30
0.0
11
-2.575460
21
0.852226
31
0.0
0
LINE
8
MCD_Layer_0
10
-5.613821
20
1.764275
30
0.0
11
-2.691366
21
2.954826
31
0.0
0
LINE
8
MCD_Layer_0
10
-5.603109
20
3.473198
30
0.0
11
-4.023000
21
3.473289
31
0.0
0
LINE
8
MCD_Layer_0
10
-4.022726
20
3.473198
30
0.0
11
-5.731924
21
4.804832
31
0.0
0
LINE
8
MCD_Layer_0
10
-4.541372
20
1.893089
30
0.0
11
-5.290182
21
1.920738
31
0.0
0
LINE
8
MCD_Layer_0
10
-6.643972
20
1.882378
30
0.0
11
-3.418203
21
1.927879
31
0.0
0
LINE
8
MCD_Layer_0
10
-2.947439
20
4.857475
30
0.0
11
-4.023000
21
3.473198
31
0.0
0
LINE
8
MCD_Layer_0
10
-5.568319
20
4.548759
30
0.0
11
-2.638723
21
4.577232
31
0.0
0
LINE
8
MCD_Layer_0
10
-5.561361
20
5.345177
30
0.0
11
-2.592123
21
1.217247
31
0.0
0
LINE
8
MCD_Layer_0
10
-5.555776
20
5.460350
30
0.0
11
-2.575643
21
3.473198
31
0.0
0
LINE
8
MCD_Layer_0
10
-6.278951
20
1.940422
30
0.0
11
-2.035848
21
4.920555
31
0.0
0
LINE
8
MCD_Layer_0
10
-5.558980
20
1.943810
30
0.0
11
-3.763723
21
4.931175
31
0.0
0
LINE
8
MCD_Layer_0
10
-3.638937
20
1.946098
30
0.0
11
-3.427724
21
4.938225
31
0.0
0
LINE
8
MCD_Layer_0
10
-4.023000
20
4.711632
30
0.0
11
-5.550924
21
6.276451
31
0.0
0
LINE
8
MCD_Layer_0
10
-2.555593
20
3.434746
30
0.0
11
-5.549093
21
2.781975
31
0.0
0
LINE
8
MCD_Layer_0
10
-2.548727
20
5.873253
30
0.0
11
-5.548818
21
4.289116
31
0.0
0
LINE
8
MCD_Layer_0
10
-4.022726
20
3.473198
30
0.0
11
-1.622945
21
1.947380
31
0.0
0
LINE
8
MCD_Layer_0
10
-3.207082
20
4.950768
30
0.0
11
-4.061452
21
1.947105
31
0.0
0
LINE
8
MCD_Layer_0
10
-2.045461
20
4.952873
30
0.0
11
-2.784566
21
1.945274
31
0.0
0
LINE
8
MCD_Layer_0
10
-3.792654
20
4.956352
30
0.0
11
-4.023000
21
3.473198
31
0.0
0
LINE
8
MCD_Layer_0
10
-4.023000
20
3.473473
30
0.0
11
-4.023000
21
4.711632
31
0.0
0
LINE
8
MCD_Layer_0
10
-5.550924
20
3.703545
30
0.0
11
-2.539846
21
2.253990
31
0.0
0
LINE
8
MCD_Layer_0
10
-5.553945
20
3.127495
30
0.0
11
-2.537374
21
2.369164
31
0.0
0
LINE
8
MCD_Layer_0
10
-5.557973
20
3.674797
30
0.0
11
-2.535177
21
3.473198
31
0.0
0
LINE
8
MCD_Layer_0
10
-5.127035
20
1.938225
30
0.0
11
-3.821401
21
4.961021
31
0.0
0
LINE
8
MCD_Layer_0
10
-5.799032
20
1.932915
30
0.0
11
-6.970266
21
4.961662
31
0.0
0
LINE
8
MCD_Layer_0
10
-4.570211
20
1.927055
30
0.0
11
-3.850240
21
4.962029
31
0.0
0
LINE
8
MCD_Layer_0
10
-4.023000
20
2.925987
30
0.0
11
-5.569143
21
3.645958
31
0.0
0
LINE
8
MCD_Layer_0
10
-2.534170
20
3.799583
30
0.0
11
-5.587636
21
3.386681
31
0.0
0
LINE
8
MCD_Layer_0
10
-2.533987
20
3.473198
30
0.0
11
-4.023000
21
5.460258
31
0.0
0
LINE
8
MCD_Layer_0
10
-2.533895
20
3.473198
30
0.0
11
-4.023000
21
3.473289
31
0.0
0
LINE
8
MCD_Layer_0
10
-2.035940
20
4.962303
30
0.0
11
-6.154165
21
4.908470
31
0.0
0
LINE
8
MCD_Layer_0
10
-3.850240
20
4.962029
30
0.0
11
-4.023000
21
3.473198
31
0.0
0
LINE
8
MCD_Layer_0
10
-4.023000
20
3.473473
30
0.0
11
-4.023000
21
2.925987
31
0.0
0
LINE
8
MCD_Layer_0
10
-2.569143
20
3.645958
30
0.0
11
-2.534170
21
1.697166
31
0.0
0
LINE
8
MCD_Layer_0
10
-2.563283
20
0.525932
30
0.0
11
-2.534536
21
2.369164
31
0.0
0
LINE
8
MCD_Layer_0
10
-2.557973
20
3.674797
30
0.0
11
-2.535177
21
3.473198
31
0.0
0
LINE
8
MCD_Layer_0
10
-4.023000
20
4.404472
30
0.0
11
-2.550924
21
3.703545
31
0.0
0
LINE
8
MCD_Layer_0
10
-2.539846
20
3.127586
30
0.0
11
-2.549093
21
5.450737
31
0.0
0
LINE
8
MCD_Layer_0
10
-2.543325
20
5.566002
30
0.0
11
-2.548818
21
4.289116
31
0.0
0
LINE
8
MCD_Layer_0
10
-4.022726
20
3.473198
30
0.0
11
-1.930196
21
4.947380
31
0.0
0
LINE
8
MCD_Layer_0
10
-1.219747
20
4.940605
30
0.0
11
-4.023000
21
3.473198
31
0.0
0
LINE
8
MCD_Layer_0
10
-4.023000
20
3.473473
30
0.0
11
-4.023000
21
4.404472
31
0.0
0
LINE
8
MCD_Layer_0
10
-2.550924
20
6.276451
30
0.0
11
-2.555593
21
2.253990
31
0.0
0
LINE
8
MCD_Layer_0
10
-2.553945
20
5.383629
30
0.0
11
-2.563192
21
2.369164
31
0.0
0
LINE
8
MCD_Layer_0
10
-2.557973
20
1.687645
30
0.0
11
-2.573446
21
3.473198
31
0.0
0
LINE
8
MCD_Layer_0
10
-5.799032
20
4.932915
30
0.0
11
-3.811880
21
4.915520
31
0.0
0
LINE
8
MCD_Layer_0
10
-4.570211
20
4.927055
30
0.0
11
-3.898305
21
4.906090
31
0.0
0
LINE
8
MCD_Layer_0
10
-4.023000
20
2.925987
30
0.0
11
-2.569143
21
3.597893
31
0.0
0
LINE
8
MCD_Layer_0
10
-2.590108
20
1.342033
30
0.0
11
-2.587728
21
1.226768
31
0.0
0
LINE
8
MCD_Layer_0
10
-2.604208
20
3.473198
30
0.0
11
-4.023000
21
5.729057
31
0.0
0
LINE
8
MCD_Layer_0
10
-2.607503
20
3.473198
30
0.0
11
-4.023000
21
3.473289
31
0.0
0
LINE
8
MCD_Layer_0
10
-1.767141
20
4.888695
30
0.0
11
-3.696615
21
1.908562
31
0.0
0
LINE
8
MCD_Layer_0
10
-6.269430
20
4.891991
30
0.0
11
-4.570211
21
1.927055
31
0.0
0
LINE
8
MCD_Layer_0
10
-3.898305
20
4.906090
30
0.0
11
-4.023000
21
3.473198
31
0.0
0
LINE
8
MCD_Layer_0
10
-5.569143
20
3.597893
30
0.0
11
-2.590108
21
1.697166
31
0.0
0
LINE
8
MCD_Layer_0
10
-5.563283
20
3.684319
30
0.0
11
-2.580678
21
2.369164
31
0.0
0
LINE
8
MCD_Layer_0
10
-5.557973
20
1.687645
30
0.0
11
-2.573446
21
3.473198
31
0.0
0
LINE
8
MCD_Layer_0
10
-5.127035
20
1.938225
30
0.0
11
-5.808553
21
4.922752
31
0.0
0
LINE
8
MCD_Layer_0
10
-5.242208
20
1.942253
30
0.0
11
-2.112569
21
4.933006
31
0.0
0
LINE
8
MCD_Layer_0
10
-2.784566
20
1.945274
30
0.0
11
-1.219747
21
4.940605
31
0.0
0
LINE
8
MCD_Layer_0
10
-4.023000
20
1.476433
30
0.0
11
-5.556783
21
2.810814
31
0.0
0
LINE
8
MCD_Layer_0
10
-2.553396
20
1.543541
30
0.0
11
-5.555959
21
3.530876
31
0.0
0
LINE
8
MCD_Layer_0
10
-2.549917
20
1.486046
30
0.0
11
-5.555410
21
4.289116
31
0.0
0
LINE
8
MCD_Layer_0
10
-4.022726
20
3.473198
30
0.0
11
-6.010152
21
1.940788
31
0.0
0
LINE
8
MCD_Layer_0
10
-3.207082
20
4.950768
30
0.0
11
-5.952657
21
1.940239
31
0.0
0
LINE
8
MCD_Layer_0
10
-2.419729
20
4.953514
30
0.0
11
-6.019765
21
1.939415
31
0.0
0
LINE
8
MCD_Layer_0
10
-5.059927
20
4.955162
30
0.0
11
-4.023000
21
3.473198
31
0.0
0
LINE
8
MCD_Layer_0
10
-4.023000
20
3.473473
30
0.0
11
-4.023000
21
1.476433
31
0.0
0
LINE
8
MCD_Layer_0
10
-5.556783
20
2.436272
30
0.0
11
-2.541036
21
2.570854
31
0.0
0
LINE
8
MCD_Layer_0
10
-5.558431
20
4.692314
30
0.0
11
-2.539022
21
4.126060
31
0.0
0
LINE
8
MCD_Layer_0
10
-5.564382
20
1.850883
30
0.0
11
-2.536916
21
3.473198
31
0.0
0
LINE
8
MCD_Layer_0
10
-3.370138
20
1.931816
30
0.0
11
-5.645315
21
4.959282
31
0.0
0
LINE
8
MCD_Layer_0
10
-5.799032
20
1.927055
30
0.0
11
-5.741445
21
4.960197
31
0.0
0
LINE
8
MCD_Layer_0
10
-2.611898
20
1.920189
30
0.0
11
-5.021474
21
4.960655
31
0.0
0
LINE
8
MCD_Layer_0
10
-4.023000
20
4.884300
30
0.0
11
-5.576009
21
2.474724
31
0.0
0
LINE
8
MCD_Layer_0
10
-2.535543
20
3.732384
30
0.0
11
-5.600179
21
3.050774
31
0.0
0
LINE
8
MCD_Layer_0
10
-2.535177
20
3.473198
30
0.0
11
-4.023000
21
4.586845
31
0.0
0
LINE
8
MCD_Layer_0
10
-2.535085
20
3.473198
30
0.0
11
-4.023000
21
3.473289
31
0.0
0
LINE
8
MCD_Layer_0
10
-2.909353
20
4.961113
30
0.0
11
-3.763814
21
4.896019
31
0.0
0
LINE
8
MCD_Layer_0
10
-4.445425
20
4.961021
30
0.0
11
-2.611898
21
4.920189
31
0.0
0
LINE
8
MCD_Layer_0
10
-5.021474
20
4.960655
30
0.0
11
-4.023000
21
3.473198
31
0.0
0
LINE
8
MCD_Layer_0
10
-4.023000
20
3.473473
30
0.0
11
-4.023000
21
4.884300
31
0.0
0
LINE
8
MCD_Layer_0
10
-2.576009
20
2.474724
30
0.0
11
-2.535543
21
1.082848
31
0.0
0
LINE
8
MCD_Layer_0
10
-2.569143
20
1.754753
30
0.0
11
-2.536001
21
3.511650
31
0.0
0
LINE
8
MCD_Layer_0
10
-2.564382
20
1.850883
30
0.0
11
-2.536916
21
3.473198
31
0.0
0
LINE
8
MCD_Layer_0
10
-3.984548
20
4.931816
30
0.0
11
-5.645315
21
4.959282
31
0.0
0
LINE
8
MCD_Layer_0
10
-4.023000
20
1.476433
30
0.0
11
-2.556783
21
2.436272
31
0.0
0
LINE
8
MCD_Layer_0
10
-2.541036
20
1.236290
30
0.0
11
-2.555959
21
5.076469
31
0.0
0
LINE
8
MCD_Layer_0
10
-2.542684
20
1.486046
30
0.0
11
-2.555410
21
4.289116
31
0.0
0
LINE
8
MCD_Layer_0
10
-4.022726
20
3.473198
30
0.0
11
-6.010152
21
4.940788
31
0.0
0
LINE
8
MCD_Layer_0
10
-4.685384
20
4.942802
30
0.0
11
-4.023000
21
3.473198
31
0.0
0
LINE
8
MCD_Layer_0
10
-2.556783
20
2.810814
30
0.0
11
-2.553396
21
2.570854
31
0.0
0
LINE
8
MCD_Layer_0
10
-2.558431
20
4.298820
30
0.0
11
-2.557241
21
3.511650
31
0.0
0
LINE
8
MCD_Layer_0
10
-2.564382
20
3.876488
30
0.0
11
-2.564931
21
3.473198
31
0.0
0
LINE
8
MCD_Layer_0
10
-2.611898
20
4.920189
30
0.0
11
-6.979787
21
4.925133
31
0.0
0
LINE
8
MCD_Layer_0
10
-4.023000
20
4.884300
30
0.0
11
-2.576009
21
0.516411
31
0.0
0
LINE
8
MCD_Layer_0
10
-2.571065
20
3.732384
30
0.0
11
-2.600179
21
0.679558
31
0.0
0
LINE
8
MCD_Layer_0
10
-2.574087
20
3.473198
30
0.0
11
-4.023000
21
6.391533
31
0.0
0
LINE
8
MCD_Layer_0
10
-2.574270
20
3.473198
30
0.0
11
-4.023000
21
3.473289
31
0.0
0
LINE
8
MCD_Layer_0
10
-1.104665
20
4.921928
30
0.0
11
-3.763814
21
1.896019
31
0.0
0
LINE
8
MCD_Layer_0
10
-6.816640
20
4.922112
30
0.0
11
-2.611898
21
1.920189
31
0.0
0
LINE
8
MCD_Layer_0
10
-6.979787
20
4.925133
30
0.0
11
-4.023000
21
3.473198
31
0.0
0
LINE
8
MCD_Layer_0
10
-5.576009
20
0.516411
30
0.0
11
-2.571065
21
1.697166
31
0.0
0
LINE
8
MCD_Layer_0
10
-5.569143
20
4.874779
30
0.0
11
-2.568594
21
4.126060
31
0.0
0
LINE
8
MCD_Layer_0
10
-5.564382
20
3.876488
30
0.0
11
-2.564931
21
3.473198
31
0.0
0
LINE
8
MCD_Layer_0
10
-3.370138
20
1.931816
30
0.0
11
-3.619710
21
4.931267
31
0.0
0
LINE
8
MCD_Layer_0
10
-4.925344
20
1.937767
30
0.0
11
-3.197378
21
4.938957
31
0.0
0
LINE
8
MCD_Layer_0
10
-6.019765
20
1.939415
30
0.0
11
-4.685384
21
4.942802
31
0.0
0
LINE
8
MCD_Layer_0
10
-4.023000
20
4.173943
30
0.0
11
-5.560445
21
4.049156
31
0.0
0
LINE
8
MCD_Layer_0
10
-2.554861
20
3.271599
30
0.0
11
-5.557790
21
6.093987
31
0.0
0
LINE
8
MCD_Layer_0
10
-2.549459
20
4.298820
30
0.0
11
-5.557241
21
4.289116
31
0.0
0
LINE
8
MCD_Layer_0
10
-4.022726
20
3.473198
30
0.0
11
-3.197378
21
1.938957
31
0.0
0
LINE
8
MCD_Layer_0
10
-3.207082
20
4.950768
30
0.0
11
-4.224599
21
1.938408
31
0.0
0
LINE
8
MCD_Layer_0
10
-6.854909
20
4.953239
30
0.0
11
-3.322256
21
1.935753
31
0.0
0
LINE
8
MCD_Layer_0
10
-2.679006
20
4.955986
30
0.0
11
-4.023000
21
3.473198
31
0.0
0
LINE
8
MCD_Layer_0
10
-4.023000
20
3.473473
30
0.0
11
-4.023000
21
4.173943
31
0.0
0
LINE
8
MCD_Layer_0
10
-5.560445
20
4.817192
30
0.0
11
-2.540212
21
6.401237
31
0.0
0
LINE
8
MCD_Layer_0
10
-5.564107
20
4.941887
30
0.0
11
-2.538473
21
1.601219
31
0.0
0
LINE
8
MCD_Layer_0
10
-5.571157
20
3.070000
30
0.0
11
-2.536825
21
3.473198
31
0.0
0
LINE
8
MCD_Layer_0
10
-5.894979
20
1.925041
30
0.0
11
-4.426198
21
4.959373
31
0.0
0
LINE
8
MCD_Layer_0
10
-3.101430
20
1.905815
30
0.0
11
-1.575063
21
4.960106
31
0.0
0
LINE
8
MCD_Layer_0
10
-4.023000
20
3.473198
30
0.0
11
-1.430959
21
4.960197
31
0.0
0
LINE
8
MCD_Layer_0
10
-4.023000
20
3.473198
30
0.0
11
-4.023000
21
6.065239
31
0.0
0
LINE
8
MCD_Layer_0
10
-2.536001
20
4.394768
30
0.0
11
-2.590383
21
5.921135
31
0.0
0
LINE
8
MCD_Layer_0
10
-2.536092
20
1.601219
30
0.0
11
-2.571157
21
3.070000
31
0.0
0
LINE
8
MCD_Layer_0
10
-2.536825
20
3.473198
30
0.0
11
-4.023000
21
3.473289
31
0.0
0
LINE
8
MCD_Layer_0
10
-4.022726
20
3.473198
30
0.0
11
-5.894979
21
4.925041
31
0.0
0
LINE
8
MCD_Layer_0
10
-4.426198
20
4.959373
30
0.0
11
-1.709371
21
4.932091
31
0.0
0
LINE
8
MCD_Layer_0
10
-4.023000
20
3.473473
30
0.0
11
-4.023000
21
3.559532
31
0.0
0
LINE
8
MCD_Layer_0
10
-2.560445
20
4.817192
30
0.0
11
-2.540212
21
3.271599
31
0.0
0
LINE
8
MCD_Layer_0
10
-2.557790
20
0.641289
30
0.0
11
-2.542959
21
4.298820
31
0.0
0
LINE
8
MCD_Layer_0
10
-2.557241
20
4.289116
30
0.0
11
-2.545431
21
3.473198
31
0.0
0
LINE
8
MCD_Layer_0
10
-4.023000
20
3.559532
30
0.0
11
-2.560445
21
4.049156
31
0.0
0
LINE
8
MCD_Layer_0
10
-2.554861
20
5.786827
30
0.0
11
-2.564107
21
4.126060
31
0.0
0
LINE
8
MCD_Layer_0
10
-2.558523
20
1.601219
30
0.0
11
-2.571157
21
5.613976
31
0.0
0
LINE
8
MCD_Layer_0
10
-2.565389
20
3.473198
30
0.0
11
-4.023000
21
3.473289
31
0.0
0
LINE
8
MCD_Layer_0
10
-1.882223
20
4.930809
30
0.0
11
-3.101430
21
4.905815
31
0.0
0
LINE
8
MCD_Layer_0
10
-1.287038
20
4.928062
30
0.0
11
-4.023000
21
3.473198
31
0.0
0
LINE
8
MCD_Layer_0
10
-1.863088
20
4.927696
30
0.0
11
-4.023000
21
3.473198
31
0.0
0
LINE
8
MCD_Layer_0
10
-4.023000
20
3.473473
30
0.0
11
-4.023000
21
3.473198
31
0.0
0
LINE
8
MCD_Layer_0
10
-4.023000
20
5.633110
30
0.0
11
-2.568502
21
4.394768
31
0.0
0
LINE
8
MCD_Layer_0
10
-5.590383
20
6.209160
30
0.0
11
-2.568136
21
1.601219
31
0.0
0
LINE
8
MCD_Layer_0
10
-5.571157
20
5.613976
30
0.0
11
-2.565389
21
3.473198
31
0.0
0
LINE
8
MCD_Layer_0
10
-5.894979
20
1.925041
30
0.0
11
-1.882223
21
4.930809
31
0.0
0
LINE
8
MCD_Layer_0
10
-1.094961
20
1.932091
30
0.0
11
-3.370138
21
4.937675
31
0.0
0
LINE
8
MCD_Layer_0
10
-3.322256
20
1.935753
30
0.0
11
-3.447042
21
4.941338
31
0.0
0
LINE
8
MCD_Layer_0
10
-1.220776
20
1.910393
30
0.0
11
1.610676
21
1.896660
31
0.0
0
LINE
8
MCD_Layer_0
10
-0.501263
20
1.943169
30
0.0
11
1.946674
21
4.959373
31
0.0
0
LINE
8
MCD_Layer_0
10
-3.884594
20
3.473198
30
0.0
11
-0.885327
21
3.473473
31
0.0
0
LINE
8
MCD_Layer_0
10
-0.885327
20
3.857262
30
0.0
11
-2.415356
21
6.305199
31
0.0
0
LINE
8
MCD_Layer_0
10
0.600849
20
5.585320
30
0.0
11
-2.414257
21
4.529259
31
0.0
0
LINE
8
MCD_Layer_0
10
0.601673
20
2.465294
30
0.0
11
-2.412426
21
4.961296
31
0.0
0
LINE
8
MCD_Layer_0
10
0.601948
20
3.473198
30
0.0
11
-0.885327
21
3.473289
31
0.0
0
LINE
8
MCD_Layer_0
10
-1.893231
20
1.946098
30
0.0
11
0.602772
21
4.960472
31
0.0
0
LINE
8
MCD_Layer_0
10
-1.509258
20
1.948296
30
0.0
11
0.602772
21
4.960472
31
0.0
0
LINE
8
MCD_Layer_0
10
-1.509258
20
1.948296
30
0.0
11
-1.605297
21
4.962395
31
0.0
0
LINE
8
MCD_Layer_0
10
0.026905
20
1.919090
30
0.0
11
-1.605297
21
4.962395
31
0.0
0
LINE
8
MCD_Layer_0
10
0.026905
20
1.919090
30
0.0
11
0.602772
21
4.960472
31
0.0
0
LINE
8
MCD_Layer_0
10
2.090687
20
1.930168
30
0.0
11
0.602772
21
4.960472
31
0.0
0
LINE
8
MCD_Layer_0
10
-3.573315
20
4.893272
30
0.0
11
1.706623
21
4.945549
31
0.0
0
LINE
8
MCD_Layer_0
10
-3.573498
20
4.934288
30
0.0
11
0.602772
21
4.960472
31
0.0
0
LINE
8
MCD_Layer_0
10
-2.661266
20
4.927055
30
0.0
11
0.602772
21
4.960472
31
0.0
0
LINE
8
MCD_Layer_0
10
-1.509258
20
4.948296
30
0.0
11
0.602772
21
4.960472
31
0.0
0
LINE
8
MCD_Layer_0
10
-0.885327
20
5.681175
30
0.0
11
0.587757
21
4.961296
31
0.0
0
LINE
8
MCD_Layer_0
10
0.601948
20
5.873253
30
0.0
11
0.585926
21
4.529259
31
0.0
0
LINE
8
MCD_Layer_0
10
0.601673
20
4.145103
30
0.0
11
0.584827
21
1.841270
31
0.0
0
LINE
8
MCD_Layer_0
10
0.600849
20
3.473198
30
0.0
11
-0.885327
21
3.473289
31
0.0
0
LINE
8
MCD_Layer_0
10
1.561695
20
4.904442
30
0.0
11
1.610676
21
1.896660
31
0.0
0
LINE
8
MCD_Layer_0
10
-1.269116
20
1.894737
30
0.0
11
-2.997357
21
4.893639
31
0.0
0
LINE
8
MCD_Layer_0
10
-0.453289
20
1.941246
30
0.0
11
0.698719
21
4.959557
31
0.0
0
LINE
8
MCD_Layer_0
10
-0.885327
20
3.905235
30
0.0
11
-2.417278
21
5.057243
31
0.0
0
LINE
8
MCD_Layer_0
10
0.601032
20
6.209251
30
0.0
11
-2.415814
21
5.393242
31
0.0
0
LINE
8
MCD_Layer_0
10
0.602222
20
1.313286
30
0.0
11
-2.413159
21
3.473198
31
0.0
0
LINE
8
MCD_Layer_0
10
0.602955
20
3.473198
30
0.0
11
-0.885327
21
3.473289
31
0.0
0
LINE
8
MCD_Layer_0
10
-3.045239
20
1.945366
30
0.0
11
-0.885327
21
4.961479
31
0.0
0
LINE
8
MCD_Layer_0
10
1.466755
20
1.946373
30
0.0
11
-0.885327
21
4.961479
31
0.0
0
LINE
8
MCD_Layer_0
10
1.466755
20
1.946373
30
0.0
11
-3.861340
21
4.961937
31
0.0
0
LINE
8
MCD_Layer_0
10
-1.317089
20
1.925957
30
0.0
11
-3.861340
21
4.961937
31
0.0
0
LINE
8
MCD_Layer_0
10
-1.317089
20
1.925957
30
0.0
11
-0.885327
21
4.961479
31
0.0
0
LINE
8
MCD_Layer_0
10
0.362720
20
1.929070
30
0.0
11
-0.885327
21
4.961479
31
0.0
0
LINE
8
MCD_Layer_0
10
-0.885327
20
4.721245
30
0.0
11
-2.429455
21
3.473198
31
0.0
0
LINE
8
MCD_Layer_0
10
0.602955
20
4.625298
30
0.0
11
-2.425610
21
4.289207
31
0.0
0
LINE
8
MCD_Layer_0
10
0.602497
20
5.201347
30
0.0
11
-2.425243
21
1.169182
31
0.0
0
LINE
8
MCD_Layer_0
10
0.601398
20
3.473198
30
0.0
11
-0.885327
21
3.473289
31
0.0
0
LINE
8
MCD_Layer_0
10
0.842823
20
1.933281
30
0.0
11
-3.189343
21
4.959923
31
0.0
0
LINE
8
MCD_Layer_0
10
2.042347
20
4.937950
30
0.0
11
0.170734
21
4.960197
31
0.0
0
LINE
8
MCD_Layer_0
10
-0.885327
20
6.400871
30
0.0
11
0.579426
21
4.529259
31
0.0
0
LINE
8
MCD_Layer_0
10
0.602497
20
0.928947
30
0.0
11
0.575855
21
3.473198
31
0.0
0
LINE
8
MCD_Layer_0
10
1.466572
20
4.946373
30
0.0
11
-3.861340
21
4.961937
31
0.0
0
LINE
8
MCD_Layer_0
10
1.466572
20
4.946373
30
0.0
11
-0.885327
21
4.961479
31
0.0
0
LINE
8
MCD_Layer_0
10
-0.885327
20
1.313194
30
0.0
11
0.586841
21
3.473198
31
0.0
0
LINE
8
MCD_Layer_0
10
0.602589
20
4.625023
30
0.0
11
0.583179
21
2.705254
31
0.0
0
LINE
8
MCD_Layer_0
10
0.696705
20
4.880455
30
0.0
11
-2.997357
21
4.893639
31
0.0
0
LINE
8
MCD_Layer_0
10
1.257030
20
1.942162
30
0.0
11
2.313000
21
3.473198
31
0.0
0
LINE
8
MCD_Layer_0
10
1.256939
20
4.942162
30
0.0
11
2.313000
21
3.473198
31
0.0
0
LINE
8
MCD_Layer_0
10
2.313000
20
3.473198
30
0.0
11
2.313091
21
3.473198
31
0.0
0
LINE
8
MCD_Layer_0
10
1.256939
20
4.942162
30
0.0
11
3.608929
21
4.938866
31
0.0
0
LINE
8
MCD_Layer_0
10
0.056957
20
4.934563
30
0.0
11
3.608929
21
4.938866
31
0.0
0
LINE
8
MCD_Layer_0
10
-0.686268
20
3.473198
30
0.0
11
2.313000
21
3.473473
31
0.0
0
LINE
8
MCD_Layer_0
10
2.313000
20
1.217155
30
0.0
11
3.774364
21
0.689262
31
0.0
0
LINE
8
MCD_Layer_0
10
3.770153
20
3.473198
30
0.0
11
2.313000
21
3.473289
31
0.0
0
LINE
8
MCD_Layer_0
10
3.032787
20
4.932640
30
0.0
11
2.504986
21
4.930351
31
0.0
0
LINE
8
MCD_Layer_0
10
3.176891
20
1.915154
30
0.0
11
2.504986
21
4.930351
31
0.0
0
LINE
8
MCD_Layer_0
10
3.176891
20
1.915154
30
0.0
11
0.824993
21
4.950676
31
0.0
0
LINE
8
MCD_Layer_0
10
4.905041
20
4.916252
30
0.0
11
0.824993
21
4.950676
31
0.0
0
LINE
8
MCD_Layer_0
10
4.905041
20
4.916252
30
0.0
11
0.441021
21
4.948479
31
0.0
0
LINE
8
MCD_Layer_0
10
4.473095
20
4.933556
30
0.0
11
0.441021
21
4.948479
31
0.0
0
LINE
8
MCD_Layer_0
10
4.473095
20
4.933556
30
0.0
11
-0.038990
21
4.955986
31
0.0
0
LINE
8
MCD_Layer_0
10
4.905041
20
4.916252
30
0.0
11
-0.038990
21
4.955986
31
0.0
0
LINE
8
MCD_Layer_0
10
4.905041
20
4.916252
30
0.0
11
5.192974
21
4.954521
31
0.0
0
LINE
8
MCD_Layer_0
10
4.616833
20
1.916069
30
0.0
11
5.192974
21
4.954521
31
0.0
0
LINE
8
MCD_Layer_0
10
4.616833
20
1.916069
30
0.0
11
5.289013
21
4.959465
31
0.0
0
LINE
8
MCD_Layer_0
10
0.680981
20
4.927147
30
0.0
11
5.289013
21
4.959465
31
0.0
0
LINE
8
MCD_Layer_0
10
0.680981
20
4.927147
30
0.0
11
2.264935
21
4.957451
31
0.0
0
LINE
8
MCD_Layer_0
10
5.001080
20
4.938774
30
0.0
11
2.264935
21
4.957451
31
0.0
0
LINE
8
MCD_Layer_0
10
5.001080
20
4.938774
30
0.0
11
0.824993
21
4.962395
31
0.0
0
LINE
8
MCD_Layer_0
10
4.617016
20
1.942436
30
0.0
11
0.824993
21
4.962395
31
0.0
0
LINE
8
MCD_Layer_0
10
4.617016
20
1.942436
30
0.0
11
3.801098
21
4.960472
31
0.0
0
LINE
8
MCD_Layer_0
10
5.289013
20
1.938957
30
0.0
11
3.801098
21
4.960472
31
0.0
0
LINE
8
MCD_Layer_0
10
5.289013
20
1.938957
30
0.0
11
2.457012
21
4.926414
31
0.0
0
LINE
8
MCD_Layer_0
10
1.257030
20
1.942162
30
0.0
11
2.457012
21
4.926414
31
0.0
0
LINE
8
MCD_Layer_0
10
4.233044
20
1.940239
30
0.0
11
2.504986
21
4.906914
31
0.0
0
LINE
8
MCD_Layer_0
10
4.233135
20
4.940239
30
0.0
11
2.504986
21
4.906914
31
0.0
0
LINE
8
MCD_Layer_0
10
4.233135
20
4.940239
30
0.0
11
4.856976
21
4.935753
31
0.0
0
LINE
8
MCD_Layer_0
10
1.208965
20
4.938225
30
0.0
11
4.856976
21
4.935753
31
0.0
0
LINE
8
MCD_Layer_0
10
1.208965
20
4.938225
30
0.0
11
2.504986
21
4.930351
31
0.0
0
LINE
8
MCD_Layer_0
10
2.313000
20
2.369164
30
0.0
11
3.778027
21
3.665184
31
0.0
0
LINE
8
MCD_Layer_0
10
3.766216
20
3.473198
30
0.0
11
2.313000
21
3.473289
31
0.0
0
LINE
8
MCD_Layer_0
10
3.273022
20
1.923027
30
0.0
11
2.457012
21
4.926414
31
0.0
0
LINE
8
MCD_Layer_0
10
3.273022
20
1.923027
30
0.0
11
-0.663013
21
4.951683
31
0.0
0
LINE
8
MCD_Layer_0
10
4.905041
20
4.916252
30
0.0
11
-0.663013
21
4.951683
31
0.0
0
LINE
8
MCD_Layer_0
10
2.313000
20
6.065239
30
0.0
11
3.756054
21
0.497185
31
0.0
0
LINE
8
MCD_Layer_0
10
3.790478
20
3.473198
30
0.0
11
2.313000
21
3.473289
31
0.0
0
LINE
8
MCD_Layer_0
10
5.001354
20
4.924126
30
0.0
11
0.824993
21
4.950676
31
0.0
0
LINE
8
MCD_Layer_0
10
5.001354
20
4.924126
30
0.0
11
2.888958
21
4.950127
31
0.0
0
LINE
8
MCD_Layer_0
10
4.425121
20
4.929619
30
0.0
11
2.888958
21
4.950127
31
0.0
0
LINE
8
MCD_Layer_0
10
4.425121
20
4.929619
30
0.0
11
4.664898
21
4.955162
31
0.0
0
LINE
8
MCD_Layer_0
10
5.001354
20
4.924126
30
0.0
11
4.664898
21
4.955162
31
0.0
0
LINE
8
MCD_Layer_0
10
5.001354
20
4.924126
30
0.0
11
5.192974
21
4.954521
31
0.0
0
LINE
8
MCD_Layer_0
10
2.313000
20
6.161552
30
0.0
11
3.763927
21
6.353172
31
0.0
0
LINE
8
MCD_Layer_0
10
3.793316
20
3.473198
30
0.0
11
2.313000
21
3.473289
31
0.0
0
LINE
8
MCD_Layer_0
10
4.905041
20
4.916252
30
0.0
11
0.681072
21
4.953514
31
0.0
0
LINE
8
MCD_Layer_0
10
4.712963
20
1.923943
30
0.0
11
0.681072
21
4.953514
31
0.0
0
LINE
8
MCD_Layer_0
10
4.712963
20
1.923943
30
0.0
11
3.801098
21
4.960472
31
0.0
0
LINE
8
MCD_Layer_0
10
0.680981
20
4.927147
30
0.0
11
3.801098
21
4.960472
31
0.0
0
LINE
8
MCD_Layer_0
10
2.313000
20
1.841179
30
0.0
11
3.766949
21
4.961296
31
0.0
0
LINE
8
MCD_Layer_0
10
3.799267
20
3.473198
30
0.0
11
2.313000
21
3.473289
31
0.0
0
LINE
8
MCD_Layer_0
10
0.728954
20
4.931084
30
0.0
11
5.289013
21
4.959465
31
0.0
0
LINE
8
MCD_Layer_0
10
1.496899
20
4.935478
30
0.0
11
4.568951
21
4.961937
31
0.0
0
LINE
8
MCD_Layer_0
10
1.593029
20
1.940422
30
0.0
11
4.568951
21
4.961937
31
0.0
0
LINE
8
MCD_Layer_0
10
1.593029
20
1.940422
30
0.0
11
2.313000
21
4.961479
31
0.0
0
LINE
8
MCD_Layer_0
10
5.289013
20
1.938957
30
0.0
11
2.313000
21
4.961479
31
0.0
0
LINE
8
MCD_Layer_0
10
2.313000
20
6.449211
30
0.0
11
0.778759
21
3.473198
31
0.0
0
LINE
8
MCD_Layer_0
10
3.801281
20
5.249138
30
0.0
11
0.777020
21
3.041252
31
0.0
0
LINE
8
MCD_Layer_0
10
3.800915
20
3.377251
30
0.0
11
0.775738
21
4.961296
31
0.0
0
LINE
8
MCD_Layer_0
10
3.800274
20
3.473198
30
0.0
11
2.313000
21
3.473289
31
0.0
0
LINE
8
MCD_Layer_0
10
2.217052
20
1.935936
30
0.0
11
3.801098
21
4.960472
31
0.0
0
LINE
8
MCD_Layer_0
10
2.217052
20
1.935936
30
0.0
11
2.457012
21
4.926414
31
0.0
0
LINE
8
MCD_Layer_0
10
2.313000
20
3.377251
30
0.0
11
0.775738
21
3.617210
31
0.0
0
LINE
8
MCD_Layer_0
10
3.766216
20
5.249138
30
0.0
11
0.777020
21
1.409142
31
0.0
0
LINE
8
MCD_Layer_0
10
3.760815
20
6.449211
30
0.0
11
0.778759
21
3.665184
31
0.0
0
LINE
8
MCD_Layer_0
10
3.758434
20
3.473198
30
0.0
11
2.313000
21
3.473289
31
0.0
0
LINE
8
MCD_Layer_0
10
5.289013
20
1.938957
30
0.0
11
2.504986
21
4.918633
31
0.0
0
LINE
8
MCD_Layer_0
10
4.233044
20
1.940239
30
0.0
11
2.504986
21
4.918633
31
0.0
0
LINE
8
MCD_Layer_0
10
2.811751
20
1.940422
30
0.0
11
5.491500
21
3.473198
31
0.0
0
LINE
8
MCD_Layer_0
10
8.147994
20
1.932457
30
0.0
11
5.491500
21
3.473198
31
0.0
0
LINE
8
MCD_Layer_0
10
2.492232
20
3.473198
30
0.0
11
5.491500
21
3.473473
31
0.0
0
LINE
8
MCD_Layer_0
10
5.491500
20
6.129692
30
0.0
11
3.950759
21
3.473198
31
0.0
0
LINE
8
MCD_Layer_0
10
5.491500
20
4.545647
30
0.0
11
3.949752
21
1.121208
31
0.0
0
LINE
8
MCD_Layer_0
10
6.903975
20
1.665672
30
0.0
11
3.947829
21
4.817192
31
0.0
0
LINE
8
MCD_Layer_0
10
6.902511
20
3.473198
30
0.0
11
5.491500
21
3.473289
31
0.0
0
LINE
8
MCD_Layer_0
10
5.491500
20
0.473930
30
0.0
11
5.491500
21
3.473198
31
0.0
0
LINE
8
MCD_Layer_0
10
5.491775
20
3.473198
30
0.0
11
3.683974
21
1.929527
31
0.0
0
LINE
8
MCD_Layer_0
10
6.835494
20
4.884209
30
0.0
11
8.293746
21
1.906822
31
0.0
0
LINE
8
MCD_Layer_0
10
5.683486
20
1.895195
30
0.0
11
7.666793
21
4.918816
31
0.0
0
LINE
8
MCD_Layer_0
10
7.747451
20
1.876976
30
0.0
11
5.491500
21
3.473198
31
0.0
0
LINE
8
MCD_Layer_0
10
5.491591
20
3.473198
30
0.0
11
2.492232
21
3.473198
31
0.0
0
LINE
8
MCD_Layer_0
10
5.491500
20
3.473473
30
0.0
11
5.491500
21
5.648491
31
0.0
0
LINE
8
MCD_Layer_0
10
6.937118
20
5.729149
30
0.0
11
3.895278
21
5.376762
31
0.0
0
LINE
8
MCD_Layer_0
10
6.949203
20
6.209160
30
0.0
11
6.922927
21
1.400902
31
0.0
0
LINE
8
MCD_Layer_0
10
6.956618
20
2.609306
30
0.0
11
6.943984
21
3.473198
31
0.0
0
LINE
8
MCD_Layer_0
10
5.491500
20
3.473289
30
0.0
11
5.491500
21
0.473930
31
0.0
0
LINE
8
MCD_Layer_0
10
3.419204
20
4.938316
30
0.0
11
4.627608
21
4.925682
31
0.0
0
LINE
8
MCD_Layer_0
10
6.587295
20
4.940422
30
0.0
11
3.427444
21
4.938591
31
0.0
0
LINE
8
MCD_Layer_0
10
5.147170
20
4.939415
30
0.0
11
4.147506
21
4.944908
31
0.0
0
LINE
8
MCD_Layer_0
10
5.491500
20
3.128868
30
0.0
11
6.957717
21
2.129204
31
0.0
0
LINE
8
MCD_Layer_0
10
6.963210
20
4.328941
30
0.0
11
6.956618
21
3.089226
31
0.0
0
LINE
8
MCD_Layer_0
10
6.965774
20
6.288811
30
0.0
11
6.953689
21
3.329185
31
0.0
0
LINE
8
MCD_Layer_0
10
6.967879
20
3.473198
30
0.0
11
5.491500
21
3.473289
31
0.0
0
LINE
8
MCD_Layer_0
10
8.307113
20
4.935387
30
0.0
11
5.347487
21
4.949577
31
0.0
0
LINE
8
MCD_Layer_0
10
3.205611
20
1.911308
30
0.0
11
6.211471
21
4.956078
31
0.0
0
LINE
8
MCD_Layer_0
10
5.491500
20
1.187309
30
0.0
11
3.929610
21
4.193169
31
0.0
0
LINE
8
MCD_Layer_0
10
6.974380
20
5.378044
30
0.0
11
3.935195
21
0.737236
31
0.0
0
LINE
8
MCD_Layer_0
10
6.975020
20
2.545952
30
0.0
11
3.937209
21
2.177269
31
0.0
0
LINE
8
MCD_Layer_0
10
6.975936
20
3.473198
30
0.0
11
5.491500
21
3.473289
31
0.0
0
LINE
8
MCD_Layer_0
10
5.491775
20
3.473198
30
0.0
11
4.564254
21
1.918907
31
0.0
0
LINE
8
MCD_Layer_0
10
4.195571
20
4.957634
30
0.0
11
8.260421
21
1.917442
31
0.0
0
LINE
8
MCD_Layer_0
10
5.923537
20
4.958824
30
0.0
11
4.356978
21
1.912041
31
0.0
0
LINE
8
MCD_Layer_0
10
5.827590
20
4.959740
30
0.0
11
5.491500
21
3.473198
31
0.0
0
LINE
8
MCD_Layer_0
10
5.491500
20
3.473473
30
0.0
11
5.491500
21
2.338676
31
0.0
0
LINE
8
MCD_Layer_0
10
3.930343
20
3.809288
30
0.0
11
6.978042
21
2.143120
31
0.0
0
LINE
8
MCD_Layer_0
10
6.912032
20
3.281303
30
0.0
11
6.978591
21
1.328300
31
0.0
0
LINE
8
MCD_Layer_0
10
6.934279
20
2.561241
30
0.0
11
6.978133
21
3.473198
31
0.0
0
LINE
8
MCD_Layer_0
10
3.346602
20
4.915977
30
0.0
11
4.579543
21
4.959831
31
0.0
0
LINE
8
MCD_Layer_0
10
3.970626
20
4.920280
30
0.0
11
6.787612
21
4.959373
31
0.0
0
LINE
8
MCD_Layer_0
10
4.018600
20
4.924217
30
0.0
11
3.379561
21
4.958092
31
0.0
0
LINE
8
MCD_Layer_0
10
4.018600
20
4.924217
30
0.0
11
2.611526
21
4.956627
31
0.0
0
LINE
8
MCD_Layer_0
10
4.899154
20
4.937035
30
0.0
11
2.611526
21
4.956627
31
0.0
0
LINE
8
MCD_Layer_0
10
4.899154
20
4.937035
30
0.0
11
6.451522
21
4.962578
31
0.0
0
LINE
8
MCD_Layer_0
10
3.219161
20
4.928154
30
0.0
11
6.451522
21
4.962578
31
0.0
0
LINE
8
MCD_Layer_0
10
5.491500
20
1.200859
30
0.0
11
6.946456
21
4.433220
31
0.0
0
LINE
8
MCD_Layer_0
10
6.980880
20
5.040764
30
0.0
11
6.945083
21
2.753227
31
0.0
0
LINE
8
MCD_Layer_0
10
6.980697
20
1.424248
30
0.0
11
6.942153
21
5.057243
31
0.0
0
LINE
8
MCD_Layer_0
10
6.980788
20
3.473198
30
0.0
11
5.491500
21
3.473289
31
0.0
0
LINE
8
MCD_Layer_0
10
5.491775
20
3.473198
30
0.0
11
3.442550
21
4.923851
31
0.0
0
LINE
8
MCD_Layer_0
10
7.075545
20
4.962486
30
0.0
11
3.008590
21
4.892998
31
0.0
0
LINE
8
MCD_Layer_0
10
4.579543
20
4.962761
30
0.0
11
2.869430
21
1.907188
31
0.0
0
LINE
8
MCD_Layer_0
10
3.811507
20
4.962761
30
0.0
11
5.491500
21
3.473198
31
0.0
0
LINE
8
MCD_Layer_0
10
5.491500
20
3.473473
30
0.0
11
5.491500
21
0.851128
31
0.0
0
LINE
8
MCD_Layer_0
10
3.925490
20
1.793205
30
0.0
11
6.981063
21
3.458183
31
0.0
0
LINE
8
MCD_Layer_0
10
3.941695
20
5.201256
30
0.0
11
6.980880
21
4.545647
31
0.0
0
LINE
8
MCD_Layer_0
10
3.949752
20
2.177177
30
0.0
11
6.980330
21
3.473198
31
0.0
0
LINE
8
MCD_Layer_0
10
6.563949
20
1.931450
30
0.0
11
4.195479
21
4.962029
31
0.0
0
LINE
8
MCD_Layer_0
10
7.331893
20
1.935844
30
0.0
11
3.331496
21
4.961479
31
0.0
0
LINE
8
MCD_Layer_0
10
6.363723
20
1.938866
30
0.0
11
2.899550
21
4.959740
31
0.0
0
LINE
8
MCD_Layer_0
10
5.491500
20
4.345421
30
0.0
11
3.957168
21
0.881248
31
0.0
0
LINE
8
MCD_Layer_0
10
6.978042
20
5.497429
30
0.0
11
3.957900
21
4.961205
31
0.0
0
LINE
8
MCD_Layer_0
10
6.975844
20
4.633446
30
0.0
11
3.957351
21
3.185265
31
0.0
0
LINE
8
MCD_Layer_0
10
6.973647
20
3.473198
30
0.0
11
5.491500
21
3.473289
31
0.0
0
LINE
8
MCD_Layer_0
10
5.491775
20
3.473198
30
0.0
11
6.651748
21
1.939049
31
0.0
0
LINE
8
MCD_Layer_0
10
5.203567
20
4.955345
30
0.0
11
2.772017
21
1.936760
31
0.0
0
LINE
8
MCD_Layer_0
10
3.859572
20
4.953514
30
0.0
11
8.291915
21
1.932549
31
0.0
0
LINE
8
MCD_Layer_0
10
6.307601
20
4.952232
30
0.0
11
5.491500
21
3.473198
31
0.0
0
LINE
8
MCD_Layer_0
10
8.291915
20
1.932549
30
0.0
11
6.307601
21
4.952232
31
0.0
0
LINE
8
MCD_Layer_0
10
4.210494
20
4.916527
30
0.0
11
3.331496
21
4.942436
31
0.0
0
LINE
8
MCD_Layer_0
10
5.491500
20
2.192192
30
0.0
11
6.934829
21
1.313194
31
0.0
0
LINE
8
MCD_Layer_0
10
6.960738
20
4.832207
30
0.0
11
6.940505
21
2.465202
31
0.0
0
LINE
8
MCD_Layer_0
10
6.955611
20
4.208183
30
0.0
11
6.936202
21
6.113213
31
0.0
0
LINE
8
MCD_Layer_0
10
6.950210
20
3.473198
30
0.0
11
5.491500
21
3.473289
31
0.0
0
LINE
8
MCD_Layer_0
10
5.491775
20
3.473198
30
0.0
11
6.226485
21
4.917900
31
0.0
0
LINE
8
MCD_Layer_0
10
8.131515
20
4.931908
30
0.0
11
5.312789
21
4.894463
31
0.0
0
LINE
8
MCD_Layer_0
10
8.371474
20
4.928154
30
0.0
11
8.293746
21
1.906822
31
0.0
0
LINE
8
MCD_Layer_0
10
7.939437
20
4.927879
30
0.0
11
5.491500
21
3.473198
31
0.0
0
LINE
8
MCD_Layer_0
10
5.491500
20
3.473473
30
0.0
11
5.491500
21
6.275444
31
0.0
0
LINE
8
MCD_Layer_0
10
3.925124
20
5.921135
30
0.0
11
6.946181
21
6.290092
31
0.0
0
LINE
8
MCD_Layer_0
10
3.939681
20
3.089134
30
0.0
11
6.948195
21
4.209648
31
0.0
0
LINE
8
MCD_Layer_0
10
3.945632
20
1.265129
30
0.0
11
6.950942
21
3.473198
31
0.0
0
LINE
8
MCD_Layer_0
10
6.227950
20
1.927330
30
0.0
11
3.283431
21
4.932640
31
0.0
0
LINE
8
MCD_Layer_0
10
4.691970
20
1.930168
30
0.0
11
4.627517
21
4.937401
31
0.0
0
LINE
8
MCD_Layer_0
10
6.707870
20
1.931541
30
0.0
11
7.603530
21
4.941338
31
0.0
0
LINE
8
MCD_Layer_0
10
6.707870
20
1.931541
30
0.0
11
7.699569
21
4.943352
31
0.0
0
LINE
8
MCD_Layer_0
10
2.811751
20
1.940422
30
0.0
11
7.699569
21
4.943352
31
0.0
0
LINE
8
MCD_Layer_0
10
5.787765
20
1.938499
30
0.0
11
6.259444
21
4.907280
31
0.0
0
LINE
8
MCD_Layer_0
10
6.756026
20
1.935478
30
0.0
11
6.259444
21
4.907280
31
0.0
0
LINE
8
MCD_Layer_0
10
5.491500
20
4.737724
30
0.0
11
3.953780
21
4.241142
31
0.0
0
LINE
8
MCD_Layer_0
10
6.925582
20
1.425621
30
0.0
11
3.951583
21
3.185081
31
0.0
0
LINE
8
MCD_Layer_0
10
6.932631
20
2.241631
30
0.0
11
3.948195
21
6.305107
31
0.0
0
LINE
8
MCD_Layer_0
10
6.930800
20
3.473198
30
0.0
11
5.491500
21
3.473289
31
0.0
0
LINE
8
MCD_Layer_0
10
5.491775
20
3.473198
30
0.0
11
4.259933
21
1.929893
31
0.0
0
LINE
8
MCD_Layer_0
10
8.323409
20
4.912498
30
0.0
11
6.916427
21
1.924400
31
0.0
0
LINE
8
MCD_Layer_0
10
7.651504
20
4.904259
30
0.0
11
2.491500
21
1.889977
31
0.0
0
LINE
8
MCD_Layer_0
10
4.051375
20
4.890160
30
0.0
11
5.491500
21
3.473198
31
0.0
0
LINE
8
MCD_Layer_0
10
5.491500
20
3.473473
30
0.0
11
5.491500
21
0.473198
31
0.0
0
LINE
8
MCD_Layer_0
10
3.908278
20
2.033073
30
0.0
11
6.908462
21
3.104424
31
0.0
0
LINE
8
MCD_Layer_0
10
6.939315
20
0.785118
30
0.0
11
6.923293
21
5.664787
31
0.0
0
LINE
8
MCD_Layer_0
10
6.949386
20
5.105217
30
0.0
11
6.937850
21
3.473198
31
0.0
0
LINE
8
MCD_Layer_0
10
7.683089
20
4.931084
30
0.0
11
7.123519
21
4.919548
31
0.0
0
LINE
8
MCD_Layer_0
10
5.858993
20
4.933830
30
0.0
11
4.339583
21
4.925499
31
0.0
0
LINE
8
MCD_Layer_0
10
3.275283
20
4.938225
30
0.0
11
7.027480
21
4.935112
31
0.0
0
LINE
8
MCD_Layer_0
10
5.491500
20
1.256981
30
0.0
11
6.956527
21
5.009178
31
0.0
0
LINE
8
MCD_Layer_0
10
6.953414
20
4.761070
30
0.0
11
6.956893
21
0.785118
31
0.0
0
LINE
8
MCD_Layer_0
10
6.958449
20
1.536858
30
0.0
11
6.950576
21
4.529167
31
0.0
0
LINE
8
MCD_Layer_0
10
6.966781
20
3.473198
30
0.0
11
5.491500
21
3.473289
31
0.0
0
LINE
8
MCD_Layer_0
10
3.555160
20
4.932274
30
0.0
11
6.547469
21
4.948479
31
0.0
0
LINE
8
MCD_Layer_0
10
4.228255
20
1.914787
30
0.0
11
7.411452
21
4.954887
31
0.0
0
LINE
8
MCD_Layer_0
10
5.491500
20
2.209953
30
0.0
11
3.933089
21
5.393150
31
0.0
0
LINE
8
MCD_Layer_0
10
6.973189
20
3.410027
30
0.0
11
3.937758
21
6.401237
31
0.0
0
LINE
8
MCD_Layer_0
10
6.973830
20
3.746208
30
0.0
11
3.941970
21
1.697166
31
0.0
0
LINE
8
MCD_Layer_0
10
6.974654
20
3.473198
30
0.0
11
5.491500
21
3.473289
31
0.0
0
LINE
8
MCD_Layer_0
10
5.491775
20
3.473198
30
0.0
11
5.764510
21
1.923668
31
0.0
0
LINE
8
MCD_Layer_0
10
3.715468
20
4.956352
30
0.0
11
3.508285
21
1.926048
31
0.0
0
LINE
8
MCD_Layer_0
10
5.299514
20
4.957359
30
0.0
11
3.796309
21
1.926231
31
0.0
0
LINE
8
MCD_Layer_0
10
5.347579
20
4.958366
30
0.0
11
5.491500
21
3.473198
31
0.0
0
LINE
8
MCD_Layer_0
10
5.491500
20
3.473473
30
0.0
11
5.491500
21
1.778008
31
0.0
0
LINE
8
MCD_Layer_0
10
3.944533
20
3.329277
30
0.0
11
6.976668
21
3.170158
31
0.0
0
LINE
8
MCD_Layer_0
10
3.941512
20
2.129295
30
0.0
11
6.977859
21
5.378044
31
0.0
0
LINE
8
MCD_Layer_0
10
3.935195
20
3.569328
30
0.0
11
6.978866
21
3.473198
31
0.0
0
LINE
8
MCD_Layer_0
10
7.396346
20
1.916893
30
0.0
11
5.587630
21
4.960564
31
0.0
0
LINE
8
MCD_Layer_0
10
8.117965
20
1.901054
30
0.0
11
3.523574
21
4.961113
31
0.0
0
LINE
8
MCD_Layer_0
10
5.614547
20
4.890434
30
0.0
11
8.275527
21
4.961296
31
0.0
0
LINE
8
MCD_Layer_0
10
5.491500
20
3.596245
30
0.0
11
6.908736
21
6.257225
31
0.0
0
LINE
8
MCD_Layer_0
10
6.979598
20
0.752251
30
0.0
11
6.933913
21
5.825279
31
0.0
0
LINE
8
MCD_Layer_0
10
6.979323
20
3.728447
30
0.0
11
6.943709
21
4.385338
31
0.0
0
LINE
8
MCD_Layer_0
10
6.978408
20
3.473198
30
0.0
11
5.491500
21
3.473289
31
0.0
0
LINE
8
MCD_Layer_0
10
5.491775
20
3.473198
30
0.0
11
5.746749
21
4.925407
31
0.0
0
LINE
8
MCD_Layer_0
10
6.403640
20
4.960106
30
0.0
11
7.922957
21
4.927330
31
0.0
0
LINE
8
MCD_Layer_0
10
7.075545
20
4.959557
30
0.0
11
4.083236
21
4.928703
31
0.0
0
LINE
8
MCD_Layer_0
10
8.275527
20
4.958366
30
0.0
11
5.491500
21
3.473198
31
0.0
0
LINE
8
MCD_Layer_0
10
4.083236
20
4.928703
30
0.0
11
8.275527
21
4.958366
31
0.0
0
LINE
8
MCD_Layer_0
10
4.083236
20
4.928703
30
0.0
11
7.123519
21
4.957634
31
0.0
0
LINE
8
MCD_Layer_0
10
4.851180
20
4.933098
30
0.0
11
7.123519
21
4.957634
31
0.0
0
LINE
8
MCD_Layer_0
10
4.851180
20
4.933098
30
0.0
11
7.747451
21
4.961937
31
0.0
0
LINE
8
MCD_Layer_0
10
4.851180
20
4.933098
30
0.0
11
4.195479
21
4.962029
31
0.0
0
LINE
8
MCD_Layer_0
10
4.803023
20
4.929161
30
0.0
11
4.195479
21
4.962029
31
0.0
0
LINE
8
MCD_Layer_0
10
5.491500
20
2.784721
30
0.0
11
6.947463
21
2.177177
31
0.0
0
LINE
8
MCD_Layer_0
10
6.980330
20
1.200859
30
0.0
11
6.946456
21
5.585228
31
0.0
0
LINE
8
MCD_Layer_0
10
6.980147
20
3.152397
30
0.0
11
6.943252
21
1.121208
31
0.0
0
LINE
8
MCD_Layer_0
10
6.980147
20
3.473198
30
0.0
11
5.491500
21
3.473289
31
0.0
0
LINE
8
MCD_Layer_0
10
5.491775
20
3.473198
30
0.0
11
5.170699
21
4.924950
31
0.0
0
LINE
8
MCD_Layer_0
10
3.139510
20
4.961845
30
0.0
11
6.802535
21
4.918266
31
0.0
0
LINE
8
MCD_Layer_0
10
8.035476
20
4.962120
30
0.0
11
2.498092
21
4.906548
31
0.0
0
LINE
8
MCD_Layer_0
10
6.019576
20
4.962303
30
0.0
11
5.491500
21
3.473198
31
0.0
0
LINE
8
MCD_Layer_0
10
5.491500
20
3.473473
30
0.0
11
5.491500
21
0.479790
31
0.0
0
LINE
8
MCD_Layer_0
10
6.924850
20
4.001274
30
0.0
11
6.980605
21
3.596245
31
0.0
0
LINE
8
MCD_Layer_0
10
6.908736
20
6.305290
30
0.0
11
6.980605
21
2.258110
31
0.0
0
LINE
8
MCD_Layer_0
10
3.937026
20
3.089134
30
0.0
11
6.980422
21
3.473198
31
0.0
0
LINE
8
MCD_Layer_0
10
4.276412
20
1.918724
30
0.0
11
5.107436
21
4.962120
31
0.0
0
LINE
8
MCD_Layer_0
10
3.827987
20
1.929619
30
0.0
11
7.315505
21
4.961662
31
0.0
0
LINE
8
MCD_Layer_0
10
3.875960
20
1.933556
30
0.0
11
4.339583
21
4.960655
31
0.0
0
LINE
8
MCD_Layer_0
10
5.491500
20
1.857658
30
0.0
11
3.951858
21
2.321281
31
0.0
0
LINE
8
MCD_Layer_0
10
6.978957
20
6.321587
30
0.0
11
3.954787
21
4.337273
31
0.0
0
LINE
8
MCD_Layer_0
10
6.977401
20
1.617607
30
0.0
11
3.955611
21
2.033257
31
0.0
0
LINE
8
MCD_Layer_0
10
6.975844
20
3.473198
30
0.0
11
5.491500
21
3.473289
31
0.0
0
LINE
8
MCD_Layer_0
10
5.491775
20
3.473198
30
0.0
11
3.635909
21
1.937309
31
0.0
0
LINE
8
MCD_Layer_0
10
4.051558
20
4.957542
30
0.0
11
8.195968
21
1.936394
31
0.0
0
LINE
8
MCD_Layer_0
10
7.027572
20
4.955620
30
0.0
11
5.843978
21
1.930992
31
0.0
0
LINE
8
MCD_Layer_0
10
4.819594
20
4.953148
30
0.0
11
5.491500
21
3.473198
31
0.0
0
LINE
8
MCD_Layer_0
10
5.843978
20
1.930992
30
0.0
11
4.819594
21
4.953148
31
0.0
0
LINE
8
MCD_Layer_0
10
5.698775
20
4.921471
30
0.0
11
5.635512
21
4.943993
31
0.0
0
LINE
8
MCD_Layer_0
10
5.491500
20
3.680473
30
0.0
11
6.939773
21
3.617210
31
0.0
0
LINE
8
MCD_Layer_0
10
6.962295
20
1.056755
30
0.0
11
6.946364
21
2.705162
31
0.0
0
LINE
8
MCD_Layer_0
10
6.957717
20
6.336784
30
0.0
11
6.945907
21
4.721245
31
0.0
0
LINE
8
MCD_Layer_0
10
6.953231
20
3.473198
30
0.0
11
5.491500
21
3.473289
31
0.0
0
LINE
8
MCD_Layer_0
10
5.491775
20
3.473198
30
0.0
11
8.355086
21
4.927605
31
0.0
0
LINE
8
MCD_Layer_0
10
6.739547
20
4.934929
30
0.0
11
7.426558
21
4.922569
31
0.0
0
LINE
8
MCD_Layer_0
10
3.379470
20
4.928795
30
0.0
11
7.003219
21
4.887413
31
0.0
0
LINE
8
MCD_Layer_0
10
4.291518
20
4.921562
30
0.0
11
5.491500
21
3.473198
31
0.0
0
LINE
8
MCD_Layer_0
10
5.491500
20
3.473473
30
0.0
11
5.491500
21
4.984917
31
0.0
0
LINE
8
MCD_Layer_0
10
6.905715
20
2.273216
30
0.0
11
6.939864
21
3.731010
31
0.0
0
LINE
8
MCD_Layer_0
10
3.927413
20
2.561241
30
0.0
11
6.940047
21
3.921623
31
0.0
0
LINE
8
MCD_Layer_0
10
3.945449
20
5.201164
30
0.0
11
6.945724
21
3.473198
31
0.0
0
LINE
8
MCD_Layer_0
10
5.939925
20
1.927147
30
0.0
11
7.219466
21
4.927422
31
0.0
0
LINE
8
MCD_Layer_0
10
7.715957
20
1.932182
30
0.0
11
3.283431
21
4.932640
31
0.0
0
LINE
8
MCD_Layer_0
10
6.035964
20
1.935020
30
0.0
11
8.371474
21
4.939873
31
0.0
0
LINE
8
MCD_Layer_0
10
6.035964
20
1.935020
30
0.0
11
7.603530
21
4.941338
31
0.0
0
LINE
8
MCD_Layer_0
10
5.787765
20
1.938499
30
0.0
11
7.603530
21
4.941338
31
0.0
0
LINE
8
MCD_Layer_0
10
6.779125
20
1.938408
30
0.0
11
10.293377
21
4.622826
31
0.0
0
LINE
8
MCD_Layer_0
10
9.816479
20
4.869469
30
0.0
11
8.316845
21
4.949120
31
0.0
0
LINE
8
MCD_Layer_0
10
10.393261
20
4.938866
30
0.0
11
8.164501
21
3.473198
31
0.0
0
LINE
8
MCD_Layer_0
10
10.109997
20
3.667656
30
0.0
11
8.234814
21
3.508354
31
0.0
0
LINE
8
MCD_Layer_0
10
8.164501
20
3.520073
30
0.0
11
8.164501
21
5.981010
31
0.0
0
LINE
8
MCD_Layer_0
10
9.678967
20
3.490868
30
0.0
11
8.164501
21
5.981010
31
0.0
0
LINE
8
MCD_Layer_0
10
9.678967
20
3.479149
30
0.0
11
8.164501
21
3.473198
31
0.0
0
LINE
8
MCD_Layer_0
10
8.164501
20
3.473198
30
0.0
11
8.164501
21
3.449760
31
0.0
0
LINE
8
MCD_Layer_0
10
8.211285
20
3.824760
30
0.0
11
9.734814
21
6.080894
31
0.0
0
LINE
8
MCD_Layer_0
10
10.799480
20
6.061485
30
0.0
11
10.751873
21
5.358818
31
0.0
0
LINE
8
MCD_Layer_0
10
10.447826
20
5.849449
30
0.0
11
8.164593
21
3.473198
31
0.0
0
LINE
8
MCD_Layer_0
10
8.164593
20
3.473198
30
0.0
11
7.732555
21
1.995354
31
0.0
0
LINE
8
MCD_Layer_0
10
9.872509
20
4.981804
30
0.0
11
8.164501
21
3.473198
31
0.0
0
LINE
8
MCD_Layer_0
10
-0.762360
20
-0.483524
30
0.0
11
0.000000
21
0.006710
31
0.0
0
LINE
8
MCD_Layer_0
10
-0.762360
20
0.516476
30
0.0
11
0.000000
21
0.006710
31
0.0
0
LINE
8
MCD_Layer_1
10
-12.038676
20
0.000000
30
0.0
11
12.038676
21
0.000000
31
0.0
0
ARC
8
MCD_Layer_0
10
-7.517382
20
4.395545
40
2.803689
50
296.931846
51
242.969183
0
ARC
8
MCD_Layer_0
10
-100.051052
20
95.719273
40
131.629529
50
315.508715
51
316.380475
0
ARC
8
MCD_Layer_0
10
-6.153575
20
3.538113
40
2.180117
50
227.033686
51
313.117900
0
ARC
8
MCD_Layer_0
10
-7.620417
20
3.135072
40
1.543966
50
165.514820
51
309.830497
0
ARC
8
MCD_Layer_0
10
-7.637378
20
3.069321
40
1.586519
50
344.943468
51
14.747972
0
ARC
8
MCD_Layer_0
10
-10.341656
20
-0.849412
40
4.803696
50
55.074686
51
28.045322
0
ARC
8
MCD_Layer_0
10
-325.343268
20
4.437809
40
319.238057
50
0.257613
51
359.809638
0
ARC
8
MCD_Layer_0
10
-7.918877
20
3.668819
40
1.971659
50
25.874659
51
231.340594
0
ARC
8
MCD_Layer_0
10
-8.412343
20
2.606481
40
2.462740
50
339.528033
51
20.605531
0
ARC
8
MCD_Layer_0
10
-5.958789
20
1.967745
40
3.381215
50
200.471211
51
159.765198
0
ARC
8
MCD_Layer_0
10
-8.883683
20
1.923446
40
3.164177
50
29.326157
51
72.410789
0
ARC
8
MCD_Layer_0
10
-1017.660175
20
1.306644
40
1011.524093
50
359.965024
51
0.084651
0
ARC
8
MCD_Layer_0
10
-71.784484
20
2.944027
40
65.665793
50
1.383227
51
358.199775
0
ARC
8
MCD_Layer_0
10
-8.463903
20
5.257218
40
3.386420
50
259.524619
51
284.928771
0
ARC
8
MCD_Layer_0
10
-9.111542
20
6.418094
40
4.553404
50
259.472404
51
280.733674
0
ARC
8
MCD_Layer_0
10
-7.745768
20
2.872216
40
2.188489
50
274.042161
51
318.049375
0
ARC
8
MCD_Layer_0
10
-7.606548
20
3.327468
40
1.626498
50
22.626143
51
337.508364
0
ARC
8
MCD_Layer_0
10
-8.405972
20
4.406538
40
2.485137
50
252.751390
51
271.072781
0
ARC
8
MCD_Layer_0
10
308.774192
20
0.289489
40
314.905495
50
179.962211
51
179.735149
0
ARC
8
MCD_Layer_0
10
-91.820967
20
2.914073
40
85.719755
50
359.635776
51
0.373727
0
ARC
8
MCD_Layer_0
10
-8.401483
20
2.680688
40
2.283979
50
85.329866
51
4.230475
0
ARC
8
MCD_Layer_0
10
-7.105321
20
3.603066
40
2.238169
50
155.555166
51
204.999630
0
ARC
8
MCD_Layer_0
10
-7.002868
20
2.944346
40
2.512009
50
147.630803
51
212.322361
0
ARC
8
MCD_Layer_0
10
-6.305189
20
2.524887
40
1.613203
50
114.810768
51
291.619302
0
ARC
8
MCD_Layer_0
10
-6.404641
20
1.888873
40
1.938237
50
125.174125
51
316.110738
0
ARC
8
MCD_Layer_0
10
-7.726632
20
2.781792
40
0.773612
50
65.351779
51
280.059828
0
ARC
8
MCD_Layer_0
10
-9.096235
20
5.610273
40
4.119478
50
258.248327
51
337.550364
0
ARC
8
MCD_Layer_0
10
-6.100908
20
3.156792
40
1.539940
50
165.455857
51
282.044000
0
ARC
8
MCD_Layer_0
10
-11.712928
20
-4.832170
40
8.053719
50
62.278136
51
72.366458
0
ARC
8
MCD_Layer_0
10
-7.576898
20
1.580287
40
1.892931
50
333.246281
51
89.732584
0
ARC
8
MCD_Layer_0
10
-7.981149
20
2.652885
40
0.950705
50
61.065441
51
294.195543
0
ARC
8
MCD_Layer_0
10
-8.074899
20
2.465385
40
1.160190
50
61.493462
51
294.623565
0
ARC
8
MCD_Layer_0
10
-8.208942
20
6.040426
40
5.352148
50
309.689116
51
321.453718
0
ARC
8
MCD_Layer_0
10
-4.092533
20
2.878710
40
2.169639
50
343.958540
51
156.347680
0
ARC
8
MCD_Layer_0
10
-1.015422
20
3.990326
40
2.318434
50
86.783253
51
231.445699
0
ARC
8
MCD_Layer_0
10
-2.088784
20
3.712423
40
2.614084
50
262.430873
51
97.336394
0
ARC
8
MCD_Layer_0
10
-0.820278
20
5.245009
40
1.624019
50
30.331717
51
330.009003
0
ARC
8
MCD_Layer_0
10
-1.080547
20
4.695271
40
1.875871
50
135.195696
51
224.637394
0
ARC
8
MCD_Layer_0
10
-37.692241
20
3.920466
40
38.336748
50
356.387868
51
3.350754
0
ARC
8
MCD_Layer_0
10
1.617542
20
3.884050
40
1.093938
50
202.059644
51
80.257349
0
ARC
8
MCD_Layer_0
10
-1.739234
20
82.431442
40
77.518875
50
268.502322
51
271.518249
0
ARC
8
MCD_Layer_0
10
-1.777691
20
-91.190328
40
96.152877
50
88.753110
51
91.155818
0
ARC
8
MCD_Layer_0
10
-2.403429
20
-23.102948
40
28.076689
50
92.682050
51
87.390807
0
ARC
8
MCD_Layer_0
10
-2.028952
20
50.160253
40
45.234034
50
272.178640
51
267.800110
0
ARC
8
MCD_Layer_0
10
-0.871913
20
4.784957
40
1.551868
50
269.504760
51
19.273853
0
ARC
8
MCD_Layer_0
10
-0.994589
20
26.037441
40
21.109376
50
268.472177
51
270.166104
0
ARC
8
MCD_Layer_0
10
-0.950750
20
29.685126
40
24.756978
50
270.040172
51
272.373896
0
ARC
8
MCD_Layer_0
10
-2.287875
20
-241.061111
40
246.008873
50
90.053423
51
89.807486
0
ARC
8
MCD_Layer_0
10
0.512588
20
-326.751949
40
331.697913
50
89.826911
51
90.108802
0
ARC
8
MCD_Layer_0
10
-1.559151
20
3.957210
40
2.150985
50
352.197200
51
153.098438
0
ARC
8
MCD_Layer_0
10
-1.634176
20
-34.784921
40
39.691268
50
88.641742
51
92.314952
0
ARC
8
MCD_Layer_0
10
-1.031038
20
4.727491
40
1.871507
50
138.434102
51
222.082887
0
ARC
8
MCD_Layer_0
10
-3.303728
20
2.306553
40
4.048921
50
342.976984
51
16.746462
0
ARC
8
MCD_Layer_0
10
-0.879124
20
4.313826
40
1.771119
50
210.117133
51
149.930121
0
ARC
8
MCD_Layer_0
10
-0.925930
20
4.571368
40
1.530654
50
14.687670
51
167.094463
0
ARC
8
MCD_Layer_0
10
-2.663200
20
-202.810663
40
207.772875
50
89.906836
51
89.999492
0
ARC
8
MCD_Layer_0
10
-1.395241
20
-0.295162
40
5.806783
50
64.215196
51
84.962161
0
ARC
8
MCD_Layer_0
10
-2.413989
20
27.452246
40
22.518025
50
271.080504
51
271.324690
0
ARC
8
MCD_Layer_0
10
-1.458460
20
55.128359
40
50.223936
50
272.735710
51
267.257733
0
ARC
8
MCD_Layer_0
10
-3.539388
20
6.852662
40
1.917940
50
274.727174
51
264.679416
0
ARC
8
MCD_Layer_0
10
-2.108193
20
-74.147251
40
79.106602
50
91.165487
51
91.235128
0
ARC
8
MCD_Layer_0
10
-2.618541
20
-19.162588
40
24.124843
50
89.303467
51
90.557441
0
ARC
8
MCD_Layer_0
10
-0.690883
20
4.722335
40
1.795010
50
43.997628
51
315.901496
0
ARC
8
MCD_Layer_0
10
-1.285151
20
3.732759
40
2.413798
50
80.465520
51
38.918401
0
ARC
8
MCD_Layer_0
10
-1.612566
20
4.201640
40
1.063880
50
43.225343
51
219.762762
0
ARC
8
MCD_Layer_0
10
-0.762492
20
5.205358
40
1.729049
50
39.497360
51
320.141514
0
ARC
8
MCD_Layer_0
10
-2.654638
20
515.430625
40
510.509323
50
270.031561
51
270.263227
0
ARC
8
MCD_Layer_0
10
3.743566
20
8.078593
40
5.010299
50
218.723184
51
230.849263
0
ARC
8
MCD_Layer_0
10
-337.147310
20
3.863343
40
337.736188
50
0.243250
51
359.819795
0
ARC
8
MCD_Layer_0
10
2.078709
20
659.687594
40
654.762120
50
269.681815
51
269.740627
0
ARC
8
MCD_Layer_0
10
-1.327790
20
44.334277
40
39.404579
50
270.643372
51
268.270210
0
ARC
8
MCD_Layer_0
10
1.482884
20
2.911562
40
2.590143
50
128.155217
51
205.476976
0
ARC
8
MCD_Layer_0
10
21.853236
20
48.909307
40
50.766374
50
239.869189
51
243.390588
0
ARC
8
MCD_Layer_0
10
-3.237524
20
5.207573
40
2.389730
50
10.168095
51
349.831905
0
ARC
8
MCD_Layer_0
10
-0.524975
20
4.152885
40
0.728220
50
246.529007
51
119.659109
0
ARC
8
MCD_Layer_0
10
-1.095526
20
10.092559
40
5.026569
50
255.555709
51
284.448474
0
ARC
8
MCD_Layer_0
10
-0.870770
20
12.521024
40
9.047831
50
287.271159
51
270.056237
0
ARC
8
MCD_Layer_0
10
-0.500439
20
4.445854
40
0.981001
50
258.392245
51
113.100294
0
ARC
8
MCD_Layer_0
10
-2.378757
20
4.461207
40
1.738752
50
289.534094
51
214.403463
0
ARC
8
MCD_Layer_0
10
-0.995466
20
4.432493
40
2.904761
50
325.785953
51
241.278216
0
ARC
8
MCD_Layer_0
10
-2.042555
20
4.104880
40
1.359738
50
332.318168
51
134.112382
0
ARC
8
MCD_Layer_0
10
5.078202
20
9.012926
40
9.487578
50
210.609517
51
202.685192
0
ARC
8
MCD_Layer_0
10
-0.606415
20
3.578667
40
0.290724
50
339.924694
51
163.610727
0
ARC
8
MCD_Layer_0
10
-1.452724
20
3.665794
40
2.474311
50
8.351320
51
98.469564
0
ARC
8
MCD_Layer_0
10
-1.241632
20
5.043973
40
1.587831
50
180.660910
51
282.967459
0
ARC
8
MCD_Layer_0
10
-1.921004
20
4.387639
40
0.959097
50
281.889870
51
214.882658
0
ARC
8
MCD_Layer_0
10
0.734581
20
3.552317
40
1.301504
50
164.467468
51
113.641310
0
ARC
8
MCD_Layer_0
10
0.099367
20
5.209714
40
1.975920
50
330.238127
51
240.109299
0
ARC
8
MCD_Layer_0
10
-1.587700
20
6.938590
40
2.111604
50
338.747538
51
240.922160
0
ARC
8
MCD_Layer_0
10
-2.259767
20
3.787247
40
1.404828
50
81.883029
51
348.061218
0
ARC
8
MCD_Layer_0
10
-0.275201
20
5.558344
40
2.154115
50
7.049608
51
254.872584
0
ARC
8
MCD_Layer_0
10
-0.737617
20
4.586629
40
1.053228
50
98.062003
51
95.433794
0
ARC
8
MCD_Layer_0
10
-0.870815
20
4.910159
40
1.436989
50
192.418744
51
270.355916
0
ARC
8
MCD_Layer_0
10
1.750903
20
4.217155
40
3.181172
50
222.101694
51
137.898306
0
ARC
8
MCD_Layer_0
10
2.839733
20
2.757011
40
2.401330
50
200.119769
51
340.054616
0
ARC
8
MCD_Layer_0
10
3.286292
20
3.209335
40
1.756851
50
96.709295
51
82.586357
0
ARC
8
MCD_Layer_0
10
-1975.206563
20
3.093534
40
1978.994049
50
359.931781
51
0.080476
0
ARC
8
MCD_Layer_0
10
1.933949
20
3.996649
40
2.056724
50
273.877738
51
268.526310
0
ARC
8
MCD_Layer_0
10
-103.857341
20
5.349974
40
107.659839
50
0.585016
51
359.537587
0
ARC
8
MCD_Layer_0
10
3.057806
20
3.099391
40
2.101492
50
326.440338
51
213.475830
0
ARC
8
MCD_Layer_0
10
0.182952
20
-0.321644
40
5.279364
50
92.408401
51
87.198115
0
ARC
8
MCD_Layer_0
10
2.342297
20
3.512260
40
0.042835
50
133.152390
51
294.227745
0
ARC
8
MCD_Layer_0
10
2.348952
20
3.520073
40
0.042917
50
286.267146
51
146.899175
0
ARC
8
MCD_Layer_0
10
2.327557
20
4.751823
40
1.278656
50
269.602062
51
277.773296
0
ARC
8
MCD_Layer_0
10
2.389172
20
3.520073
40
0.079696
50
197.102729
51
216.027373
0
ARC
8
MCD_Layer_0
10
2.414244
20
3.538196
40
0.101384
50
219.874590
51
176.995307
0
ARC
8
MCD_Layer_0
10
2.352062
20
3.510307
40
0.040265
50
247.166346
51
165.963757
0
ARC
8
MCD_Layer_0
10
2.354015
20
3.569145
40
0.100320
50
114.132380
51
286.979711
0
ARC
8
MCD_Layer_0
10
2.327602
20
4.751183
40
1.278015
50
269.603915
51
277.775148
0
ARC
8
MCD_Layer_0
10
-3.080543
20
5.799187
40
4.803798
50
352.571305
51
7.428695
0
ARC
8
MCD_Layer_0
10
3.687185
20
3.520073
40
1.374385
50
358.286056
51
179.022883
0
ARC
8
MCD_Layer_0
10
2.327602
20
3.608147
40
0.135238
50
266.254299
51
294.326786
0
ARC
8
MCD_Layer_0
10
0.977648
20
4.668510
40
1.761270
50
319.303597
51
95.953610
0
ARC
8
MCD_Layer_0
10
5.416566
20
2.759323
40
1.671263
50
334.246741
51
154.713351
0
ARC
8
MCD_Layer_0
10
3.708975
20
2.934286
40
2.026047
50
80.267735
51
100.737684
0
ARC
8
MCD_Layer_0
10
5.147448
20
3.340835
40
3.079681
50
148.717939
51
247.422168
0
ARC
8
MCD_Layer_0
10
6.575643
20
1.258603
40
3.834780
50
105.674936
51
74.452140
0
ARC
8
MCD_Layer_0
10
3.750675
20
3.896100
40
2.165142
50
295.286097
51
245.461616
0
ARC
8
MCD_Layer_0
10
4.843794
20
3.575083
40
1.700903
50
125.355391
51
54.665934
0
ARC
8
MCD_Layer_0
10
3.975851
20
3.334194
40
1.689993
50
236.515839
51
301.839199
0
ARC
8
MCD_Layer_0
10
3.346365
20
2.853115
40
2.145138
50
104.658800
51
285.421414
0
ARC
8
MCD_Layer_0
10
-11.253515
20
-13.272264
40
23.277637
50
51.505050
51
38.496357
0
ARC
8
MCD_Layer_0
10
5.743383
20
2.031468
40
3.037087
50
106.762400
51
73.705071
0
ARC
8
MCD_Layer_0
10
4.716598
20
2.903515
40
2.315497
50
14.242750
51
118.281096
0
ARC
8
MCD_Layer_0
10
4.706091
20
3.364667
40
1.614696
50
242.300316
51
297.170868
0
ARC
8
MCD_Layer_0
10
4.007478
20
1.515984
40
0.976983
50
29.064301
51
330.935699
0
ARC
8
MCD_Layer_0
10
4.759526
20
3.484917
40
0.732067
50
179.562904
51
0.917215
0
ARC
8
MCD_Layer_0
10
5.583117
20
2.834182
40
1.757726
50
226.602998
51
134.482870
0
ARC
8
MCD_Layer_0
10
4.925071
20
2.056549
40
1.547478
50
45.615211
51
68.528791
0
ARC
8
MCD_Layer_0
10
2.722963
20
1.870948
40
4.314975
50
85.740258
51
343.464218
0
ARC
8
MCD_Layer_0
10
6.047889
20
2.720260
40
3.645178
50
163.997655
51
123.351442
0
ARC
8
MCD_Layer_0
10
5.511825
20
2.194675
40
1.278527
50
237.106780
51
89.860503
0
ARC
8
MCD_Layer_0
10
4.481307
20
4.014782
40
2.672455
50
234.973371
51
348.428036
0
ARC
8
MCD_Layer_0
10
4.228301
20
3.435430
40
1.269437
50
260.575361
51
1.704888
0
ARC
8
MCD_Layer_0
10
3.061160
20
3.667691
40
2.949403
50
325.488330
51
31.069505
0
ARC
8
MCD_Layer_0
10
5.532516
20
1.690698
40
1.782741
50
90.941619
51
214.414803
0
ARC
8
MCD_Layer_0
10
3.784804
20
2.723377
40
1.869344
50
93.550131
51
23.647859
0
ARC
8
MCD_Layer_0
10
4.840652
20
3.955996
40
2.400826
50
285.729322
51
141.589032
0
ARC
8
MCD_Layer_0
10
1.965786
20
3.389959
40
3.520060
50
48.421372
51
305.244286
0
ARC
8
MCD_Layer_0
10
3.767033
20
3.461479
40
1.726417
50
2.723453
51
300.814667
0
ARC
8
MCD_Layer_0
10
5.538286
20
1.610970
40
3.211010
50
200.642644
51
152.292275
0
ARC
8
MCD_Layer_0
10
5.520797
20
0.819455
40
2.653801
50
90.379516
51
130.309784
0
ARC
8
MCD_Layer_0
10
5.146560
20
3.484917
40
0.345139
50
179.057653
51
1.945777
0
ARC
8
MCD_Layer_0
10
4.531177
20
3.520073
40
0.960609
50
182.463529
51
1.398075
0
ARC
8
MCD_Layer_0
10
10.016021
20
3.125092
40
1.957721
50
216.996056
51
161.041246
0
ARC
8
MCD_Layer_0
10
8.943424
20
94.279364
40
89.340541
50
269.346557
51
269.808302
0
ARC
8
MCD_Layer_0
10
9.355633
20
4.659805
40
1.384945
50
12.360167
51
78.547286
0
ARC
8
MCD_Layer_0
10
8.403747
20
3.711903
40
1.269122
50
15.410749
51
105.318620
0
ARC
8
MCD_Layer_0
10
9.819510
20
7.311470
40
2.426359
50
279.703354
51
226.992380
0
ARC
8
MCD_Layer_0
10
8.906858
20
4.192957
40
0.743925
50
80.590332
51
11.178672
0
ARC
8
MCD_Layer_0
10
6.982342
20
4.679228
40
2.923139
50
335.632961
51
5.389543
0
ARC
8
MCD_Layer_0
10
5.253985
20
2.837406
40
4.443511
50
349.573645
51
28.136125
0
ARC
8
MCD_Layer_0
10
6.636081
20
2.734091
40
3.066991
50
345.864815
51
45.427636
0
ARC
8
MCD_Layer_0
10
8.179058
20
34.946883
40
31.473686
50
273.163924
51
270.016167
0
ARC
8
MCD_Layer_0
10
8.193798
20
5.167246
40
1.694139
50
269.405497
51
337.435810
0
ARC
8
MCD_Layer_0
10
-5.211005
20
1.717027
40
15.234481
50
6.801216
51
2.408239
0
ARC
8
MCD_Layer_0
10
8.900548
20
4.305229
40
1.059236
50
225.981974
51
73.099593
0
ARC
8
MCD_Layer_0
10
9.097044
20
2.316595
40
1.456756
50
127.443049
51
55.780565
0
ARC
8
MCD_Layer_0
10
9.068776
20
2.567188
40
1.276062
50
9.744394
51
134.764674
0
ENDSEC
0
EOF
