0
SECTION
2
ENTITIES
0
LINE
8
MCD_Layer_0
10
72.217303
20
-5.121519
30
0.0
11
72.203361
21
-5.121519
31
0.0
0
LINE
8
MCD_Layer_0
10
71.979803
20
-4.955653
30
0.0
11
72.735813
21
-4.955653
31
0.0
0
LINE
8
MCD_Layer_0
10
72.434371
20
-5.114548
30
0.0
11
72.428121
21
-5.114548
31
0.0
0
LINE
8
MCD_Layer_0
10
72.482928
20
-5.940269
30
0.0
11
72.161053
21
-5.940269
31
0.0
0
LINE
8
MCD_Layer_0
10
72.500957
20
-5.643153
30
0.0
11
72.500957
21
-5.509500
31
0.0
0
LINE
8
MCD_Layer_0
10
72.144707
20
-5.509500
30
0.0
11
72.144707
21
-5.643153
31
0.0
0
LINE
8
MCD_Layer_0
10
71.935092
20
-5.648201
30
0.0
11
71.935092
21
-5.245317
31
0.0
0
LINE
8
MCD_Layer_0
10
72.144707
20
-5.242913
30
0.0
11
72.144707
21
-5.343634
31
0.0
0
LINE
8
MCD_Layer_0
10
72.500957
20
-5.343634
30
0.0
11
72.500957
21
-5.242913
31
0.0
0
LINE
8
MCD_Layer_0
10
72.710332
20
-5.245317
30
0.0
11
72.710332
21
-5.648201
31
0.0
0
LINE
8
MCD_Layer_0
10
72.427520
20
-5.752528
30
0.0
11
72.099154
21
-5.316471
31
0.0
0
LINE
8
MCD_Layer_0
10
71.944827
20
-5.627769
30
0.0
11
71.944827
21
-5.128490
31
0.0
0
LINE
8
MCD_Layer_0
10
72.285693
20
-5.206855
30
0.0
11
72.603721
21
-5.625365
31
0.0
0
LINE
8
MCD_Layer_0
10
72.237255
20
-5.613826
30
0.0
11
72.237255
21
-5.640028
31
0.0
0
LINE
8
MCD_Layer_0
10
72.027880
20
-5.637865
30
0.0
11
72.027880
21
-5.267192
31
0.0
0
LINE
8
MCD_Layer_0
10
72.256246
20
-5.101807
30
0.0
11
72.237255
21
-5.099163
31
0.0
0
LINE
8
MCD_Layer_0
10
72.217303
20
-5.620798
30
0.0
11
72.217303
21
-5.121519
31
0.0
0
LINE
8
MCD_Layer_0
10
71.909611
20
-5.199403
30
0.0
11
71.979803
21
-4.955653
31
0.0
0
LINE
8
MCD_Layer_0
10
72.735813
20
-4.955653
30
0.0
11
72.678361
21
-5.189548
31
0.0
0
LINE
8
MCD_Layer_0
10
72.428121
20
-5.114548
30
0.0
11
72.428121
21
-5.620076
31
0.0
0
LINE
8
MCD_Layer_0
10
72.500957
20
-5.509500
30
0.0
11
72.144707
21
-5.509500
31
0.0
0
LINE
8
MCD_Layer_0
10
72.186774
20
-5.940269
30
0.0
11
71.893024
21
-5.940269
31
0.0
0
LINE
8
MCD_Layer_0
10
71.893024
20
-4.955653
30
0.0
11
72.185332
21
-4.955653
31
0.0
0
LINE
8
MCD_Layer_0
10
72.144707
20
-5.343634
30
0.0
11
72.500957
21
-5.343634
31
0.0
0
LINE
8
MCD_Layer_0
10
72.458649
20
-4.955653
30
0.0
11
72.751197
21
-4.955653
31
0.0
0
LINE
8
MCD_Layer_0
10
72.752399
20
-5.940269
30
0.0
11
72.458649
21
-5.940269
31
0.0
0
LINE
8
MCD_Layer_0
10
72.465741
20
-5.801326
30
0.0
11
72.427520
21
-5.752528
31
0.0
0
LINE
8
MCD_Layer_0
10
72.099154
20
-5.316471
30
0.0
11
72.101798
21
-5.627769
31
0.0
0
LINE
8
MCD_Layer_0
10
72.603721
20
-5.625365
30
0.0
11
72.601077
21
-5.263346
31
0.0
0
LINE
8
MCD_Layer_0
10
72.283169
20
-5.613826
30
0.0
11
72.237255
21
-5.613826
31
0.0
0
LINE
8
MCD_Layer_0
10
72.287015
20
-5.940269
30
0.0
11
71.984370
21
-5.940269
31
0.0
0
LINE
8
MCD_Layer_0
10
71.988217
20
-4.955653
30
0.0
11
72.293505
21
-4.955653
31
0.0
0
LINE
8
MCD_Layer_0
10
72.237255
20
-5.099163
30
0.0
11
72.237255
21
-5.442673
31
0.0
0
LINE
8
MCD_Layer_0
10
72.058409
20
-5.933057
30
0.0
11
72.036774
21
-5.647240
31
0.0
0
LINE
8
MCD_Layer_0
10
72.551438
20
-4.963346
30
0.0
11
72.555044
21
-5.231134
31
0.0
0
LINE
8
MCD_Layer_0
10
-12.000000
20
-5.999999
30
0.0
11
12.000000
21
-5.999999
31
0.0
0
LINE
8
MCD_Layer_2
10
-2.000001
20
0.000000
30
0.0
11
-2.000000
21
0.000000
31
0.0
0
LINE
8
MCD_Layer_0
10
-12.000000
20
0.000000
30
0.0
11
-12.000000
21
-5.999999
31
0.0
0
LINE
8
MCD_Layer_2
10
0.000000
20
0.000000
30
0.0
11
-2.000001
21
0.000000
31
0.0
0
LINE
8
MCD_Layer_0
10
-2.000001
20
0.000000
30
0.0
11
0.000000
21
0.000000
31
0.0
0
LINE
8
MCD_Layer_0
10
12.000000
20
0.000000
30
0.0
11
12.000000
21
-5.999999
31
0.0
0
LINE
8
MCD_Layer_2
10
0.000000
20
0.000000
30
0.0
11
-2.000000
21
0.000000
31
0.0
0
LINE
8
MCD_Layer_0
10
-2.000000
20
0.000000
30
0.0
11
0.000000
21
0.000000
31
0.0
0
LINE
8
MCD_Layer_0
10
-13.906484
20
-0.545940
30
0.0
11
-9.557798
21
-0.545940
31
0.0
0
LINE
8
MCD_Layer_0
10
19.954873
20
-0.545940
30
0.0
11
10.079265
21
-0.545940
31
0.0
0
LINE
8
MCD_Layer_0
10
-19.940214
20
-4.893267
30
0.0
11
-19.538662
21
-4.893267
31
0.0
0
LINE
8
MCD_Layer_0
10
-19.415948
20
-5.140101
30
0.0
11
-19.008590
21
-5.140101
31
0.0
0
LINE
8
MCD_Layer_0
10
-18.492763
20
-5.438290
30
0.0
11
-18.899833
21
-5.438147
31
0.0
0
LINE
8
MCD_Layer_0
10
-18.899833
20
-4.894329
30
0.0
11
-18.490827
21
-4.894329
31
0.0
0
LINE
8
MCD_Layer_0
10
-17.895085
20
-5.438218
30
0.0
11
-17.976365
21
-5.356131
31
0.0
0
LINE
8
MCD_Layer_0
10
-17.976365
20
-4.988214
30
0.0
11
-17.896053
21
-4.894256
31
0.0
0
LINE
8
MCD_Layer_0
10
-17.662862
20
-4.894256
30
0.0
11
-17.568034
21
-4.976346
31
0.0
0
LINE
8
MCD_Layer_0
10
-17.568034
20
-5.356131
30
0.0
11
-17.663830
21
-5.438218
31
0.0
0
LINE
8
MCD_Layer_0
10
-17.459354
20
-5.437652
30
0.0
11
-17.459354
21
-4.893834
31
0.0
0
LINE
8
MCD_Layer_0
10
-17.146393
20
-4.893834
30
0.0
11
-17.051571
21
-4.975923
31
0.0
0
LINE
8
MCD_Layer_0
10
-17.051571
20
-5.097574
30
0.0
11
-17.147361
21
-5.165816
31
0.0
0
LINE
8
MCD_Layer_0
10
-17.254763
20
-5.165816
30
0.0
11
-17.050603
21
-5.438785
31
0.0
0
LINE
8
MCD_Layer_0
10
-16.871746
20
-5.438218
30
0.0
11
-16.871746
21
-4.895246
31
0.0
0
LINE
8
MCD_Layer_0
10
-16.393968
20
-5.221622
30
0.0
11
-16.393968
21
-5.180083
31
0.0
0
LINE
8
MCD_Layer_0
10
-16.284625
20
-5.180083
30
0.0
11
-16.284625
21
-5.358108
31
0.0
0
LINE
8
MCD_Layer_0
10
-16.393001
20
-5.438218
30
0.0
11
-16.611676
21
-5.438218
31
0.0
0
LINE
8
MCD_Layer_0
10
-16.692956
20
-5.357119
30
0.0
11
-16.692956
21
-4.962500
31
0.0
0
LINE
8
MCD_Layer_0
10
-16.597161
20
-4.895246
30
0.0
11
-16.393001
21
-4.895246
31
0.0
0
LINE
8
MCD_Layer_0
10
-16.175503
20
-5.438218
30
0.0
11
-16.035199
21
-5.438218
31
0.0
0
LINE
8
MCD_Layer_0
10
-16.173568
20
-4.895246
30
0.0
11
-16.041005
21
-4.895246
31
0.0
0
LINE
8
MCD_Layer_0
10
-15.518714
20
-5.438218
30
0.0
11
-15.518714
21
-4.895246
31
0.0
0
LINE
8
MCD_Layer_0
10
-15.207007
20
-4.894402
30
0.0
11
-15.003815
21
-5.438364
31
0.0
0
LINE
8
MCD_Layer_0
10
-14.486926
20
-5.438218
30
0.0
11
-14.894284
21
-5.438218
31
0.0
0
LINE
8
MCD_Layer_0
10
-13.657755
20
-5.438328
30
0.0
11
-13.562485
21
-5.370573
31
0.0
0
LINE
8
MCD_Layer_0
10
-13.890227
20
-5.438111
30
0.0
11
-13.970539
21
-5.370858
31
0.0
0
LINE
8
MCD_Layer_0
10
-13.970539
20
-4.976238
30
0.0
11
-13.874744
21
-4.895138
31
0.0
0
LINE
8
MCD_Layer_0
10
-13.658004
20
-4.895138
30
0.0
11
-13.563176
21
-4.961402
31
0.0
0
LINE
8
MCD_Layer_0
10
-13.453722
20
-5.356131
30
0.0
11
-13.453722
21
-4.988214
31
0.0
0
LINE
8
MCD_Layer_0
10
-13.373409
20
-4.894256
30
0.0
11
-13.140219
21
-4.894256
31
0.0
0
LINE
8
MCD_Layer_0
10
-13.045391
20
-4.976346
30
0.0
11
-13.045391
21
-5.356131
31
0.0
0
LINE
8
MCD_Layer_0
10
-13.141186
20
-5.438218
30
0.0
11
-13.372442
21
-5.438218
31
0.0
0
LINE
8
MCD_Layer_0
10
-12.528446
20
-5.438218
30
0.0
11
-12.528446
21
-4.895246
31
0.0
0
LINE
8
MCD_Layer_0
10
-12.201942
20
-5.438218
30
0.0
11
-12.201942
21
-4.893267
31
0.0
0
LINE
8
MCD_Layer_0
10
-11.882152
20
-5.437652
30
0.0
11
-11.882152
21
-4.893834
31
0.0
0
LINE
8
MCD_Layer_0
10
-11.569196
20
-4.893834
30
0.0
11
-11.474362
21
-4.975923
31
0.0
0
LINE
8
MCD_Layer_0
10
-11.474362
20
-5.097574
30
0.0
11
-11.570158
21
-5.165816
31
0.0
0
LINE
8
MCD_Layer_0
10
-11.677566
20
-5.165816
30
0.0
11
-11.473400
21
-5.438785
31
0.0
0
LINE
8
MCD_Layer_0
10
-11.365661
20
-5.438218
30
0.0
11
-11.161639
21
-4.894402
31
0.0
0
LINE
8
MCD_Layer_0
10
-11.258651
20
-5.152836
30
0.0
11
-11.065124
21
-5.152837
31
0.0
0
LINE
8
MCD_Layer_0
10
-10.535937
20
-5.438328
30
0.0
11
-10.768414
21
-5.438111
31
0.0
0
LINE
8
MCD_Layer_0
10
-10.848716
20
-5.370858
30
0.0
11
-10.848716
21
-4.976238
31
0.0
0
LINE
8
MCD_Layer_0
10
-10.752931
20
-4.895138
30
0.0
11
-10.536180
21
-4.895138
31
0.0
0
LINE
8
MCD_Layer_0
10
-10.114025
20
-5.438218
30
0.0
11
-10.114025
21
-4.893267
31
0.0
0
LINE
8
MCD_Layer_5
10
-9.793659
20
-5.451603
30
0.0
11
-9.806753
21
-5.438218
31
0.0
0
LINE
8
MCD_Layer_5
10
-9.793659
20
-5.424834
30
0.0
11
-9.780565
21
-5.439706
31
0.0
0
LINE
8
MCD_Layer_2
10
-9.781870
20
-5.438218
30
0.0
11
-9.806753
21
-5.438218
31
0.0
0
LINE
8
MCD_Layer_0
10
-19.954873
20
-4.351045
30
0.0
11
-19.750852
21
-3.807229
31
0.0
0
LINE
8
MCD_Layer_0
10
-19.847869
20
-4.065663
30
0.0
11
-19.654337
21
-4.065664
31
0.0
0
LINE
8
MCD_Layer_0
10
-19.438106
20
-3.807723
30
0.0
11
-19.125067
21
-3.807723
31
0.0
0
LINE
8
MCD_Layer_0
10
-19.030239
20
-3.874977
30
0.0
11
-19.030239
21
-4.025308
31
0.0
0
LINE
8
MCD_Layer_0
10
-19.125067
20
-4.079704
30
0.0
11
-19.438570
21
-4.079704
31
0.0
0
LINE
8
MCD_Layer_0
10
-18.921703
20
-3.807723
30
0.0
11
-18.608664
21
-3.807723
31
0.0
0
LINE
8
MCD_Layer_0
10
-18.513836
20
-3.874977
30
0.0
11
-18.513836
21
-4.025308
31
0.0
0
LINE
8
MCD_Layer_0
10
-18.608664
20
-4.079704
30
0.0
11
-18.922167
21
-4.079704
31
0.0
0
LINE
8
MCD_Layer_0
10
-18.405195
20
-3.806661
30
0.0
11
-18.092234
21
-3.806661
31
0.0
0
LINE
8
MCD_Layer_0
10
-17.997411
20
-3.888750
30
0.0
11
-17.997411
21
-4.010401
31
0.0
0
LINE
8
MCD_Layer_0
10
-18.093201
20
-4.078643
30
0.0
11
-18.404769
21
-4.078643
31
0.0
0
LINE
8
MCD_Layer_0
10
-17.806478
20
-4.351045
30
0.0
11
-17.887758
21
-4.268958
31
0.0
0
LINE
8
MCD_Layer_0
10
-17.887758
20
-3.901041
30
0.0
11
-17.807446
21
-3.807083
31
0.0
0
LINE
8
MCD_Layer_0
10
-17.574255
20
-3.807083
30
0.0
11
-17.479427
21
-3.889173
31
0.0
0
LINE
8
MCD_Layer_0
10
-17.479427
20
-4.268958
30
0.0
11
-17.575223
21
-4.351045
31
0.0
0
LINE
8
MCD_Layer_0
10
-17.371356
20
-3.804116
30
0.0
11
-17.167190
21
-4.351045
31
0.0
0
LINE
8
MCD_Layer_0
10
-16.854439
20
-4.351045
30
0.0
11
-16.714135
21
-4.351045
31
0.0
0
LINE
8
MCD_Layer_0
10
-16.852503
20
-3.808073
30
0.0
11
-16.719941
21
-3.808073
31
0.0
0
LINE
8
MCD_Layer_0
10
-16.197655
20
-4.351045
30
0.0
11
-16.197655
21
-3.808073
31
0.0
0
LINE
8
MCD_Layer_0
10
-15.790042
20
-4.134449
30
0.0
11
-15.790042
21
-4.092910
31
0.0
0
LINE
8
MCD_Layer_0
10
-15.680699
20
-4.092910
30
0.0
11
-15.680699
21
-4.270935
31
0.0
0
LINE
8
MCD_Layer_0
10
-15.789075
20
-4.351045
30
0.0
11
-16.007750
21
-4.351045
31
0.0
0
LINE
8
MCD_Layer_0
10
-16.089030
20
-4.269946
30
0.0
11
-16.089030
21
-3.875327
31
0.0
0
LINE
8
MCD_Layer_0
10
-15.993235
20
-3.808073
30
0.0
11
-15.789075
21
-3.808073
31
0.0
0
LINE
8
MCD_Layer_0
10
-14.946517
20
-4.351045
30
0.0
11
-14.946517
21
-3.806095
31
0.0
0
LINE
8
MCD_Layer_0
10
-14.626732
20
-4.351467
30
0.0
11
-14.626732
21
-3.806661
31
0.0
0
LINE
8
MCD_Layer_0
10
-14.219053
20
-3.806661
30
0.0
11
-14.219053
21
-4.350624
31
0.0
0
LINE
8
MCD_Layer_0
10
-14.110290
20
-4.350974
30
0.0
11
-14.110290
21
-3.807156
31
0.0
0
LINE
8
MCD_Layer_0
10
-14.110578
20
-4.052433
30
0.0
11
-13.824170
21
-4.052433
31
0.0
0
LINE
8
MCD_Layer_0
10
-13.064966
20
-3.805106
30
0.0
11
-12.982718
21
-4.036537
31
0.0
0
LINE
8
MCD_Layer_0
10
-12.777888
20
-4.351045
30
0.0
11
-12.900475
21
-3.806095
31
0.0
0
LINE
8
MCD_Layer_0
10
-12.669242
20
-4.350974
30
0.0
11
-12.669242
21
-3.807156
31
0.0
0
LINE
8
MCD_Layer_0
10
-12.669529
20
-4.052433
30
0.0
11
-12.383121
21
-4.052433
31
0.0
0
LINE
8
MCD_Layer_0
10
-12.031607
20
-3.805106
30
0.0
11
-11.949359
21
-4.036537
31
0.0
0
LINE
8
MCD_Layer_0
10
-11.744530
20
-4.351045
30
0.0
11
-11.867117
21
-3.806095
31
0.0
0
LINE
8
MCD_Layer_0
10
-11.635972
20
-4.268958
30
0.0
11
-11.635972
21
-3.901041
31
0.0
0
LINE
8
MCD_Layer_0
10
-11.555659
20
-3.807083
30
0.0
11
-11.322463
21
-3.807083
31
0.0
0
LINE
8
MCD_Layer_0
10
-11.227641
20
-3.889173
30
0.0
11
-11.227641
21
-4.268958
31
0.0
0
LINE
8
MCD_Layer_0
10
-11.323436
20
-4.351045
30
0.0
11
-11.554697
21
-4.351045
31
0.0
0
LINE
8
MCD_Layer_0
10
-11.118961
20
-3.806661
30
0.0
11
-10.806005
21
-3.806661
31
0.0
0
LINE
8
MCD_Layer_0
10
-10.711172
20
-3.888750
30
0.0
11
-10.711172
21
-4.010401
31
0.0
0
LINE
8
MCD_Layer_0
10
-10.806967
20
-4.078643
30
0.0
11
-11.118530
21
-4.078643
31
0.0
0
LINE
8
MCD_Layer_0
10
-10.601021
20
-4.351045
30
0.0
11
-10.460723
21
-4.351045
31
0.0
0
LINE
8
MCD_Layer_0
10
-10.599086
20
-3.808073
30
0.0
11
-10.466529
21
-3.808073
31
0.0
0
LINE
8
MCD_Layer_0
10
-10.353503
20
-4.351045
30
0.0
11
-10.149481
21
-3.807229
31
0.0
0
LINE
8
MCD_Layer_0
10
-10.246493
20
-4.065663
30
0.0
11
-10.052966
21
-4.065664
31
0.0
0
LINE
8
MCD_Layer_0
10
-9.836757
20
-4.351045
30
0.0
11
-9.836757
21
-3.808073
31
0.0
0
LINE
8
MCD_Layer_0
10
-8.899438
20
-3.806095
30
0.0
11
-8.497875
21
-3.806095
31
0.0
0
LINE
8
MCD_Layer_0
10
-8.375548
20
-4.268958
30
0.0
11
-8.375548
21
-3.901041
31
0.0
0
LINE
8
MCD_Layer_0
10
-8.295235
20
-3.807083
30
0.0
11
-8.062050
21
-3.807083
31
0.0
0
LINE
8
MCD_Layer_0
10
-7.967217
20
-3.889173
30
0.0
11
-7.967217
21
-4.268958
31
0.0
0
LINE
8
MCD_Layer_0
10
-8.063012
20
-4.351045
30
0.0
11
-8.294273
21
-4.351045
31
0.0
0
LINE
8
MCD_Layer_0
10
-7.450958
20
-3.807899
30
0.0
11
-7.149481
21
-3.807899
31
0.0
0
LINE
8
MCD_Layer_0
10
-7.043047
20
-3.862295
30
0.0
11
-7.043047
21
-4.011638
31
0.0
0
LINE
8
MCD_Layer_0
10
-7.138842
20
-4.052187
30
0.0
11
-7.043047
21
-4.120430
31
0.0
0
LINE
8
MCD_Layer_0
10
-7.043047
20
-4.297465
30
0.0
11
-7.152390
21
-4.350871
31
0.0
0
LINE
8
MCD_Layer_0
10
-7.138842
20
-4.052187
30
0.0
11
-7.451378
21
-4.052187
31
0.0
0
LINE
8
MCD_Layer_0
10
-6.934400
20
-4.350974
30
0.0
11
-6.934400
21
-3.807156
31
0.0
0
LINE
8
MCD_Layer_0
10
-6.934688
20
-4.052433
30
0.0
11
-6.648285
21
-4.052433
31
0.0
0
LINE
8
MCD_Layer_0
10
-5.698015
20
-4.351155
30
0.0
11
-5.930493
21
-4.350938
31
0.0
0
LINE
8
MCD_Layer_0
10
-6.010794
20
-4.283685
30
0.0
11
-6.010794
21
-3.889065
31
0.0
0
LINE
8
MCD_Layer_0
10
-5.915009
20
-3.807965
30
0.0
11
-5.698258
21
-3.807965
31
0.0
0
LINE
8
MCD_Layer_0
10
-5.399226
20
-4.351045
30
0.0
11
-5.494048
21
-4.255110
31
0.0
0
LINE
8
MCD_Layer_0
10
-5.399226
20
-4.351045
30
0.0
11
-5.153455
21
-4.351045
31
0.0
0
LINE
8
MCD_Layer_0
10
-5.086690
20
-4.352035
30
0.0
11
-5.086690
21
-3.803128
31
0.0
0
LINE
8
MCD_Layer_0
10
-4.964419
20
-3.806095
30
0.0
11
-4.562856
21
-3.806095
31
0.0
0
LINE
8
MCD_Layer_0
10
-4.033779
20
-4.351045
30
0.0
11
-3.829757
21
-3.807229
31
0.0
0
LINE
8
MCD_Layer_0
10
-3.926769
20
-4.065663
30
0.0
11
-3.733243
21
-4.065664
31
0.0
0
LINE
8
MCD_Layer_0
10
-3.435748
20
-4.351045
30
0.0
11
-3.204487
21
-4.351045
31
0.0
0
LINE
8
MCD_Layer_0
10
-3.109664
20
-4.270935
30
0.0
11
-3.109664
21
-4.147307
31
0.0
0
LINE
8
MCD_Layer_0
10
-3.204487
20
-4.080054
30
0.0
11
-3.435748
21
-4.080054
31
0.0
0
LINE
8
MCD_Layer_0
10
-3.517022
20
-4.024669
30
0.0
11
-3.517022
21
-3.904008
31
0.0
0
LINE
8
MCD_Layer_0
10
-3.435748
20
-3.808073
30
0.0
11
-3.203525
21
-3.808073
31
0.0
0
LINE
8
MCD_Layer_0
10
-2.593472
20
-4.269946
30
0.0
11
-2.512197
21
-4.351045
31
0.0
0
LINE
8
MCD_Layer_0
10
-2.280936
20
-4.351045
30
0.0
11
-2.186114
21
-4.270935
31
0.0
0
LINE
8
MCD_Layer_0
10
-2.186114
20
-4.147307
30
0.0
11
-2.280936
21
-4.080054
31
0.0
0
LINE
8
MCD_Layer_0
10
-2.512197
20
-4.080054
30
0.0
11
-2.593472
21
-4.024669
31
0.0
0
LINE
8
MCD_Layer_0
10
-2.593472
20
-3.904008
30
0.0
11
-2.512197
21
-3.808073
31
0.0
0
LINE
8
MCD_Layer_0
10
-2.279974
20
-3.808073
30
0.0
11
-2.187076
21
-3.888184
31
0.0
0
LINE
8
MCD_Layer_0
10
-2.077158
20
-4.052928
30
0.0
11
-1.669799
21
-4.052928
31
0.0
0
LINE
8
MCD_Layer_0
10
-1.479867
20
-4.351045
30
0.0
11
-1.561142
21
-4.268958
31
0.0
0
LINE
8
MCD_Layer_0
10
-1.561142
20
-3.901041
30
0.0
11
-1.480829
21
-3.807083
31
0.0
0
LINE
8
MCD_Layer_0
10
-1.247644
20
-3.807083
30
0.0
11
-1.152811
21
-3.889173
31
0.0
0
LINE
8
MCD_Layer_0
10
-1.152811
20
-4.268958
30
0.0
11
-1.248606
21
-4.351045
31
0.0
0
LINE
8
MCD_Layer_0
10
-1.044253
20
-3.804611
30
0.0
11
-0.907825
21
-4.352529
31
0.0
0
LINE
8
MCD_Layer_0
10
-0.841060
20
-4.090439
30
0.0
11
-0.773322
21
-4.348572
31
0.0
0
LINE
8
MCD_Layer_0
10
-0.528336
20
-4.351045
30
0.0
11
-0.528336
21
-3.808073
31
0.0
0
LINE
8
MCD_Layer_0
10
-0.120005
20
-4.351045
30
0.0
11
-0.528336
21
-3.808073
31
0.0
0
LINE
8
MCD_Layer_0
10
0.395380
20
-4.351045
30
0.0
11
0.599402
21
-3.807229
31
0.0
0
LINE
8
MCD_Layer_0
10
0.502390
20
-4.065663
30
0.0
11
0.695917
21
-4.065664
31
0.0
0
LINE
8
MCD_Layer_0
10
1.320512
20
-4.351045
30
0.0
11
1.320512
21
-3.808073
31
0.0
0
LINE
8
MCD_Layer_0
10
1.429104
20
-4.350974
30
0.0
11
1.429104
21
-3.807156
31
0.0
0
LINE
8
MCD_Layer_0
10
1.743088
20
-3.807156
30
0.0
11
1.836948
21
-3.888257
31
0.0
0
LINE
8
MCD_Layer_0
10
1.836948
20
-4.270019
30
0.0
11
1.741153
21
-4.351117
31
0.0
0
LINE
8
MCD_Layer_0
10
2.571109
20
-4.351045
30
0.0
11
2.571109
21
-3.806095
31
0.0
0
LINE
8
MCD_Layer_0
10
2.890877
20
-4.351467
30
0.0
11
2.890877
21
-3.806661
31
0.0
0
LINE
8
MCD_Layer_0
10
3.298567
20
-3.806661
30
0.0
11
3.298567
21
-4.350624
31
0.0
0
LINE
8
MCD_Layer_0
10
3.406295
20
-4.351045
30
0.0
11
3.610317
21
-3.807229
31
0.0
0
LINE
8
MCD_Layer_0
10
3.513305
20
-4.065663
30
0.0
11
3.706832
21
-4.065664
31
0.0
0
LINE
8
MCD_Layer_0
10
3.828097
20
-3.806095
30
0.0
11
4.229660
21
-3.806095
31
0.0
0
LINE
8
MCD_Layer_0
10
4.758737
20
-4.351045
30
0.0
11
4.962759
21
-3.807229
31
0.0
0
LINE
8
MCD_Layer_0
10
4.865746
20
-4.065663
30
0.0
11
5.059273
21
-4.065664
31
0.0
0
LINE
8
MCD_Layer_0
10
5.683869
20
-4.351045
30
0.0
11
5.683869
21
-3.808073
31
0.0
0
LINE
8
MCD_Layer_0
10
5.996128
20
-4.351045
30
0.0
11
5.996128
21
-4.078076
31
0.0
0
LINE
8
MCD_Layer_0
10
5.996128
20
-4.078076
30
0.0
11
6.200294
21
-3.807083
31
0.0
0
LINE
8
MCD_Layer_0
10
7.028978
20
-4.351155
30
0.0
11
6.796500
21
-4.350938
31
0.0
0
LINE
8
MCD_Layer_0
10
6.716199
20
-4.283685
30
0.0
11
6.716199
21
-3.889065
31
0.0
0
LINE
8
MCD_Layer_0
10
6.811983
20
-3.807965
30
0.0
11
7.028734
21
-3.807965
31
0.0
0
LINE
8
MCD_Layer_0
10
7.233055
20
-4.351467
30
0.0
11
7.233055
21
-3.806661
31
0.0
0
LINE
8
MCD_Layer_0
10
7.640745
20
-3.806661
30
0.0
11
7.640745
21
-4.350624
31
0.0
0
LINE
8
MCD_Layer_0
10
7.748462
20
-4.351045
30
0.0
11
7.952484
21
-3.807229
31
0.0
0
LINE
8
MCD_Layer_0
10
7.855472
20
-4.065663
30
0.0
11
8.048999
21
-4.065664
31
0.0
0
LINE
8
MCD_Layer_0
10
8.673606
20
-4.351045
30
0.0
11
8.673606
21
-3.808073
31
0.0
0
LINE
8
MCD_Layer_0
10
9.081207
20
-4.134449
30
0.0
11
9.081207
21
-4.092910
31
0.0
0
LINE
8
MCD_Layer_0
10
9.190550
20
-4.092910
30
0.0
11
9.190550
21
-4.270935
31
0.0
0
LINE
8
MCD_Layer_0
10
9.082180
20
-4.351045
30
0.0
11
8.863505
21
-4.351045
31
0.0
0
LINE
8
MCD_Layer_0
10
8.782219
20
-4.269946
30
0.0
11
8.782219
21
-3.875327
31
0.0
0
LINE
8
MCD_Layer_0
10
8.878015
20
-3.808073
30
0.0
11
9.082180
21
-3.808073
31
0.0
0
LINE
8
MCD_Layer_0
10
9.706335
20
-4.351117
30
0.0
11
9.299263
21
-4.350974
31
0.0
0
LINE
8
MCD_Layer_0
10
9.299263
20
-3.807156
30
0.0
11
9.708270
21
-3.807156
31
0.0
0
LINE
8
MCD_Layer_0
10
9.814982
20
-4.269946
30
0.0
11
9.896256
21
-4.351045
31
0.0
0
LINE
8
MCD_Layer_0
10
10.127517
20
-4.351045
30
0.0
11
10.222340
21
-4.270935
31
0.0
0
LINE
8
MCD_Layer_0
10
10.222340
20
-4.147307
30
0.0
11
10.127517
21
-4.080054
31
0.0
0
LINE
8
MCD_Layer_0
10
9.896256
20
-4.080054
30
0.0
11
9.814982
21
-4.024669
31
0.0
0
LINE
8
MCD_Layer_0
10
9.814982
20
-3.904008
30
0.0
11
9.896256
21
-3.808073
31
0.0
0
LINE
8
MCD_Layer_0
10
10.128479
20
-3.808073
30
0.0
11
10.221377
21
-3.888184
31
0.0
0
LINE
8
MCD_Layer_0
10
10.860461
20
-3.805106
30
0.0
11
10.942709
21
-4.036537
31
0.0
0
LINE
8
MCD_Layer_0
10
11.147538
20
-4.351045
30
0.0
11
11.024957
21
-3.806095
31
0.0
0
LINE
8
MCD_Layer_0
10
11.255145
20
-4.351045
30
0.0
11
11.459167
21
-3.807229
31
0.0
0
LINE
8
MCD_Layer_0
10
11.362155
20
-4.065663
30
0.0
11
11.555681
21
-4.065664
31
0.0
0
LINE
8
MCD_Layer_0
10
11.771924
20
-3.807156
30
0.0
11
12.085908
21
-3.807156
31
0.0
0
LINE
8
MCD_Layer_0
10
12.179769
20
-3.888257
30
0.0
11
12.179769
21
-4.270019
31
0.0
0
LINE
8
MCD_Layer_0
10
12.083973
20
-4.351117
30
0.0
11
11.771924
21
-4.350974
31
0.0
0
LINE
8
MCD_Layer_0
10
12.288448
20
-4.350974
30
0.0
11
12.288448
21
-3.807156
31
0.0
0
LINE
8
MCD_Layer_0
10
12.288161
20
-4.052433
30
0.0
11
12.574563
21
-4.052433
31
0.0
0
LINE
8
MCD_Layer_0
10
13.348294
20
-4.352529
30
0.0
11
13.415059
21
-4.090439
31
0.0
0
LINE
8
MCD_Layer_0
10
13.482797
20
-4.348572
30
0.0
11
13.619224
21
-3.804611
31
0.0
0
LINE
8
MCD_Layer_0
10
13.797954
20
-4.351045
30
0.0
11
13.797954
21
-3.808073
31
0.0
0
LINE
8
MCD_Layer_0
10
14.384041
20
-4.351045
30
0.0
11
13.976683
21
-4.351045
31
0.0
0
LINE
8
MCD_Layer_0
10
14.899913
20
-4.351045
30
0.0
11
14.492555
21
-4.351045
31
0.0
0
LINE
8
MCD_Layer_0
10
15.416105
20
-4.269946
30
0.0
11
15.497380
21
-4.351045
31
0.0
0
LINE
8
MCD_Layer_0
10
15.728641
20
-4.351045
30
0.0
11
15.823463
21
-4.270935
31
0.0
0
LINE
8
MCD_Layer_0
10
15.823463
20
-4.147307
30
0.0
11
15.728641
21
-4.080054
31
0.0
0
LINE
8
MCD_Layer_0
10
15.497380
20
-4.080054
30
0.0
11
15.416105
21
-4.024669
31
0.0
0
LINE
8
MCD_Layer_0
10
15.416105
20
-3.904008
30
0.0
11
15.497380
21
-3.808073
31
0.0
0
LINE
8
MCD_Layer_0
10
15.729603
20
-3.808073
30
0.0
11
15.822501
21
-3.888184
31
0.0
0
LINE
8
MCD_Layer_0
10
15.931966
20
-4.255110
30
0.0
11
15.931966
21
-3.808073
31
0.0
0
LINE
8
MCD_Layer_0
10
16.272559
20
-4.351045
30
0.0
11
16.339324
21
-4.256100
31
0.0
0
LINE
8
MCD_Layer_0
10
16.447849
20
-4.351045
30
0.0
11
16.447849
21
-3.807723
31
0.0
0
LINE
8
MCD_Layer_0
10
16.760894
20
-3.807723
30
0.0
11
16.855716
21
-3.874977
31
0.0
0
LINE
8
MCD_Layer_0
10
16.855716
20
-4.025308
30
0.0
11
16.760894
21
-4.079704
31
0.0
0
LINE
8
MCD_Layer_0
10
17.371455
20
-4.351117
30
0.0
11
16.964385
21
-4.350974
31
0.0
0
LINE
8
MCD_Layer_0
10
16.964385
20
-3.807156
30
0.0
11
17.373391
21
-3.807156
31
0.0
0
LINE
8
MCD_Layer_0
10
17.480212
20
-4.350479
30
0.0
11
17.480212
21
-3.806661
31
0.0
0
LINE
8
MCD_Layer_0
10
17.793168
20
-3.806661
30
0.0
11
17.888002
21
-3.888750
31
0.0
0
LINE
8
MCD_Layer_0
10
17.888002
20
-4.010401
30
0.0
11
17.792206
21
-4.078643
31
0.0
0
LINE
8
MCD_Layer_0
10
17.684798
20
-4.078643
30
0.0
11
17.888964
21
-4.351612
31
0.0
0
LINE
8
MCD_Layer_0
10
18.078874
20
-4.351045
30
0.0
11
18.310135
21
-4.351045
31
0.0
0
LINE
8
MCD_Layer_0
10
18.404957
20
-4.270935
30
0.0
11
18.404957
21
-4.147307
31
0.0
0
LINE
8
MCD_Layer_0
10
18.310135
20
-4.080054
30
0.0
11
18.078874
21
-4.080054
31
0.0
0
LINE
8
MCD_Layer_0
10
17.997599
20
-4.024669
30
0.0
11
17.997599
21
-3.904008
31
0.0
0
LINE
8
MCD_Layer_0
10
18.078874
20
-3.808073
30
0.0
11
18.311097
21
-3.808073
31
0.0
0
LINE
8
MCD_Layer_0
10
18.920663
20
-4.351117
30
0.0
11
18.513593
21
-4.350974
31
0.0
0
LINE
8
MCD_Layer_0
10
18.513593
20
-3.807156
30
0.0
11
18.922599
21
-3.807156
31
0.0
0
LINE
8
MCD_Layer_0
10
19.029343
20
-4.350974
30
0.0
11
19.029343
21
-3.807156
31
0.0
0
LINE
8
MCD_Layer_0
10
19.343328
20
-3.807156
30
0.0
11
19.437188
21
-3.888257
31
0.0
0
LINE
8
MCD_Layer_0
10
19.437188
20
-4.270019
30
0.0
11
19.341392
21
-4.351117
31
0.0
0
LINE
8
MCD_Layer_0
10
19.952938
20
-4.351117
30
0.0
11
19.545867
21
-4.350974
31
0.0
0
LINE
8
MCD_Layer_0
10
19.545867
20
-3.807156
30
0.0
11
19.954873
21
-3.807156
31
0.0
0
LINE
8
MCD_Layer_0
10
-19.953989
20
-3.182773
30
0.0
11
-19.872714
21
-3.263872
31
0.0
0
LINE
8
MCD_Layer_0
10
-19.641453
20
-3.263872
30
0.0
11
-19.546631
21
-3.183762
31
0.0
0
LINE
8
MCD_Layer_0
10
-19.546631
20
-3.060134
30
0.0
11
-19.641453
21
-2.992881
31
0.0
0
LINE
8
MCD_Layer_0
10
-19.872714
20
-2.992881
30
0.0
11
-19.953989
21
-2.937496
31
0.0
0
LINE
8
MCD_Layer_0
10
-19.953989
20
-2.816835
30
0.0
11
-19.872714
21
-2.720900
31
0.0
0
LINE
8
MCD_Layer_0
10
-19.640485
20
-2.720900
30
0.0
11
-19.547598
21
-2.801011
31
0.0
0
LINE
8
MCD_Layer_0
10
-19.438106
20
-2.720550
30
0.0
11
-19.125067
21
-2.720550
31
0.0
0
LINE
8
MCD_Layer_0
10
-19.030239
20
-2.787804
30
0.0
11
-19.030239
21
-2.938135
31
0.0
0
LINE
8
MCD_Layer_0
10
-19.125067
20
-2.992531
30
0.0
11
-19.438570
21
-2.992531
31
0.0
0
LINE
8
MCD_Layer_0
10
-18.921576
20
-3.263801
30
0.0
11
-18.921576
21
-2.719983
31
0.0
0
LINE
8
MCD_Layer_0
10
-18.921863
20
-2.965260
30
0.0
11
-18.635455
21
-2.965260
31
0.0
0
LINE
8
MCD_Layer_0
10
-18.405853
20
-3.263872
30
0.0
11
-18.405853
21
-2.720900
31
0.0
0
LINE
8
MCD_Layer_0
10
-17.889992
20
-3.263872
30
0.0
11
-17.889992
21
-2.720900
31
0.0
0
LINE
8
MCD_Layer_0
10
-17.303899
20
-3.263872
30
0.0
11
-17.303899
21
-2.720900
31
0.0
0
LINE
8
MCD_Layer_0
10
-17.125109
20
-3.263872
30
0.0
11
-17.125109
21
-2.720900
31
0.0
0
LINE
8
MCD_Layer_0
10
-16.716778
20
-3.263872
30
0.0
11
-17.125109
21
-2.720900
31
0.0
0
LINE
8
MCD_Layer_0
10
-16.309166
20
-3.005737
30
0.0
11
-16.199822
21
-3.005737
31
0.0
0
LINE
8
MCD_Layer_0
10
-16.199822
20
-3.183762
30
0.0
11
-16.308198
21
-3.263872
31
0.0
0
LINE
8
MCD_Layer_0
10
-16.526873
20
-3.263872
30
0.0
11
-16.608154
21
-3.182773
31
0.0
0
LINE
8
MCD_Layer_0
10
-16.608154
20
-2.788154
30
0.0
11
-16.512358
21
-2.720900
31
0.0
0
LINE
8
MCD_Layer_0
10
-16.308198
20
-2.720900
30
0.0
11
-16.200790
21
-2.802000
31
0.0
0
LINE
8
MCD_Layer_0
10
-16.009990
20
-3.263872
30
0.0
11
-15.778729
21
-3.263872
31
0.0
0
LINE
8
MCD_Layer_0
10
-15.683906
20
-3.183762
30
0.0
11
-15.683906
21
-3.060134
31
0.0
0
LINE
8
MCD_Layer_0
10
-15.778729
20
-2.992881
30
0.0
11
-16.009990
21
-2.992881
31
0.0
0
LINE
8
MCD_Layer_0
10
-16.091264
20
-2.937496
30
0.0
11
-16.091264
21
-2.816835
31
0.0
0
LINE
8
MCD_Layer_0
10
-16.009990
20
-2.720900
30
0.0
11
-15.777761
21
-2.720900
31
0.0
0
LINE
8
MCD_Layer_5
10
-15.561734
20
-3.304925
30
0.0
11
-15.548170
21
-3.291330
31
0.0
0
LINE
8
MCD_Layer_5
10
-15.561734
20
-3.263740
30
0.0
11
-15.575033
21
-3.250545
31
0.0
0
LINE
8
MCD_Layer_5
10
-15.588852
20
-3.264007
30
0.0
11
-15.575160
21
-3.277334
31
0.0
0
LINE
8
MCD_Layer_0
10
-15.058962
20
-3.263801
30
0.0
11
-15.058962
21
-2.719983
31
0.0
0
LINE
8
MCD_Layer_0
10
-14.744983
20
-2.719983
30
0.0
11
-14.651128
21
-2.801084
31
0.0
0
LINE
8
MCD_Layer_0
10
-14.651128
20
-3.182847
30
0.0
11
-14.746919
21
-3.263944
31
0.0
0
LINE
8
MCD_Layer_0
10
-14.339450
20
-2.720056
30
0.0
11
-14.136252
21
-3.264018
31
0.0
0
LINE
8
MCD_Layer_0
10
-13.917505
20
-3.263872
30
0.0
11
-13.917505
21
-2.718922
31
0.0
0
LINE
8
MCD_Layer_0
10
-13.190621
20
-3.263944
30
0.0
11
-13.597692
21
-3.263801
31
0.0
0
LINE
8
MCD_Layer_0
10
-13.597692
20
-2.719983
30
0.0
11
-13.188686
21
-2.719983
31
0.0
0
LINE
8
MCD_Layer_0
10
-13.081969
20
-3.182773
30
0.0
11
-13.000689
21
-3.263872
31
0.0
0
LINE
8
MCD_Layer_0
10
-12.769434
20
-3.263872
30
0.0
11
-12.674611
21
-3.183762
31
0.0
0
LINE
8
MCD_Layer_0
10
-12.674611
20
-3.060134
30
0.0
11
-12.769434
21
-2.992881
31
0.0
0
LINE
8
MCD_Layer_0
10
-13.000689
20
-2.992881
30
0.0
11
-13.081969
21
-2.937496
31
0.0
0
LINE
8
MCD_Layer_0
10
-13.081969
20
-2.816835
30
0.0
11
-13.000689
21
-2.720900
31
0.0
0
LINE
8
MCD_Layer_0
10
-12.768466
20
-2.720900
30
0.0
11
-12.675579
21
-2.801011
31
0.0
0
LINE
8
MCD_Layer_0
10
-11.955276
20
-2.720056
30
0.0
11
-11.752078
21
-3.264018
31
0.0
0
LINE
8
MCD_Layer_0
10
-11.642497
20
-3.263872
30
0.0
11
-11.642497
21
-2.720900
31
0.0
0
LINE
8
MCD_Layer_0
10
-11.234166
20
-3.263872
30
0.0
11
-11.642497
21
-2.720900
31
0.0
0
LINE
8
MCD_Layer_0
10
-11.125574
20
-2.719983
30
0.0
11
-10.811590
21
-2.719983
31
0.0
0
LINE
8
MCD_Layer_0
10
-10.717730
20
-2.801084
30
0.0
11
-10.717730
21
-3.182847
31
0.0
0
LINE
8
MCD_Layer_0
10
-10.813525
20
-3.263944
30
0.0
11
-11.125574
21
-3.263801
31
0.0
0
LINE
8
MCD_Layer_0
10
-10.201482
20
-2.719983
30
0.0
11
-9.887497
21
-2.719983
31
0.0
0
LINE
8
MCD_Layer_0
10
-9.793637
20
-2.801084
30
0.0
11
-9.793637
21
-3.182847
31
0.0
0
LINE
8
MCD_Layer_0
10
-9.889433
20
-3.263944
30
0.0
11
-10.201482
21
-3.263801
31
0.0
0
LINE
8
MCD_Layer_0
10
-9.684957
20
-3.263801
30
0.0
11
-9.684957
21
-2.719983
31
0.0
0
LINE
8
MCD_Layer_0
10
-9.685245
20
-2.965260
30
0.0
11
-9.398842
21
-2.965260
31
0.0
0
LINE
8
MCD_Layer_0
10
-9.087955
20
-3.263872
30
0.0
11
-8.856694
21
-3.263872
31
0.0
0
LINE
8
MCD_Layer_0
10
-8.761871
20
-3.183762
30
0.0
11
-8.761871
21
-3.060134
31
0.0
0
LINE
8
MCD_Layer_0
10
-8.856694
20
-2.992881
30
0.0
11
-9.087955
21
-2.992881
31
0.0
0
LINE
8
MCD_Layer_0
10
-9.169229
20
-2.937496
30
0.0
11
-9.169229
21
-2.816835
31
0.0
0
LINE
8
MCD_Layer_0
10
-9.087955
20
-2.720900
30
0.0
11
-8.855731
21
-2.720900
31
0.0
0
LINE
8
MCD_Layer_0
10
-8.652804
20
-3.263872
30
0.0
11
-8.512506
21
-3.263872
31
0.0
0
LINE
8
MCD_Layer_0
10
-8.650869
20
-2.720900
30
0.0
11
-8.518312
21
-2.720900
31
0.0
0
LINE
8
MCD_Layer_0
10
-8.105358
20
-3.005737
30
0.0
11
-7.996015
21
-3.005737
31
0.0
0
LINE
8
MCD_Layer_0
10
-7.996015
20
-3.183762
30
0.0
11
-8.104385
21
-3.263872
31
0.0
0
LINE
8
MCD_Layer_0
10
-8.323060
20
-3.263872
30
0.0
11
-8.404346
21
-3.182773
31
0.0
0
LINE
8
MCD_Layer_0
10
-8.404346
20
-2.788154
30
0.0
11
-8.308551
21
-2.720900
31
0.0
0
LINE
8
MCD_Layer_0
10
-8.104385
20
-2.720900
30
0.0
11
-7.996988
21
-2.802000
31
0.0
0
LINE
8
MCD_Layer_0
10
-7.479070
20
-3.263872
30
0.0
11
-7.479070
21
-2.720900
31
0.0
0
LINE
8
MCD_Layer_0
10
-6.962811
20
-2.717438
30
0.0
11
-6.826384
21
-3.265356
31
0.0
0
LINE
8
MCD_Layer_0
10
-6.759619
20
-3.003266
30
0.0
11
-6.691881
21
-3.261399
31
0.0
0
LINE
8
MCD_Layer_0
10
-6.365620
20
-3.263872
30
0.0
11
-6.446895
21
-3.181785
31
0.0
0
LINE
8
MCD_Layer_0
10
-6.446895
20
-2.813868
30
0.0
11
-6.366583
21
-2.719910
31
0.0
0
LINE
8
MCD_Layer_0
10
-6.133397
20
-2.719910
30
0.0
11
-6.038564
21
-2.802000
31
0.0
0
LINE
8
MCD_Layer_0
10
-6.038564
20
-3.181785
30
0.0
11
-6.134360
21
-3.263872
31
0.0
0
LINE
8
MCD_Layer_0
10
-5.929884
20
-3.263306
30
0.0
11
-5.929884
21
-2.719488
31
0.0
0
LINE
8
MCD_Layer_0
10
-5.616928
20
-2.719488
30
0.0
11
-5.522095
21
-2.801577
31
0.0
0
LINE
8
MCD_Layer_0
10
-5.522095
20
-2.923228
30
0.0
11
-5.617890
21
-2.991470
31
0.0
0
LINE
8
MCD_Layer_0
10
-5.725298
20
-2.991470
30
0.0
11
-5.521133
21
-3.264439
31
0.0
0
LINE
8
MCD_Layer_0
10
-5.412398
20
-3.004822
30
0.0
11
-5.005040
21
-2.718995
31
0.0
0
LINE
8
MCD_Layer_0
10
-4.283642
20
-2.720056
30
0.0
11
-4.080438
21
-3.264018
31
0.0
0
LINE
8
MCD_Layer_0
10
-3.970796
20
-3.263306
30
0.0
11
-3.970796
21
-2.719488
31
0.0
0
LINE
8
MCD_Layer_0
10
-3.657841
20
-2.719488
30
0.0
11
-3.563007
21
-2.801577
31
0.0
0
LINE
8
MCD_Layer_0
10
-3.563007
20
-2.923228
30
0.0
11
-3.658803
21
-2.991470
31
0.0
0
LINE
8
MCD_Layer_0
10
-3.766211
20
-2.991470
30
0.0
11
-3.562045
21
-3.264439
31
0.0
0
LINE
8
MCD_Layer_0
10
-3.453277
20
-3.263801
30
0.0
11
-3.453277
21
-2.719983
31
0.0
0
LINE
8
MCD_Layer_0
10
-3.453564
20
-2.965260
30
0.0
11
-3.167162
21
-2.965260
31
0.0
0
LINE
8
MCD_Layer_0
10
-2.216881
20
-3.263982
30
0.0
11
-2.449358
21
-3.263765
31
0.0
0
LINE
8
MCD_Layer_0
10
-2.529660
20
-3.196512
30
0.0
11
-2.529660
21
-2.801893
31
0.0
0
LINE
8
MCD_Layer_0
10
-2.433875
20
-2.720792
30
0.0
11
-2.217124
21
-2.720792
31
0.0
0
LINE
8
MCD_Layer_0
10
-1.931584
20
-3.263872
30
0.0
11
-2.012859
21
-3.181785
31
0.0
0
LINE
8
MCD_Layer_0
10
-2.012859
20
-2.813868
30
0.0
11
-1.932546
21
-2.719910
31
0.0
0
LINE
8
MCD_Layer_0
10
-1.699350
20
-2.719910
30
0.0
11
-1.604527
21
-2.802000
31
0.0
0
LINE
8
MCD_Layer_0
10
-1.604527
20
-3.181785
30
0.0
11
-1.700323
21
-3.263872
31
0.0
0
LINE
8
MCD_Layer_0
10
-1.495848
20
-3.263306
30
0.0
11
-1.495848
21
-2.719488
31
0.0
0
LINE
8
MCD_Layer_0
10
-1.182892
20
-2.719488
30
0.0
11
-1.088058
21
-2.801577
31
0.0
0
LINE
8
MCD_Layer_0
10
-1.088058
20
-2.923228
30
0.0
11
-1.183854
21
-2.991470
31
0.0
0
LINE
8
MCD_Layer_0
10
-1.291262
20
-2.991470
30
0.0
11
-1.087096
21
-3.264439
31
0.0
0
LINE
8
MCD_Layer_0
10
-0.978350
20
-2.719488
30
0.0
11
-0.665394
21
-2.719488
31
0.0
0
LINE
8
MCD_Layer_0
10
-0.570561
20
-2.801577
30
0.0
11
-0.570561
21
-2.923228
31
0.0
0
LINE
8
MCD_Layer_0
10
-0.666356
20
-2.991470
30
0.0
11
-0.977919
21
-2.991470
31
0.0
0
LINE
8
MCD_Layer_0
10
-0.053771
20
-3.263944
30
0.0
11
-0.460842
21
-3.263801
31
0.0
0
LINE
8
MCD_Layer_0
10
-0.460842
20
-2.719983
30
0.0
11
-0.051836
21
-2.719983
31
0.0
0
LINE
8
MCD_Layer_0
10
0.367865
20
-3.263982
30
0.0
11
0.463129
21
-3.196227
31
0.0
0
LINE
8
MCD_Layer_0
10
0.135387
20
-3.263765
30
0.0
11
0.055086
21
-3.196512
31
0.0
0
LINE
8
MCD_Layer_0
10
0.055086
20
-2.801893
30
0.0
11
0.150870
21
-2.720792
31
0.0
0
LINE
8
MCD_Layer_0
10
0.367621
20
-2.720792
30
0.0
11
0.462444
21
-2.787056
31
0.0
0
LINE
8
MCD_Layer_0
10
0.585600
20
-2.718922
30
0.0
11
0.987163
21
-2.718922
31
0.0
0
LINE
8
MCD_Layer_5
10
1.097048
20
-3.263872
30
0.0
11
1.110142
21
-3.250488
31
0.0
0
LINE
8
MCD_Layer_5
10
1.123237
20
-3.265360
30
0.0
11
1.110142
21
-3.277257
31
0.0
0
LINE
8
MCD_Layer_0
10
2.142141
20
-3.264048
30
0.0
11
2.142141
21
-2.720726
31
0.0
0
LINE
8
MCD_Layer_0
10
2.443617
20
-2.720726
30
0.0
11
2.550052
21
-2.775122
31
0.0
0
LINE
8
MCD_Layer_0
10
2.550052
20
-2.924465
30
0.0
11
2.454256
21
-2.965014
31
0.0
0
LINE
8
MCD_Layer_0
10
2.550052
20
-3.033257
30
0.0
11
2.550052
21
-3.210292
31
0.0
0
LINE
8
MCD_Layer_0
10
2.440708
20
-3.263698
30
0.0
11
2.142141
21
-3.264048
31
0.0
0
LINE
8
MCD_Layer_0
10
2.862233
20
-3.263872
30
0.0
11
2.862233
21
-2.990903
31
0.0
0
LINE
8
MCD_Layer_0
10
2.862233
20
-2.990903
30
0.0
11
3.066399
21
-2.719910
31
0.0
0
LINE
8
MCD_Layer_0
10
3.663391
20
-3.263872
30
0.0
11
3.894652
21
-3.263872
31
0.0
0
LINE
8
MCD_Layer_0
10
3.989474
20
-3.183762
30
0.0
11
3.989474
21
-3.060134
31
0.0
0
LINE
8
MCD_Layer_0
10
3.894652
20
-2.992881
30
0.0
11
3.663391
21
-2.992881
31
0.0
0
LINE
8
MCD_Layer_0
10
3.582116
20
-2.937496
30
0.0
11
3.582116
21
-2.816835
31
0.0
0
LINE
8
MCD_Layer_0
10
3.663391
20
-2.720900
30
0.0
11
3.895614
21
-2.720900
31
0.0
0
LINE
8
MCD_Layer_0
10
4.098541
20
-3.263872
30
0.0
11
4.238839
21
-3.263872
31
0.0
0
LINE
8
MCD_Layer_0
10
4.100476
20
-2.720900
30
0.0
11
4.233033
21
-2.720900
31
0.0
0
LINE
8
MCD_Layer_0
10
4.645987
20
-3.005737
30
0.0
11
4.755330
21
-3.005737
31
0.0
0
LINE
8
MCD_Layer_0
10
4.755330
20
-3.183762
30
0.0
11
4.646960
21
-3.263872
31
0.0
0
LINE
8
MCD_Layer_0
10
4.428285
20
-3.263872
30
0.0
11
4.346999
21
-3.182773
31
0.0
0
LINE
8
MCD_Layer_0
10
4.346999
20
-2.788154
30
0.0
11
4.442795
21
-2.720900
31
0.0
0
LINE
8
MCD_Layer_0
10
4.646960
20
-2.720900
30
0.0
11
4.754357
21
-2.802000
31
0.0
0
LINE
8
MCD_Layer_0
10
5.272275
20
-3.263872
30
0.0
11
5.272275
21
-2.720900
31
0.0
0
LINE
8
MCD_Layer_0
10
5.381408
20
-3.263872
30
0.0
11
5.521706
21
-3.263872
31
0.0
0
LINE
8
MCD_Layer_0
10
5.383344
20
-2.720900
30
0.0
11
5.515900
21
-2.720900
31
0.0
0
LINE
8
MCD_Layer_0
10
6.038187
20
-3.263872
30
0.0
11
6.038187
21
-2.720900
31
0.0
0
LINE
8
MCD_Layer_0
10
6.445799
20
-3.047276
30
0.0
11
6.445799
21
-3.005737
31
0.0
0
LINE
8
MCD_Layer_0
10
6.555142
20
-3.005737
30
0.0
11
6.555142
21
-3.183762
31
0.0
0
LINE
8
MCD_Layer_0
10
6.446772
20
-3.263872
30
0.0
11
6.228097
21
-3.263872
31
0.0
0
LINE
8
MCD_Layer_0
10
6.146811
20
-3.182773
30
0.0
11
6.146811
21
-2.788154
31
0.0
0
LINE
8
MCD_Layer_0
10
6.242607
20
-2.720900
30
0.0
11
6.446772
21
-2.720900
31
0.0
0
LINE
8
MCD_Layer_0
10
7.289336
20
-3.263872
30
0.0
11
7.289336
21
-2.718922
31
0.0
0
LINE
8
MCD_Layer_0
10
7.609104
20
-3.264294
30
0.0
11
7.609104
21
-2.719488
31
0.0
0
LINE
8
MCD_Layer_0
10
8.016794
20
-2.719488
30
0.0
11
8.016794
21
-3.263451
31
0.0
0
LINE
8
MCD_Layer_0
10
8.195645
20
-3.263872
30
0.0
11
8.195645
21
-2.720900
31
0.0
0
LINE
8
MCD_Layer_0
10
8.374374
20
-3.182773
30
0.0
11
8.455649
21
-3.263872
31
0.0
0
LINE
8
MCD_Layer_0
10
8.686910
20
-3.263872
30
0.0
11
8.781732
21
-3.183762
31
0.0
0
LINE
8
MCD_Layer_0
10
8.781732
20
-3.060134
30
0.0
11
8.686910
21
-2.992881
31
0.0
0
LINE
8
MCD_Layer_0
10
8.455649
20
-2.992881
30
0.0
11
8.374374
21
-2.937496
31
0.0
0
LINE
8
MCD_Layer_0
10
8.374374
20
-2.816835
30
0.0
11
8.455649
21
-2.720900
31
0.0
0
LINE
8
MCD_Layer_0
10
8.687872
20
-2.720900
30
0.0
11
8.780770
21
-2.801011
31
0.0
0
LINE
8
MCD_Layer_0
10
9.297958
20
-2.719983
30
0.0
11
9.611944
21
-2.719983
31
0.0
0
LINE
8
MCD_Layer_0
10
9.705804
20
-2.801084
30
0.0
11
9.705804
21
-3.182847
31
0.0
0
LINE
8
MCD_Layer_0
10
9.610009
20
-3.263944
30
0.0
11
9.297958
21
-3.263801
31
0.0
0
LINE
8
MCD_Layer_0
10
9.814462
20
-2.719488
30
0.0
11
10.127418
21
-2.719488
31
0.0
0
LINE
8
MCD_Layer_0
10
10.222251
20
-2.801577
30
0.0
11
10.222251
21
-2.923228
31
0.0
0
LINE
8
MCD_Layer_0
10
10.126456
20
-2.991470
30
0.0
11
9.814893
21
-2.991470
31
0.0
0
LINE
8
MCD_Layer_0
10
10.534964
20
-2.720056
30
0.0
11
10.738167
21
-3.264018
31
0.0
0
LINE
8
MCD_Layer_0
10
10.738964
20
-2.717438
30
0.0
11
10.875391
21
-3.265356
31
0.0
0
LINE
8
MCD_Layer_0
10
10.942156
20
-3.003266
30
0.0
11
11.009894
21
-3.261399
31
0.0
0
LINE
8
MCD_Layer_0
10
11.255410
20
-3.263872
30
0.0
11
11.395709
21
-3.263872
31
0.0
0
LINE
8
MCD_Layer_0
10
11.257346
20
-2.720900
30
0.0
11
11.389903
21
-2.720900
31
0.0
0
LINE
8
MCD_Layer_0
10
11.912189
20
-3.263872
30
0.0
11
11.912189
21
-2.720900
31
0.0
0
LINE
8
MCD_Layer_0
10
12.319790
20
-3.047276
30
0.0
11
12.319790
21
-3.005737
31
0.0
0
LINE
8
MCD_Layer_0
10
12.429134
20
-3.005737
30
0.0
11
12.429134
21
-3.183762
31
0.0
0
LINE
8
MCD_Layer_0
10
12.320763
20
-3.263872
30
0.0
11
12.102088
21
-3.263872
31
0.0
0
LINE
8
MCD_Layer_0
10
12.020802
20
-3.182773
30
0.0
11
12.020802
21
-2.788154
31
0.0
0
LINE
8
MCD_Layer_0
10
12.116598
20
-2.720900
30
0.0
11
12.320763
21
-2.720900
31
0.0
0
LINE
8
MCD_Layer_0
10
13.149072
20
-3.263872
30
0.0
11
13.149072
21
-2.990903
31
0.0
0
LINE
8
MCD_Layer_0
10
13.149072
20
-2.990903
30
0.0
11
13.353237
21
-2.719910
31
0.0
0
LINE
8
MCD_Layer_0
10
13.406952
20
-3.181785
30
0.0
11
13.406952
21
-2.813868
31
0.0
0
LINE
8
MCD_Layer_0
10
13.487265
20
-2.719910
30
0.0
11
13.720450
21
-2.719910
31
0.0
0
LINE
8
MCD_Layer_0
10
13.815283
20
-2.802000
30
0.0
11
13.815283
21
-3.181785
31
0.0
0
LINE
8
MCD_Layer_0
10
13.719488
20
-3.263872
30
0.0
11
13.488227
21
-3.263872
31
0.0
0
LINE
8
MCD_Layer_0
10
13.923842
20
-3.167937
30
0.0
11
13.923842
21
-2.720900
31
0.0
0
LINE
8
MCD_Layer_0
10
14.264435
20
-3.263872
30
0.0
11
14.331200
21
-3.168927
31
0.0
0
LINE
8
MCD_Layer_0
10
15.050540
20
-2.720056
30
0.0
11
15.253744
21
-3.264018
31
0.0
0
LINE
8
MCD_Layer_0
10
15.363375
20
-3.263306
30
0.0
11
15.363375
21
-2.719488
31
0.0
0
LINE
8
MCD_Layer_0
10
15.676331
20
-2.719488
30
0.0
11
15.771164
21
-2.801577
31
0.0
0
LINE
8
MCD_Layer_0
10
15.771164
20
-2.923228
30
0.0
11
15.675368
21
-2.991470
31
0.0
0
LINE
8
MCD_Layer_0
10
15.567961
20
-2.991470
30
0.0
11
15.772126
21
-3.264439
31
0.0
0
LINE
8
MCD_Layer_0
10
15.880905
20
-3.263801
30
0.0
11
15.880905
21
-2.719983
31
0.0
0
LINE
8
MCD_Layer_0
10
15.880618
20
-2.965260
30
0.0
11
16.167020
21
-2.965260
31
0.0
0
LINE
8
MCD_Layer_0
10
-19.940214
20
-1.631749
30
0.0
11
-19.538662
21
-1.631749
31
0.0
0
LINE
8
MCD_Layer_0
10
-19.415948
20
-1.878582
30
0.0
11
-19.008590
21
-1.878582
31
0.0
0
LINE
8
MCD_Layer_0
10
-18.899413
20
-2.176699
30
0.0
11
-18.759109
21
-2.176699
31
0.0
0
LINE
8
MCD_Layer_0
10
-18.897478
20
-1.633727
30
0.0
11
-18.764915
21
-1.633727
31
0.0
0
LINE
8
MCD_Layer_0
10
-18.569741
20
-2.176699
30
0.0
11
-18.338480
21
-2.176699
31
0.0
0
LINE
8
MCD_Layer_0
10
-18.243658
20
-2.096589
30
0.0
11
-18.243658
21
-1.972961
31
0.0
0
LINE
8
MCD_Layer_0
10
-18.338480
20
-1.905708
30
0.0
11
-18.569741
21
-1.905708
31
0.0
0
LINE
8
MCD_Layer_0
10
-18.651016
20
-1.850323
30
0.0
11
-18.651016
21
-1.729662
31
0.0
0
LINE
8
MCD_Layer_0
10
-18.569741
20
-1.633727
30
0.0
11
-18.337512
21
-1.633727
31
0.0
0
LINE
8
MCD_Layer_0
10
-17.727426
20
-2.176628
30
0.0
11
-17.727426
21
-1.632810
31
0.0
0
LINE
8
MCD_Layer_0
10
-17.413447
20
-1.632810
30
0.0
11
-17.319593
21
-1.713911
31
0.0
0
LINE
8
MCD_Layer_0
10
-17.319593
20
-2.095674
30
0.0
11
-17.415383
21
-2.176771
31
0.0
0
LINE
8
MCD_Layer_0
10
-17.210930
20
-2.176133
30
0.0
11
-17.210930
21
-1.632315
31
0.0
0
LINE
8
MCD_Layer_0
10
-16.897968
20
-1.632315
30
0.0
11
-16.803146
21
-1.714404
31
0.0
0
LINE
8
MCD_Layer_0
10
-16.803146
20
-1.836055
30
0.0
11
-16.898936
21
-1.904297
31
0.0
0
LINE
8
MCD_Layer_0
10
-17.006338
20
-1.904297
30
0.0
11
-16.802178
21
-2.177266
31
0.0
0
LINE
8
MCD_Layer_0
10
-16.694438
20
-2.176699
30
0.0
11
-16.490416
21
-1.632884
31
0.0
0
LINE
8
MCD_Layer_0
10
-16.587434
20
-1.891317
30
0.0
11
-16.393902
21
-1.891319
31
0.0
0
LINE
8
MCD_Layer_0
10
-16.149984
20
-2.178183
30
0.0
11
-16.083219
21
-1.916093
31
0.0
0
LINE
8
MCD_Layer_0
10
-16.015486
20
-2.174226
30
0.0
11
-15.879053
21
-1.630265
31
0.0
0
LINE
8
MCD_Layer_0
10
-15.700318
20
-2.176699
30
0.0
11
-15.700318
21
-1.633727
31
0.0
0
LINE
8
MCD_Layer_0
10
-15.521528
20
-2.176699
30
0.0
11
-15.521528
21
-1.633727
31
0.0
0
LINE
8
MCD_Layer_0
10
-15.113197
20
-2.176699
30
0.0
11
-15.521528
21
-1.633727
31
0.0
0
LINE
8
MCD_Layer_0
10
-14.705590
20
-1.918564
30
0.0
11
-14.596247
21
-1.918564
31
0.0
0
LINE
8
MCD_Layer_0
10
-14.596247
20
-2.096589
30
0.0
11
-14.704622
21
-2.176699
31
0.0
0
LINE
8
MCD_Layer_0
10
-14.923298
20
-2.176699
30
0.0
11
-15.004578
21
-2.095600
31
0.0
0
LINE
8
MCD_Layer_0
10
-15.004578
20
-1.700981
30
0.0
11
-14.908782
21
-1.633727
31
0.0
0
LINE
8
MCD_Layer_0
10
-14.704622
20
-1.633727
30
0.0
11
-14.597214
21
-1.714827
31
0.0
0
LINE
8
MCD_Layer_0
10
-13.943566
20
-2.178183
30
0.0
11
-13.876801
21
-1.916093
31
0.0
0
LINE
8
MCD_Layer_0
10
-13.809068
20
-2.174226
30
0.0
11
-13.672635
21
-1.630265
31
0.0
0
LINE
8
MCD_Layer_0
10
-13.673736
20
-2.176699
30
0.0
11
-13.469714
21
-1.632884
31
0.0
0
LINE
8
MCD_Layer_0
10
-13.566731
20
-1.891317
30
0.0
11
-13.373199
21
-1.891319
31
0.0
0
LINE
8
MCD_Layer_0
10
-13.075704
20
-2.176699
30
0.0
11
-12.844449
21
-2.176699
31
0.0
0
LINE
8
MCD_Layer_0
10
-12.749626
20
-2.096589
30
0.0
11
-12.749626
21
-1.972961
31
0.0
0
LINE
8
MCD_Layer_0
10
-12.844449
20
-1.905708
30
0.0
11
-13.075704
21
-1.905708
31
0.0
0
LINE
8
MCD_Layer_0
10
-13.156984
20
-1.850323
30
0.0
11
-13.156984
21
-1.729662
31
0.0
0
LINE
8
MCD_Layer_0
10
-13.075704
20
-1.633727
30
0.0
11
-12.843481
21
-1.633727
31
0.0
0
LINE
8
MCD_Layer_0
10
-12.233412
20
-2.176699
30
0.0
11
-12.233412
21
-1.633377
31
0.0
0
LINE
8
MCD_Layer_0
10
-11.920373
20
-1.633377
30
0.0
11
-11.825545
21
-1.700631
31
0.0
0
LINE
8
MCD_Layer_0
10
-11.825545
20
-1.850962
30
0.0
11
-11.920373
21
-1.905358
31
0.0
0
LINE
8
MCD_Layer_0
10
-11.716904
20
-2.176133
30
0.0
11
-11.716904
21
-1.632315
31
0.0
0
LINE
8
MCD_Layer_0
10
-11.403948
20
-1.632315
30
0.0
11
-11.309114
21
-1.714404
31
0.0
0
LINE
8
MCD_Layer_0
10
-11.309114
20
-1.836055
30
0.0
11
-11.404910
21
-1.904297
31
0.0
0
LINE
8
MCD_Layer_0
10
-11.512318
20
-1.904297
30
0.0
11
-11.308152
21
-2.177266
31
0.0
0
LINE
8
MCD_Layer_0
10
-11.199384
20
-2.176628
30
0.0
11
-11.199384
21
-1.632810
31
0.0
0
LINE
8
MCD_Layer_0
10
-11.199672
20
-1.878087
30
0.0
11
-10.913269
21
-1.878087
31
0.0
0
LINE
8
MCD_Layer_0
10
-10.683645
20
-1.633377
30
0.0
11
-10.370601
21
-1.633377
31
0.0
0
LINE
8
MCD_Layer_0
10
-10.275778
20
-1.700631
30
0.0
11
-10.275778
21
-1.850962
31
0.0
0
LINE
8
MCD_Layer_0
10
-10.370601
20
-1.905358
30
0.0
11
-10.684109
21
-1.905358
31
0.0
0
LINE
8
MCD_Layer_0
10
-10.276862
20
-2.176699
30
0.0
11
-10.072840
21
-1.632884
31
0.0
0
LINE
8
MCD_Layer_0
10
-10.169852
20
-1.891317
30
0.0
11
-9.976326
21
-1.891319
31
0.0
0
LINE
8
MCD_Layer_0
10
-9.759995
20
-1.632315
30
0.0
11
-9.447039
21
-1.632315
31
0.0
0
LINE
8
MCD_Layer_0
10
-9.352205
20
-1.714404
30
0.0
11
-9.352205
21
-1.836055
31
0.0
0
LINE
8
MCD_Layer_0
10
-9.448001
20
-1.904297
30
0.0
11
-9.759563
21
-1.904297
31
0.0
0
LINE
8
MCD_Layer_0
10
-8.835404
20
-2.176771
30
0.0
11
-9.242475
21
-2.176628
31
0.0
0
LINE
8
MCD_Layer_0
10
-9.242475
20
-1.632810
30
0.0
11
-8.833469
21
-1.632810
31
0.0
0
LINE
8
MCD_Layer_0
10
-8.726725
20
-2.176628
30
0.0
11
-8.726725
21
-1.632810
31
0.0
0
LINE
8
MCD_Layer_0
10
-8.412740
20
-1.632810
30
0.0
11
-8.318880
21
-1.713911
31
0.0
0
LINE
8
MCD_Layer_0
10
-8.318880
20
-2.095674
30
0.0
11
-8.414676
21
-2.176771
31
0.0
0
LINE
8
MCD_Layer_0
10
-7.802488
20
-2.176699
30
0.0
11
-7.802488
21
-1.633377
31
0.0
0
LINE
8
MCD_Layer_0
10
-7.802090
20
-1.877666
30
0.0
11
-7.529224
21
-1.877666
31
0.0
0
LINE
8
MCD_Layer_0
10
-7.207631
20
-2.176699
30
0.0
11
-7.288906
21
-2.094612
31
0.0
0
LINE
8
MCD_Layer_0
10
-7.288906
20
-1.726695
30
0.0
11
-7.208593
21
-1.632737
31
0.0
0
LINE
8
MCD_Layer_0
10
-6.975408
20
-1.632737
30
0.0
11
-6.880574
21
-1.714827
31
0.0
0
LINE
8
MCD_Layer_0
10
-6.880574
20
-2.094612
30
0.0
11
-6.976370
21
-2.176699
31
0.0
0
LINE
8
MCD_Layer_0
10
-6.771895
20
-2.176133
30
0.0
11
-6.771895
21
-1.632315
31
0.0
0
LINE
8
MCD_Layer_0
10
-6.458939
20
-1.632315
30
0.0
11
-6.364105
21
-1.714404
31
0.0
0
LINE
8
MCD_Layer_0
10
-6.364105
20
-1.836055
30
0.0
11
-6.459901
21
-1.904297
31
0.0
0
LINE
8
MCD_Layer_0
10
-6.567309
20
-1.904297
30
0.0
11
-6.363143
21
-2.177266
31
0.0
0
LINE
8
MCD_Layer_0
10
-5.643161
20
-1.903730
30
0.0
11
-5.846353
21
-1.632737
31
0.0
0
LINE
8
MCD_Layer_0
10
-5.303994
20
-2.176699
30
0.0
11
-5.385269
21
-2.094612
31
0.0
0
LINE
8
MCD_Layer_0
10
-5.385269
20
-1.726695
30
0.0
11
-5.304957
21
-1.632737
31
0.0
0
LINE
8
MCD_Layer_0
10
-5.071771
20
-1.632737
30
0.0
11
-4.976938
21
-1.714827
31
0.0
0
LINE
8
MCD_Layer_0
10
-4.976938
20
-2.094612
30
0.0
11
-5.072734
21
-2.176699
31
0.0
0
LINE
8
MCD_Layer_0
10
-4.773558
20
-2.176699
30
0.0
11
-4.868380
21
-2.080764
31
0.0
0
LINE
8
MCD_Layer_0
10
-4.773558
20
-2.176699
30
0.0
11
-4.527787
21
-2.176699
31
0.0
0
LINE
8
MCD_Layer_0
10
-4.461022
20
-2.177689
30
0.0
11
-4.461022
21
-1.628782
31
0.0
0
LINE
8
MCD_Layer_0
10
-4.352397
20
-1.632315
30
0.0
11
-4.039441
21
-1.632315
31
0.0
0
LINE
8
MCD_Layer_0
10
-3.944608
20
-1.714404
30
0.0
11
-3.944608
21
-1.836055
31
0.0
0
LINE
8
MCD_Layer_0
10
-4.040404
20
-1.904297
30
0.0
11
-4.351966
21
-1.904297
31
0.0
0
LINE
8
MCD_Layer_0
10
-3.224194
20
-1.632884
30
0.0
11
-3.020991
21
-2.176845
31
0.0
0
LINE
8
MCD_Layer_0
10
-2.911449
20
-2.176699
30
0.0
11
-2.911449
21
-1.633377
31
0.0
0
LINE
8
MCD_Layer_0
10
-2.598404
20
-1.633377
30
0.0
11
-2.503582
21
-1.700631
31
0.0
0
LINE
8
MCD_Layer_0
10
-2.503582
20
-1.850962
30
0.0
11
-2.598404
21
-1.905358
31
0.0
0
LINE
8
MCD_Layer_0
10
-2.395046
20
-2.176699
30
0.0
11
-2.395046
21
-1.633377
31
0.0
0
LINE
8
MCD_Layer_0
10
-2.082002
20
-1.633377
30
0.0
11
-1.987179
21
-1.700631
31
0.0
0
LINE
8
MCD_Layer_0
10
-1.987179
20
-1.850962
30
0.0
11
-2.082002
21
-1.905358
31
0.0
0
LINE
8
MCD_Layer_0
10
-1.878533
20
-2.176133
30
0.0
11
-1.878533
21
-1.632315
31
0.0
0
LINE
8
MCD_Layer_0
10
-1.565577
20
-1.632315
30
0.0
11
-1.470743
21
-1.714404
31
0.0
0
LINE
8
MCD_Layer_0
10
-1.470743
20
-1.836055
30
0.0
11
-1.566539
21
-1.904297
31
0.0
0
LINE
8
MCD_Layer_0
10
-1.673947
20
-1.904297
30
0.0
11
-1.469781
21
-2.177266
31
0.0
0
LINE
8
MCD_Layer_0
10
-1.361101
20
-2.094612
30
0.0
11
-1.361101
21
-1.726695
31
0.0
0
LINE
8
MCD_Layer_0
10
-1.280789
20
-1.632737
30
0.0
11
-1.047603
21
-1.632737
31
0.0
0
LINE
8
MCD_Layer_0
10
-0.952770
20
-1.714827
30
0.0
11
-0.952770
21
-2.094612
31
0.0
0
LINE
8
MCD_Layer_0
10
-1.048566
20
-2.176699
30
0.0
11
-1.279827
21
-2.176699
31
0.0
0
LINE
8
MCD_Layer_0
10
-0.640533
20
-2.176699
30
0.0
11
-0.437341
21
-1.629770
31
0.0
0
LINE
8
MCD_Layer_0
10
-0.329225
20
-2.176699
30
0.0
11
-0.125203
21
-1.632884
31
0.0
0
LINE
8
MCD_Layer_0
10
-0.222215
20
-1.891317
30
0.0
11
-0.028689
21
-1.891319
31
0.0
0
LINE
8
MCD_Layer_0
10
0.187532
20
-2.176699
30
0.0
11
0.187532
21
-1.633727
31
0.0
0
LINE
8
MCD_Layer_5
10
0.690973
20
-2.176699
30
0.0
11
0.704067
21
-2.163315
31
0.0
0
LINE
8
MCD_Layer_5
10
0.717161
20
-2.178187
30
0.0
11
0.704067
21
-2.190084
31
0.0
0
LINE
8
MCD_Layer_0
10
1.736110
20
-2.176699
30
0.0
11
1.736110
21
-1.633377
31
0.0
0
LINE
8
MCD_Layer_0
10
2.049154
20
-1.633377
30
0.0
11
2.143976
21
-1.700631
31
0.0
0
LINE
8
MCD_Layer_0
10
2.143976
20
-1.850962
30
0.0
11
2.049154
21
-1.905358
31
0.0
0
LINE
8
MCD_Layer_0
10
2.659859
20
-2.176699
30
0.0
11
2.252501
21
-2.176699
31
0.0
0
LINE
8
MCD_Layer_0
10
3.175587
20
-2.176771
30
0.0
11
2.768517
21
-2.176628
31
0.0
0
LINE
8
MCD_Layer_0
10
2.768517
20
-1.632810
30
0.0
11
3.177523
21
-1.632810
31
0.0
0
LINE
8
MCD_Layer_0
10
3.487360
20
-1.632884
30
0.0
11
3.690564
21
-2.176845
31
0.0
0
LINE
8
MCD_Layer_0
10
3.800095
20
-2.095600
30
0.0
11
3.881370
21
-2.176699
31
0.0
0
LINE
8
MCD_Layer_0
10
4.112631
20
-2.176699
30
0.0
11
4.207453
21
-2.096589
31
0.0
0
LINE
8
MCD_Layer_0
10
4.207453
20
-1.972961
30
0.0
11
4.112631
21
-1.905708
31
0.0
0
LINE
8
MCD_Layer_0
10
3.881370
20
-1.905708
30
0.0
11
3.800095
21
-1.850323
31
0.0
0
LINE
8
MCD_Layer_0
10
3.800095
20
-1.729662
30
0.0
11
3.881370
21
-1.633727
31
0.0
0
LINE
8
MCD_Layer_0
10
4.113593
20
-1.633727
30
0.0
11
4.206491
21
-1.713838
31
0.0
0
LINE
8
MCD_Layer_0
10
4.316099
20
-2.176628
30
0.0
11
4.316099
21
-1.632810
31
0.0
0
LINE
8
MCD_Layer_0
10
4.315812
20
-1.878087
30
0.0
11
4.602214
21
-1.878087
31
0.0
0
LINE
8
MCD_Layer_0
10
5.552495
20
-2.176809
30
0.0
11
5.320018
21
-2.176592
31
0.0
0
LINE
8
MCD_Layer_0
10
5.239716
20
-2.109339
30
0.0
11
5.239716
21
-1.714720
31
0.0
0
LINE
8
MCD_Layer_0
10
5.335501
20
-1.633619
30
0.0
11
5.552252
21
-1.633619
31
0.0
0
LINE
8
MCD_Layer_0
10
5.756562
20
-2.177121
30
0.0
11
5.756562
21
-1.632315
31
0.0
0
LINE
8
MCD_Layer_0
10
6.164251
20
-1.632315
30
0.0
11
6.164251
21
-2.176278
31
0.0
0
LINE
8
MCD_Layer_0
10
6.273009
20
-2.176628
30
0.0
11
6.273009
21
-1.632810
31
0.0
0
LINE
8
MCD_Layer_0
10
6.272721
20
-1.878087
30
0.0
11
6.559124
21
-1.878087
31
0.0
0
LINE
8
MCD_Layer_0
10
7.101704
20
-2.176809
30
0.0
11
6.869226
21
-2.176592
31
0.0
0
LINE
8
MCD_Layer_0
10
6.788925
20
-2.109339
30
0.0
11
6.788925
21
-1.714720
31
0.0
0
LINE
8
MCD_Layer_0
10
6.884709
20
-1.633619
30
0.0
11
7.101460
21
-1.633619
31
0.0
0
LINE
8
MCD_Layer_0
10
7.305825
20
-2.175638
30
0.0
11
7.305825
21
-1.630832
31
0.0
0
LINE
8
MCD_Layer_0
10
7.386105
20
-1.862263
30
0.0
11
7.715085
21
-2.177761
31
0.0
0
LINE
8
MCD_Layer_0
10
8.245180
20
-1.631749
30
0.0
11
8.646743
21
-1.631749
31
0.0
0
LINE
8
MCD_Layer_0
10
8.769080
20
-2.094612
30
0.0
11
8.769080
21
-1.726695
31
0.0
0
LINE
8
MCD_Layer_0
10
8.849393
20
-1.632737
30
0.0
11
9.082578
21
-1.632737
31
0.0
0
LINE
8
MCD_Layer_0
10
9.177412
20
-1.714827
30
0.0
11
9.177412
21
-2.094612
31
0.0
0
LINE
8
MCD_Layer_0
10
9.081616
20
-2.176699
30
0.0
11
8.850355
21
-2.176699
31
0.0
0
LINE
8
MCD_Layer_0
10
9.815579
20
-1.630760
30
0.0
11
9.897827
21
-1.862191
31
0.0
0
LINE
8
MCD_Layer_0
10
10.102656
20
-2.176699
30
0.0
11
9.980075
21
-1.631749
31
0.0
0
LINE
8
MCD_Layer_0
10
10.210263
20
-2.176699
30
0.0
11
10.414285
21
-1.632884
31
0.0
0
LINE
8
MCD_Layer_0
10
10.317273
20
-1.891317
30
0.0
11
10.510799
21
-1.891319
31
0.0
0
LINE
8
MCD_Layer_0
10
10.727119
20
-1.917649
30
0.0
11
11.134477
21
-1.631822
31
0.0
0
LINE
8
MCD_Layer_0
10
11.652273
20
-2.176771
30
0.0
11
11.245203
21
-2.176628
31
0.0
0
LINE
8
MCD_Layer_0
10
11.245203
20
-1.632810
30
0.0
11
11.654209
21
-1.632810
31
0.0
0
LINE
8
MCD_Layer_0
10
12.168599
20
-2.095600
30
0.0
11
12.249873
21
-2.176699
31
0.0
0
LINE
8
MCD_Layer_0
10
12.481134
20
-2.176699
30
0.0
11
12.575957
21
-2.096589
31
0.0
0
LINE
8
MCD_Layer_0
10
12.575957
20
-1.972961
30
0.0
11
12.481134
21
-1.905708
31
0.0
0
LINE
8
MCD_Layer_0
10
12.249873
20
-1.905708
30
0.0
11
12.168599
21
-1.850323
31
0.0
0
LINE
8
MCD_Layer_0
10
12.168599
20
-1.729662
30
0.0
11
12.249873
21
-1.633727
31
0.0
0
LINE
8
MCD_Layer_0
10
12.482096
20
-1.633727
30
0.0
11
12.574995
21
-1.713838
31
0.0
0
LINE
8
MCD_Layer_0
10
12.684471
20
-2.080764
30
0.0
11
12.684471
21
-1.633727
31
0.0
0
LINE
8
MCD_Layer_0
10
13.025064
20
-2.176699
30
0.0
11
13.091829
21
-2.081754
31
0.0
0
LINE
8
MCD_Layer_0
10
13.200464
20
-2.176133
30
0.0
11
13.200464
21
-1.632315
31
0.0
0
LINE
8
MCD_Layer_0
10
13.513420
20
-1.632315
30
0.0
11
13.608253
21
-1.714404
31
0.0
0
LINE
8
MCD_Layer_0
10
13.608253
20
-1.836055
30
0.0
11
13.512458
21
-1.904297
31
0.0
0
LINE
8
MCD_Layer_0
10
13.405050
20
-1.904297
30
0.0
11
13.609216
21
-2.177266
31
0.0
0
LINE
8
MCD_Layer_0
10
13.717973
20
-2.176628
30
0.0
11
13.717973
21
-1.632810
31
0.0
0
LINE
8
MCD_Layer_0
10
13.717685
20
-1.878087
30
0.0
11
14.004088
21
-1.878087
31
0.0
0
LINE
8
MCD_Layer_0
10
14.655148
20
-1.631749
30
0.0
11
15.056711
21
-1.631749
31
0.0
0
LINE
8
MCD_Layer_0
10
15.179436
20
-1.878582
30
0.0
11
15.586795
21
-1.878582
31
0.0
0
LINE
8
MCD_Layer_0
10
15.898534
20
-1.632884
30
0.0
11
16.101737
21
-2.176845
31
0.0
0
LINE
8
MCD_Layer_0
10
16.320479
20
-2.176699
30
0.0
11
16.320479
21
-1.631749
31
0.0
0
LINE
8
MCD_Layer_0
10
17.250975
20
-1.632884
30
0.0
11
17.454179
21
-2.176845
31
0.0
0
LINE
8
MCD_Layer_0
10
17.971057
20
-2.176699
30
0.0
11
17.563699
21
-2.176699
31
0.0
0
LINE
8
MCD_Layer_0
10
18.486929
20
-2.176699
30
0.0
11
18.079571
21
-2.176699
31
0.0
0
LINE
8
MCD_Layer_0
10
-19.641011
20
-0.546049
30
0.0
11
-19.545740
21
-0.478294
31
0.0
0
LINE
8
MCD_Layer_0
10
-19.873483
20
-0.545832
30
0.0
11
-19.953795
21
-0.478579
31
0.0
0
LINE
8
MCD_Layer_0
10
-19.953795
20
-0.083960
30
0.0
11
-19.857999
21
-0.002860
31
0.0
0
LINE
8
MCD_Layer_0
10
-19.641259
20
-0.002860
30
0.0
11
-19.546431
21
-0.069124
31
0.0
0
LINE
8
MCD_Layer_0
10
-19.436983
20
-0.463852
30
0.0
11
-19.436983
21
-0.095936
31
0.0
0
LINE
8
MCD_Layer_0
10
-19.356671
20
-0.001978
30
0.0
11
-19.123480
21
-0.001978
31
0.0
0
LINE
8
MCD_Layer_0
10
-19.028652
20
-0.084068
30
0.0
11
-19.028652
21
-0.463852
31
0.0
0
LINE
8
MCD_Layer_0
10
-19.124447
20
-0.545940
30
0.0
11
-19.355703
21
-0.545940
31
0.0
0
LINE
8
MCD_Layer_0
10
-18.511702
20
-0.545940
30
0.0
11
-18.511702
21
-0.002967
31
0.0
0
LINE
8
MCD_Layer_0
10
-18.185198
20
-0.545940
30
0.0
11
-18.185198
21
-0.000989
31
0.0
0
LINE
8
MCD_Layer_0
10
-17.865413
20
-0.545373
30
0.0
11
-17.865413
21
-0.001556
31
0.0
0
LINE
8
MCD_Layer_0
10
-17.552452
20
-0.001556
30
0.0
11
-17.457629
21
-0.083646
31
0.0
0
LINE
8
MCD_Layer_0
10
-17.457629
20
-0.205296
30
0.0
11
-17.553419
21
-0.273537
31
0.0
0
LINE
8
MCD_Layer_0
10
-17.660822
20
-0.273537
30
0.0
11
-17.456662
21
-0.546507
31
0.0
0
LINE
8
MCD_Layer_0
10
-17.348922
20
-0.545940
30
0.0
11
-17.144894
21
-0.002123
31
0.0
0
LINE
8
MCD_Layer_0
10
-17.241918
20
-0.260558
30
0.0
11
-17.048386
21
-0.260559
31
0.0
0
LINE
8
MCD_Layer_0
10
-16.519193
20
-0.546049
30
0.0
11
-16.751665
21
-0.545832
31
0.0
0
LINE
8
MCD_Layer_0
10
-16.831977
20
-0.478579
30
0.0
11
-16.831977
21
-0.083960
31
0.0
0
LINE
8
MCD_Layer_0
10
-16.736182
20
-0.002860
30
0.0
11
-16.519442
21
-0.002860
31
0.0
0
LINE
8
MCD_Layer_0
10
-16.097286
20
-0.545940
30
0.0
11
-16.097286
21
-0.000989
31
0.0
0
LINE
8
MCD_Layer_0
10
-15.369866
20
-0.545940
30
0.0
11
-15.369866
21
-0.002967
31
0.0
0
LINE
8
MCD_Layer_0
10
-14.961535
20
-0.545940
30
0.0
11
-15.369866
21
-0.002967
31
0.0
0
LINE
8
MCD_Layer_0
10
-14.852916
20
-0.463852
30
0.0
11
-14.852916
21
-0.095936
31
0.0
0
LINE
8
MCD_Layer_0
10
-14.772604
20
-0.001978
30
0.0
11
-14.539413
21
-0.001978
31
0.0
0
LINE
8
MCD_Layer_0
10
-14.444585
20
-0.084068
30
0.0
11
-14.444585
21
-0.463852
31
0.0
0
LINE
8
MCD_Layer_0
10
-14.540381
20
-0.545940
30
0.0
11
-14.771636
21
-0.545940
31
0.0
0
LINE
8
MCD_Layer_5
10
-14.348424
20
-0.545940
30
0.0
11
-14.335330
21
-0.532555
31
0.0
0
LINE
8
MCD_Layer_5
10
-14.322236
20
-0.547427
30
0.0
11
-14.335330
21
-0.559325
31
0.0
0
LINE
8
MCD_Layer_0
10
-9.172879
20
-0.545940
30
0.0
11
-9.172879
21
-0.002967
31
0.0
0
LINE
8
MCD_Layer_0
10
-8.764548
20
-0.545940
30
0.0
11
-9.172879
21
-0.002967
31
0.0
0
LINE
8
MCD_Layer_0
10
-8.452841
20
-0.002123
30
0.0
11
-8.249638
21
-0.546085
31
0.0
0
LINE
8
MCD_Layer_0
10
-8.140118
20
-0.545940
30
0.0
11
-8.018200
21
0.000000
31
0.0
0
LINE
8
MCD_Layer_0
10
-7.935952
20
-0.231432
30
0.0
11
-7.853704
21
-0.000989
31
0.0
0
LINE
8
MCD_Layer_0
10
-7.215406
20
-0.546013
30
0.0
11
-7.622476
21
-0.545867
31
0.0
0
LINE
8
MCD_Layer_0
10
-7.622476
20
-0.002051
30
0.0
11
-7.213470
21
-0.002051
31
0.0
0
LINE
8
MCD_Layer_0
10
-6.617739
20
-0.545940
30
0.0
11
-6.699014
21
-0.463852
31
0.0
0
LINE
8
MCD_Layer_0
10
-6.699014
20
-0.095936
30
0.0
11
-6.618701
21
-0.001978
31
0.0
0
LINE
8
MCD_Layer_0
10
-6.385505
20
-0.001978
30
0.0
11
-6.290683
21
-0.084068
31
0.0
0
LINE
8
MCD_Layer_0
10
-6.290683
20
-0.463852
30
0.0
11
-6.386478
21
-0.545940
31
0.0
0
LINE
8
MCD_Layer_0
10
-6.182058
20
-0.545940
30
0.0
11
-6.182058
21
-0.002967
31
0.0
0
LINE
8
MCD_Layer_0
10
-5.773727
20
-0.545940
30
0.0
11
-6.182058
21
-0.002967
31
0.0
0
LINE
8
MCD_Layer_0
10
-5.176204
20
-0.545940
30
0.0
11
-4.944943
21
-0.545940
31
0.0
0
LINE
8
MCD_Layer_0
10
-4.850121
20
-0.465830
30
0.0
11
-4.850121
21
-0.342202
31
0.0
0
LINE
8
MCD_Layer_0
10
-4.944943
20
-0.274949
30
0.0
11
-5.176204
21
-0.274949
31
0.0
0
LINE
8
MCD_Layer_0
10
-5.257479
20
-0.219563
30
0.0
11
-5.257479
21
-0.098903
31
0.0
0
LINE
8
MCD_Layer_0
10
-5.176204
20
-0.002967
30
0.0
11
-4.943981
21
-0.002967
31
0.0
0
LINE
8
MCD_Layer_0
10
-4.523673
20
-0.545940
30
0.0
11
-4.523673
21
-0.000989
31
0.0
0
LINE
8
MCD_Layer_0
10
-4.122674
20
-0.545940
30
0.0
11
-4.203949
21
-0.463852
31
0.0
0
LINE
8
MCD_Layer_0
10
-4.203949
20
-0.095936
30
0.0
11
-4.123636
21
-0.001978
31
0.0
0
LINE
8
MCD_Layer_0
10
-3.890440
20
-0.001978
30
0.0
11
-3.795617
21
-0.084068
31
0.0
0
LINE
8
MCD_Layer_0
10
-3.795617
20
-0.463852
30
0.0
11
-3.891413
21
-0.545940
31
0.0
0
LINE
8
MCD_Layer_0
10
-3.687004
20
-0.545940
30
0.0
11
-3.687004
21
-0.002967
31
0.0
0
LINE
8
MCD_Layer_0
10
-3.278673
20
-0.545940
30
0.0
11
-3.687004
21
-0.002967
31
0.0
0
LINE
8
MCD_Layer_0
10
-3.169960
20
-0.545867
30
0.0
11
-3.169960
21
-0.002051
31
0.0
0
LINE
8
MCD_Layer_0
10
-3.170247
20
-0.247329
30
0.0
11
-2.883845
21
-0.247329
31
0.0
0
LINE
8
MCD_Layer_0
10
5.810885
20
-0.546049
30
0.0
11
5.578407
21
-0.545832
31
0.0
0
LINE
8
MCD_Layer_0
10
5.498106
20
-0.478579
30
0.0
11
5.498106
21
-0.083960
31
0.0
0
LINE
8
MCD_Layer_0
10
5.593890
20
-0.002860
30
0.0
11
5.810642
21
-0.002860
31
0.0
0
LINE
8
MCD_Layer_0
10
6.422077
20
-0.546013
30
0.0
11
6.015006
21
-0.545867
31
0.0
0
LINE
8
MCD_Layer_0
10
6.015006
20
-0.002051
30
0.0
11
6.424012
21
-0.002051
31
0.0
0
LINE
8
MCD_Layer_0
10
6.530723
20
-0.545940
30
0.0
11
6.652641
21
0.000000
31
0.0
0
LINE
8
MCD_Layer_0
10
6.734889
20
-0.231432
30
0.0
11
6.817137
21
-0.000989
31
0.0
0
LINE
8
MCD_Layer_0
10
7.455435
20
-0.546013
30
0.0
11
7.048365
21
-0.545867
31
0.0
0
LINE
8
MCD_Layer_0
10
7.048365
20
-0.002051
30
0.0
11
7.457371
21
-0.002051
31
0.0
0
LINE
8
MCD_Layer_0
10
7.782027
20
-0.545940
30
0.0
11
7.782027
21
-0.000989
31
0.0
0
LINE
8
MCD_Layer_0
10
8.508911
20
-0.546013
30
0.0
11
8.101840
21
-0.545867
31
0.0
0
LINE
8
MCD_Layer_0
10
8.101840
20
-0.002051
30
0.0
11
8.510846
21
-0.002051
31
0.0
0
LINE
8
MCD_Layer_0
10
8.617668
20
-0.545373
30
0.0
11
8.617668
21
-0.001556
31
0.0
0
LINE
8
MCD_Layer_0
10
8.930624
20
-0.001556
30
0.0
11
9.025457
21
-0.083646
31
0.0
0
LINE
8
MCD_Layer_0
10
9.025457
20
-0.205296
30
0.0
11
8.929661
21
-0.273537
31
0.0
0
LINE
8
MCD_Layer_0
10
8.822254
20
-0.273537
30
0.0
11
9.026419
21
-0.546507
31
0.0
0
LINE
8
MCD_Layer_0
10
9.338734
20
-0.272970
30
0.0
11
9.135541
21
-0.001978
31
0.0
0
LINE
8
MCD_Layer_0
10
-8.631652
20
-5.231570
30
0.0
11
-8.096030
21
-5.417304
31
0.0
0
LINE
8
MCD_Layer_0
10
-8.504589
20
-5.547252
30
0.0
11
-8.776190
21
-5.546999
31
0.0
0
LINE
8
MCD_Layer_0
10
-8.870018
20
-5.468427
30
0.0
11
-8.870018
21
-5.007387
31
0.0
0
LINE
8
MCD_Layer_0
10
-8.758102
20
-4.912636
30
0.0
11
-8.504879
21
-4.912636
31
0.0
0
LINE
8
MCD_Layer_0
10
-13.906484
20
-7.554137
30
0.0
11
6.478004
21
-7.554137
31
0.0
0
LINE
8
MCD_Layer_0
10
-19.750852
20
-6.874424
30
0.0
11
-19.547654
21
-7.418386
31
0.0
0
LINE
8
MCD_Layer_0
10
-19.438106
20
-7.418240
30
0.0
11
-19.438106
21
-6.874919
31
0.0
0
LINE
8
MCD_Layer_0
10
-19.125067
20
-6.874919
30
0.0
11
-19.030239
21
-6.942171
31
0.0
0
LINE
8
MCD_Layer_0
10
-19.030239
20
-7.092503
30
0.0
11
-19.125067
21
-7.146899
31
0.0
0
LINE
8
MCD_Layer_0
10
-18.921703
20
-7.418240
30
0.0
11
-18.921703
21
-6.874919
31
0.0
0
LINE
8
MCD_Layer_0
10
-18.608664
20
-6.874919
30
0.0
11
-18.513836
21
-6.942171
31
0.0
0
LINE
8
MCD_Layer_0
10
-18.513836
20
-7.092503
30
0.0
11
-18.608664
21
-7.146899
31
0.0
0
LINE
8
MCD_Layer_0
10
-18.405195
20
-7.417674
30
0.0
11
-18.405195
21
-6.873858
31
0.0
0
LINE
8
MCD_Layer_0
10
-18.092234
20
-6.873858
30
0.0
11
-17.997411
21
-6.955945
31
0.0
0
LINE
8
MCD_Layer_0
10
-17.997411
20
-7.077595
30
0.0
11
-18.093201
21
-7.145838
31
0.0
0
LINE
8
MCD_Layer_0
10
-18.200604
20
-7.145838
30
0.0
11
-17.996444
21
-7.418807
31
0.0
0
LINE
8
MCD_Layer_0
10
-17.887758
20
-7.336153
30
0.0
11
-17.887758
21
-6.968236
31
0.0
0
LINE
8
MCD_Layer_0
10
-17.807446
20
-6.874278
30
0.0
11
-17.574255
21
-6.874278
31
0.0
0
LINE
8
MCD_Layer_0
10
-17.479427
20
-6.956368
30
0.0
11
-17.479427
21
-7.336153
31
0.0
0
LINE
8
MCD_Layer_0
10
-17.575223
20
-7.418240
30
0.0
11
-17.806478
21
-7.418240
31
0.0
0
LINE
8
MCD_Layer_0
10
-17.167190
20
-7.418240
30
0.0
11
-16.963992
21
-6.871311
31
0.0
0
LINE
8
MCD_Layer_0
10
-16.854859
20
-7.418169
30
0.0
11
-16.854859
21
-6.874351
31
0.0
0
LINE
8
MCD_Layer_0
10
-16.855146
20
-7.119628
30
0.0
11
-16.568738
21
-7.119628
31
0.0
0
LINE
8
MCD_Layer_0
10
-16.339103
20
-6.874351
30
0.0
11
-16.025124
21
-6.874351
31
0.0
0
LINE
8
MCD_Layer_0
10
-15.931270
20
-6.955450
30
0.0
11
-15.931270
21
-7.337215
31
0.0
0
LINE
8
MCD_Layer_0
10
-16.027060
20
-7.418312
30
0.0
11
-16.339103
21
-7.418169
31
0.0
0
LINE
8
MCD_Layer_0
10
-15.415049
20
-6.875094
30
0.0
11
-15.113573
21
-6.875094
31
0.0
0
LINE
8
MCD_Layer_0
10
-15.007138
20
-6.929489
30
0.0
11
-15.007138
21
-7.078833
31
0.0
0
LINE
8
MCD_Layer_0
10
-15.102928
20
-7.119382
30
0.0
11
-15.007138
21
-7.187625
31
0.0
0
LINE
8
MCD_Layer_0
10
-15.007138
20
-7.364658
30
0.0
11
-15.116476
21
-7.418066
31
0.0
0
LINE
8
MCD_Layer_0
10
-15.102928
20
-7.119382
30
0.0
11
-15.415464
21
-7.119382
31
0.0
0
LINE
8
MCD_Layer_0
10
-14.694956
20
-7.145269
30
0.0
11
-14.898154
21
-6.874278
31
0.0
0
LINE
8
MCD_Layer_0
10
7.193175
20
-7.418169
30
0.0
11
7.193175
21
-6.874351
31
0.0
0
LINE
8
MCD_Layer_0
10
7.507160
20
-6.874351
30
0.0
11
7.601020
21
-6.955450
31
0.0
0
LINE
8
MCD_Layer_0
10
7.601020
20
-7.337215
30
0.0
11
7.505224
21
-7.418312
31
0.0
0
LINE
8
MCD_Layer_0
10
7.912693
20
-6.874424
30
0.0
11
8.115896
21
-7.418386
31
0.0
0
LINE
8
MCD_Layer_0
10
8.334638
20
-7.418240
30
0.0
11
8.334638
21
-6.873290
31
0.0
0
LINE
8
MCD_Layer_0
10
9.061521
20
-7.418312
30
0.0
11
8.654451
21
-7.418169
31
0.0
0
LINE
8
MCD_Layer_0
10
8.654451
20
-6.874351
30
0.0
11
9.063457
21
-6.874351
31
0.0
0
LINE
8
MCD_Layer_0
10
-6.063492
20
-5.469475
30
0.0
11
-6.468760
21
-5.469475
31
0.0
0
LINE
8
MCD_Layer_0
10
-6.468760
20
-5.311947
30
0.0
11
-6.061589
21
-5.078572
31
0.0
0
LINE
8
MCD_Layer_0
10
-6.061589
20
-4.938548
30
0.0
11
-6.154820
21
-4.843253
31
0.0
0
LINE
8
MCD_Layer_0
10
-6.362211
20
-4.843253
30
0.0
11
-6.468760
21
-4.922990
31
0.0
0
LINE
8
MCD_Layer_0
10
-6.998760
20
-5.409186
30
0.0
11
-6.998760
21
-4.924933
31
0.0
0
LINE
8
MCD_Layer_0
10
-6.937875
20
-4.845196
30
0.0
11
-6.671501
21
-4.845196
31
0.0
0
LINE
8
MCD_Layer_0
10
-6.593492
20
-4.922989
30
0.0
11
-6.593492
21
-5.409186
31
0.0
0
LINE
8
MCD_Layer_0
10
-6.673404
20
-5.469475
30
0.0
11
-6.937875
21
-5.469475
31
0.0
0
LINE
8
MCD_Layer_0
10
-7.123492
20
-5.469475
30
0.0
11
-7.528760
21
-5.469475
31
0.0
0
LINE
8
MCD_Layer_0
10
-7.528760
20
-5.311947
30
0.0
11
-7.121589
21
-5.078572
31
0.0
0
LINE
8
MCD_Layer_0
10
-7.121589
20
-4.938548
30
0.0
11
-7.214820
21
-4.843253
31
0.0
0
LINE
8
MCD_Layer_0
10
-7.422210
20
-4.843253
30
0.0
11
-7.528760
21
-4.922990
31
0.0
0
LINE
8
MCD_Layer_0
10
-5.843641
20
-5.469475
30
0.0
11
-5.613419
21
-5.469475
31
0.0
0
LINE
8
MCD_Layer_0
10
-5.531604
20
-5.405298
30
0.0
11
-5.531604
21
-5.173867
31
0.0
0
LINE
8
MCD_Layer_0
10
-5.607710
20
-5.109688
30
0.0
11
-5.843641
21
-5.109688
31
0.0
0
LINE
8
MCD_Layer_0
10
-5.936872
20
-5.187481
30
0.0
11
-5.936872
21
-4.843253
31
0.0
0
LINE
8
MCD_Layer_0
10
6.766146
20
2.304928
30
0.0
11
6.821245
21
2.385529
31
0.0
0
LINE
8
MCD_Layer_0
10
8.873345
20
2.347428
30
0.0
11
8.806143
21
2.278931
31
0.0
0
LINE
8
MCD_Layer_0
10
8.645146
20
3.059330
30
0.0
11
8.542544
21
3.078831
31
0.0
0
LINE
8
MCD_Layer_0
10
7.961646
20
3.376629
30
0.0
11
7.880844
21
3.429829
31
0.0
0
LINE
8
MCD_Layer_2
10
8.926545
20
1.877928
30
0.0
11
8.924544
21
1.829230
31
0.0
0
LINE
8
MCD_Layer_2
10
6.711746
20
2.908728
30
0.0
11
6.744646
21
2.941527
31
0.0
0
LINE
8
MCD_Layer_0
10
5.364410
20
3.128714
30
0.0
11
5.273815
21
3.096946
31
0.0
0
LINE
8
MCD_Layer_0
10
4.644724
20
4.394541
30
0.0
11
4.628923
21
4.501180
31
0.0
0
LINE
8
MCD_Layer_0
10
5.180804
20
5.076218
30
0.0
11
5.274922
21
5.037266
31
0.0
0
LINE
8
MCD_Layer_0
10
6.018045
20
5.480129
30
0.0
11
6.052004
21
5.409765
31
0.0
0
LINE
8
MCD_Layer_0
10
6.183632
20
3.192800
30
0.0
11
6.077614
21
3.216305
31
0.0
0
LINE
8
MCD_Layer_0
10
5.414317
20
3.229003
30
0.0
11
5.309640
21
3.192335
31
0.0
0
LINE
8
MCD_Layer_0
10
4.732390
20
4.336528
30
0.0
11
4.715943
21
4.446939
31
0.0
0
LINE
8
MCD_Layer_2
10
5.676389
20
2.849526
30
0.0
11
5.721269
21
2.830643
31
0.0
0
LINE
8
MCD_Layer_2
10
5.429557
20
4.028270
30
0.0
11
5.436107
21
4.064382
31
0.0
0
LINE
8
MCD_Layer_0
10
6.727701
20
4.874044
30
0.0
11
6.676659
21
4.814278
31
0.0
0
LINE
8
MCD_Layer_0
10
7.596855
20
4.895253
30
0.0
11
7.536126
21
4.945163
31
0.0
0
LINE
8
MCD_Layer_0
10
7.204849
20
3.479082
30
0.0
11
7.283895
21
3.492201
31
0.0
0
LINE
8
MCD_Layer_0
10
7.420634
20
1.461504
30
0.0
11
7.429361
21
1.462086
31
0.0
0
LINE
8
MCD_Layer_0
10
4.085979
20
4.482122
30
0.0
11
4.057425
21
4.463214
31
0.0
0
LINE
8
MCD_Layer_0
10
-9.272145
20
0.369120
30
0.0
11
-9.260820
21
0.440820
31
0.0
0
LINE
8
MCD_Layer_0
10
-8.961793
20
1.842287
30
0.0
11
-8.887689
21
1.868743
31
0.0
0
LINE
8
MCD_Layer_0
10
-8.175114
20
2.302321
30
0.0
11
-8.103905
21
2.362671
31
0.0
0
LINE
8
MCD_Layer_0
10
-4.880851
20
2.895209
30
0.0
11
-4.839823
21
2.823877
31
0.0
0
LINE
8
MCD_Layer_0
10
-1.748217
20
3.435178
30
0.0
11
-1.704168
21
3.382433
31
0.0
0
LINE
8
MCD_Layer_0
10
-2.303248
20
1.696002
30
0.0
11
-2.305182
21
1.624700
31
0.0
0
LINE
8
MCD_Layer_0
10
-4.532704
20
1.013883
30
0.0
11
-4.561931
21
0.939834
31
0.0
0
LINE
8
MCD_Layer_0
10
-6.938454
20
-1.437829
30
0.0
11
-7.019113
21
-1.429383
31
0.0
0
LINE
8
MCD_Layer_0
10
-7.083912
20
-1.344089
30
0.0
11
-6.993688
21
-1.353533
31
0.0
0
LINE
8
MCD_Layer_0
10
-7.118491
20
0.258624
30
0.0
11
-7.192897
21
0.235958
31
0.0
0
LINE
8
MCD_Layer_0
10
-7.791938
20
0.173602
30
0.0
11
-7.876719
21
0.169113
31
0.0
0
LINE
8
MCD_Layer_0
10
-7.580470
20
2.020264
30
0.0
11
-7.635986
21
2.096636
31
0.0
0
LINE
8
MCD_Layer_0
10
-8.872458
20
1.004139
30
0.0
11
-8.808408
21
0.948147
31
0.0
0
LINE
8
MCD_Layer_0
10
-8.403815
20
0.429312
30
0.0
11
-8.350632
21
0.353517
31
0.0
0
LINE
8
MCD_Layer_1
10
-7.503016
20
-1.636957
30
0.0
11
-7.461856
21
-1.659711
31
0.0
0
LINE
8
MCD_Layer_1
10
-7.381834
20
-0.742499
30
0.0
11
-7.417549
21
-0.754503
31
0.0
0
LINE
8
MCD_Layer_1
10
-7.543191
20
0.589735
30
0.0
11
-7.506302
21
0.583376
31
0.0
0
LINE
8
MCD_Layer_1
10
-6.082571
20
-0.836041
30
0.0
11
-6.107551
21
-0.873012
31
0.0
0
LINE
8
MCD_Layer_0
10
-5.877383
20
0.204261
30
0.0
11
-5.805344
21
0.235714
31
0.0
0
LINE
8
MCD_Layer_0
10
-4.259706
20
2.267668
30
0.0
11
-4.334810
21
2.326280
31
0.0
0
LINE
8
MCD_Layer_1
10
-3.939822
20
1.258770
30
0.0
11
-3.947890
21
1.212579
31
0.0
0
LINE
8
MCD_Layer_1
10
-4.390554
20
2.840151
30
0.0
11
-4.438203
21
2.853050
31
0.0
0
LINE
8
MCD_Layer_1
10
-5.016547
20
2.123557
30
0.0
11
-4.998366
21
2.088467
31
0.0
0
LINE
8
MCD_Layer_0
10
-3.931669
20
2.105385
30
0.0
11
-3.856069
21
2.058215
31
0.0
0
LINE
8
MCD_Layer_0
10
-3.337323
20
1.696535
30
0.0
11
-3.280346
21
1.637964
31
0.0
0
LINE
8
MCD_Layer_0
10
-2.382168
20
2.761120
30
0.0
11
-2.443937
21
2.817533
31
0.0
0
LINE
8
MCD_Layer_0
10
-2.796642
20
3.303867
30
0.0
11
-2.842757
21
3.374828
31
0.0
0
LINE
8
MCD_Layer_1
10
-3.822142
20
1.581943
30
0.0
11
-3.788313
21
1.570916
31
0.0
0
LINE
8
MCD_Layer_1
10
-3.029103
20
2.771133
30
0.0
11
-3.016456
21
2.732747
31
0.0
0
LINE
8
MCD_Layer_0
10
-1.722621
20
3.282717
30
0.0
11
-1.770298
21
3.339676
31
0.0
0
LINE
8
MCD_Layer_0
10
-2.338496
20
2.827120
30
0.0
11
-2.282726
21
2.776199
31
0.0
0
LINE
8
MCD_Layer_0
10
-6.961253
20
1.196449
30
0.0
11
-6.985448
21
1.120062
31
0.0
0
LINE
8
MCD_Layer_1
10
-8.146931
20
1.448418
30
0.0
11
-8.191917
21
1.431816
31
0.0
0
LINE
8
MCD_Layer_1
10
-8.911884
20
0.392599
30
0.0
11
-8.928677
21
0.429864
31
0.0
0
LINE
8
MCD_Layer_1
10
-8.292432
20
-1.332092
30
0.0
11
-8.292432
21
-1.013900
31
0.0
0
LINE
8
MCD_Layer_1
10
-8.372432
20
-1.334301
30
0.0
11
-8.372432
21
-1.031069
31
0.0
0
LINE
8
MCD_Layer_0
10
2.465878
20
-3.228002
30
0.0
11
2.435506
21
-3.300491
31
0.0
0
LINE
8
MCD_Layer_0
10
3.287112
20
-2.942601
30
0.0
11
3.214050
21
-2.913602
31
0.0
0
LINE
8
MCD_Layer_0
10
3.345912
20
-4.410849
30
0.0
11
3.417185
21
-4.374237
31
0.0
0
LINE
8
MCD_Layer_0
10
3.038497
20
-2.483161
30
0.0
11
3.052290
21
-2.433540
31
0.0
0
LINE
8
MCD_Layer_0
10
2.731063
20
-2.270233
30
0.0
11
2.753510
21
-2.216880
31
0.0
0
LINE
8
MCD_Layer_0
10
2.435885
20
-2.234370
30
0.0
11
2.391404
21
-2.207789
31
0.0
0
LINE
8
MCD_Layer_0
10
2.761202
20
-1.681567
30
0.0
11
2.739995
21
-1.619442
31
0.0
0
LINE
8
MCD_Layer_0
10
3.189257
20
-1.543209
30
0.0
11
3.196600
21
-1.476314
31
0.0
0
LINE
8
MCD_Layer_0
10
4.145496
20
-2.968460
30
0.0
11
4.119795
21
-3.023480
31
0.0
0
LINE
8
MCD_Layer_0
10
2.851927
20
-1.727208
30
0.0
11
2.827566
21
-1.655978
31
0.0
0
LINE
8
MCD_Layer_0
10
3.251325
20
-1.629771
30
0.0
11
3.259898
21
-1.551665
31
0.0
0
LINE
8
MCD_Layer_0
10
4.465575
20
-1.288244
30
0.0
11
4.540029
21
-1.291277
31
0.0
0
LINE
8
MCD_Layer_0
10
4.457356
20
-1.680567
30
0.0
11
4.529567
21
-1.704979
31
0.0
0
LINE
8
MCD_Layer_0
10
4.118703
20
-2.858136
30
0.0
11
4.085050
21
-2.930026
31
0.0
0
LINE
8
MCD_Layer_1
10
3.559924
20
-2.133260
30
0.0
11
3.577403
21
-2.102783
31
0.0
0
LINE
8
MCD_Layer_1
10
2.677139
20
-1.982974
30
0.0
11
2.691365
21
-2.018432
31
0.0
0
LINE
8
MCD_Layer_1
10
3.928711
20
-1.912441
30
0.0
11
3.893904
21
-1.891083
31
0.0
0
LINE
8
MCD_Layer_0
10
4.527391
20
-1.217902
30
0.0
11
4.598916
21
-1.220815
31
0.0
0
LINE
8
MCD_Layer_0
10
2.578245
20
-5.028613
30
0.0
11
2.524686
21
-5.050568
31
0.0
0
LINE
8
MCD_Layer_0
10
2.762045
20
-5.262352
30
0.0
11
2.774797
21
-5.312576
31
0.0
0
LINE
8
MCD_Layer_0
10
2.141423
20
-5.424371
30
0.0
11
2.112600
21
-5.483349
31
0.0
0
LINE
8
MCD_Layer_0
10
1.740526
20
-5.220273
30
0.0
11
1.688111
21
-5.262481
31
0.0
0
LINE
8
MCD_Layer_0
10
2.418680
20
-4.631279
30
0.0
11
2.357740
21
-4.665891
31
0.0
0
LINE
8
MCD_Layer_0
10
2.504135
20
-4.982171
30
0.0
11
2.435856
21
-5.010182
31
0.0
0
LINE
8
MCD_Layer_0
10
1.250040
20
-5.050104
30
0.0
11
1.228681
21
-4.979745
31
0.0
0
LINE
8
MCD_Layer_0
10
0.847097
20
-5.073205
30
0.0
11
0.841790
21
-4.986774
31
0.0
0
LINE
8
MCD_Layer_1
10
0.533029
20
-4.795003
30
0.0
11
0.532467
21
-4.759188
31
0.0
0
LINE
8
MCD_Layer_0
10
0.562958
20
-4.506299
30
0.0
11
0.514343
21
-4.453753
31
0.0
0
LINE
8
MCD_Layer_0
10
2.262473
20
-4.299887
30
0.0
11
2.256346
21
-4.288246
31
0.0
0
LINE
8
MCD_Layer_0
10
4.566559
20
-1.633037
30
0.0
11
4.634797
21
-1.656106
31
0.0
0
LINE
8
MCD_Layer_0
10
0.939113
20
-4.286057
30
0.0
11
0.905186
21
-4.217798
31
0.0
0
LINE
8
MCD_Layer_0
10
4.496188
20
-3.014185
30
0.0
11
4.481033
21
-3.072828
31
0.0
0
LINE
8
MCD_Layer_0
10
4.499869
20
-2.133000
30
0.0
11
4.453096
21
-2.201270
31
0.0
0
LINE
8
MCD_Layer_0
10
4.791092
20
-2.530472
30
0.0
11
4.751726
21
-2.557552
31
0.0
0
LINE
8
MCD_Layer_0
10
4.971782
20
-2.745096
30
0.0
11
4.947866
21
-2.705751
31
0.0
0
LINE
8
MCD_Layer_0
10
1.992777
20
0.117094
30
0.0
11
1.940878
21
0.033843
31
0.0
0
LINE
8
MCD_Layer_0
10
2.321907
20
-0.890017
30
0.0
11
2.262136
21
-0.910069
31
0.0
0
LINE
8
MCD_Layer_0
10
-1.094913
20
0.444920
30
0.0
11
-1.073696
21
0.508013
31
0.0
0
LINE
8
MCD_Layer_1
10
-2.027340
20
-0.417184
30
0.0
11
-2.036896
21
-0.394889
31
0.0
0
LINE
8
MCD_Layer_1
10
-0.758530
20
-0.252553
30
0.0
11
-0.304005
21
-0.109855
31
0.0
0
LINE
8
MCD_Layer_1
10
-0.066423
20
-0.360174
30
0.0
11
-0.000818
21
-0.164983
31
0.0
0
LINE
8
MCD_Layer_1
10
0.100231
20
-0.133269
30
0.0
11
0.265488
21
-0.255865
31
0.0
0
LINE
8
MCD_Layer_1
10
0.269632
20
0.164015
30
0.0
11
0.101980
21
0.044699
31
0.0
0
LINE
8
MCD_Layer_1
10
0.001543
20
0.078335
30
0.0
11
-0.060143
21
0.274776
31
0.0
0
LINE
8
MCD_Layer_1
10
-0.301308
20
0.034952
30
0.0
11
-0.852201
21
0.235668
31
0.0
0
LINE
8
MCD_Layer_1
10
-0.844608
20
0.258291
30
0.0
11
-0.284239
21
0.085697
31
0.0
0
LINE
8
MCD_Layer_1
10
-0.475172
20
0.591082
30
0.0
11
-0.421835
21
0.629107
31
0.0
0
LINE
8
MCD_Layer_1
10
-0.007078
20
0.282938
30
0.0
11
0.013506
21
0.868923
31
0.0
0
LINE
8
MCD_Layer_1
10
0.037336
20
0.868679
30
0.0
11
0.046404
21
0.282505
31
0.0
0
LINE
8
MCD_Layer_1
10
0.468004
20
0.620260
30
0.0
11
0.520636
21
0.581268
31
0.0
0
LINE
8
MCD_Layer_1
10
0.319647
20
0.079676
30
0.0
11
0.883272
21
0.241293
31
0.0
0
LINE
8
MCD_Layer_1
10
0.890356
20
0.218561
30
0.0
11
0.335642
21
0.028761
31
0.0
0
LINE
8
MCD_Layer_1
10
0.787264
20
-0.267793
30
0.0
11
0.766359
21
-0.329952
31
0.0
0
LINE
8
MCD_Layer_1
10
0.227306
20
-0.293752
30
0.0
11
0.555128
21
-0.779883
31
0.0
0
LINE
8
MCD_Layer_1
10
0.535749
20
-0.793681
30
0.0
11
0.183851
21
-0.324808
31
0.0
0
LINE
8
MCD_Layer_1
10
0.041269
20
-0.845857
30
0.0
11
-0.024084
21
-0.845245
31
0.0
0
LINE
8
MCD_Layer_1
10
-0.156301
20
-0.321414
30
0.0
11
-0.517471
21
-0.783304
31
0.0
0
LINE
8
MCD_Layer_1
10
-0.536507
20
-0.769042
30
0.0
11
-0.199310
21
-0.289544
31
0.0
0
LINE
8
MCD_Layer_1
10
-0.739019
20
-0.315084
30
0.0
11
-0.758530
21
-0.252553
31
0.0
0
LINE
8
MCD_Layer_0
10
1.222637
20
0.151134
30
0.0
11
1.202635
21
0.214624
31
0.0
0
LINE
8
MCD_Layer_0
10
1.139132
20
0.415560
30
0.0
11
1.117039
21
0.485922
31
0.0
0
LINE
8
MCD_Layer_0
10
-1.681574
20
-0.904382
30
0.0
11
-1.659142
21
-0.824836
31
0.0
0
LINE
8
MCD_Layer_0
10
-0.868563
20
-0.913908
30
0.0
11
-0.803400
21
-0.960499
31
0.0
0
LINE
8
MCD_Layer_0
10
0.579964
20
-1.138222
30
0.0
11
0.631187
21
-1.100186
31
0.0
0
LINE
8
MCD_Layer_0
10
-2.340288
20
-0.606783
30
0.0
11
-2.277506
21
-0.654602
31
0.0
0
LINE
8
MCD_Layer_0
10
-0.073770
20
0.131148
30
0.0
11
-0.073770
21
0.868852
31
0.0
0
LINE
8
MCD_Layer_0
10
-0.270492
20
0.868852
30
0.0
11
-0.270492
21
0.622951
31
0.0
0
LINE
8
MCD_Layer_0
10
-0.401639
20
0.622951
30
0.0
11
-0.401639
21
1.000000
31
0.0
0
LINE
8
MCD_Layer_0
10
0.401639
20
1.000000
30
0.0
11
0.401639
21
0.622951
31
0.0
0
LINE
8
MCD_Layer_0
10
0.270492
20
0.622951
30
0.0
11
0.270492
21
0.868852
31
0.0
0
LINE
8
MCD_Layer_0
10
0.073770
20
0.868852
30
0.0
11
0.073770
21
0.131148
31
0.0
0
LINE
8
MCD_Layer_0
10
0.188525
20
0.131148
30
0.0
11
0.188525
21
0.000000
31
0.0
0
LINE
8
MCD_Layer_0
10
-0.188525
20
0.000000
30
0.0
11
-0.188525
21
0.131148
31
0.0
0
LINE
8
MCD_Layer_0
10
-0.377049
20
0.131148
30
0.0
11
-0.377049
21
0.868852
31
0.0
0
LINE
8
MCD_Layer_0
10
-0.491803
20
0.868852
30
0.0
11
-0.491803
21
1.000000
31
0.0
0
LINE
8
MCD_Layer_0
10
-0.114754
20
1.000000
30
0.0
11
-0.114754
21
0.868852
31
0.0
0
LINE
8
MCD_Layer_0
10
-0.229508
20
0.868852
30
0.0
11
-0.229508
21
0.590164
31
0.0
0
LINE
8
MCD_Layer_0
10
0.229508
20
0.590164
30
0.0
11
0.229508
21
0.868852
31
0.0
0
LINE
8
MCD_Layer_0
10
0.114754
20
0.868852
30
0.0
11
0.114754
21
1.000000
31
0.0
0
LINE
8
MCD_Layer_0
10
0.491803
20
1.000000
30
0.0
11
0.491803
21
0.868852
31
0.0
0
LINE
8
MCD_Layer_0
10
0.377049
20
0.868852
30
0.0
11
0.377049
21
0.131148
31
0.0
0
LINE
8
MCD_Layer_0
10
0.491803
20
0.131148
30
0.0
11
0.491803
21
0.000000
31
0.0
0
LINE
8
MCD_Layer_0
10
0.114754
20
0.000000
30
0.0
11
0.114754
21
0.131148
31
0.0
0
LINE
8
MCD_Layer_0
10
0.229508
20
0.131148
30
0.0
11
0.229508
21
0.459016
31
0.0
0
LINE
8
MCD_Layer_0
10
-0.229508
20
0.459016
30
0.0
11
-0.229508
21
0.131148
31
0.0
0
LINE
8
MCD_Layer_0
10
-0.114754
20
0.131148
30
0.0
11
-0.114754
21
0.000000
31
0.0
0
LINE
8
MCD_Layer_0
10
-0.491803
20
0.000000
30
0.0
11
-0.491803
21
0.131148
31
0.0
0
LINE
8
MCD_Layer_0
10
-0.483607
20
0.868852
30
0.0
11
-0.598361
21
0.868852
31
0.0
0
LINE
8
MCD_Layer_0
10
-0.598361
20
1.000000
30
0.0
11
-0.255379
21
1.000000
31
0.0
0
LINE
8
MCD_Layer_0
10
0.003586
20
0.306609
30
0.0
11
0.265369
21
1.000000
31
0.0
0
LINE
8
MCD_Layer_0
10
0.598361
20
1.000000
30
0.0
11
0.598361
21
0.868852
31
0.0
0
LINE
8
MCD_Layer_0
10
0.483607
20
0.868852
30
0.0
11
0.483607
21
0.131148
31
0.0
0
LINE
8
MCD_Layer_0
10
0.598361
20
0.131148
30
0.0
11
0.598361
21
0.000000
31
0.0
0
LINE
8
MCD_Layer_0
10
0.237705
20
0.000000
30
0.0
11
0.237705
21
0.131148
31
0.0
0
LINE
8
MCD_Layer_0
10
0.352459
20
0.131148
30
0.0
11
0.352459
21
0.868852
31
0.0
0
LINE
8
MCD_Layer_0
10
0.012807
20
-0.016393
30
0.0
11
-0.016393
21
-0.016393
31
0.0
0
LINE
8
MCD_Layer_0
10
-0.352459
20
0.868852
30
0.0
11
-0.352459
21
0.131148
31
0.0
0
LINE
8
MCD_Layer_0
10
-0.237705
20
0.131148
30
0.0
11
-0.237705
21
0.000000
31
0.0
0
LINE
8
MCD_Layer_0
10
-0.598361
20
0.000000
30
0.0
11
-0.598361
21
0.131148
31
0.0
0
LINE
8
MCD_Layer_0
10
-0.270492
20
0.131148
30
0.0
11
-0.270492
21
0.868852
31
0.0
0
LINE
8
MCD_Layer_0
10
-0.385246
20
0.868852
30
0.0
11
-0.385246
21
1.000000
31
0.0
0
LINE
8
MCD_Layer_0
10
-0.122951
20
0.377049
30
0.0
11
-0.122951
21
0.131148
31
0.0
0
LINE
8
MCD_Layer_0
10
-0.008197
20
0.131148
30
0.0
11
-0.008197
21
0.000000
31
0.0
0
LINE
8
MCD_Layer_0
10
-0.385246
20
0.000000
30
0.0
11
-0.385246
21
0.131148
31
0.0
0
LINE
8
MCD_Layer_0
10
-0.122951
20
0.508197
30
0.0
11
-0.033299
21
0.508197
31
0.0
0
LINE
8
MCD_Layer_0
10
-0.025871
20
0.868852
30
0.0
11
-0.122951
21
0.868852
31
0.0
0
LINE
8
MCD_Layer_0
10
-0.344262
20
0.000000
30
0.0
11
-0.344262
21
0.360656
31
0.0
0
LINE
8
MCD_Layer_0
10
-0.213115
20
0.360656
30
0.0
11
-0.213115
21
0.274334
31
0.0
0
LINE
8
MCD_Layer_0
10
0.163934
20
0.938525
30
0.0
11
0.163934
21
1.000000
31
0.0
0
LINE
8
MCD_Layer_0
10
0.295082
20
1.000000
30
0.0
11
0.295082
21
0.704918
31
0.0
0
LINE
8
MCD_Layer_0
10
0.163934
20
0.704918
30
0.0
11
0.163934
21
0.772797
31
0.0
0
LINE
8
MCD_Layer_0
10
-0.213115
20
0.000000
30
0.0
11
-0.344262
21
0.000000
31
0.0
0
LINE
8
MCD_Layer_0
10
-0.385246
20
0.868852
30
0.0
11
-0.532787
21
0.868852
31
0.0
0
LINE
8
MCD_Layer_0
10
-0.532787
20
1.000000
30
0.0
11
-0.181352
21
1.000000
31
0.0
0
LINE
8
MCD_Layer_0
10
0.254098
20
0.218750
30
0.0
11
0.254098
21
0.868852
31
0.0
0
LINE
8
MCD_Layer_0
10
0.106557
20
0.868852
30
0.0
11
0.106557
21
1.000000
31
0.0
0
LINE
8
MCD_Layer_0
10
0.532787
20
1.000000
30
0.0
11
0.532787
21
0.868852
31
0.0
0
LINE
8
MCD_Layer_0
10
0.385246
20
0.868852
30
0.0
11
0.385246
21
-0.016393
31
0.0
0
LINE
8
MCD_Layer_0
10
0.226947
20
-0.016393
30
0.0
11
-0.254098
21
0.847336
31
0.0
0
LINE
8
MCD_Layer_0
10
-0.254098
20
0.131148
30
0.0
11
-0.106557
21
0.131148
31
0.0
0
LINE
8
MCD_Layer_0
10
-0.106557
20
0.000000
30
0.0
11
-0.532787
21
0.000000
31
0.0
0
LINE
8
MCD_Layer_0
10
-0.532787
20
0.131148
30
0.0
11
-0.385246
21
0.131148
31
0.0
0
LINE
8
MCD_Layer_0
10
-0.105409
20
0.818750
30
0.0
11
-0.119351
21
0.818750
31
0.0
0
LINE
8
MCD_Layer_0
10
-0.342909
20
0.984615
30
0.0
11
0.413101
21
0.984615
31
0.0
0
LINE
8
MCD_Layer_0
10
0.111659
20
0.825721
30
0.0
11
0.105409
21
0.825721
31
0.0
0
LINE
8
MCD_Layer_0
10
0.160216
20
0.000000
30
0.0
11
-0.161659
21
0.000000
31
0.0
0
LINE
8
MCD_Layer_0
10
0.178245
20
0.297115
30
0.0
11
0.178245
21
0.430769
31
0.0
0
LINE
8
MCD_Layer_0
10
-0.178005
20
0.430769
30
0.0
11
-0.178005
21
0.297115
31
0.0
0
LINE
8
MCD_Layer_0
10
-0.387620
20
0.292067
30
0.0
11
-0.387620
21
0.694952
31
0.0
0
LINE
8
MCD_Layer_0
10
-0.178005
20
0.697356
30
0.0
11
-0.178005
21
0.596635
31
0.0
0
LINE
8
MCD_Layer_0
10
0.178245
20
0.596635
30
0.0
11
0.178245
21
0.697356
31
0.0
0
LINE
8
MCD_Layer_0
10
0.387620
20
0.694952
30
0.0
11
0.387620
21
0.292067
31
0.0
0
LINE
8
MCD_Layer_0
10
0.476202
20
0.000000
30
0.0
11
0.231250
21
0.000000
31
0.0
0
LINE
8
MCD_Layer_0
10
0.104808
20
0.187740
30
0.0
11
-0.223558
21
0.623798
31
0.0
0
LINE
8
MCD_Layer_0
10
-0.377885
20
0.312500
30
0.0
11
-0.377885
21
0.811779
31
0.0
0
LINE
8
MCD_Layer_0
10
-0.037019
20
0.733413
30
0.0
11
0.281010
21
0.314904
31
0.0
0
LINE
8
MCD_Layer_0
10
0.222115
20
0.984615
30
0.0
11
0.490385
21
0.984615
31
0.0
0
LINE
8
MCD_Layer_0
10
-0.085457
20
0.326442
30
0.0
11
-0.085457
21
0.300240
31
0.0
0
LINE
8
MCD_Layer_0
10
-0.294832
20
0.302404
30
0.0
11
-0.294832
21
0.673077
31
0.0
0
LINE
8
MCD_Layer_0
10
-0.066466
20
0.838462
30
0.0
11
-0.085457
21
0.841106
31
0.0
0
LINE
8
MCD_Layer_0
10
-5.656849
20
-0.078100
30
0.0
11
5.656850
21
-0.078100
31
0.0
0
LINE
8
MCD_Layer_0
10
6.658750
20
0.940500
30
0.0
11
6.599650
21
1.028600
31
0.0
0
LINE
8
MCD_Layer_0
10
5.827450
20
1.327600
30
0.0
11
-5.827450
21
1.327600
31
0.0
0
LINE
8
MCD_Layer_0
10
-6.599650
20
1.028600
30
0.0
11
-6.658751
21
0.940500
31
0.0
0
LINE
8
MCD_Layer_0
10
-5.735049
20
-0.078100
30
0.0
11
-5.735049
21
-0.207000
31
0.0
0
LINE
8
MCD_Layer_0
10
5.949649
20
-0.078100
30
0.0
11
5.735050
21
-0.078100
31
0.0
0
LINE
8
MCD_Layer_0
10
6.076750
20
1.080400
30
0.0
11
6.076551
21
-0.079600
31
0.0
0
LINE
8
MCD_Layer_0
10
0.260938
20
0.322837
30
0.0
11
0.260938
21
0.643269
31
0.0
0
LINE
8
MCD_Layer_0
10
-0.015986
20
0.235337
30
0.0
11
-0.282813
21
0.636538
31
0.0
0
LINE
8
MCD_Layer_0
10
-0.229207
20
0.000000
30
0.0
11
-0.485938
21
0.000000
31
0.0
0
LINE
8
MCD_Layer_0
10
-0.437380
20
0.833413
30
0.0
11
-0.484736
21
0.913462
31
0.0
0
LINE
8
MCD_Layer_0
10
-0.528005
20
0.984615
30
0.0
11
-0.219111
21
0.984615
31
0.0
0
LINE
8
MCD_Layer_0
10
0.028726
20
0.540144
30
0.0
11
0.198437
21
0.792548
31
0.0
0
LINE
8
MCD_Layer_0
10
0.467909
20
0.670673
30
0.0
11
0.467909
21
0.323077
31
0.0
0
LINE
8
MCD_Layer_1
10
-12.000000
20
0.000000
30
0.0
11
12.000000
21
0.000000
31
0.0
0
LINE
8
MCD_Layer_1
10
12.000000
20
0.000000
30
0.0
11
12.000000
21
14.000000
31
0.0
0
LINE
8
MCD_Layer_1
10
17.803364
20
0.000000
30
0.0
11
17.803364
21
14.000000
31
0.0
0
LINE
8
MCD_Layer_0
10
-8.162899
20
7.120470
30
0.0
11
-9.426000
21
7.120470
31
0.0
0
LINE
8
MCD_Layer_0
10
-11.376799
20
6.548170
30
0.0
11
-11.334498
21
6.565670
31
0.0
0
LINE
8
MCD_Layer_0
10
-11.313399
20
7.741870
30
0.0
11
-10.785599
21
7.741870
31
0.0
0
LINE
8
MCD_Layer_0
10
-9.426000
20
7.741870
30
0.0
11
-8.162899
21
7.741870
31
0.0
0
LINE
8
MCD_Layer_0
10
-8.233298
20
7.190770
30
0.0
11
-8.233298
21
7.671570
31
0.0
0
LINE
8
MCD_Layer_0
10
-9.966600
20
7.671570
30
0.0
11
-11.243099
21
7.671570
31
0.0
0
LINE
8
MCD_Layer_0
10
-11.243099
20
7.190770
30
0.0
11
-9.966600
21
7.190770
31
0.0
0
LINE
8
MCD_Layer_0
10
-9.688799
20
6.521370
30
0.0
11
-9.668698
21
6.514270
31
0.0
0
LINE
8
MCD_Layer_0
10
-9.810099
20
6.223970
30
0.0
11
-9.774698
21
6.183570
31
0.0
0
LINE
8
MCD_Layer_0
10
-9.791800
20
6.483570
30
0.0
11
-9.745499
21
6.466971
31
0.0
0
LINE
8
MCD_Layer_0
10
-9.914099
20
6.236070
30
0.0
11
-9.867599
21
6.182870
31
0.0
0
LINE
8
MCD_Layer_0
10
-11.363799
20
5.706070
30
0.0
11
-11.423099
21
5.714070
31
0.0
0
LINE
8
MCD_Layer_0
10
-11.268799
20
6.021670
30
0.0
11
-11.310298
21
6.050570
31
0.0
0
LINE
8
MCD_Layer_0
10
-10.663799
20
6.132370
30
0.0
11
-10.629599
21
6.140470
31
0.0
0
LINE
8
MCD_Layer_0
10
-11.092799
20
7.068670
30
0.0
11
-11.093399
21
7.121870
31
0.0
0
LINE
8
MCD_Layer_0
10
-10.826200
20
6.959970
30
0.0
11
-10.807398
21
7.009870
31
0.0
0
LINE
8
MCD_Layer_0
10
-10.410099
20
7.120470
30
0.0
11
-10.549999
21
7.120470
31
0.0
0
LINE
8
MCD_Layer_0
10
-10.714799
20
7.741870
30
0.0
11
-10.585900
21
7.741870
31
0.0
0
LINE
8
MCD_Layer_0
10
-10.431156
20
4.991666
30
0.0
11
-10.431675
21
5.052442
31
0.0
0
LINE
8
MCD_Layer_0
10
-9.876536
20
4.238905
30
0.0
11
-9.818525
21
4.220431
31
0.0
0
LINE
8
MCD_Layer_0
10
-8.931237
20
4.515364
30
0.0
11
-8.895810
21
4.564858
31
0.0
0
LINE
8
MCD_Layer_0
10
-8.902075
20
5.499915
30
0.0
11
-8.938239
21
5.548933
31
0.0
0
LINE
8
MCD_Layer_0
10
-9.829431
20
5.831873
30
0.0
11
-9.887226
21
5.812608
31
0.0
0
LINE
8
MCD_Layer_1
10
-9.889960
20
5.099858
30
0.0
11
-9.707511
21
5.041951
31
0.0
0
LINE
8
MCD_Layer_1
10
-9.676416
20
4.948402
30
0.0
11
-9.787844
21
4.792902
31
0.0
0
LINE
8
MCD_Layer_1
10
-9.397385
20
4.795449
30
0.0
11
-9.510984
21
4.949532
31
0.0
0
LINE
8
MCD_Layer_1
10
-9.481139
20
5.043470
30
0.0
11
-9.299450
21
5.103827
31
0.0
0
LINE
8
MCD_Layer_1
10
-9.616918
20
5.331234
30
0.0
11
-9.615616
21
5.139845
31
0.0
0
LINE
8
MCD_Layer_1
10
-9.694936
20
5.081427
30
0.0
11
-9.877403
21
5.139245
31
0.0
0
LINE
8
MCD_Layer_1
10
-10.290457
20
5.512759
30
0.0
11
-10.277538
21
5.530803
31
0.0
0
LINE
8
MCD_Layer_1
10
-9.718684
20
5.305434
30
0.0
11
-9.858320
21
5.725964
31
0.0
0
LINE
8
MCD_Layer_1
10
-9.800528
20
5.745230
30
0.0
11
-9.660892
21
5.324702
31
0.0
0
LINE
8
MCD_Layer_1
10
-9.348063
20
5.839756
30
0.0
11
-9.326941
21
5.833041
31
0.0
0
LINE
8
MCD_Layer_1
10
-9.368464
20
5.231847
30
0.0
11
-9.011757
21
5.494735
31
0.0
0
LINE
8
MCD_Layer_1
10
-8.975593
20
5.445715
30
0.0
11
-9.332372
21
5.182939
31
0.0
0
LINE
8
MCD_Layer_1
10
-8.745861
20
5.044554
30
0.0
11
-8.745761
21
5.022411
31
0.0
0
LINE
8
MCD_Layer_1
10
-9.330204
20
4.876110
30
0.0
11
-8.970036
21
4.618089
31
0.0
0
LINE
8
MCD_Layer_1
10
-9.005572
20
4.568521
30
0.0
11
-9.365720
21
4.826634
31
0.0
0
LINE
8
MCD_Layer_1
10
-9.316065
20
4.226069
30
0.0
11
-9.337057
21
4.219085
31
0.0
0
LINE
8
MCD_Layer_1
10
-9.656764
20
4.729883
30
0.0
11
-9.790941
21
4.307522
31
0.0
0
LINE
8
MCD_Layer_1
10
-9.848882
20
4.325886
30
0.0
11
-9.714904
21
4.748195
31
0.0
0
LINE
8
MCD_Layer_1
10
-10.270678
20
4.515490
30
0.0
11
-10.283715
21
4.533361
31
0.0
0
LINE
8
MCD_Layer_1
10
-9.896842
20
4.995220
30
0.0
11
-10.339996
21
4.992207
31
0.0
0
LINE
8
MCD_Layer_0
10
-9.099662
20
6.053664
30
0.0
11
-9.155243
21
6.070164
31
0.0
0
LINE
8
MCD_Layer_0
10
-8.484328
20
4.850881
30
0.0
11
-8.476462
21
4.946342
31
0.0
0
LINE
8
MCD_Layer_0
10
-8.287699
20
3.682229
30
0.0
11
-8.275099
21
3.637029
31
0.0
0
LINE
8
MCD_Layer_0
10
-7.922099
20
3.697629
30
0.0
11
-7.939200
21
3.638829
31
0.0
0
LINE
8
MCD_Layer_0
10
-7.748900
20
3.737229
30
0.0
11
-7.659299
21
3.717029
31
0.0
0
LINE
8
MCD_Layer_0
10
-7.731399
20
3.275929
30
0.0
11
-7.711200
21
3.268629
31
0.0
0
LINE
8
MCD_Layer_0
10
-7.840199
20
2.989729
30
0.0
11
-7.799998
21
2.967229
31
0.0
0
LINE
8
MCD_Layer_0
10
-9.358799
20
3.578729
30
0.0
11
-9.406200
21
3.581529
31
0.0
0
LINE
8
MCD_Layer_0
10
-9.255399
20
3.270129
30
0.0
11
-9.321699
21
3.266829
31
0.0
0
LINE
8
MCD_Layer_0
10
-9.092699
20
2.250129
30
0.0
11
-9.093200
21
2.197629
31
0.0
0
LINE
8
MCD_Layer_0
10
-8.805298
20
2.334829
30
0.0
11
-8.804698
21
2.264029
31
0.0
0
LINE
8
MCD_Layer_0
10
-8.508299
20
2.217529
30
0.0
11
-8.553299
21
2.221929
31
0.0
0
LINE
8
MCD_Layer_0
10
-10.036899
20
1.853729
30
0.0
11
-10.036899
21
2.090029
31
0.0
0
LINE
8
MCD_Layer_0
10
-8.387798
20
2.128729
30
0.0
11
-8.437498
21
2.137629
31
0.0
0
LINE
8
MCD_Layer_0
10
-7.903299
20
2.944429
30
0.0
11
-7.971599
21
2.982729
31
0.0
0
LINE
8
MCD_Layer_0
10
-7.787999
20
3.221429
30
0.0
11
-7.834397
21
3.237929
31
0.0
0
LINE
8
MCD_Layer_0
10
-8.849999
20
3.764229
30
0.0
11
-8.868798
21
3.714329
31
0.0
0
LINE
8
MCD_Layer_0
10
-9.135999
20
3.876329
30
0.0
11
-9.135398
21
3.823029
31
0.0
0
LINE
8
MCD_Layer_0
10
-8.578299
20
1.711029
30
0.0
11
-8.564900
21
1.703929
31
0.0
0
LINE
8
MCD_Layer_0
10
-8.408699
20
2.053129
30
0.0
11
-8.451800
21
2.064129
31
0.0
0
LINE
8
MCD_Layer_0
10
-10.036899
20
9.492276
30
0.0
11
-9.426000
21
9.492276
31
0.0
0
LINE
8
MCD_Layer_0
10
-9.496299
20
7.671570
30
0.0
11
-9.496299
21
9.421974
31
0.0
0
LINE
8
MCD_Layer_0
10
-9.966600
20
9.421974
30
0.0
11
-9.966600
21
7.671570
31
0.0
0
LINE
8
MCD_Layer_0
10
-10.036899
20
4.086523
30
0.0
11
-10.036899
21
2.184729
31
0.0
0
LINE
8
MCD_Layer_0
10
-7.791981
20
12.310580
30
0.0
11
-8.259285
21
13.119975
31
0.0
0
LINE
8
MCD_Layer_0
10
-8.521626
20
13.168967
30
0.0
11
-8.403268
21
12.924963
31
0.0
0
LINE
8
MCD_Layer_0
10
-10.878302
20
9.420066
30
0.0
11
-10.663934
21
9.306552
31
0.0
0
LINE
8
MCD_Layer_0
10
-8.155563
20
11.389725
30
0.0
11
-10.185351
21
10.217827
31
0.0
0
LINE
8
MCD_Layer_0
10
-10.225258
20
10.284962
30
0.0
11
-8.195047
21
11.457105
31
0.0
0
LINE
8
MCD_Layer_0
10
8.669142
20
12.599857
30
0.0
11
8.801410
21
13.006747
31
0.0
0
LINE
8
MCD_Layer_0
10
8.539540
20
13.026991
30
0.0
11
8.451992
21
12.846362
31
0.0
0
LINE
8
MCD_Layer_0
10
10.878302
20
9.420066
30
0.0
11
10.663934
21
9.306552
31
0.0
0
LINE
8
MCD_Layer_0
10
8.155563
20
11.389725
30
0.0
11
10.185351
21
10.217827
31
0.0
0
LINE
8
MCD_Layer_0
10
10.225258
20
10.284962
30
0.0
11
8.195047
21
11.457105
31
0.0
0
LINE
8
MCD_Layer_0
10
-7.948963
20
12.738091
30
0.0
11
-7.748205
21
12.390368
31
0.0
0
LINE
8
MCD_Layer_0
10
-8.758813
20
12.623170
30
0.0
11
-8.734641
21
12.548864
31
0.0
0
LINE
8
MCD_Layer_1
10
-10.500000
20
8.458203
30
0.0
11
-10.500000
21
9.060358
31
0.0
0
LINE
8
MCD_Layer_0
10
-9.496299
20
6.113294
30
0.0
11
-9.496299
21
7.190770
31
0.0
0
LINE
8
MCD_Layer_0
10
-9.426000
20
6.153902
30
0.0
11
-9.350684
21
6.130062
31
0.0
0
LINE
8
MCD_Layer_0
10
-9.636060
20
3.783738
30
0.0
11
-9.616728
21
3.733703
31
0.0
0
LINE
8
MCD_Layer_1
10
8.697908
20
1.580000
30
0.0
11
-8.460335
21
1.580000
31
0.0
0
LINE
8
MCD_Layer_1
10
10.500000
20
7.057955
30
0.0
11
10.500000
21
9.060358
31
0.0
0
LINE
8
MCD_Layer_0
10
9.996229
20
4.911182
30
0.0
11
9.980546
21
4.908676
31
0.0
0
LINE
8
MCD_Layer_0
10
9.264757
20
7.997953
30
0.0
11
9.283549
21
8.018269
31
0.0
0
LINE
8
MCD_Layer_0
10
10.807901
20
4.515962
30
0.0
11
10.777726
21
4.508085
31
0.0
0
LINE
8
MCD_Layer_0
10
8.898888
20
8.016927
30
0.0
11
8.916821
21
8.038584
31
0.0
0
LINE
8
MCD_Layer_0
10
8.650277
20
7.167060
30
0.0
11
8.651270
21
7.143699
31
0.0
0
LINE
8
MCD_Layer_0
10
8.920658
20
6.980008
30
0.0
11
8.939253
21
6.992270
31
0.0
0
LINE
8
MCD_Layer_0
10
8.828383
20
8.584229
30
0.0
11
8.841119
21
8.620497
31
0.0
0
LINE
8
MCD_Layer_0
10
9.098266
20
7.849208
30
0.0
11
9.127063
21
7.872389
31
0.0
0
LINE
8
MCD_Layer_0
10
9.091517
20
6.567513
30
0.0
11
9.056181
21
6.499599
31
0.0
0
LINE
8
MCD_Layer_0
10
8.808429
20
6.327929
30
0.0
11
8.744441
21
6.286669
31
0.0
0
LINE
8
MCD_Layer_0
10
10.040830
20
5.234626
30
0.0
11
10.015314
21
5.212552
31
0.0
0
LINE
8
MCD_Layer_0
10
11.032704
20
1.467656
30
0.0
11
10.990405
21
1.429191
31
0.0
0
LINE
8
MCD_Layer_0
10
7.991825
20
12.812329
30
0.0
11
8.322504
21
13.385083
31
0.0
0
LINE
8
MCD_Layer_0
10
7.948963
20
12.738091
30
0.0
11
7.748205
21
12.390368
31
0.0
0
LINE
8
MCD_Layer_1
10
10.420000
20
7.350983
30
0.0
11
10.420000
21
9.106482
31
0.0
0
LINE
8
MCD_Layer_0
10
21.640465
20
6.586475
30
0.0
11
20.377364
21
6.586475
31
0.0
0
LINE
8
MCD_Layer_0
10
18.426565
20
6.014175
30
0.0
11
18.468866
21
6.031675
31
0.0
0
LINE
8
MCD_Layer_0
10
18.489965
20
7.207875
30
0.0
11
19.017765
21
7.207875
31
0.0
0
LINE
8
MCD_Layer_0
10
20.377364
20
7.207875
30
0.0
11
21.640465
21
7.207875
31
0.0
0
LINE
8
MCD_Layer_0
10
21.570066
20
6.656775
30
0.0
11
21.570066
21
7.137575
31
0.0
0
LINE
8
MCD_Layer_0
10
19.836764
20
7.137575
30
0.0
11
18.560265
21
7.137575
31
0.0
0
LINE
8
MCD_Layer_0
10
18.560265
20
6.656775
30
0.0
11
19.836764
21
6.656775
31
0.0
0
LINE
8
MCD_Layer_0
10
20.114565
20
5.987375
30
0.0
11
20.134666
21
5.980275
31
0.0
0
LINE
8
MCD_Layer_0
10
19.993265
20
5.689975
30
0.0
11
20.028666
21
5.649575
31
0.0
0
LINE
8
MCD_Layer_0
10
20.011564
20
5.949575
30
0.0
11
20.057865
21
5.932976
31
0.0
0
LINE
8
MCD_Layer_0
10
19.889265
20
5.702075
30
0.0
11
19.935765
21
5.648875
31
0.0
0
LINE
8
MCD_Layer_0
10
18.439565
20
5.172075
30
0.0
11
18.380265
21
5.180075
31
0.0
0
LINE
8
MCD_Layer_0
10
18.534565
20
5.487675
30
0.0
11
18.493066
21
5.516575
31
0.0
0
LINE
8
MCD_Layer_0
10
19.139565
20
5.598375
30
0.0
11
19.173765
21
5.606475
31
0.0
0
LINE
8
MCD_Layer_0
10
18.710565
20
6.534675
30
0.0
11
18.709965
21
6.587875
31
0.0
0
LINE
8
MCD_Layer_0
10
18.977164
20
6.425975
30
0.0
11
18.995966
21
6.475875
31
0.0
0
LINE
8
MCD_Layer_0
10
19.393265
20
6.586475
30
0.0
11
19.253365
21
6.586475
31
0.0
0
LINE
8
MCD_Layer_0
10
19.088565
20
7.207875
30
0.0
11
19.217464
21
7.207875
31
0.0
0
LINE
8
MCD_Layer_0
10
19.372207
20
4.457671
30
0.0
11
19.371689
21
4.518447
31
0.0
0
LINE
8
MCD_Layer_0
10
19.926828
20
3.704909
30
0.0
11
19.984839
21
3.686436
31
0.0
0
LINE
8
MCD_Layer_0
10
20.872127
20
3.981368
30
0.0
11
20.907553
21
4.030863
31
0.0
0
LINE
8
MCD_Layer_0
10
20.901289
20
4.965920
30
0.0
11
20.865124
21
5.014938
31
0.0
0
LINE
8
MCD_Layer_0
10
19.973932
20
5.297877
30
0.0
11
19.916137
21
5.278613
31
0.0
0
LINE
8
MCD_Layer_1
10
19.913403
20
4.565863
30
0.0
11
20.095853
21
4.507956
31
0.0
0
LINE
8
MCD_Layer_1
10
20.126948
20
4.414406
30
0.0
11
20.015520
21
4.258907
31
0.0
0
LINE
8
MCD_Layer_1
10
20.405979
20
4.261454
30
0.0
11
20.292379
21
4.415536
31
0.0
0
LINE
8
MCD_Layer_1
10
20.322224
20
4.509475
30
0.0
11
20.503913
21
4.569831
31
0.0
0
LINE
8
MCD_Layer_1
10
20.186445
20
4.797239
30
0.0
11
20.187748
21
4.605850
31
0.0
0
LINE
8
MCD_Layer_1
10
20.108428
20
4.547432
30
0.0
11
19.925960
21
4.605249
31
0.0
0
LINE
8
MCD_Layer_1
10
19.512906
20
4.978763
30
0.0
11
19.525826
21
4.996808
31
0.0
0
LINE
8
MCD_Layer_1
10
20.084679
20
4.771439
30
0.0
11
19.945044
21
5.191969
31
0.0
0
LINE
8
MCD_Layer_1
10
20.002836
20
5.211235
30
0.0
11
20.142472
21
4.790706
31
0.0
0
LINE
8
MCD_Layer_1
10
20.455300
20
5.305760
30
0.0
11
20.476422
21
5.299045
31
0.0
0
LINE
8
MCD_Layer_1
10
20.434899
20
4.697852
30
0.0
11
20.791607
21
4.960740
31
0.0
0
LINE
8
MCD_Layer_1
10
20.827771
20
4.911720
30
0.0
11
20.470992
21
4.648943
31
0.0
0
LINE
8
MCD_Layer_1
10
21.057502
20
4.510559
30
0.0
11
21.057603
21
4.488416
31
0.0
0
LINE
8
MCD_Layer_1
10
20.473160
20
4.342115
30
0.0
11
20.833328
21
4.084094
31
0.0
0
LINE
8
MCD_Layer_1
10
20.797792
20
4.034526
30
0.0
11
20.437643
21
4.292638
31
0.0
0
LINE
8
MCD_Layer_1
10
20.487299
20
3.692074
30
0.0
11
20.466306
21
3.685090
31
0.0
0
LINE
8
MCD_Layer_1
10
20.146600
20
4.195888
30
0.0
11
20.012422
21
3.773527
31
0.0
0
LINE
8
MCD_Layer_1
10
19.954481
20
3.791890
30
0.0
11
20.088459
21
4.214200
31
0.0
0
LINE
8
MCD_Layer_1
10
19.532685
20
3.981494
30
0.0
11
19.519649
21
3.999366
31
0.0
0
LINE
8
MCD_Layer_1
10
19.906521
20
4.461225
30
0.0
11
19.463368
21
4.458212
31
0.0
0
LINE
8
MCD_Layer_0
10
20.703701
20
5.519669
30
0.0
11
20.648120
21
5.536169
31
0.0
0
LINE
8
MCD_Layer_0
10
21.319035
20
4.316886
30
0.0
11
21.326901
21
4.412347
31
0.0
0
LINE
8
MCD_Layer_0
10
21.515665
20
3.148233
30
0.0
11
21.528265
21
3.103034
31
0.0
0
LINE
8
MCD_Layer_0
10
20.307065
20
3.135534
30
0.0
11
20.307065
21
0.874933
31
0.0
0
LINE
8
MCD_Layer_0
10
21.131166
20
2.360934
30
0.0
11
21.079664
21
2.356234
31
0.0
0
LINE
8
MCD_Layer_0
10
20.450565
20
2.271034
30
0.0
11
20.509066
21
2.259933
31
0.0
0
LINE
8
MCD_Layer_0
10
20.373365
20
1.963333
30
0.0
11
20.432666
21
1.959533
31
0.0
0
LINE
8
MCD_Layer_0
10
20.953365
20
3.230233
30
0.0
11
20.934566
21
3.180333
31
0.0
0
LINE
8
MCD_Layer_0
10
20.667365
20
3.342334
30
0.0
11
20.667966
21
3.289033
31
0.0
0
LINE
8
MCD_Layer_0
10
21.225065
20
1.177033
30
0.0
11
21.238464
21
1.169933
31
0.0
0
LINE
8
MCD_Layer_0
10
21.394665
20
1.519133
30
0.0
11
21.351564
21
1.530133
31
0.0
0
LINE
8
MCD_Layer_0
10
19.766465
20
8.958280
30
0.0
11
20.377364
21
8.958280
31
0.0
0
LINE
8
MCD_Layer_0
10
20.307065
20
7.137575
30
0.0
11
20.307065
21
8.887978
31
0.0
0
LINE
8
MCD_Layer_0
10
19.836764
20
8.887978
30
0.0
11
19.836764
21
7.137575
31
0.0
0
LINE
8
MCD_Layer_0
10
19.766465
20
3.552527
30
0.0
11
19.766465
21
1.650733
31
0.0
0
LINE
8
MCD_Layer_0
10
20.307065
20
5.579299
30
0.0
11
20.307065
21
6.656775
31
0.0
0
LINE
8
MCD_Layer_0
10
20.377364
20
5.619907
30
0.0
11
20.452680
21
5.596066
31
0.0
0
LINE
8
MCD_Layer_0
10
39.799593
20
4.377186
30
0.0
11
39.783909
21
4.374681
31
0.0
0
LINE
8
MCD_Layer_0
10
39.068121
20
7.463958
30
0.0
11
39.086913
21
7.484273
31
0.0
0
LINE
8
MCD_Layer_0
10
40.611265
20
3.981966
30
0.0
11
40.581090
21
3.974090
31
0.0
0
LINE
8
MCD_Layer_0
10
38.702251
20
7.482932
30
0.0
11
38.720185
21
7.504589
31
0.0
0
LINE
8
MCD_Layer_0
10
38.453641
20
6.633064
30
0.0
11
38.454634
21
6.609704
31
0.0
0
LINE
8
MCD_Layer_0
10
38.724022
20
6.446013
30
0.0
11
38.742617
21
6.458275
31
0.0
0
LINE
8
MCD_Layer_0
10
38.503083
20
6.867507
30
0.0
11
38.493356
21
6.866703
31
0.0
0
LINE
8
MCD_Layer_0
10
39.073593
20
7.752454
30
0.0
11
39.093066
21
7.787312
31
0.0
0
LINE
8
MCD_Layer_0
10
39.652399
20
5.160804
30
0.0
11
39.680150
21
5.169866
31
0.0
0
LINE
8
MCD_Layer_0
10
38.727268
20
4.260668
30
0.0
11
38.783449
21
4.268537
31
0.0
0
LINE
8
MCD_Layer_0
10
38.938171
20
1.813067
30
0.0
11
38.912006
21
1.772522
31
0.0
0
LINE
8
MCD_Layer_0
10
39.742552
20
1.258825
30
0.0
11
39.684569
21
1.304876
31
0.0
0
LINE
8
MCD_Layer_0
10
-9.784199
20
6.710870
30
0.0
11
-9.795200
21
6.744470
31
0.0
0
LINE
8
MCD_Layer_0
10
-10.352199
20
6.236870
30
0.0
11
-10.321999
21
6.223970
31
0.0
0
LINE
8
MCD_Layer_0
10
-11.289600
20
6.974170
30
0.0
11
-11.279499
21
7.008470
31
0.0
0
LINE
8
MCD_Layer_0
10
-9.352598
20
3.772129
30
0.0
11
-9.364699
21
3.738129
31
0.0
0
LINE
8
MCD_Layer_0
10
-8.731599
20
2.810329
30
0.0
11
-8.719899
21
2.776029
31
0.0
0
LINE
8
MCD_Layer_0
10
-9.282298
20
2.312029
30
0.0
11
-9.311399
21
2.328729
31
0.0
0
LINE
8
MCD_Layer_0
10
-8.432298
20
3.026029
30
0.0
11
-8.399699
21
3.010029
31
0.0
0
LINE
8
MCD_Layer_0
10
20.019165
20
6.176875
30
0.0
11
20.008164
21
6.210475
31
0.0
0
LINE
8
MCD_Layer_0
10
19.451165
20
5.702875
30
0.0
11
19.481365
21
5.689975
31
0.0
0
LINE
8
MCD_Layer_0
10
18.513764
20
6.440175
30
0.0
11
18.523865
21
6.474475
31
0.0
0
LINE
8
MCD_Layer_0
10
20.450766
20
3.238133
30
0.0
11
20.438665
21
3.204134
31
0.0
0
LINE
8
MCD_Layer_0
10
21.071765
20
2.276334
30
0.0
11
21.083465
21
2.242033
31
0.0
0
LINE
8
MCD_Layer_0
10
20.521066
20
1.778034
30
0.0
11
20.491965
21
1.794733
31
0.0
0
LINE
8
MCD_Layer_0
10
21.371066
20
2.492033
30
0.0
11
21.403665
21
2.476033
31
0.0
0
LINE
8
MCD_Layer_0
10
21.746029
20
3.043334
30
0.0
11
21.762729
21
3.101233
31
0.0
0
LINE
8
MCD_Layer_0
10
21.963229
20
2.956533
30
0.0
11
21.932130
21
2.979133
31
0.0
0
LINE
8
MCD_Layer_0
10
22.044729
20
2.741934
30
0.0
11
22.075637
21
2.734633
31
0.0
0
LINE
8
MCD_Layer_0
10
21.900065
20
2.410434
30
0.0
11
21.847234
21
2.442784
31
0.0
0
LINE
8
MCD_Layer_0
10
28.238162
20
8.153764
30
0.0
11
28.117708
21
8.630663
31
0.0
0
LINE
8
MCD_Layer_0
10
28.307848
20
8.171365
30
0.0
11
28.187395
21
8.648264
31
0.0
0
LINE
8
MCD_Layer_0
10
28.313437
20
8.680099
30
0.0
11
28.433890
21
8.203201
31
0.0
0
LINE
8
MCD_Layer_0
10
28.238162
20
8.153764
30
0.0
11
28.307848
21
8.171365
31
0.0
0
LINE
8
MCD_Layer_0
10
28.629618
20
8.252637
30
0.0
11
28.699305
21
8.270238
31
0.0
0
LINE
8
MCD_Layer_0
10
28.918184
20
8.306437
30
0.0
11
28.872583
21
8.616855
31
0.0
0
LINE
8
MCD_Layer_0
10
29.058710
20
8.644198
30
0.0
11
29.104312
21
8.333780
31
0.0
0
LINE
8
MCD_Layer_0
10
28.872583
20
8.616855
30
0.0
11
29.058710
21
8.644198
31
0.0
0
LINE
8
MCD_Layer_0
10
29.104312
20
8.333780
30
0.0
11
29.175423
21
8.344227
31
0.0
0
LINE
8
MCD_Layer_0
10
29.295162
20
8.984149
30
0.0
11
29.444930
21
8.992487
31
0.0
0
LINE
8
MCD_Layer_0
10
29.401668
20
8.364111
30
0.0
11
29.389251
21
8.587140
31
0.0
0
LINE
8
MCD_Layer_0
10
29.450360
20
8.920802
30
0.0
11
29.370922
21
8.916380
31
0.0
0
LINE
8
MCD_Layer_0
10
29.329904
20
8.360115
30
0.0
11
29.401668
21
8.364111
31
0.0
0
LINE
8
MCD_Layer_0
10
29.831455
20
8.380638
30
0.0
11
29.854241
21
9.005223
31
0.0
0
LINE
8
MCD_Layer_0
10
29.923448
20
8.930775
30
0.0
11
29.914047
21
8.673072
31
0.0
0
LINE
8
MCD_Layer_0
10
30.098778
20
8.370886
30
0.0
11
30.172853
21
8.368184
31
0.0
0
LINE
8
MCD_Layer_0
10
30.391503
20
8.974598
30
0.0
11
30.462998
21
8.967218
31
0.0
0
LINE
8
MCD_Layer_0
10
30.398825
20
8.345522
30
0.0
11
30.327330
21
8.352902
31
0.0
0
LINE
8
MCD_Layer_0
10
30.651105
20
8.945621
30
0.0
11
30.927273
21
8.899453
31
0.0
0
LINE
8
MCD_Layer_0
10
30.915422
20
8.828562
30
0.0
11
30.710145
21
8.862879
31
0.0
0
LINE
8
MCD_Layer_0
10
30.682527
20
8.697672
30
0.0
11
30.836638
21
8.671908
31
0.0
0
LINE
8
MCD_Layer_0
10
30.824787
20
8.601016
30
0.0
11
30.670676
21
8.626780
31
0.0
0
LINE
8
MCD_Layer_0
10
30.630794
20
8.388216
30
0.0
11
30.868126
21
8.348540
31
0.0
0
LINE
8
MCD_Layer_0
10
30.856274
20
8.277649
30
0.0
11
30.548052
21
8.329175
31
0.0
0
LINE
8
MCD_Layer_0
10
31.162321
20
8.852055
30
0.0
11
31.264251
21
8.825332
31
0.0
0
LINE
8
MCD_Layer_0
10
31.091573
20
8.298786
30
0.0
11
31.122466
21
8.290686
31
0.0
0
LINE
8
MCD_Layer_0
10
31.213619
20
8.764303
30
0.0
11
31.091573
21
8.298786
31
0.0
0
LINE
8
MCD_Layer_1
10
77.167897
20
0.805191
30
0.0
11
101.167897
21
0.805191
31
0.0
0
LINE
8
MCD_Layer_1
10
101.167897
20
0.805191
30
0.0
11
101.167897
21
14.805191
31
0.0
0
LINE
8
MCD_Layer_0
10
78.409498
20
5.701666
30
0.0
11
78.382998
21
5.748166
31
0.0
0
LINE
8
MCD_Layer_0
10
78.075398
20
5.636566
30
0.0
11
78.062399
21
5.665166
31
0.0
0
LINE
8
MCD_Layer_0
10
77.992098
20
5.490766
30
0.0
11
77.913599
21
5.449966
31
0.0
0
LINE
8
MCD_Layer_0
10
77.717598
20
5.917967
30
0.0
11
77.666298
21
5.924866
31
0.0
0
LINE
8
MCD_Layer_0
10
77.796499
20
6.278766
30
0.0
11
77.759998
21
6.304266
31
0.0
0
LINE
8
MCD_Layer_0
10
77.630096
20
7.207066
30
0.0
11
77.584699
21
7.284766
31
0.0
0
LINE
8
MCD_Layer_0
10
77.854498
20
7.460766
30
0.0
11
77.854498
21
8.013066
31
0.0
0
LINE
8
MCD_Layer_0
10
81.004998
20
8.013066
30
0.0
11
81.004998
21
7.391666
31
0.0
0
LINE
8
MCD_Layer_0
10
80.934599
20
7.942766
30
0.0
11
79.671598
21
7.942766
31
0.0
0
LINE
8
MCD_Layer_0
10
77.924798
20
7.942766
30
0.0
11
77.924798
21
7.461966
31
0.0
0
LINE
8
MCD_Layer_0
10
79.201297
20
7.461966
30
0.0
11
79.201297
21
7.222366
31
0.0
0
LINE
8
MCD_Layer_0
10
79.241598
20
7.220466
30
0.0
11
79.248697
21
7.178267
31
0.0
0
LINE
8
MCD_Layer_0
10
79.632898
20
7.025066
30
0.0
11
79.601497
21
6.934066
31
0.0
0
LINE
8
MCD_Layer_0
10
79.671598
20
7.461966
30
0.0
11
80.934599
21
7.461966
31
0.0
0
LINE
8
MCD_Layer_0
10
78.434298
20
5.800166
30
0.0
11
78.405198
21
5.851466
31
0.0
0
LINE
8
MCD_Layer_0
10
78.117298
20
5.714365
30
0.0
11
78.095998
21
5.760866
31
0.0
0
LINE
8
MCD_Layer_0
10
77.888697
20
6.783666
30
0.0
11
77.940298
21
6.804966
31
0.0
0
LINE
8
MCD_Layer_0
10
77.814198
20
7.102766
30
0.0
11
77.865399
21
7.091166
31
0.0
0
LINE
8
MCD_Layer_0
10
78.681598
20
6.464766
30
0.0
11
78.697198
21
6.493266
31
0.0
0
LINE
8
MCD_Layer_0
10
78.876697
20
7.102666
30
0.0
11
78.894498
21
7.039466
31
0.0
0
LINE
8
MCD_Layer_0
10
79.181898
20
7.151766
30
0.0
11
79.191098
21
7.096966
31
0.0
0
LINE
8
MCD_Layer_1
10
78.827604
20
5.324321
30
0.0
11
79.270645
21
5.327265
31
0.0
0
LINE
8
MCD_Layer_1
10
79.413632
20
5.039917
30
0.0
11
79.525186
21
5.195580
31
0.0
0
LINE
8
MCD_Layer_1
10
79.623679
20
5.196224
30
0.0
11
79.737186
21
5.042161
31
0.0
0
LINE
8
MCD_Layer_1
10
79.855359
20
5.414359
30
0.0
11
79.673760
21
5.353984
31
0.0
0
LINE
8
MCD_Layer_1
10
79.593630
20
5.411277
30
0.0
11
79.592347
21
5.602759
31
0.0
0
LINE
8
MCD_Layer_1
10
79.312527
20
5.455281
30
0.0
11
78.877440
21
5.783954
31
0.0
0
LINE
8
MCD_Layer_1
10
78.890359
20
5.801999
30
0.0
11
79.341540
21
5.495746
31
0.0
0
LINE
8
MCD_Layer_1
10
79.309577
20
5.997160
30
0.0
11
79.367369
21
6.016426
31
0.0
0
LINE
8
MCD_Layer_1
10
79.641753
20
5.595547
30
0.0
11
79.819834
21
6.110951
31
0.0
0
LINE
8
MCD_Layer_1
10
79.840956
20
6.104236
30
0.0
11
79.689188
21
5.580579
31
0.0
0
LINE
8
MCD_Layer_1
10
80.156140
20
5.765931
30
0.0
11
80.192304
21
5.716911
31
0.0
0
LINE
8
MCD_Layer_1
10
79.876832
20
5.325733
30
0.0
11
80.422036
21
5.315750
31
0.0
0
LINE
8
MCD_Layer_1
10
80.422136
20
5.293607
30
0.0
11
79.877170
21
5.276102
31
0.0
0
LINE
8
MCD_Layer_1
10
80.197861
20
4.889284
30
0.0
11
80.162325
21
4.839717
31
0.0
0
LINE
8
MCD_Layer_1
10
79.692908
20
5.018885
30
0.0
11
79.851832
21
4.497265
31
0.0
0
LINE
8
MCD_Layer_1
10
79.830840
20
4.490281
30
0.0
11
79.645802
21
5.003121
31
0.0
0
LINE
8
MCD_Layer_1
10
79.376956
20
4.578718
30
0.0
11
79.319015
21
4.597081
31
0.0
0
LINE
8
MCD_Layer_1
10
79.344288
20
5.098887
30
0.0
11
78.897219
21
4.786685
31
0.0
0
LINE
8
MCD_Layer_1
10
78.884182
20
4.804557
30
0.0
11
79.314737
21
5.138951
31
0.0
0
LINE
8
MCD_Layer_1
10
78.827901
20
5.263403
30
0.0
11
78.827604
21
5.324321
31
0.0
0
LINE
8
MCD_Layer_0
10
80.697045
20
5.400931
30
0.0
11
80.696587
21
5.469516
31
0.0
0
LINE
8
MCD_Layer_0
10
78.594676
20
4.707099
30
0.0
11
78.561926
21
4.749955
31
0.0
0
LINE
8
MCD_Layer_0
10
81.327698
20
3.260925
30
0.0
11
81.367899
21
3.238424
31
0.0
0
LINE
8
MCD_Layer_0
10
79.809098
20
3.849924
30
0.0
11
79.761697
21
3.852724
31
0.0
0
LINE
8
MCD_Layer_0
10
79.912498
20
3.541324
30
0.0
11
79.846198
21
3.538024
31
0.0
0
LINE
8
MCD_Layer_0
10
80.075198
20
2.521324
30
0.0
11
80.074697
21
2.468824
31
0.0
0
LINE
8
MCD_Layer_0
10
80.362599
20
2.606024
30
0.0
11
80.363199
21
2.535224
31
0.0
0
LINE
8
MCD_Layer_0
10
80.659598
20
2.488725
30
0.0
11
80.614598
21
2.493124
31
0.0
0
LINE
8
MCD_Layer_0
10
79.130998
20
2.124924
30
0.0
11
79.130998
21
2.361224
31
0.0
0
LINE
8
MCD_Layer_0
10
80.780099
20
2.399924
30
0.0
11
80.730399
21
2.408824
31
0.0
0
LINE
8
MCD_Layer_0
10
80.851798
20
3.793824
30
0.0
11
80.834098
21
3.857124
31
0.0
0
LINE
8
MCD_Layer_0
10
80.659197
20
3.253724
30
0.0
11
80.638998
21
3.219224
31
0.0
0
LINE
8
MCD_Layer_0
10
80.647197
20
2.401924
30
0.0
11
80.610198
21
2.403724
31
0.0
0
LINE
8
MCD_Layer_0
10
80.501498
20
2.033124
30
0.0
11
80.512998
21
2.025224
31
0.0
0
LINE
8
MCD_Layer_0
10
79.130998
20
9.121066
30
0.0
11
79.130998
21
9.763471
31
0.0
0
LINE
8
MCD_Layer_0
10
79.741897
20
9.763471
30
0.0
11
79.741897
21
8.013066
31
0.0
0
LINE
8
MCD_Layer_0
10
79.671598
20
9.693169
30
0.0
11
79.201297
21
9.693169
31
0.0
0
LINE
8
MCD_Layer_0
10
79.201297
20
4.359984
30
0.0
11
79.201297
21
1.912424
31
0.0
0
LINE
8
MCD_Layer_0
10
79.096276
20
6.262092
30
0.0
11
79.115586
21
6.227536
31
0.0
0
LINE
8
MCD_Layer_0
10
79.741897
20
6.425098
30
0.0
11
79.741897
21
7.391666
31
0.0
0
LINE
8
MCD_Layer_0
10
99.164126
20
5.182377
30
0.0
11
99.148443
21
5.179871
31
0.0
0
LINE
8
MCD_Layer_0
10
98.432654
20
8.269149
30
0.0
11
98.451446
21
8.289464
31
0.0
0
LINE
8
MCD_Layer_0
10
99.975798
20
4.787157
30
0.0
11
99.945623
21
4.779281
31
0.0
0
LINE
8
MCD_Layer_0
10
98.066785
20
8.288122
30
0.0
11
98.084718
21
8.309780
31
0.0
0
LINE
8
MCD_Layer_0
10
97.818174
20
7.438255
30
0.0
11
97.819167
21
7.414895
31
0.0
0
LINE
8
MCD_Layer_0
10
98.088555
20
7.251204
30
0.0
11
98.107150
21
7.263466
31
0.0
0
LINE
8
MCD_Layer_0
10
97.996280
20
8.855424
30
0.0
11
98.009016
21
8.891692
31
0.0
0
LINE
8
MCD_Layer_0
10
98.266163
20
8.120403
30
0.0
11
98.294960
21
8.143584
31
0.0
0
LINE
8
MCD_Layer_0
10
98.259414
20
6.838709
30
0.0
11
98.224078
21
6.770795
31
0.0
0
LINE
8
MCD_Layer_0
10
97.976326
20
6.599124
30
0.0
11
97.912338
21
6.557864
31
0.0
0
LINE
8
MCD_Layer_0
10
99.208727
20
5.505822
30
0.0
11
99.183211
21
5.483747
31
0.0
0
LINE
8
MCD_Layer_0
10
100.200601
20
1.738851
30
0.0
11
100.158302
21
1.700387
31
0.0
0
LINE
8
MCD_Layer_0
10
78.543398
20
6.589866
30
0.0
11
78.525299
21
6.557366
31
0.0
0
LINE
8
MCD_Layer_0
10
77.872697
20
5.764666
30
0.0
11
77.908997
21
5.752366
31
0.0
0
LINE
8
MCD_Layer_0
10
78.489898
20
6.287266
30
0.0
11
78.477798
21
6.324466
31
0.0
0
LINE
8
MCD_Layer_0
10
80.464298
20
3.353724
30
0.0
11
80.479599
21
3.382624
31
0.0
0
LINE
8
MCD_Layer_0
10
81.218562
20
3.968825
30
0.0
11
81.201461
21
3.910024
31
0.0
0
LINE
8
MCD_Layer_0
10
81.391761
20
4.008424
30
0.0
11
81.481362
21
3.988224
31
0.0
0
LINE
8
MCD_Layer_0
10
81.352662
20
3.492624
30
0.0
11
81.306264
21
3.509124
31
0.0
0
LINE
8
MCD_Layer_0
10
96.932028
20
6.586540
30
0.0
11
79.741897
21
6.586540
31
0.0
0
LINE
8
MCD_Layer_0
10
97.662551
20
1.801403
30
0.0
11
80.860406
21
1.801403
31
0.0
0
LINE
8
MCD_Layer_0
10
87.943385
20
9.552327
30
0.0
11
88.063838
21
9.075429
31
0.0
0
LINE
8
MCD_Layer_0
10
87.994152
20
9.057828
30
0.0
11
87.873698
21
9.534726
31
0.0
0
LINE
8
MCD_Layer_0
10
87.747657
20
9.502891
30
0.0
11
87.868110
21
9.025993
31
0.0
0
LINE
8
MCD_Layer_0
10
87.798424
20
9.008392
30
0.0
11
87.868110
21
9.025993
31
0.0
0
LINE
8
MCD_Layer_0
10
88.211606
20
9.101182
30
0.0
11
88.142749
21
9.569902
31
0.0
0
LINE
8
MCD_Layer_0
10
88.471100
20
9.618138
30
0.0
11
88.539957
21
9.149418
31
0.0
0
LINE
8
MCD_Layer_0
10
88.226669
20
9.493159
30
0.0
11
88.214206
21
9.577999
31
0.0
0
LINE
8
MCD_Layer_0
10
88.400333
20
9.605342
30
0.0
11
88.412797
21
9.520502
31
0.0
0
LINE
8
MCD_Layer_0
10
88.211606
20
9.101182
30
0.0
11
88.282718
21
9.111628
31
0.0
0
LINE
8
MCD_Layer_0
10
88.412797
20
9.520502
30
0.0
11
88.226669
21
9.493159
31
0.0
0
LINE
8
MCD_Layer_0
10
88.694437
20
9.165306
30
0.0
11
88.659696
21
9.789340
31
0.0
0
LINE
8
MCD_Layer_0
10
88.735455
20
9.721571
30
0.0
11
88.749790
21
9.464095
31
0.0
0
LINE
8
MCD_Layer_0
10
88.961524
20
9.180175
30
0.0
11
89.035534
21
9.184296
31
0.0
0
LINE
8
MCD_Layer_0
10
89.218774
20
9.810414
30
0.0
11
89.368675
21
9.804945
31
0.0
0
LINE
8
MCD_Layer_0
10
89.267816
20
9.183209
30
0.0
11
89.275960
21
9.406436
31
0.0
0
LINE
8
MCD_Layer_0
10
89.367490
20
9.733065
30
0.0
11
89.287982
21
9.735966
31
0.0
0
LINE
8
MCD_Layer_0
10
89.195989
20
9.185829
30
0.0
11
89.267816
21
9.183209
31
0.0
0
LINE
8
MCD_Layer_0
10
89.691863
20
9.158093
30
0.0
11
89.756037
21
9.779789
31
0.0
0
LINE
8
MCD_Layer_0
10
89.827532
20
9.772409
30
0.0
11
89.763358
21
9.150713
31
0.0
0
LINE
8
MCD_Layer_0
10
89.912585
20
9.134366
30
0.0
11
90.015639
21
9.750812
31
0.0
0
LINE
8
MCD_Layer_0
10
90.291806
20
9.704644
30
0.0
11
90.279955
21
9.633753
31
0.0
0
LINE
8
MCD_Layer_0
10
90.074679
20
9.668070
30
0.0
11
90.047060
21
9.502863
31
0.0
0
LINE
8
MCD_Layer_0
10
90.201172
20
9.477099
30
0.0
11
90.189320
21
9.406207
31
0.0
0
LINE
8
MCD_Layer_0
10
90.035209
20
9.431971
30
0.0
11
89.995327
21
9.193407
31
0.0
0
LINE
8
MCD_Layer_0
10
90.232659
20
9.153731
30
0.0
11
90.220808
21
9.082840
31
0.0
0
LINE
8
MCD_Layer_0
10
90.368353
20
9.052679
30
0.0
11
90.526855
21
9.657246
31
0.0
0
LINE
8
MCD_Layer_0
10
90.470283
20
9.025955
30
0.0
11
90.368353
21
9.052679
31
0.0
0
LINE
8
MCD_Layer_0
10
90.609046
20
9.561395
30
0.0
11
90.578152
21
9.569494
31
0.0
0
LINE
8
MCD_Layer_0
10
81.171849
20
10.817735
30
0.0
11
81.180638
21
10.680094
31
0.0
0
LINE
8
MCD_Layer_0
10
81.171849
20
10.817735
30
0.0
11
80.987889
21
10.817735
31
0.0
0
LINE
8
MCD_Layer_0
10
78.805150
20
12.700365
30
0.0
11
78.797826
21
12.786714
31
0.0
0
LINE
8
MCD_Layer_0
10
80.891392
20
13.240000
30
0.0
11
80.891392
21
10.873483
31
0.0
0
LINE
8
MCD_Layer_0
10
97.163945
20
10.817735
30
0.0
11
97.155156
21
10.680094
31
0.0
0
LINE
8
MCD_Layer_0
10
97.163945
20
10.817735
30
0.0
11
97.347905
21
10.817735
31
0.0
0
LINE
8
MCD_Layer_0
10
99.530644
20
12.700365
30
0.0
11
99.537968
21
12.786714
31
0.0
0
LINE
8
MCD_Layer_0
10
97.444402
20
13.240000
30
0.0
11
97.444402
21
10.873483
31
0.0
0
LINE
8
MCD_Layer_0
10
97.085667
20
10.817735
30
0.0
11
81.250127
21
10.817735
31
0.0
0
LINE
8
MCD_Layer_0
10
97.030400
20
13.743448
30
0.0
11
81.305363
21
13.743448
31
0.0
0
LINE
8
MCD_Layer_0
10
38.475333
20
1.076212
30
0.0
11
21.361137
21
1.076212
31
0.0
0
LINE
8
MCD_Layer_0
10
20.377364
20
5.619907
30
0.0
11
20.377364
21
5.701350
31
0.0
0
LINE
8
MCD_Layer_0
10
21.619816
20
9.887544
30
0.0
11
21.628605
21
9.749903
31
0.0
0
LINE
8
MCD_Layer_0
10
21.619816
20
9.887544
30
0.0
11
21.435856
21
9.887544
31
0.0
0
LINE
8
MCD_Layer_0
10
21.261265
20
9.876657
30
0.0
11
21.261265
21
12.232714
31
0.0
0
LINE
8
MCD_Layer_0
10
19.738071
20
9.298550
30
0.0
11
19.677341
21
9.340290
31
0.0
0
LINE
8
MCD_Layer_0
10
37.986912
20
9.887544
30
0.0
11
37.978123
21
9.749903
31
0.0
0
LINE
8
MCD_Layer_0
10
37.986912
20
9.887544
30
0.0
11
38.170872
21
9.887544
31
0.0
0
LINE
8
MCD_Layer_0
10
38.345463
20
9.876657
30
0.0
11
38.345463
21
12.232714
31
0.0
0
LINE
8
MCD_Layer_0
10
39.868656
20
9.298550
30
0.0
11
39.929386
21
9.340290
31
0.0
0
LINE
8
MCD_Layer_0
10
38.176151
20
9.967546
30
0.0
11
21.430576
21
9.967546
31
0.0
0
LINE
8
MCD_Layer_0
10
37.877476
20
12.735163
30
0.0
11
21.729252
21
12.735163
31
0.0
0
LINE
8
MCD_Layer_0
10
33.207344
20
6.248790
30
0.0
11
33.257352
21
6.011434
31
0.0
0
LINE
8
MCD_Layer_0
10
64.008107
20
5.002299
30
0.0
11
64.065617
21
4.910685
31
0.0
0
LINE
8
MCD_Layer_0
10
67.151206
20
7.095293
30
0.0
11
67.151206
21
5.946696
31
0.0
0
LINE
8
MCD_Layer_0
10
67.073401
20
5.899485
30
0.0
11
67.073401
21
6.834094
31
0.0
0
LINE
8
MCD_Layer_0
10
66.870703
20
7.007693
30
0.0
11
66.851203
21
6.737200
31
0.0
0
LINE
8
MCD_Layer_0
10
66.227011
20
6.486887
30
0.0
11
64.771413
21
6.486887
31
0.0
0
LINE
8
MCD_Layer_0
10
66.227011
20
6.566887
30
0.0
11
64.771413
21
6.566887
31
0.0
0
LINE
8
MCD_Layer_0
10
68.094780
20
1.974399
30
0.0
11
68.381023
21
2.292391
31
0.0
0
LINE
8
MCD_Layer_0
10
68.529490
20
2.075727
30
0.0
11
68.416835
21
1.909594
31
0.0
0
LINE
8
MCD_Layer_0
10
68.017869
20
2.005626
30
0.0
11
68.446543
21
2.482046
31
0.0
0
LINE
8
MCD_Layer_0
10
64.313598
20
2.325777
30
0.0
11
64.317597
21
2.217682
31
0.0
0
LINE
8
MCD_Layer_0
10
67.843546
20
2.002017
30
0.0
11
65.716935
21
3.229816
31
0.0
0
LINE
8
MCD_Layer_0
10
67.883546
20
2.071299
30
0.0
11
65.756935
21
3.299098
31
0.0
0
LINE
8
MCD_Layer_0
10
26.328112
20
6.289603
30
0.0
11
26.305773
21
6.183766
31
0.0
0
LINE
8
MCD_Layer_0
10
25.316877
20
6.300696
30
0.0
11
24.055274
21
5.836517
31
0.0
0
LINE
8
MCD_Layer_0
10
-25.090978
20
1.117465
30
0.0
11
-25.135678
21
1.142465
31
0.0
0
LINE
8
MCD_Layer_0
10
-24.992278
20
1.452365
30
0.0
11
-25.014778
21
1.460465
31
0.0
0
LINE
8
MCD_Layer_0
10
-24.934678
20
1.950565
30
0.0
11
-25.034178
21
1.973065
31
0.0
0
LINE
8
MCD_Layer_0
10
-25.245578
20
1.863665
30
0.0
11
-25.226678
21
1.928965
31
0.0
0
LINE
8
MCD_Layer_0
10
-25.618878
20
1.861665
30
0.0
11
-25.632878
21
1.911865
31
0.0
0
LINE
8
MCD_Layer_0
10
-25.937478
20
2.962265
30
0.0
11
-26.053778
21
3.001865
31
0.0
0
LINE
8
MCD_Layer_0
10
-26.897678
20
4.189665
30
0.0
11
-26.897678
21
5.469165
31
0.0
0
LINE
8
MCD_Layer_0
10
-25.494178
20
5.469165
30
0.0
11
-25.494178
21
6.159565
31
0.0
0
LINE
8
MCD_Layer_0
10
-26.897678
20
6.159565
30
0.0
11
-26.897678
21
8.158664
31
0.0
0
LINE
8
MCD_Layer_0
10
-27.576378
20
8.158664
30
0.0
11
-27.576378
21
7.390665
31
0.0
0
LINE
8
MCD_Layer_0
10
-28.408278
20
6.159565
30
0.0
11
-28.994778
21
6.159565
31
0.0
0
LINE
8
MCD_Layer_0
10
-29.018178
20
4.852665
30
0.0
11
-29.065178
21
4.833265
31
0.0
0
LINE
8
MCD_Layer_0
10
-28.777378
20
2.715665
30
0.0
11
-28.772478
21
2.642765
31
0.0
0
LINE
8
MCD_Layer_0
10
-25.346678
20
1.795365
30
0.0
11
-25.328078
21
1.859665
31
0.0
0
LINE
8
MCD_Layer_0
10
-25.664378
20
1.734565
30
0.0
11
-25.684078
21
1.804865
31
0.0
0
LINE
8
MCD_Layer_0
10
-25.887478
20
1.118965
30
0.0
11
-25.900878
21
1.096165
31
0.0
0
LINE
8
MCD_Layer_0
10
-26.822978
20
1.796865
30
0.0
11
-26.875578
21
1.799965
31
0.0
0
LINE
8
MCD_Layer_0
10
-26.708078
20
1.454065
30
0.0
11
-26.781778
21
1.450365
31
0.0
0
LINE
8
MCD_Layer_0
10
-26.975778
20
-0.613935
30
0.0
11
-26.975778
21
1.897265
31
0.0
0
LINE
8
MCD_Layer_0
10
-27.064578
20
1.945365
30
0.0
11
-27.147978
21
1.902165
31
0.0
0
LINE
8
MCD_Layer_0
10
-27.498278
20
1.884065
30
0.0
11
-27.498278
21
-0.355835
31
0.0
0
LINE
8
MCD_Layer_1
10
-26.113178
20
0.926665
30
0.0
11
-26.096578
21
0.921065
31
0.0
0
LINE
8
MCD_Layer_0
10
-25.955778
20
-0.278335
30
0.0
11
-25.940878
21
-0.286235
31
0.0
0
LINE
8
MCD_Layer_0
10
-25.767278
20
0.101765
30
0.0
11
-25.815178
21
0.113965
31
0.0
0
LINE
8
MCD_Layer_1
10
-25.105278
20
1.698865
30
0.0
11
-25.117878
21
1.702165
31
0.0
0
LINE
8
MCD_Layer_1
10
-26.077978
20
1.277665
30
0.0
11
-26.085578
21
1.254765
31
0.0
0
LINE
8
MCD_Layer_1
10
-27.636078
20
3.525865
30
0.0
11
-27.603978
21
3.438965
31
0.0
0
LINE
8
MCD_Layer_1
10
-27.461778
20
3.525365
30
0.0
11
-27.539578
21
3.631265
31
0.0
0
LINE
8
MCD_Layer_0
10
-27.285078
20
4.428165
30
0.0
11
-27.324378
21
4.472965
31
0.0
0
LINE
8
MCD_Layer_0
10
-27.167278
20
4.795565
30
0.0
11
-27.189578
21
4.803465
31
0.0
0
LINE
8
MCD_Layer_0
10
-27.498278
20
5.547265
30
0.0
11
-28.916578
21
5.547265
31
0.0
0
LINE
8
MCD_Layer_0
10
-28.916578
20
6.081465
30
0.0
11
-27.498278
21
6.081465
31
0.0
0
LINE
8
MCD_Layer_0
10
-27.498278
20
8.080565
30
0.0
11
-26.975778
21
8.080565
31
0.0
0
LINE
8
MCD_Layer_0
10
-26.975778
20
6.081465
30
0.0
11
-25.572378
21
6.081465
31
0.0
0
LINE
8
MCD_Layer_0
10
-25.572378
20
5.547265
30
0.0
11
-26.975778
21
5.547265
31
0.0
0
LINE
8
MCD_Layer_0
10
-28.432478
20
5.346265
30
0.0
11
-28.453378
21
5.290765
31
0.0
0
LINE
8
MCD_Layer_0
10
-28.750278
20
5.470665
30
0.0
11
-28.749678
21
5.411565
31
0.0
0
LINE
8
MCD_Layer_0
10
-28.234978
20
4.380265
30
0.0
11
-28.260878
21
4.377865
31
0.0
0
LINE
8
MCD_Layer_0
10
-28.991278
20
4.280365
30
0.0
11
-28.945178
21
4.248265
31
0.0
0
LINE
8
MCD_Layer_0
10
-29.116578
20
3.906465
30
0.0
11
-29.050778
21
3.897565
31
0.0
0
LINE
8
MCD_Layer_1
10
-27.955778
20
4.422165
30
0.0
11
-27.940678
21
4.407366
31
0.0
0
LINE
8
MCD_Layer_1
10
-28.976378
20
3.750066
30
0.0
11
-28.961578
21
3.747266
31
0.0
0
LINE
8
MCD_Layer_1
10
-28.229278
20
4.602364
30
0.0
11
-28.244478
21
4.581665
31
0.0
0
LINE
8
MCD_Layer_0
10
-28.146478
20
5.469165
30
0.0
11
-27.991078
21
5.469165
31
0.0
0
LINE
8
MCD_Layer_0
10
-21.370703
20
8.634534
30
0.0
11
-21.370703
21
7.483434
31
0.0
0
LINE
8
MCD_Layer_0
10
-21.981602
20
3.935534
30
0.0
11
-21.981602
21
5.393734
31
0.0
0
LINE
8
MCD_Layer_0
10
-22.508303
20
5.479534
30
0.0
11
-22.488002
21
5.550234
31
0.0
0
LINE
8
MCD_Layer_0
10
-23.041203
20
6.089834
30
0.0
11
-23.046502
21
6.160634
31
0.0
0
LINE
8
MCD_Layer_0
10
-23.321502
20
8.062235
30
0.0
11
-23.279201
21
8.079734
31
0.0
0
LINE
8
MCD_Layer_0
10
-23.258102
20
9.255934
30
0.0
11
-22.730302
21
9.255934
31
0.0
0
LINE
8
MCD_Layer_0
10
-21.981602
20
10.363934
30
0.0
11
-21.981602
21
11.055135
31
0.0
0
LINE
8
MCD_Layer_0
10
-21.370703
20
11.055135
30
0.0
11
-21.370703
21
9.255934
31
0.0
0
LINE
8
MCD_Layer_0
10
-20.107602
20
9.255934
30
0.0
11
-20.107602
21
8.634534
31
0.0
0
LINE
8
MCD_Layer_0
10
-20.178001
20
9.185634
30
0.0
11
-21.441002
21
9.185634
31
0.0
0
LINE
8
MCD_Layer_0
10
-21.441002
20
10.984833
30
0.0
11
-21.911303
21
10.984833
31
0.0
0
LINE
8
MCD_Layer_0
10
-21.911303
20
9.185634
30
0.0
11
-23.187802
21
9.185634
31
0.0
0
LINE
8
MCD_Layer_0
10
-23.187802
20
8.704835
30
0.0
11
-21.911303
21
8.704835
31
0.0
0
LINE
8
MCD_Layer_0
10
-21.633502
20
8.035434
30
0.0
11
-21.613401
21
8.028334
31
0.0
0
LINE
8
MCD_Layer_0
10
-21.754802
20
7.738034
30
0.0
11
-21.719401
21
7.697634
31
0.0
0
LINE
8
MCD_Layer_0
10
-21.441002
20
8.704835
30
0.0
11
-20.178001
21
8.704835
31
0.0
0
LINE
8
MCD_Layer_0
10
-22.678302
20
7.043034
30
0.0
11
-22.707402
21
7.094334
31
0.0
0
LINE
8
MCD_Layer_0
10
-22.995302
20
6.957234
30
0.0
11
-23.016602
21
7.003734
31
0.0
0
LINE
8
MCD_Layer_0
10
-23.223903
20
8.026534
30
0.0
11
-23.172302
21
8.047835
31
0.0
0
LINE
8
MCD_Layer_0
10
-23.298402
20
8.345635
30
0.0
11
-23.247201
21
8.334035
31
0.0
0
LINE
8
MCD_Layer_0
10
-22.431002
20
7.707635
30
0.0
11
-22.415402
21
7.736134
31
0.0
0
LINE
8
MCD_Layer_0
10
-22.235903
20
8.345534
30
0.0
11
-22.218102
21
8.282334
31
0.0
0
LINE
8
MCD_Layer_0
10
-21.930702
20
8.394634
30
0.0
11
-21.921502
21
8.339834
31
0.0
0
LINE
8
MCD_Layer_0
10
-21.728902
20
8.224934
30
0.0
11
-21.739903
21
8.258535
31
0.0
0
LINE
8
MCD_Layer_0
10
-22.296902
20
7.750934
30
0.0
11
-22.266702
21
7.738034
31
0.0
0
LINE
8
MCD_Layer_0
10
-23.234303
20
8.488234
30
0.0
11
-23.224202
21
8.522534
31
0.0
0
LINE
8
MCD_Layer_0
10
-21.907002
20
7.196034
30
0.0
11
-21.923101
21
7.164934
31
0.0
0
LINE
8
MCD_Layer_0
10
-21.746101
20
6.846534
30
0.0
11
-21.820501
21
6.990334
31
0.0
0
LINE
8
MCD_Layer_0
10
-22.014202
20
6.841735
30
0.0
11
-21.970903
21
6.689533
31
0.0
0
LINE
8
MCD_Layer_0
10
-21.895202
20
6.658234
30
0.0
11
-21.929702
21
6.779434
31
0.0
0
LINE
8
MCD_Layer_0
10
-21.441002
20
5.420334
30
0.0
11
-21.441002
21
3.159734
31
0.0
0
LINE
8
MCD_Layer_0
10
-21.911303
20
3.392034
30
0.0
11
-21.911303
21
5.415434
31
0.0
0
LINE
8
MCD_Layer_0
10
-21.303502
20
5.329534
30
0.0
11
-21.350903
21
5.332334
31
0.0
0
LINE
8
MCD_Layer_0
10
-21.200102
20
5.020934
30
0.0
11
-21.266402
21
5.017634
31
0.0
0
LINE
8
MCD_Layer_0
10
-21.037402
20
4.000934
30
0.0
11
-21.037903
21
3.948434
31
0.0
0
LINE
8
MCD_Layer_0
10
-20.750001
20
4.085634
30
0.0
11
-20.749401
21
4.014834
31
0.0
0
LINE
8
MCD_Layer_0
10
-20.453002
20
3.968334
30
0.0
11
-20.498002
21
3.972734
31
0.0
0
LINE
8
MCD_Layer_0
10
-21.981602
20
3.604534
30
0.0
11
-21.981602
21
3.840834
31
0.0
0
LINE
8
MCD_Layer_0
10
-20.332501
20
3.879534
30
0.0
11
-20.382201
21
3.888434
31
0.0
0
LINE
8
MCD_Layer_0
10
-19.848002
20
4.695234
30
0.0
11
-19.916302
21
4.733534
31
0.0
0
LINE
8
MCD_Layer_0
10
-19.732702
20
4.972234
30
0.0
11
-19.779100
21
4.988734
31
0.0
0
LINE
8
MCD_Layer_0
10
-20.794702
20
5.515034
30
0.0
11
-20.813501
21
5.465134
31
0.0
0
LINE
8
MCD_Layer_0
10
-21.080702
20
5.627134
30
0.0
11
-21.080101
21
5.573834
31
0.0
0
LINE
8
MCD_Layer_0
10
-21.297301
20
5.522934
30
0.0
11
-21.309402
21
5.488934
31
0.0
0
LINE
8
MCD_Layer_0
10
-19.757602
20
5.241334
30
0.0
11
-19.788701
21
5.263934
31
0.0
0
LINE
8
MCD_Layer_0
10
-20.523002
20
3.461834
30
0.0
11
-20.509603
21
3.454734
31
0.0
0
LINE
8
MCD_Layer_0
10
-20.353402
20
3.803934
30
0.0
11
-20.396503
21
3.814934
31
0.0
0
LINE
8
MCD_Layer_0
10
-22.659502
20
9.255934
30
0.0
11
-22.530603
21
9.255934
31
0.0
0
LINE
8
MCD_Layer_0
10
-20.316110
20
11.669095
30
0.0
11
-24.007998
21
4.134013
31
0.0
0
LINE
8
MCD_Layer_0
10
23.554043
20
5.701350
30
0.0
11
20.377364
21
5.701350
31
0.0
0
LINE
8
MCD_Layer_0
10
26.228529
20
5.701350
30
0.0
11
23.554043
21
5.701350
31
0.0
0
LINE
8
MCD_Layer_0
10
33.561610
20
5.781350
30
0.0
11
35.475228
21
5.781350
31
0.0
0
LINE
8
MCD_Layer_0
10
26.507074
20
5.781350
30
0.0
11
33.099653
21
5.781350
31
0.0
0
LINE
8
MCD_Layer_0
10
24.131499
20
5.781350
30
0.0
11
26.045117
21
5.781350
31
0.0
0
LINE
8
MCD_Layer_0
10
36.465170
20
6.073165
30
0.0
11
36.787888
21
6.825289
31
0.0
0
LINE
8
MCD_Layer_0
10
36.125937
20
6.807243
30
0.0
11
36.353878
21
7.169316
31
0.0
0
LINE
8
MCD_Layer_0
10
36.537056
20
6.981084
30
0.0
11
36.454322
21
6.798200
31
0.0
0
LINE
8
MCD_Layer_0
10
36.044833
20
6.824924
30
0.0
11
36.386160
21
7.367356
31
0.0
0
LINE
8
MCD_Layer_0
10
35.873668
20
6.791695
30
0.0
11
34.507598
21
7.294311
31
0.0
0
LINE
8
MCD_Layer_0
10
22.655628
20
7.043557
30
0.0
11
23.052237
21
6.090606
31
0.0
0
LINE
8
MCD_Layer_0
10
22.949126
20
7.058202
30
0.0
11
23.060828
21
6.811080
31
0.0
0
LINE
8
MCD_Layer_0
10
23.705436
20
6.866775
30
0.0
11
25.071505
21
7.369390
31
0.0
0
LINE
8
MCD_Layer_0
10
-10.418883
20
4.223561
30
0.0
11
-10.449060
21
4.267658
31
0.0
0
LINE
8
MCD_Layer_1
10
-50.424955
20
41.203508
30
0.0
11
-50.424955
21
27.203508
31
0.0
0
LINE
8
MCD_Layer_0
10
-46.587854
20
34.323978
30
0.0
11
-47.850955
21
34.323978
31
0.0
0
LINE
8
MCD_Layer_0
10
-49.801754
20
33.751678
30
0.0
11
-49.759453
21
33.769178
31
0.0
0
LINE
8
MCD_Layer_0
10
-49.738354
20
34.945378
30
0.0
11
-49.210554
21
34.945378
31
0.0
0
LINE
8
MCD_Layer_0
10
-47.850955
20
34.945378
30
0.0
11
-46.587854
21
34.945378
31
0.0
0
LINE
8
MCD_Layer_0
10
-46.658253
20
34.394278
30
0.0
11
-46.658253
21
34.875078
31
0.0
0
LINE
8
MCD_Layer_0
10
-48.391555
20
34.875078
30
0.0
11
-49.668054
21
34.875078
31
0.0
0
LINE
8
MCD_Layer_0
10
-49.668054
20
34.394278
30
0.0
11
-48.391555
21
34.394278
31
0.0
0
LINE
8
MCD_Layer_0
10
-48.113754
20
33.724878
30
0.0
11
-48.093653
21
33.717778
31
0.0
0
LINE
8
MCD_Layer_0
10
-48.235054
20
33.427478
30
0.0
11
-48.199653
21
33.387078
31
0.0
0
LINE
8
MCD_Layer_0
10
-48.216755
20
33.687078
30
0.0
11
-48.170454
21
33.670479
31
0.0
0
LINE
8
MCD_Layer_0
10
-48.339054
20
33.439578
30
0.0
11
-48.292554
21
33.386378
31
0.0
0
LINE
8
MCD_Layer_0
10
-49.788754
20
32.909578
30
0.0
11
-49.848053
21
32.917578
31
0.0
0
LINE
8
MCD_Layer_0
10
-49.693754
20
33.225178
30
0.0
11
-49.735253
21
33.254078
31
0.0
0
LINE
8
MCD_Layer_0
10
-49.088754
20
33.335878
30
0.0
11
-49.054554
21
33.343978
31
0.0
0
LINE
8
MCD_Layer_0
10
-49.517754
20
34.272178
30
0.0
11
-49.518354
21
34.325378
31
0.0
0
LINE
8
MCD_Layer_0
10
-49.251155
20
34.163478
30
0.0
11
-49.232353
21
34.213378
31
0.0
0
LINE
8
MCD_Layer_0
10
-48.835054
20
34.323978
30
0.0
11
-48.974954
21
34.323978
31
0.0
0
LINE
8
MCD_Layer_0
10
-49.139754
20
34.945378
30
0.0
11
-49.010855
21
34.945378
31
0.0
0
LINE
8
MCD_Layer_0
10
-48.856111
20
32.195174
30
0.0
11
-48.856630
21
32.255950
31
0.0
0
LINE
8
MCD_Layer_0
10
-48.301491
20
31.442413
30
0.0
11
-48.243480
21
31.423939
31
0.0
0
LINE
8
MCD_Layer_0
10
-47.356192
20
31.718871
30
0.0
11
-47.320765
21
31.768366
31
0.0
0
LINE
8
MCD_Layer_0
10
-47.327029
20
32.703423
30
0.0
11
-47.363194
21
32.752441
31
0.0
0
LINE
8
MCD_Layer_0
10
-48.254386
20
33.035381
30
0.0
11
-48.312181
21
33.016116
31
0.0
0
LINE
8
MCD_Layer_1
10
-48.314915
20
32.303366
30
0.0
11
-48.132466
21
32.245459
31
0.0
0
LINE
8
MCD_Layer_1
10
-48.101371
20
32.151910
30
0.0
11
-48.212799
21
31.996410
31
0.0
0
LINE
8
MCD_Layer_1
10
-47.822340
20
31.998957
30
0.0
11
-47.935939
21
32.153039
31
0.0
0
LINE
8
MCD_Layer_1
10
-47.906094
20
32.246978
30
0.0
11
-47.724405
21
32.307335
31
0.0
0
LINE
8
MCD_Layer_1
10
-48.041873
20
32.534742
30
0.0
11
-48.040570
21
32.343353
31
0.0
0
LINE
8
MCD_Layer_1
10
-48.119891
20
32.284935
30
0.0
11
-48.302358
21
32.342753
31
0.0
0
LINE
8
MCD_Layer_1
10
-48.715412
20
32.716267
30
0.0
11
-48.702493
21
32.734311
31
0.0
0
LINE
8
MCD_Layer_1
10
-48.143639
20
32.508942
30
0.0
11
-48.283275
21
32.929472
31
0.0
0
LINE
8
MCD_Layer_1
10
-48.225483
20
32.948738
30
0.0
11
-48.085847
21
32.528209
31
0.0
0
LINE
8
MCD_Layer_1
10
-47.773018
20
33.043263
30
0.0
11
-47.751896
21
33.036549
31
0.0
0
LINE
8
MCD_Layer_1
10
-47.793419
20
32.435355
30
0.0
11
-47.436712
21
32.698243
31
0.0
0
LINE
8
MCD_Layer_1
10
-47.400548
20
32.649223
30
0.0
11
-47.757327
21
32.386447
31
0.0
0
LINE
8
MCD_Layer_1
10
-47.170816
20
32.248062
30
0.0
11
-47.170716
21
32.225919
31
0.0
0
LINE
8
MCD_Layer_1
10
-47.755159
20
32.079618
30
0.0
11
-47.394991
21
31.821597
31
0.0
0
LINE
8
MCD_Layer_1
10
-47.430527
20
31.772029
30
0.0
11
-47.790675
21
32.030141
31
0.0
0
LINE
8
MCD_Layer_1
10
-47.741020
20
31.429577
30
0.0
11
-47.762012
21
31.422593
31
0.0
0
LINE
8
MCD_Layer_1
10
-48.081719
20
31.933391
30
0.0
11
-48.215896
21
31.511030
31
0.0
0
LINE
8
MCD_Layer_1
10
-48.273837
20
31.529394
30
0.0
11
-48.139859
21
31.951703
31
0.0
0
LINE
8
MCD_Layer_1
10
-48.695633
20
31.718998
30
0.0
11
-48.708669
21
31.736869
31
0.0
0
LINE
8
MCD_Layer_1
10
-48.321797
20
32.198728
30
0.0
11
-48.764951
21
32.195715
31
0.0
0
LINE
8
MCD_Layer_0
10
-47.524617
20
33.257172
30
0.0
11
-47.580198
21
33.273672
31
0.0
0
LINE
8
MCD_Layer_0
10
-46.909283
20
32.054389
30
0.0
11
-46.901417
21
32.149850
31
0.0
0
LINE
8
MCD_Layer_0
10
-46.712654
20
30.885737
30
0.0
11
-46.700054
21
30.840537
31
0.0
0
LINE
8
MCD_Layer_0
10
-46.347054
20
30.901137
30
0.0
11
-46.364155
21
30.842337
31
0.0
0
LINE
8
MCD_Layer_0
10
-46.173855
20
30.940737
30
0.0
11
-46.084254
21
30.920537
31
0.0
0
LINE
8
MCD_Layer_0
10
-46.156354
20
30.479437
30
0.0
11
-46.136155
21
30.472137
31
0.0
0
LINE
8
MCD_Layer_0
10
-46.265154
20
30.193237
30
0.0
11
-46.224953
21
30.170737
31
0.0
0
LINE
8
MCD_Layer_0
10
-47.783754
20
30.782237
30
0.0
11
-47.831155
21
30.785037
31
0.0
0
LINE
8
MCD_Layer_0
10
-47.680354
20
30.473637
30
0.0
11
-47.746654
21
30.470337
31
0.0
0
LINE
8
MCD_Layer_0
10
-47.517654
20
29.453637
30
0.0
11
-47.518155
21
29.401137
31
0.0
0
LINE
8
MCD_Layer_0
10
-47.230253
20
29.538337
30
0.0
11
-47.229653
21
29.467537
31
0.0
0
LINE
8
MCD_Layer_0
10
-46.933254
20
29.421037
30
0.0
11
-46.978254
21
29.425437
31
0.0
0
LINE
8
MCD_Layer_0
10
-48.461854
20
29.057237
30
0.0
11
-48.461854
21
29.293537
31
0.0
0
LINE
8
MCD_Layer_0
10
-46.812753
20
29.332237
30
0.0
11
-46.862453
21
29.341137
31
0.0
0
LINE
8
MCD_Layer_0
10
-46.328254
20
30.147937
30
0.0
11
-46.396554
21
30.186237
31
0.0
0
LINE
8
MCD_Layer_0
10
-46.212954
20
30.424937
30
0.0
11
-46.259352
21
30.441437
31
0.0
0
LINE
8
MCD_Layer_0
10
-47.274954
20
30.967737
30
0.0
11
-47.293753
21
30.917837
31
0.0
0
LINE
8
MCD_Layer_0
10
-47.560954
20
31.079837
30
0.0
11
-47.560353
21
31.026537
31
0.0
0
LINE
8
MCD_Layer_0
10
-47.003254
20
28.914537
30
0.0
11
-46.989855
21
28.907437
31
0.0
0
LINE
8
MCD_Layer_0
10
-46.833654
20
29.256637
30
0.0
11
-46.876755
21
29.267637
31
0.0
0
LINE
8
MCD_Layer_0
10
-48.461854
20
36.695783
30
0.0
11
-47.850955
21
36.695783
31
0.0
0
LINE
8
MCD_Layer_0
10
-47.921254
20
34.875078
30
0.0
11
-47.921254
21
36.625481
31
0.0
0
LINE
8
MCD_Layer_0
10
-48.391555
20
36.625481
30
0.0
11
-48.391555
21
34.875078
31
0.0
0
LINE
8
MCD_Layer_0
10
-48.461854
20
31.290030
30
0.0
11
-48.461854
21
29.388237
31
0.0
0
LINE
8
MCD_Layer_0
10
-46.216936
20
39.514088
30
0.0
11
-46.684240
21
40.323483
31
0.0
0
LINE
8
MCD_Layer_0
10
-46.946581
20
40.372475
30
0.0
11
-46.828223
21
40.128471
31
0.0
0
LINE
8
MCD_Layer_0
10
-49.303257
20
36.623574
30
0.0
11
-49.088889
21
36.510059
31
0.0
0
LINE
8
MCD_Layer_0
10
-46.580518
20
38.593233
30
0.0
11
-48.610306
21
37.421335
31
0.0
0
LINE
8
MCD_Layer_0
10
-48.650213
20
37.488470
30
0.0
11
-46.620001
21
38.660613
31
0.0
0
LINE
8
MCD_Layer_0
10
-29.755813
20
39.803365
30
0.0
11
-29.623545
21
40.210255
31
0.0
0
LINE
8
MCD_Layer_0
10
-29.885415
20
40.230498
30
0.0
11
-29.972963
21
40.049870
31
0.0
0
LINE
8
MCD_Layer_0
10
-27.546653
20
36.623574
30
0.0
11
-27.761021
21
36.510059
31
0.0
0
LINE
8
MCD_Layer_0
10
-30.269392
20
38.593233
30
0.0
11
-28.239603
21
37.421335
31
0.0
0
LINE
8
MCD_Layer_0
10
-28.199697
20
37.488470
30
0.0
11
-30.229908
21
38.660613
31
0.0
0
LINE
8
MCD_Layer_0
10
-46.373918
20
39.941599
30
0.0
11
-46.173160
21
39.593876
31
0.0
0
LINE
8
MCD_Layer_0
10
-47.208967
20
39.904142
30
0.0
11
-47.357851
21
40.361824
31
0.0
0
LINE
8
MCD_Layer_0
10
-48.844955
20
38.767450
30
0.0
11
-47.283632
21
39.668880
31
0.0
0
LINE
8
MCD_Layer_1
10
-48.924955
20
35.661711
30
0.0
11
-48.924955
21
36.263866
31
0.0
0
LINE
8
MCD_Layer_0
10
-47.921254
20
33.316802
30
0.0
11
-47.921254
21
34.394278
31
0.0
0
LINE
8
MCD_Layer_0
10
-47.850955
20
33.357410
30
0.0
11
-47.775639
21
33.333570
31
0.0
0
LINE
8
MCD_Layer_0
10
-48.061015
20
30.987246
30
0.0
11
-48.041683
21
30.937211
31
0.0
0
LINE
8
MCD_Layer_1
10
-29.727047
20
28.783508
30
0.0
11
-46.885290
21
28.783508
31
0.0
0
LINE
8
MCD_Layer_1
10
-27.924955
20
34.261463
30
0.0
11
-27.924955
21
36.263866
31
0.0
0
LINE
8
MCD_Layer_0
10
-28.428726
20
32.114690
30
0.0
11
-28.444409
21
32.112184
31
0.0
0
LINE
8
MCD_Layer_0
10
-29.160198
20
35.201461
30
0.0
11
-29.141406
21
35.221776
31
0.0
0
LINE
8
MCD_Layer_0
10
-27.617054
20
31.719470
30
0.0
11
-27.647229
21
31.711593
31
0.0
0
LINE
8
MCD_Layer_0
10
-29.526067
20
35.220435
30
0.0
11
-29.508134
21
35.242092
31
0.0
0
LINE
8
MCD_Layer_0
10
-29.774678
20
34.370568
30
0.0
11
-29.773684
21
34.347207
31
0.0
0
LINE
8
MCD_Layer_0
10
-29.504297
20
34.183516
30
0.0
11
-29.485702
21
34.195778
31
0.0
0
LINE
8
MCD_Layer_0
10
-29.596572
20
35.787737
30
0.0
11
-29.583836
21
35.824005
31
0.0
0
LINE
8
MCD_Layer_0
10
-29.326689
20
35.052716
30
0.0
11
-29.297892
21
35.075897
31
0.0
0
LINE
8
MCD_Layer_0
10
-29.333438
20
33.771021
30
0.0
11
-29.368774
21
33.703107
31
0.0
0
LINE
8
MCD_Layer_0
10
-29.616525
20
33.531437
30
0.0
11
-29.680514
21
33.490177
31
0.0
0
LINE
8
MCD_Layer_0
10
-28.384125
20
32.438134
30
0.0
11
-28.409641
21
32.416060
31
0.0
0
LINE
8
MCD_Layer_0
10
-27.392251
20
28.671164
30
0.0
11
-27.434550
21
28.632699
31
0.0
0
LINE
8
MCD_Layer_0
10
-30.433130
20
40.015837
30
0.0
11
-30.102451
21
40.588591
31
0.0
0
LINE
8
MCD_Layer_0
10
-30.475992
20
39.941599
30
0.0
11
-30.676750
21
39.593876
31
0.0
0
LINE
8
MCD_Layer_0
10
-29.666142
20
39.826678
30
0.0
11
-29.690314
21
39.752372
31
0.0
0
LINE
8
MCD_Layer_0
10
-27.924955
20
38.721262
30
0.0
11
-27.439667
21
38.441081
31
0.0
0
LINE
8
MCD_Layer_1
10
-28.004955
20
34.554491
30
0.0
11
-28.004955
21
36.309990
31
0.0
0
LINE
8
MCD_Layer_0
10
-48.209154
20
33.914378
30
0.0
11
-48.220155
21
33.947978
31
0.0
0
LINE
8
MCD_Layer_0
10
-48.777154
20
33.440378
30
0.0
11
-48.746954
21
33.427478
31
0.0
0
LINE
8
MCD_Layer_0
10
-49.714555
20
34.177678
30
0.0
11
-49.704454
21
34.211978
31
0.0
0
LINE
8
MCD_Layer_0
10
-47.777553
20
30.975637
30
0.0
11
-47.789654
21
30.941637
31
0.0
0
LINE
8
MCD_Layer_0
10
-47.156554
20
30.013837
30
0.0
11
-47.144854
21
29.979537
31
0.0
0
LINE
8
MCD_Layer_0
10
-47.707253
20
29.515537
30
0.0
11
-47.736354
21
29.532237
31
0.0
0
LINE
8
MCD_Layer_0
10
-46.857253
20
30.229537
30
0.0
11
-46.824654
21
30.213537
31
0.0
0
LINE
8
MCD_Layer_0
10
-48.843838
20
31.427069
30
0.0
11
-48.874015
21
31.471166
31
0.0
0
LINE
8
MCD_Layer_0
10
-31.690814
20
48.061060
30
0.0
11
-51.300009
21
20.177465
31
0.0
0
LINE
8
MCD_Layer_0
10
-48.924955
20
38.721262
30
0.0
11
-48.924955
21
39.747023
31
0.0
0
LINE
8
MCD_Layer_0
10
-28.004955
20
38.767450
30
0.0
11
-28.004955
21
39.671643
31
0.0
0
LINE
8
MCD_Layer_0
10
8.784012
20
12.700634
30
0.0
11
8.734641
21
12.548864
31
0.0
0
LINE
8
MCD_Layer_0
10
-10.420000
20
11.563942
30
0.0
11
-10.985288
21
11.237573
31
0.0
0
LINE
8
MCD_Layer_72
10
0.000000
20
0.000000
30
0.0
11
2.501461
21
0.000000
31
0.0
0
LINE
8
MCD_Layer_56
10
0.000000
20
0.000000
30
0.0
11
2.528955
21
-0.030635
31
0.0
0
LINE
8
MCD_Layer_72
10
0.000000
20
-0.000000
30
0.0
11
2.501448
21
-0.000000
31
0.0
0
LINE
8
MCD_Layer_72
10
0.000000
20
-0.000000
30
0.0
11
2.358209
21
0.000000
31
0.0
0
ARC
8
MCD_Layer_0
10
71.657728
20
-5.674043
40
0.562103
50
347.490242
51
5.435491
0
ARC
8
MCD_Layer_0
10
72.053409
20
-5.339079
40
0.200468
50
93.313471
51
135.833154
0
ARC
8
MCD_Layer_0
10
72.423848
20
-5.596654
40
0.480117
50
57.987425
51
75.953144
0
ARC
8
MCD_Layer_0
10
72.980845
20
-5.672240
40
0.555181
50
174.608671
51
192.553917
0
ARC
8
MCD_Layer_0
10
72.094031
20
-5.780259
40
0.398183
50
336.306136
51
357.884670
0
ARC
8
MCD_Layer_0
10
72.578896
20
-5.774490
40
0.425726
50
182.577426
51
202.917415
0
ARC
8
MCD_Layer_0
10
71.542615
20
-5.783553
40
0.383857
50
335.904069
51
357.830944
0
ARC
8
MCD_Layer_0
10
71.580596
20
-5.103819
40
0.345782
50
1.847331
51
25.372141
0
ARC
8
MCD_Layer_0
10
72.487417
20
-5.098125
40
0.333997
50
154.750126
51
178.115835
0
ARC
8
MCD_Layer_0
10
72.124534
20
-5.109101
40
0.367667
50
2.148505
51
24.667603
0
ARC
8
MCD_Layer_0
10
73.097129
20
-5.107422
40
0.377760
50
156.311740
51
177.178393
0
ARC
8
MCD_Layer_0
10
73.119256
20
-5.779807
40
0.400415
50
182.512572
51
203.624438
0
ARC
8
MCD_Layer_0
10
72.260092
20
-5.203433
40
0.272898
50
74.650997
51
134.026998
0
ARC
8
MCD_Layer_0
10
72.385813
20
-5.695448
40
0.269854
50
254.632386
51
314.261709
0
ARC
8
MCD_Layer_0
10
72.455510
20
-5.561543
40
0.160878
50
302.649504
51
22.443388
0
ARC
8
MCD_Layer_0
10
72.389585
20
-5.339858
40
0.175348
50
10.249347
51
71.263731
0
ARC
8
MCD_Layer_0
10
72.242303
20
-5.239963
40
0.121072
50
71.897072
51
139.853939
0
ARC
8
MCD_Layer_0
10
72.216238
20
-5.368995
40
0.183445
50
144.927887
51
192.833081
0
ARC
8
MCD_Layer_0
10
72.252521
20
-5.555575
40
0.175742
50
192.226458
51
252.650919
0
ARC
8
MCD_Layer_0
10
72.167938
20
-6.081669
40
0.408997
50
30.409539
51
43.270123
0
ARC
8
MCD_Layer_0
10
72.505496
20
-5.722069
40
0.414565
50
166.851957
51
211.758068
0
ARC
8
MCD_Layer_0
10
72.862061
20
-4.704882
40
0.757087
50
199.343563
51
210.589271
0
ARC
8
MCD_Layer_0
10
72.151849
20
-5.222240
40
0.451105
50
354.771823
51
15.563417
0
ARC
8
MCD_Layer_0
10
72.464981
20
-5.149106
40
0.156353
50
16.181679
51
82.432167
0
ARC
8
MCD_Layer_0
10
72.493268
20
-5.329091
40
0.175111
50
313.831153
51
16.631781
0
ARC
8
MCD_Layer_0
10
72.340020
20
-5.385837
40
0.234971
50
255.998381
51
307.311791
0
ARC
8
MCD_Layer_0
10
72.522158
20
-5.795717
40
0.276021
50
180.540680
51
211.580653
0
ARC
8
MCD_Layer_0
10
71.704576
20
-5.796948
40
0.314366
50
332.876948
51
358.741940
0
ARC
8
MCD_Layer_0
10
71.590973
20
-5.118852
40
0.429460
50
1.937586
51
22.334161
0
ARC
8
MCD_Layer_0
10
72.329803
20
-5.364740
40
0.092398
50
244.248310
51
329.739188
0
ARC
8
MCD_Layer_0
10
72.352958
20
-5.261423
40
0.105787
50
335.570952
51
65.831404
0
ARC
8
MCD_Layer_0
10
72.273673
20
-5.344082
40
0.105102
50
249.726340
51
278.748414
0
ARC
8
MCD_Layer_0
10
72.203361
20
-5.538535
40
0.420308
50
249.826101
51
277.063185
0
ARC
8
MCD_Layer_0
10
72.210403
20
-5.590339
40
0.182715
50
198.144702
51
252.323495
0
ARC
8
MCD_Layer_0
10
72.330404
20
-5.739207
40
0.068579
50
245.898284
51
324.067142
0
ARC
8
MCD_Layer_0
10
72.355385
20
-5.691230
40
0.060950
50
342.320952
51
48.024894
0
ARC
8
MCD_Layer_0
10
71.965103
20
-6.067853
40
0.608124
50
50.792796
51
61.524801
0
ARC
8
MCD_Layer_0
10
72.159575
20
-5.286663
40
0.132043
50
160.207572
51
237.350082
0
ARC
8
MCD_Layer_0
10
72.227383
20
-5.132341
40
0.155227
50
97.960674
51
162.375174
0
ARC
8
MCD_Layer_0
10
72.441462
20
-5.173069
40
0.236809
50
62.328053
51
100.557701
0
ARC
8
MCD_Layer_0
10
72.411372
20
-5.287088
40
0.154183
50
21.278870
51
75.076925
0
ARC
8
MCD_Layer_0
10
72.275476
20
-5.150365
40
0.068575
50
40.165606
51
220.165606
0
ARC
8
MCD_Layer_0
10
72.471109
20
-5.088927
40
0.283971
50
219.857367
51
248.036589
0
ARC
8
MCD_Layer_0
10
72.426435
20
-5.596446
40
0.165109
50
17.513551
51
61.426329
0
ARC
8
MCD_Layer_0
10
72.465290
20
-5.705052
40
0.151231
50
313.413861
51
16.767994
0
ARC
8
MCD_Layer_0
10
72.311895
20
-5.729781
40
0.232917
50
255.872386
51
305.925065
0
ARC
8
MCD_Layer_0
10
71.923754
20
-5.786265
40
0.282893
50
327.016934
51
358.068852
0
ARC
8
MCD_Layer_0
10
72.158048
20
-5.458879
40
0.340390
50
82.350114
51
109.965207
0
ARC
8
MCD_Layer_0
10
72.461173
20
-5.292648
40
0.180106
50
63.910216
51
98.558406
0
ARC
8
MCD_Layer_0
10
72.759873
20
-5.777348
40
0.321312
50
182.776627
51
210.467452
0
ARC
8
MCD_Layer_0
10
71.900370
20
-5.683658
40
0.601952
50
349.344965
51
3.858300
0
ARC
8
MCD_Layer_0
10
72.736843
20
-5.683658
40
0.593520
50
176.086805
51
190.678299
0
ARC
8
MCD_Layer_0
10
71.350367
20
-5.688706
40
0.586126
50
349.245182
51
3.962640
0
ARC
8
MCD_Layer_0
10
71.351009
20
-5.202769
40
0.585630
50
355.833592
51
10.835859
0
ARC
8
MCD_Layer_0
10
72.730132
20
-5.198201
40
0.587129
50
169.096605
51
184.367463
0
ARC
8
MCD_Layer_0
10
71.937551
20
-5.203250
40
0.564800
50
355.973050
51
11.016928
0
ARC
8
MCD_Layer_0
10
73.271710
20
-5.200846
40
0.563136
50
168.526175
51
184.529390
0
ARC
8
MCD_Layer_0
10
73.286218
20
-5.688706
40
0.577309
50
175.976739
51
190.848200
0
ARC
8
MCD_Layer_0
10
72.244106
20
-5.705081
40
0.260218
50
225.257517
51
285.649048
0
ARC
8
MCD_Layer_0
10
72.402520
20
-5.189169
40
0.258609
50
45.091400
51
105.748946
0
ARC
8
MCD_Layer_0
10
72.424875
20
-5.661720
40
0.122613
50
243.071495
51
343.277622
0
ARC
8
MCD_Layer_0
10
72.387599
20
-5.447360
40
0.222937
50
346.309405
51
38.473868
0
ARC
8
MCD_Layer_0
10
72.325837
20
-5.275158
40
0.157131
50
40.168408
51
106.989604
0
ARC
8
MCD_Layer_0
10
72.189074
20
-5.279503
40
0.123998
50
108.487021
51
172.625045
0
ARC
8
MCD_Layer_0
10
72.233756
20
-5.459860
40
0.202676
50
165.682654
51
220.987026
0
ARC
8
MCD_Layer_0
10
72.322712
20
-5.612477
40
0.165276
50
222.118086
51
286.389239
0
ARC
8
MCD_Layer_0
10
72.374655
20
-5.989978
40
0.186070
50
15.494992
51
38.304753
0
ARC
8
MCD_Layer_0
10
71.463012
20
-5.670197
40
0.483680
50
344.978542
51
5.032390
0
ARC
8
MCD_Layer_0
10
72.622680
20
-4.906569
40
0.451367
50
203.998861
51
221.703907
0
ARC
8
MCD_Layer_0
10
72.220582
20
-5.127012
40
0.366741
50
4.034999
51
27.855791
0
ARC
8
MCD_Layer_0
10
72.347712
20
-5.183757
40
0.234456
50
53.984696
51
103.367844
0
ARC
8
MCD_Layer_0
10
72.500300
20
-5.228730
40
0.168421
50
342.644363
51
47.010781
0
ARC
8
MCD_Layer_0
10
72.457977
20
-5.412143
40
0.162431
50
278.664666
51
344.550612
0
ARC
8
MCD_Layer_0
10
72.837441
20
-5.685701
40
0.601922
50
175.648283
51
190.783657
0
ARC
8
MCD_Layer_0
10
71.395948
20
-5.686783
40
0.633823
50
349.356339
51
4.426473
0
ARC
8
MCD_Layer_0
10
71.307702
20
-5.219596
40
0.721749
50
356.218854
51
9.189569
0
ARC
8
MCD_Layer_0
10
72.380398
20
-5.339908
40
0.077140
50
292.253388
51
26.762556
0
ARC
8
MCD_Layer_0
10
72.286013
20
-5.222661
40
0.124466
50
27.645915
51
103.837279
0
ARC
8
MCD_Layer_0
10
72.261534
20
-5.653424
40
0.153908
50
226.156487
51
285.397770
0
ARC
8
MCD_Layer_0
10
72.371384
20
-5.733418
40
0.048278
50
287.538957
51
29.370092
0
ARC
8
MCD_Layer_0
10
72.303948
20
-5.686466
40
0.100724
50
23.739047
51
63.102573
0
ARC
8
MCD_Layer_0
10
72.355961
20
-5.238787
40
0.311321
50
210.723747
51
251.085421
0
ARC
8
MCD_Layer_0
10
72.178793
20
-5.197841
40
0.150089
50
131.448066
51
197.091380
0
ARC
8
MCD_Layer_0
10
72.343145
20
-5.165785
40
0.232109
50
76.311281
51
126.253451
0
ARC
8
MCD_Layer_0
10
72.359130
20
-5.239064
40
0.136554
50
47.674721
51
103.229208
0
ARC
8
MCD_Layer_0
10
72.277326
20
-5.217312
40
0.058817
50
157.280594
51
245.698626
0
ARC
8
MCD_Layer_0
10
72.121669
20
-5.846063
40
0.550431
50
45.800927
51
63.775437
0
ARC
8
MCD_Layer_0
10
72.486535
20
-5.629331
40
0.127656
50
345.440290
51
40.303167
0
ARC
8
MCD_Layer_0
10
72.430109
20
-5.774785
40
0.144788
50
277.318808
51
343.911975
0
ARC
8
MCD_Layer_0
10
-0.079790
20
0.020572
40
0.082399
50
345.542569
51
333.345338
0
ARC
8
MCD_Layer_0
10
-0.228681
20
0.160010
40
0.398183
50
336.306136
51
357.884670
0
ARC
8
MCD_Layer_0
10
-0.780097
20
0.156716
40
0.383857
50
335.904069
51
357.830944
0
ARC
8
MCD_Layer_0
10
0.090668
20
0.196714
40
0.216604
50
245.254343
51
317.923268
0
ARC
8
MCD_Layer_0
10
-0.346413
20
0.211178
40
0.161296
50
247.856076
51
38.915613
0
ARC
8
MCD_Layer_0
10
-0.714250
20
0.158829
40
0.322012
50
330.446135
51
357.487180
0
ARC
8
MCD_Layer_0
10
-0.618136
20
0.143320
40
0.314366
50
332.876948
51
358.741940
0
ARC
8
MCD_Layer_0
10
-0.077519
20
0.156647
40
0.328457
50
331.515805
51
357.917590
0
ENDSEC
0
EOF
