0
SECTION
2
ENTITIES
0
LINE
8
MCD_Layer_0
10
-6.448739
20
4.491814
30
0.0
11
-7.591226
21
0.507530
31
0.0
0
LINE
8
MCD_Layer_0
10
-10.461770
20
5.676140
30
0.0
11
-9.046182
21
6.380547
31
0.0
0
LINE
8
MCD_Layer_0
10
-7.162118
20
4.187492
30
0.0
11
-9.315530
21
1.905907
31
0.0
0
LINE
8
MCD_Layer_0
10
-9.425942
20
2.648399
30
0.0
11
-5.521493
21
4.442192
31
0.0
0
LINE
8
MCD_Layer_0
10
-9.139382
20
3.144798
30
0.0
11
-8.207559
21
1.479637
31
0.0
0
LINE
8
MCD_Layer_0
10
-7.347604
20
1.538231
30
0.0
11
-10.136025
21
1.833397
31
0.0
0
LINE
8
MCD_Layer_0
10
-5.087899
20
5.712761
30
0.0
11
-10.276467
21
3.366173
31
0.0
0
LINE
8
MCD_Layer_0
10
-7.803445
20
4.568535
30
0.0
11
-10.036416
21
3.423119
31
0.0
0
LINE
8
MCD_Layer_0
10
-7.903054
20
3.447289
30
0.0
11
-4.789620
21
1.171471
31
0.0
0
LINE
8
MCD_Layer_0
10
-9.026223
20
4.679863
30
0.0
11
-8.769143
21
4.028923
31
0.0
0
LINE
8
MCD_Layer_0
10
-8.578347
20
0.943687
30
0.0
11
-10.386147
21
5.368889
31
0.0
0
LINE
8
MCD_Layer_0
10
-8.099160
20
4.113884
30
0.0
11
-10.037332
21
5.691704
31
0.0
0
LINE
8
MCD_Layer_0
10
-10.023782
20
3.300072
30
0.0
11
-7.461129
21
2.446983
31
0.0
0
LINE
8
MCD_Layer_0
10
-10.401895
20
0.751976
30
0.0
11
-6.710031
21
2.697472
31
0.0
0
LINE
8
MCD_Layer_0
10
-6.137094
20
1.326561
30
0.0
11
-7.796487
21
1.807945
31
0.0
0
LINE
8
MCD_Layer_0
10
-8.305520
20
2.198692
30
0.0
11
-5.078927
21
6.351433
31
0.0
0
LINE
8
MCD_Layer_0
10
-8.123513
20
2.507042
30
0.0
11
-9.446084
21
2.416222
31
0.0
0
LINE
8
MCD_Layer_0
10
-7.117623
20
1.619713
30
0.0
11
-6.367257
21
1.502342
31
0.0
0
LINE
8
MCD_Layer_0
10
-10.067178
20
5.709831
30
0.0
11
-4.866525
21
5.197136
31
0.0
0
LINE
8
MCD_Layer_0
10
-7.567971
20
2.786827
30
0.0
11
-5.738107
21
5.578362
31
0.0
0
LINE
8
MCD_Layer_0
10
-8.250405
20
3.314537
30
0.0
11
-7.415353
21
4.763725
31
0.0
0
LINE
8
MCD_Layer_0
10
-5.879647
20
1.260826
30
0.0
11
-6.951180
21
4.020500
31
0.0
0
LINE
8
MCD_Layer_0
10
-10.273355
20
6.340996
30
0.0
11
-9.969216
21
0.652916
31
0.0
0
LINE
8
MCD_Layer_0
10
-5.642526
20
5.079399
30
0.0
11
-7.581613
21
2.342247
31
0.0
0
LINE
8
MCD_Layer_0
10
-7.590859
20
3.473106
30
0.0
11
-7.591409
21
3.475029
31
0.0
0
LINE
8
MCD_Layer_0
10
-6.015054
20
6.038048
30
0.0
11
-4.979684
21
5.850456
31
0.0
0
LINE
8
MCD_Layer_0
10
-4.862679
20
5.846611
30
0.0
11
-5.121224
21
5.944206
31
0.0
0
LINE
8
MCD_Layer_0
10
-5.119943
20
6.061485
30
0.0
11
-6.631478
21
1.949394
31
0.0
0
LINE
8
MCD_Layer_0
10
-7.404000
20
1.898491
30
0.0
11
-6.631478
21
4.949394
31
0.0
0
LINE
8
MCD_Layer_0
10
-9.971231
20
4.962669
30
0.0
11
-7.586007
21
3.473106
31
0.0
0
LINE
8
MCD_Layer_0
10
-7.591409
20
3.473656
30
0.0
11
-5.804116
21
6.060936
31
0.0
0
LINE
8
MCD_Layer_0
10
-7.582253
20
3.473198
30
0.0
11
-7.544625
21
3.473198
31
0.0
0
LINE
8
MCD_Layer_0
10
-7.825875
20
3.383110
30
0.0
11
-8.218637
21
3.539116
31
0.0
0
LINE
8
MCD_Layer_0
10
-7.820107
20
3.383110
30
0.0
11
-9.273324
21
2.093132
31
0.0
0
LINE
8
MCD_Layer_0
10
-7.585824
20
3.473198
30
0.0
11
-7.568063
21
3.473198
31
0.0
0
LINE
8
MCD_Layer_0
10
-7.521188
20
3.484917
30
0.0
11
-7.591500
21
3.520073
31
0.0
0
LINE
8
MCD_Layer_0
10
-7.591500
20
3.238823
30
0.0
11
-7.681588
21
1.791374
31
0.0
0
LINE
8
MCD_Layer_0
10
-8.971566
20
6.033562
30
0.0
11
-8.437539
21
1.791374
31
0.0
0
LINE
8
MCD_Layer_0
10
-8.971566
20
3.478874
30
0.0
11
-7.591500
21
3.496635
31
0.0
0
LINE
8
MCD_Layer_0
10
-7.591500
20
3.543510
30
0.0
11
-7.579782
21
3.473198
31
0.0
0
LINE
8
MCD_Layer_0
10
-7.544625
20
3.473198
30
0.0
11
-5.036813
21
2.627159
31
0.0
0
LINE
8
MCD_Layer_0
10
-9.273324
20
2.093132
30
0.0
11
-5.031137
21
2.627159
31
0.0
0
LINE
8
MCD_Layer_0
10
-7.257699
20
4.649193
30
0.0
11
-7.585824
21
3.473198
31
0.0
0
LINE
8
MCD_Layer_0
10
-7.568063
20
3.473198
30
0.0
11
-7.521188
21
3.484917
31
0.0
0
LINE
8
MCD_Layer_0
10
-7.591500
20
3.520073
30
0.0
11
-7.591500
21
6.027885
31
0.0
0
LINE
8
MCD_Layer_0
10
-8.437539
20
3.806999
30
0.0
11
-6.415505
21
4.017937
31
0.0
0
LINE
8
MCD_Layer_0
10
-7.993508
20
5.213249
30
0.0
11
-7.543527
21
3.478874
31
0.0
0
LINE
8
MCD_Layer_0
10
-7.591500
20
3.496635
30
0.0
11
-7.591500
21
3.449760
31
0.0
0
LINE
8
MCD_Layer_0
10
-7.544717
20
3.566948
30
0.0
11
-6.021188
21
6.151024
31
0.0
0
LINE
8
MCD_Layer_0
10
-7.582437
20
3.473198
30
0.0
11
-7.521188
21
3.473198
31
0.0
0
LINE
8
MCD_Layer_0
10
-7.052438
20
3.071190
30
0.0
11
-5.851449
21
3.521172
31
0.0
0
LINE
8
MCD_Layer_0
10
-8.453012
20
1.199120
30
0.0
11
-7.538949
21
3.641197
31
0.0
0
LINE
8
MCD_Layer_0
10
-10.234353
20
4.733147
30
0.0
11
-7.890512
21
5.465111
31
0.0
0
LINE
8
MCD_Layer_0
10
-7.574288
20
3.473198
30
0.0
11
-7.568063
21
3.473198
31
0.0
0
LINE
8
MCD_Layer_0
10
-7.404000
20
3.484917
30
0.0
11
-7.591500
21
3.543510
31
0.0
0
LINE
8
MCD_Layer_0
10
-7.591500
20
0.824760
30
0.0
11
-6.331552
21
3.174187
31
0.0
0
LINE
8
MCD_Layer_0
10
-5.599587
20
2.529472
30
0.0
11
-7.951577
21
5.541283
31
0.0
0
LINE
8
MCD_Layer_0
10
-9.367532
20
2.459160
30
0.0
11
-8.119576
21
2.259941
31
0.0
0
LINE
8
MCD_Layer_0
10
-8.791574
20
3.490410
30
0.0
11
-7.591500
21
3.496635
31
0.0
0
LINE
8
MCD_Layer_0
10
-7.591500
20
3.660698
30
0.0
11
-7.579782
21
3.473198
31
0.0
0
LINE
8
MCD_Layer_0
10
-7.521188
20
3.473198
30
0.0
11
-8.622750
21
2.945122
31
0.0
0
LINE
8
MCD_Layer_0
10
-8.804757
20
2.273125
30
0.0
11
-9.332101
21
3.257133
31
0.0
0
LINE
8
MCD_Layer_0
10
-9.707009
20
5.081139
30
0.0
11
-8.172036
21
5.957115
31
0.0
0
LINE
8
MCD_Layer_0
10
-8.605355
20
5.945122
30
0.0
11
-7.585916
21
3.473198
31
0.0
0
LINE
8
MCD_Layer_0
10
-7.568063
20
3.473198
30
0.0
11
-7.404000
21
3.484917
31
0.0
0
LINE
8
MCD_Layer_0
10
-7.591500
20
3.543510
30
0.0
11
-7.591500
21
2.887260
31
0.0
0
LINE
8
MCD_Layer_0
10
-5.107583
20
2.459343
30
0.0
11
-5.119576
21
3.197533
31
0.0
0
LINE
8
MCD_Layer_0
10
-9.349587
20
2.037468
30
0.0
11
-6.631570
21
3.056999
31
0.0
0
LINE
8
MCD_Layer_0
10
-8.353585
20
3.631218
30
0.0
11
-10.087502
21
3.478874
31
0.0
0
LINE
8
MCD_Layer_0
10
-7.591500
20
3.496635
30
0.0
11
-7.591500
21
3.660698
31
0.0
0
LINE
8
MCD_Layer_0
10
-7.579782
20
3.473198
30
0.0
11
-7.521188
21
3.473198
31
0.0
0
LINE
8
MCD_Layer_0
10
-8.013375
20
2.711113
30
0.0
11
-7.433480
21
0.977196
31
0.0
0
LINE
8
MCD_Layer_0
10
-10.046762
20
3.155144
30
0.0
11
-4.925668
21
2.213158
31
0.0
0
LINE
8
MCD_Layer_0
10
-7.820199
20
3.383110
30
0.0
11
-7.269418
21
3.731194
31
0.0
0
LINE
8
MCD_Layer_0
10
-7.585732
20
3.473198
30
0.0
11
-7.568063
21
3.473198
31
0.0
0
LINE
8
MCD_Layer_0
10
-7.591500
20
3.238823
30
0.0
11
-7.681588
21
3.795280
31
0.0
0
LINE
8
MCD_Layer_0
10
-7.333505
20
5.353966
30
0.0
11
-7.789529
21
4.170280
31
0.0
0
LINE
8
MCD_Layer_0
10
-6.739511
20
5.189903
30
0.0
11
-8.293527
21
0.748405
31
0.0
0
LINE
8
MCD_Layer_0
10
-5.917550
20
3.478966
30
0.0
11
-7.591500
21
3.496635
31
0.0
0
LINE
8
MCD_Layer_0
10
-7.521188
20
3.473198
30
0.0
11
-5.880563
21
2.771172
31
0.0
0
LINE
8
MCD_Layer_0
10
-10.316293
20
5.147148
30
0.0
11
-5.265420
21
1.787163
31
0.0
0
LINE
8
MCD_Layer_0
10
-8.136605
20
5.957115
30
0.0
11
-6.484170
21
0.587181
31
0.0
0
LINE
8
MCD_Layer_0
10
-6.706918
20
0.497185
30
0.0
11
-7.585732
21
3.473198
31
0.0
0
LINE
8
MCD_Layer_0
10
-7.591500
20
3.543510
30
0.0
11
-7.591500
21
4.574760
31
0.0
0
LINE
8
MCD_Layer_0
10
-10.477517
20
4.357780
30
0.0
11
-10.567513
21
5.635216
31
0.0
0
LINE
8
MCD_Layer_0
10
-7.531533
20
5.717155
30
0.0
11
-10.363534
21
1.158653
31
0.0
0
LINE
8
MCD_Layer_0
10
-9.655557
20
5.506035
30
0.0
11
-10.285531
21
3.478966
31
0.0
0
LINE
8
MCD_Layer_0
10
-9.911813
20
1.409142
30
0.0
11
-5.558663
21
0.779167
31
0.0
0
LINE
8
MCD_Layer_0
10
-7.984170
20
3.629112
30
0.0
11
-7.398324
21
0.770195
31
0.0
0
LINE
8
MCD_Layer_0
10
-6.343545
20
6.341179
30
0.0
11
-9.460824
21
0.671135
31
0.0
0
LINE
8
MCD_Layer_0
10
-7.591500
20
4.715385
30
0.0
11
-4.723519
21
1.603874
31
0.0
0
LINE
8
MCD_Layer_0
10
-10.393563
20
4.205528
30
0.0
11
-10.321511
21
2.986687
31
0.0
0
LINE
8
MCD_Layer_0
10
-10.396585
20
4.674278
30
0.0
11
-10.141519
21
5.166374
31
0.0
0
LINE
8
MCD_Layer_0
10
-10.336526
20
3.478966
30
0.0
11
-7.591500
21
3.496635
31
0.0
0
LINE
8
MCD_Layer_0
10
-7.544625
20
3.473198
30
0.0
11
-6.396188
21
0.923180
31
0.0
0
LINE
8
MCD_Layer_0
10
-5.898324
20
0.728172
30
0.0
11
-6.554482
21
1.751183
31
0.0
0
LINE
8
MCD_Layer_0
10
-5.898324
20
0.728172
30
0.0
11
-7.585732
21
3.473198
31
0.0
0
LINE
8
MCD_Layer_0
10
-7.591500
20
3.520073
30
0.0
11
-7.591500
21
4.504448
31
0.0
0
LINE
8
MCD_Layer_0
10
-9.313516
20
5.166374
30
0.0
11
-10.336526
21
2.049278
31
0.0
0
LINE
8
MCD_Layer_0
10
-8.881570
20
5.166374
30
0.0
11
-10.336526
21
3.478966
31
0.0
0
LINE
8
MCD_Layer_0
10
-7.591500
20
3.496635
30
0.0
11
-7.591500
21
3.543510
31
0.0
0
LINE
8
MCD_Layer_0
10
-7.579782
20
3.473198
30
0.0
11
-7.544625
21
3.473198
31
0.0
0
LINE
8
MCD_Layer_0
10
-9.021188
20
2.183128
30
0.0
11
-5.898324
21
0.728172
31
0.0
0
LINE
8
MCD_Layer_0
10
-9.015420
20
2.183128
30
0.0
11
-10.328012
21
5.147148
31
0.0
0
LINE
8
MCD_Layer_0
10
-7.591500
20
2.043510
30
0.0
11
-8.881570
21
0.736687
31
0.0
0
LINE
8
MCD_Layer_0
10
-5.917550
20
6.361778
30
0.0
11
-10.261544
21
0.736687
31
0.0
0
LINE
8
MCD_Layer_0
10
-7.521188
20
3.473198
30
0.0
11
-4.708688
21
0.803154
31
0.0
0
LINE
8
MCD_Layer_0
10
-10.328012
20
5.147148
30
0.0
11
-5.195107
21
0.623161
31
0.0
0
LINE
8
MCD_Layer_0
10
-5.710824
20
5.525169
30
0.0
11
-8.171670
21
5.957115
31
0.0
0
LINE
8
MCD_Layer_0
10
-10.140512
20
5.819145
30
0.0
11
-7.585732
21
3.473198
31
0.0
0
LINE
8
MCD_Layer_0
10
-5.107583
20
0.924187
30
0.0
11
-5.245553
21
0.877403
31
0.0
0
LINE
8
MCD_Layer_0
10
-6.163552
20
4.205437
30
0.0
11
-5.071511
21
3.853966
31
0.0
0
LINE
8
MCD_Layer_0
10
-9.247506
20
3.830345
30
0.0
11
-4.915505
21
3.478966
31
0.0
0
LINE
8
MCD_Layer_0
10
-7.216500
20
1.817192
30
0.0
11
-7.234353
21
6.149193
31
0.0
0
LINE
8
MCD_Layer_0
10
-5.054482
20
6.377159
30
0.0
11
-9.636697
21
5.999138
31
0.0
0
LINE
8
MCD_Layer_0
10
-5.968545
20
4.685173
30
0.0
11
-4.644418
21
5.471153
31
0.0
0
LINE
8
MCD_Layer_0
10
-7.591500
20
5.090385
30
0.0
11
-6.379525
21
6.420280
31
0.0
0
LINE
8
MCD_Layer_0
10
-5.593545
20
2.189903
30
0.0
11
-4.627572
21
2.107780
31
0.0
0
LINE
8
MCD_Layer_0
10
-6.463571
20
2.025841
30
0.0
11
-10.381570
21
4.685905
31
0.0
0
LINE
8
MCD_Layer_0
10
-7.141519
20
3.478966
30
0.0
11
-7.591500
21
3.496635
31
0.0
0
LINE
8
MCD_Layer_0
10
-7.521188
20
3.473198
30
0.0
11
-9.044625
21
0.683128
31
0.0
0
LINE
8
MCD_Layer_0
10
-6.378793
20
3.923180
30
0.0
11
-8.640420
21
0.527122
31
0.0
0
LINE
8
MCD_Layer_0
10
-5.699105
20
2.525169
30
0.0
11
-8.359262
21
5.285118
31
0.0
0
LINE
8
MCD_Layer_0
10
-9.589730
20
0.917137
30
0.0
11
-7.585824
21
3.473198
31
0.0
0
LINE
8
MCD_Layer_0
10
-7.591500
20
3.543510
30
0.0
11
-7.591500
21
2.699760
31
0.0
0
LINE
8
MCD_Layer_0
10
-5.779580
20
1.474968
30
0.0
11
-10.147561
21
0.783562
31
0.0
0
LINE
8
MCD_Layer_0
10
-7.999551
20
3.092064
30
0.0
11
-5.935586
21
5.705437
31
0.0
0
LINE
8
MCD_Layer_0
10
-8.695535
20
5.365410
30
0.0
11
-7.039529
21
3.478874
31
0.0
0
LINE
8
MCD_Layer_0
10
-5.364938
20
2.369164
30
0.0
11
-5.699288
21
4.025169
31
0.0
0
LINE
8
MCD_Layer_0
10
-6.296762
20
2.009178
30
0.0
11
-8.359353
21
3.785118
31
0.0
0
LINE
8
MCD_Layer_0
10
-5.640512
20
5.861168
30
0.0
11
-5.429574
21
5.033165
31
0.0
0
LINE
8
MCD_Layer_0
10
-7.591500
20
5.418510
30
0.0
11
-5.203530
21
5.635124
31
0.0
0
LINE
8
MCD_Layer_0
10
-6.031533
20
5.424187
30
0.0
11
-5.203530
21
1.791374
31
0.0
0
LINE
8
MCD_Layer_0
10
-7.544625
20
3.473198
30
0.0
11
-5.646188
21
5.861168
31
0.0
0
LINE
8
MCD_Layer_0
10
-9.273324
20
2.093132
30
0.0
11
-7.890512
21
3.965111
31
0.0
0
LINE
8
MCD_Layer_0
10
-9.273324
20
2.093132
30
0.0
11
-7.585824
21
3.473198
31
0.0
0
LINE
8
MCD_Layer_0
10
-7.591500
20
3.520073
30
0.0
11
-7.591500
21
3.168510
31
0.0
0
LINE
8
MCD_Layer_0
10
-7.099587
20
1.791374
30
0.0
11
-8.971566
21
3.174187
31
0.0
0
LINE
8
MCD_Layer_0
10
-7.099587
20
2.846062
30
0.0
11
-7.525582
21
3.478966
31
0.0
0
LINE
8
MCD_Layer_0
10
-7.896188
20
3.965111
30
0.0
11
-8.218637
21
3.539116
31
0.0
0
LINE
8
MCD_Layer_0
10
-7.820107
20
3.383110
30
0.0
11
-8.218637
21
3.539116
31
0.0
0
LINE
8
MCD_Layer_0
10
-7.591500
20
5.699760
30
0.0
11
-8.113534
21
2.096062
31
0.0
0
LINE
8
MCD_Layer_0
10
-7.963571
20
5.705437
30
0.0
11
-8.113534
21
1.955437
31
0.0
0
LINE
8
MCD_Layer_0
10
-8.467568
20
3.478874
30
0.0
11
-7.591500
21
3.496635
31
0.0
0
LINE
8
MCD_Layer_0
10
-7.544625
20
3.473198
30
0.0
11
-5.364938
21
2.951164
31
0.0
0
LINE
8
MCD_Layer_0
10
-9.109262
20
2.597130
30
0.0
11
-5.031137
21
2.627159
31
0.0
0
LINE
8
MCD_Layer_0
10
-9.109262
20
2.597130
30
0.0
11
-7.585824
21
3.473198
31
0.0
0
LINE
8
MCD_Layer_0
10
-7.591500
20
3.543510
30
0.0
11
-7.591500
21
6.027885
31
0.0
0
LINE
8
MCD_Layer_0
10
-8.437539
20
1.955437
30
0.0
11
-8.467568
21
5.072624
31
0.0
0
LINE
8
MCD_Layer_0
10
-8.797524
20
2.752312
30
0.0
11
-8.611581
21
5.869499
31
0.0
0
LINE
8
MCD_Layer_0
10
-8.941537
20
1.791374
30
0.0
11
-8.971566
21
3.478874
31
0.0
0
LINE
8
MCD_Layer_0
10
-5.200875
20
2.123161
30
0.0
11
-9.273324
21
2.093132
31
0.0
0
LINE
8
MCD_Layer_0
10
-5.195199
20
2.123161
30
0.0
11
-7.374887
21
4.145195
31
0.0
0
LINE
8
MCD_Layer_0
10
-7.591500
20
5.863823
30
0.0
11
-8.941537
21
3.689812
31
0.0
0
LINE
8
MCD_Layer_0
10
-6.919503
20
2.096062
30
0.0
11
-8.713571
21
2.658562
31
0.0
0
LINE
8
MCD_Layer_0
10
-7.447579
20
3.478874
30
0.0
11
-7.591500
21
3.496635
31
0.0
0
LINE
8
MCD_Layer_0
10
-7.521188
20
3.473198
30
0.0
11
-8.974313
21
2.351128
31
0.0
0
LINE
8
MCD_Layer_0
10
-8.406137
20
3.617119
30
0.0
11
-7.257699
21
0.899193
31
0.0
0
LINE
8
MCD_Layer_0
10
-10.234262
20
6.233147
30
0.0
11
-5.148416
21
4.541161
31
0.0
0
LINE
8
MCD_Layer_0
10
-6.437387
20
1.505180
30
0.0
11
-7.586007
21
3.473198
31
0.0
0
LINE
8
MCD_Layer_0
10
-7.591500
20
3.543510
30
0.0
11
-7.591500
21
5.910698
31
0.0
0
LINE
8
MCD_Layer_0
10
-6.523538
20
4.627312
30
0.0
11
-9.559518
21
5.447441
31
0.0
0
LINE
8
MCD_Layer_0
10
-6.703530
20
1.345970
30
0.0
11
-8.983560
21
0.525475
31
0.0
0
LINE
8
MCD_Layer_0
10
-7.339547
20
6.467155
30
0.0
11
-6.175546
21
3.478783
31
0.0
0
LINE
8
MCD_Layer_0
10
-10.544625
20
3.725151
30
0.0
11
-4.597543
21
4.889153
31
0.0
0
LINE
8
MCD_Layer_0
10
-6.062478
20
0.599174
30
0.0
11
-7.574105
21
3.473198
31
0.0
0
LINE
8
MCD_Layer_0
10
-9.695199
20
1.331139
30
0.0
11
-8.863168
21
4.937126
31
0.0
0
LINE
8
MCD_Layer_0
10
-7.591500
20
1.363823
30
0.0
11
-9.733560
21
2.201530
31
0.0
0
LINE
8
MCD_Layer_0
10
-6.127572
20
5.447624
30
0.0
11
-8.953530
21
5.740593
31
0.0
0
LINE
8
MCD_Layer_0
10
-10.195535
20
4.767937
30
0.0
11
-8.305520
21
4.123405
31
0.0
0
LINE
8
MCD_Layer_0
10
-8.407510
20
3.478874
30
0.0
11
-7.591500
21
3.496635
31
0.0
0
LINE
8
MCD_Layer_0
10
-7.521188
20
3.473198
30
0.0
11
-6.302438
21
2.759178
31
0.0
0
LINE
8
MCD_Layer_0
10
-6.941293
20
2.657188
30
0.0
11
-7.960824
21
2.879112
31
0.0
0
LINE
8
MCD_Layer_0
10
-7.878793
20
3.965111
30
0.0
11
-8.452920
21
2.699120
31
0.0
0
LINE
8
MCD_Layer_0
10
-9.191293
20
4.511131
30
0.0
11
-7.585732
21
3.473198
31
0.0
0
LINE
8
MCD_Layer_0
10
-7.591500
20
3.543510
30
0.0
11
-7.591500
21
2.606010
31
0.0
0
LINE
8
MCD_Layer_0
10
-8.365579
20
1.873405
30
0.0
11
-6.553567
21
2.049278
31
0.0
0
LINE
8
MCD_Layer_0
10
-8.881570
20
6.115593
30
0.0
11
-5.851541
21
0.900841
31
0.0
0
LINE
8
MCD_Layer_0
10
-9.913552
20
6.139030
30
0.0
11
-5.101541
21
3.478966
31
0.0
0
LINE
8
MCD_Layer_0
10
-10.169625
20
1.151146
30
0.0
11
-4.925668
21
5.963158
31
0.0
0
LINE
8
MCD_Layer_0
10
-4.702920
20
6.053154
30
0.0
11
-5.886605
21
6.353172
31
0.0
0
LINE
8
MCD_Layer_0
10
-6.179482
20
2.345177
30
0.0
11
-10.222634
21
0.608147
31
0.0
0
LINE
8
MCD_Layer_0
10
-7.591500
20
4.879448
30
0.0
11
-8.719522
21
0.842064
31
0.0
0
LINE
8
MCD_Layer_0
10
-10.456552
20
1.041466
30
0.0
11
-10.159554
21
4.814720
31
0.0
0
LINE
8
MCD_Layer_0
10
-10.387521
20
3.572716
30
0.0
11
-5.755502
21
3.619499
31
0.0
0
LINE
8
MCD_Layer_0
10
-10.462502
20
3.478966
30
0.0
11
-7.591500
21
3.496635
31
0.0
0
LINE
8
MCD_Layer_0
10
-7.521188
20
3.473198
30
0.0
11
-7.497750
21
5.309196
31
0.0
0
LINE
8
MCD_Layer_0
10
-7.445199
20
0.602196
30
0.0
11
-7.257607
21
6.149193
31
0.0
0
LINE
8
MCD_Layer_0
10
-5.968637
20
0.560173
30
0.0
11
-8.218545
21
0.539116
31
0.0
0
LINE
8
MCD_Layer_0
10
-5.429574
20
0.533165
30
0.0
11
-7.585732
21
3.473198
31
0.0
0
LINE
8
MCD_Layer_0
10
-7.591500
20
3.543510
30
0.0
11
-7.591500
21
2.840385
31
0.0
0
LINE
8
MCD_Layer_0
10
-10.525582
20
5.635124
30
0.0
11
-10.531533
21
3.408653
31
0.0
0
LINE
8
MCD_Layer_0
10
-10.009591
20
2.424187
30
0.0
11
-10.537576
21
0.502403
31
0.0
0
LINE
8
MCD_Layer_0
10
-9.757546
20
3.619499
30
0.0
11
-10.462502
21
3.478966
31
0.0
0
LINE
8
MCD_Layer_0
10
-10.568063
20
1.307152
30
0.0
11
-7.445199
21
0.602196
31
0.0
0
LINE
8
MCD_Layer_0
10
-6.554482
20
1.751183
30
0.0
11
-7.445199
21
0.602196
31
0.0
0
LINE
8
MCD_Layer_0
10
-7.591500
20
4.504448
30
0.0
11
-9.313516
21
3.619499
31
0.0
0
LINE
8
MCD_Layer_0
10
-10.462502
20
4.510216
30
0.0
11
-9.313516
21
5.728874
31
0.0
0
LINE
8
MCD_Layer_0
10
-5.695535
20
3.478966
30
0.0
11
-7.591500
21
3.496635
31
0.0
0
LINE
8
MCD_Layer_0
10
-7.544625
20
3.473198
30
0.0
11
-6.560250
21
1.751183
31
0.0
0
LINE
8
MCD_Layer_0
10
-5.335824
20
5.369164
30
0.0
11
-7.163857
21
1.235191
31
0.0
0
LINE
8
MCD_Layer_0
10
-5.335824
20
5.369164
30
0.0
11
-7.585732
21
3.473198
31
0.0
0
LINE
8
MCD_Layer_0
10
-7.591500
20
3.543510
30
0.0
11
-7.591500
21
3.895073
31
0.0
0
LINE
8
MCD_Layer_0
10
-9.829507
20
5.728874
30
0.0
11
-5.695535
21
3.338341
31
0.0
0
LINE
8
MCD_Layer_0
10
-10.345590
20
1.181999
30
0.0
11
-5.155557
21
3.502403
31
0.0
0
LINE
8
MCD_Layer_0
10
-5.923501
20
0.853874
30
0.0
11
-4.831552
21
3.478966
31
0.0
0
LINE
8
MCD_Layer_0
10
-7.568063
20
5.141197
30
0.0
11
-10.210824
21
6.233147
31
0.0
0
LINE
8
MCD_Layer_0
10
-8.171670
20
4.457115
30
0.0
11
-7.374978
21
6.395195
31
0.0
0
LINE
8
MCD_Layer_0
10
-6.179482
20
2.345177
30
0.0
11
-7.222634
21
6.149193
31
0.0
0
LINE
8
MCD_Layer_0
10
-7.591500
20
4.879448
30
0.0
11
-8.719522
21
3.842064
31
0.0
0
LINE
8
MCD_Layer_0
10
-4.915505
20
4.228966
30
0.0
11
-6.403512
21
4.592155
31
0.0
0
LINE
8
MCD_Layer_0
10
-5.227517
20
6.455528
30
0.0
11
-4.675546
21
1.849968
31
0.0
0
LINE
8
MCD_Layer_0
10
-5.803567
20
3.478966
30
0.0
11
-7.591500
21
3.496635
31
0.0
0
LINE
8
MCD_Layer_0
10
-7.521188
20
3.473198
30
0.0
11
-4.614938
21
6.389153
31
0.0
0
LINE
8
MCD_Layer_0
10
-9.214730
20
5.261131
30
0.0
11
-7.656045
21
1.055107
31
0.0
0
LINE
8
MCD_Layer_0
10
-9.660043
20
4.331139
30
0.0
11
-9.741982
21
1.163139
31
0.0
0
LINE
8
MCD_Layer_0
10
-6.800668
20
3.911186
30
0.0
11
-7.585732
21
3.473198
31
0.0
0
LINE
8
MCD_Layer_0
10
-7.591500
20
3.543510
30
0.0
11
-7.591500
21
1.316948
31
0.0
0
LINE
8
MCD_Layer_0
10
-9.901559
20
4.264030
30
0.0
11
-7.153512
21
2.119591
31
0.0
0
LINE
8
MCD_Layer_0
10
-10.045571
20
2.389030
30
0.0
11
-8.455575
21
4.205437
31
0.0
0
LINE
8
MCD_Layer_0
10
-10.321511
20
4.264030
30
0.0
11
-9.403512
21
3.478874
31
0.0
0
LINE
8
MCD_Layer_0
10
-6.864938
20
0.743187
30
0.0
11
-6.800668
21
1.661186
31
0.0
0
LINE
8
MCD_Layer_0
10
-4.796762
20
5.717155
30
0.0
11
-8.464730
21
6.281120
31
0.0
0
LINE
8
MCD_Layer_0
10
-7.890512
20
3.965111
30
0.0
11
-7.292855
21
4.481194
31
0.0
0
LINE
8
MCD_Layer_0
10
-7.591500
20
3.168510
30
0.0
11
-7.099587
21
3.771843
31
0.0
0
LINE
8
MCD_Layer_0
10
-6.583505
20
2.447624
30
0.0
11
-8.119576
21
5.834160
31
0.0
0
LINE
8
MCD_Layer_0
10
-8.359536
20
1.228783
30
0.0
11
-9.487557
21
0.525658
31
0.0
0
LINE
8
MCD_Layer_0
10
-8.839547
20
3.478783
30
0.0
11
-7.591500
21
3.496635
31
0.0
0
LINE
8
MCD_Layer_0
10
-7.521188
20
3.473198
30
0.0
11
-9.841500
21
1.577141
31
0.0
0
LINE
8
MCD_Layer_0
10
-10.539041
20
2.225151
30
0.0
11
-9.226541
21
5.261131
31
0.0
0
LINE
8
MCD_Layer_0
10
-10.117074
20
3.569145
30
0.0
11
-9.460824
21
0.671135
31
0.0
0
LINE
8
MCD_Layer_0
10
-7.591500
20
3.520073
30
0.0
11
-7.591500
21
1.598198
31
0.0
0
LINE
8
MCD_Layer_0
10
-10.393563
20
3.806999
30
0.0
11
-6.415505
21
1.603874
31
0.0
0
LINE
8
MCD_Layer_0
10
-10.393563
20
1.791374
30
0.0
11
-8.971566
21
3.478874
31
0.0
0
LINE
8
MCD_Layer_0
10
-9.466500
20
0.671135
30
0.0
11
-9.273324
21
2.093132
31
0.0
0
LINE
8
MCD_Layer_0
10
-8.640512
20
0.527122
30
0.0
11
-8.312387
21
2.453117
31
0.0
0
LINE
8
MCD_Layer_0
10
-5.640512
20
5.861168
30
0.0
11
-9.109262
21
2.597130
31
0.0
0
LINE
8
MCD_Layer_0
10
-7.591500
20
5.418510
30
0.0
11
-5.203530
21
1.955437
31
0.0
0
LINE
8
MCD_Layer_0
10
-8.467568
20
3.478874
30
0.0
11
-6.091500
21
1.955437
31
0.0
0
LINE
8
MCD_Layer_0
10
-7.544625
20
3.473198
30
0.0
11
-7.591500
21
4.973198
31
0.0
0
LINE
8
MCD_Layer_0
10
-9.109262
20
2.597130
30
0.0
11
-7.585824
21
4.973198
31
0.0
0
LINE
8
MCD_Layer_0
10
-8.968637
20
3.101128
30
0.0
11
-7.585824
21
3.473198
31
0.0
0
LINE
8
MCD_Layer_0
10
-7.591500
20
3.520073
30
0.0
11
-7.591500
21
3.473198
31
0.0
0
LINE
8
MCD_Layer_0
10
-6.091500
20
2.096062
30
0.0
11
-7.963571
21
5.705437
31
0.0
0
LINE
8
MCD_Layer_0
10
-8.113534
20
2.096062
30
0.0
11
-7.963571
21
3.478874
31
0.0
0
LINE
8
MCD_Layer_0
10
-5.350500
20
3.473198
30
0.0
11
-4.306500
21
3.473198
31
0.0
0
LINE
8
MCD_Layer_0
10
-4.306500
20
3.473198
30
0.0
11
-4.306500
21
3.854198
31
0.0
0
LINE
8
MCD_Layer_0
10
-4.306500
20
3.854198
30
0.0
11
-4.528500
21
3.854198
31
0.0
0
LINE
8
MCD_Layer_0
10
-4.528500
20
3.854198
30
0.0
11
-4.528500
21
4.694198
31
0.0
0
LINE
8
MCD_Layer_0
10
-4.462500
20
4.679198
30
0.0
11
-3.967500
21
3.899198
31
0.0
0
LINE
8
MCD_Layer_0
10
-2.680500
20
3.509198
30
0.0
11
-2.845500
21
3.860198
31
0.0
0
LINE
8
MCD_Layer_0
10
-3.508500
20
4.340198
30
0.0
11
-3.769500
21
4.817198
31
0.0
0
LINE
8
MCD_Layer_0
10
-4.324500
20
6.728198
30
0.0
11
-5.365500
21
6.728198
31
0.0
0
LINE
8
MCD_Layer_0
10
-5.365500
20
6.728198
30
0.0
11
-5.365500
21
6.347198
31
0.0
0
LINE
8
MCD_Layer_0
10
-5.365500
20
6.347198
30
0.0
11
-5.143500
21
6.347198
31
0.0
0
LINE
8
MCD_Layer_0
10
-5.143500
20
6.347198
30
0.0
11
-5.143500
21
3.854198
31
0.0
0
LINE
8
MCD_Layer_0
10
-5.143500
20
3.854198
30
0.0
11
-5.350500
21
3.854198
31
0.0
0
LINE
8
MCD_Layer_0
10
-5.350500
20
3.854198
30
0.0
11
-5.350500
21
3.473198
31
0.0
0
LINE
8
MCD_Layer_0
10
-5.224500
20
3.602198
30
0.0
11
-4.432500
21
3.602198
31
0.0
0
LINE
8
MCD_Layer_0
10
-4.432500
20
3.602198
30
0.0
11
-4.432500
21
3.728198
31
0.0
0
LINE
8
MCD_Layer_0
10
-4.432500
20
3.728198
30
0.0
11
-4.528500
21
3.728198
31
0.0
0
LINE
8
MCD_Layer_0
10
-4.654500
20
3.854198
30
0.0
11
-4.654500
21
4.817198
31
0.0
0
LINE
8
MCD_Layer_0
10
-4.384500
20
4.781198
30
0.0
11
-3.868500
21
3.965198
31
0.0
0
LINE
8
MCD_Layer_0
10
-2.839500
20
3.572198
30
0.0
11
-2.899500
21
3.707198
31
0.0
0
LINE
8
MCD_Layer_0
10
-3.526500
20
4.127198
30
0.0
11
-3.922500
21
4.862198
31
0.0
0
LINE
8
MCD_Layer_0
10
-4.450500
20
6.599198
30
0.0
11
-5.239500
21
6.599198
31
0.0
0
LINE
8
MCD_Layer_0
10
-5.239500
20
6.599198
30
0.0
11
-5.239500
21
6.473198
31
0.0
0
LINE
8
MCD_Layer_0
10
-5.239500
20
6.473198
30
0.0
11
-5.143500
21
6.473198
31
0.0
0
LINE
8
MCD_Layer_0
10
-5.017500
20
6.347198
30
0.0
11
-5.017500
21
3.854198
31
0.0
0
LINE
8
MCD_Layer_0
10
-5.143500
20
3.728198
30
0.0
11
-5.224500
21
3.728198
31
0.0
0
LINE
8
MCD_Layer_0
10
-5.224500
20
3.728198
30
0.0
11
-5.224500
21
3.602198
31
0.0
0
LINE
8
MCD_Layer_0
10
-4.654500
20
5.036198
30
0.0
11
-4.654500
21
6.347198
31
0.0
0
LINE
8
MCD_Layer_0
10
-4.654500
20
6.347198
30
0.0
11
-4.402500
21
6.347198
31
0.0
0
LINE
8
MCD_Layer_0
10
-4.528500
20
5.141198
30
0.0
11
-4.381500
21
5.141198
31
0.0
0
LINE
8
MCD_Layer_0
10
-4.528500
20
6.221198
30
0.0
11
-4.402500
21
6.221198
31
0.0
0
LINE
8
MCD_Layer_0
10
-4.528500
20
6.221198
30
0.0
11
-4.528500
21
5.141198
31
0.0
0
LINE
8
MCD_Layer_0
10
2.158500
20
3.404198
30
0.0
11
1.234500
21
6.209198
31
0.0
0
LINE
8
MCD_Layer_0
10
1.042500
20
6.347198
30
0.0
11
0.901500
21
6.347198
31
0.0
0
LINE
8
MCD_Layer_0
10
0.901500
20
6.347198
30
0.0
11
0.901500
21
6.728198
31
0.0
0
LINE
8
MCD_Layer_0
10
0.901500
20
6.728198
30
0.0
11
2.053500
21
6.728198
31
0.0
0
LINE
8
MCD_Layer_0
10
2.053500
20
6.728198
30
0.0
11
2.053500
21
6.347198
31
0.0
0
LINE
8
MCD_Layer_0
10
2.053500
20
6.347198
30
0.0
11
1.813500
21
6.347198
31
0.0
0
LINE
8
MCD_Layer_0
10
1.813500
20
6.347198
30
0.0
11
2.368500
21
4.706198
31
0.0
0
LINE
8
MCD_Layer_0
10
2.368500
20
4.706198
30
0.0
11
2.944500
21
6.347198
31
0.0
0
LINE
8
MCD_Layer_0
10
2.944500
20
6.347198
30
0.0
11
2.713500
21
6.347198
31
0.0
0
LINE
8
MCD_Layer_0
10
2.713500
20
6.347198
30
0.0
11
2.713500
21
6.728198
31
0.0
0
LINE
8
MCD_Layer_0
10
2.713500
20
6.728198
30
0.0
11
3.724500
21
6.728198
31
0.0
0
LINE
8
MCD_Layer_0
10
3.724500
20
6.728198
30
0.0
11
3.724500
21
6.347198
31
0.0
0
LINE
8
MCD_Layer_0
10
3.724500
20
6.347198
30
0.0
11
3.592500
21
6.347198
31
0.0
0
LINE
8
MCD_Layer_0
10
3.403500
20
6.212198
30
0.0
11
2.419500
21
3.404198
31
0.0
0
LINE
8
MCD_Layer_0
10
2.419500
20
3.404198
30
0.0
11
2.158500
21
3.404198
31
0.0
0
LINE
8
MCD_Layer_0
10
2.251500
20
3.530198
30
0.0
11
1.357500
21
6.230198
31
0.0
0
LINE
8
MCD_Layer_0
10
1.090500
20
6.473198
30
0.0
11
1.027500
21
6.473198
31
0.0
0
LINE
8
MCD_Layer_0
10
1.027500
20
6.473198
30
0.0
11
1.027500
21
6.602198
31
0.0
0
LINE
8
MCD_Layer_0
10
1.027500
20
6.602198
30
0.0
11
1.942500
21
6.602198
31
0.0
0
LINE
8
MCD_Layer_0
10
1.942500
20
6.602198
30
0.0
11
1.942500
21
6.473198
31
0.0
0
LINE
8
MCD_Layer_0
10
1.942500
20
6.473198
30
0.0
11
1.849500
21
6.473198
31
0.0
0
LINE
8
MCD_Layer_0
10
1.714500
20
6.281198
30
0.0
11
2.362500
21
4.340198
31
0.0
0
LINE
8
MCD_Layer_0
10
2.362500
20
4.340198
30
0.0
11
3.061500
21
6.311198
31
0.0
0
LINE
8
MCD_Layer_0
10
2.947500
20
6.473198
30
0.0
11
2.839500
21
6.473198
31
0.0
0
LINE
8
MCD_Layer_0
10
2.839500
20
6.473198
30
0.0
11
2.839500
21
6.602198
31
0.0
0
LINE
8
MCD_Layer_0
10
2.839500
20
6.602198
30
0.0
11
3.598500
21
6.602198
31
0.0
0
LINE
8
MCD_Layer_0
10
3.598500
20
6.602198
30
0.0
11
3.598500
21
6.473198
31
0.0
0
LINE
8
MCD_Layer_0
10
3.598500
20
6.473198
30
0.0
11
3.535500
21
6.473198
31
0.0
0
LINE
8
MCD_Layer_0
10
3.298500
20
6.284198
30
0.0
11
2.338500
21
3.530198
31
0.0
0
LINE
8
MCD_Layer_0
10
2.338500
20
3.530198
30
0.0
11
2.251500
21
3.530198
31
0.0
0
LINE
8
MCD_Layer_0
10
4.473000
20
3.473198
30
0.0
11
6.510000
21
3.473198
31
0.0
0
LINE
8
MCD_Layer_0
10
6.510000
20
3.473198
30
0.0
11
6.510000
21
4.277198
31
0.0
0
LINE
8
MCD_Layer_0
10
6.510000
20
4.277198
30
0.0
11
6.132000
21
4.277198
31
0.0
0
LINE
8
MCD_Layer_0
10
6.132000
20
4.277198
30
0.0
11
6.132000
21
4.040198
31
0.0
0
LINE
8
MCD_Layer_0
10
6.069000
20
3.977198
30
0.0
11
5.295000
21
3.977198
31
0.0
0
LINE
8
MCD_Layer_0
10
5.295000
20
3.977198
30
0.0
11
5.295000
21
5.099198
31
0.0
0
LINE
8
MCD_Layer_0
10
5.295000
20
5.099198
30
0.0
11
5.706000
21
5.099198
31
0.0
0
LINE
8
MCD_Layer_0
10
5.706000
20
5.099198
30
0.0
11
5.706000
21
4.895198
31
0.0
0
LINE
8
MCD_Layer_0
10
5.706000
20
4.895198
30
0.0
11
6.099000
21
4.895198
31
0.0
0
LINE
8
MCD_Layer_0
10
6.099000
20
4.895198
30
0.0
11
6.099000
21
5.777198
31
0.0
0
LINE
8
MCD_Layer_0
10
6.099000
20
5.777198
30
0.0
11
5.706000
21
5.777198
31
0.0
0
LINE
8
MCD_Layer_0
10
5.706000
20
5.777198
30
0.0
11
5.706000
21
5.588198
31
0.0
0
LINE
8
MCD_Layer_0
10
5.706000
20
5.588198
30
0.0
11
5.280000
21
5.588198
31
0.0
0
LINE
8
MCD_Layer_0
10
5.280000
20
5.588198
30
0.0
11
5.280000
21
6.221198
31
0.0
0
LINE
8
MCD_Layer_0
10
5.280000
20
6.221198
30
0.0
11
5.895000
21
6.221198
31
0.0
0
LINE
8
MCD_Layer_0
10
5.895000
20
6.221198
30
0.0
11
5.895000
21
5.969198
31
0.0
0
LINE
8
MCD_Layer_0
10
5.895000
20
5.969198
30
0.0
11
6.291000
21
5.969198
31
0.0
0
LINE
8
MCD_Layer_0
10
6.291000
20
5.969198
30
0.0
11
6.291000
21
6.725198
31
0.0
0
LINE
8
MCD_Layer_0
10
6.291000
20
6.725198
30
0.0
11
4.458000
21
6.725198
31
0.0
0
LINE
8
MCD_Layer_0
10
4.458000
20
6.725198
30
0.0
11
4.458000
21
6.347198
31
0.0
0
LINE
8
MCD_Layer_0
10
4.458000
20
6.347198
30
0.0
11
4.680000
21
6.347198
31
0.0
0
LINE
8
MCD_Layer_0
10
4.680000
20
6.347198
30
0.0
11
4.680000
21
3.851198
31
0.0
0
LINE
8
MCD_Layer_0
10
4.680000
20
3.851198
30
0.0
11
4.473000
21
3.851198
31
0.0
0
LINE
8
MCD_Layer_0
10
4.473000
20
3.851198
30
0.0
11
4.473000
21
3.473198
31
0.0
0
LINE
8
MCD_Layer_0
10
4.599000
20
3.599198
30
0.0
11
6.384000
21
3.599198
31
0.0
0
LINE
8
MCD_Layer_0
10
6.384000
20
3.599198
30
0.0
11
6.384000
21
4.151198
31
0.0
0
LINE
8
MCD_Layer_0
10
6.384000
20
4.151198
30
0.0
11
6.258000
21
4.151198
31
0.0
0
LINE
8
MCD_Layer_0
10
6.258000
20
4.151198
30
0.0
11
6.258000
21
3.977198
31
0.0
0
LINE
8
MCD_Layer_0
10
6.132000
20
3.851198
30
0.0
11
5.169000
21
3.851198
31
0.0
0
LINE
8
MCD_Layer_0
10
5.169000
20
3.851198
30
0.0
11
5.169000
21
5.225198
31
0.0
0
LINE
8
MCD_Layer_0
10
5.169000
20
5.225198
30
0.0
11
5.706000
21
5.225198
31
0.0
0
LINE
8
MCD_Layer_0
10
5.832000
20
5.099198
30
0.0
11
5.832000
21
5.021198
31
0.0
0
LINE
8
MCD_Layer_0
10
5.832000
20
5.021198
30
0.0
11
5.973000
21
5.021198
31
0.0
0
LINE
8
MCD_Layer_0
10
5.973000
20
5.021198
30
0.0
11
5.973000
21
5.669198
31
0.0
0
LINE
8
MCD_Layer_0
10
5.973000
20
5.669198
30
0.0
11
5.832000
21
5.669198
31
0.0
0
LINE
8
MCD_Layer_0
10
5.832000
20
5.669198
30
0.0
11
5.832000
21
5.588198
31
0.0
0
LINE
8
MCD_Layer_0
10
5.706000
20
5.462198
30
0.0
11
5.154000
21
5.462198
31
0.0
0
LINE
8
MCD_Layer_0
10
5.154000
20
5.462198
30
0.0
11
5.154000
21
6.347198
31
0.0
0
LINE
8
MCD_Layer_0
10
5.154000
20
6.347198
30
0.0
11
5.895000
21
6.347198
31
0.0
0
LINE
8
MCD_Layer_0
10
6.021000
20
6.221198
30
0.0
11
6.021000
21
6.095198
31
0.0
0
LINE
8
MCD_Layer_0
10
6.021000
20
6.095198
30
0.0
11
6.162000
21
6.095198
31
0.0
0
LINE
8
MCD_Layer_0
10
6.162000
20
6.095198
30
0.0
11
6.162000
21
6.599198
31
0.0
0
LINE
8
MCD_Layer_0
10
6.162000
20
6.599198
30
0.0
11
4.584000
21
6.599198
31
0.0
0
LINE
8
MCD_Layer_0
10
4.584000
20
6.599198
30
0.0
11
4.584000
21
6.473198
31
0.0
0
LINE
8
MCD_Layer_0
10
4.584000
20
6.473198
30
0.0
11
4.680000
21
6.473198
31
0.0
0
LINE
8
MCD_Layer_0
10
4.806000
20
6.347198
30
0.0
11
4.806000
21
3.851198
31
0.0
0
LINE
8
MCD_Layer_0
10
4.680000
20
3.725198
30
0.0
11
4.599000
21
3.725198
31
0.0
0
LINE
8
MCD_Layer_0
10
4.599000
20
3.725198
30
0.0
11
4.599000
21
3.599198
31
0.0
0
LINE
8
MCD_Layer_0
10
7.258915
20
3.473198
30
0.0
11
7.591915
21
3.473198
31
0.0
0
LINE
8
MCD_Layer_0
10
8.830915
20
4.967198
30
0.0
11
8.002915
21
5.783198
31
0.0
0
LINE
8
MCD_Layer_0
10
8.506915
20
6.047198
30
0.0
11
8.506915
21
5.858198
31
0.0
0
LINE
8
MCD_Layer_0
10
8.506915
20
5.858198
30
0.0
11
8.884915
21
5.858198
31
0.0
0
LINE
8
MCD_Layer_0
10
8.884915
20
5.858198
30
0.0
11
8.884915
21
6.758198
31
0.0
0
LINE
8
MCD_Layer_0
10
8.884915
20
6.758198
30
0.0
11
8.599915
21
6.758198
31
0.0
0
LINE
8
MCD_Layer_0
10
7.588915
20
5.291198
30
0.0
11
8.383915
21
4.508198
31
0.0
0
LINE
8
MCD_Layer_0
10
7.621915
20
4.436198
30
0.0
11
7.621915
21
4.565198
31
0.0
0
LINE
8
MCD_Layer_0
10
7.621915
20
4.565198
30
0.0
11
7.258915
21
4.565198
31
0.0
0
LINE
8
MCD_Layer_0
10
7.258915
20
4.565198
30
0.0
11
7.258915
21
3.473198
31
0.0
0
LINE
8
MCD_Layer_0
10
7.384915
20
3.602198
30
0.0
11
7.495915
21
3.602198
31
0.0
0
LINE
8
MCD_Layer_0
10
8.731915
20
4.892198
30
0.0
11
7.972915
21
5.633198
31
0.0
0
LINE
8
MCD_Layer_0
10
8.617915
20
6.080198
30
0.0
11
8.617915
21
5.984198
31
0.0
0
LINE
8
MCD_Layer_0
10
8.617915
20
5.984198
30
0.0
11
8.758915
21
5.984198
31
0.0
0
LINE
8
MCD_Layer_0
10
8.758915
20
5.984198
30
0.0
11
8.758915
21
6.599198
31
0.0
0
LINE
8
MCD_Layer_0
10
8.758915
20
6.599198
30
0.0
11
8.758915
21
6.632198
31
0.0
0
LINE
8
MCD_Layer_0
10
8.758915
20
6.632198
30
0.0
11
8.632915
21
6.632198
31
0.0
0
LINE
8
MCD_Layer_0
10
7.639915
20
5.417198
30
0.0
11
8.461915
21
4.604198
31
0.0
0
LINE
8
MCD_Layer_0
10
7.510915
20
4.343198
30
0.0
11
7.510915
21
4.436198
31
0.0
0
LINE
8
MCD_Layer_0
10
7.510915
20
4.436198
30
0.0
11
7.384915
21
4.436198
31
0.0
0
LINE
8
MCD_Layer_0
10
7.384915
20
4.436198
30
0.0
11
7.384915
21
3.602198
31
0.0
0
LINE
8
MCD_Layer_0
10
-0.259315
20
0.006710
30
0.0
11
0.004494
21
0.493088
31
0.0
0
LINE
8
MCD_Layer_0
10
0.268304
20
0.006710
30
0.0
11
0.004494
21
0.493088
31
0.0
0
LINE
8
MCD_Layer_1
10
-12.038676
20
0.000000
30
0.0
11
12.038676
21
0.000000
31
0.0
0
ARC
8
MCD_Layer_0
10
-4.582092
20
4.305696
40
0.392181
50
72.245492
51
82.145983
0
ARC
8
MCD_Layer_0
10
-0.716963
20
6.252726
40
4.013114
50
215.906151
51
220.148294
0
ARC
8
MCD_Layer_0
10
-3.167102
20
4.230237
40
0.836929
50
222.464527
51
256.568888
0
ARC
8
MCD_Layer_0
10
-3.136274
20
4.306797
40
0.918637
50
255.807831
51
299.745027
0
ARC
8
MCD_Layer_0
10
-3.003894
20
4.080189
40
0.271081
50
216.960623
51
305.753769
0
ARC
8
MCD_Layer_0
10
-2.356764
20
4.814817
40
1.245697
50
202.396047
51
226.102027
0
ARC
8
MCD_Layer_0
10
-4.389625
20
5.796405
40
1.160660
50
302.470891
51
326.523899
0
ARC
8
MCD_Layer_0
10
-4.345125
20
5.687471
40
1.065520
50
330.092280
51
13.831252
0
ARC
8
MCD_Layer_0
10
-4.297936
20
5.689343
40
1.019297
50
14.363195
51
54.117428
0
ARC
8
MCD_Layer_0
10
-4.309196
20
5.752505
40
0.975813
50
51.407051
51
90.898623
0
ARC
8
MCD_Layer_0
10
-4.531500
20
3.851198
40
0.123037
50
178.602831
51
271.397149
0
ARC
8
MCD_Layer_0
10
-4.414385
20
5.525416
40
0.747815
50
251.271235
51
272.290333
0
ARC
8
MCD_Layer_0
10
-2.685960
20
4.753676
40
1.421301
50
213.694022
51
225.140758
0
ARC
8
MCD_Layer_0
10
-3.152800
20
4.244677
40
0.731749
50
222.938760
51
261.378000
0
ARC
8
MCD_Layer_0
10
-3.130416
20
4.205385
40
0.696820
50
259.073337
51
294.676302
0
ARC
8
MCD_Layer_0
10
-3.014895
20
4.004591
40
0.318996
50
230.570043
51
291.207247
0
ARC
8
MCD_Layer_0
10
-2.562915
20
4.620225
40
1.082392
50
207.096938
51
232.788548
0
ARC
8
MCD_Layer_0
10
-4.272921
20
5.620102
40
0.834993
50
294.813702
51
313.278079
0
ARC
8
MCD_Layer_0
10
-4.222263
20
5.647532
40
0.822123
50
309.394246
51
342.198878
0
ARC
8
MCD_Layer_0
10
-4.307423
20
5.680060
40
0.913164
50
341.889205
51
15.506884
0
ARC
8
MCD_Layer_0
10
-4.275283
20
5.700378
40
0.876830
50
14.789022
51
50.833682
0
ARC
8
MCD_Layer_0
10
-4.269005
20
5.788785
40
0.805935
50
47.207823
51
86.478384
0
ARC
8
MCD_Layer_0
10
-4.389000
20
4.517170
40
2.082936
50
85.332364
51
91.691940
0
ARC
8
MCD_Layer_0
10
-5.140500
20
6.350198
40
0.123037
50
358.602937
51
91.397063
0
ARC
8
MCD_Layer_0
10
-5.140500
20
3.851198
40
0.123037
50
268.602886
51
1.397135
0
ARC
8
MCD_Layer_0
10
-4.402420
20
6.166657
40
1.158224
50
257.429306
51
267.917874
0
ARC
8
MCD_Layer_0
10
-4.422724
20
5.761872
40
0.585675
50
17.932330
51
88.021193
0
ARC
8
MCD_Layer_0
10
-4.722497
20
5.705117
40
0.889185
50
340.082267
51
15.463638
0
ARC
8
MCD_Layer_0
10
-4.435678
20
5.590641
40
0.580609
50
302.174915
51
341.061056
0
ARC
8
MCD_Layer_0
10
-4.482970
20
5.751924
40
0.743721
50
272.965006
51
298.640051
0
ARC
8
MCD_Layer_0
10
-4.446879
20
5.624751
40
0.487953
50
277.699961
51
301.834391
0
ARC
8
MCD_Layer_0
10
-4.425766
20
5.583528
40
0.441811
50
302.328136
51
341.617418
0
ARC
8
MCD_Layer_0
10
-4.774585
20
5.706895
40
0.814605
50
341.186803
51
14.379599
0
ARC
8
MCD_Layer_0
10
-4.432920
20
5.744662
40
0.477506
50
19.390690
51
86.347464
0
ARC
8
MCD_Layer_0
10
-0.613796
20
5.054837
40
1.742216
50
178.392905
51
208.052823
0
ARC
8
MCD_Layer_0
10
-0.613794
20
5.152559
40
1.742218
50
151.947196
51
181.607092
0
ARC
8
MCD_Layer_0
10
-0.580543
20
5.166401
40
1.765272
50
133.305667
51
152.851251
0
ARC
8
MCD_Layer_0
10
-0.862623
20
5.392690
40
1.408015
50
108.544382
51
131.268147
0
ARC
8
MCD_Layer_0
10
-0.910792
20
5.465188
40
1.324154
50
88.898039
51
107.565954
0
ARC
8
MCD_Layer_0
10
-0.860585
20
5.460181
40
1.329147
50
72.469418
51
91.066589
0
ARC
8
MCD_Layer_0
10
-0.908030
20
5.392690
40
1.408015
50
48.731853
51
71.455618
0
ARC
8
MCD_Layer_0
10
-1.203730
20
5.156166
40
1.782064
50
27.241727
51
46.601355
0
ARC
8
MCD_Layer_0
10
-1.152075
20
5.154283
40
1.737185
50
358.331364
51
28.076826
0
ARC
8
MCD_Layer_0
10
-1.152073
20
5.053112
40
1.737183
50
331.923155
51
1.668640
0
ARC
8
MCD_Layer_0
10
-1.203731
20
5.051230
40
1.782065
50
313.398662
51
332.758294
0
ARC
8
MCD_Layer_0
10
-0.908029
20
4.814702
40
1.408011
50
288.544372
51
311.268197
0
ARC
8
MCD_Layer_0
10
-0.856999
20
4.722567
40
1.304570
50
268.768958
51
287.706454
0
ARC
8
MCD_Layer_0
10
-0.914264
20
4.718071
40
1.300101
50
252.258890
51
271.288618
0
ARC
8
MCD_Layer_0
10
-0.862624
20
4.814702
40
1.408011
50
228.731803
51
251.455628
0
ARC
8
MCD_Layer_0
10
-0.580543
20
5.040995
40
1.765273
50
207.148728
51
226.694316
0
ARC
8
MCD_Layer_0
10
-0.549720
20
5.054876
40
1.686314
50
178.340953
51
203.221012
0
ARC
8
MCD_Layer_0
10
-0.549719
20
5.152520
40
1.686314
50
156.778993
51
181.659050
0
ARC
8
MCD_Layer_0
10
-0.626812
20
5.180841
40
1.604306
50
129.710925
51
156.622949
0
ARC
8
MCD_Layer_0
10
-0.868277
20
5.414244
40
1.271007
50
109.207528
51
128.059490
0
ARC
8
MCD_Layer_0
10
-0.895504
20
5.666650
40
1.025298
50
89.431251
51
112.412802
0
ARC
8
MCD_Layer_0
10
-0.875548
20
5.664583
40
1.027361
50
67.610586
51
90.545361
0
ARC
8
MCD_Layer_0
10
-0.902376
20
5.414244
40
1.271007
50
51.940510
51
70.792472
0
ARC
8
MCD_Layer_0
10
-1.140215
20
5.184294
40
1.599333
50
23.319304
51
50.309965
0
ARC
8
MCD_Layer_0
10
-1.221231
20
5.152520
40
1.686312
50
358.340924
51
23.221019
0
ARC
8
MCD_Layer_0
10
-1.221231
20
5.054875
40
1.686311
50
336.778976
51
1.659073
0
ARC
8
MCD_Layer_0
10
-1.143882
20
5.025227
40
1.603542
50
309.735499
51
336.662814
0
ARC
8
MCD_Layer_0
10
-0.911883
20
4.810264
40
1.290582
50
289.351791
51
307.915269
0
ARC
8
MCD_Layer_0
10
-0.878754
20
4.559123
40
1.043945
50
269.639275
51
292.204882
0
ARC
8
MCD_Layer_0
10
-0.892314
20
4.556970
40
1.041795
50
247.771526
51
270.384316
0
ARC
8
MCD_Layer_0
10
-0.858770
20
4.810264
40
1.290582
50
232.084731
51
250.648209
0
ARC
8
MCD_Layer_0
10
-0.623126
20
5.028695
40
1.608539
50
203.394930
51
230.243608
0
ARC
8
MCD_Layer_0
10
0.267148
20
5.132383
40
2.082372
50
180.789295
51
196.725673
0
ARC
8
MCD_Layer_0
10
0.267139
20
5.075014
40
2.082363
50
163.274292
51
179.210742
0
ARC
8
MCD_Layer_0
10
-0.490202
20
5.334356
40
1.282787
50
137.530079
51
164.632913
0
ARC
8
MCD_Layer_0
10
-0.879330
20
5.638838
40
0.791087
50
110.976423
51
134.766281
0
ARC
8
MCD_Layer_0
10
-0.882641
20
5.635074
40
0.793428
50
90.193915
51
110.655879
0
ARC
8
MCD_Layer_0
10
-0.888012
20
5.635074
40
0.793428
50
69.344121
51
89.806085
0
ARC
8
MCD_Layer_0
10
-0.893479
20
5.636449
40
0.794091
50
45.260031
51
68.940005
0
ARC
8
MCD_Layer_0
10
-1.277110
20
5.335665
40
1.279218
50
15.350231
51
42.536821
0
ARC
8
MCD_Layer_0
10
-2.070127
20
5.070033
40
2.114768
50
0.912132
51
16.602834
0
ARC
8
MCD_Layer_0
10
-2.070136
20
5.137364
40
2.114778
50
343.397200
51
359.087832
0
ARC
8
MCD_Layer_0
10
-1.280166
20
4.872928
40
1.282483
50
317.506223
51
344.634340
0
ARC
8
MCD_Layer_0
10
-0.895388
20
4.574859
40
0.798427
50
291.086924
51
314.624522
0
ARC
8
MCD_Layer_0
10
-0.887750
20
4.566269
40
0.787675
50
270.176280
51
290.793360
0
ARC
8
MCD_Layer_0
10
-0.882903
20
4.566269
40
0.787675
50
249.206640
51
269.823720
0
ARC
8
MCD_Layer_0
10
-0.877442
20
4.572437
40
0.795384
50
225.349146
51
248.996628
0
ARC
8
MCD_Layer_0
10
-0.487130
20
4.874243
40
1.286068
50
195.382508
51
222.426900
0
ARC
8
MCD_Layer_0
10
0.098379
20
5.110717
40
1.793120
50
180.224289
51
202.148432
0
ARC
8
MCD_Layer_0
10
0.101344
20
5.096092
40
1.796087
50
157.869902
51
179.757385
0
ARC
8
MCD_Layer_0
10
-0.613734
20
5.420246
40
1.012047
50
128.288951
51
159.619313
0
ARC
8
MCD_Layer_0
10
-0.868415
20
5.569598
40
0.744792
50
91.301079
51
120.001370
0
ARC
8
MCD_Layer_0
10
-0.902238
20
5.569598
40
0.744792
50
59.998630
51
88.698921
0
ARC
8
MCD_Layer_0
10
-1.159284
20
5.419171
40
1.014357
50
20.397015
51
51.643845
0
ARC
8
MCD_Layer_0
10
-1.864811
20
5.096771
40
1.788898
50
0.221864
51
22.200297
0
ARC
8
MCD_Layer_0
10
-1.861865
20
5.110041
40
1.785950
50
337.781335
51
359.796495
0
ARC
8
MCD_Layer_0
10
-1.159282
20
4.788224
40
1.014355
50
308.356115
51
339.603019
0
ARC
8
MCD_Layer_0
10
-0.902236
20
4.637792
40
0.744786
50
271.300957
51
300.001478
0
ARC
8
MCD_Layer_0
10
-0.868417
20
4.637792
40
0.744786
50
239.998522
51
268.699043
0
ARC
8
MCD_Layer_0
10
-0.613736
20
4.787148
40
1.012045
50
200.380652
51
231.711089
0
ARC
8
MCD_Layer_0
10
1.050447
20
6.155690
40
0.191673
50
16.210138
51
92.376413
0
ARC
8
MCD_Layer_0
10
3.588000
20
6.153698
40
0.193553
50
88.667885
51
162.407471
0
ARC
8
MCD_Layer_0
10
1.014698
20
6.121724
40
0.359555
50
17.559074
51
77.829526
0
ARC
8
MCD_Layer_0
10
1.837299
20
6.338316
40
0.135433
50
84.831284
51
204.944682
0
ARC
8
MCD_Layer_0
10
2.947885
20
6.352358
40
0.120840
50
340.085527
51
90.182881
0
ARC
8
MCD_Layer_0
10
3.565002
20
6.193108
40
0.281639
50
96.012804
51
161.129629
0
ARC
8
MCD_Layer_0
10
6.065250
20
4.043948
40
0.066855
50
273.215314
51
356.784645
0
ARC
8
MCD_Layer_0
10
6.129970
20
3.979227
40
0.128046
50
270.908183
51
359.091817
0
ARC
8
MCD_Layer_0
10
5.709000
20
5.102198
40
0.123037
50
358.602937
51
91.397103
0
ARC
8
MCD_Layer_0
10
5.709000
20
5.585198
40
0.123037
50
268.602758
51
1.397120
0
ARC
8
MCD_Layer_0
10
5.892971
20
6.219169
40
0.128045
50
0.907993
51
89.091925
0
ARC
8
MCD_Layer_0
10
4.677971
20
6.345169
40
0.128045
50
0.908089
51
89.091992
0
ARC
8
MCD_Layer_0
10
4.672313
20
3.858885
40
0.133908
50
273.291038
51
356.708972
0
ARC
8
MCD_Layer_0
10
7.652088
20
3.451164
40
0.064081
50
59.184713
51
159.888593
0
ARC
8
MCD_Layer_0
10
8.121086
20
4.413893
40
1.007053
50
244.334478
51
287.261650
0
ARC
8
MCD_Layer_0
10
8.152836
20
4.345803
40
0.932663
50
286.640246
51
327.099565
0
ARC
8
MCD_Layer_0
10
8.113906
20
4.327807
40
0.956263
50
329.272379
51
20.788144
0
ARC
8
MCD_Layer_0
10
8.249953
20
4.422215
40
0.796570
50
17.911454
51
43.169721
0
ARC
8
MCD_Layer_0
10
8.231247
20
6.014852
40
0.325268
50
184.346903
51
225.413756
0
ARC
8
MCD_Layer_0
10
8.311141
20
5.996827
40
0.404280
50
141.009255
51
180.939536
0
ARC
8
MCD_Layer_0
10
8.197904
20
6.045896
40
0.287308
50
51.967917
51
134.391716
0
ARC
8
MCD_Layer_0
10
8.195853
20
6.015928
40
0.312630
50
5.740406
51
55.057057
0
ARC
8
MCD_Layer_0
10
8.539215
20
6.800498
40
0.073985
50
238.823675
51
325.128473
0
ARC
8
MCD_Layer_0
10
8.140173
20
6.041493
40
0.783671
50
62.592037
51
97.645186
0
ARC
8
MCD_Layer_0
10
8.160620
20
5.995553
40
0.832044
50
98.619828
51
130.078910
0
ARC
8
MCD_Layer_0
10
8.131505
20
5.995130
40
0.813934
50
128.491394
51
161.217490
0
ARC
8
MCD_Layer_0
10
8.263385
20
5.958661
40
0.950566
50
161.695781
51
195.840259
0
ARC
8
MCD_Layer_0
10
8.263729
20
5.962736
40
0.952017
50
196.070531
51
224.860575
0
ARC
8
MCD_Layer_0
10
8.087455
20
4.254768
40
0.390020
50
324.484662
51
40.525523
0
ARC
8
MCD_Layer_0
10
8.114228
20
4.269228
40
0.377617
50
258.495605
51
320.335334
0
ARC
8
MCD_Layer_0
10
8.148387
20
4.437351
40
0.549175
50
224.533883
51
258.501737
0
ARC
8
MCD_Layer_0
10
8.189900
20
4.420150
40
0.568212
50
178.381553
51
220.357955
0
ARC
8
MCD_Layer_0
10
7.603680
20
3.542008
40
0.123435
50
55.881917
51
150.815528
0
ARC
8
MCD_Layer_0
10
8.172169
20
4.559469
40
1.042581
50
241.388788
51
267.127131
0
ARC
8
MCD_Layer_0
10
8.134973
20
4.329812
40
0.811753
50
268.937097
51
313.419080
0
ARC
8
MCD_Layer_0
10
8.091390
20
4.372752
40
0.872902
50
313.559717
51
343.866827
0
ARC
8
MCD_Layer_0
10
8.102351
20
4.321886
40
0.849475
50
346.958618
51
42.172905
0
ARC
8
MCD_Layer_0
10
8.429068
20
6.115959
40
0.664179
50
205.962004
51
226.623271
0
ARC
8
MCD_Layer_0
10
8.293640
20
6.033378
40
0.506487
50
174.013861
51
204.269383
0
ARC
8
MCD_Layer_0
10
8.188915
20
6.041198
40
0.401530
50
128.325532
51
173.565281
0
ARC
8
MCD_Layer_0
10
8.207758
20
6.043399
40
0.411805
50
89.699862
51
130.572662
0
ARC
8
MCD_Layer_0
10
8.198693
20
6.036510
40
0.418839
50
38.842609
51
88.464719
0
ARC
8
MCD_Layer_0
10
8.236895
20
6.047642
40
0.382408
50
4.883778
51
41.133945
0
ARC
8
MCD_Layer_0
10
8.563570
20
6.634292
40
0.069376
50
229.934471
51
358.269912
0
ARC
8
MCD_Layer_0
10
8.190266
20
6.164770
40
0.530493
50
51.719085
51
79.392895
0
ARC
8
MCD_Layer_0
10
8.155474
20
5.880884
40
0.816132
50
80.660820
51
107.510577
0
ARC
8
MCD_Layer_0
10
8.122397
20
6.029272
40
0.664797
50
108.639957
51
148.442329
0
ARC
8
MCD_Layer_0
10
8.183115
20
5.971022
40
0.747234
50
147.072778
51
179.449715
0
ARC
8
MCD_Layer_0
10
8.211932
20
5.942795
40
0.776824
50
177.387915
51
222.578297
0
ARC
8
MCD_Layer_0
10
8.099129
20
4.258501
40
0.501118
50
344.454260
51
43.618222
0
ARC
8
MCD_Layer_0
10
8.121748
20
4.240724
40
0.474691
50
279.967815
51
345.789988
0
ARC
8
MCD_Layer_0
10
8.122349
20
4.380680
40
0.612933
50
234.096869
51
277.647300
0
ARC
8
MCD_Layer_0
10
8.091787
20
4.363431
40
0.581224
50
181.994979
51
235.540324
0
ENDSEC
0
EOF
