0
SECTION
2
ENTITIES
0
LINE
8
MCD_Layer_0
10
-10.375436
20
1.920555
30
0.0
11
-7.303475
21
4.926506
31
0.0
0
LINE
8
MCD_Layer_0
10
-10.327462
20
1.930351
30
0.0
11
-7.303475
21
4.926506
31
0.0
0
LINE
8
MCD_Layer_0
10
-10.327462
20
1.930351
30
0.0
11
-5.287484
21
4.945366
31
0.0
0
LINE
8
MCD_Layer_0
10
-10.590768
20
3.473198
30
0.0
11
-7.591500
21
3.473473
31
0.0
0
LINE
8
MCD_Layer_0
10
-7.591500
20
0.737236
30
0.0
11
-9.134347
21
5.777214
31
0.0
0
LINE
8
MCD_Layer_0
10
-6.119332
20
5.153191
30
0.0
11
-9.135354
21
5.633202
31
0.0
0
LINE
8
MCD_Layer_0
10
-6.119424
20
3.569328
30
0.0
11
-9.136361
21
2.417229
31
0.0
0
LINE
8
MCD_Layer_0
10
-6.119607
20
3.473198
30
0.0
11
-7.591500
21
3.473289
31
0.0
0
LINE
8
MCD_Layer_0
10
-7.495370
20
1.928337
30
0.0
11
-8.647470
21
4.945091
31
0.0
0
LINE
8
MCD_Layer_0
10
-10.279489
20
4.893272
30
0.0
11
-5.143472
21
4.927879
31
0.0
0
LINE
8
MCD_Layer_0
10
-7.591500
20
0.785210
30
0.0
11
-6.171426
21
5.921227
31
0.0
0
LINE
8
MCD_Layer_0
10
-6.136819
20
5.681450
30
0.0
11
-6.156503
21
4.001183
31
0.0
0
LINE
8
MCD_Layer_0
10
-6.141946
20
2.369072
30
0.0
11
-6.146981
21
3.905144
31
0.0
0
LINE
8
MCD_Layer_0
10
-6.149819
20
3.473198
30
0.0
11
-7.591500
21
3.473289
31
0.0
0
LINE
8
MCD_Layer_0
10
-7.591226
20
3.473198
30
0.0
11
-8.695626
21
4.917717
31
0.0
0
LINE
8
MCD_Layer_0
10
-7.159554
20
4.914879
30
0.0
11
-9.079598
21
4.927238
31
0.0
0
LINE
8
MCD_Layer_0
10
-6.007546
20
4.892174
30
0.0
11
-8.839364
21
4.935204
31
0.0
0
LINE
8
MCD_Layer_0
10
-7.591409
20
3.473198
30
0.0
11
-10.590768
21
3.473198
31
0.0
0
LINE
8
MCD_Layer_0
10
-7.591500
20
3.473473
30
0.0
11
-7.591500
21
2.225334
31
0.0
0
LINE
8
MCD_Layer_0
10
-6.129495
20
1.361168
30
0.0
11
-9.171060
21
1.937218
31
0.0
0
LINE
8
MCD_Layer_0
10
-6.120889
20
6.209160
30
0.0
11
-9.171792
21
4.193260
31
0.0
0
LINE
8
MCD_Layer_0
10
-6.117410
20
1.121208
30
0.0
11
-6.179025
21
3.473198
31
0.0
0
LINE
8
MCD_Layer_0
10
-6.871438
20
4.947289
30
0.0
11
-9.943490
21
4.885674
31
0.0
0
LINE
8
MCD_Layer_0
10
-7.831643
20
4.944633
30
0.0
11
-7.015450
21
4.926689
31
0.0
0
LINE
8
MCD_Layer_0
10
-7.591500
20
3.233055
30
0.0
11
-6.120065
21
4.049248
31
0.0
0
LINE
8
MCD_Layer_0
10
-6.138009
20
3.761131
30
0.0
11
-6.123544
21
0.593132
31
0.0
0
LINE
8
MCD_Layer_0
10
-6.140298
20
3.233238
30
0.0
11
-6.125924
21
0.785210
31
0.0
0
LINE
8
MCD_Layer_0
10
-6.136270
20
3.473198
30
0.0
11
-7.591500
21
3.473289
31
0.0
0
LINE
8
MCD_Layer_0
10
-7.591226
20
3.473198
30
0.0
11
-7.831460
21
4.938774
31
0.0
0
LINE
8
MCD_Layer_0
10
-10.279489
20
4.928429
30
0.0
11
-6.007455
21
4.933189
31
0.0
0
LINE
8
MCD_Layer_0
10
-9.751412
20
4.936577
30
0.0
11
-9.895516
21
4.930626
31
0.0
0
LINE
8
MCD_Layer_0
10
-9.895516
20
4.930626
30
0.0
11
-7.783486
21
4.939781
31
0.0
0
LINE
8
MCD_Layer_0
10
-7.255685
20
4.918724
30
0.0
11
-5.335458
21
4.947289
31
0.0
0
LINE
8
MCD_Layer_0
10
-7.591500
20
4.096855
30
0.0
11
-6.145791
21
5.729240
31
0.0
0
LINE
8
MCD_Layer_0
10
-6.117410
20
3.857170
30
0.0
11
-6.136178
21
3.329277
31
0.0
0
LINE
8
MCD_Layer_0
10
-6.115121
20
5.345451
30
0.0
11
-6.131326
21
1.169182
31
0.0
0
LINE
8
MCD_Layer_0
10
-6.113564
20
3.473198
30
0.0
11
-7.591500
21
3.473289
31
0.0
0
LINE
8
MCD_Layer_0
10
-7.591226
20
3.473198
30
0.0
11
-5.719247
21
4.933372
31
0.0
0
LINE
8
MCD_Layer_0
10
-9.895516
20
4.951134
30
0.0
11
-5.527352
21
4.937401
31
0.0
0
LINE
8
MCD_Layer_0
10
-8.503549
20
4.953972
30
0.0
11
-6.391244
21
4.936852
31
0.0
0
LINE
8
MCD_Layer_0
10
-7.591500
20
3.473473
30
0.0
11
-7.591500
21
4.673454
31
0.0
0
LINE
8
MCD_Layer_0
10
-6.127847
20
1.601128
30
0.0
11
-6.107430
21
4.192986
31
0.0
0
LINE
8
MCD_Layer_0
10
-6.132058
20
2.273216
30
0.0
11
-6.105050
21
4.433769
31
0.0
0
LINE
8
MCD_Layer_0
10
-6.141671
20
2.225151
30
0.0
11
-6.103127
21
3.473198
31
0.0
0
LINE
8
MCD_Layer_0
10
-7.591500
20
3.473289
30
0.0
11
-7.591500
21
0.473930
31
0.0
0
LINE
8
MCD_Layer_0
10
-6.630929
20
4.923027
30
0.0
11
-8.839547
21
4.961571
31
0.0
0
LINE
8
MCD_Layer_0
10
-6.009469
20
4.880455
30
0.0
11
-9.367532
21
4.962212
31
0.0
0
LINE
8
MCD_Layer_0
10
-8.647653
20
1.921654
30
0.0
11
-8.311471
21
4.962395
31
0.0
0
LINE
8
MCD_Layer_0
10
-6.871530
20
1.947289
30
0.0
11
-8.311471
21
4.962395
31
0.0
0
LINE
8
MCD_Layer_0
10
-6.871530
20
1.947289
30
0.0
11
-6.103494
21
4.960472
31
0.0
0
LINE
8
MCD_Layer_0
10
-6.199533
20
1.943810
30
0.0
11
-6.103494
21
4.960472
31
0.0
0
LINE
8
MCD_Layer_0
10
-6.199533
20
1.943810
30
0.0
11
-7.303475
21
4.926506
31
0.0
0
LINE
8
MCD_Layer_0
10
-10.231515
20
1.947014
30
0.0
11
-7.303475
21
4.926506
31
0.0
0
LINE
8
MCD_Layer_0
10
-7.255502
20
1.945091
30
0.0
11
-6.823556
21
4.907280
31
0.0
0
LINE
8
MCD_Layer_0
10
-8.935494
20
1.927330
30
0.0
11
-6.823556
21
4.907280
31
0.0
0
LINE
8
MCD_Layer_0
10
-8.935494
20
1.927330
30
0.0
11
-7.111581
21
4.918816
31
0.0
0
LINE
8
MCD_Layer_0
10
-10.327462
20
1.930351
30
0.0
11
-7.111581
21
4.918816
31
0.0
0
LINE
8
MCD_Layer_0
10
-7.591500
20
0.737236
30
0.0
11
-9.134347
21
3.953117
31
0.0
0
LINE
8
MCD_Layer_0
10
-6.145883
20
5.057152
30
0.0
11
-9.131509
21
1.409142
31
0.0
0
LINE
8
MCD_Layer_0
10
-6.143685
20
0.785210
30
0.0
11
-9.130410
21
3.761223
31
0.0
0
LINE
8
MCD_Layer_0
10
-6.138192
20
3.473198
30
0.0
11
-7.591500
21
3.473289
31
0.0
0
LINE
8
MCD_Layer_0
10
-10.279489
20
1.934288
30
0.0
11
-7.303475
21
4.926506
31
0.0
0
LINE
8
MCD_Layer_0
10
-10.279489
20
1.934288
30
0.0
11
-5.335458
21
4.947289
31
0.0
0
LINE
8
MCD_Layer_0
10
-7.591500
20
0.785210
30
0.0
11
-9.130410
21
5.729240
31
0.0
0
LINE
8
MCD_Layer_0
10
-6.117410
20
6.017082
30
0.0
11
-9.134805
21
1.937218
31
0.0
0
LINE
8
MCD_Layer_0
10
-6.117959
20
2.177177
30
0.0
11
-9.139291
21
1.793205
31
0.0
0
LINE
8
MCD_Layer_0
10
-6.118051
20
3.473198
30
0.0
11
-7.591500
21
3.473289
31
0.0
0
LINE
8
MCD_Layer_0
10
-8.887521
20
1.925407
30
0.0
11
-6.199441
21
4.946739
31
0.0
0
LINE
8
MCD_Layer_0
10
-7.927682
20
4.910393
30
0.0
11
-7.975472
21
4.929893
31
0.0
0
LINE
8
MCD_Layer_0
10
-7.591500
20
3.137016
30
0.0
11
-6.154305
21
3.089226
31
0.0
0
LINE
8
MCD_Layer_0
10
-6.134805
20
2.656914
30
0.0
11
-6.146798
21
3.473198
31
0.0
0
LINE
8
MCD_Layer_0
10
-6.138375
20
5.585136
30
0.0
11
-6.140939
21
5.681084
31
0.0
0
LINE
8
MCD_Layer_0
10
-6.144784
20
3.473198
30
0.0
11
-7.591500
21
3.473289
31
0.0
0
LINE
8
MCD_Layer_0
10
-7.591226
20
3.473198
30
0.0
11
-5.479562
21
4.923759
31
0.0
0
LINE
8
MCD_Layer_0
10
-5.383615
20
4.919914
30
0.0
11
-9.895516
21
4.930626
31
0.0
0
LINE
8
MCD_Layer_0
10
-6.247506
20
4.907646
30
0.0
11
-8.839456
21
4.938133
31
0.0
0
LINE
8
MCD_Layer_0
10
-7.591500
20
3.473473
30
0.0
11
-7.591500
21
2.225243
31
0.0
0
LINE
8
MCD_Layer_0
10
-6.126565
20
3.905144
30
0.0
11
-6.173257
21
1.697166
31
0.0
0
LINE
8
MCD_Layer_0
10
-6.122994
20
5.729240
30
0.0
11
-6.176003
21
3.377159
31
0.0
0
LINE
8
MCD_Layer_0
10
-6.119973
20
4.481194
30
0.0
11
-6.161172
21
3.473198
31
0.0
0
LINE
8
MCD_Layer_0
10
-7.687539
20
4.944725
30
0.0
11
-6.583505
21
4.903526
31
0.0
0
LINE
8
MCD_Layer_0
10
-9.127481
20
4.943810
30
0.0
11
-9.127572
21
4.917442
31
0.0
0
LINE
8
MCD_Layer_0
10
-7.591500
20
1.937218
30
0.0
11
-6.120889
21
1.937126
31
0.0
0
LINE
8
MCD_Layer_0
10
-6.147256
20
1.697166
30
0.0
11
-6.122994
21
5.921135
31
0.0
0
LINE
8
MCD_Layer_0
10
-6.148538
20
6.305199
30
0.0
11
-6.125833
21
0.833092
31
0.0
0
LINE
8
MCD_Layer_0
10
-6.144052
20
3.473198
30
0.0
11
-7.591500
21
3.473289
31
0.0
0
LINE
8
MCD_Layer_0
10
-7.591226
20
3.473198
30
0.0
11
-4.759500
21
4.938866
31
0.0
0
LINE
8
MCD_Layer_0
10
-10.231606
20
4.920647
30
0.0
11
-9.127206
21
4.935020
31
0.0
0
LINE
8
MCD_Layer_0
10
-5.287484
20
4.927788
30
0.0
11
-4.759408
21
4.930077
31
0.0
0
LINE
8
MCD_Layer_0
10
-4.759408
20
4.930077
30
0.0
11
-6.199441
21
4.935020
31
0.0
0
LINE
8
MCD_Layer_0
10
-6.295846
20
4.903709
30
0.0
11
-7.255502
21
4.948021
31
0.0
0
LINE
8
MCD_Layer_0
10
-7.591500
20
4.768852
30
0.0
11
-6.160989
21
3.809196
31
0.0
0
LINE
8
MCD_Layer_0
10
-6.116677
20
6.352715
30
0.0
11
-6.148263
21
5.393242
31
0.0
0
LINE
8
MCD_Layer_0
10
-6.115670
20
4.433769
30
0.0
11
-6.141671
21
5.441124
31
0.0
0
LINE
8
MCD_Layer_0
10
-6.114663
20
3.473198
30
0.0
11
-7.591500
21
3.473289
31
0.0
0
LINE
8
MCD_Layer_0
10
-7.591226
20
3.473198
30
0.0
11
-6.630929
21
4.923027
31
0.0
0
LINE
8
MCD_Layer_0
10
-5.623574
20
4.950035
30
0.0
11
-6.199716
21
4.929161
31
0.0
0
LINE
8
MCD_Layer_0
10
-5.287576
20
4.951225
30
0.0
11
-6.583505
21
4.932823
31
0.0
0
LINE
8
MCD_Layer_0
10
-7.591500
20
3.473473
30
0.0
11
-7.591500
21
4.481194
31
0.0
0
LINE
8
MCD_Layer_0
10
-6.131875
20
4.049156
30
0.0
11
-6.111642
21
0.497551
31
0.0
0
LINE
8
MCD_Layer_0
10
-6.130593
20
2.033165
30
0.0
11
-6.110085
21
5.057243
31
0.0
0
LINE
8
MCD_Layer_0
10
-6.131509
20
4.385155
30
0.0
11
-6.107522
21
3.473198
31
0.0
0
LINE
8
MCD_Layer_0
10
-6.007455
20
4.933189
30
0.0
11
-6.679543
21
4.957176
31
0.0
0
LINE
8
MCD_Layer_0
10
-6.631845
20
4.928886
30
0.0
11
-7.687539
21
4.959373
31
0.0
0
LINE
8
MCD_Layer_0
10
-8.647286
20
4.921654
30
0.0
11
-7.207437
21
4.960747
31
0.0
0
LINE
8
MCD_Layer_0
10
-7.591500
20
2.417412
30
0.0
11
-6.143044
21
3.857262
31
0.0
0
LINE
8
MCD_Layer_0
10
-6.103951
20
0.785210
30
0.0
11
-6.171426
21
1.601128
31
0.0
0
LINE
8
MCD_Layer_0
10
-6.103036
20
4.337090
30
0.0
11
-9.149545
21
4.193169
31
0.0
0
LINE
8
MCD_Layer_0
10
-6.102761
20
3.473198
30
0.0
11
-7.591500
21
3.473289
31
0.0
0
LINE
8
MCD_Layer_0
10
-7.591226
20
3.473198
30
0.0
11
-6.727609
21
1.915154
31
0.0
0
LINE
8
MCD_Layer_0
10
-6.871530
20
4.961937
30
0.0
11
-8.359445
21
1.921837
31
0.0
0
LINE
8
MCD_Layer_0
10
-5.335549
20
4.961937
30
0.0
11
-8.071420
21
1.927879
31
0.0
0
LINE
8
MCD_Layer_0
10
-8.071420
20
1.927879
30
0.0
11
-5.335549
21
4.961937
31
0.0
0
LINE
8
MCD_Layer_0
10
-9.895516
20
1.945274
30
0.0
11
-5.335549
21
4.961937
31
0.0
0
LINE
8
MCD_Layer_0
10
-9.895516
20
1.945274
30
0.0
11
-7.591500
21
4.961479
31
0.0
0
LINE
8
MCD_Layer_0
10
-6.199533
20
1.943810
30
0.0
11
-7.591500
21
4.961479
31
0.0
0
LINE
8
MCD_Layer_0
10
-7.591500
20
4.865166
30
0.0
11
-9.120889
21
3.473198
31
0.0
0
LINE
8
MCD_Layer_0
10
-6.103219
20
2.705254
30
0.0
11
-9.122354
21
3.041161
31
0.0
0
LINE
8
MCD_Layer_0
10
-6.103585
20
1.841179
30
0.0
11
-9.122903
21
4.961205
31
0.0
0
LINE
8
MCD_Layer_0
10
-6.104226
20
3.473198
30
0.0
11
-7.591500
21
3.473289
31
0.0
0
LINE
8
MCD_Layer_0
10
-9.223519
20
1.941795
30
0.0
11
-6.103494
21
4.960472
31
0.0
0
LINE
8
MCD_Layer_0
10
-9.223519
20
1.941795
30
0.0
11
-7.303475
21
4.926506
31
0.0
0
LINE
8
MCD_Layer_0
10
-7.591500
20
1.841179
30
0.0
11
-9.122903
21
3.761223
31
0.0
0
LINE
8
MCD_Layer_0
10
-6.138192
20
2.705254
30
0.0
11
-9.122354
21
1.409142
31
0.0
0
LINE
8
MCD_Layer_0
10
-6.143685
20
4.865166
30
0.0
11
-9.120889
21
3.953117
31
0.0
0
LINE
8
MCD_Layer_0
10
-6.145883
20
3.473198
30
0.0
11
-7.591500
21
3.473289
31
0.0
0
LINE
8
MCD_Layer_0
10
-6.199533
20
1.943810
30
0.0
11
-7.111581
21
4.918816
31
0.0
0
LINE
8
MCD_Layer_0
10
-7.255502
20
1.945091
30
0.0
11
-7.111581
21
4.918816
31
0.0
0
LINE
8
MCD_Layer_0
10
-7.591500
20
2.705254
30
0.0
11
-9.137002
21
3.905144
31
0.0
0
LINE
8
MCD_Layer_0
10
-6.114663
20
1.889336
30
0.0
11
-9.133615
21
2.513176
31
0.0
0
LINE
8
MCD_Layer_0
10
-6.114663
20
0.785210
30
0.0
11
-9.130410
21
5.729149
31
0.0
0
LINE
8
MCD_Layer_0
10
-6.114480
20
3.473198
30
0.0
11
-7.591500
21
3.473289
31
0.0
0
LINE
8
MCD_Layer_0
10
-10.279489
20
1.934288
30
0.0
11
-5.335549
21
4.950218
31
0.0
0
LINE
8
MCD_Layer_0
10
-10.279489
20
1.934288
30
0.0
11
-6.103494
21
4.960472
31
0.0
0
LINE
8
MCD_Layer_0
10
-10.375436
20
1.926414
30
0.0
11
-6.103494
21
4.960472
31
0.0
0
LINE
8
MCD_Layer_0
10
-7.591500
20
0.689262
30
0.0
11
-9.138284
21
4.961205
31
0.0
0
LINE
8
MCD_Layer_0
10
-6.104226
20
5.153374
30
0.0
11
-9.164651
21
5.345177
31
0.0
0
LINE
8
MCD_Layer_0
10
-6.104959
20
3.713432
30
0.0
11
-6.153848
21
1.601128
31
0.0
0
LINE
8
MCD_Layer_0
10
-6.107430
20
3.473198
30
0.0
11
-7.591500
21
3.473289
31
0.0
0
LINE
8
MCD_Layer_0
10
-7.591226
20
3.473198
30
0.0
11
-7.351266
21
4.910851
31
0.0
0
LINE
8
MCD_Layer_0
10
-9.463571
20
4.957268
30
0.0
11
-8.167916
21
4.914146
31
0.0
0
LINE
8
MCD_Layer_0
10
-5.959573
20
4.954704
30
0.0
11
-5.383248
21
4.908195
31
0.0
0
LINE
8
MCD_Layer_0
10
-7.591500
20
3.473473
30
0.0
11
-7.591500
21
5.681450
31
0.0
0
LINE
8
MCD_Layer_0
10
-6.156503
20
1.121208
30
0.0
11
-6.111642
21
5.633842
31
0.0
0
LINE
8
MCD_Layer_0
10
-6.172158
20
3.713158
30
0.0
11
-6.112832
21
5.345268
31
0.0
0
LINE
8
MCD_Layer_0
10
-9.160623
20
1.985191
30
0.0
11
-6.114022
21
3.473198
31
0.0
0
LINE
8
MCD_Layer_0
10
-5.719430
20
1.904076
30
0.0
11
-9.079507
21
4.950676
31
0.0
0
LINE
8
MCD_Layer_0
10
-7.831735
20
1.918266
30
0.0
11
-9.799569
21
4.950218
31
0.0
0
LINE
8
MCD_Layer_0
10
-8.359445
20
1.927696
30
0.0
11
-7.159554
21
4.950035
31
0.0
0
LINE
8
MCD_Layer_0
10
-10.327462
20
1.930351
30
0.0
11
-5.575509
21
4.951042
31
0.0
0
LINE
8
MCD_Layer_0
10
-9.175729
20
1.925224
30
0.0
11
-5.575509
21
4.951042
31
0.0
0
LINE
8
MCD_Layer_0
10
-7.591500
20
1.888969
30
0.0
11
-9.139474
21
5.489189
31
0.0
0
LINE
8
MCD_Layer_0
10
-6.113656
20
5.248955
30
0.0
11
-9.145059
21
4.241142
31
0.0
0
LINE
8
MCD_Layer_0
10
-6.113473
20
5.441216
30
0.0
11
-9.152749
21
4.817192
31
0.0
0
LINE
8
MCD_Layer_0
10
-6.113107
20
3.473198
30
0.0
11
-7.591500
21
3.473289
31
0.0
0
LINE
8
MCD_Layer_0
10
-7.591226
20
3.473198
30
0.0
11
-5.623483
21
1.911949
31
0.0
0
LINE
8
MCD_Layer_0
10
-6.247506
20
4.951591
30
0.0
11
-6.583688
21
1.891808
31
0.0
0
LINE
8
MCD_Layer_0
10
-4.951486
20
4.952415
30
0.0
11
-6.249703
21
4.872490
31
0.0
0
LINE
8
MCD_Layer_0
10
-7.591500
20
3.473473
30
0.0
11
-7.591500
21
2.274956
31
0.0
0
LINE
8
MCD_Layer_0
10
-6.178292
20
2.705162
30
0.0
11
-6.107705
21
1.938042
31
0.0
0
LINE
8
MCD_Layer_0
10
-6.170693
20
5.249138
30
0.0
11
-6.109902
21
3.426323
31
0.0
0
LINE
8
MCD_Layer_0
10
-6.189279
20
4.625206
30
0.0
11
-6.111276
21
3.473198
31
0.0
0
LINE
8
MCD_Layer_0
10
-10.375436
20
1.926414
30
0.0
11
-4.615487
21
4.959465
31
0.0
0
LINE
8
MCD_Layer_0
10
-8.503366
20
1.910027
30
0.0
11
-7.015542
21
4.958916
31
0.0
0
LINE
8
MCD_Layer_0
10
-6.487008
20
4.887962
30
0.0
11
-5.431497
21
4.956993
31
0.0
0
LINE
8
MCD_Layer_0
10
-10.327462
20
1.930351
30
0.0
11
-4.615487
21
4.959465
31
0.0
0
LINE
8
MCD_Layer_0
10
-4.742971
20
1.949211
30
0.0
11
-3.207082
21
4.950768
31
0.0
0
LINE
8
MCD_Layer_0
10
-4.378225
20
1.948662
30
0.0
11
-3.072683
21
4.953880
31
0.0
0
LINE
8
MCD_Layer_0
10
-3.638937
20
1.946098
30
0.0
11
-2.688528
21
4.957542
31
0.0
0
LINE
8
MCD_Layer_0
10
-7.022268
20
3.473198
30
0.0
11
-4.023000
21
3.473473
31
0.0
0
LINE
8
MCD_Layer_0
10
-4.023000
20
3.857262
30
0.0
11
-5.550100
21
4.807671
31
0.0
0
LINE
8
MCD_Layer_0
10
-2.538656
20
1.937218
30
0.0
11
-5.552389
21
3.540398
31
0.0
0
LINE
8
MCD_Layer_0
10
-2.536825
20
1.217247
30
0.0
11
-5.555776
21
4.106743
31
0.0
0
LINE
8
MCD_Layer_0
10
-2.534902
20
3.473198
30
0.0
11
-4.023000
21
3.473289
31
0.0
0
LINE
8
MCD_Layer_0
10
-4.022726
20
3.473198
30
0.0
11
-6.278951
21
1.940422
31
0.0
0
LINE
8
MCD_Layer_0
10
-3.389455
20
4.961296
30
0.0
11
-2.918966
21
1.934837
31
0.0
0
LINE
8
MCD_Layer_0
10
-5.703084
20
4.962029
30
0.0
11
-3.418203
21
1.927879
31
0.0
0
LINE
8
MCD_Layer_0
10
-4.022909
20
3.473198
30
0.0
11
-7.022268
21
3.473198
31
0.0
0
LINE
8
MCD_Layer_0
10
-4.023000
20
3.473473
30
0.0
11
-4.023000
21
4.077995
31
0.0
0
LINE
8
MCD_Layer_0
10
-5.568319
20
2.599510
30
0.0
11
-2.533803
21
2.206017
31
0.0
0
LINE
8
MCD_Layer_0
10
-5.575460
20
5.738853
30
0.0
11
-2.533620
21
3.473198
31
0.0
0
LINE
8
MCD_Layer_0
10
-4.023000
20
6.343559
30
0.0
11
-2.533529
21
3.473198
31
0.0
0
LINE
8
MCD_Layer_0
10
-4.023000
20
3.473289
30
0.0
11
-4.023000
21
0.473930
31
0.0
0
LINE
8
MCD_Layer_0
10
-6.519002
20
4.920738
30
0.0
11
-1.757345
21
4.962578
31
0.0
0
LINE
8
MCD_Layer_0
10
-3.418203
20
4.927879
30
0.0
11
-4.896688
21
4.962395
31
0.0
0
LINE
8
MCD_Layer_0
10
-4.023000
20
4.077995
30
0.0
11
-2.568319
21
2.599510
31
0.0
0
LINE
8
MCD_Layer_0
10
-2.533803
20
4.577232
30
0.0
11
-2.561361
21
1.793114
31
0.0
0
LINE
8
MCD_Layer_0
10
-2.534170
20
1.217247
30
0.0
11
-2.555776
21
4.106743
31
0.0
0
LINE
8
MCD_Layer_0
10
-4.022726
20
3.473198
30
0.0
11
-6.278951
21
4.940422
31
0.0
0
LINE
8
MCD_Layer_0
10
-3.389455
20
4.961296
30
0.0
11
-5.866140
21
4.943810
31
0.0
0
LINE
8
MCD_Layer_0
10
-3.955801
20
4.959373
30
0.0
11
-3.638937
21
4.946098
31
0.0
0
LINE
8
MCD_Layer_0
10
-4.023000
20
3.473473
30
0.0
11
-4.023000
21
3.857262
31
0.0
0
LINE
8
MCD_Layer_0
10
-2.550100
20
4.807671
30
0.0
11
-2.538656
21
3.117973
31
0.0
0
LINE
8
MCD_Layer_0
10
-2.547536
20
4.423515
30
0.0
11
-2.542318
21
2.446068
31
0.0
0
LINE
8
MCD_Layer_0
10
-2.546987
20
4.289116
30
0.0
11
-2.545431
21
3.473198
31
0.0
0
LINE
8
MCD_Layer_0
10
-5.050130
20
4.949211
30
0.0
11
-3.207082
21
4.950768
31
0.0
0
LINE
8
MCD_Layer_0
10
-4.378225
20
4.948662
30
0.0
11
-2.659780
21
4.945549
31
0.0
0
LINE
8
MCD_Layer_0
10
-3.638937
20
4.946098
30
0.0
11
-3.427724
21
4.938225
31
0.0
0
LINE
8
MCD_Layer_0
10
-4.023000
20
3.857262
30
0.0
11
-2.550100
21
4.068474
31
0.0
0
LINE
8
MCD_Layer_0
10
-2.557973
20
1.630058
30
0.0
11
-2.552389
21
3.732475
31
0.0
0
LINE
8
MCD_Layer_0
10
-2.565023
20
1.217247
30
0.0
11
-2.555776
21
5.460350
31
0.0
0
LINE
8
MCD_Layer_0
10
-2.575643
20
3.473198
30
0.0
11
-4.023000
21
3.473289
31
0.0
0
LINE
8
MCD_Layer_0
10
-2.035848
20
4.920555
30
0.0
11
-2.918966
21
4.934837
31
0.0
0
LINE
8
MCD_Layer_0
10
-2.151021
20
4.904076
30
0.0
11
-3.418203
21
4.927879
31
0.0
0
LINE
8
MCD_Layer_0
10
-2.568319
20
4.548759
30
0.0
11
-2.638723
21
0.977196
31
0.0
0
LINE
8
MCD_Layer_0
10
-2.575460
20
0.852226
30
0.0
11
-5.613821
21
1.764275
31
0.0
0
LINE
8
MCD_Layer_0
10
-2.691366
20
2.954826
30
0.0
11
-5.603109
21
3.473198
31
0.0
0
LINE
8
MCD_Layer_0
10
-5.731924
20
4.804832
30
0.0
11
-4.541372
21
1.893089
31
0.0
0
LINE
8
MCD_Layer_0
10
-5.290182
20
1.920738
30
0.0
11
-6.643972
21
1.882378
31
0.0
0
LINE
8
MCD_Layer_0
10
-3.418203
20
1.927879
30
0.0
11
-2.947439
21
4.857475
31
0.0
0
LINE
8
MCD_Layer_0
10
-4.023000
20
4.077995
30
0.0
11
-5.568319
21
4.548759
31
0.0
0
LINE
8
MCD_Layer_0
10
-2.638723
20
4.577232
30
0.0
11
-5.561361
21
5.345177
31
0.0
0
LINE
8
MCD_Layer_0
10
-2.592123
20
1.217247
30
0.0
11
-5.555776
21
5.460350
31
0.0
0
LINE
8
MCD_Layer_0
10
-2.035848
20
4.920555
30
0.0
11
-5.558980
21
1.943810
31
0.0
0
LINE
8
MCD_Layer_0
10
-3.763723
20
4.931175
30
0.0
11
-3.638937
21
1.946098
31
0.0
0
LINE
8
MCD_Layer_0
10
-4.023000
20
3.473473
30
0.0
11
-4.023000
21
4.711632
31
0.0
0
LINE
8
MCD_Layer_0
10
-5.550924
20
6.276451
30
0.0
11
-2.555593
21
3.434746
31
0.0
0
LINE
8
MCD_Layer_0
10
-5.549093
20
2.781975
30
0.0
11
-2.548727
21
5.873253
31
0.0
0
LINE
8
MCD_Layer_0
10
-5.548818
20
4.289116
30
0.0
11
-2.545431
21
3.473198
31
0.0
0
LINE
8
MCD_Layer_0
10
-1.622945
20
1.947380
30
0.0
11
-3.207082
21
4.950768
31
0.0
0
LINE
8
MCD_Layer_0
10
-4.061452
20
1.947105
30
0.0
11
-2.045461
21
4.952873
31
0.0
0
LINE
8
MCD_Layer_0
10
-2.784566
20
1.945274
30
0.0
11
-3.792654
21
4.956352
31
0.0
0
LINE
8
MCD_Layer_0
10
-4.023000
20
4.711632
30
0.0
11
-5.550924
21
3.703545
31
0.0
0
LINE
8
MCD_Layer_0
10
-2.539846
20
2.253990
30
0.0
11
-5.553945
21
3.127495
31
0.0
0
LINE
8
MCD_Layer_0
10
-2.537374
20
2.369164
30
0.0
11
-5.557973
21
3.674797
31
0.0
0
LINE
8
MCD_Layer_0
10
-2.535177
20
3.473198
30
0.0
11
-4.023000
21
3.473289
31
0.0
0
LINE
8
MCD_Layer_0
10
-4.022726
20
3.473198
30
0.0
11
-5.127035
21
1.938225
31
0.0
0
LINE
8
MCD_Layer_0
10
-3.821401
20
4.961021
30
0.0
11
-5.799032
21
1.932915
31
0.0
0
LINE
8
MCD_Layer_0
10
-6.970266
20
4.961662
30
0.0
11
-4.570211
21
1.927055
31
0.0
0
LINE
8
MCD_Layer_0
10
-4.023000
20
3.473473
30
0.0
11
-4.023000
21
2.925987
31
0.0
0
LINE
8
MCD_Layer_0
10
-5.569143
20
3.645958
30
0.0
11
-2.534170
21
3.799583
31
0.0
0
LINE
8
MCD_Layer_0
10
-5.587636
20
3.386681
30
0.0
11
-2.533987
21
3.473198
31
0.0
0
LINE
8
MCD_Layer_0
10
-4.023000
20
5.460258
30
0.0
11
-2.533895
21
3.473198
31
0.0
0
LINE
8
MCD_Layer_0
10
-6.154165
20
4.908470
30
0.0
11
-4.109518
21
4.962212
31
0.0
0
LINE
8
MCD_Layer_0
10
-4.570211
20
4.927055
30
0.0
11
-3.850240
21
4.962029
31
0.0
0
LINE
8
MCD_Layer_0
10
-4.023000
20
2.925987
30
0.0
11
-2.569143
21
3.645958
31
0.0
0
LINE
8
MCD_Layer_0
10
-2.534170
20
1.697166
30
0.0
11
-2.563283
21
0.525932
31
0.0
0
LINE
8
MCD_Layer_0
10
-2.534536
20
2.369164
30
0.0
11
-2.557973
21
3.674797
31
0.0
0
LINE
8
MCD_Layer_0
10
-4.022726
20
3.473198
30
0.0
11
-5.127035
21
4.938225
31
0.0
0
LINE
8
MCD_Layer_0
10
-3.821401
20
4.961021
30
0.0
11
-5.242208
21
4.942253
31
0.0
0
LINE
8
MCD_Layer_0
10
-4.368703
20
4.958824
30
0.0
11
-3.091726
21
4.945274
31
0.0
0
LINE
8
MCD_Layer_0
10
-4.023000
20
3.473473
30
0.0
11
-4.023000
21
4.404472
31
0.0
0
LINE
8
MCD_Layer_0
10
-2.550924
20
3.703545
30
0.0
11
-2.539846
21
3.127586
31
0.0
0
LINE
8
MCD_Layer_0
10
-2.549093
20
5.450737
30
0.0
11
-2.543325
21
5.566002
31
0.0
0
LINE
8
MCD_Layer_0
10
-2.548818
20
4.289116
30
0.0
11
-2.545431
21
3.473198
31
0.0
0
LINE
8
MCD_Layer_0
10
-1.930196
20
4.947380
30
0.0
11
-3.207082
21
4.950768
31
0.0
0
LINE
8
MCD_Layer_0
10
-4.368612
20
4.947105
30
0.0
11
-4.714223
21
4.947472
31
0.0
0
LINE
8
MCD_Layer_0
10
-3.091726
20
4.945274
30
0.0
11
-1.219747
21
4.940605
31
0.0
0
LINE
8
MCD_Layer_0
10
-4.023000
20
4.404472
30
0.0
11
-2.550924
21
6.276451
31
0.0
0
LINE
8
MCD_Layer_0
10
-2.555593
20
2.253990
30
0.0
11
-2.553945
21
5.383629
31
0.0
0
LINE
8
MCD_Layer_0
10
-2.563192
20
2.369164
30
0.0
11
-2.557973
21
1.687645
31
0.0
0
LINE
8
MCD_Layer_0
10
-2.573446
20
3.473198
30
0.0
11
-4.023000
21
3.473289
31
0.0
0
LINE
8
MCD_Layer_0
10
-5.808553
20
4.922752
30
0.0
11
-5.799032
21
4.932915
31
0.0
0
LINE
8
MCD_Layer_0
10
-3.811880
20
4.915520
30
0.0
11
-4.570211
21
4.927055
31
0.0
0
LINE
8
MCD_Layer_0
10
-2.569143
20
3.597893
30
0.0
11
-2.590108
21
1.342033
31
0.0
0
LINE
8
MCD_Layer_0
10
-2.587728
20
1.226768
30
0.0
11
-2.604208
21
3.473198
31
0.0
0
LINE
8
MCD_Layer_0
10
-4.023000
20
5.729057
30
0.0
11
-2.607503
21
3.473198
31
0.0
0
LINE
8
MCD_Layer_0
10
-3.696615
20
1.908562
30
0.0
11
-6.269430
21
4.891991
31
0.0
0
LINE
8
MCD_Layer_0
10
-4.570211
20
1.927055
30
0.0
11
-3.898305
21
4.906090
31
0.0
0
LINE
8
MCD_Layer_0
10
-4.023000
20
2.925987
30
0.0
11
-5.569143
21
3.597893
31
0.0
0
LINE
8
MCD_Layer_0
10
-2.590108
20
1.697166
30
0.0
11
-5.563283
21
3.684319
31
0.0
0
LINE
8
MCD_Layer_0
10
-2.580678
20
2.369164
30
0.0
11
-5.557973
21
1.687645
31
0.0
0
LINE
8
MCD_Layer_0
10
-5.808553
20
4.922752
30
0.0
11
-5.242208
21
1.942253
31
0.0
0
LINE
8
MCD_Layer_0
10
-2.112569
20
4.933006
30
0.0
11
-2.784566
21
1.945274
31
0.0
0
LINE
8
MCD_Layer_0
10
-4.023000
20
3.473473
30
0.0
11
-4.023000
21
1.476433
31
0.0
0
LINE
8
MCD_Layer_0
10
-5.556783
20
2.810814
30
0.0
11
-2.553396
21
1.543541
31
0.0
0
LINE
8
MCD_Layer_0
10
-5.555959
20
3.530876
30
0.0
11
-2.549917
21
1.486046
31
0.0
0
LINE
8
MCD_Layer_0
10
-5.555410
20
4.289116
30
0.0
11
-2.545431
21
3.473198
31
0.0
0
LINE
8
MCD_Layer_0
10
-6.010152
20
1.940788
30
0.0
11
-3.207082
21
4.950768
31
0.0
0
LINE
8
MCD_Layer_0
10
-5.952657
20
1.940239
30
0.0
11
-2.419729
21
4.953514
31
0.0
0
LINE
8
MCD_Layer_0
10
-6.019765
20
1.939415
30
0.0
11
-5.059927
21
4.955162
31
0.0
0
LINE
8
MCD_Layer_0
10
-4.023000
20
1.476433
30
0.0
11
-5.556783
21
2.436272
31
0.0
0
LINE
8
MCD_Layer_0
10
-2.541036
20
2.570854
30
0.0
11
-5.558431
21
4.692314
31
0.0
0
LINE
8
MCD_Layer_0
10
-2.539022
20
4.126060
30
0.0
11
-5.564382
21
1.850883
31
0.0
0
LINE
8
MCD_Layer_0
10
-2.536916
20
3.473198
30
0.0
11
-4.023000
21
3.473289
31
0.0
0
LINE
8
MCD_Layer_0
10
-4.022726
20
3.473198
30
0.0
11
-3.370138
21
1.931816
31
0.0
0
LINE
8
MCD_Layer_0
10
-5.645315
20
4.959282
30
0.0
11
-5.799032
21
1.927055
31
0.0
0
LINE
8
MCD_Layer_0
10
-5.741445
20
4.960197
30
0.0
11
-2.611898
21
1.920189
31
0.0
0
LINE
8
MCD_Layer_0
10
-4.023000
20
3.473473
30
0.0
11
-4.023000
21
4.884300
31
0.0
0
LINE
8
MCD_Layer_0
10
-5.576009
20
2.474724
30
0.0
11
-2.535543
21
3.732384
31
0.0
0
LINE
8
MCD_Layer_0
10
-5.600179
20
3.050774
30
0.0
11
-2.535177
21
3.473198
31
0.0
0
LINE
8
MCD_Layer_0
10
-4.023000
20
4.586845
30
0.0
11
-2.535085
21
3.473198
31
0.0
0
LINE
8
MCD_Layer_0
10
-3.763814
20
4.896019
30
0.0
11
-4.445425
21
4.961021
31
0.0
0
LINE
8
MCD_Layer_0
10
-2.611898
20
4.920189
30
0.0
11
-5.021474
21
4.960655
31
0.0
0
LINE
8
MCD_Layer_0
10
-4.023000
20
4.884300
30
0.0
11
-2.576009
21
2.474724
31
0.0
0
LINE
8
MCD_Layer_0
10
-2.535543
20
1.082848
30
0.0
11
-2.569143
21
1.754753
31
0.0
0
LINE
8
MCD_Layer_0
10
-2.536001
20
3.511650
30
0.0
11
-2.564382
21
1.850883
31
0.0
0
LINE
8
MCD_Layer_0
10
-4.022726
20
3.473198
30
0.0
11
-3.984548
21
4.931816
31
0.0
0
LINE
8
MCD_Layer_0
10
-5.645315
20
4.959282
30
0.0
11
-4.925344
21
4.937767
31
0.0
0
LINE
8
MCD_Layer_0
10
-2.803884
20
4.957176
30
0.0
11
-6.019765
21
4.939415
31
0.0
0
LINE
8
MCD_Layer_0
10
-2.556783
20
2.436272
30
0.0
11
-2.541036
21
1.236290
31
0.0
0
LINE
8
MCD_Layer_0
10
-2.555959
20
5.076469
30
0.0
11
-2.542684
21
1.486046
31
0.0
0
LINE
8
MCD_Layer_0
10
-2.555410
20
4.289116
30
0.0
11
-2.545431
21
3.473198
31
0.0
0
LINE
8
MCD_Layer_0
10
-6.010152
20
4.940788
30
0.0
11
-3.207082
21
4.950768
31
0.0
0
LINE
8
MCD_Layer_0
10
-6.259908
20
4.940239
30
0.0
11
-3.965322
21
4.946281
31
0.0
0
LINE
8
MCD_Layer_0
10
-6.019765
20
4.939415
30
0.0
11
-4.685384
21
4.942802
31
0.0
0
LINE
8
MCD_Layer_0
10
-4.023000
20
1.476433
30
0.0
11
-2.556783
21
2.810814
31
0.0
0
LINE
8
MCD_Layer_0
10
-2.553396
20
2.570854
30
0.0
11
-2.558431
21
4.298820
31
0.0
0
LINE
8
MCD_Layer_0
10
-2.557241
20
3.511650
30
0.0
11
-2.564382
21
3.876488
31
0.0
0
LINE
8
MCD_Layer_0
10
-2.564931
20
3.473198
30
0.0
11
-4.023000
21
3.473289
31
0.0
0
LINE
8
MCD_Layer_0
10
-3.619710
20
4.931267
30
0.0
11
-6.413351
21
4.927055
31
0.0
0
LINE
8
MCD_Layer_0
10
-2.621419
20
4.927605
30
0.0
11
-2.611898
21
4.920189
31
0.0
0
LINE
8
MCD_Layer_0
10
-2.576009
20
0.516411
30
0.0
11
-2.571065
21
3.732384
31
0.0
0
LINE
8
MCD_Layer_0
10
-2.600179
20
0.679558
30
0.0
11
-2.574087
21
3.473198
31
0.0
0
LINE
8
MCD_Layer_0
10
-4.023000
20
6.391533
30
0.0
11
-2.574270
21
3.473198
31
0.0
0
LINE
8
MCD_Layer_0
10
-3.763814
20
1.896019
30
0.0
11
-6.816640
21
4.922112
31
0.0
0
LINE
8
MCD_Layer_0
10
-2.611898
20
1.920189
30
0.0
11
-6.979787
21
4.925133
31
0.0
0
LINE
8
MCD_Layer_0
10
-4.023000
20
4.884300
30
0.0
11
-5.576009
21
0.516411
31
0.0
0
LINE
8
MCD_Layer_0
10
-2.571065
20
1.697166
30
0.0
11
-5.569143
21
4.874779
31
0.0
0
LINE
8
MCD_Layer_0
10
-2.568594
20
4.126060
30
0.0
11
-5.564382
21
3.876488
31
0.0
0
LINE
8
MCD_Layer_0
10
-3.619710
20
4.931267
30
0.0
11
-4.925344
21
1.937767
31
0.0
0
LINE
8
MCD_Layer_0
10
-3.197378
20
4.938957
30
0.0
11
-6.019765
21
1.939415
31
0.0
0
LINE
8
MCD_Layer_0
10
-4.023000
20
3.473473
30
0.0
11
-4.023000
21
4.173943
31
0.0
0
LINE
8
MCD_Layer_0
10
-5.560445
20
4.049156
30
0.0
11
-2.554861
21
3.271599
31
0.0
0
LINE
8
MCD_Layer_0
10
-5.557790
20
6.093987
30
0.0
11
-2.549459
21
4.298820
31
0.0
0
LINE
8
MCD_Layer_0
10
-5.557241
20
4.289116
30
0.0
11
-2.545431
21
3.473198
31
0.0
0
LINE
8
MCD_Layer_0
10
-3.197378
20
1.938957
30
0.0
11
-3.207082
21
4.950768
31
0.0
0
LINE
8
MCD_Layer_0
10
-4.224599
20
1.938408
30
0.0
11
-6.854909
21
4.953239
31
0.0
0
LINE
8
MCD_Layer_0
10
-3.322256
20
1.935753
30
0.0
11
-2.679006
21
4.955986
31
0.0
0
LINE
8
MCD_Layer_0
10
-4.023000
20
4.173943
30
0.0
11
-5.560445
21
4.817192
31
0.0
0
LINE
8
MCD_Layer_0
10
-2.540212
20
6.401237
30
0.0
11
-5.564107
21
4.941887
31
0.0
0
LINE
8
MCD_Layer_0
10
-2.538473
20
1.601219
30
0.0
11
-5.571157
21
3.070000
31
0.0
0
LINE
8
MCD_Layer_0
10
-2.536825
20
3.473198
30
0.0
11
-4.023000
21
3.473289
31
0.0
0
LINE
8
MCD_Layer_0
10
-4.022726
20
3.473198
30
0.0
11
-5.894979
21
1.925041
31
0.0
0
LINE
8
MCD_Layer_0
10
-4.426198
20
4.959373
30
0.0
11
-3.101430
21
1.905815
31
0.0
0
LINE
8
MCD_Layer_0
10
-4.023000
20
6.065239
30
0.0
11
-2.536001
21
4.394768
31
0.0
0
LINE
8
MCD_Layer_0
10
-2.590383
20
5.921135
30
0.0
11
-2.536092
21
1.601219
31
0.0
0
LINE
8
MCD_Layer_0
10
-2.571157
20
3.070000
30
0.0
11
-2.536825
21
3.473198
31
0.0
0
LINE
8
MCD_Layer_0
10
-5.894979
20
4.925041
30
0.0
11
-4.426198
21
4.959373
31
0.0
0
LINE
8
MCD_Layer_0
10
-1.709371
20
4.932091
30
0.0
11
-2.554311
21
4.957726
31
0.0
0
LINE
8
MCD_Layer_0
10
-3.936666
20
4.935753
30
0.0
11
-2.679006
21
4.955986
31
0.0
0
LINE
8
MCD_Layer_0
10
-4.023000
20
3.559532
30
0.0
11
-2.560445
21
4.817192
31
0.0
0
LINE
8
MCD_Layer_0
10
-2.540212
20
3.271599
30
0.0
11
-2.557790
21
0.641289
31
0.0
0
LINE
8
MCD_Layer_0
10
-2.542959
20
4.298820
30
0.0
11
-2.557241
21
4.289116
31
0.0
0
LINE
8
MCD_Layer_0
10
-2.545431
20
3.473198
30
0.0
11
-4.023000
21
3.473289
31
0.0
0
LINE
8
MCD_Layer_0
10
-4.022726
20
3.473198
30
0.0
11
-3.197378
21
4.938957
31
0.0
0
LINE
8
MCD_Layer_0
10
-3.207082
20
4.950768
30
0.0
11
-4.224599
21
4.938408
31
0.0
0
LINE
8
MCD_Layer_0
10
-1.402212
20
4.946739
30
0.0
11
-3.936666
21
4.935753
31
0.0
0
LINE
8
MCD_Layer_0
10
-4.023000
20
3.473473
30
0.0
11
-4.023000
21
3.559532
31
0.0
0
LINE
8
MCD_Layer_0
10
-2.560445
20
4.049156
30
0.0
11
-2.554861
21
5.786827
31
0.0
0
LINE
8
MCD_Layer_0
10
-2.564107
20
4.126060
30
0.0
11
-2.558523
21
1.601219
31
0.0
0
LINE
8
MCD_Layer_0
10
-2.571157
20
5.613976
30
0.0
11
-2.565389
21
3.473198
31
0.0
0
LINE
8
MCD_Layer_0
10
-5.894979
20
4.925041
30
0.0
11
-1.882223
21
4.930809
31
0.0
0
LINE
8
MCD_Layer_0
10
-3.101430
20
4.905815
30
0.0
11
-1.287038
21
4.928062
31
0.0
0
LINE
8
MCD_Layer_0
10
-2.568502
20
4.394768
30
0.0
11
-5.590383
21
6.209160
31
0.0
0
LINE
8
MCD_Layer_0
10
-2.568136
20
1.601219
30
0.0
11
-5.571157
21
5.613976
31
0.0
0
LINE
8
MCD_Layer_0
10
-2.565389
20
3.473198
30
0.0
11
-4.023000
21
3.473289
31
0.0
0
LINE
8
MCD_Layer_0
10
-1.882223
20
4.930809
30
0.0
11
-1.094961
21
1.932091
31
0.0
0
LINE
8
MCD_Layer_0
10
-3.370138
20
4.937675
30
0.0
11
-3.322256
21
1.935753
31
0.0
0
LINE
8
MCD_Layer_0
10
-1.893231
20
1.946098
30
0.0
11
0.602772
21
4.960472
31
0.0
0
LINE
8
MCD_Layer_0
10
-1.509258
20
1.948296
30
0.0
11
0.602772
21
4.960472
31
0.0
0
LINE
8
MCD_Layer_0
10
-1.509258
20
1.948296
30
0.0
11
-1.605297
21
4.962395
31
0.0
0
LINE
8
MCD_Layer_0
10
0.026905
20
1.919090
30
0.0
11
-1.605297
21
4.962395
31
0.0
0
LINE
8
MCD_Layer_0
10
0.026905
20
1.919090
30
0.0
11
0.602772
21
4.960472
31
0.0
0
LINE
8
MCD_Layer_0
10
2.090687
20
1.930168
30
0.0
11
0.602772
21
4.960472
31
0.0
0
LINE
8
MCD_Layer_0
10
-3.573315
20
4.893272
30
0.0
11
1.706623
21
4.945549
31
0.0
0
LINE
8
MCD_Layer_0
10
-3.573498
20
4.934288
30
0.0
11
0.602772
21
4.960472
31
0.0
0
LINE
8
MCD_Layer_0
10
-2.661266
20
4.927055
30
0.0
11
0.602772
21
4.960472
31
0.0
0
LINE
8
MCD_Layer_0
10
-2.661266
20
4.927055
30
0.0
11
-1.605297
21
4.962395
31
0.0
0
LINE
8
MCD_Layer_0
10
-1.509258
20
4.948296
30
0.0
11
-1.605297
21
4.962395
31
0.0
0
LINE
8
MCD_Layer_0
10
-1.509258
20
4.948296
30
0.0
11
0.602772
21
4.960472
31
0.0
0
LINE
8
MCD_Layer_0
10
1.322651
20
4.946281
30
0.0
11
0.602772
21
4.960472
31
0.0
0
LINE
8
MCD_Layer_0
10
-3.884594
20
3.473198
30
0.0
11
-0.885327
21
3.473473
31
0.0
0
LINE
8
MCD_Layer_0
10
-0.885327
20
5.681175
30
0.0
11
0.587757
21
4.961296
31
0.0
0
LINE
8
MCD_Layer_0
10
0.601948
20
5.873253
30
0.0
11
0.585926
21
4.529259
31
0.0
0
LINE
8
MCD_Layer_0
10
0.601673
20
4.145103
30
0.0
11
0.584827
21
1.841270
31
0.0
0
LINE
8
MCD_Layer_0
10
0.600849
20
3.473198
30
0.0
11
-0.885327
21
3.473289
31
0.0
0
LINE
8
MCD_Layer_0
10
-0.213421
20
4.943352
30
0.0
11
-2.517254
21
4.959373
31
0.0
0
LINE
8
MCD_Layer_0
10
1.561695
20
4.904442
30
0.0
11
1.610676
21
1.896660
31
0.0
0
LINE
8
MCD_Layer_0
10
-1.220776
20
1.910393
30
0.0
11
1.610676
21
1.896660
31
0.0
0
LINE
8
MCD_Layer_0
10
-1.269116
20
1.894737
30
0.0
11
-2.997357
21
4.893639
31
0.0
0
LINE
8
MCD_Layer_0
10
-0.453289
20
1.941246
30
0.0
11
0.698719
21
4.959557
31
0.0
0
LINE
8
MCD_Layer_0
10
-0.885327
20
3.905235
30
0.0
11
-2.417278
21
5.057243
31
0.0
0
LINE
8
MCD_Layer_0
10
0.601032
20
6.209251
30
0.0
11
-2.415814
21
5.393242
31
0.0
0
LINE
8
MCD_Layer_0
10
0.602222
20
1.313286
30
0.0
11
-2.413159
21
3.473198
31
0.0
0
LINE
8
MCD_Layer_0
10
0.602955
20
3.473198
30
0.0
11
-0.885327
21
3.473289
31
0.0
0
LINE
8
MCD_Layer_0
10
-3.045239
20
1.945366
30
0.0
11
-0.885327
21
4.961479
31
0.0
0
LINE
8
MCD_Layer_0
10
1.466755
20
1.946373
30
0.0
11
-0.885327
21
4.961479
31
0.0
0
LINE
8
MCD_Layer_0
10
1.466755
20
1.946373
30
0.0
11
-3.861340
21
4.961937
31
0.0
0
LINE
8
MCD_Layer_0
10
-1.317089
20
1.925957
30
0.0
11
-3.861340
21
4.961937
31
0.0
0
LINE
8
MCD_Layer_0
10
-1.317089
20
1.925957
30
0.0
11
-0.885327
21
4.961479
31
0.0
0
LINE
8
MCD_Layer_0
10
0.362720
20
1.929070
30
0.0
11
-0.885327
21
4.961479
31
0.0
0
LINE
8
MCD_Layer_0
10
-0.885327
20
4.721245
30
0.0
11
-2.429455
21
3.473198
31
0.0
0
LINE
8
MCD_Layer_0
10
0.602955
20
4.625298
30
0.0
11
-2.425610
21
4.289207
31
0.0
0
LINE
8
MCD_Layer_0
10
0.602497
20
5.201347
30
0.0
11
-2.425243
21
1.169182
31
0.0
0
LINE
8
MCD_Layer_0
10
0.601398
20
3.473198
30
0.0
11
-0.885327
21
3.473289
31
0.0
0
LINE
8
MCD_Layer_0
10
0.842823
20
1.933281
30
0.0
11
-3.189343
21
4.959923
31
0.0
0
LINE
8
MCD_Layer_0
10
0.122486
20
4.891808
30
0.0
11
-1.077313
21
4.939781
31
0.0
0
LINE
8
MCD_Layer_0
10
2.042347
20
4.937950
30
0.0
11
0.170734
21
4.960197
31
0.0
0
LINE
8
MCD_Layer_0
10
-0.885327
20
6.400871
30
0.0
11
0.579426
21
4.529259
31
0.0
0
LINE
8
MCD_Layer_0
10
0.601673
20
5.680901
30
0.0
11
0.578968
21
1.361259
31
0.0
0
LINE
8
MCD_Layer_0
10
0.602497
20
0.928947
30
0.0
11
0.575855
21
3.473198
31
0.0
0
LINE
8
MCD_Layer_0
10
-3.429577
20
4.934380
30
0.0
11
-0.885327
21
4.961479
31
0.0
0
LINE
8
MCD_Layer_0
10
-2.613293
20
4.930992
30
0.0
11
-0.885327
21
4.961479
31
0.0
0
LINE
8
MCD_Layer_0
10
-2.613293
20
4.930992
30
0.0
11
-3.861340
21
4.961937
31
0.0
0
LINE
8
MCD_Layer_0
10
1.466572
20
4.946373
30
0.0
11
-3.861340
21
4.961937
31
0.0
0
LINE
8
MCD_Layer_0
10
1.466572
20
4.946373
30
0.0
11
-0.885327
21
4.961479
31
0.0
0
LINE
8
MCD_Layer_0
10
-3.045330
20
4.945366
30
0.0
11
-0.885327
21
4.961479
31
0.0
0
LINE
8
MCD_Layer_0
10
-0.885327
20
1.313194
30
0.0
11
0.586841
21
3.473198
31
0.0
0
LINE
8
MCD_Layer_0
10
0.602955
20
1.649193
30
0.0
11
0.585102
21
3.041252
31
0.0
0
LINE
8
MCD_Layer_0
10
0.602589
20
4.625023
30
0.0
11
0.583179
21
2.705254
31
0.0
0
LINE
8
MCD_Layer_0
10
0.266498
20
4.941704
30
0.0
11
-1.653271
21
4.959923
31
0.0
0
LINE
8
MCD_Layer_0
10
0.696705
20
4.880455
30
0.0
11
-2.997357
21
4.893639
31
0.0
0
LINE
8
MCD_Layer_0
10
1.256939
20
4.942162
30
0.0
11
3.608929
21
4.938866
31
0.0
0
LINE
8
MCD_Layer_0
10
0.056957
20
4.934563
30
0.0
11
3.608929
21
4.938866
31
0.0
0
LINE
8
MCD_Layer_0
10
0.056957
20
4.934563
30
0.0
11
-0.470936
21
4.932274
31
0.0
0
LINE
8
MCD_Layer_0
10
-0.686268
20
3.473198
30
0.0
11
2.313000
21
3.473473
31
0.0
0
LINE
8
MCD_Layer_0
10
2.313000
20
1.217155
30
0.0
11
3.774364
21
0.689262
31
0.0
0
LINE
8
MCD_Layer_0
10
3.772076
20
6.353264
30
0.0
11
3.773815
21
4.673180
31
0.0
0
LINE
8
MCD_Layer_0
10
3.770794
20
4.192986
30
0.0
11
3.772442
21
3.665184
31
0.0
0
LINE
8
MCD_Layer_0
10
3.770153
20
3.473198
30
0.0
11
2.313000
21
3.473289
31
0.0
0
LINE
8
MCD_Layer_0
10
3.032787
20
4.932640
30
0.0
11
2.504986
21
4.930351
31
0.0
0
LINE
8
MCD_Layer_0
10
3.176891
20
1.915154
30
0.0
11
2.504986
21
4.930351
31
0.0
0
LINE
8
MCD_Layer_0
10
3.176891
20
1.915154
30
0.0
11
0.824993
21
4.950676
31
0.0
0
LINE
8
MCD_Layer_0
10
4.905041
20
4.916252
30
0.0
11
0.824993
21
4.950676
31
0.0
0
LINE
8
MCD_Layer_0
10
4.905041
20
4.916252
30
0.0
11
0.441021
21
4.948479
31
0.0
0
LINE
8
MCD_Layer_0
10
4.473095
20
4.933556
30
0.0
11
0.441021
21
4.948479
31
0.0
0
LINE
8
MCD_Layer_0
10
4.473095
20
4.933556
30
0.0
11
-0.038990
21
4.955986
31
0.0
0
LINE
8
MCD_Layer_0
10
4.905041
20
4.916252
30
0.0
11
-0.038990
21
4.955986
31
0.0
0
LINE
8
MCD_Layer_0
10
4.905041
20
4.916252
30
0.0
11
5.192974
21
4.954521
31
0.0
0
LINE
8
MCD_Layer_0
10
4.616833
20
1.916069
30
0.0
11
5.192974
21
4.954521
31
0.0
0
LINE
8
MCD_Layer_0
10
4.616833
20
1.916069
30
0.0
11
5.289013
21
4.959465
31
0.0
0
LINE
8
MCD_Layer_0
10
0.680981
20
4.927147
30
0.0
11
5.289013
21
4.959465
31
0.0
0
LINE
8
MCD_Layer_0
10
0.680981
20
4.927147
30
0.0
11
2.264935
21
4.957451
31
0.0
0
LINE
8
MCD_Layer_0
10
5.001080
20
4.938774
30
0.0
11
2.264935
21
4.957451
31
0.0
0
LINE
8
MCD_Layer_0
10
5.001080
20
4.938774
30
0.0
11
0.824993
21
4.962395
31
0.0
0
LINE
8
MCD_Layer_0
10
4.617016
20
1.942436
30
0.0
11
0.824993
21
4.962395
31
0.0
0
LINE
8
MCD_Layer_0
10
4.617016
20
1.942436
30
0.0
11
3.801098
21
4.960472
31
0.0
0
LINE
8
MCD_Layer_0
10
5.289013
20
1.938957
30
0.0
11
3.801098
21
4.960472
31
0.0
0
LINE
8
MCD_Layer_0
10
5.289013
20
1.938957
30
0.0
11
2.457012
21
4.926414
31
0.0
0
LINE
8
MCD_Layer_0
10
1.257030
20
1.942162
30
0.0
11
2.457012
21
4.926414
31
0.0
0
LINE
8
MCD_Layer_0
10
4.233044
20
1.940239
30
0.0
11
2.504986
21
4.906914
31
0.0
0
LINE
8
MCD_Layer_0
10
4.233135
20
4.940239
30
0.0
11
2.504986
21
4.906914
31
0.0
0
LINE
8
MCD_Layer_0
10
4.233135
20
4.940239
30
0.0
11
4.856976
21
4.935753
31
0.0
0
LINE
8
MCD_Layer_0
10
1.208965
20
4.938225
30
0.0
11
4.856976
21
4.935753
31
0.0
0
LINE
8
MCD_Layer_0
10
1.208965
20
4.938225
30
0.0
11
2.504986
21
4.930351
31
0.0
0
LINE
8
MCD_Layer_0
10
2.313000
20
2.369164
30
0.0
11
3.778027
21
3.665184
31
0.0
0
LINE
8
MCD_Layer_0
10
3.770153
20
5.536980
30
0.0
11
3.777203
21
5.489189
31
0.0
0
LINE
8
MCD_Layer_0
10
3.767406
20
1.217155
30
0.0
11
3.774364
21
3.617210
31
0.0
0
LINE
8
MCD_Layer_0
10
3.766216
20
3.473198
30
0.0
11
2.313000
21
3.473289
31
0.0
0
LINE
8
MCD_Layer_0
10
0.056957
20
4.934563
30
0.0
11
2.457012
21
4.926414
31
0.0
0
LINE
8
MCD_Layer_0
10
3.273022
20
1.923027
30
0.0
11
2.457012
21
4.926414
31
0.0
0
LINE
8
MCD_Layer_0
10
3.273022
20
1.923027
30
0.0
11
-0.663013
21
4.951683
31
0.0
0
LINE
8
MCD_Layer_0
10
4.905041
20
4.916252
30
0.0
11
-0.663013
21
4.951683
31
0.0
0
LINE
8
MCD_Layer_0
10
2.313000
20
6.065239
30
0.0
11
3.756054
21
0.497185
31
0.0
0
LINE
8
MCD_Layer_0
10
3.791485
20
2.705254
30
0.0
11
3.761639
21
6.065147
31
0.0
0
LINE
8
MCD_Layer_0
10
3.791210
20
6.161552
30
0.0
11
3.763927
21
1.985191
31
0.0
0
LINE
8
MCD_Layer_0
10
3.790478
20
3.473198
30
0.0
11
2.313000
21
3.473289
31
0.0
0
LINE
8
MCD_Layer_0
10
5.001354
20
4.924126
30
0.0
11
0.824993
21
4.950676
31
0.0
0
LINE
8
MCD_Layer_0
10
5.001354
20
4.924126
30
0.0
11
2.888958
21
4.950127
31
0.0
0
LINE
8
MCD_Layer_0
10
4.425121
20
4.929619
30
0.0
11
2.888958
21
4.950127
31
0.0
0
LINE
8
MCD_Layer_0
10
4.425121
20
4.929619
30
0.0
11
4.664898
21
4.955162
31
0.0
0
LINE
8
MCD_Layer_0
10
5.001354
20
4.924126
30
0.0
11
4.664898
21
4.955162
31
0.0
0
LINE
8
MCD_Layer_0
10
5.001354
20
4.924126
30
0.0
11
5.192974
21
4.954521
31
0.0
0
LINE
8
MCD_Layer_0
10
2.313000
20
6.161552
30
0.0
11
3.763927
21
6.353172
31
0.0
0
LINE
8
MCD_Layer_0
10
3.794323
20
2.705254
30
0.0
11
3.761639
21
2.273216
31
0.0
0
LINE
8
MCD_Layer_0
10
3.793591
20
6.065239
30
0.0
11
3.756054
21
1.841270
31
0.0
0
LINE
8
MCD_Layer_0
10
3.793316
20
3.473198
30
0.0
11
2.313000
21
3.473289
31
0.0
0
LINE
8
MCD_Layer_0
10
4.905041
20
4.916252
30
0.0
11
0.681072
21
4.953514
31
0.0
0
LINE
8
MCD_Layer_0
10
4.712963
20
1.923943
30
0.0
11
0.681072
21
4.953514
31
0.0
0
LINE
8
MCD_Layer_0
10
4.712963
20
1.923943
30
0.0
11
3.801098
21
4.960472
31
0.0
0
LINE
8
MCD_Layer_0
10
0.680981
20
4.927147
30
0.0
11
3.801098
21
4.960472
31
0.0
0
LINE
8
MCD_Layer_0
10
2.313000
20
1.841179
30
0.0
11
3.766949
21
4.961296
31
0.0
0
LINE
8
MCD_Layer_0
10
3.800274
20
6.161369
30
0.0
11
3.769787
21
2.993279
31
0.0
0
LINE
8
MCD_Layer_0
10
3.799908
20
1.889153
30
0.0
11
3.770885
21
6.449211
31
0.0
0
LINE
8
MCD_Layer_0
10
3.799267
20
3.473198
30
0.0
11
2.313000
21
3.473289
31
0.0
0
LINE
8
MCD_Layer_0
10
0.728954
20
4.931084
30
0.0
11
5.289013
21
4.959465
31
0.0
0
LINE
8
MCD_Layer_0
10
0.728954
20
4.931084
30
0.0
11
0.777020
21
4.958458
31
0.0
0
LINE
8
MCD_Layer_0
10
1.496899
20
4.935478
30
0.0
11
0.777020
21
4.958458
31
0.0
0
LINE
8
MCD_Layer_0
10
1.496899
20
4.935478
30
0.0
11
4.568951
21
4.961937
31
0.0
0
LINE
8
MCD_Layer_0
10
1.593029
20
1.940422
30
0.0
11
4.568951
21
4.961937
31
0.0
0
LINE
8
MCD_Layer_0
10
1.593029
20
1.940422
30
0.0
11
2.313000
21
4.961479
31
0.0
0
LINE
8
MCD_Layer_0
10
5.289013
20
1.938957
30
0.0
11
2.313000
21
4.961479
31
0.0
0
LINE
8
MCD_Layer_0
10
2.313000
20
6.449211
30
0.0
11
0.778759
21
3.473198
31
0.0
0
LINE
8
MCD_Layer_0
10
3.801281
20
5.249138
30
0.0
11
0.777020
21
3.041252
31
0.0
0
LINE
8
MCD_Layer_0
10
3.800915
20
3.377251
30
0.0
11
0.775738
21
4.961296
31
0.0
0
LINE
8
MCD_Layer_0
10
3.800274
20
3.473198
30
0.0
11
2.313000
21
3.473289
31
0.0
0
LINE
8
MCD_Layer_0
10
2.217052
20
1.935936
30
0.0
11
3.801098
21
4.960472
31
0.0
0
LINE
8
MCD_Layer_0
10
2.217052
20
1.935936
30
0.0
11
2.457012
21
4.926414
31
0.0
0
LINE
8
MCD_Layer_0
10
2.313000
20
3.377251
30
0.0
11
0.775738
21
3.617210
31
0.0
0
LINE
8
MCD_Layer_0
10
3.766216
20
5.249138
30
0.0
11
0.777020
21
1.409142
31
0.0
0
LINE
8
MCD_Layer_0
10
3.760815
20
6.449211
30
0.0
11
0.778759
21
3.665184
31
0.0
0
LINE
8
MCD_Layer_0
10
3.758434
20
3.473198
30
0.0
11
2.313000
21
3.473289
31
0.0
0
LINE
8
MCD_Layer_0
10
5.289013
20
1.938957
30
0.0
11
2.504986
21
4.918633
31
0.0
0
LINE
8
MCD_Layer_0
10
4.233044
20
1.940239
30
0.0
11
2.504986
21
4.918633
31
0.0
0
LINE
8
MCD_Layer_0
10
8.307113
20
4.935387
30
0.0
11
5.347487
21
4.949577
31
0.0
0
LINE
8
MCD_Layer_0
10
3.205611
20
1.911308
30
0.0
11
6.211471
21
4.956078
31
0.0
0
LINE
8
MCD_Layer_0
10
2.492232
20
3.473198
30
0.0
11
5.491500
21
3.473473
31
0.0
0
LINE
8
MCD_Layer_0
10
5.491500
20
1.187309
30
0.0
11
3.929610
21
4.193169
31
0.0
0
LINE
8
MCD_Layer_0
10
6.974380
20
5.378044
30
0.0
11
3.935195
21
0.737236
31
0.0
0
LINE
8
MCD_Layer_0
10
6.975020
20
2.545952
30
0.0
11
3.937209
21
2.177269
31
0.0
0
LINE
8
MCD_Layer_0
10
6.975936
20
3.473198
30
0.0
11
5.491500
21
3.473289
31
0.0
0
LINE
8
MCD_Layer_0
10
5.491775
20
3.473198
30
0.0
11
4.564254
21
1.918907
31
0.0
0
LINE
8
MCD_Layer_0
10
4.195571
20
4.957634
30
0.0
11
8.260421
21
1.917442
31
0.0
0
LINE
8
MCD_Layer_0
10
5.923537
20
4.958824
30
0.0
11
4.356978
21
1.912041
31
0.0
0
LINE
8
MCD_Layer_0
10
5.491591
20
3.473198
30
0.0
11
2.492232
21
3.473198
31
0.0
0
LINE
8
MCD_Layer_0
10
5.491500
20
3.473473
30
0.0
11
5.491500
21
2.338676
31
0.0
0
LINE
8
MCD_Layer_0
10
3.930343
20
3.809288
30
0.0
11
6.978042
21
2.143120
31
0.0
0
LINE
8
MCD_Layer_0
10
6.912032
20
3.281303
30
0.0
11
6.978591
21
1.328300
31
0.0
0
LINE
8
MCD_Layer_0
10
6.934279
20
2.561241
30
0.0
11
6.978133
21
3.473198
31
0.0
0
LINE
8
MCD_Layer_0
10
5.491500
20
3.473289
30
0.0
11
5.491500
21
0.473930
31
0.0
0
LINE
8
MCD_Layer_0
10
3.346602
20
4.915977
30
0.0
11
4.579543
21
4.959831
31
0.0
0
LINE
8
MCD_Layer_0
10
3.970626
20
4.920280
30
0.0
11
6.787612
21
4.959373
31
0.0
0
LINE
8
MCD_Layer_0
10
4.018600
20
4.924217
30
0.0
11
3.379561
21
4.958092
31
0.0
0
LINE
8
MCD_Layer_0
10
4.018600
20
4.924217
30
0.0
11
2.611526
21
4.956627
31
0.0
0
LINE
8
MCD_Layer_0
10
4.899154
20
4.937035
30
0.0
11
2.611526
21
4.956627
31
0.0
0
LINE
8
MCD_Layer_0
10
4.899154
20
4.937035
30
0.0
11
6.451522
21
4.962578
31
0.0
0
LINE
8
MCD_Layer_0
10
3.219161
20
4.928154
30
0.0
11
6.451522
21
4.962578
31
0.0
0
LINE
8
MCD_Layer_0
10
5.491500
20
1.200859
30
0.0
11
6.946456
21
4.433220
31
0.0
0
LINE
8
MCD_Layer_0
10
6.980880
20
5.040764
30
0.0
11
6.945083
21
2.753227
31
0.0
0
LINE
8
MCD_Layer_0
10
6.980697
20
1.424248
30
0.0
11
6.942153
21
5.057243
31
0.0
0
LINE
8
MCD_Layer_0
10
6.980788
20
3.473198
30
0.0
11
5.491500
21
3.473289
31
0.0
0
LINE
8
MCD_Layer_0
10
5.491775
20
3.473198
30
0.0
11
3.442550
21
4.923851
31
0.0
0
LINE
8
MCD_Layer_0
10
7.075545
20
4.962486
30
0.0
11
3.008590
21
4.892998
31
0.0
0
LINE
8
MCD_Layer_0
10
4.579543
20
4.962761
30
0.0
11
2.869430
21
1.907188
31
0.0
0
LINE
8
MCD_Layer_0
10
5.491500
20
3.473473
30
0.0
11
5.491500
21
0.851128
31
0.0
0
LINE
8
MCD_Layer_0
10
3.925490
20
1.793205
30
0.0
11
6.981063
21
3.458183
31
0.0
0
LINE
8
MCD_Layer_0
10
3.941695
20
5.201256
30
0.0
11
6.980880
21
4.545647
31
0.0
0
LINE
8
MCD_Layer_0
10
3.949752
20
2.177177
30
0.0
11
6.980330
21
3.473198
31
0.0
0
LINE
8
MCD_Layer_0
10
6.563949
20
1.931450
30
0.0
11
4.195479
21
4.962029
31
0.0
0
LINE
8
MCD_Layer_0
10
7.331893
20
1.935844
30
0.0
11
3.331496
21
4.961479
31
0.0
0
LINE
8
MCD_Layer_0
10
6.363723
20
1.938866
30
0.0
11
2.899550
21
4.959740
31
0.0
0
LINE
8
MCD_Layer_0
10
5.491500
20
4.345421
30
0.0
11
3.957168
21
0.881248
31
0.0
0
LINE
8
MCD_Layer_0
10
6.978042
20
5.497429
30
0.0
11
3.957900
21
4.961205
31
0.0
0
LINE
8
MCD_Layer_0
10
6.975844
20
4.633446
30
0.0
11
3.957351
21
3.185265
31
0.0
0
LINE
8
MCD_Layer_0
10
6.973647
20
3.473198
30
0.0
11
5.491500
21
3.473289
31
0.0
0
LINE
8
MCD_Layer_0
10
5.491775
20
3.473198
30
0.0
11
6.651748
21
1.939049
31
0.0
0
LINE
8
MCD_Layer_0
10
5.203567
20
4.955345
30
0.0
11
2.772017
21
1.936760
31
0.0
0
LINE
8
MCD_Layer_0
10
3.859572
20
4.953514
30
0.0
11
8.291915
21
1.932549
31
0.0
0
LINE
8
MCD_Layer_0
10
8.291915
20
1.932549
30
0.0
11
6.307601
21
4.952232
31
0.0
0
LINE
8
MCD_Layer_0
10
4.210494
20
4.916527
30
0.0
11
3.331496
21
4.942436
31
0.0
0
LINE
8
MCD_Layer_0
10
5.491500
20
2.192192
30
0.0
11
6.934829
21
1.313194
31
0.0
0
LINE
8
MCD_Layer_0
10
6.960738
20
4.832207
30
0.0
11
6.940505
21
2.465202
31
0.0
0
LINE
8
MCD_Layer_0
10
6.955611
20
4.208183
30
0.0
11
6.936202
21
6.113213
31
0.0
0
LINE
8
MCD_Layer_0
10
6.950210
20
3.473198
30
0.0
11
5.491500
21
3.473289
31
0.0
0
LINE
8
MCD_Layer_0
10
5.491775
20
3.473198
30
0.0
11
6.226485
21
4.917900
31
0.0
0
LINE
8
MCD_Layer_0
10
8.131515
20
4.931908
30
0.0
11
5.312789
21
4.894463
31
0.0
0
LINE
8
MCD_Layer_0
10
8.371474
20
4.928154
30
0.0
11
8.293746
21
1.906822
31
0.0
0
LINE
8
MCD_Layer_0
10
5.491500
20
3.473473
30
0.0
11
5.491500
21
6.275444
31
0.0
0
LINE
8
MCD_Layer_0
10
3.925124
20
5.921135
30
0.0
11
6.946181
21
6.290092
31
0.0
0
LINE
8
MCD_Layer_0
10
3.939681
20
3.089134
30
0.0
11
6.948195
21
4.209648
31
0.0
0
LINE
8
MCD_Layer_0
10
3.945632
20
1.265129
30
0.0
11
6.950942
21
3.473198
31
0.0
0
LINE
8
MCD_Layer_0
10
6.227950
20
1.927330
30
0.0
11
3.283431
21
4.932640
31
0.0
0
LINE
8
MCD_Layer_0
10
4.691970
20
1.930168
30
0.0
11
4.627517
21
4.937401
31
0.0
0
LINE
8
MCD_Layer_0
10
6.707870
20
1.931541
30
0.0
11
7.603530
21
4.941338
31
0.0
0
LINE
8
MCD_Layer_0
10
6.707870
20
1.931541
30
0.0
11
7.699569
21
4.943352
31
0.0
0
LINE
8
MCD_Layer_0
10
2.811751
20
1.940422
30
0.0
11
7.699569
21
4.943352
31
0.0
0
LINE
8
MCD_Layer_0
10
5.787765
20
1.938499
30
0.0
11
6.259444
21
4.907280
31
0.0
0
LINE
8
MCD_Layer_0
10
6.756026
20
1.935478
30
0.0
11
6.259444
21
4.907280
31
0.0
0
LINE
8
MCD_Layer_0
10
5.491500
20
4.737724
30
0.0
11
3.953780
21
4.241142
31
0.0
0
LINE
8
MCD_Layer_0
10
6.925582
20
1.425621
30
0.0
11
3.951583
21
3.185081
31
0.0
0
LINE
8
MCD_Layer_0
10
6.932631
20
2.241631
30
0.0
11
3.948195
21
6.305107
31
0.0
0
LINE
8
MCD_Layer_0
10
6.930800
20
3.473198
30
0.0
11
5.491500
21
3.473289
31
0.0
0
LINE
8
MCD_Layer_0
10
5.491775
20
3.473198
30
0.0
11
4.259933
21
1.929893
31
0.0
0
LINE
8
MCD_Layer_0
10
8.323409
20
4.912498
30
0.0
11
6.916427
21
1.924400
31
0.0
0
LINE
8
MCD_Layer_0
10
7.651504
20
4.904259
30
0.0
11
2.491500
21
1.889977
31
0.0
0
LINE
8
MCD_Layer_0
10
5.491500
20
3.473473
30
0.0
11
5.491500
21
0.473198
31
0.0
0
LINE
8
MCD_Layer_0
10
3.908278
20
2.033073
30
0.0
11
6.908462
21
3.104424
31
0.0
0
LINE
8
MCD_Layer_0
10
6.939315
20
0.785118
30
0.0
11
6.923293
21
5.664787
31
0.0
0
LINE
8
MCD_Layer_0
10
6.949386
20
5.105217
30
0.0
11
6.937850
21
3.473198
31
0.0
0
LINE
8
MCD_Layer_0
10
7.683089
20
4.931084
30
0.0
11
7.123519
21
4.919548
31
0.0
0
LINE
8
MCD_Layer_0
10
5.858993
20
4.933830
30
0.0
11
4.339583
21
4.925499
31
0.0
0
LINE
8
MCD_Layer_0
10
3.275283
20
4.938225
30
0.0
11
7.027480
21
4.935112
31
0.0
0
LINE
8
MCD_Layer_0
10
5.491500
20
1.256981
30
0.0
11
6.956527
21
5.009178
31
0.0
0
LINE
8
MCD_Layer_0
10
6.953414
20
4.761070
30
0.0
11
6.956893
21
0.785118
31
0.0
0
LINE
8
MCD_Layer_0
10
6.958449
20
1.536858
30
0.0
11
6.950576
21
4.529167
31
0.0
0
LINE
8
MCD_Layer_0
10
6.966781
20
3.473198
30
0.0
11
5.491500
21
3.473289
31
0.0
0
LINE
8
MCD_Layer_0
10
3.555160
20
4.932274
30
0.0
11
6.547469
21
4.948479
31
0.0
0
LINE
8
MCD_Layer_0
10
4.228255
20
1.914787
30
0.0
11
7.411452
21
4.954887
31
0.0
0
LINE
8
MCD_Layer_0
10
5.491500
20
2.209953
30
0.0
11
3.933089
21
5.393150
31
0.0
0
LINE
8
MCD_Layer_0
10
6.973189
20
3.410027
30
0.0
11
3.937758
21
6.401237
31
0.0
0
LINE
8
MCD_Layer_0
10
6.973830
20
3.746208
30
0.0
11
3.941970
21
1.697166
31
0.0
0
LINE
8
MCD_Layer_0
10
6.974654
20
3.473198
30
0.0
11
5.491500
21
3.473289
31
0.0
0
LINE
8
MCD_Layer_0
10
5.491775
20
3.473198
30
0.0
11
5.764510
21
1.923668
31
0.0
0
LINE
8
MCD_Layer_0
10
3.715468
20
4.956352
30
0.0
11
3.508285
21
1.926048
31
0.0
0
LINE
8
MCD_Layer_0
10
5.299514
20
4.957359
30
0.0
11
3.796309
21
1.926231
31
0.0
0
LINE
8
MCD_Layer_0
10
5.491500
20
3.473473
30
0.0
11
5.491500
21
1.778008
31
0.0
0
LINE
8
MCD_Layer_0
10
3.944533
20
3.329277
30
0.0
11
6.976668
21
3.170158
31
0.0
0
LINE
8
MCD_Layer_0
10
3.941512
20
2.129295
30
0.0
11
6.977859
21
5.378044
31
0.0
0
LINE
8
MCD_Layer_0
10
3.935195
20
3.569328
30
0.0
11
6.978866
21
3.473198
31
0.0
0
LINE
8
MCD_Layer_0
10
7.396346
20
1.916893
30
0.0
11
5.587630
21
4.960564
31
0.0
0
LINE
8
MCD_Layer_0
10
8.117965
20
1.901054
30
0.0
11
3.523574
21
4.961113
31
0.0
0
LINE
8
MCD_Layer_0
10
5.614547
20
4.890434
30
0.0
11
8.275527
21
4.961296
31
0.0
0
LINE
8
MCD_Layer_0
10
5.491500
20
3.596245
30
0.0
11
6.908736
21
6.257225
31
0.0
0
LINE
8
MCD_Layer_0
10
6.979598
20
0.752251
30
0.0
11
6.933913
21
5.825279
31
0.0
0
LINE
8
MCD_Layer_0
10
6.979323
20
3.728447
30
0.0
11
6.943709
21
4.385338
31
0.0
0
LINE
8
MCD_Layer_0
10
6.978408
20
3.473198
30
0.0
11
5.491500
21
3.473289
31
0.0
0
LINE
8
MCD_Layer_0
10
5.491775
20
3.473198
30
0.0
11
5.746749
21
4.925407
31
0.0
0
LINE
8
MCD_Layer_0
10
6.403640
20
4.960106
30
0.0
11
7.922957
21
4.927330
31
0.0
0
LINE
8
MCD_Layer_0
10
7.075545
20
4.959557
30
0.0
11
4.083236
21
4.928703
31
0.0
0
LINE
8
MCD_Layer_0
10
4.083236
20
4.928703
30
0.0
11
8.275527
21
4.958366
31
0.0
0
LINE
8
MCD_Layer_0
10
4.083236
20
4.928703
30
0.0
11
7.123519
21
4.957634
31
0.0
0
LINE
8
MCD_Layer_0
10
4.851180
20
4.933098
30
0.0
11
7.123519
21
4.957634
31
0.0
0
LINE
8
MCD_Layer_0
10
4.851180
20
4.933098
30
0.0
11
7.747451
21
4.961937
31
0.0
0
LINE
8
MCD_Layer_0
10
4.851180
20
4.933098
30
0.0
11
4.195479
21
4.962029
31
0.0
0
LINE
8
MCD_Layer_0
10
4.803023
20
4.929161
30
0.0
11
4.195479
21
4.962029
31
0.0
0
LINE
8
MCD_Layer_0
10
5.491500
20
2.784721
30
0.0
11
6.947463
21
2.177177
31
0.0
0
LINE
8
MCD_Layer_0
10
6.980330
20
1.200859
30
0.0
11
6.946456
21
5.585228
31
0.0
0
LINE
8
MCD_Layer_0
10
6.980147
20
3.152397
30
0.0
11
6.943252
21
1.121208
31
0.0
0
LINE
8
MCD_Layer_0
10
6.980147
20
3.473198
30
0.0
11
5.491500
21
3.473289
31
0.0
0
LINE
8
MCD_Layer_0
10
5.491775
20
3.473198
30
0.0
11
5.170699
21
4.924950
31
0.0
0
LINE
8
MCD_Layer_0
10
3.139510
20
4.961845
30
0.0
11
6.802535
21
4.918266
31
0.0
0
LINE
8
MCD_Layer_0
10
8.035476
20
4.962120
30
0.0
11
2.498092
21
4.906548
31
0.0
0
LINE
8
MCD_Layer_0
10
5.491500
20
3.473473
30
0.0
11
5.491500
21
0.479790
31
0.0
0
LINE
8
MCD_Layer_0
10
6.924850
20
4.001274
30
0.0
11
6.980605
21
3.596245
31
0.0
0
LINE
8
MCD_Layer_0
10
6.908736
20
6.305290
30
0.0
11
6.980605
21
2.258110
31
0.0
0
LINE
8
MCD_Layer_0
10
3.937026
20
3.089134
30
0.0
11
6.980422
21
3.473198
31
0.0
0
LINE
8
MCD_Layer_0
10
4.276412
20
1.918724
30
0.0
11
5.107436
21
4.962120
31
0.0
0
LINE
8
MCD_Layer_0
10
3.827987
20
1.929619
30
0.0
11
7.315505
21
4.961662
31
0.0
0
LINE
8
MCD_Layer_0
10
3.875960
20
1.933556
30
0.0
11
4.339583
21
4.960655
31
0.0
0
LINE
8
MCD_Layer_0
10
5.491500
20
1.857658
30
0.0
11
3.951858
21
2.321281
31
0.0
0
LINE
8
MCD_Layer_0
10
6.978957
20
6.321587
30
0.0
11
3.954787
21
4.337273
31
0.0
0
LINE
8
MCD_Layer_0
10
6.977401
20
1.617607
30
0.0
11
3.955611
21
2.033257
31
0.0
0
LINE
8
MCD_Layer_0
10
6.975844
20
3.473198
30
0.0
11
5.491500
21
3.473289
31
0.0
0
LINE
8
MCD_Layer_0
10
5.491775
20
3.473198
30
0.0
11
3.635909
21
1.937309
31
0.0
0
LINE
8
MCD_Layer_0
10
4.051558
20
4.957542
30
0.0
11
8.195968
21
1.936394
31
0.0
0
LINE
8
MCD_Layer_0
10
7.027572
20
4.955620
30
0.0
11
5.843978
21
1.930992
31
0.0
0
LINE
8
MCD_Layer_0
10
5.843978
20
1.930992
30
0.0
11
4.819594
21
4.953148
31
0.0
0
LINE
8
MCD_Layer_0
10
5.698775
20
4.921471
30
0.0
11
5.635512
21
4.943993
31
0.0
0
LINE
8
MCD_Layer_0
10
5.491500
20
3.680473
30
0.0
11
6.939773
21
3.617210
31
0.0
0
LINE
8
MCD_Layer_0
10
6.962295
20
1.056755
30
0.0
11
6.946364
21
2.705162
31
0.0
0
LINE
8
MCD_Layer_0
10
6.957717
20
6.336784
30
0.0
11
6.945907
21
4.721245
31
0.0
0
LINE
8
MCD_Layer_0
10
6.953231
20
3.473198
30
0.0
11
5.491500
21
3.473289
31
0.0
0
LINE
8
MCD_Layer_0
10
5.491775
20
3.473198
30
0.0
11
8.355086
21
4.927605
31
0.0
0
LINE
8
MCD_Layer_0
10
6.739547
20
4.934929
30
0.0
11
7.426558
21
4.922569
31
0.0
0
LINE
8
MCD_Layer_0
10
3.379470
20
4.928795
30
0.0
11
7.003219
21
4.887413
31
0.0
0
LINE
8
MCD_Layer_0
10
5.491500
20
3.473473
30
0.0
11
5.491500
21
4.984917
31
0.0
0
LINE
8
MCD_Layer_0
10
6.905715
20
2.273216
30
0.0
11
6.939864
21
3.731010
31
0.0
0
LINE
8
MCD_Layer_0
10
3.927413
20
2.561241
30
0.0
11
6.940047
21
3.921623
31
0.0
0
LINE
8
MCD_Layer_0
10
3.945449
20
5.201164
30
0.0
11
6.945724
21
3.473198
31
0.0
0
LINE
8
MCD_Layer_0
10
5.939925
20
1.927147
30
0.0
11
7.219466
21
4.927422
31
0.0
0
LINE
8
MCD_Layer_0
10
7.715957
20
1.932182
30
0.0
11
3.283431
21
4.932640
31
0.0
0
LINE
8
MCD_Layer_0
10
6.035964
20
1.935020
30
0.0
11
8.371474
21
4.939873
31
0.0
0
LINE
8
MCD_Layer_0
10
6.035964
20
1.935020
30
0.0
11
7.603530
21
4.941338
31
0.0
0
LINE
8
MCD_Layer_0
10
5.787765
20
1.938499
30
0.0
11
7.603530
21
4.941338
31
0.0
0
LINE
8
MCD_Layer_0
10
10.393261
20
4.938866
30
0.0
11
8.164501
21
3.473198
31
0.0
0
LINE
8
MCD_Layer_0
10
9.816479
20
4.869469
30
0.0
11
8.316845
21
4.949120
31
0.0
0
LINE
8
MCD_Layer_1
10
-12.038676
20
0.000000
30
0.0
11
12.038676
21
0.000000
31
0.0
0
ENDSEC
0
EOF
