0
SECTION
2
ENTITIES
0
LINE
8
MCD_Layer_0
10
3.105469
20
12.484131
30
0.0
11
20.096436
21
19.980469
31
0.0
0
LINE
8
MCD_Layer_0
10
3.105469
20
12.484131
30
0.0
11
10.096436
21
0.000000
31
0.0
0
LINE
8
MCD_Layer_0
10
20.018921
20
19.980469
30
0.0
11
20.136719
21
19.980469
31
0.0
0
LINE
8
MCD_Layer_0
10
20.449219
20
20.058594
30
0.0
11
19.980469
21
20.292969
31
0.0
0
LINE
8
MCD_Layer_0
10
19.980469
20
3.105469
30
0.0
11
12.484131
21
10.096436
31
0.0
0
LINE
8
MCD_Layer_0
10
0.000000
20
22.518921
30
0.0
11
17.004395
21
10.017700
31
0.0
0
LINE
8
MCD_Layer_0
10
0.000000
20
20.018921
30
0.0
11
19.980469
21
20.136719
31
0.0
0
LINE
8
MCD_Layer_0
10
19.980469
20
19.824219
30
0.0
11
20.292358
21
20.605469
31
0.0
0
LINE
8
MCD_Layer_0
10
30.449219
20
37.832642
30
0.0
11
20.040894
21
19.980469
31
0.0
0
LINE
8
MCD_Layer_0
10
20.449219
20
19.980469
30
0.0
11
22.480469
21
17.004395
31
0.0
0
LINE
8
MCD_Layer_0
10
10.017700
20
0.000000
30
0.0
11
13.768921
21
32.731934
31
0.0
0
LINE
8
MCD_Layer_0
10
0.018311
20
39.340210
30
0.0
11
8.143921
21
5.556030
31
0.0
0
LINE
8
MCD_Layer_0
10
10.018311
20
35.780029
30
0.0
11
20.018921
21
19.980469
31
0.0
0
LINE
8
MCD_Layer_0
10
20.136719
20
19.980469
30
0.0
11
22.792969
21
20.058594
31
0.0
0
LINE
8
MCD_Layer_0
10
19.980469
20
20.449219
30
0.0
11
19.980469
21
8.105469
31
0.0
0
LINE
8
MCD_Layer_0
10
5.556030
20
10.018311
30
0.0
11
35.780029
21
31.893921
31
0.0
0
LINE
8
MCD_Layer_0
10
9.556274
20
30.018311
30
0.0
11
30.300293
21
20.018921
31
0.0
0
LINE
8
MCD_Layer_0
10
6.996460
20
0.018311
30
0.0
11
24.940186
21
20.018921
31
0.0
0
LINE
8
MCD_Layer_0
10
19.980469
20
20.136719
30
0.0
11
19.980469
21
22.792969
31
0.0
0
LINE
8
MCD_Layer_0
10
20.058594
20
19.980469
30
0.0
11
20.449219
21
19.980469
31
0.0
0
LINE
8
MCD_Layer_0
10
19.980469
20
6.996460
30
0.0
11
0.018311
21
24.940186
31
0.0
0
LINE
8
MCD_Layer_0
10
33.143921
20
1.796265
30
0.0
11
5.018311
21
21.820068
31
0.0
0
LINE
8
MCD_Layer_0
10
21.268921
20
38.492432
30
0.0
11
35.018311
21
20.980225
31
0.0
0
LINE
8
MCD_Layer_0
10
20.018921
20
19.980469
30
0.0
11
20.136719
21
19.980469
31
0.0
0
LINE
8
MCD_Layer_0
10
22.792969
20
20.058594
30
0.0
11
19.980469
21
20.449219
31
0.0
0
LINE
8
MCD_Layer_0
10
19.980469
20
21.230469
30
0.0
11
38.492432
21
35.018311
31
0.0
0
LINE
8
MCD_Layer_0
10
20.980225
20
33.768921
30
0.0
11
5.156250
21
10.018311
31
0.0
0
LINE
8
MCD_Layer_0
10
18.619995
20
35.018311
30
0.0
11
9.636230
21
30.018311
31
0.0
0
LINE
8
MCD_Layer_0
10
13.500366
20
20.018311
30
0.0
11
19.980469
21
20.136719
31
0.0
0
LINE
8
MCD_Layer_0
10
19.980469
20
22.792969
30
0.0
11
20.058594
21
19.980469
31
0.0
0
LINE
8
MCD_Layer_0
10
20.449219
20
19.980469
30
0.0
11
34.980469
21
9.636230
31
0.0
0
LINE
8
MCD_Layer_0
10
30.018311
20
13.500366
30
0.0
11
38.768311
21
11.956177
31
0.0
0
LINE
8
MCD_Layer_0
10
20.018311
20
7.740479
30
0.0
11
16.268311
21
12.435913
31
0.0
0
LINE
8
MCD_Layer_0
10
0.018311
20
1.740112
30
0.0
11
20.018311
21
19.980469
31
0.0
0
LINE
8
MCD_Layer_0
10
20.136719
20
19.980469
30
0.0
11
22.792969
21
20.058594
31
0.0
0
LINE
8
MCD_Layer_0
10
19.980469
20
20.449219
30
0.0
11
19.980469
21
16.230469
31
0.0
0
LINE
8
MCD_Layer_0
10
12.435913
20
0.018311
30
0.0
11
1.740112
21
19.393311
31
0.0
0
LINE
8
MCD_Layer_0
10
5.875854
20
20.018311
30
0.0
11
7.820435
21
5.017700
31
0.0
0
LINE
8
MCD_Layer_0
10
20.252075
20
20.018311
30
0.0
11
19.980469
21
19.980469
31
0.0
0
LINE
8
MCD_Layer_0
10
19.980469
20
20.136719
30
0.0
11
19.980469
21
22.792969
31
0.0
0
LINE
8
MCD_Layer_0
10
20.058594
20
19.980469
30
0.0
11
20.449219
21
19.980469
31
0.0
0
LINE
8
MCD_Layer_0
10
7.480469
20
3.244019
30
0.0
11
20.017700
21
27.820435
31
0.0
0
LINE
8
MCD_Layer_0
10
22.518311
20
14.764404
30
0.0
11
20.017700
21
28.940430
31
0.0
0
LINE
8
MCD_Layer_0
10
28.768311
20
23.132324
30
0.0
11
20.018311
21
32.140503
31
0.0
0
LINE
8
MCD_Layer_0
10
20.018311
20
19.980469
30
0.0
11
20.136719
21
19.980469
31
0.0
0
LINE
8
MCD_Layer_0
10
22.792969
20
20.058594
30
0.0
11
19.980469
21
20.449219
31
0.0
0
LINE
8
MCD_Layer_0
10
19.980469
20
28.730469
30
0.0
11
23.132324
21
20.018311
31
0.0
0
LINE
8
MCD_Layer_0
10
32.140503
20
18.768311
30
0.0
11
30.651855
21
30.018311
31
0.0
0
LINE
8
MCD_Layer_0
10
3.500366
20
28.768311
30
0.0
11
24.252319
21
20.018311
31
0.0
0
LINE
8
MCD_Layer_0
10
11.260376
20
20.018311
30
0.0
11
19.980469
21
20.136719
31
0.0
0
LINE
8
MCD_Layer_0
10
19.980469
20
22.792969
30
0.0
11
20.058594
21
19.980469
31
0.0
0
LINE
8
MCD_Layer_0
10
20.449219
20
19.980469
30
0.0
11
28.730469
21
24.252319
31
0.0
0
LINE
8
MCD_Layer_0
10
20.018311
20
11.260376
30
0.0
11
27.518311
21
16.044312
31
0.0
0
LINE
8
MCD_Layer_0
10
20.017700
20
13.180542
30
0.0
11
35.018311
21
2.924194
31
0.0
0
LINE
8
MCD_Layer_0
10
0.017700
20
13.900146
30
0.0
11
20.018311
21
19.980469
31
0.0
0
LINE
8
MCD_Layer_0
10
20.136719
20
19.980469
30
0.0
11
22.792969
21
20.058594
31
0.0
0
LINE
8
MCD_Layer_0
10
19.980469
20
20.449219
30
0.0
11
19.980469
21
19.980469
31
0.0
0
LINE
8
MCD_Layer_0
10
39.468384
20
0.017700
30
0.0
11
23.900146
21
37.518921
31
0.0
0
LINE
8
MCD_Layer_0
10
11.884155
20
30.017700
30
0.0
11
24.180298
21
16.268921
31
0.0
0
LINE
8
MCD_Layer_0
10
21.691895
20
20.018311
30
0.0
11
24.980469
21
20.018921
31
0.0
0
LINE
8
MCD_Layer_0
10
19.980469
20
20.136719
30
0.0
11
19.980469
21
22.792969
31
0.0
0
LINE
8
MCD_Layer_0
10
20.058594
20
19.980469
30
0.0
11
20.449219
21
19.980469
31
0.0
0
LINE
8
MCD_Layer_0
10
16.230469
20
21.691895
30
0.0
11
20.018311
21
24.980469
31
0.0
0
LINE
8
MCD_Layer_0
10
6.268921
20
28.092041
30
0.0
11
0.018311
21
28.380127
31
0.0
0
LINE
8
MCD_Layer_0
10
22.518921
20
24.092407
30
0.0
11
10.018311
21
31.380005
31
0.0
0
LINE
8
MCD_Layer_0
10
20.018921
20
19.980469
30
0.0
11
20.136719
21
19.980469
31
0.0
0
LINE
8
MCD_Layer_0
10
22.792969
20
20.058594
30
0.0
11
19.980469
21
20.449219
31
0.0
0
LINE
8
MCD_Layer_0
10
19.980469
20
22.480469
30
0.0
11
24.092407
21
10.018311
31
0.0
0
LINE
8
MCD_Layer_0
10
31.380005
20
2.518921
30
0.0
11
10.924072
21
0.017700
31
0.0
0
LINE
8
MCD_Layer_0
10
32.780151
20
5.018921
30
0.0
11
32.427979
21
30.017700
31
0.0
0
LINE
8
MCD_Layer_0
10
33.060303
20
20.018921
30
0.0
11
19.980469
21
20.136719
31
0.0
0
LINE
8
MCD_Layer_0
10
19.980469
20
20.449219
30
0.0
11
20.058594
21
19.980469
31
0.0
0
LINE
8
MCD_Layer_0
10
20.292969
20
19.980469
30
0.0
11
4.980469
21
32.427979
31
0.0
0
LINE
8
MCD_Layer_0
10
30.017700
20
33.060303
30
0.0
11
10.018921
21
30.108032
31
0.0
0
LINE
8
MCD_Layer_0
10
30.096436
20
33.060303
30
0.0
11
20.018921
21
19.980469
31
0.0
0
LINE
8
MCD_Layer_0
10
20.136719
20
19.980469
30
0.0
11
20.449219
21
20.058594
31
0.0
0
LINE
8
MCD_Layer_0
10
19.980469
20
20.292969
30
0.0
11
19.980469
21
29.980469
31
0.0
0
LINE
8
MCD_Layer_0
10
32.886353
20
20.095825
30
0.0
11
0.761719
21
30.093994
31
0.0
0
LINE
8
MCD_Layer_0
10
32.886353
20
0.095825
30
0.0
11
28.087769
21
20.018311
31
0.0
0
LINE
8
MCD_Layer_0
10
19.980469
20
20.136719
30
0.0
11
19.980469
21
20.449219
31
0.0
0
LINE
8
MCD_Layer_0
10
20.058594
20
19.980469
30
0.0
11
20.292969
21
19.980469
31
0.0
0
LINE
8
MCD_Layer_0
10
29.980469
20
32.886353
30
0.0
11
20.095825
21
27.820435
31
0.0
0
LINE
8
MCD_Layer_0
10
7.518311
20
3.244019
30
0.0
11
20.017700
21
27.820435
31
0.0
0
LINE
8
MCD_Layer_0
10
20.018311
20
19.980469
30
0.0
11
20.136719
21
19.980469
31
0.0
0
LINE
8
MCD_Layer_0
10
20.449219
20
20.058594
30
0.0
11
19.980469
21
20.292969
31
0.0
0
LINE
8
MCD_Layer_0
10
19.980469
20
9.980469
30
0.0
11
30.108032
21
20.096436
31
0.0
0
LINE
8
MCD_Layer_0
10
19.980469
20
3.105469
30
0.0
11
12.484131
21
20.096436
31
0.0
0
LINE
8
MCD_Layer_0
10
19.980469
20
19.980469
30
0.0
11
19.980469
21
20.136719
31
0.0
0
LINE
8
MCD_Layer_0
10
19.980469
20
20.449219
30
0.0
11
20.058594
21
19.980469
31
0.0
0
LINE
8
MCD_Layer_0
10
20.292969
20
19.980469
30
0.0
11
29.980469
21
32.886353
31
0.0
0
LINE
8
MCD_Layer_0
10
20.095825
20
0.761719
30
0.0
11
5.093994
21
20.252075
31
0.0
0
LINE
8
MCD_Layer_0
10
20.018311
20
19.980469
30
0.0
11
19.980469
21
19.980469
31
0.0
0
LINE
8
MCD_Layer_0
10
20.136719
20
19.980469
30
0.0
11
20.449219
21
20.058594
31
0.0
0
LINE
8
MCD_Layer_0
10
19.980469
20
20.292969
30
0.0
11
19.980469
21
29.980469
31
0.0
0
LINE
8
MCD_Layer_0
10
32.886353
20
0.095825
30
0.0
11
23.900146
21
30.018921
31
0.0
0
LINE
8
MCD_Layer_0
10
32.886353
20
0.095825
30
0.0
11
13.900146
21
20.018311
31
0.0
0
LINE
8
MCD_Layer_0
10
19.980469
20
20.136719
30
0.0
11
19.980469
21
20.449219
31
0.0
0
LINE
8
MCD_Layer_0
10
20.058594
20
19.980469
30
0.0
11
20.292969
21
19.980469
31
0.0
0
LINE
8
MCD_Layer_0
10
29.980469
20
32.886353
30
0.0
11
0.095825
21
23.900146
31
0.0
0
LINE
8
MCD_Layer_0
10
20.018921
20
39.468384
30
0.0
11
0.017700
21
23.900146
31
0.0
0
LINE
8
MCD_Layer_0
10
20.018921
20
19.980469
30
0.0
11
20.136719
21
19.980469
31
0.0
0
LINE
8
MCD_Layer_0
10
20.449219
20
20.058594
30
0.0
11
19.980469
21
20.292969
31
0.0
0
LINE
8
MCD_Layer_0
10
19.980469
20
29.980469
30
0.0
11
32.886353
21
0.095825
31
0.0
0
LINE
8
MCD_Layer_0
10
13.900146
20
35.018311
30
0.0
11
2.924194
21
0.017700
31
0.0
0
LINE
8
MCD_Layer_0
10
13.900146
20
20.018311
30
0.0
11
19.980469
21
20.136719
31
0.0
0
LINE
8
MCD_Layer_0
10
19.980469
20
20.449219
30
0.0
11
20.058594
21
19.980469
31
0.0
0
LINE
8
MCD_Layer_0
10
20.292969
20
19.980469
30
0.0
11
9.980469
21
30.108032
31
0.0
0
LINE
8
MCD_Layer_0
10
30.096436
20
33.060303
30
0.0
11
10.018921
21
30.108032
31
0.0
0
LINE
8
MCD_Layer_0
10
20.096436
20
19.980469
30
0.0
11
19.980469
21
19.980469
31
0.0
0
LINE
8
MCD_Layer_1
10
47.968384
20
16.319580
30
0.0
11
50.506226
21
5.279541
31
0.0
0
LINE
8
MCD_Layer_1
10
61.756226
20
5.375977
30
0.0
11
60.506226
21
3.807983
31
0.0
0
LINE
8
MCD_Layer_1
10
50.505615
20
35.199585
30
0.0
11
60.505615
21
1.760254
31
0.0
0
LINE
8
MCD_Layer_1
10
60.583130
20
20.000000
30
0.0
11
60.624634
21
20.000000
31
0.0
0
LINE
8
MCD_Layer_1
10
63.280884
20
20.078125
30
0.0
11
60.468384
21
20.468750
31
0.0
0
LINE
8
MCD_Layer_1
10
60.468384
20
10.000000
30
0.0
11
75.667969
21
20.037231
31
0.0
0
LINE
8
MCD_Layer_1
10
42.228638
20
15.114746
30
0.0
11
64.787842
21
20.115967
31
0.0
0
LINE
8
MCD_Layer_1
10
49.908081
20
26.286621
30
0.0
11
50.628296
21
20.115967
31
0.0
0
LINE
8
MCD_Layer_1
10
73.748413
20
20.037842
30
0.0
11
60.468384
21
20.156250
31
0.0
0
LINE
8
MCD_Layer_1
10
60.468384
20
22.812500
30
0.0
11
60.546509
21
20.000000
31
0.0
0
LINE
8
MCD_Layer_1
10
60.937134
20
20.000000
30
0.0
11
66.718384
21
10.159912
31
0.0
0
LINE
8
MCD_Layer_1
10
60.584351
20
33.280029
30
0.0
11
63.006226
21
16.719971
31
0.0
0
LINE
8
MCD_Layer_1
10
73.084351
20
20.919800
30
0.0
11
51.756836
21
7.519531
31
0.0
0
LINE
8
MCD_Layer_1
10
68.084351
20
33.519897
30
0.0
11
60.506836
21
20.000000
31
0.0
0
LINE
8
MCD_Layer_1
10
60.624634
20
20.000000
30
0.0
11
63.280884
21
20.078125
31
0.0
0
LINE
8
MCD_Layer_1
10
60.468384
20
20.468750
30
0.0
11
60.468384
21
11.250000
31
0.0
0
LINE
8
MCD_Layer_1
10
47.987915
20
27.615967
30
0.0
11
73.988281
21
0.038452
31
0.0
0
LINE
8
MCD_Layer_1
10
58.868042
20
5.115356
30
0.0
11
80.067993
21
0.038452
31
0.0
0
LINE
8
MCD_Layer_1
10
66.708008
20
12.537231
30
0.0
11
40.827881
21
20.038452
31
0.0
0
LINE
8
MCD_Layer_1
10
60.468384
20
20.156250
30
0.0
11
60.468384
21
22.812500
31
0.0
0
LINE
8
MCD_Layer_1
10
60.546509
20
20.000000
30
0.0
11
60.937134
21
20.000000
31
0.0
0
LINE
8
MCD_Layer_1
10
40.468384
20
26.239624
30
0.0
11
53.005615
21
0.359497
31
0.0
0
LINE
8
MCD_Layer_1
10
73.006836
20
15.919800
30
0.0
11
73.006226
21
28.679810
31
0.0
0
LINE
8
MCD_Layer_1
10
63.006836
20
16.719971
30
0.0
11
55.506226
21
26.559448
31
0.0
0
LINE
8
MCD_Layer_1
10
60.506836
20
20.000000
30
0.0
11
60.624634
21
20.000000
31
0.0
0
LINE
8
MCD_Layer_1
10
60.937134
20
20.078125
30
0.0
11
60.468384
21
20.312500
31
0.0
0
LINE
8
MCD_Layer_1
10
60.468384
20
22.500000
30
0.0
11
57.188354
21
15.037842
31
0.0
0
LINE
8
MCD_Layer_1
10
67.027832
20
20.038452
30
0.0
11
40.468384
21
15.037842
31
0.0
0
LINE
8
MCD_Layer_1
10
67.027832
20
20.038452
30
0.0
11
60.468384
21
20.156250
31
0.0
0
LINE
8
MCD_Layer_1
10
60.468384
20
22.812500
30
0.0
11
60.546509
21
20.000000
31
0.0
0
LINE
8
MCD_Layer_1
10
60.937134
20
20.000000
30
0.0
11
60.468384
21
0.000000
31
0.0
0
LINE
8
MCD_Layer_1
10
55.506226
20
26.559448
30
0.0
11
43.006836
21
38.399658
31
0.0
0
LINE
8
MCD_Layer_1
10
53.006226
20
28.119507
30
0.0
11
60.506836
21
14.559937
31
0.0
0
LINE
8
MCD_Layer_1
10
78.005005
20
33.839722
30
0.0
11
60.506836
21
20.000000
31
0.0
0
LINE
8
MCD_Layer_1
10
60.624634
20
20.000000
30
0.0
11
63.280884
21
20.078125
31
0.0
0
LINE
8
MCD_Layer_1
10
60.468384
20
20.468750
30
0.0
11
60.468384
21
20.000000
31
0.0
0
LINE
8
MCD_Layer_1
10
55.028320
20
37.536621
30
0.0
11
74.308105
21
17.538452
31
0.0
0
LINE
8
MCD_Layer_1
10
71.507812
20
25.115967
30
0.0
11
70.028320
21
30.038452
31
0.0
0
LINE
8
MCD_Layer_1
10
79.668213
20
25.115967
30
0.0
11
65.028320
21
20.038452
31
0.0
0
LINE
8
MCD_Layer_1
10
60.468384
20
20.156250
30
0.0
11
60.468384
21
22.812500
31
0.0
0
LINE
8
MCD_Layer_1
10
60.546509
20
20.000000
30
0.0
11
60.937134
21
20.000000
31
0.0
0
LINE
8
MCD_Layer_1
10
70.468384
20
39.199829
30
0.0
11
65.584351
21
24.559937
31
0.0
0
LINE
8
MCD_Layer_1
10
75.506836
20
0.399780
30
0.0
11
45.584351
21
20.119629
31
0.0
0
LINE
8
MCD_Layer_1
10
70.506836
20
38.079834
30
0.0
11
45.584351
21
9.599609
31
0.0
0
LINE
8
MCD_Layer_1
10
60.506226
20
20.000000
30
0.0
11
60.624634
21
20.000000
31
0.0
0
LINE
8
MCD_Layer_1
10
63.280884
20
20.078125
30
0.0
11
60.468384
21
20.468750
31
0.0
0
LINE
8
MCD_Layer_1
10
60.468384
20
30.000000
30
0.0
11
78.548218
21
5.115967
31
0.0
0
LINE
8
MCD_Layer_1
10
50.067993
20
27.537842
30
0.0
11
69.588257
21
27.615967
31
0.0
0
LINE
8
MCD_Layer_1
10
40.708252
20
10.037842
30
0.0
11
72.467896
21
0.037231
31
0.0
0
LINE
8
MCD_Layer_1
10
64.308105
20
20.037842
30
0.0
11
60.468384
21
20.156250
31
0.0
0
LINE
8
MCD_Layer_1
10
60.468384
20
22.812500
30
0.0
11
60.546509
21
20.000000
31
0.0
0
LINE
8
MCD_Layer_1
10
60.937134
20
20.000000
30
0.0
11
50.468384
21
31.999512
31
0.0
0
LINE
8
MCD_Layer_1
10
40.505615
20
23.839722
30
0.0
11
60.506226
21
36.640015
31
0.0
0
LINE
8
MCD_Layer_1
10
53.006226
20
0.879517
30
0.0
11
78.006226
21
39.359741
31
0.0
0
LINE
8
MCD_Layer_1
10
50.506226
20
5.279541
30
0.0
11
60.506226
21
20.000000
31
0.0
0
LINE
8
MCD_Layer_1
10
60.624634
20
20.000000
30
0.0
11
60.937134
21
20.078125
31
0.0
0
LINE
8
MCD_Layer_1
10
60.468384
20
20.312500
30
0.0
11
60.468384
21
37.500000
31
0.0
0
LINE
8
MCD_Layer_1
10
79.828125
20
10.037842
30
0.0
11
45.747925
21
7.537842
31
0.0
0
LINE
8
MCD_Layer_1
10
56.787964
20
10.037842
30
0.0
11
45.747925
21
20.037842
31
0.0
0
LINE
8
MCD_Layer_1
10
60.468384
20
20.156250
30
0.0
11
60.468384
21
20.468750
31
0.0
0
LINE
8
MCD_Layer_2
10
108.567993
20
14.719849
30
0.0
11
101.183960
21
20.000000
31
0.0
0
LINE
8
MCD_Layer_2
10
108.567993
20
14.719849
30
0.0
11
91.183960
21
0.019531
31
0.0
0
LINE
8
MCD_Layer_2
10
101.106445
20
20.000000
30
0.0
11
101.224243
21
20.000000
31
0.0
0
LINE
8
MCD_Layer_2
10
101.536743
20
20.078125
30
0.0
11
101.067993
21
20.312500
31
0.0
0
LINE
8
MCD_Layer_2
10
101.067993
20
27.500000
30
0.0
11
95.787842
21
10.115967
31
0.0
0
LINE
8
MCD_Layer_2
10
81.087524
20
20.038452
30
0.0
11
102.828247
21
10.037231
31
0.0
0
LINE
8
MCD_Layer_2
10
81.087524
20
20.038452
30
0.0
11
101.067993
21
20.156250
31
0.0
0
LINE
8
MCD_Layer_2
10
101.067993
20
22.812500
30
0.0
11
101.146118
21
20.000000
31
0.0
0
LINE
8
MCD_Layer_2
10
101.536743
20
20.000000
30
0.0
11
101.067993
21
21.760254
31
0.0
0
LINE
8
MCD_Layer_2
10
91.105225
20
0.019531
30
0.0
11
94.856445
21
0.959473
31
0.0
0
LINE
8
MCD_Layer_2
10
96.105835
20
36.559448
30
0.0
11
87.356445
21
11.839600
31
0.0
0
LINE
8
MCD_Layer_2
10
101.105835
20
28.800049
30
0.0
11
101.106445
21
20.000000
31
0.0
0
LINE
8
MCD_Layer_2
10
101.224243
20
20.000000
30
0.0
11
103.880493
21
20.078125
31
0.0
0
LINE
8
MCD_Layer_2
10
101.067993
20
20.468750
30
0.0
11
101.067993
21
6.250000
31
0.0
0
LINE
8
MCD_Layer_2
10
92.907593
20
20.037842
30
0.0
11
109.868042
21
28.788452
31
0.0
0
LINE
8
MCD_Layer_2
10
95.787842
20
20.037842
30
0.0
11
100.107910
21
23.787842
31
0.0
0
LINE
8
MCD_Layer_2
10
92.267944
20
20.037842
30
0.0
11
81.147949
21
20.037842
31
0.0
0
LINE
8
MCD_Layer_2
10
101.067993
20
20.156250
30
0.0
11
101.067993
21
22.812500
31
0.0
0
LINE
8
MCD_Layer_2
10
101.146118
20
20.000000
30
0.0
11
101.536743
21
20.000000
31
0.0
0
LINE
8
MCD_Layer_2
10
104.817993
20
11.199951
30
0.0
11
101.105835
21
0.079956
31
0.0
0
LINE
8
MCD_Layer_2
10
119.855835
20
2.719727
30
0.0
11
101.105835
21
11.359863
31
0.0
0
LINE
8
MCD_Layer_2
10
101.105225
20
21.760254
30
0.0
11
101.105225
21
20.000000
31
0.0
0
LINE
8
MCD_Layer_2
10
101.067993
20
20.000000
30
0.0
11
101.224243
21
20.000000
31
0.0
0
LINE
8
MCD_Layer_2
10
103.880493
20
20.078125
30
0.0
11
101.067993
21
20.468750
31
0.0
0
LINE
8
MCD_Layer_2
10
101.067993
20
10.000000
30
0.0
11
104.811279
21
20.115356
31
0.0
0
LINE
8
MCD_Layer_2
10
108.907959
20
5.037842
30
0.0
11
98.187744
21
20.037231
31
0.0
0
LINE
8
MCD_Layer_2
10
117.548096
20
12.537842
30
0.0
11
110.827515
21
0.037842
31
0.0
0
LINE
8
MCD_Layer_2
10
87.147705
20
20.037842
30
0.0
11
101.067993
21
20.156250
31
0.0
0
LINE
8
MCD_Layer_2
10
101.067993
20
22.812500
30
0.0
11
101.146118
21
20.000000
31
0.0
0
LINE
8
MCD_Layer_2
10
101.536743
20
20.000000
30
0.0
11
93.567993
21
29.759521
31
0.0
0
LINE
8
MCD_Layer_2
10
81.105835
20
6.079712
30
0.0
11
108.605835
21
34.719849
31
0.0
0
LINE
8
MCD_Layer_2
10
111.105835
20
19.199829
30
0.0
11
83.605835
21
30.559692
31
0.0
0
LINE
8
MCD_Layer_2
10
101.105835
20
26.040039
30
0.0
11
101.106445
21
20.000000
31
0.0
0
LINE
8
MCD_Layer_2
10
101.224243
20
20.000000
30
0.0
11
103.880493
21
20.078125
31
0.0
0
LINE
8
MCD_Layer_2
10
101.067993
20
20.468750
30
0.0
11
101.067993
21
2.500000
31
0.0
0
LINE
8
MCD_Layer_2
10
111.627686
20
20.037842
30
0.0
11
107.108032
21
10.038452
31
0.0
0
LINE
8
MCD_Layer_2
10
94.987671
20
10.037231
30
0.0
11
111.867554
21
20.038452
31
0.0
0
LINE
8
MCD_Layer_2
10
101.547729
20
30.115356
30
0.0
11
114.147827
21
20.038452
31
0.0
0
LINE
8
MCD_Layer_2
10
101.067993
20
20.156250
30
0.0
11
101.067993
21
20.468750
31
0.0
0
LINE
8
MCD_Layer_2
10
101.146118
20
20.000000
30
0.0
11
101.380493
21
20.000000
31
0.0
0
LINE
8
MCD_Layer_2
10
101.067993
20
20.479736
30
0.0
11
111.183350
21
33.079834
31
0.0
0
LINE
8
MCD_Layer_2
10
101.106445
20
34.559937
30
0.0
11
111.183960
21
33.079834
31
0.0
0
LINE
8
MCD_Layer_2
10
101.106445
20
20.000000
30
0.0
11
101.224243
21
20.000000
31
0.0
0
LINE
8
MCD_Layer_2
10
101.536743
20
20.078125
30
0.0
11
101.067993
21
20.312500
31
0.0
0
LINE
8
MCD_Layer_2
10
101.067993
20
20.000000
30
0.0
11
115.627930
21
20.115967
31
0.0
0
LINE
8
MCD_Layer_2
10
101.067993
20
20.000000
30
0.0
11
115.627930
21
30.115967
31
0.0
0
LINE
8
MCD_Layer_2
10
114.147827
20
20.038452
30
0.0
11
101.067993
21
20.156250
31
0.0
0
LINE
8
MCD_Layer_2
10
101.067993
20
20.468750
30
0.0
11
101.146118
21
20.000000
31
0.0
0
LINE
8
MCD_Layer_2
10
101.380493
20
20.000000
30
0.0
11
101.067993
21
34.559937
31
0.0
0
LINE
8
MCD_Layer_2
10
101.183960
20
20.000000
30
0.0
11
108.567993
21
14.719849
31
0.0
0
LINE
8
MCD_Layer_2
10
101.183960
20
20.000000
30
0.0
11
101.067993
21
20.000000
31
0.0
0
LINE
8
MCD_Layer_2
10
101.224243
20
20.000000
30
0.0
11
101.536743
21
20.078125
31
0.0
0
LINE
8
MCD_Layer_2
10
101.067993
20
20.312500
30
0.0
11
101.067993
21
20.000000
31
0.0
0
LINE
8
MCD_Layer_2
10
102.830688
20
20.037231
30
0.0
11
101.067993
21
0.000000
31
0.0
0
LINE
8
MCD_Layer_2
10
85.613281
20
20.115356
30
0.0
11
101.067993
21
20.000000
31
0.0
0
LINE
8
MCD_Layer_2
10
101.067993
20
20.156250
30
0.0
11
101.067993
21
20.468750
31
0.0
0
LINE
8
MCD_Layer_2
10
101.146118
20
20.000000
30
0.0
11
101.380493
21
20.000000
31
0.0
0
LINE
8
MCD_Layer_2
10
81.067993
20
4.545288
30
0.0
11
101.183350
21
27.839966
31
0.0
0
LINE
8
MCD_Layer_2
10
91.105835
20
23.743286
30
0.0
11
101.183350
21
27.839966
31
0.0
0
LINE
8
MCD_Layer_2
10
101.105835
20
20.000000
30
0.0
11
101.224243
21
20.000000
31
0.0
0
LINE
8
MCD_Layer_2
10
101.536743
20
20.078125
30
0.0
11
101.067993
21
20.312500
31
0.0
0
LINE
8
MCD_Layer_2
10
101.067993
20
0.000000
30
0.0
11
85.613281
21
20.115356
31
0.0
0
LINE
8
MCD_Layer_2
10
109.531738
20
0.037842
30
0.0
11
85.613281
21
20.115356
31
0.0
0
LINE
8
MCD_Layer_2
10
101.067993
20
20.000000
30
0.0
11
101.067993
21
20.156250
31
0.0
0
LINE
8
MCD_Layer_3
10
123.346069
20
9.133911
30
0.0
11
140.962036
21
19.990234
31
0.0
0
LINE
8
MCD_Layer_3
10
123.346069
20
9.133911
30
0.0
11
155.962036
21
0.000000
31
0.0
0
LINE
8
MCD_Layer_3
10
140.884521
20
19.990234
30
0.0
11
141.002319
21
19.990234
31
0.0
0
LINE
8
MCD_Layer_3
10
141.314819
20
20.068359
30
0.0
11
140.846069
21
20.302734
31
0.0
0
LINE
8
MCD_Layer_3
10
140.846069
20
2.490234
30
0.0
11
129.989746
21
35.106201
31
0.0
0
LINE
8
MCD_Layer_3
10
120.855835
20
2.528687
30
0.0
11
129.989746
21
35.028076
31
0.0
0
LINE
8
MCD_Layer_3
10
120.855835
20
20.028687
30
0.0
11
140.846069
21
20.146484
31
0.0
0
LINE
8
MCD_Layer_3
10
140.846069
20
20.458984
30
0.0
11
140.924194
21
19.990234
31
0.0
0
LINE
8
MCD_Layer_3
10
141.158569
20
19.990234
30
0.0
11
123.346069
21
9.133911
31
0.0
0
LINE
8
MCD_Layer_3
10
155.883911
20
0.000000
30
0.0
11
123.384521
21
9.133911
31
0.0
0
LINE
8
MCD_Layer_3
10
120.883911
20
33.049927
30
0.0
11
140.884521
21
19.990234
31
0.0
0
LINE
8
MCD_Layer_3
10
141.002319
20
19.990234
30
0.0
11
141.314819
21
20.068359
31
0.0
0
LINE
8
MCD_Layer_3
10
140.846069
20
20.302734
30
0.0
11
140.846069
21
2.490234
31
0.0
0
LINE
8
MCD_Layer_3
10
129.989746
20
0.028076
30
0.0
11
153.905762
21
10.028687
31
0.0
0
LINE
8
MCD_Layer_3
10
144.333618
20
0.106201
30
0.0
11
153.905762
21
20.028687
31
0.0
0
LINE
8
MCD_Layer_3
10
140.846069
20
20.146484
30
0.0
11
140.846069
21
20.458984
31
0.0
0
LINE
8
MCD_Layer_3
10
140.924194
20
19.990234
30
0.0
11
141.158569
21
19.990234
31
0.0
0
LINE
8
MCD_Layer_3
10
130.846069
20
23.477783
30
0.0
11
120.962036
21
33.049927
31
0.0
0
LINE
8
MCD_Layer_3
10
130.884521
20
23.477783
30
0.0
11
130.962036
21
24.785767
31
0.0
0
LINE
8
MCD_Layer_3
10
140.884521
20
19.990234
30
0.0
11
141.002319
21
19.990234
31
0.0
0
LINE
8
MCD_Layer_3
10
141.314819
20
20.068359
30
0.0
11
140.846069
21
20.302734
31
0.0
0
LINE
8
MCD_Layer_3
10
140.846069
20
9.990234
30
0.0
11
144.333618
21
10.106201
31
0.0
0
LINE
8
MCD_Layer_3
10
145.641602
20
5.028687
30
0.0
11
124.773682
21
10.028076
31
0.0
0
LINE
8
MCD_Layer_3
10
145.641602
20
20.028687
30
0.0
11
140.846069
21
20.146484
31
0.0
0
LINE
8
MCD_Layer_3
10
140.846069
20
20.458984
30
0.0
11
140.924194
21
19.990234
31
0.0
0
LINE
8
MCD_Layer_3
10
141.158569
20
19.990234
30
0.0
11
125.846069
21
3.917847
31
0.0
0
LINE
8
MCD_Layer_3
10
130.883911
20
24.785767
30
0.0
11
125.884521
21
3.917847
31
0.0
0
LINE
8
MCD_Layer_3
10
140.883911
20
15.662231
30
0.0
11
140.883911
21
19.990234
31
0.0
0
LINE
8
MCD_Layer_3
10
141.002319
20
19.990234
30
0.0
11
141.314819
21
20.068359
31
0.0
0
LINE
8
MCD_Layer_3
10
140.846069
20
20.302734
30
0.0
11
140.846069
21
4.990234
31
0.0
0
LINE
8
MCD_Layer_3
10
124.773682
20
20.028076
30
0.0
11
136.518066
21
10.028076
31
0.0
0
LINE
8
MCD_Layer_3
10
144.333618
20
20.106201
30
0.0
11
136.518066
21
20.028076
31
0.0
0
LINE
8
MCD_Layer_3
10
140.846069
20
20.146484
30
0.0
11
140.846069
21
20.458984
31
0.0
0
LINE
8
MCD_Layer_3
10
140.924194
20
19.990234
30
0.0
11
141.158569
21
19.990234
31
0.0
0
LINE
8
MCD_Layer_3
10
130.846069
20
23.477783
30
0.0
11
140.962036
21
15.662231
31
0.0
0
LINE
8
MCD_Layer_3
10
130.883911
20
23.477783
30
0.0
11
140.962036
21
27.830200
31
0.0
0
LINE
8
MCD_Layer_3
10
140.883911
20
19.990234
30
0.0
11
141.002319
21
19.990234
31
0.0
0
LINE
8
MCD_Layer_3
10
141.314819
20
20.068359
30
0.0
11
140.846069
21
20.302734
31
0.0
0
LINE
8
MCD_Layer_3
10
140.846069
20
9.990234
30
0.0
11
144.333618
21
20.106201
31
0.0
0
LINE
8
MCD_Layer_3
10
148.686035
20
2.528076
30
0.0
11
129.989746
21
20.028076
31
0.0
0
LINE
8
MCD_Layer_3
10
148.686035
20
20.028076
30
0.0
11
140.846069
21
20.146484
31
0.0
0
LINE
8
MCD_Layer_3
10
140.846069
20
20.458984
30
0.0
11
140.924194
21
19.990234
31
0.0
0
LINE
8
MCD_Layer_3
10
141.158569
20
19.990234
30
0.0
11
123.346069
21
9.133911
31
0.0
0
LINE
8
MCD_Layer_3
10
140.883911
20
27.830200
30
0.0
11
123.383911
21
9.133911
31
0.0
0
LINE
8
MCD_Layer_3
10
140.883911
20
19.990234
30
0.0
11
140.846069
21
19.990234
31
0.0
0
LINE
8
MCD_Layer_3
10
141.002319
20
19.990234
30
0.0
11
141.314819
21
20.068359
31
0.0
0
LINE
8
MCD_Layer_3
10
140.846069
20
20.302734
30
0.0
11
140.846069
21
2.490234
31
0.0
0
LINE
8
MCD_Layer_3
10
129.989746
20
20.028076
30
0.0
11
140.846069
21
2.490234
31
0.0
0
LINE
8
MCD_Layer_3
10
129.989746
20
20.106201
30
0.0
11
140.846069
21
19.990234
31
0.0
0
LINE
8
MCD_Layer_3
10
140.846069
20
20.146484
30
0.0
11
140.846069
21
20.458984
31
0.0
0
LINE
8
MCD_Layer_4
10
166.942505
20
9.140015
30
0.0
11
177.058472
21
19.980469
31
0.0
0
LINE
8
MCD_Layer_4
10
166.942505
20
9.140015
30
0.0
11
168.308472
21
0.000000
31
0.0
0
LINE
8
MCD_Layer_4
10
176.980957
20
19.980469
30
0.0
11
177.098755
21
19.980469
31
0.0
0
LINE
8
MCD_Layer_4
10
177.411255
20
20.058594
30
0.0
11
176.942505
21
20.292969
31
0.0
0
LINE
8
MCD_Layer_4
10
176.942505
20
9.980469
30
0.0
11
166.102051
21
11.346436
31
0.0
0
LINE
8
MCD_Layer_4
10
156.962036
20
10.018921
30
0.0
11
166.102051
21
11.268311
31
0.0
0
LINE
8
MCD_Layer_4
10
156.962036
20
20.018921
30
0.0
11
176.942505
21
20.136719
31
0.0
0
LINE
8
MCD_Layer_4
10
176.942505
20
20.449219
30
0.0
11
177.020630
21
19.980469
31
0.0
0
LINE
8
MCD_Layer_4
10
177.255005
20
19.980469
30
0.0
11
166.942505
21
9.140015
31
0.0
0
LINE
8
MCD_Layer_4
10
168.230347
20
0.000000
30
0.0
11
166.980957
21
9.140015
31
0.0
0
LINE
8
MCD_Layer_4
10
186.980347
20
33.060303
30
0.0
11
176.980957
21
19.980469
31
0.0
0
LINE
8
MCD_Layer_4
10
177.098755
20
19.980469
30
0.0
11
177.411255
21
20.058594
31
0.0
0
LINE
8
MCD_Layer_4
10
176.942505
20
20.292969
30
0.0
11
176.942505
21
9.980469
31
0.0
0
LINE
8
MCD_Layer_4
10
166.102051
20
30.018311
30
0.0
11
190.022339
21
25.018921
31
0.0
0
LINE
8
MCD_Layer_4
10
180.382446
20
30.096436
30
0.0
11
190.022339
21
20.018921
31
0.0
0
LINE
8
MCD_Layer_4
10
176.942505
20
20.136719
30
0.0
11
176.942505
21
20.449219
31
0.0
0
LINE
8
MCD_Layer_4
10
177.020630
20
19.980469
30
0.0
11
177.255005
21
19.980469
31
0.0
0
LINE
8
MCD_Layer_4
10
181.942505
20
23.420410
30
0.0
11
187.058472
21
33.060303
31
0.0
0
LINE
8
MCD_Layer_4
10
181.980957
20
23.420410
30
0.0
11
189.558472
21
24.780273
31
0.0
0
LINE
8
MCD_Layer_4
10
176.980957
20
19.980469
30
0.0
11
177.098755
21
19.980469
31
0.0
0
LINE
8
MCD_Layer_4
10
177.411255
20
20.058594
30
0.0
11
176.942505
21
20.292969
31
0.0
0
LINE
8
MCD_Layer_4
10
176.942505
20
24.980469
30
0.0
11
180.382446
21
32.596436
31
0.0
0
LINE
8
MCD_Layer_4
10
181.742310
20
20.018921
30
0.0
11
160.822510
21
32.518311
31
0.0
0
LINE
8
MCD_Layer_4
10
181.742310
20
20.018921
30
0.0
11
176.942505
21
20.136719
31
0.0
0
LINE
8
MCD_Layer_4
10
176.942505
20
20.449219
30
0.0
11
177.020630
21
19.980469
31
0.0
0
LINE
8
MCD_Layer_4
10
177.255005
20
19.980469
30
0.0
11
176.942505
21
3.860474
31
0.0
0
LINE
8
MCD_Layer_4
10
189.480347
20
24.780273
30
0.0
11
176.980957
21
3.860474
31
0.0
0
LINE
8
MCD_Layer_4
10
181.980347
20
15.660400
30
0.0
11
176.980347
21
19.980469
31
0.0
0
LINE
8
MCD_Layer_4
10
177.098755
20
19.980469
30
0.0
11
177.411255
21
20.058594
31
0.0
0
LINE
8
MCD_Layer_4
10
176.942505
20
20.292969
30
0.0
11
176.942505
21
19.980469
31
0.0
0
LINE
8
MCD_Layer_4
10
160.822510
20
25.018311
30
0.0
11
172.622437
21
25.018311
31
0.0
0
LINE
8
MCD_Layer_4
10
180.382446
20
25.096436
30
0.0
11
172.622437
21
20.018311
31
0.0
0
LINE
8
MCD_Layer_4
10
176.942505
20
20.136719
30
0.0
11
176.942505
21
20.449219
31
0.0
0
LINE
8
MCD_Layer_4
10
177.020630
20
19.980469
30
0.0
11
177.255005
21
19.980469
31
0.0
0
LINE
8
MCD_Layer_4
10
181.942505
20
23.420410
30
0.0
11
182.058472
21
15.660400
31
0.0
0
LINE
8
MCD_Layer_4
10
181.980347
20
23.420410
30
0.0
11
177.058472
21
19.980469
31
0.0
0
LINE
8
MCD_Layer_4
10
176.942505
20
19.980469
30
0.0
11
177.098755
21
19.980469
31
0.0
0
LINE
8
MCD_Layer_4
10
177.411255
20
20.058594
30
0.0
11
176.942505
21
20.292969
31
0.0
0
LINE
8
MCD_Layer_4
10
176.942505
20
24.980469
30
0.0
11
180.382446
21
20.096436
31
0.0
0
LINE
8
MCD_Layer_4
10
176.942505
20
9.980469
30
0.0
11
166.102051
21
20.096436
31
0.0
0
LINE
8
MCD_Layer_4
10
176.942505
20
19.980469
30
0.0
11
176.942505
21
20.136719
31
0.0
0
LINE
8
MCD_Layer_5
10
223.522339
20
17.783813
30
0.0
11
211.060181
21
20.000000
31
0.0
0
LINE
8
MCD_Layer_5
10
201.022339
20
3.863525
30
0.0
11
211.060181
21
20.000000
31
0.0
0
LINE
8
MCD_Layer_5
10
211.022339
20
20.000000
30
0.0
11
211.178589
21
20.000000
31
0.0
0
LINE
8
MCD_Layer_5
10
211.491089
20
20.078125
30
0.0
11
211.022339
21
20.312500
31
0.0
0
LINE
8
MCD_Layer_5
10
211.022339
20
10.000000
30
0.0
11
194.885864
21
20.037842
31
0.0
0
LINE
8
MCD_Layer_5
10
211.022339
20
10.000000
30
0.0
11
194.885864
21
30.037842
31
0.0
0
LINE
8
MCD_Layer_5
10
191.182251
20
20.037231
30
0.0
11
211.022339
21
20.156250
31
0.0
0
LINE
8
MCD_Layer_5
10
211.022339
20
22.812500
30
0.0
11
211.100464
21
20.000000
31
0.0
0
LINE
8
MCD_Layer_5
10
211.491089
20
20.000000
30
0.0
11
201.022339
21
3.863525
31
0.0
0
LINE
8
MCD_Layer_5
10
221.060181
20
0.159912
30
0.0
11
201.059570
21
29.007568
31
0.0
0
LINE
8
MCD_Layer_5
10
211.060181
20
20.478516
30
0.0
11
191.058350
21
32.191772
31
0.0
0
LINE
8
MCD_Layer_5
10
211.059570
20
3.040161
30
0.0
11
211.137085
21
20.000000
31
0.0
0
LINE
8
MCD_Layer_5
10
211.178589
20
20.000000
30
0.0
11
213.834839
21
20.078125
31
0.0
0
LINE
8
MCD_Layer_5
10
211.022339
20
20.468750
30
0.0
11
211.022339
21
0.000000
31
0.0
0
LINE
8
MCD_Layer_5
10
223.214111
20
20.037231
30
0.0
11
194.062500
21
0.114746
31
0.0
0
LINE
8
MCD_Layer_5
10
209.645996
20
20.115356
30
0.0
11
214.061890
21
37.536621
31
0.0
0
LINE
8
MCD_Layer_5
10
192.918091
20
0.115967
30
0.0
11
200.462036
21
20.037231
31
0.0
0
LINE
8
MCD_Layer_5
10
211.022339
20
20.156250
30
0.0
11
211.022339
21
22.812500
31
0.0
0
LINE
8
MCD_Layer_5
10
211.100464
20
20.000000
30
0.0
11
211.491089
21
20.000000
31
0.0
0
LINE
8
MCD_Layer_5
10
228.522339
20
1.895752
30
0.0
11
191.138306
21
9.439697
31
0.0
0
LINE
8
MCD_Layer_5
10
198.559570
20
17.735596
30
0.0
11
216.138306
21
17.919922
31
0.0
0
LINE
8
MCD_Layer_5
10
221.060181
20
8.375854
30
0.0
11
201.138306
21
33.039551
31
0.0
0
LINE
8
MCD_Layer_5
10
211.060791
20
20.000000
30
0.0
11
211.178589
21
20.000000
31
0.0
0
LINE
8
MCD_Layer_5
10
213.834839
20
20.078125
30
0.0
11
211.022339
21
20.468750
31
0.0
0
LINE
8
MCD_Layer_5
10
211.022339
20
30.000000
30
0.0
11
199.398193
21
10.115967
31
0.0
0
LINE
8
MCD_Layer_5
10
224.061890
20
30.038452
30
0.0
11
215.294189
21
10.115967
31
0.0
0
LINE
8
MCD_Layer_5
10
230.181885
20
20.038452
30
0.0
11
214.894409
21
22.537231
31
0.0
0
LINE
8
MCD_Layer_5
10
191.362305
20
20.038452
30
0.0
11
211.022339
21
20.156250
31
0.0
0
LINE
8
MCD_Layer_5
10
211.022339
20
22.812500
30
0.0
11
211.100464
21
20.000000
31
0.0
0
LINE
8
MCD_Layer_5
10
211.491089
20
20.000000
30
0.0
11
211.022339
21
23.872070
31
0.0
0
LINE
8
MCD_Layer_5
10
213.559570
20
0.339966
30
0.0
11
223.560791
21
15.543823
31
0.0
0
LINE
8
MCD_Layer_5
10
201.060181
20
28.639526
30
0.0
11
213.560791
21
16.423950
31
0.0
0
LINE
8
MCD_Layer_5
10
226.060181
20
26.519775
30
0.0
11
211.060791
21
20.000000
31
0.0
0
LINE
8
MCD_Layer_5
10
211.178589
20
20.000000
30
0.0
11
211.491089
21
20.078125
31
0.0
0
LINE
8
MCD_Layer_5
10
211.022339
20
20.312500
30
0.0
11
211.022339
21
22.500000
31
0.0
0
LINE
8
MCD_Layer_5
10
207.446289
20
35.037842
30
0.0
11
217.542114
21
25.038452
31
0.0
0
LINE
8
MCD_Layer_5
10
230.430298
20
35.037842
30
0.0
11
217.542114
21
20.038452
31
0.0
0
LINE
8
MCD_Layer_5
10
211.022339
20
20.156250
30
0.0
11
211.022339
21
22.812500
31
0.0
0
LINE
8
MCD_Layer_5
10
211.100464
20
20.000000
30
0.0
11
211.491089
21
20.000000
31
0.0
0
LINE
8
MCD_Layer_5
10
216.022339
20
39.407959
30
0.0
11
226.060181
21
26.519775
31
0.0
0
LINE
8
MCD_Layer_5
10
196.060791
20
37.807617
30
0.0
11
221.060181
21
28.079834
31
0.0
0
LINE
8
MCD_Layer_5
10
211.060791
20
9.824219
30
0.0
11
208.558960
21
33.799438
31
0.0
0
LINE
8
MCD_Layer_5
10
211.060791
20
20.000000
30
0.0
11
211.178589
21
20.000000
31
0.0
0
LINE
8
MCD_Layer_5
10
213.834839
20
20.078125
30
0.0
11
211.022339
21
20.468750
31
0.0
0
LINE
8
MCD_Layer_5
10
211.022339
20
20.000000
30
0.0
11
200.846558
21
17.536621
31
0.0
0
LINE
8
MCD_Layer_5
10
224.821777
20
15.038452
30
0.0
11
222.653809
21
2.615967
31
0.0
0
LINE
8
MCD_Layer_5
10
220.541992
20
30.038452
30
0.0
11
230.814209
21
2.615967
31
0.0
0
LINE
8
MCD_Layer_5
10
215.541992
20
20.038452
30
0.0
11
211.022339
21
20.156250
31
0.0
0
LINE
8
MCD_Layer_5
10
211.022339
20
22.812500
30
0.0
11
211.100464
21
20.000000
31
0.0
0
LINE
8
MCD_Layer_5
10
211.491089
20
20.000000
30
0.0
11
221.022339
21
39.791870
31
0.0
0
LINE
8
MCD_Layer_5
10
193.638306
20
24.519653
30
0.0
11
223.560791
21
0.695801
31
0.0
0
LINE
8
MCD_Layer_5
10
196.138306
20
20.119629
30
0.0
11
221.060791
21
38.671875
31
0.0
0
LINE
8
MCD_Layer_5
10
196.138306
20
9.599609
30
0.0
11
211.060181
21
20.000000
31
0.0
0
LINE
8
MCD_Layer_5
10
211.178589
20
20.000000
30
0.0
11
213.834839
21
20.078125
31
0.0
0
LINE
8
MCD_Layer_5
10
211.022339
20
20.468750
30
0.0
11
211.022339
21
30.000000
31
0.0
0
LINE
8
MCD_Layer_5
10
229.694214
20
5.115967
30
0.0
11
200.621948
21
0.037842
31
0.0
0
LINE
8
MCD_Layer_5
10
217.998047
20
5.115967
30
0.0
11
228.157959
21
20.037842
31
0.0
0
LINE
8
MCD_Layer_5
10
209.550171
20
0.114746
30
0.0
11
216.654053
21
20.037842
31
0.0
0
LINE
8
MCD_Layer_5
10
211.022339
20
20.156250
30
0.0
11
211.022339
21
22.812500
31
0.0
0
LINE
8
MCD_Layer_5
10
211.100464
20
20.000000
30
0.0
11
211.491089
21
20.000000
31
0.0
0
LINE
8
MCD_Layer_5
10
211.022339
20
18.527832
30
0.0
11
191.137085
21
25.631714
31
0.0
0
LINE
8
MCD_Layer_5
10
211.060181
20
39.936523
30
0.0
11
221.136475
21
24.943848
31
0.0
0
LINE
8
MCD_Layer_5
10
211.060181
20
14.816284
30
0.0
11
206.058960
21
24.463501
31
0.0
0
LINE
8
MCD_Layer_5
10
211.060181
20
20.000000
30
0.0
11
211.178589
21
20.000000
31
0.0
0
LINE
8
MCD_Layer_5
10
213.834839
20
20.078125
30
0.0
11
211.022339
21
20.468750
31
0.0
0
LINE
8
MCD_Layer_5
10
211.022339
20
20.000000
30
0.0
11
205.838623
21
15.036621
31
0.0
0
LINE
8
MCD_Layer_5
10
215.485840
20
25.037842
30
0.0
11
223.646240
21
0.037842
31
0.0
0
LINE
8
MCD_Layer_5
10
224.638062
20
10.037842
30
0.0
11
194.885864
21
5.037842
31
0.0
0
LINE
8
MCD_Layer_5
10
200.621948
20
20.037842
30
0.0
11
211.022339
21
20.156250
31
0.0
0
LINE
8
MCD_Layer_5
10
211.022339
20
20.468750
30
0.0
11
211.100464
21
20.000000
31
0.0
0
LINE
8
MCD_Layer_5
10
211.334839
20
20.000000
30
0.0
11
201.022339
21
3.863525
31
0.0
0
LINE
8
MCD_Layer_5
10
196.060181
20
9.599609
30
0.0
11
191.060181
21
30.271606
31
0.0
0
LINE
8
MCD_Layer_5
10
196.059570
20
9.599609
30
0.0
11
211.060181
21
20.000000
31
0.0
0
LINE
8
MCD_Layer_5
10
211.178589
20
20.000000
30
0.0
11
211.491089
21
20.078125
31
0.0
0
LINE
8
MCD_Layer_5
10
211.022339
20
20.312500
30
0.0
11
211.022339
21
0.000000
31
0.0
0
LINE
8
MCD_Layer_5
10
221.293945
20
5.037231
30
0.0
11
200.621948
21
0.037842
31
0.0
0
LINE
8
MCD_Layer_5
10
221.293945
20
2.537231
30
0.0
11
212.781982
21
20.038452
31
0.0
0
LINE
8
MCD_Layer_5
10
211.022339
20
20.156250
30
0.0
11
211.022339
21
20.468750
31
0.0
0
LINE
8
MCD_Layer_5
10
211.100464
20
20.000000
30
0.0
11
211.334839
21
20.000000
31
0.0
0
LINE
8
MCD_Layer_5
10
191.022339
20
30.271606
30
0.0
11
193.559570
21
21.759644
31
0.0
0
LINE
8
MCD_Layer_5
10
223.560791
20
17.783813
30
0.0
11
193.560181
21
21.759644
31
0.0
0
LINE
8
MCD_Layer_5
10
211.060791
20
20.000000
30
0.0
11
211.178589
21
20.000000
31
0.0
0
LINE
8
MCD_Layer_5
10
211.491089
20
20.078125
30
0.0
11
211.022339
21
20.312500
31
0.0
0
LINE
8
MCD_Layer_5
10
211.022339
20
32.500000
30
0.0
11
208.806152
21
2.537842
31
0.0
0
LINE
8
MCD_Layer_5
10
212.781982
20
32.538452
30
0.0
11
208.806152
21
20.037842
31
0.0
0
LINE
8
MCD_Layer_5
10
211.022339
20
20.000000
30
0.0
11
211.022339
21
20.156250
31
0.0
0
LINE
8
MCD_Layer_6
10
266.794678
20
12.620239
30
0.0
11
251.910645
21
19.980469
31
0.0
0
LINE
8
MCD_Layer_6
10
266.794678
20
12.620239
30
0.0
11
243.160645
21
0.000000
31
0.0
0
LINE
8
MCD_Layer_6
10
251.833130
20
19.980469
30
0.0
11
251.950928
21
19.980469
31
0.0
0
LINE
8
MCD_Layer_6
10
252.263428
20
20.058594
30
0.0
11
251.794678
21
20.292969
31
0.0
0
LINE
8
MCD_Layer_6
10
251.794678
20
34.980469
30
0.0
11
244.434448
21
11.346436
31
0.0
0
LINE
8
MCD_Layer_6
10
231.814209
20
35.018921
30
0.0
11
262.194458
21
11.346436
31
0.0
0
LINE
8
MCD_Layer_6
10
231.814209
20
20.018921
30
0.0
11
251.794678
21
20.136719
31
0.0
0
LINE
8
MCD_Layer_6
10
251.794678
20
20.449219
30
0.0
11
251.872803
21
19.980469
31
0.0
0
LINE
8
MCD_Layer_6
10
252.107178
20
19.980469
30
0.0
11
266.794678
21
30.380249
31
0.0
0
LINE
8
MCD_Layer_6
10
243.160645
20
0.000000
30
0.0
11
266.833130
21
30.380249
31
0.0
0
LINE
8
MCD_Layer_6
10
264.410645
20
24.780273
30
0.0
11
251.833130
21
19.980469
31
0.0
0
LINE
8
MCD_Layer_6
10
251.950928
20
19.980469
30
0.0
11
252.263428
21
20.058594
31
0.0
0
LINE
8
MCD_Layer_6
10
251.794678
20
20.292969
30
0.0
11
251.794678
21
34.980469
31
0.0
0
LINE
8
MCD_Layer_6
10
262.194458
20
32.596436
30
0.0
11
256.594482
21
30.018921
31
0.0
0
LINE
8
MCD_Layer_6
10
262.194458
20
32.518311
30
0.0
11
256.594482
21
20.018921
31
0.0
0
LINE
8
MCD_Layer_6
10
251.794678
20
20.136719
30
0.0
11
251.794678
21
20.449219
31
0.0
0
LINE
8
MCD_Layer_6
10
251.872803
20
19.980469
30
0.0
11
252.107178
21
19.980469
31
0.0
0
LINE
8
MCD_Layer_6
10
261.794678
20
30.380249
30
0.0
11
264.332520
21
24.780273
31
0.0
0
LINE
8
MCD_Layer_6
10
261.833130
20
30.380249
30
0.0
11
243.082520
21
0.000000
31
0.0
0
LINE
8
MCD_Layer_6
10
251.833130
20
19.980469
30
0.0
11
251.950928
21
19.980469
31
0.0
0
LINE
8
MCD_Layer_6
10
252.263428
20
20.058594
30
0.0
11
251.794678
21
20.292969
31
0.0
0
LINE
8
MCD_Layer_6
10
251.794678
20
29.980469
30
0.0
11
262.194458
21
11.268311
31
0.0
0
LINE
8
MCD_Layer_6
10
231.814209
20
35.018921
30
0.0
11
244.434448
21
11.268311
31
0.0
0
LINE
8
MCD_Layer_6
10
231.814209
20
20.018921
30
0.0
11
251.794678
21
20.136719
31
0.0
0
LINE
8
MCD_Layer_6
10
251.794678
20
20.449219
30
0.0
11
251.872803
21
19.980469
31
0.0
0
LINE
8
MCD_Layer_6
10
252.107178
20
19.980469
30
0.0
11
266.794678
21
12.620239
31
0.0
0
LINE
8
MCD_Layer_6
10
243.082520
20
0.000000
30
0.0
11
266.833130
21
12.620239
31
0.0
0
LINE
8
MCD_Layer_6
10
251.832520
20
19.980469
30
0.0
11
251.794678
21
19.980469
31
0.0
0
LINE
8
MCD_Layer_6
10
251.950928
20
19.980469
30
0.0
11
252.263428
21
20.058594
31
0.0
0
LINE
8
MCD_Layer_6
10
251.794678
20
20.292969
30
0.0
11
251.794678
21
34.980469
31
0.0
0
LINE
8
MCD_Layer_6
10
244.434448
20
20.018311
30
0.0
11
251.794678
21
29.980469
31
0.0
0
LINE
8
MCD_Layer_6
10
262.194458
20
20.018311
30
0.0
11
251.794678
21
19.980469
31
0.0
0
LINE
8
MCD_Layer_6
10
251.794678
20
20.136719
30
0.0
11
251.794678
21
20.449219
31
0.0
0
LINE
8
MCD_Layer_6
10
251.872803
20
19.980469
30
0.0
11
252.107178
21
19.980469
31
0.0
0
LINE
8
MCD_Layer_6
10
261.794678
20
30.380249
30
0.0
11
251.832520
21
19.980469
31
0.0
0
LINE
8
MCD_Layer_6
10
261.794678
20
30.380249
30
0.0
11
256.832520
21
15.660400
31
0.0
0
LINE
8
MCD_Layer_6
10
251.832520
20
19.980469
30
0.0
11
251.950928
21
19.980469
31
0.0
0
LINE
8
MCD_Layer_6
10
252.263428
20
20.058594
30
0.0
11
251.794678
21
20.292969
31
0.0
0
LINE
8
MCD_Layer_6
10
251.794678
20
29.980469
30
0.0
11
262.194458
21
25.018311
31
0.0
0
LINE
8
MCD_Layer_6
10
247.474609
20
35.018311
30
0.0
11
262.194458
21
25.096436
31
0.0
0
LINE
8
MCD_Layer_6
10
247.474609
20
20.018311
30
0.0
11
251.794678
21
20.136719
31
0.0
0
LINE
8
MCD_Layer_6
10
251.794678
20
20.449219
30
0.0
11
251.872803
21
19.980469
31
0.0
0
LINE
8
MCD_Layer_6
10
252.107178
20
19.980469
30
0.0
11
266.794678
21
30.380249
31
0.0
0
LINE
8
MCD_Layer_6
10
256.910645
20
15.660400
30
0.0
11
266.832520
21
30.380249
31
0.0
0
LINE
8
MCD_Layer_6
10
251.910645
20
19.980469
30
0.0
11
251.794678
21
19.980469
31
0.0
0
LINE
8
MCD_Layer_6
10
251.950928
20
19.980469
30
0.0
11
252.263428
21
20.058594
31
0.0
0
LINE
8
MCD_Layer_6
10
251.794678
20
20.292969
30
0.0
11
251.794678
21
34.980469
31
0.0
0
LINE
8
MCD_Layer_6
10
262.194458
20
20.096436
30
0.0
11
251.794678
21
34.980469
31
0.0
0
LINE
8
MCD_Layer_6
10
244.434448
20
20.096436
30
0.0
11
251.794678
21
19.980469
31
0.0
0
LINE
8
MCD_Layer_6
10
251.794678
20
20.136719
30
0.0
11
251.794678
21
20.449219
31
0.0
0
LINE
8
MCD_Layer_7
10
280.333130
20
12.920532
30
0.0
11
274.199097
21
6.167603
31
0.0
0
LINE
8
MCD_Layer_7
10
294.120972
20
30.657959
30
0.0
11
274.199097
21
6.167603
31
0.0
0
LINE
8
MCD_Layer_7
10
287.870972
20
20.000000
30
0.0
11
287.989380
21
20.000000
31
0.0
0
LINE
8
MCD_Layer_7
10
290.645630
20
20.078125
30
0.0
11
287.833130
21
20.468750
31
0.0
0
LINE
8
MCD_Layer_7
10
287.833130
20
26.250000
30
0.0
11
298.491089
21
6.365967
31
0.0
0
LINE
8
MCD_Layer_7
10
274.000732
20
22.537842
30
0.0
11
289.531128
21
11.365967
31
0.0
0
LINE
8
MCD_Layer_7
10
297.144653
20
20.037842
30
0.0
11
292.888062
21
22.536621
31
0.0
0
LINE
8
MCD_Layer_7
10
288.809082
20
20.037842
30
0.0
11
287.833130
21
20.156250
31
0.0
0
LINE
8
MCD_Layer_7
10
287.833130
20
22.812500
30
0.0
11
287.911255
21
20.000000
31
0.0
0
LINE
8
MCD_Layer_7
10
288.301880
20
20.000000
30
0.0
11
287.833130
21
25.054932
31
0.0
0
LINE
8
MCD_Layer_7
10
290.369751
20
20.975952
30
0.0
11
297.870972
21
11.707764
31
0.0
0
LINE
8
MCD_Layer_7
10
297.870361
20
24.719849
30
0.0
11
302.870972
21
26.397705
31
0.0
0
LINE
8
MCD_Layer_7
10
269.120972
20
35.039673
30
0.0
11
287.870972
21
20.000000
31
0.0
0
LINE
8
MCD_Layer_7
10
287.989380
20
20.000000
30
0.0
11
290.645630
21
20.078125
31
0.0
0
LINE
8
MCD_Layer_7
10
287.833130
20
20.468750
30
0.0
11
287.833130
21
35.000000
31
0.0
0
LINE
8
MCD_Layer_7
10
294.230835
20
1.287842
30
0.0
11
302.872803
21
10.037842
31
0.0
0
LINE
8
MCD_Layer_7
10
294.406616
20
26.912842
30
0.0
11
277.249023
21
0.037842
31
0.0
0
LINE
8
MCD_Layer_7
10
302.448608
20
3.162231
30
0.0
11
283.472778
21
20.037842
31
0.0
0
LINE
8
MCD_Layer_7
10
287.833130
20
20.156250
30
0.0
11
287.833130
21
22.812500
31
0.0
0
LINE
8
MCD_Layer_7
10
287.911255
20
20.000000
30
0.0
11
288.301880
21
20.000000
31
0.0
0
LINE
8
MCD_Layer_7
10
267.833130
20
34.615479
30
0.0
11
270.995361
21
15.639648
31
0.0
0
LINE
8
MCD_Layer_7
10
287.870972
20
27.937012
30
0.0
11
305.447876
21
16.151733
31
0.0
0
LINE
8
MCD_Layer_7
10
267.870972
20
4.387817
30
0.0
11
289.823486
21
16.271973
31
0.0
0
LINE
8
MCD_Layer_7
10
287.870972
20
20.000000
30
0.0
11
287.989380
21
20.000000
31
0.0
0
LINE
8
MCD_Layer_7
10
288.301880
20
20.078125
30
0.0
11
287.833130
21
20.312500
31
0.0
0
LINE
8
MCD_Layer_7
10
287.833130
20
0.000000
30
0.0
11
272.220947
21
21.990356
31
0.0
0
LINE
8
MCD_Layer_7
10
284.105103
20
0.037842
30
0.0
11
272.220947
21
20.115356
31
0.0
0
LINE
8
MCD_Layer_7
10
291.677124
20
20.038452
30
0.0
11
287.833130
21
20.156250
31
0.0
0
LINE
8
MCD_Layer_7
10
287.833130
20
22.812500
30
0.0
11
287.911255
21
20.000000
31
0.0
0
LINE
8
MCD_Layer_7
10
288.301880
20
20.000000
30
0.0
11
267.833130
21
4.387817
31
0.0
0
LINE
8
MCD_Layer_7
10
287.948486
20
23.843994
30
0.0
11
287.871582
21
9.761963
31
0.0
0
LINE
8
MCD_Layer_7
10
291.072266
20
23.923950
30
0.0
11
277.871582
21
0.475464
31
0.0
0
LINE
8
MCD_Layer_7
10
274.745361
20
24.303589
30
0.0
11
287.871582
21
20.000000
31
0.0
0
LINE
8
MCD_Layer_7
10
287.989380
20
20.000000
30
0.0
11
290.645630
21
20.078125
31
0.0
0
LINE
8
MCD_Layer_7
10
287.833130
20
20.468750
30
0.0
11
287.833130
21
10.000000
31
0.0
0
LINE
8
MCD_Layer_7
10
268.308594
20
6.912231
30
0.0
11
292.136719
21
35.038452
31
0.0
0
LINE
8
MCD_Layer_7
10
291.542847
20
39.412842
30
0.0
11
297.532837
21
0.038452
31
0.0
0
LINE
8
MCD_Layer_7
10
278.516724
20
12.537231
30
0.0
11
301.400635
21
20.038452
31
0.0
0
LINE
8
MCD_Layer_7
10
287.833130
20
20.156250
30
0.0
11
287.833130
21
22.812500
31
0.0
0
LINE
8
MCD_Layer_7
10
287.911255
20
20.000000
30
0.0
11
288.301880
21
20.000000
31
0.0
0
LINE
8
MCD_Layer_7
10
267.833130
20
10.683594
30
0.0
11
280.370361
21
33.567505
31
0.0
0
LINE
8
MCD_Layer_7
10
287.871582
20
9.572144
30
0.0
11
274.198486
21
34.115601
31
0.0
0
LINE
8
MCD_Layer_7
10
274.121582
20
30.769653
30
0.0
11
297.324097
21
27.703857
31
0.0
0
LINE
8
MCD_Layer_7
10
287.871582
20
20.000000
30
0.0
11
287.989380
21
20.000000
31
0.0
0
LINE
8
MCD_Layer_7
10
288.301880
20
20.078125
30
0.0
11
287.833130
21
20.312500
31
0.0
0
LINE
8
MCD_Layer_7
10
287.833130
20
6.250000
30
0.0
11
298.602783
21
29.490967
31
0.0
0
LINE
8
MCD_Layer_7
10
295.536987
20
30.038452
30
0.0
11
278.697998
21
29.490967
31
0.0
0
LINE
8
MCD_Layer_7
10
295.536987
20
20.038452
30
0.0
11
287.833130
21
20.156250
31
0.0
0
LINE
8
MCD_Layer_7
10
287.833130
20
22.812500
30
0.0
11
287.911255
21
20.000000
31
0.0
0
LINE
8
MCD_Layer_7
10
288.301880
20
20.000000
30
0.0
11
297.833130
21
10.864868
31
0.0
0
LINE
8
MCD_Layer_7
10
297.324097
20
27.703857
30
0.0
11
277.871582
21
3.064575
31
0.0
0
LINE
8
MCD_Layer_7
10
278.574097
20
37.071533
30
0.0
11
267.871582
21
38.151855
31
0.0
0
LINE
8
MCD_Layer_7
10
277.948486
20
0.727539
30
0.0
11
287.871582
21
20.000000
31
0.0
0
LINE
8
MCD_Layer_7
10
287.989380
20
20.000000
30
0.0
11
290.645630
21
20.078125
31
0.0
0
LINE
8
MCD_Layer_7
10
287.833130
20
20.468750
30
0.0
11
287.833130
21
0.000000
31
0.0
0
LINE
8
MCD_Layer_7
10
305.984985
20
10.115356
30
0.0
11
268.560669
21
35.038452
31
0.0
0
LINE
8
MCD_Layer_7
10
271.572754
20
8.162231
30
0.0
11
268.444702
21
12.538452
31
0.0
0
LINE
8
MCD_Layer_7
10
300.006592
20
6.912842
30
0.0
11
307.360718
21
20.038452
31
0.0
0
LINE
8
MCD_Layer_7
10
287.833130
20
20.156250
30
0.0
11
287.833130
21
22.812500
31
0.0
0
LINE
8
MCD_Layer_7
10
287.911255
20
20.000000
30
0.0
11
288.301880
21
20.000000
31
0.0
0
LINE
8
MCD_Layer_7
10
280.333130
20
32.173462
30
0.0
11
274.745972
21
39.527588
31
0.0
0
LINE
8
MCD_Layer_7
10
306.621582
20
5.382690
30
0.0
11
294.120972
21
35.123901
31
0.0
0
LINE
8
MCD_Layer_7
10
282.871582
20
8.174438
30
0.0
11
305.370972
21
28.875732
31
0.0
0
LINE
8
MCD_Layer_7
10
287.871582
20
20.000000
30
0.0
11
287.989380
21
20.000000
31
0.0
0
LINE
8
MCD_Layer_7
10
290.645630
20
20.078125
30
0.0
11
287.833130
21
20.468750
31
0.0
0
LINE
8
MCD_Layer_7
10
287.833130
20
15.000000
30
0.0
11
276.007568
21
37.537842
31
0.0
0
LINE
8
MCD_Layer_7
10
296.708862
20
10.038452
30
0.0
11
271.967651
21
1.287842
31
0.0
0
LINE
8
MCD_Layer_7
10
292.200806
20
5.038452
30
0.0
11
299.622681
21
1.287842
31
0.0
0
LINE
8
MCD_Layer_7
10
289.476807
20
20.038452
30
0.0
11
287.833130
21
20.156250
31
0.0
0
LINE
8
MCD_Layer_7
10
287.833130
20
22.812500
30
0.0
11
287.911255
21
20.000000
31
0.0
0
LINE
8
MCD_Layer_7
10
288.301880
20
20.000000
30
0.0
11
272.833130
21
31.789551
31
0.0
0
LINE
8
MCD_Layer_7
10
269.120972
20
21.643677
30
0.0
11
284.121582
21
7.206421
31
0.0
0
LINE
8
MCD_Layer_7
10
288.495972
20
16.343994
30
0.0
11
276.620972
21
12.790527
31
0.0
0
LINE
8
MCD_Layer_7
10
270.370972
20
4.295654
30
0.0
11
287.870972
21
20.000000
31
0.0
0
LINE
8
MCD_Layer_7
10
287.989380
20
20.000000
30
0.0
11
290.645630
21
20.078125
31
0.0
0
LINE
8
MCD_Layer_7
10
287.833130
20
20.468750
30
0.0
11
287.833130
21
8.750000
31
0.0
0
LINE
8
MCD_Layer_7
10
280.623657
20
2.537842
30
0.0
11
272.128784
21
22.537842
31
0.0
0
LINE
8
MCD_Layer_7
10
277.440063
20
15.037842
30
0.0
11
287.672607
21
25.037231
31
0.0
0
LINE
8
MCD_Layer_7
10
304.583008
20
20.037842
30
0.0
11
280.088989
21
20.036011
31
0.0
0
LINE
8
MCD_Layer_7
10
287.833130
20
20.156250
30
0.0
11
287.833130
21
22.812500
31
0.0
0
LINE
8
MCD_Layer_7
10
287.911255
20
20.000000
30
0.0
11
288.301880
21
20.000000
31
0.0
0
LINE
8
MCD_Layer_7
10
292.833130
20
36.749878
30
0.0
11
287.870972
21
12.255859
31
0.0
0
LINE
8
MCD_Layer_7
10
297.869141
20
1.563721
30
0.0
11
287.870361
21
21.567993
31
0.0
0
LINE
8
MCD_Layer_7
10
282.948486
20
11.875610
30
0.0
11
277.948486
21
18.783569
31
0.0
0
LINE
8
MCD_Layer_7
10
287.947876
20
20.000000
30
0.0
11
287.989380
21
20.000000
31
0.0
0
LINE
8
MCD_Layer_7
10
290.645630
20
20.078125
30
0.0
11
287.833130
21
20.468750
31
0.0
0
LINE
8
MCD_Layer_7
10
287.833130
20
15.000000
30
0.0
11
279.708740
21
10.115356
31
0.0
0
LINE
8
MCD_Layer_7
10
286.616699
20
0.739746
30
0.0
11
273.641846
21
0.115967
31
0.0
0
LINE
8
MCD_Layer_7
10
276.600830
20
12.537231
30
0.0
11
280.753662
21
6.365967
31
0.0
0
LINE
8
MCD_Layer_7
10
274.000732
20
20.037842
30
0.0
11
287.833130
21
20.156250
31
0.0
0
LINE
8
MCD_Layer_8
10
332.110718
20
23.439941
30
0.0
11
323.476685
21
8.719482
31
0.0
0
LINE
8
MCD_Layer_8
10
332.148560
20
23.439941
30
0.0
11
320.976685
21
0.879517
31
0.0
0
LINE
8
MCD_Layer_8
10
328.398560
20
20.000000
30
0.0
11
328.516968
21
20.000000
31
0.0
0
LINE
8
MCD_Layer_8
10
331.173218
20
20.078125
30
0.0
11
328.360718
21
20.468750
31
0.0
0
LINE
8
MCD_Layer_8
10
328.360718
20
23.750000
30
0.0
11
331.800659
21
12.615967
31
0.0
0
LINE
8
MCD_Layer_8
10
309.240234
20
0.037842
30
0.0
11
348.040283
21
30.114746
31
0.0
0
LINE
8
MCD_Layer_8
10
326.440552
20
20.037231
30
0.0
11
325.000732
21
20.037231
31
0.0
0
LINE
8
MCD_Layer_8
10
308.360718
20
20.037842
30
0.0
11
328.360718
21
20.156250
31
0.0
0
LINE
8
MCD_Layer_8
10
328.360718
20
20.468750
30
0.0
11
328.438843
21
20.000000
31
0.0
0
LINE
8
MCD_Layer_8
10
328.673218
20
20.000000
30
0.0
11
328.360718
21
16.640015
31
0.0
0
LINE
8
MCD_Layer_8
10
328.397949
20
0.000000
30
0.0
11
328.398560
21
16.640015
31
0.0
0
LINE
8
MCD_Layer_8
10
328.397949
20
0.000000
30
0.0
11
328.399170
21
20.000000
31
0.0
0
LINE
8
MCD_Layer_8
10
328.516968
20
20.000000
30
0.0
11
328.829468
21
20.078125
31
0.0
0
LINE
8
MCD_Layer_8
10
328.360718
20
20.312500
30
0.0
11
328.360718
21
20.000000
31
0.0
0
LINE
8
MCD_Layer_8
10
325.000732
20
20.037231
30
0.0
11
308.360718
21
35.038452
31
0.0
0
LINE
8
MCD_Layer_8
10
314.880493
20
20.037842
30
0.0
11
308.360718
21
20.038452
31
0.0
0
LINE
8
MCD_Layer_8
10
328.360718
20
20.156250
30
0.0
11
328.360718
21
20.468750
31
0.0
0
LINE
8
MCD_Layer_8
10
328.438843
20
20.000000
30
0.0
11
328.673218
21
20.000000
31
0.0
0
LINE
8
MCD_Layer_8
10
343.360718
20
6.519775
30
0.0
11
328.398560
21
0.000000
31
0.0
0
LINE
8
MCD_Layer_8
10
343.399170
20
6.519775
30
0.0
11
340.898560
21
2.559814
31
0.0
0
LINE
8
MCD_Layer_8
10
328.398560
20
20.000000
30
0.0
11
328.516968
21
20.000000
31
0.0
0
LINE
8
MCD_Layer_8
10
331.173218
20
20.078125
30
0.0
11
328.360718
21
20.468750
31
0.0
0
LINE
8
MCD_Layer_8
10
328.360718
20
35.000000
30
0.0
11
314.880493
21
32.537842
31
0.0
0
LINE
8
MCD_Layer_8
10
310.920532
20
13.787842
30
0.0
11
309.840210
21
20.037842
31
0.0
0
LINE
8
MCD_Layer_8
10
316.200684
20
35.037231
30
0.0
11
331.000488
21
20.037842
31
0.0
0
LINE
8
MCD_Layer_8
10
339.080933
20
20.114746
30
0.0
11
328.360718
21
20.156250
31
0.0
0
LINE
8
MCD_Layer_8
10
328.360718
20
22.812500
30
0.0
11
328.438843
21
20.000000
31
0.0
0
LINE
8
MCD_Layer_8
10
328.829468
20
20.000000
30
0.0
11
343.360718
21
22.639771
31
0.0
0
LINE
8
MCD_Layer_8
10
328.398560
20
30.720215
30
0.0
11
333.475464
21
20.159912
31
0.0
0
LINE
8
MCD_Layer_8
10
308.476074
20
28.159790
30
0.0
11
315.976074
21
26.319580
31
0.0
0
LINE
8
MCD_Layer_8
10
328.476685
20
30.720215
30
0.0
11
328.475464
21
20.000000
31
0.0
0
LINE
8
MCD_Layer_8
10
328.516968
20
20.000000
30
0.0
11
331.173218
21
20.078125
31
0.0
0
LINE
8
MCD_Layer_8
10
328.360718
20
20.468750
30
0.0
11
328.360718
21
7.500000
31
0.0
0
LINE
8
MCD_Layer_8
10
334.680298
20
20.115967
30
0.0
11
339.080933
21
25.114746
31
0.0
0
LINE
8
MCD_Layer_8
10
311.280640
20
30.115967
30
0.0
11
314.280518
21
35.037231
31
0.0
0
LINE
8
MCD_Layer_8
10
314.880493
20
35.115967
30
0.0
11
346.600464
21
20.037842
31
0.0
0
LINE
8
MCD_Layer_8
10
328.360718
20
20.156250
30
0.0
11
328.360718
21
20.468750
31
0.0
0
LINE
8
MCD_Layer_8
10
328.438843
20
20.000000
30
0.0
11
328.673218
21
20.000000
31
0.0
0
LINE
8
MCD_Layer_8
10
343.360718
20
6.519775
30
0.0
11
343.476685
21
38.239746
31
0.0
0
LINE
8
MCD_Layer_8
10
343.398560
20
6.519775
30
0.0
11
323.476685
21
8.719482
31
0.0
0
LINE
8
MCD_Layer_8
10
328.398560
20
20.000000
30
0.0
11
328.516968
21
20.000000
31
0.0
0
LINE
8
MCD_Layer_8
10
328.829468
20
20.078125
30
0.0
11
328.360718
21
20.312500
31
0.0
0
LINE
8
MCD_Layer_8
10
328.360718
20
35.000000
30
0.0
11
314.880493
21
15.115967
31
0.0
0
LINE
8
MCD_Layer_8
10
317.080200
20
23.787842
30
0.0
11
331.800659
21
15.115967
31
0.0
0
LINE
8
MCD_Layer_8
10
317.080200
20
20.037842
30
0.0
11
328.360718
21
20.156250
31
0.0
0
LINE
8
MCD_Layer_9
10
359.020752
20
15.260010
30
0.0
11
369.136719
21
19.980469
31
0.0
0
LINE
8
MCD_Layer_9
10
359.020752
20
15.260010
30
0.0
11
359.761719
21
0.000000
31
0.0
0
LINE
8
MCD_Layer_9
10
369.059204
20
19.980469
30
0.0
11
369.177002
21
19.980469
31
0.0
0
LINE
8
MCD_Layer_9
10
369.489502
20
20.058594
30
0.0
11
369.020752
21
20.292969
31
0.0
0
LINE
8
MCD_Layer_9
10
369.020752
20
9.980469
30
0.0
11
364.300293
21
10.721436
31
0.0
0
LINE
8
MCD_Layer_9
10
349.040283
20
25.018921
30
0.0
11
384.700684
21
10.721436
31
0.0
0
LINE
8
MCD_Layer_9
10
349.040283
20
20.018921
30
0.0
11
369.020752
21
20.136719
31
0.0
0
LINE
8
MCD_Layer_9
10
369.020752
20
20.449219
30
0.0
11
369.098877
21
19.980469
31
0.0
0
LINE
8
MCD_Layer_9
10
369.333252
20
19.980469
30
0.0
11
374.020752
21
35.660400
31
0.0
0
LINE
8
MCD_Layer_9
10
359.761719
20
0.000000
30
0.0
11
374.059204
21
35.660400
31
0.0
0
LINE
8
MCD_Layer_9
10
377.886719
20
25.220337
30
0.0
11
369.059204
21
19.980469
31
0.0
0
LINE
8
MCD_Layer_9
10
369.177002
20
19.980469
30
0.0
11
369.489502
21
20.058594
31
0.0
0
LINE
8
MCD_Layer_9
10
369.020752
20
20.292969
30
0.0
11
369.020752
21
24.980469
31
0.0
0
LINE
8
MCD_Layer_9
10
384.700684
20
28.846436
30
0.0
11
374.260620
21
20.018921
31
0.0
0
LINE
8
MCD_Layer_9
10
372.380737
20
10.643311
30
0.0
11
349.040283
21
20.018921
31
0.0
0
LINE
8
MCD_Layer_9
10
369.020752
20
20.136719
30
0.0
11
369.020752
21
20.449219
31
0.0
0
LINE
8
MCD_Layer_9
10
369.098877
20
19.980469
30
0.0
11
369.333252
21
19.980469
31
0.0
0
LINE
8
MCD_Layer_9
10
369.020752
20
23.340454
30
0.0
11
359.683594
21
0.000000
31
0.0
0
LINE
8
MCD_Layer_9
10
377.809204
20
11.340332
30
0.0
11
359.683594
21
0.000000
31
0.0
0
LINE
8
MCD_Layer_9
10
369.059204
20
19.980469
30
0.0
11
369.177002
21
19.980469
31
0.0
0
LINE
8
MCD_Layer_9
10
369.489502
20
20.058594
30
0.0
11
369.020752
21
20.292969
31
0.0
0
LINE
8
MCD_Layer_9
10
369.020752
20
28.730469
30
0.0
11
360.380615
21
10.643311
31
0.0
0
LINE
8
MCD_Layer_9
10
349.040283
20
20.018921
30
0.0
11
349.499268
21
33.843994
31
0.0
0
LINE
8
MCD_Layer_9
10
373.300537
20
20.018921
30
0.0
11
369.020752
21
20.136719
31
0.0
0
LINE
8
MCD_Layer_9
10
369.020752
20
20.449219
30
0.0
11
369.098877
21
19.980469
31
0.0
0
LINE
8
MCD_Layer_9
10
369.333252
20
19.980469
30
0.0
11
369.020752
21
0.458984
31
0.0
0
LINE
8
MCD_Layer_9
10
382.884277
20
24.260254
30
0.0
11
359.059204
21
15.260010
31
0.0
0
LINE
8
MCD_Layer_9
10
369.058594
20
19.980469
30
0.0
11
369.020752
21
19.980469
31
0.0
0
LINE
8
MCD_Layer_9
10
369.177002
20
19.980469
30
0.0
11
369.489502
21
20.058594
31
0.0
0
LINE
8
MCD_Layer_9
10
369.020752
20
20.292969
30
0.0
11
369.020752
21
9.980469
31
0.0
0
LINE
8
MCD_Layer_9
10
364.300293
20
20.018311
30
0.0
11
369.020752
21
2.480469
31
0.0
0
LINE
8
MCD_Layer_9
10
385.180420
20
20.018311
30
0.0
11
369.020752
21
19.980469
31
0.0
0
LINE
8
MCD_Layer_9
10
369.020752
20
20.136719
30
0.0
11
369.020752
21
20.449219
31
0.0
0
LINE
8
MCD_Layer_9
10
369.098877
20
19.980469
30
0.0
11
369.333252
21
19.980469
31
0.0
0
LINE
8
MCD_Layer_9
10
351.520752
20
36.140137
30
0.0
11
369.058594
21
19.980469
31
0.0
0
LINE
8
MCD_Layer_9
10
374.020752
20
20.140381
30
0.0
11
356.636719
21
18.540039
31
0.0
0
LINE
8
MCD_Layer_9
10
369.058594
20
19.980469
30
0.0
11
369.177002
21
19.980469
31
0.0
0
LINE
8
MCD_Layer_9
10
369.489502
20
20.058594
30
0.0
11
369.020752
21
20.292969
31
0.0
0
LINE
8
MCD_Layer_9
10
369.020752
20
24.980469
30
0.0
11
369.180664
21
7.596436
31
0.0
0
LINE
8
MCD_Layer_9
10
367.580322
20
25.018311
30
0.0
11
384.700684
21
10.096436
31
0.0
0
LINE
8
MCD_Layer_9
10
359.820312
20
20.018311
30
0.0
11
369.020752
21
20.136719
31
0.0
0
LINE
8
MCD_Layer_9
10
369.020752
20
20.449219
30
0.0
11
369.098877
21
19.980469
31
0.0
0
LINE
8
MCD_Layer_9
10
369.333252
20
19.980469
30
0.0
11
374.020752
21
35.660400
31
0.0
0
LINE
8
MCD_Layer_9
10
359.136719
20
10.780029
30
0.0
11
374.058594
21
35.660400
31
0.0
0
LINE
8
MCD_Layer_9
10
369.136719
20
19.980469
30
0.0
11
369.020752
21
19.980469
31
0.0
0
LINE
8
MCD_Layer_9
10
369.177002
20
19.980469
30
0.0
11
369.489502
21
20.058594
31
0.0
0
LINE
8
MCD_Layer_9
10
369.020752
20
20.292969
30
0.0
11
369.020752
21
24.980469
31
0.0
0
LINE
8
MCD_Layer_9
10
384.700684
20
20.096436
30
0.0
11
369.020752
21
9.980469
31
0.0
0
LINE
8
MCD_Layer_9
10
364.300293
20
20.096436
30
0.0
11
369.020752
21
19.980469
31
0.0
0
LINE
8
MCD_Layer_9
10
369.020752
20
20.136719
30
0.0
11
369.020752
21
20.449219
31
0.0
0
LINE
8
MCD_Layer_10
10
412.410889
20
7.380371
30
0.0
11
406.276855
21
19.980469
31
0.0
0
LINE
8
MCD_Layer_10
10
412.410889
20
7.380371
30
0.0
11
396.901855
21
0.000000
31
0.0
0
LINE
8
MCD_Layer_10
10
406.199341
20
19.980469
30
0.0
11
406.317139
21
19.980469
31
0.0
0
LINE
8
MCD_Layer_10
10
406.629639
20
20.058594
30
0.0
11
406.160889
21
20.292969
31
0.0
0
LINE
8
MCD_Layer_10
10
406.160889
20
26.230469
30
0.0
11
393.560791
21
10.721436
31
0.0
0
LINE
8
MCD_Layer_10
10
386.180420
20
15.018921
30
0.0
11
406.000366
21
10.720825
31
0.0
0
LINE
8
MCD_Layer_10
10
386.180420
20
20.018921
30
0.0
11
406.160889
21
20.136719
31
0.0
0
LINE
8
MCD_Layer_10
10
406.160889
20
20.449219
30
0.0
11
406.239014
21
19.980469
31
0.0
0
LINE
8
MCD_Layer_10
10
406.473389
20
19.980469
30
0.0
11
401.160889
21
19.819946
31
0.0
0
LINE
8
MCD_Layer_10
10
396.901245
20
0.000000
30
0.0
11
401.199341
21
19.819946
31
0.0
0
LINE
8
MCD_Layer_10
10
406.276245
20
27.820435
30
0.0
11
406.198730
21
19.980469
31
0.0
0
LINE
8
MCD_Layer_10
10
406.317139
20
19.980469
30
0.0
11
406.629639
21
20.058594
31
0.0
0
LINE
8
MCD_Layer_10
10
406.160889
20
20.292969
30
0.0
11
406.160889
21
14.980469
31
0.0
0
LINE
8
MCD_Layer_10
10
406.000366
20
20.095825
30
0.0
11
414.000854
21
26.268311
31
0.0
0
LINE
8
MCD_Layer_10
10
393.560791
20
20.018311
30
0.0
11
414.000854
21
20.018311
31
0.0
0
LINE
8
MCD_Layer_10
10
406.160889
20
20.136719
30
0.0
11
406.160889
21
20.449219
31
0.0
0
LINE
8
MCD_Layer_10
10
406.239014
20
19.980469
30
0.0
11
406.473389
21
19.980469
31
0.0
0
LINE
8
MCD_Layer_10
10
412.410889
20
7.380371
30
0.0
11
406.198730
21
27.820435
31
0.0
0
LINE
8
MCD_Layer_10
10
412.448730
20
7.380371
30
0.0
11
406.198730
21
19.980469
31
0.0
0
LINE
8
MCD_Layer_10
10
406.160889
20
19.980469
30
0.0
11
406.317139
21
19.980469
31
0.0
0
LINE
8
MCD_Layer_10
10
406.629639
20
20.058594
30
0.0
11
406.160889
21
20.292969
31
0.0
0
LINE
8
MCD_Layer_10
10
406.160889
20
26.230469
30
0.0
11
393.560791
21
20.018311
31
0.0
0
LINE
8
MCD_Layer_10
10
406.160889
20
26.230469
30
0.0
11
393.560791
21
20.096436
31
0.0
0
LINE
8
MCD_Layer_10
10
406.160889
20
19.980469
30
0.0
11
406.160889
21
20.136719
31
0.0
0
LINE
8
MCD_Layer_12
10
451.928589
20
12.199707
30
0.0
11
472.044556
21
20.000000
31
0.0
0
LINE
8
MCD_Layer_12
10
451.928589
20
12.199707
30
0.0
11
462.669556
21
0.019531
31
0.0
0
LINE
8
MCD_Layer_12
10
471.967041
20
20.000000
30
0.0
11
472.084839
21
20.000000
31
0.0
0
LINE
8
MCD_Layer_12
10
472.397339
20
20.078125
30
0.0
11
471.928589
21
20.312500
31
0.0
0
LINE
8
MCD_Layer_12
10
471.928589
20
0.000000
30
0.0
11
464.128296
21
10.740967
31
0.0
0
LINE
8
MCD_Layer_12
10
451.948120
20
10.038452
30
0.0
11
484.968140
21
10.740967
31
0.0
0
LINE
8
MCD_Layer_12
10
451.948120
20
20.038452
30
0.0
11
471.928589
21
20.156250
31
0.0
0
LINE
8
MCD_Layer_12
10
471.928589
20
20.468750
30
0.0
11
472.006714
21
20.000000
31
0.0
0
LINE
8
MCD_Layer_12
10
472.241089
20
20.000000
30
0.0
11
461.928589
21
33.039551
31
0.0
0
LINE
8
MCD_Layer_12
10
462.669556
20
0.019531
30
0.0
11
456.967041
21
29.519653
31
0.0
0
LINE
8
MCD_Layer_12
10
474.466431
20
7.839966
30
0.0
11
471.966431
21
20.000000
31
0.0
0
LINE
8
MCD_Layer_12
10
472.084839
20
20.000000
30
0.0
11
472.397339
21
20.078125
31
0.0
0
LINE
8
MCD_Layer_12
10
471.928589
20
20.312500
30
0.0
11
471.928589
21
5.000000
31
0.0
0
LINE
8
MCD_Layer_12
10
481.448242
20
22.537842
30
0.0
11
459.768555
21
5.037842
31
0.0
0
LINE
8
MCD_Layer_12
10
481.448242
20
10.662842
30
0.0
11
451.948120
21
20.038452
31
0.0
0
LINE
8
MCD_Layer_12
10
471.928589
20
20.156250
30
0.0
11
471.928589
21
20.468750
31
0.0
0
LINE
8
MCD_Layer_12
10
472.006714
20
20.000000
30
0.0
11
472.241089
21
20.000000
31
0.0
0
LINE
8
MCD_Layer_12
10
456.928589
20
29.519653
30
0.0
11
462.591431
21
0.019531
31
0.0
0
LINE
8
MCD_Layer_12
10
451.967041
20
12.199707
30
0.0
11
462.591431
21
0.019531
31
0.0
0
LINE
8
MCD_Layer_12
10
471.967041
20
20.000000
30
0.0
11
472.084839
21
20.000000
31
0.0
0
LINE
8
MCD_Layer_12
10
472.397339
20
20.078125
30
0.0
11
471.928589
21
20.312500
31
0.0
0
LINE
8
MCD_Layer_12
10
471.928589
20
0.000000
30
0.0
11
464.128296
21
10.662842
31
0.0
0
LINE
8
MCD_Layer_12
10
451.948120
20
0.038452
30
0.0
11
464.128296
21
20.037842
31
0.0
0
LINE
8
MCD_Layer_12
10
471.928589
20
20.000000
30
0.0
11
471.928589
21
20.156250
31
0.0
0
LINE
8
MCD_Layer_12
10
471.928589
20
20.468750
30
0.0
11
472.006714
21
20.000000
31
0.0
0
LINE
8
MCD_Layer_12
10
472.241089
20
20.000000
30
0.0
11
451.928589
21
12.199707
31
0.0
0
LINE
8
MCD_Layer_12
10
471.966431
20
20.000000
30
0.0
11
486.928589
21
30.479736
31
0.0
0
LINE
8
MCD_Layer_12
10
471.966431
20
20.000000
30
0.0
11
471.928589
21
20.000000
31
0.0
0
LINE
8
MCD_Layer_12
10
472.084839
20
20.000000
30
0.0
11
472.397339
21
20.078125
31
0.0
0
LINE
8
MCD_Layer_12
10
471.928589
20
20.312500
30
0.0
11
471.928589
21
35.000000
31
0.0
0
LINE
8
MCD_Layer_12
10
482.408325
20
20.037842
30
0.0
11
471.928589
21
5.000000
31
0.0
0
LINE
8
MCD_Layer_12
10
481.448242
20
1.365967
30
0.0
11
476.968262
21
20.038452
31
0.0
0
LINE
8
MCD_Layer_12
10
471.928589
20
20.156250
30
0.0
11
471.928589
21
20.468750
31
0.0
0
LINE
8
MCD_Layer_12
10
472.006714
20
20.000000
30
0.0
11
472.241089
21
20.000000
31
0.0
0
LINE
8
MCD_Layer_12
10
456.928589
20
29.519653
30
0.0
11
453.294556
21
25.039673
31
0.0
0
LINE
8
MCD_Layer_12
10
456.967041
20
29.519653
30
0.0
11
472.044556
21
20.000000
31
0.0
0
LINE
8
MCD_Layer_12
10
471.928589
20
20.000000
30
0.0
11
472.084839
21
20.000000
31
0.0
0
LINE
8
MCD_Layer_12
10
472.397339
20
20.078125
30
0.0
11
471.928589
21
20.312500
31
0.0
0
LINE
8
MCD_Layer_12
10
471.928589
20
5.000000
30
0.0
11
481.448242
21
20.115967
31
0.0
0
LINE
8
MCD_Layer_12
10
471.928589
20
0.000000
30
0.0
11
464.128296
21
20.115967
31
0.0
0
LINE
8
MCD_Layer_12
10
471.928589
20
20.000000
30
0.0
11
471.928589
21
20.156250
31
0.0
0
LINE
8
MCD_Layer_13
10
17.462769
20
-24.116455
30
0.0
11
0.078735
21
-37.132202
31
0.0
0
LINE
8
MCD_Layer_13
10
32.656860
20
-21.476074
30
0.0
11
30.078735
21
-17.452026
31
0.0
0
LINE
8
MCD_Layer_13
10
15.313721
20
-31.956421
30
0.0
11
10.078735
21
-6.972290
31
0.0
0
LINE
8
MCD_Layer_13
10
20.001221
20
-21.051880
30
0.0
11
20.119019
21
-21.051880
31
0.0
0
LINE
8
MCD_Layer_13
10
22.775269
20
-20.973755
30
0.0
11
19.962769
21
-20.583130
31
0.0
0
LINE
8
MCD_Layer_13
10
19.962769
20
-2.145630
30
0.0
11
5.594482
21
-11.014038
31
0.0
0
LINE
8
MCD_Layer_13
10
35.722656
20
-38.357178
30
0.0
11
19.034424
21
-11.014038
31
0.0
0
LINE
8
MCD_Layer_13
10
24.762573
20
-15.857178
30
0.0
11
17.434692
21
-31.014038
31
0.0
0
LINE
8
MCD_Layer_13
10
5.162354
20
-21.014038
30
0.0
11
19.962769
21
-20.895630
31
0.0
0
LINE
8
MCD_Layer_13
10
19.962769
20
-18.239380
30
0.0
11
20.040894
21
-21.051880
31
0.0
0
LINE
8
MCD_Layer_13
10
20.431519
20
-21.051880
30
0.0
11
20.744019
21
-39.259888
31
0.0
0
LINE
8
MCD_Layer_13
10
5.000610
20
-31.452271
30
0.0
11
29.531860
21
-37.900024
31
0.0
0
LINE
8
MCD_Layer_13
10
5.000610
20
-20.932251
30
0.0
11
0.782471
21
-38.700195
31
0.0
0
LINE
8
MCD_Layer_13
10
25.000610
20
-16.491943
30
0.0
11
20.001221
21
-21.051880
31
0.0
0
LINE
8
MCD_Layer_13
10
20.119019
20
-21.051880
30
0.0
11
22.775269
21
-20.973755
31
0.0
0
LINE
8
MCD_Layer_13
10
19.962769
20
-20.583130
30
0.0
11
19.962769
21
-30.583130
31
0.0
0
LINE
8
MCD_Layer_13
10
2.258301
20
-15.935913
30
0.0
11
24.522705
21
-1.638428
31
0.0
0
LINE
8
MCD_Layer_13
10
3.058472
20
-35.935913
30
0.0
11
20.082397
21
-10.700928
31
0.0
0
LINE
8
MCD_Layer_13
10
1.698608
20
-35.935913
30
0.0
11
9.562378
21
-21.014038
31
0.0
0
LINE
8
MCD_Layer_13
10
19.962769
20
-20.895630
30
0.0
11
19.962769
21
-20.583130
31
0.0
0
LINE
8
MCD_Layer_13
10
20.040894
20
-21.051880
30
0.0
11
20.275269
21
-21.051880
31
0.0
0
LINE
8
MCD_Layer_13
10
0.587769
20
-39.008423
30
0.0
11
0.000000
21
-7.547241
31
0.0
0
LINE
8
MCD_Layer_13
10
0.626221
20
-39.008423
30
0.0
11
5.000000
21
-40.860840
31
0.0
0
LINE
8
MCD_Layer_13
10
20.001221
20
-21.051880
30
0.0
11
20.119019
21
-21.051880
31
0.0
0
LINE
8
MCD_Layer_13
10
22.775269
20
-20.973755
30
0.0
11
19.962769
21
-20.583130
31
0.0
0
LINE
8
MCD_Layer_13
10
19.962769
20
-27.301880
30
0.0
11
36.062622
21
-35.936523
31
0.0
0
LINE
8
MCD_Layer_13
10
33.581543
20
-4.919678
30
0.0
11
32.189941
21
-25.935913
31
0.0
0
LINE
8
MCD_Layer_13
10
30.381470
20
-30.388428
30
0.0
11
2.258301
21
-15.935913
31
0.0
0
LINE
8
MCD_Layer_13
10
24.522705
20
-21.013428
30
0.0
11
19.962769
21
-20.895630
31
0.0
0
LINE
8
MCD_Layer_13
10
19.962769
20
-18.239380
30
0.0
11
20.040894
21
-21.051880
31
0.0
0
LINE
8
MCD_Layer_13
10
20.431519
20
-21.051880
30
0.0
11
0.744019
21
-38.700195
31
0.0
0
LINE
8
MCD_Layer_13
10
25.000610
20
-16.491943
30
0.0
11
17.813721
21
-8.047119
31
0.0
0
LINE
8
MCD_Layer_13
10
5.000610
20
-10.809570
30
0.0
11
1.876221
21
-39.008423
31
0.0
0
LINE
8
MCD_Layer_13
10
0.000000
20
-7.547241
30
0.0
11
20.001221
21
-21.051880
31
0.0
0
LINE
8
MCD_Layer_13
10
20.119019
20
-21.051880
30
0.0
11
22.775269
21
-20.973755
31
0.0
0
LINE
8
MCD_Layer_13
10
19.962769
20
-20.583130
30
0.0
11
19.962769
21
-2.145630
31
0.0
0
LINE
8
MCD_Layer_13
10
5.594482
20
-11.014038
30
0.0
11
35.722656
21
-24.450928
31
0.0
0
LINE
8
MCD_Layer_13
10
32.364502
20
-31.014038
30
0.0
11
38.718872
21
-1.638428
31
0.0
0
LINE
8
MCD_Layer_13
10
2.006226
20
-36.014648
30
0.0
11
0.153809
21
-21.013428
31
0.0
0
LINE
8
MCD_Layer_13
10
19.962769
20
-20.895630
30
0.0
11
19.962769
21
-18.239380
31
0.0
0
LINE
8
MCD_Layer_13
10
20.040894
20
-21.051880
30
0.0
11
20.431519
21
-21.051880
31
0.0
0
LINE
8
MCD_Layer_13
10
16.212769
20
-4.952026
30
0.0
11
20.078125
21
-40.823608
31
0.0
0
LINE
8
MCD_Layer_13
10
13.282471
20
-5.238281
30
0.0
11
10.078735
21
-2.721191
31
0.0
0
LINE
8
MCD_Layer_13
10
15.313721
20
-31.956421
30
0.0
11
10.078735
21
-6.972290
31
0.0
0
LINE
8
MCD_Layer_13
10
20.001221
20
-21.051880
30
0.0
11
20.119019
21
-21.051880
31
0.0
0
LINE
8
MCD_Layer_13
10
20.431519
20
-20.973755
30
0.0
11
19.962769
21
-20.739380
31
0.0
0
LINE
8
MCD_Layer_13
10
19.962769
20
-24.801880
30
0.0
11
36.062622
21
-20.936523
31
0.0
0
LINE
8
MCD_Layer_13
10
0.191040
20
-24.763428
30
0.0
11
36.062622
21
-35.936523
31
0.0
0
LINE
8
MCD_Layer_13
10
33.581543
20
-21.013428
30
0.0
11
19.962769
21
-20.895630
31
0.0
0
LINE
8
MCD_Layer_13
10
19.962769
20
-18.239380
30
0.0
11
20.040894
21
-21.051880
31
0.0
0
LINE
8
MCD_Layer_13
10
20.431519
20
-21.051880
30
0.0
11
16.212769
21
-24.116455
31
0.0
0
LINE
8
MCD_Layer_13
10
0.078735
20
-37.132202
30
0.0
11
30.000610
21
-37.033936
31
0.0
0
LINE
8
MCD_Layer_13
10
20.078735
20
-32.334229
30
0.0
11
17.500000
21
-4.952026
31
0.0
0
LINE
8
MCD_Layer_13
10
20.078125
20
-9.545532
30
0.0
11
20.077515
21
-21.051880
31
0.0
0
LINE
8
MCD_Layer_13
10
20.119019
20
-21.051880
30
0.0
11
22.775269
21
-20.973755
31
0.0
0
LINE
8
MCD_Layer_13
10
19.962769
20
-20.583130
30
0.0
11
19.962769
21
-37.926880
31
0.0
0
LINE
8
MCD_Layer_13
10
2.006226
20
-21.014648
30
0.0
11
26.974487
21
-39.530884
31
0.0
0
LINE
8
MCD_Layer_13
10
4.940796
20
-21.014038
30
0.0
11
11.558228
21
-15.858398
31
0.0
0
LINE
8
MCD_Layer_13
10
17.434692
20
-31.014038
30
0.0
11
5.162354
21
-21.014038
31
0.0
0
LINE
8
MCD_Layer_13
10
19.962769
20
-20.895630
30
0.0
11
19.962769
21
-20.583130
31
0.0
0
LINE
8
MCD_Layer_13
10
20.040894
20
-21.051880
30
0.0
11
20.275269
21
-21.051880
31
0.0
0
LINE
8
MCD_Layer_13
10
0.587769
20
-39.008423
30
0.0
11
10.000000
21
-14.434448
31
0.0
0
LINE
8
MCD_Layer_13
10
0.625610
20
-39.008423
30
0.0
11
20.000000
21
-14.040161
31
0.0
0
LINE
8
MCD_Layer_13
10
20.077515
20
-21.051880
30
0.0
11
20.119019
21
-21.051880
31
0.0
0
LINE
8
MCD_Layer_13
10
22.775269
20
-20.973755
30
0.0
11
19.962769
21
-20.583130
31
0.0
0
LINE
8
MCD_Layer_13
10
19.962769
20
-39.801880
30
0.0
11
2.006226
21
-31.014648
31
0.0
0
LINE
8
MCD_Layer_13
10
26.580200
20
-38.201538
30
0.0
11
31.466064
21
-31.014038
31
0.0
0
LINE
8
MCD_Layer_13
10
38.673096
20
-19.607788
30
0.0
11
1.754761
21
-36.014038
31
0.0
0
LINE
8
MCD_Layer_13
10
9.562378
20
-21.014038
30
0.0
11
19.962769
21
-20.895630
31
0.0
0
LINE
8
MCD_Layer_13
10
19.962769
20
-18.239380
30
0.0
11
20.040894
21
-21.051880
31
0.0
0
LINE
8
MCD_Layer_13
10
20.431519
20
-21.051880
30
0.0
11
30.275269
21
-39.316040
31
0.0
0
LINE
8
MCD_Layer_13
10
5.078735
20
-31.452271
30
0.0
11
23.594360
21
-10.179688
31
0.0
0
LINE
8
MCD_Layer_13
10
0.078735
20
-3.266846
30
0.0
11
15.000610
21
-4.952026
31
0.0
0
LINE
8
MCD_Layer_13
10
0.078125
20
-15.100952
30
0.0
11
20.000610
21
-21.051880
31
0.0
0
LINE
8
MCD_Layer_13
10
20.119019
20
-21.051880
30
0.0
11
20.431519
21
-20.973755
31
0.0
0
LINE
8
MCD_Layer_13
10
19.962769
20
-20.739380
30
0.0
11
19.962769
21
-24.801880
31
0.0
0
LINE
8
MCD_Layer_13
10
36.062622
20
-40.936523
30
0.0
11
25.913696
21
-24.764038
31
0.0
0
LINE
8
MCD_Layer_13
10
36.062622
20
-20.936523
30
0.0
11
31.469116
21
-20.937134
31
0.0
0
LINE
8
MCD_Layer_13
10
19.962769
20
-20.895630
30
0.0
11
19.962769
21
-20.583130
31
0.0
0
LINE
8
MCD_Layer_14
10
78.468872
20
-29.856812
30
0.0
11
59.834839
21
-20.936523
31
0.0
0
LINE
8
MCD_Layer_14
10
78.468872
20
-29.856812
30
0.0
11
49.834839
21
-40.916992
31
0.0
0
LINE
8
MCD_Layer_14
10
59.757324
20
-20.936523
30
0.0
11
59.875122
21
-20.936523
31
0.0
0
LINE
8
MCD_Layer_14
10
60.187622
20
-20.858398
30
0.0
11
59.718872
21
-20.624023
31
0.0
0
LINE
8
MCD_Layer_14
10
59.718872
20
-2.186523
30
0.0
11
50.798584
21
-30.820557
31
0.0
0
LINE
8
MCD_Layer_14
10
39.738403
20
-40.898071
30
0.0
11
62.438599
21
-30.899292
31
0.0
0
LINE
8
MCD_Layer_14
10
39.738403
20
-20.898071
30
0.0
11
59.718872
21
-20.780273
31
0.0
0
LINE
8
MCD_Layer_14
10
59.718872
20
-18.124023
30
0.0
11
59.796997
21
-20.936523
31
0.0
0
LINE
8
MCD_Layer_14
10
60.187622
20
-20.936523
30
0.0
11
39.718872
21
-18.216797
31
0.0
0
LINE
8
MCD_Layer_14
10
49.756104
20
-40.916992
30
0.0
11
46.007324
21
-17.976929
31
0.0
0
LINE
8
MCD_Layer_14
10
39.756714
20
-1.416870
30
0.0
11
42.257324
21
-36.416870
31
0.0
0
LINE
8
MCD_Layer_14
10
74.756714
20
-5.536743
30
0.0
11
59.757324
21
-20.936523
31
0.0
0
LINE
8
MCD_Layer_14
10
59.875122
20
-20.936523
30
0.0
11
62.531372
21
-20.858398
31
0.0
0
LINE
8
MCD_Layer_14
10
59.718872
20
-20.467773
30
0.0
11
59.718872
21
-38.436523
31
0.0
0
LINE
8
MCD_Layer_14
10
44.238525
20
-5.898682
30
0.0
11
75.118652
21
-2.148071
31
0.0
0
LINE
8
MCD_Layer_14
10
50.798584
20
-10.898682
30
0.0
11
66.678711
21
-31.523071
31
0.0
0
LINE
8
MCD_Layer_14
10
46.638428
20
-20.898682
30
0.0
11
58.438965
21
-20.898682
31
0.0
0
LINE
8
MCD_Layer_14
10
59.718872
20
-20.780273
30
0.0
11
59.718872
21
-18.124023
31
0.0
0
LINE
8
MCD_Layer_14
10
59.796997
20
-20.936523
30
0.0
11
60.187622
21
-20.936523
31
0.0
0
LINE
8
MCD_Layer_14
10
49.093872
20
-34.016968
30
0.0
11
59.756714
21
-22.216431
31
0.0
0
LINE
8
MCD_Layer_14
10
58.506714
20
-14.297119
30
0.0
11
59.756714
21
-33.256470
31
0.0
0
LINE
8
MCD_Layer_14
10
64.756714
20
-4.136597
30
0.0
11
39.756104
21
-34.856812
31
0.0
0
LINE
8
MCD_Layer_14
10
59.756714
20
-20.936523
30
0.0
11
59.875122
21
-20.936523
31
0.0
0
LINE
8
MCD_Layer_14
10
60.187622
20
-20.858398
30
0.0
11
59.718872
21
-20.624023
31
0.0
0
LINE
8
MCD_Layer_14
10
59.718872
20
-38.436523
30
0.0
11
66.998535
21
-20.820557
31
0.0
0
LINE
8
MCD_Layer_14
10
59.718872
20
-2.186523
30
0.0
11
50.798584
21
-20.820557
31
0.0
0
LINE
8
MCD_Layer_14
10
59.718872
20
-20.936523
30
0.0
11
59.718872
21
-20.780273
31
0.0
0
LINE
8
MCD_Layer_14
10
59.718872
20
-18.124023
30
0.0
11
59.796997
21
-20.936523
31
0.0
0
LINE
8
MCD_Layer_14
10
60.187622
20
-20.936523
30
0.0
11
49.718872
21
-11.177002
31
0.0
0
LINE
8
MCD_Layer_14
10
59.756104
20
-20.936523
30
0.0
11
39.757324
21
-32.616821
31
0.0
0
LINE
8
MCD_Layer_14
10
49.756104
20
-20.577026
30
0.0
11
58.507324
21
-14.297119
31
0.0
0
LINE
8
MCD_Layer_14
10
59.756714
20
-18.096558
30
0.0
11
59.757324
21
-20.936523
31
0.0
0
LINE
8
MCD_Layer_14
10
59.875122
20
-20.936523
30
0.0
11
62.531372
21
-20.858398
31
0.0
0
LINE
8
MCD_Layer_14
10
59.718872
20
-20.467773
30
0.0
11
59.718872
21
-22.186523
31
0.0
0
LINE
8
MCD_Layer_14
10
66.358276
20
-20.898682
30
0.0
11
62.558838
21
-9.648071
31
0.0
0
LINE
8
MCD_Layer_14
10
71.158691
20
-10.898682
30
0.0
11
66.158691
21
-10.898071
31
0.0
0
LINE
8
MCD_Layer_14
10
65.558716
20
-40.898682
30
0.0
11
70.358521
21
-20.898071
31
0.0
0
LINE
8
MCD_Layer_14
10
59.718872
20
-20.780273
30
0.0
11
59.718872
21
-18.124023
31
0.0
0
LINE
8
MCD_Layer_14
10
59.796997
20
-20.936523
30
0.0
11
60.187622
21
-20.936523
31
0.0
0
LINE
8
MCD_Layer_14
10
69.718872
20
-15.096680
30
0.0
11
39.756714
21
-10.296875
31
0.0
0
LINE
8
MCD_Layer_14
10
54.757324
20
-35.497070
30
0.0
11
39.756104
21
-8.136841
31
0.0
0
LINE
8
MCD_Layer_14
10
69.757324
20
-29.576660
30
0.0
11
69.755493
21
-7.856689
31
0.0
0
LINE
8
MCD_Layer_14
10
59.757324
20
-20.936523
30
0.0
11
59.875122
21
-20.936523
31
0.0
0
LINE
8
MCD_Layer_14
10
60.187622
20
-20.858398
30
0.0
11
59.718872
21
-20.624023
31
0.0
0
LINE
8
MCD_Layer_14
10
59.718872
20
-10.936523
30
0.0
11
51.078735
21
-10.899902
31
0.0
0
LINE
8
MCD_Layer_14
10
72.798706
20
-38.398071
30
0.0
11
66.998535
21
-10.820557
31
0.0
0
LINE
8
MCD_Layer_14
10
72.798706
20
-20.898071
30
0.0
11
59.718872
21
-20.780273
31
0.0
0
LINE
8
MCD_Layer_14
10
59.718872
20
-20.467773
30
0.0
11
59.796997
21
-20.936523
31
0.0
0
LINE
8
MCD_Layer_14
10
60.031372
20
-20.936523
30
0.0
11
42.218872
21
-13.656860
31
0.0
0
LINE
8
MCD_Layer_14
10
59.834839
20
-20.936523
30
0.0
11
42.218872
21
-13.656860
31
0.0
0
LINE
8
MCD_Layer_14
10
69.834839
20
-7.856689
30
0.0
11
59.757324
21
-20.936523
31
0.0
0
LINE
8
MCD_Layer_14
10
59.875122
20
-20.936523
30
0.0
11
60.187622
21
-20.858398
31
0.0
0
LINE
8
MCD_Layer_14
10
59.718872
20
-20.624023
30
0.0
11
59.718872
21
-40.936523
31
0.0
0
LINE
8
MCD_Layer_14
10
50.342041
20
-40.821777
30
0.0
11
45.798584
21
-15.898682
31
0.0
0
LINE
8
MCD_Layer_14
10
76.518799
20
-40.899292
30
0.0
11
45.798584
21
-20.898682
31
0.0
0
LINE
8
MCD_Layer_14
10
59.718872
20
-20.780273
30
0.0
11
59.718872
21
-20.467773
31
0.0
0
LINE
8
MCD_Layer_14
10
59.796997
20
-20.936523
30
0.0
11
60.031372
21
-20.936523
31
0.0
0
LINE
8
MCD_Layer_14
10
39.718872
20
-30.313354
30
0.0
11
59.833618
21
-20.936523
31
0.0
0
LINE
8
MCD_Layer_14
10
39.757324
20
-30.313354
30
0.0
11
39.833618
21
-34.856812
31
0.0
0
LINE
8
MCD_Layer_14
10
59.756714
20
-20.936523
30
0.0
11
59.875122
21
-20.936523
31
0.0
0
LINE
8
MCD_Layer_14
10
60.187622
20
-20.858398
30
0.0
11
59.718872
21
-20.624023
31
0.0
0
LINE
8
MCD_Layer_14
10
59.718872
20
-40.936523
30
0.0
11
50.342041
21
-20.821777
31
0.0
0
LINE
8
MCD_Layer_14
10
59.718872
20
-30.898071
30
0.0
11
69.478394
21
-20.899292
31
0.0
0
LINE
8
MCD_Layer_14
10
59.718872
20
-20.898071
30
0.0
11
59.718872
21
-20.780273
31
0.0
0
LINE
8
MCD_Layer_15
10
83.181641
20
-32.566162
30
0.0
11
89.547607
21
-20.174194
31
0.0
0
LINE
8
MCD_Layer_15
10
113.219482
20
-20.609985
30
0.0
11
114.548218
21
-19.973999
31
0.0
0
LINE
8
MCD_Layer_15
10
85.720093
20
-34.726196
30
0.0
11
104.547607
21
-5.293823
31
0.0
0
LINE
8
MCD_Layer_15
10
99.470093
20
-20.973755
30
0.0
11
99.587891
21
-20.973755
31
0.0
0
LINE
8
MCD_Layer_15
10
102.244141
20
-20.895630
30
0.0
11
99.431641
21
-20.505005
31
0.0
0
LINE
8
MCD_Layer_15
10
99.431641
20
-10.973755
30
0.0
11
80.863525
21
-30.935913
31
0.0
0
LINE
8
MCD_Layer_15
10
116.871216
20
-32.185303
30
0.0
11
95.823242
21
-10.935913
31
0.0
0
LINE
8
MCD_Layer_15
10
108.631470
20
-30.310303
30
0.0
11
99.747192
21
-30.935303
31
0.0
0
LINE
8
MCD_Layer_15
10
95.911133
20
-20.935913
30
0.0
11
99.431641
21
-20.817505
31
0.0
0
LINE
8
MCD_Layer_15
10
99.431641
20
-18.161255
30
0.0
11
99.509766
21
-20.973755
31
0.0
0
LINE
8
MCD_Layer_15
10
99.900391
20
-20.973755
30
0.0
11
90.056641
21
-20.658203
31
0.0
0
LINE
8
MCD_Layer_15
10
89.470093
20
-24.494263
30
0.0
11
110.719482
21
-23.269897
31
0.0
0
LINE
8
MCD_Layer_15
10
79.469482
20
-36.686035
30
0.0
11
103.219482
21
-29.701782
31
0.0
0
LINE
8
MCD_Layer_15
10
79.469482
20
-13.933960
30
0.0
11
99.469482
21
-20.973755
31
0.0
0
LINE
8
MCD_Layer_15
10
99.587891
20
-20.973755
30
0.0
11
99.900391
21
-20.895630
31
0.0
0
LINE
8
MCD_Layer_15
10
99.431641
20
-20.661255
30
0.0
11
99.431641
21
-17.223755
31
0.0
0
LINE
8
MCD_Layer_15
10
90.703613
20
-40.935913
30
0.0
11
106.471436
21
-2.185913
31
0.0
0
LINE
8
MCD_Layer_15
10
98.863403
20
-40.935913
30
0.0
11
84.391357
21
-20.936523
31
0.0
0
LINE
8
MCD_Layer_15
10
99.431641
20
-20.817505
30
0.0
11
99.431641
21
-20.505005
31
0.0
0
LINE
8
MCD_Layer_15
10
99.509766
20
-20.973755
30
0.0
11
99.744141
21
-20.973755
31
0.0
0
LINE
8
MCD_Layer_15
10
118.181641
20
-21.541992
30
0.0
11
79.469482
21
-36.014038
31
0.0
0
LINE
8
MCD_Layer_15
10
105.718872
20
-30.741821
30
0.0
11
99.469482
21
-7.693726
31
0.0
0
LINE
8
MCD_Layer_15
10
99.546997
20
-20.973755
30
0.0
11
99.587891
21
-20.973755
31
0.0
0
LINE
8
MCD_Layer_15
10
99.900391
20
-20.895630
30
0.0
11
99.431641
21
-20.661255
31
0.0
0
LINE
8
MCD_Layer_15
10
99.431641
20
-14.723755
30
0.0
11
89.663574
21
-20.935913
31
0.0
0
LINE
8
MCD_Layer_15
10
112.711670
20
-2.108398
30
0.0
11
79.983398
21
-20.935913
31
0.0
0
LINE
8
MCD_Layer_15
10
114.631836
20
-20.936523
30
0.0
11
99.431641
21
-20.817505
31
0.0
0
LINE
8
MCD_Layer_15
10
99.431641
20
-20.505005
30
0.0
11
99.509766
21
-20.973755
31
0.0
0
LINE
8
MCD_Layer_15
10
99.744141
20
-20.973755
30
0.0
11
89.431641
21
-23.246094
31
0.0
0
LINE
8
MCD_Layer_15
10
89.468872
20
-12.334229
30
0.0
11
99.469482
21
-20.557495
31
0.0
0
LINE
8
MCD_Layer_15
10
79.468872
20
-40.494019
30
0.0
11
99.469482
21
-20.973755
31
0.0
0
LINE
8
MCD_Layer_15
10
99.587891
20
-20.973755
30
0.0
11
99.900391
21
-20.895630
31
0.0
0
LINE
8
MCD_Layer_15
10
99.431641
20
-20.661255
30
0.0
11
99.431641
21
-20.973755
31
0.0
0
LINE
8
MCD_Layer_15
10
99.847900
20
-40.936523
30
0.0
11
79.911377
21
-18.435913
31
0.0
0
LINE
8
MCD_Layer_15
10
102.935669
20
-30.935913
30
0.0
11
90.311157
21
-20.935913
31
0.0
0
LINE
8
MCD_Layer_15
10
99.431641
20
-20.817505
30
0.0
11
99.431641
21
-20.505005
31
0.0
0
LINE
8
MCD_Layer_15
10
99.509766
20
-20.973755
30
0.0
11
99.744141
21
-20.973755
31
0.0
0
LINE
8
MCD_Layer_15
10
101.931641
20
-17.469727
30
0.0
11
89.469482
21
-30.094238
31
0.0
0
LINE
8
MCD_Layer_15
10
84.469482
20
-1.310059
30
0.0
11
109.469482
21
-37.293945
31
0.0
0
LINE
8
MCD_Layer_15
10
99.469482
20
-20.973755
30
0.0
11
99.587891
21
-20.973755
31
0.0
0
LINE
8
MCD_Layer_15
10
102.244141
20
-20.895630
30
0.0
11
99.431641
21
-20.505005
31
0.0
0
LINE
8
MCD_Layer_15
10
99.431641
20
-35.973755
30
0.0
11
119.095337
21
-10.935913
31
0.0
0
LINE
8
MCD_Layer_15
10
83.111450
20
-38.435913
30
0.0
11
80.663330
21
-5.935913
31
0.0
0
LINE
8
MCD_Layer_15
10
85.951416
20
-22.185913
30
0.0
11
81.663086
21
-40.935913
31
0.0
0
LINE
8
MCD_Layer_15
10
88.951294
20
-20.935913
30
0.0
11
99.431641
21
-20.817505
31
0.0
0
LINE
8
MCD_Layer_15
10
99.431641
20
-18.161255
30
0.0
11
99.509766
21
-20.973755
31
0.0
0
LINE
8
MCD_Layer_15
10
99.900391
20
-20.973755
30
0.0
11
98.181641
21
-38.742310
31
0.0
0
LINE
8
MCD_Layer_15
10
79.469482
20
-31.454102
30
0.0
11
110.719482
21
-37.301880
31
0.0
0
LINE
8
MCD_Layer_15
10
99.469482
20
-20.893799
30
0.0
11
80.720093
21
-38.102051
31
0.0
0
LINE
8
MCD_Layer_15
10
79.469482
20
-16.454102
30
0.0
11
99.470093
21
-20.973755
31
0.0
0
LINE
8
MCD_Layer_15
10
99.587891
20
-20.973755
30
0.0
11
102.244141
21
-20.895630
31
0.0
0
LINE
8
MCD_Layer_15
10
99.431641
20
-20.505005
30
0.0
11
99.431641
21
-35.973755
31
0.0
0
LINE
8
MCD_Layer_15
10
81.199219
20
-40.857788
30
0.0
11
103.951294
21
-7.185303
31
0.0
0
LINE
8
MCD_Layer_15
10
81.999390
20
-20.857788
30
0.0
11
99.511597
21
-15.935303
31
0.0
0
LINE
8
MCD_Layer_15
10
80.639526
20
-40.857788
30
0.0
11
88.951294
21
-20.935913
31
0.0
0
LINE
8
MCD_Layer_15
10
99.431641
20
-20.817505
30
0.0
11
99.431641
21
-18.161255
31
0.0
0
LINE
8
MCD_Layer_15
10
99.509766
20
-20.973755
30
0.0
11
99.900391
21
-20.973755
31
0.0
0
LINE
8
MCD_Layer_15
10
109.431641
20
-3.293701
30
0.0
11
102.046997
21
-40.757080
31
0.0
0
LINE
8
MCD_Layer_15
10
116.970093
20
-8.634277
30
0.0
11
114.547607
21
-2.134644
31
0.0
0
LINE
8
MCD_Layer_15
10
85.720093
20
-34.726196
30
0.0
11
104.547607
21
-5.293823
31
0.0
0
LINE
8
MCD_Layer_15
10
99.470093
20
-20.973755
30
0.0
11
99.587891
21
-20.973755
31
0.0
0
LINE
8
MCD_Layer_15
10
102.244141
20
-20.895630
30
0.0
11
99.431641
21
-20.505005
31
0.0
0
LINE
8
MCD_Layer_15
10
99.431641
20
-10.973755
30
0.0
11
80.863525
21
-30.935913
31
0.0
0
LINE
8
MCD_Layer_15
10
116.871216
20
-38.435303
30
0.0
11
106.318848
21
-10.935913
31
0.0
0
LINE
8
MCD_Layer_15
10
118.838379
20
-20.935303
30
0.0
11
117.718994
21
-13.436523
31
0.0
0
LINE
8
MCD_Layer_15
10
79.655029
20
-20.935303
30
0.0
11
99.431641
21
-20.817505
31
0.0
0
LINE
8
MCD_Layer_15
10
99.431641
20
-20.505005
30
0.0
11
99.509766
21
-20.973755
31
0.0
0
LINE
8
MCD_Layer_15
10
99.744141
20
-20.973755
30
0.0
11
99.431641
21
-2.686401
31
0.0
0
LINE
8
MCD_Layer_15
10
109.468872
20
-7.361084
30
0.0
11
99.470093
21
-2.686401
31
0.0
0
LINE
8
MCD_Layer_15
10
106.968872
20
-40.750366
30
0.0
11
99.470093
21
-20.973755
31
0.0
0
LINE
8
MCD_Layer_15
10
99.587891
20
-20.973755
30
0.0
11
102.244141
21
-20.895630
31
0.0
0
LINE
8
MCD_Layer_15
10
99.431641
20
-20.505005
30
0.0
11
99.431641
21
-39.723755
31
0.0
0
LINE
8
MCD_Layer_15
10
82.303345
20
-40.935913
30
0.0
11
103.951294
21
-10.935303
31
0.0
0
LINE
8
MCD_Layer_15
10
112.604248
20
-25.935913
30
0.0
11
109.868652
21
-20.935303
31
0.0
0
LINE
8
MCD_Layer_15
10
117.718994
20
-10.936523
30
0.0
11
113.044312
21
-20.935303
31
0.0
0
LINE
8
MCD_Layer_15
10
99.431641
20
-20.817505
30
0.0
11
99.431641
21
-20.505005
31
0.0
0
LINE
8
MCD_Layer_15
10
99.509766
20
-20.973755
30
0.0
11
99.744141
21
-20.973755
31
0.0
0
LINE
8
MCD_Layer_15
10
109.431641
20
-3.293701
30
0.0
11
109.546997
21
-7.412964
31
0.0
0
LINE
8
MCD_Layer_15
10
109.470093
20
-3.293701
30
0.0
11
102.046997
21
-40.757080
31
0.0
0
LINE
8
MCD_Layer_15
10
99.470093
20
-20.973755
30
0.0
11
99.587891
21
-20.973755
31
0.0
0
LINE
8
MCD_Layer_15
10
102.244141
20
-20.895630
30
0.0
11
99.431641
21
-20.505005
31
0.0
0
LINE
8
MCD_Layer_15
10
99.431641
20
-10.973755
30
0.0
11
117.111694
21
-10.858398
31
0.0
0
LINE
8
MCD_Layer_15
10
112.992432
20
-40.935303
30
0.0
11
111.404907
21
-5.857788
31
0.0
0
LINE
8
MCD_Layer_15
10
109.767944
20
-37.185303
30
0.0
11
81.199219
21
-40.857788
31
0.0
0
LINE
8
MCD_Layer_15
10
103.951294
20
-20.935303
30
0.0
11
99.431641
21
-20.817505
31
0.0
0
LINE
8
MCD_Layer_15
10
99.431641
20
-18.161255
30
0.0
11
99.509766
21
-20.973755
31
0.0
0
LINE
8
MCD_Layer_15
10
99.900391
20
-20.973755
30
0.0
11
104.431641
21
-39.765869
31
0.0
0
LINE
8
MCD_Layer_15
10
79.547607
20
-31.454102
30
0.0
11
99.469482
21
-10.450684
31
0.0
0
LINE
8
MCD_Layer_15
10
89.547607
20
-3.064209
30
0.0
11
109.469482
21
-3.293701
31
0.0
0
LINE
8
MCD_Layer_15
10
99.546997
20
-15.004517
30
0.0
11
99.469482
21
-20.973755
31
0.0
0
LINE
8
MCD_Layer_15
10
99.587891
20
-20.973755
30
0.0
11
102.244141
21
-20.895630
31
0.0
0
LINE
8
MCD_Layer_15
10
99.431641
20
-20.505005
30
0.0
11
99.431641
21
-37.223755
31
0.0
0
LINE
8
MCD_Layer_15
10
87.839233
20
-30.857788
30
0.0
11
100.231201
21
-33.435913
31
0.0
0
LINE
8
MCD_Layer_15
10
114.410889
20
-20.857788
30
0.0
11
101.317627
21
-20.936523
31
0.0
0
LINE
8
MCD_Layer_15
10
117.111694
20
-20.858398
30
0.0
11
114.250977
21
-20.859009
31
0.0
0
LINE
8
MCD_Layer_15
10
99.431641
20
-20.817505
30
0.0
11
99.431641
21
-20.505005
31
0.0
0
LINE
8
MCD_Layer_15
10
99.509766
20
-20.973755
30
0.0
11
99.744141
21
-20.973755
31
0.0
0
LINE
8
MCD_Layer_15
10
109.431641
20
-3.293701
30
0.0
11
99.546997
21
-6.154419
31
0.0
0
LINE
8
MCD_Layer_15
10
109.546387
20
-3.293701
30
0.0
11
99.546997
21
-15.004517
31
0.0
0
LINE
8
MCD_Layer_15
10
99.469482
20
-20.973755
30
0.0
11
99.587891
21
-20.973755
31
0.0
0
LINE
8
MCD_Layer_15
10
102.244141
20
-20.895630
30
0.0
11
99.431641
21
-20.505005
31
0.0
0
LINE
8
MCD_Layer_15
10
99.431641
20
-20.973755
30
0.0
11
117.718994
21
-20.936523
31
0.0
0
LINE
8
MCD_Layer_15
10
80.175049
20
-40.859009
30
0.0
11
105.485718
21
-20.935913
31
0.0
0
LINE
8
MCD_Layer_15
10
95.291016
20
-2.187744
30
0.0
11
79.983398
21
-20.935913
31
0.0
0
LINE
8
MCD_Layer_15
10
114.631836
20
-20.936523
30
0.0
11
99.431641
21
-20.817505
31
0.0
0
LINE
8
MCD_Layer_15
10
99.431641
20
-20.505005
30
0.0
11
99.509766
21
-20.973755
31
0.0
0
LINE
8
MCD_Layer_15
10
99.744141
20
-20.973755
30
0.0
11
99.431641
21
-2.686401
31
0.0
0
LINE
8
MCD_Layer_15
10
79.468872
20
-15.432373
30
0.0
11
99.469482
21
-2.686401
31
0.0
0
LINE
8
MCD_Layer_15
10
99.468872
20
-40.230347
30
0.0
11
99.546387
21
-20.973755
31
0.0
0
LINE
8
MCD_Layer_15
10
99.587891
20
-20.973755
30
0.0
11
102.244141
21
-20.895630
31
0.0
0
LINE
8
MCD_Layer_15
10
99.431641
20
-20.505005
30
0.0
11
99.431641
21
-20.973755
31
0.0
0
LINE
8
MCD_Layer_15
10
117.718994
20
-40.936523
30
0.0
11
104.973022
21
-35.935913
31
0.0
0
LINE
8
MCD_Layer_15
10
88.046143
20
-30.936523
30
0.0
11
106.253540
21
-30.935913
31
0.0
0
LINE
8
MCD_Layer_15
10
97.159302
20
-30.936523
30
0.0
11
108.071167
21
-20.935913
31
0.0
0
LINE
8
MCD_Layer_15
10
99.431641
20
-20.817505
30
0.0
11
99.431641
21
-20.505005
31
0.0
0
LINE
8
MCD_Layer_16
10
158.845337
20
-27.036377
30
0.0
11
140.211304
21
-20.956055
31
0.0
0
LINE
8
MCD_Layer_16
10
158.845337
20
-27.036377
30
0.0
11
130.211304
21
-40.936523
31
0.0
0
LINE
8
MCD_Layer_16
10
140.133789
20
-20.956055
30
0.0
11
140.251587
21
-20.956055
31
0.0
0
LINE
8
MCD_Layer_16
10
140.564087
20
-20.877930
30
0.0
11
140.095337
21
-20.643555
31
0.0
0
LINE
8
MCD_Layer_16
10
140.095337
20
-2.206055
30
0.0
11
134.015015
21
-30.840088
31
0.0
0
LINE
8
MCD_Layer_16
10
120.114868
20
-25.917603
30
0.0
11
138.494995
21
-30.918823
31
0.0
0
LINE
8
MCD_Layer_16
10
120.114868
20
-20.917603
30
0.0
11
140.095337
21
-20.799805
31
0.0
0
LINE
8
MCD_Layer_16
10
140.095337
20
-18.143555
30
0.0
11
140.173462
21
-20.956055
31
0.0
0
LINE
8
MCD_Layer_16
10
140.564087
20
-20.956055
30
0.0
11
135.095337
21
-22.556396
31
0.0
0
LINE
8
MCD_Layer_16
10
130.132568
20
-40.936523
30
0.0
11
152.633789
21
-5.116211
31
0.0
0
LINE
8
MCD_Layer_16
10
145.133179
20
-1.916138
30
0.0
11
133.883789
21
-35.596558
31
0.0
0
LINE
8
MCD_Layer_16
10
135.133179
20
-4.996582
30
0.0
11
140.133789
21
-20.956055
31
0.0
0
LINE
8
MCD_Layer_16
10
140.251587
20
-20.956055
30
0.0
11
142.907837
21
-20.877930
31
0.0
0
LINE
8
MCD_Layer_16
10
140.095337
20
-20.487305
30
0.0
11
140.095337
21
-27.206055
31
0.0
0
LINE
8
MCD_Layer_16
10
125.454834
20
-25.918213
30
0.0
11
156.054810
21
-7.167603
31
0.0
0
LINE
8
MCD_Layer_16
10
129.375122
20
-5.918213
30
0.0
11
149.975098
21
-2.167603
31
0.0
0
LINE
8
MCD_Layer_16
10
125.055054
20
-20.918213
30
0.0
11
143.975342
21
-20.917603
31
0.0
0
LINE
8
MCD_Layer_16
10
140.095337
20
-20.799805
30
0.0
11
140.095337
21
-18.143555
31
0.0
0
LINE
8
MCD_Layer_16
10
140.173462
20
-20.956055
30
0.0
11
140.564087
21
-20.956055
31
0.0
0
LINE
8
MCD_Layer_16
10
158.845337
20
-35.996338
30
0.0
11
140.133179
21
-17.076050
31
0.0
0
LINE
8
MCD_Layer_16
10
127.633789
20
-2.172485
30
0.0
11
155.133179
21
-19.472290
31
0.0
0
LINE
8
MCD_Layer_16
10
122.633789
20
-15.996338
30
0.0
11
150.133179
21
-20.716187
31
0.0
0
LINE
8
MCD_Layer_16
10
140.133789
20
-20.956055
30
0.0
11
140.251587
21
-20.956055
31
0.0
0
LINE
8
MCD_Layer_16
10
142.907837
20
-20.877930
30
0.0
11
140.095337
21
-20.487305
31
0.0
0
LINE
8
MCD_Layer_16
10
140.095337
20
-38.456055
30
0.0
11
145.055054
21
-10.918213
31
0.0
0
LINE
8
MCD_Layer_16
10
140.335205
20
-29.667603
30
0.0
11
121.646851
21
-30.918213
31
0.0
0
LINE
8
MCD_Layer_16
10
135.902832
20
-17.168213
30
0.0
11
125.775269
21
-30.918213
31
0.0
0
LINE
8
MCD_Layer_16
10
126.574829
20
-20.918213
30
0.0
11
140.095337
21
-20.799805
31
0.0
0
LINE
8
MCD_Layer_16
10
140.095337
20
-18.143555
30
0.0
11
140.173462
21
-20.956055
31
0.0
0
LINE
8
MCD_Layer_16
10
140.564087
20
-20.956055
30
0.0
11
143.845337
21
-35.276123
31
0.0
0
LINE
8
MCD_Layer_16
10
130.133179
20
-34.476562
30
0.0
11
136.383179
21
-32.756592
31
0.0
0
LINE
8
MCD_Layer_16
10
120.133179
20
-15.468384
30
0.0
11
121.383179
21
-27.036377
31
0.0
0
LINE
8
MCD_Layer_16
10
140.133179
20
-20.956055
30
0.0
11
140.095337
21
-20.956055
31
0.0
0
LINE
8
MCD_Layer_16
10
140.251587
20
-20.956055
30
0.0
11
140.564087
21
-20.877930
31
0.0
0
LINE
8
MCD_Layer_16
10
140.095337
20
-20.643555
30
0.0
11
140.095337
21
-39.706055
31
0.0
0
LINE
8
MCD_Layer_16
10
134.015015
20
-20.918213
30
0.0
11
140.095337
21
-30.956055
31
0.0
0
LINE
8
MCD_Layer_16
10
149.694946
20
-20.918213
30
0.0
11
140.095337
21
-20.956055
31
0.0
0
LINE
8
MCD_Layer_16
10
140.095337
20
-20.799805
30
0.0
11
140.095337
21
-18.143555
31
0.0
0
LINE
8
MCD_Layer_16
10
140.173462
20
-20.956055
30
0.0
11
140.564087
21
-20.956055
31
0.0
0
LINE
8
MCD_Layer_16
10
130.095337
20
-11.356445
30
0.0
11
140.133179
21
-20.956055
31
0.0
0
LINE
8
MCD_Layer_16
10
125.095337
20
-18.604370
30
0.0
11
140.133179
21
-17.292114
31
0.0
0
LINE
8
MCD_Layer_16
10
150.133179
20
-23.196045
30
0.0
11
130.132568
21
-36.876465
31
0.0
0
LINE
8
MCD_Layer_16
10
140.133179
20
-20.956055
30
0.0
11
140.251587
21
-20.956055
31
0.0
0
LINE
8
MCD_Layer_16
10
142.907837
20
-20.877930
30
0.0
11
140.095337
21
-20.487305
31
0.0
0
LINE
8
MCD_Layer_16
10
140.095337
20
-10.956055
30
0.0
11
137.855347
21
-30.918823
31
0.0
0
LINE
8
MCD_Layer_16
10
124.174927
20
-20.918213
30
0.0
11
123.135498
21
-25.918823
31
0.0
0
LINE
8
MCD_Layer_16
10
131.278809
20
-40.918213
30
0.0
11
128.254517
21
-40.841309
31
0.0
0
LINE
8
MCD_Layer_16
10
134.015015
20
-20.918213
30
0.0
11
140.095337
21
-20.799805
31
0.0
0
LINE
8
MCD_Layer_16
10
140.095337
20
-20.487305
30
0.0
11
140.173462
21
-20.956055
31
0.0
0
LINE
8
MCD_Layer_16
10
140.407837
20
-20.956055
30
0.0
11
122.595337
21
-7.996460
31
0.0
0
LINE
8
MCD_Layer_16
10
140.211304
20
-20.956055
30
0.0
11
158.845337
21
-27.036377
31
0.0
0
LINE
8
MCD_Layer_16
10
140.211304
20
-20.956055
30
0.0
11
140.095337
21
-20.956055
31
0.0
0
LINE
8
MCD_Layer_16
10
140.251587
20
-20.956055
30
0.0
11
142.907837
21
-20.877930
31
0.0
0
LINE
8
MCD_Layer_16
10
140.095337
20
-20.487305
30
0.0
11
140.095337
21
-30.956055
31
0.0
0
LINE
8
MCD_Layer_16
10
148.255127
20
-40.918823
30
0.0
11
144.015015
21
-10.917603
31
0.0
0
LINE
8
MCD_Layer_16
10
125.695312
20
-30.918823
30
0.0
11
144.254883
21
-5.917603
31
0.0
0
LINE
8
MCD_Layer_16
10
139.135254
20
-15.918823
30
0.0
11
145.255249
21
-20.917603
31
0.0
0
LINE
8
MCD_Layer_16
10
140.095337
20
-20.799805
30
0.0
11
140.095337
21
-18.143555
31
0.0
0
LINE
8
MCD_Layer_16
10
140.173462
20
-20.956055
30
0.0
11
140.564087
21
-20.956055
31
0.0
0
LINE
8
MCD_Layer_16
10
155.095337
20
-21.916138
30
0.0
11
145.132568
21
-15.796143
31
0.0
0
LINE
8
MCD_Layer_16
10
130.133789
20
-15.836426
30
0.0
11
125.133179
21
-13.076416
31
0.0
0
LINE
8
MCD_Layer_16
10
122.633789
20
-18.236328
30
0.0
11
150.133179
21
-10.116211
31
0.0
0
LINE
8
MCD_Layer_16
10
140.133789
20
-20.956055
30
0.0
11
140.251587
21
-20.956055
31
0.0
0
LINE
8
MCD_Layer_16
10
142.907837
20
-20.877930
30
0.0
11
140.095337
21
-20.487305
31
0.0
0
LINE
8
MCD_Layer_16
10
140.095337
20
-38.456055
30
0.0
11
142.815063
21
-10.918213
31
0.0
0
LINE
8
MCD_Layer_16
10
150.935181
20
-30.917603
30
0.0
11
129.535034
21
-30.918823
31
0.0
0
LINE
8
MCD_Layer_16
10
152.614868
20
-40.917603
30
0.0
11
141.215332
21
-10.918823
31
0.0
0
LINE
8
MCD_Layer_16
10
153.175171
20
-20.917603
30
0.0
11
140.095337
21
-20.799805
31
0.0
0
LINE
8
MCD_Layer_16
10
140.095337
20
-20.487305
30
0.0
11
140.173462
21
-20.956055
31
0.0
0
LINE
8
MCD_Layer_16
10
140.407837
20
-20.956055
30
0.0
11
120.095337
21
-19.836060
31
0.0
0
LINE
8
MCD_Layer_16
10
150.132568
20
-7.876221
30
0.0
11
122.633789
21
-7.996460
31
0.0
0
LINE
8
MCD_Layer_16
10
150.211304
20
-7.876221
30
0.0
11
140.133789
21
-20.956055
31
0.0
0
LINE
8
MCD_Layer_16
10
140.251587
20
-20.956055
30
0.0
11
140.564087
21
-20.877930
31
0.0
0
LINE
8
MCD_Layer_16
10
140.095337
20
-20.643555
30
0.0
11
140.095337
21
-38.456055
31
0.0
0
LINE
8
MCD_Layer_16
10
153.054932
20
-20.840088
30
0.0
11
140.095337
21
-38.456055
31
0.0
0
LINE
8
MCD_Layer_16
10
153.054932
20
-10.840088
30
0.0
11
153.175171
21
-20.917603
31
0.0
0
LINE
8
MCD_Layer_16
10
140.095337
20
-20.799805
30
0.0
11
140.095337
21
-20.487305
31
0.0
0
LINE
8
MCD_Layer_16
10
140.173462
20
-20.956055
30
0.0
11
140.407837
21
-20.956055
31
0.0
0
LINE
8
MCD_Layer_16
10
150.095337
20
-2.821289
30
0.0
11
120.210693
21
-27.036377
31
0.0
0
LINE
8
MCD_Layer_16
10
120.133179
20
-32.796875
30
0.0
11
120.210083
21
-27.036377
31
0.0
0
LINE
8
MCD_Layer_16
10
140.133179
20
-20.956055
30
0.0
11
140.251587
21
-20.956055
31
0.0
0
LINE
8
MCD_Layer_16
10
140.564087
20
-20.877930
30
0.0
11
140.095337
21
-20.643555
31
0.0
0
LINE
8
MCD_Layer_16
10
140.095337
20
-10.956055
30
0.0
11
158.230103
21
-40.840698
31
0.0
0
LINE
8
MCD_Layer_16
10
144.015015
20
-10.917603
30
0.0
11
158.230103
21
-40.840698
31
0.0
0
LINE
8
MCD_Layer_16
10
134.015015
20
-20.918213
30
0.0
11
140.095337
21
-20.799805
31
0.0
0
LINE
8
MCD_Layer_16
10
140.095337
20
-20.487305
30
0.0
11
140.173462
21
-20.956055
31
0.0
0
LINE
8
MCD_Layer_16
10
140.407837
20
-20.956055
30
0.0
11
150.095337
21
-2.821289
31
0.0
0
LINE
8
MCD_Layer_16
10
120.210693
20
-17.036377
30
0.0
11
130.133789
21
-12.796265
31
0.0
0
LINE
8
MCD_Layer_16
10
120.132568
20
-17.036377
30
0.0
11
140.133789
21
-20.956055
31
0.0
0
LINE
8
MCD_Layer_17
10
167.306885
20
-27.976929
30
0.0
11
184.922852
21
-36.376587
31
0.0
0
LINE
8
MCD_Layer_17
10
184.844727
20
-1.896606
30
0.0
11
184.922852
21
-36.376587
31
0.0
0
LINE
8
MCD_Layer_17
10
179.844727
20
-20.936523
30
0.0
11
179.963135
21
-20.936523
31
0.0
0
LINE
8
MCD_Layer_17
10
182.619385
20
-20.858398
30
0.0
11
179.806885
21
-20.467773
31
0.0
0
LINE
8
MCD_Layer_17
10
179.806885
20
-15.936523
30
0.0
11
198.846802
21
-15.820557
31
0.0
0
LINE
8
MCD_Layer_17
10
164.366821
20
-35.898682
30
0.0
11
195.006470
21
-15.820557
31
0.0
0
LINE
8
MCD_Layer_17
10
195.486816
20
-5.898682
30
0.0
11
186.846680
21
-35.820557
31
0.0
0
LINE
8
MCD_Layer_17
10
187.166504
20
-20.898682
30
0.0
11
179.806885
21
-20.780273
31
0.0
0
LINE
8
MCD_Layer_17
10
179.806885
20
-18.124023
30
0.0
11
179.885010
21
-20.936523
31
0.0
0
LINE
8
MCD_Layer_17
10
180.275635
20
-20.936523
30
0.0
11
194.806885
21
-13.896729
31
0.0
0
LINE
8
MCD_Layer_17
10
164.922852
20
-13.576904
30
0.0
11
179.844727
21
-5.096680
31
0.0
0
LINE
8
MCD_Layer_17
10
179.921631
20
-19.816528
30
0.0
11
184.844727
21
-15.176636
31
0.0
0
LINE
8
MCD_Layer_17
10
189.844727
20
-14.056641
30
0.0
11
179.844727
21
-20.936523
31
0.0
0
LINE
8
MCD_Layer_17
10
179.963135
20
-20.936523
30
0.0
11
182.619385
21
-20.858398
31
0.0
0
LINE
8
MCD_Layer_17
10
179.806885
20
-20.467773
30
0.0
11
179.806885
21
-15.936523
31
0.0
0
LINE
8
MCD_Layer_17
10
185.566772
20
-10.898682
30
0.0
11
186.686768
21
-40.898682
31
0.0
0
LINE
8
MCD_Layer_17
10
193.726562
20
-3.398682
30
0.0
11
161.406616
21
-20.898682
31
0.0
0
LINE
8
MCD_Layer_17
10
182.046875
20
-33.398682
30
0.0
11
168.366455
21
-20.898682
31
0.0
0
LINE
8
MCD_Layer_17
10
179.806885
20
-20.780273
30
0.0
11
179.806885
21
-18.124023
31
0.0
0
LINE
8
MCD_Layer_17
10
179.885010
20
-20.936523
30
0.0
11
180.275635
21
-20.936523
31
0.0
0
LINE
8
MCD_Layer_17
10
179.806885
20
-18.696533
30
0.0
11
167.344727
21
-32.376953
31
0.0
0
LINE
8
MCD_Layer_17
10
179.844727
20
-27.656494
30
0.0
11
169.921631
21
-29.016968
31
0.0
0
LINE
8
MCD_Layer_17
10
174.844727
20
-17.737061
30
0.0
11
172.422852
21
-26.697021
31
0.0
0
LINE
8
MCD_Layer_17
10
179.844727
20
-20.936523
30
0.0
11
179.963135
21
-20.936523
31
0.0
0
LINE
8
MCD_Layer_17
10
182.619385
20
-20.858398
30
0.0
11
179.806885
21
-20.467773
31
0.0
0
LINE
8
MCD_Layer_17
10
179.806885
20
-25.936523
30
0.0
11
183.006348
21
-28.320557
31
0.0
0
LINE
8
MCD_Layer_17
10
174.046387
20
-18.398682
30
0.0
11
166.526855
21
-5.820557
31
0.0
0
LINE
8
MCD_Layer_17
10
182.446655
20
-15.898071
30
0.0
11
168.846802
21
-5.820557
31
0.0
0
LINE
8
MCD_Layer_17
10
192.446655
20
-20.898071
30
0.0
11
179.806885
21
-20.780273
31
0.0
0
LINE
8
MCD_Layer_17
10
179.806885
20
-18.124023
30
0.0
11
179.885010
21
-20.936523
31
0.0
0
LINE
8
MCD_Layer_17
10
180.275635
20
-20.936523
30
0.0
11
184.806885
21
-31.896606
31
0.0
0
LINE
8
MCD_Layer_17
10
194.922852
20
-8.296753
30
0.0
11
174.845337
21
-3.337036
31
0.0
0
LINE
8
MCD_Layer_17
10
163.672852
20
-1.936890
30
0.0
11
179.845337
21
-18.696533
31
0.0
0
LINE
8
MCD_Layer_17
10
182.422852
20
-40.596558
30
0.0
11
179.845337
21
-20.936523
31
0.0
0
LINE
8
MCD_Layer_17
10
179.963135
20
-20.936523
30
0.0
11
182.619385
21
-20.858398
31
0.0
0
LINE
8
MCD_Layer_17
10
179.806885
20
-20.467773
30
0.0
11
179.806885
21
-20.936523
31
0.0
0
LINE
8
MCD_Layer_17
10
182.046875
20
-18.320557
30
0.0
11
160.146851
21
-20.898071
31
0.0
0
LINE
8
MCD_Layer_17
10
179.806885
20
-16.561523
30
0.0
11
160.486816
21
-20.898071
31
0.0
0
LINE
8
MCD_Layer_17
10
184.286865
20
-40.273682
30
0.0
11
160.106567
21
-20.898071
31
0.0
0
LINE
8
MCD_Layer_17
10
179.806885
20
-20.780273
30
0.0
11
179.806885
21
-18.124023
31
0.0
0
LINE
8
MCD_Layer_17
10
179.885010
20
-20.936523
30
0.0
11
180.275635
21
-20.936523
31
0.0
0
LINE
8
MCD_Layer_17
10
179.806885
20
-16.456543
30
0.0
11
160.469727
21
-40.636841
31
0.0
0
LINE
8
MCD_Layer_17
10
189.845337
20
-2.856689
30
0.0
11
197.344727
21
-1.576782
31
0.0
0
LINE
8
MCD_Layer_17
10
167.345337
20
-35.736938
30
0.0
11
164.844727
21
-3.576904
31
0.0
0
LINE
8
MCD_Layer_17
10
179.845337
20
-20.936523
30
0.0
11
179.963135
21
-20.936523
31
0.0
0
LINE
8
MCD_Layer_17
10
182.619385
20
-20.858398
30
0.0
11
179.806885
21
-20.467773
31
0.0
0
LINE
8
MCD_Layer_17
10
179.806885
20
-33.436523
30
0.0
11
165.006470
21
-35.898682
31
0.0
0
LINE
8
MCD_Layer_17
10
197.166504
20
-25.898071
30
0.0
11
170.766357
21
-13.398682
31
0.0
0
LINE
8
MCD_Layer_17
10
192.806763
20
-13.398071
30
0.0
11
172.206787
21
-15.898682
31
0.0
0
LINE
8
MCD_Layer_17
10
187.726807
20
-20.898071
30
0.0
11
179.806885
21
-20.780273
31
0.0
0
LINE
8
MCD_Layer_17
10
179.806885
20
-20.467773
30
0.0
11
179.885010
21
-20.936523
31
0.0
0
LINE
8
MCD_Layer_17
10
180.119385
20
-20.936523
30
0.0
11
187.306885
21
-28.536621
31
0.0
0
LINE
8
MCD_Layer_17
10
184.844727
20
-13.016602
30
0.0
11
159.845337
21
-40.376831
31
0.0
0
LINE
8
MCD_Layer_17
10
184.844727
20
-13.016602
30
0.0
11
179.845337
21
-20.936523
31
0.0
0
LINE
8
MCD_Layer_17
10
179.963135
20
-20.936523
30
0.0
11
182.619385
21
-20.858398
31
0.0
0
LINE
8
MCD_Layer_17
10
179.806885
20
-20.467773
30
0.0
11
179.806885
21
-40.936523
31
0.0
0
LINE
8
MCD_Layer_17
10
160.366577
20
-15.898682
30
0.0
11
187.726807
21
-20.898071
31
0.0
0
LINE
8
MCD_Layer_17
10
197.566895
20
-22.148682
30
0.0
11
190.326294
21
-10.898071
31
0.0
0
LINE
8
MCD_Layer_17
10
186.686768
20
-4.648682
30
0.0
11
193.046631
21
-20.898071
31
0.0
0
LINE
8
MCD_Layer_17
10
179.806885
20
-20.780273
30
0.0
11
179.806885
21
-18.124023
31
0.0
0
LINE
8
MCD_Layer_17
10
179.885010
20
-20.936523
30
0.0
11
180.275635
21
-20.936523
31
0.0
0
LINE
8
MCD_Layer_17
10
189.806885
20
-14.056641
30
0.0
11
196.094727
21
-7.696777
31
0.0
0
LINE
8
MCD_Layer_17
10
179.845337
20
-35.336548
30
0.0
11
171.093506
21
-6.177002
31
0.0
0
LINE
8
MCD_Layer_17
10
169.845337
20
-25.736938
30
0.0
11
189.922241
21
-7.336670
31
0.0
0
LINE
8
MCD_Layer_17
10
179.845337
20
-20.936523
30
0.0
11
179.963135
21
-20.936523
31
0.0
0
LINE
8
MCD_Layer_17
10
182.619385
20
-20.858398
30
0.0
11
179.806885
21
-20.467773
31
0.0
0
LINE
8
MCD_Layer_17
10
179.806885
20
-30.936523
30
0.0
11
175.006470
21
-10.821167
31
0.0
0
LINE
8
MCD_Layer_17
10
193.406738
20
-25.898071
30
0.0
11
187.486328
21
-7.070557
31
0.0
0
LINE
8
MCD_Layer_17
10
189.086670
20
-10.898071
30
0.0
11
172.446655
21
-14.571167
31
0.0
0
LINE
8
MCD_Layer_17
10
184.966797
20
-20.898071
30
0.0
11
179.806885
21
-20.780273
31
0.0
0
LINE
8
MCD_Layer_17
10
179.806885
20
-18.124023
30
0.0
11
179.885010
21
-20.936523
31
0.0
0
LINE
8
MCD_Layer_17
10
180.275635
20
-20.936523
30
0.0
11
189.806885
21
-28.296753
31
0.0
0
LINE
8
MCD_Layer_17
10
186.172241
20
-15.776611
30
0.0
11
179.845337
21
-20.456787
31
0.0
0
LINE
8
MCD_Layer_17
10
161.093506
20
-17.016846
30
0.0
11
159.845337
21
-22.536865
31
0.0
0
LINE
8
MCD_Layer_17
10
184.844116
20
-18.016602
30
0.0
11
179.845337
21
-20.936523
31
0.0
0
LINE
8
MCD_Layer_17
10
179.963135
20
-20.936523
30
0.0
11
182.619385
21
-20.858398
31
0.0
0
LINE
8
MCD_Layer_17
10
179.806885
20
-20.467773
30
0.0
11
179.806885
21
-40.936523
31
0.0
0
LINE
8
MCD_Layer_17
10
178.206543
20
-15.899292
30
0.0
11
182.726807
21
-15.898071
31
0.0
0
LINE
8
MCD_Layer_17
10
196.606812
20
-3.398682
30
0.0
11
181.406616
21
-15.898071
31
0.0
0
LINE
8
MCD_Layer_17
10
165.486816
20
-23.398682
30
0.0
11
178.606323
21
-20.898682
31
0.0
0
LINE
8
MCD_Layer_17
10
179.806885
20
-20.780273
30
0.0
11
179.806885
21
-18.124023
31
0.0
0
LINE
8
MCD_Layer_17
10
179.885010
20
-20.936523
30
0.0
11
180.275635
21
-20.936523
31
0.0
0
LINE
8
MCD_Layer_17
10
184.806885
20
-35.256592
30
0.0
11
177.344727
21
-22.137085
31
0.0
0
LINE
8
MCD_Layer_17
10
192.344727
20
-29.496704
30
0.0
11
174.844727
21
-13.257080
31
0.0
0
LINE
8
MCD_Layer_17
10
164.844727
20
-11.336914
30
0.0
11
179.844727
21
-40.455566
31
0.0
0
LINE
8
MCD_Layer_17
10
179.921021
20
-20.936523
30
0.0
11
179.963135
21
-20.936523
31
0.0
0
LINE
8
MCD_Layer_17
10
182.619385
20
-20.858398
30
0.0
11
179.806885
21
-20.467773
31
0.0
0
LINE
8
MCD_Layer_17
10
179.806885
20
-35.936523
30
0.0
11
189.406494
21
-20.898682
31
0.0
0
LINE
8
MCD_Layer_17
10
160.287842
20
-20.822388
30
0.0
11
190.524658
21
-40.900513
31
0.0
0
LINE
8
MCD_Layer_17
10
180.286621
20
-25.821167
30
0.0
11
188.606323
21
-20.820557
31
0.0
0
LINE
8
MCD_Layer_17
10
160.287842
20
-20.822388
30
0.0
11
179.806885
21
-20.780273
31
0.0
0
LINE
8
MCD_Layer_17
10
179.806885
20
-18.124023
30
0.0
11
179.885010
21
-20.936523
31
0.0
0
LINE
8
MCD_Layer_17
10
180.275635
20
-20.936523
30
0.0
11
174.806885
21
-12.137085
31
0.0
0
LINE
8
MCD_Layer_17
10
179.922852
20
-40.455566
30
0.0
11
192.421021
21
-33.152710
31
0.0
0
LINE
8
MCD_Layer_17
10
169.922852
20
-24.681030
30
0.0
11
167.344116
21
-27.976929
31
0.0
0
LINE
8
MCD_Layer_17
10
184.922852
20
-36.376587
30
0.0
11
179.844727
21
-20.936523
31
0.0
0
LINE
8
MCD_Layer_18
10
229.807129
20
-26.256348
30
0.0
11
219.922485
21
-40.497681
31
0.0
0
LINE
8
MCD_Layer_18
10
229.842529
20
-26.256348
30
0.0
11
212.422485
21
-7.856689
31
0.0
0
LINE
8
MCD_Layer_18
10
219.845581
20
-20.976196
30
0.0
11
219.963379
21
-20.976196
31
0.0
0
LINE
8
MCD_Layer_18
10
220.275879
20
-20.898071
30
0.0
11
219.807129
21
-20.663696
31
0.0
0
LINE
8
MCD_Layer_18
10
219.807129
20
-10.976196
30
0.0
11
214.526978
21
-28.360840
31
0.0
0
LINE
8
MCD_Layer_18
10
232.926636
20
-10.937744
30
0.0
11
212.886963
21
-28.360229
31
0.0
0
LINE
8
MCD_Layer_18
10
232.926636
20
-20.937744
30
0.0
11
219.807129
21
-20.819946
31
0.0
0
LINE
8
MCD_Layer_18
10
219.807129
20
-20.507446
30
0.0
11
219.885254
21
-20.976196
31
0.0
0
LINE
8
MCD_Layer_18
10
220.119629
20
-20.976196
30
0.0
11
229.807129
21
-27.896362
31
0.0
0
LINE
8
MCD_Layer_18
10
212.423096
20
-7.856689
30
0.0
11
229.845581
21
-27.896362
31
0.0
0
LINE
8
MCD_Layer_18
10
201.173096
20
-40.936523
30
0.0
11
219.845581
21
-20.976196
31
0.0
0
LINE
8
MCD_Layer_18
10
219.963379
20
-20.976196
30
0.0
11
220.275879
21
-20.898071
31
0.0
0
LINE
8
MCD_Layer_18
10
219.807129
20
-20.663696
30
0.0
11
219.807129
21
-10.976196
31
0.0
0
LINE
8
MCD_Layer_18
10
212.886963
20
-39.610229
30
0.0
11
199.846802
21
-10.937744
31
0.0
0
LINE
8
MCD_Layer_18
10
212.886963
20
-39.688354
30
0.0
11
199.846802
21
-20.937744
31
0.0
0
LINE
8
MCD_Layer_18
10
219.807129
20
-20.819946
30
0.0
11
219.807129
21
-20.507446
31
0.0
0
LINE
8
MCD_Layer_18
10
219.885254
20
-20.976196
30
0.0
11
220.119629
21
-20.976196
31
0.0
0
LINE
8
MCD_Layer_18
10
229.807129
20
-27.896362
30
0.0
11
201.094971
21
-40.936523
31
0.0
0
LINE
8
MCD_Layer_18
10
229.845581
20
-27.896362
30
0.0
11
212.344971
21
-7.856689
31
0.0
0
LINE
8
MCD_Layer_18
10
219.845581
20
-20.976196
30
0.0
11
219.963379
21
-20.976196
31
0.0
0
LINE
8
MCD_Layer_18
10
220.275879
20
-20.898071
30
0.0
11
219.807129
21
-20.663696
31
0.0
0
LINE
8
MCD_Layer_18
10
219.807129
20
-10.976196
30
0.0
11
212.886963
21
-28.438354
31
0.0
0
LINE
8
MCD_Layer_18
10
232.926636
20
-10.937744
30
0.0
11
214.526978
21
-28.438965
31
0.0
0
LINE
8
MCD_Layer_18
10
232.926636
20
-20.937744
30
0.0
11
219.807129
21
-20.819946
31
0.0
0
LINE
8
MCD_Layer_18
10
219.807129
20
-20.507446
30
0.0
11
219.885254
21
-20.976196
31
0.0
0
LINE
8
MCD_Layer_18
10
220.119629
20
-20.976196
30
0.0
11
229.807129
21
-26.256348
31
0.0
0
LINE
8
MCD_Layer_18
10
212.344360
20
-7.856689
30
0.0
11
229.845581
21
-26.256348
31
0.0
0
LINE
8
MCD_Layer_18
10
219.844360
20
-40.497681
30
0.0
11
219.842529
21
-20.976196
31
0.0
0
LINE
8
MCD_Layer_18
10
219.963379
20
-20.976196
30
0.0
11
220.275879
21
-20.898071
31
0.0
0
LINE
8
MCD_Layer_18
10
219.807129
20
-20.663696
30
0.0
11
219.807129
21
-10.976196
31
0.0
0
LINE
8
MCD_Layer_18
10
214.526978
20
-20.938965
30
0.0
11
200.285645
21
-10.940796
31
0.0
0
LINE
8
MCD_Layer_18
10
214.526978
20
-20.860840
30
0.0
11
200.285645
21
-20.940796
31
0.0
0
LINE
8
MCD_Layer_18
10
219.807129
20
-20.819946
30
0.0
11
219.807129
21
-20.507446
31
0.0
0
LINE
8
MCD_Layer_19
10
263.886963
20
-27.896362
30
0.0
11
264.002930
21
-37.376343
31
0.0
0
LINE
8
MCD_Layer_19
10
263.924805
20
-27.896362
30
0.0
11
235.252930
21
-40.936523
31
0.0
0
LINE
8
MCD_Layer_19
10
253.925415
20
-20.976196
30
0.0
11
254.043213
21
-20.976196
31
0.0
0
LINE
8
MCD_Layer_19
10
254.355713
20
-20.898071
30
0.0
11
253.886963
21
-20.663696
31
0.0
0
LINE
8
MCD_Layer_19
10
253.886963
20
-10.976196
30
0.0
11
246.966797
21
-39.610229
31
0.0
0
LINE
8
MCD_Layer_19
10
233.926636
20
-15.937744
30
0.0
11
265.166870
21
-39.610229
31
0.0
0
LINE
8
MCD_Layer_19
10
233.926636
20
-20.937744
30
0.0
11
253.886963
21
-20.819946
31
0.0
0
LINE
8
MCD_Layer_19
10
253.886963
20
-20.507446
30
0.0
11
253.965088
21
-20.976196
31
0.0
0
LINE
8
MCD_Layer_19
10
254.199463
20
-20.976196
30
0.0
11
258.886963
21
-9.696289
31
0.0
0
LINE
8
MCD_Layer_19
10
235.252930
20
-40.936523
30
0.0
11
258.925415
21
-9.696289
31
0.0
0
LINE
8
MCD_Layer_19
10
239.002930
20
-34.736572
30
0.0
11
253.924805
21
-20.976196
31
0.0
0
LINE
8
MCD_Layer_19
10
254.043213
20
-20.976196
30
0.0
11
256.699463
21
-20.898071
31
0.0
0
LINE
8
MCD_Layer_19
10
253.886963
20
-20.507446
30
0.0
11
253.886963
21
-15.976196
31
0.0
0
LINE
8
MCD_Layer_19
10
265.166870
20
-35.860229
30
0.0
11
240.126587
21
-20.938354
31
0.0
0
LINE
8
MCD_Layer_19
10
252.287842
20
-35.940186
30
0.0
11
256.766602
21
-15.938354
31
0.0
0
LINE
8
MCD_Layer_19
10
265.166870
20
-35.938354
30
0.0
11
240.126587
21
-20.938354
31
0.0
0
LINE
8
MCD_Layer_19
10
253.886963
20
-20.819946
30
0.0
11
253.886963
21
-20.507446
31
0.0
0
LINE
8
MCD_Layer_19
10
253.965088
20
-20.976196
30
0.0
11
254.199463
21
-20.976196
31
0.0
0
LINE
8
MCD_Layer_19
10
258.886963
20
-9.696289
30
0.0
11
238.924805
21
-34.736572
31
0.0
0
LINE
8
MCD_Layer_19
10
258.924805
20
-9.696289
30
0.0
11
235.174805
21
-40.936523
31
0.0
0
LINE
8
MCD_Layer_19
10
253.925415
20
-20.976196
30
0.0
11
254.043213
21
-20.976196
31
0.0
0
LINE
8
MCD_Layer_19
10
254.355713
20
-20.898071
30
0.0
11
253.886963
21
-20.663696
31
0.0
0
LINE
8
MCD_Layer_19
10
253.886963
20
-15.976196
30
0.0
11
265.166870
21
-39.688354
31
0.0
0
LINE
8
MCD_Layer_19
10
233.926636
20
-10.937744
30
0.0
11
246.966797
21
-39.688354
31
0.0
0
LINE
8
MCD_Layer_19
10
233.926636
20
-20.937744
30
0.0
11
253.886963
21
-20.819946
31
0.0
0
LINE
8
MCD_Layer_19
10
253.886963
20
-20.507446
30
0.0
11
253.965088
21
-20.976196
31
0.0
0
LINE
8
MCD_Layer_19
10
254.199463
20
-20.976196
30
0.0
11
263.886963
21
-27.896362
31
0.0
0
LINE
8
MCD_Layer_19
10
235.174805
20
-40.936523
30
0.0
11
263.925415
21
-27.896362
31
0.0
0
LINE
8
MCD_Layer_19
10
256.424805
20
-36.496216
30
0.0
11
253.924805
21
-20.976196
31
0.0
0
LINE
8
MCD_Layer_19
10
254.043213
20
-20.976196
30
0.0
11
256.699463
21
-20.898071
31
0.0
0
LINE
8
MCD_Layer_19
10
253.886963
20
-20.507446
30
0.0
11
253.886963
21
-10.976196
31
0.0
0
LINE
8
MCD_Layer_19
10
246.966797
20
-18.438354
30
0.0
11
238.366943
21
-10.938354
31
0.0
0
LINE
8
MCD_Layer_19
10
242.262817
20
-10.938354
30
0.0
11
255.022827
21
-15.938354
31
0.0
0
LINE
8
MCD_Layer_19
10
265.166870
20
-20.938354
30
0.0
11
234.365479
21
-20.940796
31
0.0
0
LINE
8
MCD_Layer_19
10
253.886963
20
-20.819946
30
0.0
11
253.886963
21
-18.163696
31
0.0
0
LINE
8
MCD_Layer_19
10
253.965088
20
-20.976196
30
0.0
11
254.355713
21
-20.976196
31
0.0
0
LINE
8
MCD_Layer_19
10
258.886963
20
-9.696289
30
0.0
11
253.924805
21
-40.497681
31
0.0
0
LINE
8
MCD_Layer_19
10
253.922363
20
-30.253540
30
0.0
11
254.000488
21
-16.656128
31
0.0
0
LINE
8
MCD_Layer_19
10
244.002319
20
-3.536621
30
0.0
11
254.002930
21
-38.576294
31
0.0
0
LINE
8
MCD_Layer_19
10
253.923584
20
-20.976196
30
0.0
11
254.043213
21
-20.976196
31
0.0
0
LINE
8
MCD_Layer_19
10
256.699463
20
-20.898071
30
0.0
11
253.886963
21
-20.507446
31
0.0
0
LINE
8
MCD_Layer_19
10
253.886963
20
-30.976196
30
0.0
11
271.326538
21
-20.860229
31
0.0
0
LINE
8
MCD_Layer_19
10
236.286865
20
-15.939575
30
0.0
11
243.222900
21
-25.860229
31
0.0
0
LINE
8
MCD_Layer_19
10
255.742432
20
-10.938354
30
0.0
11
246.966797
21
-10.860229
31
0.0
0
LINE
8
MCD_Layer_19
10
237.486816
20
-20.938354
30
0.0
11
253.886963
21
-20.819946
31
0.0
0
LINE
8
MCD_Layer_20
10
302.286865
20
-22.736450
30
0.0
11
292.402222
21
-40.497681
31
0.0
0
LINE
8
MCD_Layer_20
10
297.322266
20
-23.576294
30
0.0
11
273.652832
21
-40.936523
31
0.0
0
LINE
8
MCD_Layer_20
10
292.325317
20
-20.976196
30
0.0
11
292.443115
21
-20.976196
31
0.0
0
LINE
8
MCD_Layer_20
10
292.755615
20
-20.898071
30
0.0
11
292.286865
21
-20.663696
31
0.0
0
LINE
8
MCD_Layer_20
10
292.286865
20
-15.976196
30
0.0
11
289.686768
21
-39.610229
31
0.0
0
LINE
8
MCD_Layer_20
10
272.326538
20
-18.437744
30
0.0
11
274.006836
21
-39.610229
31
0.0
0
LINE
8
MCD_Layer_20
10
272.326538
20
-20.937744
30
0.0
11
292.286865
21
-20.819946
31
0.0
0
LINE
8
MCD_Layer_20
10
292.286865
20
-20.507446
30
0.0
11
292.364990
21
-20.976196
31
0.0
0
LINE
8
MCD_Layer_20
10
292.599365
20
-20.976196
30
0.0
11
294.786865
21
-39.256226
31
0.0
0
LINE
8
MCD_Layer_20
10
273.652832
20
-40.936523
30
0.0
11
292.325317
21
-19.217163
31
0.0
0
LINE
8
MCD_Layer_20
10
292.401611
20
-38.736206
30
0.0
11
292.324707
21
-20.976196
31
0.0
0
LINE
8
MCD_Layer_20
10
292.443115
20
-20.976196
30
0.0
11
292.755615
21
-20.898071
31
0.0
0
LINE
8
MCD_Layer_20
10
292.286865
20
-20.663696
30
0.0
11
292.286865
21
-20.976196
31
0.0
0
LINE
8
MCD_Layer_20
10
294.045898
20
-20.861450
30
0.0
11
274.526855
21
-13.594604
31
0.0
0
LINE
8
MCD_Layer_20
10
273.046753
20
-39.688354
30
0.0
11
272.326538
21
-20.937744
31
0.0
0
LINE
8
MCD_Layer_20
10
292.286865
20
-20.819946
30
0.0
11
292.286865
21
-20.507446
31
0.0
0
LINE
8
MCD_Layer_20
10
292.364990
20
-20.976196
30
0.0
11
292.599365
21
-20.976196
31
0.0
0
LINE
8
MCD_Layer_20
10
299.630615
20
-40.216309
30
0.0
11
273.574707
21
-40.936523
31
0.0
0
LINE
8
MCD_Layer_20
10
299.669067
20
-23.576294
30
0.0
11
273.574707
21
-40.936523
31
0.0
0
LINE
8
MCD_Layer_20
10
292.325317
20
-20.976196
30
0.0
11
292.443115
21
-20.976196
31
0.0
0
LINE
8
MCD_Layer_20
10
292.755615
20
-20.898071
30
0.0
11
292.286865
21
-20.663696
31
0.0
0
LINE
8
MCD_Layer_20
10
292.286865
20
-13.632446
30
0.0
11
289.686768
21
-39.688354
31
0.0
0
LINE
8
MCD_Layer_20
10
272.326538
20
-1.562744
30
0.0
11
283.806641
21
-20.938965
31
0.0
0
LINE
8
MCD_Layer_20
10
272.765381
20
-20.940796
30
0.0
11
292.286865
21
-20.819946
31
0.0
0
LINE
8
MCD_Layer_20
10
292.286865
20
-20.507446
30
0.0
11
292.364990
21
-20.976196
31
0.0
0
LINE
8
MCD_Layer_20
10
292.599365
20
-20.976196
30
0.0
11
311.661865
21
-29.456421
31
0.0
0
LINE
8
MCD_Layer_20
10
292.324097
20
-40.497681
30
0.0
11
302.322266
21
-22.736450
31
0.0
0
LINE
8
MCD_Layer_20
10
292.402222
20
-40.497681
30
0.0
11
292.322266
21
-20.976196
31
0.0
0
LINE
8
MCD_Layer_21
10
336.997192
20
-31.416260
30
0.0
11
332.738159
21
-40.497681
31
0.0
0
LINE
8
MCD_Layer_21
10
338.282593
20
-14.436279
30
0.0
11
313.988770
21
-40.936523
31
0.0
0
LINE
8
MCD_Layer_21
10
332.660645
20
-20.976196
30
0.0
11
332.778442
21
-20.976196
31
0.0
0
LINE
8
MCD_Layer_21
10
333.090942
20
-20.898071
30
0.0
11
332.622192
21
-20.663696
31
0.0
0
LINE
8
MCD_Layer_21
10
332.622192
20
-15.351196
30
0.0
11
339.162109
21
-39.609619
31
0.0
0
LINE
8
MCD_Layer_21
10
312.661865
20
-5.937744
30
0.0
11
329.141968
21
-39.610229
31
0.0
0
LINE
8
MCD_Layer_21
10
312.661865
20
-20.937744
30
0.0
11
332.622192
21
-20.819946
31
0.0
0
LINE
8
MCD_Layer_21
10
332.622192
20
-20.507446
30
0.0
11
332.700317
21
-20.976196
31
0.0
0
LINE
8
MCD_Layer_21
10
332.934692
20
-20.976196
30
0.0
11
347.622192
21
-24.456421
31
0.0
0
LINE
8
MCD_Layer_21
10
313.988159
20
-40.936523
30
0.0
11
345.785645
21
-40.056396
31
0.0
0
LINE
8
MCD_Layer_21
10
317.738159
20
-34.736572
30
0.0
11
332.660034
21
-20.976196
31
0.0
0
LINE
8
MCD_Layer_21
10
332.778442
20
-20.976196
30
0.0
11
333.090942
21
-20.898071
31
0.0
0
LINE
8
MCD_Layer_21
10
332.622192
20
-20.663696
30
0.0
11
332.622192
21
-7.851196
31
0.0
0
LINE
8
MCD_Layer_21
10
313.541992
20
-35.860229
30
0.0
11
318.861816
21
-18.438354
31
0.0
0
LINE
8
MCD_Layer_21
10
323.822144
20
-39.610840
30
0.0
11
312.661865
21
-20.937744
31
0.0
0
LINE
8
MCD_Layer_21
10
332.622192
20
-20.819946
30
0.0
11
332.622192
21
-20.507446
31
0.0
0
LINE
8
MCD_Layer_21
10
332.700317
20
-20.976196
30
0.0
11
332.934692
21
-20.976196
31
0.0
0
LINE
8
MCD_Layer_21
10
335.122192
20
-29.776245
30
0.0
11
313.987549
21
-40.936523
31
0.0
0
LINE
8
MCD_Layer_21
10
335.160645
20
-29.776245
30
0.0
11
313.909424
21
-40.936523
31
0.0
0
LINE
8
MCD_Layer_21
10
332.660645
20
-20.976196
30
0.0
11
332.778442
21
-20.976196
31
0.0
0
LINE
8
MCD_Layer_21
10
333.090942
20
-20.898071
30
0.0
11
332.622192
21
-20.663696
31
0.0
0
LINE
8
MCD_Layer_21
10
332.622192
20
-18.476196
30
0.0
11
323.822144
21
-39.688965
31
0.0
0
LINE
8
MCD_Layer_21
10
312.661865
20
-10.937744
30
0.0
11
313.462036
21
-35.938354
31
0.0
0
LINE
8
MCD_Layer_21
10
318.861816
20
-20.938354
30
0.0
11
332.622192
21
-20.819946
31
0.0
0
LINE
8
MCD_Layer_21
10
332.622192
20
-20.507446
30
0.0
11
332.700317
21
-20.976196
31
0.0
0
LINE
8
MCD_Layer_21
10
332.934692
20
-20.976196
30
0.0
11
342.622192
21
-40.136353
31
0.0
0
LINE
8
MCD_Layer_21
10
317.660034
20
-34.736572
30
0.0
11
347.035034
21
-24.456421
31
0.0
0
LINE
8
MCD_Layer_21
10
313.910034
20
-40.936523
30
0.0
11
332.660645
21
-20.976196
31
0.0
0
LINE
8
MCD_Layer_21
10
332.778442
20
-20.976196
30
0.0
11
333.090942
21
-20.898071
31
0.0
0
LINE
8
MCD_Layer_21
10
332.622192
20
-20.663696
30
0.0
11
332.622192
21
-6.601196
31
0.0
0
LINE
8
MCD_Layer_21
10
329.141968
20
-39.688354
30
0.0
11
312.661865
21
-15.000244
31
0.0
0
LINE
8
MCD_Layer_21
10
339.162109
20
-39.687744
30
0.0
11
312.661865
21
-20.937744
31
0.0
0
LINE
8
MCD_Layer_21
10
332.622192
20
-20.819946
30
0.0
11
332.622192
21
-20.507446
31
0.0
0
LINE
8
MCD_Layer_21
10
332.700317
20
-20.976196
30
0.0
11
332.934692
21
-20.976196
31
0.0
0
LINE
8
MCD_Layer_21
10
338.559692
20
-14.436279
30
0.0
11
313.910645
21
-40.936523
31
0.0
0
LINE
8
MCD_Layer_21
10
337.035645
20
-31.416260
30
0.0
11
332.660034
21
-40.497681
31
0.0
0
LINE
8
MCD_Layer_21
10
332.657593
20
-20.976196
30
0.0
11
332.778442
21
-20.976196
31
0.0
0
LINE
8
MCD_Layer_21
10
333.090942
20
-20.898071
30
0.0
11
332.622192
21
-20.663696
31
0.0
0
LINE
8
MCD_Layer_21
10
332.622192
20
-16.601196
30
0.0
11
322.182129
21
-20.938354
31
0.0
0
LINE
8
MCD_Layer_21
10
313.100708
20
-5.940796
30
0.0
11
335.261963
21
-20.938354
31
0.0
0
LINE
8
MCD_Layer_21
10
313.100708
20
-20.940796
30
0.0
11
332.622192
21
-20.819946
31
0.0
0
LINE
8
MCD_Layer_21
10
332.622192
20
-20.507446
30
0.0
11
332.700317
21
-20.976196
31
0.0
0
LINE
8
MCD_Layer_21
10
332.934692
20
-20.976196
30
0.0
11
347.622192
21
-18.336426
31
0.0
0
LINE
8
MCD_Layer_21
10
332.660034
20
-40.497681
30
0.0
11
332.657593
21
-20.976196
31
0.0
0
LINE
8
MCD_Layer_21
10
325.122192
20
-17.856689
30
0.0
11
332.660645
21
-20.976196
31
0.0
0
LINE
8
MCD_Layer_21
10
332.778442
20
-20.976196
30
0.0
11
333.090942
21
-20.898071
31
0.0
0
LINE
8
MCD_Layer_21
10
332.622192
20
-20.663696
30
0.0
11
332.622192
21
-20.976196
31
0.0
0
LINE
8
MCD_Layer_21
10
332.622192
20
-28.476196
30
0.0
11
335.741699
21
-5.937744
31
0.0
0
LINE
8
MCD_Layer_21
10
335.261963
20
-20.860229
30
0.0
11
313.100708
21
-20.940796
31
0.0
0
LINE
8
MCD_Layer_21
10
332.622192
20
-20.819946
30
0.0
11
332.622192
21
-20.507446
31
0.0
0
LINE
8
MCD_Layer_21
10
332.700317
20
-20.976196
30
0.0
11
332.934692
21
-20.976196
31
0.0
0
LINE
8
MCD_Layer_21
10
347.622192
20
-18.336426
30
0.0
11
332.738159
21
-40.497681
31
0.0
0
LINE
8
MCD_Layer_21
10
337.032593
20
-31.416260
30
0.0
11
332.738159
21
-40.497681
31
0.0
0
LINE
8
MCD_Layer_21
10
332.657593
20
-20.976196
30
0.0
11
332.778442
21
-20.976196
31
0.0
0
LINE
8
MCD_Layer_22
10
381.102661
20
-26.136719
30
0.0
11
368.718628
21
-20.936523
31
0.0
0
LINE
8
MCD_Layer_22
10
368.602661
20
-25.416504
30
0.0
11
353.093018
21
-19.696899
31
0.0
0
LINE
8
MCD_Layer_22
10
368.641113
20
-20.936523
30
0.0
11
368.758911
21
-20.936523
31
0.0
0
LINE
8
MCD_Layer_22
10
369.071411
20
-20.858398
30
0.0
11
368.602661
21
-20.624023
31
0.0
0
LINE
8
MCD_Layer_22
10
368.602661
20
-20.936523
30
0.0
11
364.122681
21
-36.446167
31
0.0
0
LINE
8
MCD_Layer_22
10
369.842285
20
-14.648071
30
0.0
11
359.882568
21
-30.195557
31
0.0
0
LINE
8
MCD_Layer_22
10
348.622192
20
-20.898071
30
0.0
11
368.602661
21
-20.780273
31
0.0
0
LINE
8
MCD_Layer_22
10
368.602661
20
-20.467773
30
0.0
11
368.680786
21
-20.936523
31
0.0
0
LINE
8
MCD_Layer_22
10
368.915161
20
-20.936523
30
0.0
11
374.852661
21
-29.656616
31
0.0
0
LINE
8
MCD_Layer_22
10
359.343628
20
-40.916992
30
0.0
11
348.641113
21
-14.856812
31
0.0
0
LINE
8
MCD_Layer_22
10
359.343628
20
-40.916992
30
0.0
11
368.641113
21
-20.936523
31
0.0
0
LINE
8
MCD_Layer_22
10
368.758911
20
-20.936523
30
0.0
11
369.071411
21
-20.858398
31
0.0
0
LINE
8
MCD_Layer_22
10
368.602661
20
-20.624023
30
0.0
11
368.602661
21
-40.936523
31
0.0
0
LINE
8
MCD_Layer_22
10
374.682373
20
-30.195557
30
0.0
11
348.622192
21
-20.898071
31
0.0
0
LINE
8
MCD_Layer_22
10
354.203247
20
-5.900513
30
0.0
11
377.362427
21
-20.898071
31
0.0
0
LINE
8
MCD_Layer_22
10
368.602661
20
-20.780273
30
0.0
11
368.602661
21
-20.467773
31
0.0
0
LINE
8
MCD_Layer_22
10
368.680786
20
-20.936523
30
0.0
11
368.915161
21
-20.936523
31
0.0
0
LINE
8
MCD_Layer_22
10
368.602661
20
-35.335938
30
0.0
11
383.638672
21
-12.176758
31
0.0
0
LINE
8
MCD_Layer_22
10
383.641113
20
-12.776733
30
0.0
11
359.265503
21
-40.916992
31
0.0
0
LINE
8
MCD_Layer_22
10
368.641113
20
-20.936523
30
0.0
11
368.758911
21
-20.936523
31
0.0
0
LINE
8
MCD_Layer_22
10
369.071411
20
-20.858398
30
0.0
11
368.602661
21
-20.624023
31
0.0
0
LINE
8
MCD_Layer_22
10
368.602661
20
-5.936523
30
0.0
11
376.762451
21
-30.273682
31
0.0
0
LINE
8
MCD_Layer_22
10
348.622192
20
-10.898071
30
0.0
11
361.082520
21
-30.273682
31
0.0
0
LINE
8
MCD_Layer_22
10
348.622192
20
-20.898071
30
0.0
11
368.602661
21
-20.780273
31
0.0
0
LINE
8
MCD_Layer_22
10
368.602661
20
-20.467773
30
0.0
11
368.680786
21
-20.936523
31
0.0
0
LINE
8
MCD_Layer_22
10
368.915161
20
-20.936523
30
0.0
11
378.602661
21
-28.456665
31
0.0
0
LINE
8
MCD_Layer_22
10
359.265503
20
-40.916992
30
0.0
11
368.641113
21
-23.176514
31
0.0
0
LINE
8
MCD_Layer_22
10
371.764893
20
-19.736572
30
0.0
11
368.641113
21
-20.936523
31
0.0
0
LINE
8
MCD_Layer_22
10
368.758911
20
-20.936523
30
0.0
11
369.071411
21
-20.858398
31
0.0
0
LINE
8
MCD_Layer_22
10
368.602661
20
-20.624023
30
0.0
11
368.602661
21
-20.936523
31
0.0
0
LINE
8
MCD_Layer_22
10
366.362671
20
-17.774292
30
0.0
11
369.802612
21
-8.398071
31
0.0
0
LINE
8
MCD_Layer_22
10
363.402466
20
-20.898682
30
0.0
11
368.602661
21
-20.936523
31
0.0
0
LINE
8
MCD_Layer_22
10
368.602661
20
-20.780273
30
0.0
11
368.602661
21
-20.467773
31
0.0
0
LINE
8
MCD_Layer_22
10
368.680786
20
-20.936523
30
0.0
11
368.915161
21
-20.936523
31
0.0
0
LINE
8
MCD_Layer_22
10
381.102661
20
-26.136719
30
0.0
11
368.640503
21
-20.936523
31
0.0
0
LINE
8
MCD_Layer_22
10
361.102661
20
-7.817017
30
0.0
11
368.640503
21
-20.936523
31
0.0
0
LINE
8
MCD_Layer_22
10
368.602661
20
-20.936523
30
0.0
11
368.758911
21
-20.936523
31
0.0
0
LINE
8
MCD_Layer_22
10
369.071411
20
-20.858398
30
0.0
11
368.602661
21
-20.624023
31
0.0
0
LINE
8
MCD_Layer_22
10
368.602661
20
-28.436523
30
0.0
11
381.722168
21
-20.898682
31
0.0
0
LINE
8
MCD_Layer_22
10
368.602661
20
-20.936523
30
0.0
11
379.322876
21
-38.400513
31
0.0
0
LINE
8
MCD_Layer_22
10
355.882324
20
-20.898682
30
0.0
11
368.602661
21
-20.780273
31
0.0
0
LINE
8
MCD_Layer_22
10
368.602661
20
-20.467773
30
0.0
11
368.680786
21
-20.936523
31
0.0
0
LINE
8
MCD_Layer_22
10
368.915161
20
-20.936523
30
0.0
11
368.602661
21
-10.216309
31
0.0
0
LINE
8
MCD_Layer_22
10
351.138672
20
-33.656860
30
0.0
11
356.140503
21
-7.976929
31
0.0
0
LINE
8
MCD_Layer_22
10
368.718628
20
-20.936523
30
0.0
11
368.602661
21
-20.936523
31
0.0
0
LINE
8
MCD_Layer_22
10
368.758911
20
-20.936523
30
0.0
11
369.071411
21
-20.858398
31
0.0
0
LINE
8
MCD_Layer_22
10
368.602661
20
-20.624023
30
0.0
11
368.602661
21
-33.436523
31
0.0
0
LINE
8
MCD_Layer_22
10
381.562256
20
-20.820557
30
0.0
11
368.602661
21
-8.436523
31
0.0
0
LINE
8
MCD_Layer_22
10
363.402466
20
-20.820557
30
0.0
11
368.602661
21
-20.936523
31
0.0
0
LINE
8
MCD_Layer_22
10
368.602661
20
-20.780273
30
0.0
11
368.602661
21
-20.467773
31
0.0
0
LINE
8
MCD_Layer_23
10
414.601440
20
-29.616333
30
0.0
11
404.716797
21
-40.497681
31
0.0
0
LINE
8
MCD_Layer_23
10
414.636841
20
-29.616333
30
0.0
11
417.216797
21
-29.536377
31
0.0
0
LINE
8
MCD_Layer_23
10
404.639282
20
-20.976196
30
0.0
11
404.757690
21
-20.976196
31
0.0
0
LINE
8
MCD_Layer_23
10
405.070190
20
-20.898071
30
0.0
11
404.601440
21
-20.663696
31
0.0
0
LINE
8
MCD_Layer_23
10
404.601440
20
-10.976196
30
0.0
11
395.961304
21
-8.360840
31
0.0
0
LINE
8
MCD_Layer_23
10
396.041260
20
-8.438354
30
0.0
11
399.401245
21
-39.610229
31
0.0
0
LINE
8
MCD_Layer_23
10
384.641113
20
-20.937744
30
0.0
11
404.601440
21
-20.819946
31
0.0
0
LINE
8
MCD_Layer_23
10
404.601440
20
-20.507446
30
0.0
11
404.679565
21
-20.976196
31
0.0
0
LINE
8
MCD_Layer_23
10
404.913940
20
-20.976196
30
0.0
11
417.101440
21
-26.176392
31
0.0
0
LINE
8
MCD_Layer_23
10
385.967407
20
-40.936523
30
0.0
11
419.639893
21
-7.216431
31
0.0
0
LINE
8
MCD_Layer_23
10
385.967407
20
-40.936523
30
0.0
11
404.639893
21
-20.976196
31
0.0
0
LINE
8
MCD_Layer_23
10
404.757690
20
-20.976196
30
0.0
11
405.070190
21
-20.898071
31
0.0
0
LINE
8
MCD_Layer_23
10
404.601440
20
-20.663696
30
0.0
11
404.601440
21
-5.976196
31
0.0
0
LINE
8
MCD_Layer_23
10
418.361206
20
-39.610229
30
0.0
11
384.641113
21
-20.937744
31
0.0
0
LINE
8
MCD_Layer_23
10
404.601440
20
-8.476196
30
0.0
11
409.401245
21
-20.937744
31
0.0
0
LINE
8
MCD_Layer_23
10
404.601440
20
-20.819946
30
0.0
11
404.601440
21
-20.507446
31
0.0
0
LINE
8
MCD_Layer_23
10
404.679565
20
-20.976196
30
0.0
11
404.913940
21
-20.976196
31
0.0
0
LINE
8
MCD_Layer_23
10
404.601440
20
-20.976196
30
0.0
11
417.101440
21
-16.176392
31
0.0
0
LINE
8
MCD_Layer_23
10
419.639893
20
-7.216431
30
0.0
11
385.889282
21
-40.936523
31
0.0
0
LINE
8
MCD_Layer_23
10
404.639893
20
-20.976196
30
0.0
11
404.757690
21
-20.976196
31
0.0
0
LINE
8
MCD_Layer_23
10
405.070190
20
-20.898071
30
0.0
11
404.601440
21
-20.663696
31
0.0
0
LINE
8
MCD_Layer_23
10
404.601440
20
-5.976196
30
0.0
11
418.361206
21
-39.688354
31
0.0
0
LINE
8
MCD_Layer_23
10
384.641113
20
-8.437744
30
0.0
11
399.401245
21
-39.688354
31
0.0
0
LINE
8
MCD_Layer_23
10
384.641113
20
-20.937744
30
0.0
11
404.601440
21
-20.819946
31
0.0
0
LINE
8
MCD_Layer_23
10
404.601440
20
-20.507446
30
0.0
11
404.679565
21
-20.976196
31
0.0
0
LINE
8
MCD_Layer_23
10
404.913940
20
-20.976196
30
0.0
11
417.101440
21
-26.176392
31
0.0
0
LINE
8
MCD_Layer_23
10
385.889282
20
-40.936523
30
0.0
11
419.639893
21
-7.216431
31
0.0
0
LINE
8
MCD_Layer_23
10
385.889282
20
-40.936523
30
0.0
11
404.639893
21
-20.976196
31
0.0
0
LINE
8
MCD_Layer_23
10
404.757690
20
-20.976196
30
0.0
11
405.070190
21
-20.898071
31
0.0
0
LINE
8
MCD_Layer_23
10
404.601440
20
-20.663696
30
0.0
11
404.601440
21
-8.476196
31
0.0
0
LINE
8
MCD_Layer_23
10
399.401245
20
-39.688354
30
0.0
11
384.641113
21
-10.937744
31
0.0
0
LINE
8
MCD_Layer_23
10
395.961304
20
-8.438965
30
0.0
11
396.041260
21
-20.938354
31
0.0
0
LINE
8
MCD_Layer_23
10
404.601440
20
-20.819946
30
0.0
11
404.601440
21
-20.507446
31
0.0
0
LINE
8
MCD_Layer_23
10
404.679565
20
-20.976196
30
0.0
11
404.913940
21
-20.976196
31
0.0
0
LINE
8
MCD_Layer_23
10
414.601440
20
-29.616333
30
0.0
11
417.138672
21
-29.536377
31
0.0
0
LINE
8
MCD_Layer_23
10
414.639282
20
-29.616333
30
0.0
11
404.638672
21
-40.497681
31
0.0
0
LINE
8
MCD_Layer_23
10
404.636841
20
-20.976196
30
0.0
11
404.757690
21
-20.976196
31
0.0
0
LINE
8
MCD_Layer_23
10
405.070190
20
-20.898071
30
0.0
11
404.601440
21
-20.663696
31
0.0
0
LINE
8
MCD_Layer_23
10
404.601440
20
-10.976196
30
0.0
11
395.961304
21
-20.938965
31
0.0
0
LINE
8
MCD_Layer_23
10
385.079956
20
-10.940796
30
0.0
11
395.961304
21
-20.860840
31
0.0
0
LINE
8
MCD_Layer_23
10
385.079956
20
-20.940796
30
0.0
11
404.601440
21
-20.819946
31
0.0
0
LINE
8
MCD_Layer_24
10
450.639893
20
-27.876221
30
0.0
11
440.755859
21
-20.956055
31
0.0
0
LINE
8
MCD_Layer_24
10
450.639893
20
-27.876221
30
0.0
11
448.255859
21
-14.076172
31
0.0
0
LINE
8
MCD_Layer_24
10
440.677734
20
-20.956055
30
0.0
11
440.796143
21
-20.956055
31
0.0
0
LINE
8
MCD_Layer_24
10
441.108643
20
-20.877930
30
0.0
11
440.639893
21
-20.643555
31
0.0
0
LINE
8
MCD_Layer_24
10
440.639893
20
-10.956055
30
0.0
11
433.719727
21
-13.340088
31
0.0
0
LINE
8
MCD_Layer_24
10
447.519775
20
-40.918213
30
0.0
11
442.319580
21
-1.543213
31
0.0
0
LINE
8
MCD_Layer_24
10
452.839600
20
-20.917603
30
0.0
11
440.639893
21
-20.799805
31
0.0
0
LINE
8
MCD_Layer_24
10
440.639893
20
-20.487305
30
0.0
11
440.718018
21
-20.956055
31
0.0
0
LINE
8
MCD_Layer_24
10
440.952393
20
-20.956055
30
0.0
11
420.639893
21
-19.276367
31
0.0
0
LINE
8
MCD_Layer_24
10
460.052734
20
-8.756348
30
0.0
11
435.678345
21
-30.516602
31
0.0
0
LINE
8
MCD_Layer_24
10
460.130859
20
-8.756348
30
0.0
11
440.678345
21
-20.956055
31
0.0
0
LINE
8
MCD_Layer_24
10
440.796143
20
-20.956055
30
0.0
11
441.108643
21
-20.877930
31
0.0
0
LINE
8
MCD_Layer_24
10
440.639893
20
-20.643555
30
0.0
11
440.639893
21
-25.956055
31
0.0
0
LINE
8
MCD_Layer_24
10
431.079346
20
-1.465088
30
0.0
11
452.839600
21
-25.917603
31
0.0
0
LINE
8
MCD_Layer_24
10
431.079346
20
-30.215088
30
0.0
11
420.659424
21
-20.917603
31
0.0
0
LINE
8
MCD_Layer_24
10
440.639893
20
-20.799805
30
0.0
11
440.639893
21
-20.487305
31
0.0
0
LINE
8
MCD_Layer_24
10
440.718018
20
-20.956055
30
0.0
11
440.952393
21
-20.956055
31
0.0
0
LINE
8
MCD_Layer_24
10
435.639893
20
-30.516602
30
0.0
11
431.380859
21
-40.936523
31
0.0
0
LINE
8
MCD_Layer_24
10
450.678345
20
-27.876221
30
0.0
11
431.302734
21
-40.936523
31
0.0
0
LINE
8
MCD_Layer_24
10
440.678345
20
-20.956055
30
0.0
11
440.796143
21
-20.956055
31
0.0
0
LINE
8
MCD_Layer_24
10
441.108643
20
-20.877930
30
0.0
11
440.639893
21
-20.643555
31
0.0
0
LINE
8
MCD_Layer_24
10
440.639893
20
-10.956055
30
0.0
11
433.719727
21
-30.293213
31
0.0
0
LINE
8
MCD_Layer_24
10
420.659424
20
-10.917603
30
0.0
11
433.719727
21
-9.668213
31
0.0
0
LINE
8
MCD_Layer_24
10
453.719727
20
-20.917603
30
0.0
11
440.639893
21
-20.799805
31
0.0
0
LINE
8
MCD_Layer_24
10
440.639893
20
-20.487305
30
0.0
11
440.718018
21
-20.956055
31
0.0
0
LINE
8
MCD_Layer_24
10
440.952393
20
-20.956055
30
0.0
11
450.639893
21
-27.876221
31
0.0
0
LINE
8
MCD_Layer_24
10
451.927734
20
-7.876221
30
0.0
11
430.678345
21
-20.076538
31
0.0
0
LINE
8
MCD_Layer_24
10
450.755859
20
-9.596191
30
0.0
11
440.677734
21
-20.956055
31
0.0
0
LINE
8
MCD_Layer_24
10
440.796143
20
-20.956055
30
0.0
11
441.108643
21
-20.877930
31
0.0
0
LINE
8
MCD_Layer_24
10
440.639893
20
-20.643555
30
0.0
11
440.639893
21
-30.956055
31
0.0
0
LINE
8
MCD_Layer_24
10
441.519409
20
-10.840088
30
0.0
11
451.999756
21
-33.418213
31
0.0
0
LINE
8
MCD_Layer_24
10
431.959473
20
-10.918213
30
0.0
11
451.999756
21
-20.918213
31
0.0
0
LINE
8
MCD_Layer_24
10
440.639893
20
-20.799805
30
0.0
11
440.639893
21
-20.487305
31
0.0
0
LINE
8
MCD_Layer_24
10
440.718018
20
-20.956055
30
0.0
11
440.952393
21
-20.956055
31
0.0
0
LINE
8
MCD_Layer_24
10
428.139893
20
-29.636475
30
0.0
11
450.677734
21
-9.596191
31
0.0
0
LINE
8
MCD_Layer_24
10
428.177734
20
-29.636475
30
0.0
11
440.677734
21
-20.956055
31
0.0
0
LINE
8
MCD_Layer_24
10
440.639893
20
-20.956055
30
0.0
11
440.796143
21
-20.956055
31
0.0
0
LINE
8
MCD_Layer_24
10
441.108643
20
-20.877930
30
0.0
11
440.639893
21
-20.643555
31
0.0
0
LINE
8
MCD_Layer_24
10
440.639893
20
-33.456055
30
0.0
11
431.959473
21
-20.918213
31
0.0
0
LINE
8
MCD_Layer_24
10
440.639893
20
-10.956055
30
0.0
11
433.719727
21
-20.840088
31
0.0
0
LINE
8
MCD_Layer_24
10
440.639893
20
-20.956055
30
0.0
11
440.639893
21
-20.799805
31
0.0
0
LINE
8
MCD_Layer_25
10
467.268555
20
-40.936523
30
0.0
11
467.383911
21
-34.798828
31
0.0
0
LINE
8
MCD_Layer_25
10
467.268555
20
-40.936523
30
0.0
11
482.383911
21
-17.858521
31
0.0
0
LINE
8
MCD_Layer_25
10
467.306396
20
-34.798828
30
0.0
11
467.424805
21
-34.798828
31
0.0
0
LINE
8
MCD_Layer_25
10
467.737305
20
-34.720703
30
0.0
11
467.268555
21
-34.486328
31
0.0
0
LINE
8
MCD_Layer_25
10
467.268555
20
-34.798828
30
0.0
11
461.130859
21
-19.683472
31
0.0
0
LINE
8
MCD_Layer_25
10
484.208862
20
-34.760986
30
0.0
11
461.130859
21
-19.761597
31
0.0
0
LINE
8
MCD_Layer_25
10
484.208862
20
-34.760986
30
0.0
11
467.268555
21
-34.642578
31
0.0
0
LINE
8
MCD_Layer_25
10
467.268555
20
-34.330078
30
0.0
11
467.346680
21
-34.798828
31
0.0
0
LINE
8
MCD_Layer_25
10
467.581055
20
-34.798828
30
0.0
11
467.268555
21
-40.936523
31
0.0
0
LINE
8
MCD_Layer_25
10
482.305786
20
-17.858521
30
0.0
11
467.306396
21
-40.936523
31
0.0
0
LINE
8
MCD_Layer_25
10
467.305786
20
-34.798828
30
0.0
11
467.268555
21
-34.798828
31
0.0
0
LINE
8
MCD_Layer_25
10
467.424805
20
-34.798828
30
0.0
11
467.737305
21
-34.720703
31
0.0
0
LINE
8
MCD_Layer_25
10
467.268555
20
-34.486328
30
0.0
11
467.268555
21
-34.798828
31
0.0
0
LINE
8
MCD_Layer_25
10
461.130859
20
-34.761597
30
0.0
11
467.268555
21
-34.798828
31
0.0
0
LINE
8
MCD_Layer_25
10
461.130859
20
-34.683472
30
0.0
11
467.268555
21
-34.798828
31
0.0
0
LINE
8
MCD_Layer_25
10
467.268555
20
-34.642578
30
0.0
11
467.268555
21
-33.705078
31
0.0
0
ENDSEC
0
EOF
