0
SECTION
2
ENTITIES
0
LINE
8
MCD_Layer_0
10
-6.114000
20
5.006198
30
0.0
11
-6.114000
21
4.628198
31
0.0
0
LINE
8
MCD_Layer_0
10
-6.303000
20
4.628198
30
0.0
11
-6.303000
21
3.995198
31
0.0
0
LINE
8
MCD_Layer_0
10
-6.729000
20
6.728198
30
0.0
11
-6.522000
21
6.728198
31
0.0
0
LINE
8
MCD_Layer_0
10
-6.414000
20
6.728198
30
0.0
11
-6.414000
21
5.810198
31
0.0
0
LINE
8
MCD_Layer_0
10
-6.918000
20
4.628198
30
0.0
11
-7.155000
21
4.628198
31
0.0
0
LINE
8
MCD_Layer_0
10
-7.155000
20
5.006198
30
0.0
11
-6.114000
21
5.006198
31
0.0
0
LINE
8
MCD_Layer_0
10
-6.222000
20
4.754198
30
0.0
11
-6.303000
21
4.754198
31
0.0
0
LINE
8
MCD_Layer_0
10
-6.429000
20
4.628198
30
0.0
11
-6.429000
21
3.932198
31
0.0
0
LINE
8
MCD_Layer_0
10
-6.633000
20
6.602198
30
0.0
11
-6.522000
21
6.602198
31
0.0
0
LINE
8
MCD_Layer_0
10
-6.522000
20
5.921198
30
0.0
11
-6.651000
21
5.921198
31
0.0
0
LINE
8
MCD_Layer_0
10
-7.029000
20
4.754198
30
0.0
11
-7.029000
21
4.880198
31
0.0
0
LINE
8
MCD_Layer_0
10
-4.306500
20
3.473198
30
0.0
11
-4.306500
21
3.854198
31
0.0
0
LINE
8
MCD_Layer_0
10
-4.528500
20
3.854198
30
0.0
11
-4.528500
21
4.694198
31
0.0
0
LINE
8
MCD_Layer_0
10
-4.462500
20
4.679198
30
0.0
11
-3.967500
21
3.899198
31
0.0
0
LINE
8
MCD_Layer_0
10
-2.680500
20
3.509198
30
0.0
11
-2.845500
21
3.860198
31
0.0
0
LINE
8
MCD_Layer_0
10
-4.324500
20
6.728198
30
0.0
11
-5.365500
21
6.728198
31
0.0
0
LINE
8
MCD_Layer_0
10
-5.365500
20
6.347198
30
0.0
11
-5.143500
21
6.347198
31
0.0
0
LINE
8
MCD_Layer_0
10
-5.143500
20
3.854198
30
0.0
11
-5.350500
21
3.854198
31
0.0
0
LINE
8
MCD_Layer_0
10
-5.224500
20
3.602198
30
0.0
11
-4.432500
21
3.602198
31
0.0
0
LINE
8
MCD_Layer_0
10
-4.432500
20
3.728198
30
0.0
11
-4.528500
21
3.728198
31
0.0
0
LINE
8
MCD_Layer_0
10
-4.654500
20
3.854198
30
0.0
11
-4.654500
21
4.817198
31
0.0
0
LINE
8
MCD_Layer_0
10
-4.384500
20
4.781198
30
0.0
11
-3.868500
21
3.965198
31
0.0
0
LINE
8
MCD_Layer_0
10
-2.839500
20
3.572198
30
0.0
11
-2.899500
21
3.707198
31
0.0
0
LINE
8
MCD_Layer_0
10
-4.450500
20
6.599198
30
0.0
11
-5.239500
21
6.599198
31
0.0
0
LINE
8
MCD_Layer_0
10
-5.239500
20
6.473198
30
0.0
11
-5.143500
21
6.473198
31
0.0
0
LINE
8
MCD_Layer_0
10
-5.017500
20
6.347198
30
0.0
11
-5.017500
21
3.854198
31
0.0
0
LINE
8
MCD_Layer_0
10
-5.143500
20
3.728198
30
0.0
11
-5.224500
21
3.728198
31
0.0
0
LINE
8
MCD_Layer_0
10
-4.654500
20
6.347198
30
0.0
11
-4.402500
21
6.347198
31
0.0
0
LINE
8
MCD_Layer_0
10
-4.528500
20
6.221198
30
0.0
11
-4.402500
21
6.221198
31
0.0
0
LINE
8
MCD_Layer_0
10
0.901500
20
6.347198
30
0.0
11
0.901500
21
6.728198
31
0.0
0
LINE
8
MCD_Layer_0
10
2.053500
20
6.728198
30
0.0
11
2.053500
21
6.347198
31
0.0
0
LINE
8
MCD_Layer_0
10
1.813500
20
6.347198
30
0.0
11
2.368500
21
4.706198
31
0.0
0
LINE
8
MCD_Layer_0
10
2.944500
20
6.347198
30
0.0
11
2.713500
21
6.347198
31
0.0
0
LINE
8
MCD_Layer_0
10
2.713500
20
6.728198
30
0.0
11
3.724500
21
6.728198
31
0.0
0
LINE
8
MCD_Layer_0
10
3.724500
20
6.347198
30
0.0
11
3.592500
21
6.347198
31
0.0
0
LINE
8
MCD_Layer_0
10
3.403500
20
6.212198
30
0.0
11
2.419500
21
3.404198
31
0.0
0
LINE
8
MCD_Layer_0
10
2.251500
20
3.530198
30
0.0
11
1.357500
21
6.230198
31
0.0
0
LINE
8
MCD_Layer_0
10
1.090500
20
6.473198
30
0.0
11
1.027500
21
6.473198
31
0.0
0
LINE
8
MCD_Layer_0
10
1.027500
20
6.602198
30
0.0
11
1.942500
21
6.602198
31
0.0
0
LINE
8
MCD_Layer_0
10
1.942500
20
6.473198
30
0.0
11
1.849500
21
6.473198
31
0.0
0
LINE
8
MCD_Layer_0
10
1.714500
20
6.281198
30
0.0
11
2.362500
21
4.340198
31
0.0
0
LINE
8
MCD_Layer_0
10
2.839500
20
6.473198
30
0.0
11
2.839500
21
6.602198
31
0.0
0
LINE
8
MCD_Layer_0
10
3.598500
20
6.602198
30
0.0
11
3.598500
21
6.473198
31
0.0
0
LINE
8
MCD_Layer_0
10
2.338500
20
3.530198
30
0.0
11
2.251500
21
3.530198
31
0.0
0
LINE
8
MCD_Layer_0
10
6.510000
20
3.473198
30
0.0
11
6.510000
21
4.277198
31
0.0
0
LINE
8
MCD_Layer_0
10
6.132000
20
4.277198
30
0.0
11
6.132000
21
4.040198
31
0.0
0
LINE
8
MCD_Layer_0
10
6.069000
20
3.977198
30
0.0
11
5.295000
21
3.977198
31
0.0
0
LINE
8
MCD_Layer_0
10
5.295000
20
5.099198
30
0.0
11
5.706000
21
5.099198
31
0.0
0
LINE
8
MCD_Layer_0
10
5.706000
20
4.895198
30
0.0
11
6.099000
21
4.895198
31
0.0
0
LINE
8
MCD_Layer_0
10
6.099000
20
5.777198
30
0.0
11
5.706000
21
5.777198
31
0.0
0
LINE
8
MCD_Layer_0
10
5.706000
20
5.588198
30
0.0
11
5.280000
21
5.588198
31
0.0
0
LINE
8
MCD_Layer_0
10
5.280000
20
6.221198
30
0.0
11
5.895000
21
6.221198
31
0.0
0
LINE
8
MCD_Layer_0
10
5.895000
20
5.969198
30
0.0
11
6.291000
21
5.969198
31
0.0
0
LINE
8
MCD_Layer_0
10
6.291000
20
6.725198
30
0.0
11
4.458000
21
6.725198
31
0.0
0
LINE
8
MCD_Layer_0
10
4.458000
20
6.347198
30
0.0
11
4.680000
21
6.347198
31
0.0
0
LINE
8
MCD_Layer_0
10
4.680000
20
3.851198
30
0.0
11
4.473000
21
3.851198
31
0.0
0
LINE
8
MCD_Layer_0
10
4.599000
20
3.599198
30
0.0
11
6.384000
21
3.599198
31
0.0
0
LINE
8
MCD_Layer_0
10
6.384000
20
4.151198
30
0.0
11
6.258000
21
4.151198
31
0.0
0
LINE
8
MCD_Layer_0
10
5.169000
20
3.851198
30
0.0
11
5.169000
21
5.225198
31
0.0
0
LINE
8
MCD_Layer_0
10
5.832000
20
5.021198
30
0.0
11
5.973000
21
5.021198
31
0.0
0
LINE
8
MCD_Layer_0
10
5.973000
20
5.669198
30
0.0
11
5.832000
21
5.669198
31
0.0
0
LINE
8
MCD_Layer_0
10
5.154000
20
5.462198
30
0.0
11
5.154000
21
6.347198
31
0.0
0
LINE
8
MCD_Layer_0
10
6.021000
20
6.095198
30
0.0
11
6.162000
21
6.095198
31
0.0
0
LINE
8
MCD_Layer_0
10
6.162000
20
6.599198
30
0.0
11
4.584000
21
6.599198
31
0.0
0
LINE
8
MCD_Layer_0
10
4.584000
20
6.473198
30
0.0
11
4.680000
21
6.473198
31
0.0
0
LINE
8
MCD_Layer_0
10
4.806000
20
6.347198
30
0.0
11
4.806000
21
3.851198
31
0.0
0
LINE
8
MCD_Layer_0
10
4.680000
20
3.725198
30
0.0
11
4.599000
21
3.725198
31
0.0
0
LINE
8
MCD_Layer_0
10
8.506915
20
6.047198
30
0.0
11
8.506915
21
5.858198
31
0.0
0
LINE
8
MCD_Layer_0
10
8.884915
20
5.858198
30
0.0
11
8.884915
21
6.758198
31
0.0
0
LINE
8
MCD_Layer_0
10
7.588915
20
5.291198
30
0.0
11
8.383915
21
4.508198
31
0.0
0
LINE
8
MCD_Layer_0
10
7.621915
20
4.565198
30
0.0
11
7.258915
21
4.565198
31
0.0
0
LINE
8
MCD_Layer_0
10
7.384915
20
3.602198
30
0.0
11
7.495915
21
3.602198
31
0.0
0
LINE
8
MCD_Layer_0
10
8.731915
20
4.892198
30
0.0
11
7.972915
21
5.633198
31
0.0
0
LINE
8
MCD_Layer_0
10
8.617915
20
5.984198
30
0.0
11
8.758915
21
5.984198
31
0.0
0
LINE
8
MCD_Layer_0
10
8.758915
20
6.599198
30
0.0
11
8.758915
21
6.632198
31
0.0
0
LINE
8
MCD_Layer_0
10
7.639915
20
5.417198
30
0.0
11
8.461915
21
4.604198
31
0.0
0
LINE
8
MCD_Layer_0
10
7.510915
20
4.436198
30
0.0
11
7.384915
21
4.436198
31
0.0
0
LINE
8
MCD_Layer_1
10
0.000000
20
1.634152
30
0.0
11
0.000000
21
0.000000
31
0.0
0
LINE
8
MCD_Layer_1
10
-12.038676
20
0.000000
30
0.0
11
12.038676
21
0.000000
31
0.0
0
ARC
8
MCD_Layer_0
10
-7.614070
20
5.684888
40
2.318126
50
283.853933
51
307.839858
0
ARC
8
MCD_Layer_0
10
-7.460339
20
4.872520
40
1.475029
50
236.381695
51
268.226060
0
ARC
8
MCD_Layer_0
10
-7.278817
20
5.106360
40
1.790188
50
180.133214
51
205.021056
0
ARC
8
MCD_Layer_0
10
-7.404102
20
5.169072
40
1.642218
50
126.027041
51
157.020439
0
ARC
8
MCD_Layer_0
10
-7.454955
20
5.256988
40
1.535039
50
67.114808
51
97.412748
0
ARC
8
MCD_Layer_0
10
-7.261993
20
5.790295
40
0.503386
50
2.265963
51
44.992805
0
ARC
8
MCD_Layer_0
10
-7.404541
20
5.401467
40
0.913651
50
84.690793
51
141.341960
0
ARC
8
MCD_Layer_0
10
-6.891308
20
5.092402
40
1.506412
50
175.972790
51
210.219770
0
ARC
8
MCD_Layer_0
10
-7.419000
20
4.730198
40
0.850276
50
252.971579
51
306.101692
0
ARC
8
MCD_Layer_0
10
-7.515907
20
5.399856
40
1.913277
50
283.077243
51
306.718083
0
ARC
8
MCD_Layer_0
10
-7.345695
20
5.058503
40
1.587512
50
220.324552
51
245.738765
0
ARC
8
MCD_Layer_0
10
-7.361118
20
5.098657
40
1.586468
50
165.637187
51
191.985739
0
ARC
8
MCD_Layer_0
10
-7.470922
20
5.257978
40
1.415551
50
107.475112
51
137.286215
0
ARC
8
MCD_Layer_0
10
-7.462963
20
5.260047
40
1.424047
50
63.385031
51
70.474133
0
ARC
8
MCD_Layer_0
10
-7.408956
20
5.422117
40
1.013744
50
66.701630
51
118.714205
0
ARC
8
MCD_Layer_0
10
-6.721016
20
5.068407
40
1.797252
50
153.611757
51
176.050446
0
ARC
8
MCD_Layer_0
10
-7.349850
20
4.853344
40
1.110308
50
197.460488
51
232.354356
0
ARC
8
MCD_Layer_0
10
-7.387587
20
4.664827
40
0.896174
50
273.364010
51
311.650769
0
ARC
8
MCD_Layer_0
10
-6.915000
20
4.631198
40
0.123037
50
358.602828
51
91.397151
0
ARC
8
MCD_Layer_0
10
-3.167102
20
4.230237
40
0.836929
50
222.464527
51
256.568888
0
ARC
8
MCD_Layer_0
10
-2.356764
20
4.814817
40
1.245697
50
202.396047
51
226.102027
0
ARC
8
MCD_Layer_0
10
-4.389625
20
5.796405
40
1.160660
50
302.470891
51
326.523899
0
ARC
8
MCD_Layer_0
10
-4.297936
20
5.689343
40
1.019297
50
14.363195
51
54.117428
0
ARC
8
MCD_Layer_0
10
-3.152800
20
4.244677
40
0.731749
50
222.938760
51
261.378000
0
ARC
8
MCD_Layer_0
10
-2.562915
20
4.620225
40
1.082392
50
207.096938
51
232.788548
0
ARC
8
MCD_Layer_0
10
-4.272921
20
5.620102
40
0.834993
50
294.813702
51
313.278079
0
ARC
8
MCD_Layer_0
10
-4.307423
20
5.680060
40
0.913164
50
341.889205
51
15.506884
0
ARC
8
MCD_Layer_0
10
-4.269005
20
5.788785
40
0.805935
50
47.207823
51
86.478384
0
ARC
8
MCD_Layer_0
10
-4.402420
20
6.166657
40
1.158224
50
257.429306
51
267.917874
0
ARC
8
MCD_Layer_0
10
-4.722497
20
5.705117
40
0.889185
50
340.082267
51
15.463638
0
ARC
8
MCD_Layer_0
10
-4.482970
20
5.751924
40
0.743721
50
272.965006
51
298.640051
0
ARC
8
MCD_Layer_0
10
-4.446879
20
5.624751
40
0.487953
50
277.699961
51
301.834391
0
ARC
8
MCD_Layer_0
10
-4.774585
20
5.706895
40
0.814605
50
341.186803
51
14.379599
0
ARC
8
MCD_Layer_0
10
-0.613794
20
5.152559
40
1.742218
50
151.947196
51
181.607092
0
ARC
8
MCD_Layer_0
10
-0.862623
20
5.392690
40
1.408015
50
108.544382
51
131.268147
0
ARC
8
MCD_Layer_0
10
-0.860585
20
5.460181
40
1.329147
50
72.469418
51
91.066589
0
ARC
8
MCD_Layer_0
10
-1.203730
20
5.156166
40
1.782064
50
27.241727
51
46.601355
0
ARC
8
MCD_Layer_0
10
-1.152073
20
5.053112
40
1.737183
50
331.923155
51
1.668640
0
ARC
8
MCD_Layer_0
10
-0.908029
20
4.814702
40
1.408011
50
288.544372
51
311.268197
0
ARC
8
MCD_Layer_0
10
-0.914264
20
4.718071
40
1.300101
50
252.258890
51
271.288618
0
ARC
8
MCD_Layer_0
10
-0.580543
20
5.040995
40
1.765273
50
207.148728
51
226.694316
0
ARC
8
MCD_Layer_0
10
-0.549719
20
5.152520
40
1.686314
50
156.778993
51
181.659050
0
ARC
8
MCD_Layer_0
10
-0.868277
20
5.414244
40
1.271007
50
109.207528
51
128.059490
0
ARC
8
MCD_Layer_0
10
-0.875548
20
5.664583
40
1.027361
50
67.610586
51
90.545361
0
ARC
8
MCD_Layer_0
10
-1.140215
20
5.184294
40
1.599333
50
23.319304
51
50.309965
0
ARC
8
MCD_Layer_0
10
-1.221231
20
5.054875
40
1.686311
50
336.778976
51
1.659073
0
ARC
8
MCD_Layer_0
10
-0.911883
20
4.810264
40
1.290582
50
289.351791
51
307.915269
0
ARC
8
MCD_Layer_0
10
-0.892314
20
4.556970
40
1.041795
50
247.771526
51
270.384316
0
ARC
8
MCD_Layer_0
10
-0.623126
20
5.028695
40
1.608539
50
203.394930
51
230.243608
0
ARC
8
MCD_Layer_0
10
0.267139
20
5.075014
40
2.082363
50
163.274292
51
179.210742
0
ARC
8
MCD_Layer_0
10
-0.879330
20
5.638838
40
0.791087
50
110.976423
51
134.766281
0
ARC
8
MCD_Layer_0
10
-0.888012
20
5.635074
40
0.793428
50
69.344121
51
89.806085
0
ARC
8
MCD_Layer_0
10
-1.277110
20
5.335665
40
1.279218
50
15.350231
51
42.536821
0
ARC
8
MCD_Layer_0
10
-2.070136
20
5.137364
40
2.114778
50
343.397200
51
359.087832
0
ARC
8
MCD_Layer_0
10
-0.895388
20
4.574859
40
0.798427
50
291.086924
51
314.624522
0
ARC
8
MCD_Layer_0
10
-0.882903
20
4.566269
40
0.787675
50
249.206640
51
269.823720
0
ARC
8
MCD_Layer_0
10
-0.487130
20
4.874243
40
1.286068
50
195.382508
51
222.426900
0
ARC
8
MCD_Layer_0
10
0.101344
20
5.096092
40
1.796087
50
157.869902
51
179.757385
0
ARC
8
MCD_Layer_0
10
-0.868415
20
5.569598
40
0.744792
50
91.301079
51
120.001370
0
ARC
8
MCD_Layer_0
10
-1.159284
20
5.419171
40
1.014357
50
20.397015
51
51.643845
0
ARC
8
MCD_Layer_0
10
-1.861865
20
5.110041
40
1.785950
50
337.781335
51
359.796495
0
ARC
8
MCD_Layer_0
10
-0.902236
20
4.637792
40
0.744786
50
271.300957
51
300.001478
0
ARC
8
MCD_Layer_0
10
-0.613736
20
4.787148
40
1.012045
50
200.380652
51
231.711089
0
ARC
8
MCD_Layer_0
10
1.050447
20
6.155690
40
0.191673
50
16.210138
51
92.376413
0
ARC
8
MCD_Layer_0
10
2.947885
20
6.352358
40
0.120840
50
340.085527
51
90.182881
0
ARC
8
MCD_Layer_0
10
3.565002
20
6.193108
40
0.281639
50
96.012804
51
161.129629
0
ARC
8
MCD_Layer_0
10
6.129970
20
3.979227
40
0.128046
50
270.908183
51
359.091817
0
ARC
8
MCD_Layer_0
10
5.709000
20
5.102198
40
0.123037
50
358.602937
51
91.397103
0
ARC
8
MCD_Layer_0
10
5.709000
20
5.585198
40
0.123037
50
268.602758
51
1.397120
0
ARC
8
MCD_Layer_0
10
5.892971
20
6.219169
40
0.128045
50
0.907993
51
89.091925
0
ARC
8
MCD_Layer_0
10
7.652088
20
3.451164
40
0.064081
50
59.184713
51
159.888593
0
ARC
8
MCD_Layer_0
10
8.152836
20
4.345803
40
0.932663
50
286.640246
51
327.099565
0
ARC
8
MCD_Layer_0
10
8.249953
20
4.422215
40
0.796570
50
17.911454
51
43.169721
0
ARC
8
MCD_Layer_0
10
8.231247
20
6.014852
40
0.325268
50
184.346903
51
225.413756
0
ARC
8
MCD_Layer_0
10
8.197904
20
6.045896
40
0.287308
50
51.967917
51
134.391716
0
ARC
8
MCD_Layer_0
10
8.539215
20
6.800498
40
0.073985
50
238.823675
51
325.128473
0
ARC
8
MCD_Layer_0
10
8.160620
20
5.995553
40
0.832044
50
98.619828
51
130.078910
0
ARC
8
MCD_Layer_0
10
8.263385
20
5.958661
40
0.950566
50
161.695781
51
195.840259
0
ARC
8
MCD_Layer_0
10
8.114228
20
4.269228
40
0.377617
50
258.495605
51
320.335334
0
ARC
8
MCD_Layer_0
10
8.189900
20
4.420150
40
0.568212
50
178.381553
51
220.357955
0
ARC
8
MCD_Layer_0
10
8.172169
20
4.559469
40
1.042581
50
241.388788
51
267.127131
0
ARC
8
MCD_Layer_0
10
8.091390
20
4.372752
40
0.872902
50
313.559717
51
343.866827
0
ARC
8
MCD_Layer_0
10
8.293640
20
6.033378
40
0.506487
50
174.013861
51
204.269383
0
ARC
8
MCD_Layer_0
10
8.207758
20
6.043399
40
0.411805
50
89.699862
51
130.572662
0
ARC
8
MCD_Layer_0
10
8.236895
20
6.047642
40
0.382408
50
4.883778
51
41.133945
0
ARC
8
MCD_Layer_0
10
8.563570
20
6.634292
40
0.069376
50
229.934471
51
358.269912
0
ARC
8
MCD_Layer_0
10
8.155474
20
5.880884
40
0.816132
50
80.660820
51
107.510577
0
ARC
8
MCD_Layer_0
10
8.183115
20
5.971022
40
0.747234
50
147.072778
51
179.449715
0
ARC
8
MCD_Layer_0
10
8.121748
20
4.240724
40
0.474691
50
279.967815
51
345.789988
0
ARC
8
MCD_Layer_0
10
8.091787
20
4.363431
40
0.581224
50
181.994979
51
235.540324
0
ENDSEC
0
EOF
