0
SECTION
2
BLOCKS
0
BLOCK
8
0
2
OUTE
70
0
10
0.0
20
0.0
30
0.0
3
OUTE
1
OUTE
0
ENDBLK
0
BLOCK
8
0
2
OUTG
70
0
10
0.0
20
0.0
30
0.0
3
OUTG
1
OUTG
0
ENDBLK
0
BLOCK
8
0
2
OUTO
70
0
10
0.0
20
0.0
30
0.0
3
OUTO
1
OUTO
0
ENDBLK
0
BLOCK
8
0
2
OUTR
70
0
10
0.0
20
0.0
30
0.0
3
OUTR
1
OUTR
0
ENDBLK
0
BLOCK
8
0
2
OUTS
70
0
10
0.0
20
0.0
30
0.0
3
OUTS
1
OUTS
0
ENDBLK
0
BLOCK
8
0
2
OUTV
70
0
10
0.0
20
0.0
30
0.0
3
OUTV
1
OUTV
0
ENDBLK
0
ENDSEC
0
SECTION
2
ENTITIES
0
LINE
8
MCD_Layer_0
10
-2.000000
20
1.746250
30
0.0
11
-0.000000
21
1.752750
31
0.0
0
LINE
8
MCD_Layer_0
10
-0.000000
20
1.714750
30
0.0
11
0.000000
21
1.692500
31
0.0
0
LINE
8
MCD_Layer_0
10
0.287500
20
1.085000
30
0.0
11
0.356500
21
1.085000
31
0.0
0
LINE
8
MCD_Layer_0
10
0.392500
20
1.085000
30
0.0
11
0.392500
21
0.779000
31
0.0
0
LINE
8
MCD_Layer_0
10
0.224500
20
0.385000
30
0.0
11
0.145500
21
0.385000
31
0.0
0
LINE
8
MCD_Layer_0
10
0.145500
20
0.511000
30
0.0
11
0.492500
21
0.511000
31
0.0
0
LINE
8
MCD_Layer_0
10
0.456500
20
0.427000
30
0.0
11
0.429500
21
0.427000
31
0.0
0
LINE
8
MCD_Layer_0
10
-2.000000
20
1.693750
30
0.0
11
0.000000
21
1.692500
31
0.0
0
LINE
8
MCD_Layer_0
10
0.000000
20
1.659750
30
0.0
11
-2.000000
21
1.880375
31
0.0
0
LINE
8
MCD_Layer_0
10
-0.000000
20
1.678250
30
0.0
11
0.000000
21
1.829000
31
0.0
0
LINE
8
MCD_Layer_0
10
0.187500
20
0.427000
30
0.0
11
0.187500
21
0.469000
31
0.0
0
LINE
8
MCD_Layer_0
10
0.000000
20
-1.439000
30
0.0
11
0.000000
21
0.000000
31
0.0
0
LINE
8
MCD_Layer_0
10
-0.000000
20
-1.543500
30
0.0
11
2.000000
21
1.502000
31
0.0
0
LINE
8
MCD_Layer_0
10
2.000000
20
-1.521500
30
0.0
11
2.000000
21
1.701000
31
0.0
0
LINE
8
MCD_Layer_0
10
0.000000
20
1.723750
30
0.0
11
-2.000000
21
1.067000
31
0.0
0
LINE
8
MCD_Layer_0
10
0.000000
20
-1.451000
30
0.0
11
0.000000
21
1.885625
31
0.0
0
LINE
8
MCD_Layer_0
10
0.000000
20
-1.723750
30
0.0
11
-0.000000
21
1.864500
31
0.0
0
LINE
8
MCD_Layer_0
10
-0.000000
20
-1.686750
30
0.0
11
2.000000
21
1.502000
31
0.0
0
LINE
8
MCD_Layer_0
10
-2.000000
20
-1.700250
30
0.0
11
-0.000000
21
1.297000
31
0.0
0
LINE
8
MCD_Layer_0
10
0.000000
20
-1.511500
30
0.0
11
2.000000
21
1.420000
31
0.0
0
LINE
8
MCD_Layer_0
10
0.000000
20
-1.585500
30
0.0
11
2.000000
21
1.502000
31
0.0
0
LINE
8
MCD_Layer_0
10
-0.000000
20
-1.491000
30
0.0
11
-0.000000
21
1.718000
31
0.0
0
LINE
8
MCD_Layer_0
10
0.394500
20
0.033000
30
0.0
11
0.374500
21
0.078000
31
0.0
0
LINE
8
MCD_Layer_0
10
-2.000000
20
-1.517500
30
0.0
11
0.000000
21
1.880250
31
0.0
0
LINE
8
MCD_Layer_0
10
2.000000
20
-1.702750
30
0.0
11
0.000000
21
1.875000
31
0.0
0
LINE
8
MCD_Layer_0
10
-2.000000
20
-1.665750
30
0.0
11
-0.000000
21
1.864500
31
0.0
0
LINE
8
MCD_Layer_0
10
-0.000000
20
-1.686750
30
0.0
11
2.000000
21
1.420000
31
0.0
0
LINE
8
MCD_Layer_0
10
0.000000
20
-1.585500
30
0.0
11
-0.000000
21
1.864500
31
0.0
0
LINE
8
MCD_Layer_0
10
-0.000000
20
-1.543500
30
0.0
11
2.000000
21
1.854000
31
0.0
0
LINE
8
MCD_Layer_0
10
-0.051500
20
-0.023000
30
0.0
11
-0.359500
21
0.912000
31
0.0
0
LINE
8
MCD_Layer_0
10
-0.423500
20
0.958000
30
0.0
11
-0.470500
21
0.958000
31
0.0
0
LINE
8
MCD_Layer_0
10
0.000000
20
-1.735250
30
0.0
11
0.000000
21
1.885625
31
0.0
0
LINE
8
MCD_Layer_0
10
-0.000000
20
-1.423000
30
0.0
11
-2.000000
21
1.864500
31
0.0
0
LINE
8
MCD_Layer_0
10
0.018500
20
0.411000
30
0.0
11
0.210500
21
0.958000
31
0.0
0
LINE
8
MCD_Layer_0
10
2.000000
20
1.508500
30
0.0
11
-2.000000
21
1.864500
31
0.0
0
LINE
8
MCD_Layer_0
10
0.000000
20
1.735250
30
0.0
11
0.000000
21
1.885625
31
0.0
0
LINE
8
MCD_Layer_0
10
0.035500
20
-0.023000
30
0.0
11
-0.051500
21
-0.023000
31
0.0
0
LINE
8
MCD_Layer_0
10
-0.428500
20
1.000000
30
0.0
11
-0.428500
21
1.043000
31
0.0
0
LINE
8
MCD_Layer_0
10
-0.000000
20
-1.497000
30
0.0
11
-2.000000
21
1.880375
31
0.0
0
LINE
8
MCD_Layer_0
10
0.016500
20
0.289000
30
0.0
11
0.249500
21
0.946000
31
0.0
0
LINE
8
MCD_Layer_0
10
2.000000
20
1.586500
30
0.0
11
0.000000
21
1.875000
31
0.0
0
LINE
8
MCD_Layer_0
10
-2.000000
20
1.550500
30
0.0
11
-2.000000
21
1.880375
31
0.0
0
LINE
8
MCD_Layer_0
10
0.000000
20
1.714250
30
0.0
11
0.000000
21
1.875000
31
0.0
0
LINE
8
MCD_Layer_0
10
-0.000000
20
1.664250
30
0.0
11
-0.000000
21
1.859250
31
0.0
0
LINE
8
MCD_Layer_0
10
0.000000
20
1.669750
30
0.0
11
0.000000
21
0.000000
31
0.0
0
LINE
8
MCD_Layer_0
10
0.213500
20
0.268000
30
0.0
11
0.213500
21
0.189000
31
0.0
0
LINE
8
MCD_Layer_0
10
-2.000000
20
1.567500
30
0.0
11
0.000000
21
1.543000
31
0.0
0
LINE
8
MCD_Layer_0
10
-0.065500
20
0.542000
30
0.0
11
0.071500
21
0.542000
31
0.0
0
LINE
8
MCD_Layer_0
10
0.000000
20
1.393000
30
0.0
11
0.000000
21
1.737000
31
0.0
0
LINE
8
MCD_Layer_0
10
2.000000
20
1.577500
30
0.0
11
-2.000000
21
1.817000
31
0.0
0
LINE
8
MCD_Layer_0
10
0.000000
20
1.393000
30
0.0
11
0.000000
21
1.801250
31
0.0
0
LINE
8
MCD_Layer_0
10
-0.000000
20
-1.391000
30
0.0
11
2.000000
21
1.854000
31
0.0
0
LINE
8
MCD_Layer_0
10
0.134500
20
0.832000
30
0.0
11
0.266500
21
0.832000
31
0.0
0
LINE
8
MCD_Layer_0
10
0.266500
20
1.084000
30
0.0
11
-0.344500
21
1.084000
31
0.0
0
LINE
8
MCD_Layer_0
10
-2.000000
20
-1.672250
30
0.0
11
-2.000000
21
1.864500
31
0.0
0
LINE
8
MCD_Layer_0
10
2.000000
20
-1.635250
30
0.0
11
-0.000000
21
1.501000
31
0.0
0
LINE
8
MCD_Layer_0
10
-0.000000
20
-1.648750
30
0.0
11
0.000000
21
1.293000
31
0.0
0
LINE
8
MCD_Layer_0
10
0.297500
20
0.226000
30
0.0
11
0.255500
21
0.226000
31
0.0
0
LINE
8
MCD_Layer_0
10
-2.000000
20
-1.465000
30
0.0
11
-0.000000
21
1.501000
31
0.0
0
LINE
8
MCD_Layer_0
10
0.113500
20
0.516000
30
0.0
11
0.160500
21
0.516000
31
0.0
0
LINE
8
MCD_Layer_0
10
-2.000000
20
1.535500
30
0.0
11
0.000000
21
1.808000
31
0.0
0
LINE
8
MCD_Layer_0
10
-0.112500
20
0.663000
30
0.0
11
-0.112500
21
0.958000
31
0.0
0
LINE
8
MCD_Layer_0
10
0.176500
20
0.874000
30
0.0
11
0.223500
21
0.874000
31
0.0
0
LINE
8
MCD_Layer_0
10
-2.000000
20
1.598500
30
0.0
11
0.000000
21
1.880250
31
0.0
0
LINE
8
MCD_Layer_0
10
0.000000
20
-1.651250
30
0.0
11
0.000000
21
1.875000
31
0.0
0
LINE
8
MCD_Layer_0
10
0.000000
20
-1.603500
30
0.0
11
-2.000000
21
1.864500
31
0.0
0
LINE
8
MCD_Layer_0
10
2.000000
20
-1.635250
30
0.0
11
0.000000
21
1.418000
31
0.0
0
LINE
8
MCD_Layer_0
10
0.000000
20
1.478276
30
0.0
11
-0.000000
21
1.839500
31
0.0
0
LINE
8
MCD_Layer_0
10
0.240138
20
0.795000
30
0.0
11
0.240138
21
1.095000
31
0.0
0
LINE
8
MCD_Layer_0
10
-0.000000
20
-1.566862
30
0.0
11
2.000000
21
1.776500
31
0.0
0
LINE
8
MCD_Layer_0
10
-2.000000
20
-1.555862
30
0.0
11
-2.000000
21
1.682000
31
0.0
0
LINE
8
MCD_Layer_0
10
-0.000000
20
-1.629931
30
0.0
11
-0.000000
21
1.297000
31
0.0
0
LINE
8
MCD_Layer_0
10
2.000000
20
1.564138
30
0.0
11
-2.000000
21
1.736500
31
0.0
0
LINE
8
MCD_Layer_0
10
2.000000
20
1.526138
30
0.0
11
2.000000
21
1.834250
31
0.0
0
LINE
8
MCD_Layer_0
10
-2.000000
20
1.573138
30
0.0
11
0.000000
21
1.880250
31
0.0
0
LINE
8
MCD_Layer_0
10
2.000000
20
-1.549862
30
0.0
11
-0.000000
21
1.787000
31
0.0
0
LINE
8
MCD_Layer_0
10
-0.217862
20
0.321000
30
0.0
11
-0.259862
21
0.321000
31
0.0
0
LINE
8
MCD_Layer_1
10
0.000000
20
1.634152
30
0.0
11
0.000000
21
0.000000
31
0.0
0
LINE
8
MCD_Layer_1
10
-12.038676
20
0.000000
30
0.0
11
12.038676
21
0.000000
31
0.0
0
LINE
8
MCD_Layer_0
10
-4.591500
20
3.801323
30
0.0
11
-7.591500
21
3.473198
31
0.0
0
LINE
8
MCD_Layer_0
10
-7.591500
20
3.484917
30
0.0
11
-7.591500
21
3.473198
31
0.0
0
LINE
8
MCD_Layer_0
10
136.408500
20
-97.905708
30
0.0
11
88.103812
21
3.473198
31
0.0
0
LINE
8
MCD_Layer_0
10
-55.591500
20
129.420464
30
0.0
11
88.191703
21
3.473198
31
0.0
0
LINE
8
MCD_Layer_0
10
-7.591500
20
3.473198
30
0.0
11
88.080375
21
3.473198
31
0.0
0
LINE
8
MCD_Layer_0
10
-7.591500
20
3.479057
30
0.0
11
-7.591500
21
3.473198
31
0.0
0
LINE
8
MCD_Layer_0
10
-7.591500
20
3.473198
30
0.0
11
-7.591500
21
87.484917
31
0.0
0
LINE
8
MCD_Layer_0
10
-7.591500
20
3.473198
30
0.0
11
-7.591500
21
6.473198
31
0.0
0
LINE
8
MCD_Layer_0
10
-7.591500
20
3.473198
30
0.0
11
-7.591500
21
3.473198
31
0.0
0
LINE
8
MCD_Layer_0
10
-91.591500
20
3.842339
30
0.0
11
-7.591500
21
-8.714302
31
0.0
0
LINE
8
MCD_Layer_0
10
-62.605172
20
3.842339
30
0.0
11
-7.591500
21
3.473198
31
0.0
0
LINE
8
MCD_Layer_0
10
-91.591500
20
3.842339
30
0.0
11
-7.591500
21
40.410698
31
0.0
0
LINE
8
MCD_Layer_0
10
-58.568063
20
3.842339
30
0.0
11
-7.591500
21
4.973198
31
0.0
0
LINE
8
MCD_Layer_0
10
-7.591500
20
6.473198
30
0.0
11
-7.263375
21
3.473198
31
0.0
0
LINE
8
MCD_Layer_0
10
-7.591500
20
3.473198
30
0.0
11
-7.579782
21
3.473198
31
0.0
0
LINE
8
MCD_Layer_0
10
-7.591500
20
3.473198
30
0.0
11
-7.591500
21
99.145073
31
0.0
0
LINE
8
MCD_Layer_0
10
-7.591500
20
-140.526802
30
0.0
11
-1.450875
21
99.273979
31
0.0
0
LINE
8
MCD_Layer_0
10
-7.591500
20
-44.526802
30
0.0
11
75.347953
21
99.268120
31
0.0
0
LINE
8
MCD_Layer_0
10
-7.591500
20
3.473198
30
0.0
11
-7.585641
21
3.473198
31
0.0
0
LINE
8
MCD_Layer_0
10
110.931937
20
129.971245
30
0.0
11
-5.675485
21
-103.776802
31
0.0
0
LINE
8
MCD_Layer_0
10
-47.915719
20
-91.413521
30
0.0
11
-43.280953
21
-101.925240
31
0.0
0
LINE
8
MCD_Layer_0
10
-47.915719
20
-152.163521
30
0.0
11
-183.267282
21
35.342339
31
0.0
0
LINE
8
MCD_Layer_0
10
130.109672
20
101.014214
30
0.0
11
-7.591500
21
6.473198
31
0.0
0
LINE
8
MCD_Layer_0
10
-7.263375
20
3.473198
30
0.0
11
-7.591500
21
3.473198
31
0.0
0
LINE
8
MCD_Layer_0
10
-7.579782
20
3.473198
30
0.0
11
-7.591500
21
-188.526802
31
0.0
0
LINE
8
MCD_Layer_0
10
115.285453
20
-92.737740
30
0.0
11
-7.591500
21
3.473198
31
0.0
0
LINE
8
MCD_Layer_0
10
66.137015
20
-92.948677
30
0.0
11
-7.591500
21
3.473198
31
0.0
0
LINE
8
MCD_Layer_0
10
-7.585641
20
3.473198
30
0.0
11
-7.591500
21
3.473198
31
0.0
0
LINE
8
MCD_Layer_0
10
-7.591500
20
3.473198
30
0.0
11
76.420218
21
3.473198
31
0.0
0
LINE
8
MCD_Layer_0
10
-7.591500
20
3.473198
30
0.0
11
-4.591500
21
3.473198
31
0.0
0
LINE
8
MCD_Layer_0
10
-7.591500
20
3.473198
30
0.0
11
50.908500
21
-104.239693
31
0.0
0
LINE
8
MCD_Layer_0
10
-6.472360
20
3.473198
30
0.0
11
-7.591500
21
3.473198
31
0.0
0
LINE
8
MCD_Layer_0
10
-6.472360
20
3.473198
30
0.0
11
-185.716500
21
-92.145943
31
0.0
0
LINE
8
MCD_Layer_0
10
-7.222360
20
3.473198
30
0.0
11
-6.091500
21
3.473198
31
0.0
0
LINE
8
MCD_Layer_0
10
-7.591500
20
77.201714
30
0.0
11
-104.013375
21
3.473198
31
0.0
0
LINE
8
MCD_Layer_0
10
88.408500
20
101.775932
30
0.0
11
88.033500
21
3.473198
31
0.0
0
LINE
8
MCD_Layer_0
10
-199.591500
20
-162.417427
30
0.0
11
-103.937203
21
3.473198
31
0.0
0
LINE
8
MCD_Layer_0
10
-7.591500
20
3.473198
30
0.0
11
-7.591500
21
160.223198
31
0.0
0
LINE
8
MCD_Layer_0
10
-95.241891
20
4.592339
30
0.0
11
-7.591500
21
-174.651802
31
0.0
0
LINE
8
MCD_Layer_0
10
-103.210641
20
3.842339
30
0.0
11
-7.591500
21
160.223198
31
0.0
0
LINE
8
MCD_Layer_0
10
-95.241891
20
4.592339
30
0.0
11
-7.591500
21
114.098198
31
0.0
0
LINE
8
MCD_Layer_0
10
-64.521188
20
3.842339
30
0.0
11
-7.591500
21
4.973198
31
0.0
0
LINE
8
MCD_Layer_0
10
-1.023000
20
3.801323
30
0.0
11
-4.023000
21
3.473198
31
0.0
0
LINE
8
MCD_Layer_0
10
-4.023000
20
3.484917
30
0.0
11
-4.023000
21
3.473198
31
0.0
0
LINE
8
MCD_Layer_0
10
-196.023000
20
-162.417427
30
0.0
11
-100.368703
21
3.473198
31
0.0
0
LINE
8
MCD_Layer_0
10
91.977000
20
123.279839
30
0.0
11
91.865672
21
3.473198
31
0.0
0
LINE
8
MCD_Layer_0
10
-4.023000
20
77.201714
30
0.0
11
-100.398000
21
3.473198
31
0.0
0
LINE
8
MCD_Layer_0
10
-4.023000
20
3.479057
30
0.0
11
-4.023000
21
3.473198
31
0.0
0
LINE
8
MCD_Layer_0
10
-4.023000
20
3.473198
30
0.0
11
-4.023000
21
87.484917
31
0.0
0
LINE
8
MCD_Layer_0
10
-4.023000
20
3.473198
30
0.0
11
-4.023000
21
6.473198
31
0.0
0
LINE
8
MCD_Layer_0
10
-4.023000
20
3.473198
30
0.0
11
-4.023000
21
160.223198
31
0.0
0
LINE
8
MCD_Layer_0
10
-91.673391
20
4.592339
30
0.0
11
-4.023000
21
-45.651802
31
0.0
0
LINE
8
MCD_Layer_0
10
-32.060110
20
3.842339
30
0.0
11
-4.023000
21
160.223198
31
0.0
0
LINE
8
MCD_Layer_0
10
-91.673391
20
4.592339
30
0.0
11
-4.023000
21
-91.776802
31
0.0
0
LINE
8
MCD_Layer_0
10
-49.339406
20
3.842339
30
0.0
11
-4.023000
21
4.973198
31
0.0
0
LINE
8
MCD_Layer_0
10
-4.023000
20
3.473198
30
0.0
11
-4.023000
21
3.473198
31
0.0
0
LINE
8
MCD_Layer_0
10
-4.023000
20
9.473198
30
0.0
11
123.939890
21
126.965385
31
0.0
0
LINE
8
MCD_Layer_0
10
-196.017141
20
2.307182
30
0.0
11
-101.558156
21
-68.931099
31
0.0
0
LINE
8
MCD_Layer_0
10
-105.144094
20
-13.987740
30
0.0
11
90.441844
21
191.189995
31
0.0
0
LINE
8
MCD_Layer_0
10
91.303172
20
-72.903755
30
0.0
11
7.010203
21
3.824760
31
0.0
0
LINE
8
MCD_Layer_0
10
5.114673
20
131.436089
30
0.0
11
118.106861
21
-188.520943
31
0.0
0
LINE
8
MCD_Layer_0
10
-40.816967
20
-94.120552
30
0.0
11
158.858814
21
-97.425240
31
0.0
0
LINE
8
MCD_Layer_0
10
-40.816967
20
97.879448
30
0.0
11
-46.963452
21
98.781792
31
0.0
0
LINE
8
MCD_Layer_0
10
-77.262280
20
14.506401
30
0.0
11
-0.674389
21
3.473198
31
0.0
0
LINE
8
MCD_Layer_0
10
83.126392
20
3.473198
30
0.0
11
-0.885327
21
3.473198
31
0.0
0
LINE
8
MCD_Layer_0
10
2.114673
20
3.473198
30
0.0
11
-0.885327
21
3.473198
31
0.0
0
LINE
8
MCD_Layer_0
10
80.114673
20
-124.976021
30
0.0
11
0.233814
21
3.473198
31
0.0
0
LINE
8
MCD_Layer_0
10
118.927173
20
-153.200630
30
0.0
11
0.233814
21
3.473198
31
0.0
0
LINE
8
MCD_Layer_0
10
17.677173
20
-58.015083
30
0.0
11
0.233814
21
3.473198
31
0.0
0
LINE
8
MCD_Layer_0
10
39.052173
20
-24.751411
30
0.0
11
-0.516186
21
3.473198
31
0.0
0
LINE
8
MCD_Layer_0
10
0.614673
20
3.473198
30
0.0
11
-0.885327
21
3.473198
31
0.0
0
LINE
8
MCD_Layer_0
10
5.313000
20
3.801323
30
0.0
11
2.313000
21
3.473198
31
0.0
0
LINE
8
MCD_Layer_0
10
2.313000
20
3.484917
30
0.0
11
2.313000
21
3.473198
31
0.0
0
LINE
8
MCD_Layer_0
10
-141.687000
20
12.684135
30
0.0
11
98.061047
21
3.473198
31
0.0
0
LINE
8
MCD_Layer_0
10
-189.687000
20
-2.673286
30
0.0
11
98.201672
21
3.473198
31
0.0
0
LINE
8
MCD_Layer_0
10
2.313000
20
160.129448
30
0.0
11
97.568859
21
3.473198
31
0.0
0
LINE
8
MCD_Layer_0
10
146.313000
20
178.574760
30
0.0
11
97.674328
21
3.473198
31
0.0
0
LINE
8
MCD_Layer_0
10
2.313000
20
3.479057
30
0.0
11
2.313000
21
3.473198
31
0.0
0
LINE
8
MCD_Layer_0
10
2.313000
20
3.473198
30
0.0
11
2.313000
21
87.484917
31
0.0
0
LINE
8
MCD_Layer_0
10
2.313000
20
3.473198
30
0.0
11
2.313000
21
6.473198
31
0.0
0
LINE
8
MCD_Layer_0
10
2.313000
20
3.473198
30
0.0
11
2.313000
21
171.473198
31
0.0
0
LINE
8
MCD_Layer_0
10
-187.577625
20
3.842339
30
0.0
11
2.313000
21
-97.964302
31
0.0
0
LINE
8
MCD_Layer_0
10
-160.507313
20
3.842339
30
0.0
11
2.313000
21
-14.526802
31
0.0
0
LINE
8
MCD_Layer_0
10
-158.204578
20
4.592339
30
0.0
11
2.313000
21
-97.964302
31
0.0
0
LINE
8
MCD_Layer_0
10
-160.507313
20
3.842339
30
0.0
11
2.313000
21
4.973198
31
0.0
0
LINE
8
MCD_Layer_0
10
2.313000
20
3.473198
30
0.0
11
2.313000
21
3.473198
31
0.0
0
LINE
8
MCD_Layer_0
10
2.313000
20
9.473198
30
0.0
11
130.275890
21
132.965385
31
0.0
0
LINE
8
MCD_Layer_0
10
-189.681141
20
150.930229
30
0.0
11
-95.655750
21
3.473198
31
0.0
0
LINE
8
MCD_Layer_0
10
2.313000
20
-64.114693
30
0.0
11
96.326672
21
-91.759224
31
0.0
0
LINE
8
MCD_Layer_0
10
97.621593
20
-72.903755
30
0.0
11
13.346203
21
3.795464
31
0.0
0
LINE
8
MCD_Layer_0
10
2.313000
20
87.484917
30
0.0
11
2.313000
21
3.473198
31
0.0
0
LINE
8
MCD_Layer_0
10
2.313000
20
6.473198
30
0.0
11
2.313000
21
3.473198
31
0.0
0
LINE
8
MCD_Layer_0
10
2.313000
20
144.848198
30
0.0
11
-61.097157
21
4.592339
31
0.0
0
LINE
8
MCD_Layer_0
10
2.313000
20
144.660698
30
0.0
11
-61.097157
21
3.842339
31
0.0
0
LINE
8
MCD_Layer_0
10
2.313000
20
4.973198
30
0.0
11
2.313000
21
3.473198
31
0.0
0
LINE
8
MCD_Layer_0
10
2.641125
20
3.473198
30
0.0
11
2.313000
21
3.473198
31
0.0
0
LINE
8
MCD_Layer_0
10
2.324718
20
3.473198
30
0.0
11
2.313000
21
51.473198
31
0.0
0
LINE
8
MCD_Layer_0
10
-102.136219
20
99.221245
30
0.0
11
2.313000
21
3.473198
31
0.0
0
LINE
8
MCD_Layer_0
10
2.313000
20
3.473198
30
0.0
11
2.313000
21
51.473198
31
0.0
0
LINE
8
MCD_Layer_0
10
-102.136219
20
99.221245
30
0.0
11
2.313000
21
147.473198
31
0.0
0
LINE
8
MCD_Layer_0
10
60.678234
20
99.197807
30
0.0
11
2.313000
21
3.473198
31
0.0
0
LINE
8
MCD_Layer_0
10
2.318859
20
3.473198
30
0.0
11
2.313000
21
3.473198
31
0.0
0
LINE
8
MCD_Layer_0
10
2.313000
20
3.473198
30
0.0
11
86.324718
21
3.473198
31
0.0
0
LINE
8
MCD_Layer_0
10
2.313000
20
3.473198
30
0.0
11
5.313000
21
3.473198
31
0.0
0
LINE
8
MCD_Layer_0
10
2.313000
20
3.473198
30
0.0
11
143.500500
21
-59.936958
31
0.0
0
LINE
8
MCD_Layer_0
10
2.682140
20
3.473198
30
0.0
11
-31.624500
21
-66.804146
31
0.0
0
LINE
8
MCD_Layer_0
10
2.682140
20
3.473198
30
0.0
11
-10.062000
21
-75.540474
31
0.0
0
LINE
8
MCD_Layer_0
10
2.682140
20
3.473198
30
0.0
11
3.813000
21
3.473198
31
0.0
0
LINE
8
MCD_Layer_0
10
-93.687000
20
129.420464
30
0.0
11
98.002453
21
3.473198
31
0.0
0
LINE
8
MCD_Layer_0
10
146.313000
20
61.838432
30
0.0
11
98.037609
21
3.473198
31
0.0
0
LINE
8
MCD_Layer_0
10
2.313000
20
77.201714
30
0.0
11
97.984875
21
3.473198
31
0.0
0
LINE
8
MCD_Layer_0
10
8.491500
20
3.801323
30
0.0
11
5.491500
21
3.473198
31
0.0
0
LINE
8
MCD_Layer_0
10
5.491500
20
3.484917
30
0.0
11
5.491500
21
3.473198
31
0.0
0
LINE
8
MCD_Layer_0
10
101.491500
20
123.279839
30
0.0
11
-90.783891
21
3.473198
31
0.0
0
LINE
8
MCD_Layer_0
10
53.491500
20
-186.991646
30
0.0
11
101.052047
21
3.473198
31
0.0
0
LINE
8
MCD_Layer_0
10
-186.508500
20
18.830620
30
0.0
11
-90.772172
21
3.473198
31
0.0
0
LINE
8
MCD_Layer_0
10
5.491500
20
3.479057
30
0.0
11
5.491500
21
3.473198
31
0.0
0
LINE
8
MCD_Layer_0
10
5.491500
20
3.473198
30
0.0
11
5.491500
21
87.484917
31
0.0
0
LINE
8
MCD_Layer_0
10
5.491500
20
3.473198
30
0.0
11
5.491500
21
6.473198
31
0.0
0
LINE
8
MCD_Layer_0
10
5.491500
20
3.473198
30
0.0
11
5.491500
21
95.723198
31
0.0
0
LINE
8
MCD_Layer_0
10
-61.949906
20
4.592339
30
0.0
11
5.491500
21
12.660698
31
0.0
0
LINE
8
MCD_Layer_0
10
-106.252641
20
3.842339
30
0.0
11
5.491500
21
95.723198
31
0.0
0
LINE
8
MCD_Layer_0
10
-130.252641
20
3.842339
30
0.0
11
5.491500
21
4.973198
31
0.0
0
LINE
8
MCD_Layer_0
10
5.491500
20
3.473198
30
0.0
11
5.491500
21
3.473198
31
0.0
0
LINE
8
MCD_Layer_0
10
5.491500
20
9.473198
30
0.0
11
133.454391
21
107.465385
31
0.0
0
LINE
8
MCD_Layer_0
10
-186.502641
20
-168.030708
30
0.0
11
-92.606156
21
80.916557
31
0.0
0
LINE
8
MCD_Layer_0
10
-95.447953
20
-162.716255
30
0.0
11
99.393844
21
10.088432
31
0.0
0
LINE
8
MCD_Layer_0
10
100.829391
20
-72.903755
30
0.0
11
16.524703
21
3.830620
31
0.0
0
LINE
8
MCD_Layer_0
10
5.491500
20
87.484917
30
0.0
11
5.491500
21
3.473198
31
0.0
0
LINE
8
MCD_Layer_0
10
5.491500
20
6.473198
30
0.0
11
5.491500
21
3.473198
31
0.0
0
LINE
8
MCD_Layer_0
10
5.491500
20
-108.651802
30
0.0
11
-61.533891
21
4.592339
31
0.0
0
LINE
8
MCD_Layer_0
10
5.491500
20
67.973198
30
0.0
11
-77.863969
21
4.592339
31
0.0
0
LINE
8
MCD_Layer_0
10
5.491500
20
4.973198
30
0.0
11
5.491500
21
3.473198
31
0.0
0
LINE
8
MCD_Layer_0
10
11.164501
20
3.801323
30
0.0
11
8.164501
21
3.473198
31
0.0
0
LINE
8
MCD_Layer_0
10
8.164501
20
3.484917
30
0.0
11
8.164501
21
3.473198
31
0.0
0
LINE
8
MCD_Layer_0
10
152.164501
20
-40.173286
30
0.0
11
-88.146046
21
3.473198
31
0.0
0
LINE
8
MCD_Layer_0
10
56.164501
20
-165.487740
30
0.0
11
103.894970
21
3.473198
31
0.0
0
LINE
8
MCD_Layer_0
10
-135.835499
20
-171.634224
30
0.0
11
103.906689
21
3.473198
31
0.0
0
LINE
8
MCD_Layer_0
10
8.164501
20
3.479057
30
0.0
11
8.164501
21
3.473198
31
0.0
0
LINE
8
MCD_Layer_0
10
8.164501
20
3.473198
30
0.0
11
8.164501
21
87.484917
31
0.0
0
LINE
8
MCD_Layer_0
10
8.164501
20
3.473198
30
0.0
11
8.164501
21
6.473198
31
0.0
0
LINE
8
MCD_Layer_0
10
8.164501
20
3.473198
30
0.0
11
8.164501
21
-33.464302
31
0.0
0
LINE
8
MCD_Layer_0
10
-70.011280
20
4.592339
30
0.0
11
8.164501
21
104.910698
31
0.0
0
LINE
8
MCD_Layer_0
10
-57.021046
20
3.842339
30
0.0
11
8.164501
21
-157.776802
31
0.0
0
LINE
8
MCD_Layer_0
10
-62.892139
20
4.592339
30
0.0
11
8.164501
21
104.910698
31
0.0
0
LINE
8
MCD_Layer_0
10
-57.021046
20
3.842339
30
0.0
11
8.164501
21
4.973198
31
0.0
0
LINE
8
MCD_Layer_0
10
8.164501
20
3.473198
30
0.0
11
8.164501
21
3.473198
31
0.0
0
LINE
8
MCD_Layer_0
10
8.164501
20
6.473198
30
0.0
11
8.492626
21
3.473198
31
0.0
0
LINE
8
MCD_Layer_0
10
8.164501
20
3.473198
30
0.0
11
8.176220
21
3.473198
31
0.0
0
LINE
8
MCD_Layer_0
10
8.164501
20
-188.526802
30
0.0
11
-133.468311
21
-92.808052
31
0.0
0
LINE
8
MCD_Layer_0
10
8.164501
20
-140.526802
30
0.0
11
-166.942921
21
99.215385
31
0.0
0
LINE
8
MCD_Layer_0
10
8.164501
20
-188.526802
30
0.0
11
14.305126
21
98.945854
31
0.0
0
LINE
8
MCD_Layer_0
10
8.164501
20
3.473198
30
0.0
11
8.170361
21
3.473198
31
0.0
0
LINE
8
MCD_Layer_0
10
126.687939
20
129.971245
30
0.0
11
10.150829
21
-37.776802
31
0.0
0
LINE
8
MCD_Layer_0
10
-176.687061
20
4.586479
30
0.0
11
8.164501
21
39.473198
31
0.0
0
LINE
8
MCD_Layer_0
10
-169.778858
20
-188.163521
30
0.0
11
-2.300343
21
35.336479
31
0.0
0
LINE
8
MCD_Layer_0
10
145.865673
20
6.514214
30
0.0
11
8.164501
21
6.473198
31
0.0
0
LINE
8
MCD_Layer_0
10
8.492626
20
3.473198
30
0.0
11
8.170361
21
3.473198
31
0.0
0
LINE
8
MCD_Layer_0
10
8.176220
20
3.473198
30
0.0
11
8.164501
21
-188.526802
31
0.0
0
LINE
8
MCD_Layer_0
10
-146.921436
20
-92.808052
30
0.0
11
8.164501
21
-140.526802
31
0.0
0
LINE
8
MCD_Layer_0
10
-118.808155
20
96.666557
30
0.0
11
8.164501
21
-188.526802
31
0.0
0
LINE
8
MCD_Layer_0
10
165.377392
20
98.641167
30
0.0
11
8.164501
21
3.473198
31
0.0
0
LINE
8
MCD_Layer_0
10
57.383251
20
99.279839
30
0.0
11
8.164501
21
3.473198
31
0.0
0
LINE
8
MCD_Layer_0
10
8.170361
20
3.473198
30
0.0
11
8.164501
21
3.473198
31
0.0
0
LINE
8
MCD_Layer_0
10
8.164501
20
3.473198
30
0.0
11
92.176220
21
3.473198
31
0.0
0
LINE
8
MCD_Layer_0
10
9.664501
20
3.473198
30
0.0
11
11.164501
21
3.473198
31
0.0
0
LINE
8
MCD_Layer_0
10
8.164501
20
3.473198
30
0.0
11
-35.335499
21
-66.774849
31
0.0
0
LINE
8
MCD_Layer_0
10
8.533642
20
3.473198
30
0.0
11
8.164501
21
3.473198
31
0.0
0
LINE
8
MCD_Layer_0
10
8.164501
20
3.473198
30
0.0
11
-64.585499
21
175.082573
31
0.0
0
LINE
8
MCD_Layer_0
10
8.533642
20
3.473198
30
0.0
11
-63.835499
21
-45.839302
31
0.0
0
LINE
8
MCD_Layer_0
10
8.533642
20
3.473198
30
0.0
11
9.664501
21
3.473198
31
0.0
0
LINE
8
MCD_Layer_0
10
11.164501
20
117.959526
30
0.0
11
-68.212452
21
14.506401
31
0.0
0
LINE
8
MCD_Layer_0
10
8.211376
20
3.473198
30
0.0
11
92.176220
21
3.473198
31
0.0
0
LINE
8
MCD_Layer_0
10
8.164501
20
3.473198
30
0.0
11
-67.772999
21
63.584526
31
0.0
0
LINE
8
MCD_Layer_0
10
9.289501
20
3.473198
30
0.0
11
8.164501
21
3.473198
31
0.0
0
LINE
8
MCD_Layer_0
10
8.539501
20
3.473198
30
0.0
11
8.164501
21
3.473198
31
0.0
0
LINE
8
MCD_Layer_0
10
18.664501
20
3.854057
30
0.0
11
8.164501
21
3.479057
31
0.0
0
LINE
8
MCD_Layer_0
10
104.164501
20
144.016167
30
0.0
11
-87.659718
21
3.473198
31
0.0
0
LINE
8
MCD_Layer_0
10
8.164501
20
-78.862740
30
0.0
11
104.228954
21
3.473198
31
0.0
0
LINE
8
MCD_Layer_0
10
8.164501
20
3.473198
30
0.0
11
104.211376
21
3.473198
31
0.0
0
LINE
8
MCD_Layer_0
10
8.164501
20
3.473198
30
0.0
11
104.211376
21
3.479057
31
0.0
0
LINE
8
MCD_Layer_0
10
8.164501
20
121.996635
30
0.0
11
134.662548
21
14.389214
31
0.0
0
LINE
8
MCD_Layer_0
10
8.545361
20
3.473198
30
0.0
11
8.170361
21
3.473198
31
0.0
0
LINE
8
MCD_Layer_0
10
8.170361
20
3.473198
30
0.0
11
8.164501
21
147.473198
31
0.0
0
LINE
8
MCD_Layer_0
10
43.490673
20
-92.433052
30
0.0
11
8.164501
21
3.473198
31
0.0
0
LINE
8
MCD_Layer_0
10
-74.171436
20
99.537651
30
0.0
11
8.164501
21
3.473198
31
0.0
0
LINE
8
MCD_Layer_0
10
8.164501
20
99.520073
30
0.0
11
8.164501
21
3.473198
31
0.0
0
LINE
8
MCD_Layer_0
10
8.164501
20
99.520073
30
0.0
11
8.170361
21
3.473198
31
0.0
0
LINE
8
MCD_Layer_0
10
126.687939
20
129.971245
30
0.0
11
19.144970
21
3.854057
31
0.0
0
LINE
8
MCD_Layer_0
10
8.164501
20
3.479057
30
0.0
11
8.164501
21
3.479057
31
0.0
0
LINE
8
MCD_Layer_0
10
8.164501
20
3.473198
30
0.0
11
104.164501
21
130.363823
31
0.0
0
LINE
8
MCD_Layer_0
10
-87.952686
20
3.473198
30
0.0
11
8.164501
21
-78.862740
31
0.0
0
LINE
8
MCD_Layer_0
10
104.228954
20
3.473198
30
0.0
11
8.164501
21
3.473198
31
0.0
0
LINE
8
MCD_Layer_0
10
104.211376
20
3.473198
30
0.0
11
8.164501
21
3.473198
31
0.0
0
LINE
8
MCD_Layer_0
10
104.211376
20
3.479057
30
0.0
11
8.164501
21
3.473198
31
0.0
0
LINE
8
MCD_Layer_0
10
8.164501
20
3.473198
30
0.0
11
8.164501
21
121.996635
31
0.0
0
LINE
8
MCD_Layer_0
10
134.662548
20
14.436089
30
0.0
11
8.545361
21
3.473198
31
0.0
0
LINE
8
MCD_Layer_0
10
8.170361
20
3.473198
30
0.0
11
8.170361
21
3.473198
31
0.0
0
LINE
8
MCD_Layer_0
10
8.164501
20
3.473198
30
0.0
11
-182.300343
21
99.484917
31
0.0
0
LINE
8
MCD_Layer_0
10
8.164501
20
3.473198
30
0.0
11
-74.171436
21
99.537651
31
0.0
0
LINE
8
MCD_Layer_0
10
8.164501
20
3.473198
30
0.0
11
8.164501
21
99.520073
31
0.0
0
LINE
8
MCD_Layer_0
10
8.164501
20
3.473198
30
0.0
11
126.687939
21
129.971245
31
0.0
0
LINE
8
MCD_Layer_0
10
19.168407
20
3.854057
30
0.0
11
8.164501
21
3.479057
31
0.0
0
LINE
8
MCD_Layer_0
10
-87.835499
20
-9.587349
30
0.0
11
104.287548
21
3.473198
31
0.0
0
LINE
8
MCD_Layer_0
10
8.164501
20
121.996635
30
0.0
11
134.662548
21
14.377495
31
0.0
0
LINE
8
MCD_Layer_0
10
8.170361
20
3.473198
30
0.0
11
8.164501
21
-188.526802
31
0.0
0
LINE
8
MCD_Layer_0
10
134.498486
20
99.660698
30
0.0
11
8.164501
21
3.473198
31
0.0
0
LINE
8
MCD_Layer_0
10
126.687939
20
129.971245
30
0.0
11
19.150829
21
3.842339
31
0.0
0
LINE
8
MCD_Layer_0
10
8.164501
20
3.473198
30
0.0
11
8.164501
21
3.479057
31
0.0
0
LINE
8
MCD_Layer_0
10
8.164501
20
3.473198
30
0.0
11
-39.835499
21
189.889214
31
0.0
0
LINE
8
MCD_Layer_0
10
103.385204
20
3.473198
30
0.0
11
8.164501
21
3.473198
31
0.0
0
LINE
8
MCD_Layer_0
10
104.070751
20
3.473198
30
0.0
11
8.164501
21
3.473198
31
0.0
0
LINE
8
MCD_Layer_0
10
104.070751
20
3.479057
30
0.0
11
8.164501
21
3.473198
31
0.0
0
LINE
8
MCD_Layer_0
10
8.164501
20
3.473198
30
0.0
11
8.164501
21
127.984917
31
0.0
0
LINE
8
MCD_Layer_0
10
0.000000
20
134144.000000
30
0.0
11
0.000000
21
134144.578377
31
0.0
0
LINE
8
MCD_Layer_0
10
0.000000
20
134144.287521
30
0.0
11
0.000000
21
134144.576131
31
0.0
0
LINE
8
MCD_Layer_0
10
0.000000
20
134144.575043
30
0.0
11
0.000000
21
134144.579535
31
0.0
0
LINE
8
MCD_Layer_0
10
0.000000
20
134144.588520
30
0.0
11
0.000000
21
134144.575043
31
0.0
0
LINE
8
MCD_Layer_0
10
0.000000
20
134144.575043
30
0.0
11
0.000000
21
134144.987793
31
0.0
0
LINE
8
MCD_Layer_0
10
0.000000
20
134144.575043
30
0.0
11
0.000000
21
134144.987793
31
0.0
0
LINE
8
MCD_Layer_0
10
0.000000
20
134144.575797
30
0.0
11
0.000000
21
134144.575043
31
0.0
0
LINE
8
MCD_Layer_0
10
0.000000
20
134144.575043
30
0.0
11
0.000000
21
134144.577289
31
0.0
0
LINE
8
MCD_Layer_0
10
0.000000
20
134144.584028
30
0.0
11
0.000000
21
134144.575043
31
0.0
0
LINE
8
MCD_Layer_0
10
0.000000
20
134144.144814
30
0.0
11
0.000000
21
134144.576148
31
0.0
0
LINE
8
MCD_Layer_0
10
0.000000
20
134144.147077
30
0.0
11
0.000000
21
134144.576148
31
0.0
0
LINE
8
MCD_Layer_0
10
0.000000
20
134144.579535
30
0.0
11
0.000000
21
134144.588520
31
0.0
0
LINE
8
MCD_Layer_0
10
0.000000
20
134144.709941
30
0.0
11
0.000000
21
134144.719751
31
0.0
0
LINE
8
MCD_Layer_0
10
0.000000
20
134144.104065
30
0.0
11
0.000000
21
134144.719751
31
0.0
0
LINE
8
MCD_Layer_0
10
0.000001
20
-1.623500
30
0.0
11
0.000000
21
-1.623499
31
0.0
0
LINE
8
MCD_Layer_0
10
0.000001
20
-1.623499
30
0.0
11
0.000000
21
-1.623499
31
0.0
0
LINE
8
MCD_Layer_0
10
-0.014312
20
0.000001
30
0.0
11
-0.014313
21
0.000001
31
0.0
0
LINE
8
MCD_Layer_0
10
-1.439000
20
0.000001
30
0.0
11
-1.438999
21
0.000001
31
0.0
0
LINE
8
MCD_Layer_0
10
-1.439000
20
0.000000
30
0.0
11
-1.438999
21
0.000001
31
0.0
0
LINE
8
MCD_Layer_0
10
-1.439000
20
0.000001
30
0.0
11
-1.438998
21
0.000001
31
0.0
0
LINE
8
MCD_Layer_0
10
1.567501
20
0.000001
30
0.0
11
1.567500
21
0.000001
31
0.0
0
LINE
8
MCD_Layer_0
10
1.567502
20
-0.000000
30
0.0
11
1.567500
21
0.000001
31
0.0
0
LINE
8
MCD_Layer_0
10
1.567502
20
0.000001
30
0.0
11
1.567500
21
0.000001
31
0.0
0
LINE
8
MCD_Layer_0
10
-1.511498
20
0.000000
30
0.0
11
-1.511499
21
0.000001
31
0.0
0
LINE
8
MCD_Layer_0
10
-1.511500
20
0.000001
30
0.0
11
-1.511498
21
0.000001
31
0.0
0
LINE
8
MCD_Layer_0
10
-1.511500
20
0.000000
30
0.0
11
-1.511498
21
0.000001
31
0.0
0
LINE
8
MCD_Layer_0
10
-1.511500
20
0.000001
30
0.0
11
-1.511498
21
0.000001
31
0.0
0
LINE
8
MCD_Layer_0
10
-15.552002
20
0.000001
30
0.0
11
-15.552001
21
0.000001
31
0.0
0
LINE
8
MCD_Layer_0
10
-15.552002
20
0.000000
30
0.0
11
-15.552001
21
0.000001
31
0.0
0
LINE
8
MCD_Layer_0
10
-15.552002
20
0.000001
30
0.0
11
-15.552000
21
0.000001
31
0.0
0
LINE
8
MCD_Layer_0
10
0.000000
20
-1.543500
30
0.0
11
0.000001
21
-1.543499
31
0.0
0
LINE
8
MCD_Layer_0
10
0.000003
20
-1.543500
30
0.0
11
0.000002
21
-1.543499
31
0.0
0
LINE
8
MCD_Layer_0
10
0.000000
20
-1.543499
30
0.0
11
0.000002
21
-1.543499
31
0.0
0
LINE
8
MCD_Layer_0
10
0.000000
20
-1.543499
30
0.0
11
0.000002
21
-1.543499
31
0.0
0
LINE
8
MCD_Layer_0
10
0.000004
20
-1.543499
30
0.0
11
0.000003
21
-1.543499
31
0.0
0
LINE
8
MCD_Layer_0
10
0.000001
20
-1.543500
30
0.0
11
0.000003
21
-1.543499
31
0.0
0
LINE
8
MCD_Layer_0
10
0.000000
20
-1.543500
30
0.0
11
0.000002
21
-1.543499
31
0.0
0
LINE
8
MCD_Layer_0
10
0.000000
20
-1.543500
30
0.0
11
0.000001
21
-1.543499
31
0.0
0
LINE
8
MCD_Layer_0
10
0.000001
20
-1.543500
30
0.0
11
0.000002
21
-1.543499
31
0.0
0
LINE
8
MCD_Layer_0
10
0.000000
20
-1.543499
30
0.0
11
0.000004
21
-1.543499
31
0.0
0
LINE
8
MCD_Layer_0
10
0.000000
20
-952106.000000
30
0.0
11
0.000000
21
-952105.999999
31
0.0
0
LINE
8
MCD_Layer_0
10
1.664751
20
2.000000
30
0.0
11
1.664750
21
2.000001
31
0.0
0
LINE
8
MCD_Layer_0
10
1.664751
20
2.000001
30
0.0
11
1.664750
21
2.000001
31
0.0
0
LINE
8
MCD_Layer_0
10
0.000001
20
-1.453000
30
0.0
11
0.000000
21
-1.452999
31
0.0
0
LINE
8
MCD_Layer_0
10
0.000001
20
-1.452999
30
0.0
11
0.000000
21
-1.452999
31
0.0
0
LINE
8
MCD_Layer_0
10
0.000001
20
0.000001
30
0.0
11
-0.000000
21
0.000001
31
0.0
0
LINE
8
MCD_Layer_0
10
0.000001
20
0.000001
30
0.0
11
0.000000
21
0.000001
31
0.0
0
LINE
8
MCD_Layer_0
10
0.000001
20
0.000001
30
0.0
11
0.000000
21
0.000001
31
0.0
0
LINE
8
MCD_Layer_0
10
0.000000
20
0.000000
30
0.0
11
0.000002
21
0.000001
31
0.0
0
LINE
8
MCD_Layer_0
10
0.000000
20
0.000000
30
0.0
11
0.000002
21
0.000001
31
0.0
0
LINE
8
MCD_Layer_0
10
0.000000
20
0.000000
30
0.0
11
0.000001
21
0.000001
31
0.0
0
LINE
8
MCD_Layer_0
10
0.000001
20
0.000000
30
0.0
11
0.000000
21
0.000001
31
0.0
0
LINE
8
MCD_Layer_0
10
0.000000
20
0.000001
30
0.0
11
0.000002
21
0.000001
31
0.0
0
LINE
8
MCD_Layer_0
10
0.000000
20
0.000001
30
0.0
11
0.000002
21
0.000001
31
0.0
0
LINE
8
MCD_Layer_0
10
1.648752
20
0.000000
30
0.0
11
1.648751
21
0.000001
31
0.0
0
LINE
8
MCD_Layer_0
10
1.648750
20
0.000001
30
0.0
11
1.648752
21
0.000001
31
0.0
0
LINE
8
MCD_Layer_0
10
1.648750
20
0.000000
30
0.0
11
1.648752
21
0.000001
31
0.0
0
LINE
8
MCD_Layer_0
10
1.648750
20
0.000001
30
0.0
11
1.648752
21
0.000001
31
0.0
0
LINE
8
MCD_Layer_0
10
0.000000
20
0.000001
30
0.0
11
0.000001
21
0.000001
31
0.0
0
LINE
8
MCD_Layer_0
10
0.000000
20
0.000000
30
0.0
11
0.000001
21
0.000001
31
0.0
0
LINE
8
MCD_Layer_0
10
0.000000
20
0.000001
30
0.0
11
0.000002
21
0.000001
31
0.0
0
LINE
8
MCD_Layer_0
10
-1.465000
20
0.000000
30
0.0
11
-1.464999
21
0.000001
31
0.0
0
LINE
8
MCD_Layer_0
10
-1.464997
20
-0.000000
30
0.0
11
-1.464998
21
0.000001
31
0.0
0
LINE
8
MCD_Layer_0
10
-1.465000
20
0.000001
30
0.0
11
-1.464999
21
0.000001
31
0.0
0
LINE
8
MCD_Layer_0
10
-1.465000
20
0.000001
30
0.0
11
-1.464998
21
0.000001
31
0.0
0
LINE
8
MCD_Layer_0
10
-1.465000
20
0.000000
30
0.0
11
-1.464998
21
0.000001
31
0.0
0
LINE
8
MCD_Layer_0
10
-1.465000
20
0.000001
30
0.0
11
-1.464997
21
0.000001
31
0.0
0
LINE
8
MCD_Layer_0
10
-2.000000
20
-1.464999
30
0.0
11
-1.999999
21
-1.464999
31
0.0
0
LINE
8
MCD_Layer_0
10
-2.000000
20
-1.465000
30
0.0
11
-1.999999
21
-1.464999
31
0.0
0
LINE
8
MCD_Layer_0
10
-2.000000
20
-1.464999
30
0.0
11
-1.999998
21
-1.464999
31
0.0
0
LINE
8
MCD_Layer_0
10
0.000000
20
1.393001
30
0.0
11
0.000001
21
1.393001
31
0.0
0
LINE
8
MCD_Layer_0
10
0.000000
20
1.393000
30
0.0
11
0.000001
21
1.393001
31
0.0
0
LINE
8
MCD_Layer_0
10
0.000000
20
1.393001
30
0.0
11
0.000002
21
1.393001
31
0.0
0
LINE
8
MCD_Layer_0
10
-1.565862
20
0.000001
30
0.0
11
-1.565861
21
0.000001
31
0.0
0
LINE
8
MCD_Layer_0
10
-1.565862
20
0.000000
30
0.0
11
-1.565861
21
0.000001
31
0.0
0
LINE
8
MCD_Layer_0
10
-1.565862
20
0.000001
30
0.0
11
-1.565860
21
0.000001
31
0.0
0
LINE
8
MCD_Layer_0
10
0.000001
20
-1.469724
30
0.0
11
0.000000
21
-1.469723
31
0.0
0
LINE
8
MCD_Layer_0
10
0.000002
20
-1.469724
30
0.0
11
0.000000
21
-1.469723
31
0.0
0
LINE
8
MCD_Layer_0
10
0.000002
20
-1.469723
30
0.0
11
0.000000
21
-1.469723
31
0.0
0
LINE
8
MCD_Layer_0
10
-0.000196
20
0.000001
30
0.0
11
-0.000197
21
0.000001
31
0.0
0
LINE
8
MCD_Layer_0
10
0.000000
20
-1.597861
30
0.0
11
0.000001
21
-1.597861
31
0.0
0
LINE
8
MCD_Layer_0
10
0.000000
20
-1.597862
30
0.0
11
0.000001
21
-1.597861
31
0.0
0
LINE
8
MCD_Layer_0
10
0.000000
20
-1.597861
30
0.0
11
0.000002
21
-1.597861
31
0.0
0
LINE
8
MCD_Layer_0
10
1.573138
20
2.000000
30
0.0
11
1.573139
21
2.000001
31
0.0
0
LINE
8
MCD_Layer_0
10
1.573141
20
2.000000
30
0.0
11
1.573140
21
2.000001
31
0.0
0
LINE
8
MCD_Layer_0
10
1.573138
20
2.000001
30
0.0
11
1.573139
21
2.000001
31
0.0
0
LINE
8
MCD_Layer_0
10
1.573138
20
2.000001
30
0.0
11
1.573140
21
2.000001
31
0.0
0
LINE
8
MCD_Layer_0
10
1.573141
20
2.000001
30
0.0
11
1.573140
21
2.000001
31
0.0
0
LINE
8
MCD_Layer_0
10
1.573139
20
2.000000
30
0.0
11
1.573140
21
2.000001
31
0.0
0
LINE
8
MCD_Layer_0
10
1.573138
20
2.000000
30
0.0
11
1.573140
21
2.000001
31
0.0
0
LINE
8
MCD_Layer_0
10
1.573138
20
2.000001
30
0.0
11
1.573141
21
2.000001
31
0.0
0
LINE
8
MCD_Layer_0
10
1.573138
20
0.000000
30
0.0
11
1.573139
21
0.000001
31
0.0
0
LINE
8
MCD_Layer_0
10
1.573141
20
0.000000
30
0.0
11
1.573140
21
0.000001
31
0.0
0
LINE
8
MCD_Layer_0
10
1.573138
20
0.000001
30
0.0
11
1.573139
21
0.000001
31
0.0
0
LINE
8
MCD_Layer_0
10
1.573138
20
0.000001
30
0.0
11
1.573140
21
0.000001
31
0.0
0
LINE
8
MCD_Layer_0
10
1.573141
20
0.000001
30
0.0
11
1.573140
21
0.000001
31
0.0
0
LINE
8
MCD_Layer_0
10
1.573139
20
0.000000
30
0.0
11
1.573140
21
0.000001
31
0.0
0
LINE
8
MCD_Layer_0
10
1.573138
20
0.000000
30
0.0
11
1.573140
21
0.000001
31
0.0
0
LINE
8
MCD_Layer_0
10
1.573138
20
0.000001
30
0.0
11
1.573141
21
0.000001
31
0.0
0
LINE
8
MCD_Layer_0
10
0.000000
20
1.531139
30
0.0
11
0.000001
21
1.531139
31
0.0
0
LINE
8
MCD_Layer_0
10
0.000000
20
1.531138
30
0.0
11
0.000001
21
1.531139
31
0.0
0
LINE
8
MCD_Layer_0
10
0.000000
20
1.531139
30
0.0
11
0.000002
21
1.531139
31
0.0
0
LINE
8
MCD_Layer_0
10
1.520139
20
0.000001
30
0.0
11
1.520138
21
0.000001
31
0.0
0
LINE
8
MCD_Layer_0
10
1.520140
20
-0.000000
30
0.0
11
1.520138
21
0.000001
31
0.0
0
LINE
8
MCD_Layer_0
10
1.520140
20
0.000001
30
0.0
11
1.520138
21
0.000001
31
0.0
0
LINE
8
MCD_Layer_0
10
-1.999999
20
-1.535862
30
0.0
11
-2.000000
21
-1.535861
31
0.0
0
LINE
8
MCD_Layer_0
10
-1.999999
20
-1.535861
30
0.0
11
-2.000000
21
-1.535861
31
0.0
0
LINE
8
MCD_Layer_0
10
0.000001
20
-1.562862
30
0.0
11
0.000000
21
-1.562861
31
0.0
0
LINE
8
MCD_Layer_0
10
0.000002
20
-1.562862
30
0.0
11
0.000000
21
-1.562861
31
0.0
0
LINE
8
MCD_Layer_0
10
0.000002
20
-1.562861
30
0.0
11
0.000000
21
-1.562861
31
0.0
0
LINE
8
MCD_Layer_0
10
0.000000
20
0.946913
30
0.0
11
0.000001
21
0.946913
31
0.0
0
LINE
8
MCD_Layer_0
10
0.000000
20
0.946912
30
0.0
11
0.000001
21
0.946913
31
0.0
0
LINE
8
MCD_Layer_0
10
0.000000
20
0.946913
30
0.0
11
0.000002
21
0.946913
31
0.0
0
LINE
8
MCD_Layer_0
10
0.000002
20
0.000000
30
0.0
11
0.000000
21
0.000001
31
0.0
0
LINE
8
MCD_Layer_0
10
0.000002
20
0.000000
30
0.0
11
0.000000
21
0.000001
31
0.0
0
LINE
8
MCD_Layer_0
10
0.000002
20
0.000001
30
0.0
11
0.000001
21
0.000001
31
0.0
0
LINE
8
MCD_Layer_0
10
0.000003
20
0.000000
30
0.0
11
0.000000
21
0.000001
31
0.0
0
LINE
8
MCD_Layer_0
10
-6.026914
20
3.814854
30
0.0
11
-7.191564
21
5.046813
31
0.0
0
LINE
8
MCD_Layer_0
10
-6.026914
20
3.753707
30
0.0
11
-6.192870
21
5.046860
31
0.0
0
LINE
8
MCD_Layer_0
10
-6.026914
20
5.037784
30
0.0
11
-6.026914
21
5.050013
31
0.0
0
LINE
8
MCD_Layer_0
10
-6.026914
20
5.074472
30
0.0
11
-6.020800
21
5.037784
31
0.0
0
LINE
8
MCD_Layer_0
10
-6.002456
20
5.037784
30
0.0
11
-7.310991
21
4.871829
31
0.0
0
LINE
8
MCD_Layer_0
10
-6.017838
20
5.037784
30
0.0
11
-7.310991
21
4.871829
31
0.0
0
LINE
8
MCD_Layer_0
10
-5.565354
20
5.832975
30
0.0
11
-6.023953
21
5.037784
31
0.0
0
LINE
8
MCD_Layer_0
10
-6.014685
20
5.037784
30
0.0
11
-5.990226
21
5.043899
31
0.0
0
LINE
8
MCD_Layer_0
10
-6.026914
20
5.062243
30
0.0
11
-6.026914
21
3.753707
31
0.0
0
LINE
8
MCD_Layer_0
10
-6.192870
20
5.499344
30
0.0
11
-5.231723
21
4.086860
31
0.0
0
LINE
8
MCD_Layer_0
10
-6.618650
20
5.499344
30
0.0
11
-5.231723
21
5.040746
31
0.0
0
LINE
8
MCD_Layer_0
10
-6.026914
20
5.050013
30
0.0
11
-6.026914
21
5.074472
31
0.0
0
LINE
8
MCD_Layer_0
10
-6.020800
20
5.037784
30
0.0
11
-6.002456
21
5.037784
31
0.0
0
LINE
8
MCD_Layer_0
10
-6.980800
20
4.446048
30
0.0
11
-5.565354
21
5.832975
31
0.0
0
LINE
8
MCD_Layer_0
10
-6.977838
20
4.446048
30
0.0
11
-6.005609
21
6.407465
31
0.0
0
LINE
8
MCD_Layer_0
10
-6.023905
20
5.037784
30
0.0
11
-6.014685
21
5.037784
31
0.0
0
LINE
8
MCD_Layer_0
10
-5.990226
20
5.043899
30
0.0
11
-6.026914
21
5.062243
31
0.0
0
LINE
8
MCD_Layer_0
10
-6.026914
20
4.083899
30
0.0
11
-6.618650
21
5.059090
31
0.0
0
LINE
8
MCD_Layer_0
10
-4.657233
20
3.756717
30
0.0
11
-6.192870
21
5.059090
31
0.0
0
LINE
8
MCD_Layer_0
10
-4.657233
20
5.040793
30
0.0
11
-6.026914
21
5.050013
31
0.0
0
LINE
8
MCD_Layer_0
10
-6.005609
20
6.407465
30
0.0
11
-7.307981
21
4.871829
31
0.0
0
LINE
8
MCD_Layer_0
10
-6.739367
20
3.669631
30
0.0
11
-6.023905
21
5.037784
31
0.0
0
LINE
8
MCD_Layer_0
10
-6.192870
20
4.325332
30
0.0
11
-7.395067
21
3.817864
31
0.0
0
LINE
8
MCD_Layer_0
10
-7.191564
20
4.325284
30
0.0
11
-7.395067
21
5.040793
31
0.0
0
LINE
8
MCD_Layer_0
10
-7.249844
20
3.873134
30
0.0
11
-6.739414
21
3.669631
31
0.0
0
LINE
8
MCD_Layer_0
10
-7.246835
20
3.873134
30
0.0
11
-6.005656
21
6.407465
31
0.0
0
LINE
8
MCD_Layer_0
10
-6.026914
20
3.814854
30
0.0
11
-7.191564
21
5.059042
31
0.0
0
LINE
8
MCD_Layer_0
10
-4.657233
20
4.918500
30
0.0
11
-5.682583
21
5.059090
31
0.0
0
LINE
8
MCD_Layer_0
10
-6.002456
20
5.037784
30
0.0
11
-6.149207
21
5.382115
31
0.0
0
LINE
8
MCD_Layer_0
10
-6.005609
20
6.407465
30
0.0
11
-6.146198
21
5.382115
31
0.0
0
LINE
8
MCD_Layer_0
10
-4.782679
20
5.811048
30
0.0
11
-6.023905
21
5.037784
31
0.0
0
LINE
8
MCD_Layer_0
10
-6.026914
20
5.062243
30
0.0
11
-6.026914
21
4.915491
31
0.0
0
LINE
8
MCD_Layer_0
10
-5.682583
20
6.282020
30
0.0
11
-5.253650
21
5.811239
31
0.0
0
LINE
8
MCD_Layer_0
10
-5.657503
20
6.275905
30
0.0
11
-5.253650
21
5.040793
31
0.0
0
LINE
8
MCD_Layer_0
10
-5.256468
20
5.407195
30
0.0
11
-4.788793
21
5.811048
31
0.0
0
LINE
8
MCD_Layer_0
10
-5.253459
20
5.407195
30
0.0
11
-6.011723
21
6.407465
31
0.0
0
LINE
8
MCD_Layer_0
10
-6.026914
20
5.808230
30
0.0
11
-5.657503
21
5.052975
31
0.0
0
LINE
8
MCD_Layer_0
10
-4.657233
20
4.710602
30
0.0
11
-7.166532
21
5.052927
31
0.0
0
LINE
8
MCD_Layer_0
10
-6.002456
20
5.037784
30
0.0
11
-6.357105
21
3.898166
31
0.0
0
LINE
8
MCD_Layer_0
10
-6.011771
20
6.407465
30
0.0
11
-6.354096
21
3.898166
31
0.0
0
LINE
8
MCD_Layer_0
10
-6.745529
20
3.669631
30
0.0
11
-6.023905
21
5.037784
31
0.0
0
LINE
8
MCD_Layer_0
10
-6.026914
20
5.062243
30
0.0
11
-6.026914
21
4.707593
31
0.0
0
LINE
8
MCD_Layer_0
10
-7.166532
20
4.319169
30
0.0
11
-7.395067
21
3.756717
31
0.0
0
LINE
8
MCD_Layer_0
10
-6.192870
20
4.319217
30
0.0
11
-7.395067
21
5.040793
31
0.0
0
LINE
8
MCD_Layer_0
10
-7.310991
20
4.871829
30
0.0
11
-6.745481
21
3.669631
31
0.0
0
LINE
8
MCD_Layer_0
10
-7.307981
20
4.871829
30
0.0
11
-6.011723
21
6.407465
31
0.0
0
LINE
8
MCD_Layer_0
10
-6.026914
20
3.753707
30
0.0
11
-6.192870
21
5.052975
31
0.0
0
LINE
8
MCD_Layer_0
10
-4.657233
20
4.086908
30
0.0
11
-6.618650
21
5.052975
31
0.0
0
LINE
8
MCD_Layer_0
10
-6.002456
20
5.037784
30
0.0
11
-6.980800
21
4.446048
31
0.0
0
LINE
8
MCD_Layer_0
10
-6.011723
20
6.407465
30
0.0
11
-6.977790
21
4.446048
31
0.0
0
LINE
8
MCD_Layer_0
10
-5.571468
20
5.832975
30
0.0
11
-6.023953
21
5.037784
31
0.0
0
LINE
8
MCD_Layer_0
10
-6.026914
20
5.062243
30
0.0
11
-6.026914
21
4.083899
31
0.0
0
LINE
8
MCD_Layer_0
10
-6.618650
20
5.493230
30
0.0
11
-5.231723
21
3.756669
31
0.0
0
LINE
8
MCD_Layer_0
10
-6.192870
20
5.493230
30
0.0
11
-5.231723
21
5.040746
31
0.0
0
LINE
8
MCD_Layer_0
10
-7.310991
20
4.871829
30
0.0
11
-5.571468
21
5.832975
31
0.0
0
LINE
8
MCD_Layer_0
10
-7.308029
20
4.871829
30
0.0
11
-6.023953
21
5.037784
31
0.0
0
LINE
8
MCD_Layer_0
10
-6.026914
20
5.037784
30
0.0
11
-6.014685
21
5.037784
31
0.0
0
LINE
8
MCD_Layer_0
10
-6.026914
20
3.753707
30
0.0
11
-6.192870
21
5.040746
31
0.0
0
LINE
8
MCD_Layer_0
10
-6.026914
20
4.707593
30
0.0
11
-7.166532
21
5.040698
31
0.0
0
LINE
8
MCD_Layer_0
10
-6.024000
20
5.037784
30
0.0
11
-6.357105
21
3.898166
31
0.0
0
LINE
8
MCD_Layer_0
10
-5.571516
20
5.832975
30
0.0
11
-6.023953
21
5.037784
31
0.0
0
LINE
8
MCD_Layer_0
10
-7.166532
20
5.493182
30
0.0
11
-5.231723
21
5.811192
31
0.0
0
LINE
8
MCD_Layer_0
10
-5.657503
20
5.493230
30
0.0
11
-5.231723
21
5.040746
31
0.0
0
LINE
8
MCD_Layer_0
10
-5.256468
20
5.407195
30
0.0
11
-5.571468
21
5.832975
31
0.0
0
LINE
8
MCD_Layer_0
10
-5.253507
20
5.407195
30
0.0
11
-6.549812
21
5.153580
31
0.0
0
LINE
8
MCD_Layer_0
10
-6.026914
20
5.808230
30
0.0
11
-5.657503
21
4.514886
31
0.0
0
LINE
8
MCD_Layer_0
10
-5.911118
20
4.918500
30
0.0
11
-5.682583
21
4.521000
31
0.0
0
LINE
8
MCD_Layer_0
10
-5.911118
20
5.040793
30
0.0
11
-6.026914
21
5.050013
31
0.0
0
LINE
8
MCD_Layer_0
10
-6.543698
20
5.153580
30
0.0
11
-6.146198
21
5.382115
31
0.0
0
LINE
8
MCD_Layer_0
10
-5.682583
20
5.499344
30
0.0
11
-5.231723
21
3.817816
31
0.0
0
LINE
8
MCD_Layer_0
10
-7.191564
20
5.499297
30
0.0
11
-5.231723
21
5.040746
31
0.0
0
LINE
8
MCD_Layer_0
10
-7.249844
20
3.873134
30
0.0
11
-5.565402
21
5.832975
31
0.0
0
LINE
8
MCD_Layer_0
10
-7.246882
20
3.873134
30
0.0
11
-6.017886
21
5.037784
31
0.0
0
LINE
8
MCD_Layer_0
10
-6.026914
20
5.783771
30
0.0
11
-5.745163
21
5.499344
31
0.0
0
LINE
8
MCD_Layer_0
10
-7.579749
20
5.786685
30
0.0
11
-5.745163
21
5.266988
31
0.0
0
LINE
8
MCD_Layer_0
10
-6.020656
20
5.040746
30
0.0
11
-6.026914
21
5.050013
31
0.0
0
LINE
8
MCD_Layer_0
10
-6.002456
20
5.037784
30
0.0
11
-5.280927
21
5.319536
31
0.0
0
LINE
8
MCD_Layer_0
10
-5.797710
20
5.044042
30
0.0
11
-6.072870
21
5.645093
31
0.0
0
LINE
8
MCD_Layer_0
10
-5.797710
20
5.044042
30
0.0
11
-6.023953
21
5.037784
31
0.0
0
LINE
8
MCD_Layer_0
10
-6.014685
20
5.037784
30
0.0
11
-5.843475
21
5.043899
31
0.0
0
LINE
8
MCD_Layer_0
10
-6.026914
20
5.074472
30
0.0
11
-6.026914
21
4.988867
31
0.0
0
LINE
8
MCD_Layer_0
10
-5.419605
20
5.266988
30
0.0
11
-6.020656
21
5.994631
31
0.0
0
LINE
8
MCD_Layer_0
10
-5.043889
20
4.863421
30
0.0
11
-5.857902
21
5.138580
31
0.0
0
LINE
8
MCD_Layer_0
10
-4.893602
20
5.413739
30
0.0
11
-5.494701
21
5.040746
31
0.0
0
LINE
8
MCD_Layer_0
10
-5.929080
20
6.171096
30
0.0
11
-5.650959
21
5.569997
31
0.0
0
LINE
8
MCD_Layer_0
10
-5.926118
20
6.171096
30
0.0
11
-7.265226
21
5.350825
31
0.0
0
LINE
8
MCD_Layer_0
10
-6.026914
20
5.135618
30
0.0
11
-4.893602
21
3.799472
31
0.0
0
LINE
8
MCD_Layer_0
10
-5.713873
20
5.591112
30
0.0
11
-4.881086
21
3.793357
31
0.0
0
LINE
8
MCD_Layer_0
10
-5.713873
20
5.040793
30
0.0
11
-6.026914
21
5.050013
31
0.0
0
LINE
8
MCD_Layer_0
10
-6.002456
20
5.037784
30
0.0
11
-5.476596
21
6.183612
31
0.0
0
LINE
8
MCD_Layer_0
10
-7.271341
20
5.350825
30
0.0
11
-5.473586
21
6.183612
31
0.0
0
LINE
8
MCD_Layer_0
10
-7.210195
20
5.578739
30
0.0
11
-6.023953
21
5.037784
31
0.0
0
LINE
8
MCD_Layer_0
10
-6.026914
20
5.074472
30
0.0
11
-6.026914
21
5.588102
31
0.0
0
LINE
8
MCD_Layer_0
10
-4.881086
20
3.854504
30
0.0
11
-5.485959
21
5.994631
31
0.0
0
LINE
8
MCD_Layer_0
10
-5.043889
20
4.857306
30
0.0
11
-5.857902
21
4.991829
31
0.0
0
LINE
8
MCD_Layer_0
10
-5.419605
20
5.260873
30
0.0
11
-6.020656
21
5.040746
31
0.0
0
LINE
8
MCD_Layer_0
10
-6.075831
20
5.645093
30
0.0
11
-5.803825
21
5.044042
31
0.0
0
LINE
8
MCD_Layer_0
10
-7.528156
20
5.256908
30
0.0
11
-5.803825
21
5.044042
31
0.0
0
LINE
8
MCD_Layer_0
10
-6.023953
20
5.037784
30
0.0
11
-6.014685
21
5.037784
31
0.0
0
LINE
8
MCD_Layer_0
10
-6.026914
20
3.533580
30
0.0
11
-5.807790
21
5.260873
31
0.0
0
LINE
8
MCD_Layer_0
10
-6.020656
20
3.536542
30
0.0
11
-5.807790
21
5.493230
31
0.0
0
LINE
8
MCD_Layer_0
10
-7.579749
20
5.040698
30
0.0
11
-6.026914
21
5.050013
31
0.0
0
LINE
8
MCD_Layer_0
10
-6.002456
20
5.037784
30
0.0
11
-7.531118
21
5.256908
31
0.0
0
LINE
8
MCD_Layer_0
10
-5.571468
20
3.484950
30
0.0
11
-5.852790
21
4.477386
31
0.0
0
LINE
8
MCD_Layer_0
10
-5.571468
20
3.484950
30
0.0
11
-6.024000
21
5.037784
31
0.0
0
LINE
8
MCD_Layer_0
10
-6.026914
20
5.062243
30
0.0
11
-6.026914
21
5.208994
31
0.0
0
LINE
8
MCD_Layer_0
10
-6.587312
20
5.493230
30
0.0
11
-7.579749
21
5.211908
31
0.0
0
LINE
8
MCD_Layer_0
10
-6.587312
20
5.260873
30
0.0
11
-6.020656
21
5.040746
31
0.0
0
LINE
8
MCD_Layer_0
10
-5.855704
20
4.477386
30
0.0
11
-5.803825
21
5.044042
31
0.0
0
LINE
8
MCD_Layer_0
10
-5.449175
20
4.314583
30
0.0
11
-5.803825
21
5.044042
31
0.0
0
LINE
8
MCD_Layer_0
10
-5.843475
20
5.043899
30
0.0
11
-6.026914
21
5.074472
31
0.0
0
LINE
8
MCD_Layer_0
10
-6.026914
20
5.612561
30
0.0
11
-6.750115
21
5.260873
31
0.0
0
LINE
8
MCD_Layer_0
10
-6.020656
20
5.126351
30
0.0
11
-6.937949
21
4.857306
31
0.0
0
LINE
8
MCD_Layer_0
10
-5.857902
20
5.542147
30
0.0
11
-7.013093
21
5.407625
31
0.0
0
LINE
8
MCD_Layer_0
10
-5.494701
20
5.040746
30
0.0
11
-6.026914
21
5.050013
31
0.0
0
LINE
8
MCD_Layer_0
10
-6.002456
20
5.037784
30
0.0
11
-5.525513
21
4.051606
31
0.0
0
LINE
8
MCD_Layer_0
10
-5.657074
20
5.569997
30
0.0
11
-5.522551
21
4.051606
31
0.0
0
LINE
8
MCD_Layer_0
10
-5.204589
20
6.473198
30
0.0
11
-6.023905
21
5.037784
31
0.0
0
LINE
8
MCD_Layer_0
10
-6.026914
20
5.074472
30
0.0
11
-6.026914
21
5.539185
31
0.0
0
LINE
8
MCD_Layer_0
10
-7.013093
20
5.860109
30
0.0
11
-4.591500
21
5.126399
31
0.0
0
LINE
8
MCD_Layer_0
10
-6.937949
20
4.429281
30
0.0
11
-4.500736
21
5.615571
31
0.0
0
LINE
8
MCD_Layer_0
10
-6.750115
20
6.239217
30
0.0
11
-7.591500
21
5.040793
31
0.0
0
LINE
8
MCD_Layer_0
10
-5.452137
20
4.314583
30
0.0
11
-4.825481
21
3.473198
31
0.0
0
LINE
8
MCD_Layer_0
10
-5.852695
20
4.477386
30
0.0
11
-4.825481
21
3.473198
31
0.0
0
LINE
8
MCD_Layer_0
10
-6.026914
20
5.208994
30
0.0
11
-6.587312
21
6.239217
31
0.0
0
LINE
8
MCD_Layer_0
10
-7.591500
20
5.212004
30
0.0
11
-6.587312
21
6.239217
31
0.0
0
LINE
8
MCD_Layer_0
10
-7.493666
20
5.040793
30
0.0
11
-6.026914
21
5.050013
31
0.0
0
LINE
8
MCD_Layer_0
10
-6.002456
20
5.037784
30
0.0
11
-5.855704
21
4.477386
31
0.0
0
LINE
8
MCD_Layer_0
10
-4.825481
20
3.571032
30
0.0
11
-7.528109
21
5.256908
31
0.0
0
LINE
8
MCD_Layer_0
10
-4.825481
20
3.571032
30
0.0
11
-6.023905
21
5.037784
31
0.0
0
LINE
8
MCD_Layer_0
10
-6.026914
20
5.062243
30
0.0
11
-6.026914
21
3.533580
31
0.0
0
LINE
8
MCD_Layer_0
10
-5.807790
20
6.239217
30
0.0
11
-7.493666
21
3.536590
31
0.0
0
LINE
8
MCD_Layer_0
10
-5.807790
20
6.239217
30
0.0
11
-7.591500
21
5.040793
31
0.0
0
LINE
8
MCD_Layer_0
10
-7.531118
20
5.256908
30
0.0
11
-4.825481
21
3.473198
31
0.0
0
LINE
8
MCD_Layer_0
10
-6.072822
20
5.645093
30
0.0
11
-4.825481
21
3.473198
31
0.0
0
LINE
8
MCD_Layer_0
10
-6.026914
20
4.988867
30
0.0
11
-5.419605
21
6.239217
31
0.0
0
LINE
8
MCD_Layer_0
10
-7.591500
20
5.994679
30
0.0
11
-5.043889
21
4.429281
31
0.0
0
LINE
8
MCD_Layer_0
10
-4.500736
20
5.591112
30
0.0
11
-4.881086
21
6.251446
31
0.0
0
LINE
8
MCD_Layer_0
10
-4.593698
20
5.040793
30
0.0
11
-6.026914
21
5.050013
31
0.0
0
LINE
8
MCD_Layer_0
10
-4.813252
20
6.471000
30
0.0
11
-5.473586
21
6.183612
31
0.0
0
LINE
8
MCD_Layer_0
10
-7.197965
20
5.613803
30
0.0
11
-6.023905
21
5.037784
31
0.0
0
LINE
8
MCD_Layer_0
10
-6.026914
20
5.062243
30
0.0
11
-6.026914
21
5.588102
31
0.0
0
LINE
8
MCD_Layer_0
10
-4.881086
20
3.866733
30
0.0
11
-5.450895
21
5.138628
31
0.0
0
LINE
8
MCD_Layer_0
10
-4.893602
20
3.872848
30
0.0
11
-5.450895
21
5.040793
31
0.0
0
LINE
8
MCD_Layer_0
10
-5.929080
20
6.171096
30
0.0
11
-7.191851
21
5.613803
31
0.0
0
LINE
8
MCD_Layer_0
10
-5.926070
20
6.171096
30
0.0
11
-5.198475
21
6.473198
31
0.0
0
LINE
8
MCD_Layer_0
10
-6.026914
20
5.135618
30
0.0
11
-4.893602
21
5.866223
31
0.0
0
LINE
8
MCD_Layer_0
10
-4.591500
20
5.994679
30
0.0
11
-5.043889
21
4.435395
31
0.0
0
LINE
8
MCD_Layer_0
10
-4.500736
20
4.991876
30
0.0
11
-5.419605
21
6.245332
31
0.0
0
LINE
8
MCD_Layer_0
10
-7.591500
20
5.040793
30
0.0
11
-6.026914
21
5.050013
31
0.0
0
LINE
8
MCD_Layer_0
10
-6.002456
20
5.037784
30
0.0
11
-6.075831
21
5.645093
31
0.0
0
LINE
8
MCD_Layer_0
10
-4.819367
20
3.473198
30
0.0
11
-4.849892
21
5.244392
31
0.0
0
LINE
8
MCD_Layer_0
10
-4.819367
20
3.473198
30
0.0
11
-6.023905
21
5.037784
31
0.0
0
LINE
8
MCD_Layer_0
10
-6.026914
20
5.062243
30
0.0
11
-6.026914
21
6.211797
31
0.0
0
LINE
8
MCD_Layer_0
10
-5.820306
20
6.245332
30
0.0
11
-7.591500
21
6.214806
31
0.0
0
LINE
8
MCD_Layer_0
10
-5.820306
20
6.245332
30
0.0
11
-7.493666
21
5.040793
31
0.0
0
LINE
8
MCD_Layer_0
10
-4.852902
20
5.244392
30
0.0
11
-4.819367
21
3.571032
31
0.0
0
LINE
8
MCD_Layer_0
10
-5.852695
20
4.477386
30
0.0
11
-4.819367
21
3.571032
31
0.0
0
LINE
8
MCD_Layer_0
10
-6.026914
20
5.208994
30
0.0
11
-6.587312
21
6.245332
31
0.0
0
LINE
8
MCD_Layer_0
10
-7.493666
20
5.212004
30
0.0
11
-6.587312
21
6.245332
31
0.0
0
LINE
8
MCD_Layer_0
10
-4.819367
20
3.473198
30
0.0
11
-5.449128
21
4.314583
31
0.0
0
LINE
8
MCD_Layer_0
10
-6.026914
20
5.074472
30
0.0
11
-6.026914
21
5.612561
31
0.0
0
LINE
8
MCD_Layer_0
10
-6.750115
20
6.245332
30
0.0
11
-7.591500
21
5.126399
31
0.0
0
LINE
8
MCD_Layer_0
10
-6.937949
20
4.435395
30
0.0
11
-4.500736
21
5.542195
31
0.0
0
LINE
8
MCD_Layer_0
10
-7.013093
20
5.866223
30
0.0
11
-4.591500
21
5.040793
31
0.0
0
LINE
8
MCD_Layer_0
10
-5.525513
20
4.051606
30
0.0
11
-5.198475
21
6.473198
31
0.0
0
LINE
8
MCD_Layer_0
10
-5.522503
20
4.051606
30
0.0
11
-5.650959
21
5.569997
31
0.0
0
LINE
8
MCD_Layer_0
10
-6.026914
20
5.539185
30
0.0
11
-7.013093
21
5.413739
31
0.0
0
LINE
8
MCD_Layer_0
10
-5.494701
20
5.126351
30
0.0
11
-6.937949
21
4.863421
31
0.0
0
LINE
8
MCD_Layer_0
10
-5.857902
20
5.615523
30
0.0
11
-6.750115
21
5.266988
31
0.0
0
LINE
8
MCD_Layer_0
10
-6.002456
20
5.037784
30
0.0
11
-5.452137
21
4.314583
31
0.0
0
LINE
8
MCD_Layer_0
10
-5.797710
20
5.044042
30
0.0
11
-5.852742
21
4.477386
31
0.0
0
LINE
8
MCD_Layer_0
10
-6.587312
20
5.266988
30
0.0
11
-6.020656
21
5.211956
31
0.0
0
LINE
8
MCD_Layer_0
10
-6.587312
20
5.499344
30
0.0
11
-7.579749
21
5.040698
31
0.0
0
LINE
8
MCD_Layer_0
10
-5.855704
20
4.477386
30
0.0
11
-5.565354
21
3.484950
31
0.0
0
LINE
8
MCD_Layer_0
10
-5.278013
20
5.319536
30
0.0
11
-5.565354
21
3.484950
31
0.0
0
LINE
8
MCD_Layer_0
10
-6.024000
20
5.037784
30
0.0
11
-6.014685
21
5.037784
31
0.0
0
LINE
8
MCD_Layer_0
10
-2.509157
20
4.849301
30
0.0
11
-3.495845
21
4.988243
31
0.0
0
LINE
8
MCD_Layer_0
10
-2.509157
20
4.293166
30
0.0
11
-1.465431
21
4.988243
31
0.0
0
LINE
8
MCD_Layer_0
10
-2.509157
20
4.979461
30
0.0
11
-2.509157
21
4.991294
31
0.0
0
LINE
8
MCD_Layer_0
10
-2.509157
20
5.156951
30
0.0
11
-2.503241
21
4.979461
31
0.0
0
LINE
8
MCD_Layer_0
10
-2.473659
20
4.979461
30
0.0
11
-3.195452
21
6.023186
31
0.0
0
LINE
8
MCD_Layer_0
10
-2.500375
20
4.979461
30
0.0
11
-3.917246
21
5.750573
31
0.0
0
LINE
8
MCD_Layer_0
10
-1.044955
20
5.558615
30
0.0
11
-2.518216
21
5.368876
31
0.0
0
LINE
8
MCD_Layer_0
10
-1.246111
20
4.897048
30
0.0
11
-2.506430
21
4.979461
31
0.0
0
LINE
8
MCD_Layer_0
10
-2.497324
20
4.979461
30
0.0
11
-2.331667
21
4.985377
31
0.0
0
LINE
8
MCD_Layer_0
10
-2.509157
20
5.014959
30
0.0
11
-2.509157
21
4.967628
31
0.0
0
LINE
8
MCD_Layer_0
10
-2.119742
20
6.242507
30
0.0
11
-2.591570
21
5.313503
31
0.0
0
LINE
8
MCD_Layer_0
10
-3.504119
20
4.183575
30
0.0
11
-3.793557
21
4.798828
31
0.0
0
LINE
8
MCD_Layer_0
10
-3.117893
20
5.792726
30
0.0
11
-2.688496
21
4.988151
31
0.0
0
LINE
8
MCD_Layer_0
10
-2.509157
20
4.991294
30
0.0
11
-2.509157
21
5.156951
31
0.0
0
LINE
8
MCD_Layer_0
10
-2.503241
20
4.979461
30
0.0
11
-2.473659
21
4.979461
31
0.0
0
LINE
8
MCD_Layer_0
10
-2.698480
20
4.370725
30
0.0
11
-1.695891
21
4.800122
31
0.0
0
LINE
8
MCD_Layer_0
10
-2.784452
20
5.086741
30
0.0
11
-1.547844
21
5.325983
31
0.0
0
LINE
8
MCD_Layer_0
10
-3.944100
20
6.265710
30
0.0
11
-2.092147
21
6.455264
31
0.0
0
LINE
8
MCD_Layer_0
10
-2.506337
20
4.979461
30
0.0
11
-2.497324
21
4.979461
31
0.0
0
LINE
8
MCD_Layer_0
10
-2.331667
20
4.985377
30
0.0
11
-2.509157
21
5.014959
31
0.0
0
LINE
8
MCD_Layer_0
10
-2.509157
20
4.825636
30
0.0
11
-1.220504
21
4.532685
31
0.0
0
LINE
8
MCD_Layer_0
10
-1.023694
20
5.621245
30
0.0
11
-3.923439
21
5.680455
31
0.0
0
LINE
8
MCD_Layer_0
10
-3.095614
20
6.473198
30
0.0
11
-3.554500
21
4.012047
31
0.0
0
LINE
8
MCD_Layer_0
10
-1.358105
20
4.982327
30
0.0
11
-2.509157
21
4.991294
31
0.0
0
LINE
8
MCD_Layer_0
10
-2.473659
20
4.979461
30
0.0
11
-1.018239
21
3.934118
31
0.0
0
LINE
8
MCD_Layer_0
10
-3.476571
20
6.130512
30
0.0
11
-3.807886
21
3.991063
31
0.0
0
LINE
8
MCD_Layer_0
10
-1.737167
20
3.873198
30
0.0
11
-3.476571
21
6.464416
31
0.0
0
LINE
8
MCD_Layer_0
10
-2.151311
20
5.081841
30
0.0
11
-2.506245
21
4.979461
31
0.0
0
LINE
8
MCD_Layer_0
10
-2.497324
20
4.979461
30
0.0
11
-2.473659
21
4.985377
31
0.0
0
LINE
8
MCD_Layer_0
10
-2.509157
20
5.003126
30
0.0
11
-2.509157
21
4.009181
31
0.0
0
LINE
8
MCD_Layer_0
10
-1.024202
20
5.337307
30
0.0
11
-2.406777
21
3.964763
31
0.0
0
LINE
8
MCD_Layer_0
10
-2.309480
20
4.633170
30
0.0
11
-1.648006
21
4.982373
31
0.0
0
LINE
8
MCD_Layer_0
10
-3.526767
20
5.179137
30
0.0
11
-2.855448
21
5.840612
31
0.0
0
LINE
8
MCD_Layer_0
10
-1.441304
20
4.542530
30
0.0
11
-3.695568
21
5.901208
31
0.0
0
LINE
8
MCD_Layer_0
10
-1.133654
20
5.483136
30
0.0
11
-2.429425
21
5.974238
31
0.0
0
LINE
8
MCD_Layer_0
10
-2.506245
20
4.979461
30
0.0
11
-2.497324
21
4.979461
31
0.0
0
LINE
8
MCD_Layer_0
10
-2.509157
20
6.352052
30
0.0
11
-2.005482
21
5.059193
31
0.0
0
LINE
8
MCD_Layer_0
10
-1.514380
20
4.307910
30
0.0
11
-1.608071
21
4.432061
31
0.0
0
LINE
8
MCD_Layer_0
10
-1.430812
20
4.757552
30
0.0
11
-1.578997
21
4.171742
31
0.0
0
LINE
8
MCD_Layer_0
10
-1.349323
20
4.982373
30
0.0
11
-2.509157
21
4.991294
31
0.0
0
LINE
8
MCD_Layer_0
10
-2.473659
20
4.979461
30
0.0
11
-2.733978
21
5.909620
31
0.0
0
LINE
8
MCD_Layer_0
10
-3.316876
20
6.139295
30
0.0
11
-2.861225
21
5.502502
31
0.0
0
LINE
8
MCD_Layer_0
10
-3.494366
20
6.218056
30
0.0
11
-1.606961
21
3.999706
31
0.0
0
LINE
8
MCD_Layer_0
10
-3.636404
20
6.294090
30
0.0
11
-2.506245
21
4.979461
31
0.0
0
LINE
8
MCD_Layer_0
10
-2.509157
20
5.014959
30
0.0
11
-2.509157
21
5.878745
31
0.0
0
LINE
8
MCD_Layer_0
10
-3.488912
20
3.852213
30
0.0
11
-1.194528
21
5.171696
31
0.0
0
LINE
8
MCD_Layer_0
10
-1.885492
20
6.189121
30
0.0
11
-1.159076
21
3.621615
31
0.0
0
LINE
8
MCD_Layer_0
10
-3.090067
20
6.307494
30
0.0
11
-1.147567
21
4.982373
31
0.0
0
LINE
8
MCD_Layer_0
10
-3.869915
20
4.398550
30
0.0
11
-1.181124
21
6.341051
31
0.0
0
LINE
8
MCD_Layer_0
10
-2.565408
20
6.094506
30
0.0
11
-2.825820
21
6.321037
31
0.0
0
LINE
8
MCD_Layer_0
10
-2.553576
20
3.996933
30
0.0
11
-2.080361
21
6.248978
31
0.0
0
LINE
8
MCD_Layer_0
10
-2.509157
20
4.932130
30
0.0
11
-3.491685
21
5.408257
31
0.0
0
LINE
8
MCD_Layer_0
10
-1.239640
20
5.006038
30
0.0
11
-3.254153
21
4.686463
31
0.0
0
LINE
8
MCD_Layer_0
10
-1.289051
20
5.053369
30
0.0
11
-3.118447
21
6.177381
31
0.0
0
LINE
8
MCD_Layer_0
10
-1.365362
20
4.982373
30
0.0
11
-2.509157
21
4.991294
31
0.0
0
LINE
8
MCD_Layer_0
10
-2.509157
20
5.014959
30
0.0
11
-2.503241
21
4.979461
31
0.0
0
LINE
8
MCD_Layer_0
10
-2.485492
20
4.979461
30
0.0
11
-2.438161
21
4.370170
31
0.0
0
LINE
8
MCD_Layer_0
10
-1.311237
20
6.123256
30
0.0
11
-2.435249
21
4.370170
31
0.0
0
LINE
8
MCD_Layer_0
10
-1.346735
20
5.832153
30
0.0
11
-2.506245
21
4.979461
31
0.0
0
LINE
8
MCD_Layer_0
10
-2.509157
20
5.003126
30
0.0
11
-2.509157
21
5.050457
31
0.0
0
LINE
8
MCD_Layer_0
10
-3.118447
20
6.141883
30
0.0
11
-1.656465
21
6.414127
31
0.0
0
LINE
8
MCD_Layer_0
10
-3.758059
20
6.141929
30
0.0
11
-1.656465
21
4.982373
31
0.0
0
LINE
8
MCD_Layer_0
10
-2.509157
20
4.991294
30
0.0
11
-2.509157
21
5.014959
31
0.0
0
LINE
8
MCD_Layer_0
10
-2.503241
20
4.979461
30
0.0
11
-2.485492
21
4.979461
31
0.0
0
LINE
8
MCD_Layer_0
10
-1.077403
20
3.730559
30
0.0
11
-1.346689
21
5.832153
31
0.0
0
LINE
8
MCD_Layer_0
10
-1.074491
20
3.730559
30
0.0
11
-1.618840
21
3.668576
31
0.0
0
LINE
8
MCD_Layer_0
10
-2.473659
20
4.985377
30
0.0
11
-2.509157
21
5.003126
31
0.0
0
LINE
8
MCD_Layer_0
10
-2.509157
20
6.411215
30
0.0
11
-3.758059
21
5.869778
31
0.0
0
LINE
8
MCD_Layer_0
10
-3.820042
20
4.390739
30
0.0
11
-1.989906
21
5.869778
31
0.0
0
LINE
8
MCD_Layer_0
10
-3.820042
20
4.982373
30
0.0
11
-2.509157
21
4.991294
31
0.0
0
LINE
8
MCD_Layer_0
10
-2.485492
20
4.979461
30
0.0
11
-3.100791
21
5.498712
31
0.0
0
LINE
8
MCD_Layer_0
10
-1.618840
20
3.668576
30
0.0
11
-3.097879
21
5.498712
31
0.0
0
LINE
8
MCD_Layer_0
10
-2.316968
20
3.653138
30
0.0
11
-2.506245
21
4.979461
31
0.0
0
LINE
8
MCD_Layer_0
10
-2.509157
20
5.014959
30
0.0
11
-2.509157
21
4.387827
31
0.0
0
LINE
8
MCD_Layer_0
10
-1.989906
20
5.171650
30
0.0
11
-3.835480
21
3.728109
31
0.0
0
LINE
8
MCD_Layer_0
10
-2.041997
20
5.254478
30
0.0
11
-3.848052
21
3.680778
31
0.0
0
LINE
8
MCD_Layer_0
10
-2.177703
20
4.414358
30
0.0
11
-3.848237
21
4.982373
31
0.0
0
LINE
8
MCD_Layer_0
10
-3.810752
20
5.310915
30
0.0
11
-3.074260
21
3.640381
31
0.0
0
LINE
8
MCD_Layer_0
10
-3.594851
20
4.859655
30
0.0
11
-1.417731
21
3.667513
31
0.0
0
LINE
8
MCD_Layer_0
10
-3.547521
20
3.514705
30
0.0
11
-1.441396
21
3.694321
31
0.0
0
LINE
8
MCD_Layer_0
10
-2.509157
20
3.938185
30
0.0
11
-3.973913
21
6.047222
31
0.0
0
LINE
8
MCD_Layer_0
10
-3.794297
20
5.077034
30
0.0
11
-2.527830
21
5.420043
31
0.0
0
LINE
8
MCD_Layer_0
10
-3.788380
20
4.509066
30
0.0
11
-3.307863
21
5.532500
31
0.0
0
LINE
8
MCD_Layer_0
10
-3.810798
20
4.982373
30
0.0
11
-2.509157
21
4.991294
31
0.0
0
LINE
8
MCD_Layer_0
10
-2.473659
20
4.979461
30
0.0
11
-2.982464
21
4.180755
31
0.0
0
LINE
8
MCD_Layer_0
10
-1.956118
20
3.677820
30
0.0
11
-1.748954
21
5.777242
31
0.0
0
LINE
8
MCD_Layer_0
10
-3.458822
20
3.591617
30
0.0
11
-2.222261
21
6.420644
31
0.0
0
LINE
8
MCD_Layer_0
10
-3.790137
20
3.496355
30
0.0
11
-2.506245
21
4.979461
31
0.0
0
LINE
8
MCD_Layer_0
10
-2.509157
20
5.014959
30
0.0
11
-2.509157
21
5.263445
31
0.0
0
LINE
8
MCD_Layer_0
10
-1.067974
20
3.698481
30
0.0
11
-3.992263
21
4.225081
31
0.0
0
LINE
8
MCD_Layer_0
10
-3.824803
20
5.852029
30
0.0
11
-1.193603
21
4.248747
31
0.0
0
LINE
8
MCD_Layer_0
10
-3.756950
20
5.082904
30
0.0
11
-1.429564
21
4.982373
31
0.0
0
LINE
8
MCD_Layer_0
10
-3.242783
20
3.731668
30
0.0
11
-2.405713
21
6.059054
31
0.0
0
LINE
8
MCD_Layer_0
10
-1.109989
20
3.656558
30
0.0
11
-3.967627
21
5.742484
31
0.0
0
LINE
8
MCD_Layer_0
10
-2.553576
20
5.990462
30
0.0
11
-1.695753
21
5.351127
31
0.0
0
LINE
8
MCD_Layer_0
10
-2.509157
20
4.932130
30
0.0
11
-1.498156
21
5.792865
31
0.0
0
LINE
8
MCD_Layer_0
10
-2.137491
20
5.680501
30
0.0
11
-3.942390
21
4.082997
31
0.0
0
LINE
8
MCD_Layer_0
10
-3.409457
20
4.982327
30
0.0
11
-2.509157
21
4.991294
31
0.0
0
LINE
8
MCD_Layer_0
10
-2.473659
20
4.979461
30
0.0
11
-1.811029
21
3.546228
31
0.0
0
LINE
8
MCD_Layer_0
10
-3.405621
20
4.079160
30
0.0
11
-2.044817
21
4.212648
31
0.0
0
LINE
8
MCD_Layer_0
10
-1.465062
20
3.721130
30
0.0
11
-1.204697
21
4.135088
31
0.0
0
LINE
8
MCD_Layer_0
10
-3.796099
20
3.479392
30
0.0
11
-2.506291
21
4.979461
31
0.0
0
LINE
8
MCD_Layer_0
10
-2.509157
20
5.014959
30
0.0
11
-2.509157
21
6.281056
31
0.0
0
LINE
8
MCD_Layer_0
10
-3.353529
20
3.692518
30
0.0
11
-4.009226
21
5.692287
31
0.0
0
LINE
8
MCD_Layer_0
10
-3.857574
20
5.940727
30
0.0
11
-1.456233
21
6.402248
31
0.0
0
LINE
8
MCD_Layer_0
10
-1.317893
20
5.609366
30
0.0
11
-1.835480
21
4.982327
31
0.0
0
LINE
8
MCD_Layer_0
10
-1.089236
20
6.170725
30
0.0
11
-1.879252
21
5.653138
31
0.0
0
LINE
8
MCD_Layer_0
10
-1.039039
20
4.435897
30
0.0
11
-1.435526
21
5.665248
31
0.0
0
LINE
8
MCD_Layer_0
10
-1.737167
20
4.013572
30
0.0
11
-3.305043
21
5.966935
31
0.0
0
LINE
8
MCD_Layer_0
10
-2.506291
20
4.979461
30
0.0
11
-2.497324
21
4.979461
31
0.0
0
LINE
8
MCD_Layer_0
10
-2.509157
20
5.748585
30
0.0
11
-3.475046
21
4.183575
31
0.0
0
LINE
8
MCD_Layer_0
10
-1.521683
20
5.999937
30
0.0
11
-2.559030
21
4.112579
31
0.0
0
LINE
8
MCD_Layer_0
10
-1.052767
20
4.923163
30
0.0
11
-2.289374
21
5.852029
31
0.0
0
LINE
8
MCD_Layer_0
10
-3.654801
20
4.982327
30
0.0
11
-2.509157
21
4.991294
31
0.0
0
LINE
8
MCD_Layer_0
10
-2.485492
20
4.979461
30
0.0
11
-2.568320
21
5.199244
31
0.0
0
LINE
8
MCD_Layer_0
10
-1.636589
20
3.833817
30
0.0
11
-2.565455
21
5.199244
31
0.0
0
LINE
8
MCD_Layer_0
10
-1.044955
20
4.388751
30
0.0
11
-2.506291
21
4.979461
31
0.0
0
LINE
8
MCD_Layer_0
10
-2.509157
20
5.003126
30
0.0
11
-2.509157
21
4.920298
31
0.0
0
LINE
8
MCD_Layer_0
10
-2.289374
20
6.443662
30
0.0
11
-3.099866
21
4.852167
31
0.0
0
LINE
8
MCD_Layer_0
10
-3.495845
20
6.443662
30
0.0
11
-3.099866
21
4.982327
31
0.0
0
LINE
8
MCD_Layer_0
10
-2.639316
20
3.992773
30
0.0
11
-1.044955
21
4.388751
31
0.0
0
LINE
8
MCD_Layer_0
10
-2.636451
20
3.992773
30
0.0
11
-2.500375
21
4.979461
31
0.0
0
LINE
8
MCD_Layer_0
10
-2.509157
20
4.979461
30
0.0
11
-2.497324
21
4.979461
31
0.0
0
LINE
8
MCD_Layer_0
10
-2.509157
20
6.257390
30
0.0
11
-3.877495
21
5.426052
31
0.0
0
LINE
8
MCD_Layer_0
10
-4.011630
20
6.260210
30
0.0
11
-3.877495
21
4.822586
31
0.0
0
LINE
8
MCD_Layer_0
10
-3.481563
20
4.982327
30
0.0
11
-2.509157
21
4.991294
31
0.0
0
LINE
8
MCD_Layer_0
10
-2.485492
20
4.979461
30
0.0
11
-1.231228
21
3.611123
31
0.0
0
LINE
8
MCD_Layer_0
10
-2.666032
20
4.007055
30
0.0
11
-2.340634
21
5.962636
31
0.0
0
LINE
8
MCD_Layer_0
10
-2.666032
20
4.007055
30
0.0
11
-2.506291
21
4.979461
31
0.0
0
LINE
8
MCD_Layer_0
10
-2.509157
20
5.003126
30
0.0
11
-2.509157
21
5.145118
31
0.0
0
LINE
8
MCD_Layer_0
10
-1.525982
20
4.822586
30
0.0
11
-3.481563
21
5.147984
31
0.0
0
LINE
8
MCD_Layer_0
10
-1.525982
20
4.112625
30
0.0
11
-3.669360
21
4.982327
31
0.0
0
LINE
8
MCD_Layer_0
10
-2.343499
20
5.962636
30
0.0
11
-3.375993
21
3.819258
31
0.0
0
LINE
8
MCD_Layer_0
10
-3.310913
20
5.599105
30
0.0
11
-1.115951
21
6.027531
31
0.0
0
LINE
8
MCD_Layer_0
10
-2.766610
20
4.910175
30
0.0
11
-1.317153
21
5.349001
31
0.0
0
LINE
8
MCD_Layer_0
10
-2.509157
20
4.719142
30
0.0
11
-2.578443
21
6.171465
31
0.0
0
LINE
8
MCD_Layer_0
10
-2.139617
20
5.857945
30
0.0
11
-2.272041
21
6.242461
31
0.0
0
LINE
8
MCD_Layer_0
10
-2.642459
20
4.035666
30
0.0
11
-3.128847
21
5.372713
31
0.0
0
LINE
8
MCD_Layer_0
10
-2.666679
20
4.982280
30
0.0
11
-2.509157
21
4.991294
31
0.0
0
LINE
8
MCD_Layer_0
10
-2.473659
20
4.979461
30
0.0
11
-3.455771
21
4.359771
31
0.0
0
LINE
8
MCD_Layer_0
10
-2.115905
20
4.821938
30
0.0
11
-2.742991
21
4.782096
31
0.0
0
LINE
8
MCD_Layer_0
10
-3.867095
20
5.530744
30
0.0
11
-1.429517
21
5.292750
31
0.0
0
LINE
8
MCD_Layer_0
10
-2.778443
20
6.318310
30
0.0
11
-2.506291
21
4.979461
31
0.0
0
LINE
8
MCD_Layer_0
10
-2.509157
20
5.014959
30
0.0
11
-2.509157
21
6.056235
31
0.0
0
LINE
8
MCD_Layer_0
10
-2.195868
20
4.710175
30
0.0
11
-1.170308
21
5.207148
31
0.0
0
LINE
8
MCD_Layer_0
10
-2.135272
20
5.171650
30
0.0
11
-3.723855
21
5.550295
31
0.0
0
LINE
8
MCD_Layer_0
10
-2.851889
20
4.911284
30
0.0
11
-3.142298
21
4.982327
31
0.0
0
LINE
8
MCD_Layer_0
10
-1.941188
20
4.636729
30
0.0
11
-2.577333
21
4.346320
31
0.0
0
LINE
8
MCD_Layer_0
10
-2.932268
20
5.441582
30
0.0
11
-3.269499
21
5.483783
31
0.0
0
LINE
8
MCD_Layer_0
10
-2.509157
20
4.553485
30
0.0
11
-2.047035
21
4.219119
31
0.0
0
LINE
8
MCD_Layer_0
10
-2.004835
20
5.633170
30
0.0
11
-1.344239
21
4.846251
31
0.0
0
LINE
8
MCD_Layer_0
10
-1.692841
20
3.941097
30
0.0
11
-1.223093
21
4.929080
31
0.0
0
LINE
8
MCD_Layer_0
10
-1.438392
20
4.982373
30
0.0
11
-2.509157
21
4.991294
31
0.0
0
LINE
8
MCD_Layer_0
10
-2.473659
20
4.979461
30
0.0
11
-3.550433
21
6.265525
31
0.0
0
LINE
8
MCD_Layer_0
10
-2.559538
20
6.050226
30
0.0
11
-1.417639
21
6.156489
31
0.0
0
LINE
8
MCD_Layer_0
10
-1.636589
20
6.244125
30
0.0
11
-2.825727
21
5.780848
31
0.0
0
LINE
8
MCD_Layer_0
10
-1.695753
20
6.453138
30
0.0
11
-2.506245
21
4.979461
31
0.0
0
LINE
8
MCD_Layer_0
10
-2.509157
20
5.014959
30
0.0
11
-2.509157
21
4.659979
31
0.0
0
LINE
8
MCD_Layer_0
10
-1.707770
20
5.792865
30
0.0
11
-1.035480
21
4.509066
31
0.0
0
LINE
8
MCD_Layer_0
10
-2.216668
20
5.082904
30
0.0
11
-3.968459
21
4.378906
31
0.0
0
LINE
8
MCD_Layer_0
10
-3.765871
20
4.455726
30
0.0
11
-3.901854
21
4.982373
31
0.0
0
LINE
8
MCD_Layer_0
10
-3.112624
20
3.722747
30
0.0
11
-3.032892
21
3.586764
31
0.0
0
LINE
8
MCD_Layer_0
10
-2.529910
20
4.553623
30
0.0
11
-2.388057
21
3.604975
31
0.0
0
LINE
8
MCD_Layer_0
10
-2.589074
20
6.026653
30
0.0
11
-3.310960
21
3.600399
31
0.0
0
LINE
8
MCD_Layer_0
10
-2.509157
20
4.896632
30
0.0
11
-1.461965
21
4.177658
31
0.0
0
LINE
8
MCD_Layer_0
10
-3.888219
20
5.869824
30
0.0
11
-3.263860
21
4.236822
31
0.0
0
LINE
8
MCD_Layer_0
10
-3.907909
20
5.988151
30
0.0
11
-2.450317
21
4.532685
31
0.0
0
LINE
8
MCD_Layer_0
10
-3.941235
20
4.982373
30
0.0
11
-2.509157
21
4.991294
31
0.0
0
LINE
8
MCD_Layer_0
10
-2.473659
20
4.979461
30
0.0
11
-1.503379
21
5.038301
31
0.0
0
LINE
8
MCD_Layer_0
10
-2.955933
20
3.547383
30
0.0
11
-1.843615
21
5.365456
31
0.0
0
LINE
8
MCD_Layer_0
10
-1.547844
20
3.544379
30
0.0
11
-3.097879
21
5.498712
31
0.0
0
LINE
8
MCD_Layer_0
10
-2.766610
20
3.573129
30
0.0
11
-2.506245
21
4.979461
31
0.0
0
LINE
8
MCD_Layer_0
10
-2.509157
20
5.003126
30
0.0
11
-2.509157
21
4.387827
31
0.0
0
LINE
8
MCD_Layer_0
10
-1.989906
20
4.722008
30
0.0
11
-3.915489
21
4.532731
31
0.0
0
LINE
8
MCD_Layer_0
10
-1.481008
20
4.722008
30
0.0
11
-3.915489
21
4.982373
31
0.0
0
LINE
8
MCD_Layer_0
10
-2.875970
20
6.262059
30
0.0
11
-2.766610
21
3.573129
31
0.0
0
LINE
8
MCD_Layer_0
10
-3.097879
20
5.498712
30
0.0
11
-2.766610
21
3.573129
31
0.0
0
LINE
8
MCD_Layer_0
10
-2.509157
20
4.612648
30
0.0
11
-1.226559
21
4.722008
31
0.0
0
LINE
8
MCD_Layer_0
10
-3.915489
20
4.615560
30
0.0
11
-1.226559
21
5.136151
31
0.0
0
LINE
8
MCD_Layer_0
10
-1.432291
20
4.982373
30
0.0
11
-2.509157
21
4.991294
31
0.0
0
LINE
8
MCD_Layer_0
10
-2.485492
20
4.979461
30
0.0
11
-2.875970
21
6.262059
31
0.0
0
LINE
8
MCD_Layer_0
10
-2.352466
20
6.056327
30
0.0
11
-2.245926
21
5.438162
31
0.0
0
LINE
8
MCD_Layer_0
10
-2.352466
20
6.056327
30
0.0
11
-2.506245
21
4.979461
31
0.0
0
LINE
8
MCD_Layer_0
10
-2.509157
20
5.003126
30
0.0
11
-2.509157
21
5.239780
31
0.0
0
LINE
8
MCD_Layer_0
10
-2.050456
20
5.136151
30
0.0
11
-1.432291
21
5.242692
31
0.0
0
LINE
8
MCD_Layer_0
10
-2.050456
20
5.597626
30
0.0
11
-1.335364
21
4.982373
31
0.0
0
LINE
8
MCD_Layer_0
10
-2.248838
20
5.438162
30
0.0
11
-1.890992
21
6.153253
31
0.0
0
LINE
8
MCD_Layer_0
10
-2.742899
20
5.256373
30
0.0
11
-2.494459
21
6.304721
31
0.0
0
LINE
8
MCD_Layer_0
10
-3.654015
20
5.062521
30
0.0
11
-1.500514
21
6.374377
31
0.0
0
LINE
8
MCD_Layer_0
10
-2.509157
20
3.831691
30
0.0
11
-2.426097
21
5.988104
31
0.0
0
LINE
8
MCD_Layer_0
10
-1.114241
20
5.775162
30
0.0
11
-3.603125
21
6.141883
31
0.0
0
LINE
8
MCD_Layer_0
10
-4.023000
20
4.958708
30
0.0
11
-2.934995
21
3.763468
31
0.0
0
LINE
8
MCD_Layer_0
10
-4.004835
20
4.982373
30
0.0
11
-2.509157
21
4.991294
31
0.0
0
LINE
8
MCD_Layer_0
10
-2.473659
20
4.979461
30
0.0
11
-2.532822
21
4.553623
31
0.0
0
LINE
8
MCD_Layer_0
10
-3.725150
20
3.483783
30
0.0
11
-3.441027
21
3.611955
31
0.0
0
LINE
8
MCD_Layer_0
10
-1.826005
20
3.473198
30
0.0
11
-2.742899
21
3.480408
31
0.0
0
LINE
8
MCD_Layer_0
10
-3.967673
20
6.431922
30
0.0
11
-2.506245
21
4.979461
31
0.0
0
LINE
8
MCD_Layer_0
10
-2.509157
20
5.014959
30
0.0
11
-2.509157
21
4.742807
31
0.0
0
LINE
8
MCD_Layer_0
10
-4.008209
20
3.520945
30
0.0
11
-1.056696
21
4.118587
31
0.0
0
LINE
8
MCD_Layer_0
10
-3.184267
20
5.213018
30
0.0
11
-1.177842
21
5.964485
31
0.0
0
LINE
8
MCD_Layer_0
10
-2.796515
20
5.816484
30
0.0
11
-1.329309
21
4.982373
31
0.0
0
LINE
8
MCD_Layer_0
10
-1.527045
20
4.692102
30
0.0
11
-1.672134
21
6.159308
31
0.0
0
LINE
8
MCD_Layer_0
10
-2.399751
20
4.667882
30
0.0
11
-1.814126
21
6.029056
31
0.0
0
LINE
8
MCD_Layer_0
10
-1.630627
20
4.352837
30
0.0
11
-3.589028
21
5.895754
31
0.0
0
LINE
8
MCD_Layer_0
10
-2.509157
20
5.855079
30
0.0
11
-3.135780
21
3.899590
31
0.0
0
LINE
8
MCD_Layer_0
10
-1.592864
20
4.840381
30
0.0
11
-3.668944
21
6.029472
31
0.0
0
LINE
8
MCD_Layer_0
10
-1.701900
20
3.491455
30
0.0
11
-1.496585
21
6.005807
31
0.0
0
LINE
8
MCD_Layer_0
10
-1.786716
20
4.982373
30
0.0
11
-2.509157
21
4.991294
31
0.0
0
LINE
8
MCD_Layer_0
10
-2.485492
20
4.979461
30
0.0
11
-4.000074
21
5.992033
31
0.0
0
LINE
8
MCD_Layer_0
10
-1.482811
20
5.701901
30
0.0
11
-3.843338
21
5.898573
31
0.0
0
LINE
8
MCD_Layer_0
10
-2.849439
20
4.927924
30
0.0
11
-2.506291
21
4.979461
31
0.0
0
LINE
8
MCD_Layer_0
10
-2.509157
20
5.014959
30
0.0
11
-2.509157
21
3.642368
31
0.0
0
LINE
8
MCD_Layer_0
10
-1.590044
20
4.639179
30
0.0
11
-2.560694
21
5.076988
31
0.0
0
LINE
8
MCD_Layer_0
10
-3.879205
20
5.420136
30
0.0
11
-3.632984
21
3.550573
31
0.0
0
LINE
8
MCD_Layer_0
10
-3.921637
20
5.585793
30
0.0
11
-1.146042
21
4.982327
31
0.0
0
LINE
8
MCD_Layer_0
10
-3.940911
20
3.566981
30
0.0
11
-1.902825
21
6.342576
31
0.0
0
LINE
8
MCD_Layer_0
10
-2.932268
20
6.092426
30
0.0
11
-2.245972
21
5.155148
31
0.0
0
LINE
8
MCD_Layer_0
10
-3.464738
20
5.741051
30
0.0
11
-2.624618
21
4.555333
31
0.0
0
LINE
8
MCD_Layer_0
10
-2.509157
20
4.021014
30
0.0
11
-1.747567
21
4.864000
31
0.0
0
LINE
8
MCD_Layer_0
10
-2.933285
20
3.810845
30
0.0
11
-2.900375
21
4.875786
31
0.0
0
LINE
8
MCD_Layer_0
10
-1.333885
20
3.515028
30
0.0
11
-1.586763
21
5.887388
31
0.0
0
LINE
8
MCD_Layer_0
10
-2.400121
20
4.982280
30
0.0
11
-2.509157
21
4.991294
31
0.0
0
LINE
8
MCD_Layer_0
10
-2.473659
20
4.979461
30
0.0
11
-3.976409
21
5.901855
31
0.0
0
LINE
8
MCD_Layer_0
10
-1.601230
20
5.088497
30
0.0
11
-3.062473
21
3.909343
31
0.0
0
LINE
8
MCD_Layer_0
10
-2.725242
20
5.713688
30
0.0
11
-1.654385
21
5.359216
31
0.0
0
LINE
8
MCD_Layer_0
10
-2.393881
20
3.838070
30
0.0
11
-2.506337
21
4.979461
31
0.0
0
LINE
8
MCD_Layer_0
10
-2.509157
20
5.014959
30
0.0
11
-2.509157
21
5.831414
31
0.0
0
LINE
8
MCD_Layer_0
10
-2.129402
20
5.094737
30
0.0
11
-3.650548
21
4.426145
31
0.0
0
LINE
8
MCD_Layer_0
10
-1.764715
20
5.982188
30
0.0
11
-3.575438
21
4.295985
31
0.0
0
LINE
8
MCD_Layer_0
10
-1.465431
20
5.426052
30
0.0
11
-4.011630
21
4.982280
31
0.0
0
LINE
8
MCD_Layer_0
10
-3.195452
20
6.023186
30
0.0
11
-2.062566
21
3.476988
31
0.0
0
LINE
8
MCD_Layer_0
10
-1.228408
20
3.611123
30
0.0
11
-2.062566
21
3.476988
31
0.0
0
LINE
8
MCD_Layer_0
10
0.614925
20
3.777353
30
0.0
11
-0.177022
21
4.982153
31
0.0
0
LINE
8
MCD_Layer_0
10
0.614925
20
5.360423
30
0.0
11
1.976613
21
4.976198
31
0.0
0
LINE
8
MCD_Layer_0
10
0.614925
20
4.973450
30
0.0
11
0.614925
21
4.985176
31
0.0
0
LINE
8
MCD_Layer_0
10
0.614925
20
5.008629
30
0.0
11
0.620789
21
4.973450
31
0.0
0
LINE
8
MCD_Layer_0
10
0.638378
20
4.973450
30
0.0
11
1.001898
21
6.335137
31
0.0
0
LINE
8
MCD_Layer_0
10
0.617674
20
4.973450
30
0.0
11
1.001898
21
6.335137
31
0.0
0
LINE
8
MCD_Layer_0
10
1.051552
20
5.735944
30
0.0
11
0.617765
21
4.973450
31
0.0
0
LINE
8
MCD_Layer_0
10
0.626652
20
4.973450
30
0.0
11
0.650105
21
4.979313
31
0.0
0
LINE
8
MCD_Layer_0
10
0.614925
20
4.996903
30
0.0
11
0.614925
21
5.360423
31
0.0
0
LINE
8
MCD_Layer_0
10
1.976613
20
5.410077
30
0.0
11
1.377419
21
6.125481
31
0.0
0
LINE
8
MCD_Layer_0
10
1.664396
20
5.415986
30
0.0
11
1.377419
21
4.976290
31
0.0
0
LINE
8
MCD_Layer_0
10
0.614925
20
4.985176
30
0.0
11
0.614925
21
5.008629
31
0.0
0
LINE
8
MCD_Layer_0
10
0.620789
20
4.973450
30
0.0
11
0.638378
21
4.973450
31
0.0
0
LINE
8
MCD_Layer_0
10
1.764117
20
6.022921
30
0.0
11
1.057461
21
5.735944
31
0.0
0
LINE
8
MCD_Layer_0
10
1.766957
20
6.022921
30
0.0
11
1.104367
21
4.352635
31
0.0
0
LINE
8
MCD_Layer_0
10
0.617765
20
4.973450
30
0.0
11
0.626652
21
4.973450
31
0.0
0
LINE
8
MCD_Layer_0
10
0.790822
20
4.979313
30
0.0
11
0.614925
21
5.008629
31
0.0
0
LINE
8
MCD_Layer_0
10
0.614925
20
6.122641
30
0.0
11
1.664396
21
5.462891
31
0.0
0
LINE
8
MCD_Layer_0
10
-0.005889
20
6.231019
30
0.0
11
2.034237
21
4.800302
31
0.0
0
LINE
8
MCD_Layer_0
10
-0.040748
20
5.433621
30
0.0
11
-0.790003
21
4.049855
31
0.0
0
LINE
8
MCD_Layer_0
10
-0.002912
20
4.976290
30
0.0
11
0.614925
21
4.985176
31
0.0
0
LINE
8
MCD_Layer_0
10
0.614925
20
5.149347
30
0.0
11
0.620789
21
4.973450
31
0.0
0
LINE
8
MCD_Layer_0
10
0.650105
20
4.973450
30
0.0
11
1.072257
21
3.568521
31
0.0
0
LINE
8
MCD_Layer_0
10
-0.308669
20
4.355613
30
0.0
11
1.508975
21
5.098318
31
0.0
0
LINE
8
MCD_Layer_0
10
0.582586
20
4.480481
30
0.0
11
0.383237
21
6.384333
31
0.0
0
LINE
8
MCD_Layer_0
10
-0.249991
20
4.882158
30
0.0
11
0.617765
21
4.973450
31
0.0
0
LINE
8
MCD_Layer_0
10
0.626652
20
4.973450
30
0.0
11
0.790822
21
4.979313
31
0.0
0
LINE
8
MCD_Layer_0
10
0.614925
20
5.008629
30
0.0
11
0.614925
21
4.738921
31
0.0
0
LINE
8
MCD_Layer_0
10
2.025809
20
4.108533
30
0.0
11
0.523633
21
4.636223
31
0.0
0
LINE
8
MCD_Layer_0
10
-0.578698
20
4.812120
30
0.0
11
0.760178
21
4.718354
31
0.0
0
LINE
8
MCD_Layer_0
10
-0.292912
20
5.961311
30
0.0
11
1.042391
21
4.976336
31
0.0
0
LINE
8
MCD_Layer_0
10
0.614925
20
4.985176
30
0.0
11
0.614925
21
5.149347
31
0.0
0
LINE
8
MCD_Layer_0
10
0.620789
20
4.973450
30
0.0
11
0.650105
21
4.973450
31
0.0
0
LINE
8
MCD_Layer_0
10
0.356944
20
4.065612
30
0.0
11
1.602787
21
5.400915
31
0.0
0
LINE
8
MCD_Layer_0
10
0.617811
20
4.172525
30
0.0
11
-0.859767
21
5.645568
31
0.0
0
LINE
8
MCD_Layer_0
10
0.699896
20
4.099876
30
0.0
11
0.770209
21
6.040648
31
0.0
0
LINE
8
MCD_Layer_0
10
0.617811
20
4.973450
30
0.0
11
0.626652
21
4.973450
31
0.0
0
LINE
8
MCD_Layer_0
10
0.614925
20
5.055535
30
0.0
11
-0.258649
21
5.128734
31
0.0
0
LINE
8
MCD_Layer_0
10
1.682123
20
5.492299
30
0.0
11
-0.588272
21
5.011469
31
0.0
0
LINE
8
MCD_Layer_0
10
2.029153
20
4.917703
30
0.0
11
1.930944
21
5.046649
31
0.0
0
LINE
8
MCD_Layer_0
10
-0.821518
20
4.976336
30
0.0
11
0.614925
21
4.985176
31
0.0
0
LINE
8
MCD_Layer_0
10
0.650105
20
4.973450
30
0.0
11
0.556293
21
6.289468
31
0.0
0
LINE
8
MCD_Layer_0
10
0.688124
20
3.537006
30
0.0
11
1.942899
21
5.110319
31
0.0
0
LINE
8
MCD_Layer_0
10
1.497249
20
3.623901
30
0.0
11
-0.636918
21
5.071888
31
0.0
0
LINE
8
MCD_Layer_0
10
1.180589
20
3.656927
30
0.0
11
0.617811
21
4.973450
31
0.0
0
LINE
8
MCD_Layer_0
10
0.614925
20
5.008629
30
0.0
11
0.614925
21
3.718720
31
0.0
0
LINE
8
MCD_Layer_0
10
0.713363
20
5.539113
30
0.0
11
-0.701597
21
4.178937
31
0.0
0
LINE
8
MCD_Layer_0
10
-0.657943
20
4.982016
30
0.0
11
-0.698436
21
4.331381
31
0.0
0
LINE
8
MCD_Layer_0
10
1.347370
20
4.290247
30
0.0
11
-0.696970
21
4.976336
31
0.0
0
LINE
8
MCD_Layer_0
10
1.682032
20
5.720324
30
0.0
11
-0.068277
21
3.661554
31
0.0
0
LINE
8
MCD_Layer_0
10
-0.578286
20
4.181503
30
0.0
11
-0.068232
21
3.661554
31
0.0
0
LINE
8
MCD_Layer_0
10
0.650105
20
4.979313
30
0.0
11
0.614925
21
4.996903
31
0.0
0
LINE
8
MCD_Layer_0
10
0.614925
20
3.777353
30
0.0
11
-0.177022
21
4.290293
31
0.0
0
LINE
8
MCD_Layer_0
10
-0.696970
20
3.780238
30
0.0
11
-0.177022
21
4.993880
31
0.0
0
LINE
8
MCD_Layer_0
10
1.928287
20
4.976336
30
0.0
11
0.614925
21
4.985176
31
0.0
0
LINE
8
MCD_Layer_0
10
0.638378
20
4.973450
30
0.0
11
-0.581172
21
4.181503
31
0.0
0
LINE
8
MCD_Layer_0
10
0.635355
20
6.286812
30
0.0
11
-0.261672
21
3.773230
31
0.0
0
LINE
8
MCD_Layer_0
10
0.635355
20
6.286812
30
0.0
11
0.617811
21
4.973450
31
0.0
0
LINE
8
MCD_Layer_0
10
0.614925
20
4.996903
30
0.0
11
0.614925
21
4.093967
31
0.0
0
LINE
8
MCD_Layer_0
10
-0.585294
20
4.993880
30
0.0
11
1.928287
21
4.096852
31
0.0
0
LINE
8
MCD_Layer_0
10
-0.585294
20
5.416032
30
0.0
11
1.377419
21
4.976290
31
0.0
0
LINE
8
MCD_Layer_0
10
-0.264558
20
3.773230
30
0.0
11
1.057507
21
5.735944
31
0.0
0
LINE
8
MCD_Layer_0
10
-0.578332
20
4.181503
30
0.0
11
1.057507
21
5.735944
31
0.0
0
LINE
8
MCD_Layer_0
10
0.614925
20
3.777353
30
0.0
11
-0.177022
21
5.416032
31
0.0
0
LINE
8
MCD_Layer_0
10
1.377419
20
3.780193
30
0.0
11
-0.177022
21
4.982153
31
0.0
0
LINE
8
MCD_Layer_0
10
0.638378
20
4.973450
30
0.0
11
0.814275
21
3.803279
31
0.0
0
LINE
8
MCD_Layer_0
10
1.057507
20
3.484466
30
0.0
11
0.817069
21
3.803279
31
0.0
0
LINE
8
MCD_Layer_0
10
0.834705
20
4.979451
30
0.0
11
0.617765
21
4.973450
31
0.0
0
LINE
8
MCD_Layer_0
10
0.614925
20
4.996903
30
0.0
11
0.614925
21
5.172799
31
0.0
0
LINE
8
MCD_Layer_0
10
-0.555245
20
5.193229
30
0.0
11
0.620926
21
5.562612
31
0.0
0
LINE
8
MCD_Layer_0
10
-0.711354
20
5.193229
30
0.0
11
0.620926
21
4.976290
31
0.0
0
LINE
8
MCD_Layer_0
10
1.201248
20
3.647171
30
0.0
11
0.834705
21
4.979451
31
0.0
0
LINE
8
MCD_Layer_0
10
0.840568
20
6.463624
30
0.0
11
0.447732
21
5.135513
31
0.0
0
LINE
8
MCD_Layer_0
10
1.649693
20
6.319517
30
0.0
11
0.975422
21
5.483779
31
0.0
0
LINE
8
MCD_Layer_0
10
0.614925
20
6.005377
30
0.0
11
1.960993
21
5.333946
31
0.0
0
LINE
8
MCD_Layer_0
10
1.125255
20
6.008217
30
0.0
11
1.960993
21
5.767825
31
0.0
0
LINE
8
MCD_Layer_0
10
1.991317
20
4.976336
30
0.0
11
0.614925
21
4.985176
31
0.0
0
LINE
8
MCD_Layer_0
10
0.650105
20
4.973450
30
0.0
11
1.646853
21
6.319517
31
0.0
0
LINE
8
MCD_Layer_0
10
1.409300
20
6.349841
30
0.0
11
0.840614
21
6.463624
31
0.0
0
LINE
8
MCD_Layer_0
10
0.037306
20
6.436873
30
0.0
11
1.204133
21
3.647171
31
0.0
0
LINE
8
MCD_Layer_0
10
1.772820
20
3.473198
30
0.0
11
0.617811
21
4.973450
31
0.0
0
LINE
8
MCD_Layer_0
10
0.614925
20
4.996903
30
0.0
11
0.614925
21
5.559772
31
0.0
0
LINE
8
MCD_Layer_0
10
-0.711354
20
6.131345
30
0.0
11
-0.885327
21
5.175685
31
0.0
0
LINE
8
MCD_Layer_0
10
-0.555245
20
6.131345
30
0.0
11
-0.885327
21
4.976336
31
0.0
0
LINE
8
MCD_Layer_0
10
0.814275
20
3.803279
30
0.0
11
1.772820
21
3.473198
31
0.0
0
LINE
8
MCD_Layer_0
10
0.817161
20
3.803279
30
0.0
11
1.772820
21
3.567009
31
0.0
0
LINE
8
MCD_Layer_0
10
0.614925
20
5.172799
30
0.0
11
-0.555245
21
6.131345
31
0.0
0
LINE
8
MCD_Layer_0
10
-0.791515
20
4.765260
30
0.0
11
1.376182
21
6.131299
31
0.0
0
LINE
8
MCD_Layer_0
10
-0.791515
20
4.976336
30
0.0
11
0.614925
21
4.985176
31
0.0
0
LINE
8
MCD_Layer_0
10
0.650105
20
4.973450
30
0.0
11
0.403849
21
5.734707
31
0.0
0
LINE
8
MCD_Layer_0
10
1.772774
20
3.567009
30
0.0
11
0.946152
21
4.699665
31
0.0
0
LINE
8
MCD_Layer_0
10
-0.537427
20
3.565498
30
0.0
11
-0.308578
21
4.747670
31
0.0
0
LINE
8
MCD_Layer_0
10
0.852203
20
3.562520
30
0.0
11
0.617811
21
4.973450
31
0.0
0
LINE
8
MCD_Layer_0
10
0.614925
20
5.008629
30
0.0
11
0.614925
21
4.047061
31
0.0
0
LINE
8
MCD_Layer_0
10
0.389146
20
5.210727
30
0.0
11
-0.796004
21
6.184159
31
0.0
0
LINE
8
MCD_Layer_0
10
0.348332
20
5.738463
30
0.0
11
-0.823030
21
4.565910
31
0.0
0
LINE
8
MCD_Layer_0
10
1.437426
20
6.254472
30
0.0
11
2.101481
21
4.976336
31
0.0
0
LINE
8
MCD_Layer_0
10
0.204500
20
5.795950
30
0.0
11
1.895948
21
6.460006
31
0.0
0
LINE
8
MCD_Layer_0
10
-0.883174
20
6.449195
30
0.0
11
1.098550
21
6.279299
31
0.0
0
LINE
8
MCD_Layer_0
10
0.793708
20
3.736035
30
0.0
11
1.122003
21
5.988108
31
0.0
0
LINE
8
MCD_Layer_0
10
0.614925
20
5.149347
30
0.0
11
-0.622489
21
5.480527
31
0.0
0
LINE
8
MCD_Layer_0
10
1.629583
20
4.319655
30
0.0
11
-0.562483
21
5.808867
31
0.0
0
LINE
8
MCD_Layer_0
10
1.305366
20
4.073399
30
0.0
11
-0.652538
21
4.472053
31
0.0
0
LINE
8
MCD_Layer_0
10
1.101206
20
4.976336
30
0.0
11
0.614925
21
4.985176
31
0.0
0
LINE
8
MCD_Layer_0
10
0.650105
20
4.973450
30
0.0
11
-0.288011
21
3.705986
31
0.0
0
LINE
8
MCD_Layer_0
10
0.113528
20
5.459731
30
0.0
11
-0.015417
21
6.473198
31
0.0
0
LINE
8
MCD_Layer_0
10
-0.707323
20
5.228592
30
0.0
11
0.242565
21
5.896816
31
0.0
0
LINE
8
MCD_Layer_0
10
-0.320350
20
5.072483
30
0.0
11
0.617811
21
4.973450
31
0.0
0
LINE
8
MCD_Layer_0
10
0.614925
20
5.008629
30
0.0
11
0.614925
21
4.598204
31
0.0
0
LINE
8
MCD_Layer_0
10
1.538291
20
4.038174
30
0.0
11
0.713959
21
6.078621
31
0.0
0
LINE
8
MCD_Layer_0
10
0.012113
20
5.140414
30
0.0
11
0.452817
21
3.709834
31
0.0
0
LINE
8
MCD_Layer_0
10
-0.804432
20
5.773642
30
0.0
11
0.386764
21
4.976290
31
0.0
0
LINE
8
MCD_Layer_0
10
-0.651531
20
3.554092
30
0.0
11
1.415118
21
4.745288
31
0.0
0
LINE
8
MCD_Layer_0
10
0.043170
20
5.974870
30
0.0
11
1.198179
21
4.739287
31
0.0
0
LINE
8
MCD_Layer_0
10
0.125255
20
4.759671
30
0.0
11
1.256811
21
4.907397
31
0.0
0
LINE
8
MCD_Layer_0
10
0.614925
20
4.480939
30
0.0
11
0.401147
21
5.615335
31
0.0
0
LINE
8
MCD_Layer_0
10
0.548873
20
4.483779
30
0.0
11
0.401147
21
5.333901
31
0.0
0
LINE
8
MCD_Layer_0
10
1.125255
20
4.976290
30
0.0
11
0.614925
21
4.985176
31
0.0
0
LINE
8
MCD_Layer_0
10
0.650105
20
4.973450
30
0.0
11
0.122415
21
4.759671
31
0.0
0
LINE
8
MCD_Layer_0
10
0.975376
20
5.483779
30
0.0
11
1.766957
21
4.471503
31
0.0
0
LINE
8
MCD_Layer_0
10
0.447686
20
5.135513
30
0.0
11
-0.156180
21
3.751014
31
0.0
0
LINE
8
MCD_Layer_0
10
0.834659
20
4.979451
30
0.0
11
0.617765
21
4.973450
31
0.0
0
LINE
8
MCD_Layer_0
10
0.614925
20
4.996903
30
0.0
11
0.614925
21
4.199505
31
0.0
0
LINE
8
MCD_Layer_0
10
-0.607511
20
5.193183
30
0.0
11
0.620926
21
3.498758
31
0.0
0
LINE
8
MCD_Layer_0
10
1.424233
20
5.193183
30
0.0
11
0.620926
21
4.976290
31
0.0
0
LINE
8
MCD_Layer_0
10
-0.862607
20
5.782758
30
0.0
11
0.834659
21
4.979451
31
0.0
0
LINE
8
MCD_Layer_0
10
-0.859767
20
5.782758
30
0.0
11
1.057461
21
3.484466
31
0.0
0
LINE
8
MCD_Layer_0
10
0.617720
20
4.973450
30
0.0
11
0.626652
21
4.973450
31
0.0
0
LINE
8
MCD_Layer_0
10
0.614925
20
3.495918
30
0.0
11
1.424233
21
5.415986
31
0.0
0
LINE
8
MCD_Layer_0
10
-0.874058
20
5.175594
30
0.0
11
-0.555245
21
5.416032
31
0.0
0
LINE
8
MCD_Layer_0
10
-0.874058
20
4.976244
30
0.0
11
0.614925
21
4.985176
31
0.0
0
LINE
8
MCD_Layer_0
10
0.650105
20
4.973450
30
0.0
11
1.224701
21
5.590646
31
0.0
0
LINE
8
MCD_Layer_0
10
0.987103
20
5.108533
30
0.0
11
1.110322
21
3.703009
31
0.0
0
LINE
8
MCD_Layer_0
10
0.025534
20
5.123512
30
0.0
11
0.125301
21
4.759671
31
0.0
0
LINE
8
MCD_Layer_0
10
1.655510
20
5.210590
30
0.0
11
0.617811
21
4.973450
31
0.0
0
LINE
8
MCD_Layer_0
10
0.614925
20
4.996903
30
0.0
11
0.614925
21
4.480939
31
0.0
0
LINE
8
MCD_Layer_0
10
0.401147
20
6.014034
30
0.0
11
0.852065
21
4.483825
31
0.0
0
LINE
8
MCD_Layer_0
10
0.401147
20
4.219888
30
0.0
11
2.052835
21
4.976336
31
0.0
0
LINE
8
MCD_Layer_0
10
0.122415
20
4.759671
30
0.0
11
-0.138636
21
6.411359
31
0.0
0
LINE
8
MCD_Layer_0
10
1.895994
20
4.959021
30
0.0
11
-0.138682
21
6.411359
31
0.0
0
LINE
8
MCD_Layer_0
10
0.614925
20
6.251632
30
0.0
11
0.600496
21
4.219843
31
0.0
0
LINE
8
MCD_Layer_0
10
2.052835
20
4.577637
30
0.0
11
-0.780430
21
3.768420
31
0.0
0
LINE
8
MCD_Layer_0
10
1.956779
20
5.269497
30
0.0
11
0.889901
21
6.137208
31
0.0
0
LINE
8
MCD_Layer_0
10
1.647585
20
4.976336
30
0.0
11
0.614925
21
4.985176
31
0.0
0
LINE
8
MCD_Layer_0
10
0.650105
20
4.973450
30
0.0
11
0.908087
21
5.248426
31
0.0
0
LINE
8
MCD_Layer_0
10
1.778683
20
6.006110
30
0.0
11
1.802182
21
5.356483
31
0.0
0
LINE
8
MCD_Layer_0
10
1.661419
20
5.669891
30
0.0
11
0.887519
21
5.164371
31
0.0
0
LINE
8
MCD_Layer_0
10
0.336331
20
5.465731
30
0.0
11
0.617811
21
4.973450
31
0.0
0
LINE
8
MCD_Layer_0
10
0.614925
20
5.008629
30
0.0
11
0.614925
21
5.243158
31
0.0
0
LINE
8
MCD_Layer_0
10
0.805847
20
4.694855
30
0.0
11
1.107207
21
4.460372
31
0.0
0
LINE
8
MCD_Layer_0
10
0.300281
20
4.858980
30
0.0
11
0.945098
21
5.808913
31
0.0
0
LINE
8
MCD_Layer_0
10
2.039047
20
4.284384
30
0.0
11
0.804014
21
4.976336
31
0.0
0
LINE
8
MCD_Layer_0
10
1.447503
20
6.397572
30
0.0
11
-0.074141
21
5.162539
31
0.0
0
LINE
8
MCD_Layer_0
10
-0.812815
20
5.950867
30
0.0
11
-0.414253
21
5.111510
31
0.0
0
LINE
8
MCD_Layer_0
10
1.227586
20
5.590646
30
0.0
11
0.987103
21
5.108533
31
0.0
0
LINE
8
MCD_Layer_0
10
0.614925
20
6.321991
30
0.0
11
0.819039
21
5.075919
31
0.0
0
LINE
8
MCD_Layer_0
10
0.934334
20
4.589363
30
0.0
11
-0.696375
21
5.984581
31
0.0
0
LINE
8
MCD_Layer_0
10
0.938823
20
3.991314
30
0.0
11
0.187414
21
6.101937
31
0.0
0
LINE
8
MCD_Layer_0
10
0.967039
20
4.976336
30
0.0
11
0.614925
21
4.985176
31
0.0
0
LINE
8
MCD_Layer_0
10
0.650105
20
4.973450
30
0.0
11
-0.370096
21
4.545939
31
0.0
0
LINE
8
MCD_Layer_0
10
1.743412
20
5.325564
30
0.0
11
1.907720
21
3.474847
31
0.0
0
LINE
8
MCD_Layer_0
10
2.095252
20
5.427025
30
0.0
11
2.036711
21
3.928743
31
0.0
0
LINE
8
MCD_Layer_0
10
0.781890
20
5.528211
30
0.0
11
0.617811
21
4.973450
31
0.0
0
LINE
8
MCD_Layer_0
10
0.614925
20
5.008629
30
0.0
11
0.614925
21
6.392350
31
0.0
0
LINE
8
MCD_Layer_0
10
-0.429782
20
5.140414
30
0.0
11
1.169687
21
3.487077
31
0.0
0
LINE
8
MCD_Layer_0
10
-0.093562
20
4.589271
30
0.0
11
1.333857
21
3.850597
31
0.0
0
LINE
8
MCD_Layer_0
10
-0.300104
20
5.421849
30
0.0
11
1.598664
21
4.976336
31
0.0
0
LINE
8
MCD_Layer_0
10
-0.510813
20
4.058421
30
0.0
11
1.063324
21
5.957189
31
0.0
0
LINE
8
MCD_Layer_0
10
1.919447
20
5.043076
30
0.0
11
1.696552
21
6.162814
31
0.0
0
LINE
8
MCD_Layer_0
10
1.966352
20
5.177563
30
0.0
11
-0.783590
21
6.222545
31
0.0
0
LINE
8
MCD_Layer_0
10
0.614925
20
6.321991
30
0.0
11
0.819039
21
3.574934
31
0.0
0
LINE
8
MCD_Layer_0
10
1.864021
20
6.125527
30
0.0
11
1.664396
21
3.574934
31
0.0
0
LINE
8
MCD_Layer_0
10
1.864021
20
4.976336
30
0.0
11
0.614925
21
4.985176
31
0.0
0
LINE
8
MCD_Layer_0
10
0.638378
20
4.973450
30
0.0
11
1.764117
21
6.022921
31
0.0
0
LINE
8
MCD_Layer_0
10
-0.783590
20
6.222545
30
0.0
11
1.767003
21
6.022921
31
0.0
0
LINE
8
MCD_Layer_0
10
-0.830496
20
5.303943
30
0.0
11
0.617811
21
4.973450
31
0.0
0
LINE
8
MCD_Layer_0
10
0.614925
20
5.008629
30
0.0
11
0.614925
21
6.122641
31
0.0
0
LINE
8
MCD_Layer_0
10
1.664396
20
3.528028
30
0.0
11
0.945419
21
3.874050
31
0.0
0
LINE
8
MCD_Layer_0
10
1.251314
20
5.990581
30
0.0
11
0.938823
21
6.324877
31
0.0
0
LINE
8
MCD_Layer_0
10
0.819039
20
5.075919
30
0.0
11
0.934334
21
4.976336
31
0.0
0
LINE
8
MCD_Layer_0
10
0.614925
20
4.985176
30
0.0
11
0.614925
21
5.032082
31
0.0
0
LINE
8
MCD_Layer_0
10
3.816027
20
4.917513
30
0.0
11
4.127109
21
5.689530
31
0.0
0
LINE
8
MCD_Layer_0
10
5.129662
20
6.059416
30
0.0
11
3.879739
21
5.689530
31
0.0
0
LINE
8
MCD_Layer_0
10
5.129662
20
4.979115
30
0.0
11
3.816027
21
4.987968
31
0.0
0
LINE
8
MCD_Layer_0
10
3.816027
20
5.011452
30
0.0
11
3.821898
21
4.976225
31
0.0
0
LINE
8
MCD_Layer_0
10
3.839512
20
4.976225
30
0.0
11
4.896328
21
5.039937
31
0.0
0
LINE
8
MCD_Layer_0
10
4.529332
20
6.289861
30
0.0
11
3.760205
21
3.663737
31
0.0
0
LINE
8
MCD_Layer_0
10
4.400120
20
3.990231
30
0.0
11
3.824650
21
4.976225
31
0.0
0
LINE
8
MCD_Layer_0
10
3.827769
20
4.976225
30
0.0
11
3.851254
21
4.982096
31
0.0
0
LINE
8
MCD_Layer_0
10
3.816027
20
4.999710
30
0.0
11
3.816027
21
4.917513
31
0.0
0
LINE
8
MCD_Layer_0
10
2.503539
20
5.560318
30
0.0
11
2.830032
21
3.975002
31
0.0
0
LINE
8
MCD_Layer_0
10
4.021611
20
5.560318
30
0.0
11
2.830032
21
4.984849
31
0.0
0
LINE
8
MCD_Layer_0
10
3.816027
20
4.987968
30
0.0
11
3.816027
21
5.011452
31
0.0
0
LINE
8
MCD_Layer_0
10
3.821898
20
4.976225
30
0.0
11
3.839512
21
4.976225
31
0.0
0
LINE
8
MCD_Layer_0
10
2.806181
20
5.181809
30
0.0
11
4.400120
21
3.990231
31
0.0
0
LINE
8
MCD_Layer_0
10
5.069345
20
4.894441
30
0.0
11
2.427213
21
4.996041
31
0.0
0
LINE
8
MCD_Layer_0
10
3.818917
20
4.976225
30
0.0
11
3.827769
21
4.976225
31
0.0
0
LINE
8
MCD_Layer_0
10
3.851254
20
4.982096
30
0.0
11
3.816027
21
4.999710
31
0.0
0
LINE
8
MCD_Layer_0
10
3.816027
20
6.220920
30
0.0
11
3.734243
21
3.587411
31
0.0
0
LINE
8
MCD_Layer_0
10
3.835842
20
5.213963
30
0.0
11
3.906205
21
6.012400
31
0.0
0
LINE
8
MCD_Layer_0
10
2.926219
20
4.984849
30
0.0
11
3.816027
21
4.987968
31
0.0
0
LINE
8
MCD_Layer_0
10
3.839512
20
4.976225
30
0.0
11
4.050875
21
5.066403
31
0.0
0
LINE
8
MCD_Layer_0
10
4.852202
20
4.086417
30
0.0
11
4.822754
21
3.592824
31
0.0
0
LINE
8
MCD_Layer_0
10
4.852202
20
4.086417
30
0.0
11
3.824650
21
4.976225
31
0.0
0
LINE
8
MCD_Layer_0
10
3.816027
20
4.999710
30
0.0
11
3.816027
21
5.974329
31
0.0
0
LINE
8
MCD_Layer_0
10
2.432625
20
6.012400
30
0.0
11
2.926219
21
4.409471
31
0.0
0
LINE
8
MCD_Layer_0
10
3.896252
20
5.683659
30
0.0
11
5.129662
21
4.979115
31
0.0
0
LINE
8
MCD_Layer_0
10
3.240649
20
5.056450
30
0.0
11
4.523461
21
6.289861
31
0.0
0
LINE
8
MCD_Layer_0
10
3.760205
20
5.287307
30
0.0
11
4.523461
21
6.289861
31
0.0
0
LINE
8
MCD_Layer_0
10
3.816027
20
4.917513
30
0.0
11
4.127109
21
5.683659
31
0.0
0
LINE
8
MCD_Layer_0
10
5.129662
20
4.920403
30
0.0
11
4.127109
21
4.286313
31
0.0
0
LINE
8
MCD_Layer_0
10
2.502346
20
4.979115
30
0.0
11
3.816027
21
4.987968
31
0.0
0
LINE
8
MCD_Layer_0
10
3.839512
20
4.976225
30
0.0
11
3.757315
21
5.287307
31
0.0
0
LINE
8
MCD_Layer_0
10
3.126115
20
3.662544
30
0.0
11
3.607554
21
6.473198
31
0.0
0
LINE
8
MCD_Layer_0
10
3.126069
20
3.662544
30
0.0
11
3.818917
21
4.976225
31
0.0
0
LINE
8
MCD_Layer_0
10
3.816027
20
4.999710
30
0.0
11
3.816027
21
4.764862
31
0.0
0
LINE
8
MCD_Layer_0
10
5.313000
20
4.286267
30
0.0
11
2.502346
21
4.767752
31
0.0
0
LINE
8
MCD_Layer_0
10
5.313000
20
5.683613
30
0.0
11
5.129662
21
4.979115
31
0.0
0
LINE
8
MCD_Layer_0
10
3.604664
20
6.473198
30
0.0
11
4.523415
21
6.289861
31
0.0
0
LINE
8
MCD_Layer_0
10
4.781794
20
3.833910
30
0.0
11
4.523415
21
6.289861
31
0.0
0
LINE
8
MCD_Layer_0
10
3.816027
20
5.939102
30
0.0
11
2.673712
21
5.683613
31
0.0
0
LINE
8
MCD_Layer_0
10
5.129662
20
5.108281
30
0.0
11
5.022054
21
5.026039
31
0.0
0
LINE
8
MCD_Layer_0
10
4.138576
20
4.979115
30
0.0
11
3.816027
21
4.987968
31
0.0
0
LINE
8
MCD_Layer_0
10
3.839512
20
4.976225
30
0.0
11
3.945193
21
6.182252
31
0.0
0
LINE
8
MCD_Layer_0
10
3.865841
20
5.298774
30
0.0
11
3.525357
21
3.982983
31
0.0
0
LINE
8
MCD_Layer_0
10
3.419583
20
3.733182
30
0.0
11
3.818917
21
4.976225
31
0.0
0
LINE
8
MCD_Layer_0
10
3.816027
20
4.999710
30
0.0
11
3.816027
21
4.682665
31
0.0
0
LINE
8
MCD_Layer_0
10
2.822785
20
4.579782
30
0.0
11
2.572984
21
5.941992
31
0.0
0
LINE
8
MCD_Layer_0
10
4.193573
20
4.585653
30
0.0
11
2.572984
21
4.979115
31
0.0
0
LINE
8
MCD_Layer_0
10
4.778904
20
5.353771
30
0.0
11
3.425455
21
3.733182
31
0.0
0
LINE
8
MCD_Layer_0
10
4.676112
20
5.718107
30
0.0
11
3.437243
21
5.303545
31
0.0
0
LINE
8
MCD_Layer_0
10
3.816027
20
5.833421
30
0.0
11
4.557908
21
4.597441
31
0.0
0
LINE
8
MCD_Layer_0
10
4.143346
20
4.591616
30
0.0
11
2.435607
21
5.689484
31
0.0
0
LINE
8
MCD_Layer_0
10
3.839512
20
4.976225
30
0.0
11
3.428528
21
3.595805
31
0.0
0
LINE
8
MCD_Layer_0
10
4.529286
20
6.289861
30
0.0
11
3.478387
21
6.052352
31
0.0
0
LINE
8
MCD_Layer_0
10
4.529286
20
6.289861
30
0.0
11
3.818917
21
4.976225
31
0.0
0
LINE
8
MCD_Layer_0
10
3.816027
20
4.999710
30
0.0
11
3.816027
21
4.635696
31
0.0
0
LINE
8
MCD_Layer_0
10
4.892154
20
5.689484
30
0.0
11
5.129662
21
4.638585
31
0.0
0
LINE
8
MCD_Layer_0
10
4.892154
20
4.292139
30
0.0
11
2.502346
21
4.979115
31
0.0
0
LINE
8
MCD_Layer_0
10
3.475497
20
6.052352
30
0.0
11
3.131940
21
3.662544
31
0.0
0
LINE
8
MCD_Layer_0
10
3.760205
20
5.287307
30
0.0
11
3.131986
21
3.662544
31
0.0
0
LINE
8
MCD_Layer_0
10
3.816027
20
4.917513
30
0.0
11
4.127109
21
4.292185
31
0.0
0
LINE
8
MCD_Layer_0
10
2.502346
20
4.920403
30
0.0
11
4.127109
21
5.689530
31
0.0
0
LINE
8
MCD_Layer_0
10
3.839512
20
4.976225
30
0.0
11
4.450117
21
5.097961
31
0.0
0
LINE
8
MCD_Layer_0
10
3.824788
20
3.473198
30
0.0
11
4.453006
21
5.097961
31
0.0
0
LINE
8
MCD_Layer_0
10
4.975543
20
3.567871
30
0.0
11
3.818917
21
4.976225
31
0.0
0
LINE
8
MCD_Layer_0
10
3.816027
20
4.999710
30
0.0
11
3.816027
21
5.610315
31
0.0
0
LINE
8
MCD_Layer_0
10
3.937763
20
6.135742
30
0.0
11
2.407673
21
6.423430
31
0.0
0
LINE
8
MCD_Layer_0
10
2.478311
20
6.135696
30
0.0
11
2.407673
21
4.979115
31
0.0
0
LINE
8
MCD_Layer_0
10
5.260342
20
3.638509
30
0.0
11
4.975497
21
3.567871
31
0.0
0
LINE
8
MCD_Layer_0
10
5.263232
20
3.638509
30
0.0
11
3.824742
21
3.473198
31
0.0
0
LINE
8
MCD_Layer_0
10
3.816027
20
6.420541
30
0.0
11
2.478311
21
4.984940
31
0.0
0
LINE
8
MCD_Layer_0
10
2.313000
20
3.981011
30
0.0
11
2.602753
21
4.984940
31
0.0
0
LINE
8
MCD_Layer_0
10
2.313000
20
4.979115
30
0.0
11
3.816027
21
4.987968
31
0.0
0
LINE
8
MCD_Layer_0
10
3.816027
20
5.152361
30
0.0
11
3.821898
21
4.976225
31
0.0
0
LINE
8
MCD_Layer_0
10
3.851254
20
4.976225
30
0.0
11
2.817923
21
3.762951
31
0.0
0
LINE
8
MCD_Layer_0
10
3.824742
20
3.473198
30
0.0
11
3.102630
21
3.937298
31
0.0
0
LINE
8
MCD_Layer_0
10
5.316027
20
6.437145
30
0.0
11
5.263232
21
3.997432
31
0.0
0
LINE
8
MCD_Layer_0
10
3.789515
20
6.310868
30
0.0
11
3.818917
21
4.976225
31
0.0
0
LINE
8
MCD_Layer_0
10
3.816027
20
4.999710
30
0.0
11
3.816027
21
6.420541
31
0.0
0
LINE
8
MCD_Layer_0
10
2.837234
20
4.949713
30
0.0
11
5.150670
21
4.979115
31
0.0
0
LINE
8
MCD_Layer_0
10
4.567541
20
4.104260
30
0.0
11
2.956263
21
4.979069
31
0.0
0
LINE
8
MCD_Layer_0
10
3.816027
20
5.727739
30
0.0
11
2.944062
21
4.116461
31
0.0
0
LINE
8
MCD_Layer_0
10
3.478341
20
5.300838
30
0.0
11
5.263095
21
3.638509
31
0.0
0
LINE
8
MCD_Layer_0
10
3.816027
20
4.635696
30
0.0
11
4.140640
21
6.423293
31
0.0
0
LINE
8
MCD_Layer_0
10
2.478311
20
4.591616
30
0.0
11
3.972302
21
6.423339
31
0.0
0
LINE
8
MCD_Layer_0
10
2.478311
20
4.979115
30
0.0
11
3.816027
21
4.987968
31
0.0
0
LINE
8
MCD_Layer_0
10
3.839512
20
4.976225
30
0.0
11
3.428528
21
5.132500
31
0.0
0
LINE
8
MCD_Layer_0
10
5.263140
20
3.638509
30
0.0
11
4.793536
21
6.172620
31
0.0
0
LINE
8
MCD_Layer_0
10
4.640839
20
4.080409
30
0.0
11
3.818871
21
4.976225
31
0.0
0
LINE
8
MCD_Layer_0
10
3.816027
20
4.999710
30
0.0
11
3.816027
21
5.950845
31
0.0
0
LINE
8
MCD_Layer_0
10
5.012422
20
5.801037
30
0.0
11
2.920210
21
5.730583
31
0.0
0
LINE
8
MCD_Layer_0
10
3.077127
20
3.546496
30
0.0
11
5.153698
21
4.979115
31
0.0
0
LINE
8
MCD_Layer_0
10
3.816027
20
4.987968
30
0.0
11
3.816027
21
5.152361
31
0.0
0
LINE
8
MCD_Layer_0
10
3.821898
20
4.976225
30
0.0
11
3.851254
21
4.976225
31
0.0
0
LINE
8
MCD_Layer_0
10
4.567541
20
4.237326
30
0.0
11
2.386298
21
6.313896
31
0.0
0
LINE
8
MCD_Layer_0
10
2.621192
20
4.183200
30
0.0
11
3.924553
21
6.440172
31
0.0
0
LINE
8
MCD_Layer_0
10
5.145808
20
4.002844
30
0.0
11
3.818871
21
3.473198
31
0.0
0
LINE
8
MCD_Layer_0
10
3.816027
20
6.303117
30
0.0
11
2.842646
21
4.979069
31
0.0
0
LINE
8
MCD_Layer_0
10
2.313000
20
4.979115
30
0.0
11
2.688757
21
4.979069
31
0.0
0
LINE
8
MCD_Layer_0
10
3.839512
20
4.976225
30
0.0
11
3.816027
21
3.848955
31
0.0
0
LINE
8
MCD_Layer_0
10
3.818871
20
3.473198
30
0.0
11
3.818917
21
3.848955
31
0.0
0
LINE
8
MCD_Layer_0
10
4.969626
20
3.567871
30
0.0
11
3.818917
21
4.976225
31
0.0
0
LINE
8
MCD_Layer_0
10
3.816027
20
4.999710
30
0.0
11
3.816027
21
4.976225
31
0.0
0
LINE
8
MCD_Layer_0
10
2.688757
20
6.129824
30
0.0
11
2.407673
21
5.613205
31
0.0
0
LINE
8
MCD_Layer_0
10
3.937763
20
6.129870
30
0.0
11
2.407673
21
4.979115
31
0.0
0
LINE
8
MCD_Layer_0
10
4.450117
20
5.097961
30
0.0
11
4.969672
21
3.567871
31
0.0
0
LINE
8
MCD_Layer_0
10
4.453006
20
5.097961
30
0.0
11
3.818917
21
3.473198
31
0.0
0
LINE
8
MCD_Layer_0
10
3.816027
20
5.610315
30
0.0
11
3.937763
21
4.979115
31
0.0
0
LINE
8
MCD_Layer_0
10
2.313000
20
6.435173
30
0.0
11
3.860795
21
4.979115
31
0.0
0
LINE
8
MCD_Layer_0
10
3.851254
20
4.976225
30
0.0
11
5.272085
21
5.020993
31
0.0
0
LINE
8
MCD_Layer_0
10
3.818917
20
3.473198
30
0.0
11
2.609449
21
4.867379
31
0.0
0
LINE
8
MCD_Layer_0
10
3.701447
20
6.434118
30
0.0
11
2.374601
21
4.777201
31
0.0
0
LINE
8
MCD_Layer_0
10
3.689705
20
6.349949
30
0.0
11
3.818917
21
4.976225
31
0.0
0
LINE
8
MCD_Layer_0
10
3.816027
20
4.999710
30
0.0
11
3.816027
21
3.531910
31
0.0
0
LINE
8
MCD_Layer_0
10
3.617003
20
4.849903
30
0.0
11
5.189750
21
4.662070
31
0.0
0
LINE
8
MCD_Layer_0
10
4.976323
20
3.816571
30
0.0
11
4.284943
21
4.979023
31
0.0
0
LINE
8
MCD_Layer_0
10
3.498982
20
6.136521
30
0.0
11
2.656373
21
5.445142
31
0.0
0
LINE
8
MCD_Layer_0
10
4.229809
20
5.655587
30
0.0
11
2.656373
21
5.445142
31
0.0
0
LINE
8
MCD_Layer_0
10
3.818825
20
4.976225
30
0.0
11
3.827769
21
4.976225
31
0.0
0
LINE
8
MCD_Layer_0
10
3.816027
20
5.387209
30
0.0
11
4.495389
21
3.816571
31
0.0
0
LINE
8
MCD_Layer_0
10
4.284943
20
4.979023
30
0.0
11
3.816027
21
4.236454
31
0.0
0
LINE
8
MCD_Layer_0
10
4.588549
20
4.979115
30
0.0
11
3.816027
21
4.987968
31
0.0
0
LINE
8
MCD_Layer_0
10
3.839512
20
4.976225
30
0.0
11
3.816027
21
4.976225
31
0.0
0
LINE
8
MCD_Layer_0
10
3.076256
20
5.748747
30
0.0
11
5.110581
21
5.763792
31
0.0
0
LINE
8
MCD_Layer_0
10
4.400120
20
5.493258
30
0.0
11
3.818825
21
4.976225
31
0.0
0
LINE
8
MCD_Layer_0
10
3.816027
20
4.999710
30
0.0
11
3.816027
21
6.267889
31
0.0
0
LINE
8
MCD_Layer_0
10
4.603594
20
5.560318
30
0.0
11
4.333060
21
6.423339
31
0.0
0
LINE
8
MCD_Layer_0
10
5.108609
20
5.560318
30
0.0
11
4.333060
21
4.979023
31
0.0
0
LINE
8
MCD_Layer_0
10
5.260342
20
6.268807
30
0.0
11
4.400120
21
5.493258
31
0.0
0
LINE
8
MCD_Layer_0
10
2.351025
20
4.743533
30
0.0
11
3.695576
21
6.349949
31
0.0
0
LINE
8
MCD_Layer_0
10
3.992163
20
4.982096
30
0.0
11
3.816027
21
5.011452
31
0.0
0
LINE
8
MCD_Layer_0
10
3.816027
20
3.508425
30
0.0
11
3.583335
21
4.855774
31
0.0
0
LINE
8
MCD_Layer_0
10
5.189750
20
6.329491
30
0.0
11
3.661495
21
4.867516
31
0.0
0
LINE
8
MCD_Layer_0
10
5.273920
20
5.789341
30
0.0
11
3.825935
21
4.984986
31
0.0
0
LINE
8
MCD_Layer_0
10
3.839512
20
4.976225
30
0.0
11
4.626253
21
4.986133
31
0.0
0
LINE
8
MCD_Layer_0
10
3.824788
20
3.473198
30
0.0
11
3.818917
21
4.976225
31
0.0
0
LINE
8
MCD_Layer_0
10
7.023327
20
5.471982
30
0.0
11
5.971973
21
5.013912
31
0.0
0
LINE
8
MCD_Layer_0
10
7.023327
20
4.585962
30
0.0
11
5.564275
21
5.007878
31
0.0
0
LINE
8
MCD_Layer_0
10
7.023327
20
5.005025
30
0.0
11
7.023327
21
5.016999
31
0.0
0
LINE
8
MCD_Layer_0
10
7.023327
20
5.040945
30
0.0
11
7.029314
21
5.005025
31
0.0
0
LINE
8
MCD_Layer_0
10
7.047274
20
5.005025
30
0.0
11
6.604264
21
3.545973
31
0.0
0
LINE
8
MCD_Layer_0
10
7.026180
20
5.005025
30
0.0
11
6.604264
21
3.545973
31
0.0
0
LINE
8
MCD_Layer_0
10
7.469190
20
5.783567
30
0.0
11
7.026227
21
5.005025
31
0.0
0
LINE
8
MCD_Layer_0
10
7.035300
20
5.005025
30
0.0
11
7.059247
21
5.011012
31
0.0
0
LINE
8
MCD_Layer_0
10
7.023327
20
5.028972
30
0.0
11
7.023327
21
4.585962
31
0.0
0
LINE
8
MCD_Layer_0
10
5.564275
20
5.450888
30
0.0
11
7.801869
21
5.115684
31
0.0
0
LINE
8
MCD_Layer_0
10
7.452447
20
5.456781
30
0.0
11
7.801869
21
5.007925
31
0.0
0
LINE
8
MCD_Layer_0
10
7.023327
20
5.016999
30
0.0
11
7.023327
21
5.040945
31
0.0
0
LINE
8
MCD_Layer_0
10
7.029314
20
5.005025
30
0.0
11
7.047274
21
5.005025
31
0.0
0
LINE
8
MCD_Layer_0
10
7.131086
20
5.434145
30
0.0
11
7.475083
21
5.783567
31
0.0
0
LINE
8
MCD_Layer_0
10
7.133986
20
5.434145
30
0.0
11
6.421438
21
4.792266
31
0.0
0
LINE
8
MCD_Layer_0
10
7.026227
20
5.005025
30
0.0
11
7.035300
21
5.005025
31
0.0
0
LINE
8
MCD_Layer_0
10
7.059247
20
5.011012
30
0.0
11
7.023327
21
5.028972
31
0.0
0
LINE
8
MCD_Layer_0
10
7.023327
20
5.112784
30
0.0
11
7.452447
21
4.403136
31
0.0
0
LINE
8
MCD_Layer_0
10
6.810568
20
5.103711
30
0.0
11
5.834047
21
4.397243
31
0.0
0
LINE
8
MCD_Layer_0
10
6.810568
20
5.007925
30
0.0
11
7.023327
21
5.016999
31
0.0
0
LINE
8
MCD_Layer_0
10
7.047274
20
5.005025
30
0.0
11
7.119113
21
3.815745
31
0.0
0
LINE
8
MCD_Layer_0
10
6.415545
20
4.792266
30
0.0
11
7.122013
21
3.815745
31
0.0
0
LINE
8
MCD_Layer_0
10
6.738822
20
4.375401
30
0.0
11
7.026227
21
5.005025
31
0.0
0
LINE
8
MCD_Layer_0
10
7.023327
20
5.028972
30
0.0
11
7.023327
21
5.100811
31
0.0
0
LINE
8
MCD_Layer_0
10
5.834047
20
4.720520
30
0.0
11
6.393703
21
3.822574
31
0.0
0
LINE
8
MCD_Layer_0
10
5.585742
20
4.720567
30
0.0
11
6.393703
21
5.007925
31
0.0
0
LINE
8
MCD_Layer_0
10
5.837976
20
3.567440
30
0.0
11
6.738869
21
4.375401
31
0.0
0
LINE
8
MCD_Layer_0
10
5.840876
20
3.567440
30
0.0
11
7.720675
21
5.735440
31
0.0
0
LINE
8
MCD_Layer_0
10
7.026274
20
5.005025
30
0.0
11
7.035300
21
5.005025
31
0.0
0
LINE
8
MCD_Layer_0
10
7.023327
20
3.819674
30
0.0
11
5.585742
21
5.702373
31
0.0
0
LINE
8
MCD_Layer_0
10
7.753742
20
5.103758
30
0.0
11
5.834047
21
5.702327
31
0.0
0
LINE
8
MCD_Layer_0
10
7.753742
20
5.007972
30
0.0
11
7.023327
21
5.016999
31
0.0
0
LINE
8
MCD_Layer_0
10
7.720629
20
5.735440
30
0.0
11
7.122060
21
3.815745
31
0.0
0
LINE
8
MCD_Layer_0
10
6.355678
20
5.526984
30
0.0
11
7.026274
21
5.005025
31
0.0
0
LINE
8
MCD_Layer_0
10
5.834047
20
4.337376
30
0.0
11
7.545286
21
3.643022
31
0.0
0
LINE
8
MCD_Layer_0
10
6.900695
20
4.343269
30
0.0
11
7.545286
21
5.007972
31
0.0
0
LINE
8
MCD_Layer_0
10
5.658377
20
4.882393
30
0.0
11
6.361571
21
5.526984
31
0.0
0
LINE
8
MCD_Layer_0
10
5.661324
20
4.882393
30
0.0
11
6.960234
21
6.280083
31
0.0
0
LINE
8
MCD_Layer_0
10
7.023327
20
3.640075
30
0.0
11
6.900695
21
4.941932
31
0.0
0
LINE
8
MCD_Layer_0
10
8.298385
20
5.271383
30
0.0
11
7.201102
21
4.936086
31
0.0
0
LINE
8
MCD_Layer_0
10
8.298385
20
5.007972
30
0.0
11
7.023327
21
5.016999
31
0.0
0
LINE
8
MCD_Layer_0
10
7.047274
20
5.005025
30
0.0
11
7.286739
21
5.182800
31
0.0
0
LINE
8
MCD_Layer_0
10
6.954388
20
6.280083
30
0.0
11
7.289685
21
5.182800
31
0.0
0
LINE
8
MCD_Layer_0
10
6.870575
20
6.022611
30
0.0
11
7.026274
21
5.005025
31
0.0
0
LINE
8
MCD_Layer_0
10
7.023327
20
5.028972
30
0.0
11
7.023327
21
5.268437
31
0.0
0
LINE
8
MCD_Layer_0
10
7.201102
20
4.852273
30
0.0
11
8.040913
21
5.474928
31
0.0
0
LINE
8
MCD_Layer_0
10
5.971973
20
4.852273
30
0.0
11
8.040913
21
5.007972
31
0.0
0
LINE
8
MCD_Layer_0
10
7.490284
20
3.953671
30
0.0
11
6.870575
21
6.022611
31
0.0
0
LINE
8
MCD_Layer_0
10
7.493230
20
3.953671
30
0.0
11
6.319805
21
3.665518
31
0.0
0
LINE
8
MCD_Layer_0
10
7.023327
20
5.471982
30
0.0
11
5.971973
21
4.301503
31
0.0
0
LINE
8
MCD_Layer_0
10
5.683820
20
5.474928
30
0.0
11
5.971973
21
4.307490
31
0.0
0
LINE
8
MCD_Layer_0
10
5.683820
20
5.007972
30
0.0
11
7.023327
21
5.016999
31
0.0
0
LINE
8
MCD_Layer_0
10
7.047274
20
5.005025
30
0.0
11
7.490284
21
3.953671
31
0.0
0
LINE
8
MCD_Layer_0
10
6.325792
20
3.665518
30
0.0
11
7.493230
21
3.953671
31
0.0
0
LINE
8
MCD_Layer_0
10
7.750608
20
6.344486
30
0.0
11
7.026274
21
5.005025
31
0.0
0
LINE
8
MCD_Layer_0
10
7.023327
20
5.028972
30
0.0
11
7.023327
21
5.471982
31
0.0
0
LINE
8
MCD_Layer_0
10
5.971973
20
5.732306
30
0.0
11
8.362787
21
5.786233
31
0.0
0
LINE
8
MCD_Layer_0
10
5.555108
20
5.732306
30
0.0
11
8.362787
21
5.007972
31
0.0
0
LINE
8
MCD_Layer_0
10
7.801588
20
3.536806
30
0.0
11
7.750608
21
6.344486
31
0.0
0
LINE
8
MCD_Layer_0
10
7.804535
20
3.536806
30
0.0
11
7.702715
21
5.789694
31
0.0
0
LINE
8
MCD_Layer_0
10
7.023327
20
5.783286
30
0.0
11
5.555108
21
5.684414
31
0.0
0
LINE
8
MCD_Layer_0
10
7.807996
20
5.474882
30
0.0
11
5.971973
21
5.684414
31
0.0
0
LINE
8
MCD_Layer_0
10
7.807996
20
5.007925
30
0.0
11
7.023327
21
5.016999
31
0.0
0
LINE
8
MCD_Layer_0
10
7.702715
20
5.789694
30
0.0
11
7.493184
21
3.953671
31
0.0
0
LINE
8
MCD_Layer_0
10
7.032214
20
5.005025
30
0.0
11
7.023327
21
5.005025
31
0.0
0
LINE
8
MCD_Layer_0
10
7.023327
20
5.028972
30
0.0
11
7.023327
21
3.819674
31
0.0
0
LINE
8
MCD_Layer_0
10
5.585742
20
5.456922
30
0.0
11
5.503005
21
3.822527
31
0.0
0
LINE
8
MCD_Layer_0
10
5.585742
20
5.229430
30
0.0
11
7.029454
21
5.007925
31
0.0
0
LINE
8
MCD_Layer_0
10
5.837976
20
3.567440
30
0.0
11
7.247732
21
5.011152
31
0.0
0
LINE
8
MCD_Layer_0
10
6.307832
20
6.347526
30
0.0
11
7.247732
21
5.011152
31
0.0
0
LINE
8
MCD_Layer_0
10
7.202926
20
5.011012
30
0.0
11
7.023327
21
5.040945
31
0.0
0
LINE
8
MCD_Layer_0
10
7.023327
20
4.286630
30
0.0
11
8.365828
21
5.229430
31
0.0
0
LINE
8
MCD_Layer_0
10
7.029454
20
6.372875
30
0.0
11
7.998024
21
4.834313
31
0.0
0
LINE
8
MCD_Layer_0
10
7.188801
20
4.145851
30
0.0
11
7.850884
21
5.373109
31
0.0
0
LINE
8
MCD_Layer_0
10
7.544397
20
5.007925
30
0.0
11
7.023327
21
5.016999
31
0.0
0
LINE
8
MCD_Layer_0
10
7.047274
20
5.005025
30
0.0
11
6.161253
21
5.832582
31
0.0
0
LINE
8
MCD_Layer_0
10
7.391411
20
5.526095
30
0.0
11
6.164153
21
5.832582
31
0.0
0
LINE
8
MCD_Layer_0
10
7.834421
20
6.410385
30
0.0
11
7.026274
21
5.005025
31
0.0
0
LINE
8
MCD_Layer_0
10
7.035300
20
5.005025
30
0.0
11
7.202926
21
5.011012
31
0.0
0
LINE
8
MCD_Layer_0
10
7.023327
20
5.040945
30
0.0
11
7.023327
21
4.142951
31
0.0
0
LINE
8
MCD_Layer_0
10
7.850884
20
5.816119
30
0.0
11
8.428687
21
6.372922
31
0.0
0
LINE
8
MCD_Layer_0
10
7.998024
20
4.415249
30
0.0
11
8.517551
21
4.289577
31
0.0
0
LINE
8
MCD_Layer_0
10
8.365828
20
6.187290
30
0.0
11
5.491500
21
5.007972
31
0.0
0
LINE
8
MCD_Layer_0
10
6.304932
20
6.347526
30
0.0
11
8.205592
21
3.473198
31
0.0
0
LINE
8
MCD_Layer_0
10
5.840922
20
3.567440
30
0.0
11
8.205592
21
3.473198
31
0.0
0
LINE
8
MCD_Layer_0
10
7.023327
20
3.819674
30
0.0
11
5.585742
21
6.187290
31
0.0
0
LINE
8
MCD_Layer_0
10
5.491500
20
3.822620
30
0.0
11
5.585742
21
6.187290
31
0.0
0
LINE
8
MCD_Layer_0
10
5.587286
20
5.007972
30
0.0
11
7.023327
21
5.016999
31
0.0
0
LINE
8
MCD_Layer_0
10
7.047274
20
5.005025
30
0.0
11
5.837976
21
3.567440
31
0.0
0
LINE
8
MCD_Layer_0
10
8.205592
20
3.568984
30
0.0
11
5.840922
21
3.567440
31
0.0
0
LINE
8
MCD_Layer_0
10
8.199605
20
3.568984
30
0.0
11
7.026274
21
5.005025
31
0.0
0
LINE
8
MCD_Layer_0
10
5.585742
20
6.181303
30
0.0
11
5.587286
21
3.822620
31
0.0
0
LINE
8
MCD_Layer_0
10
5.585742
20
4.145851
30
0.0
11
8.234028
21
5.007972
31
0.0
0
LINE
8
MCD_Layer_0
10
5.837976
20
3.567440
30
0.0
11
6.164153
21
6.215726
31
0.0
0
LINE
8
MCD_Layer_0
10
7.517177
20
5.955215
30
0.0
11
6.164153
21
6.215726
31
0.0
0
LINE
8
MCD_Layer_0
10
7.023327
20
5.495928
30
0.0
11
7.973517
21
4.145851
31
0.0
0
LINE
8
MCD_Layer_0
10
8.234028
20
5.498875
30
0.0
11
7.973517
21
5.726320
31
0.0
0
LINE
8
MCD_Layer_0
10
8.362787
20
5.007972
30
0.0
11
7.023327
21
5.016999
31
0.0
0
LINE
8
MCD_Layer_0
10
7.023327
20
5.184624
30
0.0
11
7.029314
21
5.005025
31
0.0
0
LINE
8
MCD_Layer_0
10
7.059247
20
5.005025
30
0.0
11
7.514230
21
5.955215
31
0.0
0
LINE
8
MCD_Layer_0
10
7.744622
20
6.344486
30
0.0
11
8.343331
21
5.808075
31
0.0
0
LINE
8
MCD_Layer_0
10
6.343752
20
6.433349
30
0.0
11
7.361525
21
5.440272
31
0.0
0
LINE
8
MCD_Layer_0
10
6.247966
20
6.473198
30
0.0
11
7.026274
21
5.005025
31
0.0
0
LINE
8
MCD_Layer_0
10
7.023327
20
5.028972
30
0.0
11
7.023327
21
5.340276
31
0.0
0
LINE
8
MCD_Layer_0
10
7.458573
20
4.229664
30
0.0
11
8.491500
21
4.588908
31
0.0
0
LINE
8
MCD_Layer_0
10
5.564275
20
4.235604
30
0.0
11
8.491500
21
5.007972
31
0.0
0
LINE
8
MCD_Layer_0
10
6.604264
20
3.545973
30
0.0
11
6.253906
21
6.473198
31
0.0
0
LINE
8
MCD_Layer_0
10
6.607210
20
3.545973
30
0.0
11
7.080060
21
5.333915
31
0.0
0
LINE
8
MCD_Layer_0
10
7.023327
20
4.585962
30
0.0
11
5.564275
21
5.061758
31
0.0
0
LINE
8
MCD_Layer_0
10
7.352217
20
5.247437
30
0.0
11
6.348990
21
5.055771
31
0.0
0
LINE
8
MCD_Layer_0
10
7.352217
20
5.007972
30
0.0
11
7.023327
21
5.016999
31
0.0
0
LINE
8
MCD_Layer_0
10
7.059247
20
5.005025
30
0.0
11
7.262792
21
4.330688
31
0.0
0
LINE
8
MCD_Layer_0
10
7.074073
20
5.333915
30
0.0
11
8.127813
21
5.035660
31
0.0
0
LINE
8
MCD_Layer_0
10
8.391177
20
5.370677
30
0.0
11
7.289685
21
5.182800
31
0.0
0
LINE
8
MCD_Layer_0
10
5.577464
20
5.462628
30
0.0
11
7.026274
21
5.005025
31
0.0
0
LINE
8
MCD_Layer_0
10
7.201102
20
3.559162
30
0.0
11
7.480930
21
5.271383
31
0.0
0
LINE
8
MCD_Layer_0
10
7.201102
20
6.420768
30
0.0
11
7.560627
21
5.007972
31
0.0
0
LINE
8
MCD_Layer_0
10
7.286739
20
5.182800
30
0.0
11
8.439070
21
5.542325
31
0.0
0
LINE
8
MCD_Layer_0
10
7.517177
20
5.955215
30
0.0
11
8.439070
21
5.542325
31
0.0
0
LINE
8
MCD_Layer_0
10
7.023327
20
5.495928
30
0.0
11
7.973517
21
6.420768
31
0.0
0
LINE
8
MCD_Layer_0
10
7.560627
20
5.498875
30
0.0
11
7.973517
21
6.360902
31
0.0
0
LINE
8
MCD_Layer_0
10
6.779934
20
5.007925
30
0.0
11
7.023327
21
5.016999
31
0.0
0
LINE
8
MCD_Layer_0
10
7.047274
20
5.005025
30
0.0
11
7.514230
21
5.955215
31
0.0
0
LINE
8
MCD_Layer_0
10
8.379204
20
4.761632
30
0.0
11
7.289638
21
5.182800
31
0.0
0
LINE
8
MCD_Layer_0
10
8.379204
20
4.761632
30
0.0
11
7.026227
21
5.005025
31
0.0
0
LINE
8
MCD_Layer_0
10
7.201102
20
6.360902
30
0.0
11
6.779934
21
5.271336
31
0.0
0
LINE
8
MCD_Layer_0
10
7.201102
20
5.977758
30
0.0
11
6.939327
21
5.007925
31
0.0
0
LINE
8
MCD_Layer_0
10
7.023327
20
5.016999
30
0.0
11
7.023327
21
5.184624
31
0.0
0
LINE
8
MCD_Layer_0
10
7.029314
20
5.005025
30
0.0
11
7.059247
21
5.005025
31
0.0
0
LINE
8
MCD_Layer_0
10
7.286739
20
5.182800
30
0.0
11
7.996060
21
4.921025
31
0.0
0
LINE
8
MCD_Layer_0
10
8.127766
20
5.035660
30
0.0
11
7.744622
21
5.054976
31
0.0
0
LINE
8
MCD_Layer_0
10
7.265739
20
4.330688
30
0.0
11
6.008454
21
5.091738
31
0.0
0
LINE
8
MCD_Layer_0
10
7.023327
20
5.244490
30
0.0
11
6.348990
21
3.990152
31
0.0
0
LINE
8
MCD_Layer_0
10
7.110040
20
4.588908
30
0.0
11
5.564275
21
3.996139
31
0.0
0
LINE
8
MCD_Layer_0
10
7.110040
20
5.007972
30
0.0
11
7.023327
21
5.016999
31
0.0
0
LINE
8
MCD_Layer_0
10
6.014441
20
5.091738
30
0.0
11
6.607210
21
3.545973
31
0.0
0
LINE
8
MCD_Layer_0
10
7.391364
20
5.526095
30
0.0
11
7.026227
21
5.005025
31
0.0
0
LINE
8
MCD_Layer_0
10
7.023327
20
5.040945
30
0.0
11
7.023327
21
4.585962
31
0.0
0
LINE
8
MCD_Layer_0
10
5.564275
20
5.373062
30
0.0
11
7.544397
21
4.433209
31
0.0
0
LINE
8
MCD_Layer_0
10
8.114483
20
4.834266
30
0.0
11
7.188801
21
5.223443
31
0.0
0
LINE
8
MCD_Layer_0
10
6.263166
20
5.229337
30
0.0
11
7.029454
21
5.007925
31
0.0
0
LINE
8
MCD_Layer_0
10
7.238846
20
4.244864
30
0.0
11
7.247639
21
5.011152
31
0.0
0
LINE
8
MCD_Layer_0
10
7.133986
20
5.434145
30
0.0
11
7.241605
21
5.011152
31
0.0
0
LINE
8
MCD_Layer_0
10
7.023327
20
5.112784
30
0.0
11
7.452447
21
5.223303
31
0.0
0
LINE
8
MCD_Layer_0
10
7.029454
20
5.115684
30
0.0
11
7.452447
21
5.450795
31
0.0
0
LINE
8
MCD_Layer_0
10
5.503005
20
5.007878
30
0.0
11
7.023327
21
5.016999
31
0.0
0
LINE
8
MCD_Layer_0
10
7.047274
20
5.005025
30
0.0
11
7.131086
21
5.434145
31
0.0
0
LINE
8
MCD_Layer_0
10
7.469097
20
3.484703
30
0.0
11
5.840829
21
3.567440
31
0.0
0
LINE
8
MCD_Layer_0
10
7.475224
20
3.484703
30
0.0
11
7.026180
21
5.005025
31
0.0
0
LINE
8
MCD_Layer_0
10
9.661646
20
3.685392
30
0.0
11
10.464372
21
4.979092
31
0.0
0
LINE
8
MCD_Layer_0
10
9.661646
20
3.685392
30
0.0
11
10.464372
21
4.973198
31
0.0
0
LINE
8
MCD_Layer_0
10
9.661646
20
4.970343
30
0.0
11
9.661646
21
4.982131
31
0.0
0
LINE
8
MCD_Layer_0
10
9.661646
20
5.005709
30
0.0
11
9.667540
21
4.970343
31
0.0
0
LINE
8
MCD_Layer_0
10
9.685223
20
4.970343
30
0.0
11
8.376695
21
5.773069
31
0.0
0
LINE
8
MCD_Layer_0
10
9.664501
20
4.970343
30
0.0
11
8.376695
21
5.773069
31
0.0
0
LINE
8
MCD_Layer_0
10
10.324660
20
5.742907
30
0.0
11
9.664501
21
4.970343
31
0.0
0
LINE
8
MCD_Layer_0
10
9.673435
20
4.970343
30
0.0
11
9.697012
21
4.976237
31
0.0
0
LINE
8
MCD_Layer_0
10
9.661646
20
4.993920
30
0.0
11
9.661646
21
3.685392
31
0.0
0
LINE
8
MCD_Layer_0
10
10.464372
20
5.633356
30
0.0
11
10.434210
21
3.676458
31
0.0
0
LINE
8
MCD_Layer_0
10
9.625406
20
5.633310
30
0.0
11
10.434210
21
4.973198
31
0.0
0
LINE
8
MCD_Layer_0
10
9.661646
20
4.982131
30
0.0
11
9.661646
21
5.005709
31
0.0
0
LINE
8
MCD_Layer_0
10
9.667540
20
4.970343
30
0.0
11
9.685223
21
4.970343
31
0.0
0
LINE
8
MCD_Layer_0
10
8.364906
20
4.934102
30
0.0
11
10.324614
21
5.742907
31
0.0
0
LINE
8
MCD_Layer_0
10
8.367761
20
4.934102
30
0.0
11
10.678270
21
6.255939
31
0.0
0
LINE
8
MCD_Layer_0
10
9.664547
20
4.970343
30
0.0
11
9.673435
21
4.970343
31
0.0
0
LINE
8
MCD_Layer_0
10
9.697012
20
4.976237
30
0.0
11
9.661646
21
4.993920
31
0.0
0
LINE
8
MCD_Layer_0
10
9.661646
20
3.673603
30
0.0
11
9.625406
21
5.986967
31
0.0
0
LINE
8
MCD_Layer_0
10
10.947242
20
4.761050
30
0.0
11
11.164501
21
5.987013
31
0.0
0
LINE
8
MCD_Layer_0
10
10.947242
20
4.973244
30
0.0
11
9.661646
21
4.982131
31
0.0
0
LINE
8
MCD_Layer_0
10
9.685223
20
4.970343
30
0.0
11
9.449452
21
6.473198
31
0.0
0
LINE
8
MCD_Layer_0
10
10.678316
20
6.255939
30
0.0
11
9.452353
21
6.473198
31
0.0
0
LINE
8
MCD_Layer_0
10
10.914087
20
5.969238
30
0.0
11
9.664547
21
4.970343
31
0.0
0
LINE
8
MCD_Layer_0
10
9.661646
20
4.993920
30
0.0
11
9.661646
21
4.758149
31
0.0
0
LINE
8
MCD_Layer_0
10
11.164501
20
6.222783
30
0.0
11
10.660541
21
5.185438
31
0.0
0
LINE
8
MCD_Layer_0
10
9.290445
20
6.222783
30
0.0
11
10.660541
21
4.973244
31
0.0
0
LINE
8
MCD_Layer_0
10
9.873840
20
4.599142
30
0.0
11
10.914087
21
5.969238
31
0.0
0
LINE
8
MCD_Layer_0
10
9.876741
20
4.599142
30
0.0
11
9.664501
21
3.650026
31
0.0
0
LINE
8
MCD_Layer_0
10
9.661646
20
5.182537
30
0.0
11
9.290445
21
4.973198
31
0.0
0
LINE
8
MCD_Layer_0
10
8.341329
20
5.185438
30
0.0
11
9.290445
21
4.979092
31
0.0
0
LINE
8
MCD_Layer_0
10
8.341329
20
4.973244
30
0.0
11
9.661646
21
4.982131
31
0.0
0
LINE
8
MCD_Layer_0
10
9.685223
20
4.970343
30
0.0
11
9.873840
21
4.599142
31
0.0
0
LINE
8
MCD_Layer_0
10
9.670395
20
3.650026
30
0.0
11
9.876741
21
4.599142
31
0.0
0
LINE
8
MCD_Layer_0
10
10.919981
20
5.969238
30
0.0
11
9.664547
21
4.970343
31
0.0
0
LINE
8
MCD_Layer_0
10
9.661646
20
4.993920
30
0.0
11
9.661646
21
5.182537
31
0.0
0
LINE
8
MCD_Layer_0
10
9.290445
20
6.228678
30
0.0
11
10.660541
21
4.761050
31
0.0
0
LINE
8
MCD_Layer_0
10
11.164501
20
6.228678
30
0.0
11
10.660541
21
4.973244
31
0.0
0
LINE
8
MCD_Layer_0
10
9.449452
20
6.473198
30
0.0
11
10.919981
21
5.969238
31
0.0
0
LINE
8
MCD_Layer_0
10
9.452353
20
6.473198
30
0.0
11
10.684210
21
6.255939
31
0.0
0
LINE
8
MCD_Layer_0
10
9.661646
20
4.758149
30
0.0
11
11.164501
21
5.992907
31
0.0
0
LINE
8
MCD_Layer_0
10
10.947242
20
3.676504
30
0.0
11
9.625406
21
5.992861
31
0.0
0
LINE
8
MCD_Layer_0
10
9.685223
20
4.970343
30
0.0
11
8.364906
21
4.934102
31
0.0
0
LINE
8
MCD_Layer_0
10
10.684164
20
6.255939
30
0.0
11
8.367808
21
4.934102
31
0.0
0
LINE
8
MCD_Layer_0
10
10.330508
20
5.742907
30
0.0
11
9.664501
21
4.970343
31
0.0
0
LINE
8
MCD_Layer_0
10
9.661646
20
4.993920
30
0.0
11
9.661646
21
3.673603
31
0.0
0
LINE
8
MCD_Layer_0
10
9.625406
20
5.639205
30
0.0
11
10.434210
21
3.688247
31
0.0
0
LINE
8
MCD_Layer_0
10
10.464372
20
5.639251
30
0.0
11
10.434210
21
4.973198
31
0.0
0
LINE
8
MCD_Layer_0
10
8.376695
20
5.773069
30
0.0
11
10.330554
21
5.742907
31
0.0
0
LINE
8
MCD_Layer_0
10
8.379550
20
5.773069
30
0.0
11
9.670395
21
4.970343
31
0.0
0
LINE
8
MCD_Layer_0
10
9.661646
20
4.970343
30
0.0
11
9.673435
21
4.970343
31
0.0
0
LINE
8
MCD_Layer_0
10
9.661646
20
3.473198
30
0.0
11
9.703873
21
5.415268
31
0.0
0
LINE
8
MCD_Layer_0
10
8.164777
20
3.476007
30
0.0
11
9.703873
21
5.415268
31
0.0
0
LINE
8
MCD_Layer_0
10
9.673711
20
4.973198
30
0.0
11
9.661646
21
4.982131
31
0.0
0
LINE
8
MCD_Layer_0
10
9.685223
20
4.970343
30
0.0
11
8.164501
21
5.012570
31
0.0
0
LINE
8
MCD_Layer_0
10
10.106572
20
4.982408
30
0.0
11
8.214510
21
4.427103
31
0.0
0
LINE
8
MCD_Layer_0
10
10.106526
20
4.982408
30
0.0
11
9.664501
21
4.970343
31
0.0
0
LINE
8
MCD_Layer_0
10
9.673435
20
4.970343
30
0.0
11
9.838474
21
4.976237
31
0.0
0
LINE
8
MCD_Layer_0
10
9.661646
20
5.005709
30
0.0
11
9.661646
21
3.520352
31
0.0
0
LINE
8
MCD_Layer_0
10
9.118406
20
5.415222
30
0.0
11
9.673711
21
4.607753
31
0.0
0
LINE
8
MCD_Layer_0
10
8.394101
20
4.590024
30
0.0
11
9.818535
21
4.513445
31
0.0
0
LINE
8
MCD_Layer_0
10
11.073969
20
5.556685
30
0.0
11
10.180710
21
4.973198
31
0.0
0
LINE
8
MCD_Layer_0
10
9.201893
20
6.382666
30
0.0
11
10.247988
21
5.489407
31
0.0
0
LINE
8
MCD_Layer_0
10
9.204748
20
6.382666
30
0.0
11
9.988640
21
6.446075
31
0.0
0
LINE
8
MCD_Layer_0
10
9.661646
20
4.510590
30
0.0
11
11.073969
21
5.297337
31
0.0
0
LINE
8
MCD_Layer_0
10
11.137378
20
4.902513
30
0.0
11
8.276400
21
5.297383
31
0.0
0
LINE
8
MCD_Layer_0
10
11.137378
20
4.973244
30
0.0
11
9.661646
21
4.982131
31
0.0
0
LINE
8
MCD_Layer_0
10
9.661646
20
5.147171
30
0.0
11
9.667540
21
4.970343
31
0.0
0
LINE
8
MCD_Layer_0
10
9.697012
20
4.970343
30
0.0
11
9.590915
21
3.585097
31
0.0
0
LINE
8
MCD_Layer_0
10
9.988686
20
6.446075
30
0.0
11
10.077146
21
3.766208
31
0.0
0
LINE
8
MCD_Layer_0
10
10.082994
20
6.406841
30
0.0
11
9.664547
21
3.838643
31
0.0
0
LINE
8
MCD_Layer_0
10
8.456176
20
6.319302
30
0.0
11
9.664547
21
4.970343
31
0.0
0
LINE
8
MCD_Layer_0
10
9.661646
20
4.993920
30
0.0
11
9.661646
21
4.970343
31
0.0
0
LINE
8
MCD_Layer_0
10
8.529946
20
3.764872
30
0.0
11
11.010605
21
4.973244
31
0.0
0
LINE
8
MCD_Layer_0
10
8.529946
20
5.533154
30
0.0
11
10.850677
21
4.973244
31
0.0
0
LINE
8
MCD_Layer_0
10
9.661646
20
3.838643
30
0.0
11
10.224457
21
6.159374
31
0.0
0
LINE
8
MCD_Layer_0
10
8.261711
20
4.218869
30
0.0
11
10.224457
21
6.159374
31
0.0
0
LINE
8
MCD_Layer_0
10
9.661646
20
3.567506
30
0.0
11
8.910173
21
5.533154
31
0.0
0
LINE
8
MCD_Layer_0
10
10.850677
20
3.570407
30
0.0
11
8.910173
21
3.812026
31
0.0
0
LINE
8
MCD_Layer_0
10
8.246238
20
4.973244
30
0.0
11
9.661646
21
4.982131
31
0.0
0
LINE
8
MCD_Layer_0
10
9.685223
20
4.970343
30
0.0
11
8.258810
21
4.218869
31
0.0
0
LINE
8
MCD_Layer_0
10
8.503330
20
3.554935
30
0.0
11
8.261711
21
4.218869
31
0.0
0
LINE
8
MCD_Layer_0
10
8.497435
20
3.554935
30
0.0
11
9.664547
21
4.970343
31
0.0
0
LINE
8
MCD_Layer_0
10
9.661646
20
4.993920
30
0.0
11
9.661646
21
3.567506
31
0.0
0
LINE
8
MCD_Layer_0
10
8.910173
20
3.806132
30
0.0
11
8.246238
21
3.570407
31
0.0
0
LINE
8
MCD_Layer_0
10
8.910173
20
5.527259
30
0.0
11
10.850677
21
4.973244
31
0.0
0
LINE
8
MCD_Layer_0
10
8.258810
20
4.218869
30
0.0
11
10.218563
21
6.159374
31
0.0
0
LINE
8
MCD_Layer_0
10
9.664547
20
3.838643
30
0.0
11
10.218563
21
6.159374
31
0.0
0
LINE
8
MCD_Layer_0
10
9.661646
20
4.970343
30
0.0
11
8.529946
21
5.527259
31
0.0
0
LINE
8
MCD_Layer_0
10
10.850677
20
4.973244
30
0.0
11
8.529946
21
3.758978
31
0.0
0
LINE
8
MCD_Layer_0
10
11.010605
20
4.973244
30
0.0
11
9.661646
21
4.982131
31
0.0
0
LINE
8
MCD_Layer_0
10
9.697012
20
4.970343
30
0.0
11
9.661646
21
3.838643
31
0.0
0
LINE
8
MCD_Layer_0
10
8.450281
20
6.319302
30
0.0
11
10.077146
21
3.766208
31
0.0
0
LINE
8
MCD_Layer_0
10
10.077100
20
6.406841
30
0.0
11
9.593816
21
3.585097
31
0.0
0
LINE
8
MCD_Layer_0
10
9.982792
20
6.446075
30
0.0
11
9.664547
21
4.970343
31
0.0
0
LINE
8
MCD_Layer_0
10
9.661646
20
4.993920
30
0.0
11
9.661646
21
4.899612
31
0.0
0
LINE
8
MCD_Layer_0
10
8.276400
20
5.291489
30
0.0
11
11.137378
21
4.513491
31
0.0
0
LINE
8
MCD_Layer_0
10
11.073969
20
5.291443
30
0.0
11
11.137378
21
4.973244
31
0.0
0
LINE
8
MCD_Layer_0
10
9.201893
20
6.382666
30
0.0
11
9.982746
21
6.446075
31
0.0
0
LINE
8
MCD_Layer_0
10
9.204794
20
6.382666
30
0.0
11
10.242094
21
5.489407
31
0.0
0
LINE
8
MCD_Layer_0
10
9.664501
20
4.970343
30
0.0
11
9.673435
21
4.970343
31
0.0
0
LINE
8
MCD_Layer_0
10
9.838474
20
4.976237
30
0.0
11
9.661646
21
5.005709
31
0.0
0
LINE
8
MCD_Layer_0
10
9.661646
20
4.510590
30
0.0
11
11.073969
21
5.550790
31
0.0
0
LINE
8
MCD_Layer_0
10
10.180710
20
4.607753
30
0.0
11
8.394101
21
4.584130
31
0.0
0
LINE
8
MCD_Layer_0
10
9.818535
20
3.523207
30
0.0
11
9.118406
21
5.409328
31
0.0
0
LINE
8
MCD_Layer_0
10
9.685223
20
4.970343
30
0.0
11
8.211655
21
4.427103
31
0.0
0
LINE
8
MCD_Layer_0
10
10.100631
20
4.982408
30
0.0
11
8.167356
21
5.012570
31
0.0
0
LINE
8
MCD_Layer_0
10
10.100677
20
4.982408
30
0.0
11
9.664501
21
4.970343
31
0.0
0
LINE
8
MCD_Layer_0
10
9.661646
20
4.993920
30
0.0
11
9.661646
21
3.473198
31
0.0
0
LINE
8
MCD_Layer_0
10
9.703873
20
5.409374
30
0.0
11
9.673711
21
3.476053
31
0.0
0
LINE
8
MCD_Layer_0
10
9.703873
20
5.409374
30
0.0
11
8.164777
21
4.973152
31
0.0
0
LINE
8
MCD_Layer_0
10
8.164501
20
5.012570
30
0.0
11
10.100677
21
3.473474
31
0.0
0
LINE
8
MCD_Layer_0
10
8.167310
20
5.012570
30
0.0
11
10.106572
21
3.473474
31
0.0
0
LINE
8
MCD_Layer_0
10
9.664455
20
4.970343
30
0.0
11
9.673435
21
4.970343
31
0.0
0
ARC
8
MCD_Layer_0
10
0.000000
20
1.888162
40
0.447163
50
270.000000
51
270.000000
0
ARC
8
MCD_Layer_0
10
0.812015
20
0.942056
40
1.243720
50
17.217644
51
229.239971
0
ARC
8
MCD_Layer_0
10
0.999154
20
1.755931
40
1.007342
50
187.310534
51
172.689466
0
ARC
8
MCD_Layer_0
10
0.000000
20
1.099000
40
1.099000
50
270.000000
51
270.000000
0
ARC
8
MCD_Layer_0
10
-0.000000
20
1.871275
40
1.871275
50
270.000000
51
270.000000
0
ARC
8
MCD_Layer_0
10
0.211082
20
0.726800
40
0.756831
50
261.697836
51
253.805331
0
ARC
8
MCD_Layer_0
10
-0.782931
20
-0.782931
40
1.107232
50
315.000000
51
135.000000
0
ARC
8
MCD_Layer_0
10
-0.565133
20
-0.089500
40
1.992332
50
286.478420
51
223.929444
0
ARC
8
MCD_Layer_0
10
-0.990912
20
1.788250
40
1.013284
50
12.062230
51
347.937770
0
ARC
8
MCD_Layer_0
10
-1.004821
20
1.704500
40
1.047370
50
16.387682
51
343.612318
0
ARC
8
MCD_Layer_0
10
0.000000
20
1.099000
40
1.099000
50
270.000000
51
270.000000
0
ARC
8
MCD_Layer_0
10
-0.000000
20
1.871275
40
1.871275
50
270.000000
51
270.000000
0
ARC
8
MCD_Layer_0
10
-0.000274
20
0.726800
40
0.726800
50
270.021587
51
269.978413
0
INSERT
8
MCD_Layer_0
2
OUTG
10
-7.591500
20
3.473198
30
0.0
41
3.000000
42
3.000000
43
1.0
0
INSERT
8
MCD_Layer_0
2
OUTR
10
-4.023000
20
3.473198
30
0.0
41
3.000000
42
3.000000
43
1.0
0
INSERT
8
MCD_Layer_0
2
OUTO
10
-0.885327
20
3.473198
30
0.0
41
3.000000
42
3.000000
43
1.0
0
INSERT
8
MCD_Layer_0
2
OUTV
10
2.313000
20
3.473198
30
0.0
41
3.000000
42
3.000000
43
1.0
0
INSERT
8
MCD_Layer_0
2
OUTE
10
5.491500
20
3.473198
30
0.0
41
3.000000
42
3.000000
43
1.0
0
INSERT
8
MCD_Layer_0
2
OUTS
10
8.164501
20
3.473198
30
0.0
41
3.000000
42
3.000000
43
1.0
0
ENDSEC
0
EOF
