0
SECTION
2
ENTITIES
0
LINE
8
MCD_Layer_0
10
-0.191986
20
0.491058
30
0.0
11
0.239990
21
0.490387
31
0.0
0
LINE
8
MCD_Layer_0
10
-0.191986
20
0.491058
30
0.0
11
0.351990
21
0.485901
31
0.0
0
LINE
8
MCD_Layer_0
10
0.000000
20
0.000000
30
0.0
11
0.000031
21
0.000000
31
0.0
0
LINE
8
MCD_Layer_0
10
-0.303986
20
0.491638
30
0.0
11
0.096008
21
0.484436
31
0.0
0
LINE
8
MCD_Layer_0
10
-0.000031
20
0.000031
30
0.0
11
0.000122
21
0.509857
31
0.0
0
LINE
8
MCD_Layer_0
10
0.776917
20
0.000000
30
0.0
11
0.000000
21
0.000092
31
0.0
0
LINE
8
MCD_Layer_0
10
0.000000
20
-0.303986
30
0.0
11
0.491638
21
0.096008
31
0.0
0
LINE
8
MCD_Layer_0
10
0.484436
20
-0.048004
30
0.0
11
0.489197
21
0.335999
31
0.0
0
LINE
8
MCD_Layer_0
10
0.476776
20
-0.480011
30
0.0
11
0.485992
21
-0.016022
31
0.0
0
LINE
8
MCD_Layer_0
10
-0.528687
20
0.000000
30
0.0
11
0.000000
21
0.000031
31
0.0
0
LINE
8
MCD_Layer_0
10
0.000000
20
-0.999756
30
0.0
11
0.000000
21
0.000000
31
0.0
0
LINE
8
MCD_Layer_0
10
0.000092
20
0.000000
30
0.0
11
-0.480011
21
0.485992
31
0.0
0
LINE
8
MCD_Layer_0
10
-0.016022
20
-0.528687
30
0.0
11
-0.720001
21
0.483887
31
0.0
0
LINE
8
MCD_Layer_0
10
0.447998
20
-0.525757
30
0.0
11
0.943970
21
0.475861
31
0.0
0
LINE
8
MCD_Layer_0
10
-0.400024
20
-0.525024
30
0.0
11
0.000000
21
0.000000
31
0.0
0
LINE
8
MCD_Layer_0
10
0.000031
20
0.000000
30
0.0
11
-0.999756
21
0.000000
31
0.0
0
LINE
8
MCD_Layer_0
10
0.000000
20
0.000092
30
0.0
11
0.000000
21
0.943970
31
0.0
0
LINE
8
MCD_Layer_0
10
0.475861
20
-0.400024
30
0.0
11
-0.525024
21
-0.431976
31
0.0
0
LINE
8
MCD_Layer_0
10
-0.515930
20
-0.784027
30
0.0
11
0.463013
21
-0.032013
31
0.0
0
LINE
8
MCD_Layer_0
10
-0.512421
20
0.943970
30
0.0
11
0.479767
21
0.000000
31
0.0
0
LINE
8
MCD_Layer_0
10
0.000000
20
0.000031
30
0.0
11
0.000000
21
-0.999756
31
0.0
0
LINE
8
MCD_Layer_0
10
0.000000
20
0.000000
30
0.0
11
0.000092
21
0.000000
31
0.0
0
LINE
8
MCD_Layer_0
10
-0.032013
20
-0.512421
30
0.0
11
0.943970
21
0.479767
31
0.0
0
LINE
8
MCD_Layer_0
10
-0.015991
20
-0.510132
30
0.0
11
-0.080017
21
0.485596
31
0.0
0
LINE
8
MCD_Layer_0
10
0.976013
20
-0.508820
30
0.0
11
-0.992004
21
0.488922
31
0.0
0
LINE
8
MCD_Layer_0
10
-0.999756
20
0.000000
30
0.0
11
0.000000
21
0.000092
31
0.0
0
LINE
8
MCD_Layer_0
10
0.000000
20
0.976013
30
0.0
11
-0.508820
21
-0.992004
31
0.0
0
LINE
8
MCD_Layer_0
10
0.488922
20
0.863983
30
0.0
11
-0.508240
21
0.480011
31
0.0
0
LINE
8
MCD_Layer_0
10
0.490540
20
0.320007
30
0.0
11
-0.507935
21
0.016022
31
0.0
0
LINE
8
MCD_Layer_0
10
0.492523
20
0.000000
30
0.0
11
0.000000
21
0.000031
31
0.0
0
LINE
8
MCD_Layer_0
10
0.000092
20
0.000000
30
0.0
11
0.320007
21
-0.507935
31
0.0
0
LINE
8
MCD_Layer_0
10
0.016022
20
0.492523
30
0.0
11
-0.895996
21
-0.508087
31
0.0
0
LINE
8
MCD_Layer_0
10
0.704010
20
0.493286
30
0.0
11
0.095978
21
-0.508728
31
0.0
0
LINE
8
MCD_Layer_0
10
0.847992
20
0.494354
30
0.0
11
0.000000
21
0.000000
31
0.0
0
LINE
8
MCD_Layer_0
10
0.000000
20
0.000092
30
0.0
11
0.000000
21
0.095978
31
0.0
0
LINE
8
MCD_Layer_0
10
-0.508728
20
0.847992
30
0.0
11
0.494354
21
0.128021
31
0.0
0
LINE
8
MCD_Layer_0
10
-0.510010
20
-0.031982
30
0.0
11
0.495392
21
-0.272003
31
0.0
0
LINE
8
MCD_Layer_0
10
-0.511597
20
0.048004
30
0.0
11
0.496124
21
0.000000
31
0.0
0
LINE
8
MCD_Layer_0
10
-0.272003
20
-0.511597
30
0.0
11
0.048004
21
0.496124
31
0.0
0
LINE
8
MCD_Layer_0
10
-0.880005
20
-0.515564
30
0.0
11
-0.543976
21
0.496368
31
0.0
0
LINE
8
MCD_Layer_0
10
-0.128021
20
-0.526154
30
0.0
11
0.112000
21
0.496490
31
0.0
0
LINE
8
MCD_Layer_0
10
0.000000
20
-0.128021
30
0.0
11
-0.526154
21
0.112000
31
0.0
0
LINE
8
MCD_Layer_0
10
0.496490
20
-0.688019
30
0.0
11
0.484558
21
-0.656006
31
0.0
0
LINE
8
MCD_Layer_0
10
0.496460
20
0.735992
30
0.0
11
0.488098
21
0.895996
31
0.0
0
LINE
8
MCD_Layer_0
10
0.496338
20
0.000000
30
0.0
11
0.000000
21
0.000031
31
0.0
0
LINE
8
MCD_Layer_0
10
0.000092
20
0.000000
30
0.0
11
0.735992
21
0.488098
31
0.0
0
LINE
8
MCD_Layer_0
10
0.895996
20
0.496338
30
0.0
11
-0.959991
21
0.488617
31
0.0
0
LINE
8
MCD_Layer_0
10
0.639984
20
0.496338
30
0.0
11
0.399994
21
0.488861
31
0.0
0
LINE
8
MCD_Layer_0
10
-0.239990
20
0.496399
30
0.0
11
0.000000
21
0.000000
31
0.0
0
LINE
8
MCD_Layer_0
10
0.399994
20
0.488861
30
0.0
11
-0.239990
21
0.496399
31
0.0
0
LINE
8
MCD_Layer_0
10
-0.943970
20
0.489929
30
0.0
11
-0.239990
21
0.496399
31
0.0
0
LINE
8
MCD_Layer_0
10
-0.079987
20
0.490479
30
0.0
11
-0.239990
21
0.496399
31
0.0
0
LINE
8
MCD_Layer_0
10
-0.079987
20
0.490479
30
0.0
11
0.847992
21
0.494354
31
0.0
0
LINE
8
MCD_Layer_0
10
0.160004
20
0.488708
30
0.0
11
0.847992
21
0.494354
31
0.0
0
LINE
8
MCD_Layer_0
10
0.000000
20
0.160004
30
0.0
11
0.488708
21
0.847992
31
0.0
0
LINE
8
MCD_Layer_0
10
0.494354
20
0.799988
30
0.0
11
0.488464
21
-0.895996
31
0.0
0
LINE
8
MCD_Layer_0
10
0.494843
20
-0.032013
30
0.0
11
0.487579
21
0.191986
31
0.0
0
LINE
8
MCD_Layer_0
10
0.495239
20
0.000000
30
0.0
11
0.000000
21
0.000031
31
0.0
0
LINE
8
MCD_Layer_0
10
0.000092
20
0.000000
30
0.0
11
-0.032013
21
0.487579
31
0.0
0
LINE
8
MCD_Layer_0
10
0.191986
20
0.495239
30
0.0
11
-0.144012
21
0.486206
31
0.0
0
LINE
8
MCD_Layer_0
10
-0.959991
20
0.495453
30
0.0
11
0.687988
21
0.482208
31
0.0
0
LINE
8
MCD_Layer_0
10
0.352020
20
0.495667
30
0.0
11
0.000000
21
0.000000
31
0.0
0
LINE
8
MCD_Layer_0
10
0.000000
20
0.000092
30
0.0
11
0.000000
21
0.687988
31
0.0
0
LINE
8
MCD_Layer_0
10
0.482208
20
0.352020
30
0.0
11
0.495667
21
-0.192017
31
0.0
0
LINE
8
MCD_Layer_0
10
-0.519684
20
-0.447998
30
0.0
11
0.495453
21
-0.576019
31
0.0
0
LINE
8
MCD_Layer_0
10
-0.514069
20
0.496002
30
0.0
11
0.494781
21
0.000000
31
0.0
0
LINE
8
MCD_Layer_0
10
-0.576019
20
-0.514069
30
0.0
11
0.496002
21
0.494781
31
0.0
0
LINE
8
MCD_Layer_0
10
0.928009
20
-0.511780
30
0.0
11
0.256012
21
0.493652
31
0.0
0
LINE
8
MCD_Layer_0
10
-0.080017
20
-0.511475
30
0.0
11
0.399994
21
0.492767
31
0.0
0
LINE
8
MCD_Layer_0
10
0.000000
20
-0.080017
30
0.0
11
-0.511475
21
0.399994
31
0.0
0
LINE
8
MCD_Layer_0
10
0.492767
20
0.608002
30
0.0
11
-0.511658
21
-0.895996
31
0.0
0
LINE
8
MCD_Layer_0
10
0.490936
20
0.623993
30
0.0
11
-0.513275
21
-0.112000
31
0.0
0
LINE
8
MCD_Layer_0
10
0.488831
20
0.000000
30
0.0
11
0.000000
21
0.000031
31
0.0
0
LINE
8
MCD_Layer_0
10
0.000092
20
0.000000
30
0.0
11
0.623993
21
-0.513275
31
0.0
0
LINE
8
MCD_Layer_0
10
-0.112000
20
0.488831
30
0.0
11
-0.816010
21
-0.516174
31
0.0
0
LINE
8
MCD_Layer_0
10
-0.688019
20
0.486511
30
0.0
11
-0.208038
21
-0.524902
31
0.0
0
LINE
8
MCD_Layer_0
10
-0.895996
20
0.485077
30
0.0
11
0.000000
21
0.000000
31
0.0
0
LINE
8
MCD_Layer_0
10
0.000000
20
0.000092
30
0.0
11
0.000000
21
-0.208038
31
0.0
0
LINE
8
MCD_Layer_0
10
-0.524902
20
-0.895996
30
0.0
11
0.485077
21
-0.928009
31
0.0
0
LINE
8
MCD_Layer_0
10
0.482452
20
0.623993
30
0.0
11
0.484772
21
-0.224030
31
0.0
0
LINE
8
MCD_Layer_0
10
0.487457
20
-0.880005
30
0.0
11
0.486389
21
0.000000
31
0.0
0
LINE
8
MCD_Layer_0
10
-0.224030
20
0.487457
30
0.0
11
-0.880005
21
0.486389
31
0.0
0
LINE
8
MCD_Layer_0
10
-0.224030
20
0.487457
30
0.0
11
0.239990
21
0.490387
31
0.0
0
LINE
8
MCD_Layer_0
10
-0.016022
20
0.484985
30
0.0
11
0.239990
21
0.490387
31
0.0
0
LINE
8
MCD_Layer_0
10
-0.016022
20
0.484985
30
0.0
11
-0.368011
21
0.492249
31
0.0
0
LINE
8
MCD_Layer_0
10
0.320007
20
0.492065
30
0.0
11
-0.368011
21
0.492249
31
0.0
0
LINE
8
MCD_Layer_0
10
-0.543976
20
0.491486
30
0.0
11
0.256012
21
0.491699
31
0.0
0
LINE
8
MCD_Layer_0
10
-0.543976
20
0.491486
30
0.0
11
-0.751984
21
0.491028
31
0.0
0
LINE
8
MCD_Layer_0
10
-0.191986
20
0.491058
30
0.0
11
-0.751984
21
0.491028
31
0.0
0
LINE
8
MCD_Layer_0
10
0.000000
20
-0.191986
30
0.0
11
0.491058
21
-0.751984
31
0.0
0
LINE
8
MCD_Layer_0
10
0.491028
20
-0.911987
30
0.0
11
0.490601
21
0.959991
31
0.0
0
LINE
8
MCD_Layer_0
10
0.490845
20
0.799988
30
0.0
11
0.490417
21
0.239990
31
0.0
0
LINE
8
MCD_Layer_0
10
0.490387
20
0.000000
30
0.0
11
0.000000
21
0.000031
31
0.0
0
LINE
8
MCD_Layer_0
10
0.799988
20
0.490417
30
0.0
11
0.239990
21
0.490387
31
0.0
0
LINE
8
MCD_Layer_0
10
0.799988
20
0.490417
30
0.0
11
-0.655975
21
0.485229
31
0.0
0
LINE
8
MCD_Layer_0
10
0.256012
20
0.490723
30
0.0
11
0.287994
21
0.484558
31
0.0
0
LINE
8
MCD_Layer_0
10
0.000000
20
0.256012
30
0.0
11
0.490723
21
0.287994
31
0.0
0
LINE
8
MCD_Layer_0
10
0.484558
20
0.351990
30
0.0
11
0.488831
21
-0.480011
31
0.0
0
LINE
8
MCD_Layer_0
10
0.480133
20
-0.864014
30
0.0
11
0.485748
21
0.063995
31
0.0
0
LINE
8
MCD_Layer_0
10
0.473999
20
0.000000
30
0.0
11
0.000000
21
0.000031
31
0.0
0
LINE
8
MCD_Layer_0
10
0.000092
20
0.000000
30
0.0
11
-0.864014
21
0.485748
31
0.0
0
LINE
8
MCD_Layer_0
10
0.063995
20
0.473999
30
0.0
11
-0.223999
21
0.477692
31
0.0
0
LINE
8
MCD_Layer_0
10
-0.784027
20
0.466919
30
0.0
11
-0.496033
21
-0.515320
31
0.0
0
LINE
8
MCD_Layer_0
10
0.832001
20
0.478394
30
0.0
11
0.000000
21
0.000000
31
0.0
0
LINE
8
MCD_Layer_0
10
0.000000
20
0.000092
30
0.0
11
0.000000
21
-0.496033
31
0.0
0
LINE
8
MCD_Layer_0
10
-0.515320
20
0.832001
30
0.0
11
0.478394
21
0.751984
31
0.0
0
LINE
8
MCD_Layer_0
10
-0.511566
20
0.000000
30
0.0
11
0.484375
21
-0.783997
31
0.0
0
LINE
8
MCD_Layer_0
10
-0.510620
20
0.928009
30
0.0
11
0.486267
21
0.000000
31
0.0
0
LINE
8
MCD_Layer_0
10
-0.783997
20
-0.510620
30
0.0
11
0.928009
21
0.486267
31
0.0
0
LINE
8
MCD_Layer_0
10
-0.223999
20
-0.509613
30
0.0
11
-0.208008
21
0.488770
31
0.0
0
LINE
8
MCD_Layer_0
10
-0.928009
20
-0.508759
30
0.0
11
0.368011
21
0.491119
31
0.0
0
LINE
8
MCD_Layer_0
10
0.000000
20
-0.928009
30
0.0
11
-0.508759
21
0.368011
31
0.0
0
LINE
8
MCD_Layer_0
10
0.491119
20
-0.687988
30
0.0
11
-0.508606
21
-0.016022
31
0.0
0
LINE
8
MCD_Layer_0
10
0.492798
20
-0.048004
30
0.0
11
-0.508850
21
0.576019
31
0.0
0
LINE
8
MCD_Layer_0
10
0.493530
20
0.000000
30
0.0
11
0.000000
21
0.000031
31
0.0
0
LINE
8
MCD_Layer_0
10
0.000092
20
0.000000
30
0.0
11
-0.048004
21
-0.508850
31
0.0
0
LINE
8
MCD_Layer_0
10
0.576019
20
0.493530
30
0.0
11
-0.079987
21
-0.509521
31
0.0
0
LINE
8
MCD_Layer_0
10
0.479980
20
0.494446
30
0.0
11
-0.143982
21
-0.510864
31
0.0
0
LINE
8
MCD_Layer_0
10
0.480011
20
0.495422
30
0.0
11
0.000000
21
0.000000
31
0.0
0
LINE
8
MCD_Layer_0
10
0.000000
20
0.000092
30
0.0
11
0.000000
21
-0.143982
31
0.0
0
LINE
8
MCD_Layer_0
10
-0.510864
20
0.480011
30
0.0
11
0.495422
21
0.160004
31
0.0
0
LINE
8
MCD_Layer_0
10
-0.512268
20
-0.239990
30
0.0
11
0.495911
21
-0.255981
31
0.0
0
LINE
8
MCD_Layer_0
10
-0.517120
20
-0.480011
30
0.0
11
0.496246
21
0.000000
31
0.0
0
LINE
8
MCD_Layer_0
10
-0.255981
20
-0.517120
30
0.0
11
-0.480011
21
0.496246
31
0.0
0
LINE
8
MCD_Layer_0
10
0.864014
20
0.481018
30
0.0
11
-0.592010
21
0.496338
31
0.0
0
LINE
8
MCD_Layer_0
10
0.671997
20
0.486755
30
0.0
11
-0.992004
21
0.496246
31
0.0
0
LINE
8
MCD_Layer_0
10
0.000000
20
0.671997
30
0.0
11
0.486755
21
-0.992004
31
0.0
0
LINE
8
MCD_Layer_0
10
0.496246
20
0.351990
30
0.0
11
0.487854
21
-0.576019
31
0.0
0
LINE
8
MCD_Layer_0
10
0.496185
20
-0.368011
30
0.0
11
0.488342
21
-0.880005
31
0.0
0
LINE
8
MCD_Layer_0
10
0.496155
20
0.000000
30
0.0
11
0.000000
21
0.000031
31
0.0
0
LINE
8
MCD_Layer_0
10
0.000092
20
0.000000
30
0.0
11
-0.368011
21
0.488342
31
0.0
0
LINE
8
MCD_Layer_0
10
-0.880005
20
0.496155
30
0.0
11
-0.336029
21
0.489014
31
0.0
0
LINE
8
MCD_Layer_0
10
0.608002
20
0.496155
30
0.0
11
-0.832001
21
0.489349
31
0.0
0
LINE
8
MCD_Layer_0
10
-0.992004
20
0.496246
30
0.0
11
0.000000
21
0.000000
31
0.0
0
LINE
8
MCD_Layer_0
10
-0.832001
20
0.489349
30
0.0
11
-0.992004
21
0.496246
31
0.0
0
LINE
8
MCD_Layer_0
10
-0.943970
20
0.489929
30
0.0
11
-0.992004
21
0.496246
31
0.0
0
LINE
8
MCD_Layer_0
10
-0.943970
20
0.489929
30
0.0
11
-0.208008
21
0.494629
31
0.0
0
LINE
8
MCD_Layer_0
10
-0.976013
20
0.489258
30
0.0
11
-0.208008
21
0.494629
31
0.0
0
LINE
8
MCD_Layer_0
10
0.000000
20
-0.976013
30
0.0
11
0.489258
21
-0.208008
31
0.0
0
LINE
8
MCD_Layer_0
10
0.494629
20
0.992004
30
0.0
11
0.488586
21
-0.127991
31
0.0
0
LINE
8
MCD_Layer_0
10
0.495331
20
0.335968
30
0.0
11
0.486542
21
-0.479980
31
0.0
0
LINE
8
MCD_Layer_0
10
0.495758
20
0.000000
30
0.0
11
0.000000
21
0.000031
31
0.0
0
LINE
8
MCD_Layer_0
10
0.000092
20
0.000000
30
0.0
11
0.335968
21
0.486542
31
0.0
0
LINE
8
MCD_Layer_0
10
-0.479980
20
0.495758
30
0.0
11
-0.032013
21
0.477814
31
0.0
0
LINE
8
MCD_Layer_0
10
-0.655975
20
0.495972
30
0.0
11
-0.255981
21
-0.517120
31
0.0
0
LINE
8
MCD_Layer_0
10
0.000000
20
0.000092
30
0.0
11
0.000000
21
-0.255981
31
0.0
0
LINE
8
MCD_Layer_0
10
-0.517120
20
0.352020
30
0.0
11
0.495667
21
-0.624023
31
0.0
0
LINE
8
MCD_Layer_0
10
-0.514099
20
-0.272003
30
0.0
11
0.495239
21
0.832001
31
0.0
0
LINE
8
MCD_Layer_0
10
-0.511841
20
0.575989
30
0.0
11
0.494507
21
0.000000
31
0.0
0
LINE
8
MCD_Layer_0
10
0.832001
20
-0.511841
30
0.0
11
0.575989
21
0.494507
31
0.0
0
LINE
8
MCD_Layer_0
10
-0.336029
20
-0.510986
30
0.0
11
-0.783966
21
0.493286
31
0.0
0
LINE
8
MCD_Layer_0
10
0.880005
20
-0.510834
30
0.0
11
-0.623993
21
0.492737
31
0.0
0
LINE
8
MCD_Layer_0
10
0.000000
20
0.880005
30
0.0
11
-0.510834
21
-0.623993
31
0.0
0
LINE
8
MCD_Layer_0
10
0.492737
20
0.591980
30
0.0
11
-0.511017
21
0.272003
31
0.0
0
LINE
8
MCD_Layer_0
10
0.491058
20
-0.959991
30
0.0
11
-0.511383
21
-0.623993
31
0.0
0
LINE
8
MCD_Layer_0
10
0.489807
20
0.000000
30
0.0
11
0.000000
21
0.000031
31
0.0
0
LINE
8
MCD_Layer_0
10
0.000092
20
0.000000
30
0.0
11
-0.959991
21
-0.511383
31
0.0
0
LINE
8
MCD_Layer_0
10
-0.623993
20
0.489807
30
0.0
11
-0.511993
21
-0.512726
31
0.0
0
LINE
8
MCD_Layer_0
10
-0.383972
20
0.488007
30
0.0
11
-0.016022
21
-0.515015
31
0.0
0
LINE
8
MCD_Layer_0
10
0.015991
20
0.485687
30
0.0
11
0.000000
21
0.000000
31
0.0
0
LINE
8
MCD_Layer_0
10
0.000000
20
0.000092
30
0.0
11
0.000000
21
-0.016022
31
0.0
0
LINE
8
MCD_Layer_0
10
-0.515015
20
0.015991
30
0.0
11
0.485687
21
0.943970
31
0.0
0
LINE
8
MCD_Layer_0
10
-0.524139
20
0.463989
30
0.0
11
0.483368
21
0.208008
31
0.0
0
LINE
8
MCD_Layer_0
10
0.481903
20
-0.496033
30
0.0
11
0.482727
21
0.000000
31
0.0
0
LINE
8
MCD_Layer_0
10
0.208008
20
0.481903
30
0.0
11
-0.496033
21
0.482727
31
0.0
0
LINE
8
MCD_Layer_0
10
0.575989
20
0.486694
30
0.0
11
0.192017
21
0.484497
31
0.0
0
LINE
8
MCD_Layer_0
10
0.895996
20
0.488525
30
0.0
11
0.351990
21
0.485901
31
0.0
0
LINE
8
MCD_Layer_0
10
0.895996
20
0.488525
30
0.0
11
0.239990
21
0.490387
31
0.0
0
LINE
8
MCD_Layer_0
10
0.000000
20
0.895996
30
0.0
11
0.488525
21
0.239990
31
0.0
0
LINE
8
MCD_Layer_0
10
0.490387
20
0.608002
30
0.0
11
0.488342
21
0.959991
31
0.0
0
LINE
8
MCD_Layer_0
10
0.490845
20
-0.224030
30
0.0
11
0.487457
21
-0.751984
31
0.0
0
LINE
8
MCD_Layer_0
10
0.491028
20
0.000000
30
0.0
11
0.000000
21
0.000031
31
0.0
0
LINE
8
MCD_Layer_0
10
-0.224030
20
0.487457
30
0.0
11
-0.751984
21
0.491028
31
0.0
0
LINE
8
MCD_Layer_0
10
0.000000
20
0.486328
30
0.0
11
-0.751984
21
0.491028
31
0.0
0
LINE
8
MCD_Layer_0
10
0.000000
20
0.486328
30
0.0
11
0.256012
21
0.491699
31
0.0
0
LINE
8
MCD_Layer_0
10
0.617310
20
0.658844
30
0.0
11
0.009979
21
-0.558594
31
0.0
0
LINE
8
MCD_Layer_0
10
-0.210022
20
-0.494202
30
0.0
11
-0.185883
21
-0.548950
31
0.0
0
LINE
8
MCD_Layer_0
10
-0.210022
20
-0.810608
30
0.0
11
-0.914978
21
0.509735
31
0.0
0
LINE
8
MCD_Layer_0
10
0.023438
20
0.003906
30
0.0
11
0.000000
21
0.015625
31
0.0
0
LINE
8
MCD_Layer_0
10
0.000000
20
0.718750
30
0.0
11
-0.230011
21
0.005798
31
0.0
0
LINE
8
MCD_Layer_0
10
0.000000
20
0.437500
30
0.0
11
-0.488007
21
0.005768
31
0.0
0
LINE
8
MCD_Layer_0
10
0.000000
20
0.000000
30
0.0
11
0.000000
21
0.007812
31
0.0
0
LINE
8
MCD_Layer_0
10
0.000000
20
0.023438
30
0.0
11
0.003906
21
0.000000
31
0.0
0
LINE
8
MCD_Layer_0
10
0.015625
20
0.000000
30
0.0
11
0.437500
21
-0.488007
31
0.0
0
LINE
8
MCD_Layer_0
10
0.005768
20
0.000000
30
0.0
11
0.437500
21
-0.488007
31
0.0
0
LINE
8
MCD_Layer_0
10
0.583893
20
0.015991
30
0.0
11
0.001892
21
0.000000
31
0.0
0
LINE
8
MCD_Layer_0
10
0.007812
20
0.000000
30
0.0
11
0.023438
21
0.003906
31
0.0
0
LINE
8
MCD_Layer_0
10
0.000000
20
0.015625
30
0.0
11
0.000000
21
0.437500
31
0.0
0
LINE
8
MCD_Layer_0
10
-0.488007
20
0.583893
30
0.0
11
0.015991
21
0.533142
31
0.0
0
LINE
8
MCD_Layer_0
10
0.347992
20
0.583923
30
0.0
11
0.015991
21
0.001892
31
0.0
0
LINE
8
MCD_Layer_0
10
0.000000
20
0.007812
30
0.0
11
0.000000
21
0.023438
31
0.0
0
LINE
8
MCD_Layer_0
10
0.003906
20
0.000000
30
0.0
11
0.015625
21
0.000000
31
0.0
0
LINE
8
MCD_Layer_0
10
0.531250
20
0.347992
30
0.0
11
0.583923
21
0.015991
31
0.0
0
LINE
8
MCD_Layer_0
10
0.533142
20
0.347992
30
0.0
11
0.615173
21
-0.372009
31
0.0
0
LINE
8
MCD_Layer_0
10
0.001892
20
0.000000
30
0.0
11
0.007812
21
0.000000
31
0.0
0
LINE
8
MCD_Layer_0
10
0.062500
20
0.003906
30
0.0
11
0.000000
21
0.023438
31
0.0
0
LINE
8
MCD_Layer_0
10
0.000000
20
0.531250
30
0.0
11
0.347992
21
0.615173
31
0.0
0
LINE
8
MCD_Layer_0
10
-0.372009
20
-0.638733
30
0.0
11
0.259979
21
0.326111
31
0.0
0
LINE
8
MCD_Layer_0
10
-0.380005
20
0.205017
30
0.0
11
0.171997
21
-0.103577
31
0.0
0
LINE
8
MCD_Layer_0
10
-0.392029
20
0.001892
30
0.0
11
0.000000
21
0.007812
31
0.0
0
LINE
8
MCD_Layer_0
10
0.015625
20
0.000000
30
0.0
11
0.203125
21
0.171997
31
0.0
0
LINE
8
MCD_Layer_0
10
-0.103577
20
-0.392029
30
0.0
11
0.626892
21
-0.816010
31
0.0
0
LINE
8
MCD_Layer_0
10
0.900269
20
0.135986
30
0.0
11
0.001892
21
0.000000
31
0.0
0
LINE
8
MCD_Layer_0
10
0.007812
20
0.000000
30
0.0
11
0.062500
21
0.003906
31
0.0
0
LINE
8
MCD_Layer_0
10
0.000000
20
0.023438
30
0.0
11
0.000000
21
0.625000
31
0.0
0
LINE
8
MCD_Layer_0
10
-0.816010
20
0.900269
30
0.0
11
0.135986
21
0.439392
31
0.0
0
LINE
8
MCD_Layer_0
10
0.455994
20
-0.943451
30
0.0
11
-0.304016
21
-0.216888
31
0.0
0
LINE
8
MCD_Layer_0
10
-0.728027
20
0.861237
30
0.0
11
-0.976013
21
0.001862
31
0.0
0
LINE
8
MCD_Layer_0
10
0.000000
20
0.007812
30
0.0
11
0.000000
21
0.062500
31
0.0
0
LINE
8
MCD_Layer_0
10
0.003906
20
0.000000
30
0.0
11
0.023438
21
0.000000
31
0.0
0
LINE
8
MCD_Layer_0
10
-0.218750
20
-0.728027
30
0.0
11
0.861237
21
-0.976013
31
0.0
0
LINE
8
MCD_Layer_0
10
-0.982513
20
0.083984
30
0.0
11
-0.834045
21
-0.912018
31
0.0
0
LINE
8
MCD_Layer_0
10
-0.482544
20
0.763977
30
0.0
11
-0.224670
21
-0.784027
31
0.0
0
LINE
8
MCD_Layer_0
10
0.005737
20
0.000000
30
0.0
11
0.007812
21
0.000000
31
0.0
0
LINE
8
MCD_Layer_0
10
0.000000
20
-0.484375
30
0.0
11
0.763977
21
-0.224670
31
0.0
0
LINE
8
MCD_Layer_0
10
-0.784027
20
0.935425
30
0.0
11
-0.502014
21
-0.529358
31
0.0
0
LINE
8
MCD_Layer_0
10
-0.848022
20
-0.548950
30
0.0
11
-0.210022
21
-0.701233
31
0.0
0
LINE
8
MCD_Layer_0
10
0.535980
20
0.001831
30
0.0
11
0.000000
21
0.007812
31
0.0
0
LINE
8
MCD_Layer_0
10
0.015625
20
0.000000
30
0.0
11
-0.554688
21
-0.210022
31
0.0
0
LINE
8
MCD_Layer_0
10
-0.701233
20
0.535980
30
0.0
11
-0.490356
21
-0.430023
31
0.0
0
LINE
8
MCD_Layer_0
10
-0.841858
20
0.031982
30
0.0
11
0.001892
21
0.000000
31
0.0
0
LINE
8
MCD_Layer_0
10
0.000000
20
0.023438
30
0.0
11
0.000000
21
-0.492188
31
0.0
0
LINE
8
MCD_Layer_0
10
-0.430023
20
-0.841858
30
0.0
11
0.031982
21
0.572205
31
0.0
0
LINE
8
MCD_Layer_0
10
-0.734009
20
0.236267
30
0.0
11
-0.160004
21
-0.474701
31
0.0
0
LINE
8
MCD_Layer_0
10
-0.930023
20
0.626892
30
0.0
11
0.183990
21
0.001892
31
0.0
0
LINE
8
MCD_Layer_0
10
-0.476562
20
-0.930023
30
0.0
11
0.626892
21
0.183990
31
0.0
0
LINE
8
MCD_Layer_0
10
-0.826233
20
0.587982
30
0.0
11
-0.310608
21
0.879974
31
0.0
0
LINE
8
MCD_Layer_0
10
-0.607483
20
0.371979
30
0.0
11
-0.380920
21
-0.844025
31
0.0
0
LINE
8
MCD_Layer_0
10
0.000000
20
-0.609375
30
0.0
11
0.371979
21
-0.380920
31
0.0
0
LINE
8
MCD_Layer_0
10
-0.844025
20
0.658142
30
0.0
11
-0.648010
21
0.517487
31
0.0
0
LINE
8
MCD_Layer_0
10
-0.208008
20
0.001892
30
0.0
11
0.000000
21
0.007812
31
0.0
0
LINE
8
MCD_Layer_0
10
0.000000
20
0.062500
30
0.0
11
0.003906
21
0.000000
31
0.0
0
LINE
8
MCD_Layer_0
10
0.023438
20
0.000000
30
0.0
11
-0.781250
21
-0.632019
31
0.0
0
LINE
8
MCD_Layer_0
10
0.517487
20
-0.208008
30
0.0
11
0.767517
21
0.187988
31
0.0
0
LINE
8
MCD_Layer_0
10
-0.279358
20
-0.008026
30
0.0
11
-0.232483
21
0.603973
31
0.0
0
LINE
8
MCD_Layer_0
10
-0.607483
20
0.121979
30
0.0
11
0.001923
21
0.000000
31
0.0
0
LINE
8
MCD_Layer_0
10
0.000000
20
0.023438
30
0.0
11
0.000000
21
-0.234375
31
0.0
0
LINE
8
MCD_Layer_0
10
0.603973
20
-0.607483
30
0.0
11
0.121979
21
0.142548
31
0.0
0
LINE
8
MCD_Layer_0
10
0.947998
20
0.173767
30
0.0
11
0.365997
21
0.423798
31
0.0
0
LINE
8
MCD_Layer_0
10
0.899994
20
0.251892
30
0.0
11
0.645996
21
0.001923
31
0.0
0
LINE
8
MCD_Layer_0
10
0.421875
20
0.899994
30
0.0
11
0.251892
21
0.645996
31
0.0
0
LINE
8
MCD_Layer_0
10
-0.576202
20
0.539978
30
0.0
11
-0.396545
21
0.849976
31
0.0
0
LINE
8
MCD_Layer_0
10
-0.029327
20
-0.280029
30
0.0
11
-0.498138
21
-0.986023
31
0.0
0
LINE
8
MCD_Layer_0
10
0.001923
20
0.000000
30
0.0
11
0.007812
21
0.000000
31
0.0
0
LINE
8
MCD_Layer_0
10
0.000000
20
-0.031250
30
0.0
11
-0.280029
21
-0.498138
31
0.0
0
LINE
8
MCD_Layer_0
10
-0.986023
20
-0.998077
30
0.0
11
0.087982
21
0.447144
31
0.0
0
LINE
8
MCD_Layer_0
10
-0.932007
20
-0.123077
30
0.0
11
-0.392029
21
0.568268
31
0.0
0
LINE
8
MCD_Layer_0
10
-0.915009
20
0.001923
30
0.0
11
0.000000
21
0.007812
31
0.0
0
LINE
8
MCD_Layer_0
10
0.015625
20
0.000000
30
0.0
11
-0.125000
21
-0.392029
31
0.0
0
LINE
8
MCD_Layer_0
10
0.568268
20
-0.915009
30
0.0
11
-0.560577
21
-0.210022
31
0.0
0
LINE
8
MCD_Layer_0
10
0.568298
20
-0.915009
30
0.0
11
0.001923
21
0.000000
31
0.0
0
LINE
8
MCD_Layer_0
10
0.000000
20
0.015625
30
0.0
11
0.000000
21
-0.562500
31
0.0
0
LINE
8
MCD_Layer_0
10
-0.210022
20
0.568298
30
0.0
11
-0.915009
21
-0.560577
31
0.0
0
LINE
8
MCD_Layer_0
10
-0.210022
20
0.982361
30
0.0
11
0.915985
21
0.001923
31
0.0
0
LINE
8
MCD_Layer_0
10
-0.562500
20
-0.210022
30
0.0
11
0.982361
21
0.915985
31
0.0
0
LINE
8
MCD_Layer_0
10
0.783173
20
-0.506012
30
0.0
11
0.982361
21
0.915985
31
0.0
0
LINE
8
MCD_Layer_0
10
0.000000
20
0.781250
30
0.0
11
-0.506012
21
0.982361
31
0.0
0
LINE
8
MCD_Layer_0
10
0.915985
20
0.783173
30
0.0
11
-0.506012
21
0.583923
31
0.0
0
LINE
8
MCD_Layer_0
10
0.015991
20
0.001892
30
0.0
11
0.000000
21
0.007812
31
0.0
0
LINE
8
MCD_Layer_0
10
0.015625
20
0.000000
30
0.0
11
0.781250
21
-0.506012
31
0.0
0
LINE
8
MCD_Layer_0
10
0.583923
20
0.015991
30
0.0
11
0.720642
21
-0.230011
31
0.0
0
LINE
8
MCD_Layer_0
10
0.583923
20
0.015991
30
0.0
11
0.001892
21
0.000000
31
0.0
0
LINE
8
MCD_Layer_0
10
0.000000
20
0.015625
30
0.0
11
0.000000
21
0.718750
31
0.0
0
LINE
8
MCD_Layer_0
10
-0.230011
20
0.583923
30
0.0
11
0.015991
21
0.720642
31
0.0
0
LINE
8
MCD_Layer_0
10
-0.230011
20
0.005798
30
0.0
11
0.000000
21
0.000000
31
0.0
0
LINE
8
MCD_Layer_0
10
0.671875
20
-0.398010
30
0.0
11
-0.462952
21
0.375977
31
0.0
0
LINE
8
MCD_Layer_0
10
-0.685638
20
0.091980
30
0.0
11
-0.462952
21
0.375977
31
0.0
0
LINE
8
MCD_Layer_0
10
0.001862
20
0.000000
30
0.0
11
0.007812
21
0.000000
31
0.0
0
LINE
8
MCD_Layer_0
10
0.000000
20
-0.687500
30
0.0
11
0.091980
21
-0.462952
31
0.0
0
LINE
8
MCD_Layer_0
10
0.375977
20
-0.685638
30
0.0
11
0.091980
21
0.958923
31
0.0
0
LINE
8
MCD_Layer_0
10
-0.640015
20
0.001862
30
0.0
11
0.000000
21
0.007812
31
0.0
0
LINE
8
MCD_Layer_0
10
0.015625
20
0.000000
30
0.0
11
-0.687500
21
0.091980
31
0.0
0
LINE
8
MCD_Layer_0
10
0.958923
20
-0.640015
30
0.0
11
0.533112
21
0.347992
31
0.0
0
LINE
8
MCD_Layer_0
10
0.958923
20
-0.640015
30
0.0
11
0.001862
21
0.000000
31
0.0
0
LINE
8
MCD_Layer_0
10
0.000000
20
0.023438
30
0.0
11
0.000000
21
0.531250
31
0.0
0
LINE
8
MCD_Layer_0
10
0.347992
20
0.958923
30
0.0
11
-0.640015
21
-0.834076
31
0.0
0
LINE
8
MCD_Layer_0
10
0.587982
20
-0.127014
30
0.0
11
-0.448029
21
0.626862
31
0.0
0
LINE
8
MCD_Layer_0
10
0.683990
20
0.583923
30
0.0
11
0.015991
21
0.001892
31
0.0
0
LINE
8
MCD_Layer_0
10
0.625000
20
0.683990
30
0.0
11
0.583923
21
0.015991
31
0.0
0
LINE
8
MCD_Layer_0
10
0.626892
20
0.683990
30
0.0
11
0.521423
21
-0.208008
31
0.0
0
LINE
8
MCD_Layer_0
10
0.000000
20
0.625000
30
0.0
11
0.683990
21
0.521423
31
0.0
0
LINE
8
MCD_Layer_0
10
-0.208008
20
-0.919983
30
0.0
11
0.307983
21
0.935486
31
0.0
0
LINE
8
MCD_Layer_0
10
-0.252014
20
-0.591858
30
0.0
11
-0.072021
21
0.646393
31
0.0
0
LINE
8
MCD_Layer_0
10
-0.260010
20
0.001892
30
0.0
11
0.000000
21
0.007812
31
0.0
0
LINE
8
MCD_Layer_0
10
0.015625
20
0.000000
30
0.0
11
-0.593750
21
-0.072021
31
0.0
0
LINE
8
MCD_Layer_0
10
0.794830
20
-0.256012
30
0.0
11
-0.685608
21
0.647980
31
0.0
0
LINE
8
MCD_Layer_0
10
-0.763763
20
0.311981
30
0.0
11
0.001892
21
0.000000
31
0.0
0
LINE
8
MCD_Layer_0
10
0.000000
20
0.023438
30
0.0
11
0.000000
21
-0.687500
31
0.0
0
LINE
8
MCD_Layer_0
10
0.647980
20
-0.763763
30
0.0
11
0.311981
21
0.345642
31
0.0
0
LINE
8
MCD_Layer_0
10
-0.712006
20
0.001862
30
0.0
11
0.000000
21
0.220642
31
0.0
0
LINE
8
MCD_Layer_0
10
-0.216003
20
0.408112
30
0.0
11
-0.544006
21
0.001862
31
0.0
0
LINE
8
MCD_Layer_0
10
0.218750
20
-0.216003
30
0.0
11
0.408112
21
-0.544006
31
0.0
0
LINE
8
MCD_Layer_0
10
-0.607513
20
0.371979
30
0.0
11
0.689392
21
0.407990
31
0.0
0
LINE
8
MCD_Layer_0
10
-0.490326
20
-0.986023
30
0.0
11
0.861267
21
-0.976013
31
0.0
0
LINE
8
MCD_Layer_0
10
0.001831
20
0.000000
30
0.0
11
0.007812
21
0.000000
31
0.0
0
LINE
8
MCD_Layer_0
10
0.000000
20
-0.492188
30
0.0
11
-0.986023
21
0.861267
31
0.0
0
LINE
8
MCD_Layer_0
10
-0.976013
20
0.447144
30
0.0
11
-0.682007
21
0.517517
31
0.0
0
LINE
8
MCD_Layer_0
10
0.791992
20
-0.193481
30
0.0
11
-0.422028
21
0.017517
31
0.0
0
LINE
8
MCD_Layer_0
10
0.056000
20
0.001862
30
0.0
11
0.000000
21
0.007812
31
0.0
0
LINE
8
MCD_Layer_0
10
0.015625
20
0.000000
30
0.0
11
-0.195312
21
-0.422028
31
0.0
0
LINE
8
MCD_Layer_0
10
0.017517
20
0.056000
30
0.0
11
0.931549
21
-0.502014
31
0.0
0
LINE
8
MCD_Layer_0
10
0.923767
20
-0.752014
30
0.0
11
0.001862
21
0.000000
31
0.0
0
LINE
8
MCD_Layer_0
10
0.000000
20
0.023438
30
0.0
11
0.000000
21
0.929688
31
0.0
0
LINE
8
MCD_Layer_0
10
-0.502014
20
0.923767
30
0.0
11
-0.752014
21
0.447174
31
0.0
0
LINE
8
MCD_Layer_0
10
-0.682007
20
0.892517
30
0.0
11
-0.864014
21
-0.334076
31
0.0
0
LINE
8
MCD_Layer_0
10
-0.926025
20
0.712830
30
0.0
11
-0.480011
21
0.001862
31
0.0
0
LINE
8
MCD_Layer_0
10
-0.335938
20
-0.926025
30
0.0
11
0.712830
21
-0.480011
31
0.0
0
LINE
8
MCD_Layer_0
10
0.954987
20
0.747986
30
0.0
11
0.611267
21
0.127991
31
0.0
0
LINE
8
MCD_Layer_0
10
-0.326233
20
0.323975
30
0.0
11
0.790955
21
0.743988
31
0.0
0
LINE
8
MCD_Layer_0
10
0.000000
20
-0.328125
30
0.0
11
0.323975
21
0.790955
31
0.0
0
LINE
8
MCD_Layer_0
10
0.743988
20
0.564392
30
0.0
11
0.071991
21
0.673737
31
0.0
0
LINE
8
MCD_Layer_0
10
-0.148010
20
0.001892
30
0.0
11
0.000000
21
0.007812
31
0.0
0
LINE
8
MCD_Layer_0
10
0.023438
20
0.000000
30
0.0
11
0.562500
21
0.071991
31
0.0
0
LINE
8
MCD_Layer_0
10
0.673737
20
-0.148010
30
0.0
11
-0.279358
21
-0.840027
31
0.0
0
LINE
8
MCD_Layer_0
10
-0.154388
20
-0.060028
30
0.0
11
-0.029358
21
-0.280029
31
0.0
0
LINE
8
MCD_Layer_0
10
-0.068451
20
0.025970
30
0.0
11
0.001923
21
0.000000
31
0.0
0
LINE
8
MCD_Layer_0
10
0.000000
20
0.023438
30
0.0
11
0.000000
21
-0.031250
31
0.0
0
LINE
8
MCD_Layer_0
10
-0.280029
20
-0.068451
30
0.0
11
0.025970
21
0.767548
31
0.0
0
LINE
8
MCD_Layer_0
10
0.243988
20
0.603455
30
0.0
11
0.127991
21
0.017548
31
0.0
0
LINE
8
MCD_Layer_0
10
0.556000
20
-0.849670
30
0.0
11
0.281982
21
0.001923
31
0.0
0
LINE
8
MCD_Layer_0
10
0.015625
20
0.556000
30
0.0
11
-0.849670
21
0.281982
31
0.0
0
LINE
8
MCD_Layer_0
10
0.080048
20
0.667999
30
0.0
11
-0.880920
21
0.419983
31
0.0
0
LINE
8
MCD_Layer_0
10
-0.826202
20
0.587982
30
0.0
11
-0.177795
21
0.633972
31
0.0
0
LINE
8
MCD_Layer_0
10
0.000000
20
-0.828125
30
0.0
11
0.587982
21
-0.177795
31
0.0
0
LINE
8
MCD_Layer_0
10
0.633972
20
-0.107452
30
0.0
11
0.219971
21
-0.193420
31
0.0
0
LINE
8
MCD_Layer_0
10
0.827972
20
-0.091827
30
0.0
11
-0.392029
21
0.775299
31
0.0
0
LINE
8
MCD_Layer_0
10
0.937988
20
0.001923
30
0.0
11
0.000000
21
0.007812
31
0.0
0
LINE
8
MCD_Layer_0
10
0.023438
20
0.000000
30
0.0
11
-0.093750
21
-0.392029
31
0.0
0
LINE
8
MCD_Layer_0
10
0.775299
20
0.937988
30
0.0
11
0.626923
21
-0.816010
31
0.0
0
LINE
8
MCD_Layer_0
10
0.251831
20
-0.979004
30
0.0
11
-0.279327
21
-0.952026
31
0.0
0
LINE
8
MCD_Layer_0
10
-0.556732
20
-0.960022
30
0.0
11
0.001923
21
0.000000
31
0.0
0
LINE
8
MCD_Layer_0
10
0.000000
20
0.023438
30
0.0
11
0.000000
21
-0.281250
31
0.0
0
LINE
8
MCD_Layer_0
10
-0.952026
20
-0.556732
30
0.0
11
-0.960022
21
0.470673
31
0.0
0
LINE
8
MCD_Layer_0
10
-0.376007
20
0.513580
30
0.0
11
-0.958008
21
-0.951202
31
0.0
0
LINE
8
MCD_Layer_0
10
0.139984
20
0.513611
30
0.0
11
-0.958008
21
0.001923
31
0.0
0
LINE
8
MCD_Layer_0
10
-0.953125
20
0.139984
30
0.0
11
0.513611
21
-0.958008
31
0.0
0
LINE
8
MCD_Layer_0
10
-0.607452
20
-0.378021
30
0.0
11
0.513611
21
-0.958008
31
0.0
0
LINE
8
MCD_Layer_0
10
0.000000
20
-0.609375
30
0.0
11
-0.378021
21
0.513611
31
0.0
0
LINE
8
MCD_Layer_0
10
-0.958008
20
-0.607452
30
0.0
11
-0.378021
21
0.005798
31
0.0
0
LINE
8
MCD_Layer_0
10
-1.000000
20
0.001923
30
0.0
11
0.000000
21
0.007812
31
0.0
0
LINE
8
MCD_Layer_0
10
0.015625
20
0.000000
30
0.0
11
-0.609375
21
-0.378021
31
0.0
0
LINE
8
MCD_Layer_0
10
0.005798
20
-1.000000
30
0.0
11
0.783173
21
-0.506012
31
0.0
0
LINE
8
MCD_Layer_0
10
0.005798
20
-1.000000
30
0.0
11
0.001923
21
0.000000
31
0.0
0
LINE
8
MCD_Layer_0
10
0.000000
20
0.023438
30
0.0
11
0.000000
21
0.781250
31
0.0
0
LINE
8
MCD_Layer_0
10
-0.506012
20
0.005798
30
0.0
11
-1.000000
21
0.470673
31
0.0
0
LINE
8
MCD_Layer_0
10
-0.626007
20
-0.861389
30
0.0
11
0.975983
21
0.736298
31
0.0
0
LINE
8
MCD_Layer_0
10
-0.674011
20
0.982361
30
0.0
11
0.915985
21
0.001923
31
0.0
0
LINE
8
MCD_Layer_0
10
0.734375
20
-0.674011
30
0.0
11
0.982361
21
0.915985
31
0.0
0
LINE
8
MCD_Layer_0
10
0.736298
20
-0.674011
30
0.0
11
0.583923
21
0.015991
31
0.0
0
LINE
8
MCD_Layer_0
10
0.000000
20
0.734375
30
0.0
11
-0.674011
21
0.583923
31
0.0
0
LINE
8
MCD_Layer_0
10
0.015991
20
0.470642
30
0.0
11
-0.626007
21
-0.127014
31
0.0
0
LINE
8
MCD_Layer_0
10
-0.448029
20
0.783112
30
0.0
11
-0.506012
21
0.958923
31
0.0
0
LINE
8
MCD_Layer_0
10
0.958923
20
-0.640015
30
0.0
11
0.673737
21
-0.398010
31
0.0
0
LINE
8
MCD_Layer_0
10
0.000000
20
0.015625
30
0.0
11
0.000000
21
0.671875
31
0.0
0
LINE
8
MCD_Layer_0
10
-0.398010
20
0.958923
30
0.0
11
-0.640015
21
0.673737
31
0.0
0
LINE
8
MCD_Layer_0
10
-0.398010
20
-0.462952
30
0.0
11
0.375977
21
0.001862
31
0.0
0
LINE
8
MCD_Layer_0
10
0.468750
20
0.123993
30
0.0
11
0.865173
21
0.023987
31
0.0
0
LINE
8
MCD_Layer_0
10
0.845673
20
0.411987
30
0.0
11
0.083923
21
0.029999
31
0.0
0
LINE
8
MCD_Layer_0
10
0.626923
20
0.683990
30
0.0
11
0.513611
21
0.041992
31
0.0
0
LINE
8
MCD_Layer_0
10
0.000000
20
0.625000
30
0.0
11
0.683990
21
0.513611
31
0.0
0
LINE
8
MCD_Layer_0
10
0.041992
20
0.626923
30
0.0
11
0.683990
21
0.982361
31
0.0
0
LINE
8
MCD_Layer_0
10
0.915985
20
0.001923
30
0.0
11
0.000000
21
0.007812
31
0.0
0
LINE
8
MCD_Layer_0
10
0.015625
20
0.000000
30
0.0
11
0.625000
21
0.683990
31
0.0
0
LINE
8
MCD_Layer_0
10
0.982361
20
0.915985
30
0.0
11
0.439423
21
0.011993
31
0.0
0
LINE
8
MCD_Layer_0
10
0.982361
20
0.915985
30
0.0
11
0.001923
21
0.000000
31
0.0
0
LINE
8
MCD_Layer_0
10
0.000000
20
0.023438
30
0.0
11
0.000000
21
0.437500
31
0.0
0
LINE
8
MCD_Layer_0
10
0.011993
20
0.982361
30
0.0
11
0.915985
21
-0.623077
31
0.0
0
LINE
8
MCD_Layer_0
10
-0.240021
20
-0.252075
30
0.0
11
0.853973
21
0.501923
31
0.0
0
LINE
8
MCD_Layer_0
10
0.679993
20
0.251862
30
0.0
11
0.645996
21
0.001923
31
0.0
0
LINE
8
MCD_Layer_0
10
0.500000
20
0.679993
30
0.0
11
0.251862
21
0.645996
31
0.0
0
LINE
8
MCD_Layer_0
10
0.814423
20
0.967987
30
0.0
11
-0.740326
21
0.423981
31
0.0
0
LINE
8
MCD_Layer_0
10
0.439423
20
0.455994
30
0.0
11
-0.701263
21
0.285980
31
0.0
0
LINE
8
MCD_Layer_0
10
0.000000
20
0.437500
30
0.0
11
0.455994
21
-0.701263
31
0.0
0
LINE
8
MCD_Layer_0
10
0.285980
20
0.376923
30
0.0
11
-0.880005
21
0.478394
31
0.0
0
LINE
8
MCD_Layer_0
10
0.179993
20
-0.248077
30
0.0
11
0.103973
21
-0.970795
31
0.0
0
LINE
8
MCD_Layer_0
10
0.083984
20
0.001923
30
0.0
11
0.000000
21
0.007812
31
0.0
0
LINE
8
MCD_Layer_0
10
0.023438
20
0.000000
30
0.0
11
-0.250000
21
0.103973
31
0.0
0
LINE
8
MCD_Layer_0
10
-0.970795
20
0.083984
30
0.0
11
-0.498077
21
-0.680023
31
0.0
0
LINE
8
MCD_Layer_0
10
-0.416107
20
0.043976
30
0.0
11
0.470673
21
0.123993
31
0.0
0
LINE
8
MCD_Layer_0
10
0.865173
20
0.023987
30
0.0
11
0.001923
21
0.000000
31
0.0
0
LINE
8
MCD_Layer_0
10
0.000000
20
0.015625
30
0.0
11
0.000000
21
0.531250
31
0.0
0
LINE
8
MCD_Layer_0
10
0.347992
20
0.037048
30
0.0
11
0.112000
21
0.814423
31
0.0
0
LINE
8
MCD_Layer_0
10
-0.088013
20
0.037018
30
0.0
11
0.112000
21
0.001923
31
0.0
0
LINE
8
MCD_Layer_0
10
0.812500
20
-0.088013
30
0.0
11
0.037018
21
0.112000
31
0.0
0
LINE
8
MCD_Layer_0
10
-0.466827
20
-0.568024
30
0.0
11
-0.462982
21
0.125977
31
0.0
0
LINE
8
MCD_Layer_0
10
-0.060577
20
0.775970
30
0.0
11
0.693268
21
0.157990
31
0.0
0
LINE
8
MCD_Layer_0
10
0.000000
20
-0.062500
30
0.0
11
0.775970
21
0.693268
31
0.0
0
LINE
8
MCD_Layer_0
10
0.157990
20
0.001923
30
0.0
11
-0.944000
21
-0.713013
31
0.0
0
LINE
8
MCD_Layer_0
10
0.229980
20
0.501923
30
0.0
11
-0.592010
21
0.306488
31
0.0
0
LINE
8
MCD_Layer_0
10
0.313995
20
0.001923
30
0.0
11
0.000000
21
0.007812
31
0.0
0
LINE
8
MCD_Layer_0
10
0.023438
20
0.000000
30
0.0
11
-0.250000
21
0.599976
31
0.0
0
LINE
8
MCD_Layer_0
10
0.462769
20
0.623993
30
0.0
11
-0.998077
21
-0.752014
31
0.0
0
LINE
8
MCD_Layer_0
10
-0.451294
20
0.431976
30
0.0
11
0.001923
21
-0.335999
31
0.0
0
LINE
8
MCD_Layer_0
10
0.306488
20
0.313995
30
0.0
11
0.001923
21
0.000000
31
0.0
0
LINE
8
MCD_Layer_0
10
0.011993
20
-0.041077
30
0.0
11
0.831970
21
0.189423
31
0.0
0
LINE
8
MCD_Layer_0
10
0.615997
20
-0.845795
30
0.0
11
0.781982
21
0.251923
31
0.0
0
LINE
8
MCD_Layer_0
10
0.727997
20
0.322144
30
0.0
11
0.619995
21
0.001923
31
0.0
0
LINE
8
MCD_Layer_0
10
0.531250
20
0.347992
30
0.0
11
-0.041077
21
0.831970
31
0.0
0
LINE
8
MCD_Layer_0
10
0.439423
20
0.011993
30
0.0
11
-0.041077
21
0.831970
31
0.0
0
LINE
8
MCD_Layer_0
10
0.000000
20
0.531250
30
0.0
11
0.347992
21
-0.041077
31
0.0
0
LINE
8
MCD_Layer_0
10
0.831970
20
0.533173
30
0.0
11
0.347992
21
0.037048
31
0.0
0
LINE
8
MCD_Layer_0
10
0.112000
20
0.001923
30
0.0
11
0.000000
21
0.007812
31
0.0
0
LINE
8
MCD_Layer_0
10
0.000000
20
0.031250
30
0.0
11
0.666473
21
0.643188
31
0.0
0
LINE
8
MCD_Layer_0
10
-0.999969
20
-0.006104
30
0.0
11
-0.507996
21
-0.376953
31
0.0
0
LINE
8
MCD_Layer_0
10
-0.526672
20
-0.090912
30
0.0
11
0.492004
21
0.977692
31
0.0
0
LINE
8
MCD_Layer_0
10
0.496490
20
0.001831
30
0.0
11
-0.999756
21
0.000000
31
0.0
0
LINE
8
MCD_Layer_0
10
0.000000
20
0.000092
30
0.0
11
0.000000
21
0.128021
31
0.0
0
LINE
8
MCD_Layer_0
10
-0.509033
20
0.198425
30
0.0
11
0.488342
21
-0.118408
31
0.0
0
LINE
8
MCD_Layer_0
10
-0.508179
20
0.454407
30
0.0
11
0.490784
21
-0.239990
31
0.0
0
LINE
8
MCD_Layer_0
10
-0.507996
20
0.271973
30
0.0
11
0.492523
21
0.000000
31
0.0
0
LINE
8
MCD_Layer_0
10
-0.239990
20
-0.507996
30
0.0
11
0.271973
21
0.492523
31
0.0
0
LINE
8
MCD_Layer_0
10
-0.118408
20
-0.508179
30
0.0
11
0.316772
21
0.493561
31
0.0
0
LINE
8
MCD_Layer_0
10
0.128021
20
-0.509033
30
0.0
11
0.444824
21
0.494781
31
0.0
0
LINE
8
MCD_Layer_0
10
0.000000
20
0.128021
30
0.0
11
-0.509033
21
0.444824
31
0.0
0
LINE
8
MCD_Layer_0
10
0.494781
20
-0.511993
30
0.0
11
-0.509796
21
0.022400
31
0.0
0
LINE
8
MCD_Layer_0
10
0.495392
20
-0.751984
30
0.0
11
-0.510925
21
0.211182
31
0.0
0
LINE
8
MCD_Layer_0
10
0.496033
20
0.000000
30
0.0
11
0.000000
21
0.000031
31
0.0
0
LINE
8
MCD_Layer_0
10
0.000092
20
0.000000
30
0.0
11
-0.751984
21
-0.510925
31
0.0
0
LINE
8
MCD_Layer_0
10
0.211182
20
0.496033
30
0.0
11
0.368011
21
-0.512787
31
0.0
0
LINE
8
MCD_Layer_0
10
-0.560028
20
0.496277
30
0.0
11
0.201599
21
-0.515106
31
0.0
0
LINE
8
MCD_Layer_0
10
-0.291229
20
0.496399
30
0.0
11
0.000000
21
0.000000
31
0.0
0
LINE
8
MCD_Layer_0
10
0.000000
20
0.000092
30
0.0
11
0.000000
21
0.201599
31
0.0
0
LINE
8
MCD_Layer_0
10
-0.515106
20
-0.291229
30
0.0
11
0.496399
21
-0.422394
31
0.0
0
LINE
8
MCD_Layer_0
10
-0.517487
20
0.755219
30
0.0
11
0.496460
21
0.000000
31
0.0
0
LINE
8
MCD_Layer_0
10
0.000000
20
0.956787
30
0.0
11
0.496490
21
0.000000
31
0.0
0
LINE
8
MCD_Layer_0
10
0.000000
20
0.000000
30
0.0
11
0.956787
21
0.496490
31
0.0
0
LINE
8
MCD_Layer_0
10
-0.832001
20
0.482513
30
0.0
11
0.755219
21
0.496460
31
0.0
0
LINE
8
MCD_Layer_0
10
0.201599
20
0.484894
30
0.0
11
-0.291229
21
0.496399
31
0.0
0
LINE
8
MCD_Layer_0
10
0.000000
20
0.201599
30
0.0
11
0.484894
21
-0.291229
31
0.0
0
LINE
8
MCD_Layer_0
10
0.496399
20
0.368011
30
0.0
11
0.487213
21
-0.560028
31
0.0
0
LINE
8
MCD_Layer_0
10
0.496277
20
-0.751984
30
0.0
11
0.489075
21
0.211182
31
0.0
0
LINE
8
MCD_Layer_0
10
0.000092
20
0.000000
30
0.0
11
-0.751984
21
0.489075
31
0.0
0
LINE
8
MCD_Layer_0
10
0.211182
20
0.496033
30
0.0
11
-0.614380
21
0.490204
31
0.0
0
LINE
8
MCD_Layer_0
10
0.022400
20
0.495392
30
0.0
11
0.128021
21
0.490967
31
0.0
0
LINE
8
MCD_Layer_0
10
0.444824
20
0.494781
30
0.0
11
0.000000
21
0.000000
31
0.0
0
LINE
8
MCD_Layer_0
10
0.490967
20
0.444824
30
0.0
11
0.494781
21
-0.118408
31
0.0
0
LINE
8
MCD_Layer_0
10
0.491821
20
0.316772
30
0.0
11
0.493561
21
-0.342377
31
0.0
0
LINE
8
MCD_Layer_0
10
0.492004
20
0.271973
30
0.0
11
0.492523
21
0.000000
31
0.0
0
LINE
8
MCD_Layer_0
10
-0.342377
20
0.492004
30
0.0
11
0.271973
21
0.492523
31
0.0
0
LINE
8
MCD_Layer_0
10
-0.118408
20
0.491821
30
0.0
11
0.454407
21
0.490784
31
0.0
0
LINE
8
MCD_Layer_0
10
0.128021
20
0.490967
30
0.0
11
0.198425
21
0.488342
31
0.0
0
LINE
8
MCD_Layer_0
10
0.000000
20
0.128021
30
0.0
11
0.490967
21
0.198425
31
0.0
0
LINE
8
MCD_Layer_0
10
0.488342
20
-0.614380
30
0.0
11
0.490204
21
0.086426
31
0.0
0
LINE
8
MCD_Layer_0
10
0.485992
20
-0.751984
30
0.0
11
0.489075
21
0.662384
31
0.0
0
LINE
8
MCD_Layer_0
10
0.482452
20
0.000000
30
0.0
11
0.000000
21
0.000031
31
0.0
0
LINE
8
MCD_Layer_0
10
0.662384
20
0.482452
30
0.0
11
0.368011
21
0.487213
31
0.0
0
LINE
8
MCD_Layer_0
10
0.623993
20
0.476959
30
0.0
11
0.201599
21
0.484894
31
0.0
0
LINE
8
MCD_Layer_0
10
0.358521
20
0.461426
30
0.0
11
0.000000
21
0.000000
31
0.0
0
LINE
8
MCD_Layer_0
10
0.484894
20
0.358521
30
0.0
11
0.461426
21
-0.832001
31
0.0
0
LINE
8
MCD_Layer_0
10
0.482513
20
-0.873657
30
0.0
11
-0.530273
21
-0.569641
31
0.0
0
LINE
8
MCD_Layer_0
10
0.443878
20
-0.172791
30
0.0
11
-0.526703
21
0.000000
31
0.0
0
LINE
8
MCD_Layer_0
10
-0.569641
20
0.443878
30
0.0
11
-0.172791
21
-0.526703
31
0.0
0
LINE
8
MCD_Layer_0
10
-0.422394
20
-0.517487
30
0.0
11
-0.873657
21
-0.530273
31
0.0
0
LINE
8
MCD_Layer_0
10
0.201599
20
-0.515106
30
0.0
11
0.358521
21
0.461426
31
0.0
0
LINE
8
MCD_Layer_0
10
0.000000
20
0.201599
30
0.0
11
-0.515106
21
0.358521
31
0.0
0
LINE
8
MCD_Layer_0
10
0.461426
20
0.368011
30
0.0
11
-0.512787
21
0.623993
31
0.0
0
LINE
8
MCD_Layer_0
10
0.476959
20
-0.751984
30
0.0
11
-0.510925
21
0.662384
31
0.0
0
LINE
8
MCD_Layer_0
10
0.662384
20
0.482452
30
0.0
11
-0.511993
21
-0.509796
31
0.0
0
LINE
8
MCD_Layer_0
10
0.086426
20
0.485992
30
0.0
11
0.128021
21
-0.509033
31
0.0
0
LINE
8
MCD_Layer_0
10
0.198425
20
0.488342
30
0.0
11
0.000000
21
0.000000
31
0.0
0
LINE
8
MCD_Layer_0
10
0.000000
20
0.000092
30
0.0
11
0.000000
21
0.412811
31
0.0
0
LINE
8
MCD_Layer_0
10
-0.509308
20
0.934418
30
0.0
11
0.489136
21
-0.012817
31
0.0
0
LINE
8
MCD_Layer_0
10
-0.508698
20
-0.230408
30
0.0
11
0.491425
21
0.800018
31
0.0
0
LINE
8
MCD_Layer_0
10
-0.508606
20
0.271973
30
0.0
11
0.492523
21
0.000000
31
0.0
0
LINE
8
MCD_Layer_0
10
0.800018
20
-0.508606
30
0.0
11
0.271973
21
0.492523
31
0.0
0
LINE
8
MCD_Layer_0
10
-0.012817
20
-0.508698
30
0.0
11
0.659180
21
0.493225
31
0.0
0
LINE
8
MCD_Layer_0
10
0.412811
20
-0.509308
30
0.0
11
0.076782
21
0.494385
31
0.0
0
LINE
8
MCD_Layer_0
10
0.000000
20
0.412811
30
0.0
11
-0.509308
21
0.076782
31
0.0
0
LINE
8
MCD_Layer_0
10
0.494385
20
-0.406403
30
0.0
11
-0.510315
21
-0.115234
31
0.0
0
LINE
8
MCD_Layer_0
10
0.495209
20
-0.368011
30
0.0
11
-0.511658
21
0.067200
31
0.0
0
LINE
8
MCD_Layer_0
10
0.495941
20
0.000000
30
0.0
11
0.000000
21
0.000031
31
0.0
0
LINE
8
MCD_Layer_0
10
0.000092
20
0.000000
30
0.0
11
-0.368011
21
-0.511658
31
0.0
0
LINE
8
MCD_Layer_0
10
0.067200
20
0.495941
30
0.0
11
-0.592010
21
-0.513428
31
0.0
0
LINE
8
MCD_Layer_0
10
-0.982422
20
0.496155
30
0.0
11
-0.182404
21
-0.515381
31
0.0
0
LINE
8
MCD_Layer_0
10
0.057587
20
0.496277
30
0.0
11
0.000000
21
0.000000
31
0.0
0
LINE
8
MCD_Layer_0
10
0.000000
20
0.000092
30
0.0
11
0.000000
21
-0.182404
31
0.0
0
LINE
8
MCD_Layer_0
10
-0.515381
20
0.057587
30
0.0
11
0.496277
21
0.108795
31
0.0
0
LINE
8
MCD_Layer_0
10
-0.521545
20
-0.028839
30
0.0
11
0.496338
21
0.000000
31
0.0
0
LINE
8
MCD_Layer_0
10
0.000000
20
0.662354
30
0.0
11
0.496368
21
0.000000
31
0.0
0
LINE
8
MCD_Layer_0
10
0.000000
20
0.000000
30
0.0
11
0.662354
21
0.496368
31
0.0
0
LINE
8
MCD_Layer_0
10
-0.710388
20
0.478424
30
0.0
11
-0.028839
21
0.496338
31
0.0
0
LINE
8
MCD_Layer_0
10
-0.182404
20
0.484619
30
0.0
11
0.057587
21
0.496277
31
0.0
0
LINE
8
MCD_Layer_0
10
0.000000
20
-0.182404
30
0.0
11
0.484619
21
0.057587
31
0.0
0
LINE
8
MCD_Layer_0
10
0.496277
20
-0.592010
30
0.0
11
0.486572
21
-0.982422
31
0.0
0
LINE
8
MCD_Layer_0
10
0.496155
20
-0.368011
30
0.0
11
0.488342
21
0.067200
31
0.0
0
LINE
8
MCD_Layer_0
10
0.067200
20
0.495941
30
0.0
11
-0.406403
21
0.489685
31
0.0
0
LINE
8
MCD_Layer_0
10
-0.115234
20
0.495209
30
0.0
11
0.310425
21
0.490692
31
0.0
0
LINE
8
MCD_Layer_0
10
0.076782
20
0.494385
30
0.0
11
0.000000
21
0.000000
31
0.0
0
LINE
8
MCD_Layer_0
10
0.000000
20
0.000092
30
0.0
11
0.000000
21
0.310425
31
0.0
0
LINE
8
MCD_Layer_0
10
0.490692
20
0.076782
30
0.0
11
0.494385
21
-0.115204
31
0.0
0
LINE
8
MCD_Layer_0
10
0.491302
20
0.659180
30
0.0
11
0.493225
21
0.697601
31
0.0
0
LINE
8
MCD_Layer_0
10
0.491394
20
0.271973
30
0.0
11
0.492523
21
0.000000
31
0.0
0
LINE
8
MCD_Layer_0
10
0.697601
20
0.491394
30
0.0
11
0.271973
21
0.492523
31
0.0
0
LINE
8
MCD_Layer_0
10
-0.115204
20
0.491302
30
0.0
11
-0.230408
21
0.491425
31
0.0
0
LINE
8
MCD_Layer_0
10
0.310425
20
0.490692
30
0.0
11
0.934418
21
0.489136
31
0.0
0
LINE
8
MCD_Layer_0
10
0.000000
20
0.310425
30
0.0
11
0.490692
21
0.934418
31
0.0
0
LINE
8
MCD_Layer_0
10
0.489136
20
-0.406403
30
0.0
11
0.489685
21
0.636810
31
0.0
0
LINE
8
MCD_Layer_0
10
0.486603
20
-0.368011
30
0.0
11
0.488342
21
-0.595184
31
0.0
0
LINE
8
MCD_Layer_0
10
0.483185
20
0.000000
30
0.0
11
0.000000
21
0.000031
31
0.0
0
LINE
8
MCD_Layer_0
10
-0.595184
20
0.483185
30
0.0
11
-0.592010
21
0.486572
31
0.0
0
LINE
8
MCD_Layer_0
10
0.070374
20
0.480774
30
0.0
11
-0.182404
21
0.484619
31
0.0
0
LINE
8
MCD_Layer_0
10
0.041565
20
0.477631
30
0.0
11
0.000000
21
0.000000
31
0.0
0
LINE
8
MCD_Layer_0
10
0.484619
20
0.041565
30
0.0
11
0.477631
21
-0.710388
31
0.0
0
LINE
8
MCD_Layer_0
10
0.478424
20
-0.748810
30
0.0
11
0.472931
21
0.000000
31
0.0
0
LINE
8
MCD_Layer_0
10
0.000000
20
0.751953
30
0.0
11
0.471832
21
0.000000
31
0.0
0
LINE
8
MCD_Layer_0
10
0.000000
20
0.000000
30
0.0
11
0.751953
21
0.471832
31
0.0
0
LINE
8
MCD_Layer_0
10
0.108795
20
-0.521545
30
0.0
11
-0.748810
21
0.472931
31
0.0
0
LINE
8
MCD_Layer_0
10
-0.182404
20
-0.515381
30
0.0
11
0.041565
21
0.477631
31
0.0
0
LINE
8
MCD_Layer_0
10
0.000000
20
-0.182404
30
0.0
11
-0.515381
21
0.041565
31
0.0
0
LINE
8
MCD_Layer_0
10
0.477631
20
-0.592010
30
0.0
11
-0.513428
21
0.070374
31
0.0
0
LINE
8
MCD_Layer_0
10
0.480774
20
-0.368011
30
0.0
11
-0.511658
21
-0.595184
31
0.0
0
LINE
8
MCD_Layer_0
10
-0.595184
20
0.483185
30
0.0
11
-0.406403
21
-0.510315
31
0.0
0
LINE
8
MCD_Layer_0
10
0.636810
20
0.486603
30
0.0
11
0.412811
21
-0.509308
31
0.0
0
LINE
8
MCD_Layer_0
10
0.934418
20
0.489136
30
0.0
11
0.000000
21
0.000000
31
0.0
0
LINE
8
MCD_Layer_0
10
0.000000
20
0.000092
30
0.0
11
0.000000
21
-0.665588
31
0.0
0
LINE
8
MCD_Layer_0
10
-0.511261
20
-0.220795
30
0.0
11
0.489868
21
-0.643219
31
0.0
0
LINE
8
MCD_Layer_0
10
-0.510986
20
0.019226
30
0.0
11
0.491028
21
-0.662384
31
0.0
0
LINE
8
MCD_Layer_0
10
-0.510803
20
0.271973
30
0.0
11
0.492523
21
0.000000
31
0.0
0
LINE
8
MCD_Layer_0
10
-0.662384
20
-0.510803
30
0.0
11
0.271973
21
0.492523
31
0.0
0
LINE
8
MCD_Layer_0
10
-0.643219
20
-0.510986
30
0.0
11
0.534424
21
0.493439
31
0.0
0
LINE
8
MCD_Layer_0
10
-0.665588
20
-0.511261
30
0.0
11
-0.345642
21
0.493988
31
0.0
0
LINE
8
MCD_Layer_0
10
0.000000
20
-0.665588
30
0.0
11
-0.511261
21
-0.345642
31
0.0
0
LINE
8
MCD_Layer_0
10
0.493988
20
-0.300781
30
0.0
11
-0.511810
21
0.406372
31
0.0
0
LINE
8
MCD_Layer_0
10
0.494659
20
0.217621
30
0.0
11
-0.513794
21
-0.540771
31
0.0
0
LINE
8
MCD_Layer_0
10
0.495361
20
0.000000
30
0.0
11
0.000000
21
0.000031
31
0.0
0
LINE
8
MCD_Layer_0
10
0.000092
20
0.000000
30
0.0
11
0.217621
21
-0.513794
31
0.0
0
LINE
8
MCD_Layer_0
10
-0.540771
20
0.495361
30
0.0
11
-0.592010
21
-0.515381
31
0.0
0
LINE
8
MCD_Layer_0
10
-0.572815
20
0.495667
30
0.0
11
0.470367
21
-0.517670
31
0.0
0
LINE
8
MCD_Layer_0
10
-0.332825
20
0.495819
30
0.0
11
0.000000
21
0.000000
31
0.0
0
LINE
8
MCD_Layer_0
10
0.000000
20
0.000092
30
0.0
11
0.000000
21
0.470367
31
0.0
0
LINE
8
MCD_Layer_0
10
-0.517670
20
-0.332825
30
0.0
11
0.495819
21
0.086395
31
0.0
0
LINE
8
MCD_Layer_0
10
-0.525726
20
-0.140808
30
0.0
11
0.495941
21
0.000000
31
0.0
0
LINE
8
MCD_Layer_0
10
0.000000
20
0.371216
30
0.0
11
0.495972
21
0.000000
31
0.0
0
LINE
8
MCD_Layer_0
10
0.000000
20
0.000000
30
0.0
11
0.371216
21
0.495972
31
0.0
0
LINE
8
MCD_Layer_0
10
0.086395
20
0.474274
30
0.0
11
-0.140808
21
0.495941
31
0.0
0
LINE
8
MCD_Layer_0
10
0.470367
20
0.482330
30
0.0
11
-0.332825
21
0.495819
31
0.0
0
LINE
8
MCD_Layer_0
10
0.000000
20
0.470367
30
0.0
11
0.482330
21
-0.332825
31
0.0
0
LINE
8
MCD_Layer_0
10
0.495819
20
-0.796783
30
0.0
11
0.484619
21
-0.572815
31
0.0
0
LINE
8
MCD_Layer_0
10
0.495667
20
0.012817
30
0.0
11
0.486206
21
-0.540771
31
0.0
0
LINE
8
MCD_Layer_0
10
0.000092
20
0.000000
30
0.0
11
0.012817
21
0.486206
31
0.0
0
LINE
8
MCD_Layer_0
10
-0.540771
20
0.495361
30
0.0
11
-0.300781
21
0.488190
31
0.0
0
LINE
8
MCD_Layer_0
10
0.406372
20
0.494659
30
0.0
11
-0.665588
21
0.488739
31
0.0
0
LINE
8
MCD_Layer_0
10
-0.345642
20
0.493988
30
0.0
11
0.000000
21
0.000000
31
0.0
0
LINE
8
MCD_Layer_0
10
0.488739
20
-0.345642
30
0.0
11
0.493988
21
-0.745636
31
0.0
0
LINE
8
MCD_Layer_0
10
0.489014
20
0.534424
30
0.0
11
0.493439
21
-0.662384
31
0.0
0
LINE
8
MCD_Layer_0
10
0.489197
20
0.271973
30
0.0
11
0.492523
21
0.000000
31
0.0
0
LINE
8
MCD_Layer_0
10
-0.662384
20
0.489197
30
0.0
11
0.271973
21
0.492523
31
0.0
0
LINE
8
MCD_Layer_0
10
-0.745636
20
0.489014
30
0.0
11
0.019226
21
0.491028
31
0.0
0
LINE
8
MCD_Layer_0
10
-0.665588
20
0.488739
30
0.0
11
-0.220795
21
0.489868
31
0.0
0
LINE
8
MCD_Layer_0
10
0.000000
20
-0.665588
30
0.0
11
0.488739
21
-0.220795
31
0.0
0
LINE
8
MCD_Layer_0
10
0.489868
20
-0.300781
30
0.0
11
0.488190
21
0.275208
31
0.0
0
LINE
8
MCD_Layer_0
10
0.488586
20
0.012817
30
0.0
11
0.486206
21
0.134430
31
0.0
0
LINE
8
MCD_Layer_0
10
0.486023
20
0.000000
30
0.0
11
0.000000
21
0.000031
31
0.0
0
LINE
8
MCD_Layer_0
10
0.134430
20
0.486023
30
0.0
11
-0.796783
21
0.484619
31
0.0
0
LINE
8
MCD_Layer_0
10
0.467194
20
0.484802
30
0.0
11
0.470367
21
0.482330
31
0.0
0
LINE
8
MCD_Layer_0
10
-0.985596
20
0.483978
30
0.0
11
0.000000
21
0.000000
31
0.0
0
LINE
8
MCD_Layer_0
10
0.482330
20
-0.985596
30
0.0
11
0.483978
21
0.086395
31
0.0
0
LINE
8
MCD_Layer_0
10
0.474274
20
-0.931213
30
0.0
11
0.482971
21
0.000000
31
0.0
0
LINE
8
MCD_Layer_0
10
0.000000
20
0.972778
30
0.0
11
0.482910
21
0.000000
31
0.0
0
LINE
8
MCD_Layer_0
10
0.000000
20
0.000000
30
0.0
11
0.972778
21
0.482910
31
0.0
0
LINE
8
MCD_Layer_0
10
0.086395
20
-0.525726
30
0.0
11
-0.931213
21
0.482971
31
0.0
0
LINE
8
MCD_Layer_0
10
0.470367
20
-0.517670
30
0.0
11
-0.985596
21
0.483978
31
0.0
0
LINE
8
MCD_Layer_0
10
0.000000
20
0.470367
30
0.0
11
-0.517670
21
-0.985596
31
0.0
0
LINE
8
MCD_Layer_0
10
0.483978
20
-0.592010
30
0.0
11
-0.515381
21
0.467194
31
0.0
0
LINE
8
MCD_Layer_0
10
0.484802
20
0.217621
30
0.0
11
-0.513794
21
0.134430
31
0.0
0
LINE
8
MCD_Layer_0
10
0.134430
20
0.486023
30
0.0
11
-0.300781
21
-0.511810
31
0.0
0
LINE
8
MCD_Layer_0
10
0.275208
20
0.488586
30
0.0
11
-0.665588
21
-0.511261
31
0.0
0
LINE
8
MCD_Layer_0
10
-0.220795
20
0.489868
30
0.0
11
0.000000
21
0.000000
31
0.0
0
LINE
8
MCD_Layer_0
10
0.000000
20
0.000092
30
0.0
11
0.000000
21
0.233582
31
0.0
0
LINE
8
MCD_Layer_0
10
-0.512482
20
0.191986
30
0.0
11
0.489380
21
-0.067200
31
0.0
0
LINE
8
MCD_Layer_0
10
-0.511597
20
0.873596
30
0.0
11
0.491180
21
0.275208
31
0.0
0
LINE
8
MCD_Layer_0
10
-0.511414
20
0.271973
30
0.0
11
0.492523
21
0.000000
31
0.0
0
LINE
8
MCD_Layer_0
10
0.275208
20
-0.511414
30
0.0
11
0.271973
21
0.492523
31
0.0
0
LINE
8
MCD_Layer_0
10
-0.067200
20
-0.511597
30
0.0
11
-0.943970
21
0.493347
31
0.0
0
LINE
8
MCD_Layer_0
10
0.233582
20
-0.512482
30
0.0
11
0.447998
21
0.494263
31
0.0
0
LINE
8
MCD_Layer_0
10
0.000000
20
0.233582
30
0.0
11
-0.512482
21
0.447998
31
0.0
0
LINE
8
MCD_Layer_0
10
0.494263
20
0.976013
30
0.0
11
-0.513702
21
0.489563
31
0.0
0
LINE
8
MCD_Layer_0
10
0.494843
20
-0.623993
30
0.0
11
-0.516052
21
-0.134399
31
0.0
0
LINE
8
MCD_Layer_0
10
0.495392
20
0.000000
30
0.0
11
0.000000
21
0.000031
31
0.0
0
LINE
8
MCD_Layer_0
10
0.000092
20
0.000000
30
0.0
11
-0.623993
21
-0.516052
31
0.0
0
LINE
8
MCD_Layer_0
10
-0.134399
20
0.495392
30
0.0
11
0.307190
21
-0.522461
31
0.0
0
LINE
8
MCD_Layer_0
10
0.815979
20
0.495636
30
0.0
11
0.000000
21
0.000000
31
0.0
0
LINE
8
MCD_Layer_0
10
0.864014
20
0.495667
30
0.0
11
0.000000
21
0.000000
31
0.0
0
LINE
8
MCD_Layer_0
10
0.000000
20
0.000092
30
0.0
11
0.000000
21
0.000000
31
0.0
0
LINE
8
MCD_Layer_0
10
0.000000
20
0.864014
30
0.0
11
0.495667
21
0.307190
31
0.0
0
LINE
8
MCD_Layer_0
10
0.477539
20
0.815979
30
0.0
11
0.495636
21
-0.623993
31
0.0
0
LINE
8
MCD_Layer_0
10
0.483948
20
-0.134399
30
0.0
11
0.495392
21
0.000000
31
0.0
0
LINE
8
MCD_Layer_0
10
-0.623993
20
0.483948
30
0.0
11
-0.134399
21
0.495392
31
0.0
0
LINE
8
MCD_Layer_0
10
0.771210
20
0.486298
30
0.0
11
0.489563
21
0.494843
31
0.0
0
LINE
8
MCD_Layer_0
10
0.028778
20
0.487518
30
0.0
11
0.447998
21
0.494263
31
0.0
0
LINE
8
MCD_Layer_0
10
0.000000
20
0.028778
30
0.0
11
0.487518
21
0.447998
31
0.0
0
LINE
8
MCD_Layer_0
10
0.494263
20
-0.067200
30
0.0
11
0.488403
21
-0.943970
31
0.0
0
LINE
8
MCD_Layer_0
10
0.493347
20
0.275208
30
0.0
11
0.488586
21
0.271973
31
0.0
0
LINE
8
MCD_Layer_0
10
0.000092
20
0.000000
30
0.0
11
0.275208
21
0.488586
31
0.0
0
LINE
8
MCD_Layer_0
10
0.271973
20
0.492523
30
0.0
11
-0.067200
21
0.488403
31
0.0
0
LINE
8
MCD_Layer_0
10
0.873596
20
0.491180
30
0.0
11
0.028778
21
0.487518
31
0.0
0
LINE
8
MCD_Layer_0
10
0.191986
20
0.489380
30
0.0
11
0.000000
21
0.000000
31
0.0
0
LINE
8
MCD_Layer_0
10
0.000000
20
0.000092
30
0.0
11
0.000000
21
0.028778
31
0.0
0
LINE
8
MCD_Layer_0
10
0.487518
20
0.191986
30
0.0
11
0.489380
21
0.771210
31
0.0
0
LINE
8
MCD_Layer_0
10
0.486298
20
0.217621
30
0.0
11
0.488159
21
-0.623993
31
0.0
0
LINE
8
MCD_Layer_0
10
0.483948
20
0.713593
30
0.0
11
0.485870
21
0.000000
31
0.0
0
LINE
8
MCD_Layer_0
10
-0.623993
20
0.483948
30
0.0
11
0.713593
21
0.485870
31
0.0
0
LINE
8
MCD_Layer_0
10
0.307190
20
0.477539
30
0.0
11
0.911987
21
0.484955
31
0.0
0
LINE
8
MCD_Layer_0
10
0.000000
20
0.000000
30
0.0
11
0.719971
21
0.484833
31
0.0
0
LINE
8
MCD_Layer_0
10
0.000000
20
0.000000
30
0.0
11
0.000000
21
0.719971
31
0.0
0
LINE
8
MCD_Layer_0
10
0.484833
20
0.307190
30
0.0
11
-0.522461
21
0.911987
31
0.0
0
LINE
8
MCD_Layer_0
10
0.484955
20
-0.623993
30
0.0
11
-0.516052
21
0.713593
31
0.0
0
LINE
8
MCD_Layer_0
10
0.485870
20
0.000000
30
0.0
11
0.000000
21
0.000031
31
0.0
0
LINE
8
MCD_Layer_0
10
0.713593
20
0.485870
30
0.0
11
0.976013
21
-0.513702
31
0.0
0
LINE
8
MCD_Layer_0
10
0.217621
20
0.488159
30
0.0
11
0.233582
21
-0.512482
31
0.0
0
LINE
8
MCD_Layer_0
10
0.000031
20
0.000000
30
0.0
11
0.617310
21
0.658844
31
0.0
0
LINE
8
MCD_Layer_0
10
0.010223
20
0.761719
30
0.0
11
-0.118011
21
0.997986
31
0.0
0
LINE
8
MCD_Layer_0
10
-0.528015
20
0.763550
30
0.0
11
-0.118011
21
0.564392
31
0.0
0
LINE
8
MCD_Layer_0
10
-0.915009
20
0.283173
30
0.0
11
0.023438
21
0.003906
31
0.0
0
LINE
8
MCD_Layer_0
10
0.000000
20
0.015625
30
0.0
11
0.000000
21
-0.625000
31
0.0
0
LINE
8
MCD_Layer_0
10
0.647980
20
0.997955
30
0.0
11
-0.528015
21
0.779175
31
0.0
0
LINE
8
MCD_Layer_0
10
-0.562012
20
-0.330139
30
0.0
11
0.823975
21
0.001923
31
0.0
0
LINE
8
MCD_Layer_0
10
0.773438
20
-0.562012
30
0.0
11
-0.330139
21
0.823975
31
0.0
0
LINE
8
MCD_Layer_0
10
0.236298
20
-0.466003
30
0.0
11
0.122986
21
0.891998
31
0.0
0
LINE
8
MCD_Layer_0
10
-0.005890
20
-0.306030
30
0.0
11
0.990173
21
0.915985
31
0.0
0
LINE
8
MCD_Layer_0
10
0.000000
20
-0.007812
30
0.0
11
-0.306030
21
0.990173
31
0.0
0
LINE
8
MCD_Layer_0
10
0.915985
20
0.759735
30
0.0
11
-0.118011
21
0.990173
31
0.0
0
LINE
8
MCD_Layer_0
10
0.015625
20
0.000000
30
0.0
11
0.757812
21
-0.118011
31
0.0
0
LINE
8
MCD_Layer_0
10
0.990173
20
0.915985
30
0.0
11
0.759735
21
-0.118011
31
0.0
0
LINE
8
MCD_Layer_0
10
0.000000
20
0.015625
30
0.0
11
0.000000
21
0.757812
31
0.0
0
LINE
8
MCD_Layer_0
10
-0.118011
20
0.568298
30
0.0
11
-0.915009
21
-0.154327
31
0.0
0
LINE
8
MCD_Layer_0
10
-0.616028
20
0.568268
30
0.0
11
-0.915009
21
0.001923
31
0.0
0
LINE
8
MCD_Layer_0
10
-0.156250
20
-0.616028
30
0.0
11
0.568268
21
-0.915009
31
0.0
0
LINE
8
MCD_Layer_0
10
-0.154327
20
-0.616028
30
0.0
11
0.990143
21
0.915985
31
0.0
0
LINE
8
MCD_Layer_0
10
0.000000
20
-0.156250
30
0.0
11
-0.616028
21
0.990143
31
0.0
0
LINE
8
MCD_Layer_0
10
0.915985
20
-0.044952
30
0.0
11
0.331970
21
0.990173
31
0.0
0
LINE
8
MCD_Layer_0
10
0.015625
20
0.000000
30
0.0
11
-0.046875
21
0.331970
31
0.0
0
LINE
8
MCD_Layer_0
10
0.990173
20
0.915985
30
0.0
11
0.626923
21
-0.816010
31
0.0
0
LINE
8
MCD_Layer_0
10
-0.818481
20
-0.356018
30
0.0
11
0.001892
21
0.000000
31
0.0
0
LINE
8
MCD_Layer_0
10
0.000000
20
0.015625
30
0.0
11
0.000000
21
0.625000
31
0.0
0
LINE
8
MCD_Layer_0
10
-0.816010
20
-0.818481
30
0.0
11
-0.356018
21
0.611267
31
0.0
0
LINE
8
MCD_Layer_0
10
0.683990
20
0.986267
30
0.0
11
0.915985
21
0.001923
31
0.0
0
LINE
8
MCD_Layer_0
10
0.609375
20
0.683990
30
0.0
11
0.986267
21
0.915985
31
0.0
0
LINE
8
MCD_Layer_0
10
0.455048
20
0.067993
30
0.0
11
0.986267
21
0.915985
31
0.0
0
LINE
8
MCD_Layer_0
10
0.000000
20
0.453125
30
0.0
11
0.067993
21
0.986267
31
0.0
0
LINE
8
MCD_Layer_0
10
0.915985
20
0.455048
30
0.0
11
0.067993
21
0.564392
31
0.0
0
LINE
8
MCD_Layer_0
10
0.015625
20
0.000000
30
0.0
11
0.453125
21
0.067993
31
0.0
0
LINE
8
MCD_Layer_0
10
0.564392
20
-0.915009
30
0.0
11
0.759735
21
-0.118011
31
0.0
0
LINE
8
MCD_Layer_0
10
0.564392
20
-0.915009
30
0.0
11
0.001923
21
0.000000
31
0.0
0
LINE
8
MCD_Layer_0
10
-0.118011
20
0.564392
30
0.0
11
-0.915009
21
0.759735
31
0.0
0
LINE
8
MCD_Layer_0
10
-0.118011
20
0.986267
30
0.0
11
0.915985
21
0.001923
31
0.0
0
LINE
8
MCD_Layer_0
10
0.757812
20
-0.118011
30
0.0
11
0.986267
21
0.915985
31
0.0
0
LINE
8
MCD_Layer_0
10
0.415985
20
-0.294006
30
0.0
11
0.986267
21
0.915985
31
0.0
0
LINE
8
MCD_Layer_0
10
0.000000
20
0.414062
30
0.0
11
-0.294006
21
0.986267
31
0.0
0
LINE
8
MCD_Layer_0
10
0.915985
20
0.806610
30
0.0
11
-0.450012
21
0.119080
31
0.0
0
LINE
8
MCD_Layer_0
10
0.891998
20
-0.662140
30
0.0
11
-0.546021
21
0.744080
31
0.0
0
LINE
8
MCD_Layer_0
10
0.825989
20
0.001923
30
0.0
11
0.000000
21
0.007812
31
0.0
0
LINE
8
MCD_Layer_0
10
0.015625
20
0.000000
30
0.0
11
-0.664062
21
-0.546021
31
0.0
0
LINE
8
MCD_Layer_0
10
0.744080
20
0.825989
30
0.0
11
0.814423
21
0.135986
31
0.0
0
LINE
8
MCD_Layer_0
10
0.994049
20
-0.528015
30
0.0
11
0.005737
21
0.000000
31
0.0
0
LINE
8
MCD_Layer_0
10
0.000000
20
0.015625
30
0.0
11
0.000000
21
0.812500
31
0.0
0
LINE
8
MCD_Layer_0
10
0.135986
20
0.994049
30
0.0
11
-0.528015
21
-0.619263
31
0.0
0
LINE
8
MCD_Layer_0
10
0.647980
20
0.997955
30
0.0
11
-0.528015
21
0.005737
31
0.0
0
LINE
8
MCD_Layer_0
10
-0.750000
20
-0.688019
30
0.0
11
-0.220825
21
-0.784027
31
0.0
0
LINE
8
MCD_Layer_0
10
0.869019
20
-0.726013
30
0.0
11
-0.822327
21
0.837982
31
0.0
0
LINE
8
MCD_Layer_0
10
0.000000
20
0.867188
30
0.0
11
-0.726013
21
-0.822327
31
0.0
0
LINE
8
MCD_Layer_0
10
0.837982
20
-0.521515
30
0.0
11
-0.598022
21
-0.150452
31
0.0
0
LINE
8
MCD_Layer_0
10
0.939972
20
-0.310577
30
0.0
11
-0.370026
21
0.005798
31
0.0
0
LINE
8
MCD_Layer_0
10
0.015625
20
0.000000
30
0.0
11
-0.312500
21
-0.370026
31
0.0
0
LINE
8
MCD_Layer_0
10
0.005798
20
-1.000000
30
0.0
11
0.712860
21
-0.286011
31
0.0
0
LINE
8
MCD_Layer_0
10
0.000000
20
0.015625
30
0.0
11
0.000000
21
0.710938
31
0.0
0
LINE
8
MCD_Layer_0
10
-0.286011
20
0.005798
30
0.0
11
-1.000000
21
0.712860
31
0.0
0
LINE
8
MCD_Layer_0
10
-0.286011
20
0.052673
30
0.0
11
-0.957001
21
0.001923
31
0.0
0
LINE
8
MCD_Layer_0
10
0.710938
20
-0.286011
30
0.0
11
0.052673
21
-0.957001
31
0.0
0
LINE
8
MCD_Layer_0
10
-0.841827
20
-0.024017
30
0.0
11
0.052643
21
-0.957001
31
0.0
0
LINE
8
MCD_Layer_0
10
0.000000
20
-0.843750
30
0.0
11
-0.024017
21
0.052643
31
0.0
0
LINE
8
MCD_Layer_0
10
-0.957001
20
-0.841827
30
0.0
11
-0.024017
21
0.005768
31
0.0
0
LINE
8
MCD_Layer_0
10
0.015625
20
0.000000
30
0.0
11
-0.843750
21
-0.024017
31
0.0
0
LINE
8
MCD_Layer_0
10
0.005768
20
-1.000000
30
0.0
11
0.501923
21
0.235992
31
0.0
0
LINE
8
MCD_Layer_0
10
0.000000
20
0.023438
30
0.0
11
0.000000
21
0.500000
31
0.0
0
LINE
8
MCD_Layer_0
10
0.235992
20
0.005798
30
0.0
11
-1.000000
21
0.314423
31
0.0
0
LINE
8
MCD_Layer_0
10
0.563995
20
-0.361389
30
0.0
11
0.961975
21
-0.529327
31
0.0
0
LINE
8
MCD_Layer_0
10
0.595978
20
-0.603577
30
0.0
11
0.871979
21
0.001923
31
0.0
0
LINE
8
MCD_Layer_0
10
-0.531250
20
0.595978
30
0.0
11
-0.603577
21
0.871979
31
0.0
0
LINE
8
MCD_Layer_0
10
0.001923
20
-0.944000
30
0.0
11
-0.380981
21
-0.844025
31
0.0
0
LINE
8
MCD_Layer_0
10
0.000000
20
0.000000
30
0.0
11
-0.944000
21
-0.380981
31
0.0
0
LINE
8
MCD_Layer_0
10
-0.844025
20
-0.169983
30
0.0
11
0.995972
21
0.119080
31
0.0
0
LINE
8
MCD_Layer_0
10
0.891998
20
0.001923
30
0.0
11
0.000000
21
0.007812
31
0.0
0
LINE
8
MCD_Layer_0
10
0.023438
20
0.000000
30
0.0
11
-0.171875
21
0.995972
31
0.0
0
LINE
8
MCD_Layer_0
10
0.119080
20
0.891998
30
0.0
11
0.392548
21
0.955994
31
0.0
0
LINE
8
MCD_Layer_0
10
-0.216858
20
0.965973
30
0.0
11
0.892548
21
0.691986
31
0.0
0
LINE
8
MCD_Layer_0
10
0.001892
20
-1.000000
30
0.0
11
0.001923
21
0.000000
31
0.0
0
LINE
8
MCD_Layer_0
10
0.000000
20
0.015625
30
0.0
11
0.000000
21
0.890625
31
0.0
0
LINE
8
MCD_Layer_0
10
0.691986
20
0.001892
30
0.0
11
-1.000000
21
0.548798
31
0.0
0
LINE
8
MCD_Layer_0
10
0.403992
20
0.001892
30
0.0
11
-1.000000
21
0.001923
31
0.0
0
LINE
8
MCD_Layer_0
10
0.546875
20
0.403992
30
0.0
11
0.001892
21
-1.000000
31
0.0
0
LINE
8
MCD_Layer_0
10
0.548798
20
0.403992
30
0.0
11
0.048767
21
-0.957001
31
0.0
0
LINE
8
MCD_Layer_0
10
0.000000
20
0.546875
30
0.0
11
0.403992
21
0.048767
31
0.0
0
LINE
8
MCD_Layer_0
10
-0.957001
20
0.697235
30
0.0
11
-0.286011
21
0.048767
31
0.0
0
LINE
8
MCD_Layer_0
10
-0.957001
20
0.001923
30
0.0
11
0.000000
21
0.007812
31
0.0
0
LINE
8
MCD_Layer_0
10
0.015625
20
0.000000
30
0.0
11
0.695312
21
-0.286011
31
0.0
0
LINE
8
MCD_Layer_0
10
0.048767
20
-0.957001
30
0.0
11
0.697235
21
-0.286011
31
0.0
0
LINE
8
MCD_Layer_0
10
0.000000
20
0.015625
30
0.0
11
0.000000
21
0.695312
31
0.0
0
LINE
8
MCD_Layer_0
10
-0.286011
20
0.001892
30
0.0
11
-1.000000
21
-0.318390
31
0.0
0
LINE
8
MCD_Layer_0
10
-0.370026
20
0.001892
30
0.0
11
-1.000000
21
0.001923
31
0.0
0
LINE
8
MCD_Layer_0
10
-0.320312
20
-0.370026
30
0.0
11
0.001892
21
-1.000000
31
0.0
0
LINE
8
MCD_Layer_0
10
0.353485
20
-0.518005
30
0.0
11
-0.857483
21
0.975983
31
0.0
0
LINE
8
MCD_Layer_0
10
0.290985
20
-0.686005
30
0.0
11
0.470642
21
0.873993
31
0.0
0
LINE
8
MCD_Layer_0
10
0.000000
20
0.289062
30
0.0
11
-0.686005
21
0.470642
31
0.0
0
LINE
8
MCD_Layer_0
10
0.873993
20
-0.998077
30
0.0
11
0.087982
21
-0.224731
31
0.0
0
LINE
8
MCD_Layer_0
10
-0.784027
20
0.001831
30
0.0
11
0.000000
21
0.007812
31
0.0
0
LINE
8
MCD_Layer_0
10
0.015625
20
0.000000
30
0.0
11
-1.000000
21
0.087982
31
0.0
0
LINE
8
MCD_Layer_0
10
-0.224731
20
-0.784027
30
0.0
11
-0.748169
21
-0.688019
31
0.0
0
LINE
8
MCD_Layer_0
10
-0.220825
20
-0.784027
30
0.0
11
0.001831
21
0.000000
31
0.0
0
LINE
8
MCD_Layer_0
10
0.007812
20
0.000000
30
0.0
11
0.031250
21
0.666473
31
0.0
0
LINE
8
MCD_Layer_0
10
0.674438
20
-0.999969
30
0.0
11
0.768005
21
-0.510254
31
0.0
0
LINE
8
MCD_Layer_0
10
0.000000
20
0.000000
30
0.0
11
-0.352020
21
0.489655
31
0.0
0
LINE
8
MCD_Layer_0
10
-0.351990
20
-0.510345
30
0.0
11
0.000000
21
0.000000
31
0.0
0
LINE
8
MCD_Layer_0
10
-0.352020
20
0.489655
30
0.0
11
0.000000
21
0.000000
31
0.0
0
LINE
8
MCD_Layer_0
10
-0.352020
20
0.489655
30
0.0
11
0.431976
21
0.488556
31
0.0
0
LINE
8
MCD_Layer_0
10
-0.752014
20
0.487122
30
0.0
11
0.431976
21
0.488556
31
0.0
0
LINE
8
MCD_Layer_0
10
-0.752014
20
0.487122
30
0.0
11
-0.927979
21
0.486359
31
0.0
0
LINE
8
MCD_Layer_0
10
0.000000
20
-0.752014
30
0.0
11
0.487122
21
-0.927979
31
0.0
0
LINE
8
MCD_Layer_0
10
0.486359
20
0.960022
30
0.0
11
0.486938
21
0.399994
31
0.0
0
LINE
8
MCD_Layer_0
10
0.485931
20
0.239929
30
0.0
11
0.486481
21
0.063995
31
0.0
0
LINE
8
MCD_Layer_0
10
0.485718
20
0.000000
30
0.0
11
0.000000
21
0.000031
31
0.0
0
LINE
8
MCD_Layer_0
10
0.239929
20
0.486481
30
0.0
11
0.063995
21
0.485718
31
0.0
0
LINE
8
MCD_Layer_0
10
0.287964
20
-0.519348
30
0.0
11
0.063995
21
0.485718
31
0.0
0
LINE
8
MCD_Layer_0
10
0.287964
20
-0.519348
30
0.0
11
-0.496002
21
0.492493
31
0.0
0
LINE
8
MCD_Layer_0
10
0.864014
20
0.481018
30
0.0
11
-0.496002
21
0.492493
31
0.0
0
LINE
8
MCD_Layer_0
10
0.864014
20
0.481018
30
0.0
11
-0.623993
21
0.491760
31
0.0
0
LINE
8
MCD_Layer_0
10
0.720032
20
0.486786
30
0.0
11
-0.623993
21
0.491760
31
0.0
0
LINE
8
MCD_Layer_0
10
0.720032
20
0.486786
30
0.0
11
-0.783997
21
0.494263
31
0.0
0
LINE
8
MCD_Layer_0
10
0.864014
20
0.481018
30
0.0
11
-0.783997
21
0.494263
31
0.0
0
LINE
8
MCD_Layer_0
10
0.864014
20
0.481018
30
0.0
11
0.959991
21
0.493774
31
0.0
0
LINE
8
MCD_Layer_0
10
0.767944
20
-0.519043
30
0.0
11
0.959991
21
0.493774
31
0.0
0
LINE
8
MCD_Layer_0
10
0.767944
20
-0.519043
30
0.0
11
0.992004
21
0.495422
31
0.0
0
LINE
8
MCD_Layer_0
10
-0.544006
20
0.484650
30
0.0
11
0.992004
21
0.495422
31
0.0
0
LINE
8
MCD_Layer_0
10
-0.544006
20
0.484650
30
0.0
11
-0.016022
21
0.494751
31
0.0
0
LINE
8
MCD_Layer_0
10
0.896027
20
0.488525
30
0.0
11
-0.016022
21
0.494751
31
0.0
0
LINE
8
MCD_Layer_0
10
0.896027
20
0.488525
30
0.0
11
-0.496002
21
0.496399
31
0.0
0
LINE
8
MCD_Layer_0
10
0.768005
20
-0.510254
30
0.0
11
-0.496002
21
0.496399
31
0.0
0
LINE
8
MCD_Layer_0
10
0.768005
20
-0.510254
30
0.0
11
0.496033
21
0.495758
31
0.0
0
LINE
8
MCD_Layer_0
10
0.992004
20
-0.511414
30
0.0
11
0.496033
21
0.495758
31
0.0
0
LINE
8
MCD_Layer_0
10
0.992004
20
-0.511414
30
0.0
11
0.048004
21
0.484406
31
0.0
0
LINE
8
MCD_Layer_0
10
-0.351990
20
-0.510345
30
0.0
11
0.048004
21
0.484406
31
0.0
0
LINE
8
MCD_Layer_0
10
0.640015
20
-0.510986
30
0.0
11
0.063995
21
0.477905
31
0.0
0
LINE
8
MCD_Layer_0
10
0.640045
20
0.489014
30
0.0
11
0.063995
21
0.477905
31
0.0
0
LINE
8
MCD_Layer_0
10
0.640045
20
0.489014
30
0.0
11
0.847992
21
0.487518
31
0.0
0
LINE
8
MCD_Layer_0
10
-0.368011
20
0.488342
30
0.0
11
0.847992
21
0.487518
31
0.0
0
LINE
8
MCD_Layer_0
10
-0.368011
20
0.488342
30
0.0
11
0.063995
21
0.485718
31
0.0
0
LINE
8
MCD_Layer_0
10
0.000000
20
-0.368011
30
0.0
11
0.488342
21
0.063995
31
0.0
0
LINE
8
MCD_Layer_0
10
0.485718
20
0.687927
30
0.0
11
0.488068
21
0.671997
31
0.0
0
LINE
8
MCD_Layer_0
10
0.484802
20
-0.752014
30
0.0
11
0.487122
21
0.048004
31
0.0
0
LINE
8
MCD_Layer_0
10
0.484406
20
0.000000
30
0.0
11
0.000000
21
0.000031
31
0.0
0
LINE
8
MCD_Layer_0
10
-0.752014
20
0.487122
30
0.0
11
0.048004
21
0.484406
31
0.0
0
LINE
8
MCD_Layer_0
10
0.320007
20
-0.516724
30
0.0
11
0.048004
21
0.484406
31
0.0
0
LINE
8
MCD_Layer_0
10
0.320007
20
-0.516724
30
0.0
11
-0.992004
21
0.492828
31
0.0
0
LINE
8
MCD_Layer_0
10
0.864014
20
0.481018
30
0.0
11
-0.992004
21
0.492828
31
0.0
0
LINE
8
MCD_Layer_0
10
0.000000
20
0.864014
30
0.0
11
0.481018
21
-0.992004
31
0.0
0
LINE
8
MCD_Layer_0
10
0.492828
20
-0.255981
30
0.0
11
0.482880
21
0.863983
31
0.0
0
LINE
8
MCD_Layer_0
10
0.492737
20
0.896118
30
0.0
11
0.483643
21
-0.496002
31
0.0
0
LINE
8
MCD_Layer_0
10
0.492493
20
0.000000
30
0.0
11
0.000000
21
0.000031
31
0.0
0
LINE
8
MCD_Layer_0
10
0.896118
20
0.483643
30
0.0
11
-0.496002
21
0.492493
31
0.0
0
LINE
8
MCD_Layer_0
10
0.896118
20
0.483643
30
0.0
11
0.191986
21
0.492310
31
0.0
0
LINE
8
MCD_Layer_0
10
0.704041
20
0.485474
30
0.0
11
0.191986
21
0.492310
31
0.0
0
LINE
8
MCD_Layer_0
10
0.704041
20
0.485474
30
0.0
11
0.783966
21
0.493988
31
0.0
0
LINE
8
MCD_Layer_0
10
0.896118
20
0.483643
30
0.0
11
0.783966
21
0.493988
31
0.0
0
LINE
8
MCD_Layer_0
10
0.896118
20
0.483643
30
0.0
11
0.959991
21
0.493774
31
0.0
0
LINE
8
MCD_Layer_0
10
0.000000
20
0.896118
30
0.0
11
0.483643
21
0.959991
31
0.0
0
LINE
8
MCD_Layer_0
10
0.493774
20
-0.255981
30
0.0
11
0.482880
21
-0.399994
31
0.0
0
LINE
8
MCD_Layer_0
10
0.493530
20
0.864014
30
0.0
11
0.481018
21
-0.543976
31
0.0
0
LINE
8
MCD_Layer_0
10
0.493439
20
0.000000
30
0.0
11
0.000000
21
0.000031
31
0.0
0
LINE
8
MCD_Layer_0
10
0.864014
20
0.481018
30
0.0
11
-0.543976
21
0.493439
31
0.0
0
LINE
8
MCD_Layer_0
10
0.799988
20
-0.516418
30
0.0
11
-0.543976
21
0.493439
31
0.0
0
LINE
8
MCD_Layer_0
10
0.799988
20
-0.516418
30
0.0
11
0.496033
21
0.495758
31
0.0
0
LINE
8
MCD_Layer_0
10
-0.544006
20
0.484650
30
0.0
11
0.496033
21
0.495758
31
0.0
0
LINE
8
MCD_Layer_0
10
0.000000
20
-0.544006
30
0.0
11
0.484650
21
0.496033
31
0.0
0
LINE
8
MCD_Layer_0
10
0.495758
20
0.896057
30
0.0
11
0.485596
21
-0.159973
31
0.0
0
LINE
8
MCD_Layer_0
10
0.495636
20
-0.528015
30
0.0
11
0.485962
21
0.992004
31
0.0
0
LINE
8
MCD_Layer_0
10
0.495422
20
0.000000
30
0.0
11
0.000000
21
0.000031
31
0.0
0
LINE
8
MCD_Layer_0
10
-0.528015
20
0.485962
30
0.0
11
0.992004
21
0.495422
31
0.0
0
LINE
8
MCD_Layer_0
10
-0.528015
20
0.485962
30
0.0
11
-0.511993
21
0.495087
31
0.0
0
LINE
8
MCD_Layer_0
10
-0.272034
20
0.487427
30
0.0
11
-0.511993
21
0.495087
31
0.0
0
LINE
8
MCD_Layer_0
10
-0.272034
20
0.487427
30
0.0
11
0.751984
21
0.496246
31
0.0
0
LINE
8
MCD_Layer_0
10
-0.239990
20
-0.510925
30
0.0
11
0.751984
21
0.496246
31
0.0
0
LINE
8
MCD_Layer_0
10
-0.239990
20
-0.510925
30
0.0
11
0.000000
21
0.496094
31
0.0
0
LINE
8
MCD_Layer_0
10
0.992004
20
-0.511414
30
0.0
11
0.000000
21
0.496094
31
0.0
0
LINE
8
MCD_Layer_0
10
0.000000
20
0.992004
30
0.0
11
-0.511414
21
0.000000
31
0.0
0
LINE
8
MCD_Layer_0
10
0.496094
20
0.591980
30
0.0
11
-0.511993
21
-0.143982
31
0.0
0
LINE
8
MCD_Layer_0
10
0.495972
20
-0.031982
30
0.0
11
-0.512421
21
0.496033
31
0.0
0
LINE
8
MCD_Layer_0
10
0.000036
20
0.000003
30
0.0
11
0.000000
21
0.000000
31
0.0
0
LINE
8
MCD_Layer_0
10
0.000003
20
0.000003
30
0.0
11
0.000000
21
0.000000
31
0.0
0
LINE
8
MCD_Layer_0
10
0.000003
20
0.000000
30
0.0
11
0.000000
21
0.000000
31
0.0
0
LINE
8
MCD_Layer_0
10
0.013125
20
0.013125
30
0.0
11
0.000000
21
0.000000
31
0.0
0
LINE
8
MCD_Layer_0
10
0.013125
20
0.000715
30
0.0
11
0.000000
21
0.000000
31
0.0
0
LINE
8
MCD_Layer_0
10
0.000715
20
0.000715
30
0.0
11
0.000000
21
0.000000
31
0.0
0
LINE
8
MCD_Layer_0
10
0.000000
20
0.000003
30
0.0
11
0.000000
21
0.000000
31
0.0
0
LINE
8
MCD_Layer_0
10
0.000003
20
0.000036
30
0.0
11
0.000000
21
0.000000
31
0.0
0
LINE
8
MCD_Layer_0
10
0.000036
20
0.000036
30
0.0
11
0.000000
21
0.000000
31
0.0
0
LINE
8
MCD_Layer_0
10
0.000015
20
0.000006
30
0.0
11
0.000000
21
0.000000
31
0.0
0
LINE
8
MCD_Layer_0
10
0.000006
20
0.000006
30
0.0
11
0.000000
21
0.000000
31
0.0
0
LINE
8
MCD_Layer_0
10
0.000000
20
0.000000
30
0.0
11
0.000000
21
0.000000
31
0.0
0
LINE
8
MCD_Layer_0
10
0.010500
20
0.010500
30
0.0
11
0.000000
21
0.000000
31
0.0
0
LINE
8
MCD_Layer_0
10
0.010500
20
0.001031
30
0.0
11
0.000000
21
0.000000
31
0.0
0
LINE
8
MCD_Layer_0
10
0.001031
20
0.001031
30
0.0
11
0.000000
21
0.000000
31
0.0
0
LINE
8
MCD_Layer_0
10
0.000006
20
0.000015
30
0.0
11
0.000000
21
0.000000
31
0.0
0
LINE
8
MCD_Layer_0
10
0.000015
20
0.000015
30
0.0
11
0.000000
21
-0.000000
31
0.0
0
LINE
8
MCD_Layer_0
10
0.000000
20
0.000004
30
0.0
11
0.000000
21
0.000000
31
0.0
0
LINE
8
MCD_Layer_0
10
0.000004
20
0.000000
30
0.0
11
0.000000
21
0.000000
31
0.0
0
LINE
8
MCD_Layer_0
10
0.000000
20
0.000010
30
0.0
11
0.000000
21
0.000000
31
0.0
0
LINE
8
MCD_Layer_0
10
0.013125
20
0.005188
30
0.0
11
0.000000
21
0.000000
31
0.0
0
LINE
8
MCD_Layer_0
10
0.005188
20
0.005188
30
0.0
11
0.000000
21
0.000000
31
0.0
0
LINE
8
MCD_Layer_0
10
0.005188
20
0.000000
30
0.0
11
0.000000
21
0.000000
31
0.0
0
LINE
8
MCD_Layer_0
10
0.000007
20
0.000000
30
0.0
11
0.000000
21
0.000000
31
0.0
0
LINE
8
MCD_Layer_0
10
0.000000
20
0.000014
30
0.0
11
0.000000
21
0.000000
31
0.0
0
LINE
8
MCD_Layer_0
10
0.010438
20
0.010438
30
0.0
11
0.000000
21
0.000000
31
0.0
0
LINE
8
MCD_Layer_0
10
0.010438
20
0.007813
30
0.0
11
0.000000
21
0.000000
31
0.0
0
LINE
8
MCD_Layer_0
10
0.007813
20
0.007813
30
0.0
11
0.000000
21
0.000000
31
0.0
0
LINE
8
MCD_Layer_0
10
0.000041
20
0.005188
30
0.0
11
0.000000
21
0.000000
31
0.0
0
LINE
8
MCD_Layer_0
10
0.000058
20
0.000058
30
0.0
11
0.000000
21
0.000000
31
0.0
0
LINE
8
MCD_Layer_0
10
0.003234
20
0.003234
30
0.0
11
0.000000
21
0.000000
31
0.0
0
LINE
8
MCD_Layer_0
10
0.003234
20
0.000058
30
0.0
11
0.000000
21
0.000000
31
0.0
0
LINE
8
MCD_Layer_0
10
-0.000000
20
0.003109
30
0.0
11
0.000000
21
0.000000
31
0.0
0
LINE
8
MCD_Layer_0
10
0.005188
20
0.013125
30
0.0
11
0.000000
21
0.000000
31
0.0
0
LINE
8
MCD_Layer_0
10
0.005188
20
0.000004
30
0.0
11
0.000000
21
0.000000
31
0.0
0
LINE
8
MCD_Layer_0
10
0.000004
20
0.005188
30
0.0
11
0.000000
21
0.000000
31
0.0
0
LINE
8
MCD_Layer_0
10
0.003141
20
-0.000000
30
0.0
11
0.000000
21
0.000000
31
0.0
0
LINE
8
MCD_Layer_0
10
0.000000
20
0.003328
30
0.0
11
0.000000
21
0.000000
31
0.0
0
LINE
8
MCD_Layer_0
10
0.007813
20
0.010500
30
0.0
11
0.000000
21
0.000000
31
0.0
0
LINE
8
MCD_Layer_0
10
0.010500
20
0.007813
30
0.0
11
0.000000
21
0.000000
31
0.0
0
LINE
8
MCD_Layer_0
10
0.003859
20
0.000000
30
0.0
11
0.000000
21
0.000000
31
0.0
0
LINE
8
MCD_Layer_0
10
0.000000
20
0.004438
30
0.0
11
0.000000
21
0.000000
31
0.0
0
LINE
8
MCD_Layer_0
10
0.003891
20
0.000000
30
0.0
11
0.000000
21
0.000000
31
0.0
0
LINE
8
MCD_Layer_0
10
0.000000
20
0.000051
30
0.0
11
0.000000
21
0.000000
31
0.0
0
LINE
8
MCD_Layer_0
10
0.000051
20
0.000051
30
0.0
11
0.000000
21
0.000000
31
0.0
0
LINE
8
MCD_Layer_0
10
0.000051
20
0.000018
30
0.0
11
0.000000
21
0.000000
31
0.0
0
LINE
8
MCD_Layer_0
10
0.000018
20
0.000018
30
0.0
11
0.000000
21
0.000000
31
0.0
0
LINE
8
MCD_Layer_0
10
0.000018
20
0.000629
30
0.0
11
0.000000
21
0.000000
31
0.0
0
LINE
8
MCD_Layer_0
10
0.000629
20
0.000629
30
0.0
11
0.000000
21
0.000000
31
0.0
0
LINE
8
MCD_Layer_0
10
0.000629
20
0.000312
30
0.0
11
0.000000
21
0.000000
31
0.0
0
LINE
8
MCD_Layer_0
10
0.000312
20
0.000313
30
0.0
11
0.000000
21
0.000000
31
0.0
0
LINE
8
MCD_Layer_0
10
0.000313
20
0.003234
30
0.0
11
0.000000
21
0.000000
31
0.0
0
LINE
8
MCD_Layer_0
10
0.003234
20
0.001281
30
0.0
11
0.000000
21
0.000000
31
0.0
0
LINE
8
MCD_Layer_0
10
0.001281
20
0.001281
30
0.0
11
0.000000
21
0.000000
31
0.0
0
LINE
8
MCD_Layer_0
10
0.001281
20
0.013063
30
0.0
11
0.000000
21
0.000000
31
0.0
0
LINE
8
MCD_Layer_0
10
0.013063
20
0.013063
30
0.0
11
0.000000
21
0.000000
31
0.0
0
LINE
8
MCD_Layer_0
10
0.013063
20
0.005188
30
0.0
11
0.000000
21
0.000000
31
0.0
0
LINE
8
MCD_Layer_0
10
0.000000
20
0.000082
30
0.0
11
0.000000
21
0.000000
31
0.0
0
LINE
8
MCD_Layer_0
10
0.000082
20
0.000082
30
0.0
11
0.000000
21
0.000000
31
0.0
0
LINE
8
MCD_Layer_0
10
0.000051
20
0.000038
30
0.0
11
0.000000
21
0.000000
31
0.0
0
LINE
8
MCD_Layer_0
10
0.000038
20
0.000038
30
0.0
11
0.000000
21
0.000000
31
0.0
0
LINE
8
MCD_Layer_0
10
0.000038
20
0.000418
30
0.0
11
0.000000
21
0.000000
31
0.0
0
LINE
8
MCD_Layer_0
10
0.000418
20
0.000418
30
0.0
11
0.000000
21
0.000000
31
0.0
0
LINE
8
MCD_Layer_0
10
0.000418
20
0.000312
30
0.0
11
0.000000
21
0.000000
31
0.0
0
LINE
8
MCD_Layer_0
10
0.000196
20
0.000196
30
0.0
11
0.000000
21
0.000000
31
0.0
0
LINE
8
MCD_Layer_0
10
0.000196
20
0.005188
30
0.0
11
0.000000
21
0.000000
31
0.0
0
LINE
8
MCD_Layer_0
10
0.003234
20
0.001938
30
0.0
11
0.000000
21
0.000000
31
0.0
0
LINE
8
MCD_Layer_0
10
0.001938
20
0.001938
30
0.0
11
0.000000
21
0.000000
31
0.0
0
LINE
8
MCD_Layer_0
10
0.001938
20
0.010437
30
0.0
11
0.000000
21
0.000000
31
0.0
0
LINE
8
MCD_Layer_0
10
0.010437
20
0.010438
30
0.0
11
0.000000
21
0.000000
31
0.0
0
LINE
8
MCD_Layer_0
10
0.000030
20
0.000645
30
0.0
11
0.000000
21
0.000000
31
0.0
0
LINE
8
MCD_Layer_0
10
0.001688
20
0.000840
30
0.0
11
0.000000
21
0.000000
31
0.0
0
LINE
8
MCD_Layer_0
10
0.000840
20
0.000840
30
0.0
11
0.000000
21
0.000000
31
0.0
0
LINE
8
MCD_Layer_0
10
0.000840
20
0.013750
30
0.0
11
0.000000
21
0.000000
31
0.0
0
LINE
8
MCD_Layer_0
10
0.013750
20
0.013750
30
0.0
11
0.000000
21
0.000000
31
0.0
0
LINE
8
MCD_Layer_0
10
0.000104
20
0.000001
30
0.0
11
0.000000
21
0.000000
31
0.0
0
LINE
8
MCD_Layer_0
10
0.000001
20
0.000002
30
0.0
11
0.000000
21
0.000000
31
0.0
0
LINE
8
MCD_Layer_0
10
0.000002
20
0.000002
30
0.0
11
0.000000
21
0.000000
31
0.0
0
LINE
8
MCD_Layer_0
10
0.000002
20
0.000000
30
0.0
11
0.000000
21
0.000000
31
0.0
0
LINE
8
MCD_Layer_0
10
0.000017
20
0.000371
30
0.0
11
0.000000
21
0.000000
31
0.0
0
LINE
8
MCD_Layer_0
10
0.001859
20
0.001359
30
0.0
11
0.000000
21
0.000000
31
0.0
0
LINE
8
MCD_Layer_0
10
0.001359
20
0.001359
30
0.0
11
0.000000
21
0.000000
31
0.0
0
LINE
8
MCD_Layer_0
10
0.001359
20
0.010437
30
0.0
11
0.000000
21
0.000000
31
0.0
0
LINE
8
MCD_Layer_0
10
0.010437
20
0.011125
30
0.0
11
0.000000
21
0.000000
31
0.0
0
LINE
8
MCD_Layer_0
10
0.011125
20
0.011125
30
0.0
11
0.000000
21
0.000000
31
0.0
0
LINE
8
MCD_Layer_0
10
0.000167
20
0.000002
30
0.0
11
0.000000
21
0.000000
31
0.0
0
LINE
8
MCD_Layer_0
10
0.000000
20
0.000001
30
0.0
11
0.000000
21
0.000000
31
0.0
0
LINE
8
MCD_Layer_0
10
0.000001
20
0.000001
30
0.0
11
0.000000
21
0.000000
31
0.0
0
LINE
8
MCD_Layer_1
10
0.000000
20
0.000024
30
0.0
11
0.000000
21
0.000000
31
0.0
0
LINE
8
MCD_Layer_0
10
1.104501
20
0.228500
30
0.0
11
1.104502
21
0.228501
31
0.0
0
LINE
8
MCD_Layer_0
10
0.921001
20
-0.175499
30
0.0
11
0.921001
21
-0.175500
31
0.0
0
LINE
8
MCD_Layer_0
10
0.397502
20
-0.306500
30
0.0
11
0.397501
21
-0.306499
31
0.0
0
LINE
8
MCD_Layer_0
10
0.643001
20
-0.307499
30
0.0
11
0.643000
21
-0.307499
31
0.0
0
LINE
8
MCD_Layer_0
10
0.192500
20
0.925000
30
0.0
11
0.192500
21
0.925001
31
0.0
0
LINE
8
MCD_Layer_0
10
1.643500
20
0.716000
30
0.0
11
1.643500
21
0.716001
31
0.0
0
LINE
8
MCD_Layer_0
10
21.198298
20
0.916000
30
0.0
11
21.198297
21
0.916001
31
0.0
0
LINE
8
MCD_Layer_0
10
0.840801
20
-0.118500
30
0.0
11
0.840801
21
-0.118499
31
0.0
0
LINE
8
MCD_Layer_0
10
0.653801
20
-0.118500
30
0.0
11
0.653801
21
-0.118499
31
0.0
0
LINE
8
MCD_Layer_0
10
2.702551
20
0.269800
30
0.0
11
2.702551
21
0.269801
31
0.0
0
LINE
8
MCD_Layer_0
10
2.962251
20
0.269800
30
0.0
11
2.962251
21
0.269801
31
0.0
0
LINE
8
MCD_Layer_0
10
0.244500
20
0.983001
30
0.0
11
0.244500
21
0.983000
31
0.0
0
LINE
8
MCD_Layer_0
10
0.000420
20
0.000001
30
0.0
11
0.001112
21
0.000000
31
0.0
0
LINE
8
MCD_Layer_0
10
0.000421
20
0.000000
30
0.0
11
0.001112
21
0.000001
31
0.0
0
LINE
8
MCD_Layer_0
10
0.000421
20
0.000000
30
0.0
11
0.001281
21
0.000001
31
0.0
0
LINE
8
MCD_Layer_0
10
0.000000
20
0.000001
30
0.0
11
0.001281
21
0.000001
31
0.0
0
LINE
8
MCD_Layer_0
10
0.001065
20
0.000000
30
0.0
11
0.000235
21
0.000001
31
0.0
0
LINE
8
MCD_Layer_0
10
0.000099
20
0.000001
30
0.0
11
0.000235
21
0.000001
31
0.0
0
LINE
8
MCD_Layer_0
10
-0.074860
20
0.799001
30
0.0
11
-0.074861
21
0.799001
31
0.0
0
LINE
8
MCD_Layer_0
10
0.000013
20
0.000000
30
0.0
11
0.000010
21
-0.000000
31
0.0
0
LINE
8
MCD_Layer_0
10
0.000013
20
0.000000
30
0.0
11
0.000003
21
0.000001
31
0.0
0
LINE
8
MCD_Layer_0
10
0.000000
20
0.000001
30
0.0
11
0.000003
21
0.000001
31
0.0
0
LINE
8
MCD_Layer_0
10
0.000013
20
0.000001
30
0.0
11
0.000015
21
0.000001
31
0.0
0
LINE
8
MCD_Layer_0
10
0.000013
20
0.000001
30
0.0
11
0.000005
21
0.000001
31
0.0
0
LINE
8
MCD_Layer_0
10
0.000013
20
0.000001
30
0.0
11
0.000017
21
0.000001
31
0.0
0
LINE
8
MCD_Layer_0
10
0.000013
20
0.000001
30
0.0
11
0.000005
21
0.000001
31
0.0
0
LINE
8
MCD_Layer_0
10
0.000017
20
0.000001
30
0.0
11
0.000010
21
0.000001
31
0.0
0
LINE
8
MCD_Layer_0
10
0.000026
20
0.000000
30
0.0
11
0.000001
21
0.000001
31
0.0
0
LINE
8
MCD_Layer_0
10
0.748000
20
-0.110861
30
0.0
11
0.748001
21
-0.110861
31
0.0
0
LINE
8
MCD_Layer_0
10
0.659139
20
-0.110861
30
0.0
11
0.659141
21
-0.110861
31
0.0
0
LINE
8
MCD_Layer_0
10
0.751001
20
-0.174862
30
0.0
11
0.751000
21
-0.174861
31
0.0
0
LINE
8
MCD_Layer_0
10
61.128346
20
57.566595
30
0.0
11
21.286297
21
63.176995
31
0.0
0
LINE
8
MCD_Layer_0
10
61.128346
20
35.110066
30
0.0
11
103.273533
21
63.176995
31
0.0
0
LINE
8
MCD_Layer_0
10
61.128346
20
62.822379
30
0.0
11
61.128346
21
63.300177
31
0.0
0
LINE
8
MCD_Layer_0
10
61.128346
20
69.989356
30
0.0
11
61.367245
21
62.822379
31
0.0
0
LINE
8
MCD_Layer_0
10
62.561741
20
62.822379
30
0.0
11
33.416033
21
104.967566
31
0.0
0
LINE
8
MCD_Layer_0
10
61.482962
20
62.822379
30
0.0
11
4.270324
21
93.959537
31
0.0
0
LINE
8
MCD_Layer_0
10
120.252178
20
86.208376
30
0.0
11
60.762531
21
78.546802
31
0.0
0
LINE
8
MCD_Layer_0
10
112.129603
20
59.494587
30
0.0
11
61.238463
21
62.822379
31
0.0
0
LINE
8
MCD_Layer_0
10
61.606144
20
62.822379
30
0.0
11
68.295323
21
63.061278
31
0.0
0
LINE
8
MCD_Layer_0
10
61.128346
20
64.255774
30
0.0
11
61.128346
21
62.344580
31
0.0
0
LINE
8
MCD_Layer_0
10
76.852769
20
113.823636
30
0.0
11
57.800554
21
76.310854
31
0.0
0
LINE
8
MCD_Layer_0
10
20.952211
20
30.684830
30
0.0
11
9.264812
21
55.528486
31
0.0
0
LINE
8
MCD_Layer_0
10
36.547853
20
95.661694
30
0.0
11
53.886712
21
63.173262
31
0.0
0
LINE
8
MCD_Layer_0
10
61.128346
20
63.300177
30
0.0
11
61.128346
21
69.989356
31
0.0
0
LINE
8
MCD_Layer_0
10
61.367245
20
62.822379
30
0.0
11
62.561741
21
62.822379
31
0.0
0
LINE
8
MCD_Layer_0
10
53.483570
20
38.241885
30
0.0
11
93.967661
21
55.580745
31
0.0
0
LINE
8
MCD_Layer_0
10
50.012065
20
67.154294
30
0.0
11
99.945741
21
76.814782
31
0.0
0
LINE
8
MCD_Layer_0
10
3.185945
20
114.760569
30
0.0
11
77.967010
21
122.414677
31
0.0
0
LINE
8
MCD_Layer_0
10
61.242196
20
62.822379
30
0.0
11
61.606144
21
62.822379
31
0.0
0
LINE
8
MCD_Layer_0
10
68.295323
20
63.061278
30
0.0
11
61.128346
21
64.255774
31
0.0
0
LINE
8
MCD_Layer_0
10
61.128346
20
56.610998
30
0.0
11
113.163589
21
44.781752
31
0.0
0
LINE
8
MCD_Layer_0
10
121.110722
20
88.737348
30
0.0
11
4.020226
21
91.128207
31
0.0
0
LINE
8
MCD_Layer_0
10
37.447458
20
123.138840
30
0.0
11
18.917834
21
23.758618
31
0.0
0
LINE
8
MCD_Layer_0
10
107.607315
20
62.938096
30
0.0
11
61.128346
21
63.300177
31
0.0
0
LINE
8
MCD_Layer_0
10
62.561741
20
62.822379
30
0.0
11
121.330957
21
20.611867
31
0.0
0
LINE
8
MCD_Layer_0
10
22.064585
20
109.301348
30
0.0
11
8.686227
21
22.911273
31
0.0
0
LINE
8
MCD_Layer_0
10
92.300965
20
18.151952
30
0.0
11
22.064585
21
122.784224
31
0.0
0
LINE
8
MCD_Layer_0
10
75.578018
20
66.956456
30
0.0
11
61.245929
21
62.822379
31
0.0
0
LINE
8
MCD_Layer_0
10
61.606144
20
62.822379
30
0.0
11
62.561741
21
63.061278
31
0.0
0
LINE
8
MCD_Layer_0
10
61.128346
20
63.777976
30
0.0
11
61.128346
21
23.642902
31
0.0
0
LINE
8
MCD_Layer_0
10
121.090191
20
77.272051
30
0.0
11
65.262423
21
21.849291
31
0.0
0
LINE
8
MCD_Layer_0
10
69.191196
20
48.839307
30
0.0
11
95.901252
21
62.939962
31
0.0
0
LINE
8
MCD_Layer_0
10
20.037675
20
70.885228
30
0.0
11
47.145274
21
97.595284
31
0.0
0
LINE
8
MCD_Layer_0
10
104.247794
20
45.179296
30
0.0
11
13.221580
21
100.042135
31
0.0
0
LINE
8
MCD_Layer_0
10
116.670555
20
83.160544
30
0.0
11
64.347886
21
102.991048
31
0.0
0
LINE
8
MCD_Layer_0
10
61.245929
20
62.822379
30
0.0
11
61.606144
21
62.822379
31
0.0
0
LINE
8
MCD_Layer_0
10
61.128346
20
118.247005
30
0.0
11
81.466511
21
66.041919
31
0.0
0
LINE
8
MCD_Layer_0
10
101.297015
20
35.705447
30
0.0
11
97.513822
21
40.718599
31
0.0
0
LINE
8
MCD_Layer_0
10
104.671467
20
53.861790
30
0.0
11
98.687787
21
30.207032
31
0.0
0
LINE
8
MCD_Layer_0
10
107.961931
20
62.939962
30
0.0
11
61.128346
21
63.300177
31
0.0
0
LINE
8
MCD_Layer_0
10
62.561741
20
62.822379
30
0.0
11
52.050174
21
100.381820
31
0.0
0
LINE
8
MCD_Layer_0
10
28.512999
20
109.655964
30
0.0
11
46.911974
21
83.942566
31
0.0
0
LINE
8
MCD_Layer_0
10
21.346021
20
112.836310
30
0.0
11
97.558615
21
23.260289
31
0.0
0
LINE
8
MCD_Layer_0
10
15.610573
20
115.906539
30
0.0
11
61.245929
21
62.822379
31
0.0
0
LINE
8
MCD_Layer_0
10
61.128346
20
64.255774
30
0.0
11
61.128346
21
99.135065
31
0.0
0
LINE
8
MCD_Layer_0
10
21.566257
20
17.304606
30
0.0
11
114.212506
21
70.584738
31
0.0
0
LINE
8
MCD_Layer_0
10
86.311686
20
111.667943
30
0.0
11
115.644035
21
7.993134
31
0.0
0
LINE
8
MCD_Layer_0
10
37.671426
20
116.447795
30
0.0
11
116.108769
21
62.939962
31
0.0
0
LINE
8
MCD_Layer_0
10
6.181518
20
39.365458
30
0.0
11
114.753762
21
117.802802
31
0.0
0
LINE
8
MCD_Layer_0
10
58.856937
20
107.847422
30
0.0
11
48.341637
21
116.994650
31
0.0
0
LINE
8
MCD_Layer_0
10
59.334735
20
23.148305
30
0.0
11
78.442942
21
114.084932
31
0.0
0
LINE
8
MCD_Layer_0
10
61.128346
20
60.911185
30
0.0
11
21.454273
21
80.136975
31
0.0
0
LINE
8
MCD_Layer_0
10
112.390899
20
63.895559
30
0.0
11
31.045704
21
50.991267
31
0.0
0
LINE
8
MCD_Layer_0
10
110.395717
20
65.806753
30
0.0
11
36.525456
21
111.193878
31
0.0
0
LINE
8
MCD_Layer_0
10
107.314290
20
62.939962
30
0.0
11
61.128346
21
63.300177
31
0.0
0
LINE
8
MCD_Layer_0
10
61.128346
20
64.255774
30
0.0
11
61.367245
21
62.822379
31
0.0
0
LINE
8
MCD_Layer_0
10
62.083943
20
62.822379
30
0.0
11
63.995137
21
38.219489
31
0.0
0
LINE
8
MCD_Layer_0
10
109.499845
20
109.008323
30
0.0
11
64.112720
21
38.219489
31
0.0
0
LINE
8
MCD_Layer_0
10
108.066449
20
97.253733
30
0.0
11
61.245929
21
62.822379
31
0.0
0
LINE
8
MCD_Layer_0
10
61.128346
20
63.777976
30
0.0
11
61.128346
21
65.689170
31
0.0
0
LINE
8
MCD_Layer_0
10
36.525456
20
109.760482
30
0.0
11
95.559700
21
120.753581
31
0.0
0
LINE
8
MCD_Layer_0
10
10.698207
20
109.762349
30
0.0
11
95.559700
21
62.939962
31
0.0
0
LINE
8
MCD_Layer_0
10
61.128346
20
63.300177
30
0.0
11
61.128346
21
64.255774
31
0.0
0
LINE
8
MCD_Layer_0
10
61.367245
20
62.822379
30
0.0
11
62.083943
21
62.822379
31
0.0
0
LINE
8
MCD_Layer_0
10
118.941965
20
12.392240
30
0.0
11
108.068316
21
97.253733
31
0.0
0
LINE
8
MCD_Layer_0
10
119.059548
20
12.392240
30
0.0
11
97.078950
21
9.889397
31
0.0
0
LINE
8
MCD_Layer_0
10
62.561741
20
63.061278
30
0.0
11
61.128346
21
63.777976
31
0.0
0
LINE
8
MCD_Layer_0
10
61.128346
20
120.635997
30
0.0
11
10.698207
21
98.772983
31
0.0
0
LINE
8
MCD_Layer_0
10
8.195364
20
39.050037
30
0.0
11
82.095488
21
98.772983
31
0.0
0
LINE
8
MCD_Layer_0
10
8.195364
20
62.939962
30
0.0
11
61.128346
21
63.300177
31
0.0
0
LINE
8
MCD_Layer_0
10
62.083943
20
62.822379
30
0.0
11
37.238421
21
83.789521
31
0.0
0
LINE
8
MCD_Layer_0
10
97.078950
20
9.889397
30
0.0
11
37.356004
21
83.789521
31
0.0
0
LINE
8
MCD_Layer_0
10
68.888839
20
9.266019
30
0.0
11
61.245929
21
62.822379
31
0.0
0
LINE
8
MCD_Layer_0
10
61.128346
20
64.255774
30
0.0
11
61.128346
21
38.932454
31
0.0
0
LINE
8
MCD_Layer_0
10
82.095488
20
70.582872
30
0.0
11
7.571986
21
12.293321
31
0.0
0
LINE
8
MCD_Layer_0
10
79.992055
20
73.927461
30
0.0
11
7.064326
21
10.382127
31
0.0
0
LINE
8
MCD_Layer_0
10
74.512303
20
40.003767
30
0.0
11
7.056860
21
62.939962
31
0.0
0
LINE
8
MCD_Layer_0
10
8.570511
20
76.206336
30
0.0
11
38.309735
21
8.750893
31
0.0
0
LINE
8
MCD_Layer_0
10
17.288467
20
57.984669
30
0.0
11
105.199658
21
9.846470
31
0.0
0
LINE
8
MCD_Layer_0
10
19.199661
20
3.676150
30
0.0
11
104.244061
21
10.928982
31
0.0
0
LINE
8
MCD_Layer_0
10
61.128346
20
20.776111
30
0.0
11
1.982117
21
105.938094
31
0.0
0
LINE
8
MCD_Layer_0
10
9.234949
20
66.762350
30
0.0
11
60.374320
21
80.612907
31
0.0
0
LINE
8
MCD_Layer_0
10
9.473848
20
43.828022
30
0.0
11
28.876947
21
85.153859
31
0.0
0
LINE
8
MCD_Layer_0
10
8.568644
20
62.939962
30
0.0
11
61.128346
21
63.300177
31
0.0
0
LINE
8
MCD_Layer_0
10
62.561741
20
62.822379
30
0.0
11
42.016406
21
30.570980
31
0.0
0
LINE
8
MCD_Layer_0
10
83.459827
20
10.262677
30
0.0
11
91.825033
21
95.036450
31
0.0
0
LINE
8
MCD_Layer_0
10
22.781283
20
6.781840
30
0.0
11
72.713093
21
121.016743
31
0.0
0
LINE
8
MCD_Layer_0
10
9.402925
20
2.935189
30
0.0
11
61.245929
21
62.822379
31
0.0
0
LINE
8
MCD_Layer_0
10
61.128346
20
64.255774
30
0.0
11
61.128346
21
74.289543
31
0.0
0
LINE
8
MCD_Layer_0
10
119.322710
20
11.096958
30
0.0
11
1.241156
21
32.360858
31
0.0
0
LINE
8
MCD_Layer_0
10
8.003125
20
98.056285
30
0.0
11
114.249834
21
33.316455
31
0.0
0
LINE
8
MCD_Layer_0
10
10.743001
20
66.999383
30
0.0
11
104.721860
21
62.939962
31
0.0
0
LINE
8
MCD_Layer_0
10
31.504839
20
12.437034
30
0.0
11
65.305350
21
106.415893
31
0.0
0
LINE
8
MCD_Layer_0
10
117.626152
20
9.404133
30
0.0
11
2.235948
21
93.632916
31
0.0
0
LINE
8
MCD_Layer_0
10
59.334735
20
103.646155
30
0.0
11
93.973260
21
77.830104
31
0.0
0
LINE
8
MCD_Layer_0
10
61.128346
20
60.911185
30
0.0
11
101.952122
21
95.667293
31
0.0
0
LINE
8
MCD_Layer_0
10
76.136071
20
91.130074
30
0.0
11
3.255002
21
26.623543
31
0.0
0
LINE
8
MCD_Layer_0
10
24.774599
20
62.938096
30
0.0
11
61.128346
21
63.300177
31
0.0
0
LINE
8
MCD_Layer_0
10
62.561741
20
62.822379
30
0.0
11
89.318457
21
4.949035
31
0.0
0
LINE
8
MCD_Layer_0
10
24.929510
20
26.468632
30
0.0
11
79.878204
21
31.858796
31
0.0
0
LINE
8
MCD_Layer_0
10
103.288464
20
12.011494
30
0.0
11
113.801898
21
28.726976
31
0.0
0
LINE
8
MCD_Layer_0
10
9.162160
20
2.250220
30
0.0
11
61.244063
21
62.822379
31
0.0
0
LINE
8
MCD_Layer_0
10
61.128346
20
64.255774
30
0.0
11
61.128346
21
115.380214
31
0.0
0
LINE
8
MCD_Layer_0
10
27.032943
20
10.856192
30
0.0
11
0.556187
21
91.606006
31
0.0
0
LINE
8
MCD_Layer_0
10
6.679847
20
101.637908
30
0.0
11
103.644947
21
120.273916
31
0.0
0
LINE
8
MCD_Layer_0
10
109.231083
20
88.257683
30
0.0
11
88.331132
21
62.938096
31
0.0
0
LINE
8
MCD_Layer_0
10
118.464166
20
110.925116
30
0.0
11
86.563650
21
90.025164
31
0.0
0
LINE
8
MCD_Layer_0
10
120.491077
20
40.873510
30
0.0
11
104.481094
21
90.514161
31
0.0
0
LINE
8
MCD_Layer_0
10
92.300965
20
23.820210
30
0.0
11
28.990797
21
102.696157
31
0.0
0
LINE
8
MCD_Layer_0
10
61.244063
20
62.822379
30
0.0
11
61.606144
21
62.822379
31
0.0
0
LINE
8
MCD_Layer_0
10
61.128346
20
93.879281
30
0.0
11
22.126177
21
30.684830
31
0.0
0
LINE
8
MCD_Layer_0
10
101.002124
20
104.028767
30
0.0
11
59.114500
21
27.818039
31
0.0
0
LINE
8
MCD_Layer_0
10
119.936756
20
60.549103
30
0.0
11
70.003080
21
98.056285
31
0.0
0
LINE
8
MCD_Layer_0
10
14.867746
20
62.938096
30
0.0
11
61.128346
21
63.300177
31
0.0
0
LINE
8
MCD_Layer_0
10
62.083943
20
62.822379
30
0.0
11
58.739353
21
71.697113
31
0.0
0
LINE
8
MCD_Layer_0
10
96.362253
20
16.561778
30
0.0
11
58.855070
21
71.697113
31
0.0
0
LINE
8
MCD_Layer_0
10
120.252178
20
38.969782
30
0.0
11
61.244063
21
62.822379
31
0.0
0
LINE
8
MCD_Layer_0
10
61.128346
20
63.777976
30
0.0
11
61.128346
21
60.433386
31
0.0
0
LINE
8
MCD_Layer_0
10
70.003080
20
121.946210
30
0.0
11
37.275749
21
57.682312
31
0.0
0
LINE
8
MCD_Layer_0
10
21.286297
20
121.946210
30
0.0
11
37.275749
21
62.938096
31
0.0
0
LINE
8
MCD_Layer_0
10
55.872562
20
22.980329
30
0.0
11
120.252178
21
38.969782
31
0.0
0
LINE
8
MCD_Layer_0
10
55.988279
20
22.980329
30
0.0
11
61.482962
21
62.822379
31
0.0
0
LINE
8
MCD_Layer_0
10
61.128346
20
62.822379
30
0.0
11
61.606144
21
62.822379
31
0.0
0
LINE
8
MCD_Layer_0
10
61.128346
20
114.424617
30
0.0
11
5.875428
21
80.855539
31
0.0
0
LINE
8
MCD_Layer_0
10
0.459134
20
114.538467
30
0.0
11
5.875428
21
56.487816
31
0.0
0
LINE
8
MCD_Layer_0
10
21.863014
20
62.938096
30
0.0
11
61.128346
21
63.300177
31
0.0
0
LINE
8
MCD_Layer_0
10
62.083943
20
62.822379
30
0.0
11
112.730584
21
7.569461
31
0.0
0
LINE
8
MCD_Layer_0
10
54.793783
20
23.557047
30
0.0
11
67.933242
21
102.522582
31
0.0
0
LINE
8
MCD_Layer_0
10
54.793783
20
23.557047
30
0.0
11
61.244063
21
62.822379
31
0.0
0
LINE
8
MCD_Layer_0
10
61.128346
20
63.777976
30
0.0
11
61.128346
21
69.511558
31
0.0
0
LINE
8
MCD_Layer_0
10
100.828549
20
56.487816
30
0.0
11
21.863014
21
69.627275
31
0.0
0
LINE
8
MCD_Layer_0
10
100.828549
20
27.819906
30
0.0
11
14.279829
21
62.938096
31
0.0
0
LINE
8
MCD_Layer_0
10
67.817525
20
102.522582
30
0.0
11
26.125873
21
15.973862
31
0.0
0
LINE
8
MCD_Layer_0
10
28.753765
20
87.843342
30
0.0
11
117.385387
21
105.143008
31
0.0
0
LINE
8
MCD_Layer_0
10
50.732496
20
60.024644
30
0.0
11
109.260946
21
77.744250
31
0.0
0
LINE
8
MCD_Layer_0
10
61.128346
20
52.310812
30
0.0
11
58.330612
21
110.954979
31
0.0
0
LINE
8
MCD_Layer_0
10
76.050217
20
98.295185
30
0.0
11
70.702980
21
113.821770
31
0.0
0
LINE
8
MCD_Layer_0
10
55.745647
20
24.712349
30
0.0
11
36.105516
21
78.701713
31
0.0
0
LINE
8
MCD_Layer_0
10
54.767653
20
62.936229
30
0.0
11
61.128346
21
63.300177
31
0.0
0
LINE
8
MCD_Layer_0
10
62.561741
20
62.822379
30
0.0
11
22.904466
21
37.799549
31
0.0
0
LINE
8
MCD_Layer_0
10
77.007680
20
56.461686
30
0.0
11
51.686226
21
54.852849
31
0.0
0
LINE
8
MCD_Layer_0
10
6.295369
20
85.082936
30
0.0
11
104.723726
21
75.472841
31
0.0
0
LINE
8
MCD_Layer_0
10
50.254697
20
116.884533
30
0.0
11
61.244063
21
62.822379
31
0.0
0
LINE
8
MCD_Layer_0
10
61.128346
20
64.255774
30
0.0
11
61.128346
21
106.302042
31
0.0
0
LINE
8
MCD_Layer_0
10
73.778808
20
51.948730
30
0.0
11
115.190500
21
72.016267
31
0.0
0
LINE
8
MCD_Layer_0
10
76.225659
20
70.582872
30
0.0
11
12.079343
21
85.872424
31
0.0
0
LINE
8
MCD_Layer_0
10
47.288987
20
60.069438
30
0.0
11
35.562393
21
62.938096
31
0.0
0
LINE
8
MCD_Layer_0
10
84.062674
20
48.983020
30
0.0
11
58.375405
21
37.256426
31
0.0
0
LINE
8
MCD_Layer_0
10
44.043317
20
81.482650
30
0.0
11
30.426059
21
83.186673
31
0.0
0
LINE
8
MCD_Layer_0
10
61.128346
20
45.621633
30
0.0
11
79.788617
21
32.120092
31
0.0
0
LINE
8
MCD_Layer_0
10
81.492641
20
89.218880
30
0.0
11
108.167235
21
57.443413
31
0.0
0
LINE
8
MCD_Layer_0
10
94.090843
20
20.893694
30
0.0
11
113.059070
21
60.788002
31
0.0
0
LINE
8
MCD_Layer_0
10
104.365377
20
62.939962
30
0.0
11
61.128346
21
63.300177
31
0.0
0
LINE
8
MCD_Layer_0
10
62.561741
20
62.822379
30
0.0
11
19.082078
21
114.753103
31
0.0
0
LINE
8
MCD_Layer_0
10
59.093969
20
106.059410
30
0.0
11
105.203391
21
110.350265
31
0.0
0
LINE
8
MCD_Layer_0
10
96.362253
20
113.888960
30
0.0
11
48.345369
21
95.182029
31
0.0
0
LINE
8
MCD_Layer_0
10
93.973260
20
122.328823
30
0.0
11
61.245929
21
62.822379
31
0.0
0
LINE
8
MCD_Layer_0
10
61.128346
20
64.255774
30
0.0
11
61.128346
21
49.921819
31
0.0
0
LINE
8
MCD_Layer_0
10
93.487996
20
95.667293
30
0.0
11
120.634790
21
43.828022
31
0.0
0
LINE
8
MCD_Layer_0
10
72.938928
20
66.999383
30
0.0
11
2.202352
21
38.572238
31
0.0
0
LINE
8
MCD_Layer_0
10
10.382785
20
41.674196
30
0.0
11
4.891835
21
62.939962
31
0.0
0
LINE
8
MCD_Layer_0
10
36.760622
20
12.076818
30
0.0
11
39.980163
21
6.585868
31
0.0
0
LINE
8
MCD_Layer_0
10
60.290332
20
45.627232
30
0.0
11
66.018315
21
7.321230
31
0.0
0
LINE
8
MCD_Layer_0
10
57.901340
20
105.107546
30
0.0
11
28.751898
21
7.136456
31
0.0
0
LINE
8
MCD_Layer_0
10
61.128346
20
59.477789
30
0.0
11
103.413513
21
30.445931
31
0.0
0
LINE
8
MCD_Layer_0
10
5.442424
20
98.774850
30
0.0
11
30.653760
21
32.834924
31
0.0
0
LINE
8
MCD_Layer_0
10
4.647337
20
103.552835
30
0.0
11
63.504274
21
44.781752
31
0.0
0
LINE
8
MCD_Layer_0
10
3.301662
20
62.939962
30
0.0
11
61.128346
21
63.300177
31
0.0
0
LINE
8
MCD_Layer_0
10
62.561741
20
62.822379
30
0.0
11
101.741218
21
65.198306
31
0.0
0
LINE
8
MCD_Layer_0
10
43.087720
20
4.995695
30
0.0
11
88.002645
21
78.408688
31
0.0
0
LINE
8
MCD_Layer_0
10
99.945741
20
4.874379
30
0.0
11
37.356004
21
83.789521
31
0.0
0
LINE
8
MCD_Layer_0
10
50.732496
20
6.035280
30
0.0
11
61.245929
21
62.822379
31
0.0
0
LINE
8
MCD_Layer_0
10
61.128346
20
63.777976
30
0.0
11
61.128346
21
38.932454
31
0.0
0
LINE
8
MCD_Layer_0
10
82.095488
20
52.426528
30
0.0
11
4.341247
21
44.783619
31
0.0
0
LINE
8
MCD_Layer_0
10
102.644556
20
52.426528
30
0.0
11
4.341247
21
62.939962
31
0.0
0
LINE
8
MCD_Layer_0
10
46.316592
20
114.613123
30
0.0
11
50.732496
21
6.035280
31
0.0
0
LINE
8
MCD_Layer_0
10
37.356004
20
83.789521
30
0.0
11
50.732496
21
6.035280
31
0.0
0
LINE
8
MCD_Layer_0
10
61.128346
20
48.010625
30
0.0
11
112.919090
21
52.426528
31
0.0
0
LINE
8
MCD_Layer_0
10
4.341247
20
48.128208
30
0.0
11
112.919090
21
69.149476
31
0.0
0
LINE
8
MCD_Layer_0
10
104.611742
20
62.939962
30
0.0
11
61.128346
21
63.300177
31
0.0
0
LINE
8
MCD_Layer_0
10
62.083943
20
62.822379
30
0.0
11
46.316592
21
114.613123
31
0.0
0
LINE
8
MCD_Layer_0
10
67.455443
20
106.305775
30
0.0
11
71.757496
21
81.344536
31
0.0
0
LINE
8
MCD_Layer_0
10
67.455443
20
106.305775
30
0.0
11
61.245929
21
62.822379
31
0.0
0
LINE
8
MCD_Layer_0
10
61.128346
20
63.777976
30
0.0
11
61.128346
21
73.333946
31
0.0
0
LINE
8
MCD_Layer_0
10
79.650503
20
69.149476
30
0.0
11
104.611742
21
73.451529
31
0.0
0
LINE
8
MCD_Layer_0
10
79.650503
20
87.783618
30
0.0
11
108.525584
21
62.939962
31
0.0
0
LINE
8
MCD_Layer_0
10
71.639913
20
81.344536
30
0.0
11
86.089585
21
110.219617
31
0.0
0
LINE
8
MCD_Layer_0
10
51.689959
20
74.003983
30
0.0
11
61.721861
21
116.335811
31
0.0
0
LINE
8
MCD_Layer_0
10
14.899474
20
66.176300
30
0.0
11
101.856935
21
119.148476
31
0.0
0
LINE
8
MCD_Layer_0
10
61.128346
20
16.475924
30
0.0
11
64.482267
21
103.550968
31
0.0
0
LINE
8
MCD_Layer_0
10
117.454443
20
94.952462
30
0.0
11
16.954381
21
109.760482
31
0.0
0
LINE
8
MCD_Layer_0
10
0.000000
20
61.984365
30
0.0
11
43.933199
21
13.721117
31
0.0
0
LINE
8
MCD_Layer_0
10
0.733495
20
62.939962
30
0.0
11
61.128346
21
63.300177
31
0.0
0
LINE
8
MCD_Layer_0
10
62.561741
20
62.822379
30
0.0
11
60.172749
21
45.627232
31
0.0
0
LINE
8
MCD_Layer_0
10
12.027084
20
2.427528
30
0.0
11
23.499847
21
7.603057
31
0.0
0
LINE
8
MCD_Layer_0
10
88.713744
20
2.000123
30
0.0
11
51.689959
21
2.291281
31
0.0
0
LINE
8
MCD_Layer_0
10
2.234081
20
121.472145
30
0.0
11
61.245929
21
62.822379
31
0.0
0
LINE
8
MCD_Layer_0
10
61.128346
20
64.255774
30
0.0
11
61.128346
21
53.266409
31
0.0
0
LINE
8
MCD_Layer_0
10
0.597248
20
3.928114
30
0.0
11
119.778112
21
28.060671
31
0.0
0
LINE
8
MCD_Layer_0
10
33.867702
20
72.253300
30
0.0
11
114.886276
21
102.597238
31
0.0
0
LINE
8
MCD_Layer_0
10
49.524935
20
96.621023
30
0.0
11
108.770082
21
62.939962
31
0.0
0
LINE
8
MCD_Layer_0
10
100.785621
20
51.218967
30
0.0
11
94.926991
21
110.464115
31
0.0
0
LINE
8
MCD_Layer_0
10
65.546116
20
50.240974
30
0.0
11
89.193409
21
105.204599
31
0.0
0
LINE
8
MCD_Layer_0
10
96.603018
20
37.519589
30
0.0
11
17.523633
21
99.821900
31
0.0
0
LINE
8
MCD_Layer_0
10
61.128346
20
98.179468
30
0.0
11
35.825556
21
19.217666
31
0.0
0
LINE
8
MCD_Layer_0
10
98.127867
20
57.206380
30
0.0
11
14.296627
21
105.221397
31
0.0
0
LINE
8
MCD_Layer_0
10
93.725029
20
2.737351
30
0.0
11
102.015579
21
104.265800
31
0.0
0
LINE
8
MCD_Layer_0
10
90.300184
20
62.939962
30
0.0
11
61.128346
21
63.300177
31
0.0
0
LINE
8
MCD_Layer_0
10
62.083943
20
62.822379
30
0.0
11
0.925735
21
103.709612
31
0.0
0
LINE
8
MCD_Layer_0
10
102.571767
20
91.994217
30
0.0
11
7.254698
21
99.935751
31
0.0
0
LINE
8
MCD_Layer_0
10
47.387906
20
60.741342
30
0.0
11
61.244063
21
62.822379
31
0.0
0
LINE
8
MCD_Layer_0
10
61.128346
20
64.255774
30
0.0
11
61.128346
21
8.831148
31
0.0
0
LINE
8
MCD_Layer_0
10
98.241718
20
49.081939
30
0.0
11
59.047309
21
66.760484
31
0.0
0
LINE
8
MCD_Layer_0
10
5.806372
20
80.616640
30
0.0
11
15.748687
21
5.124477
31
0.0
0
LINE
8
MCD_Layer_0
10
4.093016
20
87.305819
30
0.0
11
116.170360
21
62.938096
31
0.0
0
LINE
8
MCD_Layer_0
10
3.314727
20
5.787049
30
0.0
11
85.611786
21
117.864393
31
0.0
0
LINE
8
MCD_Layer_0
10
44.043317
20
107.763434
30
0.0
11
71.755630
21
69.916567
31
0.0
0
LINE
8
MCD_Layer_0
10
22.542384
20
93.575058
30
0.0
11
56.466078
21
45.696289
31
0.0
0
LINE
8
MCD_Layer_0
10
61.128346
20
24.120700
30
0.0
11
91.881025
21
58.160110
31
0.0
0
LINE
8
MCD_Layer_0
10
44.002256
20
15.634177
30
0.0
11
45.331133
21
58.636043
31
0.0
0
LINE
8
MCD_Layer_0
10
108.585309
20
3.689215
30
0.0
11
98.374232
21
99.484082
31
0.0
0
LINE
8
MCD_Layer_0
10
65.531184
20
62.936229
30
0.0
11
61.128346
21
63.300177
31
0.0
0
LINE
8
MCD_Layer_0
10
62.561741
20
62.822379
30
0.0
11
1.881332
21
100.068265
31
0.0
0
LINE
8
MCD_Layer_0
10
97.790049
20
67.225217
30
0.0
11
38.785667
21
19.611477
31
0.0
0
LINE
8
MCD_Layer_0
10
52.402924
20
92.470149
30
0.0
11
95.643688
21
78.156724
31
0.0
0
LINE
8
MCD_Layer_0
10
65.783148
20
16.733487
30
0.0
11
61.242196
21
62.822379
31
0.0
0
LINE
8
MCD_Layer_0
10
61.128346
20
64.255774
30
0.0
11
61.128346
21
97.223871
31
0.0
0
LINE
8
MCD_Layer_0
10
76.462691
20
67.477181
30
0.0
11
15.039454
21
40.479700
31
0.0
0
LINE
8
MCD_Layer_0
10
91.188591
20
103.312069
30
0.0
11
18.072355
21
35.223916
31
0.0
0
LINE
8
MCD_Layer_0
10
103.273533
20
80.855539
30
0.0
11
0.459134
21
62.936229
31
0.0
0
LINE
8
MCD_Layer_0
10
33.416033
20
104.967566
30
0.0
11
79.161506
21
2.153167
31
0.0
0
LINE
8
MCD_Layer_0
10
112.844434
20
7.569461
30
0.0
11
79.161506
21
2.153167
31
0.0
0
ARC
8
MCD_Layer_0
10
0.000052
20
0.000000
40
0.000052
50
180.000000
51
176.503414
0
ARC
8
MCD_Layer_0
10
0.000353
20
-0.000050
40
0.000365
50
172.299391
51
145.722826
0
ARC
8
MCD_Layer_0
10
0.004152
20
0.000719
40
0.004222
50
189.826706
51
144.487765
0
ARC
8
MCD_Layer_0
10
0.001228
20
0.000288
40
0.001259
50
193.235628
51
114.066881
0
ARC
8
MCD_Layer_0
10
0.000003
20
0.000000
40
0.000004
50
87.727560
51
51.890227
0
ARC
8
MCD_Layer_0
10
0.000007
20
0.000000
40
0.000019
50
215.190706
51
177.925589
0
ARC
8
MCD_Layer_0
10
0.000104
20
0.000021
40
0.000114
50
191.942356
51
148.461102
0
ARC
8
MCD_Layer_0
10
0.001598
20
-0.000016
40
0.001605
50
179.538957
51
149.420768
0
ARC
8
MCD_Layer_0
10
0.005308
20
0.001465
40
0.005515
50
195.440918
51
112.441916
0
ARC
8
MCD_Layer_0
10
0.004532
20
0.005597
40
0.007201
50
231.001760
51
34.017681
0
ARC
8
MCD_Layer_0
10
0.002657
20
0.000707
40
0.002748
50
194.887867
51
126.272860
0
ARC
8
MCD_Layer_0
10
0.000004
20
0.000000
40
0.000004
50
180.000000
51
84.636912
0
ARC
8
MCD_Layer_0
10
0.000030
20
0.000006
40
0.000031
50
191.483877
51
130.443024
0
ARC
8
MCD_Layer_0
10
0.000570
20
-0.000021
40
0.000571
50
177.918654
51
153.338573
0
ARC
8
MCD_Layer_0
10
0.004344
20
0.000534
40
0.004376
50
187.002571
51
137.046718
0
ARC
8
MCD_Layer_0
10
0.006559
20
0.004432
40
0.007922
50
214.107550
51
74.414389
0
ARC
8
MCD_Layer_0
10
0.000037
20
0.000000
40
0.000037
50
180.000000
51
134.772902
0
ARC
8
MCD_Layer_0
10
0.000077
20
-0.000003
40
0.000077
50
177.687928
51
121.244140
0
ARC
8
MCD_Layer_0
10
0.005217
20
0.005157
40
0.007338
50
224.690039
51
46.020932
0
ARC
8
MCD_Layer_0
10
0.000020
20
0.000017
40
0.000026
50
219.506666
51
52.754731
0
ARC
8
MCD_Layer_0
10
0.000018
20
0.000030
40
0.000035
50
238.505810
51
19.413038
0
ARC
8
MCD_Layer_0
10
0.000039
20
0.000022
40
0.000044
50
209.351173
51
64.162792
0
ARC
8
MCD_Layer_0
10
0.000022
20
-0.000045
40
0.000054
50
152.619179
51
114.056960
0
ARC
8
MCD_Layer_0
10
0.000648
20
-0.000033
40
0.000649
50
177.044969
51
156.760147
0
ARC
8
MCD_Layer_0
10
0.003675
20
0.000242
40
0.003683
50
183.770424
51
130.250609
0
ARC
8
MCD_Layer_0
10
0.006556
20
0.003638
40
0.007498
50
209.025109
51
83.923131
0
ARC
8
MCD_Layer_0
10
0.007197
20
0.006322
40
0.009579
50
221.296786
51
51.862692
0
ARC
8
MCD_Layer_0
10
0.006556
20
0.007594
40
0.010032
50
229.192980
51
38.627040
0
ARC
8
MCD_Layer_0
10
0.000000
20
0.000000
40
0.000000
50
180.000000
51
4.811908
0
ARC
8
MCD_Layer_0
10
0.000022
20
-0.000013
40
0.000033
50
173.232375
51
130.851032
0
ARC
8
MCD_Layer_0
10
0.000365
20
-0.000065
40
0.000374
50
170.151156
51
146.827392
0
ARC
8
MCD_Layer_0
10
0.003298
20
0.000329
40
0.003318
50
185.700550
51
140.610813
0
ARC
8
MCD_Layer_0
10
0.005376
20
0.003000
40
0.006160
50
209.154776
51
78.539391
0
ARC
8
MCD_Layer_0
10
0.006184
20
0.005389
40
0.008203
50
221.069452
51
56.127858
0
ARC
8
MCD_Layer_0
10
0.000230
20
0.000864
40
0.000882
50
255.602280
51
304.837262
0
ARC
8
MCD_Layer_0
10
0.000000
20
0.000000
40
0.000003
50
15.588506
51
12.509335
0
ARC
8
MCD_Layer_0
10
0.000052
20
0.000000
40
0.000052
50
180.000000
51
173.001118
0
ARC
8
MCD_Layer_0
10
0.000212
20
0.000046
40
0.000217
50
192.311195
51
137.630981
0
ARC
8
MCD_Layer_0
10
0.001509
20
0.000000
40
0.001509
50
180.018116
51
135.946072
0
ARC
8
MCD_Layer_0
10
0.002909
20
0.001359
40
0.003211
50
205.043302
51
88.048087
0
ARC
8
MCD_Layer_0
10
0.003441
20
0.002956
40
0.004536
50
220.667729
51
58.381015
0
ARC
8
MCD_Layer_0
10
0.000026
20
0.000507
40
0.000508
50
267.078056
51
321.758270
0
ARC
8
MCD_Layer_0
10
0.001583
20
0.000155
40
0.001590
50
185.595148
51
127.384615
0
ARC
8
MCD_Layer_0
10
0.002250
20
0.001628
40
0.002777
50
215.888540
51
70.750054
0
ARC
8
MCD_Layer_0
10
0.002586
20
0.001487
40
0.002996
50
210.110872
51
79.943712
0
ARC
8
MCD_Layer_0
10
0.003903
20
0.001709
40
0.004267
50
203.711441
51
97.740509
0
ARC
8
MCD_Layer_0
10
0.006656
20
0.006792
40
0.009510
50
225.576925
51
41.758638
0
ARC
8
MCD_Layer_0
10
0.007500
20
0.006786
40
0.010114
50
222.136815
51
54.921562
0
ARC
8
MCD_Layer_0
10
0.000017
20
0.000000
40
0.000017
50
180.000000
51
178.838092
0
ARC
8
MCD_Layer_0
10
0.000377
20
0.000092
40
0.000388
50
193.773024
51
90.865039
0
ARC
8
MCD_Layer_0
10
0.000945
20
0.000258
40
0.000980
50
195.254057
51
101.264945
0
ARC
8
MCD_Layer_0
10
0.002688
20
0.000724
40
0.002783
50
195.074523
51
106.637089
0
ARC
8
MCD_Layer_0
10
0.003719
20
0.002708
40
0.004600
50
216.063693
51
68.898042
0
ENDSEC
0
EOF
