0
SECTION
2
BLOCKS
0
BLOCK
8
0
2
OUTE
70
0
10
0.0
20
0.0
30
0.0
3
OUTE
1
OUTE
0
ENDBLK
0
BLOCK
8
0
2
OUTG
70
0
10
0.0
20
0.0
30
0.0
3
OUTG
1
OUTG
0
ENDBLK
0
BLOCK
8
0
2
OUTO
70
0
10
0.0
20
0.0
30
0.0
3
OUTO
1
OUTO
0
ENDBLK
0
BLOCK
8
0
2
OUTR
70
0
10
0.0
20
0.0
30
0.0
3
OUTR
1
OUTR
0
ENDBLK
0
BLOCK
8
0
2
OUTS
70
0
10
0.0
20
0.0
30
0.0
3
OUTS
1
OUTS
0
ENDBLK
0
BLOCK
8
0
2
OUTV
70
0
10
0.0
20
0.0
30
0.0
3
OUTV
1
OUTV
0
ENDBLK
0
ENDSEC
0
SECTION
2
ENTITIES
0
LINE
8
MCD_Layer_0
10
-7.591500
20
3.473198
30
0.0
11
-7.591500
21
3.520073
31
0.0
0
LINE
8
MCD_Layer_0
10
-7.591500
20
3.473198
30
0.0
11
-7.591500
21
2.992729
31
0.0
0
LINE
8
MCD_Layer_0
10
-8.427835
20
3.490685
30
0.0
11
-7.591500
21
3.473198
31
0.0
0
LINE
8
MCD_Layer_0
10
-7.591500
20
3.473198
30
0.0
11
-7.591500
21
4.387260
31
0.0
0
LINE
8
MCD_Layer_0
10
-9.274514
20
3.490685
30
0.0
11
-7.591500
21
3.473198
31
0.0
0
LINE
8
MCD_Layer_0
10
-7.591500
20
3.473198
30
0.0
11
-7.591500
21
3.496635
31
0.0
0
LINE
8
MCD_Layer_0
10
-7.591500
20
3.520073
30
0.0
11
-7.586373
21
3.473198
31
0.0
0
LINE
8
MCD_Layer_0
10
-7.591500
20
3.473198
30
0.0
11
-7.591317
21
3.473198
31
0.0
0
LINE
8
MCD_Layer_0
10
-7.591500
20
3.473198
30
0.0
11
-6.439492
21
1.966606
31
0.0
0
LINE
8
MCD_Layer_0
10
-7.591500
20
4.973198
30
0.0
11
-6.055520
21
4.967339
31
0.0
0
LINE
8
MCD_Layer_0
10
-7.591500
20
3.473198
30
0.0
11
-7.591409
21
3.473198
31
0.0
0
LINE
8
MCD_Layer_0
10
-6.278817
20
3.473198
30
0.0
11
-7.591500
21
3.473198
31
0.0
0
LINE
8
MCD_Layer_0
10
-7.544625
20
3.473198
30
0.0
11
-7.591500
21
3.473198
31
0.0
0
LINE
8
MCD_Layer_0
10
-6.677438
20
1.790184
30
0.0
11
-7.574014
21
3.473198
31
0.0
0
LINE
8
MCD_Layer_0
10
-10.374703
20
1.979149
30
0.0
11
-7.585732
21
3.473198
31
0.0
0
LINE
8
MCD_Layer_0
10
-5.142282
20
2.103661
30
0.0
11
-7.574014
21
3.473198
31
0.0
0
LINE
8
MCD_Layer_0
10
-7.568063
20
3.473198
30
0.0
11
-7.591500
21
3.473198
31
0.0
0
LINE
8
MCD_Layer_0
10
-7.591500
20
3.473198
30
0.0
11
-7.544625
21
3.478325
31
0.0
0
LINE
8
MCD_Layer_0
10
-7.591500
20
3.473198
30
0.0
11
-7.591500
21
3.473381
31
0.0
0
LINE
8
MCD_Layer_0
10
-7.591500
20
3.473198
30
0.0
11
-10.591500
21
0.881157
31
0.0
0
LINE
8
MCD_Layer_0
10
-9.096902
20
3.473198
30
0.0
11
-6.091500
21
5.009178
31
0.0
0
LINE
8
MCD_Layer_0
10
-6.097360
20
3.473198
30
0.0
11
-10.591500
21
0.881157
31
0.0
0
LINE
8
MCD_Layer_0
10
-9.096902
20
3.473198
30
0.0
11
-9.091500
21
3.761131
31
0.0
0
LINE
8
MCD_Layer_0
10
-6.094979
20
3.473198
30
0.0
11
-7.591500
21
3.473289
31
0.0
0
LINE
8
MCD_Layer_0
10
-7.591500
20
5.160973
30
0.0
11
-7.591500
21
3.473198
31
0.0
0
LINE
8
MCD_Layer_0
10
-7.591500
20
3.543510
30
0.0
11
-7.591500
21
3.473198
31
0.0
0
LINE
8
MCD_Layer_0
10
-7.591500
20
5.922417
30
0.0
11
-8.961038
21
3.490685
31
0.0
0
LINE
8
MCD_Layer_0
10
-7.591500
20
5.201714
30
0.0
11
-8.481027
21
3.478966
31
0.0
0
LINE
8
MCD_Layer_0
10
-7.591500
20
3.232964
30
0.0
11
-8.994088
21
3.490685
31
0.0
0
LINE
8
MCD_Layer_0
10
-7.591500
20
0.593315
30
0.0
11
-8.484048
21
3.478966
31
0.0
0
LINE
8
MCD_Layer_0
10
-7.591500
20
0.549370
30
0.0
11
-9.027047
21
3.490685
31
0.0
0
LINE
8
MCD_Layer_0
10
-7.591500
20
5.682182
30
0.0
11
-8.488534
21
3.478966
31
0.0
0
LINE
8
MCD_Layer_0
10
-7.591500
20
3.496635
30
0.0
11
-7.591500
21
3.473198
31
0.0
0
LINE
8
MCD_Layer_0
10
-7.586373
20
3.473198
30
0.0
11
-7.591500
21
3.473198
31
0.0
0
LINE
8
MCD_Layer_0
10
-7.591317
20
3.473198
30
0.0
11
-7.591500
21
4.973198
31
0.0
0
LINE
8
MCD_Layer_0
10
-9.079507
20
1.967522
30
0.0
11
-7.591500
21
4.973198
31
0.0
0
LINE
8
MCD_Layer_0
10
-9.223519
20
4.969627
30
0.0
11
-7.591500
21
3.473198
31
0.0
0
LINE
8
MCD_Layer_0
10
-7.927499
20
4.963127
30
0.0
11
-7.591500
21
5.723198
31
0.0
0
LINE
8
MCD_Layer_0
10
-6.535531
20
4.967522
30
0.0
11
-7.591500
21
3.473198
31
0.0
0
LINE
8
MCD_Layer_0
10
-7.591409
20
3.473198
30
0.0
11
-7.591500
21
3.473198
31
0.0
0
LINE
8
MCD_Layer_0
10
-7.591500
20
3.473198
30
0.0
11
-5.903726
21
3.473198
31
0.0
0
LINE
8
MCD_Layer_0
10
-7.591500
20
3.473198
30
0.0
11
-7.521188
21
3.473198
31
0.0
0
LINE
8
MCD_Layer_0
10
-7.591500
20
3.473198
30
0.0
11
-9.607125
21
0.917137
31
0.0
0
LINE
8
MCD_Layer_0
10
-7.585732
20
3.473198
30
0.0
11
-7.254586
21
2.024193
31
0.0
0
LINE
8
MCD_Layer_0
10
-7.585732
20
3.473198
30
0.0
11
-8.927438
21
1.394127
31
0.0
0
LINE
8
MCD_Layer_0
10
-7.585732
20
3.473198
30
0.0
11
-8.695992
21
1.859123
31
0.0
0
LINE
8
MCD_Layer_0
10
-7.585732
20
3.473198
30
0.0
11
-6.923532
21
1.700188
31
0.0
0
LINE
8
MCD_Layer_0
10
-7.585732
20
3.473198
30
0.0
11
-5.769235
21
1.607170
31
0.0
0
LINE
8
MCD_Layer_0
10
-7.585732
20
3.473198
30
0.0
11
-7.568063
21
3.473198
31
0.0
0
LINE
8
MCD_Layer_0
10
-7.521188
20
3.479790
30
0.0
11
-7.591500
21
3.473198
31
0.0
0
LINE
8
MCD_Layer_0
10
-7.591500
20
3.473473
30
0.0
11
-7.591500
21
3.473198
31
0.0
0
LINE
8
MCD_Layer_0
10
-10.591500
20
5.585136
30
0.0
11
-6.098458
21
3.473198
31
0.0
0
LINE
8
MCD_Layer_0
10
-9.091500
20
5.777122
30
0.0
11
-6.098825
21
3.473198
31
0.0
0
LINE
8
MCD_Layer_0
10
-6.091500
20
5.537163
30
0.0
11
-6.097268
21
3.473198
31
0.0
0
LINE
8
MCD_Layer_0
10
-9.841500
20
5.921135
30
0.0
11
-6.101663
21
3.473198
31
0.0
0
LINE
8
MCD_Layer_0
10
-6.091500
20
4.817192
30
0.0
11
-6.096261
21
3.473198
31
0.0
0
LINE
8
MCD_Layer_0
10
-5.341500
20
6.209160
30
0.0
11
-9.101480
21
3.473198
31
0.0
0
LINE
8
MCD_Layer_0
10
-7.591500
20
3.473289
30
0.0
11
-7.591500
21
3.473198
31
0.0
0
LINE
8
MCD_Layer_0
10
-7.591500
20
3.473198
30
0.0
11
-7.591500
21
5.160973
31
0.0
0
LINE
8
MCD_Layer_0
10
-7.591500
20
3.473198
30
0.0
11
-7.591500
21
3.543510
31
0.0
0
LINE
8
MCD_Layer_0
10
-7.591500
20
3.473198
30
0.0
11
-7.591500
21
5.541557
31
0.0
0
LINE
8
MCD_Layer_0
10
-8.805032
20
3.478966
30
0.0
11
-7.591500
21
1.888237
31
0.0
0
LINE
8
MCD_Layer_0
10
-10.135568
20
3.490685
30
0.0
11
-7.591500
21
2.321831
31
0.0
0
LINE
8
MCD_Layer_0
10
-8.529824
20
3.478966
30
0.0
11
-7.591500
21
1.023979
31
0.0
0
LINE
8
MCD_Layer_0
10
-10.159554
20
3.490685
30
0.0
11
-7.591500
21
2.515190
31
0.0
0
LINE
8
MCD_Layer_0
10
-8.420327
20
3.478966
30
0.0
11
-7.591500
21
6.209526
31
0.0
0
LINE
8
MCD_Layer_0
10
-10.390542
20
3.478966
30
0.0
11
-7.591500
21
3.496635
31
0.0
0
LINE
8
MCD_Layer_0
10
-7.591500
20
4.223198
30
0.0
11
-9.751504
21
4.969902
31
0.0
0
LINE
8
MCD_Layer_0
10
-7.591500
20
1.973198
30
0.0
11
-10.135568
21
4.962212
31
0.0
0
LINE
8
MCD_Layer_0
10
-7.591500
20
4.223198
30
0.0
11
-6.871530
21
4.969627
31
0.0
0
LINE
8
MCD_Layer_0
10
-7.591500
20
0.473198
30
0.0
11
-10.519540
21
4.967339
31
0.0
0
LINE
8
MCD_Layer_0
10
-5.903726
20
3.473198
30
0.0
11
-7.591500
21
3.473198
31
0.0
0
LINE
8
MCD_Layer_0
10
-7.521188
20
3.473198
30
0.0
11
-7.591500
21
3.473198
31
0.0
0
LINE
8
MCD_Layer_0
10
-9.276071
20
2.561882
30
0.0
11
-7.585732
21
3.473198
31
0.0
0
LINE
8
MCD_Layer_0
10
-7.157907
20
1.985191
30
0.0
11
-7.585732
21
3.473198
31
0.0
0
LINE
8
MCD_Layer_0
10
-10.377633
20
2.447899
30
0.0
11
-7.585732
21
3.473198
31
0.0
0
LINE
8
MCD_Layer_0
10
-9.753610
20
1.913139
30
0.0
11
-7.585732
21
3.473198
31
0.0
0
LINE
8
MCD_Layer_0
10
-9.270211
20
2.374382
30
0.0
11
-7.585732
21
3.473198
31
0.0
0
LINE
8
MCD_Layer_0
10
-9.607125
20
2.042137
30
0.0
11
-7.585732
21
3.473198
31
0.0
0
LINE
8
MCD_Layer_0
10
-7.591500
20
3.473198
30
0.0
11
-7.521188
21
3.479790
31
0.0
0
LINE
8
MCD_Layer_0
10
-7.591500
20
3.473198
30
0.0
11
-7.591500
21
3.473473
31
0.0
0
LINE
8
MCD_Layer_0
10
-7.591500
20
3.473198
30
0.0
11
-5.341500
21
4.193169
31
0.0
0
LINE
8
MCD_Layer_0
10
-6.095803
20
3.473198
30
0.0
11
-7.591500
21
3.137199
31
0.0
0
LINE
8
MCD_Layer_0
10
-6.097177
20
3.473198
30
0.0
11
-9.091500
21
5.921135
31
0.0
0
LINE
8
MCD_Layer_0
10
-6.096536
20
3.473198
30
0.0
11
-7.591500
21
3.953209
31
0.0
0
LINE
8
MCD_Layer_0
10
-6.096078
20
3.473198
30
0.0
11
-6.091500
21
3.185173
31
0.0
0
LINE
8
MCD_Layer_0
10
-6.096902
20
3.473198
30
0.0
11
-8.341500
21
6.449120
31
0.0
0
LINE
8
MCD_Layer_0
10
-6.095712
20
3.473198
30
0.0
11
-7.591500
21
3.473289
31
0.0
0
LINE
8
MCD_Layer_0
10
-7.591500
20
4.785881
30
0.0
11
-7.591500
21
3.473198
31
0.0
0
LINE
8
MCD_Layer_0
10
-7.591500
20
3.520073
30
0.0
11
-7.591500
21
3.473198
31
0.0
0
LINE
8
MCD_Layer_0
10
-7.591500
20
1.744682
30
0.0
11
-8.952065
21
3.478966
31
0.0
0
LINE
8
MCD_Layer_0
10
-7.591500
20
3.329643
30
0.0
11
-8.658090
21
3.478966
31
0.0
0
LINE
8
MCD_Layer_0
10
-7.591500
20
2.219292
30
0.0
11
-9.334573
21
3.478966
31
0.0
0
LINE
8
MCD_Layer_0
10
-7.591500
20
3.666557
30
0.0
11
-8.419503
21
3.478966
31
0.0
0
LINE
8
MCD_Layer_0
10
-7.584908
20
3.473198
30
0.0
11
-7.591500
21
3.473198
31
0.0
0
LINE
8
MCD_Layer_0
10
-7.591226
20
3.473198
30
0.0
11
-7.591500
21
0.473198
31
0.0
0
LINE
8
MCD_Layer_0
10
-8.263589
20
4.966331
30
0.0
11
-7.591500
21
4.973198
31
0.0
0
LINE
8
MCD_Layer_0
10
-9.559518
20
4.969902
30
0.0
11
-7.591500
21
4.973198
31
0.0
0
LINE
8
MCD_Layer_0
10
-7.543527
20
4.967613
30
0.0
11
-7.591500
21
0.473198
31
0.0
0
LINE
8
MCD_Layer_0
10
-8.359536
20
4.970177
30
0.0
11
-7.591500
21
4.973198
31
0.0
0
LINE
8
MCD_Layer_0
10
-9.607491
20
4.968163
30
0.0
11
-7.591500
21
4.973198
31
0.0
0
LINE
8
MCD_Layer_0
10
-7.879525
20
4.970360
30
0.0
11
-7.591500
21
3.473198
31
0.0
0
LINE
8
MCD_Layer_0
10
-7.591500
20
3.473198
30
0.0
11
-7.679391
21
2.199608
31
0.0
0
LINE
8
MCD_Layer_0
10
-7.585732
20
3.473198
30
0.0
11
-9.320016
21
2.768883
31
0.0
0
LINE
8
MCD_Layer_0
10
-7.585732
20
3.473198
30
0.0
11
-7.538766
21
2.328697
31
0.0
0
LINE
8
MCD_Layer_0
10
-7.585732
20
3.473198
30
0.0
11
-6.777047
21
2.860435
31
0.0
0
LINE
8
MCD_Layer_0
10
-7.585732
20
3.473198
30
0.0
11
-5.183297
21
2.310661
31
0.0
0
LINE
8
MCD_Layer_0
10
-7.585732
20
3.473198
30
0.0
11
-7.497750
21
2.965446
31
0.0
0
LINE
8
MCD_Layer_0
10
-9.091500
20
5.873161
30
0.0
11
-6.096078
21
3.473198
31
0.0
0
LINE
8
MCD_Layer_0
10
-7.591500
20
5.489189
30
0.0
11
-6.093514
21
3.473198
31
0.0
0
LINE
8
MCD_Layer_0
10
-9.091500
20
1.313103
30
0.0
11
-6.096627
21
3.473198
31
0.0
0
LINE
8
MCD_Layer_0
10
-9.841500
20
1.073143
30
0.0
11
-6.093240
21
3.473198
31
0.0
0
LINE
8
MCD_Layer_0
10
-10.591500
20
0.593224
30
0.0
11
-6.097817
21
3.473198
31
0.0
0
LINE
8
MCD_Layer_0
10
-7.591500
20
4.817192
30
0.0
11
-6.092965
21
3.473198
31
0.0
0
LINE
8
MCD_Layer_0
10
-7.591500
20
3.473198
30
0.0
11
-7.591500
21
4.211479
31
0.0
0
LINE
8
MCD_Layer_0
10
-9.196511
20
3.478966
30
0.0
11
-7.591500
21
5.535698
31
0.0
0
LINE
8
MCD_Layer_0
10
-7.961282
20
3.478966
30
0.0
11
-7.591500
21
6.098198
31
0.0
0
LINE
8
MCD_Layer_0
10
-10.558541
20
3.478966
30
0.0
11
-7.591500
21
0.640190
31
0.0
0
LINE
8
MCD_Layer_0
10
-7.941049
20
3.478966
30
0.0
11
-7.591500
21
5.676323
31
0.0
0
LINE
8
MCD_Layer_0
10
-9.238534
20
3.490685
30
0.0
11
-7.591500
21
4.434135
31
0.0
0
LINE
8
MCD_Layer_0
10
-7.934640
20
3.478966
30
0.0
11
-7.591500
21
3.496635
31
0.0
0
LINE
8
MCD_Layer_0
10
-7.591500
20
3.473198
30
0.0
11
-9.223519
21
1.966698
31
0.0
0
LINE
8
MCD_Layer_0
10
-7.591500
20
3.473198
30
0.0
11
-5.431497
21
4.971825
31
0.0
0
LINE
8
MCD_Layer_0
10
-7.591500
20
3.473198
30
0.0
11
-9.751504
21
1.969902
31
0.0
0
LINE
8
MCD_Layer_0
10
-8.552438
20
2.644371
30
0.0
11
-7.574014
21
3.473198
31
0.0
0
LINE
8
MCD_Layer_0
10
-6.630563
20
3.130058
30
0.0
11
-7.585732
21
3.473198
31
0.0
0
LINE
8
MCD_Layer_0
10
-7.975289
20
3.066612
30
0.0
11
-7.585732
21
3.473198
31
0.0
0
LINE
8
MCD_Layer_0
10
-7.591500
20
3.473198
30
0.0
11
-7.591500
21
1.313194
31
0.0
0
LINE
8
MCD_Layer_0
10
-9.094796
20
3.473198
30
0.0
11
-9.841500
21
1.409142
31
0.0
0
LINE
8
MCD_Layer_0
10
-6.093148
20
3.473198
30
0.0
11
-10.591500
21
2.897148
31
0.0
0
LINE
8
MCD_Layer_0
10
-9.095254
20
3.473198
30
0.0
11
-9.841500
21
1.409142
31
0.0
0
LINE
8
MCD_Layer_0
10
-6.093148
20
3.473198
30
0.0
11
-7.591500
21
3.473289
31
0.0
0
LINE
8
MCD_Layer_0
10
-7.591500
20
6.016167
30
0.0
11
-8.531289
21
3.490685
31
0.0
0
LINE
8
MCD_Layer_0
10
-7.591500
20
3.089409
30
0.0
11
-7.998086
21
3.478966
31
0.0
0
LINE
8
MCD_Layer_0
10
-7.591500
20
0.689995
30
0.0
11
-9.085549
21
3.478966
31
0.0
0
LINE
8
MCD_Layer_0
10
-7.591317
20
3.473198
30
0.0
11
-7.591500
21
0.473198
31
0.0
0
LINE
8
MCD_Layer_0
10
-8.167550
20
1.969444
30
0.0
11
-7.591500
21
4.973198
31
0.0
0
LINE
8
MCD_Layer_0
10
-6.055520
20
4.967339
30
0.0
11
-7.591500
21
0.473198
31
0.0
0
LINE
8
MCD_Layer_0
10
-5.671548
20
1.969902
30
0.0
11
-7.591500
21
4.973198
31
0.0
0
LINE
8
MCD_Layer_0
10
-6.055520
20
4.967339
30
0.0
11
-7.591500
21
3.473198
31
0.0
0
LINE
8
MCD_Layer_0
10
-7.591500
20
3.473198
30
0.0
11
-6.278817
21
3.473198
31
0.0
0
LINE
8
MCD_Layer_0
10
-7.591500
20
3.473198
30
0.0
11
-7.544625
21
3.473198
31
0.0
0
LINE
8
MCD_Layer_0
10
-7.591500
20
3.473198
30
0.0
11
-8.071969
21
2.636864
31
0.0
0
LINE
8
MCD_Layer_0
10
-7.574014
20
3.473198
30
0.0
11
-10.374703
21
1.979149
31
0.0
0
LINE
8
MCD_Layer_0
10
-7.585732
20
3.473198
30
0.0
11
-8.071969
21
2.636864
31
0.0
0
LINE
8
MCD_Layer_0
10
-7.574014
20
3.473198
30
0.0
11
-7.591500
21
3.473198
31
0.0
0
LINE
8
MCD_Layer_0
10
-7.591500
20
3.473198
30
0.0
11
-7.568063
21
3.473198
31
0.0
0
LINE
8
MCD_Layer_0
10
-7.544625
20
3.478325
30
0.0
11
-7.591500
21
3.473198
31
0.0
0
LINE
8
MCD_Layer_0
10
-7.591500
20
3.473381
30
0.0
11
-7.591500
21
3.473198
31
0.0
0
LINE
8
MCD_Layer_0
10
-9.091500
20
1.265129
30
0.0
11
-9.095071
21
3.473198
31
0.0
0
LINE
8
MCD_Layer_0
10
-10.591500
20
3.569145
30
0.0
11
-6.099740
21
3.473198
31
0.0
0
LINE
8
MCD_Layer_0
10
-7.591500
20
6.305199
30
0.0
11
-9.097268
21
3.473198
31
0.0
0
LINE
8
MCD_Layer_0
10
-7.591500
20
3.473198
30
0.0
11
-7.591500
21
4.785881
31
0.0
0
LINE
8
MCD_Layer_0
10
-7.591500
20
3.473198
30
0.0
11
-7.591500
21
2.465385
31
0.0
0
LINE
8
MCD_Layer_0
10
-9.057076
20
3.490685
30
0.0
11
-7.591500
21
4.047417
31
0.0
0
LINE
8
MCD_Layer_0
10
-9.700509
20
3.478966
30
0.0
11
-7.591500
21
2.465385
31
0.0
0
LINE
8
MCD_Layer_0
10
-9.057076
20
3.490685
30
0.0
11
-7.591500
21
0.830620
31
0.0
0
LINE
8
MCD_Layer_0
10
-9.331552
20
3.478966
30
0.0
11
-7.591500
21
3.496635
31
0.0
0
LINE
8
MCD_Layer_0
10
-7.591500
20
3.473198
30
0.0
11
-4.759500
21
1.967430
31
0.0
0
LINE
8
MCD_Layer_0
10
-7.591500
20
4.973198
30
0.0
11
-9.031533
21
4.966331
31
0.0
0
LINE
8
MCD_Layer_0
10
-7.591500
20
0.473198
30
0.0
11
-10.183541
21
1.967796
31
0.0
0
LINE
8
MCD_Layer_0
10
-10.234078
20
1.733147
30
0.0
11
-7.585732
21
3.473198
31
0.0
0
LINE
8
MCD_Layer_0
10
-4.904977
20
2.193657
30
0.0
11
-7.574014
21
3.473198
31
0.0
0
LINE
8
MCD_Layer_0
10
-7.641305
20
1.805107
30
0.0
11
-7.585732
21
3.473198
31
0.0
0
LINE
8
MCD_Layer_0
10
-9.607125
20
2.229637
30
0.0
11
-7.574014
21
3.473198
31
0.0
0
LINE
8
MCD_Layer_0
10
-7.591500
20
3.473198
30
0.0
11
-7.591500
21
3.137199
31
0.0
0
LINE
8
MCD_Layer_0
10
-9.096444
20
3.473198
30
0.0
11
-6.091500
21
5.009178
31
0.0
0
LINE
8
MCD_Layer_0
10
-6.097360
20
3.473198
30
0.0
11
-7.591500
21
3.137199
31
0.0
0
LINE
8
MCD_Layer_0
10
-9.096444
20
3.473198
30
0.0
11
-6.091500
21
1.505180
31
0.0
0
LINE
8
MCD_Layer_0
10
-6.094796
20
3.473198
30
0.0
11
-7.591500
21
3.473289
31
0.0
0
LINE
8
MCD_Layer_0
10
-7.591500
20
1.457573
30
0.0
11
-8.835061
21
3.490685
31
0.0
0
LINE
8
MCD_Layer_0
10
-7.591500
20
0.877495
30
0.0
11
-8.976052
21
3.490685
31
0.0
0
LINE
8
MCD_Layer_0
10
-7.591500
20
2.321831
30
0.0
11
-8.436074
21
3.478966
31
0.0
0
LINE
8
MCD_Layer_0
10
-7.591500
20
4.000542
30
0.0
11
-9.118508
21
3.490685
31
0.0
0
LINE
8
MCD_Layer_0
10
-7.591500
20
3.713432
30
0.0
11
-8.439004
21
3.478966
31
0.0
0
LINE
8
MCD_Layer_0
10
-8.503549
20
1.967155
30
0.0
11
-7.591500
21
1.223198
31
0.0
0
LINE
8
MCD_Layer_0
10
-8.167550
20
4.969810
30
0.0
11
-7.591500
21
3.473198
31
0.0
0
LINE
8
MCD_Layer_0
10
-5.383523
20
4.965324
30
0.0
11
-7.591500
21
1.973198
31
0.0
0
LINE
8
MCD_Layer_0
10
-7.639565
20
4.967705
30
0.0
11
-7.591500
21
3.473198
31
0.0
0
LINE
8
MCD_Layer_0
10
-7.591500
20
3.473198
30
0.0
11
-6.349313
21
1.466179
31
0.0
0
LINE
8
MCD_Layer_0
10
-7.585732
20
3.473198
30
0.0
11
-7.878610
21
2.090111
31
0.0
0
LINE
8
MCD_Layer_0
10
-7.585732
20
3.473198
30
0.0
11
-9.712594
21
1.706139
31
0.0
0
LINE
8
MCD_Layer_0
10
-7.585732
20
3.473198
30
0.0
11
-7.591500
21
1.973198
31
0.0
0
LINE
8
MCD_Layer_0
10
-7.585732
20
3.473198
30
0.0
11
-6.009469
21
1.892174
31
0.0
0
LINE
8
MCD_Layer_0
10
-7.585732
20
3.473198
30
0.0
11
-8.939157
21
1.769127
31
0.0
0
LINE
8
MCD_Layer_0
10
-10.591500
20
0.737144
30
0.0
11
-6.097726
21
3.473198
31
0.0
0
LINE
8
MCD_Layer_0
10
-10.591500
20
5.249138
30
0.0
11
-6.098184
21
3.473198
31
0.0
0
LINE
8
MCD_Layer_0
10
-6.091500
20
3.185173
30
0.0
11
-6.096902
21
3.473198
31
0.0
0
LINE
8
MCD_Layer_0
10
-7.591500
20
0.641197
30
0.0
11
-6.099740
21
3.473198
31
0.0
0
LINE
8
MCD_Layer_0
10
-6.841500
20
4.817192
30
0.0
11
-6.095895
21
3.473198
31
0.0
0
LINE
8
MCD_Layer_0
10
-9.091500
20
5.777122
30
0.0
11
-6.101754
21
3.473198
31
0.0
0
LINE
8
MCD_Layer_0
10
-7.591500
20
3.473198
30
0.0
11
-7.591500
21
5.538628
31
0.0
0
LINE
8
MCD_Layer_0
10
-8.711282
20
3.478966
30
0.0
11
-7.591500
21
5.295464
31
0.0
0
LINE
8
MCD_Layer_0
10
-10.207528
20
3.478966
30
0.0
11
-7.591500
21
0.640190
31
0.0
0
LINE
8
MCD_Layer_0
10
-8.597299
20
3.478966
30
0.0
11
-7.591500
21
3.666557
31
0.0
0
LINE
8
MCD_Layer_0
10
-10.294503
20
3.478966
30
0.0
11
-7.591500
21
6.399956
31
0.0
0
LINE
8
MCD_Layer_0
10
-8.499795
20
3.478966
30
0.0
11
-7.591500
21
5.729057
31
0.0
0
LINE
8
MCD_Layer_0
10
-9.820535
20
3.478966
30
0.0
11
-7.591500
21
3.496635
31
0.0
0
LINE
8
MCD_Layer_0
10
-7.591500
20
2.723198
30
0.0
11
-6.103585
21
4.969627
31
0.0
0
LINE
8
MCD_Layer_0
10
-7.591500
20
4.973198
30
0.0
11
-8.215524
21
4.964409
31
0.0
0
LINE
8
MCD_Layer_0
10
-7.591500
20
2.723198
30
0.0
11
-7.783578
21
4.969444
31
0.0
0
LINE
8
MCD_Layer_0
10
-7.591500
20
1.973198
30
0.0
11
-7.783578
21
4.966148
31
0.0
0
LINE
8
MCD_Layer_0
10
-8.742867
20
2.534874
30
0.0
11
-7.585732
21
3.473198
31
0.0
0
LINE
8
MCD_Layer_0
10
-8.745797
20
1.691124
30
0.0
11
-7.585732
21
3.473198
31
0.0
0
LINE
8
MCD_Layer_0
10
-10.424508
20
2.467400
30
0.0
11
-7.585732
21
3.473198
31
0.0
0
LINE
8
MCD_Layer_0
10
-7.257516
20
1.649193
30
0.0
11
-7.585732
21
3.473198
31
0.0
0
LINE
8
MCD_Layer_0
10
-6.967477
20
2.375938
30
0.0
11
-7.585732
21
3.473198
31
0.0
0
LINE
8
MCD_Layer_0
10
-8.074899
20
1.793114
30
0.0
11
-7.585732
21
3.473198
31
0.0
0
LINE
8
MCD_Layer_0
10
-7.591500
20
3.473198
30
0.0
11
-9.841500
21
4.577141
31
0.0
0
LINE
8
MCD_Layer_0
10
-6.095803
20
3.473198
30
0.0
11
-5.341500
21
5.393150
31
0.0
0
LINE
8
MCD_Layer_0
10
-6.098092
20
3.473198
30
0.0
11
-6.091500
21
3.281212
31
0.0
0
LINE
8
MCD_Layer_0
10
-6.096353
20
3.473198
30
0.0
11
-9.091500
21
3.761131
31
0.0
0
LINE
8
MCD_Layer_0
10
-6.097177
20
3.473198
30
0.0
11
-9.091500
21
4.577141
31
0.0
0
LINE
8
MCD_Layer_0
10
-6.096902
20
3.473198
30
0.0
11
-9.841500
21
2.897148
31
0.0
0
LINE
8
MCD_Layer_0
10
-6.096353
20
3.473198
30
0.0
11
-7.591500
21
3.473289
31
0.0
0
LINE
8
MCD_Layer_0
10
-7.591500
20
4.100151
30
0.0
11
-8.970010
21
3.478966
31
0.0
0
LINE
8
MCD_Layer_0
10
-7.591500
20
6.019096
30
0.0
11
-8.812539
21
3.478966
31
0.0
0
LINE
8
MCD_Layer_0
10
-7.591500
20
2.934135
30
0.0
11
-9.814584
21
3.478966
31
0.0
0
LINE
8
MCD_Layer_0
10
-7.591500
20
2.225151
30
0.0
11
-8.397073
21
3.478966
31
0.0
0
LINE
8
MCD_Layer_0
10
-7.591226
20
3.473198
30
0.0
11
-7.591500
21
3.473198
31
0.0
0
LINE
8
MCD_Layer_0
10
-6.679543
20
4.964500
30
0.0
11
-7.591500
21
1.973198
31
0.0
0
LINE
8
MCD_Layer_0
10
-9.799569
20
4.969994
30
0.0
11
-7.591500
21
0.473198
31
0.0
0
LINE
8
MCD_Layer_0
10
-10.231606
20
4.966057
30
0.0
11
-7.591500
21
0.473198
31
0.0
0
LINE
8
MCD_Layer_0
10
-7.351541
20
4.970177
30
0.0
11
-7.591500
21
0.473198
31
0.0
0
LINE
8
MCD_Layer_0
10
-10.471475
20
4.966881
30
0.0
11
-7.591500
21
2.723198
31
0.0
0
LINE
8
MCD_Layer_0
10
-5.095590
20
4.970268
30
0.0
11
-7.591500
21
3.473198
31
0.0
0
LINE
8
MCD_Layer_0
10
-7.591500
20
3.473198
30
0.0
11
-6.853219
21
1.868187
31
0.0
0
LINE
8
MCD_Layer_0
10
-7.585732
20
3.473198
30
0.0
11
-4.617867
21
2.732903
31
0.0
0
LINE
8
MCD_Layer_0
10
-7.585732
20
3.473198
30
0.0
11
-5.054391
21
2.064659
31
0.0
0
LINE
8
MCD_Layer_0
10
-7.585732
20
3.473198
30
0.0
11
-5.865914
21
2.771172
31
0.0
0
LINE
8
MCD_Layer_0
10
-7.585732
20
3.473198
30
0.0
11
-5.335641
21
2.181664
31
0.0
0
LINE
8
MCD_Layer_0
10
-7.585732
20
3.473198
30
0.0
11
-7.160836
21
2.828941
31
0.0
0
LINE
8
MCD_Layer_0
10
-6.091500
20
2.849174
30
0.0
11
-6.096627
21
3.473198
31
0.0
0
LINE
8
MCD_Layer_0
10
-5.341500
20
0.545158
30
0.0
11
-6.094064
21
3.473198
31
0.0
0
LINE
8
MCD_Layer_0
10
-6.091500
20
1.601219
30
0.0
11
-6.096444
21
3.473198
31
0.0
0
LINE
8
MCD_Layer_0
10
-8.341500
20
1.793114
30
0.0
11
-6.093881
21
3.473198
31
0.0
0
LINE
8
MCD_Layer_0
10
-9.091500
20
5.921135
30
0.0
11
-6.096536
21
3.473198
31
0.0
0
LINE
8
MCD_Layer_0
10
-6.841500
20
4.337181
30
0.0
11
-6.093514
21
3.473198
31
0.0
0
LINE
8
MCD_Layer_0
10
-7.591500
20
3.473198
30
0.0
11
-7.591500
21
6.162651
31
0.0
0
LINE
8
MCD_Layer_0
10
-8.871041
20
3.478966
30
0.0
11
-7.591500
21
2.655815
31
0.0
0
LINE
8
MCD_Layer_0
10
-8.103829
20
3.478966
30
0.0
11
-7.591500
21
4.182182
31
0.0
0
LINE
8
MCD_Layer_0
10
-9.009011
20
3.478966
30
0.0
11
-7.591500
21
6.399956
31
0.0
0
LINE
8
MCD_Layer_0
10
-8.031045
20
3.478966
30
0.0
11
-7.591500
21
5.688042
31
0.0
0
LINE
8
MCD_Layer_0
10
-9.238534
20
3.478966
30
0.0
11
-7.591500
21
3.763237
31
0.0
0
LINE
8
MCD_Layer_0
10
-7.989755
20
3.478966
30
0.0
11
-7.591500
21
3.496635
31
0.0
0
LINE
8
MCD_Layer_0
10
-7.591500
20
3.543510
30
0.0
11
-7.584908
21
3.473198
31
0.0
0
LINE
8
MCD_Layer_0
10
-7.591500
20
3.473198
30
0.0
11
-7.591226
21
3.473198
31
0.0
0
LINE
8
MCD_Layer_0
10
-7.591500
20
0.473198
30
0.0
11
-9.223519
21
4.966698
31
0.0
0
LINE
8
MCD_Layer_0
10
-7.591500
20
5.723198
30
0.0
11
-7.543527
21
4.971642
31
0.0
0
LINE
8
MCD_Layer_0
10
-7.591500
20
3.473198
30
0.0
11
-7.927499
21
4.963127
31
0.0
0
LINE
8
MCD_Layer_0
10
-7.591500
20
3.473198
30
0.0
11
-5.575509
21
4.971733
31
0.0
0
LINE
8
MCD_Layer_0
10
-7.591500
20
0.473198
30
0.0
11
-8.983560
21
1.965874
31
0.0
0
LINE
8
MCD_Layer_0
10
-7.591500
20
3.473198
30
0.0
11
-9.751504
21
4.971733
31
0.0
0
LINE
8
MCD_Layer_0
10
-9.946969
20
1.616142
30
0.0
11
-7.574014
21
3.473198
31
0.0
0
LINE
8
MCD_Layer_0
10
-8.552438
20
3.113121
30
0.0
11
-7.585732
21
3.473198
31
0.0
0
LINE
8
MCD_Layer_0
10
-8.165719
20
1.832115
30
0.0
11
-7.574014
21
3.473198
31
0.0
0
LINE
8
MCD_Layer_0
10
-7.401071
20
3.113945
30
0.0
11
-7.585732
21
3.473198
31
0.0
0
LINE
8
MCD_Layer_0
10
-4.948922
20
2.025658
30
0.0
11
-7.574014
21
3.473198
31
0.0
0
LINE
8
MCD_Layer_0
10
-7.591500
20
3.473198
30
0.0
11
-9.091500
21
4.913139
31
0.0
0
LINE
8
MCD_Layer_0
10
-9.097177
20
3.473198
30
0.0
11
-6.841500
21
1.505180
31
0.0
0
LINE
8
MCD_Layer_0
10
-6.092965
20
3.473198
30
0.0
11
-6.091500
21
3.185173
31
0.0
0
LINE
8
MCD_Layer_0
10
-9.095071
20
3.473198
30
0.0
11
-6.841500
21
1.505180
31
0.0
0
LINE
8
MCD_Layer_0
10
-6.092965
20
3.473198
30
0.0
11
-7.591500
21
3.473289
31
0.0
0
LINE
8
MCD_Layer_0
10
-7.591500
20
1.744682
30
0.0
11
-8.483315
21
3.490685
31
0.0
0
LINE
8
MCD_Layer_0
10
-7.591500
20
3.663628
30
0.0
11
-7.950753
21
3.478966
31
0.0
0
LINE
8
MCD_Layer_0
10
-7.591500
20
3.473198
30
0.0
11
-7.966500
21
3.478966
31
0.0
0
LINE
8
MCD_Layer_0
10
-7.879525
20
1.969627
30
0.0
11
-7.591500
21
3.473198
31
0.0
0
LINE
8
MCD_Layer_0
10
-7.591500
20
4.971733
30
0.0
11
-7.591500
21
0.473198
31
0.0
0
LINE
8
MCD_Layer_0
10
-8.167550
20
1.969444
30
0.0
11
-7.591500
21
3.473198
31
0.0
0
LINE
8
MCD_Layer_0
10
-7.591500
20
4.971733
30
0.0
11
-7.591500
21
3.473198
31
0.0
0
LINE
8
MCD_Layer_0
10
-7.591500
20
3.473198
30
0.0
11
-5.048532
21
2.533409
31
0.0
0
LINE
8
MCD_Layer_0
10
-7.574014
20
3.473198
30
0.0
11
-7.591500
21
3.098198
31
0.0
0
LINE
8
MCD_Layer_0
10
-7.585732
20
3.473198
30
0.0
11
-8.165719
21
2.488365
31
0.0
0
LINE
8
MCD_Layer_0
10
-7.574014
20
3.473198
30
0.0
11
-9.416696
21
3.089134
31
0.0
0
LINE
8
MCD_Layer_0
10
-7.585732
20
3.473198
30
0.0
11
-5.816110
21
2.470421
31
0.0
0
LINE
8
MCD_Layer_0
10
-7.574014
20
3.473198
30
0.0
11
-7.975289
21
3.066612
31
0.0
0
LINE
8
MCD_Layer_0
10
-9.091500
20
4.769127
30
0.0
11
-9.095437
21
3.473198
31
0.0
0
LINE
8
MCD_Layer_0
10
-9.841500
20
1.409142
30
0.0
11
-6.093148
21
3.473198
31
0.0
0
LINE
8
MCD_Layer_0
10
-6.091500
20
5.009178
30
0.0
11
-6.097360
21
3.473198
31
0.0
0
LINE
8
MCD_Layer_0
10
-7.591500
20
3.473198
30
0.0
11
-7.591500
21
5.248589
31
0.0
0
LINE
8
MCD_Layer_0
10
-8.594277
20
3.490685
30
0.0
11
-7.591500
21
0.689995
31
0.0
0
LINE
8
MCD_Layer_0
10
-9.085549
20
3.478966
30
0.0
11
-7.591500
21
2.898979
31
0.0
0
LINE
8
MCD_Layer_0
10
-8.576333
20
3.490685
30
0.0
11
-7.591500
21
3.423393
31
0.0
0
LINE
8
MCD_Layer_0
10
-9.259591
20
3.478966
30
0.0
11
-7.591500
21
6.016167
31
0.0
0
LINE
8
MCD_Layer_0
10
-8.531289
20
3.490685
30
0.0
11
-7.591500
21
0.830620
31
0.0
0
LINE
8
MCD_Layer_0
10
-7.591500
20
0.473198
30
0.0
11
-8.167550
21
1.969444
31
0.0
0
LINE
8
MCD_Layer_0
10
-7.591500
20
1.973198
30
0.0
11
-9.799569
21
1.969627
31
0.0
0
LINE
8
MCD_Layer_0
10
-8.839547
20
2.573875
30
0.0
11
-7.574014
21
3.473198
31
0.0
0
LINE
8
MCD_Layer_0
10
-7.017282
20
1.364189
30
0.0
11
-7.585732
21
3.473198
31
0.0
0
LINE
8
MCD_Layer_0
10
-7.591500
20
3.473198
30
0.0
11
-10.591500
21
3.377159
31
0.0
0
LINE
8
MCD_Layer_0
10
-9.097268
20
3.473198
30
0.0
11
-9.091500
21
5.777122
31
0.0
0
LINE
8
MCD_Layer_0
10
-6.094430
20
3.473198
30
0.0
11
-10.591500
21
1.025169
31
0.0
0
LINE
8
MCD_Layer_0
10
-9.096810
20
3.473198
30
0.0
11
-6.091500
21
6.353172
31
0.0
0
LINE
8
MCD_Layer_0
10
-6.094430
20
3.473198
30
0.0
11
-7.591500
21
3.137199
31
0.0
0
LINE
8
MCD_Layer_0
10
-9.096444
20
3.473198
30
0.0
11
-6.841500
21
1.505180
31
0.0
0
LINE
8
MCD_Layer_0
10
-6.094430
20
3.473198
30
0.0
11
-7.591500
21
3.473289
31
0.0
0
LINE
8
MCD_Layer_0
10
-7.591500
20
3.663628
30
0.0
11
-8.325753
21
3.478966
31
0.0
0
LINE
8
MCD_Layer_0
10
-7.591317
20
3.473198
30
0.0
11
-7.591500
21
3.473198
31
0.0
0
LINE
8
MCD_Layer_0
10
-7.927499
20
1.968254
30
0.0
11
-7.591500
21
1.223198
31
0.0
0
LINE
8
MCD_Layer_0
10
-9.655557
20
4.971550
30
0.0
11
-7.591500
21
3.473198
31
0.0
0
LINE
8
MCD_Layer_0
10
-6.439492
20
1.967339
30
0.0
11
-7.591500
21
1.223198
31
0.0
0
LINE
8
MCD_Layer_0
10
-7.591500
20
3.473198
30
0.0
11
-6.677438
21
1.977684
31
0.0
0
LINE
8
MCD_Layer_0
10
-7.585732
20
3.473198
30
0.0
11
-7.825875
21
1.133110
31
0.0
0
LINE
8
MCD_Layer_0
10
-7.574014
20
3.473198
30
0.0
11
-7.688180
21
3.043358
31
0.0
0
LINE
8
MCD_Layer_0
10
-7.585732
20
3.473198
30
0.0
11
-5.904000
21
1.478172
31
0.0
0
LINE
8
MCD_Layer_0
10
-7.591500
20
2.753227
30
0.0
11
-6.099374
21
3.473198
31
0.0
0
LINE
8
MCD_Layer_0
10
-7.591500
20
6.401146
30
0.0
11
-6.098916
21
3.473198
31
0.0
0
LINE
8
MCD_Layer_0
10
-6.841500
20
2.177177
30
0.0
11
-6.093881
21
3.473198
31
0.0
0
LINE
8
MCD_Layer_0
10
-7.591500
20
5.249229
30
0.0
11
-6.099648
21
3.473198
31
0.0
0
LINE
8
MCD_Layer_0
10
-9.091500
20
0.929131
30
0.0
11
-6.094064
21
3.473198
31
0.0
0
LINE
8
MCD_Layer_0
10
-7.591500
20
3.473198
30
0.0
11
-7.591500
21
2.137260
31
0.0
0
LINE
8
MCD_Layer_0
10
-9.670571
20
3.478966
30
0.0
11
-7.591500
21
6.209526
31
0.0
0
LINE
8
MCD_Layer_0
10
-8.234292
20
3.478966
30
0.0
11
-7.591500
21
0.613823
31
0.0
0
LINE
8
MCD_Layer_0
10
-10.171548
20
3.478966
30
0.0
11
-7.591500
21
5.151909
31
0.0
0
LINE
8
MCD_Layer_0
10
-8.274026
20
3.478966
30
0.0
11
-7.591500
21
3.379448
31
0.0
0
LINE
8
MCD_Layer_0
10
-9.802590
20
3.490685
30
0.0
11
-7.591500
21
3.856987
31
0.0
0
LINE
8
MCD_Layer_0
10
-8.310006
20
3.478966
30
0.0
11
-7.591500
21
3.496635
31
0.0
0
LINE
8
MCD_Layer_0
10
-7.591500
20
3.473198
30
0.0
11
-9.607491
21
1.964500
31
0.0
0
LINE
8
MCD_Layer_0
10
-7.591500
20
5.723198
30
0.0
11
-5.527535
21
4.970360
31
0.0
0
LINE
8
MCD_Layer_0
10
-7.591500
20
3.473198
30
0.0
11
-6.871530
21
1.966331
31
0.0
0
LINE
8
MCD_Layer_0
10
-7.591500
20
4.973198
30
0.0
11
-9.367532
21
4.970268
31
0.0
0
LINE
8
MCD_Layer_0
10
-7.591500
20
0.473198
30
0.0
11
-7.687539
21
1.967430
31
0.0
0
LINE
8
MCD_Layer_0
10
-7.591500
20
1.973198
30
0.0
11
-5.287576
21
4.970268
31
0.0
0
LINE
8
MCD_Layer_0
10
-9.079782
20
2.765129
30
0.0
11
-7.585732
21
3.473198
31
0.0
0
LINE
8
MCD_Layer_0
10
-10.286813
20
1.940147
30
0.0
11
-7.574014
21
3.473198
31
0.0
0
LINE
8
MCD_Layer_0
10
-7.591500
20
3.473198
30
0.0
11
-7.591500
21
1.025169
31
0.0
0
LINE
8
MCD_Layer_0
10
-9.097543
20
3.473198
30
0.0
11
-10.591500
21
2.225151
31
0.0
0
LINE
8
MCD_Layer_0
10
-6.094338
20
3.473198
30
0.0
11
-10.591500
21
2.945122
31
0.0
0
LINE
8
MCD_Layer_0
10
-9.098275
20
3.473198
30
0.0
11
-10.591500
21
3.569145
31
0.0
0
LINE
8
MCD_Layer_0
10
-6.094247
20
3.473198
30
0.0
11
-7.591500
21
5.969200
31
0.0
0
LINE
8
MCD_Layer_0
10
-9.099191
20
3.473198
30
0.0
11
-7.591500
21
0.641197
31
0.0
0
LINE
8
MCD_Layer_0
10
-6.094247
20
3.473198
30
0.0
11
-7.591500
21
3.473289
31
0.0
0
LINE
8
MCD_Layer_0
10
-7.591500
20
6.449760
30
0.0
11
-9.550546
21
3.490685
31
0.0
0
LINE
8
MCD_Layer_0
10
-7.591500
20
4.481010
30
0.0
11
-8.282266
21
3.478966
31
0.0
0
LINE
8
MCD_Layer_0
10
-7.591500
20
5.723198
30
0.0
11
-10.195535
21
3.490685
31
0.0
0
LINE
8
MCD_Layer_0
10
-7.591500
20
3.953667
30
0.0
11
-8.255258
21
3.478966
31
0.0
0
LINE
8
MCD_Layer_0
10
-7.591500
20
4.410698
30
0.0
11
-4.813516
21
3.478966
31
0.0
0
LINE
8
MCD_Layer_0
10
-7.591500
20
4.337456
30
0.0
11
-8.223763
21
3.478966
31
0.0
0
LINE
8
MCD_Layer_0
10
-9.991281
20
4.962303
30
0.0
11
-7.591500
21
5.723198
31
0.0
0
LINE
8
MCD_Layer_0
10
-7.687539
20
4.971092
30
0.0
11
-7.591500
21
3.473198
31
0.0
0
LINE
8
MCD_Layer_0
10
-7.783395
20
4.963219
30
0.0
11
-7.591500
21
1.973198
31
0.0
0
LINE
8
MCD_Layer_0
10
-8.119576
20
4.970818
30
0.0
11
-7.591500
21
3.473198
31
0.0
0
LINE
8
MCD_Layer_0
10
-9.847360
20
4.960930
30
0.0
11
-7.591500
21
2.723198
31
0.0
0
LINE
8
MCD_Layer_0
10
-7.447579
20
4.970726
30
0.0
11
-7.591500
21
3.473198
31
0.0
0
LINE
8
MCD_Layer_0
10
-7.574014
20
3.473198
30
0.0
11
-8.359078
21
3.035118
31
0.0
0
LINE
8
MCD_Layer_0
10
-7.585732
20
3.473198
30
0.0
11
-6.771188
21
1.454185
31
0.0
0
LINE
8
MCD_Layer_0
10
-7.574014
20
3.473198
30
0.0
11
-7.160836
21
3.016441
31
0.0
0
LINE
8
MCD_Layer_0
10
-7.585732
20
3.473198
30
0.0
11
-8.247750
21
0.746117
31
0.0
0
LINE
8
MCD_Layer_0
10
-7.585732
20
3.473198
30
0.0
11
-10.471383
21
2.955650
31
0.0
0
LINE
8
MCD_Layer_0
10
-10.591500
20
0.881157
30
0.0
11
-9.096902
21
3.473198
31
0.0
0
LINE
8
MCD_Layer_0
10
-6.091500
20
5.345177
30
0.0
11
-6.093240
21
3.473198
31
0.0
0
LINE
8
MCD_Layer_0
10
-7.591500
20
4.625206
30
0.0
11
-9.097360
21
3.473198
31
0.0
0
LINE
8
MCD_Layer_0
10
-7.591500
20
3.473198
30
0.0
11
-7.591500
21
5.922417
31
0.0
0
LINE
8
MCD_Layer_0
10
-8.961038
20
3.490685
30
0.0
11
-7.591500
21
2.705620
31
0.0
0
LINE
8
MCD_Layer_0
10
-8.029580
20
3.478966
30
0.0
11
-7.591500
21
5.922417
31
0.0
0
LINE
8
MCD_Layer_0
10
-8.961038
20
3.490685
30
0.0
11
-7.591500
21
1.984917
31
0.0
0
LINE
8
MCD_Layer_0
10
-8.299569
20
3.478966
30
0.0
11
-7.591500
21
3.496635
31
0.0
0
LINE
8
MCD_Layer_0
10
-4.023000
20
3.473198
30
0.0
11
-4.023000
21
3.543510
31
0.0
0
LINE
8
MCD_Layer_0
10
-4.023000
20
3.473198
30
0.0
11
-4.023000
21
3.763237
31
0.0
0
LINE
8
MCD_Layer_0
10
-4.890005
20
3.490685
30
0.0
11
-4.023000
21
4.522026
31
0.0
0
LINE
8
MCD_Layer_0
10
-5.141866
20
3.478966
30
0.0
11
-4.023000
21
4.106010
31
0.0
0
LINE
8
MCD_Layer_0
10
-4.805410
20
3.490685
30
0.0
11
-4.023000
21
5.096245
31
0.0
0
LINE
8
MCD_Layer_0
10
-4.907125
20
3.478966
30
0.0
11
-4.023000
21
4.434135
31
0.0
0
LINE
8
MCD_Layer_0
10
-4.788015
20
3.490685
30
0.0
11
-4.023000
21
5.582573
31
0.0
0
LINE
8
MCD_Layer_0
10
-4.740407
20
3.478966
30
0.0
11
-4.023000
21
3.496635
31
0.0
0
LINE
8
MCD_Layer_0
10
-4.023000
20
3.543510
30
0.0
11
-4.016408
21
3.473198
31
0.0
0
LINE
8
MCD_Layer_0
10
-4.023000
20
3.473198
30
0.0
11
-4.022726
21
3.473198
31
0.0
0
LINE
8
MCD_Layer_0
10
-4.023000
20
3.473198
30
0.0
11
-1.862997
21
1.970177
31
0.0
0
LINE
8
MCD_Layer_0
10
-4.023000
20
3.473198
30
0.0
11
-1.671010
21
4.970360
31
0.0
0
LINE
8
MCD_Layer_0
10
-4.023000
20
3.473198
30
0.0
11
-6.317403
21
1.970085
31
0.0
0
LINE
8
MCD_Layer_0
10
-4.023000
20
0.473198
30
0.0
11
-6.154256
21
4.970726
31
0.0
0
LINE
8
MCD_Layer_0
10
-4.023000
20
5.723198
30
0.0
11
-3.975027
21
1.969810
31
0.0
0
LINE
8
MCD_Layer_0
10
-4.023000
20
3.473198
30
0.0
11
-6.106191
21
4.971184
31
0.0
0
LINE
8
MCD_Layer_0
10
-4.023000
20
3.473198
30
0.0
11
-4.022909
21
3.473198
31
0.0
0
LINE
8
MCD_Layer_0
10
-2.335226
20
3.473198
30
0.0
11
-4.023000
21
3.473198
31
0.0
0
LINE
8
MCD_Layer_0
10
-3.952688
20
3.473198
30
0.0
11
-4.023000
21
3.473198
31
0.0
0
LINE
8
MCD_Layer_0
10
-3.732961
20
2.606194
30
0.0
11
-4.005514
21
3.473198
31
0.0
0
LINE
8
MCD_Layer_0
10
-3.319875
20
2.972862
30
0.0
11
-4.017232
21
3.473198
31
0.0
0
LINE
8
MCD_Layer_0
10
-5.174367
20
2.534874
30
0.0
11
-4.005514
21
3.473198
31
0.0
0
LINE
8
MCD_Layer_0
10
-1.872610
20
3.030815
30
0.0
11
-4.017232
21
3.473198
31
0.0
0
LINE
8
MCD_Layer_0
10
-4.213430
20
2.426109
30
0.0
11
-4.005514
21
3.473198
31
0.0
0
LINE
8
MCD_Layer_0
10
-1.749563
20
3.092613
30
0.0
11
-4.017232
21
3.473198
31
0.0
0
LINE
8
MCD_Layer_0
10
-3.999563
20
3.473198
30
0.0
11
-4.023000
21
3.473198
31
0.0
0
LINE
8
MCD_Layer_0
10
-4.023000
20
3.473198
30
0.0
11
-3.952688
21
3.479790
31
0.0
0
LINE
8
MCD_Layer_0
10
-4.023000
20
3.473198
30
0.0
11
-4.023000
21
3.473473
31
0.0
0
LINE
8
MCD_Layer_0
10
-4.023000
20
3.473198
30
0.0
11
-4.773000
21
5.441124
31
0.0
0
LINE
8
MCD_Layer_0
10
-5.527120
20
3.473198
30
0.0
11
-4.023000
21
2.052391
31
0.0
0
LINE
8
MCD_Layer_0
10
-2.524557
20
3.473198
30
0.0
11
-1.773000
21
1.361168
31
0.0
0
LINE
8
MCD_Layer_0
10
-5.527853
20
3.473198
30
0.0
11
-3.273000
21
2.513176
31
0.0
0
LINE
8
MCD_Layer_0
10
-2.524465
20
3.473198
30
0.0
11
-5.523000
21
4.298729
31
0.0
0
LINE
8
MCD_Layer_0
10
-5.528677
20
3.473198
30
0.0
11
-3.273000
21
5.613976
31
0.0
0
LINE
8
MCD_Layer_0
10
-2.524374
20
3.473198
30
0.0
11
-4.023000
21
3.473289
31
0.0
0
LINE
8
MCD_Layer_0
10
-4.023000
20
5.160973
30
0.0
11
-4.023000
21
3.473198
31
0.0
0
LINE
8
MCD_Layer_0
10
-4.023000
20
3.543510
30
0.0
11
-4.023000
21
3.473198
31
0.0
0
LINE
8
MCD_Layer_0
10
-4.023000
20
4.826714
30
0.0
11
-5.472921
21
3.490685
31
0.0
0
LINE
8
MCD_Layer_0
10
-4.023000
20
5.515190
30
0.0
11
-4.366231
21
3.478966
31
0.0
0
LINE
8
MCD_Layer_0
10
-4.023000
20
4.923393
30
0.0
11
-5.699422
21
3.490685
31
0.0
0
LINE
8
MCD_Layer_0
10
-4.023000
20
3.974174
30
0.0
11
-4.361745
21
3.478966
31
0.0
0
LINE
8
MCD_Layer_0
10
-4.023000
20
5.324760
30
0.0
11
-4.358541
21
3.478966
31
0.0
0
LINE
8
MCD_Layer_0
10
-4.023000
20
3.496635
30
0.0
11
-4.023000
21
3.473198
31
0.0
0
LINE
8
MCD_Layer_0
10
-4.016408
20
3.473198
30
0.0
11
-4.023000
21
3.473198
31
0.0
0
LINE
8
MCD_Layer_0
10
-4.022726
20
3.473198
30
0.0
11
-4.023000
21
3.473198
31
0.0
0
LINE
8
MCD_Layer_0
10
-5.914205
20
4.971825
30
0.0
11
-4.023000
21
4.223198
31
0.0
0
LINE
8
MCD_Layer_0
10
-1.335012
20
4.966606
30
0.0
11
-4.023000
21
5.723198
31
0.0
0
LINE
8
MCD_Layer_0
10
-6.739828
20
4.971825
30
0.0
11
-4.023000
21
1.973198
31
0.0
0
LINE
8
MCD_Layer_0
10
-3.197469
20
4.967522
30
0.0
11
-4.023000
21
4.223198
31
0.0
0
LINE
8
MCD_Layer_0
10
-1.882223
20
4.971825
30
0.0
11
-4.023000
21
3.473198
31
0.0
0
LINE
8
MCD_Layer_0
10
-4.022909
20
3.473198
30
0.0
11
-4.023000
21
3.473198
31
0.0
0
LINE
8
MCD_Layer_0
10
-4.023000
20
3.473198
30
0.0
11
-2.335226
21
3.473198
31
0.0
0
LINE
8
MCD_Layer_0
10
-4.023000
20
3.473198
30
0.0
11
-3.952688
21
3.473198
31
0.0
0
LINE
8
MCD_Layer_0
10
-4.023000
20
3.473198
30
0.0
11
-2.669485
21
2.023277
31
0.0
0
LINE
8
MCD_Layer_0
10
-4.017232
20
3.473198
30
0.0
11
-1.981008
21
3.129967
31
0.0
0
LINE
8
MCD_Layer_0
10
-4.017232
20
3.473198
30
0.0
11
-4.693899
21
2.246117
31
0.0
0
LINE
8
MCD_Layer_0
10
-4.017232
20
3.473198
30
0.0
11
-3.785696
21
3.117882
31
0.0
0
LINE
8
MCD_Layer_0
10
-4.017232
20
3.473198
30
0.0
11
-4.213430
21
2.426109
31
0.0
0
LINE
8
MCD_Layer_0
10
-4.017232
20
3.473198
30
0.0
11
-1.749563
21
3.092613
31
0.0
0
LINE
8
MCD_Layer_0
10
-4.017232
20
3.473198
30
0.0
11
-3.999563
21
3.473198
31
0.0
0
LINE
8
MCD_Layer_0
10
-3.952688
20
3.479790
30
0.0
11
-4.023000
21
3.473198
31
0.0
0
LINE
8
MCD_Layer_0
10
-4.023000
20
3.473473
30
0.0
11
-4.023000
21
3.473198
31
0.0
0
LINE
8
MCD_Layer_0
10
-4.773000
20
5.441124
30
0.0
11
-2.527120
21
3.473198
31
0.0
0
LINE
8
MCD_Layer_0
10
-4.023000
20
2.052391
30
0.0
11
-2.524557
21
3.473198
31
0.0
0
LINE
8
MCD_Layer_0
10
-7.023000
20
3.242760
30
0.0
11
-2.526754
21
3.473198
31
0.0
0
LINE
8
MCD_Layer_0
10
-5.523000
20
4.231529
30
0.0
11
-2.524740
21
3.473198
31
0.0
0
LINE
8
MCD_Layer_0
10
-1.773000
20
3.521172
30
0.0
11
-2.526388
21
3.473198
31
0.0
0
LINE
8
MCD_Layer_0
10
-4.023000
20
1.390007
30
0.0
11
-2.525014
21
3.473198
31
0.0
0
LINE
8
MCD_Layer_0
10
-4.023000
20
3.473289
30
0.0
11
-4.023000
21
3.473198
31
0.0
0
LINE
8
MCD_Layer_0
10
-4.023000
20
3.473198
30
0.0
11
-4.023000
21
5.160973
31
0.0
0
LINE
8
MCD_Layer_0
10
-4.890005
20
3.478966
30
0.0
11
-4.023000
21
4.176323
31
0.0
0
LINE
8
MCD_Layer_0
10
-4.523336
20
3.478966
30
0.0
11
-4.023000
21
4.106010
31
0.0
0
LINE
8
MCD_Layer_0
10
-4.805410
20
3.478966
30
0.0
11
-4.023000
21
3.883354
31
0.0
0
LINE
8
MCD_Layer_0
10
-4.640707
20
3.478966
30
0.0
11
-4.023000
21
0.605034
31
0.0
0
LINE
8
MCD_Layer_0
10
-4.788198
20
3.478966
30
0.0
11
-4.023000
21
5.582573
31
0.0
0
LINE
8
MCD_Layer_0
10
-4.023000
20
1.223198
30
0.0
11
-1.901449
21
4.970177
31
0.0
0
LINE
8
MCD_Layer_0
10
-4.023000
20
3.473198
30
0.0
11
-6.317403
21
4.970085
31
0.0
0
LINE
8
MCD_Layer_0
10
-4.023000
20
4.973198
30
0.0
11
-2.352621
21
4.969719
31
0.0
0
LINE
8
MCD_Layer_0
10
-4.023000
20
5.723198
30
0.0
11
-3.975027
21
4.969810
31
0.0
0
LINE
8
MCD_Layer_0
10
-4.023000
20
1.973198
30
0.0
11
-2.448659
21
4.968803
31
0.0
0
LINE
8
MCD_Layer_0
10
-3.732961
20
2.606194
30
0.0
11
-4.017232
21
3.473198
31
0.0
0
LINE
8
MCD_Layer_0
10
-2.974172
20
2.354332
30
0.0
11
-4.017232
21
3.473198
31
0.0
0
LINE
8
MCD_Layer_0
10
-3.003469
20
2.534782
30
0.0
11
-4.017232
21
3.473198
31
0.0
0
LINE
8
MCD_Layer_0
10
-1.726125
20
2.128563
30
0.0
11
-4.017232
21
3.473198
31
0.0
0
LINE
8
MCD_Layer_0
10
-4.213430
20
2.426109
30
0.0
11
-4.017232
21
3.473198
31
0.0
0
LINE
8
MCD_Layer_0
10
-6.434133
20
1.789543
30
0.0
11
-4.017232
21
3.473198
31
0.0
0
LINE
8
MCD_Layer_0
10
-2.527120
20
3.473198
30
0.0
11
-3.273000
21
4.471581
31
0.0
0
LINE
8
MCD_Layer_0
10
-2.529592
20
3.473198
30
0.0
11
-1.773000
21
1.361168
31
0.0
0
LINE
8
MCD_Layer_0
10
-2.527853
20
3.473198
30
0.0
11
-4.773000
21
1.457115
31
0.0
0
LINE
8
MCD_Layer_0
10
-2.531698
20
3.473198
30
0.0
11
-5.523000
21
4.298729
31
0.0
0
LINE
8
MCD_Layer_0
10
-2.528677
20
3.473198
30
0.0
11
-7.023000
21
3.607597
31
0.0
0
LINE
8
MCD_Layer_0
10
-2.537466
20
3.473198
30
0.0
11
-4.023000
21
3.473289
31
0.0
0
LINE
8
MCD_Layer_0
10
-4.023000
20
4.826714
30
0.0
11
-5.472921
21
3.478966
31
0.0
0
LINE
8
MCD_Layer_0
10
-4.023000
20
1.891167
30
0.0
11
-1.725667
21
3.478966
31
0.0
0
LINE
8
MCD_Layer_0
10
-4.023000
20
1.601128
30
0.0
11
-5.700063
21
3.478966
31
0.0
0
LINE
8
MCD_Layer_0
10
-4.023000
20
3.602104
30
0.0
11
-6.927602
21
3.490685
31
0.0
0
LINE
8
MCD_Layer_0
10
-4.023000
20
2.787651
30
0.0
11
-3.408681
21
3.478966
31
0.0
0
LINE
8
MCD_Layer_0
10
-4.023000
20
4.885307
30
0.0
11
-6.583822
21
3.490685
31
0.0
0
LINE
8
MCD_Layer_0
10
-4.022726
20
3.473198
30
0.0
11
-4.023000
21
1.973198
31
0.0
0
LINE
8
MCD_Layer_0
10
-2.736684
20
4.952141
30
0.0
11
-4.023000
21
4.973198
31
0.0
0
LINE
8
MCD_Layer_0
10
-5.587820
20
1.963127
30
0.0
11
-4.023000
21
2.723198
31
0.0
0
LINE
8
MCD_Layer_0
10
-1.181478
20
1.966606
30
0.0
11
-4.023000
21
0.473198
31
0.0
0
LINE
8
MCD_Layer_0
10
-3.600667
20
1.961845
30
0.0
11
-4.023000
21
1.973198
31
0.0
0
LINE
8
MCD_Layer_0
10
-3.197469
20
1.967522
30
0.0
11
-4.023000
21
0.473198
31
0.0
0
LINE
8
MCD_Layer_0
10
-3.888601
20
4.958733
30
0.0
11
-4.023000
21
3.473198
31
0.0
0
LINE
8
MCD_Layer_0
10
-4.005514
20
3.473198
30
0.0
11
-5.605031
21
5.770531
31
0.0
0
LINE
8
MCD_Layer_0
10
-4.005514
20
3.473198
30
0.0
11
-4.119680
21
1.262108
31
0.0
0
LINE
8
MCD_Layer_0
10
-4.005514
20
3.473198
30
0.0
11
-6.434133
21
1.789543
31
0.0
0
LINE
8
MCD_Layer_0
10
-4.773000
20
5.441124
30
0.0
11
-5.527120
21
3.473198
31
0.0
0
LINE
8
MCD_Layer_0
10
-3.273000
20
4.471581
30
0.0
11
-2.529592
21
3.473198
31
0.0
0
LINE
8
MCD_Layer_0
10
-4.773000
20
3.281120
30
0.0
11
-5.526754
21
3.473198
31
0.0
0
LINE
8
MCD_Layer_0
10
-4.023000
20
1.255608
30
0.0
11
-2.528310
21
3.473198
31
0.0
0
LINE
8
MCD_Layer_0
10
-1.773000
20
3.521172
30
0.0
11
-5.526388
21
3.473198
31
0.0
0
LINE
8
MCD_Layer_0
10
-5.523000
20
5.047539
30
0.0
11
-2.527395
21
3.473198
31
0.0
0
LINE
8
MCD_Layer_0
10
-4.023000
20
3.473198
30
0.0
11
-4.023000
21
1.103081
31
0.0
0
LINE
8
MCD_Layer_0
10
-4.916006
20
3.490685
30
0.0
11
-4.023000
21
3.177299
31
0.0
0
LINE
8
MCD_Layer_0
10
-5.064687
20
3.478966
30
0.0
11
-4.023000
21
2.242729
31
0.0
0
LINE
8
MCD_Layer_0
10
-4.855123
20
3.490685
30
0.0
11
-4.023000
21
5.354057
31
0.0
0
LINE
8
MCD_Layer_0
10
-4.843679
20
3.478966
30
0.0
11
-4.023000
21
2.274956
31
0.0
0
LINE
8
MCD_Layer_0
10
-4.848073
20
3.490685
30
0.0
11
-4.023000
21
5.582573
31
0.0
0
LINE
8
MCD_Layer_0
10
-4.023000
20
2.723198
30
0.0
11
-5.223073
21
1.969902
31
0.0
0
LINE
8
MCD_Layer_0
10
-4.023000
20
0.473198
30
0.0
11
-1.027853
21
1.969902
31
0.0
0
LINE
8
MCD_Layer_0
10
-4.023000
20
3.473198
30
0.0
11
-2.275808
21
4.970634
31
0.0
0
LINE
8
MCD_Layer_0
10
-4.023000
20
2.723198
30
0.0
11
-4.618276
21
1.969627
31
0.0
0
LINE
8
MCD_Layer_0
10
-4.023000
20
0.473198
30
0.0
11
-3.994253
21
4.971092
31
0.0
0
LINE
8
MCD_Layer_0
10
-6.393117
20
2.580193
30
0.0
11
-4.005514
21
3.473198
31
0.0
0
LINE
8
MCD_Layer_0
10
-2.651906
20
2.934227
30
0.0
11
-4.017232
21
3.473198
31
0.0
0
LINE
8
MCD_Layer_0
10
-1.037649
20
2.485252
30
0.0
11
-4.005514
21
3.473198
31
0.0
0
LINE
8
MCD_Layer_0
10
-3.085500
20
3.015984
30
0.0
11
-4.017232
21
3.473198
31
0.0
0
LINE
8
MCD_Layer_0
10
-3.352102
20
2.356438
30
0.0
11
-4.005514
21
3.473198
31
0.0
0
LINE
8
MCD_Layer_0
10
-3.571828
20
3.083641
30
0.0
11
-4.017232
21
3.473198
31
0.0
0
LINE
8
MCD_Layer_0
10
-4.023000
20
3.473198
30
0.0
11
-6.273000
21
5.585136
31
0.0
0
LINE
8
MCD_Layer_0
10
-5.527395
20
3.473198
30
0.0
11
-2.523000
21
5.748375
31
0.0
0
LINE
8
MCD_Layer_0
10
-2.524557
20
3.473198
30
0.0
11
-3.273000
21
4.001183
31
0.0
0
LINE
8
MCD_Layer_0
10
-5.528036
20
3.473198
30
0.0
11
-4.023000
21
5.354790
31
0.0
0
LINE
8
MCD_Layer_0
10
-2.524465
20
3.473198
30
0.0
11
-4.773000
21
4.154716
31
0.0
0
LINE
8
MCD_Layer_0
10
-5.528768
20
3.473198
30
0.0
11
-4.773000
21
1.994713
31
0.0
0
LINE
8
MCD_Layer_0
10
-2.524465
20
3.473198
30
0.0
11
-4.023000
21
3.473289
31
0.0
0
LINE
8
MCD_Layer_0
10
-4.023000
20
3.962456
30
0.0
11
-5.496908
21
3.490685
31
0.0
0
LINE
8
MCD_Layer_0
10
-4.023000
20
3.001518
30
0.0
11
-4.380422
21
3.478966
31
0.0
0
LINE
8
MCD_Layer_0
10
-4.023000
20
1.917534
30
0.0
11
-6.091268
21
3.490685
31
0.0
0
LINE
8
MCD_Layer_0
10
-4.023000
20
0.704643
30
0.0
11
-4.371725
21
3.478966
31
0.0
0
LINE
8
MCD_Layer_0
10
-4.023000
20
1.059135
30
0.0
11
-4.370718
21
3.478966
31
0.0
0
LINE
8
MCD_Layer_0
10
-3.024618
20
4.971825
30
0.0
11
-4.023000
21
4.973198
31
0.0
0
LINE
8
MCD_Layer_0
10
-5.789419
20
4.965050
30
0.0
11
-4.023000
21
2.723198
31
0.0
0
LINE
8
MCD_Layer_0
10
-3.283895
20
4.971825
30
0.0
11
-4.023000
21
2.723198
31
0.0
0
LINE
8
MCD_Layer_0
10
-3.341482
20
4.967430
30
0.0
11
-4.023000
21
2.723198
31
0.0
0
LINE
8
MCD_Layer_0
10
-5.501485
20
4.971733
30
0.0
11
-4.023000
21
3.473198
31
0.0
0
LINE
8
MCD_Layer_0
10
-4.023000
20
3.473198
30
0.0
11
-3.533742
21
1.999290
31
0.0
0
LINE
8
MCD_Layer_0
10
-4.017232
20
3.473198
30
0.0
11
-4.494680
21
3.115776
31
0.0
0
LINE
8
MCD_Layer_0
10
-4.017232
20
3.473198
30
0.0
11
-6.856008
21
2.186150
31
0.0
0
LINE
8
MCD_Layer_0
10
-4.017232
20
3.473198
30
0.0
11
-2.335500
21
3.105522
31
0.0
0
LINE
8
MCD_Layer_0
10
-4.017232
20
3.473198
30
0.0
11
-3.352102
21
2.356438
31
0.0
0
LINE
8
MCD_Layer_0
10
-4.017232
20
3.473198
30
0.0
11
-3.571828
21
3.083641
31
0.0
0
LINE
8
MCD_Layer_0
10
-6.273000
20
5.585136
30
0.0
11
-2.527395
21
3.473198
31
0.0
0
LINE
8
MCD_Layer_0
10
-2.523000
20
5.748375
30
0.0
11
-2.524557
21
3.473198
31
0.0
0
LINE
8
MCD_Layer_0
10
-1.773000
20
2.570763
30
0.0
11
-2.526937
21
3.473198
31
0.0
0
LINE
8
MCD_Layer_0
10
-4.023000
20
6.429985
30
0.0
11
-2.524831
21
3.473198
31
0.0
0
LINE
8
MCD_Layer_0
10
-7.023000
20
2.839561
30
0.0
11
-2.526571
21
3.473198
31
0.0
0
LINE
8
MCD_Layer_0
10
-7.023000
20
3.501945
30
0.0
11
-2.525106
21
3.473198
31
0.0
0
LINE
8
MCD_Layer_0
10
-4.023000
20
3.473198
30
0.0
11
-4.023000
21
3.273979
31
0.0
0
LINE
8
MCD_Layer_0
10
-4.916189
20
3.478966
30
0.0
11
-4.023000
21
4.844292
31
0.0
0
LINE
8
MCD_Layer_0
10
-4.561971
20
3.478966
30
0.0
11
-4.023000
21
4.413628
31
0.0
0
LINE
8
MCD_Layer_0
10
-4.855215
20
3.478966
30
0.0
11
-4.023000
21
0.754448
31
0.0
0
LINE
8
MCD_Layer_0
10
-4.672475
20
3.478966
30
0.0
11
-4.023000
21
4.442924
31
0.0
0
LINE
8
MCD_Layer_0
10
-4.848165
20
3.478966
30
0.0
11
-4.023000
21
5.582573
31
0.0
0
LINE
8
MCD_Layer_0
10
-4.023000
20
5.723198
30
0.0
11
-5.261434
21
4.969902
31
0.0
0
LINE
8
MCD_Layer_0
10
-4.023000
20
4.223198
30
0.0
11
-1.066213
21
4.969902
31
0.0
0
LINE
8
MCD_Layer_0
10
-4.023000
20
4.973198
30
0.0
11
-4.109426
21
4.969902
31
0.0
0
LINE
8
MCD_Layer_0
10
-4.023000
20
0.473198
30
0.0
11
-4.656637
21
4.969627
31
0.0
0
LINE
8
MCD_Layer_0
10
-4.023000
20
5.723198
30
0.0
11
-6.672628
21
4.969078
31
0.0
0
LINE
8
MCD_Layer_0
10
-4.222219
20
2.580009
30
0.0
11
-4.017232
21
3.473198
31
0.0
0
LINE
8
MCD_Layer_0
10
-4.318899
20
2.431511
30
0.0
11
-4.017232
21
3.473198
31
0.0
0
LINE
8
MCD_Layer_0
10
-1.037649
20
2.485252
30
0.0
11
-4.017232
21
3.473198
31
0.0
0
LINE
8
MCD_Layer_0
10
-2.889211
20
2.187981
30
0.0
11
-4.017232
21
3.473198
31
0.0
0
LINE
8
MCD_Layer_0
10
-3.352102
20
2.356438
30
0.0
11
-4.017232
21
3.473198
31
0.0
0
LINE
8
MCD_Layer_0
10
-1.160696
20
1.860954
30
0.0
11
-4.017232
21
3.473198
31
0.0
0
LINE
8
MCD_Layer_0
10
-2.527395
20
3.473198
30
0.0
11
-3.273000
21
4.749992
31
0.0
0
LINE
8
MCD_Layer_0
10
-2.529317
20
3.473198
30
0.0
11
-3.273000
21
4.001183
31
0.0
0
LINE
8
MCD_Layer_0
10
-2.528036
20
3.473198
30
0.0
11
-2.523000
21
4.999565
31
0.0
0
LINE
8
MCD_Layer_0
10
-2.530233
20
3.473198
30
0.0
11
-4.773000
21
4.154716
31
0.0
0
LINE
8
MCD_Layer_0
10
-2.528768
20
3.473198
30
0.0
11
-2.523000
21
5.738762
31
0.0
0
LINE
8
MCD_Layer_0
10
-2.531423
20
3.473198
30
0.0
11
-4.023000
21
3.473289
31
0.0
0
LINE
8
MCD_Layer_0
10
-4.023000
20
3.962456
30
0.0
11
-5.496908
21
3.478966
31
0.0
0
LINE
8
MCD_Layer_0
10
-4.023000
20
1.463432
30
0.0
11
-6.170461
21
3.478966
31
0.0
0
LINE
8
MCD_Layer_0
10
-4.023000
20
1.275932
30
0.0
11
-6.092458
21
3.478966
31
0.0
0
LINE
8
MCD_Layer_0
10
-4.023000
20
3.587456
30
0.0
11
-6.619802
21
3.478966
31
0.0
0
LINE
8
MCD_Layer_0
10
-4.023000
20
3.660698
30
0.0
11
-6.726003
21
3.478966
31
0.0
0
LINE
8
MCD_Layer_0
10
-5.991018
20
4.962578
30
0.0
11
-4.023000
21
1.223198
31
0.0
0
LINE
8
MCD_Layer_0
10
-5.482259
20
1.965050
30
0.0
11
-4.023000
21
2.723198
31
0.0
0
LINE
8
MCD_Layer_0
10
-2.803884
20
4.963036
30
0.0
11
-4.023000
21
2.723198
31
0.0
0
LINE
8
MCD_Layer_0
10
-3.341482
20
1.967430
30
0.0
11
-4.023000
21
4.973198
31
0.0
0
LINE
8
MCD_Layer_0
10
-1.757436
20
4.964775
30
0.0
11
-4.023000
21
3.473198
31
0.0
0
LINE
8
MCD_Layer_0
10
-4.005514
20
3.473198
30
0.0
11
-6.032766
21
1.325737
31
0.0
0
LINE
8
MCD_Layer_0
10
-4.005514
20
3.473198
30
0.0
11
-3.267141
21
1.627586
31
0.0
0
LINE
8
MCD_Layer_0
10
-4.005514
20
3.473198
30
0.0
11
-1.160696
21
1.860954
31
0.0
0
LINE
8
MCD_Layer_0
10
-6.273000
20
5.585136
30
0.0
11
-5.527395
21
3.473198
31
0.0
0
LINE
8
MCD_Layer_0
10
-3.273000
20
4.749992
30
0.0
11
-2.529317
21
3.473198
31
0.0
0
LINE
8
MCD_Layer_0
10
-1.773000
20
2.570763
30
0.0
11
-5.526937
21
3.473198
31
0.0
0
LINE
8
MCD_Layer_0
10
-1.773000
20
4.461967
30
0.0
11
-2.528036
21
3.473198
31
0.0
0
LINE
8
MCD_Layer_0
10
-4.773000
20
2.877922
30
0.0
11
-5.526571
21
3.473198
31
0.0
0
LINE
8
MCD_Layer_0
10
-1.773000
20
0.823570
30
0.0
11
-2.527120
21
3.473198
31
0.0
0
LINE
8
MCD_Layer_0
10
-4.023000
20
3.473198
30
0.0
11
-4.023000
21
5.576714
31
0.0
0
LINE
8
MCD_Layer_0
10
-5.102132
20
3.490685
30
0.0
11
-4.023000
21
6.276909
31
0.0
0
LINE
8
MCD_Layer_0
10
-4.993093
20
3.478966
30
0.0
11
-4.023000
21
1.724174
31
0.0
0
LINE
8
MCD_Layer_0
10
-5.075765
20
3.490685
30
0.0
11
-4.023000
21
5.318901
31
0.0
0
LINE
8
MCD_Layer_0
10
-4.884328
20
3.478966
30
0.0
11
-4.023000
21
5.884331
31
0.0
0
LINE
8
MCD_Layer_0
10
-5.058187
20
3.490685
30
0.0
11
-4.023000
21
5.582573
31
0.0
0
LINE
8
MCD_Layer_0
10
-4.023000
20
2.723198
30
0.0
11
-5.021474
21
1.969078
31
0.0
0
LINE
8
MCD_Layer_0
10
-4.023000
20
5.723198
30
0.0
11
-3.514242
21
1.969078
31
0.0
0
LINE
8
MCD_Layer_0
10
-4.023000
20
3.473198
30
0.0
11
-3.072591
21
4.970726
31
0.0
0
LINE
8
MCD_Layer_0
10
-4.023000
20
1.973198
30
0.0
11
-4.272665
21
1.968895
31
0.0
0
LINE
8
MCD_Layer_0
10
-4.023000
20
4.973198
30
0.0
11
-1.152639
21
4.970909
31
0.0
0
LINE
8
MCD_Layer_0
10
-1.919485
20
2.394066
30
0.0
11
-4.005514
21
3.473198
31
0.0
0
LINE
8
MCD_Layer_0
10
-1.204641
20
2.898430
30
0.0
11
-4.017232
21
3.473198
31
0.0
0
LINE
8
MCD_Layer_0
10
-2.898000
20
2.341881
30
0.0
11
-4.005514
21
3.473198
31
0.0
0
LINE
8
MCD_Layer_0
10
-7.011281
20
2.961052
30
0.0
11
-4.017232
21
3.473198
31
0.0
0
LINE
8
MCD_Layer_0
10
-1.131399
20
2.149254
30
0.0
11
-4.005514
21
3.473198
31
0.0
0
LINE
8
MCD_Layer_0
10
-1.937063
20
3.029991
30
0.0
11
-4.017232
21
3.473198
31
0.0
0
LINE
8
MCD_Layer_0
10
-4.023000
20
3.473198
30
0.0
11
-1.773000
21
0.554771
31
0.0
0
LINE
8
MCD_Layer_0
10
-5.528219
20
3.473198
30
0.0
11
-4.023000
21
4.020409
31
0.0
0
LINE
8
MCD_Layer_0
10
-2.524740
20
3.473198
30
0.0
11
-3.273000
21
4.001183
31
0.0
0
LINE
8
MCD_Layer_0
10
-5.528768
20
3.473198
30
0.0
11
-5.523000
21
5.508324
31
0.0
0
LINE
8
MCD_Layer_0
10
-2.524648
20
3.473198
30
0.0
11
-6.273000
21
1.399529
31
0.0
0
LINE
8
MCD_Layer_0
10
-5.529684
20
3.473198
30
0.0
11
-5.523000
21
3.348320
31
0.0
0
LINE
8
MCD_Layer_0
10
-2.524648
20
3.473198
30
0.0
11
-4.023000
21
3.473289
31
0.0
0
LINE
8
MCD_Layer_0
10
-4.023000
20
0.628471
30
0.0
11
-5.718648
21
3.490685
31
0.0
0
LINE
8
MCD_Layer_0
10
-4.023000
20
1.522026
30
0.0
11
-4.421987
21
3.478966
31
0.0
0
LINE
8
MCD_Layer_0
10
-4.023000
20
5.767143
30
0.0
11
-6.492635
21
3.490685
31
0.0
0
LINE
8
MCD_Layer_0
10
-4.023000
20
1.955620
30
0.0
11
-4.409994
21
3.478966
31
0.0
0
LINE
8
MCD_Layer_0
10
-4.023000
20
3.109917
30
0.0
11
-4.409261
21
3.478966
31
0.0
0
LINE
8
MCD_Layer_0
10
-4.023000
20
3.473198
30
0.0
11
-4.023000
21
0.473198
31
0.0
0
LINE
8
MCD_Layer_0
10
-6.883840
20
4.971642
30
0.0
11
-4.023000
21
2.723198
31
0.0
0
LINE
8
MCD_Layer_0
10
-6.240682
20
4.963493
30
0.0
11
-4.023000
21
4.973198
31
0.0
0
LINE
8
MCD_Layer_0
10
-1.075826
20
4.971642
30
0.0
11
-4.023000
21
1.223198
31
0.0
0
LINE
8
MCD_Layer_0
10
-6.096670
20
4.966515
30
0.0
11
-4.023000
21
1.973198
31
0.0
0
LINE
8
MCD_Layer_0
10
-4.147878
20
4.971550
30
0.0
11
-4.023000
21
3.473198
31
0.0
0
LINE
8
MCD_Layer_0
10
-4.023000
20
3.473198
30
0.0
11
-6.867727
21
1.777550
31
0.0
0
LINE
8
MCD_Layer_0
10
-4.017232
20
3.473198
30
0.0
11
-5.974172
21
3.074211
31
0.0
0
LINE
8
MCD_Layer_0
10
-4.017232
20
3.473198
30
0.0
11
-2.514211
21
1.998375
31
0.0
0
LINE
8
MCD_Layer_0
10
-4.017232
20
3.473198
30
0.0
11
-5.013235
21
3.059196
31
0.0
0
LINE
8
MCD_Layer_0
10
-4.017232
20
3.473198
30
0.0
11
-2.792531
21
2.148979
31
0.0
0
LINE
8
MCD_Layer_0
10
-4.017232
20
3.473198
30
0.0
11
-1.937063
21
3.029991
31
0.0
0
LINE
8
MCD_Layer_0
10
-7.023000
20
0.477959
30
0.0
11
-2.528219
21
3.473198
31
0.0
0
LINE
8
MCD_Layer_0
10
-4.023000
20
4.020409
30
0.0
11
-2.524740
21
3.473198
31
0.0
0
LINE
8
MCD_Layer_0
10
-4.023000
20
1.860405
30
0.0
11
-2.527486
21
3.473198
31
0.0
0
LINE
8
MCD_Layer_0
10
-7.023000
20
4.375542
30
0.0
11
-2.525014
21
3.473198
31
0.0
0
LINE
8
MCD_Layer_0
10
-5.523000
20
3.223534
30
0.0
11
-2.527303
21
3.473198
31
0.0
0
LINE
8
MCD_Layer_0
10
-2.523000
20
6.343559
30
0.0
11
-2.525289
21
3.473198
31
0.0
0
LINE
8
MCD_Layer_0
10
-5.102132
20
3.478966
30
0.0
11
-4.023000
21
6.291557
31
0.0
0
LINE
8
MCD_Layer_0
10
-4.597768
20
3.478966
30
0.0
11
-4.023000
21
3.892143
31
0.0
0
LINE
8
MCD_Layer_0
10
-5.075857
20
3.478966
30
0.0
11
-4.023000
21
0.777885
31
0.0
0
LINE
8
MCD_Layer_0
10
-4.652151
20
3.478966
30
0.0
11
-4.023000
21
5.884331
31
0.0
0
LINE
8
MCD_Layer_0
10
-5.058187
20
3.478966
30
0.0
11
-4.023000
21
5.582573
31
0.0
0
LINE
8
MCD_Layer_0
10
-4.023000
20
2.723198
30
0.0
11
-5.021474
21
4.969078
31
0.0
0
LINE
8
MCD_Layer_0
10
-4.023000
20
2.723198
30
0.0
11
-3.552694
21
4.969078
31
0.0
0
LINE
8
MCD_Layer_0
10
-4.023000
20
1.973198
30
0.0
11
-2.515859
21
4.969810
31
0.0
0
LINE
8
MCD_Layer_0
10
-4.023000
20
1.973198
30
0.0
11
-4.272665
21
4.968895
31
0.0
0
LINE
8
MCD_Layer_0
10
-4.023000
20
1.223198
30
0.0
11
-6.355855
21
4.969353
31
0.0
0
LINE
8
MCD_Layer_0
10
-1.919485
20
2.394066
30
0.0
11
-4.017232
21
3.473198
31
0.0
0
LINE
8
MCD_Layer_0
10
-1.219289
20
2.503105
30
0.0
11
-4.017232
21
3.473198
31
0.0
0
LINE
8
MCD_Layer_0
10
-2.898000
20
2.341881
30
0.0
11
-4.017232
21
3.473198
31
0.0
0
LINE
8
MCD_Layer_0
10
-1.603078
20
2.377861
30
0.0
11
-4.017232
21
3.473198
31
0.0
0
LINE
8
MCD_Layer_0
10
-2.792531
20
2.148979
30
0.0
11
-4.017232
21
3.473198
31
0.0
0
LINE
8
MCD_Layer_0
10
-3.117727
20
2.131584
30
0.0
11
-4.017232
21
3.473198
31
0.0
0
LINE
8
MCD_Layer_0
10
-4.023000
20
3.473198
30
0.0
11
-7.023000
21
0.477959
31
0.0
0
LINE
8
MCD_Layer_0
10
-2.528219
20
3.473198
30
0.0
11
-6.273000
21
2.023552
31
0.0
0
LINE
8
MCD_Layer_0
10
-2.528310
20
3.473198
30
0.0
11
-1.773000
21
3.924370
31
0.0
0
LINE
8
MCD_Layer_0
10
-2.528768
20
3.473198
30
0.0
11
-6.273000
21
2.148338
31
0.0
0
LINE
8
MCD_Layer_0
10
-2.528768
20
3.473198
30
0.0
11
-6.273000
21
1.399529
31
0.0
0
LINE
8
MCD_Layer_0
10
-2.529684
20
3.473198
30
0.0
11
-4.023000
21
6.103600
31
0.0
0
LINE
8
MCD_Layer_0
10
-2.529043
20
3.473198
30
0.0
11
-4.023000
21
3.473289
31
0.0
0
LINE
8
MCD_Layer_0
10
-4.023000
20
0.628471
30
0.0
11
-5.718648
21
3.478966
31
0.0
0
LINE
8
MCD_Layer_0
10
-4.023000
20
4.856010
30
0.0
11
-5.559621
21
3.478966
31
0.0
0
LINE
8
MCD_Layer_0
10
-4.023000
20
5.767143
30
0.0
11
-6.492635
21
3.478966
31
0.0
0
LINE
8
MCD_Layer_0
10
-4.023000
20
4.076714
30
0.0
11
-5.656209
21
3.478966
31
0.0
0
LINE
8
MCD_Layer_0
10
-4.023000
20
0.859917
30
0.0
11
-5.662252
21
3.478966
31
0.0
0
LINE
8
MCD_Layer_0
10
-3.658254
20
4.966789
30
0.0
11
-4.023000
21
2.723198
31
0.0
0
LINE
8
MCD_Layer_0
10
-6.240682
20
1.963493
30
0.0
11
-4.023000
21
1.973198
31
0.0
0
LINE
8
MCD_Layer_0
10
-2.122274
20
4.966789
30
0.0
11
-4.023000
21
1.223198
31
0.0
0
LINE
8
MCD_Layer_0
10
-6.096670
20
1.966515
30
0.0
11
-4.023000
21
3.473198
31
0.0
0
LINE
8
MCD_Layer_0
10
-1.392599
20
4.967155
30
0.0
11
-4.023000
21
3.473198
31
0.0
0
LINE
8
MCD_Layer_0
10
-4.005514
20
3.473198
30
0.0
11
-2.640188
21
1.936577
31
0.0
0
LINE
8
MCD_Layer_0
10
-4.017232
20
3.473198
30
0.0
11
-6.856008
21
1.998650
31
0.0
0
LINE
8
MCD_Layer_0
10
-4.005514
20
3.473198
30
0.0
11
-1.172414
21
2.014854
31
0.0
0
LINE
8
MCD_Layer_0
10
-4.017232
20
3.473198
30
0.0
11
-1.131399
21
2.149254
31
0.0
0
LINE
8
MCD_Layer_0
10
-4.005514
20
3.473198
30
0.0
11
-3.117727
21
2.131584
31
0.0
0
LINE
8
MCD_Layer_0
10
-1.773000
20
0.554771
30
0.0
11
-5.528219
21
3.473198
31
0.0
0
LINE
8
MCD_Layer_0
10
-6.273000
20
2.023552
30
0.0
11
-2.528310
21
3.473198
31
0.0
0
LINE
8
MCD_Layer_0
10
-4.023000
20
1.860405
30
0.0
11
-5.527486
21
3.473198
31
0.0
0
LINE
8
MCD_Layer_0
10
-2.523000
20
5.076378
30
0.0
11
-2.527303
21
3.473198
31
0.0
0
LINE
8
MCD_Layer_0
10
-5.523000
20
3.223534
30
0.0
11
-5.527303
21
3.473198
31
0.0
0
LINE
8
MCD_Layer_0
10
-6.273000
20
1.140343
30
0.0
11
-2.526845
21
3.473198
31
0.0
0
LINE
8
MCD_Layer_0
10
-4.023000
20
3.473198
30
0.0
11
-4.023000
21
1.897026
31
0.0
0
LINE
8
MCD_Layer_0
10
-5.220968
20
3.490685
30
0.0
11
-4.023000
21
3.903862
31
0.0
0
LINE
8
MCD_Layer_0
10
-5.042257
20
3.478966
30
0.0
11
-4.023000
21
3.022026
31
0.0
0
LINE
8
MCD_Layer_0
10
-5.133535
20
3.490685
30
0.0
11
-4.023000
21
3.338432
31
0.0
0
LINE
8
MCD_Layer_0
10
-4.868490
20
3.478966
30
0.0
11
-4.023000
21
5.893120
31
0.0
0
LINE
8
MCD_Layer_0
10
-5.118337
20
3.490685
30
0.0
11
-4.023000
21
5.582573
31
0.0
0
LINE
8
MCD_Layer_0
10
-4.023000
20
4.973198
30
0.0
11
-2.419820
21
1.968895
31
0.0
0
LINE
8
MCD_Layer_0
10
-4.023000
20
1.973198
30
0.0
11
-6.298269
21
1.968803
31
0.0
0
LINE
8
MCD_Layer_0
10
-4.023000
20
0.473198
30
0.0
11
-5.127035
21
4.970634
31
0.0
0
LINE
8
MCD_Layer_0
10
-4.023000
20
1.973198
30
0.0
11
-4.685476
21
1.968437
31
0.0
0
LINE
8
MCD_Layer_0
10
-4.023000
20
3.473198
30
0.0
11
-6.855001
21
4.971001
31
0.0
0
LINE
8
MCD_Layer_0
10
-5.599172
20
2.275230
30
0.0
11
-4.005514
21
3.473198
31
0.0
0
LINE
8
MCD_Layer_0
10
-3.015188
20
2.923058
30
0.0
11
-4.017232
21
3.473198
31
0.0
0
LINE
8
MCD_Layer_0
10
-6.325735
20
2.159142
30
0.0
11
-4.005514
21
3.473198
31
0.0
0
LINE
8
MCD_Layer_0
10
-5.024953
20
2.978722
30
0.0
11
-4.017232
21
3.473198
31
0.0
0
LINE
8
MCD_Layer_0
10
-3.926321
20
1.934196
30
0.0
11
-4.005514
21
3.473198
31
0.0
0
LINE
8
MCD_Layer_0
10
-4.925344
20
3.033470
30
0.0
11
-4.017232
21
3.473198
31
0.0
0
LINE
8
MCD_Layer_0
10
-4.023000
20
3.473198
30
0.0
11
-3.273000
21
5.489189
31
0.0
0
LINE
8
MCD_Layer_0
10
-5.529043
20
3.473198
30
0.0
11
-7.023000
21
4.922752
31
0.0
0
LINE
8
MCD_Layer_0
10
-2.524740
20
3.473198
30
0.0
11
-2.523000
21
3.588371
31
0.0
0
LINE
8
MCD_Layer_0
10
-5.531423
20
3.473198
30
0.0
11
-2.523000
21
4.529167
31
0.0
0
LINE
8
MCD_Layer_0
10
-2.524648
20
3.473198
30
0.0
11
-4.023000
21
3.473198
31
0.0
0
LINE
8
MCD_Layer_0
10
-4.023000
20
3.473198
30
0.0
11
-4.023000
21
5.297203
31
0.0
0
LINE
8
MCD_Layer_0
10
-4.023000
20
2.418510
30
0.0
11
-4.437826
21
3.478966
31
0.0
0
LINE
8
MCD_Layer_0
10
-4.023000
20
2.963432
30
0.0
11
-6.178884
21
3.478966
31
0.0
0
LINE
8
MCD_Layer_0
10
-4.023000
20
3.807182
30
0.0
11
-4.440755
21
3.478966
31
0.0
0
LINE
8
MCD_Layer_0
10
-4.023000
20
3.569878
30
0.0
11
-5.562002
21
3.478966
31
0.0
0
LINE
8
MCD_Layer_0
10
-4.023000
20
2.570854
30
0.0
11
-4.462728
21
3.478966
31
0.0
0
LINE
8
MCD_Layer_0
10
-4.022726
20
3.473198
30
0.0
11
-4.023000
21
4.223198
31
0.0
0
LINE
8
MCD_Layer_0
10
-2.007009
20
4.967155
30
0.0
11
-4.023000
21
0.473198
31
0.0
0
LINE
8
MCD_Layer_0
10
-2.573446
20
4.971458
30
0.0
11
-4.023000
21
2.723198
31
0.0
0
LINE
8
MCD_Layer_0
10
-4.483877
20
4.967979
30
0.0
11
-4.023000
21
4.973198
31
0.0
0
LINE
8
MCD_Layer_0
10
-4.589437
20
4.971184
30
0.0
11
-4.023000
21
2.723198
31
0.0
0
LINE
8
MCD_Layer_0
10
-4.762289
20
4.968437
30
0.0
11
-4.023000
21
3.473198
31
0.0
0
LINE
8
MCD_Layer_0
10
-6.855001
20
4.971001
30
0.0
11
-4.023000
21
3.473198
31
0.0
0
LINE
8
MCD_Layer_0
10
-4.023000
20
3.473198
30
0.0
11
-1.260305
21
2.274956
31
0.0
0
LINE
8
MCD_Layer_0
10
-4.017232
20
3.473198
30
0.0
11
-3.015188
21
2.923058
31
0.0
0
LINE
8
MCD_Layer_0
10
-4.017232
20
3.473198
30
0.0
11
-4.474172
21
2.362663
31
0.0
0
LINE
8
MCD_Layer_0
10
-4.017232
20
3.473198
30
0.0
11
-4.644094
21
2.835991
31
0.0
0
LINE
8
MCD_Layer_0
10
-4.017232
20
3.473198
30
0.0
11
-1.603078
21
2.377861
31
0.0
0
LINE
8
MCD_Layer_0
10
-4.017232
20
3.473198
30
0.0
11
-1.913625
21
2.755791
31
0.0
0
LINE
8
MCD_Layer_0
10
-4.023000
20
5.825188
30
0.0
11
-2.525838
21
3.473198
31
0.0
0
LINE
8
MCD_Layer_0
10
-5.523000
20
1.197929
30
0.0
11
-2.527395
21
3.473198
31
0.0
0
LINE
8
MCD_Layer_0
10
-2.523000
20
3.050774
30
0.0
11
-2.526388
21
3.473198
31
0.0
0
LINE
8
MCD_Layer_0
10
-4.773000
20
2.733910
30
0.0
11
-2.527761
21
3.473198
31
0.0
0
LINE
8
MCD_Layer_0
10
-1.773000
20
0.545158
30
0.0
11
-2.527029
21
3.473198
31
0.0
0
LINE
8
MCD_Layer_0
10
-4.023000
20
3.473198
30
0.0
11
-4.023000
21
6.235893
31
0.0
0
LINE
8
MCD_Layer_0
10
-5.221242
20
3.478966
30
0.0
11
-4.023000
21
3.903862
31
0.0
0
LINE
8
MCD_Layer_0
10
-5.042257
20
3.478966
30
0.0
11
-4.023000
21
5.509331
31
0.0
0
LINE
8
MCD_Layer_0
10
-5.337331
20
3.478966
30
0.0
11
-4.023000
21
6.364799
31
0.0
0
LINE
8
MCD_Layer_0
10
-5.159444
20
3.478966
30
0.0
11
-4.023000
21
3.569878
31
0.0
0
LINE
8
MCD_Layer_0
10
-5.562002
20
3.478966
30
0.0
11
-4.023000
21
5.978081
31
0.0
0
LINE
8
MCD_Layer_0
10
-5.378438
20
3.478966
30
0.0
11
-4.023000
21
3.496635
31
0.0
0
LINE
8
MCD_Layer_0
10
-4.023000
20
4.223198
30
0.0
11
-2.007009
21
4.967155
31
0.0
0
LINE
8
MCD_Layer_0
10
-4.023000
20
2.723198
30
0.0
11
-3.005483
21
4.967888
31
0.0
0
LINE
8
MCD_Layer_0
10
-4.023000
20
4.973198
30
0.0
11
-3.907827
21
4.964775
31
0.0
0
LINE
8
MCD_Layer_0
10
-4.023000
20
0.473198
30
0.0
11
-1.431051
21
4.967522
31
0.0
0
LINE
8
MCD_Layer_0
10
-4.023000
20
3.473198
30
0.0
11
-4.503011
21
4.967430
31
0.0
0
LINE
8
MCD_Layer_0
10
-6.905813
20
2.018150
30
0.0
11
-4.017232
21
3.473198
31
0.0
0
LINE
8
MCD_Layer_0
10
-4.532766
20
1.317314
30
0.0
11
-4.005514
21
3.473198
31
0.0
0
LINE
8
MCD_Layer_0
10
-6.472219
20
2.030144
30
0.0
11
-4.017232
21
3.473198
31
0.0
0
LINE
8
MCD_Layer_0
10
-1.518117
20
2.117760
30
0.0
11
-4.017232
21
3.473198
31
0.0
0
LINE
8
MCD_Layer_0
10
-5.529043
20
3.473198
30
0.0
11
-4.773000
21
4.490715
31
0.0
0
LINE
8
MCD_Layer_0
10
-2.528310
20
3.473198
30
0.0
11
-5.523000
21
3.089134
31
0.0
0
LINE
8
MCD_Layer_0
10
-5.528219
20
3.473198
30
0.0
11
-1.773000
21
0.554771
31
0.0
0
LINE
8
MCD_Layer_0
10
-2.527486
20
3.473198
30
0.0
11
-5.523000
21
2.810722
31
0.0
0
LINE
8
MCD_Layer_0
10
-5.527761
20
3.473198
30
0.0
11
-1.773000
21
0.545158
31
0.0
0
LINE
8
MCD_Layer_0
10
-2.527029
20
3.473198
30
0.0
11
-4.023000
21
3.473289
31
0.0
0
LINE
8
MCD_Layer_0
10
-0.885327
20
3.473198
30
0.0
11
-0.885327
21
3.520073
31
0.0
0
LINE
8
MCD_Layer_0
10
-0.885327
20
3.473198
30
0.0
11
-0.885327
21
4.738823
31
0.0
0
LINE
8
MCD_Layer_0
10
-2.892346
20
3.490685
30
0.0
11
-0.885327
21
5.345268
31
0.0
0
LINE
8
MCD_Layer_0
10
-3.333355
20
3.490685
30
0.0
11
-0.885327
21
3.763237
31
0.0
0
LINE
8
MCD_Layer_0
10
-1.846081
20
3.490685
30
0.0
11
-0.885327
21
4.097221
31
0.0
0
LINE
8
MCD_Layer_0
10
-1.326336
20
3.478966
30
0.0
11
-0.885327
21
3.496635
31
0.0
0
LINE
8
MCD_Layer_0
10
-0.885327
20
3.543510
30
0.0
11
-0.878735
21
3.473198
31
0.0
0
LINE
8
MCD_Layer_0
10
-0.885327
20
3.473198
30
0.0
11
-0.885052
21
3.473198
31
0.0
0
LINE
8
MCD_Layer_0
10
-0.885327
20
5.723198
30
0.0
11
-0.837353
21
1.969444
31
0.0
0
LINE
8
MCD_Layer_0
10
-0.885327
20
1.223198
30
0.0
11
0.218616
21
4.971458
31
0.0
0
LINE
8
MCD_Layer_0
10
-0.885327
20
1.973198
30
0.0
11
-3.621380
21
1.969536
31
0.0
0
LINE
8
MCD_Layer_0
10
-0.885327
20
2.723198
30
0.0
11
0.746601
21
4.971550
31
0.0
0
LINE
8
MCD_Layer_0
10
-0.885327
20
2.723198
30
0.0
11
-0.261395
21
1.969810
31
0.0
0
LINE
8
MCD_Layer_0
10
-0.885327
20
1.973198
30
0.0
11
-2.949383
21
4.971550
31
0.0
0
LINE
8
MCD_Layer_0
10
-0.885327
20
3.473198
30
0.0
11
-0.885235
21
3.473198
31
0.0
0
LINE
8
MCD_Layer_0
10
0.427357
20
3.473198
30
0.0
11
-0.885327
21
3.473198
31
0.0
0
LINE
8
MCD_Layer_0
10
-0.838452
20
3.473198
30
0.0
11
-0.885327
21
3.473198
31
0.0
0
LINE
8
MCD_Layer_0
10
-3.138256
20
2.608391
30
0.0
11
-0.867840
21
3.473198
31
0.0
0
LINE
8
MCD_Layer_0
10
-1.266186
20
3.066612
30
0.0
11
-0.879559
21
3.473198
31
0.0
0
LINE
8
MCD_Layer_0
10
-2.851147
20
2.678886
30
0.0
11
-0.867840
21
3.473198
31
0.0
0
LINE
8
MCD_Layer_0
10
-0.861889
20
3.473198
30
0.0
11
-0.885327
21
3.473198
31
0.0
0
LINE
8
MCD_Layer_0
10
-0.885327
20
3.473198
30
0.0
11
-0.838452
21
3.478325
31
0.0
0
LINE
8
MCD_Layer_0
10
-0.885327
20
3.473198
30
0.0
11
-0.885327
21
3.473381
31
0.0
0
LINE
8
MCD_Layer_0
10
-0.885327
20
3.473198
30
0.0
11
-0.135327
21
4.145195
31
0.0
0
LINE
8
MCD_Layer_0
10
-2.388439
20
3.473198
30
0.0
11
-2.385327
21
1.409142
31
0.0
0
LINE
8
MCD_Layer_0
10
0.613026
20
3.473198
30
0.0
11
-0.135327
21
4.145195
31
0.0
0
LINE
8
MCD_Layer_0
10
-2.388439
20
3.473198
30
0.0
11
-0.885327
21
5.633202
31
0.0
0
LINE
8
MCD_Layer_0
10
0.613300
20
3.473198
30
0.0
11
-0.885327
21
3.473289
31
0.0
0
LINE
8
MCD_Layer_0
10
-0.885327
20
4.785881
30
0.0
11
-0.885327
21
3.473198
31
0.0
0
LINE
8
MCD_Layer_0
10
-0.885327
20
3.520073
30
0.0
11
-0.885327
21
3.473198
31
0.0
0
LINE
8
MCD_Layer_0
10
-0.885327
20
1.507378
30
0.0
11
-1.679638
21
3.490685
31
0.0
0
LINE
8
MCD_Layer_0
10
-0.885327
20
4.434135
30
0.0
11
-1.228466
21
3.478966
31
0.0
0
LINE
8
MCD_Layer_0
10
-0.885327
20
2.664604
30
0.0
11
-2.616406
21
3.490685
31
0.0
0
LINE
8
MCD_Layer_0
10
-0.885327
20
3.496635
30
0.0
11
-0.885327
21
3.473198
31
0.0
0
LINE
8
MCD_Layer_0
10
-0.880200
20
3.473198
30
0.0
11
-0.885327
21
3.473198
31
0.0
0
LINE
8
MCD_Layer_0
10
-0.885143
20
3.473198
30
0.0
11
-0.885327
21
0.473198
31
0.0
0
LINE
8
MCD_Layer_0
10
-0.021343
20
1.966423
30
0.0
11
-0.885327
21
3.473198
31
0.0
0
LINE
8
MCD_Layer_0
10
1.274677
20
4.971825
30
0.0
11
-0.885327
21
0.473198
31
0.0
0
LINE
8
MCD_Layer_0
10
-0.021343
20
1.966423
30
0.0
11
-0.885327
21
1.973198
31
0.0
0
LINE
8
MCD_Layer_0
10
-2.949383
20
4.971550
30
0.0
11
-0.885327
21
3.473198
31
0.0
0
LINE
8
MCD_Layer_0
10
-0.885235
20
3.473198
30
0.0
11
-0.885327
21
3.473198
31
0.0
0
LINE
8
MCD_Layer_0
10
-0.885327
20
3.473198
30
0.0
11
0.427357
21
3.473198
31
0.0
0
LINE
8
MCD_Layer_0
10
-0.885327
20
3.473198
30
0.0
11
-0.838452
21
3.473198
31
0.0
0
LINE
8
MCD_Layer_0
10
-0.885327
20
3.473198
30
0.0
11
-1.693920
21
1.742119
31
0.0
0
LINE
8
MCD_Layer_0
10
-0.867840
20
3.473198
30
0.0
11
-1.266186
21
3.066612
31
0.0
0
LINE
8
MCD_Layer_0
10
-0.879559
20
3.473198
30
0.0
11
-1.652905
21
2.097618
31
0.0
0
LINE
8
MCD_Layer_0
10
-0.879559
20
3.473198
30
0.0
11
-0.861889
21
3.473198
31
0.0
0
LINE
8
MCD_Layer_0
10
-0.838452
20
3.478325
30
0.0
11
-0.885327
21
3.473198
31
0.0
0
LINE
8
MCD_Layer_0
10
-0.885327
20
3.473381
30
0.0
11
-0.885327
21
3.473198
31
0.0
0
LINE
8
MCD_Layer_0
10
0.614673
20
5.345177
30
0.0
11
-2.390728
21
3.473198
31
0.0
0
LINE
8
MCD_Layer_0
10
-2.385327
20
1.409142
30
0.0
11
0.613026
21
3.473198
31
0.0
0
LINE
8
MCD_Layer_0
10
-0.885327
20
3.137199
30
0.0
11
0.604603
21
3.473198
31
0.0
0
LINE
8
MCD_Layer_0
10
-1.635327
20
5.297112
30
0.0
11
0.611194
21
3.473198
31
0.0
0
LINE
8
MCD_Layer_0
10
-0.885327
20
3.473289
30
0.0
11
-0.885327
21
3.473198
31
0.0
0
LINE
8
MCD_Layer_0
10
-0.885327
20
3.473198
30
0.0
11
-0.885327
21
4.785881
31
0.0
0
LINE
8
MCD_Layer_0
10
-0.885327
20
3.473198
30
0.0
11
-0.885327
21
1.457573
31
0.0
0
LINE
8
MCD_Layer_0
10
-3.441387
20
3.478966
30
0.0
11
-0.885327
21
2.415581
31
0.0
0
LINE
8
MCD_Layer_0
10
-1.768902
20
3.478966
30
0.0
11
-0.885327
21
1.451714
31
0.0
0
LINE
8
MCD_Layer_0
10
-2.128887
20
3.478966
30
0.0
11
-0.885327
21
3.092339
31
0.0
0
LINE
8
MCD_Layer_0
10
-1.291912
20
3.478966
30
0.0
11
-0.885327
21
3.496635
31
0.0
0
LINE
8
MCD_Layer_0
10
-0.885327
20
3.520073
30
0.0
11
-0.880200
21
3.473198
31
0.0
0
LINE
8
MCD_Layer_0
10
-0.885327
20
1.973198
30
0.0
11
-1.221417
21
4.968254
31
0.0
0
LINE
8
MCD_Layer_0
10
-0.885327
20
4.973198
30
0.0
11
-0.357342
21
4.967430
31
0.0
0
LINE
8
MCD_Layer_0
10
-3.715405
20
1.998650
30
0.0
11
-0.879559
21
3.473198
31
0.0
0
LINE
8
MCD_Layer_0
10
0.075611
20
3.130058
30
0.0
11
-0.879559
21
3.473198
31
0.0
0
LINE
8
MCD_Layer_0
10
-0.885327
20
3.473198
30
0.0
11
0.614673
21
4.001183
31
0.0
0
LINE
8
MCD_Layer_0
10
0.608906
20
3.473198
30
0.0
11
-0.885327
21
5.633202
31
0.0
0
LINE
8
MCD_Layer_0
10
0.613300
20
3.473198
30
0.0
11
-0.135327
21
4.145195
31
0.0
0
LINE
8
MCD_Layer_0
10
0.611561
20
3.473198
30
0.0
11
-0.885327
21
5.633202
31
0.0
0
LINE
8
MCD_Layer_0
10
-0.885327
20
1.507378
30
0.0
11
-1.679638
21
3.478966
31
0.0
0
LINE
8
MCD_Layer_0
10
-0.885327
20
3.092339
30
0.0
11
-1.291912
21
3.478966
31
0.0
0
LINE
8
MCD_Layer_0
10
-0.885143
20
3.473198
30
0.0
11
-0.885327
21
4.223198
31
0.0
0
LINE
8
MCD_Layer_0
10
-0.213329
20
4.970085
30
0.0
11
-0.885327
21
1.973198
31
0.0
0
LINE
8
MCD_Layer_0
10
-2.949383
20
4.971550
30
0.0
11
-0.885327
21
1.223198
31
0.0
0
LINE
8
MCD_Layer_0
10
0.890613
20
4.969810
30
0.0
11
-0.885327
21
1.973198
31
0.0
0
LINE
8
MCD_Layer_0
10
-0.885327
20
3.473198
30
0.0
11
0.802448
21
3.473198
31
0.0
0
LINE
8
MCD_Layer_0
10
-0.885327
20
3.473198
30
0.0
11
-0.815014
21
3.473198
31
0.0
0
LINE
8
MCD_Layer_0
10
-0.885327
20
3.473198
30
0.0
11
-2.230053
21
2.612877
31
0.0
0
LINE
8
MCD_Layer_0
10
-0.879559
20
3.473198
30
0.0
11
-1.266186
21
3.066612
31
0.0
0
LINE
8
MCD_Layer_0
10
-0.879559
20
3.473198
30
0.0
11
-2.083569
21
2.554375
31
0.0
0
LINE
8
MCD_Layer_0
10
-0.879559
20
3.473198
30
0.0
11
-3.091381
21
3.057640
31
0.0
0
LINE
8
MCD_Layer_0
10
-0.879559
20
3.473198
30
0.0
11
-3.384350
21
2.518394
31
0.0
0
LINE
8
MCD_Layer_0
10
-0.879559
20
3.473198
30
0.0
11
0.892994
21
3.032921
31
0.0
0
LINE
8
MCD_Layer_0
10
1.364673
20
5.057152
30
0.0
11
0.610920
21
3.473198
31
0.0
0
LINE
8
MCD_Layer_0
10
-1.635327
20
4.769127
30
0.0
11
0.612934
21
3.473198
31
0.0
0
LINE
8
MCD_Layer_0
10
-0.885327
20
4.529076
30
0.0
11
0.606068
21
3.473198
31
0.0
0
LINE
8
MCD_Layer_0
10
-1.635327
20
0.785118
30
0.0
11
-2.394940
21
3.473198
31
0.0
0
LINE
8
MCD_Layer_0
10
-0.885327
20
3.473198
30
0.0
11
-0.885327
21
3.777885
31
0.0
0
LINE
8
MCD_Layer_0
10
-3.084332
20
3.478966
30
0.0
11
-0.885327
21
5.345268
31
0.0
0
LINE
8
MCD_Layer_0
10
-3.333355
20
3.490685
30
0.0
11
-0.885327
21
4.738823
31
0.0
0
LINE
8
MCD_Layer_0
10
-3.333355
20
3.490685
30
0.0
11
-0.885327
21
3.496635
31
0.0
0
LINE
8
MCD_Layer_0
10
-0.885327
20
3.473198
30
0.0
11
-0.933300
21
1.963310
31
0.0
0
LINE
8
MCD_Layer_0
10
-0.885327
20
5.723198
30
0.0
11
1.850635
21
4.963219
31
0.0
0
LINE
8
MCD_Layer_0
10
-0.885327
20
2.723198
30
0.0
11
1.418598
21
1.969170
31
0.0
0
LINE
8
MCD_Layer_0
10
-0.885327
20
1.973198
30
0.0
11
1.562611
21
4.971458
31
0.0
0
LINE
8
MCD_Layer_0
10
0.802448
20
3.473198
30
0.0
11
-0.885327
21
3.473198
31
0.0
0
LINE
8
MCD_Layer_0
10
-0.815014
20
3.473198
30
0.0
11
-0.885327
21
3.473198
31
0.0
0
LINE
8
MCD_Layer_0
10
0.939869
20
2.450920
30
0.0
11
-0.867840
21
3.473198
31
0.0
0
LINE
8
MCD_Layer_0
10
1.804127
20
3.037407
30
0.0
11
-0.879559
21
3.473198
31
0.0
0
LINE
8
MCD_Layer_0
10
-3.331616
20
2.498894
30
0.0
11
-0.867840
21
3.473198
31
0.0
0
LINE
8
MCD_Layer_0
10
0.556080
20
3.075676
30
0.0
11
-0.879559
21
3.473198
31
0.0
0
LINE
8
MCD_Layer_0
10
1.997486
20
2.584404
30
0.0
11
-0.867840
21
3.473198
31
0.0
0
LINE
8
MCD_Layer_0
10
-0.885327
20
3.098198
30
0.0
11
-0.879559
21
3.473198
31
0.0
0
LINE
8
MCD_Layer_0
10
-0.885327
20
3.473198
30
0.0
11
-0.885327
21
3.953209
31
0.0
0
LINE
8
MCD_Layer_0
10
-2.388806
20
3.473198
30
0.0
11
-0.885327
21
3.473198
31
0.0
0
LINE
8
MCD_Layer_0
10
0.613209
20
3.473198
30
0.0
11
1.364673
21
6.017174
31
0.0
0
LINE
8
MCD_Layer_0
10
-2.388714
20
3.473198
30
0.0
11
-0.885327
21
3.473198
31
0.0
0
LINE
8
MCD_Layer_0
10
0.613209
20
3.473198
30
0.0
11
-0.885327
21
3.473289
31
0.0
0
LINE
8
MCD_Layer_0
10
-0.885327
20
0.739799
30
0.0
11
-1.742626
21
3.490685
31
0.0
0
LINE
8
MCD_Layer_0
10
-0.885327
20
3.473198
30
0.0
11
-1.260327
21
3.478966
31
0.0
0
LINE
8
MCD_Layer_0
10
-0.885327
20
4.240776
30
0.0
11
-1.244213
21
3.478966
31
0.0
0
LINE
8
MCD_Layer_0
10
-0.885143
20
3.473198
30
0.0
11
-0.885327
21
5.723198
31
0.0
0
LINE
8
MCD_Layer_0
10
1.658649
20
1.969810
30
0.0
11
-0.885327
21
1.973198
31
0.0
0
LINE
8
MCD_Layer_0
10
-2.757397
20
4.971733
30
0.0
11
-0.885327
21
0.473198
31
0.0
0
LINE
8
MCD_Layer_0
10
-3.189343
20
1.967247
30
0.0
11
-0.885327
21
1.973198
31
0.0
0
LINE
8
MCD_Layer_0
10
-2.757397
20
4.971733
30
0.0
11
-0.885327
21
3.473198
31
0.0
0
LINE
8
MCD_Layer_0
10
-0.885327
20
3.473198
30
0.0
11
-2.701733
21
1.964134
31
0.0
0
LINE
8
MCD_Layer_0
10
-0.867840
20
3.473198
30
0.0
11
-0.117748
21
3.114311
31
0.0
0
LINE
8
MCD_Layer_0
10
-0.879559
20
3.473198
30
0.0
11
-2.701733
21
1.964134
31
0.0
0
LINE
8
MCD_Layer_0
10
-0.867840
20
3.473198
30
0.0
11
-0.885327
21
3.098198
31
0.0
0
LINE
8
MCD_Layer_0
10
-3.885327
20
1.169182
30
0.0
11
-2.391277
21
3.473198
31
0.0
0
LINE
8
MCD_Layer_0
10
-0.885327
20
3.473198
30
0.0
11
0.613209
21
3.473198
31
0.0
0
LINE
8
MCD_Layer_0
10
-0.885327
20
2.129204
30
0.0
11
-2.390911
21
3.473198
31
0.0
0
LINE
8
MCD_Layer_0
10
-0.885327
20
3.473198
30
0.0
11
-0.885327
21
5.160973
31
0.0
0
LINE
8
MCD_Layer_0
10
-0.885327
20
3.473198
30
0.0
11
-0.885327
21
3.543510
31
0.0
0
LINE
8
MCD_Layer_0
10
-0.885327
20
3.473198
30
0.0
11
-0.885327
21
1.410698
31
0.0
0
LINE
8
MCD_Layer_0
10
-2.296887
20
3.490685
30
0.0
11
-0.885327
21
3.473198
31
0.0
0
LINE
8
MCD_Layer_0
10
-1.260327
20
3.478966
30
0.0
11
-0.885327
21
4.340385
31
0.0
0
LINE
8
MCD_Layer_0
10
-2.173840
20
3.490685
30
0.0
11
-0.885327
21
5.585503
31
0.0
0
LINE
8
MCD_Layer_0
10
-1.274609
20
3.478966
30
0.0
11
-0.885327
21
4.773979
31
0.0
0
LINE
8
MCD_Layer_0
10
-2.161846
20
3.490685
30
0.0
11
-0.885327
21
1.744682
31
0.0
0
LINE
8
MCD_Layer_0
10
-1.308392
20
3.478966
30
0.0
11
-0.885327
21
3.496635
31
0.0
0
LINE
8
MCD_Layer_0
10
-0.885327
20
0.473198
30
0.0
11
-3.669354
21
1.968163
31
0.0
0
LINE
8
MCD_Layer_0
10
-0.885327
20
4.973198
30
0.0
11
-1.173351
21
4.971458
31
0.0
0
LINE
8
MCD_Layer_0
10
-0.885327
20
3.473198
30
0.0
11
-1.509350
21
4.962944
31
0.0
0
LINE
8
MCD_Layer_0
10
-0.885327
20
2.723198
30
0.0
11
2.090595
21
4.968987
31
0.0
0
LINE
8
MCD_Layer_0
10
1.364673
20
0.869164
30
0.0
11
-0.879559
21
3.473198
31
0.0
0
LINE
8
MCD_Layer_0
10
-1.028881
20
2.406609
30
0.0
11
-0.879559
21
3.473198
31
0.0
0
LINE
8
MCD_Layer_0
10
-3.199780
20
2.346642
30
0.0
11
-0.879559
21
3.473198
31
0.0
0
LINE
8
MCD_Layer_0
10
-3.091381
20
3.057640
30
0.0
11
-0.879559
21
3.473198
31
0.0
0
LINE
8
MCD_Layer_0
10
-0.885327
20
3.473198
30
0.0
11
-0.815014
21
3.479790
31
0.0
0
LINE
8
MCD_Layer_0
10
-0.885327
20
3.473198
30
0.0
11
-0.885327
21
3.473473
31
0.0
0
LINE
8
MCD_Layer_0
10
-0.885327
20
3.473198
30
0.0
11
0.614673
21
3.089134
31
0.0
0
LINE
8
MCD_Layer_0
10
0.610187
20
3.473198
30
0.0
11
-1.635327
21
5.105125
31
0.0
0
LINE
8
MCD_Layer_0
10
0.613026
20
3.473198
30
0.0
11
0.614673
21
5.249138
31
0.0
0
LINE
8
MCD_Layer_0
10
0.610187
20
3.473198
30
0.0
11
-3.885327
21
6.209160
31
0.0
0
LINE
8
MCD_Layer_0
10
0.613117
20
3.473198
30
0.0
11
0.614673
21
3.905144
31
0.0
0
LINE
8
MCD_Layer_0
10
0.609821
20
3.473198
30
0.0
11
-0.885327
21
3.473198
31
0.0
0
LINE
8
MCD_Layer_0
10
-0.885327
20
6.057182
30
0.0
11
-2.125866
21
3.478966
31
0.0
0
LINE
8
MCD_Layer_0
10
-0.885327
20
2.178276
30
0.0
11
-2.233898
21
3.478966
31
0.0
0
LINE
8
MCD_Layer_0
10
-0.885143
20
3.473198
30
0.0
11
-0.885327
21
1.973198
31
0.0
0
LINE
8
MCD_Layer_0
10
1.898609
20
4.967888
30
0.0
11
-0.885327
21
3.473198
31
0.0
0
LINE
8
MCD_Layer_0
10
-0.885327
20
4.971733
30
0.0
11
-0.885327
21
1.973198
31
0.0
0
LINE
8
MCD_Layer_0
10
1.898609
20
4.967888
30
0.0
11
-0.885327
21
1.973198
31
0.0
0
LINE
8
MCD_Layer_0
10
-0.885327
20
3.473198
30
0.0
11
-2.180248
21
2.124626
31
0.0
0
LINE
8
MCD_Layer_0
10
-0.879559
20
3.473198
30
0.0
11
-0.117748
21
3.114311
31
0.0
0
LINE
8
MCD_Layer_0
10
-0.879559
20
3.473198
30
0.0
11
-3.624584
21
2.615898
31
0.0
0
LINE
8
MCD_Layer_0
10
-0.135327
20
6.017174
30
0.0
11
0.611286
21
3.473198
31
0.0
0
LINE
8
MCD_Layer_0
10
-2.385327
20
1.601128
30
0.0
11
0.613209
21
3.473198
31
0.0
0
LINE
8
MCD_Layer_0
10
-0.885327
20
3.473198
30
0.0
11
-0.885327
21
0.733940
31
0.0
0
LINE
8
MCD_Layer_0
10
-1.742626
20
3.478966
30
0.0
11
-0.885327
21
3.473198
31
0.0
0
LINE
8
MCD_Layer_0
10
-1.260327
20
3.478966
30
0.0
11
-0.885327
21
6.353081
31
0.0
0
LINE
8
MCD_Layer_0
10
-1.774120
20
3.478966
30
0.0
11
-0.885327
21
3.473198
31
0.0
0
LINE
8
MCD_Layer_0
10
-1.260327
20
3.478966
30
0.0
11
-0.885327
21
3.496635
31
0.0
0
LINE
8
MCD_Layer_0
10
-0.885327
20
2.723198
30
0.0
11
-0.405407
21
4.969719
31
0.0
0
LINE
8
MCD_Layer_0
10
-0.885327
20
3.473198
30
0.0
11
-0.885327
21
4.971733
31
0.0
0
LINE
8
MCD_Layer_0
10
-0.885327
20
1.223198
30
0.0
11
-2.613384
21
4.969444
31
0.0
0
LINE
8
MCD_Layer_0
10
-0.885327
20
4.973198
30
0.0
11
-3.189343
21
4.971642
31
0.0
0
LINE
8
MCD_Layer_0
10
-0.885327
20
1.223198
30
0.0
11
-0.741406
21
4.969261
31
0.0
0
LINE
8
MCD_Layer_0
10
-0.885327
20
0.473198
30
0.0
11
-0.981365
21
4.971458
31
0.0
0
LINE
8
MCD_Layer_0
10
-0.026928
20
2.465935
30
0.0
11
-0.879559
21
3.473198
31
0.0
0
LINE
8
MCD_Layer_0
10
-1.459545
20
3.050865
30
0.0
11
-0.879559
21
3.473198
31
0.0
0
LINE
8
MCD_Layer_0
10
1.739673
20
0.506157
30
0.0
11
-0.879559
21
3.473198
31
0.0
0
LINE
8
MCD_Layer_0
10
-2.470287
20
0.929131
30
0.0
11
-0.879559
21
3.473198
31
0.0
0
LINE
8
MCD_Layer_0
10
-0.885327
20
3.473198
30
0.0
11
-0.885327
21
5.920952
31
0.0
0
LINE
8
MCD_Layer_0
10
0.603046
20
3.473198
30
0.0
11
1.364673
21
6.209160
31
0.0
0
LINE
8
MCD_Layer_0
10
0.604694
20
3.473198
30
0.0
11
-0.885327
21
3.425224
31
0.0
0
LINE
8
MCD_Layer_0
10
-2.395214
20
3.473198
30
0.0
11
1.364673
21
6.209160
31
0.0
0
LINE
8
MCD_Layer_0
10
0.604694
20
3.473198
30
0.0
11
-0.885327
21
3.473289
31
0.0
0
LINE
8
MCD_Layer_0
10
2.313000
20
3.473198
30
0.0
11
2.313000
21
3.520073
31
0.0
0
LINE
8
MCD_Layer_0
10
2.313000
20
3.473198
30
0.0
11
2.313000
21
5.682182
31
0.0
0
LINE
8
MCD_Layer_0
10
1.322216
20
3.490685
30
0.0
11
2.313000
21
3.473198
31
0.0
0
LINE
8
MCD_Layer_0
10
2.313000
20
3.473198
30
0.0
11
2.313000
21
5.679253
31
0.0
0
LINE
8
MCD_Layer_0
10
1.322216
20
3.478966
30
0.0
11
2.313000
21
3.473198
31
0.0
0
LINE
8
MCD_Layer_0
10
2.313000
20
3.473198
30
0.0
11
2.313000
21
3.496635
31
0.0
0
LINE
8
MCD_Layer_0
10
2.313000
20
3.520073
30
0.0
11
2.318127
21
3.473198
31
0.0
0
LINE
8
MCD_Layer_0
10
2.313000
20
3.473198
30
0.0
11
2.313183
21
3.473198
31
0.0
0
LINE
8
MCD_Layer_0
10
2.313000
20
4.223198
30
0.0
11
0.680981
21
4.969261
31
0.0
0
LINE
8
MCD_Layer_0
10
2.313000
20
5.723198
30
0.0
11
3.224957
21
4.968895
31
0.0
0
LINE
8
MCD_Layer_0
10
2.313000
20
3.473198
30
0.0
11
2.313091
21
3.473198
31
0.0
0
LINE
8
MCD_Layer_0
10
3.625683
20
3.473198
30
0.0
11
2.313000
21
3.473198
31
0.0
0
LINE
8
MCD_Layer_0
10
2.359875
20
3.473198
30
0.0
11
2.313000
21
3.473198
31
0.0
0
LINE
8
MCD_Layer_0
10
4.519054
20
2.482414
30
0.0
11
2.318768
21
3.473198
31
0.0
0
LINE
8
MCD_Layer_0
10
1.782726
20
2.375114
30
0.0
11
2.318768
21
3.473198
31
0.0
0
LINE
8
MCD_Layer_0
10
2.119640
20
2.238609
30
0.0
11
2.318768
21
3.473198
31
0.0
0
LINE
8
MCD_Layer_0
10
2.336437
20
3.473198
30
0.0
11
2.313000
21
3.473198
31
0.0
0
LINE
8
MCD_Layer_0
10
2.313000
20
3.473198
30
0.0
11
2.359875
21
3.478325
31
0.0
0
LINE
8
MCD_Layer_0
10
2.313000
20
3.473198
30
0.0
11
2.313000
21
3.473381
31
0.0
0
LINE
8
MCD_Layer_0
10
2.313000
20
3.473198
30
0.0
11
0.813000
21
5.441124
31
0.0
0
LINE
8
MCD_Layer_0
10
3.808147
20
3.473198
30
0.0
11
4.563000
21
4.385155
31
0.0
0
LINE
8
MCD_Layer_0
10
3.808697
20
3.473198
30
0.0
11
0.813000
21
5.441124
31
0.0
0
LINE
8
MCD_Layer_0
10
3.808147
20
3.473198
30
0.0
11
2.313000
21
4.625206
31
0.0
0
LINE
8
MCD_Layer_0
10
3.807873
20
3.473198
30
0.0
11
2.313000
21
3.473289
31
0.0
0
LINE
8
MCD_Layer_0
10
2.313000
20
5.160973
30
0.0
11
2.313000
21
3.473198
31
0.0
0
LINE
8
MCD_Layer_0
10
2.313000
20
3.543510
30
0.0
11
2.313000
21
3.473198
31
0.0
0
LINE
8
MCD_Layer_0
10
2.313000
20
3.279839
30
0.0
11
1.078411
21
3.478966
31
0.0
0
LINE
8
MCD_Layer_0
10
2.313000
20
4.387260
30
0.0
11
1.004986
21
3.478966
31
0.0
0
LINE
8
MCD_Layer_0
10
2.313000
20
5.635307
30
0.0
11
1.060467
21
3.478966
31
0.0
0
LINE
8
MCD_Layer_0
10
2.313000
20
5.872612
30
0.0
11
0.962963
21
3.478966
31
0.0
0
LINE
8
MCD_Layer_0
10
2.313000
20
2.506401
30
0.0
11
1.015423
21
3.478966
31
0.0
0
LINE
8
MCD_Layer_0
10
2.313000
20
3.616753
30
0.0
11
0.941998
21
3.478966
31
0.0
0
LINE
8
MCD_Layer_0
10
2.313000
20
3.496635
30
0.0
11
2.313000
21
3.473198
31
0.0
0
LINE
8
MCD_Layer_0
10
2.318127
20
3.473198
30
0.0
11
2.313000
21
3.473198
31
0.0
0
LINE
8
MCD_Layer_0
10
2.313183
20
3.473198
30
0.0
11
2.313000
21
1.973198
31
0.0
0
LINE
8
MCD_Layer_0
10
0.152905
20
4.968071
30
0.0
11
2.313000
21
4.223198
31
0.0
0
LINE
8
MCD_Layer_0
10
-0.663013
20
4.967796
30
0.0
11
2.313000
21
0.473198
31
0.0
0
LINE
8
MCD_Layer_0
10
0.920940
20
1.965874
30
0.0
11
2.313000
21
4.223198
31
0.0
0
LINE
8
MCD_Layer_0
10
-0.663013
20
4.967796
30
0.0
11
2.313000
21
3.473198
31
0.0
0
LINE
8
MCD_Layer_0
10
2.313091
20
3.473198
30
0.0
11
2.313000
21
3.473198
31
0.0
0
LINE
8
MCD_Layer_0
10
2.313000
20
3.473198
30
0.0
11
3.625683
21
3.473198
31
0.0
0
LINE
8
MCD_Layer_0
10
2.313000
20
3.473198
30
0.0
11
2.359875
21
3.473198
31
0.0
0
LINE
8
MCD_Layer_0
10
2.313000
20
3.473198
30
0.0
11
-0.042469
21
1.616142
31
0.0
0
LINE
8
MCD_Layer_0
10
2.330486
20
3.473198
30
0.0
11
2.456554
21
2.102196
31
0.0
0
LINE
8
MCD_Layer_0
10
2.318768
20
3.473198
30
0.0
11
-0.042469
21
1.616142
31
0.0
0
LINE
8
MCD_Layer_0
10
2.330486
20
3.473198
30
0.0
11
2.696789
21
2.754692
31
0.0
0
LINE
8
MCD_Layer_0
10
2.318768
20
3.473198
30
0.0
11
2.336437
21
3.473198
31
0.0
0
LINE
8
MCD_Layer_0
10
2.359875
20
3.478325
30
0.0
11
2.313000
21
3.473198
31
0.0
0
LINE
8
MCD_Layer_0
10
2.313000
20
3.473381
30
0.0
11
2.313000
21
3.473198
31
0.0
0
LINE
8
MCD_Layer_0
10
-0.687000
20
2.081139
30
0.0
11
0.805676
21
3.473198
31
0.0
0
LINE
8
MCD_Layer_0
10
4.563000
20
5.537163
30
0.0
11
3.810162
21
3.473198
31
0.0
0
LINE
8
MCD_Layer_0
10
2.313000
20
5.297203
30
0.0
11
3.805859
21
3.473198
31
0.0
0
LINE
8
MCD_Layer_0
10
2.313000
20
3.473289
30
0.0
11
2.313000
21
3.473198
31
0.0
0
LINE
8
MCD_Layer_0
10
2.313000
20
3.473198
30
0.0
11
2.313000
21
4.785881
31
0.0
0
LINE
8
MCD_Layer_0
10
2.313000
20
3.473198
30
0.0
11
2.313000
21
2.418510
31
0.0
0
LINE
8
MCD_Layer_0
10
0.491924
20
3.478966
30
0.0
11
2.313000
21
3.856987
31
0.0
0
LINE
8
MCD_Layer_0
10
1.594494
20
3.478966
30
0.0
11
2.313000
21
2.418510
31
0.0
0
LINE
8
MCD_Layer_0
10
0.491924
20
3.478966
30
0.0
11
2.313000
21
3.569878
31
0.0
0
LINE
8
MCD_Layer_0
10
1.523998
20
3.478966
30
0.0
11
2.313000
21
3.496635
31
0.0
0
LINE
8
MCD_Layer_0
10
2.313000
20
3.473198
30
0.0
11
4.137005
21
4.966057
31
0.0
0
LINE
8
MCD_Layer_0
10
2.313000
20
4.223198
30
0.0
11
4.328991
21
4.970085
31
0.0
0
LINE
8
MCD_Layer_0
10
2.313000
20
4.973198
30
0.0
11
1.832989
21
4.968163
31
0.0
0
LINE
8
MCD_Layer_0
10
-0.563953
20
2.205650
30
0.0
11
2.318768
21
3.473198
31
0.0
0
LINE
8
MCD_Layer_0
10
2.409679
20
2.684196
30
0.0
11
2.318768
21
3.473198
31
0.0
0
LINE
8
MCD_Layer_0
10
5.049328
20
2.924156
30
0.0
11
2.318768
21
3.473198
31
0.0
0
LINE
8
MCD_Layer_0
10
2.313000
20
3.473198
30
0.0
11
3.813000
21
2.993187
31
0.0
0
LINE
8
MCD_Layer_0
10
3.807964
20
3.473198
30
0.0
11
0.813000
21
0.929131
31
0.0
0
LINE
8
MCD_Layer_0
10
3.810802
20
3.473198
30
0.0
11
2.313000
21
5.297203
31
0.0
0
LINE
8
MCD_Layer_0
10
3.805859
20
3.473198
30
0.0
11
0.813000
21
0.929131
31
0.0
0
LINE
8
MCD_Layer_0
10
3.810802
20
3.473198
30
0.0
11
2.313000
21
3.473289
31
0.0
0
LINE
8
MCD_Layer_0
10
2.313000
20
4.785881
30
0.0
11
2.313000
21
3.473198
31
0.0
0
LINE
8
MCD_Layer_0
10
2.313000
20
3.520073
30
0.0
11
2.313000
21
3.473198
31
0.0
0
LINE
8
MCD_Layer_0
10
2.313000
20
2.418510
30
0.0
11
0.491924
21
3.478966
31
0.0
0
LINE
8
MCD_Layer_0
10
2.313000
20
6.209526
30
0.0
11
1.763958
21
3.478966
31
0.0
0
LINE
8
MCD_Layer_0
10
2.313000
20
5.632378
30
0.0
11
1.716717
21
3.478966
31
0.0
0
LINE
8
MCD_Layer_0
10
2.313183
20
3.473198
30
0.0
11
2.313000
21
3.473198
31
0.0
0
LINE
8
MCD_Layer_0
10
4.137005
20
4.966057
30
0.0
11
2.313000
21
4.223198
31
0.0
0
LINE
8
MCD_Layer_0
10
-0.327015
20
4.970818
30
0.0
11
2.313000
21
0.473198
31
0.0
0
LINE
8
MCD_Layer_0
10
2.600933
20
1.966057
30
0.0
11
2.313000
21
4.223198
31
0.0
0
LINE
8
MCD_Layer_0
10
-0.327015
20
4.970818
30
0.0
11
2.313000
21
3.473198
31
0.0
0
LINE
8
MCD_Layer_0
10
2.313000
20
3.473198
30
0.0
11
4.035656
21
1.646172
31
0.0
0
LINE
8
MCD_Layer_0
10
2.330486
20
3.473198
30
0.0
11
4.472179
21
2.876915
31
0.0
0
LINE
8
MCD_Layer_0
10
2.318768
20
3.473198
30
0.0
11
4.035656
21
1.646172
31
0.0
0
LINE
8
MCD_Layer_0
10
2.330486
20
3.473198
30
0.0
11
1.545422
21
3.035118
31
0.0
0
LINE
8
MCD_Layer_0
10
-0.687000
20
3.761131
30
0.0
11
0.805859
21
3.473198
31
0.0
0
LINE
8
MCD_Layer_0
10
3.813000
20
5.345177
30
0.0
11
3.811260
21
3.473198
31
0.0
0
LINE
8
MCD_Layer_0
10
0.813000
20
4.769127
30
0.0
11
3.807232
21
3.473198
31
0.0
0
LINE
8
MCD_Layer_0
10
2.313000
20
3.473198
30
0.0
11
2.313000
21
5.248589
31
0.0
0
LINE
8
MCD_Layer_0
10
0.841473
20
3.478966
30
0.0
11
2.313000
21
2.705620
31
0.0
0
LINE
8
MCD_Layer_0
10
1.874920
20
3.478966
30
0.0
11
2.313000
21
5.248589
31
0.0
0
LINE
8
MCD_Layer_0
10
0.841473
20
3.478966
30
0.0
11
2.313000
21
1.935112
31
0.0
0
LINE
8
MCD_Layer_0
10
1.811932
20
3.478966
30
0.0
11
2.313000
21
3.496635
31
0.0
0
LINE
8
MCD_Layer_0
10
2.313000
20
1.973198
30
0.0
11
3.608929
21
4.967430
31
0.0
0
LINE
8
MCD_Layer_0
10
2.313000
20
5.723198
30
0.0
11
0.056957
21
4.971184
31
0.0
0
LINE
8
MCD_Layer_0
10
2.313000
20
4.223198
30
0.0
11
2.648998
21
4.968895
31
0.0
0
LINE
8
MCD_Layer_0
10
4.331554
20
2.372917
30
0.0
11
2.318768
21
3.473198
31
0.0
0
LINE
8
MCD_Layer_0
10
0.774914
20
2.972130
30
0.0
11
2.318768
21
3.473198
31
0.0
0
LINE
8
MCD_Layer_0
10
2.696789
20
3.129692
30
0.0
11
2.318768
21
3.473198
31
0.0
0
LINE
8
MCD_Layer_0
10
2.313000
20
3.473198
30
0.0
11
3.063000
21
3.809196
31
0.0
0
LINE
8
MCD_Layer_0
10
3.808697
20
3.473198
30
0.0
11
4.563000
21
5.537163
31
0.0
0
LINE
8
MCD_Layer_0
10
3.811626
20
3.473198
30
0.0
11
0.813000
21
3.761131
31
0.0
0
LINE
8
MCD_Layer_0
10
0.809155
20
3.473198
30
0.0
11
4.563000
21
5.537163
31
0.0
0
LINE
8
MCD_Layer_0
10
3.811626
20
3.473198
30
0.0
11
2.313000
21
3.473289
31
0.0
0
LINE
8
MCD_Layer_0
10
2.313000
20
5.201714
30
0.0
11
1.329723
21
3.490685
31
0.0
0
LINE
8
MCD_Layer_0
10
2.313000
20
3.856987
30
0.0
11
1.969494
21
3.478966
31
0.0
0
LINE
8
MCD_Layer_0
10
2.313000
20
3.092339
30
0.0
11
1.906414
21
3.478966
31
0.0
0
LINE
8
MCD_Layer_0
10
2.600933
20
1.969353
30
0.0
11
2.313000
21
1.973198
31
0.0
0
LINE
8
MCD_Layer_0
10
0.248943
20
4.971550
30
0.0
11
2.313000
21
4.973198
31
0.0
0
LINE
8
MCD_Layer_0
10
4.184978
20
1.968895
30
0.0
11
2.313000
21
1.973198
31
0.0
0
LINE
8
MCD_Layer_0
10
0.248943
20
4.971550
30
0.0
11
2.313000
21
3.473198
31
0.0
0
LINE
8
MCD_Layer_0
10
2.313000
20
3.473198
30
0.0
11
1.545422
21
2.378868
31
0.0
0
LINE
8
MCD_Layer_0
10
2.330486
20
3.473198
30
0.0
11
1.932140
21
3.066612
31
0.0
0
LINE
8
MCD_Layer_0
10
2.318768
20
3.473198
30
0.0
11
1.545422
21
2.378868
31
0.0
0
LINE
8
MCD_Layer_0
10
2.330486
20
3.473198
30
0.0
11
0.921398
21
1.976128
31
0.0
0
LINE
8
MCD_Layer_0
10
3.813000
20
5.345177
30
0.0
11
0.808697
21
3.473198
31
0.0
0
LINE
8
MCD_Layer_0
10
0.063000
20
4.241142
30
0.0
11
3.807140
21
3.473198
31
0.0
0
LINE
8
MCD_Layer_0
10
3.813000
20
1.841179
30
0.0
11
0.809063
21
3.473198
31
0.0
0
LINE
8
MCD_Layer_0
10
1.322216
20
3.490685
30
0.0
11
2.313000
21
2.081596
31
0.0
0
LINE
8
MCD_Layer_0
10
0.815929
20
3.478966
30
0.0
11
2.313000
21
5.682182
31
0.0
0
LINE
8
MCD_Layer_0
10
2.313000
20
0.473198
30
0.0
11
2.552959
21
1.969078
31
0.0
0
LINE
8
MCD_Layer_0
10
2.313000
20
4.223198
30
0.0
11
-0.663013
21
4.964867
31
0.0
0
LINE
8
MCD_Layer_0
10
2.313000
20
1.223198
30
0.0
11
2.552959
21
4.969078
31
0.0
0
LINE
8
MCD_Layer_0
10
3.757336
20
2.419426
30
0.0
11
2.318768
21
3.473198
31
0.0
0
LINE
8
MCD_Layer_0
10
2.456554
20
1.352196
30
0.0
11
2.318768
21
3.473198
31
0.0
0
LINE
8
MCD_Layer_0
10
-0.279774
20
2.276146
30
0.0
11
2.318768
21
3.473198
31
0.0
0
LINE
8
MCD_Layer_0
10
2.313000
20
3.473198
30
0.0
11
0.063000
21
3.713158
31
0.0
0
LINE
8
MCD_Layer_0
10
3.808880
20
3.473198
30
0.0
11
4.563000
21
3.041161
31
0.0
0
LINE
8
MCD_Layer_0
10
3.808239
20
3.473198
30
0.0
11
0.063000
21
5.585136
31
0.0
0
LINE
8
MCD_Layer_0
10
3.808605
20
3.473198
30
0.0
11
4.563000
21
3.041161
31
0.0
0
LINE
8
MCD_Layer_0
10
3.808239
20
3.473198
30
0.0
11
2.313000
21
3.473289
31
0.0
0
LINE
8
MCD_Layer_0
10
2.313000
20
4.144096
30
0.0
11
1.196239
21
3.478966
31
0.0
0
LINE
8
MCD_Layer_0
10
2.313000
20
0.880424
30
0.0
11
1.115948
21
3.478966
31
0.0
0
LINE
8
MCD_Layer_0
10
2.313000
20
3.473198
30
0.0
11
2.313000
21
3.543510
31
0.0
0
LINE
8
MCD_Layer_0
10
2.319592
20
3.473198
30
0.0
11
2.313000
21
3.473198
31
0.0
0
LINE
8
MCD_Layer_0
10
2.313274
20
3.473198
30
0.0
11
2.313000
21
1.223198
31
0.0
0
LINE
8
MCD_Layer_0
10
4.424938
20
4.968803
30
0.0
11
2.313000
21
4.223198
31
0.0
0
LINE
8
MCD_Layer_0
10
-0.663013
20
4.967796
30
0.0
11
2.313000
21
1.973198
31
0.0
0
LINE
8
MCD_Layer_0
10
3.320904
20
4.968712
30
0.0
11
2.313000
21
0.473198
31
0.0
0
LINE
8
MCD_Layer_0
10
1.064953
20
4.967430
30
0.0
11
2.313000
21
1.973198
31
0.0
0
LINE
8
MCD_Layer_0
10
4.280926
20
4.968346
30
0.0
11
2.313000
21
1.223198
31
0.0
0
LINE
8
MCD_Layer_0
10
3.080944
20
4.967339
30
0.0
11
2.313000
21
3.473198
31
0.0
0
LINE
8
MCD_Layer_0
10
2.313000
20
3.473198
30
0.0
11
2.119640
21
2.238609
31
0.0
0
LINE
8
MCD_Layer_0
10
2.318768
20
3.473198
30
0.0
11
0.921398
21
1.976128
31
0.0
0
LINE
8
MCD_Layer_0
10
2.318768
20
3.473198
30
0.0
11
3.033703
21
1.868187
31
0.0
0
LINE
8
MCD_Layer_0
10
0.813000
20
0.593132
30
0.0
11
0.806683
21
3.473198
31
0.0
0
LINE
8
MCD_Layer_0
10
0.813000
20
1.601128
30
0.0
11
3.810253
21
3.473198
31
0.0
0
LINE
8
MCD_Layer_0
10
2.313000
20
3.473198
30
0.0
11
2.313000
21
4.193901
31
0.0
0
LINE
8
MCD_Layer_0
10
0.707989
20
3.490685
30
0.0
11
2.313000
21
4.240776
31
0.0
0
LINE
8
MCD_Layer_0
10
1.625988
20
3.478966
30
0.0
11
2.313000
21
2.418510
31
0.0
0
LINE
8
MCD_Layer_0
10
0.491924
20
3.478966
30
0.0
11
2.313000
21
4.240776
31
0.0
0
LINE
8
MCD_Layer_0
10
1.625988
20
3.478966
30
0.0
11
2.313000
21
3.496635
31
0.0
0
LINE
8
MCD_Layer_0
10
2.313000
20
3.543510
30
0.0
11
2.319592
21
3.473198
31
0.0
0
LINE
8
MCD_Layer_0
10
2.313000
20
3.473198
30
0.0
11
2.313274
21
3.473198
31
0.0
0
LINE
8
MCD_Layer_0
10
2.313000
20
1.973198
30
0.0
11
0.440929
21
4.970451
31
0.0
0
LINE
8
MCD_Layer_0
10
2.313000
20
0.473198
30
0.0
11
2.216961
21
4.966698
31
0.0
0
LINE
8
MCD_Layer_0
10
2.313000
20
2.723198
30
0.0
11
4.136913
21
4.970451
31
0.0
0
LINE
8
MCD_Layer_0
10
2.313000
20
0.473198
30
0.0
11
2.648998
21
4.967064
31
0.0
0
LINE
8
MCD_Layer_0
10
2.313000
20
5.723198
30
0.0
11
4.376965
21
4.970360
31
0.0
0
LINE
8
MCD_Layer_0
10
4.340343
20
1.904167
30
0.0
11
2.318768
21
3.473198
31
0.0
0
LINE
8
MCD_Layer_0
10
2.696789
20
2.754692
30
0.0
11
2.318768
21
3.473198
31
0.0
0
LINE
8
MCD_Layer_0
10
2.743664
20
2.735191
30
0.0
11
2.318768
21
3.473198
31
0.0
0
LINE
8
MCD_Layer_0
10
2.313000
20
3.473198
30
0.0
11
-0.687000
21
3.809196
31
0.0
0
LINE
8
MCD_Layer_0
10
3.806866
20
3.473198
30
0.0
11
4.563000
21
0.545158
31
0.0
0
LINE
8
MCD_Layer_0
10
3.810070
20
3.473198
30
0.0
11
0.813000
21
0.737144
31
0.0
0
LINE
8
MCD_Layer_0
10
3.807507
20
3.473198
30
0.0
11
4.563000
21
0.545158
31
0.0
0
LINE
8
MCD_Layer_0
10
3.810070
20
3.473198
30
0.0
11
2.313000
21
3.473289
31
0.0
0
LINE
8
MCD_Layer_0
10
2.313000
20
5.061089
30
0.0
11
0.919476
21
3.478966
31
0.0
0
LINE
8
MCD_Layer_0
10
2.313000
20
3.903862
30
0.0
11
1.574993
21
3.478966
31
0.0
0
LINE
8
MCD_Layer_0
10
2.313000
20
0.733940
30
0.0
11
1.736950
21
3.478966
31
0.0
0
LINE
8
MCD_Layer_0
10
-0.423054
20
4.967705
30
0.0
11
2.313000
21
4.223198
31
0.0
0
LINE
8
MCD_Layer_0
10
4.856976
20
4.970909
30
0.0
11
2.313000
21
0.473198
31
0.0
0
LINE
8
MCD_Layer_0
10
2.648998
20
4.967064
30
0.0
11
2.313000
21
4.223198
31
0.0
0
LINE
8
MCD_Layer_0
10
4.856976
20
4.970909
30
0.0
11
2.313000
21
3.473198
31
0.0
0
LINE
8
MCD_Layer_0
10
2.313000
20
3.473198
30
0.0
11
4.340343
21
1.904167
31
0.0
0
LINE
8
MCD_Layer_0
10
2.318768
20
3.473198
30
0.0
11
-0.426258
21
2.897148
31
0.0
0
LINE
8
MCD_Layer_0
10
2.318768
20
3.473198
30
0.0
11
4.340343
21
1.904167
31
0.0
0
LINE
8
MCD_Layer_0
10
2.318768
20
3.473198
30
0.0
11
4.472179
21
2.876915
31
0.0
0
LINE
8
MCD_Layer_0
10
2.383312
20
3.479790
30
0.0
11
2.313000
21
3.473198
31
0.0
0
LINE
8
MCD_Layer_0
10
2.313000
20
3.473473
30
0.0
11
2.313000
21
3.473198
31
0.0
0
LINE
8
MCD_Layer_0
10
-0.687000
20
3.809196
30
0.0
11
3.806866
21
3.473198
31
0.0
0
LINE
8
MCD_Layer_0
10
3.063000
20
0.833183
30
0.0
11
3.810619
21
3.473198
31
0.0
0
LINE
8
MCD_Layer_0
10
-0.687000
20
3.377159
30
0.0
11
3.806499
21
3.473198
31
0.0
0
LINE
8
MCD_Layer_0
10
0.063000
20
1.073143
30
0.0
11
3.810528
21
3.473198
31
0.0
0
LINE
8
MCD_Layer_0
10
1.563000
20
4.769127
30
0.0
11
3.810528
21
3.473198
31
0.0
0
LINE
8
MCD_Layer_0
10
0.491924
20
3.478966
30
0.0
11
2.313000
21
5.251518
31
0.0
0
LINE
8
MCD_Layer_0
10
1.685223
20
3.478966
30
0.0
11
2.313000
21
2.272026
31
0.0
0
LINE
8
MCD_Layer_0
10
0.737926
20
3.490685
30
0.0
11
2.313000
21
5.251518
31
0.0
0
LINE
8
MCD_Layer_0
10
1.685223
20
3.478966
30
0.0
11
2.313000
21
3.496635
31
0.0
0
LINE
8
MCD_Layer_0
10
2.313000
20
1.973198
30
0.0
11
1.112926
21
1.966972
31
0.0
0
LINE
8
MCD_Layer_0
10
2.313000
20
2.723198
30
0.0
11
3.608929
21
4.970726
31
0.0
0
LINE
8
MCD_Layer_0
10
2.313000
20
1.973198
30
0.0
11
0.248943
21
4.971550
31
0.0
0
LINE
8
MCD_Layer_0
10
1.111828
20
1.898125
30
0.0
11
2.330486
21
3.473198
31
0.0
0
LINE
8
MCD_Layer_0
10
1.932140
20
3.066612
30
0.0
11
2.318768
21
3.473198
31
0.0
0
LINE
8
MCD_Layer_0
10
4.088390
20
2.001671
30
0.0
11
2.318768
21
3.473198
31
0.0
0
LINE
8
MCD_Layer_0
10
2.313000
20
3.473198
30
0.0
11
2.383312
21
3.479790
31
0.0
0
LINE
8
MCD_Layer_0
10
2.313000
20
3.473198
30
0.0
11
2.313000
21
3.473473
31
0.0
0
LINE
8
MCD_Layer_0
10
2.313000
20
3.473198
30
0.0
11
0.813000
21
4.769127
31
0.0
0
LINE
8
MCD_Layer_0
10
3.807232
20
3.473198
30
0.0
11
0.813000
21
1.409142
31
0.0
0
LINE
8
MCD_Layer_0
10
3.811352
20
3.473198
30
0.0
11
3.813000
21
3.809196
31
0.0
0
LINE
8
MCD_Layer_0
10
3.807598
20
3.473198
30
0.0
11
0.813000
21
4.913139
31
0.0
0
LINE
8
MCD_Layer_0
10
3.811352
20
3.473198
30
0.0
11
3.813000
21
1.025169
31
0.0
0
LINE
8
MCD_Layer_0
10
3.807690
20
3.473198
30
0.0
11
3.813000
21
5.345177
31
0.0
0
LINE
8
MCD_Layer_0
10
3.811260
20
3.473198
30
0.0
11
2.313000
21
3.473289
31
0.0
0
LINE
8
MCD_Layer_0
10
2.313000
20
0.783745
30
0.0
11
0.967449
21
3.478966
31
0.0
0
LINE
8
MCD_Layer_0
10
2.313000
20
2.705620
30
0.0
11
1.874920
21
3.478966
31
0.0
0
LINE
8
MCD_Layer_0
10
2.313000
20
2.321831
30
0.0
11
1.843426
21
3.478966
31
0.0
0
LINE
8
MCD_Layer_0
10
2.313183
20
3.473198
30
0.0
11
2.313000
21
4.973198
31
0.0
0
LINE
8
MCD_Layer_0
10
-0.135029
20
4.967888
30
0.0
11
2.313000
21
2.723198
31
0.0
0
LINE
8
MCD_Layer_0
10
2.120922
20
4.971275
30
0.0
11
2.313000
21
1.973198
31
0.0
0
LINE
8
MCD_Layer_0
10
-0.039082
20
4.968437
30
0.0
11
2.313000
21
2.723198
31
0.0
0
LINE
8
MCD_Layer_0
10
2.120922
20
4.971275
30
0.0
11
2.313000
21
3.473198
31
0.0
0
LINE
8
MCD_Layer_0
10
2.313000
20
3.473198
30
0.0
11
0.197765
21
2.268639
31
0.0
0
LINE
8
MCD_Layer_0
10
2.318768
20
3.473198
30
0.0
11
1.161633
21
3.003624
31
0.0
0
LINE
8
MCD_Layer_0
10
2.318768
20
3.473198
30
0.0
11
0.197765
21
2.268639
31
0.0
0
LINE
8
MCD_Layer_0
10
2.318768
20
3.473198
30
0.0
11
2.503429
21
3.113945
31
0.0
0
LINE
8
MCD_Layer_0
10
0.813000
20
1.121117
30
0.0
11
3.808239
21
3.473198
31
0.0
0
LINE
8
MCD_Layer_0
10
3.063000
20
1.505180
30
0.0
11
3.811535
21
3.473198
31
0.0
0
LINE
8
MCD_Layer_0
10
2.313000
20
5.633202
30
0.0
11
0.808880
21
3.473198
31
0.0
0
LINE
8
MCD_Layer_0
10
2.313000
20
3.473198
30
0.0
11
2.313000
21
4.434135
31
0.0
0
LINE
8
MCD_Layer_0
10
1.266735
20
3.490685
30
0.0
11
2.313000
21
3.663628
31
0.0
0
LINE
8
MCD_Layer_0
10
1.953747
20
3.478966
30
0.0
11
2.313000
21
4.434135
31
0.0
0
LINE
8
MCD_Layer_0
10
1.266735
20
3.490685
30
0.0
11
2.313000
21
3.473198
31
0.0
0
LINE
8
MCD_Layer_0
10
1.938000
20
3.478966
30
0.0
11
2.313000
21
3.496635
31
0.0
0
LINE
8
MCD_Layer_0
10
2.313000
20
3.473198
30
0.0
11
4.473003
21
1.969078
31
0.0
0
LINE
8
MCD_Layer_0
10
2.313000
20
3.473198
30
0.0
11
2.313000
21
4.971733
31
0.0
0
LINE
8
MCD_Layer_0
10
2.313000
20
4.973198
30
0.0
11
4.184978
21
1.968895
31
0.0
0
LINE
8
MCD_Layer_0
10
4.000774
20
3.473198
30
0.0
11
2.313000
21
3.473198
31
0.0
0
LINE
8
MCD_Layer_0
10
2.383312
20
3.473198
30
0.0
11
2.313000
21
3.473198
31
0.0
0
LINE
8
MCD_Layer_0
10
1.545422
20
2.378868
30
0.0
11
2.330486
21
3.473198
31
0.0
0
LINE
8
MCD_Layer_0
10
2.313000
20
3.098198
30
0.0
11
2.318768
21
3.473198
31
0.0
0
LINE
8
MCD_Layer_0
10
5.143078
20
2.322655
30
0.0
11
2.330486
21
3.473198
31
0.0
0
LINE
8
MCD_Layer_0
10
0.490734
20
3.089134
30
0.0
11
2.318768
21
3.473198
31
0.0
0
LINE
8
MCD_Layer_0
10
5.242687
20
2.283653
30
0.0
11
2.330486
21
3.473198
31
0.0
0
LINE
8
MCD_Layer_0
10
2.313000
20
3.473198
30
0.0
11
2.313000
21
4.961205
31
0.0
0
LINE
8
MCD_Layer_0
10
0.808331
20
3.473198
30
0.0
11
0.813000
21
1.409142
31
0.0
0
LINE
8
MCD_Layer_0
10
3.811352
20
3.473198
30
0.0
11
2.313000
21
4.961205
31
0.0
0
LINE
8
MCD_Layer_0
10
0.808331
20
3.473198
30
0.0
11
0.063000
21
4.241142
31
0.0
0
LINE
8
MCD_Layer_0
10
3.807140
20
3.473198
30
0.0
11
2.313000
21
3.473289
31
0.0
0
LINE
8
MCD_Layer_0
10
2.313000
20
6.402885
30
0.0
11
1.123455
21
3.490685
31
0.0
0
LINE
8
MCD_Layer_0
10
2.313000
20
2.081596
30
0.0
11
0.815929
21
3.478966
31
0.0
0
LINE
8
MCD_Layer_0
10
2.313000
20
6.303276
30
0.0
11
1.162457
21
3.490685
31
0.0
0
LINE
8
MCD_Layer_0
10
2.313000
20
3.423393
30
0.0
11
0.644909
21
3.478966
31
0.0
0
LINE
8
MCD_Layer_0
10
2.313000
20
2.705620
30
0.0
11
1.218670
21
3.490685
31
0.0
0
LINE
8
MCD_Layer_0
10
2.313000
20
3.616753
30
0.0
11
0.566998
21
3.478966
31
0.0
0
LINE
8
MCD_Layer_0
10
4.184978
20
1.968895
30
0.0
11
2.313000
21
4.223198
31
0.0
0
LINE
8
MCD_Layer_0
10
-0.663013
20
4.966331
30
0.0
11
2.313000
21
0.473198
31
0.0
0
LINE
8
MCD_Layer_0
10
2.552959
20
1.969078
30
0.0
11
2.313000
21
4.223198
31
0.0
0
LINE
8
MCD_Layer_0
10
-0.663013
20
4.966331
30
0.0
11
2.313000
21
3.473198
31
0.0
0
LINE
8
MCD_Layer_0
10
2.313000
20
3.473198
30
0.0
11
3.754406
21
2.419426
31
0.0
0
LINE
8
MCD_Layer_0
10
2.330486
20
3.473198
30
0.0
11
2.456554
21
1.727196
31
0.0
0
LINE
8
MCD_Layer_0
10
2.318768
20
3.473198
30
0.0
11
3.754406
21
2.419426
31
0.0
0
LINE
8
MCD_Layer_0
10
2.330486
20
3.473198
30
0.0
11
2.456554
21
1.352196
31
0.0
0
LINE
8
MCD_Layer_0
10
5.491500
20
3.473198
30
0.0
11
5.491500
21
3.520073
31
0.0
0
LINE
8
MCD_Layer_0
10
5.491500
20
3.473198
30
0.0
11
5.491500
21
1.721245
31
0.0
0
LINE
8
MCD_Layer_0
10
4.444228
20
3.490685
30
0.0
11
5.491500
21
3.473198
31
0.0
0
LINE
8
MCD_Layer_0
10
5.491500
20
3.473198
30
0.0
11
5.491500
21
4.481010
31
0.0
0
LINE
8
MCD_Layer_0
10
4.189071
20
3.490685
30
0.0
11
5.491500
21
3.473198
31
0.0
0
LINE
8
MCD_Layer_0
10
5.491500
20
3.473198
30
0.0
11
5.491500
21
3.496635
31
0.0
0
LINE
8
MCD_Layer_0
10
5.491500
20
3.543510
30
0.0
11
5.498092
21
3.473198
31
0.0
0
LINE
8
MCD_Layer_0
10
5.491500
20
3.473198
30
0.0
11
5.491775
21
3.473198
31
0.0
0
LINE
8
MCD_Layer_0
10
5.491500
20
3.473198
30
0.0
11
8.073562
21
1.968071
31
0.0
0
LINE
8
MCD_Layer_0
10
5.491500
20
4.973198
30
0.0
11
5.625533
21
1.967979
31
0.0
0
LINE
8
MCD_Layer_0
10
5.491500
20
1.973198
30
0.0
11
2.947433
21
4.962212
31
0.0
0
LINE
8
MCD_Layer_0
10
5.491500
20
4.223198
30
0.0
11
8.265548
21
1.967705
31
0.0
0
LINE
8
MCD_Layer_0
10
5.491500
20
3.473198
30
0.0
11
2.659499
21
4.962029
31
0.0
0
LINE
8
MCD_Layer_0
10
5.491500
20
3.473198
30
0.0
11
5.491591
21
3.473198
31
0.0
0
LINE
8
MCD_Layer_0
10
7.179275
20
3.473198
30
0.0
11
5.491500
21
3.473198
31
0.0
0
LINE
8
MCD_Layer_0
10
5.561812
20
3.473198
30
0.0
11
5.491500
21
3.473198
31
0.0
0
LINE
8
MCD_Layer_0
10
7.650680
20
2.077751
30
0.0
11
5.508986
21
3.473198
31
0.0
0
LINE
8
MCD_Layer_0
10
6.499312
20
0.626183
30
0.0
11
5.497268
21
3.473198
31
0.0
0
LINE
8
MCD_Layer_0
10
5.163375
20
1.350456
30
0.0
11
5.508986
21
3.473198
31
0.0
0
LINE
8
MCD_Layer_0
10
5.635055
20
0.977196
30
0.0
11
5.508986
21
3.473198
31
0.0
0
LINE
8
MCD_Layer_0
10
3.100875
20
1.733971
30
0.0
11
5.497268
21
3.473198
31
0.0
0
LINE
8
MCD_Layer_0
10
5.681930
20
6.395195
30
0.0
11
5.508986
21
3.473198
31
0.0
0
LINE
8
MCD_Layer_0
10
5.514937
20
3.473198
30
0.0
11
5.491500
21
3.473198
31
0.0
0
LINE
8
MCD_Layer_0
10
5.491500
20
3.473198
30
0.0
11
5.561812
21
3.479790
31
0.0
0
LINE
8
MCD_Layer_0
10
5.491500
20
3.473198
30
0.0
11
5.491500
21
3.473473
31
0.0
0
LINE
8
MCD_Layer_0
10
5.491500
20
3.473198
30
0.0
11
5.491500
21
2.245110
31
0.0
0
LINE
8
MCD_Layer_0
10
6.984633
20
3.473198
30
0.0
11
6.241500
21
1.505180
31
0.0
0
LINE
8
MCD_Layer_0
10
3.979415
20
3.473198
30
0.0
11
5.491500
21
5.211143
31
0.0
0
LINE
8
MCD_Layer_0
10
6.986190
20
3.473198
30
0.0
11
2.491500
21
6.065147
31
0.0
0
LINE
8
MCD_Layer_0
10
6.982894
20
3.473198
30
0.0
11
3.241500
21
6.214104
31
0.0
0
LINE
8
MCD_Layer_0
10
6.987105
20
3.473198
30
0.0
11
2.491500
21
4.865166
31
0.0
0
LINE
8
MCD_Layer_0
10
6.985549
20
3.473198
30
0.0
11
5.491500
21
3.473289
31
0.0
0
LINE
8
MCD_Layer_0
10
5.491500
20
5.160973
30
0.0
11
5.491500
21
3.473198
31
0.0
0
LINE
8
MCD_Layer_0
10
5.491500
20
3.543510
30
0.0
11
5.491500
21
3.473198
31
0.0
0
LINE
8
MCD_Layer_0
10
5.491500
20
3.159721
30
0.0
11
4.377120
21
3.478966
31
0.0
0
LINE
8
MCD_Layer_0
10
5.491500
20
5.828667
30
0.0
11
3.973464
21
3.478966
31
0.0
0
LINE
8
MCD_Layer_0
10
5.491500
20
2.538628
30
0.0
11
4.443130
21
3.478966
31
0.0
0
LINE
8
MCD_Layer_0
10
5.491500
20
3.423393
30
0.0
11
4.385909
21
3.478966
31
0.0
0
LINE
8
MCD_Layer_0
10
5.491500
20
4.454643
30
0.0
11
4.413192
21
3.478966
31
0.0
0
LINE
8
MCD_Layer_0
10
5.491500
20
2.465385
30
0.0
11
4.588424
21
3.478966
31
0.0
0
LINE
8
MCD_Layer_0
10
5.491500
20
3.496635
30
0.0
11
5.491500
21
3.473198
31
0.0
0
LINE
8
MCD_Layer_0
10
5.491500
20
3.473198
30
0.0
11
5.491500
21
3.543510
31
0.0
0
LINE
8
MCD_Layer_0
10
5.498092
20
3.473198
30
0.0
11
5.491500
21
3.473198
31
0.0
0
LINE
8
MCD_Layer_0
10
5.491775
20
3.473198
30
0.0
11
5.491500
21
2.723198
31
0.0
0
LINE
8
MCD_Layer_0
10
5.448379
20
4.968895
30
0.0
11
5.491500
21
3.473198
31
0.0
0
LINE
8
MCD_Layer_0
10
8.323501
20
4.969627
30
0.0
11
5.491500
21
5.723198
31
0.0
0
LINE
8
MCD_Layer_0
10
7.848433
20
4.968803
30
0.0
11
5.491500
21
1.973198
31
0.0
0
LINE
8
MCD_Layer_0
10
5.443435
20
4.969902
30
0.0
11
5.491500
21
4.973198
31
0.0
0
LINE
8
MCD_Layer_0
10
8.093429
20
4.968437
30
0.0
11
5.491500
21
5.723198
31
0.0
0
LINE
8
MCD_Layer_0
10
4.723464
20
4.970177
30
0.0
11
5.491500
21
3.473198
31
0.0
0
LINE
8
MCD_Layer_0
10
5.491591
20
3.473198
30
0.0
11
5.491500
21
3.473198
31
0.0
0
LINE
8
MCD_Layer_0
10
5.491500
20
3.473198
30
0.0
11
6.804183
21
3.473198
31
0.0
0
LINE
8
MCD_Layer_0
10
5.491500
20
3.473198
30
0.0
11
5.538375
21
3.473198
31
0.0
0
LINE
8
MCD_Layer_0
10
5.491500
20
3.473198
30
0.0
11
5.591109
21
2.264610
31
0.0
0
LINE
8
MCD_Layer_0
10
5.497268
20
3.473198
30
0.0
11
6.883101
21
2.720177
31
0.0
0
LINE
8
MCD_Layer_0
10
5.497268
20
3.473198
30
0.0
11
4.343062
21
1.494469
31
0.0
0
LINE
8
MCD_Layer_0
10
5.508986
20
3.473198
30
0.0
11
4.530562
21
2.925621
31
0.0
0
LINE
8
MCD_Layer_0
10
5.497268
20
3.473198
30
0.0
11
5.514937
21
3.473198
31
0.0
0
LINE
8
MCD_Layer_0
10
5.561812
20
3.479790
30
0.0
11
5.491500
21
3.473198
31
0.0
0
LINE
8
MCD_Layer_0
10
5.491500
20
3.473473
30
0.0
11
5.491500
21
3.473198
31
0.0
0
LINE
8
MCD_Layer_0
10
5.491500
20
0.937462
30
0.0
11
3.983718
21
3.473198
31
0.0
0
LINE
8
MCD_Layer_0
10
5.491500
20
1.313194
30
0.0
11
6.989303
21
3.473198
31
0.0
0
LINE
8
MCD_Layer_0
10
3.991500
20
4.461235
30
0.0
11
3.984450
21
3.473198
31
0.0
0
LINE
8
MCD_Layer_0
10
2.491500
20
0.881157
30
0.0
11
6.989394
21
3.473198
31
0.0
0
LINE
8
MCD_Layer_0
10
5.491500
20
3.357292
30
0.0
11
3.984633
21
3.473198
31
0.0
0
LINE
8
MCD_Layer_0
10
3.241500
20
2.561150
30
0.0
11
6.989486
21
3.473198
31
0.0
0
LINE
8
MCD_Layer_0
10
5.491500
20
3.473289
30
0.0
11
5.491500
21
3.473198
31
0.0
0
LINE
8
MCD_Layer_0
10
5.491500
20
3.473198
30
0.0
11
5.491500
21
5.160973
31
0.0
0
LINE
8
MCD_Layer_0
10
5.491500
20
3.473198
30
0.0
11
5.491500
21
3.801323
31
0.0
0
LINE
8
MCD_Layer_0
10
3.756667
20
3.490685
30
0.0
11
5.491500
21
4.003471
31
0.0
0
LINE
8
MCD_Layer_0
10
4.995742
20
3.478966
30
0.0
11
5.491500
21
2.078667
31
0.0
0
LINE
8
MCD_Layer_0
10
3.708602
20
3.490685
30
0.0
11
5.491500
21
5.298393
31
0.0
0
LINE
8
MCD_Layer_0
10
5.031722
20
3.478966
30
0.0
11
5.491500
21
3.168510
31
0.0
0
LINE
8
MCD_Layer_0
10
3.536757
20
3.490685
30
0.0
11
5.491500
21
2.228081
31
0.0
0
LINE
8
MCD_Layer_0
10
5.060927
20
3.478966
30
0.0
11
5.491500
21
3.496635
31
0.0
0
LINE
8
MCD_Layer_0
10
5.491500
20
3.473198
30
0.0
11
3.099685
21
1.965508
31
0.0
0
LINE
8
MCD_Layer_0
10
5.491500
20
2.723198
30
0.0
11
3.283431
21
4.971458
31
0.0
0
LINE
8
MCD_Layer_0
10
5.491500
20
3.473198
30
0.0
11
3.075240
21
4.963219
31
0.0
0
LINE
8
MCD_Layer_0
10
5.491500
20
3.473198
30
0.0
11
8.467513
21
4.971550
31
0.0
0
LINE
8
MCD_Layer_0
10
5.491500
20
0.473198
30
0.0
11
5.223342
21
4.965965
31
0.0
0
LINE
8
MCD_Layer_0
10
5.491500
20
2.723198
30
0.0
11
4.627425
21
4.971458
31
0.0
0
LINE
8
MCD_Layer_0
10
2.854781
20
1.643974
30
0.0
11
5.497268
21
3.473198
31
0.0
0
LINE
8
MCD_Layer_0
10
6.308883
20
3.047935
30
0.0
11
5.497268
21
3.473198
31
0.0
0
LINE
8
MCD_Layer_0
10
4.823531
20
1.781944
30
0.0
11
5.497268
21
3.473198
31
0.0
0
LINE
8
MCD_Layer_0
10
4.967086
20
3.031364
30
0.0
11
5.497268
21
3.473198
31
0.0
0
LINE
8
MCD_Layer_0
10
6.358687
20
1.908012
30
0.0
11
5.497268
21
3.473198
31
0.0
0
LINE
8
MCD_Layer_0
10
3.909469
20
2.991631
30
0.0
11
5.497268
21
3.473198
31
0.0
0
LINE
8
MCD_Layer_0
10
5.491500
20
3.473198
30
0.0
11
5.538375
21
3.478325
31
0.0
0
LINE
8
MCD_Layer_0
10
5.491500
20
3.473198
30
0.0
11
5.491500
21
3.473381
31
0.0
0
LINE
8
MCD_Layer_0
10
5.491500
20
3.473198
30
0.0
11
5.491500
21
4.789085
31
0.0
0
LINE
8
MCD_Layer_0
10
6.985366
20
3.473198
30
0.0
11
2.491500
21
6.209160
31
0.0
0
LINE
8
MCD_Layer_0
10
6.989577
20
3.473198
30
0.0
11
5.491500
21
4.789085
31
0.0
0
LINE
8
MCD_Layer_0
10
6.985366
20
3.473198
30
0.0
11
4.741500
21
6.113121
31
0.0
0
LINE
8
MCD_Layer_0
10
6.989394
20
3.473198
30
0.0
11
5.491500
21
3.473289
31
0.0
0
LINE
8
MCD_Layer_0
10
5.491500
20
4.785881
30
0.0
11
5.491500
21
3.473198
31
0.0
0
LINE
8
MCD_Layer_0
10
5.491500
20
3.520073
30
0.0
11
5.491500
21
3.473198
31
0.0
0
LINE
8
MCD_Layer_0
10
5.491500
20
4.340385
30
0.0
11
3.926314
21
3.478966
31
0.0
0
LINE
8
MCD_Layer_0
10
5.491500
20
1.314018
30
0.0
11
4.962691
21
3.478966
31
0.0
0
LINE
8
MCD_Layer_0
10
5.491500
20
2.518120
30
0.0
11
4.336837
21
3.478966
31
0.0
0
LINE
8
MCD_Layer_0
10
5.496627
20
3.473198
30
0.0
11
5.491500
21
3.473198
31
0.0
0
LINE
8
MCD_Layer_0
10
5.491683
20
3.473198
30
0.0
11
5.491500
21
4.973198
31
0.0
0
LINE
8
MCD_Layer_0
10
3.917434
20
4.968620
30
0.0
11
5.491500
21
2.723198
31
0.0
0
LINE
8
MCD_Layer_0
10
8.131423
20
4.971092
30
0.0
11
5.491500
21
4.973198
31
0.0
0
LINE
8
MCD_Layer_0
10
3.917434
20
4.968620
30
0.0
11
5.491500
21
1.973198
31
0.0
0
LINE
8
MCD_Layer_0
10
2.611434
20
4.971825
30
0.0
11
5.491500
21
3.473198
31
0.0
0
LINE
8
MCD_Layer_0
10
5.491500
20
3.473198
30
0.0
11
4.536422
21
2.318535
31
0.0
0
LINE
8
MCD_Layer_0
10
5.497268
20
3.473198
30
0.0
11
6.212203
21
3.133812
31
0.0
0
LINE
8
MCD_Layer_0
10
5.497268
20
3.473198
30
0.0
11
4.776656
21
2.033531
31
0.0
0
LINE
8
MCD_Layer_0
10
2.491500
20
0.939110
30
0.0
11
6.985824
21
3.473198
31
0.0
0
LINE
8
MCD_Layer_0
10
3.991500
20
0.593132
30
0.0
11
6.990127
21
3.473198
31
0.0
0
LINE
8
MCD_Layer_0
10
6.991500
20
1.419121
30
0.0
11
6.985641
21
3.473198
31
0.0
0
LINE
8
MCD_Layer_0
10
5.491500
20
5.633202
30
0.0
11
6.990127
21
3.473198
31
0.0
0
LINE
8
MCD_Layer_0
10
2.491500
20
1.717033
30
0.0
11
6.985274
21
3.473198
31
0.0
0
LINE
8
MCD_Layer_0
10
3.991500
20
5.921135
30
0.0
11
6.990127
21
3.473198
31
0.0
0
LINE
8
MCD_Layer_0
10
5.491500
20
3.473198
30
0.0
11
5.491500
21
3.906792
31
0.0
0
LINE
8
MCD_Layer_0
10
3.914321
20
3.478966
30
0.0
11
5.491500
21
6.162651
31
0.0
0
LINE
8
MCD_Layer_0
10
5.149459
20
3.478966
30
0.0
11
5.491500
21
2.020073
31
0.0
0
LINE
8
MCD_Layer_0
10
2.926742
20
3.478966
30
0.0
11
5.491500
21
4.290581
31
0.0
0
LINE
8
MCD_Layer_0
10
5.159987
20
3.478966
30
0.0
11
5.491500
21
3.566948
31
0.0
0
LINE
8
MCD_Layer_0
10
3.380843
20
3.490685
30
0.0
11
5.491500
21
3.713432
31
0.0
0
LINE
8
MCD_Layer_0
10
5.159621
20
3.478966
30
0.0
11
5.491500
21
3.496635
31
0.0
0
LINE
8
MCD_Layer_0
10
5.491500
20
3.473198
30
0.0
11
5.163741
21
1.964867
31
0.0
0
LINE
8
MCD_Layer_0
10
5.491500
20
4.973198
30
0.0
11
4.531478
21
4.971825
31
0.0
0
LINE
8
MCD_Layer_0
10
5.491500
20
0.473198
30
0.0
11
6.239577
21
1.966972
31
0.0
0
LINE
8
MCD_Layer_0
10
5.491500
20
5.723198
30
0.0
11
2.707473
21
4.971825
31
0.0
0
LINE
8
MCD_Layer_0
10
5.491500
20
0.473198
30
0.0
11
4.579452
21
4.971733
31
0.0
0
LINE
8
MCD_Layer_0
10
3.809859
20
2.137718
30
0.0
11
5.508986
21
3.473198
31
0.0
0
LINE
8
MCD_Layer_0
10
6.018844
20
3.118065
30
0.0
11
5.497268
21
3.473198
31
0.0
0
LINE
8
MCD_Layer_0
10
4.384078
20
2.278709
30
0.0
11
5.508986
21
3.473198
31
0.0
0
LINE
8
MCD_Layer_0
10
8.371383
20
3.100029
30
0.0
11
5.497268
21
3.473198
31
0.0
0
LINE
8
MCD_Layer_0
10
3.402633
20
2.374931
30
0.0
11
5.508986
21
3.473198
31
0.0
0
LINE
8
MCD_Layer_0
10
6.549117
20
3.044182
30
0.0
11
5.497268
21
3.473198
31
0.0
0
LINE
8
MCD_Layer_0
10
5.491500
20
3.473198
30
0.0
11
4.741500
21
4.332146
31
0.0
0
LINE
8
MCD_Layer_0
10
3.987197
20
3.473198
30
0.0
11
6.241500
21
1.649193
31
0.0
0
LINE
8
MCD_Layer_0
10
6.989760
20
3.473198
30
0.0
11
3.991500
21
4.476158
31
0.0
0
LINE
8
MCD_Layer_0
10
3.987288
20
3.473198
30
0.0
11
3.241500
21
1.409142
31
0.0
0
LINE
8
MCD_Layer_0
10
6.989486
20
3.473198
30
0.0
11
6.241500
21
5.868217
31
0.0
0
LINE
8
MCD_Layer_0
10
3.987197
20
3.473198
30
0.0
11
4.741500
21
1.937126
31
0.0
0
LINE
8
MCD_Layer_0
10
6.989211
20
3.473198
30
0.0
11
5.491500
21
3.473289
31
0.0
0
LINE
8
MCD_Layer_0
10
5.491500
20
4.601128
30
0.0
11
4.399276
21
3.490685
31
0.0
0
LINE
8
MCD_Layer_0
10
5.491500
20
6.259331
30
0.0
11
4.922957
21
3.478966
31
0.0
0
LINE
8
MCD_Layer_0
10
5.491500
20
6.449760
30
0.0
11
4.327041
21
3.490685
31
0.0
0
LINE
8
MCD_Layer_0
10
5.491500
20
5.251518
30
0.0
11
4.863723
21
3.478966
31
0.0
0
LINE
8
MCD_Layer_0
10
5.491500
20
3.086479
30
0.0
11
4.192000
21
3.490685
31
0.0
0
LINE
8
MCD_Layer_0
10
5.491500
20
5.588432
30
0.0
11
4.820968
21
3.478966
31
0.0
0
LINE
8
MCD_Layer_0
10
5.491683
20
3.473198
30
0.0
11
5.491500
21
0.473198
31
0.0
0
LINE
8
MCD_Layer_0
10
2.841506
20
1.968071
30
0.0
11
5.491500
21
4.973198
31
0.0
0
LINE
8
MCD_Layer_0
10
7.843490
20
4.970543
30
0.0
11
5.491500
21
3.473198
31
0.0
0
LINE
8
MCD_Layer_0
10
3.831374
20
4.966057
30
0.0
11
5.491500
21
2.723198
31
0.0
0
LINE
8
MCD_Layer_0
10
5.971419
20
4.969353
30
0.0
11
5.491500
21
3.473198
31
0.0
0
LINE
8
MCD_Layer_0
10
5.491500
20
3.473198
30
0.0
11
7.179275
21
3.473198
31
0.0
0
LINE
8
MCD_Layer_0
10
5.491500
20
3.473198
30
0.0
11
5.561812
21
3.473198
31
0.0
0
LINE
8
MCD_Layer_0
10
5.491500
20
3.473198
30
0.0
11
6.499312
21
1.662010
31
0.0
0
LINE
8
MCD_Layer_0
10
5.497268
20
3.473198
30
0.0
11
8.371383
21
2.490654
31
0.0
0
LINE
8
MCD_Layer_0
10
5.497268
20
3.473198
30
0.0
11
6.979781
21
1.842003
31
0.0
0
LINE
8
MCD_Layer_0
10
5.497268
20
3.473198
30
0.0
11
3.235641
21
2.327141
31
0.0
0
LINE
8
MCD_Layer_0
10
5.497268
20
3.473198
30
0.0
11
5.011031
21
1.703941
31
0.0
0
LINE
8
MCD_Layer_0
10
5.497268
20
3.473198
30
0.0
11
5.971969
21
2.153191
31
0.0
0
LINE
8
MCD_Layer_0
10
2.491500
20
0.565025
30
0.0
11
6.984542
21
3.473198
31
0.0
0
LINE
8
MCD_Layer_0
10
2.491500
20
1.553154
30
0.0
11
6.986281
21
3.473198
31
0.0
0
LINE
8
MCD_Layer_0
10
5.491500
20
1.200859
30
0.0
11
6.981612
21
3.473198
31
0.0
0
LINE
8
MCD_Layer_0
10
6.241500
20
0.833183
30
0.0
11
6.985824
21
3.473198
31
0.0
0
LINE
8
MCD_Layer_0
10
5.491500
20
6.073479
30
0.0
11
3.983169
21
3.473198
31
0.0
0
LINE
8
MCD_Layer_0
10
6.991500
20
4.529167
30
0.0
11
6.985824
21
3.473198
31
0.0
0
LINE
8
MCD_Layer_0
10
5.491500
20
3.473198
30
0.0
11
5.491500
21
3.145073
31
0.0
0
LINE
8
MCD_Layer_0
10
3.368758
20
3.490685
30
0.0
11
5.491500
21
3.807182
31
0.0
0
LINE
8
MCD_Layer_0
10
4.042495
20
3.478966
30
0.0
11
5.491500
21
3.613823
31
0.0
0
LINE
8
MCD_Layer_0
10
3.834670
20
3.490685
30
0.0
11
5.491500
21
3.183159
31
0.0
0
LINE
8
MCD_Layer_0
10
4.108413
20
3.478966
30
0.0
11
5.491500
21
3.039604
31
0.0
0
LINE
8
MCD_Layer_0
10
4.024001
20
3.490685
30
0.0
11
5.491500
21
4.814995
31
0.0
0
LINE
8
MCD_Layer_0
10
4.195479
20
3.478966
30
0.0
11
5.491500
21
3.496635
31
0.0
0
LINE
8
MCD_Layer_0
10
5.491500
20
0.473198
30
0.0
11
7.833510
21
1.967430
31
0.0
0
LINE
8
MCD_Layer_0
10
5.491500
20
4.973198
30
0.0
11
3.715468
21
4.968071
31
0.0
0
LINE
8
MCD_Layer_0
10
5.491500
20
5.723198
30
0.0
11
7.641524
21
1.967796
31
0.0
0
LINE
8
MCD_Layer_0
10
5.491500
20
5.723198
30
0.0
11
6.883468
21
4.968712
31
0.0
0
LINE
8
MCD_Layer_0
10
5.491500
20
1.973198
30
0.0
11
6.393477
21
1.967979
31
0.0
0
LINE
8
MCD_Layer_0
10
5.491500
20
1.223198
30
0.0
11
2.755446
21
4.969170
31
0.0
0
LINE
8
MCD_Layer_0
10
6.804183
20
3.473198
30
0.0
11
5.491500
21
3.473198
31
0.0
0
LINE
8
MCD_Layer_0
10
5.538375
20
3.473198
30
0.0
11
5.491500
21
3.473198
31
0.0
0
LINE
8
MCD_Layer_0
10
8.415328
20
2.140739
30
0.0
11
5.508986
21
3.473198
31
0.0
0
LINE
8
MCD_Layer_0
10
7.076461
20
2.454674
30
0.0
11
5.497268
21
3.473198
31
0.0
0
LINE
8
MCD_Layer_0
10
4.149703
20
2.519127
30
0.0
11
5.497268
21
3.473198
31
0.0
0
LINE
8
MCD_Layer_0
10
5.491500
20
3.473198
30
0.0
11
3.991500
21
4.375175
31
0.0
0
LINE
8
MCD_Layer_0
10
3.986281
20
3.473198
30
0.0
11
3.991500
21
5.249138
31
0.0
0
LINE
8
MCD_Layer_0
10
6.987746
20
3.473198
30
0.0
11
6.991500
21
5.388206
31
0.0
0
LINE
8
MCD_Layer_0
10
3.987380
20
3.473198
30
0.0
11
3.991500
21
5.249138
31
0.0
0
LINE
8
MCD_Layer_0
10
6.987746
20
3.473198
30
0.0
11
5.491500
21
3.473289
31
0.0
0
LINE
8
MCD_Layer_0
10
5.491500
20
1.721245
30
0.0
11
4.444228
21
3.490685
31
0.0
0
LINE
8
MCD_Layer_0
10
5.491500
20
2.131401
30
0.0
11
4.537429
21
3.478966
31
0.0
0
LINE
8
MCD_Layer_0
10
3.278487
20
1.968803
30
0.0
11
5.491500
21
0.473198
31
0.0
0
LINE
8
MCD_Layer_0
10
5.587447
20
4.964958
30
0.0
11
5.491500
21
0.473198
31
0.0
0
LINE
8
MCD_Layer_0
10
2.649520
20
1.968437
30
0.0
11
5.491500
21
0.473198
31
0.0
0
LINE
8
MCD_Layer_0
10
5.587447
20
4.964958
30
0.0
11
5.491500
21
3.473198
31
0.0
0
LINE
8
MCD_Layer_0
10
5.491500
20
3.473198
30
0.0
11
3.956344
21
2.266716
31
0.0
0
LINE
8
MCD_Layer_0
10
5.508986
20
3.473198
30
0.0
11
6.065719
21
1.364189
31
0.0
0
LINE
8
MCD_Layer_0
10
5.497268
20
3.473198
30
0.0
11
5.969039
21
2.197777
31
0.0
0
LINE
8
MCD_Layer_0
10
5.508986
20
3.473198
30
0.0
11
8.271773
21
1.592155
31
0.0
0
LINE
8
MCD_Layer_0
10
5.497268
20
3.473198
30
0.0
11
8.081344
21
2.089745
31
0.0
0
LINE
8
MCD_Layer_0
10
5.508986
20
3.473198
30
0.0
11
6.112594
21
1.532188
31
0.0
0
LINE
8
MCD_Layer_0
10
2.491500
20
3.319206
30
0.0
11
3.986007
21
3.473198
31
0.0
0
LINE
8
MCD_Layer_0
10
2.491500
20
4.577141
30
0.0
11
6.983901
21
3.473198
31
0.0
0
LINE
8
MCD_Layer_0
10
2.491500
20
5.901268
30
0.0
11
3.985366
21
3.473198
31
0.0
0
LINE
8
MCD_Layer_0
10
6.241500
20
2.993187
30
0.0
11
6.982802
21
3.473198
31
0.0
0
LINE
8
MCD_Layer_0
10
5.491500
20
6.098198
30
0.0
11
3.981063
21
3.473198
31
0.0
0
LINE
8
MCD_Layer_0
10
3.991500
20
1.793114
30
0.0
11
6.981063
21
3.473198
31
0.0
0
LINE
8
MCD_Layer_0
10
2.829879
20
3.490685
30
0.0
11
5.491500
21
5.389214
31
0.0
0
LINE
8
MCD_Layer_0
10
2.836471
20
3.478966
30
0.0
11
5.491500
21
3.672417
31
0.0
0
LINE
8
MCD_Layer_0
10
3.824325
20
3.478966
30
0.0
11
5.491500
21
1.454643
31
0.0
0
LINE
8
MCD_Layer_0
10
3.310439
20
3.478966
30
0.0
11
5.491500
21
1.604057
31
0.0
0
LINE
8
MCD_Layer_0
10
4.144851
20
3.478966
30
0.0
11
5.491500
21
1.697807
31
0.0
0
LINE
8
MCD_Layer_0
10
3.775435
20
3.478966
30
0.0
11
5.491500
21
3.496635
31
0.0
0
LINE
8
MCD_Layer_0
10
5.491500
20
4.973198
30
0.0
11
2.765426
21
4.967888
31
0.0
0
LINE
8
MCD_Layer_0
10
5.491500
20
4.973198
30
0.0
11
4.195479
21
4.966423
31
0.0
0
LINE
8
MCD_Layer_0
10
5.491500
20
1.973198
30
0.0
11
7.037368
21
4.968254
31
0.0
0
LINE
8
MCD_Layer_0
10
5.491500
20
4.973198
30
0.0
11
5.347487
21
4.967155
31
0.0
0
LINE
8
MCD_Layer_0
10
5.491500
20
4.223198
30
0.0
11
7.464461
21
4.968803
31
0.0
0
LINE
8
MCD_Layer_0
10
5.491500
20
4.223198
30
0.0
11
5.683486
21
4.968437
31
0.0
0
LINE
8
MCD_Layer_0
10
6.572555
20
2.355888
30
0.0
11
5.497268
21
3.473198
31
0.0
0
LINE
8
MCD_Layer_0
10
6.642867
20
2.255180
30
0.0
11
5.497268
21
3.473198
31
0.0
0
LINE
8
MCD_Layer_0
10
4.703414
20
2.366325
30
0.0
11
5.497268
21
3.473198
31
0.0
0
LINE
8
MCD_Layer_0
10
3.472945
20
2.417137
30
0.0
11
5.497268
21
3.473198
31
0.0
0
LINE
8
MCD_Layer_0
10
3.528609
20
2.165550
30
0.0
11
5.497268
21
3.473198
31
0.0
0
LINE
8
MCD_Layer_0
10
3.282516
20
2.682640
30
0.0
11
5.497268
21
3.473198
31
0.0
0
LINE
8
MCD_Layer_0
10
5.491500
20
3.473198
30
0.0
11
6.991500
21
4.731133
31
0.0
0
LINE
8
MCD_Layer_0
10
6.986373
20
3.473198
30
0.0
11
3.991500
21
5.105125
31
0.0
0
LINE
8
MCD_Layer_0
10
6.988387
20
3.473198
30
0.0
11
6.991500
21
5.565269
31
0.0
0
LINE
8
MCD_Layer_0
10
3.984176
20
3.473198
30
0.0
11
7.741500
21
3.713158
31
0.0
0
LINE
8
MCD_Layer_0
10
5.491500
20
5.049370
30
0.0
11
3.624648
21
3.490685
31
0.0
0
LINE
8
MCD_Layer_0
10
5.491500
20
4.911674
30
0.0
11
4.906478
21
3.478966
31
0.0
0
LINE
8
MCD_Layer_0
10
5.491500
20
1.451714
30
0.0
11
3.774611
21
3.490685
31
0.0
0
LINE
8
MCD_Layer_0
10
5.491500
20
1.170464
30
0.0
11
4.927444
21
3.478966
31
0.0
0
LINE
8
MCD_Layer_0
10
5.491500
20
6.209526
30
0.0
11
3.906631
21
3.490685
31
0.0
0
LINE
8
MCD_Layer_0
10
5.491500
20
0.640190
30
0.0
11
4.954452
21
3.478966
31
0.0
0
LINE
8
MCD_Layer_0
10
5.491775
20
3.473198
30
0.0
11
5.491500
21
1.973198
31
0.0
0
LINE
8
MCD_Layer_0
10
7.775558
20
1.966972
30
0.0
11
5.491500
21
4.223198
31
0.0
0
LINE
8
MCD_Layer_0
10
6.019485
20
4.971092
30
0.0
11
5.491500
21
4.973198
31
0.0
0
LINE
8
MCD_Layer_0
10
3.743575
20
1.967247
30
0.0
11
5.491500
21
2.723198
31
0.0
0
LINE
8
MCD_Layer_0
10
8.467422
20
4.971184
30
0.0
11
5.491500
21
0.473198
31
0.0
0
LINE
8
MCD_Layer_0
10
5.279555
20
1.967247
30
0.0
11
5.491500
21
0.473198
31
0.0
0
LINE
8
MCD_Layer_0
10
4.723464
20
4.971275
30
0.0
11
5.491500
21
3.473198
31
0.0
0
LINE
8
MCD_Layer_0
10
5.491500
20
3.473198
30
0.0
11
5.245406
21
1.972282
31
0.0
0
LINE
8
MCD_Layer_0
10
5.508986
20
3.473198
30
0.0
11
6.886031
21
3.001427
31
0.0
0
LINE
8
MCD_Layer_0
10
5.497268
20
3.473198
30
0.0
11
7.794234
21
1.876335
31
0.0
0
LINE
8
MCD_Layer_0
10
5.508986
20
3.473198
30
0.0
11
4.486617
21
3.038872
31
0.0
0
LINE
8
MCD_Layer_0
10
5.497268
20
3.473198
30
0.0
11
6.446578
21
1.672356
31
0.0
0
LINE
8
MCD_Layer_0
10
5.508986
20
3.473198
30
0.0
11
2.567672
21
3.068901
31
0.0
0
LINE
8
MCD_Layer_0
10
6.991500
20
1.985191
30
0.0
11
6.989852
21
3.473198
31
0.0
0
LINE
8
MCD_Layer_0
10
5.491500
20
0.801506
30
0.0
11
3.982436
21
3.473198
31
0.0
0
LINE
8
MCD_Layer_0
10
6.241500
20
0.977196
30
0.0
11
6.989944
21
3.473198
31
0.0
0
LINE
8
MCD_Layer_0
10
5.491500
20
3.488579
30
0.0
11
6.981154
21
3.473198
31
0.0
0
LINE
8
MCD_Layer_0
10
6.241500
20
2.321190
30
0.0
11
6.989944
21
3.473198
31
0.0
0
LINE
8
MCD_Layer_0
10
5.491500
20
3.473198
30
0.0
11
5.491500
21
1.410698
31
0.0
0
LINE
8
MCD_Layer_0
10
2.843062
20
3.478966
30
0.0
11
5.491500
21
2.562065
31
0.0
0
LINE
8
MCD_Layer_0
10
5.111922
20
3.478966
30
0.0
11
5.491500
21
6.402885
31
0.0
0
LINE
8
MCD_Layer_0
10
3.650283
20
3.478966
30
0.0
11
5.491500
21
0.739799
31
0.0
0
LINE
8
MCD_Layer_0
10
5.102950
20
3.478966
30
0.0
11
5.491500
21
5.641167
31
0.0
0
LINE
8
MCD_Layer_0
10
3.962295
20
3.478966
30
0.0
11
5.491500
21
2.661674
31
0.0
0
LINE
8
MCD_Layer_0
10
5.072921
20
3.478966
30
0.0
11
5.491500
21
3.496635
31
0.0
0
LINE
8
MCD_Layer_0
10
5.491500
20
0.473198
30
0.0
11
4.023360
21
4.967155
31
0.0
0
LINE
8
MCD_Layer_0
10
5.491500
20
5.723198
30
0.0
11
6.355483
21
4.971550
31
0.0
0
LINE
8
MCD_Layer_0
10
5.491500
20
1.973198
30
0.0
11
8.045363
21
4.967430
31
0.0
0
LINE
8
MCD_Layer_0
10
5.491500
20
1.973198
30
0.0
11
7.939437
21
4.971458
31
0.0
0
LINE
8
MCD_Layer_0
10
5.491500
20
4.973198
30
0.0
11
7.565444
21
4.967613
31
0.0
0
LINE
8
MCD_Layer_0
10
5.491500
20
4.223198
30
0.0
11
4.339492
21
4.971275
31
0.0
0
LINE
8
MCD_Layer_0
10
8.427047
20
2.051567
30
0.0
11
5.497268
21
3.473198
31
0.0
0
LINE
8
MCD_Layer_0
10
4.580367
20
2.999870
30
0.0
11
5.497268
21
3.473198
31
0.0
0
LINE
8
MCD_Layer_0
10
3.716109
20
2.975883
30
0.0
11
5.497268
21
3.473198
31
0.0
0
LINE
8
MCD_Layer_0
10
5.491500
20
3.473198
30
0.0
11
6.991500
21
5.547142
31
0.0
0
LINE
8
MCD_Layer_0
10
6.985915
20
3.473198
30
0.0
11
6.991500
21
2.177177
31
0.0
0
LINE
8
MCD_Layer_0
10
6.989486
20
3.473198
30
0.0
11
3.991500
21
5.643089
31
0.0
0
LINE
8
MCD_Layer_0
10
6.986465
20
3.473198
30
0.0
11
6.991500
21
2.177177
31
0.0
0
LINE
8
MCD_Layer_0
10
6.989486
20
3.473198
30
0.0
11
5.491500
21
3.473289
31
0.0
0
LINE
8
MCD_Layer_0
10
5.491500
20
0.982964
30
0.0
11
4.210860
21
3.478966
31
0.0
0
LINE
8
MCD_Layer_0
10
5.491500
20
1.697807
30
0.0
11
4.994185
21
3.478966
31
0.0
0
LINE
8
MCD_Layer_0
10
5.491500
20
3.663628
30
0.0
11
5.132247
21
3.478966
31
0.0
0
LINE
8
MCD_Layer_0
10
5.491683
20
3.473198
30
0.0
11
5.491500
21
1.973198
31
0.0
0
LINE
8
MCD_Layer_0
10
7.661391
20
4.968163
30
0.0
11
5.491500
21
4.223198
31
0.0
0
LINE
8
MCD_Layer_0
10
3.523482
20
4.971733
30
0.0
11
5.491500
21
1.973198
31
0.0
0
LINE
8
MCD_Layer_0
10
7.661391
20
4.968163
30
0.0
11
5.491500
21
0.473198
31
0.0
0
LINE
8
MCD_Layer_0
10
4.579452
20
4.971733
30
0.0
11
5.491500
21
3.473198
31
0.0
0
LINE
8
MCD_Layer_0
10
5.491500
20
3.473198
30
0.0
11
3.001266
21
2.192558
31
0.0
0
LINE
8
MCD_Layer_0
10
5.497268
20
3.473198
30
0.0
11
6.018844
21
3.118065
31
0.0
0
LINE
8
MCD_Layer_0
10
5.497268
20
3.473198
30
0.0
11
7.460250
21
2.066582
31
0.0
0
LINE
8
MCD_Layer_0
10
5.491500
20
3.387138
30
0.0
11
6.985915
21
3.473198
31
0.0
0
LINE
8
MCD_Layer_0
10
2.491500
20
2.561150
30
0.0
11
6.990035
21
3.473198
31
0.0
0
LINE
8
MCD_Layer_0
10
3.241500
20
0.737144
30
0.0
11
6.990035
21
3.473198
31
0.0
0
LINE
8
MCD_Layer_0
10
5.491500
20
4.933098
30
0.0
11
6.985457
21
3.473198
31
0.0
0
LINE
8
MCD_Layer_0
10
3.991500
20
0.929131
30
0.0
11
6.990035
21
3.473198
31
0.0
0
LINE
8
MCD_Layer_0
10
5.491500
20
3.473198
30
0.0
11
5.491500
21
5.207573
31
0.0
0
LINE
8
MCD_Layer_0
10
3.950301
20
3.478966
30
0.0
11
5.491500
21
6.209526
31
0.0
0
LINE
8
MCD_Layer_0
10
5.129958
20
3.478966
30
0.0
11
5.491500
21
3.426323
31
0.0
0
LINE
8
MCD_Layer_0
10
3.734237
20
3.478966
30
0.0
11
5.491500
21
0.880424
31
0.0
0
LINE
8
MCD_Layer_0
10
5.138198
20
3.478966
30
0.0
11
5.491500
21
3.684135
31
0.0
0
LINE
8
MCD_Layer_0
10
3.360152
20
3.478966
30
0.0
11
5.491500
21
2.371635
31
0.0
0
LINE
8
MCD_Layer_0
10
5.143050
20
3.478966
30
0.0
11
5.491500
21
3.496635
31
0.0
0
LINE
8
MCD_Layer_0
10
5.491500
20
3.473198
30
0.0
11
5.867324
21
4.964867
31
0.0
0
LINE
8
MCD_Layer_0
10
5.491500
20
3.473198
30
0.0
11
6.307509
21
4.971825
31
0.0
0
LINE
8
MCD_Layer_0
10
5.491500
20
3.473198
30
0.0
11
5.506881
21
4.962852
31
0.0
0
LINE
8
MCD_Layer_0
10
5.491500
20
1.973198
30
0.0
11
6.595443
21
4.971825
31
0.0
0
LINE
8
MCD_Layer_0
10
5.491500
20
3.473198
30
0.0
11
3.839614
21
1.966331
31
0.0
0
LINE
8
MCD_Layer_0
10
5.491500
20
1.223198
30
0.0
11
5.443435
21
4.971733
31
0.0
0
LINE
8
MCD_Layer_0
10
2.608687
20
1.732323
30
0.0
11
5.508986
21
3.473198
31
0.0
0
LINE
8
MCD_Layer_0
10
5.201461
20
3.121361
30
0.0
11
5.497268
21
3.473198
31
0.0
0
LINE
8
MCD_Layer_0
10
6.259078
20
2.080772
30
0.0
11
5.508986
21
3.473198
31
0.0
0
LINE
8
MCD_Layer_0
10
3.859664
20
3.104881
30
0.0
11
5.497268
21
3.473198
31
0.0
0
LINE
8
MCD_Layer_0
10
7.794234
20
2.206749
30
0.0
11
5.508986
21
3.473198
31
0.0
0
LINE
8
MCD_Layer_0
10
4.630172
20
3.074120
30
0.0
11
5.497268
21
3.473198
31
0.0
0
LINE
8
MCD_Layer_0
10
5.491500
20
3.473198
30
0.0
11
6.991500
21
3.271233
31
0.0
0
LINE
8
MCD_Layer_0
10
3.986465
20
3.473198
30
0.0
11
6.991500
21
3.329185
31
0.0
0
LINE
8
MCD_Layer_0
10
6.989852
20
3.473198
30
0.0
11
5.491500
21
3.079247
31
0.0
0
LINE
8
MCD_Layer_0
10
3.986831
20
3.473198
30
0.0
11
3.991500
21
2.081139
31
0.0
0
LINE
8
MCD_Layer_0
10
6.989669
20
3.473198
30
0.0
11
2.491500
21
3.991203
31
0.0
0
LINE
8
MCD_Layer_0
10
3.987014
20
3.473198
30
0.0
11
5.491500
21
1.793205
31
0.0
0
LINE
8
MCD_Layer_0
10
5.491500
20
4.094292
30
0.0
11
4.345077
21
3.490685
31
0.0
0
LINE
8
MCD_Layer_0
10
5.491500
20
5.395073
30
0.0
11
4.992721
21
3.478966
31
0.0
0
LINE
8
MCD_Layer_0
10
5.491500
20
6.016167
30
0.0
11
4.315047
21
3.490685
31
0.0
0
LINE
8
MCD_Layer_0
10
5.491500
20
4.627495
30
0.0
11
4.929732
21
3.478966
31
0.0
0
LINE
8
MCD_Layer_0
10
5.491500
20
2.752495
30
0.0
11
4.141006
21
3.490685
31
0.0
0
LINE
8
MCD_Layer_0
10
5.491500
20
5.972221
30
0.0
11
4.852462
21
3.478966
31
0.0
0
LINE
8
MCD_Layer_0
10
7.785537
20
1.967888
30
0.0
11
5.491500
21
1.223198
31
0.0
0
LINE
8
MCD_Layer_0
10
3.907454
20
4.970634
30
0.0
11
5.491500
21
3.473198
31
0.0
0
LINE
8
MCD_Layer_0
10
7.767409
20
4.966698
30
0.0
11
5.491500
21
1.223198
31
0.0
0
LINE
8
MCD_Layer_0
10
6.259444
20
4.969536
30
0.0
11
5.491500
21
3.473198
31
0.0
0
LINE
8
MCD_Layer_0
10
5.491500
20
3.473198
30
0.0
11
6.124312
21
1.818016
31
0.0
0
LINE
8
MCD_Layer_0
10
5.497268
20
3.473198
30
0.0
11
4.099898
21
2.538628
31
0.0
0
LINE
8
MCD_Layer_0
10
5.497268
20
3.473198
30
0.0
11
6.165328
21
2.030602
31
0.0
0
LINE
8
MCD_Layer_0
10
5.497268
20
3.473198
30
0.0
11
4.914351
21
2.394615
31
0.0
0
LINE
8
MCD_Layer_0
10
5.497268
20
3.473198
30
0.0
11
7.126266
21
2.015587
31
0.0
0
LINE
8
MCD_Layer_0
10
5.497268
20
3.473198
30
0.0
11
3.429000
21
2.249138
31
0.0
0
LINE
8
MCD_Layer_0
10
3.991500
20
2.331078
30
0.0
11
6.985732
21
3.473198
31
0.0
0
LINE
8
MCD_Layer_0
10
5.491500
20
2.129204
30
0.0
11
6.986648
21
3.473198
31
0.0
0
LINE
8
MCD_Layer_0
10
5.491500
20
2.965080
30
0.0
11
6.985091
21
3.473198
31
0.0
0
LINE
8
MCD_Layer_0
10
7.741500
20
6.209160
30
0.0
11
6.985915
21
3.473198
31
0.0
0
LINE
8
MCD_Layer_0
10
5.491500
20
2.912163
30
0.0
11
6.980697
21
3.473198
31
0.0
0
LINE
8
MCD_Layer_0
10
3.241500
20
1.073143
30
0.0
11
6.985000
21
3.473198
31
0.0
0
LINE
8
MCD_Layer_0
10
5.491500
20
3.473198
30
0.0
11
5.491500
21
3.848198
31
0.0
0
LINE
8
MCD_Layer_0
10
2.747115
20
3.478966
30
0.0
11
5.491500
21
1.073784
31
0.0
0
LINE
8
MCD_Layer_0
10
3.841445
20
3.478966
30
0.0
11
5.491500
21
5.723198
31
0.0
0
LINE
8
MCD_Layer_0
10
3.440810
20
3.490685
30
0.0
11
5.491500
21
4.290581
31
0.0
0
LINE
8
MCD_Layer_0
10
3.847487
20
3.478966
30
0.0
11
5.491500
21
5.822807
31
0.0
0
LINE
8
MCD_Layer_0
10
4.018050
20
3.490685
30
0.0
11
5.491500
21
4.768120
31
0.0
0
LINE
8
MCD_Layer_0
10
4.027480
20
3.478966
30
0.0
11
5.491500
21
3.496635
31
0.0
0
LINE
8
MCD_Layer_0
10
5.491500
20
4.973198
30
0.0
11
6.297530
21
1.967430
31
0.0
0
LINE
8
MCD_Layer_0
10
5.491500
20
4.973198
30
0.0
11
2.707473
21
4.967430
31
0.0
0
LINE
8
MCD_Layer_0
10
5.491500
20
4.223198
30
0.0
11
5.769546
21
1.968071
31
0.0
0
LINE
8
MCD_Layer_0
10
5.491500
20
5.723198
30
0.0
11
4.809524
21
1.968346
31
0.0
0
LINE
8
MCD_Layer_0
10
5.491500
20
4.223198
30
0.0
11
2.851485
21
4.968987
31
0.0
0
LINE
8
MCD_Layer_0
10
4.914351
20
2.251701
30
0.0
11
5.508986
21
3.473198
31
0.0
0
LINE
8
MCD_Layer_0
10
7.650680
20
2.408165
30
0.0
11
5.497268
21
3.473198
31
0.0
0
LINE
8
MCD_Layer_0
10
5.491500
20
3.473198
30
0.0
11
7.741500
21
2.791222
31
0.0
0
LINE
8
MCD_Layer_0
10
3.986648
20
3.473198
30
0.0
11
3.241500
21
0.737144
31
0.0
0
LINE
8
MCD_Layer_0
10
6.987472
20
3.473198
30
0.0
11
2.491500
21
1.260185
31
0.0
0
LINE
8
MCD_Layer_0
10
3.987105
20
3.473198
30
0.0
11
3.241500
21
0.737144
31
0.0
0
LINE
8
MCD_Layer_0
10
6.987472
20
3.473198
30
0.0
11
5.491500
21
3.473289
31
0.0
0
LINE
8
MCD_Layer_0
10
5.491500
20
0.953667
30
0.0
11
4.381240
21
3.490685
31
0.0
0
LINE
8
MCD_Layer_0
10
5.491500
20
5.058159
30
0.0
11
4.472976
21
3.478966
31
0.0
0
LINE
8
MCD_Layer_0
10
5.491500
20
4.047417
30
0.0
11
3.382491
21
3.478966
31
0.0
0
LINE
8
MCD_Layer_0
10
5.491500
20
3.473198
30
0.0
11
5.491500
21
3.566948
31
0.0
0
LINE
8
MCD_Layer_0
10
8.164501
20
3.496635
30
0.0
11
8.164501
21
3.520073
31
0.0
0
LINE
8
MCD_Layer_0
10
8.164501
20
3.473198
30
0.0
11
8.164501
21
1.141167
31
0.0
0
LINE
8
MCD_Layer_0
10
7.053417
20
3.490685
30
0.0
11
8.164501
21
5.597221
31
0.0
0
LINE
8
MCD_Layer_0
10
8.953594
20
3.478874
30
0.0
11
8.164501
21
2.336479
31
0.0
0
LINE
8
MCD_Layer_0
10
10.845898
20
3.478966
30
0.0
11
8.164501
21
2.348198
31
0.0
0
LINE
8
MCD_Layer_0
10
7.393993
20
3.478966
30
0.0
11
8.164501
21
3.496635
31
0.0
0
LINE
8
MCD_Layer_0
10
8.164501
20
3.520073
30
0.0
11
8.169628
21
3.473198
31
0.0
0
LINE
8
MCD_Layer_0
10
8.164593
20
3.473198
30
0.0
11
8.164684
21
3.473198
31
0.0
0
LINE
8
MCD_Layer_0
10
8.164501
20
3.473198
30
0.0
11
9.193096
21
4.968895
31
0.0
0
LINE
8
MCD_Layer_0
10
8.164501
20
0.473198
30
0.0
11
10.620953
21
4.960197
31
0.0
0
LINE
8
MCD_Layer_0
10
8.164501
20
3.473198
30
0.0
11
8.933544
21
4.970177
31
0.0
0
LINE
8
MCD_Layer_0
10
8.164501
20
3.473198
30
0.0
11
8.164593
21
3.473198
31
0.0
0
LINE
8
MCD_Layer_0
10
10.109997
20
3.972343
30
0.0
11
10.316082
21
3.661339
31
0.0
0
LINE
8
MCD_Layer_0
10
8.164501
20
5.723198
30
0.0
11
8.628582
21
1.976860
31
0.0
0
LINE
8
MCD_Layer_0
10
8.164501
20
5.723198
30
0.0
11
8.628582
21
4.976860
31
0.0
0
LINE
8
MCD_Layer_0
10
9.688580
20
3.473198
30
0.0
11
8.187939
21
3.473198
31
0.0
0
LINE
8
MCD_Layer_0
10
8.187939
20
3.473198
30
0.0
11
8.164501
21
3.473198
31
0.0
0
LINE
8
MCD_Layer_0
10
6.342236
20
4.184837
30
0.0
11
8.182079
21
3.473198
31
0.0
0
LINE
8
MCD_Layer_0
10
8.820751
20
3.749413
30
0.0
11
8.170361
21
3.473198
31
0.0
0
LINE
8
MCD_Layer_0
10
8.164501
20
3.660698
30
0.0
11
8.170361
21
3.473198
31
0.0
0
LINE
8
MCD_Layer_0
10
8.164501
20
3.660698
30
0.0
11
8.193798
21
3.473198
31
0.0
0
LINE
8
MCD_Layer_1
10
0.000000
20
1.634152
30
0.0
11
0.000000
21
0.000000
31
0.0
0
LINE
8
MCD_Layer_1
10
-12.038676
20
0.000000
30
0.0
11
12.038676
21
0.000000
31
0.0
0
LINE
8
MCD_Layer_0
10
-4.591500
20
3.801323
30
0.0
11
-7.591500
21
3.473198
31
0.0
0
LINE
8
MCD_Layer_0
10
-7.591500
20
3.484917
30
0.0
11
-7.591500
21
3.473198
31
0.0
0
LINE
8
MCD_Layer_0
10
136.408500
20
-97.905708
30
0.0
11
88.103812
21
3.473198
31
0.0
0
LINE
8
MCD_Layer_0
10
-55.591500
20
129.420464
30
0.0
11
88.191703
21
3.473198
31
0.0
0
LINE
8
MCD_Layer_0
10
-7.591500
20
3.473198
30
0.0
11
88.080375
21
3.473198
31
0.0
0
LINE
8
MCD_Layer_0
10
-7.591500
20
3.479057
30
0.0
11
-7.591500
21
3.473198
31
0.0
0
LINE
8
MCD_Layer_0
10
-7.591500
20
3.473198
30
0.0
11
-7.591500
21
87.484917
31
0.0
0
LINE
8
MCD_Layer_0
10
-7.591500
20
3.473198
30
0.0
11
-7.591500
21
6.473198
31
0.0
0
LINE
8
MCD_Layer_0
10
-7.591500
20
3.473198
30
0.0
11
-7.591500
21
3.473198
31
0.0
0
LINE
8
MCD_Layer_0
10
-91.591500
20
3.842339
30
0.0
11
-7.591500
21
-8.714302
31
0.0
0
LINE
8
MCD_Layer_0
10
-62.605172
20
3.842339
30
0.0
11
-7.591500
21
3.473198
31
0.0
0
LINE
8
MCD_Layer_0
10
-91.591500
20
3.842339
30
0.0
11
-7.591500
21
40.410698
31
0.0
0
LINE
8
MCD_Layer_0
10
-58.568063
20
3.842339
30
0.0
11
-7.591500
21
4.973198
31
0.0
0
LINE
8
MCD_Layer_0
10
-7.591500
20
6.473198
30
0.0
11
-7.263375
21
3.473198
31
0.0
0
LINE
8
MCD_Layer_0
10
-7.591500
20
3.473198
30
0.0
11
-7.579782
21
3.473198
31
0.0
0
LINE
8
MCD_Layer_0
10
-7.591500
20
3.473198
30
0.0
11
-7.591500
21
99.145073
31
0.0
0
LINE
8
MCD_Layer_0
10
-7.591500
20
-140.526802
30
0.0
11
-1.450875
21
99.273979
31
0.0
0
LINE
8
MCD_Layer_0
10
-7.591500
20
-44.526802
30
0.0
11
75.347953
21
99.268120
31
0.0
0
LINE
8
MCD_Layer_0
10
-7.591500
20
3.473198
30
0.0
11
-7.585641
21
3.473198
31
0.0
0
LINE
8
MCD_Layer_0
10
110.931937
20
129.971245
30
0.0
11
-5.675485
21
-103.776802
31
0.0
0
LINE
8
MCD_Layer_0
10
-47.915719
20
-91.413521
30
0.0
11
-43.280953
21
-101.925240
31
0.0
0
LINE
8
MCD_Layer_0
10
-47.915719
20
-152.163521
30
0.0
11
-183.267282
21
35.342339
31
0.0
0
LINE
8
MCD_Layer_0
10
130.109672
20
101.014214
30
0.0
11
-7.591500
21
6.473198
31
0.0
0
LINE
8
MCD_Layer_0
10
-7.263375
20
3.473198
30
0.0
11
-7.591500
21
3.473198
31
0.0
0
LINE
8
MCD_Layer_0
10
-7.579782
20
3.473198
30
0.0
11
-7.591500
21
-188.526802
31
0.0
0
LINE
8
MCD_Layer_0
10
115.285453
20
-92.737740
30
0.0
11
-7.591500
21
3.473198
31
0.0
0
LINE
8
MCD_Layer_0
10
66.137015
20
-92.948677
30
0.0
11
-7.591500
21
3.473198
31
0.0
0
LINE
8
MCD_Layer_0
10
-7.585641
20
3.473198
30
0.0
11
-7.591500
21
3.473198
31
0.0
0
LINE
8
MCD_Layer_0
10
-7.591500
20
3.473198
30
0.0
11
76.420218
21
3.473198
31
0.0
0
LINE
8
MCD_Layer_0
10
-7.591500
20
3.473198
30
0.0
11
-4.591500
21
3.473198
31
0.0
0
LINE
8
MCD_Layer_0
10
-7.591500
20
3.473198
30
0.0
11
50.908500
21
-104.239693
31
0.0
0
LINE
8
MCD_Layer_0
10
-6.472360
20
3.473198
30
0.0
11
-7.591500
21
3.473198
31
0.0
0
LINE
8
MCD_Layer_0
10
-6.472360
20
3.473198
30
0.0
11
-185.716500
21
-92.145943
31
0.0
0
LINE
8
MCD_Layer_0
10
-7.222360
20
3.473198
30
0.0
11
-6.091500
21
3.473198
31
0.0
0
LINE
8
MCD_Layer_0
10
-7.591500
20
77.201714
30
0.0
11
-104.013375
21
3.473198
31
0.0
0
LINE
8
MCD_Layer_0
10
88.408500
20
101.775932
30
0.0
11
88.033500
21
3.473198
31
0.0
0
LINE
8
MCD_Layer_0
10
-199.591500
20
-162.417427
30
0.0
11
-103.937203
21
3.473198
31
0.0
0
LINE
8
MCD_Layer_0
10
-7.591500
20
3.473198
30
0.0
11
-7.591500
21
160.223198
31
0.0
0
LINE
8
MCD_Layer_0
10
-95.241891
20
4.592339
30
0.0
11
-7.591500
21
-174.651802
31
0.0
0
LINE
8
MCD_Layer_0
10
-103.210641
20
3.842339
30
0.0
11
-7.591500
21
160.223198
31
0.0
0
LINE
8
MCD_Layer_0
10
-95.241891
20
4.592339
30
0.0
11
-7.591500
21
114.098198
31
0.0
0
LINE
8
MCD_Layer_0
10
-64.521188
20
3.842339
30
0.0
11
-7.591500
21
4.973198
31
0.0
0
LINE
8
MCD_Layer_0
10
-1.023000
20
3.801323
30
0.0
11
-4.023000
21
3.473198
31
0.0
0
LINE
8
MCD_Layer_0
10
-4.023000
20
3.484917
30
0.0
11
-4.023000
21
3.473198
31
0.0
0
LINE
8
MCD_Layer_0
10
-196.023000
20
-162.417427
30
0.0
11
-100.368703
21
3.473198
31
0.0
0
LINE
8
MCD_Layer_0
10
91.977000
20
123.279839
30
0.0
11
91.865672
21
3.473198
31
0.0
0
LINE
8
MCD_Layer_0
10
-4.023000
20
77.201714
30
0.0
11
-100.398000
21
3.473198
31
0.0
0
LINE
8
MCD_Layer_0
10
-4.023000
20
3.479057
30
0.0
11
-4.023000
21
3.473198
31
0.0
0
LINE
8
MCD_Layer_0
10
-4.023000
20
3.473198
30
0.0
11
-4.023000
21
87.484917
31
0.0
0
LINE
8
MCD_Layer_0
10
-4.023000
20
3.473198
30
0.0
11
-4.023000
21
6.473198
31
0.0
0
LINE
8
MCD_Layer_0
10
-4.023000
20
3.473198
30
0.0
11
-4.023000
21
160.223198
31
0.0
0
LINE
8
MCD_Layer_0
10
-91.673391
20
4.592339
30
0.0
11
-4.023000
21
-45.651802
31
0.0
0
LINE
8
MCD_Layer_0
10
-32.060110
20
3.842339
30
0.0
11
-4.023000
21
160.223198
31
0.0
0
LINE
8
MCD_Layer_0
10
-91.673391
20
4.592339
30
0.0
11
-4.023000
21
-91.776802
31
0.0
0
LINE
8
MCD_Layer_0
10
-49.339406
20
3.842339
30
0.0
11
-4.023000
21
4.973198
31
0.0
0
LINE
8
MCD_Layer_0
10
-4.023000
20
3.473198
30
0.0
11
-4.023000
21
3.473198
31
0.0
0
LINE
8
MCD_Layer_0
10
-4.023000
20
9.473198
30
0.0
11
123.939890
21
126.965385
31
0.0
0
LINE
8
MCD_Layer_0
10
-196.017141
20
2.307182
30
0.0
11
-101.558156
21
-68.931099
31
0.0
0
LINE
8
MCD_Layer_0
10
-105.144094
20
-13.987740
30
0.0
11
90.441844
21
191.189995
31
0.0
0
LINE
8
MCD_Layer_0
10
91.303172
20
-72.903755
30
0.0
11
7.010203
21
3.824760
31
0.0
0
LINE
8
MCD_Layer_0
10
5.114673
20
131.436089
30
0.0
11
118.106861
21
-188.520943
31
0.0
0
LINE
8
MCD_Layer_0
10
-40.816967
20
-94.120552
30
0.0
11
158.858814
21
-97.425240
31
0.0
0
LINE
8
MCD_Layer_0
10
-40.816967
20
97.879448
30
0.0
11
-46.963452
21
98.781792
31
0.0
0
LINE
8
MCD_Layer_0
10
-77.262280
20
14.506401
30
0.0
11
-0.674389
21
3.473198
31
0.0
0
LINE
8
MCD_Layer_0
10
83.126392
20
3.473198
30
0.0
11
-0.885327
21
3.473198
31
0.0
0
LINE
8
MCD_Layer_0
10
2.114673
20
3.473198
30
0.0
11
-0.885327
21
3.473198
31
0.0
0
LINE
8
MCD_Layer_0
10
80.114673
20
-124.976021
30
0.0
11
0.233814
21
3.473198
31
0.0
0
LINE
8
MCD_Layer_0
10
118.927173
20
-153.200630
30
0.0
11
0.233814
21
3.473198
31
0.0
0
LINE
8
MCD_Layer_0
10
17.677173
20
-58.015083
30
0.0
11
0.233814
21
3.473198
31
0.0
0
LINE
8
MCD_Layer_0
10
39.052173
20
-24.751411
30
0.0
11
-0.516186
21
3.473198
31
0.0
0
LINE
8
MCD_Layer_0
10
0.614673
20
3.473198
30
0.0
11
-0.885327
21
3.473198
31
0.0
0
LINE
8
MCD_Layer_0
10
5.313000
20
3.801323
30
0.0
11
2.313000
21
3.473198
31
0.0
0
LINE
8
MCD_Layer_0
10
2.313000
20
3.484917
30
0.0
11
2.313000
21
3.473198
31
0.0
0
LINE
8
MCD_Layer_0
10
-141.687000
20
12.684135
30
0.0
11
98.061047
21
3.473198
31
0.0
0
LINE
8
MCD_Layer_0
10
-189.687000
20
-2.673286
30
0.0
11
98.201672
21
3.473198
31
0.0
0
LINE
8
MCD_Layer_0
10
2.313000
20
160.129448
30
0.0
11
97.568859
21
3.473198
31
0.0
0
LINE
8
MCD_Layer_0
10
146.313000
20
178.574760
30
0.0
11
97.674328
21
3.473198
31
0.0
0
LINE
8
MCD_Layer_0
10
2.313000
20
3.479057
30
0.0
11
2.313000
21
3.473198
31
0.0
0
LINE
8
MCD_Layer_0
10
2.313000
20
3.473198
30
0.0
11
2.313000
21
87.484917
31
0.0
0
LINE
8
MCD_Layer_0
10
2.313000
20
3.473198
30
0.0
11
2.313000
21
6.473198
31
0.0
0
LINE
8
MCD_Layer_0
10
2.313000
20
3.473198
30
0.0
11
2.313000
21
171.473198
31
0.0
0
LINE
8
MCD_Layer_0
10
-187.577625
20
3.842339
30
0.0
11
2.313000
21
-97.964302
31
0.0
0
LINE
8
MCD_Layer_0
10
-160.507313
20
3.842339
30
0.0
11
2.313000
21
-14.526802
31
0.0
0
LINE
8
MCD_Layer_0
10
-158.204578
20
4.592339
30
0.0
11
2.313000
21
-97.964302
31
0.0
0
LINE
8
MCD_Layer_0
10
-160.507313
20
3.842339
30
0.0
11
2.313000
21
4.973198
31
0.0
0
LINE
8
MCD_Layer_0
10
2.313000
20
3.473198
30
0.0
11
2.313000
21
3.473198
31
0.0
0
LINE
8
MCD_Layer_0
10
2.313000
20
9.473198
30
0.0
11
130.275890
21
132.965385
31
0.0
0
LINE
8
MCD_Layer_0
10
-189.681141
20
150.930229
30
0.0
11
-95.655750
21
3.473198
31
0.0
0
LINE
8
MCD_Layer_0
10
2.313000
20
-64.114693
30
0.0
11
96.326672
21
-91.759224
31
0.0
0
LINE
8
MCD_Layer_0
10
97.621593
20
-72.903755
30
0.0
11
13.346203
21
3.795464
31
0.0
0
LINE
8
MCD_Layer_0
10
2.313000
20
87.484917
30
0.0
11
2.313000
21
3.473198
31
0.0
0
LINE
8
MCD_Layer_0
10
2.313000
20
6.473198
30
0.0
11
2.313000
21
3.473198
31
0.0
0
LINE
8
MCD_Layer_0
10
2.313000
20
144.848198
30
0.0
11
-61.097157
21
4.592339
31
0.0
0
LINE
8
MCD_Layer_0
10
2.313000
20
144.660698
30
0.0
11
-61.097157
21
3.842339
31
0.0
0
LINE
8
MCD_Layer_0
10
2.313000
20
4.973198
30
0.0
11
2.313000
21
3.473198
31
0.0
0
LINE
8
MCD_Layer_0
10
2.641125
20
3.473198
30
0.0
11
2.313000
21
3.473198
31
0.0
0
LINE
8
MCD_Layer_0
10
2.324718
20
3.473198
30
0.0
11
2.313000
21
51.473198
31
0.0
0
LINE
8
MCD_Layer_0
10
-102.136219
20
99.221245
30
0.0
11
2.313000
21
3.473198
31
0.0
0
LINE
8
MCD_Layer_0
10
2.313000
20
3.473198
30
0.0
11
2.313000
21
51.473198
31
0.0
0
LINE
8
MCD_Layer_0
10
-102.136219
20
99.221245
30
0.0
11
2.313000
21
147.473198
31
0.0
0
LINE
8
MCD_Layer_0
10
60.678234
20
99.197807
30
0.0
11
2.313000
21
3.473198
31
0.0
0
LINE
8
MCD_Layer_0
10
2.318859
20
3.473198
30
0.0
11
2.313000
21
3.473198
31
0.0
0
LINE
8
MCD_Layer_0
10
2.313000
20
3.473198
30
0.0
11
86.324718
21
3.473198
31
0.0
0
LINE
8
MCD_Layer_0
10
2.313000
20
3.473198
30
0.0
11
5.313000
21
3.473198
31
0.0
0
LINE
8
MCD_Layer_0
10
2.313000
20
3.473198
30
0.0
11
143.500500
21
-59.936958
31
0.0
0
LINE
8
MCD_Layer_0
10
2.682140
20
3.473198
30
0.0
11
-31.624500
21
-66.804146
31
0.0
0
LINE
8
MCD_Layer_0
10
2.682140
20
3.473198
30
0.0
11
-10.062000
21
-75.540474
31
0.0
0
LINE
8
MCD_Layer_0
10
2.682140
20
3.473198
30
0.0
11
3.813000
21
3.473198
31
0.0
0
LINE
8
MCD_Layer_0
10
-93.687000
20
129.420464
30
0.0
11
98.002453
21
3.473198
31
0.0
0
LINE
8
MCD_Layer_0
10
146.313000
20
61.838432
30
0.0
11
98.037609
21
3.473198
31
0.0
0
LINE
8
MCD_Layer_0
10
2.313000
20
77.201714
30
0.0
11
97.984875
21
3.473198
31
0.0
0
LINE
8
MCD_Layer_0
10
8.491500
20
3.801323
30
0.0
11
5.491500
21
3.473198
31
0.0
0
LINE
8
MCD_Layer_0
10
5.491500
20
3.484917
30
0.0
11
5.491500
21
3.473198
31
0.0
0
LINE
8
MCD_Layer_0
10
101.491500
20
123.279839
30
0.0
11
-90.783891
21
3.473198
31
0.0
0
LINE
8
MCD_Layer_0
10
53.491500
20
-186.991646
30
0.0
11
101.052047
21
3.473198
31
0.0
0
LINE
8
MCD_Layer_0
10
-186.508500
20
18.830620
30
0.0
11
-90.772172
21
3.473198
31
0.0
0
LINE
8
MCD_Layer_0
10
5.491500
20
3.479057
30
0.0
11
5.491500
21
3.473198
31
0.0
0
LINE
8
MCD_Layer_0
10
5.491500
20
3.473198
30
0.0
11
5.491500
21
87.484917
31
0.0
0
LINE
8
MCD_Layer_0
10
5.491500
20
3.473198
30
0.0
11
5.491500
21
6.473198
31
0.0
0
LINE
8
MCD_Layer_0
10
5.491500
20
3.473198
30
0.0
11
5.491500
21
95.723198
31
0.0
0
LINE
8
MCD_Layer_0
10
-61.949906
20
4.592339
30
0.0
11
5.491500
21
12.660698
31
0.0
0
LINE
8
MCD_Layer_0
10
-106.252641
20
3.842339
30
0.0
11
5.491500
21
95.723198
31
0.0
0
LINE
8
MCD_Layer_0
10
-130.252641
20
3.842339
30
0.0
11
5.491500
21
4.973198
31
0.0
0
LINE
8
MCD_Layer_0
10
5.491500
20
3.473198
30
0.0
11
5.491500
21
3.473198
31
0.0
0
LINE
8
MCD_Layer_0
10
5.491500
20
9.473198
30
0.0
11
133.454391
21
107.465385
31
0.0
0
LINE
8
MCD_Layer_0
10
-186.502641
20
-168.030708
30
0.0
11
-92.606156
21
80.916557
31
0.0
0
LINE
8
MCD_Layer_0
10
-95.447953
20
-162.716255
30
0.0
11
99.393844
21
10.088432
31
0.0
0
LINE
8
MCD_Layer_0
10
100.829391
20
-72.903755
30
0.0
11
16.524703
21
3.830620
31
0.0
0
LINE
8
MCD_Layer_0
10
5.491500
20
87.484917
30
0.0
11
5.491500
21
3.473198
31
0.0
0
LINE
8
MCD_Layer_0
10
5.491500
20
6.473198
30
0.0
11
5.491500
21
3.473198
31
0.0
0
LINE
8
MCD_Layer_0
10
5.491500
20
-108.651802
30
0.0
11
-61.533891
21
4.592339
31
0.0
0
LINE
8
MCD_Layer_0
10
5.491500
20
67.973198
30
0.0
11
-77.863969
21
4.592339
31
0.0
0
LINE
8
MCD_Layer_0
10
5.491500
20
4.973198
30
0.0
11
5.491500
21
3.473198
31
0.0
0
LINE
8
MCD_Layer_0
10
11.164501
20
3.801323
30
0.0
11
8.164501
21
3.473198
31
0.0
0
LINE
8
MCD_Layer_0
10
8.164501
20
3.484917
30
0.0
11
8.164501
21
3.473198
31
0.0
0
LINE
8
MCD_Layer_0
10
152.164501
20
-40.173286
30
0.0
11
-88.146046
21
3.473198
31
0.0
0
LINE
8
MCD_Layer_0
10
56.164501
20
-165.487740
30
0.0
11
103.894970
21
3.473198
31
0.0
0
LINE
8
MCD_Layer_0
10
-135.835499
20
-171.634224
30
0.0
11
103.906689
21
3.473198
31
0.0
0
LINE
8
MCD_Layer_0
10
8.164501
20
3.479057
30
0.0
11
8.164501
21
3.473198
31
0.0
0
LINE
8
MCD_Layer_0
10
8.164501
20
3.473198
30
0.0
11
8.164501
21
87.484917
31
0.0
0
LINE
8
MCD_Layer_0
10
8.164501
20
3.473198
30
0.0
11
8.164501
21
6.473198
31
0.0
0
LINE
8
MCD_Layer_0
10
8.164501
20
3.473198
30
0.0
11
8.164501
21
-33.464302
31
0.0
0
LINE
8
MCD_Layer_0
10
-70.011280
20
4.592339
30
0.0
11
8.164501
21
104.910698
31
0.0
0
LINE
8
MCD_Layer_0
10
-57.021046
20
3.842339
30
0.0
11
8.164501
21
-157.776802
31
0.0
0
LINE
8
MCD_Layer_0
10
-62.892139
20
4.592339
30
0.0
11
8.164501
21
104.910698
31
0.0
0
LINE
8
MCD_Layer_0
10
-57.021046
20
3.842339
30
0.0
11
8.164501
21
4.973198
31
0.0
0
LINE
8
MCD_Layer_0
10
8.164501
20
3.473198
30
0.0
11
8.164501
21
3.473198
31
0.0
0
LINE
8
MCD_Layer_0
10
8.164501
20
6.473198
30
0.0
11
8.492626
21
3.473198
31
0.0
0
LINE
8
MCD_Layer_0
10
8.164501
20
3.473198
30
0.0
11
8.176220
21
3.473198
31
0.0
0
LINE
8
MCD_Layer_0
10
8.164501
20
-188.526802
30
0.0
11
-133.468311
21
-92.808052
31
0.0
0
LINE
8
MCD_Layer_0
10
8.164501
20
-140.526802
30
0.0
11
-166.942921
21
99.215385
31
0.0
0
LINE
8
MCD_Layer_0
10
8.164501
20
-188.526802
30
0.0
11
14.305126
21
98.945854
31
0.0
0
LINE
8
MCD_Layer_0
10
8.164501
20
3.473198
30
0.0
11
8.170361
21
3.473198
31
0.0
0
LINE
8
MCD_Layer_0
10
126.687939
20
129.971245
30
0.0
11
10.150829
21
-37.776802
31
0.0
0
LINE
8
MCD_Layer_0
10
-176.687061
20
4.586479
30
0.0
11
8.164501
21
39.473198
31
0.0
0
LINE
8
MCD_Layer_0
10
-169.778858
20
-188.163521
30
0.0
11
-2.300343
21
35.336479
31
0.0
0
LINE
8
MCD_Layer_0
10
145.865673
20
6.514214
30
0.0
11
8.164501
21
6.473198
31
0.0
0
LINE
8
MCD_Layer_0
10
8.492626
20
3.473198
30
0.0
11
8.170361
21
3.473198
31
0.0
0
LINE
8
MCD_Layer_0
10
8.176220
20
3.473198
30
0.0
11
8.164501
21
-188.526802
31
0.0
0
LINE
8
MCD_Layer_0
10
-146.921436
20
-92.808052
30
0.0
11
8.164501
21
-140.526802
31
0.0
0
LINE
8
MCD_Layer_0
10
-118.808155
20
96.666557
30
0.0
11
8.164501
21
-188.526802
31
0.0
0
LINE
8
MCD_Layer_0
10
165.377392
20
98.641167
30
0.0
11
8.164501
21
3.473198
31
0.0
0
LINE
8
MCD_Layer_0
10
57.383251
20
99.279839
30
0.0
11
8.164501
21
3.473198
31
0.0
0
LINE
8
MCD_Layer_0
10
8.170361
20
3.473198
30
0.0
11
8.164501
21
3.473198
31
0.0
0
LINE
8
MCD_Layer_0
10
8.164501
20
3.473198
30
0.0
11
92.176220
21
3.473198
31
0.0
0
LINE
8
MCD_Layer_0
10
9.664501
20
3.473198
30
0.0
11
11.164501
21
3.473198
31
0.0
0
LINE
8
MCD_Layer_0
10
8.164501
20
3.473198
30
0.0
11
-35.335499
21
-66.774849
31
0.0
0
LINE
8
MCD_Layer_0
10
8.533642
20
3.473198
30
0.0
11
8.164501
21
3.473198
31
0.0
0
LINE
8
MCD_Layer_0
10
8.164501
20
3.473198
30
0.0
11
-64.585499
21
175.082573
31
0.0
0
LINE
8
MCD_Layer_0
10
8.533642
20
3.473198
30
0.0
11
-63.835499
21
-45.839302
31
0.0
0
LINE
8
MCD_Layer_0
10
8.533642
20
3.473198
30
0.0
11
9.664501
21
3.473198
31
0.0
0
LINE
8
MCD_Layer_0
10
11.164501
20
117.959526
30
0.0
11
-68.212452
21
14.506401
31
0.0
0
LINE
8
MCD_Layer_0
10
8.211376
20
3.473198
30
0.0
11
92.176220
21
3.473198
31
0.0
0
LINE
8
MCD_Layer_0
10
8.164501
20
3.473198
30
0.0
11
-67.772999
21
63.584526
31
0.0
0
LINE
8
MCD_Layer_0
10
9.289501
20
3.473198
30
0.0
11
8.164501
21
3.473198
31
0.0
0
LINE
8
MCD_Layer_0
10
8.539501
20
3.473198
30
0.0
11
8.164501
21
3.473198
31
0.0
0
LINE
8
MCD_Layer_0
10
18.664501
20
3.854057
30
0.0
11
8.164501
21
3.479057
31
0.0
0
LINE
8
MCD_Layer_0
10
104.164501
20
144.016167
30
0.0
11
-87.659718
21
3.473198
31
0.0
0
LINE
8
MCD_Layer_0
10
8.164501
20
-78.862740
30
0.0
11
104.228954
21
3.473198
31
0.0
0
LINE
8
MCD_Layer_0
10
8.164501
20
3.473198
30
0.0
11
104.211376
21
3.473198
31
0.0
0
LINE
8
MCD_Layer_0
10
8.164501
20
3.473198
30
0.0
11
104.211376
21
3.479057
31
0.0
0
LINE
8
MCD_Layer_0
10
8.164501
20
121.996635
30
0.0
11
134.662548
21
14.389214
31
0.0
0
LINE
8
MCD_Layer_0
10
8.545361
20
3.473198
30
0.0
11
8.170361
21
3.473198
31
0.0
0
LINE
8
MCD_Layer_0
10
8.170361
20
3.473198
30
0.0
11
8.164501
21
147.473198
31
0.0
0
LINE
8
MCD_Layer_0
10
43.490673
20
-92.433052
30
0.0
11
8.164501
21
3.473198
31
0.0
0
LINE
8
MCD_Layer_0
10
-74.171436
20
99.537651
30
0.0
11
8.164501
21
3.473198
31
0.0
0
LINE
8
MCD_Layer_0
10
8.164501
20
99.520073
30
0.0
11
8.164501
21
3.473198
31
0.0
0
LINE
8
MCD_Layer_0
10
8.164501
20
99.520073
30
0.0
11
8.170361
21
3.473198
31
0.0
0
LINE
8
MCD_Layer_0
10
126.687939
20
129.971245
30
0.0
11
19.144970
21
3.854057
31
0.0
0
LINE
8
MCD_Layer_0
10
8.164501
20
3.479057
30
0.0
11
8.164501
21
3.479057
31
0.0
0
LINE
8
MCD_Layer_0
10
8.164501
20
3.473198
30
0.0
11
104.164501
21
130.363823
31
0.0
0
LINE
8
MCD_Layer_0
10
-87.952686
20
3.473198
30
0.0
11
8.164501
21
-78.862740
31
0.0
0
LINE
8
MCD_Layer_0
10
104.228954
20
3.473198
30
0.0
11
8.164501
21
3.473198
31
0.0
0
LINE
8
MCD_Layer_0
10
104.211376
20
3.473198
30
0.0
11
8.164501
21
3.473198
31
0.0
0
LINE
8
MCD_Layer_0
10
104.211376
20
3.479057
30
0.0
11
8.164501
21
3.473198
31
0.0
0
LINE
8
MCD_Layer_0
10
8.164501
20
3.473198
30
0.0
11
8.164501
21
121.996635
31
0.0
0
LINE
8
MCD_Layer_0
10
134.662548
20
14.436089
30
0.0
11
8.545361
21
3.473198
31
0.0
0
LINE
8
MCD_Layer_0
10
8.170361
20
3.473198
30
0.0
11
8.170361
21
3.473198
31
0.0
0
LINE
8
MCD_Layer_0
10
8.164501
20
3.473198
30
0.0
11
-182.300343
21
99.484917
31
0.0
0
LINE
8
MCD_Layer_0
10
8.164501
20
3.473198
30
0.0
11
-74.171436
21
99.537651
31
0.0
0
LINE
8
MCD_Layer_0
10
8.164501
20
3.473198
30
0.0
11
8.164501
21
99.520073
31
0.0
0
LINE
8
MCD_Layer_0
10
8.164501
20
3.473198
30
0.0
11
126.687939
21
129.971245
31
0.0
0
LINE
8
MCD_Layer_0
10
19.168407
20
3.854057
30
0.0
11
8.164501
21
3.479057
31
0.0
0
LINE
8
MCD_Layer_0
10
-87.835499
20
-9.587349
30
0.0
11
104.287548
21
3.473198
31
0.0
0
LINE
8
MCD_Layer_0
10
8.164501
20
121.996635
30
0.0
11
134.662548
21
14.377495
31
0.0
0
LINE
8
MCD_Layer_0
10
8.170361
20
3.473198
30
0.0
11
8.164501
21
-188.526802
31
0.0
0
LINE
8
MCD_Layer_0
10
134.498486
20
99.660698
30
0.0
11
8.164501
21
3.473198
31
0.0
0
LINE
8
MCD_Layer_0
10
126.687939
20
129.971245
30
0.0
11
19.150829
21
3.842339
31
0.0
0
LINE
8
MCD_Layer_0
10
8.164501
20
3.473198
30
0.0
11
8.164501
21
3.479057
31
0.0
0
LINE
8
MCD_Layer_0
10
8.164501
20
3.473198
30
0.0
11
-39.835499
21
189.889214
31
0.0
0
LINE
8
MCD_Layer_0
10
103.385204
20
3.473198
30
0.0
11
8.164501
21
3.473198
31
0.0
0
LINE
8
MCD_Layer_0
10
104.070751
20
3.473198
30
0.0
11
8.164501
21
3.473198
31
0.0
0
LINE
8
MCD_Layer_0
10
104.070751
20
3.479057
30
0.0
11
8.164501
21
3.473198
31
0.0
0
LINE
8
MCD_Layer_0
10
8.164501
20
3.473198
30
0.0
11
8.164501
21
127.984917
31
0.0
0
INSERT
8
MCD_Layer_0
2
OUTG
10
-7.591500
20
3.473198
30
0.0
41
3.000000
42
3.000000
43
1.0
0
INSERT
8
MCD_Layer_0
2
OUTR
10
-4.023000
20
3.473198
30
0.0
41
3.000000
42
3.000000
43
1.0
0
INSERT
8
MCD_Layer_0
2
OUTO
10
-0.885327
20
3.473198
30
0.0
41
3.000000
42
3.000000
43
1.0
0
INSERT
8
MCD_Layer_0
2
OUTV
10
2.313000
20
3.473198
30
0.0
41
3.000000
42
3.000000
43
1.0
0
INSERT
8
MCD_Layer_0
2
OUTE
10
5.491500
20
3.473198
30
0.0
41
3.000000
42
3.000000
43
1.0
0
INSERT
8
MCD_Layer_0
2
OUTS
10
8.164501
20
3.473198
30
0.0
41
3.000000
42
3.000000
43
1.0
0
ENDSEC
0
EOF
