0
SECTION
2
ENTITIES
0
LINE
8
MCD_Layer_0
10
6.470681
20
0.593986
30
0.0
11
6.529749
21
0.623415
31
0.0
0
LINE
8
MCD_Layer_0
10
6.529749
20
0.623415
30
0.0
11
6.586843
21
0.656511
31
0.0
0
LINE
8
MCD_Layer_0
10
6.586843
20
0.656511
30
0.0
11
6.641735
21
0.693142
31
0.0
0
LINE
8
MCD_Layer_0
10
6.641735
20
0.693142
30
0.0
11
6.694208
21
0.733163
31
0.0
0
LINE
8
MCD_Layer_0
10
6.694208
20
0.733163
30
0.0
11
6.744052
21
0.776414
31
0.0
0
LINE
8
MCD_Layer_0
10
6.744052
20
0.776414
30
0.0
11
6.791068
21
0.822723
31
0.0
0
LINE
8
MCD_Layer_0
10
6.038447
20
0.500000
30
0.0
11
6.112675
21
0.502632
31
0.0
0
LINE
8
MCD_Layer_0
10
6.112675
20
0.502632
30
0.0
11
6.186525
21
0.510557
31
0.0
0
LINE
8
MCD_Layer_0
10
6.186525
20
0.510557
30
0.0
11
6.259621
21
0.523736
31
0.0
0
LINE
8
MCD_Layer_0
10
6.259621
20
0.523736
30
0.0
11
6.331590
21
0.542101
31
0.0
0
LINE
8
MCD_Layer_0
10
6.331590
20
0.542101
30
0.0
11
6.402063
21
0.565557
31
0.0
0
LINE
8
MCD_Layer_0
10
6.402063
20
0.565557
30
0.0
11
6.470681
21
0.593986
31
0.0
0
LINE
8
MCD_Layer_0
10
5.606214
20
0.593986
30
0.0
11
5.674832
21
0.565557
31
0.0
0
LINE
8
MCD_Layer_0
10
5.674832
20
0.565557
30
0.0
11
5.745305
21
0.542100
31
0.0
0
LINE
8
MCD_Layer_0
10
5.745305
20
0.542100
30
0.0
11
5.817274
21
0.523736
31
0.0
0
LINE
8
MCD_Layer_0
10
5.817274
20
0.523736
30
0.0
11
5.890369
21
0.510557
31
0.0
0
LINE
8
MCD_Layer_0
10
5.890369
20
0.510557
30
0.0
11
5.964219
21
0.502632
31
0.0
0
LINE
8
MCD_Layer_0
10
5.964219
20
0.502632
30
0.0
11
6.038447
21
0.500000
31
0.0
0
LINE
8
MCD_Layer_0
10
5.182913
20
0.950101
30
0.0
11
5.239151
21
0.875671
31
0.0
0
LINE
8
MCD_Layer_0
10
5.239151
20
0.875671
30
0.0
11
5.301832
21
0.806580
31
0.0
0
LINE
8
MCD_Layer_0
10
5.301832
20
0.806580
30
0.0
11
5.370452
21
0.743383
31
0.0
0
LINE
8
MCD_Layer_0
10
5.370452
20
0.743383
30
0.0
11
5.444460
21
0.686590
31
0.0
0
LINE
8
MCD_Layer_0
10
5.444460
20
0.686590
30
0.0
11
5.523258
21
0.636657
31
0.0
0
LINE
8
MCD_Layer_0
10
5.523258
20
0.636657
30
0.0
11
5.606214
21
0.593986
31
0.0
0
LINE
8
MCD_Layer_0
10
5.000000
20
1.541167
30
0.0
11
5.004914
21
1.436604
31
0.0
0
LINE
8
MCD_Layer_0
10
5.004914
20
1.436604
30
0.0
11
5.020374
21
1.333073
31
0.0
0
LINE
8
MCD_Layer_0
10
5.020374
20
1.333073
30
0.0
11
5.046220
21
1.231635
31
0.0
0
LINE
8
MCD_Layer_0
10
5.046220
20
1.231635
30
0.0
11
5.082187
21
1.133329
31
0.0
0
LINE
8
MCD_Layer_0
10
5.082187
20
1.133329
30
0.0
11
5.127907
21
1.039163
31
0.0
0
LINE
8
MCD_Layer_0
10
5.127907
20
1.039163
30
0.0
11
5.182913
21
0.950101
31
0.0
0
LINE
8
MCD_Layer_0
10
5.000000
20
1.541167
30
0.0
11
5.000000
21
3.458836
31
0.0
0
LINE
8
MCD_Layer_0
10
5.182913
20
4.049907
30
0.0
11
5.127907
21
3.960844
31
0.0
0
LINE
8
MCD_Layer_0
10
5.127907
20
3.960844
30
0.0
11
5.082186
21
3.866677
31
0.0
0
LINE
8
MCD_Layer_0
10
5.082186
20
3.866677
30
0.0
11
5.046219
21
3.768371
31
0.0
0
LINE
8
MCD_Layer_0
10
5.046219
20
3.768371
30
0.0
11
5.020373
21
3.666932
31
0.0
0
LINE
8
MCD_Layer_0
10
5.020373
20
3.666932
30
0.0
11
5.004914
21
3.563401
31
0.0
0
LINE
8
MCD_Layer_0
10
5.004914
20
3.563401
30
0.0
11
5.000000
21
3.458836
31
0.0
0
LINE
8
MCD_Layer_0
10
5.606214
20
4.406018
30
0.0
11
5.523259
21
4.363347
31
0.0
0
LINE
8
MCD_Layer_0
10
5.523259
20
4.363347
30
0.0
11
5.444461
21
4.313414
31
0.0
0
LINE
8
MCD_Layer_0
10
5.444461
20
4.313414
30
0.0
11
5.370454
21
4.256621
31
0.0
0
LINE
8
MCD_Layer_0
10
5.370454
20
4.256621
30
0.0
11
5.301833
21
4.193426
31
0.0
0
LINE
8
MCD_Layer_0
10
5.301833
20
4.193426
30
0.0
11
5.239151
21
4.124336
31
0.0
0
LINE
8
MCD_Layer_0
10
5.239151
20
4.124336
30
0.0
11
5.182913
21
4.049907
31
0.0
0
LINE
8
MCD_Layer_0
10
6.038447
20
4.500000
30
0.0
11
5.964219
21
4.497370
31
0.0
0
LINE
8
MCD_Layer_0
10
5.964219
20
4.497370
30
0.0
11
5.890369
21
4.489446
31
0.0
0
LINE
8
MCD_Layer_0
10
5.890369
20
4.489446
30
0.0
11
5.817273
21
4.476268
31
0.0
0
LINE
8
MCD_Layer_0
10
5.817273
20
4.476268
30
0.0
11
5.745305
21
4.457904
31
0.0
0
LINE
8
MCD_Layer_0
10
5.745305
20
4.457904
30
0.0
11
5.674832
21
4.434447
31
0.0
0
LINE
8
MCD_Layer_0
10
5.674832
20
4.434447
30
0.0
11
5.606214
21
4.406018
31
0.0
0
LINE
8
MCD_Layer_0
10
6.470681
20
4.406018
30
0.0
11
6.402063
21
4.434447
31
0.0
0
LINE
8
MCD_Layer_0
10
6.402063
20
4.434447
30
0.0
11
6.331590
21
4.457904
31
0.0
0
LINE
8
MCD_Layer_0
10
6.331590
20
4.457904
30
0.0
11
6.259621
21
4.476268
31
0.0
0
LINE
8
MCD_Layer_0
10
6.259621
20
4.476268
30
0.0
11
6.186525
21
4.489445
31
0.0
0
LINE
8
MCD_Layer_0
10
6.186525
20
4.489445
30
0.0
11
6.112675
21
4.497370
31
0.0
0
LINE
8
MCD_Layer_0
10
6.112675
20
4.497370
30
0.0
11
6.038447
21
4.500000
31
0.0
0
LINE
8
MCD_Layer_0
10
6.894372
20
4.049907
30
0.0
11
6.838010
21
4.124295
31
0.0
0
LINE
8
MCD_Layer_0
10
6.838010
20
4.124295
30
0.0
11
6.775234
21
4.193355
31
0.0
0
LINE
8
MCD_Layer_0
10
6.775234
20
4.193355
30
0.0
11
6.706543
21
4.256536
31
0.0
0
LINE
8
MCD_Layer_0
10
6.706543
20
4.256536
30
0.0
11
6.632487
21
4.313334
31
0.0
0
LINE
8
MCD_Layer_0
10
6.632487
20
4.313334
30
0.0
11
6.553657
21
4.363294
31
0.0
0
LINE
8
MCD_Layer_0
10
6.553657
20
4.363294
30
0.0
11
6.470681
21
4.406018
31
0.0
0
LINE
8
MCD_Layer_0
10
7.076896
20
3.458836
30
0.0
11
7.071946
21
3.563368
31
0.0
0
LINE
8
MCD_Layer_0
10
7.071946
20
3.563368
30
0.0
11
7.056495
21
3.666869
31
0.0
0
LINE
8
MCD_Layer_0
10
7.056495
20
3.666869
30
0.0
11
7.030699
21
3.768288
31
0.0
0
LINE
8
MCD_Layer_0
10
7.030699
20
3.768288
30
0.0
11
6.994820
21
3.866593
31
0.0
0
LINE
8
MCD_Layer_0
10
6.994820
20
3.866593
30
0.0
11
6.949223
21
3.960785
31
0.0
0
LINE
8
MCD_Layer_0
10
6.949223
20
3.960785
30
0.0
11
6.894372
21
4.049907
31
0.0
0
LINE
8
MCD_Layer_0
10
7.076896
20
3.458836
30
0.0
11
7.076896
21
1.541167
31
0.0
0
LINE
8
MCD_Layer_0
10
7.001550
20
1.149320
30
0.0
11
7.024582
21
1.212142
31
0.0
0
LINE
8
MCD_Layer_0
10
7.024582
20
1.212142
30
0.0
11
7.043512
21
1.276318
31
0.0
0
LINE
8
MCD_Layer_0
10
7.043512
20
1.276318
30
0.0
11
7.058261
21
1.341583
31
0.0
0
LINE
8
MCD_Layer_0
10
7.058261
20
1.341583
30
0.0
11
7.068767
21
1.407663
31
0.0
0
LINE
8
MCD_Layer_0
10
7.068767
20
1.407663
30
0.0
11
7.074988
21
1.474284
31
0.0
0
LINE
8
MCD_Layer_0
10
7.074988
20
1.474284
30
0.0
11
7.076896
21
1.541167
31
0.0
0
LINE
8
MCD_Layer_0
10
7.001550
20
1.149320
30
0.0
11
7.246601
21
1.020002
31
0.0
0
LINE
8
MCD_Layer_0
10
7.400000
20
0.861944
30
0.0
11
7.383687
21
0.895834
31
0.0
0
LINE
8
MCD_Layer_0
10
7.383687
20
0.895834
30
0.0
11
7.363158
21
0.927350
31
0.0
0
LINE
8
MCD_Layer_0
10
7.363158
20
0.927350
30
0.0
11
7.338753
21
0.955969
31
0.0
0
LINE
8
MCD_Layer_0
10
7.338753
20
0.955969
30
0.0
11
7.310876
21
0.981219
31
0.0
0
LINE
8
MCD_Layer_0
10
7.310876
20
0.981219
30
0.0
11
7.279988
21
1.002682
31
0.0
0
LINE
8
MCD_Layer_0
10
7.279988
20
1.002682
30
0.0
11
7.246601
21
1.020002
31
0.0
0
LINE
8
MCD_Layer_0
10
7.417863
20
0.710490
30
0.0
11
7.420838
21
0.736060
31
0.0
0
LINE
8
MCD_Layer_0
10
7.420838
20
0.736060
30
0.0
11
7.421418
21
0.761796
31
0.0
0
LINE
8
MCD_Layer_0
10
7.421418
20
0.761796
30
0.0
11
7.419598
21
0.787475
31
0.0
0
LINE
8
MCD_Layer_0
10
7.419598
20
0.787475
30
0.0
11
7.415394
21
0.812872
31
0.0
0
LINE
8
MCD_Layer_0
10
7.415394
20
0.812872
30
0.0
11
7.408843
21
0.837768
31
0.0
0
LINE
8
MCD_Layer_0
10
7.408843
20
0.837768
30
0.0
11
7.400000
21
0.861944
31
0.0
0
LINE
8
MCD_Layer_0
10
7.376312
20
0.602919
30
0.0
11
7.386298
21
0.619499
31
0.0
0
LINE
8
MCD_Layer_0
10
7.386298
20
0.619499
30
0.0
11
7.395110
21
0.636732
31
0.0
0
LINE
8
MCD_Layer_0
10
7.395110
20
0.636732
30
0.0
11
7.402707
21
0.654534
31
0.0
0
LINE
8
MCD_Layer_0
10
7.402707
20
0.654534
30
0.0
11
7.409050
21
0.672820
31
0.0
0
LINE
8
MCD_Layer_0
10
7.409050
20
0.672820
30
0.0
11
7.414110
21
0.691502
31
0.0
0
LINE
8
MCD_Layer_0
10
7.414110
20
0.691502
30
0.0
11
7.417863
21
0.710490
31
0.0
0
LINE
8
MCD_Layer_0
10
7.233009
20
0.506992
30
0.0
11
7.263002
21
0.510806
31
0.0
0
LINE
8
MCD_Layer_0
10
7.263002
20
0.510806
30
0.0
11
7.291778
21
0.520083
31
0.0
0
LINE
8
MCD_Layer_0
10
7.291778
20
0.520083
30
0.0
11
7.318351
21
0.534504
31
0.0
0
LINE
8
MCD_Layer_0
10
7.318351
20
0.534504
30
0.0
11
7.341812
21
0.553575
31
0.0
0
LINE
8
MCD_Layer_0
10
7.341812
20
0.553575
30
0.0
11
7.361355
21
0.576644
31
0.0
0
LINE
8
MCD_Layer_0
10
7.361355
20
0.576644
30
0.0
11
7.376312
21
0.602919
31
0.0
0
LINE
8
MCD_Layer_0
10
7.113013
20
0.554372
30
0.0
11
7.129903
21
0.540232
31
0.0
0
LINE
8
MCD_Layer_0
10
7.129903
20
0.540232
30
0.0
11
7.148464
21
0.528370
31
0.0
0
LINE
8
MCD_Layer_0
10
7.148464
20
0.528370
30
0.0
11
7.168391
21
0.518982
31
0.0
0
LINE
8
MCD_Layer_0
10
7.168391
20
0.518982
30
0.0
11
7.189357
21
0.512223
31
0.0
0
LINE
8
MCD_Layer_0
10
7.189357
20
0.512223
30
0.0
11
7.211015
21
0.508205
31
0.0
0
LINE
8
MCD_Layer_0
10
7.211015
20
0.508205
30
0.0
11
7.233009
21
0.506992
31
0.0
0
LINE
8
MCD_Layer_0
10
7.113013
20
0.554372
30
0.0
11
6.791068
21
0.822723
31
0.0
0
LINE
8
MCD_Layer_0
10
6.446604
20
1.109710
30
0.0
11
5.901362
21
1.564081
31
0.0
0
LINE
8
MCD_Layer_0
10
5.888155
20
1.642916
30
0.0
11
5.884235
21
1.629503
31
0.0
0
LINE
8
MCD_Layer_0
10
5.884235
20
1.629503
30
0.0
11
5.882781
21
1.615604
31
0.0
0
LINE
8
MCD_Layer_0
10
5.882781
20
1.615604
30
0.0
11
5.883841
21
1.601670
31
0.0
0
LINE
8
MCD_Layer_0
10
5.883841
20
1.601670
30
0.0
11
5.887381
21
1.588151
31
0.0
0
LINE
8
MCD_Layer_0
10
5.887381
20
1.588151
30
0.0
11
5.893285
21
1.575485
31
0.0
0
LINE
8
MCD_Layer_0
10
5.893285
20
1.575485
30
0.0
11
5.901362
21
1.564081
31
0.0
0
LINE
8
MCD_Layer_0
10
5.923499
20
1.682529
30
0.0
11
5.915864
21
1.677737
31
0.0
0
LINE
8
MCD_Layer_0
10
5.915864
20
1.677737
30
0.0
11
5.908817
21
1.672116
31
0.0
0
LINE
8
MCD_Layer_0
10
5.908817
20
1.672116
30
0.0
11
5.902447
21
1.665738
31
0.0
0
LINE
8
MCD_Layer_0
10
5.902447
20
1.665738
30
0.0
11
5.896834
21
1.658685
31
0.0
0
LINE
8
MCD_Layer_0
10
5.896834
20
1.658685
30
0.0
11
5.892050
21
1.651045
31
0.0
0
LINE
8
MCD_Layer_0
10
5.892050
20
1.651045
30
0.0
11
5.888155
21
1.642916
31
0.0
0
LINE
8
MCD_Layer_0
10
6.009711
20
1.677089
30
0.0
11
5.996439
21
1.684122
31
0.0
0
LINE
8
MCD_Layer_0
10
5.996439
20
1.684122
30
0.0
11
5.982169
21
1.688812
31
0.0
0
LINE
8
MCD_Layer_0
10
5.982169
20
1.688812
30
0.0
11
5.967313
21
1.691025
31
0.0
0
LINE
8
MCD_Layer_0
10
5.967313
20
1.691025
30
0.0
11
5.952296
21
1.690698
31
0.0
0
LINE
8
MCD_Layer_0
10
5.952296
20
1.690698
30
0.0
11
5.937550
21
1.687838
31
0.0
0
LINE
8
MCD_Layer_0
10
5.937550
20
1.687838
30
0.0
11
5.923499
21
1.682529
31
0.0
0
LINE
8
MCD_Layer_0
10
6.009711
20
1.677089
30
0.0
11
6.602722
21
1.359810
31
0.0
0
LINE
8
MCD_Layer_0
10
6.602722
20
1.359810
30
0.0
11
6.611079
21
1.389003
31
0.0
0
LINE
8
MCD_Layer_0
10
6.611079
20
1.389003
30
0.0
11
6.617951
21
1.418582
31
0.0
0
LINE
8
MCD_Layer_0
10
6.617951
20
1.418582
30
0.0
11
6.623320
21
1.448469
31
0.0
0
LINE
8
MCD_Layer_0
10
6.623320
20
1.448469
30
0.0
11
6.627172
21
1.478590
31
0.0
0
LINE
8
MCD_Layer_0
10
6.627172
20
1.478590
30
0.0
11
6.629498
21
1.508867
31
0.0
0
LINE
8
MCD_Layer_0
10
6.629498
20
1.508867
30
0.0
11
6.630291
21
1.539223
31
0.0
0
LINE
8
MCD_Layer_0
10
6.630291
20
1.539223
30
0.0
11
6.630291
21
3.460388
31
0.0
0
LINE
8
MCD_Layer_0
10
6.630291
20
3.460388
30
0.0
11
6.627406
21
3.519870
31
0.0
0
LINE
8
MCD_Layer_0
10
6.627406
20
3.519870
30
0.0
11
6.618558
21
3.578760
31
0.0
0
LINE
8
MCD_Layer_0
10
6.618558
20
3.578760
30
0.0
11
6.603837
21
3.636464
31
0.0
0
LINE
8
MCD_Layer_0
10
6.603837
20
3.636464
30
0.0
11
6.583392
21
3.692395
31
0.0
0
LINE
8
MCD_Layer_0
10
6.583392
20
3.692395
30
0.0
11
6.557429
21
3.745990
31
0.0
0
LINE
8
MCD_Layer_0
10
6.557429
20
3.745990
30
0.0
11
6.526213
21
3.796704
31
0.0
0
LINE
8
MCD_Layer_0
10
6.526213
20
3.796704
30
0.0
11
6.493989
21
3.839237
31
0.0
0
LINE
8
MCD_Layer_0
10
6.493989
20
3.839237
30
0.0
11
6.458090
21
3.878717
31
0.0
0
LINE
8
MCD_Layer_0
10
6.458090
20
3.878717
30
0.0
11
6.418804
21
3.914828
31
0.0
0
LINE
8
MCD_Layer_0
10
6.418804
20
3.914828
30
0.0
11
6.376444
21
3.947280
31
0.0
0
LINE
8
MCD_Layer_0
10
6.376444
20
3.947280
30
0.0
11
6.331351
21
3.975813
31
0.0
0
LINE
8
MCD_Layer_0
10
6.331351
20
3.975813
30
0.0
11
6.283887
21
4.000197
31
0.0
0
LINE
8
MCD_Layer_0
10
6.283887
20
4.000197
30
0.0
11
6.244911
21
4.016282
31
0.0
0
LINE
8
MCD_Layer_0
10
6.244911
20
4.016282
30
0.0
11
6.204890
21
4.029555
31
0.0
0
LINE
8
MCD_Layer_0
10
6.204890
20
4.029555
30
0.0
11
6.164027
21
4.039949
31
0.0
0
LINE
8
MCD_Layer_0
10
6.164027
20
4.039949
30
0.0
11
6.122527
21
4.047411
31
0.0
0
LINE
8
MCD_Layer_0
10
6.122527
20
4.047411
30
0.0
11
6.080603
21
4.051903
31
0.0
0
LINE
8
MCD_Layer_0
10
6.080603
20
4.051903
30
0.0
11
6.038465
21
4.053403
31
0.0
0
LINE
8
MCD_Layer_0
10
6.038447
20
4.053403
30
0.0
11
5.996102
21
4.051875
31
0.0
0
LINE
8
MCD_Layer_0
10
5.996102
20
4.051875
30
0.0
11
5.953974
21
4.047340
31
0.0
0
LINE
8
MCD_Layer_0
10
5.953974
20
4.047340
30
0.0
11
5.912274
21
4.039820
31
0.0
0
LINE
8
MCD_Layer_0
10
5.912274
20
4.039820
30
0.0
11
5.871215
21
4.029354
31
0.0
0
LINE
8
MCD_Layer_0
10
5.871215
20
4.029354
30
0.0
11
5.831004
21
4.015994
31
0.0
0
LINE
8
MCD_Layer_0
10
5.831004
20
4.015994
30
0.0
11
5.791845
21
3.999808
31
0.0
0
LINE
8
MCD_Layer_0
10
5.791845
20
3.999808
30
0.0
11
5.744632
21
3.975376
31
0.0
0
LINE
8
MCD_Layer_0
10
5.744632
20
3.975376
30
0.0
11
5.699775
21
3.946845
31
0.0
0
LINE
8
MCD_Layer_0
10
5.699775
20
3.946845
30
0.0
11
5.657631
21
3.914442
31
0.0
0
LINE
8
MCD_Layer_0
10
5.657631
20
3.914442
30
0.0
11
5.618531
21
3.878423
31
0.0
0
LINE
8
MCD_Layer_0
10
5.618531
20
3.878423
30
0.0
11
5.582787
21
3.839073
31
0.0
0
LINE
8
MCD_Layer_0
10
5.582787
20
3.839073
30
0.0
11
5.550679
21
3.796704
31
0.0
0
LINE
8
MCD_Layer_0
10
5.550679
20
3.796704
30
0.0
11
5.519277
21
3.746076
31
0.0
0
LINE
8
MCD_Layer_0
10
5.519277
20
3.746076
30
0.0
11
5.493195
21
3.692513
31
0.0
0
LINE
8
MCD_Layer_0
10
5.493195
20
3.692513
30
0.0
11
5.472704
21
3.636573
31
0.0
0
LINE
8
MCD_Layer_0
10
5.472704
20
3.636573
30
0.0
11
5.458017
21
3.578836
31
0.0
0
LINE
8
MCD_Layer_0
10
5.458017
20
3.578836
30
0.0
11
5.449287
21
3.519903
31
0.0
0
LINE
8
MCD_Layer_0
10
5.449287
20
3.519903
30
0.0
11
5.446604
21
3.460388
31
0.0
0
LINE
8
MCD_Layer_0
10
5.446604
20
3.460388
30
0.0
11
5.446604
21
1.539223
31
0.0
0
LINE
8
MCD_Layer_0
10
5.446604
20
1.539223
30
0.0
11
5.449321
21
1.479863
31
0.0
0
LINE
8
MCD_Layer_0
10
5.449321
20
1.479863
30
0.0
11
5.458044
21
1.421086
31
0.0
0
LINE
8
MCD_Layer_0
10
5.458044
20
1.421086
30
0.0
11
5.472683
21
1.363496
31
0.0
0
LINE
8
MCD_Layer_0
10
5.472683
20
1.363496
30
0.0
11
5.493087
21
1.307687
31
0.0
0
LINE
8
MCD_Layer_0
10
5.493087
20
1.307687
30
0.0
11
5.519046
21
1.254236
31
0.0
0
LINE
8
MCD_Layer_0
10
5.519046
20
1.254236
30
0.0
11
5.550292
21
1.203693
31
0.0
0
LINE
8
MCD_Layer_0
10
5.550679
20
1.202915
30
0.0
11
5.582735
21
1.160546
31
0.0
0
LINE
8
MCD_Layer_0
10
5.582735
20
1.160546
30
0.0
11
5.618455
21
1.121218
31
0.0
0
LINE
8
MCD_Layer_0
10
5.618455
20
1.121218
30
0.0
11
5.657551
21
1.085244
31
0.0
0
LINE
8
MCD_Layer_0
10
5.657551
20
1.085244
30
0.0
11
5.699711
21
1.052915
31
0.0
0
LINE
8
MCD_Layer_0
10
5.699711
20
1.052915
30
0.0
11
5.744596
21
1.024489
31
0.0
0
LINE
8
MCD_Layer_0
10
5.744596
20
1.024489
30
0.0
11
5.791845
21
1.000195
31
0.0
0
LINE
8
MCD_Layer_0
10
5.792234
20
0.999806
30
0.0
11
5.831298
21
0.983565
31
0.0
0
LINE
8
MCD_Layer_0
10
5.831298
20
0.983565
30
0.0
11
5.871436
21
0.970195
31
0.0
0
LINE
8
MCD_Layer_0
10
5.871436
20
0.970195
30
0.0
11
5.912437
21
0.959767
31
0.0
0
LINE
8
MCD_Layer_0
10
5.912437
20
0.959767
30
0.0
11
5.954085
21
0.952337
31
0.0
0
LINE
8
MCD_Layer_0
10
5.954085
20
0.952337
30
0.0
11
5.996162
21
0.947943
31
0.0
0
LINE
8
MCD_Layer_0
10
5.996162
20
0.947943
30
0.0
11
6.038447
21
0.946608
31
0.0
0
LINE
8
MCD_Layer_0
10
6.038447
20
0.946608
30
0.0
11
6.080816
21
0.947927
31
0.0
0
LINE
8
MCD_Layer_0
10
6.080816
20
0.947927
30
0.0
11
6.122976
21
0.952339
31
0.0
0
LINE
8
MCD_Layer_0
10
6.122976
20
0.952339
30
0.0
11
6.164700
21
0.959820
31
0.0
0
LINE
8
MCD_Layer_0
10
6.164700
20
0.959820
30
0.0
11
6.205766
21
0.970330
31
0.0
0
LINE
8
MCD_Layer_0
10
6.205766
20
0.970330
30
0.0
11
6.245955
21
0.983812
31
0.0
0
LINE
8
MCD_Layer_0
10
6.245955
20
0.983812
30
0.0
11
6.285050
21
1.000195
31
0.0
0
LINE
8
MCD_Layer_0
10
6.285050
20
1.000195
30
0.0
11
6.314324
21
1.014699
31
0.0
0
LINE
8
MCD_Layer_0
10
6.314324
20
1.014699
30
0.0
11
6.342767
21
1.030770
31
0.0
0
LINE
8
MCD_Layer_0
10
6.342767
20
1.030770
30
0.0
11
6.370296
21
1.048361
31
0.0
0
LINE
8
MCD_Layer_0
10
6.370296
20
1.048361
30
0.0
11
6.396830
21
1.067419
31
0.0
0
LINE
8
MCD_Layer_0
10
6.396830
20
1.067419
30
0.0
11
6.422292
21
1.087889
31
0.0
0
LINE
8
MCD_Layer_0
10
6.422292
20
1.087889
30
0.0
11
6.446604
21
1.109710
31
0.0
0
LINE
8
MCD_Layer_0
10
9.810493
20
0.559507
30
0.0
11
9.730501
21
0.761260
31
0.0
0
LINE
8
MCD_Layer_0
10
9.380189
20
0.559507
30
0.0
11
9.443618
21
0.583428
31
0.0
0
LINE
8
MCD_Layer_0
10
9.443618
20
0.583428
30
0.0
11
9.505367
21
0.611403
31
0.0
0
LINE
8
MCD_Layer_0
10
9.505367
20
0.611403
30
0.0
11
9.565175
21
0.643316
31
0.0
0
LINE
8
MCD_Layer_0
10
9.565175
20
0.643316
30
0.0
11
9.622793
21
0.679032
31
0.0
0
LINE
8
MCD_Layer_0
10
9.622793
20
0.679032
30
0.0
11
9.677979
21
0.718402
31
0.0
0
LINE
8
MCD_Layer_0
10
9.677979
20
0.718402
30
0.0
11
9.730501
21
0.761260
31
0.0
0
LINE
8
MCD_Layer_0
10
8.633466
20
0.559507
30
0.0
11
8.755595
21
0.526570
31
0.0
0
LINE
8
MCD_Layer_0
10
8.755595
20
0.526570
30
0.0
11
8.880511
21
0.506661
31
0.0
0
LINE
8
MCD_Layer_0
10
8.880511
20
0.506661
30
0.0
11
9.006828
21
0.500000
31
0.0
0
LINE
8
MCD_Layer_0
10
9.006828
20
0.500000
30
0.0
11
9.133145
21
0.506661
31
0.0
0
LINE
8
MCD_Layer_0
10
9.133145
20
0.506661
30
0.0
11
9.258060
21
0.526570
31
0.0
0
LINE
8
MCD_Layer_0
10
9.258060
20
0.526570
30
0.0
11
9.380189
21
0.559507
31
0.0
0
LINE
8
MCD_Layer_0
10
8.120416
20
0.939766
30
0.0
11
8.188006
21
0.855403
31
0.0
0
LINE
8
MCD_Layer_0
10
8.188006
20
0.855403
30
0.0
11
8.263911
21
0.778436
31
0.0
0
LINE
8
MCD_Layer_0
10
8.263911
20
0.778436
30
0.0
11
8.347329
21
0.709683
31
0.0
0
LINE
8
MCD_Layer_0
10
8.347329
20
0.709683
30
0.0
11
8.437373
21
0.649871
31
0.0
0
LINE
8
MCD_Layer_0
10
8.437373
20
0.649871
30
0.0
11
8.533091
21
0.599635
31
0.0
0
LINE
8
MCD_Layer_0
10
8.533091
20
0.599635
30
0.0
11
8.633466
21
0.559507
31
0.0
0
LINE
8
MCD_Layer_0
10
7.921418
20
1.535562
30
0.0
11
7.928786
21
1.429546
31
0.0
0
LINE
8
MCD_Layer_0
10
7.928786
20
1.429546
30
0.0
11
7.946825
21
1.324817
31
0.0
0
LINE
8
MCD_Layer_0
10
7.946825
20
1.324817
30
0.0
11
7.975351
21
1.222445
31
0.0
0
LINE
8
MCD_Layer_0
10
7.975351
20
1.222445
30
0.0
11
8.014073
21
1.123479
31
0.0
0
LINE
8
MCD_Layer_0
10
8.014073
20
1.123479
30
0.0
11
8.062593
21
1.028930
31
0.0
0
LINE
8
MCD_Layer_0
10
8.062593
20
1.028930
30
0.0
11
8.120416
21
0.939766
31
0.0
0
LINE
8
MCD_Layer_0
10
7.921418
20
1.535562
30
0.0
11
7.921418
21
4.500000
31
0.0
0
LINE
8
MCD_Layer_0
10
9.643415
20
4.500000
30
0.0
11
9.643415
21
1.535562
31
0.0
0
LINE
8
MCD_Layer_0
10
9.240698
20
0.990202
30
0.0
11
9.348391
21
1.041967
31
0.0
0
LINE
8
MCD_Layer_0
10
9.348391
20
1.041967
30
0.0
11
9.444037
21
1.113587
31
0.0
0
LINE
8
MCD_Layer_0
10
9.444037
20
1.113587
30
0.0
11
9.524022
21
1.202355
31
0.0
0
LINE
8
MCD_Layer_0
10
9.524022
20
1.202355
30
0.0
11
9.585325
21
1.304920
31
0.0
0
LINE
8
MCD_Layer_0
10
9.585325
20
1.304920
30
0.0
11
9.625630
21
1.417405
31
0.0
0
LINE
8
MCD_Layer_0
10
9.625630
20
1.417405
30
0.0
11
9.643415
21
1.535562
31
0.0
0
LINE
8
MCD_Layer_0
10
8.773352
20
0.990202
30
0.0
11
8.849834
21
0.969917
31
0.0
0
LINE
8
MCD_Layer_0
10
8.849834
20
0.969917
30
0.0
11
8.928005
21
0.957659
31
0.0
0
LINE
8
MCD_Layer_0
10
8.928005
20
0.957659
30
0.0
11
9.007025
21
0.953558
31
0.0
0
LINE
8
MCD_Layer_0
10
9.007025
20
0.953558
30
0.0
11
9.086045
21
0.957659
31
0.0
0
LINE
8
MCD_Layer_0
10
9.086045
20
0.957659
30
0.0
11
9.164216
21
0.969917
31
0.0
0
LINE
8
MCD_Layer_0
10
9.164216
20
0.969917
30
0.0
11
9.240698
21
0.990202
31
0.0
0
LINE
8
MCD_Layer_0
10
8.487666
20
1.204957
30
0.0
11
8.525497
21
1.157816
31
0.0
0
LINE
8
MCD_Layer_0
10
8.525497
20
1.157816
30
0.0
11
8.567845
21
1.114686
31
0.0
0
LINE
8
MCD_Layer_0
10
8.567845
20
1.114686
30
0.0
11
8.614286
21
1.075998
31
0.0
0
LINE
8
MCD_Layer_0
10
8.614286
20
1.075998
30
0.0
11
8.664355
21
1.042137
31
0.0
0
LINE
8
MCD_Layer_0
10
8.664355
20
1.042137
30
0.0
11
8.717555
21
1.013443
31
0.0
0
LINE
8
MCD_Layer_0
10
8.717555
20
1.013443
30
0.0
11
8.773352
21
0.990202
31
0.0
0
LINE
8
MCD_Layer_0
10
8.374574
20
1.535562
30
0.0
11
8.379616
21
1.476725
31
0.0
0
LINE
8
MCD_Layer_0
10
8.379616
20
1.476725
30
0.0
11
8.390371
21
1.418659
31
0.0
0
LINE
8
MCD_Layer_0
10
8.390371
20
1.418659
30
0.0
11
8.406734
21
1.361918
31
0.0
0
LINE
8
MCD_Layer_0
10
8.406734
20
1.361918
30
0.0
11
8.428552
21
1.307043
31
0.0
0
LINE
8
MCD_Layer_0
10
8.428552
20
1.307043
30
0.0
11
8.455615
21
1.254556
31
0.0
0
LINE
8
MCD_Layer_0
10
8.455615
20
1.254556
30
0.0
11
8.487666
21
1.204957
31
0.0
0
LINE
8
MCD_Layer_0
10
8.374574
20
1.535562
30
0.0
11
8.374574
21
4.500000
31
0.0
0
LINE
8
MCD_Layer_0
10
7.921418
20
4.500000
30
0.0
11
8.374574
21
4.500000
31
0.0
0
LINE
8
MCD_Layer_0
10
9.643415
20
4.500000
30
0.0
11
10.096570
21
4.500000
31
0.0
0
LINE
8
MCD_Layer_0
10
10.096570
20
4.500000
30
0.0
11
10.096570
21
0.559507
31
0.0
0
LINE
8
MCD_Layer_0
10
10.096570
20
0.559507
30
0.0
11
9.810493
21
0.559507
31
0.0
0
LINE
8
MCD_Layer_0
10
10.596570
20
0.500000
30
0.0
11
10.596570
21
3.487500
31
0.0
0
LINE
8
MCD_Layer_0
10
11.067161
20
4.327781
30
0.0
11
10.935734
21
4.225370
31
0.0
0
LINE
8
MCD_Layer_0
10
10.935734
20
4.225370
30
0.0
11
10.822220
21
4.103404
31
0.0
0
LINE
8
MCD_Layer_0
10
10.822220
20
4.103404
30
0.0
11
10.729495
21
3.964972
31
0.0
0
LINE
8
MCD_Layer_0
10
10.729495
20
3.964972
30
0.0
11
10.659908
21
3.813583
31
0.0
0
LINE
8
MCD_Layer_0
10
10.659908
20
3.813583
30
0.0
11
10.615223
21
3.653070
31
0.0
0
LINE
8
MCD_Layer_0
10
10.615223
20
3.653070
30
0.0
11
10.596570
21
3.487500
31
0.0
0
LINE
8
MCD_Layer_0
10
12.169144
20
4.358520
30
0.0
11
11.993855
21
4.439832
31
0.0
0
LINE
8
MCD_Layer_0
10
11.993855
20
4.439832
30
0.0
11
11.806605
21
4.487534
31
0.0
0
LINE
8
MCD_Layer_0
10
11.806605
20
4.487534
30
0.0
11
11.613778
21
4.500000
31
0.0
0
LINE
8
MCD_Layer_0
10
11.613778
20
4.500000
30
0.0
11
11.421944
21
4.476805
31
0.0
0
LINE
8
MCD_Layer_0
10
11.421944
20
4.476805
30
0.0
11
11.237645
21
4.418738
31
0.0
0
LINE
8
MCD_Layer_0
10
11.237645
20
4.418738
30
0.0
11
11.067161
21
4.327781
31
0.0
0
LINE
8
MCD_Layer_0
10
12.689393
20
3.487500
30
0.0
11
12.668771
21
3.662595
31
0.0
0
LINE
8
MCD_Layer_0
10
12.668771
20
3.662595
30
0.0
11
12.619082
21
3.831752
31
0.0
0
LINE
8
MCD_Layer_0
10
12.619082
20
3.831752
30
0.0
11
12.541732
21
3.990183
31
0.0
0
LINE
8
MCD_Layer_0
10
12.541732
20
3.990183
30
0.0
11
12.438911
21
4.133400
31
0.0
0
LINE
8
MCD_Layer_0
10
12.438911
20
4.133400
30
0.0
11
12.313532
21
4.257349
31
0.0
0
LINE
8
MCD_Layer_0
10
12.313532
20
4.257349
30
0.0
11
12.169144
21
4.358520
31
0.0
0
LINE
8
MCD_Layer_0
10
12.689393
20
3.487500
30
0.0
11
12.689393
21
0.500000
31
0.0
0
LINE
8
MCD_Layer_0
10
11.049819
20
0.500000
30
0.0
11
11.049819
21
2.478525
31
0.0
0
LINE
8
MCD_Layer_0
10
11.049819
20
2.931776
30
0.0
11
11.049819
21
3.472526
31
0.0
0
LINE
8
MCD_Layer_0
10
11.316644
20
3.949024
30
0.0
11
11.242090
21
3.890975
31
0.0
0
LINE
8
MCD_Layer_0
10
11.242090
20
3.890975
30
0.0
11
11.177702
21
3.821821
31
0.0
0
LINE
8
MCD_Layer_0
10
11.177702
20
3.821821
30
0.0
11
11.125115
21
3.743318
31
0.0
0
LINE
8
MCD_Layer_0
10
11.125115
20
3.743318
30
0.0
11
11.085664
21
3.657460
31
0.0
0
LINE
8
MCD_Layer_0
10
11.085664
20
3.657460
30
0.0
11
11.060352
21
3.566425
31
0.0
0
LINE
8
MCD_Layer_0
10
11.060352
20
3.566425
30
0.0
11
11.049819
21
3.472526
31
0.0
0
LINE
8
MCD_Layer_0
10
11.941338
20
3.966761
30
0.0
11
11.841959
21
4.012868
31
0.0
0
LINE
8
MCD_Layer_0
10
11.841959
20
4.012868
30
0.0
11
11.735791
21
4.039896
31
0.0
0
LINE
8
MCD_Layer_0
10
11.735791
20
4.039896
30
0.0
11
11.626463
21
4.046921
31
0.0
0
LINE
8
MCD_Layer_0
10
11.626463
20
4.046921
30
0.0
11
11.517710
21
4.033704
31
0.0
0
LINE
8
MCD_Layer_0
10
11.517710
20
4.033704
30
0.0
11
11.413247
21
4.000695
31
0.0
0
LINE
8
MCD_Layer_0
10
11.413247
20
4.000695
30
0.0
11
11.316644
21
3.949024
31
0.0
0
LINE
8
MCD_Layer_0
10
12.236146
20
3.472526
30
0.0
11
12.224567
21
3.571870
31
0.0
0
LINE
8
MCD_Layer_0
10
12.224567
20
3.571870
30
0.0
11
12.196471
21
3.667859
31
0.0
0
LINE
8
MCD_Layer_0
10
12.196471
20
3.667859
30
0.0
11
12.152654
21
3.757767
31
0.0
0
LINE
8
MCD_Layer_0
10
12.152654
20
3.757767
30
0.0
11
12.094362
21
3.839040
31
0.0
0
LINE
8
MCD_Layer_0
10
12.094362
20
3.839040
30
0.0
11
12.023250
21
3.909371
31
0.0
0
LINE
8
MCD_Layer_0
10
12.023250
20
3.909371
30
0.0
11
11.941338
21
3.966761
31
0.0
0
LINE
8
MCD_Layer_0
10
12.236146
20
3.472526
30
0.0
11
12.236146
21
2.931776
31
0.0
0
LINE
8
MCD_Layer_0
10
12.236146
20
2.478525
30
0.0
11
12.236146
21
0.500000
31
0.0
0
LINE
8
MCD_Layer_0
10
10.596570
20
0.500000
30
0.0
11
11.049819
21
0.500000
31
0.0
0
LINE
8
MCD_Layer_0
10
11.049819
20
2.478525
30
0.0
11
12.236146
21
2.478525
31
0.0
0
LINE
8
MCD_Layer_0
10
12.236146
20
2.931776
30
0.0
11
11.049819
21
2.931776
31
0.0
0
LINE
8
MCD_Layer_0
10
12.236146
20
0.500000
30
0.0
11
12.689393
21
0.500000
31
0.0
0
LINE
8
MCD_Layer_0
10
15.164599
20
0.548569
30
0.0
11
15.274205
21
0.580993
31
0.0
0
LINE
8
MCD_Layer_0
10
15.274205
20
0.580993
30
0.0
11
15.380086
21
0.624054
31
0.0
0
LINE
8
MCD_Layer_0
10
15.380086
20
0.624054
30
0.0
11
15.481210
21
0.677335
31
0.0
0
LINE
8
MCD_Layer_0
10
15.481210
20
0.677335
30
0.0
11
15.576594
21
0.740317
31
0.0
0
LINE
8
MCD_Layer_0
10
15.576594
20
0.740317
30
0.0
11
15.665311
21
0.812388
31
0.0
0
LINE
8
MCD_Layer_0
10
15.665311
20
0.812388
30
0.0
11
15.746498
21
0.892847
31
0.0
0
LINE
8
MCD_Layer_0
10
14.361303
20
0.565958
30
0.0
11
14.492495
21
0.531385
31
0.0
0
LINE
8
MCD_Layer_0
10
14.492495
20
0.531385
30
0.0
11
14.626362
21
0.509333
31
0.0
0
LINE
8
MCD_Layer_0
10
14.626362
20
0.509333
30
0.0
11
14.761711
21
0.500000
31
0.0
0
LINE
8
MCD_Layer_0
10
14.761711
20
0.500000
30
0.0
11
14.897338
21
0.503468
31
0.0
0
LINE
8
MCD_Layer_0
10
14.897338
20
0.503468
30
0.0
11
15.032034
21
0.519706
31
0.0
0
LINE
8
MCD_Layer_0
10
15.032034
20
0.519706
30
0.0
11
15.164599
21
0.548569
31
0.0
0
LINE
8
MCD_Layer_0
10
14.092379
20
0.699262
30
0.0
11
14.134244
21
0.671549
31
0.0
0
LINE
8
MCD_Layer_0
10
14.134244
20
0.671549
30
0.0
11
14.177437
21
0.645955
31
0.0
0
LINE
8
MCD_Layer_0
10
14.177437
20
0.645955
30
0.0
11
14.221851
21
0.622544
31
0.0
0
LINE
8
MCD_Layer_0
10
14.221851
20
0.622544
30
0.0
11
14.267376
21
0.601373
31
0.0
0
LINE
8
MCD_Layer_0
10
14.267376
20
0.601373
30
0.0
11
14.313898
21
0.582495
31
0.0
0
LINE
8
MCD_Layer_0
10
14.313898
20
0.582495
30
0.0
11
14.361303
21
0.565958
31
0.0
0
LINE
8
MCD_Layer_0
10
13.632191
20
1.153271
30
0.0
11
13.696798
21
1.066310
31
0.0
0
LINE
8
MCD_Layer_0
10
13.696798
20
1.066310
30
0.0
11
13.766609
21
0.983469
31
0.0
0
LINE
8
MCD_Layer_0
10
13.766609
20
0.983469
30
0.0
11
13.841362
21
0.905059
31
0.0
0
LINE
8
MCD_Layer_0
10
13.841362
20
0.905059
30
0.0
11
13.920776
21
0.831373
31
0.0
0
LINE
8
MCD_Layer_0
10
13.920776
20
0.831373
30
0.0
11
14.004553
21
0.762688
31
0.0
0
LINE
8
MCD_Layer_0
10
14.004553
20
0.762688
30
0.0
11
14.092379
21
0.699262
31
0.0
0
LINE
8
MCD_Layer_0
10
13.189393
20
2.499821
30
0.0
11
13.201820
21
2.259950
31
0.0
0
LINE
8
MCD_Layer_0
10
13.201820
20
2.259950
30
0.0
11
13.239645
21
2.022755
31
0.0
0
LINE
8
MCD_Layer_0
10
13.239645
20
2.022755
30
0.0
11
13.302441
21
1.790916
31
0.0
0
LINE
8
MCD_Layer_0
10
13.302441
20
1.790916
30
0.0
11
13.389497
21
1.567055
31
0.0
0
LINE
8
MCD_Layer_0
10
13.389497
20
1.567055
30
0.0
11
13.499829
21
1.353703
31
0.0
0
LINE
8
MCD_Layer_0
10
13.499829
20
1.353703
30
0.0
11
13.632191
21
1.153271
31
0.0
0
LINE
8
MCD_Layer_0
10
13.632191
20
3.847153
30
0.0
11
13.499762
21
3.646609
31
0.0
0
LINE
8
MCD_Layer_0
10
13.499762
20
3.646609
30
0.0
11
13.389388
21
3.433132
31
0.0
0
LINE
8
MCD_Layer_0
10
13.389388
20
3.433132
30
0.0
11
13.302316
21
3.209137
31
0.0
0
LINE
8
MCD_Layer_0
10
13.302316
20
3.209137
30
0.0
11
13.239534
21
2.977160
31
0.0
0
LINE
8
MCD_Layer_0
10
13.239534
20
2.977160
30
0.0
11
13.201750
21
2.739826
31
0.0
0
LINE
8
MCD_Layer_0
10
13.201750
20
2.739826
30
0.0
11
13.189393
21
2.499821
31
0.0
0
LINE
8
MCD_Layer_0
10
14.092379
20
4.300771
30
0.0
11
14.004630
21
4.237330
31
0.0
0
LINE
8
MCD_Layer_0
10
14.004630
20
4.237330
30
0.0
11
13.920904
21
4.168667
31
0.0
0
LINE
8
MCD_Layer_0
10
13.920904
20
4.168667
30
0.0
11
13.841511
21
4.095037
31
0.0
0
LINE
8
MCD_Layer_0
10
13.841511
20
4.095037
30
0.0
11
13.766747
21
4.016711
31
0.0
0
LINE
8
MCD_Layer_0
10
13.766747
20
4.016711
30
0.0
11
13.696887
21
3.933981
31
0.0
0
LINE
8
MCD_Layer_0
10
13.696887
20
3.933981
30
0.0
11
13.632191
21
3.847153
31
0.0
0
LINE
8
MCD_Layer_0
10
14.361303
20
4.434462
30
0.0
11
14.313854
21
4.417947
31
0.0
0
LINE
8
MCD_Layer_0
10
14.313854
20
4.417947
30
0.0
11
14.267301
21
4.399055
31
0.0
0
LINE
8
MCD_Layer_0
10
14.267301
20
4.399055
30
0.0
11
14.221762
21
4.377834
31
0.0
0
LINE
8
MCD_Layer_0
10
14.221762
20
4.377834
30
0.0
11
14.177353
21
4.354339
31
0.0
0
LINE
8
MCD_Layer_0
10
14.177353
20
4.354339
30
0.0
11
14.134189
21
4.328630
31
0.0
0
LINE
8
MCD_Layer_0
10
14.134189
20
4.328630
30
0.0
11
14.092379
21
4.300771
31
0.0
0
LINE
8
MCD_Layer_0
10
15.164599
20
4.451847
30
0.0
11
15.032010
21
4.480480
31
0.0
0
LINE
8
MCD_Layer_0
10
15.032010
20
4.480480
30
0.0
11
14.897323
21
4.496578
31
0.0
0
LINE
8
MCD_Layer_0
10
14.897323
20
4.496578
30
0.0
11
14.761720
21
4.500000
31
0.0
0
LINE
8
MCD_Layer_0
10
14.761720
20
4.500000
30
0.0
11
14.626393
21
4.490715
31
0.0
0
LINE
8
MCD_Layer_0
10
14.626393
20
4.490715
30
0.0
11
14.492529
21
4.468805
31
0.0
0
LINE
8
MCD_Layer_0
10
14.492529
20
4.468805
30
0.0
11
14.361303
21
4.434462
31
0.0
0
LINE
8
MCD_Layer_0
10
15.746498
20
4.107581
30
0.0
11
15.665197
21
4.187893
31
0.0
0
LINE
8
MCD_Layer_0
10
15.665197
20
4.187893
30
0.0
11
15.576427
21
4.259864
31
0.0
0
LINE
8
MCD_Layer_0
10
15.576427
20
4.259864
30
0.0
11
15.481040
21
4.322802
31
0.0
0
LINE
8
MCD_Layer_0
10
15.481040
20
4.322802
30
0.0
11
15.379952
21
4.376104
31
0.0
0
LINE
8
MCD_Layer_0
10
15.379952
20
4.376104
30
0.0
11
15.274133
21
4.419257
31
0.0
0
LINE
8
MCD_Layer_0
10
15.274133
20
4.419257
30
0.0
11
15.164599
21
4.451847
31
0.0
0
LINE
8
MCD_Layer_0
10
15.746498
20
4.107581
30
0.0
11
15.426184
21
3.799242
31
0.0
0
LINE
8
MCD_Layer_0
10
15.426184
20
3.799242
30
0.0
11
15.374731
21
3.851542
31
0.0
0
LINE
8
MCD_Layer_0
10
15.374731
20
3.851542
30
0.0
11
15.318230
21
3.898341
31
0.0
0
LINE
8
MCD_Layer_0
10
15.318230
20
3.898341
30
0.0
11
15.257265
21
3.939156
31
0.0
0
LINE
8
MCD_Layer_0
10
15.257265
20
3.939156
30
0.0
11
15.192468
21
3.973565
31
0.0
0
LINE
8
MCD_Layer_0
10
15.192468
20
3.973565
30
0.0
11
15.124509
21
4.001209
31
0.0
0
LINE
8
MCD_Layer_0
10
15.124509
20
4.001209
30
0.0
11
15.054093
21
4.021805
31
0.0
0
LINE
8
MCD_Layer_0
10
15.054093
20
4.021805
30
0.0
11
14.961779
21
4.041863
31
0.0
0
LINE
8
MCD_Layer_0
10
14.961779
20
4.041863
30
0.0
11
14.867994
21
4.053207
31
0.0
0
LINE
8
MCD_Layer_0
10
14.867994
20
4.053207
30
0.0
11
14.773559
21
4.055736
31
0.0
0
LINE
8
MCD_Layer_0
10
14.773559
20
4.055736
30
0.0
11
14.679301
21
4.049428
31
0.0
0
LINE
8
MCD_Layer_0
10
14.679301
20
4.049428
30
0.0
11
14.586046
21
4.034338
31
0.0
0
LINE
8
MCD_Layer_0
10
14.586046
20
4.034338
30
0.0
11
14.494608
21
4.010599
31
0.0
0
LINE
8
MCD_Layer_0
10
14.494608
20
4.010599
30
0.0
11
14.468647
21
4.001394
31
0.0
0
LINE
8
MCD_Layer_0
10
14.468647
20
4.001394
30
0.0
11
14.443174
21
3.990914
31
0.0
0
LINE
8
MCD_Layer_0
10
14.443174
20
3.990914
30
0.0
11
14.418252
21
3.979184
31
0.0
0
LINE
8
MCD_Layer_0
10
14.418252
20
3.979184
30
0.0
11
14.393941
21
3.966233
31
0.0
0
LINE
8
MCD_Layer_0
10
14.393941
20
3.966233
30
0.0
11
14.370303
21
3.952093
31
0.0
0
LINE
8
MCD_Layer_0
10
14.370303
20
3.952093
30
0.0
11
14.347394
21
3.936798
31
0.0
0
LINE
8
MCD_Layer_0
10
14.347394
20
3.936798
30
0.0
11
14.278180
21
3.887187
31
0.0
0
LINE
8
MCD_Layer_0
10
14.278180
20
3.887187
30
0.0
11
14.212274
21
3.833257
31
0.0
0
LINE
8
MCD_Layer_0
10
14.212274
20
3.833257
30
0.0
11
14.149946
21
3.775229
31
0.0
0
LINE
8
MCD_Layer_0
10
14.149946
20
3.775229
30
0.0
11
14.091451
21
3.713339
31
0.0
0
LINE
8
MCD_Layer_0
10
14.091451
20
3.713339
30
0.0
11
14.037027
21
3.647841
31
0.0
0
LINE
8
MCD_Layer_0
10
14.037027
20
3.647841
30
0.0
11
13.986896
21
3.579001
31
0.0
0
LINE
8
MCD_Layer_0
10
13.986896
20
3.579001
30
0.0
11
13.880905
21
3.418482
31
0.0
0
LINE
8
MCD_Layer_0
10
13.880905
20
3.418482
30
0.0
11
13.792805
21
3.247487
31
0.0
0
LINE
8
MCD_Layer_0
10
13.792805
20
3.247487
30
0.0
11
13.723621
21
3.068004
31
0.0
0
LINE
8
MCD_Layer_0
10
13.723621
20
3.068004
30
0.0
11
13.674155
21
2.882118
31
0.0
0
LINE
8
MCD_Layer_0
10
13.674155
20
2.882118
30
0.0
11
13.644982
21
2.691987
31
0.0
0
LINE
8
MCD_Layer_0
10
13.644982
20
2.691987
30
0.0
11
13.636441
21
2.499821
31
0.0
0
LINE
8
MCD_Layer_0
10
13.636441
20
2.499821
30
0.0
11
13.645084
21
2.307735
31
0.0
0
LINE
8
MCD_Layer_0
10
13.645084
20
2.307735
30
0.0
11
13.674315
21
2.117689
31
0.0
0
LINE
8
MCD_Layer_0
10
13.674315
20
2.117689
30
0.0
11
13.723799
21
1.931885
31
0.0
0
LINE
8
MCD_Layer_0
10
13.723799
20
1.931885
30
0.0
11
13.792960
21
1.752473
31
0.0
0
LINE
8
MCD_Layer_0
10
13.792960
20
1.752473
30
0.0
11
13.880999
21
1.581531
31
0.0
0
LINE
8
MCD_Layer_0
10
13.880999
20
1.581531
30
0.0
11
13.986896
21
1.421039
31
0.0
0
LINE
8
MCD_Layer_0
10
13.986896
20
1.421039
30
0.0
11
14.037027
21
1.352200
31
0.0
0
LINE
8
MCD_Layer_0
10
14.037027
20
1.352200
30
0.0
11
14.091451
21
1.286701
31
0.0
0
LINE
8
MCD_Layer_0
10
14.091451
20
1.286701
30
0.0
11
14.149946
21
1.224812
31
0.0
0
LINE
8
MCD_Layer_0
10
14.149946
20
1.224812
30
0.0
11
14.212274
21
1.166784
31
0.0
0
LINE
8
MCD_Layer_0
10
14.212274
20
1.166784
30
0.0
11
14.278180
21
1.112854
31
0.0
0
LINE
8
MCD_Layer_0
10
14.278180
20
1.112854
30
0.0
11
14.347394
21
1.063242
31
0.0
0
LINE
8
MCD_Layer_0
10
14.347394
20
1.063242
30
0.0
11
14.370259
21
1.047922
31
0.0
0
LINE
8
MCD_Layer_0
10
14.370259
20
1.047922
30
0.0
11
14.393875
21
1.033790
31
0.0
0
LINE
8
MCD_Layer_0
10
14.393875
20
1.033790
30
0.0
11
14.418183
21
1.020882
31
0.0
0
LINE
8
MCD_Layer_0
10
14.418183
20
1.020882
30
0.0
11
14.443118
21
1.009232
31
0.0
0
LINE
8
MCD_Layer_0
10
14.443118
20
1.009232
30
0.0
11
14.468615
21
0.998871
31
0.0
0
LINE
8
MCD_Layer_0
10
14.468615
20
0.998871
30
0.0
11
14.494608
21
0.989825
31
0.0
0
LINE
8
MCD_Layer_0
10
14.494608
20
0.989825
30
0.0
11
14.586018
21
0.965938
31
0.0
0
LINE
8
MCD_Layer_0
10
14.586018
20
0.965938
30
0.0
11
14.679266
21
0.950732
31
0.0
0
LINE
8
MCD_Layer_0
10
14.679266
20
0.950732
30
0.0
11
14.773529
21
0.944342
31
0.0
0
LINE
8
MCD_Layer_0
10
14.773529
20
0.944342
30
0.0
11
14.867975
21
0.946823
31
0.0
0
LINE
8
MCD_Layer_0
10
14.867975
20
0.946823
30
0.0
11
14.961773
21
0.958155
31
0.0
0
LINE
8
MCD_Layer_0
10
14.961773
20
0.958155
30
0.0
11
15.054093
21
0.978236
31
0.0
0
LINE
8
MCD_Layer_0
10
15.054093
20
0.978236
30
0.0
11
15.124509
21
0.998831
31
0.0
0
LINE
8
MCD_Layer_0
10
15.124509
20
0.998831
30
0.0
11
15.192468
21
1.026476
31
0.0
0
LINE
8
MCD_Layer_0
10
15.192468
20
1.026476
30
0.0
11
15.257265
21
1.060884
31
0.0
0
LINE
8
MCD_Layer_0
10
15.257265
20
1.060884
30
0.0
11
15.318230
21
1.101699
31
0.0
0
LINE
8
MCD_Layer_0
10
15.318230
20
1.101699
30
0.0
11
15.374731
21
1.148499
31
0.0
0
LINE
8
MCD_Layer_0
10
15.374731
20
1.148499
30
0.0
11
15.426184
21
1.200798
31
0.0
0
LINE
8
MCD_Layer_0
10
15.426184
20
1.200798
30
0.0
11
15.746498
21
0.892847
31
0.0
0
LINE
8
MCD_Layer_0
10
16.246498
20
0.500000
30
0.0
11
16.246498
21
4.500000
31
0.0
0
LINE
8
MCD_Layer_0
10
16.246498
20
4.500000
30
0.0
11
16.706501
21
4.500000
31
0.0
0
LINE
8
MCD_Layer_0
10
16.706501
20
4.500000
30
0.0
11
16.706501
21
2.720402
31
0.0
0
LINE
8
MCD_Layer_0
10
16.706501
20
2.720402
30
0.0
11
16.795709
21
2.765457
31
0.0
0
LINE
8
MCD_Layer_0
10
16.795709
20
2.765457
30
0.0
11
16.882887
21
2.814326
31
0.0
0
LINE
8
MCD_Layer_0
10
16.882887
20
2.814326
30
0.0
11
16.967871
21
2.866917
31
0.0
0
LINE
8
MCD_Layer_0
10
16.967871
20
2.866917
30
0.0
11
17.050504
21
2.923130
31
0.0
0
LINE
8
MCD_Layer_0
10
17.050504
20
2.923130
30
0.0
11
17.130630
21
2.982862
31
0.0
0
LINE
8
MCD_Layer_0
10
17.130630
20
2.982862
30
0.0
11
17.208100
21
3.046001
31
0.0
0
LINE
8
MCD_Layer_0
10
17.208100
20
3.046001
30
0.0
11
17.257534
21
3.092141
31
0.0
0
LINE
8
MCD_Layer_0
10
17.257534
20
3.092141
30
0.0
11
17.305496
21
3.139809
31
0.0
0
LINE
8
MCD_Layer_0
10
17.305496
20
3.139809
30
0.0
11
17.351939
21
3.188959
31
0.0
0
LINE
8
MCD_Layer_0
10
17.351939
20
3.188959
30
0.0
11
17.396817
21
3.239542
31
0.0
0
LINE
8
MCD_Layer_0
10
17.396817
20
3.239542
30
0.0
11
17.440085
21
3.291508
31
0.0
0
LINE
8
MCD_Layer_0
10
17.440085
20
3.291508
30
0.0
11
17.481701
21
3.344807
31
0.0
0
LINE
8
MCD_Layer_0
10
17.481701
20
3.344807
30
0.0
11
17.548433
21
3.438741
31
0.0
0
LINE
8
MCD_Layer_0
10
17.548433
20
3.438741
30
0.0
11
17.610077
21
3.536091
31
0.0
0
LINE
8
MCD_Layer_0
10
17.610077
20
3.536091
30
0.0
11
17.666457
21
3.636581
31
0.0
0
LINE
8
MCD_Layer_0
10
17.666457
20
3.636581
30
0.0
11
17.717415
21
3.739926
31
0.0
0
LINE
8
MCD_Layer_0
10
17.717415
20
3.739926
30
0.0
11
17.762806
21
3.845834
31
0.0
0
LINE
8
MCD_Layer_0
10
17.762806
20
3.845834
30
0.0
11
17.802502
21
3.954006
31
0.0
0
LINE
8
MCD_Layer_0
10
17.802502
20
3.954006
30
0.0
11
17.830249
21
4.042775
31
0.0
0
LINE
8
MCD_Layer_0
10
17.830249
20
4.042775
30
0.0
11
17.854123
21
4.132662
31
0.0
0
LINE
8
MCD_Layer_0
10
17.854123
20
4.132662
30
0.0
11
17.874079
21
4.223500
31
0.0
0
LINE
8
MCD_Layer_0
10
17.874079
20
4.223500
30
0.0
11
17.890080
21
4.315117
31
0.0
0
LINE
8
MCD_Layer_0
10
17.890080
20
4.315117
30
0.0
11
17.902095
21
4.407341
31
0.0
0
LINE
8
MCD_Layer_0
10
17.902095
20
4.407341
30
0.0
11
17.910103
21
4.500000
31
0.0
0
LINE
8
MCD_Layer_0
10
17.910103
20
4.500000
30
0.0
11
18.370896
21
4.500000
31
0.0
0
LINE
8
MCD_Layer_0
10
18.238499
20
3.807205
30
0.0
11
18.273727
21
3.919736
31
0.0
0
LINE
8
MCD_Layer_0
10
18.273727
20
3.919736
30
0.0
11
18.303764
21
4.033762
31
0.0
0
LINE
8
MCD_Layer_0
10
18.303764
20
4.033762
30
0.0
11
18.328545
21
4.149045
31
0.0
0
LINE
8
MCD_Layer_0
10
18.328545
20
4.149045
30
0.0
11
18.348020
21
4.265342
31
0.0
0
LINE
8
MCD_Layer_0
10
18.348020
20
4.265342
30
0.0
11
18.362146
21
4.382409
31
0.0
0
LINE
8
MCD_Layer_0
10
18.362146
20
4.382409
30
0.0
11
18.370896
21
4.500000
31
0.0
0
LINE
8
MCD_Layer_0
10
17.849301
20
3.068802
30
0.0
11
17.930202
21
3.182678
31
0.0
0
LINE
8
MCD_Layer_0
10
17.930202
20
3.182678
30
0.0
11
18.004951
21
3.300684
31
0.0
0
LINE
8
MCD_Layer_0
10
18.004951
20
3.300684
30
0.0
11
18.073338
21
3.422487
31
0.0
0
LINE
8
MCD_Layer_0
10
18.073338
20
3.422487
30
0.0
11
18.135172
21
3.547744
31
0.0
0
LINE
8
MCD_Layer_0
10
18.135172
20
3.547744
30
0.0
11
18.190277
21
3.676104
31
0.0
0
LINE
8
MCD_Layer_0
10
18.190277
20
3.676104
30
0.0
11
18.238499
21
3.807205
31
0.0
0
LINE
8
MCD_Layer_0
10
17.506500
20
2.695999
30
0.0
11
17.568566
21
2.753397
31
0.0
0
LINE
8
MCD_Layer_0
10
17.568566
20
2.753397
30
0.0
11
17.628740
21
2.812775
31
0.0
0
LINE
8
MCD_Layer_0
10
17.628740
20
2.812775
30
0.0
11
17.686961
21
2.874069
31
0.0
0
LINE
8
MCD_Layer_0
10
17.686961
20
2.874069
30
0.0
11
17.743167
21
2.937216
31
0.0
0
LINE
8
MCD_Layer_0
10
17.743167
20
2.937216
30
0.0
11
17.797299
21
3.002150
31
0.0
0
LINE
8
MCD_Layer_0
10
17.797299
20
3.002150
30
0.0
11
17.849301
21
3.068802
31
0.0
0
LINE
8
MCD_Layer_0
10
17.909702
20
2.071602
30
0.0
11
17.848041
21
2.179135
31
0.0
0
LINE
8
MCD_Layer_0
10
17.848041
20
2.179135
30
0.0
11
17.784125
21
2.285344
31
0.0
0
LINE
8
MCD_Layer_0
10
17.784125
20
2.285344
30
0.0
11
17.717983
21
2.390181
31
0.0
0
LINE
8
MCD_Layer_0
10
17.717983
20
2.390181
30
0.0
11
17.649644
21
2.493600
31
0.0
0
LINE
8
MCD_Layer_0
10
17.649644
20
2.493600
30
0.0
11
17.579140
21
2.595555
31
0.0
0
LINE
8
MCD_Layer_0
10
17.579140
20
2.595555
30
0.0
11
17.506500
21
2.695999
31
0.0
0
LINE
8
MCD_Layer_0
10
18.347702
20
1.064404
30
0.0
11
18.288463
21
1.237903
31
0.0
0
LINE
8
MCD_Layer_0
10
18.288463
20
1.237903
30
0.0
11
18.223623
21
1.409388
31
0.0
0
LINE
8
MCD_Layer_0
10
18.223623
20
1.409388
30
0.0
11
18.153250
21
1.578678
31
0.0
0
LINE
8
MCD_Layer_0
10
18.153250
20
1.578678
30
0.0
11
18.077418
21
1.745593
31
0.0
0
LINE
8
MCD_Layer_0
10
18.077418
20
1.745593
30
0.0
11
17.996207
21
1.909959
31
0.0
0
LINE
8
MCD_Layer_0
10
17.996207
20
1.909959
30
0.0
11
17.909702
21
2.071602
31
0.0
0
LINE
8
MCD_Layer_0
10
18.498501
20
0.500000
30
0.0
11
18.477466
21
0.595112
31
0.0
0
LINE
8
MCD_Layer_0
10
18.477466
20
0.595112
30
0.0
11
18.454783
21
0.689843
31
0.0
0
LINE
8
MCD_Layer_0
10
18.454783
20
0.689843
30
0.0
11
18.430457
21
0.784167
31
0.0
0
LINE
8
MCD_Layer_0
10
18.430457
20
0.784167
30
0.0
11
18.404496
21
0.878054
31
0.0
0
LINE
8
MCD_Layer_0
10
18.404496
20
0.878054
30
0.0
11
18.376908
21
0.971475
31
0.0
0
LINE
8
MCD_Layer_0
10
18.376908
20
0.971475
30
0.0
11
18.347702
21
1.064404
31
0.0
0
LINE
8
MCD_Layer_0
10
18.498501
20
0.500000
30
0.0
11
18.027302
21
0.500000
31
0.0
0
LINE
8
MCD_Layer_0
10
18.027302
20
0.500000
30
0.0
11
18.010289
21
0.571140
31
0.0
0
LINE
8
MCD_Layer_0
10
18.010289
20
0.571140
30
0.0
11
17.992262
21
0.642031
31
0.0
0
LINE
8
MCD_Layer_0
10
17.992262
20
0.642031
30
0.0
11
17.973227
21
0.712657
31
0.0
0
LINE
8
MCD_Layer_0
10
17.973227
20
0.712657
30
0.0
11
17.953186
21
0.783004
31
0.0
0
LINE
8
MCD_Layer_0
10
17.953186
20
0.783004
30
0.0
11
17.932143
21
0.853059
31
0.0
0
LINE
8
MCD_Layer_0
10
17.932143
20
0.853059
30
0.0
11
17.910103
21
0.922806
31
0.0
0
LINE
8
MCD_Layer_0
10
17.910103
20
0.922806
30
0.0
11
17.855656
21
1.082012
31
0.0
0
LINE
8
MCD_Layer_0
10
17.855656
20
1.082012
30
0.0
11
17.796099
21
1.239379
31
0.0
0
LINE
8
MCD_Layer_0
10
17.796099
20
1.239379
30
0.0
11
17.731496
21
1.394742
31
0.0
0
LINE
8
MCD_Layer_0
10
17.731496
20
1.394742
30
0.0
11
17.661913
21
1.547940
31
0.0
0
LINE
8
MCD_Layer_0
10
17.661913
20
1.547940
30
0.0
11
17.587423
21
1.698812
31
0.0
0
LINE
8
MCD_Layer_0
10
17.587423
20
1.698812
30
0.0
11
17.508103
21
1.847202
31
0.0
0
LINE
8
MCD_Layer_0
10
17.508103
20
1.847202
30
0.0
11
17.450762
21
1.947190
31
0.0
0
LINE
8
MCD_Layer_0
10
17.450762
20
1.947190
30
0.0
11
17.391308
21
2.045934
31
0.0
0
LINE
8
MCD_Layer_0
10
17.391308
20
2.045934
30
0.0
11
17.329766
21
2.143392
31
0.0
0
LINE
8
MCD_Layer_0
10
17.329766
20
2.143392
30
0.0
11
17.266164
21
2.239517
31
0.0
0
LINE
8
MCD_Layer_0
10
17.266164
20
2.239517
30
0.0
11
17.200531
21
2.334268
31
0.0
0
LINE
8
MCD_Layer_0
10
17.200531
20
2.334268
30
0.0
11
17.132897
21
2.427601
31
0.0
0
LINE
8
MCD_Layer_0
10
16.706501
20
2.220005
30
0.0
11
16.779988
21
2.249375
31
0.0
0
LINE
8
MCD_Layer_0
10
16.779988
20
2.249375
30
0.0
11
16.852589
21
2.280874
31
0.0
0
LINE
8
MCD_Layer_0
10
16.852589
20
2.280874
30
0.0
11
16.924240
21
2.314476
31
0.0
0
LINE
8
MCD_Layer_0
10
16.924240
20
2.314476
30
0.0
11
16.994882
21
2.350151
31
0.0
0
LINE
8
MCD_Layer_0
10
16.994882
20
2.350151
30
0.0
11
17.064453
21
2.387870
31
0.0
0
LINE
8
MCD_Layer_0
10
17.064453
20
2.387870
30
0.0
11
17.132897
21
2.427601
31
0.0
0
LINE
8
MCD_Layer_0
10
16.706501
20
2.220005
30
0.0
11
16.706501
21
0.500000
31
0.0
0
LINE
8
MCD_Layer_0
10
16.706501
20
0.500000
30
0.0
11
16.246498
21
0.500000
31
0.0
0
LINE
8
MCD_Layer_0
10
27.137584
20
0.593986
30
0.0
11
27.196652
21
0.623415
31
0.0
0
LINE
8
MCD_Layer_0
10
27.196652
20
0.623415
30
0.0
11
27.253746
21
0.656511
31
0.0
0
LINE
8
MCD_Layer_0
10
27.253746
20
0.656511
30
0.0
11
27.308638
21
0.693142
31
0.0
0
LINE
8
MCD_Layer_0
10
27.308638
20
0.693142
30
0.0
11
27.361110
21
0.733163
31
0.0
0
LINE
8
MCD_Layer_0
10
27.361110
20
0.733163
30
0.0
11
27.410954
21
0.776414
31
0.0
0
LINE
8
MCD_Layer_0
10
27.410954
20
0.776414
30
0.0
11
27.457970
21
0.822723
31
0.0
0
LINE
8
MCD_Layer_0
10
26.705349
20
0.500000
30
0.0
11
26.779577
21
0.502632
31
0.0
0
LINE
8
MCD_Layer_0
10
26.779577
20
0.502632
30
0.0
11
26.853428
21
0.510557
31
0.0
0
LINE
8
MCD_Layer_0
10
26.853428
20
0.510557
30
0.0
11
26.926524
21
0.523736
31
0.0
0
LINE
8
MCD_Layer_0
10
26.926524
20
0.523736
30
0.0
11
26.998492
21
0.542101
31
0.0
0
LINE
8
MCD_Layer_0
10
26.998492
20
0.542101
30
0.0
11
27.068965
21
0.565557
31
0.0
0
LINE
8
MCD_Layer_0
10
27.068965
20
0.565557
30
0.0
11
27.137584
21
0.593986
31
0.0
0
LINE
8
MCD_Layer_0
10
26.273117
20
0.593986
30
0.0
11
26.341735
21
0.565557
31
0.0
0
LINE
8
MCD_Layer_0
10
26.341735
20
0.565557
30
0.0
11
26.412208
21
0.542100
31
0.0
0
LINE
8
MCD_Layer_0
10
26.412208
20
0.542100
30
0.0
11
26.484176
21
0.523736
31
0.0
0
LINE
8
MCD_Layer_0
10
26.484176
20
0.523736
30
0.0
11
26.557272
21
0.510557
31
0.0
0
LINE
8
MCD_Layer_0
10
26.557272
20
0.510557
30
0.0
11
26.631122
21
0.502632
31
0.0
0
LINE
8
MCD_Layer_0
10
26.631122
20
0.502632
30
0.0
11
26.705349
21
0.500000
31
0.0
0
LINE
8
MCD_Layer_0
10
25.849815
20
0.950101
30
0.0
11
25.906053
21
0.875671
31
0.0
0
LINE
8
MCD_Layer_0
10
25.906053
20
0.875671
30
0.0
11
25.968735
21
0.806580
31
0.0
0
LINE
8
MCD_Layer_0
10
25.968735
20
0.806580
30
0.0
11
26.037355
21
0.743383
31
0.0
0
LINE
8
MCD_Layer_0
10
26.037355
20
0.743383
30
0.0
11
26.111362
21
0.686590
31
0.0
0
LINE
8
MCD_Layer_0
10
26.111362
20
0.686590
30
0.0
11
26.190161
21
0.636657
31
0.0
0
LINE
8
MCD_Layer_0
10
26.190161
20
0.636657
30
0.0
11
26.273117
21
0.593986
31
0.0
0
LINE
8
MCD_Layer_0
10
25.666903
20
1.541167
30
0.0
11
25.671817
21
1.436604
31
0.0
0
LINE
8
MCD_Layer_0
10
25.671817
20
1.436604
30
0.0
11
25.687276
21
1.333073
31
0.0
0
LINE
8
MCD_Layer_0
10
25.687276
20
1.333073
30
0.0
11
25.713122
21
1.231635
31
0.0
0
LINE
8
MCD_Layer_0
10
25.713122
20
1.231635
30
0.0
11
25.749089
21
1.133329
31
0.0
0
LINE
8
MCD_Layer_0
10
25.749089
20
1.133329
30
0.0
11
25.794810
21
1.039163
31
0.0
0
LINE
8
MCD_Layer_0
10
25.794810
20
1.039163
30
0.0
11
25.849815
21
0.950101
31
0.0
0
LINE
8
MCD_Layer_0
10
25.666903
20
1.541167
30
0.0
11
25.666903
21
3.458836
31
0.0
0
LINE
8
MCD_Layer_0
10
25.849815
20
4.049907
30
0.0
11
25.794810
21
3.960844
31
0.0
0
LINE
8
MCD_Layer_0
10
25.794810
20
3.960844
30
0.0
11
25.749089
21
3.866677
31
0.0
0
LINE
8
MCD_Layer_0
10
25.749089
20
3.866677
30
0.0
11
25.713122
21
3.768371
31
0.0
0
LINE
8
MCD_Layer_0
10
25.713122
20
3.768371
30
0.0
11
25.687276
21
3.666932
31
0.0
0
LINE
8
MCD_Layer_0
10
25.687276
20
3.666932
30
0.0
11
25.671817
21
3.563401
31
0.0
0
LINE
8
MCD_Layer_0
10
25.671817
20
3.563401
30
0.0
11
25.666903
21
3.458836
31
0.0
0
LINE
8
MCD_Layer_0
10
26.273117
20
4.406018
30
0.0
11
26.190161
21
4.363347
31
0.0
0
LINE
8
MCD_Layer_0
10
26.190161
20
4.363347
30
0.0
11
26.111363
21
4.313414
31
0.0
0
LINE
8
MCD_Layer_0
10
26.111363
20
4.313414
30
0.0
11
26.037356
21
4.256621
31
0.0
0
LINE
8
MCD_Layer_0
10
26.037356
20
4.256621
30
0.0
11
25.968736
21
4.193426
31
0.0
0
LINE
8
MCD_Layer_0
10
25.968736
20
4.193426
30
0.0
11
25.906054
21
4.124336
31
0.0
0
LINE
8
MCD_Layer_0
10
25.906054
20
4.124336
30
0.0
11
25.849815
21
4.049907
31
0.0
0
LINE
8
MCD_Layer_0
10
26.705349
20
4.500000
30
0.0
11
26.631122
21
4.497370
31
0.0
0
LINE
8
MCD_Layer_0
10
26.631122
20
4.497370
30
0.0
11
26.557272
21
4.489446
31
0.0
0
LINE
8
MCD_Layer_0
10
26.557272
20
4.489446
30
0.0
11
26.484176
21
4.476268
31
0.0
0
LINE
8
MCD_Layer_0
10
26.484176
20
4.476268
30
0.0
11
26.412208
21
4.457904
31
0.0
0
LINE
8
MCD_Layer_0
10
26.412208
20
4.457904
30
0.0
11
26.341735
21
4.434447
31
0.0
0
LINE
8
MCD_Layer_0
10
26.341735
20
4.434447
30
0.0
11
26.273117
21
4.406018
31
0.0
0
LINE
8
MCD_Layer_0
10
27.137584
20
4.406018
30
0.0
11
27.068966
21
4.434447
31
0.0
0
LINE
8
MCD_Layer_0
10
27.068966
20
4.434447
30
0.0
11
26.998492
21
4.457904
31
0.0
0
LINE
8
MCD_Layer_0
10
26.998492
20
4.457904
30
0.0
11
26.926524
21
4.476268
31
0.0
0
LINE
8
MCD_Layer_0
10
26.926524
20
4.476268
30
0.0
11
26.853428
21
4.489445
31
0.0
0
LINE
8
MCD_Layer_0
10
26.853428
20
4.489445
30
0.0
11
26.779577
21
4.497370
31
0.0
0
LINE
8
MCD_Layer_0
10
26.779577
20
4.497370
30
0.0
11
26.705349
21
4.500000
31
0.0
0
LINE
8
MCD_Layer_0
10
27.561274
20
4.049907
30
0.0
11
27.504913
21
4.124295
31
0.0
0
LINE
8
MCD_Layer_0
10
27.504913
20
4.124295
30
0.0
11
27.442136
21
4.193355
31
0.0
0
LINE
8
MCD_Layer_0
10
27.442136
20
4.193355
30
0.0
11
27.373446
21
4.256536
31
0.0
0
LINE
8
MCD_Layer_0
10
27.373446
20
4.256536
30
0.0
11
27.299390
21
4.313334
31
0.0
0
LINE
8
MCD_Layer_0
10
27.299390
20
4.313334
30
0.0
11
27.220559
21
4.363294
31
0.0
0
LINE
8
MCD_Layer_0
10
27.220559
20
4.363294
30
0.0
11
27.137584
21
4.406018
31
0.0
0
LINE
8
MCD_Layer_0
10
27.743798
20
3.458836
30
0.0
11
27.738849
21
3.563368
31
0.0
0
LINE
8
MCD_Layer_0
10
27.738849
20
3.563368
30
0.0
11
27.723398
21
3.666869
31
0.0
0
LINE
8
MCD_Layer_0
10
27.723398
20
3.666869
30
0.0
11
27.697601
21
3.768288
31
0.0
0
LINE
8
MCD_Layer_0
10
27.697601
20
3.768288
30
0.0
11
27.661722
21
3.866593
31
0.0
0
LINE
8
MCD_Layer_0
10
27.661722
20
3.866593
30
0.0
11
27.616125
21
3.960785
31
0.0
0
LINE
8
MCD_Layer_0
10
27.616125
20
3.960785
30
0.0
11
27.561274
21
4.049907
31
0.0
0
LINE
8
MCD_Layer_0
10
27.743798
20
3.458836
30
0.0
11
27.743798
21
1.541167
31
0.0
0
LINE
8
MCD_Layer_0
10
27.668452
20
1.149320
30
0.0
11
27.691485
21
1.212142
31
0.0
0
LINE
8
MCD_Layer_0
10
27.691485
20
1.212142
30
0.0
11
27.710415
21
1.276318
31
0.0
0
LINE
8
MCD_Layer_0
10
27.710415
20
1.276318
30
0.0
11
27.725164
21
1.341583
31
0.0
0
LINE
8
MCD_Layer_0
10
27.725164
20
1.341583
30
0.0
11
27.735670
21
1.407663
31
0.0
0
LINE
8
MCD_Layer_0
10
27.735670
20
1.407663
30
0.0
11
27.741890
21
1.474284
31
0.0
0
LINE
8
MCD_Layer_0
10
27.741890
20
1.474284
30
0.0
11
27.743798
21
1.541167
31
0.0
0
LINE
8
MCD_Layer_0
10
27.668452
20
1.149320
30
0.0
11
27.913504
21
1.020002
31
0.0
0
LINE
8
MCD_Layer_0
10
28.066903
20
0.861944
30
0.0
11
28.050589
21
0.895834
31
0.0
0
LINE
8
MCD_Layer_0
10
28.050589
20
0.895834
30
0.0
11
28.030060
21
0.927350
31
0.0
0
LINE
8
MCD_Layer_0
10
28.030060
20
0.927350
30
0.0
11
28.005655
21
0.955969
31
0.0
0
LINE
8
MCD_Layer_0
10
28.005655
20
0.955969
30
0.0
11
27.977778
21
0.981219
31
0.0
0
LINE
8
MCD_Layer_0
10
27.977778
20
0.981219
30
0.0
11
27.946891
21
1.002682
31
0.0
0
LINE
8
MCD_Layer_0
10
27.946891
20
1.002682
30
0.0
11
27.913504
21
1.020002
31
0.0
0
LINE
8
MCD_Layer_0
10
28.084765
20
0.710490
30
0.0
11
28.087740
21
0.736060
31
0.0
0
LINE
8
MCD_Layer_0
10
28.087740
20
0.736060
30
0.0
11
28.088321
21
0.761796
31
0.0
0
LINE
8
MCD_Layer_0
10
28.088321
20
0.761796
30
0.0
11
28.086501
21
0.787475
31
0.0
0
LINE
8
MCD_Layer_0
10
28.086501
20
0.787475
30
0.0
11
28.082297
21
0.812872
31
0.0
0
LINE
8
MCD_Layer_0
10
28.082297
20
0.812872
30
0.0
11
28.075745
21
0.837768
31
0.0
0
LINE
8
MCD_Layer_0
10
28.075745
20
0.837768
30
0.0
11
28.066903
21
0.861944
31
0.0
0
LINE
8
MCD_Layer_0
10
28.043215
20
0.602919
30
0.0
11
28.053201
21
0.619499
31
0.0
0
LINE
8
MCD_Layer_0
10
28.053201
20
0.619499
30
0.0
11
28.062013
21
0.636732
31
0.0
0
LINE
8
MCD_Layer_0
10
28.062013
20
0.636732
30
0.0
11
28.069609
21
0.654534
31
0.0
0
LINE
8
MCD_Layer_0
10
28.069609
20
0.654534
30
0.0
11
28.075953
21
0.672820
31
0.0
0
LINE
8
MCD_Layer_0
10
28.075953
20
0.672820
30
0.0
11
28.081013
21
0.691502
31
0.0
0
LINE
8
MCD_Layer_0
10
28.081013
20
0.691502
30
0.0
11
28.084765
21
0.710490
31
0.0
0
LINE
8
MCD_Layer_0
10
27.899912
20
0.506992
30
0.0
11
27.929905
21
0.510806
31
0.0
0
LINE
8
MCD_Layer_0
10
27.929905
20
0.510806
30
0.0
11
27.958680
21
0.520083
31
0.0
0
LINE
8
MCD_Layer_0
10
27.958680
20
0.520083
30
0.0
11
27.985254
21
0.534504
31
0.0
0
LINE
8
MCD_Layer_0
10
27.985254
20
0.534504
30
0.0
11
28.008714
21
0.553575
31
0.0
0
LINE
8
MCD_Layer_0
10
28.008714
20
0.553575
30
0.0
11
28.028258
21
0.576644
31
0.0
0
LINE
8
MCD_Layer_0
10
28.028258
20
0.576644
30
0.0
11
28.043215
21
0.602919
31
0.0
0
LINE
8
MCD_Layer_0
10
27.779916
20
0.554372
30
0.0
11
27.796805
21
0.540232
31
0.0
0
LINE
8
MCD_Layer_0
10
27.796805
20
0.540232
30
0.0
11
27.815367
21
0.528370
31
0.0
0
LINE
8
MCD_Layer_0
10
27.815367
20
0.528370
30
0.0
11
27.835294
21
0.518982
31
0.0
0
LINE
8
MCD_Layer_0
10
27.835294
20
0.518982
30
0.0
11
27.856259
21
0.512223
31
0.0
0
LINE
8
MCD_Layer_0
10
27.856259
20
0.512223
30
0.0
11
27.877917
21
0.508205
31
0.0
0
LINE
8
MCD_Layer_0
10
27.877917
20
0.508205
30
0.0
11
27.899912
21
0.506992
31
0.0
0
LINE
8
MCD_Layer_0
10
27.779916
20
0.554372
30
0.0
11
27.457970
21
0.822723
31
0.0
0
LINE
8
MCD_Layer_0
10
27.113507
20
1.109710
30
0.0
11
26.568265
21
1.564081
31
0.0
0
LINE
8
MCD_Layer_0
10
26.555058
20
1.642916
30
0.0
11
26.551138
21
1.629503
31
0.0
0
LINE
8
MCD_Layer_0
10
26.551138
20
1.629503
30
0.0
11
26.549684
21
1.615604
31
0.0
0
LINE
8
MCD_Layer_0
10
26.549684
20
1.615604
30
0.0
11
26.550744
21
1.601670
31
0.0
0
LINE
8
MCD_Layer_0
10
26.550744
20
1.601670
30
0.0
11
26.554283
21
1.588151
31
0.0
0
LINE
8
MCD_Layer_0
10
26.554283
20
1.588151
30
0.0
11
26.560187
21
1.575485
31
0.0
0
LINE
8
MCD_Layer_0
10
26.560187
20
1.575485
30
0.0
11
26.568265
21
1.564081
31
0.0
0
LINE
8
MCD_Layer_0
10
26.590401
20
1.682529
30
0.0
11
26.582767
21
1.677737
31
0.0
0
LINE
8
MCD_Layer_0
10
26.582767
20
1.677737
30
0.0
11
26.575720
21
1.672116
31
0.0
0
LINE
8
MCD_Layer_0
10
26.575720
20
1.672116
30
0.0
11
26.569349
21
1.665738
31
0.0
0
LINE
8
MCD_Layer_0
10
26.569349
20
1.665738
30
0.0
11
26.563737
21
1.658685
31
0.0
0
LINE
8
MCD_Layer_0
10
26.563737
20
1.658685
30
0.0
11
26.558953
21
1.651045
31
0.0
0
LINE
8
MCD_Layer_0
10
26.558953
20
1.651045
30
0.0
11
26.555058
21
1.642916
31
0.0
0
LINE
8
MCD_Layer_0
10
26.676613
20
1.677089
30
0.0
11
26.663341
21
1.684122
31
0.0
0
LINE
8
MCD_Layer_0
10
26.663341
20
1.684122
30
0.0
11
26.649072
21
1.688812
31
0.0
0
LINE
8
MCD_Layer_0
10
26.649072
20
1.688812
30
0.0
11
26.634215
21
1.691025
31
0.0
0
LINE
8
MCD_Layer_0
10
26.634215
20
1.691025
30
0.0
11
26.619198
21
1.690698
31
0.0
0
LINE
8
MCD_Layer_0
10
26.619198
20
1.690698
30
0.0
11
26.604452
21
1.687838
31
0.0
0
LINE
8
MCD_Layer_0
10
26.604452
20
1.687838
30
0.0
11
26.590401
21
1.682529
31
0.0
0
LINE
8
MCD_Layer_0
10
26.676613
20
1.677089
30
0.0
11
27.269624
21
1.359810
31
0.0
0
LINE
8
MCD_Layer_0
10
27.269624
20
1.359810
30
0.0
11
27.277982
21
1.389003
31
0.0
0
LINE
8
MCD_Layer_0
10
27.277982
20
1.389003
30
0.0
11
27.284854
21
1.418582
31
0.0
0
LINE
8
MCD_Layer_0
10
27.284854
20
1.418582
30
0.0
11
27.290223
21
1.448469
31
0.0
0
LINE
8
MCD_Layer_0
10
27.290223
20
1.448469
30
0.0
11
27.294075
21
1.478590
31
0.0
0
LINE
8
MCD_Layer_0
10
27.294075
20
1.478590
30
0.0
11
27.296401
21
1.508867
31
0.0
0
LINE
8
MCD_Layer_0
10
27.296401
20
1.508867
30
0.0
11
27.297194
21
1.539223
31
0.0
0
LINE
8
MCD_Layer_0
10
27.297194
20
1.539223
30
0.0
11
27.297194
21
3.460388
31
0.0
0
LINE
8
MCD_Layer_0
10
27.297194
20
3.460388
30
0.0
11
27.294308
21
3.519870
31
0.0
0
LINE
8
MCD_Layer_0
10
27.294308
20
3.519870
30
0.0
11
27.285460
21
3.578760
31
0.0
0
LINE
8
MCD_Layer_0
10
27.285460
20
3.578760
30
0.0
11
27.270739
21
3.636464
31
0.0
0
LINE
8
MCD_Layer_0
10
27.270739
20
3.636464
30
0.0
11
27.250294
21
3.692395
31
0.0
0
LINE
8
MCD_Layer_0
10
27.250294
20
3.692395
30
0.0
11
27.224332
21
3.745990
31
0.0
0
LINE
8
MCD_Layer_0
10
27.224332
20
3.745990
30
0.0
11
27.193116
21
3.796704
31
0.0
0
LINE
8
MCD_Layer_0
10
27.193116
20
3.796704
30
0.0
11
27.160892
21
3.839237
31
0.0
0
LINE
8
MCD_Layer_0
10
27.160892
20
3.839237
30
0.0
11
27.124993
21
3.878717
31
0.0
0
LINE
8
MCD_Layer_0
10
27.124993
20
3.878717
30
0.0
11
27.085706
21
3.914828
31
0.0
0
LINE
8
MCD_Layer_0
10
27.085706
20
3.914828
30
0.0
11
27.043347
21
3.947280
31
0.0
0
LINE
8
MCD_Layer_0
10
27.043347
20
3.947280
30
0.0
11
26.998254
21
3.975813
31
0.0
0
LINE
8
MCD_Layer_0
10
26.998254
20
3.975813
30
0.0
11
26.950790
21
4.000197
31
0.0
0
LINE
8
MCD_Layer_0
10
26.950790
20
4.000197
30
0.0
11
26.911814
21
4.016282
31
0.0
0
LINE
8
MCD_Layer_0
10
26.911814
20
4.016282
30
0.0
11
26.871793
21
4.029555
31
0.0
0
LINE
8
MCD_Layer_0
10
26.871793
20
4.029555
30
0.0
11
26.830929
21
4.039949
31
0.0
0
LINE
8
MCD_Layer_0
10
26.830929
20
4.039949
30
0.0
11
26.789430
21
4.047411
31
0.0
0
LINE
8
MCD_Layer_0
10
26.789430
20
4.047411
30
0.0
11
26.747505
21
4.051903
31
0.0
0
LINE
8
MCD_Layer_0
10
26.747505
20
4.051903
30
0.0
11
26.705367
21
4.053403
31
0.0
0
LINE
8
MCD_Layer_0
10
26.705349
20
4.053403
30
0.0
11
26.663005
21
4.051875
31
0.0
0
LINE
8
MCD_Layer_0
10
26.663005
20
4.051875
30
0.0
11
26.620876
21
4.047340
31
0.0
0
LINE
8
MCD_Layer_0
10
26.620876
20
4.047340
30
0.0
11
26.579177
21
4.039820
31
0.0
0
LINE
8
MCD_Layer_0
10
26.579177
20
4.039820
30
0.0
11
26.538118
21
4.029354
31
0.0
0
LINE
8
MCD_Layer_0
10
26.538118
20
4.029354
30
0.0
11
26.497907
21
4.015994
31
0.0
0
LINE
8
MCD_Layer_0
10
26.497907
20
4.015994
30
0.0
11
26.458748
21
3.999808
31
0.0
0
LINE
8
MCD_Layer_0
10
26.458748
20
3.999808
30
0.0
11
26.411534
21
3.975376
31
0.0
0
LINE
8
MCD_Layer_0
10
26.411534
20
3.975376
30
0.0
11
26.366678
21
3.946845
31
0.0
0
LINE
8
MCD_Layer_0
10
26.366678
20
3.946845
30
0.0
11
26.324533
21
3.914442
31
0.0
0
LINE
8
MCD_Layer_0
10
26.324533
20
3.914442
30
0.0
11
26.285434
21
3.878423
31
0.0
0
LINE
8
MCD_Layer_0
10
26.285434
20
3.878423
30
0.0
11
26.249689
21
3.839073
31
0.0
0
LINE
8
MCD_Layer_0
10
26.249689
20
3.839073
30
0.0
11
26.217581
21
3.796704
31
0.0
0
LINE
8
MCD_Layer_0
10
26.217581
20
3.796704
30
0.0
11
26.186180
21
3.746076
31
0.0
0
LINE
8
MCD_Layer_0
10
26.186180
20
3.746076
30
0.0
11
26.160097
21
3.692513
31
0.0
0
LINE
8
MCD_Layer_0
10
26.160097
20
3.692513
30
0.0
11
26.139606
21
3.636573
31
0.0
0
LINE
8
MCD_Layer_0
10
26.139606
20
3.636573
30
0.0
11
26.124919
21
3.578836
31
0.0
0
LINE
8
MCD_Layer_0
10
26.124919
20
3.578836
30
0.0
11
26.116189
21
3.519903
31
0.0
0
LINE
8
MCD_Layer_0
10
26.116189
20
3.519903
30
0.0
11
26.113507
21
3.460388
31
0.0
0
LINE
8
MCD_Layer_0
10
26.113507
20
3.460388
30
0.0
11
26.113507
21
1.539223
31
0.0
0
LINE
8
MCD_Layer_0
10
26.113507
20
1.539223
30
0.0
11
26.116224
21
1.479863
31
0.0
0
LINE
8
MCD_Layer_0
10
26.116224
20
1.479863
30
0.0
11
26.124946
21
1.421086
31
0.0
0
LINE
8
MCD_Layer_0
10
26.124946
20
1.421086
30
0.0
11
26.139585
21
1.363496
31
0.0
0
LINE
8
MCD_Layer_0
10
26.139585
20
1.363496
30
0.0
11
26.159989
21
1.307687
31
0.0
0
LINE
8
MCD_Layer_0
10
26.159989
20
1.307687
30
0.0
11
26.185948
21
1.254236
31
0.0
0
LINE
8
MCD_Layer_0
10
26.185948
20
1.254236
30
0.0
11
26.217194
21
1.203693
31
0.0
0
LINE
8
MCD_Layer_0
10
26.217581
20
1.202915
30
0.0
11
26.249637
21
1.160546
31
0.0
0
LINE
8
MCD_Layer_0
10
26.249637
20
1.160546
30
0.0
11
26.285357
21
1.121218
31
0.0
0
LINE
8
MCD_Layer_0
10
26.285357
20
1.121218
30
0.0
11
26.324454
21
1.085244
31
0.0
0
LINE
8
MCD_Layer_0
10
26.324454
20
1.085244
30
0.0
11
26.366614
21
1.052915
31
0.0
0
LINE
8
MCD_Layer_0
10
26.366614
20
1.052915
30
0.0
11
26.411499
21
1.024489
31
0.0
0
LINE
8
MCD_Layer_0
10
26.411499
20
1.024489
30
0.0
11
26.458748
21
1.000195
31
0.0
0
LINE
8
MCD_Layer_0
10
26.459137
20
0.999806
30
0.0
11
26.498201
21
0.983565
31
0.0
0
LINE
8
MCD_Layer_0
10
26.498201
20
0.983565
30
0.0
11
26.538338
21
0.970195
31
0.0
0
LINE
8
MCD_Layer_0
10
26.538338
20
0.970195
30
0.0
11
26.579339
21
0.959767
31
0.0
0
LINE
8
MCD_Layer_0
10
26.579339
20
0.959767
30
0.0
11
26.620988
21
0.952337
31
0.0
0
LINE
8
MCD_Layer_0
10
26.620988
20
0.952337
30
0.0
11
26.663065
21
0.947943
31
0.0
0
LINE
8
MCD_Layer_0
10
26.663065
20
0.947943
30
0.0
11
26.705349
21
0.946608
31
0.0
0
LINE
8
MCD_Layer_0
10
26.705349
20
0.946608
30
0.0
11
26.747719
21
0.947927
31
0.0
0
LINE
8
MCD_Layer_0
10
26.747719
20
0.947927
30
0.0
11
26.789878
21
0.952339
31
0.0
0
LINE
8
MCD_Layer_0
10
26.789878
20
0.952339
30
0.0
11
26.831603
21
0.959820
31
0.0
0
LINE
8
MCD_Layer_0
10
26.831603
20
0.959820
30
0.0
11
26.872669
21
0.970330
31
0.0
0
LINE
8
MCD_Layer_0
10
26.872669
20
0.970330
30
0.0
11
26.912857
21
0.983812
31
0.0
0
LINE
8
MCD_Layer_0
10
26.912857
20
0.983812
30
0.0
11
26.951953
21
1.000195
31
0.0
0
LINE
8
MCD_Layer_0
10
26.951953
20
1.000195
30
0.0
11
26.981226
21
1.014699
31
0.0
0
LINE
8
MCD_Layer_0
10
26.981226
20
1.014699
30
0.0
11
27.009669
21
1.030770
31
0.0
0
LINE
8
MCD_Layer_0
10
27.009669
20
1.030770
30
0.0
11
27.037199
21
1.048361
31
0.0
0
LINE
8
MCD_Layer_0
10
27.037199
20
1.048361
30
0.0
11
27.063733
21
1.067419
31
0.0
0
LINE
8
MCD_Layer_0
10
27.063733
20
1.067419
30
0.0
11
27.089194
21
1.087889
31
0.0
0
LINE
8
MCD_Layer_0
10
27.089194
20
1.087889
30
0.0
11
27.113507
21
1.109710
31
0.0
0
LINE
8
MCD_Layer_0
10
30.477395
20
0.559507
30
0.0
11
30.397404
21
0.761260
31
0.0
0
LINE
8
MCD_Layer_0
10
30.047092
20
0.559507
30
0.0
11
30.110521
21
0.583428
31
0.0
0
LINE
8
MCD_Layer_0
10
30.110521
20
0.583428
30
0.0
11
30.172269
21
0.611403
31
0.0
0
LINE
8
MCD_Layer_0
10
30.172269
20
0.611403
30
0.0
11
30.232078
21
0.643316
31
0.0
0
LINE
8
MCD_Layer_0
10
30.232078
20
0.643316
30
0.0
11
30.289695
21
0.679032
31
0.0
0
LINE
8
MCD_Layer_0
10
30.289695
20
0.679032
30
0.0
11
30.344881
21
0.718402
31
0.0
0
LINE
8
MCD_Layer_0
10
30.344881
20
0.718402
30
0.0
11
30.397404
21
0.761260
31
0.0
0
LINE
8
MCD_Layer_0
10
29.300369
20
0.559507
30
0.0
11
29.422498
21
0.526570
31
0.0
0
LINE
8
MCD_Layer_0
10
29.422498
20
0.526570
30
0.0
11
29.547414
21
0.506661
31
0.0
0
LINE
8
MCD_Layer_0
10
29.547414
20
0.506661
30
0.0
11
29.673730
21
0.500000
31
0.0
0
LINE
8
MCD_Layer_0
10
29.673730
20
0.500000
30
0.0
11
29.800047
21
0.506661
31
0.0
0
LINE
8
MCD_Layer_0
10
29.800047
20
0.506661
30
0.0
11
29.924963
21
0.526570
31
0.0
0
LINE
8
MCD_Layer_0
10
29.924963
20
0.526570
30
0.0
11
30.047092
21
0.559507
31
0.0
0
LINE
8
MCD_Layer_0
10
28.787319
20
0.939766
30
0.0
11
28.854908
21
0.855403
31
0.0
0
LINE
8
MCD_Layer_0
10
28.854908
20
0.855403
30
0.0
11
28.930814
21
0.778436
31
0.0
0
LINE
8
MCD_Layer_0
10
28.930814
20
0.778436
30
0.0
11
29.014231
21
0.709683
31
0.0
0
LINE
8
MCD_Layer_0
10
29.014231
20
0.709683
30
0.0
11
29.104276
21
0.649871
31
0.0
0
LINE
8
MCD_Layer_0
10
29.104276
20
0.649871
30
0.0
11
29.199993
21
0.599635
31
0.0
0
LINE
8
MCD_Layer_0
10
29.199993
20
0.599635
30
0.0
11
29.300369
21
0.559507
31
0.0
0
LINE
8
MCD_Layer_0
10
28.588321
20
1.535562
30
0.0
11
28.595688
21
1.429546
31
0.0
0
LINE
8
MCD_Layer_0
10
28.595688
20
1.429546
30
0.0
11
28.613728
21
1.324817
31
0.0
0
LINE
8
MCD_Layer_0
10
28.613728
20
1.324817
30
0.0
11
28.642254
21
1.222445
31
0.0
0
LINE
8
MCD_Layer_0
10
28.642254
20
1.222445
30
0.0
11
28.680975
21
1.123479
31
0.0
0
LINE
8
MCD_Layer_0
10
28.680975
20
1.123479
30
0.0
11
28.729496
21
1.028930
31
0.0
0
LINE
8
MCD_Layer_0
10
28.729496
20
1.028930
30
0.0
11
28.787319
21
0.939766
31
0.0
0
LINE
8
MCD_Layer_0
10
28.588321
20
1.535562
30
0.0
11
28.588321
21
4.500000
31
0.0
0
LINE
8
MCD_Layer_0
10
30.310317
20
4.500000
30
0.0
11
30.310317
21
1.535562
31
0.0
0
LINE
8
MCD_Layer_0
10
29.907601
20
0.990202
30
0.0
11
30.015294
21
1.041967
31
0.0
0
LINE
8
MCD_Layer_0
10
30.015294
20
1.041967
30
0.0
11
30.110939
21
1.113587
31
0.0
0
LINE
8
MCD_Layer_0
10
30.110939
20
1.113587
30
0.0
11
30.190924
21
1.202355
31
0.0
0
LINE
8
MCD_Layer_0
10
30.190924
20
1.202355
30
0.0
11
30.252227
21
1.304920
31
0.0
0
LINE
8
MCD_Layer_0
10
30.252227
20
1.304920
30
0.0
11
30.292532
21
1.417405
31
0.0
0
LINE
8
MCD_Layer_0
10
30.292532
20
1.417405
30
0.0
11
30.310317
21
1.535562
31
0.0
0
LINE
8
MCD_Layer_0
10
29.440255
20
0.990202
30
0.0
11
29.516737
21
0.969917
31
0.0
0
LINE
8
MCD_Layer_0
10
29.516737
20
0.969917
30
0.0
11
29.594908
21
0.957659
31
0.0
0
LINE
8
MCD_Layer_0
10
29.594908
20
0.957659
30
0.0
11
29.673928
21
0.953558
31
0.0
0
LINE
8
MCD_Layer_0
10
29.673928
20
0.953558
30
0.0
11
29.752948
21
0.957659
31
0.0
0
LINE
8
MCD_Layer_0
10
29.752948
20
0.957659
30
0.0
11
29.831118
21
0.969917
31
0.0
0
LINE
8
MCD_Layer_0
10
29.831118
20
0.969917
30
0.0
11
29.907601
21
0.990202
31
0.0
0
LINE
8
MCD_Layer_0
10
29.154568
20
1.204957
30
0.0
11
29.192400
21
1.157816
31
0.0
0
LINE
8
MCD_Layer_0
10
29.192400
20
1.157816
30
0.0
11
29.234747
21
1.114686
31
0.0
0
LINE
8
MCD_Layer_0
10
29.234747
20
1.114686
30
0.0
11
29.281188
21
1.075998
31
0.0
0
LINE
8
MCD_Layer_0
10
29.281188
20
1.075998
30
0.0
11
29.331258
21
1.042137
31
0.0
0
LINE
8
MCD_Layer_0
10
29.331258
20
1.042137
30
0.0
11
29.384457
21
1.013443
31
0.0
0
LINE
8
MCD_Layer_0
10
29.384457
20
1.013443
30
0.0
11
29.440255
21
0.990202
31
0.0
0
LINE
8
MCD_Layer_0
10
29.041476
20
1.535562
30
0.0
11
29.046519
21
1.476725
31
0.0
0
LINE
8
MCD_Layer_0
10
29.046519
20
1.476725
30
0.0
11
29.057273
21
1.418659
31
0.0
0
LINE
8
MCD_Layer_0
10
29.057273
20
1.418659
30
0.0
11
29.073637
21
1.361918
31
0.0
0
LINE
8
MCD_Layer_0
10
29.073637
20
1.361918
30
0.0
11
29.095454
21
1.307043
31
0.0
0
LINE
8
MCD_Layer_0
10
29.095454
20
1.307043
30
0.0
11
29.122517
21
1.254556
31
0.0
0
LINE
8
MCD_Layer_0
10
29.122517
20
1.254556
30
0.0
11
29.154568
21
1.204957
31
0.0
0
LINE
8
MCD_Layer_0
10
29.041476
20
1.535562
30
0.0
11
29.041476
21
4.500000
31
0.0
0
LINE
8
MCD_Layer_0
10
28.588321
20
4.500000
30
0.0
11
29.041476
21
4.500000
31
0.0
0
LINE
8
MCD_Layer_0
10
30.310317
20
4.500000
30
0.0
11
30.763473
21
4.500000
31
0.0
0
LINE
8
MCD_Layer_0
10
30.763473
20
4.500000
30
0.0
11
30.763473
21
0.559507
31
0.0
0
LINE
8
MCD_Layer_0
10
30.763473
20
0.559507
30
0.0
11
30.477395
21
0.559507
31
0.0
0
LINE
8
MCD_Layer_0
10
31.263473
20
0.500000
30
0.0
11
31.263473
21
3.487500
31
0.0
0
LINE
8
MCD_Layer_0
10
31.734064
20
4.327781
30
0.0
11
31.602636
21
4.225370
31
0.0
0
LINE
8
MCD_Layer_0
10
31.602636
20
4.225370
30
0.0
11
31.489122
21
4.103404
31
0.0
0
LINE
8
MCD_Layer_0
10
31.489122
20
4.103404
30
0.0
11
31.396397
21
3.964972
31
0.0
0
LINE
8
MCD_Layer_0
10
31.396397
20
3.964972
30
0.0
11
31.326811
21
3.813583
31
0.0
0
LINE
8
MCD_Layer_0
10
31.326811
20
3.813583
30
0.0
11
31.282125
21
3.653070
31
0.0
0
LINE
8
MCD_Layer_0
10
31.282125
20
3.653070
30
0.0
11
31.263473
21
3.487500
31
0.0
0
LINE
8
MCD_Layer_0
10
32.836047
20
4.358520
30
0.0
11
32.660758
21
4.439832
31
0.0
0
LINE
8
MCD_Layer_0
10
32.660758
20
4.439832
30
0.0
11
32.473508
21
4.487534
31
0.0
0
LINE
8
MCD_Layer_0
10
32.473508
20
4.487534
30
0.0
11
32.280680
21
4.500000
31
0.0
0
LINE
8
MCD_Layer_0
10
32.280680
20
4.500000
30
0.0
11
32.088847
21
4.476805
31
0.0
0
LINE
8
MCD_Layer_0
10
32.088847
20
4.476805
30
0.0
11
31.904547
21
4.418738
31
0.0
0
LINE
8
MCD_Layer_0
10
31.904547
20
4.418738
30
0.0
11
31.734064
21
4.327781
31
0.0
0
LINE
8
MCD_Layer_0
10
33.356296
20
3.487500
30
0.0
11
33.335674
21
3.662595
31
0.0
0
LINE
8
MCD_Layer_0
10
33.335674
20
3.662595
30
0.0
11
33.285984
21
3.831752
31
0.0
0
LINE
8
MCD_Layer_0
10
33.285984
20
3.831752
30
0.0
11
33.208634
21
3.990183
31
0.0
0
LINE
8
MCD_Layer_0
10
33.208634
20
3.990183
30
0.0
11
33.105814
21
4.133400
31
0.0
0
LINE
8
MCD_Layer_0
10
33.105814
20
4.133400
30
0.0
11
32.980435
21
4.257349
31
0.0
0
LINE
8
MCD_Layer_0
10
32.980435
20
4.257349
30
0.0
11
32.836047
21
4.358520
31
0.0
0
LINE
8
MCD_Layer_0
10
33.356296
20
3.487500
30
0.0
11
33.356296
21
0.500000
31
0.0
0
LINE
8
MCD_Layer_0
10
31.716722
20
0.500000
30
0.0
11
31.716722
21
2.478525
31
0.0
0
LINE
8
MCD_Layer_0
10
31.716722
20
2.931776
30
0.0
11
31.716722
21
3.472526
31
0.0
0
LINE
8
MCD_Layer_0
10
31.983547
20
3.949024
30
0.0
11
31.908992
21
3.890975
31
0.0
0
LINE
8
MCD_Layer_0
10
31.908992
20
3.890975
30
0.0
11
31.844604
21
3.821821
31
0.0
0
LINE
8
MCD_Layer_0
10
31.844604
20
3.821821
30
0.0
11
31.792017
21
3.743318
31
0.0
0
LINE
8
MCD_Layer_0
10
31.792017
20
3.743318
30
0.0
11
31.752567
21
3.657460
31
0.0
0
LINE
8
MCD_Layer_0
10
31.752567
20
3.657460
30
0.0
11
31.727254
21
3.566425
31
0.0
0
LINE
8
MCD_Layer_0
10
31.727254
20
3.566425
30
0.0
11
31.716722
21
3.472526
31
0.0
0
LINE
8
MCD_Layer_0
10
32.608240
20
3.966761
30
0.0
11
32.508861
21
4.012868
31
0.0
0
LINE
8
MCD_Layer_0
10
32.508861
20
4.012868
30
0.0
11
32.402694
21
4.039896
31
0.0
0
LINE
8
MCD_Layer_0
10
32.402694
20
4.039896
30
0.0
11
32.293366
21
4.046921
31
0.0
0
LINE
8
MCD_Layer_0
10
32.293366
20
4.046921
30
0.0
11
32.184612
21
4.033704
31
0.0
0
LINE
8
MCD_Layer_0
10
32.184612
20
4.033704
30
0.0
11
32.080149
21
4.000695
31
0.0
0
LINE
8
MCD_Layer_0
10
32.080149
20
4.000695
30
0.0
11
31.983547
21
3.949024
31
0.0
0
LINE
8
MCD_Layer_0
10
32.903049
20
3.472526
30
0.0
11
32.891470
21
3.571870
31
0.0
0
LINE
8
MCD_Layer_0
10
32.891470
20
3.571870
30
0.0
11
32.863373
21
3.667859
31
0.0
0
LINE
8
MCD_Layer_0
10
32.863373
20
3.667859
30
0.0
11
32.819557
21
3.757767
31
0.0
0
LINE
8
MCD_Layer_0
10
32.819557
20
3.757767
30
0.0
11
32.761265
21
3.839040
31
0.0
0
LINE
8
MCD_Layer_0
10
32.761265
20
3.839040
30
0.0
11
32.690153
21
3.909371
31
0.0
0
LINE
8
MCD_Layer_0
10
32.690153
20
3.909371
30
0.0
11
32.608240
21
3.966761
31
0.0
0
LINE
8
MCD_Layer_0
10
32.903049
20
3.472526
30
0.0
11
32.903049
21
2.931776
31
0.0
0
LINE
8
MCD_Layer_0
10
32.903049
20
2.478525
30
0.0
11
32.903049
21
0.500000
31
0.0
0
LINE
8
MCD_Layer_0
10
31.263473
20
0.500000
30
0.0
11
31.716722
21
0.500000
31
0.0
0
LINE
8
MCD_Layer_0
10
31.716722
20
2.478525
30
0.0
11
32.903049
21
2.478525
31
0.0
0
LINE
8
MCD_Layer_0
10
32.903049
20
2.931776
30
0.0
11
31.716722
21
2.931776
31
0.0
0
LINE
8
MCD_Layer_0
10
32.903049
20
0.500000
30
0.0
11
33.356296
21
0.500000
31
0.0
0
LINE
8
MCD_Layer_0
10
35.831501
20
0.548569
30
0.0
11
35.941108
21
0.580993
31
0.0
0
LINE
8
MCD_Layer_0
10
35.941108
20
0.580993
30
0.0
11
36.046988
21
0.624054
31
0.0
0
LINE
8
MCD_Layer_0
10
36.046988
20
0.624054
30
0.0
11
36.148112
21
0.677335
31
0.0
0
LINE
8
MCD_Layer_0
10
36.148112
20
0.677335
30
0.0
11
36.243497
21
0.740317
31
0.0
0
LINE
8
MCD_Layer_0
10
36.243497
20
0.740317
30
0.0
11
36.332214
21
0.812388
31
0.0
0
LINE
8
MCD_Layer_0
10
36.332214
20
0.812388
30
0.0
11
36.413401
21
0.892847
31
0.0
0
LINE
8
MCD_Layer_0
10
35.028205
20
0.565958
30
0.0
11
35.159397
21
0.531385
31
0.0
0
LINE
8
MCD_Layer_0
10
35.159397
20
0.531385
30
0.0
11
35.293264
21
0.509333
31
0.0
0
LINE
8
MCD_Layer_0
10
35.293264
20
0.509333
30
0.0
11
35.428614
21
0.500000
31
0.0
0
LINE
8
MCD_Layer_0
10
35.428614
20
0.500000
30
0.0
11
35.564240
21
0.503468
31
0.0
0
LINE
8
MCD_Layer_0
10
35.564240
20
0.503468
30
0.0
11
35.698936
21
0.519706
31
0.0
0
LINE
8
MCD_Layer_0
10
35.698936
20
0.519706
30
0.0
11
35.831501
21
0.548569
31
0.0
0
LINE
8
MCD_Layer_0
10
34.759282
20
0.699262
30
0.0
11
34.801147
21
0.671549
31
0.0
0
LINE
8
MCD_Layer_0
10
34.801147
20
0.671549
30
0.0
11
34.844340
21
0.645955
31
0.0
0
LINE
8
MCD_Layer_0
10
34.844340
20
0.645955
30
0.0
11
34.888754
21
0.622544
31
0.0
0
LINE
8
MCD_Layer_0
10
34.888754
20
0.622544
30
0.0
11
34.934278
21
0.601373
31
0.0
0
LINE
8
MCD_Layer_0
10
34.934278
20
0.601373
30
0.0
11
34.980801
21
0.582495
31
0.0
0
LINE
8
MCD_Layer_0
10
34.980801
20
0.582495
30
0.0
11
35.028205
21
0.565958
31
0.0
0
LINE
8
MCD_Layer_0
10
34.299093
20
1.153271
30
0.0
11
34.363701
21
1.066310
31
0.0
0
LINE
8
MCD_Layer_0
10
34.363701
20
1.066310
30
0.0
11
34.433512
21
0.983469
31
0.0
0
LINE
8
MCD_Layer_0
10
34.433512
20
0.983469
30
0.0
11
34.508265
21
0.905059
31
0.0
0
LINE
8
MCD_Layer_0
10
34.508265
20
0.905059
30
0.0
11
34.587679
21
0.831373
31
0.0
0
LINE
8
MCD_Layer_0
10
34.587679
20
0.831373
30
0.0
11
34.671456
21
0.762688
31
0.0
0
LINE
8
MCD_Layer_0
10
34.671456
20
0.762688
30
0.0
11
34.759282
21
0.699262
31
0.0
0
LINE
8
MCD_Layer_0
10
33.856296
20
2.499821
30
0.0
11
33.868723
21
2.259950
31
0.0
0
LINE
8
MCD_Layer_0
10
33.868723
20
2.259950
30
0.0
11
33.906548
21
2.022755
31
0.0
0
LINE
8
MCD_Layer_0
10
33.906548
20
2.022755
30
0.0
11
33.969343
21
1.790916
31
0.0
0
LINE
8
MCD_Layer_0
10
33.969343
20
1.790916
30
0.0
11
34.056399
21
1.567055
31
0.0
0
LINE
8
MCD_Layer_0
10
34.056399
20
1.567055
30
0.0
11
34.166732
21
1.353703
31
0.0
0
LINE
8
MCD_Layer_0
10
34.166732
20
1.353703
30
0.0
11
34.299093
21
1.153271
31
0.0
0
LINE
8
MCD_Layer_0
10
34.299093
20
3.847153
30
0.0
11
34.166665
21
3.646609
31
0.0
0
LINE
8
MCD_Layer_0
10
34.166665
20
3.646609
30
0.0
11
34.056290
21
3.433132
31
0.0
0
LINE
8
MCD_Layer_0
10
34.056290
20
3.433132
30
0.0
11
33.969219
21
3.209137
31
0.0
0
LINE
8
MCD_Layer_0
10
33.969219
20
3.209137
30
0.0
11
33.906436
21
2.977160
31
0.0
0
LINE
8
MCD_Layer_0
10
33.906436
20
2.977160
30
0.0
11
33.868652
21
2.739826
31
0.0
0
LINE
8
MCD_Layer_0
10
33.868652
20
2.739826
30
0.0
11
33.856296
21
2.499821
31
0.0
0
LINE
8
MCD_Layer_0
10
34.759282
20
4.300771
30
0.0
11
34.671533
21
4.237330
31
0.0
0
LINE
8
MCD_Layer_0
10
34.671533
20
4.237330
30
0.0
11
34.587806
21
4.168667
31
0.0
0
LINE
8
MCD_Layer_0
10
34.587806
20
4.168667
30
0.0
11
34.508414
21
4.095037
31
0.0
0
LINE
8
MCD_Layer_0
10
34.508414
20
4.095037
30
0.0
11
34.433649
21
4.016711
31
0.0
0
LINE
8
MCD_Layer_0
10
34.433649
20
4.016711
30
0.0
11
34.363789
21
3.933981
31
0.0
0
LINE
8
MCD_Layer_0
10
34.363789
20
3.933981
30
0.0
11
34.299093
21
3.847153
31
0.0
0
LINE
8
MCD_Layer_0
10
35.028205
20
4.434462
30
0.0
11
34.980757
21
4.417947
31
0.0
0
LINE
8
MCD_Layer_0
10
34.980757
20
4.417947
30
0.0
11
34.934203
21
4.399055
31
0.0
0
LINE
8
MCD_Layer_0
10
34.934203
20
4.399055
30
0.0
11
34.888664
21
4.377834
31
0.0
0
LINE
8
MCD_Layer_0
10
34.888664
20
4.377834
30
0.0
11
34.844256
21
4.354339
31
0.0
0
LINE
8
MCD_Layer_0
10
34.844256
20
4.354339
30
0.0
11
34.801091
21
4.328630
31
0.0
0
LINE
8
MCD_Layer_0
10
34.801091
20
4.328630
30
0.0
11
34.759282
21
4.300771
31
0.0
0
LINE
8
MCD_Layer_0
10
35.831501
20
4.451847
30
0.0
11
35.698912
21
4.480480
31
0.0
0
LINE
8
MCD_Layer_0
10
35.698912
20
4.480480
30
0.0
11
35.564225
21
4.496578
31
0.0
0
LINE
8
MCD_Layer_0
10
35.564225
20
4.496578
30
0.0
11
35.428623
21
4.500000
31
0.0
0
LINE
8
MCD_Layer_0
10
35.428623
20
4.500000
30
0.0
11
35.293296
21
4.490715
31
0.0
0
LINE
8
MCD_Layer_0
10
35.293296
20
4.490715
30
0.0
11
35.159431
21
4.468805
31
0.0
0
LINE
8
MCD_Layer_0
10
35.159431
20
4.468805
30
0.0
11
35.028205
21
4.434462
31
0.0
0
LINE
8
MCD_Layer_0
10
36.413401
20
4.107581
30
0.0
11
36.332100
21
4.187893
31
0.0
0
LINE
8
MCD_Layer_0
10
36.332100
20
4.187893
30
0.0
11
36.243330
21
4.259864
31
0.0
0
LINE
8
MCD_Layer_0
10
36.243330
20
4.259864
30
0.0
11
36.147943
21
4.322802
31
0.0
0
LINE
8
MCD_Layer_0
10
36.147943
20
4.322802
30
0.0
11
36.046855
21
4.376104
31
0.0
0
LINE
8
MCD_Layer_0
10
36.046855
20
4.376104
30
0.0
11
35.941035
21
4.419257
31
0.0
0
LINE
8
MCD_Layer_0
10
35.941035
20
4.419257
30
0.0
11
35.831501
21
4.451847
31
0.0
0
LINE
8
MCD_Layer_0
10
36.413401
20
4.107581
30
0.0
11
36.093086
21
3.799242
31
0.0
0
LINE
8
MCD_Layer_0
10
36.093086
20
3.799242
30
0.0
11
36.041634
21
3.851542
31
0.0
0
LINE
8
MCD_Layer_0
10
36.041634
20
3.851542
30
0.0
11
35.985132
21
3.898341
31
0.0
0
LINE
8
MCD_Layer_0
10
35.985132
20
3.898341
30
0.0
11
35.924167
21
3.939156
31
0.0
0
LINE
8
MCD_Layer_0
10
35.924167
20
3.939156
30
0.0
11
35.859370
21
3.973565
31
0.0
0
LINE
8
MCD_Layer_0
10
35.859370
20
3.973565
30
0.0
11
35.791412
21
4.001209
31
0.0
0
LINE
8
MCD_Layer_0
10
35.791412
20
4.001209
30
0.0
11
35.720996
21
4.021805
31
0.0
0
LINE
8
MCD_Layer_0
10
35.720996
20
4.021805
30
0.0
11
35.628681
21
4.041863
31
0.0
0
LINE
8
MCD_Layer_0
10
35.628681
20
4.041863
30
0.0
11
35.534896
21
4.053207
31
0.0
0
LINE
8
MCD_Layer_0
10
35.534896
20
4.053207
30
0.0
11
35.440461
21
4.055736
31
0.0
0
LINE
8
MCD_Layer_0
10
35.440461
20
4.055736
30
0.0
11
35.346204
21
4.049428
31
0.0
0
LINE
8
MCD_Layer_0
10
35.346204
20
4.049428
30
0.0
11
35.252948
21
4.034338
31
0.0
0
LINE
8
MCD_Layer_0
10
35.252948
20
4.034338
30
0.0
11
35.161511
21
4.010599
31
0.0
0
LINE
8
MCD_Layer_0
10
35.161511
20
4.010599
30
0.0
11
35.135550
21
4.001394
31
0.0
0
LINE
8
MCD_Layer_0
10
35.135550
20
4.001394
30
0.0
11
35.110076
21
3.990914
31
0.0
0
LINE
8
MCD_Layer_0
10
35.110076
20
3.990914
30
0.0
11
35.085154
21
3.979184
31
0.0
0
LINE
8
MCD_Layer_0
10
35.085154
20
3.979184
30
0.0
11
35.060844
21
3.966233
31
0.0
0
LINE
8
MCD_Layer_0
10
35.060844
20
3.966233
30
0.0
11
35.037205
21
3.952093
31
0.0
0
LINE
8
MCD_Layer_0
10
35.037205
20
3.952093
30
0.0
11
35.014297
21
3.936798
31
0.0
0
LINE
8
MCD_Layer_0
10
35.014297
20
3.936798
30
0.0
11
34.945082
21
3.887187
31
0.0
0
LINE
8
MCD_Layer_0
10
34.945082
20
3.887187
30
0.0
11
34.879176
21
3.833257
31
0.0
0
LINE
8
MCD_Layer_0
10
34.879176
20
3.833257
30
0.0
11
34.816849
21
3.775229
31
0.0
0
LINE
8
MCD_Layer_0
10
34.816849
20
3.775229
30
0.0
11
34.758354
21
3.713339
31
0.0
0
LINE
8
MCD_Layer_0
10
34.758354
20
3.713339
30
0.0
11
34.703930
21
3.647841
31
0.0
0
LINE
8
MCD_Layer_0
10
34.703930
20
3.647841
30
0.0
11
34.653799
21
3.579001
31
0.0
0
LINE
8
MCD_Layer_0
10
34.653799
20
3.579001
30
0.0
11
34.547808
21
3.418482
31
0.0
0
LINE
8
MCD_Layer_0
10
34.547808
20
3.418482
30
0.0
11
34.459708
21
3.247487
31
0.0
0
LINE
8
MCD_Layer_0
10
34.459708
20
3.247487
30
0.0
11
34.390523
21
3.068004
31
0.0
0
LINE
8
MCD_Layer_0
10
34.390523
20
3.068004
30
0.0
11
34.341057
21
2.882118
31
0.0
0
LINE
8
MCD_Layer_0
10
34.341057
20
2.882118
30
0.0
11
34.311884
21
2.691987
31
0.0
0
LINE
8
MCD_Layer_0
10
34.311884
20
2.691987
30
0.0
11
34.303344
21
2.499821
31
0.0
0
LINE
8
MCD_Layer_0
10
34.303344
20
2.499821
30
0.0
11
34.311986
21
2.307735
31
0.0
0
LINE
8
MCD_Layer_0
10
34.311986
20
2.307735
30
0.0
11
34.341218
21
2.117689
31
0.0
0
LINE
8
MCD_Layer_0
10
34.341218
20
2.117689
30
0.0
11
34.390701
21
1.931885
31
0.0
0
LINE
8
MCD_Layer_0
10
34.390701
20
1.931885
30
0.0
11
34.459863
21
1.752473
31
0.0
0
LINE
8
MCD_Layer_0
10
34.459863
20
1.752473
30
0.0
11
34.547902
21
1.581531
31
0.0
0
LINE
8
MCD_Layer_0
10
34.547902
20
1.581531
30
0.0
11
34.653799
21
1.421039
31
0.0
0
LINE
8
MCD_Layer_0
10
34.653799
20
1.421039
30
0.0
11
34.703930
21
1.352200
31
0.0
0
LINE
8
MCD_Layer_0
10
34.703930
20
1.352200
30
0.0
11
34.758354
21
1.286701
31
0.0
0
LINE
8
MCD_Layer_0
10
34.758354
20
1.286701
30
0.0
11
34.816849
21
1.224812
31
0.0
0
LINE
8
MCD_Layer_0
10
34.816849
20
1.224812
30
0.0
11
34.879176
21
1.166784
31
0.0
0
LINE
8
MCD_Layer_0
10
34.879176
20
1.166784
30
0.0
11
34.945082
21
1.112854
31
0.0
0
LINE
8
MCD_Layer_0
10
34.945082
20
1.112854
30
0.0
11
35.014297
21
1.063242
31
0.0
0
LINE
8
MCD_Layer_0
10
35.014297
20
1.063242
30
0.0
11
35.037161
21
1.047922
31
0.0
0
LINE
8
MCD_Layer_0
10
35.037161
20
1.047922
30
0.0
11
35.060778
21
1.033790
31
0.0
0
LINE
8
MCD_Layer_0
10
35.060778
20
1.033790
30
0.0
11
35.085085
21
1.020882
31
0.0
0
LINE
8
MCD_Layer_0
10
35.085085
20
1.020882
30
0.0
11
35.110020
21
1.009232
31
0.0
0
LINE
8
MCD_Layer_0
10
35.110020
20
1.009232
30
0.0
11
35.135518
21
0.998871
31
0.0
0
LINE
8
MCD_Layer_0
10
35.135518
20
0.998871
30
0.0
11
35.161511
21
0.989825
31
0.0
0
LINE
8
MCD_Layer_0
10
35.161511
20
0.989825
30
0.0
11
35.252921
21
0.965938
31
0.0
0
LINE
8
MCD_Layer_0
10
35.252921
20
0.965938
30
0.0
11
35.346168
21
0.950732
31
0.0
0
LINE
8
MCD_Layer_0
10
35.346168
20
0.950732
30
0.0
11
35.440431
21
0.944342
31
0.0
0
LINE
8
MCD_Layer_0
10
35.440431
20
0.944342
30
0.0
11
35.534878
21
0.946823
31
0.0
0
LINE
8
MCD_Layer_0
10
35.534878
20
0.946823
30
0.0
11
35.628675
21
0.958155
31
0.0
0
LINE
8
MCD_Layer_0
10
35.628675
20
0.958155
30
0.0
11
35.720996
21
0.978236
31
0.0
0
LINE
8
MCD_Layer_0
10
35.720996
20
0.978236
30
0.0
11
35.791412
21
0.998831
31
0.0
0
LINE
8
MCD_Layer_0
10
35.791412
20
0.998831
30
0.0
11
35.859370
21
1.026476
31
0.0
0
LINE
8
MCD_Layer_0
10
35.859370
20
1.026476
30
0.0
11
35.924167
21
1.060884
31
0.0
0
LINE
8
MCD_Layer_0
10
35.924167
20
1.060884
30
0.0
11
35.985132
21
1.101699
31
0.0
0
LINE
8
MCD_Layer_0
10
35.985132
20
1.101699
30
0.0
11
36.041634
21
1.148499
31
0.0
0
LINE
8
MCD_Layer_0
10
36.041634
20
1.148499
30
0.0
11
36.093086
21
1.200798
31
0.0
0
LINE
8
MCD_Layer_0
10
36.093086
20
1.200798
30
0.0
11
36.413401
21
0.892847
31
0.0
0
LINE
8
MCD_Layer_0
10
36.913401
20
0.500000
30
0.0
11
36.913401
21
4.500000
31
0.0
0
LINE
8
MCD_Layer_0
10
36.913401
20
4.500000
30
0.0
11
37.373404
21
4.500000
31
0.0
0
LINE
8
MCD_Layer_0
10
37.373404
20
4.500000
30
0.0
11
37.373404
21
2.720402
31
0.0
0
LINE
8
MCD_Layer_0
10
37.373404
20
2.720402
30
0.0
11
37.462612
21
2.765457
31
0.0
0
LINE
8
MCD_Layer_0
10
37.462612
20
2.765457
30
0.0
11
37.549790
21
2.814326
31
0.0
0
LINE
8
MCD_Layer_0
10
37.549790
20
2.814326
30
0.0
11
37.634774
21
2.866917
31
0.0
0
LINE
8
MCD_Layer_0
10
37.634774
20
2.866917
30
0.0
11
37.717406
21
2.923130
31
0.0
0
LINE
8
MCD_Layer_0
10
37.717406
20
2.923130
30
0.0
11
37.797532
21
2.982862
31
0.0
0
LINE
8
MCD_Layer_0
10
37.797532
20
2.982862
30
0.0
11
37.875002
21
3.046001
31
0.0
0
LINE
8
MCD_Layer_0
10
37.875002
20
3.046001
30
0.0
11
37.924437
21
3.092141
31
0.0
0
LINE
8
MCD_Layer_0
10
37.924437
20
3.092141
30
0.0
11
37.972399
21
3.139809
31
0.0
0
LINE
8
MCD_Layer_0
10
37.972399
20
3.139809
30
0.0
11
38.018842
21
3.188959
31
0.0
0
LINE
8
MCD_Layer_0
10
38.018842
20
3.188959
30
0.0
11
38.063719
21
3.239542
31
0.0
0
LINE
8
MCD_Layer_0
10
38.063719
20
3.239542
30
0.0
11
38.106987
21
3.291508
31
0.0
0
LINE
8
MCD_Layer_0
10
38.106987
20
3.291508
30
0.0
11
38.148604
21
3.344807
31
0.0
0
LINE
8
MCD_Layer_0
10
38.148604
20
3.344807
30
0.0
11
38.215336
21
3.438741
31
0.0
0
LINE
8
MCD_Layer_0
10
38.215336
20
3.438741
30
0.0
11
38.276979
21
3.536091
31
0.0
0
LINE
8
MCD_Layer_0
10
38.276979
20
3.536091
30
0.0
11
38.333359
21
3.636581
31
0.0
0
LINE
8
MCD_Layer_0
10
38.333359
20
3.636581
30
0.0
11
38.384317
21
3.739926
31
0.0
0
LINE
8
MCD_Layer_0
10
38.384317
20
3.739926
30
0.0
11
38.429708
21
3.845834
31
0.0
0
LINE
8
MCD_Layer_0
10
38.429708
20
3.845834
30
0.0
11
38.469404
21
3.954006
31
0.0
0
LINE
8
MCD_Layer_0
10
38.469404
20
3.954006
30
0.0
11
38.497151
21
4.042775
31
0.0
0
LINE
8
MCD_Layer_0
10
38.497151
20
4.042775
30
0.0
11
38.521025
21
4.132662
31
0.0
0
LINE
8
MCD_Layer_0
10
38.521025
20
4.132662
30
0.0
11
38.540982
21
4.223500
31
0.0
0
LINE
8
MCD_Layer_0
10
38.540982
20
4.223500
30
0.0
11
38.556982
21
4.315117
31
0.0
0
LINE
8
MCD_Layer_0
10
38.556982
20
4.315117
30
0.0
11
38.568998
21
4.407341
31
0.0
0
LINE
8
MCD_Layer_0
10
38.568998
20
4.407341
30
0.0
11
38.577006
21
4.500000
31
0.0
0
LINE
8
MCD_Layer_0
10
38.577006
20
4.500000
30
0.0
11
39.037798
21
4.500000
31
0.0
0
LINE
8
MCD_Layer_0
10
38.905401
20
3.807205
30
0.0
11
38.940630
21
3.919736
31
0.0
0
LINE
8
MCD_Layer_0
10
38.940630
20
3.919736
30
0.0
11
38.970666
21
4.033762
31
0.0
0
LINE
8
MCD_Layer_0
10
38.970666
20
4.033762
30
0.0
11
38.995448
21
4.149045
31
0.0
0
LINE
8
MCD_Layer_0
10
38.995448
20
4.149045
30
0.0
11
39.014922
21
4.265342
31
0.0
0
LINE
8
MCD_Layer_0
10
39.014922
20
4.265342
30
0.0
11
39.029049
21
4.382409
31
0.0
0
LINE
8
MCD_Layer_0
10
39.029049
20
4.382409
30
0.0
11
39.037798
21
4.500000
31
0.0
0
LINE
8
MCD_Layer_0
10
38.516203
20
3.068802
30
0.0
11
38.597104
21
3.182678
31
0.0
0
LINE
8
MCD_Layer_0
10
38.597104
20
3.182678
30
0.0
11
38.671853
21
3.300684
31
0.0
0
LINE
8
MCD_Layer_0
10
38.671853
20
3.300684
30
0.0
11
38.740241
21
3.422487
31
0.0
0
LINE
8
MCD_Layer_0
10
38.740241
20
3.422487
30
0.0
11
38.802074
21
3.547744
31
0.0
0
LINE
8
MCD_Layer_0
10
38.802074
20
3.547744
30
0.0
11
38.857179
21
3.676104
31
0.0
0
LINE
8
MCD_Layer_0
10
38.857179
20
3.676104
30
0.0
11
38.905401
21
3.807205
31
0.0
0
LINE
8
MCD_Layer_0
10
38.173403
20
2.695999
30
0.0
11
38.235468
21
2.753397
31
0.0
0
LINE
8
MCD_Layer_0
10
38.235468
20
2.753397
30
0.0
11
38.295643
21
2.812775
31
0.0
0
LINE
8
MCD_Layer_0
10
38.295643
20
2.812775
30
0.0
11
38.353863
21
2.874069
31
0.0
0
LINE
8
MCD_Layer_0
10
38.353863
20
2.874069
30
0.0
11
38.410069
21
2.937216
31
0.0
0
LINE
8
MCD_Layer_0
10
38.410069
20
2.937216
30
0.0
11
38.464201
21
3.002150
31
0.0
0
LINE
8
MCD_Layer_0
10
38.464201
20
3.002150
30
0.0
11
38.516203
21
3.068802
31
0.0
0
LINE
8
MCD_Layer_0
10
38.576605
20
2.071602
30
0.0
11
38.514943
21
2.179135
31
0.0
0
LINE
8
MCD_Layer_0
10
38.514943
20
2.179135
30
0.0
11
38.451027
21
2.285344
31
0.0
0
LINE
8
MCD_Layer_0
10
38.451027
20
2.285344
30
0.0
11
38.384885
21
2.390181
31
0.0
0
LINE
8
MCD_Layer_0
10
38.384885
20
2.390181
30
0.0
11
38.316547
21
2.493600
31
0.0
0
LINE
8
MCD_Layer_0
10
38.316547
20
2.493600
30
0.0
11
38.246042
21
2.595555
31
0.0
0
LINE
8
MCD_Layer_0
10
38.246042
20
2.595555
30
0.0
11
38.173403
21
2.695999
31
0.0
0
LINE
8
MCD_Layer_0
10
39.014605
20
1.064404
30
0.0
11
38.955366
21
1.237903
31
0.0
0
LINE
8
MCD_Layer_0
10
38.955366
20
1.237903
30
0.0
11
38.890526
21
1.409388
31
0.0
0
LINE
8
MCD_Layer_0
10
38.890526
20
1.409388
30
0.0
11
38.820152
21
1.578678
31
0.0
0
LINE
8
MCD_Layer_0
10
38.820152
20
1.578678
30
0.0
11
38.744320
21
1.745593
31
0.0
0
LINE
8
MCD_Layer_0
10
38.744320
20
1.745593
30
0.0
11
38.663109
21
1.909959
31
0.0
0
LINE
8
MCD_Layer_0
10
38.663109
20
1.909959
30
0.0
11
38.576605
21
2.071602
31
0.0
0
LINE
8
MCD_Layer_0
10
39.165404
20
0.500000
30
0.0
11
39.144369
21
0.595112
31
0.0
0
LINE
8
MCD_Layer_0
10
39.144369
20
0.595112
30
0.0
11
39.121685
21
0.689843
31
0.0
0
LINE
8
MCD_Layer_0
10
39.121685
20
0.689843
30
0.0
11
39.097359
21
0.784167
31
0.0
0
LINE
8
MCD_Layer_0
10
39.097359
20
0.784167
30
0.0
11
39.071399
21
0.878054
31
0.0
0
LINE
8
MCD_Layer_0
10
39.071399
20
0.878054
30
0.0
11
39.043811
21
0.971475
31
0.0
0
LINE
8
MCD_Layer_0
10
39.043811
20
0.971475
30
0.0
11
39.014605
21
1.064404
31
0.0
0
LINE
8
MCD_Layer_0
10
39.165404
20
0.500000
30
0.0
11
38.694205
21
0.500000
31
0.0
0
LINE
8
MCD_Layer_0
10
38.694205
20
0.500000
30
0.0
11
38.677191
21
0.571140
31
0.0
0
LINE
8
MCD_Layer_0
10
38.677191
20
0.571140
30
0.0
11
38.659165
21
0.642031
31
0.0
0
LINE
8
MCD_Layer_0
10
38.659165
20
0.642031
30
0.0
11
38.640129
21
0.712657
31
0.0
0
LINE
8
MCD_Layer_0
10
38.640129
20
0.712657
30
0.0
11
38.620088
21
0.783004
31
0.0
0
LINE
8
MCD_Layer_0
10
38.620088
20
0.783004
30
0.0
11
38.599045
21
0.853059
31
0.0
0
LINE
8
MCD_Layer_0
10
38.599045
20
0.853059
30
0.0
11
38.577006
21
0.922806
31
0.0
0
LINE
8
MCD_Layer_0
10
38.577006
20
0.922806
30
0.0
11
38.522558
21
1.082012
31
0.0
0
LINE
8
MCD_Layer_0
10
38.522558
20
1.082012
30
0.0
11
38.463002
21
1.239379
31
0.0
0
LINE
8
MCD_Layer_0
10
38.463002
20
1.239379
30
0.0
11
38.398399
21
1.394742
31
0.0
0
LINE
8
MCD_Layer_0
10
38.398399
20
1.394742
30
0.0
11
38.328816
21
1.547940
31
0.0
0
LINE
8
MCD_Layer_0
10
38.328816
20
1.547940
30
0.0
11
38.254325
21
1.698812
31
0.0
0
LINE
8
MCD_Layer_0
10
38.254325
20
1.698812
30
0.0
11
38.175005
21
1.847202
31
0.0
0
LINE
8
MCD_Layer_0
10
38.175005
20
1.847202
30
0.0
11
38.117665
21
1.947190
31
0.0
0
LINE
8
MCD_Layer_0
10
38.117665
20
1.947190
30
0.0
11
38.058210
21
2.045934
31
0.0
0
LINE
8
MCD_Layer_0
10
38.058210
20
2.045934
30
0.0
11
37.996668
21
2.143392
31
0.0
0
LINE
8
MCD_Layer_0
10
37.996668
20
2.143392
30
0.0
11
37.933066
21
2.239517
31
0.0
0
LINE
8
MCD_Layer_0
10
37.933066
20
2.239517
30
0.0
11
37.867433
21
2.334268
31
0.0
0
LINE
8
MCD_Layer_0
10
37.867433
20
2.334268
30
0.0
11
37.799799
21
2.427601
31
0.0
0
LINE
8
MCD_Layer_0
10
37.373404
20
2.220005
30
0.0
11
37.446891
21
2.249375
31
0.0
0
LINE
8
MCD_Layer_0
10
37.446891
20
2.249375
30
0.0
11
37.519491
21
2.280874
31
0.0
0
LINE
8
MCD_Layer_0
10
37.519491
20
2.280874
30
0.0
11
37.591142
21
2.314476
31
0.0
0
LINE
8
MCD_Layer_0
10
37.591142
20
2.314476
30
0.0
11
37.661784
21
2.350151
31
0.0
0
LINE
8
MCD_Layer_0
10
37.661784
20
2.350151
30
0.0
11
37.731356
21
2.387870
31
0.0
0
LINE
8
MCD_Layer_0
10
37.731356
20
2.387870
30
0.0
11
37.799799
21
2.427601
31
0.0
0
LINE
8
MCD_Layer_0
10
37.373404
20
2.220005
30
0.0
11
37.373404
21
0.500000
31
0.0
0
LINE
8
MCD_Layer_0
10
37.373404
20
0.500000
30
0.0
11
36.913401
21
0.500000
31
0.0
0
ENDSEC
0
EOF
