0
SECTION
2
ENTITIES
0
LINE
8
MCD_Layer_0
10
0.155273
20
0.624207
30
0.0
11
1.004822
21
0.999023
31
0.0
0
LINE
8
MCD_Layer_0
10
0.155273
20
0.624207
30
0.0
11
0.504822
21
0.000000
31
0.0
0
LINE
8
MCD_Layer_0
10
1.000946
20
0.999023
30
0.0
11
1.006836
21
0.999023
31
0.0
0
LINE
8
MCD_Layer_0
10
1.022461
20
1.002930
30
0.0
11
0.999023
21
1.014648
31
0.0
0
LINE
8
MCD_Layer_0
10
0.999023
20
0.155273
30
0.0
11
0.624207
21
0.504822
31
0.0
0
LINE
8
MCD_Layer_0
10
0.000000
20
1.125946
30
0.0
11
0.850220
21
0.500885
31
0.0
0
LINE
8
MCD_Layer_0
10
0.000000
20
1.000946
30
0.0
11
0.999023
21
1.006836
31
0.0
0
LINE
8
MCD_Layer_0
10
0.999023
20
0.991211
30
0.0
11
1.014618
21
1.030273
31
0.0
0
LINE
8
MCD_Layer_0
10
1.522461
20
1.891632
30
0.0
11
1.002045
21
0.999023
31
0.0
0
LINE
8
MCD_Layer_0
10
1.022461
20
0.999023
30
0.0
11
1.124023
21
0.850220
31
0.0
0
LINE
8
MCD_Layer_0
10
0.500885
20
0.000000
30
0.0
11
0.688446
21
1.636597
31
0.0
0
LINE
8
MCD_Layer_0
10
0.000916
20
1.967010
30
0.0
11
0.407196
21
0.277802
31
0.0
0
LINE
8
MCD_Layer_0
10
0.500916
20
1.789001
30
0.0
11
1.000946
21
0.999023
31
0.0
0
LINE
8
MCD_Layer_0
10
1.006836
20
0.999023
30
0.0
11
1.139648
21
1.002930
31
0.0
0
LINE
8
MCD_Layer_0
10
0.999023
20
1.022461
30
0.0
11
0.999023
21
0.405273
31
0.0
0
LINE
8
MCD_Layer_0
10
0.277802
20
0.500916
30
0.0
11
1.789001
21
1.594696
31
0.0
0
LINE
8
MCD_Layer_0
10
0.477814
20
1.500916
30
0.0
11
1.515015
21
1.000946
31
0.0
0
LINE
8
MCD_Layer_0
10
0.349823
20
0.000916
30
0.0
11
1.247009
21
1.000946
31
0.0
0
LINE
8
MCD_Layer_0
10
0.999023
20
1.006836
30
0.0
11
0.999023
21
1.139648
31
0.0
0
LINE
8
MCD_Layer_0
10
1.002930
20
0.999023
30
0.0
11
1.022461
21
0.999023
31
0.0
0
LINE
8
MCD_Layer_0
10
0.999023
20
0.349823
30
0.0
11
0.000916
21
1.247009
31
0.0
0
LINE
8
MCD_Layer_0
10
1.657196
20
0.089813
30
0.0
11
0.250916
21
1.091003
31
0.0
0
LINE
8
MCD_Layer_0
10
1.063446
20
1.924622
30
0.0
11
1.750916
21
1.049011
31
0.0
0
LINE
8
MCD_Layer_0
10
1.000946
20
0.999023
30
0.0
11
1.006836
21
0.999023
31
0.0
0
LINE
8
MCD_Layer_0
10
1.139648
20
1.002930
30
0.0
11
0.999023
21
1.022461
31
0.0
0
LINE
8
MCD_Layer_0
10
0.999023
20
1.061523
30
0.0
11
1.924622
21
1.750916
31
0.0
0
LINE
8
MCD_Layer_0
10
1.049011
20
1.688446
30
0.0
11
0.257812
21
0.500916
31
0.0
0
LINE
8
MCD_Layer_0
10
0.931000
20
1.750916
30
0.0
11
0.481812
21
1.500916
31
0.0
0
LINE
8
MCD_Layer_0
10
0.675018
20
1.000916
30
0.0
11
0.999023
21
1.006836
31
0.0
0
LINE
8
MCD_Layer_0
10
0.999023
20
1.139648
30
0.0
11
1.002930
21
0.999023
31
0.0
0
LINE
8
MCD_Layer_0
10
1.022461
20
0.999023
30
0.0
11
1.749023
21
0.481812
31
0.0
0
LINE
8
MCD_Layer_0
10
1.500916
20
0.675018
30
0.0
11
1.938416
21
0.597809
31
0.0
0
LINE
8
MCD_Layer_0
10
1.000916
20
0.387024
30
0.0
11
0.813416
21
0.621796
31
0.0
0
LINE
8
MCD_Layer_0
10
0.000916
20
0.087006
30
0.0
11
1.000916
21
0.999023
31
0.0
0
LINE
8
MCD_Layer_0
10
1.006836
20
0.999023
30
0.0
11
1.139648
21
1.002930
31
0.0
0
LINE
8
MCD_Layer_0
10
0.999023
20
1.022461
30
0.0
11
0.999023
21
0.811523
31
0.0
0
LINE
8
MCD_Layer_0
10
0.621796
20
0.000916
30
0.0
11
0.087006
21
0.969666
31
0.0
0
LINE
8
MCD_Layer_0
10
0.293793
20
1.000916
30
0.0
11
0.391022
21
0.250885
31
0.0
0
LINE
8
MCD_Layer_0
10
1.012604
20
1.000916
30
0.0
11
0.999023
21
0.999023
31
0.0
0
LINE
8
MCD_Layer_0
10
0.999023
20
1.006836
30
0.0
11
0.999023
21
1.139648
31
0.0
0
LINE
8
MCD_Layer_0
10
1.002930
20
0.999023
30
0.0
11
1.022461
21
0.999023
31
0.0
0
LINE
8
MCD_Layer_0
10
0.374023
20
0.162201
30
0.0
11
1.000885
21
1.391022
31
0.0
0
LINE
8
MCD_Layer_0
10
1.125916
20
0.738220
30
0.0
11
1.000885
21
1.447021
31
0.0
0
LINE
8
MCD_Layer_0
10
1.438416
20
1.156616
30
0.0
11
1.000916
21
1.607025
31
0.0
0
LINE
8
MCD_Layer_0
10
1.000916
20
0.999023
30
0.0
11
1.006836
21
0.999023
31
0.0
0
LINE
8
MCD_Layer_0
10
1.139648
20
1.002930
30
0.0
11
0.999023
21
1.022461
31
0.0
0
LINE
8
MCD_Layer_0
10
0.999023
20
1.436523
30
0.0
11
1.156616
21
1.000916
31
0.0
0
LINE
8
MCD_Layer_0
10
1.607025
20
0.938416
30
0.0
11
1.532593
21
1.500916
31
0.0
0
LINE
8
MCD_Layer_0
10
0.175018
20
1.438416
30
0.0
11
1.212616
21
1.000916
31
0.0
0
LINE
8
MCD_Layer_0
10
0.563019
20
1.000916
30
0.0
11
0.999023
21
1.006836
31
0.0
0
LINE
8
MCD_Layer_0
10
0.999023
20
1.139648
30
0.0
11
1.002930
21
0.999023
31
0.0
0
LINE
8
MCD_Layer_0
10
1.022461
20
0.999023
30
0.0
11
1.436523
21
1.212616
31
0.0
0
LINE
8
MCD_Layer_0
10
1.000916
20
0.563019
30
0.0
11
1.375916
21
0.802216
31
0.0
0
LINE
8
MCD_Layer_0
10
1.000885
20
0.659027
30
0.0
11
1.750916
21
0.146210
31
0.0
0
LINE
8
MCD_Layer_0
10
0.000885
20
0.695007
30
0.0
11
1.000916
21
0.999023
31
0.0
0
LINE
8
MCD_Layer_0
10
1.006836
20
0.999023
30
0.0
11
1.139648
21
1.002930
31
0.0
0
LINE
8
MCD_Layer_0
10
0.999023
20
1.022461
30
0.0
11
0.999023
21
0.999023
31
0.0
0
LINE
8
MCD_Layer_0
10
1.973419
20
0.000885
30
0.0
11
1.195007
21
1.875946
31
0.0
0
LINE
8
MCD_Layer_0
10
0.594208
20
1.500885
30
0.0
11
1.209015
21
0.813446
31
0.0
0
LINE
8
MCD_Layer_0
10
1.084595
20
1.000916
30
0.0
11
1.249023
21
1.000946
31
0.0
0
LINE
8
MCD_Layer_0
10
0.999023
20
1.006836
30
0.0
11
0.999023
21
1.139648
31
0.0
0
LINE
8
MCD_Layer_0
10
1.002930
20
0.999023
30
0.0
11
1.022461
21
0.999023
31
0.0
0
LINE
8
MCD_Layer_0
10
0.811523
20
1.084595
30
0.0
11
1.000916
21
1.249023
31
0.0
0
LINE
8
MCD_Layer_0
10
0.313446
20
1.404602
30
0.0
11
0.000916
21
1.419006
31
0.0
0
LINE
8
MCD_Layer_0
10
1.125946
20
1.204620
30
0.0
11
0.500916
21
1.569000
31
0.0
0
LINE
8
MCD_Layer_0
10
1.000946
20
0.999023
30
0.0
11
1.006836
21
0.999023
31
0.0
0
LINE
8
MCD_Layer_0
10
1.139648
20
1.002930
30
0.0
11
0.999023
21
1.022461
31
0.0
0
LINE
8
MCD_Layer_0
10
0.999023
20
1.124023
30
0.0
11
1.204620
21
0.500916
31
0.0
0
LINE
8
MCD_Layer_0
10
1.569000
20
0.125946
30
0.0
11
0.546204
21
0.000885
31
0.0
0
LINE
8
MCD_Layer_0
10
1.639008
20
0.250946
30
0.0
11
1.621399
21
1.500885
31
0.0
0
LINE
8
MCD_Layer_0
10
1.653015
20
1.000946
30
0.0
11
0.999023
21
1.006836
31
0.0
0
LINE
8
MCD_Layer_0
10
0.999023
20
1.022461
30
0.0
11
1.002930
21
0.999023
31
0.0
0
LINE
8
MCD_Layer_0
10
1.014648
20
0.999023
30
0.0
11
0.249023
21
1.621399
31
0.0
0
LINE
8
MCD_Layer_0
10
1.500885
20
1.653015
30
0.0
11
0.500946
21
1.505402
31
0.0
0
LINE
8
MCD_Layer_0
10
1.504822
20
1.653015
30
0.0
11
1.000946
21
0.999023
31
0.0
0
LINE
8
MCD_Layer_0
10
1.006836
20
0.999023
30
0.0
11
1.022461
21
1.002930
31
0.0
0
LINE
8
MCD_Layer_0
10
0.999023
20
1.014648
30
0.0
11
0.999023
21
1.499023
31
0.0
0
LINE
8
MCD_Layer_0
10
1.644318
20
1.004791
30
0.0
11
0.038086
21
1.504700
31
0.0
0
LINE
8
MCD_Layer_0
10
1.644318
20
0.004791
30
0.0
11
1.404388
21
1.000916
31
0.0
0
LINE
8
MCD_Layer_0
10
0.999023
20
1.006836
30
0.0
11
0.999023
21
1.022461
31
0.0
0
LINE
8
MCD_Layer_0
10
1.002930
20
0.999023
30
0.0
11
1.014648
21
0.999023
31
0.0
0
LINE
8
MCD_Layer_0
10
1.499023
20
1.644318
30
0.0
11
1.004791
21
1.391022
31
0.0
0
LINE
8
MCD_Layer_0
10
0.375916
20
0.162201
30
0.0
11
1.000885
21
1.391022
31
0.0
0
LINE
8
MCD_Layer_0
10
1.000916
20
0.999023
30
0.0
11
1.006836
21
0.999023
31
0.0
0
LINE
8
MCD_Layer_0
10
1.022461
20
1.002930
30
0.0
11
0.999023
21
1.014648
31
0.0
0
LINE
8
MCD_Layer_0
10
0.999023
20
0.499023
30
0.0
11
1.505402
21
1.004822
31
0.0
0
LINE
8
MCD_Layer_0
10
0.999023
20
0.155273
30
0.0
11
0.624207
21
1.004822
31
0.0
0
LINE
8
MCD_Layer_0
10
0.999023
20
0.999023
30
0.0
11
0.999023
21
1.006836
31
0.0
0
LINE
8
MCD_Layer_0
10
0.999023
20
1.022461
30
0.0
11
1.002930
21
0.999023
31
0.0
0
LINE
8
MCD_Layer_0
10
1.014648
20
0.999023
30
0.0
11
1.499023
21
1.644318
31
0.0
0
LINE
8
MCD_Layer_0
10
1.004791
20
0.038086
30
0.0
11
0.254700
21
1.012604
31
0.0
0
LINE
8
MCD_Layer_0
10
1.000916
20
0.999023
30
0.0
11
0.999023
21
0.999023
31
0.0
0
LINE
8
MCD_Layer_0
10
1.006836
20
0.999023
30
0.0
11
1.022461
21
1.002930
31
0.0
0
LINE
8
MCD_Layer_0
10
0.999023
20
1.014648
30
0.0
11
0.999023
21
1.499023
31
0.0
0
LINE
8
MCD_Layer_0
10
1.644318
20
0.004791
30
0.0
11
1.195007
21
1.500946
31
0.0
0
LINE
8
MCD_Layer_0
10
1.644318
20
0.004791
30
0.0
11
0.695007
21
1.000916
31
0.0
0
LINE
8
MCD_Layer_0
10
0.999023
20
1.006836
30
0.0
11
0.999023
21
1.022461
31
0.0
0
LINE
8
MCD_Layer_0
10
1.002930
20
0.999023
30
0.0
11
1.014648
21
0.999023
31
0.0
0
LINE
8
MCD_Layer_0
10
1.499023
20
1.644318
30
0.0
11
0.004791
21
1.195007
31
0.0
0
LINE
8
MCD_Layer_0
10
1.000946
20
1.973419
30
0.0
11
0.000885
21
1.195007
31
0.0
0
LINE
8
MCD_Layer_0
10
1.000946
20
0.999023
30
0.0
11
1.006836
21
0.999023
31
0.0
0
LINE
8
MCD_Layer_0
10
1.022461
20
1.002930
30
0.0
11
0.999023
21
1.014648
31
0.0
0
LINE
8
MCD_Layer_0
10
0.999023
20
1.499023
30
0.0
11
1.644318
21
0.004791
31
0.0
0
LINE
8
MCD_Layer_0
10
0.695007
20
1.750916
30
0.0
11
0.146210
21
0.000885
31
0.0
0
LINE
8
MCD_Layer_0
10
0.695007
20
1.000916
30
0.0
11
0.999023
21
1.006836
31
0.0
0
LINE
8
MCD_Layer_0
10
0.999023
20
1.022461
30
0.0
11
1.002930
21
0.999023
31
0.0
0
LINE
8
MCD_Layer_0
10
1.014648
20
0.999023
30
0.0
11
0.499023
21
1.505402
31
0.0
0
LINE
8
MCD_Layer_0
10
1.504822
20
1.653015
30
0.0
11
0.500946
21
1.505402
31
0.0
0
LINE
8
MCD_Layer_0
10
1.004822
20
0.999023
30
0.0
11
0.999023
21
0.999023
31
0.0
0
ENDSEC
0
EOF
