0
SECTION
2
ENTITIES
0
LINE
8
MCD_Layer_0
10
0.013063
20
0.013063
30
0.0
11
0.000000
21
0.000000
31
0.0
0
LINE
8
MCD_Layer_0
10
0.013063
20
0.005188
30
0.0
11
0.000000
21
0.000000
31
0.0
0
LINE
8
MCD_Layer_0
10
0.005188
20
0.005188
30
0.0
11
0.000000
21
0.000000
31
0.0
0
LINE
8
MCD_Layer_0
10
0.005188
20
0.000000
30
0.0
11
0.000000
21
0.000000
31
0.0
0
LINE
8
MCD_Layer_0
10
0.010437
20
0.010438
30
0.0
11
0.000000
21
0.000000
31
0.0
0
LINE
8
MCD_Layer_0
10
0.010438
20
0.007813
30
0.0
11
0.000000
21
0.000000
31
0.0
0
LINE
8
MCD_Layer_0
10
0.007813
20
0.007813
30
0.0
11
0.000000
21
0.000000
31
0.0
0
LINE
8
MCD_Layer_0
10
0.005188
20
0.000000
30
0.0
11
0.000000
21
0.000000
31
0.0
0
LINE
8
MCD_Layer_0
10
0.000082
20
0.000082
30
0.0
11
0.000000
21
0.000000
31
0.0
0
LINE
8
MCD_Layer_0
10
0.000082
20
0.000000
30
0.0
11
0.000000
21
0.000000
31
0.0
0
LINE
8
MCD_Layer_0
10
0.000000
20
0.000000
30
0.0
11
0.000000
21
0.000000
31
0.0
0
LINE
8
MCD_Layer_0
10
0.000053
20
0.000053
30
0.0
11
0.000000
21
0.000000
31
0.0
0
LINE
8
MCD_Layer_0
10
0.000053
20
0.000000
30
0.0
11
0.000000
21
0.000000
31
0.0
0
LINE
8
MCD_Layer_0
10
0.000218
20
0.000218
30
0.0
11
0.000000
21
0.000000
31
0.0
0
LINE
8
MCD_Layer_0
10
0.005500
20
0.005500
30
0.0
11
0.000000
21
0.000000
31
0.0
0
LINE
8
MCD_Layer_0
10
0.005500
20
0.000218
30
0.0
11
0.000000
21
0.000000
31
0.0
0
LINE
8
MCD_Layer_0
10
0.000332
20
0.000332
30
0.0
11
0.000000
21
0.000000
31
0.0
0
LINE
8
MCD_Layer_0
10
0.003391
20
0.003391
30
0.0
11
0.000000
21
0.000000
31
0.0
0
LINE
8
MCD_Layer_0
10
0.003391
20
0.000332
30
0.0
11
0.000000
21
-0.000000
31
0.0
0
LINE
8
MCD_Layer_0
10
0.000000
20
0.000004
30
0.0
11
0.000000
21
0.000000
31
0.0
0
LINE
8
MCD_Layer_0
10
0.000004
20
0.000000
30
0.0
11
0.000000
21
0.000000
31
0.0
0
LINE
8
MCD_Layer_0
10
0.000000
20
0.000010
30
0.0
11
0.000000
21
0.000000
31
0.0
0
LINE
8
MCD_Layer_0
10
0.013125
20
0.013125
30
0.0
11
0.000000
21
0.000000
31
0.0
0
LINE
8
MCD_Layer_0
10
0.013125
20
0.005188
30
0.0
11
0.000000
21
0.000000
31
0.0
0
LINE
8
MCD_Layer_0
10
0.005188
20
0.005188
30
0.0
11
0.000000
21
0.000000
31
0.0
0
LINE
8
MCD_Layer_0
10
0.005188
20
0.000000
30
0.0
11
0.000000
21
0.000000
31
0.0
0
LINE
8
MCD_Layer_0
10
0.000000
20
0.000010
30
0.0
11
0.000000
21
0.000000
31
0.0
0
LINE
8
MCD_Layer_0
10
0.000007
20
0.000000
30
0.0
11
0.000000
21
0.000000
31
0.0
0
LINE
8
MCD_Layer_0
10
0.000000
20
0.000014
30
0.0
11
0.000000
21
0.000000
31
0.0
0
LINE
8
MCD_Layer_0
10
0.010438
20
0.010438
30
0.0
11
0.000000
21
0.000000
31
0.0
0
LINE
8
MCD_Layer_0
10
0.010438
20
0.007813
30
0.0
11
0.000000
21
0.000000
31
0.0
0
LINE
8
MCD_Layer_0
10
0.007813
20
0.007813
30
0.0
11
0.000000
21
0.000000
31
0.0
0
LINE
8
MCD_Layer_0
10
0.005188
20
0.000000
30
0.0
11
0.000000
21
0.000000
31
0.0
0
LINE
8
MCD_Layer_0
10
0.000041
20
0.005188
30
0.0
11
0.000000
21
0.000000
31
0.0
0
LINE
8
MCD_Layer_0
10
0.005188
20
0.005188
30
0.0
11
0.000000
21
0.000000
31
0.0
0
LINE
8
MCD_Layer_0
10
0.000058
20
0.000058
30
0.0
11
0.000000
21
0.000000
31
0.0
0
LINE
8
MCD_Layer_0
10
0.003234
20
0.003234
30
0.0
11
0.000000
21
0.000000
31
0.0
0
LINE
8
MCD_Layer_0
10
0.000000
20
0.005188
30
0.0
11
0.000000
21
0.000000
31
0.0
0
LINE
8
MCD_Layer_0
10
0.005188
20
0.005188
30
0.0
11
0.000000
21
0.000000
31
0.0
0
LINE
8
MCD_Layer_0
10
0.005188
20
0.013063
30
0.0
11
0.000000
21
0.000000
31
0.0
0
LINE
8
MCD_Layer_0
10
0.013063
20
0.013063
30
0.0
11
0.000000
21
0.000000
31
0.0
0
LINE
8
MCD_Layer_0
10
0.013063
20
0.005188
30
0.0
11
0.000000
21
0.000000
31
0.0
0
LINE
8
MCD_Layer_0
10
0.005188
20
0.005188
30
0.0
11
0.000000
21
0.000000
31
0.0
0
LINE
8
MCD_Layer_0
10
0.005188
20
0.000000
30
0.0
11
0.000000
21
0.000000
31
0.0
0
LINE
8
MCD_Layer_0
10
0.000000
20
0.005188
30
0.0
11
0.000000
21
0.000000
31
0.0
0
LINE
8
MCD_Layer_0
10
0.007813
20
0.007813
30
0.0
11
0.000000
21
0.000000
31
0.0
0
LINE
8
MCD_Layer_0
10
0.007813
20
0.010437
30
0.0
11
0.000000
21
0.000000
31
0.0
0
LINE
8
MCD_Layer_0
10
0.010437
20
0.010438
30
0.0
11
0.000000
21
0.000000
31
0.0
0
LINE
8
MCD_Layer_0
10
0.010438
20
0.007813
30
0.0
11
0.000000
21
0.000000
31
0.0
0
LINE
8
MCD_Layer_0
10
0.007813
20
0.007813
30
0.0
11
0.000000
21
0.000000
31
0.0
0
LINE
8
MCD_Layer_0
10
0.005188
20
0.000000
30
0.0
11
0.000000
21
0.000000
31
0.0
0
LINE
8
MCD_Layer_0
10
0.000000
20
0.000000
30
0.0
11
0.000000
21
0.000000
31
0.0
0
LINE
8
MCD_Layer_0
10
0.000000
20
0.000000
30
0.0
11
0.000000
21
0.000000
31
0.0
0
LINE
8
MCD_Layer_0
10
0.000000
20
0.000000
30
0.0
11
0.000000
21
0.000000
31
0.0
0
LINE
8
MCD_Layer_0
10
0.000000
20
0.000000
30
0.0
11
0.000000
21
0.000000
31
0.0
0
LINE
8
MCD_Layer_0
10
0.000000
20
0.000051
30
0.0
11
0.000000
21
0.000000
31
0.0
0
LINE
8
MCD_Layer_0
10
0.000051
20
0.000051
30
0.0
11
0.000000
21
0.000000
31
0.0
0
LINE
8
MCD_Layer_0
10
0.000051
20
0.000018
30
0.0
11
0.000000
21
0.000000
31
0.0
0
LINE
8
MCD_Layer_0
10
0.000018
20
0.000018
30
0.0
11
0.000000
21
0.000000
31
0.0
0
LINE
8
MCD_Layer_0
10
0.000018
20
0.000629
30
0.0
11
0.000000
21
0.000000
31
0.0
0
LINE
8
MCD_Layer_0
10
0.000629
20
0.000629
30
0.0
11
0.000000
21
0.000000
31
0.0
0
LINE
8
MCD_Layer_0
10
0.000629
20
0.000312
30
0.0
11
0.000000
21
0.000000
31
0.0
0
LINE
8
MCD_Layer_0
10
0.000312
20
0.000313
30
0.0
11
0.000000
21
0.000000
31
0.0
0
LINE
8
MCD_Layer_0
10
0.000313
20
0.003234
30
0.0
11
0.000000
21
0.000000
31
0.0
0
LINE
8
MCD_Layer_0
10
0.003234
20
0.003234
30
0.0
11
0.000000
21
0.000000
31
0.0
0
LINE
8
MCD_Layer_0
10
0.003234
20
0.001281
30
0.0
11
0.000000
21
0.000000
31
0.0
0
LINE
8
MCD_Layer_0
10
0.001281
20
0.001281
30
0.0
11
0.000000
21
0.000000
31
0.0
0
LINE
8
MCD_Layer_0
10
0.001281
20
0.013063
30
0.0
11
0.000000
21
0.000000
31
0.0
0
LINE
8
MCD_Layer_0
10
0.013063
20
0.013063
30
0.0
11
0.000000
21
0.000000
31
0.0
0
LINE
8
MCD_Layer_0
10
0.013063
20
0.005188
30
0.0
11
0.000000
21
0.000000
31
0.0
0
LINE
8
MCD_Layer_0
10
0.005188
20
0.005188
30
0.0
11
0.000000
21
0.000000
31
0.0
0
LINE
8
MCD_Layer_0
10
0.005188
20
0.000000
30
0.0
11
0.000000
21
0.000000
31
0.0
0
LINE
8
MCD_Layer_0
10
0.000000
20
0.000000
30
0.0
11
0.000000
21
0.000000
31
0.0
0
LINE
8
MCD_Layer_0
10
0.000000
20
0.000000
30
0.0
11
0.000000
21
0.000000
31
0.0
0
LINE
8
MCD_Layer_0
10
0.000000
20
0.000000
30
0.0
11
0.000000
21
0.000000
31
0.0
0
LINE
8
MCD_Layer_0
10
0.000000
20
0.000082
30
0.0
11
0.000000
21
0.000000
31
0.0
0
LINE
8
MCD_Layer_0
10
0.000082
20
0.000082
30
0.0
11
0.000000
21
0.000000
31
0.0
0
LINE
8
MCD_Layer_0
10
0.000051
20
0.000038
30
0.0
11
0.000000
21
0.000000
31
0.0
0
LINE
8
MCD_Layer_0
10
0.000038
20
0.000038
30
0.0
11
0.000000
21
0.000000
31
0.0
0
LINE
8
MCD_Layer_0
10
0.000038
20
0.000418
30
0.0
11
0.000000
21
0.000000
31
0.0
0
LINE
8
MCD_Layer_0
10
0.000418
20
0.000418
30
0.0
11
0.000000
21
0.000000
31
0.0
0
LINE
8
MCD_Layer_0
10
0.000418
20
0.000312
30
0.0
11
0.000000
21
0.000000
31
0.0
0
LINE
8
MCD_Layer_0
10
0.000196
20
0.000196
30
0.0
11
0.000000
21
0.000000
31
0.0
0
LINE
8
MCD_Layer_0
10
0.000196
20
0.005188
30
0.0
11
0.000000
21
0.000000
31
0.0
0
LINE
8
MCD_Layer_0
10
0.005188
20
0.005188
30
0.0
11
0.000000
21
0.000000
31
0.0
0
LINE
8
MCD_Layer_0
10
0.003234
20
0.001938
30
0.0
11
0.000000
21
0.000000
31
0.0
0
LINE
8
MCD_Layer_0
10
0.001938
20
0.001938
30
0.0
11
0.000000
21
0.000000
31
0.0
0
LINE
8
MCD_Layer_0
10
0.001938
20
0.010437
30
0.0
11
0.000000
21
0.000000
31
0.0
0
LINE
8
MCD_Layer_0
10
0.010437
20
0.010438
30
0.0
11
0.000000
21
0.000000
31
0.0
0
LINE
8
MCD_Layer_0
10
0.010438
20
0.007813
30
0.0
11
0.000000
21
0.000000
31
0.0
0
LINE
8
MCD_Layer_0
10
0.007813
20
0.007813
30
0.0
11
0.000000
21
0.000000
31
0.0
0
LINE
8
MCD_Layer_0
10
0.005188
20
0.000000
30
0.0
11
0.000000
21
0.000000
31
0.0
0
LINE
8
MCD_Layer_0
10
0.000000
20
0.000243
30
0.0
11
0.000000
21
0.000000
31
0.0
0
LINE
8
MCD_Layer_0
10
0.000243
20
-0.000000
30
0.0
11
0.000000
21
0.000000
31
0.0
0
LINE
8
MCD_Layer_0
10
-0.000000
20
0.005188
30
0.0
11
0.000000
21
0.000000
31
0.0
0
LINE
8
MCD_Layer_0
10
0.005188
20
0.005188
30
0.0
11
0.000000
21
0.000000
31
0.0
0
LINE
8
MCD_Layer_0
10
0.005188
20
0.013063
30
0.0
11
0.000000
21
0.000000
31
0.0
0
LINE
8
MCD_Layer_0
10
0.013063
20
0.013063
30
0.0
11
0.000000
21
0.000000
31
0.0
0
LINE
8
MCD_Layer_0
10
0.013063
20
0.005188
30
0.0
11
0.000000
21
0.000000
31
0.0
0
LINE
8
MCD_Layer_0
10
0.005188
20
0.005188
30
0.0
11
0.000000
21
0.000000
31
0.0
0
LINE
8
MCD_Layer_0
10
0.005188
20
0.000004
30
0.0
11
0.000000
21
0.000000
31
0.0
0
LINE
8
MCD_Layer_0
10
0.000004
20
0.013063
30
0.0
11
0.000000
21
0.000000
31
0.0
0
LINE
8
MCD_Layer_0
10
0.013063
20
0.013063
30
0.0
11
0.000000
21
0.000000
31
0.0
0
LINE
8
MCD_Layer_0
10
0.013063
20
0.005188
30
0.0
11
0.000000
21
0.000000
31
0.0
0
LINE
8
MCD_Layer_0
10
0.005188
20
0.005188
30
0.0
11
0.000000
21
0.000000
31
0.0
0
LINE
8
MCD_Layer_0
10
0.005188
20
0.000000
30
0.0
11
0.000000
21
0.000000
31
0.0
0
LINE
8
MCD_Layer_0
10
0.000000
20
0.001031
30
0.0
11
0.000000
21
0.000000
31
0.0
0
LINE
8
MCD_Layer_0
10
0.001031
20
0.000000
30
0.0
11
0.000000
21
0.000000
31
0.0
0
LINE
8
MCD_Layer_0
10
0.000000
20
0.005188
30
0.0
11
0.000000
21
0.000000
31
0.0
0
LINE
8
MCD_Layer_0
10
0.007813
20
0.007813
30
0.0
11
0.000000
21
0.000000
31
0.0
0
LINE
8
MCD_Layer_0
10
0.007813
20
0.010437
30
0.0
11
0.000000
21
0.000000
31
0.0
0
LINE
8
MCD_Layer_0
10
0.010437
20
0.010437
30
0.0
11
0.000000
21
0.000000
31
0.0
0
LINE
8
MCD_Layer_0
10
0.010437
20
0.007813
30
0.0
11
0.000000
21
0.000000
31
0.0
0
LINE
8
MCD_Layer_0
10
0.007813
20
0.007813
30
0.0
11
0.000000
21
0.000000
31
0.0
0
LINE
8
MCD_Layer_0
10
0.005188
20
0.000000
30
0.0
11
0.000000
21
0.000000
31
0.0
0
LINE
8
MCD_Layer_0
10
0.000000
20
0.010438
30
0.0
11
0.000000
21
0.000000
31
0.0
0
LINE
8
MCD_Layer_0
10
0.010438
20
0.010438
30
0.0
11
0.000000
21
0.000000
31
0.0
0
LINE
8
MCD_Layer_0
10
0.010438
20
0.007813
30
0.0
11
0.000000
21
0.000000
31
0.0
0
LINE
8
MCD_Layer_0
10
0.007813
20
0.007813
30
0.0
11
0.000000
21
0.000000
31
0.0
0
LINE
8
MCD_Layer_0
10
0.005188
20
0.000000
30
0.0
11
0.000000
21
0.000000
31
0.0
0
LINE
8
MCD_Layer_0
10
0.000000
20
0.000778
30
0.0
11
0.000000
21
0.000000
31
0.0
0
LINE
8
MCD_Layer_0
10
0.000778
20
0.000000
30
0.0
11
0.000000
21
0.000000
31
0.0
0
LINE
8
MCD_Layer_0
10
0.000000
20
0.000778
30
0.0
11
0.000000
21
0.000000
31
0.0
0
LINE
8
MCD_Layer_0
10
0.000778
20
0.000000
30
0.0
11
0.000000
21
0.000000
31
0.0
0
LINE
8
MCD_Layer_0
10
0.000000
20
0.000778
30
0.0
11
0.000000
21
0.000000
31
0.0
0
LINE
8
MCD_Layer_0
10
0.000778
20
0.000000
30
0.0
11
0.000000
21
0.000000
31
0.0
0
LINE
8
MCD_Layer_0
10
0.000000
20
0.000551
30
0.0
11
0.000000
21
0.000000
31
0.0
0
LINE
8
MCD_Layer_0
10
0.000551
20
0.000000
30
0.0
11
0.000000
21
0.000000
31
0.0
0
LINE
8
MCD_Layer_0
10
0.000000
20
0.000032
30
0.0
11
0.000000
21
0.000000
31
0.0
0
LINE
8
MCD_Layer_0
10
0.000114
20
0.000521
30
0.0
11
0.000000
21
0.000000
31
0.0
0
LINE
8
MCD_Layer_0
10
0.000521
20
0.000114
30
0.0
11
0.000000
21
0.000000
31
0.0
0
LINE
8
MCD_Layer_0
10
0.000032
20
0.000000
30
0.0
11
0.000000
21
0.000000
31
0.0
0
LINE
8
MCD_Layer_0
10
0.000032
20
0.000032
30
0.0
11
0.000000
21
0.000000
31
0.0
0
LINE
8
MCD_Layer_0
10
0.000114
20
0.000114
30
0.0
11
0.000000
21
0.000000
31
0.0
0
LINE
8
MCD_Layer_0
10
0.000000
20
0.007815
30
0.0
11
0.000000
21
0.000000
31
0.0
0
LINE
8
MCD_Layer_0
10
0.007815
20
0.007815
30
0.0
11
0.000000
21
0.000000
31
0.0
0
LINE
8
MCD_Layer_0
10
0.000000
20
0.000001
30
0.0
11
0.000000
21
0.000000
31
0.0
0
LINE
8
MCD_Layer_0
10
0.002267
20
0.002267
30
0.0
11
0.000000
21
0.000000
31
0.0
0
LINE
8
MCD_Layer_0
10
0.002267
20
0.000017
30
0.0
11
0.000000
21
0.000000
31
0.0
0
LINE
8
MCD_Layer_0
10
0.000000
20
0.007815
30
0.0
11
0.000000
21
0.000000
31
0.0
0
LINE
8
MCD_Layer_0
10
0.007815
20
0.007815
30
0.0
11
0.000000
21
0.000000
31
0.0
0
LINE
8
MCD_Layer_0
10
0.007815
20
0.000000
30
0.0
11
0.000000
21
0.000000
31
0.0
0
LINE
8
MCD_Layer_0
10
0.000000
20
0.007815
30
0.0
11
0.000000
21
0.000000
31
0.0
0
LINE
8
MCD_Layer_0
10
0.007815
20
0.007815
30
0.0
11
0.000000
21
0.000000
31
0.0
0
LINE
8
MCD_Layer_0
10
0.007815
20
0.002267
30
0.0
11
0.000000
21
0.000000
31
0.0
0
LINE
8
MCD_Layer_0
10
0.002267
20
0.002267
30
0.0
11
0.000000
21
0.000000
31
0.0
0
LINE
8
MCD_Layer_0
10
0.002267
20
0.000114
30
0.0
11
0.000000
21
0.000000
31
0.0
0
LINE
8
MCD_Layer_0
10
0.000114
20
0.000114
30
0.0
11
0.000000
21
0.000000
31
0.0
0
LINE
8
MCD_Layer_0
10
0.000114
20
0.000032
30
0.0
11
0.000000
21
0.000000
31
0.0
0
LINE
8
MCD_Layer_0
10
0.000032
20
0.000032
30
0.0
11
0.000000
21
0.000000
31
0.0
0
LINE
8
MCD_Layer_0
10
0.000032
20
0.000000
30
0.0
11
0.000000
21
0.000000
31
0.0
0
LINE
8
MCD_Layer_0
10
0.000000
20
0.007815
30
0.0
11
0.000000
21
0.000000
31
0.0
0
LINE
8
MCD_Layer_0
10
0.007815
20
0.007815
30
0.0
11
0.000000
21
0.000000
31
0.0
0
LINE
8
MCD_Layer_0
10
0.002267
20
0.002267
30
0.0
11
0.000000
21
0.000000
31
0.0
0
LINE
8
MCD_Layer_0
10
0.002267
20
0.000000
30
0.0
11
0.000000
21
-0.000000
31
0.0
0
LINE
8
MCD_Layer_0
10
0.007813
20
0.007813
30
0.0
11
0.000000
21
0.000000
31
0.0
0
LINE
8
MCD_Layer_0
10
0.007813
20
0.007813
30
0.0
11
0.000000
21
-0.000000
31
0.0
0
LINE
8
MCD_Layer_0
10
0.000000
20
0.007813
30
0.0
11
0.000000
21
0.000000
31
0.0
0
LINE
8
MCD_Layer_0
10
0.007813
20
0.007813
30
0.0
11
0.000000
21
0.000000
31
0.0
0
LINE
8
MCD_Layer_0
10
0.007813
20
0.000000
30
0.0
11
0.000000
21
0.000000
31
0.0
0
LINE
8
MCD_Layer_0
10
0.002266
20
0.002266
30
0.0
11
0.000000
21
0.000000
31
0.0
0
LINE
8
MCD_Layer_0
10
0.002266
20
0.007813
30
0.0
11
0.000000
21
0.000000
31
0.0
0
LINE
8
MCD_Layer_0
10
0.007813
20
0.007813
30
0.0
11
0.000000
21
0.000000
31
0.0
0
LINE
8
MCD_Layer_0
10
0.000042
20
0.000003
30
0.0
11
0.000000
21
0.000000
31
0.0
0
LINE
8
MCD_Layer_0
10
0.000000
20
0.000000
30
0.0
11
0.000000
21
0.000000
31
0.0
0
LINE
8
MCD_Layer_0
10
0.000000
20
0.000000
30
0.0
11
0.000000
21
0.000000
31
0.0
0
LINE
8
MCD_Layer_0
10
0.000000
20
0.000001
30
0.0
11
0.000000
21
0.000000
31
0.0
0
LINE
8
MCD_Layer_0
10
0.000000
20
0.000000
30
0.0
11
0.000000
21
0.000000
31
0.0
0
LINE
8
MCD_Layer_0
10
0.000000
20
0.000000
30
0.0
11
0.000000
21
0.000000
31
0.0
0
LINE
8
MCD_Layer_0
10
0.000000
20
0.000001
30
0.0
11
0.000000
21
0.000000
31
0.0
0
LINE
8
MCD_Layer_0
10
0.000001
20
0.000001
30
0.0
11
0.000000
21
0.000000
31
0.0
0
LINE
8
MCD_Layer_0
10
0.000001
20
0.000171
30
0.0
11
0.000000
21
0.000000
31
0.0
0
LINE
8
MCD_Layer_0
10
0.000057
20
0.000001
30
0.0
11
0.000000
21
0.000000
31
0.0
0
LINE
8
MCD_Layer_0
10
0.000001
20
0.000001
30
0.0
11
0.000000
21
0.000000
31
0.0
0
LINE
8
MCD_Layer_0
10
0.007813
20
0.007813
30
0.0
11
0.000000
21
-0.000000
31
0.0
0
LINE
8
MCD_Layer_0
10
0.000000
20
0.003281
30
0.0
11
0.000000
21
0.000000
31
0.0
0
LINE
8
MCD_Layer_0
10
0.003906
20
0.003906
30
0.0
11
0.000000
21
0.000000
31
0.0
0
LINE
8
MCD_Layer_0
10
0.003906
20
0.007813
30
0.0
11
0.000000
21
0.000000
31
0.0
0
LINE
8
MCD_Layer_0
10
0.007813
20
0.007813
30
0.0
11
0.000000
21
0.000000
31
0.0
0
LINE
8
MCD_Layer_0
10
0.007813
20
0.003906
30
0.0
11
0.000000
21
0.000000
31
0.0
0
LINE
8
MCD_Layer_0
10
0.003906
20
0.003906
30
0.0
11
0.000000
21
0.000000
31
0.0
0
LINE
8
MCD_Layer_0
10
0.003281
20
0.000000
30
0.0
11
0.000000
21
0.000000
31
0.0
0
LINE
8
MCD_Layer_0
10
0.000000
20
0.000000
30
0.0
11
0.000000
21
0.000000
31
0.0
0
LINE
8
MCD_Layer_0
10
0.000000
20
0.000000
30
0.0
11
0.000000
21
0.000000
31
0.0
0
LINE
8
MCD_Layer_0
10
0.000000
20
0.000000
30
0.0
11
0.000000
21
0.000000
31
0.0
0
LINE
8
MCD_Layer_0
10
0.000000
20
0.003266
30
0.0
11
0.000000
21
0.000000
31
0.0
0
LINE
8
MCD_Layer_0
10
0.003938
20
0.003938
30
0.0
11
0.000000
21
0.000000
31
0.0
0
LINE
8
MCD_Layer_0
10
0.003266
20
0.001063
30
0.0
11
0.000000
21
0.000000
31
0.0
0
LINE
8
MCD_Layer_0
10
0.001063
20
0.001063
30
0.0
11
0.000000
21
0.000000
31
0.0
0
LINE
8
MCD_Layer_0
10
0.001063
20
0.007813
30
0.0
11
0.000000
21
0.000000
31
0.0
0
LINE
8
MCD_Layer_0
10
0.007813
20
0.007813
30
0.0
11
0.000000
21
0.000000
31
0.0
0
LINE
8
MCD_Layer_0
10
0.007813
20
0.001063
30
0.0
11
0.000000
21
0.000000
31
0.0
0
LINE
8
MCD_Layer_0
10
0.001063
20
0.001063
30
0.0
11
0.000000
21
0.000000
31
0.0
0
LINE
8
MCD_Layer_0
10
0.001063
20
0.003266
30
0.0
11
0.000000
21
0.000000
31
0.0
0
LINE
8
MCD_Layer_0
10
0.003938
20
0.003938
30
0.0
11
0.000000
21
0.000000
31
0.0
0
LINE
8
MCD_Layer_0
10
0.003266
20
0.000000
30
0.0
11
0.000000
21
0.000000
31
0.0
0
LINE
8
MCD_Layer_0
10
0.000000
20
0.003281
30
0.0
11
0.000000
21
0.000000
31
0.0
0
LINE
8
MCD_Layer_0
10
0.003906
20
0.003906
30
0.0
11
0.000000
21
0.000000
31
0.0
0
LINE
8
MCD_Layer_0
10
0.003906
20
0.007813
30
0.0
11
0.000000
21
0.000000
31
0.0
0
LINE
8
MCD_Layer_0
10
0.007813
20
0.007813
30
0.0
11
0.000000
21
0.000000
31
0.0
0
LINE
8
MCD_Layer_0
10
0.007813
20
0.003906
30
0.0
11
0.000000
21
0.000000
31
0.0
0
LINE
8
MCD_Layer_0
10
0.003906
20
0.003906
30
0.0
11
0.000000
21
0.000000
31
0.0
0
LINE
8
MCD_Layer_0
10
0.003281
20
0.000000
30
0.0
11
0.000000
21
0.000000
31
0.0
0
LINE
8
MCD_Layer_0
10
0.000000
20
0.003281
30
0.0
11
0.000000
21
0.000000
31
0.0
0
LINE
8
MCD_Layer_0
10
0.003906
20
0.003906
30
0.0
11
0.000000
21
0.000000
31
0.0
0
LINE
8
MCD_Layer_0
10
0.003906
20
0.007813
30
0.0
11
0.000000
21
0.000000
31
0.0
0
LINE
8
MCD_Layer_0
10
0.007813
20
0.007813
30
0.0
11
0.000000
21
0.000000
31
0.0
0
LINE
8
MCD_Layer_0
10
0.007813
20
0.000984
30
0.0
11
0.000000
21
0.000000
31
0.0
0
LINE
8
MCD_Layer_0
10
0.000984
20
0.000984
30
0.0
11
0.000000
21
0.000000
31
0.0
0
LINE
8
MCD_Layer_0
10
0.000984
20
0.002609
30
0.0
11
0.000000
21
0.000000
31
0.0
0
LINE
8
MCD_Layer_0
10
0.003938
20
0.003938
30
0.0
11
0.000000
21
0.000000
31
0.0
0
LINE
8
MCD_Layer_0
10
0.003938
20
0.000062
30
0.0
11
0.000000
21
0.000000
31
0.0
0
LINE
8
MCD_Layer_0
10
0.000062
20
0.000062
30
0.0
11
0.000000
21
0.000000
31
0.0
0
LINE
8
MCD_Layer_0
10
0.000081
20
0.000142
30
0.0
11
0.000000
21
0.000000
31
0.0
0
LINE
8
MCD_Layer_0
10
0.000142
20
0.000142
30
0.0
11
0.000000
21
0.000000
31
0.0
0
LINE
8
MCD_Layer_0
10
0.000142
20
0.000007
30
0.0
11
0.000000
21
0.000000
31
0.0
0
LINE
8
MCD_Layer_0
10
0.000007
20
0.000007
30
0.0
11
0.000000
21
0.000000
31
0.0
0
LINE
8
MCD_Layer_0
10
0.000007
20
0.000022
30
0.0
11
0.000000
21
0.000000
31
0.0
0
LINE
8
MCD_Layer_0
10
0.000031
20
0.000031
30
0.0
11
0.000000
21
0.000000
31
0.0
0
LINE
8
MCD_Layer_0
10
0.000031
20
0.000000
30
0.0
11
0.000000
21
0.000000
31
0.0
0
LINE
8
MCD_Layer_0
10
0.000000
20
0.000000
30
0.0
11
0.000000
21
0.000000
31
0.0
0
LINE
8
MCD_Layer_0
10
0.000000
20
0.000000
30
0.0
11
0.000000
21
0.000000
31
0.0
0
LINE
8
MCD_Layer_0
10
0.000000
20
0.000000
30
0.0
11
0.000000
21
0.000000
31
0.0
0
LINE
8
MCD_Layer_0
10
0.000000
20
0.003281
30
0.0
11
0.000000
21
0.000000
31
0.0
0
LINE
8
MCD_Layer_0
10
0.003906
20
0.003906
30
0.0
11
0.000000
21
0.000000
31
0.0
0
LINE
8
MCD_Layer_0
10
0.003906
20
0.007813
30
0.0
11
0.000000
21
0.000000
31
0.0
0
LINE
8
MCD_Layer_0
10
0.007813
20
0.007813
30
0.0
11
0.000000
21
0.000000
31
0.0
0
LINE
8
MCD_Layer_0
10
0.000031
20
0.000031
30
0.0
11
0.000000
21
0.000000
31
0.0
0
LINE
8
MCD_Layer_0
10
0.000031
20
0.000000
30
0.0
11
0.000000
21
0.000000
31
0.0
0
LINE
8
MCD_Layer_0
10
0.000062
20
0.000062
30
0.0
11
0.000000
21
0.000000
31
0.0
0
LINE
8
MCD_Layer_0
10
0.003938
20
0.003938
30
0.0
11
0.000000
21
0.000000
31
0.0
0
LINE
8
MCD_Layer_0
10
0.003938
20
0.000062
30
0.0
11
0.000000
21
-0.000000
31
0.0
0
LINE
8
MCD_Layer_0
10
0.000000
20
0.011063
30
0.0
11
0.000000
21
0.000000
31
0.0
0
LINE
8
MCD_Layer_0
10
0.011063
20
0.000000
30
0.0
11
0.000000
21
0.000000
31
0.0
0
LINE
8
MCD_Layer_0
10
0.000000
20
0.000002
30
0.0
11
0.000000
21
0.000000
31
0.0
0
LINE
8
MCD_Layer_0
10
0.000002
20
0.000002
30
0.0
11
0.000000
21
0.000000
31
0.0
0
LINE
8
MCD_Layer_0
10
0.000002
20
0.000000
30
0.0
11
0.000000
21
0.000000
31
0.0
0
LINE
8
MCD_Layer_0
10
0.000008
20
0.000008
30
0.0
11
0.000000
21
0.000000
31
0.0
0
LINE
8
MCD_Layer_0
10
0.000008
20
0.000785
30
0.0
11
0.000000
21
0.000000
31
0.0
0
LINE
8
MCD_Layer_0
10
0.000785
20
0.000008
30
0.0
11
0.000000
21
-0.000000
31
0.0
0
LINE
8
MCD_Layer_0
10
0.000000
20
0.003281
30
0.0
11
0.000000
21
0.000000
31
0.0
0
LINE
8
MCD_Layer_0
10
0.003906
20
0.003906
30
0.0
11
0.000000
21
0.000000
31
0.0
0
LINE
8
MCD_Layer_0
10
0.003906
20
0.007813
30
0.0
11
0.000000
21
0.000000
31
0.0
0
LINE
8
MCD_Layer_0
10
0.007813
20
0.007813
30
0.0
11
0.000000
21
0.000000
31
0.0
0
LINE
8
MCD_Layer_0
10
0.000020
20
0.000000
30
0.0
11
0.000000
21
0.000000
31
0.0
0
LINE
8
MCD_Layer_0
10
0.003938
20
0.003938
30
0.0
11
0.000000
21
0.000000
31
0.0
0
LINE
8
MCD_Layer_0
10
0.003938
20
0.000051
30
0.0
11
0.000000
21
-0.000000
31
0.0
0
LINE
8
MCD_Layer_0
10
-0.000000
20
0.000000
30
0.0
11
0.000000
21
0.000000
31
0.0
0
LINE
8
MCD_Layer_0
10
0.000000
20
0.000000
30
0.0
11
0.000000
21
0.000000
31
0.0
0
LINE
8
MCD_Layer_0
10
0.000000
20
0.003269
30
0.0
11
0.000000
21
0.000000
31
0.0
0
LINE
8
MCD_Layer_0
10
0.003894
20
0.003894
30
0.0
11
0.000000
21
0.000000
31
0.0
0
LINE
8
MCD_Layer_0
10
0.003894
20
0.007788
30
0.0
11
0.000000
21
0.000000
31
0.0
0
LINE
8
MCD_Layer_0
10
0.007788
20
0.007788
30
0.0
11
0.000000
21
0.000000
31
0.0
0
LINE
8
MCD_Layer_0
10
0.007788
20
0.003894
30
0.0
11
0.000000
21
0.000000
31
0.0
0
LINE
8
MCD_Layer_0
10
0.003894
20
0.003894
30
0.0
11
0.000000
21
0.000000
31
0.0
0
LINE
8
MCD_Layer_0
10
0.003269
20
0.000000
30
0.0
11
0.000000
21
0.000000
31
0.0
0
LINE
8
MCD_Layer_0
10
0.000000
20
0.003281
30
0.0
11
0.000000
21
0.000000
31
0.0
0
LINE
8
MCD_Layer_0
10
0.003906
20
0.003906
30
0.0
11
0.000000
21
0.000000
31
0.0
0
LINE
8
MCD_Layer_0
10
0.003906
20
0.007813
30
0.0
11
0.000000
21
0.000000
31
0.0
0
LINE
8
MCD_Layer_0
10
0.007813
20
0.007813
30
0.0
11
0.000000
21
0.000000
31
0.0
0
LINE
8
MCD_Layer_0
10
0.007813
20
0.000000
30
0.0
11
0.000000
21
0.000000
31
0.0
0
LINE
8
MCD_Layer_0
10
0.000000
20
0.003281
30
0.0
11
0.000000
21
0.000000
31
0.0
0
LINE
8
MCD_Layer_0
10
0.003906
20
0.003906
30
0.0
11
0.000000
21
0.000000
31
0.0
0
LINE
8
MCD_Layer_0
10
0.003906
20
0.007813
30
0.0
11
0.000000
21
0.000000
31
0.0
0
LINE
8
MCD_Layer_0
10
0.007813
20
0.007813
30
0.0
11
0.000000
21
0.000000
31
0.0
0
LINE
8
MCD_Layer_0
10
0.007813
20
0.003906
30
0.0
11
0.000000
21
0.000000
31
0.0
0
LINE
8
MCD_Layer_0
10
0.003906
20
0.003906
30
0.0
11
0.000000
21
0.000000
31
0.0
0
LINE
8
MCD_Layer_0
10
0.003281
20
-0.000000
30
0.0
11
0.000000
21
0.000000
31
0.0
0
LINE
8
MCD_Layer_0
10
-0.000000
20
0.000934
30
0.0
11
0.000000
21
0.000000
31
0.0
0
LINE
8
MCD_Layer_0
10
0.000934
20
0.000000
30
0.0
11
0.000000
21
0.000000
31
0.0
0
LINE
8
MCD_Layer_0
10
0.000000
20
0.001234
30
0.0
11
0.000000
21
0.000000
31
0.0
0
LINE
8
MCD_Layer_0
10
0.001906
20
0.001906
30
0.0
11
0.000000
21
0.000000
31
0.0
0
LINE
8
MCD_Layer_0
10
0.001906
20
0.003859
30
0.0
11
0.000000
21
0.000000
31
0.0
0
LINE
8
MCD_Layer_0
10
0.011750
20
0.011750
30
0.0
11
0.000000
21
0.000000
31
0.0
0
LINE
8
MCD_Layer_0
10
0.011750
20
0.000000
30
0.0
11
0.000000
21
0.000000
31
0.0
0
LINE
8
MCD_Layer_0
10
0.000000
20
0.000000
30
0.0
11
0.000000
21
0.000000
31
0.0
0
LINE
8
MCD_Layer_0
10
0.000015
20
0.000034
30
0.0
11
0.000000
21
0.000000
31
0.0
0
LINE
8
MCD_Layer_0
10
0.000034
20
0.007694
30
0.0
11
0.000000
21
0.000000
31
0.0
0
LINE
8
MCD_Layer_0
10
0.007694
20
0.007694
30
0.0
11
0.000000
21
0.000000
31
0.0
0
LINE
8
MCD_Layer_0
10
0.007694
20
0.000606
30
0.0
11
0.000000
21
0.000000
31
0.0
0
LINE
8
MCD_Layer_0
10
0.000606
20
0.000606
30
0.0
11
0.000000
21
0.000000
31
0.0
0
LINE
8
MCD_Layer_0
10
0.000606
20
0.001564
30
0.0
11
0.000000
21
0.000000
31
0.0
0
LINE
8
MCD_Layer_0
10
0.002519
20
0.002519
30
0.0
11
0.000000
21
0.000000
31
0.0
0
LINE
8
MCD_Layer_0
10
0.002519
20
0.000111
30
0.0
11
0.000000
21
0.000000
31
0.0
0
LINE
8
MCD_Layer_0
10
0.000298
20
0.000477
30
0.0
11
0.000000
21
0.000000
31
0.0
0
LINE
8
MCD_Layer_0
10
0.000477
20
0.000218
30
0.0
11
0.000000
21
0.000000
31
0.0
0
LINE
8
MCD_Layer_0
10
0.000383
20
0.000383
30
0.0
11
0.000000
21
0.000000
31
0.0
0
LINE
8
MCD_Layer_0
10
0.000383
20
0.010444
30
0.0
11
0.000000
21
0.000000
31
0.0
0
LINE
8
MCD_Layer_0
10
0.010444
20
0.010444
30
0.0
11
0.000000
21
0.000000
31
0.0
0
LINE
8
MCD_Layer_0
10
0.000000
20
0.000000
30
0.0
11
0.000000
21
0.000000
31
0.0
0
LINE
8
MCD_Layer_0
10
0.000000
20
0.000000
30
0.0
11
0.000000
21
0.000000
31
0.0
0
LINE
8
MCD_Layer_0
10
0.000000
20
0.000000
30
0.0
11
0.000000
21
0.000000
31
0.0
0
LINE
8
MCD_Layer_0
10
0.000000
20
0.000000
30
0.0
11
0.000000
21
0.000000
31
0.0
0
LINE
8
MCD_Layer_0
10
0.000000
20
0.000000
30
0.0
11
0.000000
21
0.000000
31
0.0
0
LINE
8
MCD_Layer_0
10
0.000000
20
0.010350
30
0.0
11
0.000000
21
0.000000
31
0.0
0
LINE
8
MCD_Layer_0
10
0.010350
20
0.000000
30
0.0
11
0.000000
21
0.000000
31
0.0
0
LINE
8
MCD_Layer_0
10
0.000000
20
0.000000
30
0.0
11
0.000000
21
0.000000
31
0.0
0
LINE
8
MCD_Layer_0
10
0.000001
20
0.000001
30
0.0
11
0.000000
21
0.000000
31
0.0
0
LINE
8
MCD_Layer_0
10
0.000001
20
0.000001
30
0.0
11
0.000000
21
0.000000
31
0.0
0
LINE
8
MCD_Layer_0
10
0.000001
20
0.000000
30
0.0
11
0.000000
21
0.000000
31
0.0
0
LINE
8
MCD_Layer_0
10
0.000000
20
0.000000
30
0.0
11
0.000000
21
0.000000
31
0.0
0
LINE
8
MCD_Layer_0
10
0.000000
20
0.000000
30
0.0
11
0.000000
21
0.000000
31
0.0
0
LINE
8
MCD_Layer_0
10
0.000000
20
0.000000
30
0.0
11
0.000000
21
0.000000
31
0.0
0
LINE
8
MCD_Layer_0
10
0.000000
20
0.000000
30
0.0
11
0.000000
21
0.000000
31
0.0
0
LINE
8
MCD_Layer_0
10
0.000000
20
0.000805
30
0.0
11
0.000000
21
0.000000
31
0.0
0
LINE
8
MCD_Layer_0
10
0.000805
20
0.000000
30
0.0
11
0.000000
21
0.000000
31
0.0
0
LINE
8
MCD_Layer_0
10
0.000000
20
0.000000
30
0.0
11
0.000000
21
-0.000000
31
0.0
0
LINE
8
MCD_Layer_0
10
0.000000
20
0.003281
30
0.0
11
0.000000
21
0.000000
31
0.0
0
LINE
8
MCD_Layer_0
10
0.003906
20
0.003906
30
0.0
11
0.000000
21
0.000000
31
0.0
0
LINE
8
MCD_Layer_0
10
0.003906
20
0.007813
30
0.0
11
0.000000
21
0.000000
31
0.0
0
LINE
8
MCD_Layer_0
10
0.007813
20
0.007813
30
0.0
11
0.000000
21
0.000000
31
0.0
0
LINE
8
MCD_Layer_0
10
0.007813
20
0.003906
30
0.0
11
0.000000
21
0.000000
31
0.0
0
LINE
8
MCD_Layer_0
10
0.003906
20
0.003906
30
0.0
11
0.000000
21
0.000000
31
0.0
0
LINE
8
MCD_Layer_0
10
0.003281
20
0.000062
30
0.0
11
0.000000
21
0.000000
31
0.0
0
LINE
8
MCD_Layer_0
10
0.000062
20
0.000062
30
0.0
11
0.000000
21
0.000000
31
0.0
0
LINE
8
MCD_Layer_0
10
0.000062
20
0.003281
30
0.0
11
0.000000
21
0.000000
31
0.0
0
LINE
8
MCD_Layer_0
10
0.003906
20
0.003906
30
0.0
11
0.000000
21
0.000000
31
0.0
0
LINE
8
MCD_Layer_0
10
0.003906
20
0.007813
30
0.0
11
0.000000
21
0.000000
31
0.0
0
LINE
8
MCD_Layer_0
10
0.007813
20
0.007813
30
0.0
11
0.000000
21
0.000000
31
0.0
0
LINE
8
MCD_Layer_0
10
0.007813
20
0.003906
30
0.0
11
0.000000
21
0.000000
31
0.0
0
LINE
8
MCD_Layer_0
10
0.003906
20
0.003906
30
0.0
11
0.000000
21
0.000000
31
0.0
0
LINE
8
MCD_Layer_0
10
0.003281
20
0.000000
30
0.0
11
0.000000
21
0.000000
31
0.0
0
LINE
8
MCD_Layer_0
10
0.000000
20
0.000031
30
0.0
11
0.000000
21
0.000000
31
0.0
0
LINE
8
MCD_Layer_0
10
0.000031
20
0.000031
30
0.0
11
0.000000
21
0.000000
31
0.0
0
LINE
8
MCD_Layer_0
10
0.000031
20
0.000000
30
0.0
11
0.000000
21
0.000000
31
0.0
0
LINE
8
MCD_Layer_0
10
0.000000
20
0.003281
30
0.0
11
0.000000
21
0.000000
31
0.0
0
LINE
8
MCD_Layer_0
10
0.003906
20
0.003906
30
0.0
11
0.000000
21
0.000000
31
0.0
0
LINE
8
MCD_Layer_0
10
0.003906
20
0.007813
30
0.0
11
0.000000
21
0.000000
31
0.0
0
LINE
8
MCD_Layer_0
10
0.007813
20
0.007813
30
0.0
11
0.000000
21
0.000000
31
0.0
0
LINE
8
MCD_Layer_0
10
0.003938
20
0.003938
30
0.0
11
0.000000
21
0.000000
31
0.0
0
LINE
8
MCD_Layer_0
10
0.003938
20
0.000000
30
0.0
11
0.000000
21
-0.000000
31
0.0
0
LINE
8
MCD_Layer_0
10
0.003894
20
0.007788
30
0.0
11
0.000000
21
0.000000
31
0.0
0
LINE
8
MCD_Layer_0
10
0.007788
20
0.007788
30
0.0
11
0.000000
21
0.000000
31
0.0
0
LINE
8
MCD_Layer_0
10
0.007788
20
0.003894
30
0.0
11
0.000000
21
0.000000
31
0.0
0
LINE
8
MCD_Layer_0
10
0.003894
20
0.003894
30
0.0
11
0.000000
21
0.000000
31
0.0
0
LINE
8
MCD_Layer_0
10
0.003050
20
0.000000
30
0.0
11
0.000000
21
0.000000
31
0.0
0
LINE
8
MCD_Layer_0
10
0.000000
20
0.009725
30
0.0
11
0.000000
21
0.000000
31
0.0
0
LINE
8
MCD_Layer_0
10
0.009725
20
0.000001
30
0.0
11
0.000000
21
0.000000
31
0.0
0
LINE
8
MCD_Layer_0
10
0.000001
20
0.003094
30
0.0
11
0.000000
21
0.000000
31
0.0
0
LINE
8
MCD_Layer_0
10
0.003906
20
0.003906
30
0.0
11
0.000000
21
0.000000
31
0.0
0
LINE
8
MCD_Layer_0
10
0.003906
20
0.007788
30
0.0
11
0.000000
21
0.000000
31
0.0
0
LINE
8
MCD_Layer_0
10
0.007788
20
0.007788
30
0.0
11
0.000000
21
0.000000
31
0.0
0
LINE
8
MCD_Layer_0
10
0.007788
20
0.003906
30
0.0
11
0.000000
21
0.000000
31
0.0
0
LINE
8
MCD_Layer_0
10
0.003906
20
0.003906
30
0.0
11
0.000000
21
0.000000
31
0.0
0
LINE
8
MCD_Layer_0
10
0.003438
20
-0.000000
30
0.0
11
0.000000
21
0.000000
31
0.0
0
LINE
8
MCD_Layer_0
10
-0.000000
20
0.000153
30
0.0
11
0.000000
21
0.000000
31
0.0
0
LINE
8
MCD_Layer_0
10
0.000153
20
-0.000000
30
0.0
11
0.000000
21
0.000000
31
0.0
0
LINE
8
MCD_Layer_0
10
-0.000000
20
0.003456
30
0.0
11
0.000000
21
0.000000
31
0.0
0
LINE
8
MCD_Layer_0
10
0.003894
20
0.003894
30
0.0
11
0.000000
21
-0.000000
31
0.0
0
LINE
8
MCD_Layer_0
10
0.000000
20
0.000000
30
0.0
11
0.000000
21
0.000000
31
0.0
0
LINE
8
MCD_Layer_0
10
0.000000
20
0.000000
30
0.0
11
0.000000
21
0.000000
31
0.0
0
LINE
8
MCD_Layer_0
10
0.000000
20
0.000000
30
0.0
11
0.000000
21
0.000000
31
0.0
0
LINE
8
MCD_Layer_0
10
0.000003
20
0.000190
30
0.0
11
0.000000
21
0.000000
31
0.0
0
LINE
8
MCD_Layer_0
10
0.010562
20
0.011500
30
0.0
11
0.000000
21
0.000000
31
0.0
0
LINE
8
MCD_Layer_0
10
0.011500
20
0.011500
30
0.0
11
0.000000
21
0.000000
31
0.0
0
LINE
8
MCD_Layer_0
10
0.011500
20
0.000949
30
0.0
11
0.000000
21
0.000000
31
0.0
0
LINE
8
MCD_Layer_0
10
0.000949
20
0.000949
30
0.0
11
0.000000
21
0.000000
31
0.0
0
LINE
8
MCD_Layer_0
10
0.000949
20
0.001250
30
0.0
11
0.000000
21
0.000000
31
0.0
0
LINE
8
MCD_Layer_0
10
0.000281
20
0.000040
30
0.0
11
0.000000
21
0.000000
31
0.0
0
LINE
8
MCD_Layer_0
10
0.000000
20
0.003281
30
0.0
11
0.000000
21
0.000000
31
0.0
0
LINE
8
MCD_Layer_0
10
0.003906
20
0.003906
30
0.0
11
0.000000
21
0.000000
31
0.0
0
LINE
8
MCD_Layer_0
10
0.003906
20
0.007813
30
0.0
11
0.000000
21
0.000000
31
0.0
0
LINE
8
MCD_Layer_0
10
0.007813
20
0.007813
30
0.0
11
0.000000
21
0.000000
31
0.0
0
LINE
8
MCD_Layer_0
10
0.007813
20
0.000000
30
0.0
11
0.000000
21
0.000000
31
0.0
0
LINE
8
MCD_Layer_0
10
0.000000
20
0.007813
30
0.0
11
0.000000
21
0.000000
31
0.0
0
LINE
8
MCD_Layer_0
10
0.007813
20
0.007813
30
0.0
11
0.000000
21
0.000000
31
0.0
0
LINE
8
MCD_Layer_0
10
0.007813
20
0.003906
30
0.0
11
0.000000
21
0.000000
31
0.0
0
LINE
8
MCD_Layer_0
10
0.003906
20
0.003906
30
0.0
11
0.000000
21
0.000000
31
0.0
0
LINE
8
MCD_Layer_0
10
0.003281
20
0.000000
30
0.0
11
0.000000
21
0.000000
31
0.0
0
LINE
8
MCD_Layer_0
10
0.000000
20
0.000488
30
0.0
11
0.000000
21
0.000000
31
0.0
0
LINE
8
MCD_Layer_0
10
0.000488
20
-0.000000
30
0.0
11
0.000000
21
0.000000
31
0.0
0
LINE
8
MCD_Layer_0
10
-0.000000
20
0.000426
30
0.0
11
0.000000
21
0.000000
31
0.0
0
LINE
8
MCD_Layer_0
10
0.000426
20
0.000000
30
0.0
11
0.000000
21
0.000000
31
0.0
0
LINE
8
MCD_Layer_0
10
0.000000
20
0.000476
30
0.0
11
0.000000
21
0.000000
31
0.0
0
LINE
8
MCD_Layer_0
10
0.000476
20
0.000000
30
0.0
11
0.000000
21
0.000000
31
0.0
0
LINE
8
MCD_Layer_0
10
0.000000
20
0.000478
30
0.0
11
0.000000
21
0.000000
31
0.0
0
LINE
8
MCD_Layer_0
10
0.000478
20
0.000000
30
0.0
11
0.000000
21
0.000000
31
0.0
0
LINE
8
MCD_Layer_0
10
0.000000
20
0.007815
30
0.0
11
0.000000
21
0.000000
31
0.0
0
LINE
8
MCD_Layer_0
10
0.007815
20
0.000000
30
0.0
11
0.000000
21
0.000000
31
0.0
0
LINE
8
MCD_Layer_0
10
0.000000
20
0.007815
30
0.0
11
0.000000
21
0.000000
31
0.0
0
LINE
8
MCD_Layer_0
10
0.007815
20
0.007815
30
0.0
11
0.000000
21
0.000000
31
0.0
0
LINE
8
MCD_Layer_0
10
0.007815
20
0.007815
30
0.0
11
0.000000
21
0.000000
31
0.0
0
LINE
8
MCD_Layer_0
10
0.007815
20
0.000000
30
0.0
11
0.000000
21
0.000000
31
0.0
0
LINE
8
MCD_Layer_0
10
0.003236
20
0.001348
30
0.0
11
0.000000
21
0.000000
31
0.0
0
LINE
8
MCD_Layer_0
10
0.000000
20
0.007815
30
0.0
11
0.000000
21
0.000000
31
0.0
0
LINE
8
MCD_Layer_0
10
0.007815
20
0.007815
30
0.0
11
0.000000
21
0.000000
31
0.0
0
LINE
8
MCD_Layer_0
10
0.007815
20
0.000114
30
0.0
11
0.000000
21
0.000000
31
0.0
0
LINE
8
MCD_Layer_0
10
0.000114
20
0.000114
30
0.0
11
0.000000
21
0.000000
31
0.0
0
LINE
8
MCD_Layer_0
10
0.000114
20
0.007815
30
0.0
11
0.000000
21
0.000000
31
0.0
0
LINE
8
MCD_Layer_0
10
0.007815
20
0.007815
30
0.0
11
0.000000
21
0.000000
31
0.0
0
LINE
8
MCD_Layer_0
10
0.007815
20
0.000000
30
0.0
11
0.000000
21
0.000000
31
0.0
0
LINE
8
MCD_Layer_0
10
0.000000
20
0.000032
30
0.0
11
0.000000
21
0.000000
31
0.0
0
LINE
8
MCD_Layer_0
10
0.000032
20
0.000032
30
0.0
11
0.000000
21
0.000000
31
0.0
0
LINE
8
MCD_Layer_0
10
0.000032
20
0.000000
30
0.0
11
0.000000
21
0.000000
31
0.0
0
LINE
8
MCD_Layer_0
10
0.000000
20
0.007815
30
0.0
11
0.000000
21
0.000000
31
0.0
0
LINE
8
MCD_Layer_0
10
0.007815
20
0.007815
30
0.0
11
0.000000
21
0.000000
31
0.0
0
LINE
8
MCD_Layer_0
10
0.007815
20
0.000000
30
0.0
11
0.000000
21
0.000000
31
0.0
0
LINE
8
MCD_Layer_0
10
0.000000
20
0.007815
30
0.0
11
0.000000
21
0.000000
31
0.0
0
LINE
8
MCD_Layer_0
10
0.007815
20
0.007815
30
0.0
11
0.000000
21
0.000000
31
0.0
0
LINE
8
MCD_Layer_0
10
0.007815
20
0.004609
30
0.0
11
0.000000
21
0.000000
31
0.0
0
LINE
8
MCD_Layer_0
10
0.000507
20
0.000000
30
0.0
11
0.000000
21
0.000000
31
0.0
0
LINE
8
MCD_Layer_0
10
0.000000
20
0.000507
30
0.0
11
0.000000
21
0.000000
31
0.0
0
LINE
8
MCD_Layer_0
10
0.000507
20
0.000000
30
0.0
11
0.000000
21
0.000000
31
0.0
0
LINE
8
MCD_Layer_0
10
0.000011
20
0.000000
30
0.0
11
0.000000
21
0.000000
31
0.0
0
LINE
8
MCD_Layer_0
10
0.002923
20
0.001279
30
0.0
11
0.000000
21
0.000000
31
0.0
0
LINE
8
MCD_Layer_0
10
0.000000
20
0.000011
30
0.0
11
0.000000
21
0.000000
31
0.0
0
LINE
8
MCD_Layer_0
10
0.000011
20
0.000011
30
0.0
11
0.000000
21
0.000000
31
0.0
0
LINE
8
MCD_Layer_0
10
0.000000
20
0.000000
30
0.0
11
0.000000
21
0.000000
31
0.0
0
LINE
8
MCD_Layer_0
10
0.000000
20
0.007815
30
0.0
11
0.000000
21
0.000000
31
0.0
0
LINE
8
MCD_Layer_0
10
0.007815
20
0.007815
30
0.0
11
0.000000
21
0.000000
31
0.0
0
LINE
8
MCD_Layer_0
10
0.007815
20
0.000000
30
0.0
11
0.000000
21
0.000000
31
0.0
0
LINE
8
MCD_Layer_0
10
0.007813
20
0.000000
30
0.0
11
0.000000
21
0.000000
31
0.0
0
LINE
8
MCD_Layer_0
10
0.000000
20
0.007813
30
0.0
11
0.000000
21
0.000000
31
0.0
0
LINE
8
MCD_Layer_0
10
0.007813
20
0.000000
30
0.0
11
0.000000
21
0.000000
31
0.0
0
LINE
8
MCD_Layer_0
10
0.000000
20
0.007813
30
0.0
11
0.000000
21
0.000000
31
0.0
0
LINE
8
MCD_Layer_0
10
0.007813
20
0.000000
30
0.0
11
0.000000
21
0.000000
31
0.0
0
LINE
8
MCD_Layer_0
10
0.000000
20
0.007813
30
0.0
11
0.000000
21
0.000000
31
0.0
0
LINE
8
MCD_Layer_0
10
0.007813
20
0.007813
30
0.0
11
0.000000
21
0.000000
31
0.0
0
LINE
8
MCD_Layer_0
10
0.007813
20
0.007813
30
0.0
11
0.000000
21
0.000000
31
0.0
0
LINE
8
MCD_Layer_0
10
0.007813
20
0.007813
30
0.0
11
0.000000
21
0.000000
31
0.0
0
LINE
8
MCD_Layer_0
10
0.000000
20
0.000000
30
0.0
11
0.000000
21
0.000000
31
0.0
0
LINE
8
MCD_Layer_0
10
0.000003
20
0.000143
30
0.0
11
0.000000
21
0.000000
31
0.0
0
LINE
8
MCD_Layer_0
10
0.003506
20
0.001442
30
0.0
11
0.000000
21
0.000000
31
0.0
0
LINE
8
MCD_Layer_0
10
0.000347
20
0.000018
30
0.0
11
0.000000
21
0.000000
31
0.0
0
LINE
8
MCD_Layer_2147680256
10
378.046387
20
546.800907
30
0.0
11
806.471805
21
0.000000
31
0.0
0
LINE
8
MCD_Layer_2152202240
10
806.471680
20
827.887332
30
0.0
11
0.000000
21
0.000000
31
0.0
0
LINE
8
MCD_Layer_2147680256
10
827.887207
20
652.283328
30
0.0
11
399.194887
21
0.000000
31
0.0
0
LINE
8
MCD_Layer_2147680256
10
399.194824
20
230.613801
30
0.0
11
129.225373
21
0.000000
31
0.0
0
LINE
8
MCD_Layer_2152202240
10
129.225342
20
121.671769
30
0.0
11
0.000000
21
0.000000
31
0.0
0
LINE
8
MCD_Layer_2147680256
10
121.671753
20
175.891633
30
0.0
11
378.046449
21
0.000000
31
0.0
0
LINE
8
MCD_Layer_2147680256
10
1692.676758
20
2470.516126
30
0.0
11
3376.744642
21
0.000000
31
0.0
0
LINE
8
MCD_Layer_2152202240
10
3376.744141
20
3526.684095
30
0.0
11
0.000000
21
0.000000
31
0.0
0
LINE
8
MCD_Layer_2147680256
10
3526.683594
20
2581.268080
30
0.0
11
1761.207282
21
0.000000
31
0.0
0
LINE
8
MCD_Layer_2152202240
10
1761.207031
20
1692.677009
30
0.0
11
0.000000
21
0.000000
31
0.0
0
LINE
8
MCD_Layer_2152202240
10
1624.781250
20
1591.841071
30
0.0
11
0.000000
21
0.000000
31
0.0
0
LINE
8
MCD_Layer_2147680256
10
1591.840820
20
2997.371595
30
0.0
11
4874.032252
21
0.000000
31
0.0
0
LINE
8
MCD_Layer_2152202240
10
4874.031250
20
5096.547877
30
0.0
11
0.000000
21
0.000000
31
0.0
0
LINE
8
MCD_Layer_2147680256
10
5096.546875
20
3165.322767
30
0.0
11
1624.781501
21
0.000000
31
0.0
0
LINE
8
MCD_Layer_2147680256
10
96144.375000
20
71724.953559
30
0.0
11
64003.101779
21
0.000000
31
0.0
0
LINE
8
MCD_Layer_2147680256
10
64003.093750
20
68054.828557
30
0.0
11
81407.703556
21
0.000000
31
0.0
0
LINE
8
MCD_Layer_2147680256
10
89912.187500
20
78296.578558
30
0.0
11
89919.828557
21
0.000000
31
0.0
0
LINE
8
MCD_Layer_2152202240
10
89919.812500
20
79881.828557
30
0.0
11
0.000000
21
0.000000
31
0.0
0
LINE
8
MCD_Layer_2152202240
10
64149.750000
20
83858.578557
30
0.0
11
0.000000
21
0.000000
31
0.0
0
LINE
8
MCD_Layer_2152202240
10
72380.062500
20
56424.351779
30
0.0
11
0.000000
21
0.000000
31
0.0
0
LINE
8
MCD_Layer_2147680256
10
87793.875000
20
60991.508027
30
0.0
11
45301.789277
21
0.000000
31
0.0
0
LINE
8
MCD_Layer_2147680256
10
41008.718750
20
17838.504015
30
0.0
11
11511.509820
21
0.000000
31
0.0
0
LINE
8
MCD_Layer_2147680256
10
73168.250000
20
51547.195520
30
0.0
11
44973.320519
21
0.000000
31
0.0
0
LINE
8
MCD_Layer_2147680256
10
44973.312500
20
31389.457134
30
0.0
11
24640.175884
21
0.000000
31
0.0
0
LINE
8
MCD_Layer_2152202240
10
24640.171875
20
24466.207133
30
0.0
11
0.000000
21
0.000000
31
0.0
0
LINE
8
MCD_Layer_2147680256
10
24466.203125
20
32491.269634
30
0.0
11
41341.351768
21
0.000000
31
0.0
0
LINE
8
MCD_Layer_2147680256
10
41341.343750
20
52416.258018
30
0.0
11
70685.578538
21
0.000000
31
0.0
0
LINE
8
MCD_Layer_2152202240
10
70685.562500
20
73168.266039
30
0.0
11
0.000000
21
0.000000
31
0.0
0
LINE
8
MCD_Layer_2147680256
10
-378.042480
20
-546.797000
30
0.0
11
-806.467899
21
0.000000
31
0.0
0
LINE
8
MCD_Layer_2152202240
10
-806.467773
20
-827.883426
30
0.0
11
0.000000
21
0.000000
31
0.0
0
LINE
8
MCD_Layer_2147680256
10
-827.883301
20
-652.279422
30
0.0
11
-399.190981
21
0.000000
31
0.0
0
LINE
8
MCD_Layer_2147680256
10
-399.190918
20
-230.611848
30
0.0
11
-129.223420
21
0.000000
31
0.0
0
LINE
8
MCD_Layer_2152202240
10
-129.223389
20
-121.670792
30
0.0
11
0.000000
21
0.000000
31
0.0
0
LINE
8
MCD_Layer_2147680256
10
-121.670776
20
-175.889680
30
0.0
11
-378.042543
21
0.000000
31
0.0
0
LINE
8
MCD_Layer_2147680256
10
-1692.668945
20
-2470.500501
30
0.0
11
-3376.729017
21
0.000000
31
0.0
0
LINE
8
MCD_Layer_2152202240
10
-3376.728516
20
-3526.668470
30
0.0
11
0.000000
21
0.000000
31
0.0
0
LINE
8
MCD_Layer_2147680256
10
-3526.667969
20
-2581.252455
30
0.0
11
-1761.199469
21
0.000000
31
0.0
0
LINE
8
MCD_Layer_2152202240
10
-1761.199219
20
-1692.669196
30
0.0
11
0.000000
21
0.000000
31
0.0
0
LINE
8
MCD_Layer_2152202240
10
-1624.773438
20
-1591.833258
30
0.0
11
0.000000
21
0.000000
31
0.0
0
LINE
8
MCD_Layer_2147680256
10
-1591.833008
20
-2997.355970
30
0.0
11
-4874.001002
21
0.000000
31
0.0
0
LINE
8
MCD_Layer_2152202240
10
-4874.000000
20
-5096.516627
30
0.0
11
0.000000
21
0.000000
31
0.0
0
LINE
8
MCD_Layer_2147680256
10
-5096.515625
20
-3165.307142
30
0.0
11
-1624.773688
21
0.000000
31
0.0
0
LINE
8
MCD_Layer_2147680256
10
-96143.875000
20
-71724.453559
30
0.0
11
-64002.851779
21
0.000000
31
0.0
0
LINE
8
MCD_Layer_2147680256
10
-64002.843750
20
-68054.328557
30
0.0
11
-81407.203556
21
0.000000
31
0.0
0
LINE
8
MCD_Layer_2147680256
10
-89911.687500
20
-78296.078558
30
0.0
11
-89919.328557
21
0.000000
31
0.0
0
LINE
8
MCD_Layer_2152202240
10
-89919.312500
20
-79881.328557
30
0.0
11
0.000000
21
0.000000
31
0.0
0
LINE
8
MCD_Layer_2152202240
10
-64149.500000
20
-83858.078557
30
0.0
11
0.000000
21
0.000000
31
0.0
0
LINE
8
MCD_Layer_2152202240
10
-72379.562500
20
-56424.101779
30
0.0
11
0.000000
21
0.000000
31
0.0
0
LINE
8
MCD_Layer_2147680256
10
-87793.375000
20
-60991.258027
30
0.0
11
-45301.539277
21
0.000000
31
0.0
0
LINE
8
MCD_Layer_2147680256
10
-41008.468750
20
-17838.379015
30
0.0
11
-11511.447320
21
0.000000
31
0.0
0
LINE
8
MCD_Layer_2147680256
10
-73167.750000
20
-51546.945520
30
0.0
11
-44973.070519
21
0.000000
31
0.0
0
LINE
8
MCD_Layer_2147680256
10
-44973.062500
20
-31389.332134
30
0.0
11
-24640.050884
21
0.000000
31
0.0
0
LINE
8
MCD_Layer_2152202240
10
-24640.046875
20
-24466.082133
30
0.0
11
0.000000
21
0.000000
31
0.0
0
LINE
8
MCD_Layer_2147680256
10
-24466.078125
20
-32491.144634
30
0.0
11
-41341.101768
21
0.000000
31
0.0
0
LINE
8
MCD_Layer_2147680256
10
-41341.093750
20
-52416.008018
30
0.0
11
-70685.078538
21
0.000000
31
0.0
0
LINE
8
MCD_Layer_2152202240
10
-70685.062500
20
-73167.766039
30
0.0
11
0.000000
21
0.000000
31
0.0
0
LINE
8
MCD_Layer_0
10
60.006401
20
60.006386
30
0.0
11
0.000000
21
0.000000
31
0.0
0
LINE
8
MCD_Layer_0
10
60.006386
20
0.156200
30
0.0
11
0.000000
21
0.000000
31
0.0
0
LINE
8
MCD_Layer_0
10
0.156200
20
0.156200
30
0.0
11
0.000000
21
0.000000
31
0.0
0
LINE
8
MCD_Layer_0
10
0.156200
20
60.006401
30
0.0
11
0.000000
21
0.000000
31
0.0
0
LINE
8
MCD_Layer_0
10
48.000023
20
48.000008
30
0.0
11
0.000000
21
0.000000
31
0.0
0
LINE
8
MCD_Layer_0
10
48.000008
20
0.250000
30
0.0
11
0.000000
21
0.000000
31
0.0
0
LINE
8
MCD_Layer_0
10
0.250000
20
0.250000
30
0.0
11
0.000000
21
0.000000
31
0.0
0
ARC
8
MCD_Layer_0
10
0.000052
20
0.000000
40
0.000052
50
180.000000
51
175.188091
0
ARC
8
MCD_Layer_0
10
0.000648
20
-0.000033
40
0.000649
50
177.044969
51
156.760147
0
ARC
8
MCD_Layer_0
10
0.003675
20
0.000242
40
0.003683
50
183.770424
51
130.250609
0
ARC
8
MCD_Layer_0
10
0.003675
20
0.008952
40
0.009677
50
247.681695
51
12.783673
0
ARC
8
MCD_Layer_0
10
0.000648
20
0.008814
40
0.008838
50
265.797667
51
319.317479
0
ARC
8
MCD_Layer_0
10
0.000026
20
0.003732
40
0.003732
50
269.602659
51
289.887484
0
ARC
8
MCD_Layer_0
10
0.000000
20
0.000000
40
0.000000
50
180.000000
51
4.811908
0
ARC
8
MCD_Layer_0
10
0.000000
20
0.000000
40
0.000000
50
180.000000
51
177.918696
0
ARC
8
MCD_Layer_0
10
0.000052
20
0.000000
40
0.000052
50
180.000000
51
167.490664
0
ARC
8
MCD_Layer_0
10
0.000367
20
-0.000056
40
0.000371
50
171.280458
51
148.099339
0
ARC
8
MCD_Layer_0
10
0.003300
20
0.000333
40
0.003317
50
185.766830
51
140.693019
0
ARC
8
MCD_Layer_0
10
0.005378
20
0.003001
40
0.006159
50
209.162496
51
78.556885
0
ARC
8
MCD_Layer_0
10
0.005378
20
0.006917
40
0.008762
50
232.135702
51
37.077257
0
ARC
8
MCD_Layer_0
10
0.003300
20
0.006992
40
0.007732
50
244.734472
51
15.340085
0
ARC
8
MCD_Layer_0
10
0.000367
20
0.009170
40
0.009177
50
267.709310
51
312.783117
0
ARC
8
MCD_Layer_0
10
0.000026
20
0.001858
40
0.001858
50
269.202149
51
292.383266
0
ARC
8
MCD_Layer_0
10
0.000000
20
0.000000
40
0.000000
50
180.000000
51
12.509335
0
ARC
8
MCD_Layer_0
10
0.000000
20
0.000000
40
0.000000
50
180.000000
51
178.407615
0
ARC
8
MCD_Layer_0
10
0.000052
20
0.000000
40
0.000052
50
180.000000
51
173.001118
0
ARC
8
MCD_Layer_0
10
0.001509
20
0.000000
40
0.001509
50
180.018116
51
135.946072
0
ARC
8
MCD_Layer_0
10
0.003441
20
0.002956
40
0.004536
50
220.667729
51
58.381015
0
ARC
8
MCD_Layer_0
10
0.001509
20
0.004067
40
0.004338
50
249.640595
51
6.635806
0
ARC
8
MCD_Layer_0
10
0.000026
20
0.000507
40
0.000508
50
267.078056
51
321.758270
0
ARC
8
MCD_Layer_0
10
0.000001
20
0.000000
40
0.000001
50
180.000000
51
6.998882
0
ARC
8
MCD_Layer_0
10
0.000000
20
0.000000
40
0.000000
50
180.000000
51
8.925468
0
ARC
8
MCD_Layer_0
10
0.000000
20
0.000000
40
0.000000
50
180.000000
51
169.725349
0
ARC
8
MCD_Layer_0
10
0.000001
20
0.000000
40
0.000001
50
180.000000
51
171.074533
0
ARC
8
MCD_Layer_0
10
0.000052
20
0.000000
40
0.000052
50
180.000000
51
171.665083
0
ARC
8
MCD_Layer_0
10
0.000309
20
0.000001
40
0.000309
50
180.148894
51
146.333229
0
ARC
8
MCD_Layer_0
10
0.000309
20
0.003553
40
0.003566
50
265.035388
51
323.245918
0
ARC
8
MCD_Layer_0
10
0.000026
20
0.001101
40
0.001101
50
268.653688
51
302.469354
0
ARC
8
MCD_Layer_0
10
0.000001
20
0.000000
40
0.000001
50
180.000000
51
8.334917
0
ARC
8
MCD_Layer_0
10
0.000000
20
0.000000
40
0.000000
50
180.000000
51
9.983422
0
ARC
8
MCD_Layer_0
10
0.000000
20
0.000000
40
0.000000
50
180.000000
51
160.100211
0
ARC
8
MCD_Layer_0
10
0.000001
20
0.000000
40
0.000001
50
180.000000
51
170.016579
0
ARC
8
MCD_Layer_0
10
0.006599
20
0.001839
40
0.006850
50
195.570829
51
122.650973
0
ARC
8
MCD_Layer_0
10
0.003758
20
0.000304
40
0.003770
50
184.623835
51
103.103729
0
ARC
8
MCD_Layer_0
10
0.003018
20
0.000487
40
0.003057
50
189.160760
51
100.352712
0
ARC
8
MCD_Layer_0
10
0.008303
20
-0.006199
40
0.010362
50
143.258664
51
124.269585
0
ARC
8
MCD_Layer_0
10
0.000157
20
0.000000
40
0.000157
50
180.000000
51
179.934316
0
ARC
8
MCD_Layer_0
10
-81.594481
20
-307.748989
40
318.385351
50
284.849199
51
75.150771
0
ARC
8
MCD_Layer_0
10
0.000138
20
0.000000
40
0.000138
50
180.000000
51
179.785713
0
ARC
8
MCD_Layer_0
10
0.003751
20
0.004553
40
0.004774
50
141.790054
51
31.713251
0
ARC
8
MCD_Layer_0
10
0.000000
20
0.000000
40
0.000000
50
180.000000
51
166.616731
0
ARC
8
MCD_Layer_0
10
0.000082
20
0.000000
40
0.000082
50
180.000000
51
178.987593
0
ARC
8
MCD_Layer_0
10
0.000000
20
0.000000
40
0.000000
50
180.000000
51
142.049160
0
ARC
8
MCD_Layer_0
10
0.000053
20
0.000000
40
0.000053
50
180.000000
51
179.022997
0
ARC
8
MCD_Layer_0
10
0.002750
20
-0.000042
40
0.002750
50
179.122692
51
157.028891
0
ARC
8
MCD_Layer_0
10
0.000004
20
0.000000
40
0.000004
50
180.000000
51
84.636912
0
ARC
8
MCD_Layer_0
10
0.000000
20
0.000000
40
0.000000
50
180.000000
51
165.708475
0
ARC
8
MCD_Layer_0
10
0.000000
20
0.000000
40
0.000000
50
180.000000
51
168.178759
0
ARC
8
MCD_Layer_0
10
0.000030
20
0.000006
40
0.000031
50
191.483877
51
130.443024
0
ARC
8
MCD_Layer_0
10
0.000570
20
-0.000021
40
0.000571
50
177.918654
51
153.338573
0
ARC
8
MCD_Layer_0
10
0.000007
20
0.000000
40
0.000007
50
180.000000
51
69.241646
0
ARC
8
MCD_Layer_0
10
0.000000
20
0.000000
40
0.000000
50
180.000000
51
178.119942
0
ARC
8
MCD_Layer_0
10
0.000077
20
-0.000003
40
0.000077
50
177.687928
51
121.244140
0
ARC
8
MCD_Layer_0
10
0.000523
20
-0.000040
40
0.000525
50
175.598474
51
134.829877
0
ARC
8
MCD_Layer_0
10
0.002938
20
0.000789
40
0.003042
50
195.037774
51
128.431359
0
ARC
8
MCD_Layer_0
10
0.005156
20
0.003134
40
0.006034
50
211.291370
51
83.158822
0
ARC
8
MCD_Layer_0
10
0.003839
20
0.004520
40
0.004717
50
144.466974
51
32.608813
0
ARC
8
MCD_Layer_0
10
0.000570
20
0.004723
40
0.004757
50
263.114184
51
346.078441
0
ARC
8
MCD_Layer_0
10
0.000079
20
0.001820
40
0.001822
50
267.526997
51
305.655351
0
ARC
8
MCD_Layer_0
10
261.364828
20
-315.815771
40
409.940420
50
129.610669
51
230.389302
0
ARC
8
MCD_Layer_0
10
0.000039
20
0.000022
40
0.000044
50
209.351173
51
64.162792
0
ARC
8
MCD_Layer_0
10
0.003906
20
0.002567
40
0.004674
50
213.313075
51
74.091345
0
ARC
8
MCD_Layer_0
10
0.003752
20
0.004553
40
0.004774
50
141.800804
51
31.716946
0
ARC
8
MCD_Layer_0
10
0.000000
20
0.000000
40
0.000000
50
180.000000
51
42.360214
0
ARC
8
MCD_Layer_0
10
698.160272
20
-307.869308
40
763.027657
50
156.203844
51
203.796140
0
ARC
8
MCD_Layer_0
10
0.000098
20
0.000193
40
0.000216
50
242.985852
51
7.238184
0
ARC
8
MCD_Layer_0
10
0.003751
20
0.004553
40
0.004774
50
141.791071
51
31.713601
0
ARC
8
MCD_Layer_0
10
0.003906
20
0.002567
40
0.004674
50
213.313075
51
74.091345
0
ARC
8
MCD_Layer_0
10
0.003796
20
0.004536
40
0.004745
50
143.123578
51
32.165609
0
ARC
8
MCD_Layer_0
10
0.003751
20
0.004553
40
0.004774
50
141.788093
51
31.712577
0
ARC
8
MCD_Layer_0
10
0.000389
20
0.007660
40
0.007670
50
267.094127
51
330.225531
0
ARC
8
MCD_Layer_0
10
0.000389
20
0.001944
40
0.001982
50
258.687067
51
354.140856
0
ARC
8
MCD_Layer_0
10
0.003008
20
0.000318
40
0.003024
50
186.041337
51
144.313570
0
ARC
8
MCD_Layer_0
10
0.003251
20
0.004209
40
0.005318
50
232.314021
51
58.689212
0
ARC
8
MCD_Layer_0
10
0.000276
20
0.009608
40
0.009612
50
268.357287
51
310.376901
0
ARC
8
MCD_Layer_0
10
0.000979
20
0.000241
40
0.001008
50
193.850970
51
116.980079
0
ARC
8
MCD_Layer_0
10
0.001049
20
0.001318
40
0.001684
50
231.470751
51
57.356518
0
ARC
8
MCD_Layer_0
10
0.000261
20
0.001980
40
0.001997
50
262.499178
51
336.931232
0
ARC
8
MCD_Layer_0
10
0.001202
20
0.006628
40
0.006736
50
259.718888
51
349.033094
0
ARC
8
MCD_Layer_0
10
0.000006
20
0.000000
40
0.000006
50
180.000000
51
35.225465
0
ARC
8
MCD_Layer_0
10
0.000001
20
0.000000
40
0.000001
50
180.000000
51
21.133372
0
ARC
8
MCD_Layer_0
10
0.000000
20
0.000000
40
0.000000
50
180.000000
51
9.669279
0
ARC
8
MCD_Layer_0
10
0.000096
20
0.000014
40
0.000097
50
188.439684
51
112.055629
0
ARC
8
MCD_Layer_0
10
0.000510
20
0.000041
40
0.000512
50
184.600775
51
128.414745
0
ARC
8
MCD_Layer_0
10
0.001133
20
0.000491
40
0.001235
50
203.418415
51
95.225267
0
ARC
8
MCD_Layer_0
10
0.000000
20
0.000000
40
0.000000
50
180.000000
51
22.207065
0
ARC
8
MCD_Layer_0
10
0.000000
20
0.000000
40
0.000000
50
180.000000
51
9.880088
0
ARC
8
MCD_Layer_0
10
0.000000
20
0.000000
40
0.000000
50
180.000000
51
3.524740
0
ARC
8
MCD_Layer_0
10
0.000000
20
0.000000
40
0.000000
50
180.000000
51
175.728027
0
ARC
8
MCD_Layer_0
10
0.000001
20
0.000000
40
0.000001
50
180.000000
51
166.028353
0
ARC
8
MCD_Layer_0
10
0.000033
20
0.000000
40
0.000033
50
180.000000
51
171.028801
0
ARC
8
MCD_Layer_0
10
0.000374
20
0.000070
40
0.000381
50
190.651085
51
117.096885
0
ARC
8
MCD_Layer_0
10
0.001133
20
0.000819
40
0.001398
50
215.837855
51
62.945877
0
ARC
8
MCD_Layer_0
10
0.000000
20
0.000000
40
0.000000
50
180.000000
51
170.696199
0
ARC
8
MCD_Layer_0
10
0.000000
20
0.000000
40
0.000000
50
180.000000
51
166.786928
0
ARC
8
MCD_Layer_0
10
0.000000
20
0.000000
40
0.000000
50
180.000000
51
153.067737
0
ARC
8
MCD_Layer_0
10
0.000057
20
0.000000
40
0.000057
50
180.000000
51
164.679331
0
ARC
8
MCD_Layer_0
10
0.000188
20
0.000001
40
0.000188
50
180.301294
51
134.284775
0
ARC
8
MCD_Layer_0
10
0.003907
20
0.000632
40
0.003957
50
189.183126
51
114.742483
0
ARC
8
MCD_Layer_0
10
0.001052
20
0.007527
40
0.007600
50
262.045665
51
332.833592
0
ARC
8
MCD_Layer_0
10
0.000123
20
0.003730
40
0.003732
50
268.104254
51
302.041805
0
ARC
8
MCD_Layer_0
10
0.000021
20
0.000292
40
0.000293
50
265.796427
51
320.351792
0
ARC
8
MCD_Layer_0
10
0.000001
20
0.000000
40
0.000001
50
180.000000
51
5.346218
0
ARC
8
MCD_Layer_0
10
0.000000
20
0.000000
40
0.000000
50
180.000000
51
1.659392
0
ARC
8
MCD_Layer_0
10
0.001083
20
0.007390
40
0.007469
50
261.663685
51
334.294092
0
ARC
8
MCD_Layer_0
10
0.000054
20
0.000517
40
0.000520
50
264.069712
51
324.874932
0
ARC
8
MCD_Layer_0
10
0.000002
20
0.000000
40
0.000002
50
180.000000
51
17.592978
0
ARC
8
MCD_Layer_0
10
0.000056
20
0.000000
40
0.000056
50
180.000000
51
170.743073
0
ARC
8
MCD_Layer_0
10
0.001102
20
-0.000128
40
0.001109
50
173.369993
51
134.475496
0
ARC
8
MCD_Layer_0
10
0.003907
20
0.000592
40
0.003951
50
188.612552
51
115.534753
0
ARC
8
MCD_Layer_0
10
0.000000
20
0.000000
40
0.000000
50
180.000000
51
174.011899
0
ARC
8
MCD_Layer_0
10
0.000008
20
0.000000
40
0.000008
50
180.000000
51
163.928319
0
ARC
8
MCD_Layer_0
10
0.000846
20
0.000329
40
0.000908
50
201.224014
51
88.619129
0
ARC
8
MCD_Layer_0
10
0.001133
20
0.000695
40
0.001329
50
211.513697
51
65.107652
0
ARC
8
MCD_Layer_0
10
0.000720
20
0.002688
40
0.002782
50
255.011216
51
351.606555
0
ARC
8
MCD_Layer_0
10
0.000000
20
0.000000
40
0.000000
50
180.000000
51
19.857678
0
ARC
8
MCD_Layer_0
10
0.000000
20
0.000000
40
0.000000
50
180.000000
51
161.861032
0
ARC
8
MCD_Layer_0
10
0.000000
20
0.000000
40
0.000000
50
180.000000
51
171.709253
0
ARC
8
MCD_Layer_0
10
0.000004
20
0.000000
40
0.000004
50
180.000000
51
172.596202
0
ARC
8
MCD_Layer_0
10
0.000061
20
0.000014
40
0.000062
50
192.590771
51
155.300592
0
ARC
8
MCD_Layer_0
10
0.000359
20
0.000073
40
0.000366
50
191.564587
51
110.953619
0
ARC
8
MCD_Layer_0
10
0.000831
20
0.000231
40
0.000862
50
195.503857
51
97.548214
0
ARC
8
MCD_Layer_0
10
0.001140
20
0.001561
40
0.001933
50
233.852103
51
34.153675
0
ARC
8
MCD_Layer_0
10
0.000568
20
0.000754
40
0.000944
50
233.025819
51
31.992760
0
ARC
8
MCD_Layer_0
10
0.000222
20
0.000893
40
0.000921
50
256.020107
51
352.648410
0
ARC
8
MCD_Layer_0
10
0.000020
20
0.000060
40
0.000063
50
251.765611
51
351.296182
0
ARC
8
MCD_Layer_0
10
0.000017
20
0.000000
40
0.000017
50
180.000000
51
96.583686
0
ARC
8
MCD_Layer_0
10
0.000001
20
0.000000
40
0.000001
50
180.010770
51
38.227326
0
ARC
8
MCD_Layer_0
10
0.000001
20
0.000000
40
0.000001
50
180.000000
51
98.298679
0
ARC
8
MCD_Layer_0
10
0.000003
20
0.000000
40
0.000003
50
180.000000
51
133.381340
0
ARC
8
MCD_Layer_0
10
0.000008
20
0.000000
40
0.000008
50
180.000000
51
129.092824
0
ARC
8
MCD_Layer_0
10
0.000036
20
0.000000
40
0.000036
50
180.000000
51
147.526189
0
ARC
8
MCD_Layer_0
10
0.000099
20
0.000016
40
0.000101
50
189.352116
51
117.816310
0
ARC
8
MCD_Layer_0
10
-13.823539
20
-16.744501
40
21.713749
50
309.540693
51
50.458629
0
ARC
8
MCD_Layer_0
10
0.001264
20
0.000298
40
0.001298
50
193.274249
51
117.514199
0
ARC
8
MCD_Layer_0
10
0.001649
20
0.001126
40
0.001997
50
214.330809
51
63.936508
0
ARC
8
MCD_Layer_0
10
0.003740
20
0.001612
40
0.004072
50
203.319640
51
96.212215
0
ARC
8
MCD_Layer_0
10
0.003743
20
0.004812
40
0.006096
50
232.123608
51
34.808612
0
ARC
8
MCD_Layer_0
10
0.000161
20
0.001568
40
0.001576
50
264.141409
51
327.290531
0
ARC
8
MCD_Layer_0
10
0.000068
20
0.000250
40
0.000259
50
254.897826
51
348.666639
0
ARC
8
MCD_Layer_0
10
0.000000
20
0.000000
40
0.000000
50
180.000000
51
4.549973
0
ARC
8
MCD_Layer_0
10
0.000017
20
0.000000
40
0.000017
50
180.000000
51
165.543100
0
ARC
8
MCD_Layer_0
10
0.000071
20
0.000028
40
0.000076
50
201.655638
51
90.294278
0
ARC
8
MCD_Layer_0
10
0.000211
20
0.000061
40
0.000220
50
196.040868
51
108.521334
0
ARC
8
MCD_Layer_0
10
0.000368
20
0.000135
40
0.000393
50
200.186772
51
82.164578
0
ARC
8
MCD_Layer_0
10
0.001045
20
0.000238
40
0.001072
50
192.799026
51
106.732411
0
ARC
8
MCD_Layer_0
10
0.003907
20
0.000472
40
0.003935
50
186.889890
51
117.478001
0
ARC
8
MCD_Layer_0
10
0.000055
20
0.000106
40
0.000119
50
242.659633
51
13.091723
0
ARC
8
MCD_Layer_0
10
0.000028
20
0.000076
40
0.000081
50
249.539318
51
2.193712
0
ARC
8
MCD_Layer_0
10
-0.717932
20
-0.386535
40
0.815425
50
331.695402
51
28.299836
0
ARC
8
MCD_Layer_0
10
0.000645
20
0.000069
40
0.000649
50
186.123474
51
124.162117
0
ARC
8
MCD_Layer_0
10
0.003907
20
0.000273
40
0.003916
50
184.003763
51
131.909427
0
ARC
8
MCD_Layer_0
10
0.001953
20
0.001584
40
0.002514
50
219.035899
51
58.116733
0
ARC
8
MCD_Layer_0
10
0.000000
20
0.000000
40
0.000000
50
180.000000
51
177.537676
0
ARC
8
MCD_Layer_0
10
0.000000
20
0.000000
40
0.000000
50
180.000000
51
178.838286
0
ARC
8
MCD_Layer_0
10
0.001322
20
0.000161
40
0.001332
50
186.926476
51
140.834784
0
ARC
8
MCD_Layer_0
10
0.003941
20
0.001311
40
0.004153
50
198.401275
51
108.196487
0
ARC
8
MCD_Layer_0
10
0.004534
20
0.003914
40
0.005990
50
220.798349
51
56.029749
0
ARC
8
MCD_Layer_0
10
0.003941
20
0.005047
40
0.006403
50
232.017281
51
36.785827
0
ARC
8
MCD_Layer_0
10
0.001322
20
0.006555
40
0.006687
50
258.598178
51
348.802976
0
ARC
8
MCD_Layer_0
10
0.000000
20
0.000000
40
0.000000
50
180.000000
51
5.499691
0
ARC
8
MCD_Layer_0
10
0.000000
20
0.000000
40
0.000000
50
180.000000
51
176.238703
0
ARC
8
MCD_Layer_0
10
0.000227
20
0.000009
40
0.000227
50
182.349029
51
149.578509
0
ARC
8
MCD_Layer_0
10
0.001072
20
0.000064
40
0.001074
50
183.433064
51
125.159874
0
ARC
8
MCD_Layer_0
10
0.002816
20
0.000892
40
0.002954
50
197.587480
51
103.148126
0
ARC
8
MCD_Layer_0
10
0.001072
20
0.004490
40
0.004616
50
256.572996
51
351.012379
0
ARC
8
MCD_Layer_0
10
0.000227
20
0.002394
40
0.002405
50
264.589094
51
322.862272
0
ARC
8
MCD_Layer_0
10
0.000000
20
0.000000
40
0.000000
50
180.000000
51
3.657001
0
ARC
8
MCD_Layer_0
10
0.001969
20
0.001555
40
0.002509
50
218.308728
51
58.875896
0
ARC
8
MCD_Layer_0
10
1829.429860
20
-331.919812
40
1859.293529
50
169.716358
51
190.282962
0
ARC
8
MCD_Layer_0
10
0.001969
20
0.001555
40
0.002509
50
218.308740
51
58.875886
0
ARC
8
MCD_Layer_0
10
1784.938993
20
-323.847250
40
1814.076236
50
169.716368
51
190.282935
0
ARC
8
MCD_Layer_0
10
0.001953
20
0.001584
40
0.002514
50
219.035899
51
58.116733
0
ARC
8
MCD_Layer_0
10
0.001641
20
0.002188
40
0.002734
50
233.131750
51
34.050940
0
ARC
8
MCD_Layer_0
10
0.001953
20
0.001584
40
0.002514
50
219.035899
51
58.116733
0
ARC
8
MCD_Layer_0
10
0.001969
20
0.001265
40
0.002340
50
212.720899
51
74.111874
0
ARC
8
MCD_Layer_0
10
0.012768
20
0.003714
40
0.013220
50
196.012446
51
164.984496
0
ARC
8
MCD_Layer_0
10
0.000000
20
0.000000
40
0.000000
50
180.000000
51
177.037616
0
ARC
8
MCD_Layer_0
10
0.001953
20
0.001584
40
0.002514
50
219.035899
51
58.116733
0
ARC
8
MCD_Layer_0
10
0.000813
20
0.007579
40
0.007622
50
263.880836
51
336.689070
0
ARC
8
MCD_Layer_0
10
0.000027
20
0.003495
40
0.003495
50
269.561772
51
297.210796
0
ARC
8
MCD_Layer_0
10
0.000000
20
0.000000
40
0.000000
50
180.000000
51
9.553543
0
ARC
8
MCD_Layer_0
10
0.000031
20
0.000000
40
0.000031
50
180.000000
51
152.140004
0
ARC
8
MCD_Layer_0
10
0.000339
20
0.000019
40
0.000339
50
183.279444
51
127.569720
0
ARC
8
MCD_Layer_0
10
0.001969
20
0.000531
40
0.002039
50
195.101109
51
129.294102
0
ARC
8
MCD_Layer_0
10
0.001953
20
0.001584
40
0.002514
50
219.035899
51
58.116733
0
ARC
8
MCD_Layer_0
10
0.002281
20
0.005270
40
0.005742
50
246.592550
51
15.584288
0
ARC
8
MCD_Layer_0
10
0.000203
20
0.006175
40
0.006178
50
268.115975
51
314.876560
0
ARC
8
MCD_Layer_0
10
0.000000
20
0.000000
40
0.000000
50
180.000000
51
2.442198
0
ARC
8
MCD_Layer_0
10
0.005815
20
0.003647
40
0.006846
50
212.047063
51
148.133403
0
ARC
8
MCD_Layer_0
10
0.000019
20
0.000028
40
0.000034
50
235.921766
51
21.330942
0
ARC
8
MCD_Layer_0
10
0.000428
20
0.000085
40
0.000436
50
191.297506
51
136.315464
0
ARC
8
MCD_Layer_0
10
0.001969
20
0.001596
40
0.002534
50
219.024262
51
57.560029
0
ARC
8
MCD_Layer_0
10
0.000000
20
0.000000
40
0.000000
50
180.000000
51
179.671869
0
ARC
8
MCD_Layer_0
10
0.000000
20
0.000000
40
0.000000
50
180.000000
51
164.217264
0
ARC
8
MCD_Layer_0
10
0.001634
20
0.002181
40
0.002726
50
233.158683
51
34.014777
0
ARC
8
MCD_Layer_0
10
0.001953
20
0.001584
40
0.002514
50
219.035899
51
58.116733
0
ARC
8
MCD_Layer_0
10
0.001953
20
0.001584
40
0.002514
50
219.035912
51
58.116722
0
ARC
8
MCD_Layer_0
10
0.000953
20
0.000628
40
0.001141
50
213.384370
51
75.735818
0
ARC
8
MCD_Layer_0
10
0.005875
20
0.000287
40
0.005882
50
182.793360
51
110.040070
0
ARC
8
MCD_Layer_0
10
0.000001
20
0.000000
40
0.000001
50
180.000000
51
179.810889
0
ARC
8
MCD_Layer_0
10
0.000042
20
0.000012
40
0.000044
50
195.932004
51
159.729088
0
ARC
8
MCD_Layer_0
10
0.000007
20
0.000077
40
0.000078
50
264.610707
51
9.246146
0
ARC
8
MCD_Layer_0
10
0.001259
20
0.000744
40
0.001463
50
210.581282
51
77.978170
0
ARC
8
MCD_Layer_0
10
0.000015
20
0.000124
40
0.000125
50
263.103098
51
39.679825
0
ARC
8
MCD_Layer_0
10
0.000020
20
0.000000
40
0.000020
50
180.000000
51
179.986067
0
ARC
8
MCD_Layer_0
10
0.000003
20
0.000000
40
0.000003
50
180.000000
51
17.615295
0
ARC
8
MCD_Layer_0
10
0.003948
20
0.000904
40
0.004050
50
192.891558
51
152.461683
0
ARC
8
MCD_Layer_0
10
0.003542
20
0.005436
40
0.006488
50
236.914679
51
47.846613
0
ARC
8
MCD_Layer_0
10
0.000011
20
0.000000
40
0.000011
50
180.000000
51
17.966071
0
ARC
8
MCD_Layer_0
10
0.000149
20
-0.000031
40
0.000152
50
168.268902
51
143.887534
0
ARC
8
MCD_Layer_0
10
0.002692
20
0.000351
40
0.002714
50
187.422594
51
144.658483
0
ARC
8
MCD_Layer_0
10
0.000013
20
0.000455
40
0.000456
50
268.362119
51
296.772479
0
ARC
8
MCD_Layer_0
10
0.000000
20
0.000000
40
0.000000
50
180.000000
51
179.709161
0
ARC
8
MCD_Layer_0
10
0.000048
20
0.000000
40
0.000048
50
180.000000
51
175.721119
0
ARC
8
MCD_Layer_0
10
0.000135
20
-0.000011
40
0.000135
50
175.139173
51
129.997917
0
ARC
8
MCD_Layer_0
10
0.000192
20
0.003808
40
0.003813
50
267.119417
51
318.212447
0
ARC
8
MCD_Layer_0
10
0.004209
20
0.005534
40
0.006953
50
232.742152
51
26.279657
0
ARC
8
MCD_Layer_0
10
0.000046
20
0.025369
40
0.025369
50
269.895786
51
282.848516
0
ARC
8
MCD_Layer_0
10
0.000002
20
0.000000
40
0.000002
50
180.000000
51
9.980354
0
ARC
8
MCD_Layer_0
10
0.000000
20
0.000000
40
0.000000
50
180.000000
51
176.486351
0
ARC
8
MCD_Layer_0
10
0.001709
20
0.000160
40
0.001717
50
185.345290
51
167.081894
0
ARC
8
MCD_Layer_0
10
0.005272
20
0.002729
40
0.005936
50
207.368875
51
108.189772
0
ARC
8
MCD_Layer_0
10
0.001709
20
0.008673
40
0.008840
50
258.850086
51
358.029157
0
ARC
8
MCD_Layer_0
10
0.000018
20
0.010906
40
0.010906
50
269.905473
51
288.168866
0
ARC
8
MCD_Layer_0
10
0.000000
20
0.000000
40
0.000000
50
180.000000
51
179.864385
0
ARC
8
MCD_Layer_0
10
0.000877
20
0.000176
40
0.000894
50
191.333118
51
160.093217
0
ARC
8
MCD_Layer_0
10
0.003131
20
0.001419
40
0.003438
50
204.381952
51
113.632404
0
ARC
8
MCD_Layer_0
10
0.000877
20
0.005375
40
0.005446
50
260.737543
51
351.487121
0
ARC
8
MCD_Layer_0
10
0.000018
20
0.003375
40
0.003375
50
269.694590
51
300.934490
0
ARC
8
MCD_Layer_0
10
0.000000
20
0.000000
40
0.000000
50
180.000000
51
0.338621
0
ARC
8
MCD_Layer_0
10
0.000001
20
0.000000
40
0.000001
50
180.000000
51
140.276220
0
ARC
8
MCD_Layer_0
10
0.000000
20
0.000000
40
0.000000
50
180.000000
51
149.935962
0
ARC
8
MCD_Layer_0
10
0.001953
20
0.001584
40
0.002514
50
219.035899
51
58.116733
0
ARC
8
MCD_Layer_0
10
0.001953
20
0.001584
40
0.002514
50
219.035912
51
58.116722
0
ARC
8
MCD_Layer_0
10
0.001641
20
0.002188
40
0.002734
50
233.131750
51
34.050940
0
ARC
8
MCD_Layer_0
10
0.001953
20
0.001584
40
0.002514
50
219.035899
51
58.116733
0
ARC
8
MCD_Layer_0
10
0.001383
20
0.006325
40
0.006475
50
257.668426
51
353.233331
0
ARC
8
MCD_Layer_0
10
0.000000
20
0.000000
40
0.000000
50
180.000000
51
3.863778
0
ARC
8
MCD_Layer_0
10
0.000000
20
0.000000
40
0.000000
50
180.000000
51
178.860674
0
ARC
8
MCD_Layer_0
10
0.000000
20
0.000000
40
0.000000
50
180.000000
51
156.486755
0
ARC
8
MCD_Layer_0
10
0.000039
20
0.000000
40
0.000039
50
180.000000
51
174.918217
0
ARC
8
MCD_Layer_0
10
0.000117
20
0.000025
40
0.000119
50
191.930434
51
130.516976
0
ARC
8
MCD_Layer_0
10
0.000938
20
0.000033
40
0.000938
50
181.985578
51
138.641579
0
ARC
8
MCD_Layer_0
10
0.001969
20
0.001146
40
0.002278
50
210.200584
51
92.358757
0
ARC
8
MCD_Layer_0
10
0.001953
20
0.001481
40
0.002451
50
217.165665
51
62.264915
0
ARC
8
MCD_Layer_0
10
0.001719
20
0.002133
40
0.002739
50
231.135207
51
37.001643
0
ARC
8
MCD_Layer_0
10
0.001947
20
0.001684
40
0.002574
50
220.855035
51
54.098251
0
ARC
8
MCD_Layer_0
10
0.000003
20
0.000000
40
0.000003
50
180.000000
51
177.272576
0
ARC
8
MCD_Layer_0
10
0.001805
20
0.000111
40
0.001808
50
183.527798
51
153.225390
0
ARC
8
MCD_Layer_0
10
0.003875
20
0.001153
40
0.004043
50
196.574998
51
93.766862
0
ARC
8
MCD_Layer_0
10
0.005281
20
0.003373
40
0.006267
50
212.567026
51
59.093583
0
ARC
8
MCD_Layer_0
10
0.002531
20
0.003068
40
0.003978
50
230.480247
51
51.637717
0
ARC
8
MCD_Layer_0
10
0.000307
20
0.008329
40
0.008335
50
267.891622
51
304.791690
0
ARC
8
MCD_Layer_0
10
0.000001
20
0.000000
40
0.000001
50
180.000000
51
7.194896
0
ARC
8
MCD_Layer_0
10
0.001953
20
0.001584
40
0.002514
50
219.035899
51
58.116733
0
ARC
8
MCD_Layer_0
10
0.001641
20
0.002188
40
0.002734
50
233.131750
51
34.050940
0
ARC
8
MCD_Layer_0
10
0.000000
20
0.000000
40
0.000000
50
180.000000
51
178.209823
0
ARC
8
MCD_Layer_0
10
0.001354
20
0.000155
40
0.001363
50
186.531935
51
130.086012
0
ARC
8
MCD_Layer_0
10
0.003620
20
0.001133
40
0.003793
50
197.381964
51
103.919101
0
ARC
8
MCD_Layer_0
10
0.003620
20
0.004976
40
0.006154
50
233.966410
51
33.482818
0
ARC
8
MCD_Layer_0
10
0.001354
20
0.005815
40
0.005971
50
256.894807
51
350.357660
0
ARC
8
MCD_Layer_0
10
0.000238
20
0.003121
40
0.003130
50
265.636312
51
322.082234
0
ARC
8
MCD_Layer_0
10
0.000000
20
0.000000
40
0.000000
50
180.000000
51
164.466158
0
ARC
8
MCD_Layer_0
10
0.000000
20
0.000000
40
0.000000
50
180.000000
51
171.476635
0
ARC
8
MCD_Layer_0
10
0.000000
20
0.000000
40
0.000000
50
180.000000
51
8.567344
0
ARC
8
MCD_Layer_0
10
0.000000
20
0.000000
40
0.000000
50
180.000000
51
178.294282
0
ARC
8
MCD_Layer_0
10
0.000000
20
0.000000
40
0.000000
50
180.000000
51
166.617280
0
ARC
8
MCD_Layer_0
10
0.000000
20
0.000000
40
0.000000
50
180.000000
51
171.330212
0
ARC
8
MCD_Layer_0
10
0.000000
20
0.000000
40
0.000000
50
180.000000
51
175.523916
0
ARC
8
MCD_Layer_0
10
83.982640
20
535.795779
40
542.337480
50
261.091727
51
98.908277
0
ARC
8
MCD_Layer_0
10
0.003926
20
0.002587
40
0.004702
50
213.385362
51
67.969723
0
ARC
8
MCD_Layer_0
10
0.004067
20
0.004314
40
0.005929
50
226.691458
51
50.320110
0
ARC
8
MCD_Layer_0
10
0.001618
20
0.006318
40
0.006522
50
255.636413
51
357.614783
0
ARC
8
MCD_Layer_0
10
0.001226
20
0.001443
40
0.001893
50
229.661498
51
45.959607
0
ARC
8
MCD_Layer_0
10
0.000952
20
0.001407
40
0.001698
50
235.913521
51
28.015732
0
ARC
8
MCD_Layer_0
10
0.000000
20
0.000000
40
0.000000
50
180.000000
51
2.062663
0
ARC
8
MCD_Layer_0
10
0.000000
20
0.000000
40
0.000000
50
180.000000
51
168.509765
0
ARC
8
MCD_Layer_0
10
0.003907
20
0.002098
40
0.004435
50
208.232617
51
80.903761
0
ARC
8
MCD_Layer_0
10
0.003907
20
0.004376
40
0.005867
50
228.238632
51
48.238584
0
ARC
8
MCD_Layer_0
10
0.000253
20
0.003237
40
0.003247
50
265.525730
51
322.874136
0
ARC
8
MCD_Layer_0
10
0.001221
20
0.000267
40
0.001250
50
192.347067
51
124.859898
0
ARC
8
MCD_Layer_0
10
0.001221
20
0.001368
40
0.001833
50
228.247747
51
48.247708
0
ARC
8
MCD_Layer_0
10
0.000673
20
0.001650
40
0.001782
50
247.812271
51
6.968064
0
ARC
8
MCD_Layer_0
10
0.000253
20
0.001092
40
0.001121
50
256.938753
51
347.150436
0
ARC
8
MCD_Layer_0
10
0.000000
20
0.000000
40
0.000000
50
180.000000
51
175.523564
0
ARC
8
MCD_Layer_0
10
0.000013
20
0.000749
40
0.000749
50
269.015549
51
301.850335
0
ARC
8
MCD_Layer_0
10
0.000000
20
0.000000
40
0.000000
50
180.000000
51
2.442063
0
ARC
8
MCD_Layer_0
10
0.000000
20
0.000000
40
0.000000
50
180.000000
51
173.775269
0
ARC
8
MCD_Layer_0
10
0.000000
20
0.000000
40
0.000000
50
180.000000
51
179.994779
0
ARC
8
MCD_Layer_0
10
0.000000
20
0.000000
40
0.000000
50
180.000000
51
177.942718
0
ARC
8
MCD_Layer_0
10
0.000000
20
0.000000
40
0.000000
50
180.000000
51
177.942718
0
ARC
8
MCD_Layer_0
10
0.000000
20
0.000000
40
0.000000
50
180.000000
51
177.113997
0
ARC
8
MCD_Layer_0
10
0.000003
20
0.000000
40
0.000003
50
180.000000
51
162.976425
0
ARC
8
MCD_Layer_0
10
0.001753
20
0.008309
40
0.008492
50
258.085367
51
359.140112
0
ARC
8
MCD_Layer_0
10
0.001741
20
0.000972
40
0.001994
50
209.189956
51
98.608035
0
ARC
8
MCD_Layer_0
10
0.000481
20
0.002977
40
0.003016
50
260.825546
51
354.187441
0
ARC
8
MCD_Layer_0
10
0.000000
20
0.000000
40
0.000000
50
180.000000
51
6.999451
0
ARC
8
MCD_Layer_0
10
0.000000
20
0.000000
40
0.000000
50
180.000000
51
179.820576
0
ENDSEC
0
EOF
