0
SECTION
2
ENTITIES
0
LINE
8
MCD_Layer_0
10
5.855999
20
0.500000
30
0.0
11
5.855999
21
4.039997
31
0.0
0
LINE
8
MCD_Layer_0
10
5.855999
20
4.039997
30
0.0
11
5.000000
21
4.039997
31
0.0
0
LINE
8
MCD_Layer_0
10
5.000000
20
4.039997
30
0.0
11
5.000000
21
4.500000
31
0.0
0
LINE
8
MCD_Layer_0
10
5.000000
20
4.500000
30
0.0
11
7.167995
21
4.500000
31
0.0
0
LINE
8
MCD_Layer_0
10
7.167995
20
4.500000
30
0.0
11
7.167995
21
4.039997
31
0.0
0
LINE
8
MCD_Layer_0
10
7.167995
20
4.039997
30
0.0
11
6.315998
21
4.039997
31
0.0
0
LINE
8
MCD_Layer_0
10
6.315998
20
4.039997
30
0.0
11
6.315998
21
0.500000
31
0.0
0
LINE
8
MCD_Layer_0
10
6.315998
20
0.500000
30
0.0
11
5.855999
21
0.500000
31
0.0
0
LINE
8
MCD_Layer_0
10
7.667995
20
0.500000
30
0.0
11
7.667995
21
4.500000
31
0.0
0
LINE
8
MCD_Layer_0
10
7.667995
20
4.500000
30
0.0
11
9.459995
21
4.500000
31
0.0
0
LINE
8
MCD_Layer_0
10
9.459995
20
4.500000
30
0.0
11
9.459995
21
4.040005
31
0.0
0
LINE
8
MCD_Layer_0
10
9.459995
20
4.040005
30
0.0
11
8.127995
21
4.040005
31
0.0
0
LINE
8
MCD_Layer_0
10
8.127995
20
4.040005
30
0.0
11
8.127995
21
2.968002
31
0.0
0
LINE
8
MCD_Layer_0
10
8.127995
20
2.968002
30
0.0
11
9.127995
21
2.968002
31
0.0
0
LINE
8
MCD_Layer_0
10
9.127995
20
2.968002
30
0.0
11
9.127995
21
2.507999
31
0.0
0
LINE
8
MCD_Layer_0
10
9.127995
20
2.507999
30
0.0
11
8.127995
21
2.507999
31
0.0
0
LINE
8
MCD_Layer_0
10
8.127995
20
2.507999
30
0.0
11
8.127995
21
0.960003
31
0.0
0
LINE
8
MCD_Layer_0
10
8.127995
20
0.960003
30
0.0
11
9.667995
21
0.960003
31
0.0
0
LINE
8
MCD_Layer_0
10
9.667995
20
0.960003
30
0.0
11
9.667995
21
0.500000
31
0.0
0
LINE
8
MCD_Layer_0
10
9.667995
20
0.500000
30
0.0
11
7.667995
21
0.500000
31
0.0
0
LINE
8
MCD_Layer_0
10
10.167995
20
1.165186
30
0.0
11
10.579017
21
1.330444
31
0.0
0
LINE
8
MCD_Layer_0
10
10.579017
20
1.330444
30
0.0
11
10.613886
21
1.258113
31
0.0
0
LINE
8
MCD_Layer_0
10
10.613886
20
1.258113
30
0.0
11
10.657765
21
1.190864
31
0.0
0
LINE
8
MCD_Layer_0
10
10.657765
20
1.190864
30
0.0
11
10.709924
21
1.129815
31
0.0
0
LINE
8
MCD_Layer_0
10
10.709924
20
1.129815
30
0.0
11
10.769500
21
1.075977
31
0.0
0
LINE
8
MCD_Layer_0
10
10.769500
20
1.075977
30
0.0
11
10.835502
21
1.030246
31
0.0
0
LINE
8
MCD_Layer_0
10
10.835502
20
1.030246
30
0.0
11
10.906836
21
0.993378
31
0.0
0
LINE
8
MCD_Layer_0
10
10.906836
20
0.993378
30
0.0
11
11.000081
21
0.961141
31
0.0
0
LINE
8
MCD_Layer_0
10
11.000081
20
0.961141
30
0.0
11
11.097229
21
0.943924
31
0.0
0
LINE
8
MCD_Layer_0
10
11.097229
20
0.943924
30
0.0
11
11.195874
21
0.942153
31
0.0
0
LINE
8
MCD_Layer_0
10
11.195874
20
0.942153
30
0.0
11
11.293576
21
0.955872
31
0.0
0
LINE
8
MCD_Layer_0
10
11.293576
20
0.955872
30
0.0
11
11.387919
21
0.984741
31
0.0
0
LINE
8
MCD_Layer_0
10
11.387919
20
0.984741
30
0.0
11
11.476568
21
1.028047
31
0.0
0
LINE
8
MCD_Layer_0
10
11.476568
20
1.028047
30
0.0
11
11.561424
21
1.088453
31
0.0
0
LINE
8
MCD_Layer_0
10
11.561424
20
1.088453
30
0.0
11
11.635051
21
1.162132
31
0.0
0
LINE
8
MCD_Layer_0
10
11.635051
20
1.162132
30
0.0
11
11.695395
21
1.247032
31
0.0
0
LINE
8
MCD_Layer_0
10
11.695395
20
1.247032
30
0.0
11
11.740776
21
1.340787
31
0.0
0
LINE
8
MCD_Layer_0
10
11.740776
20
1.340787
30
0.0
11
11.769930
21
1.440785
31
0.0
0
LINE
8
MCD_Layer_0
10
11.769930
20
1.440785
30
0.0
11
11.782044
21
1.544239
31
0.0
0
LINE
8
MCD_Layer_0
10
11.782044
20
1.544239
30
0.0
11
11.778757
21
1.630490
31
0.0
0
LINE
8
MCD_Layer_0
10
11.778757
20
1.630490
30
0.0
11
11.763657
21
1.715473
31
0.0
0
LINE
8
MCD_Layer_0
10
11.763657
20
1.715473
30
0.0
11
11.737029
21
1.797577
31
0.0
0
LINE
8
MCD_Layer_0
10
11.737029
20
1.797577
30
0.0
11
11.699379
21
1.875247
31
0.0
0
LINE
8
MCD_Layer_0
10
11.699379
20
1.875247
30
0.0
11
11.651420
21
1.947010
31
0.0
0
LINE
8
MCD_Layer_0
10
11.651420
20
1.947010
30
0.0
11
11.594060
21
2.011508
31
0.0
0
LINE
8
MCD_Layer_0
10
11.594060
20
2.011508
30
0.0
11
10.647972
21
2.947578
31
0.0
0
LINE
8
MCD_Layer_0
10
10.407598
20
3.662543
30
0.0
11
10.404472
21
3.533230
31
0.0
0
LINE
8
MCD_Layer_0
10
10.404472
20
3.533230
30
0.0
11
10.419344
21
3.404737
31
0.0
0
LINE
8
MCD_Layer_0
10
10.419344
20
3.404737
30
0.0
11
10.451926
21
3.279557
31
0.0
0
LINE
8
MCD_Layer_0
10
10.451926
20
3.279557
30
0.0
11
10.501586
21
3.160118
31
0.0
0
LINE
8
MCD_Layer_0
10
10.501586
20
3.160118
30
0.0
11
10.567360
21
3.048738
31
0.0
0
LINE
8
MCD_Layer_0
10
10.567360
20
3.048738
30
0.0
11
10.647972
21
2.947578
31
0.0
0
LINE
8
MCD_Layer_0
10
11.328264
20
4.500000
30
0.0
11
11.158594
21
4.484267
31
0.0
0
LINE
8
MCD_Layer_0
10
11.158594
20
4.484267
30
0.0
11
10.994689
21
4.437679
31
0.0
0
LINE
8
MCD_Layer_0
10
10.994689
20
4.437679
30
0.0
11
10.842109
21
4.361817
31
0.0
0
LINE
8
MCD_Layer_0
10
10.842109
20
4.361817
30
0.0
11
10.706033
21
4.259255
31
0.0
0
LINE
8
MCD_Layer_0
10
10.706033
20
4.259255
30
0.0
11
10.591079
21
4.133474
31
0.0
0
LINE
8
MCD_Layer_0
10
10.591079
20
4.133474
30
0.0
11
10.501145
21
3.988742
31
0.0
0
LINE
8
MCD_Layer_0
10
10.501145
20
3.988742
30
0.0
11
10.439286
21
3.829969
31
0.0
0
LINE
8
MCD_Layer_0
10
10.439286
20
3.829969
30
0.0
11
10.407598
21
3.662543
31
0.0
0
LINE
8
MCD_Layer_0
10
12.116027
20
4.060082
30
0.0
11
12.022691
21
4.186190
31
0.0
0
LINE
8
MCD_Layer_0
10
12.022691
20
4.186190
30
0.0
11
11.909394
21
4.294720
31
0.0
0
LINE
8
MCD_Layer_0
10
11.909394
20
4.294720
30
0.0
11
11.779392
21
4.382551
31
0.0
0
LINE
8
MCD_Layer_0
10
11.779392
20
4.382551
30
0.0
11
11.636421
21
4.447159
31
0.0
0
LINE
8
MCD_Layer_0
10
11.636421
20
4.447159
30
0.0
11
11.484590
21
4.486688
31
0.0
0
LINE
8
MCD_Layer_0
10
11.484590
20
4.486688
30
0.0
11
11.328264
21
4.500000
31
0.0
0
LINE
8
MCD_Layer_0
10
12.116027
20
4.060082
30
0.0
11
11.780501
21
3.742666
31
0.0
0
LINE
8
MCD_Layer_0
10
11.780501
20
3.742666
30
0.0
11
11.737493
21
3.830208
31
0.0
0
LINE
8
MCD_Layer_0
10
11.737493
20
3.830208
30
0.0
11
11.677744
21
3.907299
31
0.0
0
LINE
8
MCD_Layer_0
10
11.677744
20
3.907299
30
0.0
11
11.603698
21
3.970783
31
0.0
0
LINE
8
MCD_Layer_0
10
11.603698
20
3.970783
30
0.0
11
11.518387
21
4.018062
31
0.0
0
LINE
8
MCD_Layer_0
10
11.518387
20
4.018062
30
0.0
11
11.425306
21
4.047198
31
0.0
0
LINE
8
MCD_Layer_0
10
11.425306
20
4.047198
30
0.0
11
11.328264
21
4.056999
31
0.0
0
LINE
8
MCD_Layer_0
10
11.328264
20
4.056999
30
0.0
11
11.239888
21
4.048717
31
0.0
0
LINE
8
MCD_Layer_0
10
11.239888
20
4.048717
30
0.0
11
11.154525
21
4.024383
31
0.0
0
LINE
8
MCD_Layer_0
10
11.154525
20
4.024383
30
0.0
11
11.075065
21
3.984821
31
0.0
0
LINE
8
MCD_Layer_0
10
11.075065
20
3.984821
30
0.0
11
11.004199
21
3.931371
31
0.0
0
LINE
8
MCD_Layer_0
10
11.004199
20
3.931371
30
0.0
11
10.944324
21
3.865842
31
0.0
0
LINE
8
MCD_Layer_0
10
10.944324
20
3.865842
30
0.0
11
10.897469
21
3.790453
31
0.0
0
LINE
8
MCD_Layer_0
10
10.897469
20
3.790453
30
0.0
11
10.865219
21
3.707755
31
0.0
0
LINE
8
MCD_Layer_0
10
10.865219
20
3.707755
30
0.0
11
10.848666
21
3.620549
31
0.0
0
LINE
8
MCD_Layer_0
10
10.848666
20
3.620549
30
0.0
11
10.847020
21
3.553145
31
0.0
0
LINE
8
MCD_Layer_0
10
10.847020
20
3.553145
30
0.0
11
10.854784
21
3.486170
31
0.0
0
LINE
8
MCD_Layer_0
10
10.854784
20
3.486170
30
0.0
11
10.871807
21
3.420931
31
0.0
0
LINE
8
MCD_Layer_0
10
10.871807
20
3.420931
30
0.0
11
10.897758
21
3.358701
31
0.0
0
LINE
8
MCD_Layer_0
10
10.897758
20
3.358701
30
0.0
11
10.932128
21
3.300695
31
0.0
0
LINE
8
MCD_Layer_0
10
10.932128
20
3.300695
30
0.0
11
10.974248
21
3.248047
31
0.0
0
LINE
8
MCD_Layer_0
10
10.974248
20
3.248047
30
0.0
11
11.903775
21
2.328537
31
0.0
0
LINE
8
MCD_Layer_0
10
12.224662
20
1.530371
30
0.0
11
12.219198
21
1.677712
31
0.0
0
LINE
8
MCD_Layer_0
10
12.219198
20
1.677712
30
0.0
11
12.193506
21
1.822898
31
0.0
0
LINE
8
MCD_Layer_0
10
12.193506
20
1.822898
30
0.0
11
12.148076
21
1.963167
31
0.0
0
LINE
8
MCD_Layer_0
10
12.148076
20
1.963167
30
0.0
11
12.083772
21
2.095848
31
0.0
0
LINE
8
MCD_Layer_0
10
12.083772
20
2.095848
30
0.0
11
12.001819
21
2.218416
31
0.0
0
LINE
8
MCD_Layer_0
10
12.001819
20
2.218416
30
0.0
11
11.903775
21
2.328537
31
0.0
0
LINE
8
MCD_Layer_0
10
11.702306
20
0.647073
30
0.0
11
11.847467
21
0.750451
31
0.0
0
LINE
8
MCD_Layer_0
10
11.847467
20
0.750451
30
0.0
11
11.973403
21
0.876540
31
0.0
0
LINE
8
MCD_Layer_0
10
11.973403
20
0.876540
30
0.0
11
12.076605
21
1.021825
31
0.0
0
LINE
8
MCD_Layer_0
10
12.076605
20
1.021825
30
0.0
11
12.154195
21
1.182257
31
0.0
0
LINE
8
MCD_Layer_0
10
12.154195
20
1.182257
30
0.0
11
12.204011
21
1.353362
31
0.0
0
LINE
8
MCD_Layer_0
10
12.204011
20
1.353362
30
0.0
11
12.224662
21
1.530371
31
0.0
0
LINE
8
MCD_Layer_0
10
10.729638
20
0.587364
30
0.0
11
10.888851
21
0.532317
31
0.0
0
LINE
8
MCD_Layer_0
10
10.888851
20
0.532317
30
0.0
11
11.054733
21
0.502953
31
0.0
0
LINE
8
MCD_Layer_0
10
11.054733
20
0.502953
30
0.0
11
11.223168
21
0.500000
31
0.0
0
LINE
8
MCD_Layer_0
10
11.223168
20
0.500000
30
0.0
11
11.389977
21
0.523532
31
0.0
0
LINE
8
MCD_Layer_0
10
11.389977
20
0.523532
30
0.0
11
11.551021
21
0.572965
31
0.0
0
LINE
8
MCD_Layer_0
10
11.551021
20
0.572965
30
0.0
11
11.702306
21
0.647073
31
0.0
0
LINE
8
MCD_Layer_0
10
10.167995
20
1.165186
30
0.0
11
10.227671
21
1.041176
31
0.0
0
LINE
8
MCD_Layer_0
10
10.227671
20
1.041176
30
0.0
11
10.302812
21
0.925879
31
0.0
0
LINE
8
MCD_Layer_0
10
10.302812
20
0.925879
30
0.0
11
10.392169
21
0.821214
31
0.0
0
LINE
8
MCD_Layer_0
10
10.392169
20
0.821214
30
0.0
11
10.494256
21
0.728921
31
0.0
0
LINE
8
MCD_Layer_0
10
10.494256
20
0.728921
30
0.0
11
10.607373
21
0.650536
31
0.0
0
LINE
8
MCD_Layer_0
10
10.607373
20
0.650536
30
0.0
11
10.729638
21
0.587364
31
0.0
0
LINE
8
MCD_Layer_0
10
13.580661
20
0.500000
30
0.0
11
13.580661
21
4.039997
31
0.0
0
LINE
8
MCD_Layer_0
10
13.580661
20
4.039997
30
0.0
11
12.724662
21
4.039997
31
0.0
0
LINE
8
MCD_Layer_0
10
12.724662
20
4.039997
30
0.0
11
12.724662
21
4.500000
31
0.0
0
LINE
8
MCD_Layer_0
10
12.724662
20
4.500000
30
0.0
11
14.892658
21
4.500000
31
0.0
0
LINE
8
MCD_Layer_0
10
14.892658
20
4.500000
30
0.0
11
14.892658
21
4.039997
31
0.0
0
LINE
8
MCD_Layer_0
10
14.892658
20
4.039997
30
0.0
11
14.040660
21
4.039997
31
0.0
0
LINE
8
MCD_Layer_0
10
14.040660
20
4.039997
30
0.0
11
14.040660
21
0.500000
31
0.0
0
LINE
8
MCD_Layer_0
10
14.040660
20
0.500000
30
0.0
11
13.580661
21
0.500000
31
0.0
0
ENDSEC
0
EOF
