0
SECTION
2
ENTITIES
0
LINE
8
MCD_Layer_0
10
8.647256
20
30.074806
30
0.0
11
8.684049
21
30.200590
31
0.0
0
LINE
8
MCD_Layer_0
10
8.900192
20
30.641230
30
0.0
11
8.810768
21
30.156382
31
0.0
0
LINE
8
MCD_Layer_0
10
9.034688
20
30.127222
30
0.0
11
9.123968
21
30.611351
31
0.0
0
LINE
8
MCD_Layer_0
10
9.450992
20
30.754918
30
0.0
11
9.755048
21
30.408670
31
0.0
0
LINE
8
MCD_Layer_0
10
9.654753
20
30.115918
30
0.0
11
9.893144
21
30.115918
31
0.0
0
LINE
8
MCD_Layer_0
10
9.926480
20
30.213334
30
0.0
11
9.951896
21
30.184462
31
0.0
0
LINE
8
MCD_Layer_0
10
11.910007
20
30.044998
30
0.0
11
11.952416
21
30.176686
31
0.0
0
LINE
8
MCD_Layer_0
10
12.059768
20
30.298942
30
0.0
11
12.169497
21
30.115918
31
0.0
0
LINE
8
MCD_Layer_0
10
12.432440
20
30.115918
30
0.0
11
12.416385
21
30.142630
31
0.0
0
LINE
8
MCD_Layer_0
10
12.499616
20
30.142630
30
0.0
11
12.499616
21
30.702070
31
0.0
0
LINE
8
MCD_Layer_0
10
12.764648
20
30.585718
30
0.0
11
12.853856
21
30.101518
31
0.0
0
LINE
8
MCD_Layer_0
10
13.077776
20
30.130822
30
0.0
11
13.049768
21
30.282382
31
0.0
0
LINE
8
MCD_Layer_0
10
13.091168
20
30.236590
30
0.0
11
13.144016
21
30.110950
31
0.0
0
LINE
8
MCD_Layer_0
10
13.338057
20
30.218518
30
0.0
11
12.886688
21
31.330990
31
0.0
0
LINE
8
MCD_Layer_0
10
12.661184
20
33.431951
30
0.0
11
12.546560
21
33.466006
31
0.0
0
LINE
8
MCD_Layer_0
10
12.492344
20
33.500782
30
0.0
11
12.492344
21
33.665086
31
0.0
0
LINE
8
MCD_Layer_0
10
12.474200
20
33.665086
30
0.0
11
12.474200
21
33.925582
31
0.0
0
LINE
8
MCD_Layer_0
10
12.284409
20
33.925582
30
0.0
11
12.284409
21
33.514894
31
0.0
0
LINE
8
MCD_Layer_0
10
12.158984
20
33.449375
30
0.0
11
12.158984
21
33.495958
31
0.0
0
LINE
8
MCD_Layer_0
10
12.170432
20
33.508487
30
0.0
11
12.170432
21
33.637006
31
0.0
0
LINE
8
MCD_Layer_0
10
12.164312
20
33.649534
30
0.0
11
12.164312
21
33.738166
31
0.0
0
LINE
8
MCD_Layer_0
10
9.701264
20
33.586030
30
0.0
11
9.685137
21
33.572062
31
0.0
0
LINE
8
MCD_Layer_0
10
9.685137
20
33.383134
30
0.0
11
9.715304
21
33.363406
31
0.0
0
LINE
8
MCD_Layer_0
10
9.715304
20
33.127606
30
0.0
11
9.688520
21
33.115438
31
0.0
0
LINE
8
MCD_Layer_0
10
9.001928
20
34.361182
30
0.0
11
9.001928
21
32.846807
31
0.0
0
LINE
8
MCD_Layer_0
10
8.793128
20
32.723902
30
0.0
11
8.760224
21
32.723902
31
0.0
0
LINE
8
MCD_Layer_0
10
8.760224
20
32.519782
30
0.0
11
8.791327
21
32.519782
31
0.0
0
LINE
8
MCD_Layer_0
10
8.791327
20
32.199670
30
0.0
11
8.579359
21
32.199670
31
0.0
0
LINE
8
MCD_Layer_0
10
8.579359
20
31.703662
30
0.0
11
8.639049
21
31.703662
31
0.0
0
LINE
8
MCD_Layer_0
10
8.639049
20
30.844198
30
0.0
11
8.418800
21
30.655630
31
0.0
0
LINE
8
MCD_Layer_0
10
8.461136
20
30.603719
30
0.0
11
8.461136
21
30.420550
31
0.0
0
LINE
8
MCD_Layer_0
10
8.540768
20
30.420550
30
0.0
11
8.476040
21
30.288502
31
0.0
0
LINE
8
MCD_Layer_0
10
8.458256
20
30.186478
30
0.0
11
8.517223
21
30.234718
31
0.0
0
LINE
8
MCD_Layer_0
10
8.540840
20
30.238750
30
0.0
11
8.536880
21
30.258838
31
0.0
0
LINE
8
MCD_Layer_0
10
8.782400
20
30.759238
30
0.0
11
8.623281
21
30.623086
31
0.0
0
LINE
8
MCD_Layer_0
10
8.596856
20
30.617111
30
0.0
11
8.623713
21
30.588166
31
0.0
0
LINE
8
MCD_Layer_0
10
8.623713
20
30.488302
30
0.0
11
8.528889
21
30.488302
31
0.0
0
LINE
8
MCD_Layer_0
10
8.528889
20
30.585286
30
0.0
11
8.545880
21
30.606958
31
0.0
0
LINE
8
MCD_Layer_0
10
8.513048
20
30.647206
30
0.0
11
8.706800
21
30.812950
31
0.0
0
LINE
8
MCD_Layer_0
10
8.706800
20
31.771414
30
0.0
11
8.647112
21
31.771414
31
0.0
0
LINE
8
MCD_Layer_0
10
8.647112
20
32.131918
30
0.0
11
8.796800
21
32.131918
31
0.0
0
LINE
8
MCD_Layer_0
10
8.796800
20
30.788614
30
0.0
11
9.069680
21
31.344886
31
0.0
0
LINE
8
MCD_Layer_0
10
9.069680
20
34.550542
30
0.0
11
9.124040
21
34.763303
31
0.0
0
LINE
8
MCD_Layer_0
10
9.206480
20
34.745879
30
0.0
11
9.159680
21
34.550542
31
0.0
0
LINE
8
MCD_Layer_0
10
9.159680
20
31.325878
30
0.0
11
9.865424
21
30.521998
31
0.0
0
LINE
8
MCD_Layer_0
10
10.080128
20
31.146238
30
0.0
11
10.053704
21
31.163086
31
0.0
0
LINE
8
MCD_Layer_0
10
10.022528
20
31.115062
30
0.0
11
10.000928
21
31.131838
31
0.0
0
LINE
8
MCD_Layer_0
10
10.060905
20
31.251863
30
0.0
11
10.123328
21
31.225438
31
0.0
0
LINE
8
MCD_Layer_0
10
10.138592
20
31.041838
30
0.0
11
9.933896
21
30.444022
31
0.0
0
LINE
8
MCD_Layer_0
10
10.050536
20
30.311182
30
0.0
11
10.052480
21
30.280366
31
0.0
0
LINE
8
MCD_Layer_0
10
10.074152
20
30.287782
30
0.0
11
10.178696
21
30.250918
31
0.0
0
LINE
8
MCD_Layer_0
10
10.030880
20
30.129238
30
0.0
11
10.014680
21
30.217726
31
0.0
0
LINE
8
MCD_Layer_0
10
10.021879
20
30.250918
30
0.0
11
9.988472
21
30.245446
31
0.0
0
LINE
8
MCD_Layer_0
10
9.900272
20
30.345886
30
0.0
11
9.844688
21
30.183598
31
0.0
0
LINE
8
MCD_Layer_0
10
9.749576
20
30.183598
30
0.0
11
9.831872
21
30.423862
31
0.0
0
LINE
8
MCD_Layer_0
10
9.469209
20
30.836926
30
0.0
11
9.063848
21
30.658942
31
0.0
0
LINE
8
MCD_Layer_0
10
8.969528
20
30.147238
30
0.0
11
8.951529
21
30.132622
31
0.0
0
LINE
8
MCD_Layer_0
10
8.966936
20
30.107854
30
0.0
11
8.980112
21
30.008926
31
0.0
0
LINE
8
MCD_Layer_0
10
8.837120
20
30.017926
30
0.0
11
8.870096
21
30.125854
31
0.0
0
LINE
8
MCD_Layer_0
10
8.889896
20
30.141622
30
0.0
11
8.881041
21
30.163582
31
0.0
0
LINE
8
MCD_Layer_0
10
8.974064
20
30.668014
30
0.0
11
8.880609
21
30.755062
31
0.0
0
LINE
8
MCD_Layer_0
10
8.617737
20
30.219238
30
0.0
11
8.603767
21
30.222694
31
0.0
0
LINE
8
MCD_Layer_0
10
8.615576
20
30.190510
30
0.0
11
8.591959
21
30.122182
31
0.0
0
LINE
8
MCD_Layer_0
10
8.922009
20
30.839518
30
0.0
11
8.993361
21
30.772990
31
0.0
0
LINE
8
MCD_Layer_0
10
9.056072
20
31.112758
30
0.0
11
8.922009
21
30.839518
31
0.0
0
LINE
8
MCD_Layer_0
10
9.406928
20
30.907846
30
0.0
11
9.161336
21
31.187567
31
0.0
0
LINE
8
MCD_Layer_0
10
9.173431
20
30.879334
30
0.0
11
9.202664
21
31.037807
31
0.0
0
LINE
8
MCD_Layer_0
10
9.294968
20
30.932686
30
0.0
11
9.173431
21
30.879334
31
0.0
0
LINE
8
MCD_Layer_0
10
9.001928
20
31.412422
30
0.0
11
9.001928
21
31.360582
31
0.0
0
LINE
8
MCD_Layer_0
10
8.860880
20
32.723902
30
0.0
11
8.893712
21
32.723902
31
0.0
0
LINE
8
MCD_Layer_0
10
8.893712
20
32.519782
30
0.0
11
8.859079
21
32.519782
31
0.0
0
LINE
8
MCD_Layer_0
10
8.859079
20
31.812310
30
0.0
11
8.891048
21
31.812310
31
0.0
0
LINE
8
MCD_Layer_0
10
8.891048
20
31.643614
30
0.0
11
8.859079
21
31.643614
31
0.0
0
LINE
8
MCD_Layer_0
10
9.673688
20
31.774150
30
0.0
11
9.769520
21
31.761406
31
0.0
0
LINE
8
MCD_Layer_0
10
9.868232
20
31.617982
30
0.0
11
9.868232
21
31.662910
31
0.0
0
LINE
8
MCD_Layer_0
10
9.835184
20
31.662910
30
0.0
11
9.835184
21
31.768678
31
0.0
0
LINE
8
MCD_Layer_0
10
9.806528
20
31.950262
30
0.0
11
9.835328
21
31.950262
31
0.0
0
LINE
8
MCD_Layer_0
10
9.835328
20
32.168206
30
0.0
11
9.887816
21
32.168206
31
0.0
0
LINE
8
MCD_Layer_0
10
9.887816
20
31.948534
30
0.0
11
9.901712
21
31.948534
31
0.0
0
LINE
8
MCD_Layer_0
10
9.901712
20
31.767310
30
0.0
11
9.922016
21
31.767310
31
0.0
0
LINE
8
MCD_Layer_0
10
10.147017
20
32.083606
30
0.0
11
10.147017
21
32.447639
31
0.0
0
LINE
8
MCD_Layer_0
10
10.072928
20
32.465350
30
0.0
11
10.072928
21
32.567806
31
0.0
0
LINE
8
MCD_Layer_0
10
9.769520
20
32.704174
30
0.0
11
9.769520
21
32.482703
31
0.0
0
LINE
8
MCD_Layer_0
10
9.673688
20
32.498039
30
0.0
11
9.673688
21
32.737510
31
0.0
0
LINE
8
MCD_Layer_0
10
9.708104
20
32.737510
30
0.0
11
9.708104
21
32.761486
31
0.0
0
LINE
8
MCD_Layer_0
10
9.227360
20
32.791150
30
0.0
11
9.227360
21
31.577158
31
0.0
0
LINE
8
MCD_Layer_0
10
9.227360
20
31.351366
30
0.0
11
9.838640
21
30.655055
31
0.0
0
LINE
8
MCD_Layer_0
10
9.931304
20
30.991942
30
0.0
11
9.967304
21
31.002238
31
0.0
0
LINE
8
MCD_Layer_0
10
9.972416
20
31.068334
30
0.0
11
9.915536
21
31.112542
31
0.0
0
LINE
8
MCD_Layer_0
10
10.021233
20
31.323862
30
0.0
11
10.063280
21
31.323862
31
0.0
0
LINE
8
MCD_Layer_0
10
10.118576
20
31.293118
30
0.0
11
10.328168
21
31.293118
31
0.0
0
LINE
8
MCD_Layer_0
10
10.912736
20
32.291686
30
0.0
11
10.845776
21
32.290678
31
0.0
0
LINE
8
MCD_Layer_0
10
10.818056
20
32.258278
30
0.0
11
10.671320
21
32.254246
31
0.0
0
LINE
8
MCD_Layer_0
10
10.691120
20
32.278582
30
0.0
11
10.540280
21
32.264830
31
0.0
0
LINE
8
MCD_Layer_0
10
9.971984
20
31.714607
30
0.0
11
10.137656
21
31.714607
31
0.0
0
LINE
8
MCD_Layer_0
10
10.082792
20
31.643974
30
0.0
11
9.947433
21
31.643974
31
0.0
0
LINE
8
MCD_Layer_0
10
10.264448
20
31.714607
30
0.0
11
10.425728
21
31.714607
31
0.0
0
LINE
8
MCD_Layer_0
10
10.214768
20
32.148623
30
0.0
11
10.214768
21
32.501134
31
0.0
0
LINE
8
MCD_Layer_0
10
10.140680
20
32.518846
30
0.0
11
10.140680
21
32.552182
31
0.0
0
LINE
8
MCD_Layer_0
10
10.761320
20
32.623894
30
0.0
11
10.761320
21
32.495086
31
0.0
0
LINE
8
MCD_Layer_0
10
10.783424
20
32.495086
30
0.0
11
10.783424
21
32.327614
31
0.0
0
LINE
8
MCD_Layer_0
10
10.912736
20
32.359942
30
0.0
11
10.912736
21
32.495086
31
0.0
0
LINE
8
MCD_Layer_0
10
10.946575
20
32.495086
30
0.0
11
10.946575
21
32.768039
31
0.0
0
LINE
8
MCD_Layer_0
10
10.829000
20
32.683078
30
0.0
11
10.829000
21
32.495086
31
0.0
0
LINE
8
MCD_Layer_0
10
10.851105
20
32.495086
30
0.0
11
10.851105
21
32.359006
31
0.0
0
LINE
8
MCD_Layer_0
10
11.036504
20
32.403575
30
0.0
11
11.036504
21
33.286150
31
0.0
0
LINE
8
MCD_Layer_0
10
11.036288
20
33.379390
30
0.0
11
11.016200
21
33.405814
31
0.0
0
LINE
8
MCD_Layer_0
10
11.016200
20
33.457150
30
0.0
11
10.934408
21
33.492359
31
0.0
0
LINE
8
MCD_Layer_0
10
10.934408
20
33.367582
30
0.0
11
10.795304
21
33.454702
31
0.0
0
LINE
8
MCD_Layer_0
10
10.795304
20
33.643631
30
0.0
11
10.929729
21
33.570262
31
0.0
0
LINE
8
MCD_Layer_0
10
10.970263
20
33.609646
30
0.0
11
11.159624
21
33.549527
31
0.0
0
LINE
8
MCD_Layer_0
10
11.159624
20
33.430727
30
0.0
11
11.126504
21
33.416111
31
0.0
0
LINE
8
MCD_Layer_0
10
11.126504
20
33.286150
30
0.0
11
11.126504
21
32.403575
31
0.0
0
LINE
8
MCD_Layer_0
10
11.225936
20
32.403575
30
0.0
11
11.225936
21
33.277367
31
0.0
0
LINE
8
MCD_Layer_0
10
11.251856
20
33.385798
30
0.0
11
11.276336
21
33.468454
31
0.0
0
LINE
8
MCD_Layer_0
10
11.393552
20
33.534983
30
0.0
11
11.481968
21
33.551830
31
0.0
0
LINE
8
MCD_Layer_0
10
11.481968
20
33.349151
30
0.0
11
11.315936
21
33.298030
31
0.0
0
LINE
8
MCD_Layer_0
10
10.917344
20
33.050926
30
0.0
11
10.917344
21
33.298390
31
0.0
0
LINE
8
MCD_Layer_0
10
10.727624
20
33.417263
30
0.0
11
10.727624
21
33.757678
31
0.0
0
LINE
8
MCD_Layer_0
10
10.641008
20
33.908591
30
0.0
11
10.641008
21
33.677831
31
0.0
0
LINE
8
MCD_Layer_0
10
10.551944
20
33.694102
30
0.0
11
10.551944
21
33.922630
31
0.0
0
LINE
8
MCD_Layer_0
10
10.041392
20
33.902398
30
0.0
11
10.041392
21
33.647806
31
0.0
0
LINE
8
MCD_Layer_0
10
9.948368
20
33.623326
30
0.0
11
9.948368
21
33.867263
31
0.0
0
LINE
8
MCD_Layer_0
10
9.769016
20
33.583510
30
0.0
11
9.797024
21
33.556438
31
0.0
0
LINE
8
MCD_Layer_0
10
9.797024
20
33.360310
30
0.0
11
9.783056
21
33.341230
31
0.0
0
LINE
8
MCD_Layer_0
10
9.783056
20
33.132359
30
0.0
11
9.805448
21
33.118031
31
0.0
0
LINE
8
MCD_Layer_0
10
9.948368
20
33.310198
30
0.0
11
10.041392
21
33.332663
31
0.0
0
LINE
8
MCD_Layer_0
10
10.551944
20
33.374063
30
0.0
11
10.641008
21
33.362686
31
0.0
0
LINE
8
MCD_Layer_0
10
11.383615
20
33.248062
30
0.0
11
11.549648
21
33.299182
31
0.0
0
LINE
8
MCD_Layer_0
10
11.549648
20
33.633622
30
0.0
11
11.380880
21
33.601438
31
0.0
0
LINE
8
MCD_Layer_0
10
11.242064
20
33.545999
30
0.0
11
11.242064
21
33.594382
31
0.0
0
LINE
8
MCD_Layer_0
10
11.683280
20
33.846670
30
0.0
11
11.683280
21
33.590711
31
0.0
0
LINE
8
MCD_Layer_0
10
11.772416
20
33.574439
30
0.0
11
11.772416
21
33.844943
31
0.0
0
LINE
8
MCD_Layer_0
10
12.097136
20
33.649463
30
0.0
11
12.079136
21
33.643198
31
0.0
0
LINE
8
MCD_Layer_0
10
12.079136
20
33.508919
30
0.0
11
12.091305
21
33.499558
31
0.0
0
LINE
8
MCD_Layer_0
10
12.091305
20
33.268438
30
0.0
11
12.073016
21
33.259078
31
0.0
0
LINE
8
MCD_Layer_0
10
12.073016
20
33.109102
30
0.0
11
12.104696
21
33.057550
31
0.0
0
LINE
8
MCD_Layer_0
10
11.772416
20
33.123862
30
0.0
11
11.772416
21
33.259295
31
0.0
0
LINE
8
MCD_Layer_0
10
11.683280
20
33.270670
30
0.0
11
11.683280
21
33.120623
31
0.0
0
LINE
8
MCD_Layer_0
10
11.383615
20
32.968054
30
0.0
11
11.383615
21
32.641175
31
0.0
0
LINE
8
MCD_Layer_0
10
11.497376
20
32.526478
30
0.0
11
11.472248
21
32.526478
31
0.0
0
LINE
8
MCD_Layer_0
10
11.472248
20
32.346766
30
0.0
11
11.497376
21
32.346766
31
0.0
0
LINE
8
MCD_Layer_0
10
11.541296
20
32.574934
30
0.0
11
11.541296
21
32.526478
31
0.0
0
LINE
8
MCD_Layer_0
10
11.562248
20
32.526478
30
0.0
11
11.562248
21
32.346766
31
0.0
0
LINE
8
MCD_Layer_0
10
11.541296
20
32.346766
30
0.0
11
11.541296
21
32.286214
31
0.0
0
LINE
8
MCD_Layer_0
10
11.603648
20
32.264326
30
0.0
11
11.723384
21
32.264326
31
0.0
0
LINE
8
MCD_Layer_0
10
11.723384
20
32.346766
30
0.0
11
11.698256
21
32.346766
31
0.0
0
LINE
8
MCD_Layer_0
10
11.698256
20
32.526478
30
0.0
11
11.723384
21
32.526478
31
0.0
0
LINE
8
MCD_Layer_0
10
11.888985
20
32.645278
30
0.0
11
11.888985
21
32.264326
31
0.0
0
LINE
8
MCD_Layer_0
10
11.767303
20
32.264326
30
0.0
11
11.767303
21
32.346766
31
0.0
0
LINE
8
MCD_Layer_0
10
11.788256
20
32.346766
30
0.0
11
11.788256
21
32.526478
31
0.0
0
LINE
8
MCD_Layer_0
10
11.767303
20
32.526478
30
0.0
11
11.767303
21
32.609638
31
0.0
0
LINE
8
MCD_Layer_0
10
11.956664
20
32.264326
30
0.0
11
12.129320
21
32.264326
31
0.0
0
LINE
8
MCD_Layer_0
10
12.197001
20
32.758822
30
0.0
11
12.197001
21
32.196646
31
0.0
0
LINE
8
MCD_Layer_0
10
12.274184
20
31.212478
30
0.0
11
12.274184
21
31.812814
31
0.0
0
LINE
8
MCD_Layer_0
10
12.181952
20
31.812814
30
0.0
11
12.181952
21
32.049263
31
0.0
0
LINE
8
MCD_Layer_0
10
12.227097
20
32.049263
30
0.0
11
12.227097
21
32.122847
31
0.0
0
LINE
8
MCD_Layer_0
10
12.274184
20
32.122847
30
0.0
11
12.274184
21
32.955598
31
0.0
0
LINE
8
MCD_Layer_0
10
12.159704
20
33.019390
30
0.0
11
12.139759
21
33.006574
31
0.0
0
LINE
8
MCD_Layer_0
10
12.158984
20
33.092182
30
0.0
11
12.234152
21
33.056254
31
0.0
0
LINE
8
MCD_Layer_0
10
12.513225
20
33.061727
30
0.0
11
12.659673
21
33.105214
31
0.0
0
LINE
8
MCD_Layer_0
10
12.659673
20
33.204359
30
0.0
11
12.158984
21
33.204359
31
0.0
0
LINE
8
MCD_Layer_0
10
12.158984
20
33.262607
30
0.0
11
12.158984
21
33.374783
31
0.0
0
LINE
8
MCD_Layer_0
10
12.659673
20
33.361751
30
0.0
11
12.659673
21
33.262607
31
0.0
0
LINE
8
MCD_Layer_0
10
12.424593
20
33.597334
30
0.0
11
12.406448
21
33.597334
31
0.0
0
LINE
8
MCD_Layer_0
10
12.406448
20
33.857831
30
0.0
11
12.352088
21
33.857831
31
0.0
0
LINE
8
MCD_Layer_0
10
12.352088
20
33.597334
30
0.0
11
12.334593
21
33.597334
31
0.0
0
LINE
8
MCD_Layer_0
10
12.341864
20
32.939830
30
0.0
11
12.341864
21
32.055166
31
0.0
0
LINE
8
MCD_Layer_0
10
12.300680
20
32.055166
30
0.0
11
12.300680
21
31.965023
31
0.0
0
LINE
8
MCD_Layer_0
10
12.252152
20
31.965023
30
0.0
11
12.252152
21
31.880494
31
0.0
0
LINE
8
MCD_Layer_0
10
12.341864
20
31.880494
30
0.0
11
12.341864
21
31.192822
31
0.0
0
LINE
8
MCD_Layer_0
10
12.021536
20
30.494422
30
0.0
11
11.852048
21
30.301390
31
0.0
0
LINE
8
MCD_Layer_0
10
11.860256
20
30.277702
30
0.0
11
11.831673
21
30.281878
31
0.0
0
LINE
8
MCD_Layer_0
10
11.894960
20
30.219238
30
0.0
11
11.894960
21
30.248470
31
0.0
0
LINE
8
MCD_Layer_0
10
11.920664
20
30.243214
30
0.0
11
12.070064
21
30.413422
31
0.0
0
LINE
8
MCD_Layer_0
10
12.207872
20
30.183598
30
0.0
11
12.312777
21
30.183598
31
0.0
0
LINE
8
MCD_Layer_0
10
12.132416
20
30.484414
30
0.0
11
12.341864
21
30.722950
31
0.0
0
LINE
8
MCD_Layer_0
10
12.341864
20
30.210382
30
0.0
11
12.431864
21
30.210382
31
0.0
0
LINE
8
MCD_Layer_0
10
12.431864
20
30.805822
30
0.0
11
12.824768
21
30.633310
31
0.0
0
LINE
8
MCD_Layer_0
10
12.919088
20
30.121606
30
0.0
11
12.937088
21
30.106990
31
0.0
0
LINE
8
MCD_Layer_0
10
12.921679
20
30.082222
30
0.0
11
12.908504
21
29.983294
31
0.0
0
LINE
8
MCD_Layer_0
10
13.051497
20
29.992294
30
0.0
11
13.018520
21
30.100222
31
0.0
0
LINE
8
MCD_Layer_0
10
12.998720
20
30.115990
30
0.0
11
13.007576
21
30.137950
31
0.0
0
LINE
8
MCD_Layer_0
10
12.939824
20
30.505078
30
0.0
11
13.149200
21
30.273454
31
0.0
0
LINE
8
MCD_Layer_0
10
13.201689
20
30.148678
30
0.0
11
13.219040
21
30.141550
31
0.0
0
LINE
8
MCD_Layer_0
10
13.215584
20
30.123766
30
0.0
11
13.226025
21
30.024334
31
0.0
0
LINE
8
MCD_Layer_0
10
13.343744
20
30.087694
30
0.0
11
13.291184
21
30.161278
31
0.0
0
LINE
8
MCD_Layer_0
10
13.275921
20
30.165526
30
0.0
11
13.278080
21
30.186046
31
0.0
0
LINE
8
MCD_Layer_0
10
12.818935
20
31.317814
30
0.0
11
12.818935
21
34.524911
31
0.0
0
LINE
8
MCD_Layer_0
10
12.764576
20
34.737670
30
0.0
11
12.848600
21
34.814206
31
0.0
0
LINE
8
MCD_Layer_0
10
12.509192
20
34.720607
30
0.0
11
12.682137
21
34.720247
31
0.0
0
LINE
8
MCD_Layer_0
10
12.728936
20
34.524911
30
0.0
11
12.728936
21
31.300246
31
0.0
0
LINE
8
MCD_Layer_0
10
12.538496
20
31.083310
30
0.0
11
12.431864
21
31.201318
31
0.0
0
LINE
8
MCD_Layer_0
10
12.431864
20
31.880494
30
0.0
11
12.476864
21
31.880494
31
0.0
0
LINE
8
MCD_Layer_0
10
12.476864
20
32.055166
30
0.0
11
12.431864
21
32.055166
31
0.0
0
LINE
8
MCD_Layer_0
10
12.499616
20
32.122847
30
0.0
11
12.544399
21
32.122847
31
0.0
0
LINE
8
MCD_Layer_0
10
12.544399
20
31.812814
30
0.0
11
12.499616
21
31.812814
31
0.0
0
LINE
8
MCD_Layer_0
10
12.499616
20
31.227310
30
0.0
11
12.537776
21
31.185046
31
0.0
0
LINE
8
MCD_Layer_0
10
12.661184
20
31.325662
30
0.0
11
12.661184
21
33.035014
31
0.0
0
LINE
8
MCD_Layer_0
10
9.227360
20
34.353262
30
0.0
11
9.227360
21
34.559327
31
0.0
0
LINE
8
MCD_Layer_0
10
9.276104
20
34.667039
30
0.0
11
9.398504
21
34.681439
31
0.0
0
LINE
8
MCD_Layer_0
10
8.988104
20
34.796639
30
0.0
11
9.020216
21
34.761863
31
0.0
0
LINE
8
MCD_Layer_0
10
9.002000
20
34.639894
30
0.0
11
9.002000
21
34.435126
31
0.0
0
LINE
8
MCD_Layer_0
10
10.110152
20
30.387574
30
0.0
11
10.016264
21
30.486286
31
0.0
0
LINE
8
MCD_Layer_0
10
12.341864
20
31.024774
30
0.0
11
12.067688
21
30.592414
31
0.0
0
LINE
8
MCD_Layer_0
10
12.083888
20
30.565486
30
0.0
11
12.341864
21
30.859318
31
0.0
0
LINE
8
MCD_Layer_0
10
12.431864
20
31.067110
30
0.0
11
12.478736
21
31.015270
31
0.0
0
LINE
8
MCD_Layer_0
10
12.599264
20
31.016134
30
0.0
11
12.727281
21
31.161934
31
0.0
0
LINE
8
MCD_Layer_0
10
12.793880
20
30.800854
30
0.0
11
12.599264
21
31.016134
31
0.0
0
LINE
8
MCD_Layer_0
10
12.481688
20
30.882214
30
0.0
11
12.676160
21
30.796822
31
0.0
0
LINE
8
MCD_Layer_0
10
12.836504
20
31.063726
30
0.0
11
12.907137
21
30.688534
31
0.0
0
LINE
8
MCD_Layer_0
10
13.045953
20
30.537046
30
0.0
11
12.836504
21
31.063726
31
0.0
0
LINE
8
MCD_Layer_0
10
12.215936
20
30.476854
30
0.0
11
12.274113
21
30.379942
31
0.0
0
LINE
8
MCD_Layer_0
10
8.684049
20
30.200590
30
0.0
11
8.900192
21
30.641230
31
0.0
0
LINE
8
MCD_Layer_0
10
8.810768
20
30.156382
30
0.0
11
8.760728
21
29.999782
31
0.0
0
LINE
8
MCD_Layer_0
10
9.052328
20
29.980054
30
0.0
11
9.034688
21
30.127222
31
0.0
0
LINE
8
MCD_Layer_0
10
9.123968
20
30.611351
30
0.0
11
9.450992
21
30.754918
31
0.0
0
LINE
8
MCD_Layer_0
10
9.755048
20
30.408670
30
0.0
11
9.654753
21
30.115918
31
0.0
0
LINE
8
MCD_Layer_0
10
9.893144
20
30.115918
30
0.0
11
9.926480
21
30.213334
31
0.0
0
LINE
8
MCD_Layer_0
10
9.951896
20
30.184462
30
0.0
11
9.972343
21
30.072718
31
0.0
0
LINE
8
MCD_Layer_0
10
10.252280
20
30.308878
30
0.0
11
11.031536
21
30.230326
31
0.0
0
LINE
8
MCD_Layer_0
10
11.952416
20
30.176686
30
0.0
11
12.059768
21
30.298942
31
0.0
0
LINE
8
MCD_Layer_0
10
12.169497
20
30.115918
30
0.0
11
12.432440
21
30.115918
31
0.0
0
LINE
8
MCD_Layer_0
10
12.416385
20
30.142630
30
0.0
11
12.499616
21
30.142630
31
0.0
0
LINE
8
MCD_Layer_0
10
12.499616
20
30.702070
30
0.0
11
12.764648
21
30.585718
31
0.0
0
LINE
8
MCD_Layer_0
10
12.853856
20
30.101518
30
0.0
11
12.836288
21
29.954422
31
0.0
0
LINE
8
MCD_Layer_0
10
13.127816
20
29.974150
30
0.0
11
13.077776
21
30.130822
31
0.0
0
LINE
8
MCD_Layer_0
10
13.049768
20
30.282382
30
0.0
11
13.091168
21
30.236590
31
0.0
0
LINE
8
MCD_Layer_0
10
13.144016
20
30.110950
30
0.0
11
13.163528
21
29.970478
31
0.0
0
LINE
8
MCD_Layer_0
10
13.420135
20
30.097342
30
0.0
11
13.338057
21
30.218518
31
0.0
0
LINE
8
MCD_Layer_0
10
12.886688
20
31.330990
30
0.0
11
12.886688
21
34.335550
31
0.0
0
LINE
8
MCD_Layer_0
10
12.661184
20
34.257287
30
0.0
11
12.661184
21
33.431951
31
0.0
0
LINE
8
MCD_Layer_0
10
12.492344
20
33.665086
30
0.0
11
12.474200
21
33.665086
31
0.0
0
LINE
8
MCD_Layer_0
10
12.474200
20
33.925582
30
0.0
11
12.284409
21
33.925582
31
0.0
0
LINE
8
MCD_Layer_0
10
12.284409
20
33.514894
30
0.0
11
12.158984
21
33.449375
31
0.0
0
LINE
8
MCD_Layer_0
10
12.158984
20
33.495958
30
0.0
11
12.170432
21
33.508487
31
0.0
0
LINE
8
MCD_Layer_0
10
12.170432
20
33.637006
30
0.0
11
12.164312
21
33.649534
31
0.0
0
LINE
8
MCD_Layer_0
10
11.038088
20
33.652126
30
0.0
11
10.984089
21
33.664295
31
0.0
0
LINE
8
MCD_Layer_0
10
10.830512
20
33.922271
30
0.0
11
10.619696
21
33.978574
31
0.0
0
LINE
8
MCD_Layer_0
10
9.701264
20
33.696406
30
0.0
11
9.701264
21
33.586030
31
0.0
0
LINE
8
MCD_Layer_0
10
9.685137
20
33.572062
30
0.0
11
9.685137
21
33.383134
31
0.0
0
LINE
8
MCD_Layer_0
10
9.715304
20
33.363406
30
0.0
11
9.715304
21
33.127606
31
0.0
0
LINE
8
MCD_Layer_0
10
9.688520
20
33.115438
30
0.0
11
9.688520
21
32.832407
31
0.0
0
LINE
8
MCD_Layer_0
10
9.227432
20
32.858686
30
0.0
11
9.227432
21
34.282991
31
0.0
0
LINE
8
MCD_Layer_0
10
9.001928
20
32.846807
30
0.0
11
8.990408
21
32.843998
31
0.0
0
LINE
8
MCD_Layer_0
10
8.793128
20
32.816638
30
0.0
11
8.793128
21
32.723902
31
0.0
0
LINE
8
MCD_Layer_0
10
8.760224
20
32.723902
30
0.0
11
8.760224
21
32.519782
31
0.0
0
LINE
8
MCD_Layer_0
10
8.791327
20
32.519782
30
0.0
11
8.791327
21
32.199670
31
0.0
0
LINE
8
MCD_Layer_0
10
8.579359
20
32.199670
30
0.0
11
8.579359
21
31.703662
31
0.0
0
LINE
8
MCD_Layer_0
10
8.639049
20
31.703662
30
0.0
11
8.639049
21
30.844198
31
0.0
0
LINE
8
MCD_Layer_0
10
8.418800
20
30.655630
30
0.0
11
8.461136
21
30.603719
31
0.0
0
LINE
8
MCD_Layer_0
10
8.461136
20
30.420550
30
0.0
11
8.540768
21
30.420550
31
0.0
0
LINE
8
MCD_Layer_0
10
8.476040
20
30.288502
30
0.0
11
8.385896
21
30.214846
31
0.0
0
LINE
8
MCD_Layer_0
10
8.517223
20
30.234718
30
0.0
11
8.540840
21
30.238750
31
0.0
0
LINE
8
MCD_Layer_0
10
8.536880
20
30.258838
30
0.0
11
8.782400
21
30.759238
31
0.0
0
LINE
8
MCD_Layer_0
10
8.623281
20
30.623086
30
0.0
11
8.596856
21
30.617111
31
0.0
0
LINE
8
MCD_Layer_0
10
8.623713
20
30.588166
30
0.0
11
8.623713
21
30.488302
31
0.0
0
LINE
8
MCD_Layer_0
10
8.528889
20
30.488302
30
0.0
11
8.528889
21
30.585286
31
0.0
0
LINE
8
MCD_Layer_0
10
8.545880
20
30.606958
30
0.0
11
8.513048
21
30.647206
31
0.0
0
LINE
8
MCD_Layer_0
10
8.706800
20
30.812950
30
0.0
11
8.706800
21
31.771414
31
0.0
0
LINE
8
MCD_Layer_0
10
8.647112
20
31.771414
30
0.0
11
8.647112
21
32.131918
31
0.0
0
LINE
8
MCD_Layer_0
10
8.796800
20
32.131918
30
0.0
11
8.796800
21
30.788614
31
0.0
0
LINE
8
MCD_Layer_0
10
9.069680
20
31.344886
30
0.0
11
9.069680
21
34.550542
31
0.0
0
LINE
8
MCD_Layer_0
10
9.124040
20
34.763303
30
0.0
11
9.040016
21
34.839839
31
0.0
0
LINE
8
MCD_Layer_0
10
9.379424
20
34.746239
30
0.0
11
9.206480
21
34.745879
31
0.0
0
LINE
8
MCD_Layer_0
10
9.159680
20
34.550542
30
0.0
11
9.159680
21
31.325878
31
0.0
0
LINE
8
MCD_Layer_0
10
9.865424
20
30.521998
30
0.0
11
10.080128
21
31.146238
31
0.0
0
LINE
8
MCD_Layer_0
10
10.053704
20
31.163086
30
0.0
11
10.022528
21
31.115062
31
0.0
0
LINE
8
MCD_Layer_0
10
10.000928
20
31.131838
30
0.0
11
10.060905
21
31.251863
31
0.0
0
LINE
8
MCD_Layer_0
10
10.123328
20
31.225438
30
0.0
11
10.327375
21
31.225438
31
0.0
0
LINE
8
MCD_Layer_0
10
10.357976
20
30.986758
30
0.0
11
10.138592
21
31.041838
31
0.0
0
LINE
8
MCD_Layer_0
10
9.933896
20
30.444022
30
0.0
11
10.050536
21
30.311182
31
0.0
0
LINE
8
MCD_Layer_0
10
10.052480
20
30.280366
30
0.0
11
10.074152
21
30.287782
31
0.0
0
LINE
8
MCD_Layer_0
10
10.014680
20
30.217726
30
0.0
11
10.021879
21
30.250918
31
0.0
0
LINE
8
MCD_Layer_0
10
9.988472
20
30.245446
30
0.0
11
9.900272
21
30.345886
31
0.0
0
LINE
8
MCD_Layer_0
10
9.844688
20
30.183598
30
0.0
11
9.749576
21
30.183598
31
0.0
0
LINE
8
MCD_Layer_0
10
9.831872
20
30.423862
30
0.0
11
9.469209
21
30.836926
31
0.0
0
LINE
8
MCD_Layer_0
10
9.063848
20
30.658942
30
0.0
11
8.969528
21
30.147238
31
0.0
0
LINE
8
MCD_Layer_0
10
8.951529
20
30.132622
30
0.0
11
8.966936
21
30.107854
31
0.0
0
LINE
8
MCD_Layer_0
10
8.870096
20
30.125854
30
0.0
11
8.889896
21
30.141622
31
0.0
0
LINE
8
MCD_Layer_0
10
8.881041
20
30.163582
30
0.0
11
8.974064
21
30.668014
31
0.0
0
LINE
8
MCD_Layer_0
10
8.880609
20
30.755062
30
0.0
11
8.617737
21
30.219238
31
0.0
0
LINE
8
MCD_Layer_0
10
8.603767
20
30.222694
30
0.0
11
8.615576
21
30.190510
31
0.0
0
LINE
8
MCD_Layer_0
10
8.993361
20
30.772990
30
0.0
11
9.056072
21
31.112758
31
0.0
0
LINE
8
MCD_Layer_0
10
9.083576
20
30.765934
30
0.0
11
9.406928
21
30.907846
31
0.0
0
LINE
8
MCD_Layer_0
10
9.161336
20
31.187567
30
0.0
11
9.083576
21
30.765934
31
0.0
0
LINE
8
MCD_Layer_0
10
9.202664
20
31.037807
30
0.0
11
9.294968
21
30.932686
31
0.0
0
LINE
8
MCD_Layer_0
10
8.864552
20
31.080503
30
0.0
11
8.864552
21
31.501126
31
0.0
0
LINE
8
MCD_Layer_0
10
8.965928
20
31.505590
30
0.0
11
9.001928
21
31.412422
31
0.0
0
LINE
8
MCD_Layer_0
10
9.001928
20
31.360582
30
0.0
11
8.864552
21
31.080503
31
0.0
0
LINE
8
MCD_Layer_0
10
9.002000
20
31.574566
30
0.0
11
9.002000
21
32.777110
31
0.0
0
LINE
8
MCD_Layer_0
10
8.860880
20
32.759038
30
0.0
11
8.860880
21
32.723902
31
0.0
0
LINE
8
MCD_Layer_0
10
8.893712
20
32.723902
30
0.0
11
8.893712
21
32.519782
31
0.0
0
LINE
8
MCD_Layer_0
10
8.859079
20
32.519782
30
0.0
11
8.859079
21
31.812310
31
0.0
0
LINE
8
MCD_Layer_0
10
8.891048
20
31.812310
30
0.0
11
8.891048
21
31.643614
31
0.0
0
LINE
8
MCD_Layer_0
10
8.859079
20
31.643614
30
0.0
11
8.859079
21
31.568662
31
0.0
0
LINE
8
MCD_Layer_0
10
9.673688
20
31.557863
30
0.0
11
9.673688
21
31.774150
31
0.0
0
LINE
8
MCD_Layer_0
10
9.769520
20
31.761406
30
0.0
11
9.769520
21
31.549510
31
0.0
0
LINE
8
MCD_Layer_0
10
9.868232
20
31.662910
30
0.0
11
9.835184
21
31.662910
31
0.0
0
LINE
8
MCD_Layer_0
10
9.835328
20
31.950262
30
0.0
11
9.835328
21
32.168206
31
0.0
0
LINE
8
MCD_Layer_0
10
9.887816
20
32.168206
30
0.0
11
9.887816
21
31.948534
31
0.0
0
LINE
8
MCD_Layer_0
10
9.901712
20
31.948534
30
0.0
11
9.901712
21
31.767310
31
0.0
0
LINE
8
MCD_Layer_0
10
10.147017
20
32.447639
30
0.0
11
10.072928
21
32.465350
31
0.0
0
LINE
8
MCD_Layer_0
10
9.769520
20
32.482703
30
0.0
11
9.673688
21
32.498039
31
0.0
0
LINE
8
MCD_Layer_0
10
9.673688
20
32.737510
30
0.0
11
9.708104
21
32.737510
31
0.0
0
LINE
8
MCD_Layer_0
10
9.227360
20
31.509694
30
0.0
11
9.227360
21
31.351366
31
0.0
0
LINE
8
MCD_Layer_0
10
9.838640
20
30.655055
30
0.0
11
9.888608
21
30.797470
31
0.0
0
LINE
8
MCD_Layer_0
10
9.914528
20
30.943054
30
0.0
11
9.931304
21
30.991942
31
0.0
0
LINE
8
MCD_Layer_0
10
9.967304
20
31.002238
30
0.0
11
9.972416
21
31.068334
31
0.0
0
LINE
8
MCD_Layer_0
10
9.915536
20
31.112542
30
0.0
11
10.021233
21
31.323862
31
0.0
0
LINE
8
MCD_Layer_0
10
10.914176
20
32.236894
30
0.0
11
10.912736
21
32.291686
31
0.0
0
LINE
8
MCD_Layer_0
10
10.845776
20
32.290678
30
0.0
11
10.818056
21
32.258278
31
0.0
0
LINE
8
MCD_Layer_0
10
10.671320
20
32.254246
30
0.0
11
10.691120
21
32.278582
31
0.0
0
LINE
8
MCD_Layer_0
10
10.137656
20
31.714607
30
0.0
11
10.082792
21
31.643974
31
0.0
0
LINE
8
MCD_Layer_0
10
10.209152
20
31.643974
30
0.0
11
10.264448
21
31.714607
31
0.0
0
LINE
8
MCD_Layer_0
10
10.396856
20
31.643974
30
0.0
11
10.209152
21
31.643974
31
0.0
0
LINE
8
MCD_Layer_0
10
10.214768
20
32.501134
30
0.0
11
10.140680
21
32.518846
31
0.0
0
LINE
8
MCD_Layer_0
10
10.761320
20
32.495086
30
0.0
11
10.783424
21
32.495086
31
0.0
0
LINE
8
MCD_Layer_0
10
10.783424
20
32.327614
30
0.0
11
10.515368
21
32.327614
31
0.0
0
LINE
8
MCD_Layer_0
10
10.851105
20
32.359006
30
0.0
11
10.912736
21
32.359942
31
0.0
0
LINE
8
MCD_Layer_0
10
10.912736
20
32.495086
30
0.0
11
10.946575
21
32.495086
31
0.0
0
LINE
8
MCD_Layer_0
10
10.829000
20
32.495086
30
0.0
11
10.851105
21
32.495086
31
0.0
0
LINE
8
MCD_Layer_0
10
10.980416
20
32.403575
30
0.0
11
11.036504
21
32.403575
31
0.0
0
LINE
8
MCD_Layer_0
10
11.036504
20
33.286150
30
0.0
11
11.036288
21
33.379390
31
0.0
0
LINE
8
MCD_Layer_0
10
11.016200
20
33.405814
30
0.0
11
11.016200
21
33.457150
31
0.0
0
LINE
8
MCD_Layer_0
10
10.934408
20
33.492359
30
0.0
11
10.934408
21
33.367582
31
0.0
0
LINE
8
MCD_Layer_0
10
10.795304
20
33.454702
30
0.0
11
10.795304
21
33.643631
31
0.0
0
LINE
8
MCD_Layer_0
10
10.929729
20
33.570262
30
0.0
11
10.970263
21
33.609646
31
0.0
0
LINE
8
MCD_Layer_0
10
11.159624
20
33.549527
30
0.0
11
11.159624
21
33.430727
31
0.0
0
LINE
8
MCD_Layer_0
10
11.126504
20
33.416111
30
0.0
11
11.126504
21
33.286150
31
0.0
0
LINE
8
MCD_Layer_0
10
11.126504
20
32.403575
30
0.0
11
11.225936
21
32.403575
31
0.0
0
LINE
8
MCD_Layer_0
10
11.481968
20
33.551830
30
0.0
11
11.481968
21
33.349151
31
0.0
0
LINE
8
MCD_Layer_0
10
11.315936
20
33.298030
30
0.0
11
11.315936
21
32.323798
31
0.0
0
LINE
8
MCD_Layer_0
10
10.980416
20
32.266054
30
0.0
11
10.980416
21
32.403575
31
0.0
0
LINE
8
MCD_Layer_0
10
10.917344
20
33.298390
30
0.0
11
10.727624
21
33.417263
31
0.0
0
LINE
8
MCD_Layer_0
10
10.727624
20
33.757678
30
0.0
11
10.917344
21
33.654070
31
0.0
0
LINE
8
MCD_Layer_0
10
10.641008
20
33.677831
30
0.0
11
10.551944
21
33.694102
31
0.0
0
LINE
8
MCD_Layer_0
10
10.041392
20
33.647806
30
0.0
11
9.948368
21
33.623326
31
0.0
0
LINE
8
MCD_Layer_0
10
9.769016
20
33.689998
30
0.0
11
9.769016
21
33.583510
31
0.0
0
LINE
8
MCD_Layer_0
10
9.797024
20
33.556438
30
0.0
11
9.797024
21
33.360310
31
0.0
0
LINE
8
MCD_Layer_0
10
9.783056
20
33.341230
30
0.0
11
9.783056
21
33.132359
31
0.0
0
LINE
8
MCD_Layer_0
10
9.805448
20
33.118031
30
0.0
11
9.805448
21
32.973958
31
0.0
0
LINE
8
MCD_Layer_0
10
9.948368
20
33.063311
30
0.0
11
9.948368
21
33.310198
31
0.0
0
LINE
8
MCD_Layer_0
10
10.041392
20
33.332663
30
0.0
11
10.041392
21
33.112990
31
0.0
0
LINE
8
MCD_Layer_0
10
10.551944
20
33.165478
30
0.0
11
10.551944
21
33.374063
31
0.0
0
LINE
8
MCD_Layer_0
10
10.641008
20
33.362686
30
0.0
11
10.641008
21
33.154534
31
0.0
0
LINE
8
MCD_Layer_0
10
11.383615
20
33.042718
30
0.0
11
11.383615
21
33.248062
31
0.0
0
LINE
8
MCD_Layer_0
10
11.549648
20
33.299182
30
0.0
11
11.549648
21
33.633622
31
0.0
0
LINE
8
MCD_Layer_0
10
11.242064
20
33.594382
30
0.0
11
11.128880
21
33.630238
31
0.0
0
LINE
8
MCD_Layer_0
10
11.683280
20
33.590711
30
0.0
11
11.772416
21
33.574439
31
0.0
0
LINE
8
MCD_Layer_0
10
12.098504
20
33.722614
30
0.0
11
12.097136
21
33.649463
31
0.0
0
LINE
8
MCD_Layer_0
10
12.079136
20
33.643198
30
0.0
11
12.079136
21
33.508919
31
0.0
0
LINE
8
MCD_Layer_0
10
12.091305
20
33.499558
30
0.0
11
12.091305
21
33.268438
31
0.0
0
LINE
8
MCD_Layer_0
10
12.073016
20
33.259078
30
0.0
11
12.073016
21
33.109102
31
0.0
0
LINE
8
MCD_Layer_0
10
11.772416
20
33.259295
30
0.0
11
11.683280
21
33.270670
31
0.0
0
LINE
8
MCD_Layer_0
10
11.497376
20
32.572702
30
0.0
11
11.497376
21
32.526478
31
0.0
0
LINE
8
MCD_Layer_0
10
11.472248
20
32.526478
30
0.0
11
11.472248
21
32.346766
31
0.0
0
LINE
8
MCD_Layer_0
10
11.497376
20
32.346766
30
0.0
11
11.497376
21
32.298526
31
0.0
0
LINE
8
MCD_Layer_0
10
11.383615
20
32.319046
30
0.0
11
11.383615
21
32.573566
31
0.0
0
LINE
8
MCD_Layer_0
10
11.541296
20
32.526478
30
0.0
11
11.562248
21
32.526478
31
0.0
0
LINE
8
MCD_Layer_0
10
11.562248
20
32.346766
30
0.0
11
11.541296
21
32.346766
31
0.0
0
LINE
8
MCD_Layer_0
10
11.723384
20
32.264326
30
0.0
11
11.723384
21
32.346766
31
0.0
0
LINE
8
MCD_Layer_0
10
11.698256
20
32.346766
30
0.0
11
11.698256
21
32.526478
31
0.0
0
LINE
8
MCD_Layer_0
10
11.723384
20
32.526478
30
0.0
11
11.723384
21
32.599774
31
0.0
0
LINE
8
MCD_Layer_0
10
11.888985
20
32.264326
30
0.0
11
11.767303
21
32.264326
31
0.0
0
LINE
8
MCD_Layer_0
10
11.767303
20
32.346766
30
0.0
11
11.788256
21
32.346766
31
0.0
0
LINE
8
MCD_Layer_0
10
11.788256
20
32.526478
30
0.0
11
11.767303
21
32.526478
31
0.0
0
LINE
8
MCD_Layer_0
10
11.956664
20
32.671846
30
0.0
11
11.956664
21
32.264326
31
0.0
0
LINE
8
MCD_Layer_0
10
12.129320
20
32.264326
30
0.0
11
12.129320
21
32.758822
31
0.0
0
LINE
8
MCD_Layer_0
10
12.149696
20
32.800582
30
0.0
11
12.197001
21
32.758822
31
0.0
0
LINE
8
MCD_Layer_0
10
12.197001
20
32.196646
30
0.0
11
11.739224
21
32.196646
31
0.0
0
LINE
8
MCD_Layer_0
10
12.249056
20
31.172878
30
0.0
11
12.274184
21
31.212478
31
0.0
0
LINE
8
MCD_Layer_0
10
12.274184
20
31.812814
30
0.0
11
12.181952
21
31.812814
31
0.0
0
LINE
8
MCD_Layer_0
10
12.181952
20
32.049263
30
0.0
11
12.227097
21
32.049263
31
0.0
0
LINE
8
MCD_Layer_0
10
12.227097
20
32.122847
30
0.0
11
12.274184
21
32.122847
31
0.0
0
LINE
8
MCD_Layer_0
10
12.274184
20
32.955598
30
0.0
11
12.159704
21
33.019390
31
0.0
0
LINE
8
MCD_Layer_0
10
12.659673
20
33.105214
30
0.0
11
12.659673
21
33.204359
31
0.0
0
LINE
8
MCD_Layer_0
10
12.158984
20
33.204359
30
0.0
11
12.158984
21
33.092182
31
0.0
0
LINE
8
MCD_Layer_0
10
12.158984
20
33.374783
30
0.0
11
12.234152
21
33.410710
31
0.0
0
LINE
8
MCD_Layer_0
10
12.513225
20
33.405238
30
0.0
11
12.659673
21
33.361751
31
0.0
0
LINE
8
MCD_Layer_0
10
12.659673
20
33.262607
30
0.0
11
12.158984
21
33.262607
31
0.0
0
LINE
8
MCD_Layer_0
10
12.424593
20
33.523318
30
0.0
11
12.424593
21
33.597334
31
0.0
0
LINE
8
MCD_Layer_0
10
12.406448
20
33.597334
30
0.0
11
12.406448
21
33.857831
31
0.0
0
LINE
8
MCD_Layer_0
10
12.352088
20
33.857831
30
0.0
11
12.352088
21
33.597334
31
0.0
0
LINE
8
MCD_Layer_0
10
12.334593
20
33.597334
30
0.0
11
12.334593
21
33.526342
31
0.0
0
LINE
8
MCD_Layer_0
10
12.341864
20
32.055166
30
0.0
11
12.300680
21
32.055166
31
0.0
0
LINE
8
MCD_Layer_0
10
12.300680
20
31.965023
30
0.0
11
12.252152
21
31.965023
31
0.0
0
LINE
8
MCD_Layer_0
10
12.252152
20
31.880494
30
0.0
11
12.341864
21
31.880494
31
0.0
0
LINE
8
MCD_Layer_0
10
12.341864
20
31.192822
30
0.0
11
12.224577
21
31.007854
31
0.0
0
LINE
8
MCD_Layer_0
10
11.994536
20
30.539422
30
0.0
11
12.021536
21
30.494422
31
0.0
0
LINE
8
MCD_Layer_0
10
11.852048
20
30.301390
30
0.0
11
11.860256
21
30.277702
31
0.0
0
LINE
8
MCD_Layer_0
10
11.831673
20
30.281878
30
0.0
11
11.709919
21
30.225286
31
0.0
0
LINE
8
MCD_Layer_0
10
11.857737
20
30.103606
30
0.0
11
11.894960
21
30.219238
31
0.0
0
LINE
8
MCD_Layer_0
10
11.894960
20
30.248470
30
0.0
11
11.920664
21
30.243214
31
0.0
0
LINE
8
MCD_Layer_0
10
12.070064
20
30.413422
30
0.0
11
12.207872
21
30.183598
31
0.0
0
LINE
8
MCD_Layer_0
10
12.312777
20
30.183598
30
0.0
11
12.132416
21
30.484414
31
0.0
0
LINE
8
MCD_Layer_0
10
12.341864
20
30.722950
30
0.0
11
12.341864
21
30.210382
31
0.0
0
LINE
8
MCD_Layer_0
10
12.431864
20
30.210382
30
0.0
11
12.431864
21
30.805822
31
0.0
0
LINE
8
MCD_Layer_0
10
12.824768
20
30.633310
30
0.0
11
12.919088
21
30.121606
31
0.0
0
LINE
8
MCD_Layer_0
10
12.937088
20
30.106990
30
0.0
11
12.921679
21
30.082222
31
0.0
0
LINE
8
MCD_Layer_0
10
13.018520
20
30.100222
30
0.0
11
12.998720
21
30.115990
31
0.0
0
LINE
8
MCD_Layer_0
10
13.007576
20
30.137950
30
0.0
11
12.939824
21
30.505078
31
0.0
0
LINE
8
MCD_Layer_0
10
13.149200
20
30.273454
30
0.0
11
13.201689
21
30.148678
31
0.0
0
LINE
8
MCD_Layer_0
10
13.219040
20
30.141550
30
0.0
11
13.215584
21
30.123766
31
0.0
0
LINE
8
MCD_Layer_0
10
13.291184
20
30.161278
30
0.0
11
13.275921
21
30.165526
31
0.0
0
LINE
8
MCD_Layer_0
10
13.278080
20
30.186046
30
0.0
11
12.818935
21
31.317814
31
0.0
0
LINE
8
MCD_Layer_0
10
12.818935
20
34.524911
30
0.0
11
12.764576
21
34.737670
31
0.0
0
LINE
8
MCD_Layer_0
10
12.682137
20
34.720247
30
0.0
11
12.728936
21
34.524911
31
0.0
0
LINE
8
MCD_Layer_0
10
12.728936
20
31.300246
30
0.0
11
12.538496
21
31.083310
31
0.0
0
LINE
8
MCD_Layer_0
10
12.431864
20
31.201318
30
0.0
11
12.431864
21
31.880494
31
0.0
0
LINE
8
MCD_Layer_0
10
12.476864
20
31.880494
30
0.0
11
12.476864
21
32.055166
31
0.0
0
LINE
8
MCD_Layer_0
10
12.431864
20
32.055166
30
0.0
11
12.431864
21
32.945158
31
0.0
0
LINE
8
MCD_Layer_0
10
12.499616
20
32.969854
30
0.0
11
12.499616
21
32.122847
31
0.0
0
LINE
8
MCD_Layer_0
10
12.544399
20
32.122847
30
0.0
11
12.544399
21
31.812814
31
0.0
0
LINE
8
MCD_Layer_0
10
12.499616
20
31.812814
30
0.0
11
12.499616
21
31.227310
31
0.0
0
LINE
8
MCD_Layer_0
10
12.537776
20
31.185046
30
0.0
11
12.661184
21
31.325662
31
0.0
0
LINE
8
MCD_Layer_0
10
12.661184
20
33.035014
30
0.0
11
12.546560
21
33.000958
31
0.0
0
LINE
8
MCD_Layer_0
10
12.661256
20
34.327631
30
0.0
11
12.661256
21
34.533694
31
0.0
0
LINE
8
MCD_Layer_0
10
12.612513
20
34.641407
30
0.0
11
12.490112
21
34.655806
31
0.0
0
LINE
8
MCD_Layer_0
10
12.900513
20
34.771007
30
0.0
11
12.868401
21
34.736231
31
0.0
0
LINE
8
MCD_Layer_0
10
12.886617
20
34.614263
30
0.0
11
12.886617
21
34.409494
31
0.0
0
LINE
8
MCD_Layer_0
10
10.184888
20
30.968039
30
0.0
11
10.380367
21
30.916846
31
0.0
0
LINE
8
MCD_Layer_0
10
10.831592
20
30.321910
30
0.0
11
10.110152
21
30.387574
31
0.0
0
LINE
8
MCD_Layer_0
10
10.016264
20
30.486286
30
0.0
11
10.184888
21
30.968039
31
0.0
0
LINE
8
MCD_Layer_0
10
12.067688
20
30.592414
30
0.0
11
12.083888
21
30.565486
31
0.0
0
LINE
8
MCD_Layer_0
10
12.341864
20
30.859318
30
0.0
11
12.341864
21
31.024774
31
0.0
0
LINE
8
MCD_Layer_0
10
12.478736
20
31.015270
30
0.0
11
12.431864
21
30.961846
31
0.0
0
LINE
8
MCD_Layer_0
10
12.431864
20
30.961846
30
0.0
11
12.431864
21
31.067110
31
0.0
0
LINE
8
MCD_Layer_0
10
12.727281
20
31.161934
30
0.0
11
12.793880
21
30.800854
31
0.0
0
LINE
8
MCD_Layer_0
10
12.539504
20
30.948022
30
0.0
11
12.481688
21
30.882214
31
0.0
0
LINE
8
MCD_Layer_0
10
12.676160
20
30.796822
30
0.0
11
12.539504
21
30.948022
31
0.0
0
LINE
8
MCD_Layer_0
10
12.907137
20
30.688534
30
0.0
11
13.045953
21
30.537046
31
0.0
0
LINE
8
MCD_Layer_0
10
12.274113
20
30.543094
30
0.0
11
12.215936
21
30.476854
31
0.0
0
LINE
8
MCD_Layer_0
10
12.274113
20
30.543094
30
0.0
11
12.274113
21
30.379942
31
0.0
0
LINE
8
MCD_Layer_0
10
0.991078
20
2.357074
30
0.0
11
1.005179
21
1.597574
31
0.0
0
LINE
8
MCD_Layer_0
10
2.338679
20
1.043773
30
0.0
11
2.349578
21
1.017473
31
0.0
0
LINE
8
MCD_Layer_0
10
2.353679
20
0.994273
30
0.0
11
2.364879
21
0.961273
31
0.0
0
LINE
8
MCD_Layer_0
10
2.240378
20
1.896774
30
0.0
11
2.240378
21
3.307973
31
0.0
0
LINE
8
MCD_Layer_0
10
-0.176721
20
4.114474
30
0.0
11
-0.141622
21
4.255774
31
0.0
0
LINE
8
MCD_Layer_0
10
-0.105022
20
4.257073
30
0.0
11
0.009978
21
4.211073
31
0.0
0
LINE
8
MCD_Layer_0
10
-0.017821
20
4.053373
30
0.0
11
-0.018121
21
3.832473
31
0.0
0
LINE
8
MCD_Layer_0
10
-0.076821
20
4.406474
30
0.0
11
-0.092221
21
4.367574
31
0.0
0
LINE
8
MCD_Layer_0
10
-0.105422
20
4.363774
30
0.0
11
-0.234822
21
4.345974
31
0.0
0
LINE
8
MCD_Layer_0
10
-0.384221
20
3.518974
30
0.0
11
-0.380521
21
3.550374
31
0.0
0
LINE
8
MCD_Layer_0
10
-1.792821
20
4.375674
30
0.0
11
-1.792821
21
5.361574
31
0.0
0
LINE
8
MCD_Layer_0
10
-1.895322
20
4.044474
30
0.0
11
-1.896322
21
3.880973
31
0.0
0
LINE
8
MCD_Layer_0
10
-1.901823
20
2.606673
30
0.0
11
-1.971822
21
2.604273
31
0.0
0
LINE
8
MCD_Layer_0
10
-1.987722
20
2.583673
30
0.0
11
-2.080822
21
2.480374
31
0.0
0
LINE
8
MCD_Layer_0
10
-2.618322
20
1.731174
30
0.0
11
-2.578422
21
1.732574
31
0.0
0
LINE
8
MCD_Layer_0
10
-2.535322
20
1.740773
30
0.0
11
-2.509523
21
1.764973
31
0.0
0
LINE
8
MCD_Layer_0
10
-1.954822
20
2.501473
30
0.0
11
-1.934822
21
2.502173
31
0.0
0
LINE
8
MCD_Layer_0
10
-2.129522
20
1.104473
30
0.0
11
-2.129222
21
1.094474
31
0.0
0
LINE
8
MCD_Layer_0
10
-2.290521
20
0.748673
30
0.0
11
-2.180122
21
0.739173
31
0.0
0
LINE
8
MCD_Layer_0
10
-2.101121
20
0.768673
30
0.0
11
-2.096921
21
0.838874
31
0.0
0
LINE
8
MCD_Layer_0
10
-2.109722
20
0.918473
30
0.0
11
-2.104421
21
0.958673
31
0.0
0
LINE
8
MCD_Layer_0
10
1.073079
20
3.186874
30
0.0
11
1.073079
21
2.034673
31
0.0
0
LINE
8
MCD_Layer_0
10
1.395179
20
3.577374
30
0.0
11
1.395179
21
4.860474
31
0.0
0
LINE
8
MCD_Layer_0
10
1.395179
20
5.143274
30
0.0
11
1.395179
21
5.289774
31
0.0
0
LINE
8
MCD_Layer_0
10
1.520179
20
5.297574
30
0.0
11
1.520179
21
4.899674
31
0.0
0
LINE
8
MCD_Layer_0
10
1.520179
20
4.636774
30
0.0
11
1.520179
21
3.584374
31
0.0
0
LINE
8
MCD_Layer_0
10
0.437579
20
4.766373
30
0.0
11
0.467578
21
4.767373
31
0.0
0
LINE
8
MCD_Layer_0
10
1.004279
20
5.826774
30
0.0
11
0.945479
21
5.791374
31
0.0
0
LINE
8
MCD_Layer_0
10
1.020078
20
5.753973
30
0.0
11
1.062778
21
5.775474
31
0.0
0
LINE
8
MCD_Layer_0
10
-1.223121
20
4.564974
30
0.0
11
-1.286722
21
4.572673
31
0.0
0
LINE
8
MCD_Layer_0
10
-1.987022
20
4.188073
30
0.0
11
-1.950721
21
4.199274
31
0.0
0
LINE
8
MCD_Layer_0
10
-1.364023
20
4.016374
30
0.0
11
-1.367622
21
3.929474
31
0.0
0
LINE
8
MCD_Layer_0
10
-1.311222
20
2.790774
30
0.0
11
-1.318122
21
2.130173
31
0.0
0
LINE
8
MCD_Layer_0
10
-1.345521
20
2.149173
30
0.0
11
-1.526123
21
2.352973
31
0.0
0
LINE
8
MCD_Layer_0
10
-1.734521
20
2.592573
30
0.0
11
-1.824823
21
2.599373
31
0.0
0
LINE
8
MCD_Layer_0
10
-1.113721
20
4.011774
30
0.0
11
-0.823922
21
4.021874
31
0.0
0
LINE
8
MCD_Layer_0
10
-0.470922
20
4.138874
30
0.0
11
-0.612622
21
3.892474
31
0.0
0
LINE
8
MCD_Layer_0
10
-1.150423
20
3.917074
30
0.0
11
-1.206623
21
3.901774
31
0.0
0
LINE
8
MCD_Layer_0
10
-0.446721
20
4.014974
30
0.0
11
-0.564221
21
3.819874
31
0.0
0
LINE
8
MCD_Layer_0
10
-1.300321
20
3.443074
30
0.0
11
-1.297721
21
3.598374
31
0.0
0
LINE
8
MCD_Layer_0
10
-1.203422
20
2.775173
30
0.0
11
-1.206222
21
2.744374
31
0.0
0
LINE
8
MCD_Layer_0
10
-1.082422
20
2.351773
30
0.0
11
-1.097322
21
2.301273
31
0.0
0
LINE
8
MCD_Layer_0
10
-1.022321
20
2.253874
30
0.0
11
-0.983922
21
2.205173
31
0.0
0
LINE
8
MCD_Layer_0
10
-0.976321
20
2.178773
30
0.0
11
-0.963422
21
1.999074
31
0.0
0
LINE
8
MCD_Layer_0
10
-1.066822
20
2.192273
30
0.0
11
-1.022321
21
2.253874
31
0.0
0
LINE
8
MCD_Layer_0
10
-2.069522
20
1.199973
30
0.0
11
-1.480422
21
1.904373
31
0.0
0
LINE
8
MCD_Layer_0
10
-0.211022
20
3.376173
30
0.0
11
-0.201222
21
3.383173
31
0.0
0
LINE
8
MCD_Layer_0
10
-0.059022
20
3.321474
30
0.0
11
0.025479
21
3.291074
31
0.0
0
LINE
8
MCD_Layer_0
10
-0.454122
20
4.321574
30
0.0
11
-0.359122
21
4.333574
31
0.0
0
LINE
8
MCD_Layer_0
10
-0.522822
20
4.379274
30
0.0
11
-0.363322
21
4.394874
31
0.0
0
LINE
8
MCD_Layer_0
10
-1.173822
20
4.776773
30
0.0
11
-1.219121
21
4.633473
31
0.0
0
LINE
8
MCD_Layer_0
10
-1.154922
20
4.617373
30
0.0
11
-1.141323
21
4.514373
31
0.0
0
LINE
8
MCD_Layer_0
10
-0.829921
20
4.385174
30
0.0
11
-0.793021
21
4.379874
31
0.0
0
LINE
8
MCD_Layer_0
10
-2.290244
20
0.387306
30
0.0
11
-2.253451
21
0.513090
31
0.0
0
LINE
8
MCD_Layer_0
10
-2.037308
20
0.953730
30
0.0
11
-2.126732
21
0.468882
31
0.0
0
LINE
8
MCD_Layer_0
10
2.140276
20
0.443322
30
0.0
11
2.112268
21
0.594882
31
0.0
0
LINE
8
MCD_Layer_0
10
2.153668
20
0.549090
30
0.0
11
2.206516
21
0.423450
31
0.0
0
LINE
8
MCD_Layer_0
10
2.400557
20
0.531018
30
0.0
11
1.949188
21
1.643490
31
0.0
0
LINE
8
MCD_Layer_0
10
1.723684
20
3.744451
30
0.0
11
1.609060
21
3.778506
31
0.0
0
LINE
8
MCD_Layer_0
10
1.554844
20
3.813282
30
0.0
11
1.554844
21
3.977586
31
0.0
0
LINE
8
MCD_Layer_0
10
1.536700
20
3.977586
30
0.0
11
1.536700
21
4.238082
31
0.0
0
LINE
8
MCD_Layer_0
10
1.346909
20
4.238082
30
0.0
11
1.346909
21
3.827394
31
0.0
0
LINE
8
MCD_Layer_0
10
1.221484
20
3.761875
30
0.0
11
1.221484
21
3.808458
31
0.0
0
LINE
8
MCD_Layer_0
10
1.232932
20
3.820987
30
0.0
11
1.232932
21
3.949506
31
0.0
0
LINE
8
MCD_Layer_0
10
1.226812
20
3.962034
30
0.0
11
1.226812
21
4.050666
31
0.0
0
LINE
8
MCD_Layer_0
10
-0.317804
20
4.291074
30
0.0
11
-0.352364
21
4.298059
31
0.0
0
LINE
8
MCD_Layer_0
10
-1.236236
20
3.898530
30
0.0
11
-1.252363
21
3.884562
31
0.0
0
LINE
8
MCD_Layer_0
10
-1.252363
20
3.695634
30
0.0
11
-1.222196
21
3.675906
31
0.0
0
LINE
8
MCD_Layer_0
10
-1.222196
20
3.440106
30
0.0
11
-1.248980
21
3.427938
31
0.0
0
LINE
8
MCD_Layer_0
10
-1.935572
20
4.673682
30
0.0
11
-1.935572
21
3.159307
31
0.0
0
LINE
8
MCD_Layer_0
10
-2.144372
20
3.036402
30
0.0
11
-2.177276
21
3.036402
31
0.0
0
LINE
8
MCD_Layer_0
10
-2.177276
20
2.832282
30
0.0
11
-2.146173
21
2.832282
31
0.0
0
LINE
8
MCD_Layer_0
10
-2.146173
20
2.512170
30
0.0
11
-2.358141
21
2.512170
31
0.0
0
LINE
8
MCD_Layer_0
10
-2.358141
20
2.016162
30
0.0
11
-2.298451
21
2.016162
31
0.0
0
LINE
8
MCD_Layer_0
10
-2.298451
20
1.156698
30
0.0
11
-2.518700
21
0.968130
31
0.0
0
LINE
8
MCD_Layer_0
10
-2.476364
20
0.916219
30
0.0
11
-2.476364
21
0.733050
31
0.0
0
LINE
8
MCD_Layer_0
10
-2.396732
20
0.733050
30
0.0
11
-2.461460
21
0.601002
31
0.0
0
LINE
8
MCD_Layer_0
10
-2.479244
20
0.498978
30
0.0
11
-2.420277
21
0.547218
31
0.0
0
LINE
8
MCD_Layer_0
10
-2.396660
20
0.551250
30
0.0
11
-2.400620
21
0.571338
31
0.0
0
LINE
8
MCD_Layer_0
10
-2.155100
20
1.071738
30
0.0
11
-2.314219
21
0.935586
31
0.0
0
LINE
8
MCD_Layer_0
10
-2.340644
20
0.929611
30
0.0
11
-2.313787
21
0.900666
31
0.0
0
LINE
8
MCD_Layer_0
10
-2.313787
20
0.800802
30
0.0
11
-2.408611
21
0.800802
31
0.0
0
LINE
8
MCD_Layer_0
10
-2.408611
20
0.897786
30
0.0
11
-2.391620
21
0.919458
31
0.0
0
LINE
8
MCD_Layer_0
10
-2.424452
20
0.959706
30
0.0
11
-2.230700
21
1.125450
31
0.0
0
LINE
8
MCD_Layer_0
10
-2.230700
20
2.083914
30
0.0
11
-2.290388
21
2.083914
31
0.0
0
LINE
8
MCD_Layer_0
10
-2.290388
20
2.444418
30
0.0
11
-2.140700
21
2.444418
31
0.0
0
LINE
8
MCD_Layer_0
10
-2.140700
20
1.101114
30
0.0
11
-1.867820
21
1.657386
31
0.0
0
LINE
8
MCD_Layer_0
10
-1.867820
20
4.863042
30
0.0
11
-1.813460
21
5.075803
31
0.0
0
LINE
8
MCD_Layer_0
10
-1.731020
20
5.058379
30
0.0
11
-1.777820
21
4.863042
31
0.0
0
LINE
8
MCD_Layer_0
10
-2.100380
20
0.330426
30
0.0
11
-2.067404
21
0.438354
31
0.0
0
LINE
8
MCD_Layer_0
10
-2.047604
20
0.454122
30
0.0
11
-2.056459
21
0.476082
31
0.0
0
LINE
8
MCD_Layer_0
10
-1.963436
20
0.980514
30
0.0
11
-2.056891
21
1.067562
31
0.0
0
LINE
8
MCD_Layer_0
10
-2.319763
20
0.531738
30
0.0
11
-2.333733
21
0.535194
31
0.0
0
LINE
8
MCD_Layer_0
10
-2.321924
20
0.503010
30
0.0
11
-2.345541
21
0.434682
31
0.0
0
LINE
8
MCD_Layer_0
10
-2.015491
20
1.152018
30
0.0
11
-1.944139
21
1.085490
31
0.0
0
LINE
8
MCD_Layer_0
10
-1.881428
20
1.425258
30
0.0
11
-2.015491
21
1.152018
31
0.0
0
LINE
8
MCD_Layer_0
10
-2.076620
20
3.036402
30
0.0
11
-2.043788
21
3.036402
31
0.0
0
LINE
8
MCD_Layer_0
10
-2.043788
20
2.832282
30
0.0
11
-2.078421
21
2.832282
31
0.0
0
LINE
8
MCD_Layer_0
10
-2.078421
20
2.124810
30
0.0
11
-2.046452
21
2.124810
31
0.0
0
LINE
8
MCD_Layer_0
10
-2.046452
20
1.956114
30
0.0
11
-2.078421
21
1.956114
31
0.0
0
LINE
8
MCD_Layer_0
10
-1.263812
20
2.086650
30
0.0
11
-1.167980
21
2.073906
31
0.0
0
LINE
8
MCD_Layer_0
10
-1.102316
20
1.975410
30
0.0
11
-1.102316
21
2.081178
31
0.0
0
LINE
8
MCD_Layer_0
10
-1.130972
20
2.262762
30
0.0
11
-1.102172
21
2.262762
31
0.0
0
LINE
8
MCD_Layer_0
10
-1.102172
20
2.480706
30
0.0
11
-1.049684
21
2.480706
31
0.0
0
LINE
8
MCD_Layer_0
10
-1.049684
20
2.261034
30
0.0
11
-1.035788
21
2.261034
31
0.0
0
LINE
8
MCD_Layer_0
10
-1.035788
20
2.079810
30
0.0
11
-1.015484
21
2.079810
31
0.0
0
LINE
8
MCD_Layer_0
10
-0.790483
20
2.396106
30
0.0
11
-0.790483
21
2.760139
31
0.0
0
LINE
8
MCD_Layer_0
10
-0.864572
20
2.777850
30
0.0
11
-0.864572
21
2.880306
31
0.0
0
LINE
8
MCD_Layer_0
10
-1.167980
20
3.016674
30
0.0
11
-1.167980
21
2.795203
31
0.0
0
LINE
8
MCD_Layer_0
10
-1.263812
20
2.810539
30
0.0
11
-1.263812
21
3.050010
31
0.0
0
LINE
8
MCD_Layer_0
10
-1.229396
20
3.050010
30
0.0
11
-1.229396
21
3.073986
31
0.0
0
LINE
8
MCD_Layer_0
10
-1.710140
20
3.103650
30
0.0
11
-1.710140
21
1.889658
31
0.0
0
LINE
8
MCD_Layer_0
10
-0.024764
20
2.604186
30
0.0
11
-0.091724
21
2.603178
31
0.0
0
LINE
8
MCD_Layer_0
10
-0.119444
20
2.570778
30
0.0
11
-0.266180
21
2.566746
31
0.0
0
LINE
8
MCD_Layer_0
10
-0.246380
20
2.591082
30
0.0
11
-0.397220
21
2.577330
31
0.0
0
LINE
8
MCD_Layer_0
10
-0.965516
20
2.027107
30
0.0
11
-0.799844
21
2.027107
31
0.0
0
LINE
8
MCD_Layer_0
10
-0.673052
20
2.027107
30
0.0
11
-0.511772
21
2.027107
31
0.0
0
LINE
8
MCD_Layer_0
10
-0.722732
20
2.461123
30
0.0
11
-0.722732
21
2.813634
31
0.0
0
LINE
8
MCD_Layer_0
10
-0.796820
20
2.831346
30
0.0
11
-0.796820
21
2.864682
31
0.0
0
LINE
8
MCD_Layer_0
10
-0.176180
20
2.936394
30
0.0
11
-0.176180
21
2.807586
31
0.0
0
LINE
8
MCD_Layer_0
10
-0.154076
20
2.807586
30
0.0
11
-0.154076
21
2.640114
31
0.0
0
LINE
8
MCD_Layer_0
10
-0.024764
20
2.672442
30
0.0
11
-0.024764
21
2.807586
31
0.0
0
LINE
8
MCD_Layer_0
10
0.009075
20
2.807586
30
0.0
11
0.009075
21
3.080539
31
0.0
0
LINE
8
MCD_Layer_0
10
-0.108500
20
2.995578
30
0.0
11
-0.108500
21
2.807586
31
0.0
0
LINE
8
MCD_Layer_0
10
-0.086395
20
2.807586
30
0.0
11
-0.086395
21
2.671506
31
0.0
0
LINE
8
MCD_Layer_0
10
0.099004
20
2.716075
30
0.0
11
0.099004
21
3.598650
31
0.0
0
LINE
8
MCD_Layer_0
10
0.098788
20
3.691890
30
0.0
11
0.078700
21
3.718314
31
0.0
0
LINE
8
MCD_Layer_0
10
0.078700
20
3.769650
30
0.0
11
-0.003092
21
3.804859
31
0.0
0
LINE
8
MCD_Layer_0
10
-0.003092
20
3.680082
30
0.0
11
-0.142196
21
3.767202
31
0.0
0
LINE
8
MCD_Layer_0
10
-0.142196
20
3.956131
30
0.0
11
-0.007771
21
3.882762
31
0.0
0
LINE
8
MCD_Layer_0
10
0.032763
20
3.922146
30
0.0
11
0.222124
21
3.862027
31
0.0
0
LINE
8
MCD_Layer_0
10
0.222124
20
3.743227
30
0.0
11
0.189004
21
3.728611
31
0.0
0
LINE
8
MCD_Layer_0
10
0.189004
20
3.598650
30
0.0
11
0.189004
21
2.716075
31
0.0
0
LINE
8
MCD_Layer_0
10
0.288436
20
2.716075
30
0.0
11
0.288436
21
3.589867
31
0.0
0
LINE
8
MCD_Layer_0
10
0.314356
20
3.698298
30
0.0
11
0.338836
21
3.780954
31
0.0
0
LINE
8
MCD_Layer_0
10
0.456052
20
3.847483
30
0.0
11
0.544468
21
3.864330
31
0.0
0
LINE
8
MCD_Layer_0
10
0.544468
20
3.661651
30
0.0
11
0.378436
21
3.610530
31
0.0
0
LINE
8
MCD_Layer_0
10
-0.020156
20
3.363426
30
0.0
11
-0.020156
21
3.610890
31
0.0
0
LINE
8
MCD_Layer_0
10
-0.209876
20
3.729763
30
0.0
11
-0.209876
21
4.070178
31
0.0
0
LINE
8
MCD_Layer_0
10
-0.296492
20
4.221091
30
0.0
11
-0.296492
21
3.990331
31
0.0
0
LINE
8
MCD_Layer_0
10
-0.385556
20
4.006602
30
0.0
11
-0.385556
21
4.235130
31
0.0
0
LINE
8
MCD_Layer_0
10
-0.896108
20
4.214898
30
0.0
11
-0.896108
21
3.960306
31
0.0
0
LINE
8
MCD_Layer_0
10
-0.989132
20
3.935826
30
0.0
11
-0.989132
21
4.179763
31
0.0
0
LINE
8
MCD_Layer_0
10
-1.168484
20
3.896010
30
0.0
11
-1.140476
21
3.868938
31
0.0
0
LINE
8
MCD_Layer_0
10
-1.140476
20
3.672810
30
0.0
11
-1.154444
21
3.653730
31
0.0
0
LINE
8
MCD_Layer_0
10
-1.154444
20
3.444859
30
0.0
11
-1.132052
21
3.430531
31
0.0
0
LINE
8
MCD_Layer_0
10
-0.989132
20
3.622698
30
0.0
11
-0.896108
21
3.645163
31
0.0
0
LINE
8
MCD_Layer_0
10
-0.385556
20
3.686563
30
0.0
11
-0.296492
21
3.675186
31
0.0
0
LINE
8
MCD_Layer_0
10
0.446115
20
3.560562
30
0.0
11
0.612148
21
3.611682
31
0.0
0
LINE
8
MCD_Layer_0
10
0.612148
20
3.946122
30
0.0
11
0.443380
21
3.913938
31
0.0
0
LINE
8
MCD_Layer_0
10
0.304564
20
3.858499
30
0.0
11
0.304564
21
3.906882
31
0.0
0
LINE
8
MCD_Layer_0
10
0.745780
20
4.159170
30
0.0
11
0.745780
21
3.903211
31
0.0
0
LINE
8
MCD_Layer_0
10
0.834916
20
3.886939
30
0.0
11
0.834916
21
4.157443
31
0.0
0
LINE
8
MCD_Layer_0
10
1.159636
20
3.961963
30
0.0
11
1.141636
21
3.955698
31
0.0
0
LINE
8
MCD_Layer_0
10
1.141636
20
3.821419
30
0.0
11
1.153805
21
3.812058
31
0.0
0
LINE
8
MCD_Layer_0
10
1.153805
20
3.580938
30
0.0
11
1.135516
21
3.571578
31
0.0
0
LINE
8
MCD_Layer_0
10
1.135516
20
3.421602
30
0.0
11
1.167196
21
3.370050
31
0.0
0
LINE
8
MCD_Layer_0
10
0.834916
20
3.436362
30
0.0
11
0.834916
21
3.571795
31
0.0
0
LINE
8
MCD_Layer_0
10
0.745780
20
3.583170
30
0.0
11
0.745780
21
3.433123
31
0.0
0
LINE
8
MCD_Layer_0
10
0.446115
20
3.280554
30
0.0
11
0.446115
21
2.953675
31
0.0
0
LINE
8
MCD_Layer_0
10
0.559876
20
2.838978
30
0.0
11
0.534748
21
2.838978
31
0.0
0
LINE
8
MCD_Layer_0
10
0.534748
20
2.659266
30
0.0
11
0.559876
21
2.659266
31
0.0
0
LINE
8
MCD_Layer_0
10
0.603796
20
2.887434
30
0.0
11
0.603796
21
2.838978
31
0.0
0
LINE
8
MCD_Layer_0
10
0.624748
20
2.838978
30
0.0
11
0.624748
21
2.659266
31
0.0
0
LINE
8
MCD_Layer_0
10
0.603796
20
2.659266
30
0.0
11
0.603796
21
2.598714
31
0.0
0
LINE
8
MCD_Layer_0
10
0.666148
20
2.576826
30
0.0
11
0.785884
21
2.576826
31
0.0
0
LINE
8
MCD_Layer_0
10
0.785884
20
2.659266
30
0.0
11
0.760756
21
2.659266
31
0.0
0
LINE
8
MCD_Layer_0
10
0.760756
20
2.838978
30
0.0
11
0.785884
21
2.838978
31
0.0
0
LINE
8
MCD_Layer_0
10
0.951485
20
2.957778
30
0.0
11
0.951485
21
2.576826
31
0.0
0
LINE
8
MCD_Layer_0
10
0.829803
20
2.576826
30
0.0
11
0.829803
21
2.659266
31
0.0
0
LINE
8
MCD_Layer_0
10
0.850756
20
2.659266
30
0.0
11
0.850756
21
2.838978
31
0.0
0
LINE
8
MCD_Layer_0
10
0.829803
20
2.838978
30
0.0
11
0.829803
21
2.922138
31
0.0
0
LINE
8
MCD_Layer_0
10
1.019164
20
2.576826
30
0.0
11
1.191820
21
2.576826
31
0.0
0
LINE
8
MCD_Layer_0
10
1.259501
20
3.071322
30
0.0
11
1.259501
21
2.509146
31
0.0
0
LINE
8
MCD_Layer_0
10
1.336684
20
1.524978
30
0.0
11
1.336684
21
2.125314
31
0.0
0
LINE
8
MCD_Layer_0
10
1.244452
20
2.125314
30
0.0
11
1.244452
21
2.361763
31
0.0
0
LINE
8
MCD_Layer_0
10
1.289597
20
2.361763
30
0.0
11
1.289597
21
2.435347
31
0.0
0
LINE
8
MCD_Layer_0
10
1.336684
20
2.435347
30
0.0
11
1.336684
21
3.268098
31
0.0
0
LINE
8
MCD_Layer_0
10
1.222204
20
3.331890
30
0.0
11
1.202259
21
3.319074
31
0.0
0
LINE
8
MCD_Layer_0
10
1.221484
20
3.404682
30
0.0
11
1.296652
21
3.368754
31
0.0
0
LINE
8
MCD_Layer_0
10
1.575725
20
3.374227
30
0.0
11
1.722173
21
3.417714
31
0.0
0
LINE
8
MCD_Layer_0
10
1.722173
20
3.516859
30
0.0
11
1.221484
21
3.516859
31
0.0
0
LINE
8
MCD_Layer_0
10
1.221484
20
3.575107
30
0.0
11
1.221484
21
3.687283
31
0.0
0
LINE
8
MCD_Layer_0
10
1.722173
20
3.674251
30
0.0
11
1.722173
21
3.575107
31
0.0
0
LINE
8
MCD_Layer_0
10
1.487093
20
3.909834
30
0.0
11
1.468948
21
3.909834
31
0.0
0
LINE
8
MCD_Layer_0
10
1.468948
20
4.170331
30
0.0
11
1.414588
21
4.170331
31
0.0
0
LINE
8
MCD_Layer_0
10
1.414588
20
3.909834
30
0.0
11
1.397093
21
3.909834
31
0.0
0
LINE
8
MCD_Layer_0
10
1.404364
20
3.252330
30
0.0
11
1.404364
21
2.367666
31
0.0
0
LINE
8
MCD_Layer_0
10
1.363180
20
2.367666
30
0.0
11
1.363180
21
2.277523
31
0.0
0
LINE
8
MCD_Layer_0
10
1.314652
20
2.277523
30
0.0
11
1.314652
21
2.192994
31
0.0
0
LINE
8
MCD_Layer_0
10
1.404364
20
2.192994
30
0.0
11
1.404364
21
1.505322
31
0.0
0
LINE
8
MCD_Layer_0
10
2.113997
20
0.304794
30
0.0
11
2.081020
21
0.412722
31
0.0
0
LINE
8
MCD_Layer_0
10
2.061220
20
0.428490
30
0.0
11
2.070076
21
0.450450
31
0.0
0
LINE
8
MCD_Layer_0
10
2.002324
20
0.817578
30
0.0
11
2.211700
21
0.585954
31
0.0
0
LINE
8
MCD_Layer_0
10
2.264189
20
0.461178
30
0.0
11
2.281540
21
0.454050
31
0.0
0
LINE
8
MCD_Layer_0
10
2.278084
20
0.436266
30
0.0
11
2.288525
21
0.336834
31
0.0
0
LINE
8
MCD_Layer_0
10
2.406244
20
0.400194
30
0.0
11
2.353684
21
0.473778
31
0.0
0
LINE
8
MCD_Layer_0
10
2.338421
20
0.478026
30
0.0
11
2.340580
21
0.498546
31
0.0
0
LINE
8
MCD_Layer_0
10
1.881435
20
1.630314
30
0.0
11
1.881435
21
4.837411
31
0.0
0
LINE
8
MCD_Layer_0
10
1.827076
20
5.050170
30
0.0
11
1.911100
21
5.126706
31
0.0
0
LINE
8
MCD_Layer_0
10
1.571692
20
5.033107
30
0.0
11
1.744637
21
5.032747
31
0.0
0
LINE
8
MCD_Layer_0
10
1.791436
20
4.837411
30
0.0
11
1.791436
21
1.612746
31
0.0
0
LINE
8
MCD_Layer_0
10
1.494364
20
2.192994
30
0.0
11
1.539364
21
2.192994
31
0.0
0
LINE
8
MCD_Layer_0
10
1.539364
20
2.367666
30
0.0
11
1.494364
21
2.367666
31
0.0
0
LINE
8
MCD_Layer_0
10
1.562116
20
2.435347
30
0.0
11
1.606899
21
2.435347
31
0.0
0
LINE
8
MCD_Layer_0
10
1.606899
20
2.125314
30
0.0
11
1.562116
21
2.125314
31
0.0
0
LINE
8
MCD_Layer_0
10
1.723684
20
1.638162
30
0.0
11
1.723684
21
3.347514
31
0.0
0
LINE
8
MCD_Layer_0
10
-1.710140
20
4.665762
30
0.0
11
-1.710140
21
4.871827
31
0.0
0
LINE
8
MCD_Layer_0
10
-1.661396
20
4.979539
30
0.0
11
-1.538996
21
4.993939
31
0.0
0
LINE
8
MCD_Layer_0
10
-1.949396
20
5.109139
30
0.0
11
-1.917284
21
5.074363
31
0.0
0
LINE
8
MCD_Layer_0
10
-1.935500
20
4.952394
30
0.0
11
-1.935500
21
4.747626
31
0.0
0
LINE
8
MCD_Layer_0
10
2.108453
20
0.849546
30
0.0
11
1.899004
21
1.376226
31
0.0
0
LINE
8
MCD_Layer_0
10
23.469086
20
3.464402
30
0.0
11
9.350194
21
0.717448
31
0.0
0
LINE
8
MCD_Layer_0
10
10.608769
20
2.827149
30
0.0
11
23.212784
21
4.917977
31
0.0
0
LINE
8
MCD_Layer_0
10
23.994854
20
5.558412
30
0.0
11
24.503914
21
5.494336
31
0.0
0
LINE
8
MCD_Layer_0
10
24.629356
20
5.478580
30
0.0
11
25.273109
21
5.397534
31
0.0
0
LINE
8
MCD_Layer_0
10
25.398041
20
5.381791
30
0.0
11
26.041992
21
5.300780
31
0.0
0
LINE
8
MCD_Layer_0
10
26.166924
20
5.285035
30
0.0
11
26.810581
21
5.203975
31
0.0
0
LINE
8
MCD_Layer_0
10
26.936237
20
5.188153
30
0.0
11
27.578854
21
5.107213
31
0.0
0
LINE
8
MCD_Layer_0
10
27.705742
20
5.091304
30
0.0
11
28.346798
21
5.010598
31
0.0
0
LINE
8
MCD_Layer_0
10
28.475567
20
4.994412
30
0.0
11
28.575581
21
4.981788
31
0.0
0
LINE
8
MCD_Layer_0
10
23.237736
20
4.776462
30
0.0
11
23.241974
21
4.752431
31
0.0
0
LINE
8
MCD_Layer_0
10
23.118786
20
4.731217
30
0.0
11
23.114410
21
4.756034
31
0.0
0
LINE
8
MCD_Layer_0
10
21.989616
20
4.569484
30
0.0
11
21.995243
21
4.537576
31
0.0
0
LINE
8
MCD_Layer_0
10
21.902798
20
4.521681
30
0.0
11
21.897087
21
4.554081
31
0.0
0
LINE
8
MCD_Layer_0
10
20.874310
20
4.384400
30
0.0
11
20.881153
21
4.345599
31
0.0
0
LINE
8
MCD_Layer_0
10
20.788807
20
4.329721
30
0.0
11
20.781860
21
4.369113
31
0.0
0
LINE
8
MCD_Layer_0
10
19.857250
20
4.215727
30
0.0
11
19.865219
21
4.170524
31
0.0
0
LINE
8
MCD_Layer_0
10
19.772873
20
4.154647
30
0.0
11
19.764801
21
4.200441
31
0.0
0
LINE
8
MCD_Layer_0
10
18.874924
20
4.052772
30
0.0
11
18.883968
21
4.001464
31
0.0
0
LINE
8
MCD_Layer_0
10
18.791527
20
3.985569
30
0.0
11
18.782375
21
4.037469
31
0.0
0
LINE
8
MCD_Layer_0
10
17.927216
20
3.895616
30
0.0
11
17.937305
21
3.838400
31
0.0
0
LINE
8
MCD_Layer_0
10
17.844875
20
3.822407
30
0.0
11
17.834839
21
3.879328
31
0.0
0
LINE
8
MCD_Layer_0
10
17.071957
20
3.753747
30
0.0
11
17.082985
21
3.691213
31
0.0
0
LINE
8
MCD_Layer_0
10
16.990654
20
3.675237
30
0.0
11
16.979523
21
3.738362
31
0.0
0
LINE
8
MCD_Layer_0
10
16.262974
20
3.619530
30
0.0
11
16.274887
21
3.551972
31
0.0
0
LINE
8
MCD_Layer_0
10
16.182556
20
3.535996
30
0.0
11
16.170540
21
3.604145
31
0.0
0
LINE
8
MCD_Layer_0
10
15.488626
20
3.491014
30
0.0
11
15.501390
21
3.418630
31
0.0
0
LINE
8
MCD_Layer_0
10
15.409042
20
3.402754
30
0.0
11
15.396349
21
3.474742
31
0.0
0
LINE
8
MCD_Layer_0
10
14.772075
20
3.372178
30
0.0
11
14.785637
21
3.295266
31
0.0
0
LINE
8
MCD_Layer_0
10
14.693292
20
3.279389
30
0.0
11
14.679626
21
3.356893
31
0.0
0
LINE
8
MCD_Layer_0
10
14.067064
20
3.255279
30
0.0
11
14.081408
21
3.173935
31
0.0
0
LINE
8
MCD_Layer_0
10
13.989061
20
3.158058
30
0.0
11
13.974631
21
3.239895
31
0.0
0
LINE
8
MCD_Layer_0
10
13.419884
20
3.147866
30
0.0
11
13.434922
21
3.062582
31
0.0
0
LINE
8
MCD_Layer_0
10
13.342575
20
3.046706
30
0.0
11
13.327434
21
3.132581
31
0.0
0
LINE
8
MCD_Layer_0
10
12.847770
20
3.052979
30
0.0
11
12.863433
21
2.964149
31
0.0
0
LINE
8
MCD_Layer_0
10
12.771104
20
2.948174
30
0.0
11
12.755337
21
3.037594
31
0.0
0
LINE
8
MCD_Layer_0
10
12.258386
20
2.955249
30
0.0
11
12.274709
21
2.862677
31
0.0
0
LINE
8
MCD_Layer_0
10
12.182364
20
2.846800
30
0.0
11
12.165954
21
2.939863
31
0.0
0
LINE
8
MCD_Layer_0
10
11.703639
20
2.863219
30
0.0
11
11.720570
21
2.767200
31
0.0
0
LINE
8
MCD_Layer_0
10
11.628241
20
2.751225
30
0.0
11
11.611205
21
2.847835
31
0.0
0
LINE
8
MCD_Layer_0
10
11.171988
20
2.774958
30
0.0
11
11.189491
21
2.675691
31
0.0
0
LINE
8
MCD_Layer_0
10
11.097163
20
2.659716
30
0.0
11
11.079538
21
2.759671
31
0.0
0
LINE
8
MCD_Layer_0
10
10.675056
20
2.692513
30
0.0
11
10.693114
21
2.590094
31
0.0
0
LINE
8
MCD_Layer_0
10
10.600768
20
2.574218
30
0.0
11
10.582604
21
2.677227
31
0.0
0
LINE
8
MCD_Layer_0
10
10.224280
20
2.617803
30
0.0
11
10.242844
21
2.512527
31
0.0
0
LINE
8
MCD_Layer_0
10
10.150497
20
2.496650
30
0.0
11
10.131847
21
2.602418
31
0.0
0
LINE
8
MCD_Layer_0
10
9.785161
20
2.544944
30
0.0
11
9.804193
21
2.437009
31
0.0
0
LINE
8
MCD_Layer_0
10
9.711766
20
2.421015
30
0.0
11
9.692630
21
2.529541
31
0.0
0
LINE
8
MCD_Layer_0
10
9.357483
20
2.474000
30
0.0
11
9.376984
21
2.363406
31
0.0
0
LINE
8
MCD_Layer_0
10
9.284655
20
2.347430
30
0.0
11
9.265050
21
2.458615
31
0.0
0
LINE
8
MCD_Layer_0
10
8.976177
20
2.410726
30
0.0
11
8.996095
21
2.297769
31
0.0
0
LINE
8
MCD_Layer_0
10
8.903667
20
2.281775
30
0.0
11
8.883628
21
2.395423
31
0.0
0
LINE
8
MCD_Layer_0
10
8.629392
20
2.353233
30
0.0
11
8.649709
21
2.238011
31
0.0
0
LINE
8
MCD_Layer_0
10
8.557363
20
2.222135
30
0.0
11
8.536959
21
2.337849
31
0.0
0
LINE
8
MCD_Layer_0
10
8.448524
20
0.743774
30
0.0
11
28.163780
21
4.579467
31
0.0
0
LINE
8
MCD_Layer_0
10
28.307529
20
4.527844
30
0.0
11
23.717960
21
3.634908
31
0.0
0
LINE
8
MCD_Layer_0
10
28.241196
20
5.340571
30
0.0
11
28.256191
21
5.459382
31
0.0
0
LINE
8
MCD_Layer_0
10
28.674606
20
5.406638
30
0.0
11
28.659611
21
5.287827
31
0.0
0
LINE
8
MCD_Layer_0
10
27.471546
20
5.431302
30
0.0
11
27.486542
21
5.550111
31
0.0
0
LINE
8
MCD_Layer_0
10
27.904942
20
5.497466
30
0.0
11
27.889942
21
5.378655
31
0.0
0
LINE
8
MCD_Layer_0
10
26.701881
20
5.522130
30
0.0
11
26.716877
21
5.640941
31
0.0
0
LINE
8
MCD_Layer_0
10
27.135277
20
5.588296
30
0.0
11
27.120277
21
5.469487
31
0.0
0
LINE
8
MCD_Layer_0
10
25.932217
20
5.612962
30
0.0
11
25.947212
21
5.731771
31
0.0
0
LINE
8
MCD_Layer_0
10
26.365627
20
5.679027
30
0.0
11
26.350632
21
5.560216
31
0.0
0
LINE
8
MCD_Layer_0
10
26.777744
20
4.708343
30
0.0
11
23.360626
21
4.079513
31
0.0
0
LINE
8
MCD_Layer_0
10
23.374256
20
4.002205
30
0.0
11
23.251434
21
3.978923
31
0.0
0
LINE
8
MCD_Layer_0
10
23.237682
20
4.056919
30
0.0
11
22.116379
21
3.850574
31
0.0
0
LINE
8
MCD_Layer_0
10
22.131157
20
3.766767
30
0.0
11
22.038990
21
3.749296
31
0.0
0
LINE
8
MCD_Layer_0
10
22.024128
20
3.833596
30
0.0
11
21.004528
21
3.645893
31
0.0
0
LINE
8
MCD_Layer_0
10
21.020313
20
3.556375
30
0.0
11
20.928246
21
3.538921
31
0.0
0
LINE
8
MCD_Layer_0
10
20.912376
20
3.628933
30
0.0
11
19.990631
21
3.459296
31
0.0
0
LINE
8
MCD_Layer_0
10
20.007336
20
3.364558
30
0.0
11
19.915268
21
3.347104
31
0.0
0
LINE
8
MCD_Layer_0
10
19.898476
20
3.442337
30
0.0
11
19.011341
21
3.279107
31
0.0
0
LINE
8
MCD_Layer_0
10
19.028950
20
3.179248
30
0.0
11
18.936783
21
3.161777
31
0.0
0
LINE
8
MCD_Layer_0
10
18.919086
20
3.262130
30
0.0
11
18.066566
21
3.105308
31
0.0
0
LINE
8
MCD_Layer_0
10
18.085045
20
3.000525
30
0.0
11
17.992878
21
2.983054
31
0.0
0
LINE
8
MCD_Layer_0
10
17.974316
20
3.088330
30
0.0
11
17.213966
21
2.948372
31
0.0
0
LINE
8
MCD_Layer_0
10
17.233223
20
2.839156
30
0.0
11
17.141155
21
2.821704
31
0.0
0
LINE
8
MCD_Layer_0
10
17.121811
20
2.931412
30
0.0
11
16.407486
21
2.799973
31
0.0
0
LINE
8
MCD_Layer_0
10
16.427471
20
2.686622
30
0.0
11
16.335403
21
2.669168
31
0.0
0
LINE
8
MCD_Layer_0
10
16.315331
20
2.783012
30
0.0
11
15.635533
21
2.657865
31
0.0
0
LINE
8
MCD_Layer_0
10
15.656232
20
2.540477
30
0.0
11
15.564145
21
2.523123
31
0.0
0
LINE
8
MCD_Layer_0
10
15.543378
20
2.640905
30
0.0
11
14.921204
21
2.526427
31
0.0
0
LINE
8
MCD_Layer_0
10
14.942545
20
2.405394
30
0.0
11
14.850478
21
2.387940
31
0.0
0
LINE
8
MCD_Layer_0
10
14.829050
20
2.509467
30
0.0
11
14.218381
21
2.397120
31
0.0
0
LINE
8
MCD_Layer_0
10
14.240382
20
2.272344
30
0.0
11
14.148314
21
2.254889
31
0.0
0
LINE
8
MCD_Layer_0
10
14.126225
20
2.380158
30
0.0
11
13.573198
21
2.278380
31
0.0
0
LINE
8
MCD_Layer_0
10
13.595790
20
2.150256
30
0.0
11
13.503704
21
2.132901
31
0.0
0
LINE
8
MCD_Layer_0
10
13.481043
20
2.261420
30
0.0
11
13.002854
21
2.173447
31
0.0
0
LINE
8
MCD_Layer_0
10
13.025968
20
2.042368
30
0.0
11
12.933899
21
2.024916
31
0.0
0
LINE
8
MCD_Layer_0
10
12.910700
20
2.156487
30
0.0
11
12.415312
21
2.065277
31
0.0
0
LINE
8
MCD_Layer_0
10
12.438945
20
1.931245
30
0.0
11
12.346877
21
1.913793
31
0.0
0
LINE
8
MCD_Layer_0
10
12.323157
20
2.048318
30
0.0
11
11.862284
21
1.963498
31
0.0
0
LINE
8
MCD_Layer_0
10
11.886421
20
1.826611
30
0.0
11
11.794353
21
1.809158
31
0.0
0
LINE
8
MCD_Layer_0
10
11.770128
20
1.946538
30
0.0
11
11.332265
21
1.865979
31
0.0
0
LINE
8
MCD_Layer_0
10
11.356889
20
1.726334
30
0.0
11
11.264821
21
1.708881
31
0.0
0
LINE
8
MCD_Layer_0
10
11.240110
20
1.849021
30
0.0
11
10.836861
21
1.774870
31
0.0
0
LINE
8
MCD_Layer_0
10
10.861953
20
1.632566
30
0.0
11
10.769884
21
1.615113
31
0.0
0
LINE
8
MCD_Layer_0
10
10.744705
20
1.757910
30
0.0
11
10.387492
21
1.692182
31
0.0
0
LINE
8
MCD_Layer_0
10
10.413002
20
1.547514
30
0.0
11
10.320933
21
1.530063
31
0.0
0
LINE
8
MCD_Layer_0
10
10.295338
20
1.675221
30
0.0
11
9.949744
21
1.611543
31
0.0
0
LINE
8
MCD_Layer_0
10
9.975636
20
1.464707
30
0.0
11
9.883469
21
1.447238
31
0.0
0
LINE
8
MCD_Layer_0
10
9.857491
20
1.594565
30
0.0
11
9.523387
21
1.533114
31
0.0
0
LINE
8
MCD_Layer_0
10
9.549677
20
1.384016
30
0.0
11
9.457608
21
1.366563
31
0.0
0
LINE
8
MCD_Layer_0
10
9.431231
20
1.516154
30
0.0
11
9.143262
21
1.463144
31
0.0
0
LINE
8
MCD_Layer_0
10
9.169899
20
1.312074
30
0.0
11
9.077715
21
1.294703
31
0.0
0
LINE
8
MCD_Layer_0
10
9.051007
20
1.446167
30
0.0
11
8.797552
21
1.399547
31
0.0
0
LINE
8
MCD_Layer_0
10
8.824503
20
1.246703
30
0.0
11
8.732434
21
1.229251
31
0.0
0
LINE
8
MCD_Layer_0
10
7.985375
20
1.250043
30
0.0
11
8.013055
21
1.093064
31
0.0
0
LINE
8
MCD_Layer_0
10
7.920888
20
1.075594
30
0.0
11
7.893122
21
1.233065
31
0.0
0
LINE
8
MCD_Layer_0
10
7.236416
20
1.112293
30
0.0
11
7.264791
21
0.951376
31
0.0
0
LINE
8
MCD_Layer_0
10
7.172624
20
0.933907
30
0.0
11
7.144163
21
1.095316
31
0.0
0
LINE
8
MCD_Layer_0
10
6.055521
20
0.894930
30
0.0
11
6.084972
21
0.727907
31
0.0
0
LINE
8
MCD_Layer_0
10
5.992805
20
0.710438
30
0.0
11
5.963267
21
0.877954
31
0.0
0
LINE
8
MCD_Layer_0
10
5.306579
20
0.757085
30
0.0
11
5.336707
21
0.586221
31
0.0
0
LINE
8
MCD_Layer_0
10
5.244541
20
0.568750
30
0.0
11
5.214326
21
0.740107
31
0.0
0
LINE
8
MCD_Layer_0
10
4.214375
20
0.556172
30
0.0
11
4.211129
21
0.373027
31
0.0
0
LINE
8
MCD_Layer_0
10
4.117090
20
0.355227
30
0.0
11
4.120268
21
0.538767
31
0.0
0
LINE
8
MCD_Layer_0
10
3.450285
20
0.415553
30
0.0
11
3.447043
21
0.228347
31
0.0
0
LINE
8
MCD_Layer_0
10
3.352907
20
0.210530
30
0.0
11
3.356276
21
0.398165
31
0.0
0
LINE
8
MCD_Layer_0
10
2.954404
20
0.324258
30
0.0
11
2.986685
21
0.141182
31
0.0
0
LINE
8
MCD_Layer_0
10
2.894617
20
0.123730
30
0.0
11
2.862249
21
0.307298
31
0.0
0
LINE
8
MCD_Layer_0
10
8.672838
20
1.567237
30
0.0
11
8.648857
21
1.703239
31
0.0
0
LINE
8
MCD_Layer_0
10
7.952816
20
1.434693
30
0.0
11
7.860563
21
1.417716
31
0.0
0
LINE
8
MCD_Layer_0
10
7.835783
20
1.558248
30
0.0
11
7.617045
21
1.519171
31
0.0
0
LINE
8
MCD_Layer_0
10
7.397405
20
1.480036
30
0.0
11
7.178453
21
1.441023
31
0.0
0
LINE
8
MCD_Layer_0
10
7.203857
20
1.296945
30
0.0
11
7.111604
21
1.279967
31
0.0
0
LINE
8
MCD_Layer_0
10
7.086112
20
1.424538
30
0.0
11
5.996411
21
1.230160
31
0.0
0
LINE
8
MCD_Layer_0
10
6.022962
20
1.079583
30
0.0
11
5.930708
21
1.062606
31
0.0
0
LINE
8
MCD_Layer_0
10
5.904071
20
1.213674
30
0.0
11
5.683445
21
1.174366
31
0.0
0
LINE
8
MCD_Layer_0
10
5.467546
20
1.135891
30
0.0
11
5.246739
21
1.096450
31
0.0
0
LINE
8
MCD_Layer_0
10
5.274020
20
0.941737
30
0.0
11
5.181767
21
0.924758
31
0.0
0
LINE
8
MCD_Layer_0
10
5.154400
20
1.079965
30
0.0
11
4.220623
21
0.913487
31
0.0
0
LINE
8
MCD_Layer_0
10
4.217726
20
0.747360
30
0.0
11
4.123602
21
0.730052
31
0.0
0
LINE
8
MCD_Layer_0
10
4.126510
20
0.896689
30
0.0
11
3.910118
21
0.858127
31
0.0
0
LINE
8
MCD_Layer_0
10
3.694729
20
0.819640
30
0.0
11
3.456573
21
0.777242
31
0.0
0
LINE
8
MCD_Layer_0
10
3.453636
20
0.606740
30
0.0
11
3.359611
21
0.589451
31
0.0
0
LINE
8
MCD_Layer_0
10
3.362559
20
0.760461
30
0.0
11
2.892290
21
0.676523
31
0.0
0
LINE
8
MCD_Layer_0
10
2.921844
20
0.508909
30
0.0
11
2.829691
21
0.491950
31
0.0
0
LINE
8
MCD_Layer_0
10
2.800032
20
0.660154
30
0.0
11
2.628844
21
0.629563
31
0.0
0
LINE
8
MCD_Layer_0
10
2.707062
20
0.738805
30
0.0
11
3.670662
21
0.910642
31
0.0
0
LINE
8
MCD_Layer_0
10
3.901235
20
0.951704
30
0.0
11
5.443889
21
1.226864
31
0.0
0
LINE
8
MCD_Layer_0
10
5.674247
20
1.267991
30
0.0
11
7.376900
21
1.571566
31
0.0
0
LINE
8
MCD_Layer_0
10
7.604599
20
1.612223
30
0.0
11
25.844044
21
4.865087
31
0.0
0
LINE
8
MCD_Layer_0
10
26.008080
20
4.799170
30
0.0
11
23.318325
21
4.319412
31
0.0
0
LINE
8
MCD_Layer_0
10
23.328068
20
4.264165
30
0.0
11
23.205124
21
4.241572
31
0.0
0
LINE
8
MCD_Layer_0
10
23.195259
20
4.297509
30
0.0
11
22.072880
21
4.097268
31
0.0
0
LINE
8
MCD_Layer_0
10
22.083820
20
4.035225
30
0.0
11
21.991570
21
4.018248
31
0.0
0
LINE
8
MCD_Layer_0
10
21.980522
20
4.080880
30
0.0
11
20.959938
21
3.898790
31
0.0
0
LINE
8
MCD_Layer_0
10
20.971970
20
3.830544
30
0.0
11
20.879814
21
3.813583
31
0.0
0
LINE
8
MCD_Layer_0
10
20.867695
20
3.882323
30
0.0
11
20.413166
21
3.801264
31
0.0
0
LINE
8
MCD_Layer_0
10
20.541336
20
3.656013
30
0.0
11
26.614342
21
4.773557
31
0.0
0
LINE
8
MCD_Layer_0
10
27.551136
20
4.618271
30
0.0
11
23.404106
21
3.832916
31
0.0
0
LINE
8
MCD_Layer_0
10
23.418415
20
3.751768
30
0.0
11
23.295696
21
3.727895
31
0.0
0
LINE
8
MCD_Layer_0
10
23.281284
20
3.809634
30
0.0
11
22.161007
21
3.597478
31
0.0
0
LINE
8
MCD_Layer_0
10
22.176411
20
3.510124
30
0.0
11
22.084312
21
3.492261
31
0.0
0
LINE
8
MCD_Layer_0
10
22.068840
20
3.580008
30
0.0
11
21.050163
21
3.387085
31
0.0
0
LINE
8
MCD_Layer_0
10
21.066540
20
3.294217
30
0.0
11
20.974560
21
3.276273
31
0.0
0
LINE
8
MCD_Layer_0
10
20.958096
20
3.369633
30
0.0
11
20.037186
21
3.195270
31
0.0
0
LINE
8
MCD_Layer_0
10
20.054462
20
3.097280
30
0.0
11
19.962463
21
3.079433
31
0.0
0
LINE
8
MCD_Layer_0
10
19.945118
20
3.177816
30
0.0
11
19.058800
21
3.009959
31
0.0
0
LINE
8
MCD_Layer_0
10
19.076927
20
2.907145
30
0.0
11
18.984848
21
2.889183
31
0.0
0
LINE
8
MCD_Layer_0
10
18.966633
20
2.992489
30
0.0
11
18.114895
21
2.831237
31
0.0
0
LINE
8
MCD_Layer_0
10
18.133873
20
2.723597
30
0.0
11
18.041779
21
2.705733
31
0.0
0
LINE
8
MCD_Layer_0
10
18.022728
20
2.813767
30
0.0
11
17.263073
21
2.669868
31
0.0
0
LINE
8
MCD_Layer_0
10
17.282803
20
2.557994
30
0.0
11
17.190804
21
2.540148
31
0.0
0
LINE
8
MCD_Layer_0
10
17.171005
20
2.652415
30
0.0
11
16.457321
21
2.517333
31
0.0
0
LINE
8
MCD_Layer_0
10
16.477760
20
2.401422
30
0.0
11
16.385777
21
2.383475
31
0.0
0
LINE
8
MCD_Layer_0
10
16.365253
20
2.499880
30
0.0
11
15.686082
21
2.371188
31
0.0
0
LINE
8
MCD_Layer_0
10
15.707179
20
2.251534
30
0.0
11
15.615197
21
2.233589
31
0.0
0
LINE
8
MCD_Layer_0
10
15.593995
20
2.353833
30
0.0
11
14.972396
21
2.236106
31
0.0
0
LINE
8
MCD_Layer_0
10
14.994136
20
2.112808
30
0.0
11
14.902155
21
2.094864
31
0.0
0
LINE
8
MCD_Layer_0
10
14.880328
20
2.218653
30
0.0
11
14.270232
21
2.103055
31
0.0
0
LINE
8
MCD_Layer_0
10
14.292581
20
1.976311
30
0.0
11
14.200600
21
1.958365
31
0.0
0
LINE
8
MCD_Layer_0
10
14.178146
20
2.085701
30
0.0
11
13.625622
21
1.981067
31
0.0
0
LINE
8
MCD_Layer_0
10
13.648561
20
1.850973
30
0.0
11
13.556580
21
1.833029
31
0.0
0
LINE
8
MCD_Layer_0
10
13.533554
20
1.963614
30
0.0
11
13.400506
21
1.938428
31
0.0
0
LINE
8
MCD_Layer_0
10
13.184630
20
1.897520
30
0.0
11
13.055818
21
1.873080
31
0.0
0
LINE
8
MCD_Layer_0
10
13.079243
20
1.740231
30
0.0
11
12.987261
21
1.722285
31
0.0
0
LINE
8
MCD_Layer_0
10
12.963749
20
1.855628
30
0.0
11
12.468795
21
1.761956
31
0.0
0
LINE
8
MCD_Layer_0
10
12.492759
20
1.626054
30
0.0
11
12.400761
21
1.608207
31
0.0
0
LINE
8
MCD_Layer_0
10
12.376728
20
1.744504
30
0.0
11
11.916271
21
1.657321
31
0.0
0
LINE
8
MCD_Layer_0
10
11.940721
20
1.518661
30
0.0
11
11.848722
21
1.500814
31
0.0
0
LINE
8
MCD_Layer_0
10
11.824203
20
1.639870
30
0.0
11
11.386739
21
1.557046
31
0.0
0
LINE
8
MCD_Layer_0
10
11.411657
20
1.415727
30
0.0
11
11.319659
21
1.397880
31
0.0
0
LINE
8
MCD_Layer_0
10
11.294671
20
1.539594
30
0.0
11
10.891803
21
1.463277
31
0.0
0
LINE
8
MCD_Layer_0
10
10.917138
20
1.319593
30
0.0
11
10.825156
21
1.301648
31
0.0
0
LINE
8
MCD_Layer_0
10
10.799734
20
1.445825
30
0.0
11
10.442852
21
1.378225
31
0.0
0
LINE
8
MCD_Layer_0
10
10.468586
20
1.232277
30
0.0
11
10.376587
21
1.214430
31
0.0
0
LINE
8
MCD_Layer_0
10
10.350766
20
1.360870
30
0.0
11
10.005486
21
1.295420
31
0.0
0
LINE
8
MCD_Layer_0
10
10.031602
20
1.147305
30
0.0
11
9.939523
21
1.129342
31
0.0
0
LINE
8
MCD_Layer_0
10
9.913320
20
1.277950
30
0.0
11
9.579527
21
1.214726
31
0.0
0
LINE
8
MCD_Layer_0
10
9.606026
20
1.064445
30
0.0
11
9.514027
21
1.046599
31
0.0
0
LINE
8
MCD_Layer_0
10
9.487441
20
1.197373
30
0.0
11
9.199732
21
1.142884
31
0.0
0
LINE
8
MCD_Layer_0
10
9.226578
20
0.990633
30
0.0
11
9.134480
21
0.972769
31
0.0
0
LINE
8
MCD_Layer_0
10
9.107565
20
1.125414
30
0.0
11
8.854353
21
1.077415
31
0.0
0
LINE
8
MCD_Layer_0
10
8.881495
20
0.923491
30
0.0
11
8.789495
21
0.905643
31
0.0
0
LINE
8
MCD_Layer_0
10
8.042905
20
0.923775
30
0.0
11
8.070758
21
0.765812
31
0.0
0
LINE
8
MCD_Layer_0
10
7.978679
20
0.747849
30
0.0
11
7.950739
21
0.906305
31
0.0
0
LINE
8
MCD_Layer_0
10
7.294641
20
0.782088
30
0.0
11
7.323171
21
0.620284
31
0.0
0
LINE
8
MCD_Layer_0
10
7.231074
20
0.602420
30
0.0
11
7.202474
21
0.764618
31
0.0
0
LINE
8
MCD_Layer_0
10
6.114821
20
0.558619
30
0.0
11
6.144377
21
0.391005
31
0.0
0
LINE
8
MCD_Layer_0
10
6.052297
20
0.373042
30
0.0
11
6.022655
21
0.541150
31
0.0
0
LINE
8
MCD_Layer_0
10
5.366557
20
0.416933
30
0.0
11
5.396789
21
0.245477
31
0.0
0
LINE
8
MCD_Layer_0
10
5.304692
20
0.227612
30
0.0
11
5.274391
21
0.399463
31
0.0
0
LINE
8
MCD_Layer_0
10
4.208057
20
0.197527
30
0.0
11
4.204850
21
0.013576
31
0.0
0
LINE
8
MCD_Layer_0
10
4.110785
20
-0.004635
30
0.0
11
4.114017
21
0.179728
31
0.0
0
LINE
8
MCD_Layer_0
10
3.443972
20
0.052847
30
0.0
11
3.440656
21
-0.135084
31
0.0
0
LINE
8
MCD_Layer_0
10
3.346607
20
-0.153395
30
0.0
11
3.349836
21
0.035030
31
0.0
0
LINE
8
MCD_Layer_0
10
3.016535
20
-0.028105
30
0.0
11
3.055988
21
-0.251854
31
0.0
0
LINE
8
MCD_Layer_0
10
2.962480
20
-0.261133
30
0.0
11
2.924467
21
-0.045557
31
0.0
0
LINE
8
MCD_Layer_0
10
2.737830
20
1.012914
30
0.0
11
2.767472
21
0.844807
31
0.0
0
LINE
8
MCD_Layer_0
10
2.859731
20
0.861176
30
0.0
11
2.830175
21
1.028790
31
0.0
0
LINE
8
MCD_Layer_0
10
3.368837
20
1.121638
30
0.0
11
3.365830
21
0.951531
31
0.0
0
LINE
8
MCD_Layer_0
10
3.459960
20
0.968231
30
0.0
11
3.462858
21
1.137811
31
0.0
0
LINE
8
MCD_Layer_0
10
4.132797
20
1.253198
30
0.0
11
4.129879
21
1.087776
31
0.0
0
LINE
8
MCD_Layer_0
10
4.223893
20
1.104557
30
0.0
11
4.226801
21
1.269467
31
0.0
0
LINE
8
MCD_Layer_0
10
5.094630
20
1.418936
30
0.0
11
5.121841
21
1.264615
31
0.0
0
LINE
8
MCD_Layer_0
10
5.214180
20
1.281100
30
0.0
11
5.187057
21
1.434928
31
0.0
0
LINE
8
MCD_Layer_0
10
5.845065
20
1.548311
30
0.0
11
5.871512
21
1.398326
31
0.0
0
LINE
8
MCD_Layer_0
10
5.963852
20
1.414811
30
0.0
11
5.937510
21
1.564206
31
0.0
0
LINE
8
MCD_Layer_0
10
7.028339
20
1.752184
30
0.0
11
7.053554
21
1.609188
31
0.0
0
LINE
8
MCD_Layer_0
10
7.145894
20
1.625673
30
0.0
11
7.120784
21
1.768078
31
0.0
0
LINE
8
MCD_Layer_0
10
7.778792
20
1.881462
30
0.0
11
7.803225
21
1.742899
31
0.0
0
LINE
8
MCD_Layer_0
10
7.895564
20
1.759384
30
0.0
11
7.871236
21
1.897357
31
0.0
0
LINE
8
MCD_Layer_0
10
8.616299
20
1.887890
30
0.0
11
8.708541
21
1.904358
31
0.0
0
LINE
8
MCD_Layer_0
10
8.685046
20
2.037603
30
0.0
11
8.939005
21
2.081367
31
0.0
0
LINE
8
MCD_Layer_0
10
8.962238
20
1.949600
30
0.0
11
9.054580
21
1.966084
31
0.0
0
LINE
8
MCD_Layer_0
10
9.031432
20
2.097361
30
0.0
11
9.319992
21
2.147022
31
0.0
0
LINE
8
MCD_Layer_0
10
9.342844
20
2.017423
30
0.0
11
9.435086
21
2.033891
31
0.0
0
LINE
8
MCD_Layer_0
10
9.412338
20
2.162900
30
0.0
11
9.747103
21
2.220608
31
0.0
0
LINE
8
MCD_Layer_0
10
9.769504
20
2.093568
30
0.0
11
9.861844
21
2.110052
31
0.0
0
LINE
8
MCD_Layer_0
10
9.839530
20
2.236600
30
0.0
11
10.185835
21
2.296243
31
0.0
0
LINE
8
MCD_Layer_0
10
10.207801
20
2.171663
30
0.0
11
10.300043
21
2.188131
31
0.0
0
LINE
8
MCD_Layer_0
10
10.278181
20
2.312119
30
0.0
11
10.636106
21
2.373809
31
0.0
0
LINE
8
MCD_Layer_0
10
10.657603
20
2.251889
30
0.0
11
10.749846
21
2.268357
31
0.0
0
LINE
8
MCD_Layer_0
10
10.728452
20
2.389687
30
0.0
11
11.132501
21
2.459306
31
0.0
0
LINE
8
MCD_Layer_0
10
11.153478
20
2.340341
30
0.0
11
11.245719
21
2.356809
31
0.0
0
LINE
8
MCD_Layer_0
10
11.224829
20
2.475282
30
0.0
11
11.663578
21
2.550818
31
0.0
0
LINE
8
MCD_Layer_0
10
11.683999
20
2.435003
30
0.0
11
11.776241
21
2.451471
31
0.0
0
LINE
8
MCD_Layer_0
10
11.755907
20
2.566792
30
0.0
11
12.217718
21
2.646294
31
0.0
0
LINE
8
MCD_Layer_0
10
12.237566
20
2.533729
30
0.0
11
12.329807
21
2.550197
31
0.0
0
LINE
8
MCD_Layer_0
10
12.310046
20
2.662269
30
0.0
11
12.806441
21
2.747766
31
0.0
0
LINE
8
MCD_Layer_0
10
12.825699
20
2.638550
30
0.0
11
12.917941
21
2.655018
31
0.0
0
LINE
8
MCD_Layer_0
10
12.898770
20
2.763741
30
0.0
11
13.013192
21
2.783409
31
0.0
0
LINE
8
MCD_Layer_0
10
13.257500
20
2.825471
30
0.0
11
13.377913
21
2.846297
31
0.0
0
LINE
8
MCD_Layer_0
10
13.396580
20
2.740430
30
0.0
11
13.488822
21
2.756898
31
0.0
0
LINE
8
MCD_Layer_0
10
13.470260
20
2.862174
30
0.0
11
14.024399
21
2.957650
31
0.0
0
LINE
8
MCD_Layer_0
10
14.042389
20
2.855623
30
0.0
11
14.134648
21
2.871993
31
0.0
0
LINE
8
MCD_Layer_0
10
14.116745
20
2.973527
30
0.0
11
14.728628
21
3.078982
31
0.0
0
LINE
8
MCD_Layer_0
10
14.745890
20
2.981091
30
0.0
11
14.838148
21
2.997461
31
0.0
0
LINE
8
MCD_Layer_0
10
14.820974
20
3.094859
30
0.0
11
15.444380
21
3.202344
31
0.0
0
LINE
8
MCD_Layer_0
10
15.460912
20
3.108591
30
0.0
11
15.553153
21
3.125058
31
0.0
0
LINE
8
MCD_Layer_0
10
15.536726
20
3.218222
30
0.0
11
16.217896
21
3.335588
31
0.0
0
LINE
8
MCD_Layer_0
10
16.233627
20
3.246364
30
0.0
11
16.325871
21
3.262832
31
0.0
0
LINE
8
MCD_Layer_0
10
16.310223
20
3.351563
30
0.0
11
17.025993
21
3.474828
31
0.0
0
LINE
8
MCD_Layer_0
10
17.040890
20
3.390331
30
0.0
11
17.133133
21
3.406798
31
0.0
0
LINE
8
MCD_Layer_0
10
17.118320
20
3.490804
30
0.0
11
17.880215
21
3.621999
31
0.0
0
LINE
8
MCD_Layer_0
10
17.894226
20
3.542524
30
0.0
11
17.986568
21
3.559010
31
0.0
0
LINE
8
MCD_Layer_0
10
17.972641
20
3.637991
30
0.0
11
18.826862
21
3.785161
31
0.0
0
LINE
8
MCD_Layer_0
10
18.839905
20
3.711202
30
0.0
11
18.932243
21
3.727687
31
0.0
0
LINE
8
MCD_Layer_0
10
18.919308
20
3.801055
30
0.0
11
19.808212
21
3.954239
31
0.0
0
LINE
8
MCD_Layer_0
10
19.820244
20
3.885992
30
0.0
11
19.912487
21
3.902459
31
0.0
0
LINE
8
MCD_Layer_0
10
19.900558
20
3.970116
30
0.0
11
20.824142
21
4.129313
31
0.0
0
LINE
8
MCD_Layer_0
10
20.835136
20
4.066976
30
0.0
11
20.927380
21
4.083443
31
0.0
0
LINE
8
MCD_Layer_0
10
20.916489
20
4.145190
30
0.0
11
21.938137
21
4.321273
31
0.0
0
LINE
8
MCD_Layer_0
10
21.947964
20
4.265532
30
0.0
11
22.040321
21
4.281919
31
0.0
0
LINE
8
MCD_Layer_0
10
22.030579
20
4.337167
30
0.0
11
23.154121
21
4.530810
31
0.0
0
LINE
8
MCD_Layer_0
10
23.162701
20
4.482160
30
0.0
11
23.285767
21
4.504064
31
0.0
0
LINE
8
MCD_Layer_0
10
23.277309
20
4.552023
30
0.0
11
25.238434
21
4.889901
31
0.0
0
LINE
8
MCD_Layer_0
10
20.306671
20
3.612809
30
0.0
11
18.576672
21
3.294461
31
0.0
0
LINE
8
MCD_Layer_0
10
18.469719
20
3.454722
30
0.0
11
18.872463
21
3.526549
31
0.0
0
LINE
8
MCD_Layer_0
10
18.886528
20
3.446780
30
0.0
11
18.978783
21
3.463758
31
0.0
0
LINE
8
MCD_Layer_0
10
18.964802
20
3.543035
30
0.0
11
19.852806
21
3.701340
31
0.0
0
LINE
8
MCD_Layer_0
10
19.865898
20
3.627086
30
0.0
11
19.958054
21
3.644046
31
0.0
0
LINE
8
MCD_Layer_0
10
19.945045
20
3.717807
30
0.0
11
20.376038
21
3.794717
31
0.0
0
LINE
8
MCD_Layer_0
10
18.354202
20
3.253508
30
0.0
11
16.841171
21
2.975041
31
0.0
0
LINE
8
MCD_Layer_0
10
16.749554
20
3.147960
30
0.0
11
17.073452
21
3.205681
31
0.0
0
LINE
8
MCD_Layer_0
10
17.089252
20
3.116062
30
0.0
11
17.181408
21
3.133022
31
0.0
0
LINE
8
MCD_Layer_0
10
17.165691
20
3.222148
30
0.0
11
17.926788
21
3.357872
31
0.0
0
LINE
8
MCD_Layer_0
10
17.941757
20
3.272982
30
0.0
11
18.034008
21
3.289960
31
0.0
0
LINE
8
MCD_Layer_0
10
18.019127
20
3.374357
30
0.0
11
18.398354
21
3.441936
31
0.0
0
LINE
8
MCD_Layer_0
10
16.358429
20
3.078181
30
0.0
11
16.374924
21
2.984623
31
0.0
0
LINE
8
MCD_Layer_0
10
16.282768
20
2.967664
30
0.0
11
16.266186
21
3.061713
31
0.0
0
LINE
8
MCD_Layer_0
10
15.585713
20
2.940408
30
0.0
11
15.602973
21
2.842517
31
0.0
0
LINE
8
MCD_Layer_0
10
15.510818
20
2.825557
30
0.0
11
15.493470
21
2.923940
31
0.0
0
LINE
8
MCD_Layer_0
10
14.870708
20
2.812809
30
0.0
11
14.888645
21
2.711080
31
0.0
0
LINE
8
MCD_Layer_0
10
14.796491
20
2.694118
30
0.0
11
14.778448
21
2.796440
31
0.0
0
LINE
8
MCD_Layer_0
10
14.167207
20
2.687343
30
0.0
11
14.185822
21
2.581770
31
0.0
0
LINE
8
MCD_Layer_0
10
14.093667
20
2.564810
30
0.0
11
14.074947
21
2.670973
31
0.0
0
LINE
8
MCD_Layer_0
10
13.521381
20
2.572248
30
0.0
11
13.540639
21
2.463031
31
0.0
0
LINE
8
MCD_Layer_0
10
13.448483
20
2.446071
30
0.0
11
13.429139
21
2.555779
31
0.0
0
LINE
8
MCD_Layer_0
10
12.950500
20
2.470366
30
0.0
11
12.970296
21
2.358097
31
0.0
0
LINE
8
MCD_Layer_0
10
12.878140
20
2.341138
30
0.0
11
12.858257
21
2.453898
31
0.0
0
LINE
8
MCD_Layer_0
10
12.362366
20
2.365545
30
0.0
11
12.382752
21
2.249928
31
0.0
0
LINE
8
MCD_Layer_0
10
12.290598
20
2.232968
30
0.0
11
12.270124
21
2.349078
31
0.0
0
LINE
8
MCD_Layer_0
10
11.808800
20
2.266820
30
0.0
11
11.829724
21
2.148150
31
0.0
0
LINE
8
MCD_Layer_0
10
11.737570
20
2.131190
30
0.0
11
11.716558
21
2.250353
31
0.0
0
LINE
8
MCD_Layer_0
10
11.278277
20
2.172158
30
0.0
11
11.299706
21
2.050632
31
0.0
0
LINE
8
MCD_Layer_0
10
11.207552
20
2.033671
30
0.0
11
11.186036
21
2.155690
31
0.0
0
LINE
8
MCD_Layer_0
10
10.782404
20
2.083707
30
0.0
11
10.804301
21
1.959521
31
0.0
0
LINE
8
MCD_Layer_0
10
10.712146
20
1.942561
30
0.0
11
10.690163
21
2.067238
31
0.0
0
LINE
8
MCD_Layer_0
10
10.332603
20
2.003480
30
0.0
11
10.354934
21
1.876834
31
0.0
0
LINE
8
MCD_Layer_0
10
10.262778
20
1.859873
30
0.0
11
10.240360
21
1.987013
31
0.0
0
LINE
8
MCD_Layer_0
10
9.894403
20
1.925401
30
0.0
11
9.917185
21
1.796194
31
0.0
0
LINE
8
MCD_Layer_0
10
9.824932
20
1.779217
30
0.0
11
9.802063
21
1.908916
31
0.0
0
LINE
8
MCD_Layer_0
10
2.505165
20
-1.085977
30
0.0
11
2.361510
21
-1.068861
31
0.0
0
LINE
8
MCD_Layer_0
10
9.166688
20
2.588001
30
0.0
11
8.384839
21
2.458264
31
0.0
0
LINE
8
MCD_Layer_0
10
8.227641
20
2.397849
30
0.0
11
7.491967
21
2.275745
31
0.0
0
LINE
8
MCD_Layer_0
10
7.256066
20
2.236689
30
0.0
11
5.549803
21
1.953597
31
0.0
0
LINE
8
MCD_Layer_0
10
5.326934
20
1.916636
30
0.0
11
3.882213
21
1.676921
31
0.0
0
LINE
8
MCD_Layer_0
10
3.700285
20
1.646771
30
0.0
11
2.578855
21
1.460711
31
0.0
0
LINE
8
MCD_Layer_0
10
2.504078
20
1.337148
30
0.0
11
2.675648
21
1.365572
31
0.0
0
LINE
8
MCD_Layer_0
10
2.702494
20
1.213321
30
0.0
11
2.794839
21
1.229198
31
0.0
0
LINE
8
MCD_Layer_0
10
2.768097
20
1.380858
30
0.0
11
3.375126
21
1.481598
31
0.0
0
LINE
8
MCD_Layer_0
10
3.372435
20
1.328708
30
0.0
11
3.466553
21
1.344897
31
0.0
0
LINE
8
MCD_Layer_0
10
3.469151
20
1.497162
30
0.0
11
3.691116
21
1.534065
31
0.0
0
LINE
8
MCD_Layer_0
10
3.927313
20
1.573176
30
0.0
11
4.138935
21
1.608256
31
0.0
0
LINE
8
MCD_Layer_0
10
4.136378
20
1.460365
30
0.0
11
4.230398
21
1.476538
31
0.0
0
LINE
8
MCD_Layer_0
10
4.232945
20
1.623919
30
0.0
11
5.035034
21
1.756920
31
0.0
0
LINE
8
MCD_Layer_0
10
5.059293
20
1.619344
30
0.0
11
5.151720
21
1.635336
31
0.0
0
LINE
8
MCD_Layer_0
10
5.127565
20
1.772323
30
0.0
11
5.350925
21
1.809372
31
0.0
0
LINE
8
MCD_Layer_0
10
5.561663
20
1.844296
30
0.0
11
5.786303
21
1.881572
31
0.0
0
LINE
8
MCD_Layer_0
10
5.809728
20
1.748721
30
0.0
11
5.902172
21
1.764614
31
0.0
0
LINE
8
MCD_Layer_0
10
5.878834
20
1.896974
30
0.0
11
6.970880
21
2.078055
31
0.0
0
LINE
8
MCD_Layer_0
10
6.993002
20
1.952592
30
0.0
11
7.085447
21
1.968486
31
0.0
0
LINE
8
MCD_Layer_0
10
7.063411
20
2.093458
30
0.0
11
7.300593
21
2.132741
31
0.0
0
LINE
8
MCD_Layer_0
10
7.483292
20
2.163127
30
0.0
11
7.722148
21
2.202706
31
0.0
0
LINE
8
MCD_Layer_0
10
7.743455
20
2.081870
30
0.0
11
7.835898
21
2.097765
31
0.0
0
LINE
8
MCD_Layer_0
10
7.814696
20
2.218010
30
0.0
11
8.188895
21
2.280132
31
0.0
0
LINE
8
MCD_Layer_0
10
2.986703
20
-0.398514
30
0.0
11
3.014227
21
-0.554605
31
0.0
0
LINE
8
MCD_Layer_0
10
2.577562
20
-0.631601
30
0.0
11
2.180411
21
1.620752
31
0.0
0
LINE
8
MCD_Layer_0
10
2.617076
20
1.697748
30
0.0
11
2.640309
21
1.565981
31
0.0
0
LINE
8
MCD_Layer_0
10
2.732742
20
1.581365
30
0.0
11
2.709352
21
1.714019
31
0.0
0
LINE
8
MCD_Layer_0
10
2.600805
20
1.790024
30
0.0
11
2.095401
21
1.700908
31
0.0
0
LINE
8
MCD_Layer_0
10
9.375403
20
1.832770
30
0.0
11
9.398672
21
1.700806
31
0.0
0
LINE
8
MCD_Layer_0
10
9.490828
20
1.717767
30
0.0
11
9.467646
21
1.849239
31
0.0
0
LINE
8
MCD_Layer_0
10
9.110703
20
1.647796
30
0.0
11
9.087138
21
1.781434
31
0.0
0
LINE
8
MCD_Layer_0
10
3.078684
20
-0.380569
30
0.0
11
3.106503
21
-0.538335
31
0.0
0
LINE
8
MCD_Layer_0
10
3.030497
20
-0.646881
30
0.0
11
2.752190
21
-0.695954
31
0.0
0
LINE
8
MCD_Layer_0
10
2.723600
20
-0.758978
30
0.0
11
3.292229
21
-0.826868
31
0.0
0
LINE
8
MCD_Layer_0
10
4.127230
20
-0.926587
30
0.0
11
5.113456
21
-1.044318
31
0.0
0
LINE
8
MCD_Layer_0
10
5.054755
20
-1.390369
30
0.0
11
4.182211
21
-1.286201
31
0.0
0
LINE
8
MCD_Layer_0
10
3.154079
20
-1.163470
30
0.0
11
2.606716
21
-1.098126
31
0.0
0
LINE
8
MCD_Layer_0
10
7.354006
20
0.451170
30
0.0
11
7.562126
21
0.491725
31
0.0
0
LINE
8
MCD_Layer_0
10
7.800097
20
0.538052
30
0.0
11
8.008234
21
0.578509
31
0.0
0
LINE
8
MCD_Layer_0
10
3.388328
20
1.690057
30
0.0
11
3.490921
21
1.707132
31
0.0
0
LINE
8
MCD_Layer_0
10
4.064907
20
1.802350
30
0.0
11
4.167519
21
1.819325
31
0.0
0
LINE
8
MCD_Layer_0
10
2.109770
20
1.301536
30
0.0
11
1.667591
21
1.223568
31
0.0
0
LINE
8
MCD_Layer_0
10
1.615131
20
1.521078
30
0.0
11
2.057310
21
1.599047
31
0.0
0
LINE
8
MCD_Layer_0
10
2.179003
20
0.908895
30
0.0
11
2.126058
21
1.209161
31
0.0
0
LINE
8
MCD_Layer_0
10
2.247750
20
0.519007
30
0.0
11
1.805572
21
0.441039
31
0.0
0
LINE
8
MCD_Layer_0
10
1.753113
20
0.738549
30
0.0
11
2.195292
21
0.816518
31
0.0
0
LINE
8
MCD_Layer_0
10
2.316481
20
0.129220
30
0.0
11
2.264021
21
0.426731
31
0.0
0
LINE
8
MCD_Layer_0
10
2.385714
20
-0.263422
30
0.0
11
2.332768
21
0.036846
31
0.0
0
LINE
8
MCD_Layer_0
10
2.454461
20
-0.653307
30
0.0
11
2.012282
21
-0.731276
31
0.0
0
LINE
8
MCD_Layer_0
10
1.959824
20
-0.433765
30
0.0
11
2.402002
21
-0.355798
31
0.0
0
LINE
8
MCD_Layer_0
10
5.499956
20
-1.284045
30
0.0
11
5.453768
21
-1.292190
31
0.0
0
LINE
8
MCD_Layer_0
10
5.073948
20
-1.298236
30
0.0
11
2.072621
21
-0.939866
31
0.0
0
LINE
8
MCD_Layer_0
10
1.153517
20
-2.773220
30
0.0
11
0.561582
21
-3.557322
31
0.0
0
LINE
8
MCD_Layer_0
10
0.465563
20
-3.490174
30
0.0
11
0.999922
21
-2.665759
31
0.0
0
LINE
8
MCD_Layer_0
10
1.062016
20
-2.372927
30
0.0
11
1.000205
21
-2.461203
31
0.0
0
LINE
8
MCD_Layer_0
10
1.193536
20
-2.552722
30
0.0
11
1.345656
21
-2.703091
31
0.0
0
LINE
8
MCD_Layer_0
10
1.407468
20
-2.614816
30
0.0
11
1.255345
21
-2.464447
31
0.0
0
LINE
8
MCD_Layer_0
10
3.247631
20
-1.174594
30
0.0
11
3.396802
21
-1.192464
31
0.0
0
LINE
8
MCD_Layer_0
10
3.939487
20
-1.257211
30
0.0
11
4.088659
21
-1.275078
31
0.0
0
LINE
8
MCD_Layer_0
10
3.414948
20
-0.841581
30
0.0
11
4.004509
21
-0.911872
31
0.0
0
LINE
8
MCD_Layer_0
10
5.592233
20
-1.267775
30
0.0
11
5.565108
21
-1.113946
31
0.0
0
LINE
8
MCD_Layer_0
10
8.286560
20
1.829022
30
0.0
11
8.194574
21
1.812600
31
0.0
0
LINE
8
MCD_Layer_0
10
8.401796
20
1.166751
30
0.0
11
8.310101
21
1.149369
31
0.0
0
LINE
8
MCD_Layer_0
10
8.186626
20
1.951724
30
0.0
11
7.871236
21
1.897357
31
0.0
0
LINE
8
MCD_Layer_0
10
-0.765499
20
6.953199
30
0.0
11
-0.698500
21
7.027802
31
0.0
0
LINE
8
MCD_Layer_0
10
-0.444798
20
6.846699
30
0.0
11
-0.493799
21
6.784100
31
0.0
0
LINE
8
MCD_Layer_0
10
0.058201
20
5.274399
30
0.0
11
0.206699
21
6.008200
31
0.0
0
LINE
8
MCD_Layer_0
10
2.302101
20
2.028200
30
0.0
11
2.326000
21
1.582600
31
0.0
0
LINE
8
MCD_Layer_0
10
2.203100
20
5.532700
30
0.0
11
2.170099
21
5.523800
31
0.0
0
LINE
8
MCD_Layer_0
10
1.415701
20
4.743299
30
0.0
11
1.258301
21
4.759600
31
0.0
0
LINE
8
MCD_Layer_0
10
1.204700
20
4.765200
30
0.0
11
1.084301
21
4.082001
31
0.0
0
LINE
8
MCD_Layer_0
10
-0.282400
20
4.323000
30
0.0
11
-0.150499
21
5.070900
31
0.0
0
LINE
8
MCD_Layer_0
10
0.011200
20
5.042400
30
0.0
11
0.031702
21
5.143499
31
0.0
0
LINE
8
MCD_Layer_0
10
-0.643398
20
6.762501
30
0.0
11
-0.599400
21
6.826302
31
0.0
0
LINE
8
MCD_Layer_0
10
-0.671000
20
6.882200
30
0.0
11
-0.725000
21
6.820599
31
0.0
0
LINE
8
MCD_Layer_0
10
0.719101
20
1.831200
30
0.0
11
-0.709101
21
2.083000
31
0.0
0
LINE
8
MCD_Layer_0
10
-0.427500
20
2.318699
30
0.0
11
-0.342699
21
2.303699
31
0.0
0
LINE
8
MCD_Layer_0
10
-0.371901
20
2.118999
30
0.0
11
-0.454397
21
2.133500
31
0.0
0
LINE
8
MCD_Layer_0
10
-0.275099
20
2.291800
30
0.0
11
-0.189699
21
2.276800
31
0.0
0
LINE
8
MCD_Layer_0
10
-0.217400
20
2.091800
30
0.0
11
-0.302900
21
2.106800
31
0.0
0
LINE
8
MCD_Layer_0
10
-0.093800
20
2.259800
30
0.0
11
-0.008499
21
2.244800
31
0.0
0
LINE
8
MCD_Layer_0
10
-0.036699
20
2.059900
30
0.0
11
-0.122002
21
2.074900
31
0.0
0
LINE
8
MCD_Layer_0
10
0.146301
20
2.027599
30
0.0
11
0.175600
21
2.207300
31
0.0
0
LINE
8
MCD_Layer_0
10
0.090302
20
2.222400
30
0.0
11
0.061100
21
2.042600
31
0.0
0
LINE
8
MCD_Layer_0
10
0.261499
20
2.197200
30
0.0
11
0.346901
21
2.182100
31
0.0
0
LINE
8
MCD_Layer_0
10
0.315500
20
1.997800
30
0.0
11
0.230101
21
2.012800
31
0.0
0
LINE
8
MCD_Layer_0
10
0.433201
20
2.166900
30
0.0
11
0.518501
21
2.151900
31
0.0
0
LINE
8
MCD_Layer_0
10
0.485401
20
2.348600
30
0.0
11
0.677198
21
2.314800
31
0.0
0
LINE
8
MCD_Layer_0
10
0.776400
20
2.877499
30
0.0
11
-0.405098
21
3.085899
31
0.0
0
LINE
8
MCD_Layer_0
10
-0.504299
20
2.523100
30
0.0
11
0.485401
21
2.348600
31
0.0
0
LINE
8
MCD_Layer_0
10
0.520700
20
2.658501
30
0.0
11
0.548801
21
2.822201
31
0.0
0
LINE
8
MCD_Layer_0
10
0.634100
20
2.807199
30
0.0
11
0.606001
21
2.643499
31
0.0
0
LINE
8
MCD_Layer_0
10
0.434502
20
2.673700
30
0.0
11
0.462400
21
2.837399
31
0.0
0
LINE
8
MCD_Layer_0
10
0.377100
20
2.852501
30
0.0
11
0.349201
21
2.688700
31
0.0
0
LINE
8
MCD_Layer_0
10
0.265200
20
2.703499
30
0.0
11
0.292000
21
2.867500
31
0.0
0
LINE
8
MCD_Layer_0
10
0.206699
20
2.882500
30
0.0
11
0.179998
21
2.718599
31
0.0
0
LINE
8
MCD_Layer_0
10
0.082102
20
2.735800
30
0.0
11
0.107000
21
2.900099
31
0.0
0
LINE
8
MCD_Layer_0
10
0.021702
20
2.915100
30
0.0
11
-0.003201
21
2.750900
31
0.0
0
LINE
8
MCD_Layer_0
10
-0.098700
20
2.767700
30
0.0
11
-0.074200
21
2.932100
31
0.0
0
LINE
8
MCD_Layer_0
10
-0.159500
20
2.947100
30
0.0
11
-0.184099
21
2.782799
31
0.0
0
LINE
8
MCD_Layer_0
10
-0.253000
20
2.794899
30
0.0
11
-0.227100
21
2.959000
31
0.0
0
LINE
8
MCD_Layer_0
10
-0.086899
20
4.199900
30
0.0
11
-0.001699
21
4.183800
31
0.0
0
LINE
8
MCD_Layer_0
10
-0.166300
20
3.234600
30
0.0
11
-0.251600
21
3.249701
31
0.0
0
LINE
8
MCD_Layer_0
10
0.081501
20
4.167999
30
0.0
11
0.166599
21
4.151901
31
0.0
0
LINE
8
MCD_Layer_0
10
0.003500
20
3.204700
30
0.0
11
-0.081900
21
3.219799
31
0.0
0
LINE
8
MCD_Layer_0
10
0.239201
20
4.138100
30
0.0
11
0.324301
21
4.121901
31
0.0
0
LINE
8
MCD_Layer_0
10
0.165699
20
3.176100
30
0.0
11
0.080400
21
3.191200
31
0.0
0
LINE
8
MCD_Layer_0
10
0.404701
20
4.106800
30
0.0
11
0.489799
21
4.090601
31
0.0
0
LINE
8
MCD_Layer_0
10
0.338200
20
3.145700
30
0.0
11
0.252901
21
3.160700
31
0.0
0
LINE
8
MCD_Layer_0
10
0.582001
20
4.073101
30
0.0
11
0.667099
21
4.056999
31
0.0
0
LINE
8
MCD_Layer_0
10
0.517302
20
3.114100
30
0.0
11
0.431801
21
3.129200
31
0.0
0
LINE
8
MCD_Layer_0
10
0.747900
20
4.041599
30
0.0
11
0.821602
21
4.027700
31
0.0
0
LINE
8
MCD_Layer_0
10
0.675600
20
3.086201
30
0.0
11
0.593401
21
3.100700
31
0.0
0
LINE
8
MCD_Layer_0
10
-0.481298
20
3.194799
30
0.0
11
-0.613201
21
2.446899
31
0.0
0
LINE
8
MCD_Layer_0
10
0.753500
20
2.205900
30
0.0
11
0.885302
21
2.953800
31
0.0
0
LINE
8
MCD_Layer_0
10
-0.173500
20
4.399300
30
0.0
11
-0.074299
21
4.962000
31
0.0
0
LINE
8
MCD_Layer_0
10
0.117498
20
4.928200
30
0.0
11
1.107201
21
4.753700
31
0.0
0
LINE
8
MCD_Layer_0
10
0.856001
20
4.481899
30
0.0
11
0.830101
21
4.317799
31
0.0
0
LINE
8
MCD_Layer_0
10
0.762499
20
4.329700
30
0.0
11
0.787100
21
4.493999
31
0.0
0
LINE
8
MCD_Layer_0
10
0.701601
20
4.509100
30
0.0
11
0.677099
21
4.344700
31
0.0
0
LINE
8
MCD_Layer_0
10
0.581200
20
4.361599
30
0.0
11
0.606201
21
4.525900
31
0.0
0
LINE
8
MCD_Layer_0
10
0.520800
20
4.541000
30
0.0
11
0.495901
21
4.376699
31
0.0
0
LINE
8
MCD_Layer_0
10
0.396301
20
4.394199
30
0.0
11
0.422901
21
4.558201
31
0.0
0
LINE
8
MCD_Layer_0
10
0.337700
20
4.573200
30
0.0
11
0.310999
21
4.409300
31
0.0
0
LINE
8
MCD_Layer_0
10
0.225901
20
4.424299
30
0.0
11
0.253700
21
4.588100
31
0.0
0
LINE
8
MCD_Layer_0
10
0.168398
20
4.603100
30
0.0
11
0.140499
21
4.439301
31
0.0
0
LINE
8
MCD_Layer_0
10
0.054201
20
4.454599
30
0.0
11
0.082302
21
4.618299
31
0.0
0
LINE
8
MCD_Layer_0
10
-0.003000
20
4.633301
30
0.0
11
-0.031099
21
4.469601
31
0.0
0
LINE
8
MCD_Layer_0
10
0.956402
20
4.875700
30
0.0
11
2.005800
21
11.265900
31
0.0
0
LINE
8
MCD_Layer_0
10
2.525602
20
11.885502
30
0.0
11
2.658602
21
11.809900
31
0.0
0
LINE
8
MCD_Layer_0
10
2.719700
20
11.868801
30
0.0
11
2.750000
21
12.063301
31
0.0
0
LINE
8
MCD_Layer_0
10
2.640699
20
12.073900
30
0.0
11
2.540800
21
12.033100
31
0.0
0
LINE
8
MCD_Layer_0
10
2.441502
20
12.398399
30
0.0
11
2.574501
21
12.322800
31
0.0
0
LINE
8
MCD_Layer_0
10
2.635601
20
12.381701
30
0.0
11
2.665899
21
12.576200
31
0.0
0
LINE
8
MCD_Layer_0
10
2.556501
20
12.586800
30
0.0
11
2.456701
21
12.546001
31
0.0
0
LINE
8
MCD_Layer_0
10
2.436602
20
12.905800
30
0.0
11
2.569700
21
12.830200
31
0.0
0
LINE
8
MCD_Layer_0
10
2.630798
20
12.889200
30
0.0
11
2.661098
21
13.083599
31
0.0
0
LINE
8
MCD_Layer_0
10
2.551702
20
13.094200
30
0.0
11
2.451902
21
13.053400
31
0.0
0
LINE
8
MCD_Layer_0
10
1.547401
20
13.200699
30
0.0
11
1.465700
21
13.271099
31
0.0
0
LINE
8
MCD_Layer_0
10
1.358603
20
13.295700
30
0.0
11
1.325602
21
13.101700
31
0.0
0
LINE
8
MCD_Layer_0
10
1.364901
20
13.026402
30
0.0
11
1.515001
21
13.055901
31
0.0
0
LINE
8
MCD_Layer_0
10
1.381800
20
12.721001
30
0.0
11
1.300100
21
12.791401
31
0.0
0
LINE
8
MCD_Layer_0
10
1.192999
20
12.816000
30
0.0
11
1.160000
21
12.622000
31
0.0
0
LINE
8
MCD_Layer_0
10
1.199301
20
12.546700
30
0.0
11
1.349401
21
12.576200
31
0.0
0
LINE
8
MCD_Layer_0
10
1.139301
20
12.261299
30
0.0
11
1.057602
21
12.331699
31
0.0
0
LINE
8
MCD_Layer_0
10
0.950500
20
12.356300
30
0.0
11
0.917500
21
12.162300
31
0.0
0
LINE
8
MCD_Layer_0
10
0.956800
20
12.087000
30
0.0
11
1.106901
21
12.116501
31
0.0
0
LINE
8
MCD_Layer_0
10
1.423601
20
11.360699
30
0.0
11
0.139200
21
5.019800
31
0.0
0
LINE
8
MCD_Layer_0
10
0.865799
20
5.089800
30
0.0
11
0.294500
21
5.198200
31
0.0
0
LINE
8
MCD_Layer_0
10
0.311399
20
5.283199
30
0.0
11
0.880100
21
5.175200
31
0.0
0
LINE
8
MCD_Layer_0
10
0.906700
20
5.335499
30
0.0
11
0.343201
21
5.442499
31
0.0
0
LINE
8
MCD_Layer_0
10
0.360201
20
5.527401
30
0.0
11
0.921000
21
5.421000
31
0.0
0
LINE
8
MCD_Layer_0
10
0.939602
20
5.533100
30
0.0
11
0.953800
21
5.618599
31
0.0
0
LINE
8
MCD_Layer_0
10
0.399500
20
5.723900
30
0.0
11
0.382500
21
5.638901
31
0.0
0
LINE
8
MCD_Layer_0
10
0.982302
20
5.789400
30
0.0
11
0.433401
21
5.893600
31
0.0
0
LINE
8
MCD_Layer_0
10
0.450401
20
5.978600
30
0.0
11
0.996500
21
5.874901
31
0.0
0
LINE
8
MCD_Layer_0
10
1.030302
20
6.077801
30
0.0
11
0.490700
21
6.180300
31
0.0
0
LINE
8
MCD_Layer_0
10
0.507601
20
6.265200
30
0.0
11
1.044502
21
6.163300
31
0.0
0
LINE
8
MCD_Layer_0
10
1.071100
20
6.323399
30
0.0
11
0.539402
21
6.424400
31
0.0
0
LINE
8
MCD_Layer_0
10
0.556402
20
6.509300
30
0.0
11
1.085402
21
6.408899
31
0.0
0
LINE
8
MCD_Layer_0
10
0.633799
20
6.896900
30
0.0
11
1.150200
21
6.798800
31
0.0
0
LINE
8
MCD_Layer_0
10
1.164499
20
6.884300
30
0.0
11
0.650600
21
6.981800
31
0.0
0
LINE
8
MCD_Layer_0
10
0.692999
20
7.194099
30
0.0
11
0.709999
21
7.279100
31
0.0
0
LINE
8
MCD_Layer_0
10
1.214199
20
7.183399
30
0.0
11
1.200100
21
7.097900
31
0.0
0
LINE
8
MCD_Layer_0
10
0.733799
20
7.399401
30
0.0
11
1.235201
21
7.304199
31
0.0
0
LINE
8
MCD_Layer_0
10
1.250000
20
7.389599
30
0.0
11
0.750700
21
7.484402
31
0.0
0
LINE
8
MCD_Layer_0
10
1.315601
20
7.769199
30
0.0
11
0.825401
21
7.862301
31
0.0
0
LINE
8
MCD_Layer_0
10
0.808500
20
7.777302
30
0.0
11
1.300900
21
7.683800
31
0.0
0
LINE
8
MCD_Layer_0
10
0.870998
20
8.092699
30
0.0
11
0.887798
21
8.177700
31
0.0
0
LINE
8
MCD_Layer_0
10
1.370499
20
8.086102
30
0.0
11
1.355701
21
8.000698
31
0.0
0
LINE
8
MCD_Layer_0
10
1.417900
20
8.360500
30
0.0
11
1.432701
21
8.445801
31
0.0
0
LINE
8
MCD_Layer_0
10
0.958603
20
8.535801
30
0.0
11
0.941801
21
8.450899
31
0.0
0
LINE
8
MCD_Layer_0
10
1.469601
20
8.669899
30
0.0
11
1.483799
21
8.755400
31
0.0
0
LINE
8
MCD_Layer_0
10
1.021603
20
8.843201
30
0.0
11
1.004200
21
8.758301
31
0.0
0
LINE
8
MCD_Layer_0
10
1.550701
20
9.162300
30
0.0
11
1.564800
21
9.247700
31
0.0
0
LINE
8
MCD_Layer_0
10
1.121700
20
9.331902
30
0.0
11
1.104301
21
9.247000
31
0.0
0
LINE
8
MCD_Layer_0
10
1.204399
20
9.735600
30
0.0
11
1.631901
21
9.654400
31
0.0
0
LINE
8
MCD_Layer_0
10
1.617798
20
9.568901
30
0.0
11
1.187099
21
9.650700
31
0.0
0
LINE
8
MCD_Layer_0
10
1.300999
20
10.206799
30
0.0
11
1.318300
21
10.291698
31
0.0
0
LINE
8
MCD_Layer_0
10
1.724100
20
10.214600
30
0.0
11
1.709999
21
10.129101
31
0.0
0
LINE
8
MCD_Layer_0
10
1.387300
20
10.628300
30
0.0
11
1.779999
21
10.553699
31
0.0
0
LINE
8
MCD_Layer_0
10
1.793999
20
10.639301
30
0.0
11
1.404701
21
10.713200
31
0.0
0
LINE
8
MCD_Layer_0
10
1.461800
20
10.991501
30
0.0
11
1.479200
21
11.076401
31
0.0
0
LINE
8
MCD_Layer_0
10
1.854301
20
11.005199
30
0.0
11
1.840302
21
10.919701
31
0.0
0
LINE
8
MCD_Layer_0
10
1.541702
20
11.381701
30
0.0
11
1.905102
21
11.312698
31
0.0
0
LINE
8
MCD_Layer_0
10
1.919102
20
11.398201
30
0.0
11
1.559002
21
11.466599
31
0.0
0
LINE
8
MCD_Layer_0
10
2.079000
20
11.634800
30
0.0
11
1.468500
21
11.742500
31
0.0
0
LINE
8
MCD_Layer_0
10
0.000000
20
27.000000
30
0.0
11
0.000000
21
28.000000
31
0.0
0
LINE
8
MCD_Layer_0
10
2.000000
20
27.000000
30
0.0
11
2.000000
21
28.000000
31
0.0
0
LINE
8
MCD_Layer_0
10
4.000000
20
27.000000
30
0.0
11
4.000000
21
28.000000
31
0.0
0
LINE
8
MCD_Layer_0
10
6.000000
20
27.000000
30
0.0
11
6.000000
21
28.000000
31
0.0
0
LINE
8
MCD_Layer_0
10
8.000000
20
27.000000
30
0.0
11
8.000000
21
28.000000
31
0.0
0
LINE
8
MCD_Layer_0
10
10.000000
20
27.000000
30
0.0
11
10.000000
21
28.000000
31
0.0
0
LINE
8
MCD_Layer_0
10
12.000000
20
27.000000
30
0.0
11
12.000000
21
28.000000
31
0.0
0
LINE
8
MCD_Layer_0
10
12.000000
20
27.000000
30
0.0
11
0.000000
21
27.000000
31
0.0
0
ARC
8
MCD_Layer_0
10
8.915129
20
30.117052
40
0.193886
50
217.217067
51
315.042095
0
ARC
8
MCD_Layer_0
10
10.039248
20
30.277406
40
0.215344
50
251.899281
51
8.403959
0
ARC
8
MCD_Layer_0
10
11.298670
20
31.068526
40
0.879738
50
252.322938
51
292.947200
0
ARC
8
MCD_Layer_0
10
12.973469
20
30.091124
40
0.193665
50
224.899912
51
322.842844
0
ARC
8
MCD_Layer_0
10
13.235952
20
30.146939
40
0.190744
50
247.685644
51
344.929058
0
ARC
8
MCD_Layer_0
10
12.218132
20
35.898534
40
1.699966
50
293.158509
51
325.211250
0
ARC
8
MCD_Layer_0
10
13.174581
20
33.614713
40
1.699783
50
80.229158
51
145.220166
0
ARC
8
MCD_Layer_0
10
12.218890
20
35.894193
40
1.695608
50
260.176377
51
285.120340
0
ARC
8
MCD_Layer_0
10
11.687519
20
31.717678
40
2.196474
50
81.137174
51
87.715346
0
ARC
8
MCD_Layer_0
10
11.188301
20
33.696860
40
0.156733
50
109.043927
51
196.583637
0
ARC
8
MCD_Layer_0
10
10.614106
20
33.618740
40
0.372777
50
7.019303
51
54.512589
0
ARC
8
MCD_Layer_0
10
10.349418
20
32.776429
40
1.231891
50
78.968609
51
107.757146
0
ARC
8
MCD_Layer_0
10
10.032470
20
33.636598
40
0.336562
50
133.018265
51
169.763899
0
ARC
8
MCD_Layer_0
10
9.293227
20
29.954969
40
2.904463
50
82.177839
51
91.298023
0
ARC
8
MCD_Layer_0
10
9.670585
20
35.923564
40
1.699372
50
254.883975
51
279.774740
0
ARC
8
MCD_Layer_0
10
8.714035
20
33.639860
40
1.700260
50
34.794468
51
99.768110
0
ARC
8
MCD_Layer_0
10
8.464634
20
35.086660
40
0.231866
50
157.238891
51
214.825423
0
ARC
8
MCD_Layer_0
10
9.299472
20
29.890602
40
2.969523
50
95.974097
51
99.817689
0
ARC
8
MCD_Layer_0
10
9.068779
20
34.863773
40
0.037419
50
107.524246
51
219.764221
0
ARC
8
MCD_Layer_0
10
9.371670
20
34.772621
40
0.027498
50
286.379202
51
41.802976
0
ARC
8
MCD_Layer_0
10
11.520084
20
31.257298
40
1.193183
50
181.616516
51
193.105076
0
ARC
8
MCD_Layer_0
10
9.177449
20
25.549233
40
5.960112
50
92.033818
51
93.009318
0
ARC
8
MCD_Layer_0
10
9.174193
20
25.673364
40
5.903715
50
91.671376
51
93.059642
0
ARC
8
MCD_Layer_0
10
9.287733
20
29.985815
40
2.805881
50
95.844762
51
98.750259
0
ARC
8
MCD_Layer_0
10
9.188290
20
25.501866
40
6.075418
50
85.417449
51
89.631542
0
ARC
8
MCD_Layer_0
10
8.797986
20
21.633230
40
9.963758
50
83.947417
51
84.404381
0
ARC
8
MCD_Layer_0
10
11.099760
20
31.238782
40
1.289048
50
169.428294
51
200.020400
0
ARC
8
MCD_Layer_0
10
11.098996
20
31.238682
40
1.220803
50
160.610499
51
194.013958
0
ARC
8
MCD_Layer_0
10
11.290867
20
31.470030
40
0.854386
50
116.160741
51
125.796546
0
ARC
8
MCD_Layer_0
10
10.924742
20
31.298200
40
1.107827
50
111.686576
51
129.856742
0
ARC
8
MCD_Layer_0
10
11.133568
20
31.256711
40
1.050639
50
326.883562
51
54.068893
0
ARC
8
MCD_Layer_0
10
11.445835
20
31.256428
40
1.050779
50
125.834832
51
234.063436
0
ARC
8
MCD_Layer_0
10
11.289795
20
31.472054
40
0.852146
50
88.242049
51
111.288120
0
ARC
8
MCD_Layer_0
10
10.338248
20
33.563358
40
0.962783
50
239.613342
51
307.094181
0
ARC
8
MCD_Layer_0
10
10.421234
20
32.148140
40
0.962613
50
59.610239
51
127.104934
0
ARC
8
MCD_Layer_0
10
10.541820
20
33.596877
40
0.379855
50
8.659702
51
41.740205
0
ARC
8
MCD_Layer_0
10
10.031909
20
33.636881
40
0.268205
50
135.114762
51
168.577206
0
ARC
8
MCD_Layer_0
10
10.422431
20
32.146059
40
1.032515
50
117.331282
51
126.694948
0
ARC
8
MCD_Layer_0
10
10.403188
20
32.103113
40
1.072730
50
82.029077
51
109.710402
0
ARC
8
MCD_Layer_0
10
10.419917
20
32.144540
40
1.033910
50
61.241878
51
77.652490
0
ARC
8
MCD_Layer_0
10
11.188438
20
33.696816
40
0.089330
50
109.109973
51
228.185058
0
ARC
8
MCD_Layer_0
10
11.976385
20
33.703317
40
0.123635
50
8.979474
51
73.451302
0
ARC
8
MCD_Layer_0
10
11.978415
20
32.895573
40
0.128356
50
302.693076
51
66.007104
0
ARC
8
MCD_Layer_0
10
11.450528
20
33.894332
40
1.322460
50
267.099773
51
272.030146
0
ARC
8
MCD_Layer_0
10
11.287978
20
31.463252
40
0.861122
50
75.926352
51
83.623515
0
ARC
8
MCD_Layer_0
10
11.452340
20
33.906824
40
1.334857
50
273.821062
51
281.715417
0
ARC
8
MCD_Layer_0
10
11.455739
20
33.881089
40
1.308890
50
292.501616
51
300.972043
0
ARC
8
MCD_Layer_0
10
11.133500
20
31.256718
40
1.118198
50
355.651952
51
57.200775
0
ARC
8
MCD_Layer_0
10
12.370621
20
33.251529
40
0.209672
50
47.146299
51
130.607027
0
ARC
8
MCD_Layer_0
10
12.370392
20
33.250992
40
0.277668
50
78.743477
51
97.407572
0
ARC
8
MCD_Layer_0
10
10.426545
20
31.600143
40
1.893073
50
325.922297
51
341.767634
0
ARC
8
MCD_Layer_0
10
11.848119
20
30.242548
40
0.139274
50
187.119654
51
273.959567
0
ARC
8
MCD_Layer_0
10
12.751211
20
34.549497
40
0.333870
50
75.556342
51
139.467830
0
ARC
8
MCD_Layer_0
10
12.370648
20
33.216376
40
0.278040
50
264.057751
51
282.718981
0
ARC
8
MCD_Layer_0
10
12.366839
20
33.221229
40
0.284287
50
297.843117
51
309.211391
0
ARC
8
MCD_Layer_0
10
12.706887
20
34.619229
40
0.096945
50
166.775691
51
241.920856
0
ARC
8
MCD_Layer_0
10
12.517067
20
34.746999
40
0.095093
50
138.251298
51
253.533628
0
ARC
8
MCD_Layer_0
10
12.819791
20
34.838087
40
0.104956
50
320.273132
51
72.509470
0
ARC
8
MCD_Layer_0
10
12.823328
20
34.667155
40
0.082480
50
320.113480
51
56.875357
0
ARC
8
MCD_Layer_0
10
12.218004
20
35.898825
40
1.632528
50
294.176991
51
325.206844
0
ARC
8
MCD_Layer_0
10
13.174710
20
33.613896
40
1.632847
50
80.236858
51
145.199705
0
ARC
8
MCD_Layer_0
10
12.218049
20
35.898179
40
1.631887
50
260.226858
51
285.759008
0
ARC
8
MCD_Layer_0
10
9.137516
20
34.575476
40
0.401074
50
40.499640
51
104.472632
0
ARC
8
MCD_Layer_0
10
8.464954
20
35.086722
40
0.164396
50
99.784629
51
214.795186
0
ARC
8
MCD_Layer_0
10
9.919727
20
34.477612
40
0.164382
50
279.754173
51
34.797941
0
ARC
8
MCD_Layer_0
10
11.446309
20
31.256720
40
1.118815
50
197.684770
51
236.671634
0
ARC
8
MCD_Layer_0
10
8.555156
20
30.216830
40
0.169272
50
180.671405
51
302.962754
0
ARC
8
MCD_Layer_0
10
11.848051
20
30.242506
40
0.206998
50
175.594582
51
287.416311
0
ARC
8
MCD_Layer_0
10
13.423660
20
35.061095
40
0.232110
50
325.196227
51
80.229838
0
ARC
8
MCD_Layer_0
10
11.968821
20
34.451953
40
0.231850
50
145.188626
51
260.258679
0
ARC
8
MCD_Layer_0
10
12.369972
20
33.250354
40
0.278728
50
50.687470
51
63.957577
0
ARC
8
MCD_Layer_0
10
11.976310
20
33.703262
40
0.191215
50
10.517826
51
74.960268
0
ARC
8
MCD_Layer_0
10
11.686090
20
31.693915
40
2.220276
50
87.702951
51
104.166363
0
ARC
8
MCD_Layer_0
10
10.311664
20
32.543371
40
1.467887
50
77.886600
51
79.262849
0
ARC
8
MCD_Layer_0
10
10.360507
20
32.711230
40
1.297400
50
107.345379
51
115.456241
0
ARC
8
MCD_Layer_0
10
9.919762
20
34.477583
40
0.232078
50
279.757894
51
34.815933
0
ARC
8
MCD_Layer_0
10
8.464762
20
35.086925
40
0.231882
50
99.731214
51
157.311362
0
ARC
8
MCD_Layer_0
10
9.670145
20
35.923918
40
1.699605
50
214.787037
51
246.848750
0
ARC
8
MCD_Layer_0
10
9.137397
20
34.575103
40
0.333893
50
40.534689
51
104.441139
0
ARC
8
MCD_Layer_0
10
10.040615
20
30.268035
40
0.139137
50
265.987811
51
352.933749
0
ARC
8
MCD_Layer_0
10
8.915129
20
30.116901
40
0.126021
50
231.755912
51
301.041176
0
ARC
8
MCD_Layer_0
10
8.555193
20
30.216894
40
0.101597
50
197.420193
51
291.215394
0
ARC
8
MCD_Layer_0
10
10.926636
20
31.305369
40
1.103607
50
163.544795
51
167.648139
0
ARC
8
MCD_Layer_0
10
9.900557
20
31.872048
40
0.122307
50
140.245858
51
237.690054
0
ARC
8
MCD_Layer_0
10
10.944944
20
31.277817
40
1.134013
50
134.719103
51
154.427850
0
ARC
8
MCD_Layer_0
10
10.177231
20
33.205585
40
0.646252
50
230.884515
51
260.712093
0
ARC
8
MCD_Layer_0
10
9.292444
20
29.935518
40
2.856373
50
81.632584
51
91.305623
0
ARC
8
MCD_Layer_0
10
9.185786
20
25.439631
40
6.070205
50
83.883281
51
89.607588
0
ARC
8
MCD_Layer_0
10
10.059008
20
31.251079
40
0.072909
50
35.212191
51
86.640810
0
ARC
8
MCD_Layer_0
10
11.445994
20
31.256359
40
1.118430
50
125.839823
51
178.116539
0
ARC
8
MCD_Layer_0
10
10.922975
20
31.300972
40
1.037053
50
111.655303
51
156.493334
0
ARC
8
MCD_Layer_0
10
10.338276
20
33.563616
40
1.030555
50
258.945794
51
294.236311
0
ARC
8
MCD_Layer_0
10
11.289779
20
31.472240
40
0.784454
50
54.069756
51
125.822499
0
ARC
8
MCD_Layer_0
10
11.298589
20
31.068947
40
0.812617
50
234.711444
51
331.620461
0
ARC
8
MCD_Layer_0
10
10.299603
20
33.539539
40
1.006869
50
301.721090
51
309.982853
0
ARC
8
MCD_Layer_0
10
11.313665
20
33.313709
40
0.094959
50
130.610053
51
202.502033
0
ARC
8
MCD_Layer_0
10
11.373778
20
33.433296
40
0.103592
50
78.995945
51
160.159923
0
ARC
8
MCD_Layer_0
10
9.906837
20
32.827916
40
0.110146
50
127.023971
51
239.685096
0
ARC
8
MCD_Layer_0
10
10.852370
20
32.883360
40
0.110306
50
307.113538
51
59.592914
0
ARC
8
MCD_Layer_0
10
10.361865
20
32.716299
40
1.224533
50
67.763957
51
76.823042
0
ARC
8
MCD_Layer_0
10
10.344520
20
32.704984
40
1.235187
50
80.332582
51
104.206092
0
ARC
8
MCD_Layer_0
10
10.364068
20
32.703463
40
1.238187
50
109.617094
51
114.944235
0
ARC
8
MCD_Layer_0
10
11.366907
20
33.434912
40
0.167111
50
85.203551
51
138.337157
0
ARC
8
MCD_Layer_0
10
11.685552
20
31.697382
40
2.149290
50
90.060578
51
104.175878
0
ARC
8
MCD_Layer_0
10
11.685582
20
31.697090
40
2.149608
50
81.276636
51
87.684879
0
ARC
8
MCD_Layer_0
10
11.761261
20
32.202302
40
0.921628
50
68.121471
51
89.306483
0
ARC
8
MCD_Layer_0
10
11.762009
20
32.202499
40
0.921493
50
94.901093
51
114.244449
0
ARC
8
MCD_Layer_0
10
11.451257
20
33.914084
40
1.274706
50
266.958190
51
297.900740
0
ARC
8
MCD_Layer_0
10
11.761549
20
32.203990
40
0.852425
50
71.600627
51
116.318646
0
ARC
8
MCD_Layer_0
10
11.278616
20
31.438155
40
0.887809
50
68.524315
51
72.789998
0
ARC
8
MCD_Layer_0
10
11.461060
20
33.880765
40
1.307497
50
283.545728
51
289.104104
0
ARC
8
MCD_Layer_0
10
11.978385
20
32.895554
40
0.195876
50
330.997037
51
34.526713
0
ARC
8
MCD_Layer_0
10
12.370615
20
33.215741
40
0.209900
50
229.448523
51
312.798152
0
ARC
8
MCD_Layer_0
10
12.973488
20
30.091270
40
0.126022
50
238.959141
51
308.243772
0
ARC
8
MCD_Layer_0
10
13.235894
20
30.147037
40
0.123099
50
265.401587
51
331.179239
0
ARC
8
MCD_Layer_0
10
12.819837
20
34.838140
40
0.037419
50
320.235700
51
72.476080
0
ARC
8
MCD_Layer_0
10
12.516944
20
34.746989
40
0.027497
50
138.193768
51
253.626315
0
ARC
8
MCD_Layer_0
10
12.751099
20
34.549847
40
0.401070
50
75.527111
51
139.500572
0
ARC
8
MCD_Layer_0
10
13.423664
20
35.061091
40
0.164395
50
325.204620
51
80.215717
0
ARC
8
MCD_Layer_0
10
11.968890
20
34.451980
40
0.164382
50
145.202059
51
260.245827
0
ARC
8
MCD_Layer_0
10
9.670566
20
35.923797
40
1.631873
50
254.240871
51
279.773271
0
ARC
8
MCD_Layer_0
10
9.182017
20
34.644732
40
0.096695
50
297.964550
51
13.338060
0
ARC
8
MCD_Layer_0
10
9.371552
20
34.772631
40
0.095092
50
286.465582
51
41.749213
0
ARC
8
MCD_Layer_0
10
9.068826
20
34.863719
40
0.104956
50
107.491194
51
219.726806
0
ARC
8
MCD_Layer_0
10
9.065288
20
34.692787
40
0.082480
50
123.124643
51
219.886520
0
ARC
8
MCD_Layer_0
10
9.670615
20
35.924460
40
1.632532
50
214.793222
51
245.822991
0
ARC
8
MCD_Layer_0
10
8.713906
20
33.639529
40
1.632846
50
34.800257
51
99.763150
0
CIRCLE
8
MCD_Layer_0
10
3.193400
20
-2.504820
40
0.276935
0
CIRCLE
8
MCD_Layer_0
10
2.409406
20
-3.725201
40
0.276935
0
CIRCLE
8
MCD_Layer_0
10
1.375000
20
1.187500
40
0.125000
0
CIRCLE
8
MCD_Layer_0
10
1.062500
20
2.312500
40
0.125000
0
CIRCLE
8
MCD_Layer_0
10
-0.632601
20
1.879100
40
0.105374
0
CIRCLE
8
MCD_Layer_0
10
0.576302
20
1.666000
40
0.105370
0
CIRCLE
8
MCD_Layer_0
10
0.534000
20
2.502800
40
0.072077
0
CIRCLE
8
MCD_Layer_0
10
0.369400
20
2.531200
40
0.072295
0
CIRCLE
8
MCD_Layer_0
10
0.204901
20
2.560200
40
0.072296
0
CIRCLE
8
MCD_Layer_0
10
0.040501
20
2.589199
40
0.072270
0
CIRCLE
8
MCD_Layer_0
10
-0.124001
20
2.618299
40
0.071982
0
CIRCLE
8
MCD_Layer_0
10
-0.288500
20
2.647301
40
0.072199
0
CIRCLE
8
MCD_Layer_0
10
0.069000
20
4.774000
40
0.072076
0
CIRCLE
8
MCD_Layer_0
10
0.233500
20
4.745499
40
0.072172
0
CIRCLE
8
MCD_Layer_0
10
0.397999
20
4.716499
40
0.072172
0
CIRCLE
8
MCD_Layer_0
10
0.562500
20
4.687500
40
0.072198
0
CIRCLE
8
MCD_Layer_0
10
0.726999
20
4.658501
40
0.072104
0
CIRCLE
8
MCD_Layer_0
10
0.891399
20
4.629499
40
0.072172
0
CIRCLE
8
MCD_Layer_0
10
0.987900
20
6.636799
40
0.099091
0
CIRCLE
8
MCD_Layer_0
10
0.708199
20
6.695400
40
0.093800
0
CIRCLE
8
MCD_Layer_0
10
1.022701
20
7.569599
40
0.090420
0
CIRCLE
8
MCD_Layer_0
10
1.157400
20
8.249699
40
0.090448
0
CIRCLE
8
MCD_Layer_0
10
1.281700
20
8.994400
40
0.096081
0
CIRCLE
8
MCD_Layer_0
10
1.472200
20
9.936699
40
0.091950
0
CIRCLE
8
MCD_Layer_0
10
1.404800
20
12.152599
40
0.079126
0
CIRCLE
8
MCD_Layer_0
10
1.614300
20
12.617599
40
0.079140
0
CIRCLE
8
MCD_Layer_0
10
1.756102
20
13.101200
40
0.079130
0
CIRCLE
8
MCD_Layer_0
10
2.222401
20
13.025299
40
0.079140
0
CIRCLE
8
MCD_Layer_0
10
2.203400
20
12.521700
40
0.079226
0
CIRCLE
8
MCD_Layer_0
10
2.285301
20
12.008801
40
0.079141
0
ENDSEC
0
EOF
