0
SECTION
2
ENTITIES
0
LINE
8
MCD_Layer_0
10
-8.919000
20
3.473198
30
0.0
11
-7.875000
21
3.473198
31
0.0
0
LINE
8
MCD_Layer_0
10
-7.875000
20
3.473198
30
0.0
11
-7.875000
21
3.854198
31
0.0
0
LINE
8
MCD_Layer_0
10
-7.875000
20
3.854198
30
0.0
11
-8.097000
21
3.854198
31
0.0
0
LINE
8
MCD_Layer_0
10
-8.097000
20
3.854198
30
0.0
11
-8.097000
21
4.694198
31
0.0
0
LINE
8
MCD_Layer_0
10
-8.031000
20
4.679198
30
0.0
11
-7.536000
21
3.899198
31
0.0
0
LINE
8
MCD_Layer_0
10
-6.249000
20
3.509198
30
0.0
11
-6.414000
21
3.860198
31
0.0
0
LINE
8
MCD_Layer_0
10
-7.077000
20
4.340198
30
0.0
11
-7.338000
21
4.817198
31
0.0
0
LINE
8
MCD_Layer_0
10
-7.893000
20
6.728198
30
0.0
11
-8.934000
21
6.728198
31
0.0
0
LINE
8
MCD_Layer_0
10
-8.934000
20
6.728198
30
0.0
11
-8.934000
21
6.347198
31
0.0
0
LINE
8
MCD_Layer_0
10
-8.934000
20
6.347198
30
0.0
11
-8.712000
21
6.347198
31
0.0
0
LINE
8
MCD_Layer_0
10
-8.712000
20
6.347198
30
0.0
11
-8.712000
21
3.854198
31
0.0
0
LINE
8
MCD_Layer_0
10
-8.712000
20
3.854198
30
0.0
11
-8.919000
21
3.854198
31
0.0
0
LINE
8
MCD_Layer_0
10
-8.919000
20
3.854198
30
0.0
11
-8.919000
21
3.473198
31
0.0
0
LINE
8
MCD_Layer_0
10
-8.793000
20
3.602198
30
0.0
11
-8.001000
21
3.602198
31
0.0
0
LINE
8
MCD_Layer_0
10
-8.001000
20
3.602198
30
0.0
11
-8.001000
21
3.728198
31
0.0
0
LINE
8
MCD_Layer_0
10
-8.001000
20
3.728198
30
0.0
11
-8.097000
21
3.728198
31
0.0
0
LINE
8
MCD_Layer_0
10
-8.223000
20
3.854198
30
0.0
11
-8.223000
21
4.817198
31
0.0
0
LINE
8
MCD_Layer_0
10
-7.953000
20
4.781198
30
0.0
11
-7.437000
21
3.965198
31
0.0
0
LINE
8
MCD_Layer_0
10
-6.408000
20
3.572198
30
0.0
11
-6.468000
21
3.707198
31
0.0
0
LINE
8
MCD_Layer_0
10
-7.095000
20
4.127198
30
0.0
11
-7.491000
21
4.862198
31
0.0
0
LINE
8
MCD_Layer_0
10
-8.019000
20
6.599198
30
0.0
11
-8.808000
21
6.599198
31
0.0
0
LINE
8
MCD_Layer_0
10
-8.808000
20
6.599198
30
0.0
11
-8.808000
21
6.473198
31
0.0
0
LINE
8
MCD_Layer_0
10
-8.808000
20
6.473198
30
0.0
11
-8.712000
21
6.473198
31
0.0
0
LINE
8
MCD_Layer_0
10
-8.586000
20
6.347198
30
0.0
11
-8.586000
21
3.854198
31
0.0
0
LINE
8
MCD_Layer_0
10
-8.712000
20
3.728198
30
0.0
11
-8.793000
21
3.728198
31
0.0
0
LINE
8
MCD_Layer_0
10
-8.793000
20
3.728198
30
0.0
11
-8.793000
21
3.602198
31
0.0
0
LINE
8
MCD_Layer_0
10
-8.223000
20
5.036198
30
0.0
11
-8.223000
21
6.347198
31
0.0
0
LINE
8
MCD_Layer_0
10
-8.223000
20
6.347198
30
0.0
11
-7.971000
21
6.347198
31
0.0
0
LINE
8
MCD_Layer_0
10
-8.097000
20
5.141198
30
0.0
11
-7.950000
21
5.141198
31
0.0
0
LINE
8
MCD_Layer_0
10
-8.097000
20
6.221198
30
0.0
11
-7.971000
21
6.221198
31
0.0
0
LINE
8
MCD_Layer_0
10
-8.097000
20
6.221198
30
0.0
11
-8.097000
21
5.141198
31
0.0
0
LINE
8
MCD_Layer_0
10
-1.039827
20
3.404198
30
0.0
11
-1.963827
21
6.209198
31
0.0
0
LINE
8
MCD_Layer_0
10
-2.155827
20
6.347198
30
0.0
11
-2.296827
21
6.347198
31
0.0
0
LINE
8
MCD_Layer_0
10
-2.296827
20
6.347198
30
0.0
11
-2.296827
21
6.728198
31
0.0
0
LINE
8
MCD_Layer_0
10
-2.296827
20
6.728198
30
0.0
11
-1.144827
21
6.728198
31
0.0
0
LINE
8
MCD_Layer_0
10
-1.144827
20
6.728198
30
0.0
11
-1.144827
21
6.347198
31
0.0
0
LINE
8
MCD_Layer_0
10
-1.144827
20
6.347198
30
0.0
11
-1.384827
21
6.347198
31
0.0
0
LINE
8
MCD_Layer_0
10
-1.384827
20
6.347198
30
0.0
11
-0.829827
21
4.706198
31
0.0
0
LINE
8
MCD_Layer_0
10
-0.829827
20
4.706198
30
0.0
11
-0.253827
21
6.347198
31
0.0
0
LINE
8
MCD_Layer_0
10
-0.253827
20
6.347198
30
0.0
11
-0.484826
21
6.347198
31
0.0
0
LINE
8
MCD_Layer_0
10
-0.484826
20
6.347198
30
0.0
11
-0.484826
21
6.728198
31
0.0
0
LINE
8
MCD_Layer_0
10
-0.484826
20
6.728198
30
0.0
11
0.526174
21
6.728198
31
0.0
0
LINE
8
MCD_Layer_0
10
0.526174
20
6.728198
30
0.0
11
0.526174
21
6.347198
31
0.0
0
LINE
8
MCD_Layer_0
10
0.526174
20
6.347198
30
0.0
11
0.394173
21
6.347198
31
0.0
0
LINE
8
MCD_Layer_0
10
0.205173
20
6.212198
30
0.0
11
-0.778827
21
3.404198
31
0.0
0
LINE
8
MCD_Layer_0
10
-0.778827
20
3.404198
30
0.0
11
-1.039827
21
3.404198
31
0.0
0
LINE
8
MCD_Layer_0
10
-0.946827
20
3.530198
30
0.0
11
-1.840827
21
6.230198
31
0.0
0
LINE
8
MCD_Layer_0
10
-2.107827
20
6.473198
30
0.0
11
-2.170827
21
6.473198
31
0.0
0
LINE
8
MCD_Layer_0
10
-2.170827
20
6.473198
30
0.0
11
-2.170827
21
6.602198
31
0.0
0
LINE
8
MCD_Layer_0
10
-2.170827
20
6.602198
30
0.0
11
-1.255827
21
6.602198
31
0.0
0
LINE
8
MCD_Layer_0
10
-1.255827
20
6.602198
30
0.0
11
-1.255827
21
6.473198
31
0.0
0
LINE
8
MCD_Layer_0
10
-1.255827
20
6.473198
30
0.0
11
-1.348827
21
6.473198
31
0.0
0
LINE
8
MCD_Layer_0
10
-1.483827
20
6.281198
30
0.0
11
-0.835827
21
4.340198
31
0.0
0
LINE
8
MCD_Layer_0
10
-0.835827
20
4.340198
30
0.0
11
-0.136827
21
6.311198
31
0.0
0
LINE
8
MCD_Layer_0
10
-0.250827
20
6.473198
30
0.0
11
-0.358826
21
6.473198
31
0.0
0
LINE
8
MCD_Layer_0
10
-0.358826
20
6.473198
30
0.0
11
-0.358826
21
6.602198
31
0.0
0
LINE
8
MCD_Layer_0
10
-0.358826
20
6.602198
30
0.0
11
0.400173
21
6.602198
31
0.0
0
LINE
8
MCD_Layer_0
10
0.400173
20
6.602198
30
0.0
11
0.400173
21
6.473198
31
0.0
0
LINE
8
MCD_Layer_0
10
0.400173
20
6.473198
30
0.0
11
0.337173
21
6.473198
31
0.0
0
LINE
8
MCD_Layer_0
10
0.100173
20
6.284198
30
0.0
11
-0.859827
21
3.530198
31
0.0
0
LINE
8
MCD_Layer_0
10
-0.859827
20
3.530198
30
0.0
11
-0.946827
21
3.530198
31
0.0
0
LINE
8
MCD_Layer_0
10
1.294500
20
3.473198
30
0.0
11
3.331500
21
3.473198
31
0.0
0
LINE
8
MCD_Layer_0
10
3.331500
20
3.473198
30
0.0
11
3.331500
21
4.277198
31
0.0
0
LINE
8
MCD_Layer_0
10
3.331500
20
4.277198
30
0.0
11
2.953500
21
4.277198
31
0.0
0
LINE
8
MCD_Layer_0
10
2.953500
20
4.277198
30
0.0
11
2.953500
21
4.040198
31
0.0
0
LINE
8
MCD_Layer_0
10
2.890500
20
3.977198
30
0.0
11
2.116500
21
3.977198
31
0.0
0
LINE
8
MCD_Layer_0
10
2.116500
20
3.977198
30
0.0
11
2.116500
21
5.099198
31
0.0
0
LINE
8
MCD_Layer_0
10
2.116500
20
5.099198
30
0.0
11
2.527500
21
5.099198
31
0.0
0
LINE
8
MCD_Layer_0
10
2.527500
20
5.099198
30
0.0
11
2.527500
21
4.895198
31
0.0
0
LINE
8
MCD_Layer_0
10
2.527500
20
4.895198
30
0.0
11
2.920500
21
4.895198
31
0.0
0
LINE
8
MCD_Layer_0
10
2.920500
20
4.895198
30
0.0
11
2.920500
21
5.777198
31
0.0
0
LINE
8
MCD_Layer_0
10
2.920500
20
5.777198
30
0.0
11
2.527500
21
5.777198
31
0.0
0
LINE
8
MCD_Layer_0
10
2.527500
20
5.777198
30
0.0
11
2.527500
21
5.588198
31
0.0
0
LINE
8
MCD_Layer_0
10
2.527500
20
5.588198
30
0.0
11
2.101500
21
5.588198
31
0.0
0
LINE
8
MCD_Layer_0
10
2.101500
20
5.588198
30
0.0
11
2.101500
21
6.221198
31
0.0
0
LINE
8
MCD_Layer_0
10
2.101500
20
6.221198
30
0.0
11
2.716500
21
6.221198
31
0.0
0
LINE
8
MCD_Layer_0
10
2.716500
20
6.221198
30
0.0
11
2.716500
21
5.969198
31
0.0
0
LINE
8
MCD_Layer_0
10
2.716500
20
5.969198
30
0.0
11
3.112500
21
5.969198
31
0.0
0
LINE
8
MCD_Layer_0
10
3.112500
20
5.969198
30
0.0
11
3.112500
21
6.725198
31
0.0
0
LINE
8
MCD_Layer_0
10
3.112500
20
6.725198
30
0.0
11
1.279500
21
6.725198
31
0.0
0
LINE
8
MCD_Layer_0
10
1.279500
20
6.725198
30
0.0
11
1.279500
21
6.347198
31
0.0
0
LINE
8
MCD_Layer_0
10
1.279500
20
6.347198
30
0.0
11
1.501500
21
6.347198
31
0.0
0
LINE
8
MCD_Layer_0
10
1.501500
20
6.347198
30
0.0
11
1.501500
21
3.851198
31
0.0
0
LINE
8
MCD_Layer_0
10
1.501500
20
3.851198
30
0.0
11
1.294500
21
3.851198
31
0.0
0
LINE
8
MCD_Layer_0
10
1.294500
20
3.851198
30
0.0
11
1.294500
21
3.473198
31
0.0
0
LINE
8
MCD_Layer_0
10
1.420500
20
3.599198
30
0.0
11
3.205500
21
3.599198
31
0.0
0
LINE
8
MCD_Layer_0
10
3.205500
20
3.599198
30
0.0
11
3.205500
21
4.151198
31
0.0
0
LINE
8
MCD_Layer_0
10
3.205500
20
4.151198
30
0.0
11
3.079500
21
4.151198
31
0.0
0
LINE
8
MCD_Layer_0
10
3.079500
20
4.151198
30
0.0
11
3.079500
21
3.977198
31
0.0
0
LINE
8
MCD_Layer_0
10
2.953500
20
3.851198
30
0.0
11
1.990500
21
3.851198
31
0.0
0
LINE
8
MCD_Layer_0
10
1.990500
20
3.851198
30
0.0
11
1.990500
21
5.225198
31
0.0
0
LINE
8
MCD_Layer_0
10
1.990500
20
5.225198
30
0.0
11
2.527500
21
5.225198
31
0.0
0
LINE
8
MCD_Layer_0
10
2.653500
20
5.099198
30
0.0
11
2.653500
21
5.021198
31
0.0
0
LINE
8
MCD_Layer_0
10
2.653500
20
5.021198
30
0.0
11
2.794500
21
5.021198
31
0.0
0
LINE
8
MCD_Layer_0
10
2.794500
20
5.021198
30
0.0
11
2.794500
21
5.669198
31
0.0
0
LINE
8
MCD_Layer_0
10
2.794500
20
5.669198
30
0.0
11
2.653500
21
5.669198
31
0.0
0
LINE
8
MCD_Layer_0
10
2.653500
20
5.669198
30
0.0
11
2.653500
21
5.588198
31
0.0
0
LINE
8
MCD_Layer_0
10
2.527500
20
5.462198
30
0.0
11
1.975500
21
5.462198
31
0.0
0
LINE
8
MCD_Layer_0
10
1.975500
20
5.462198
30
0.0
11
1.975500
21
6.347198
31
0.0
0
LINE
8
MCD_Layer_0
10
1.975500
20
6.347198
30
0.0
11
2.716500
21
6.347198
31
0.0
0
LINE
8
MCD_Layer_0
10
2.842500
20
6.221198
30
0.0
11
2.842500
21
6.095198
31
0.0
0
LINE
8
MCD_Layer_0
10
2.842500
20
6.095198
30
0.0
11
2.983500
21
6.095198
31
0.0
0
LINE
8
MCD_Layer_0
10
2.983500
20
6.095198
30
0.0
11
2.983500
21
6.599198
31
0.0
0
LINE
8
MCD_Layer_0
10
2.983500
20
6.599198
30
0.0
11
1.405500
21
6.599198
31
0.0
0
LINE
8
MCD_Layer_0
10
1.405500
20
6.599198
30
0.0
11
1.405500
21
6.473198
31
0.0
0
LINE
8
MCD_Layer_0
10
1.405500
20
6.473198
30
0.0
11
1.501500
21
6.473198
31
0.0
0
LINE
8
MCD_Layer_0
10
1.627500
20
6.347198
30
0.0
11
1.627500
21
3.851198
31
0.0
0
LINE
8
MCD_Layer_0
10
1.501500
20
3.725198
30
0.0
11
1.420500
21
3.725198
31
0.0
0
LINE
8
MCD_Layer_0
10
1.420500
20
3.725198
30
0.0
11
1.420500
21
3.599198
31
0.0
0
LINE
8
MCD_Layer_0
10
4.585914
20
3.473198
30
0.0
11
4.918914
21
3.473198
31
0.0
0
LINE
8
MCD_Layer_0
10
6.157914
20
4.967198
30
0.0
11
5.329914
21
5.783198
31
0.0
0
LINE
8
MCD_Layer_0
10
5.833914
20
6.047198
30
0.0
11
5.833914
21
5.858198
31
0.0
0
LINE
8
MCD_Layer_0
10
5.833914
20
5.858198
30
0.0
11
6.211914
21
5.858198
31
0.0
0
LINE
8
MCD_Layer_0
10
6.211914
20
5.858198
30
0.0
11
6.211914
21
6.758198
31
0.0
0
LINE
8
MCD_Layer_0
10
6.211914
20
6.758198
30
0.0
11
5.926914
21
6.758198
31
0.0
0
LINE
8
MCD_Layer_0
10
4.915914
20
5.291198
30
0.0
11
5.710914
21
4.508198
31
0.0
0
LINE
8
MCD_Layer_0
10
4.948914
20
4.436198
30
0.0
11
4.948914
21
4.565198
31
0.0
0
LINE
8
MCD_Layer_0
10
4.948914
20
4.565198
30
0.0
11
4.585914
21
4.565198
31
0.0
0
LINE
8
MCD_Layer_0
10
4.585914
20
4.565198
30
0.0
11
4.585914
21
3.473198
31
0.0
0
LINE
8
MCD_Layer_0
10
4.711914
20
3.602198
30
0.0
11
4.822914
21
3.602198
31
0.0
0
LINE
8
MCD_Layer_0
10
6.058914
20
4.892198
30
0.0
11
5.299914
21
5.633198
31
0.0
0
LINE
8
MCD_Layer_0
10
5.944914
20
6.080198
30
0.0
11
5.944914
21
5.984198
31
0.0
0
LINE
8
MCD_Layer_0
10
5.944914
20
5.984198
30
0.0
11
6.085914
21
5.984198
31
0.0
0
LINE
8
MCD_Layer_0
10
6.085914
20
5.984198
30
0.0
11
6.085914
21
6.599198
31
0.0
0
LINE
8
MCD_Layer_0
10
6.085914
20
6.599198
30
0.0
11
6.085914
21
6.632198
31
0.0
0
LINE
8
MCD_Layer_0
10
6.085914
20
6.632198
30
0.0
11
5.959914
21
6.632198
31
0.0
0
LINE
8
MCD_Layer_0
10
4.966914
20
5.417198
30
0.0
11
5.788914
21
4.604198
31
0.0
0
LINE
8
MCD_Layer_0
10
4.837914
20
4.343198
30
0.0
11
4.837914
21
4.436198
31
0.0
0
LINE
8
MCD_Layer_0
10
4.837914
20
4.436198
30
0.0
11
4.711914
21
4.436198
31
0.0
0
LINE
8
MCD_Layer_0
10
4.711914
20
4.436198
30
0.0
11
4.711914
21
3.602198
31
0.0
0
LINE
8
MCD_Layer_1
10
7.386557
20
3.473198
30
0.0
11
8.177985
21
4.932331
31
0.0
0
LINE
8
MCD_Layer_1
10
8.969412
20
3.473198
30
0.0
11
8.177985
21
4.932331
31
0.0
0
LINE
8
MCD_Layer_1
10
-12.038676
20
0.006710
30
0.0
11
12.038676
21
0.006710
31
0.0
0
LINE
8
MCD_Layer_1
10
-12.038676
20
0.000000
30
0.0
11
12.038676
21
0.000000
31
0.0
0
ARC
8
MCD_Layer_0
10
-8.150592
20
4.305696
40
0.392181
50
72.245492
51
82.145983
0
ARC
8
MCD_Layer_0
10
-4.285463
20
6.252726
40
4.013114
50
215.906151
51
220.148294
0
ARC
8
MCD_Layer_0
10
-6.735602
20
4.230237
40
0.836929
50
222.464527
51
256.568888
0
ARC
8
MCD_Layer_0
10
-6.704774
20
4.306797
40
0.918637
50
255.807831
51
299.745027
0
ARC
8
MCD_Layer_0
10
-6.572394
20
4.080189
40
0.271081
50
216.960623
51
305.753769
0
ARC
8
MCD_Layer_0
10
-5.925264
20
4.814817
40
1.245697
50
202.396047
51
226.102027
0
ARC
8
MCD_Layer_0
10
-7.958125
20
5.796405
40
1.160660
50
302.470891
51
326.523899
0
ARC
8
MCD_Layer_0
10
-7.913625
20
5.687471
40
1.065520
50
330.092280
51
13.831252
0
ARC
8
MCD_Layer_0
10
-7.866436
20
5.689343
40
1.019297
50
14.363195
51
54.117428
0
ARC
8
MCD_Layer_0
10
-7.877696
20
5.752505
40
0.975813
50
51.407051
51
90.898623
0
ARC
8
MCD_Layer_0
10
-8.100000
20
3.851198
40
0.123037
50
178.602831
51
271.397149
0
ARC
8
MCD_Layer_0
10
-7.982885
20
5.525416
40
0.747815
50
251.271235
51
272.290333
0
ARC
8
MCD_Layer_0
10
-6.254460
20
4.753676
40
1.421301
50
213.694022
51
225.140758
0
ARC
8
MCD_Layer_0
10
-6.721300
20
4.244677
40
0.731749
50
222.938760
51
261.378000
0
ARC
8
MCD_Layer_0
10
-6.698916
20
4.205385
40
0.696820
50
259.073337
51
294.676302
0
ARC
8
MCD_Layer_0
10
-6.583395
20
4.004591
40
0.318996
50
230.570043
51
291.207247
0
ARC
8
MCD_Layer_0
10
-6.131415
20
4.620225
40
1.082392
50
207.096938
51
232.788548
0
ARC
8
MCD_Layer_0
10
-7.841421
20
5.620102
40
0.834993
50
294.813702
51
313.278079
0
ARC
8
MCD_Layer_0
10
-7.790763
20
5.647532
40
0.822123
50
309.394246
51
342.198878
0
ARC
8
MCD_Layer_0
10
-7.875923
20
5.680060
40
0.913164
50
341.889205
51
15.506884
0
ARC
8
MCD_Layer_0
10
-7.843783
20
5.700378
40
0.876830
50
14.789022
51
50.833682
0
ARC
8
MCD_Layer_0
10
-7.837505
20
5.788785
40
0.805935
50
47.207823
51
86.478384
0
ARC
8
MCD_Layer_0
10
-7.957500
20
4.517170
40
2.082936
50
85.332364
51
91.691940
0
ARC
8
MCD_Layer_0
10
-8.709000
20
6.350198
40
0.123037
50
358.602937
51
91.397063
0
ARC
8
MCD_Layer_0
10
-8.709000
20
3.851198
40
0.123037
50
268.602886
51
1.397135
0
ARC
8
MCD_Layer_0
10
-7.970920
20
6.166657
40
1.158224
50
257.429306
51
267.917874
0
ARC
8
MCD_Layer_0
10
-7.991224
20
5.761872
40
0.585675
50
17.932330
51
88.021193
0
ARC
8
MCD_Layer_0
10
-8.290997
20
5.705117
40
0.889185
50
340.082267
51
15.463638
0
ARC
8
MCD_Layer_0
10
-8.004178
20
5.590641
40
0.580609
50
302.174915
51
341.061056
0
ARC
8
MCD_Layer_0
10
-8.051470
20
5.751924
40
0.743721
50
272.965006
51
298.640051
0
ARC
8
MCD_Layer_0
10
-8.015379
20
5.624751
40
0.487953
50
277.699961
51
301.834391
0
ARC
8
MCD_Layer_0
10
-7.994266
20
5.583528
40
0.441811
50
302.328136
51
341.617418
0
ARC
8
MCD_Layer_0
10
-8.343085
20
5.706895
40
0.814605
50
341.186803
51
14.379599
0
ARC
8
MCD_Layer_0
10
-8.001420
20
5.744662
40
0.477506
50
19.390690
51
86.347464
0
ARC
8
MCD_Layer_0
10
-3.751470
20
5.054837
40
1.742216
50
178.392905
51
208.052823
0
ARC
8
MCD_Layer_0
10
-3.751468
20
5.152559
40
1.742218
50
151.947196
51
181.607092
0
ARC
8
MCD_Layer_0
10
-3.718217
20
5.166401
40
1.765272
50
133.305667
51
152.851251
0
ARC
8
MCD_Layer_0
10
-4.000296
20
5.392690
40
1.408015
50
108.544382
51
131.268147
0
ARC
8
MCD_Layer_0
10
-4.048466
20
5.465188
40
1.324154
50
88.898039
51
107.565954
0
ARC
8
MCD_Layer_0
10
-3.998259
20
5.460181
40
1.329147
50
72.469418
51
91.066589
0
ARC
8
MCD_Layer_0
10
-4.045704
20
5.392690
40
1.408015
50
48.731853
51
71.455618
0
ARC
8
MCD_Layer_0
10
-4.341404
20
5.156166
40
1.782064
50
27.241727
51
46.601355
0
ARC
8
MCD_Layer_0
10
-4.289749
20
5.154283
40
1.737185
50
358.331364
51
28.076826
0
ARC
8
MCD_Layer_0
10
-4.289747
20
5.053112
40
1.737183
50
331.923155
51
1.668640
0
ARC
8
MCD_Layer_0
10
-4.341404
20
5.051230
40
1.782065
50
313.398662
51
332.758294
0
ARC
8
MCD_Layer_0
10
-4.045703
20
4.814702
40
1.408011
50
288.544372
51
311.268197
0
ARC
8
MCD_Layer_0
10
-3.994673
20
4.722567
40
1.304570
50
268.768958
51
287.706454
0
ARC
8
MCD_Layer_0
10
-4.051938
20
4.718071
40
1.300101
50
252.258890
51
271.288618
0
ARC
8
MCD_Layer_0
10
-4.000298
20
4.814702
40
1.408011
50
228.731803
51
251.455628
0
ARC
8
MCD_Layer_0
10
-3.718216
20
5.040995
40
1.765273
50
207.148728
51
226.694316
0
ARC
8
MCD_Layer_0
10
-3.687394
20
5.054876
40
1.686314
50
178.340953
51
203.221012
0
ARC
8
MCD_Layer_0
10
-3.687393
20
5.152520
40
1.686314
50
156.778993
51
181.659050
0
ARC
8
MCD_Layer_0
10
-3.764486
20
5.180841
40
1.604306
50
129.710925
51
156.622949
0
ARC
8
MCD_Layer_0
10
-4.005951
20
5.414244
40
1.271007
50
109.207528
51
128.059490
0
ARC
8
MCD_Layer_0
10
-4.033178
20
5.666650
40
1.025298
50
89.431251
51
112.412802
0
ARC
8
MCD_Layer_0
10
-4.013222
20
5.664583
40
1.027361
50
67.610586
51
90.545361
0
ARC
8
MCD_Layer_0
10
-4.040050
20
5.414244
40
1.271007
50
51.940510
51
70.792472
0
ARC
8
MCD_Layer_0
10
-4.277889
20
5.184294
40
1.599333
50
23.319304
51
50.309965
0
ARC
8
MCD_Layer_0
10
-4.358905
20
5.152520
40
1.686312
50
358.340924
51
23.221019
0
ARC
8
MCD_Layer_0
10
-4.358904
20
5.054875
40
1.686311
50
336.778976
51
1.659073
0
ARC
8
MCD_Layer_0
10
-4.281555
20
5.025227
40
1.603542
50
309.735499
51
336.662814
0
ARC
8
MCD_Layer_0
10
-4.049557
20
4.810264
40
1.290582
50
289.351791
51
307.915269
0
ARC
8
MCD_Layer_0
10
-4.016428
20
4.559123
40
1.043945
50
269.639275
51
292.204882
0
ARC
8
MCD_Layer_0
10
-4.029988
20
4.556970
40
1.041795
50
247.771526
51
270.384316
0
ARC
8
MCD_Layer_0
10
-3.996443
20
4.810264
40
1.290582
50
232.084731
51
250.648209
0
ARC
8
MCD_Layer_0
10
-3.760800
20
5.028695
40
1.608539
50
203.394930
51
230.243608
0
ARC
8
MCD_Layer_0
10
-2.870526
20
5.132383
40
2.082372
50
180.789295
51
196.725673
0
ARC
8
MCD_Layer_0
10
-2.870535
20
5.075014
40
2.082363
50
163.274292
51
179.210742
0
ARC
8
MCD_Layer_0
10
-3.627875
20
5.334356
40
1.282787
50
137.530079
51
164.632913
0
ARC
8
MCD_Layer_0
10
-4.017004
20
5.638838
40
0.791087
50
110.976423
51
134.766281
0
ARC
8
MCD_Layer_0
10
-4.020315
20
5.635074
40
0.793428
50
90.193915
51
110.655879
0
ARC
8
MCD_Layer_0
10
-4.025686
20
5.635074
40
0.793428
50
69.344121
51
89.806085
0
ARC
8
MCD_Layer_0
10
-4.031153
20
5.636449
40
0.794091
50
45.260031
51
68.940005
0
ARC
8
MCD_Layer_0
10
-4.414783
20
5.335665
40
1.279218
50
15.350231
51
42.536821
0
ARC
8
MCD_Layer_0
10
-5.207801
20
5.070033
40
2.114768
50
0.912132
51
16.602834
0
ARC
8
MCD_Layer_0
10
-5.207810
20
5.137364
40
2.114778
50
343.397200
51
359.087832
0
ARC
8
MCD_Layer_0
10
-4.417840
20
4.872928
40
1.282483
50
317.506223
51
344.634340
0
ARC
8
MCD_Layer_0
10
-4.033061
20
4.574859
40
0.798427
50
291.086924
51
314.624522
0
ARC
8
MCD_Layer_0
10
-4.025424
20
4.566269
40
0.787675
50
270.176280
51
290.793360
0
ARC
8
MCD_Layer_0
10
-4.020577
20
4.566269
40
0.787675
50
249.206640
51
269.823720
0
ARC
8
MCD_Layer_0
10
-4.015116
20
4.572437
40
0.795384
50
225.349146
51
248.996628
0
ARC
8
MCD_Layer_0
10
-3.624803
20
4.874243
40
1.286068
50
195.382508
51
222.426900
0
ARC
8
MCD_Layer_0
10
-3.039294
20
5.110717
40
1.793120
50
180.224289
51
202.148432
0
ARC
8
MCD_Layer_0
10
-3.036330
20
5.096092
40
1.796087
50
157.869902
51
179.757385
0
ARC
8
MCD_Layer_0
10
-3.751408
20
5.420246
40
1.012047
50
128.288951
51
159.619313
0
ARC
8
MCD_Layer_0
10
-4.006089
20
5.569598
40
0.744792
50
91.301079
51
120.001370
0
ARC
8
MCD_Layer_0
10
-4.039912
20
5.569598
40
0.744792
50
59.998630
51
88.698921
0
ARC
8
MCD_Layer_0
10
-4.296958
20
5.419171
40
1.014357
50
20.397015
51
51.643845
0
ARC
8
MCD_Layer_0
10
-5.002485
20
5.096771
40
1.788898
50
0.221864
51
22.200297
0
ARC
8
MCD_Layer_0
10
-4.999539
20
5.110041
40
1.785950
50
337.781335
51
359.796495
0
ARC
8
MCD_Layer_0
10
-4.296955
20
4.788224
40
1.014355
50
308.356115
51
339.603019
0
ARC
8
MCD_Layer_0
10
-4.039910
20
4.637792
40
0.744786
50
271.300957
51
300.001478
0
ARC
8
MCD_Layer_0
10
-4.006091
20
4.637792
40
0.744786
50
239.998522
51
268.699043
0
ARC
8
MCD_Layer_0
10
-2.147879
20
6.155690
40
0.191673
50
16.210138
51
92.376413
0
ARC
8
MCD_Layer_0
10
0.389674
20
6.153698
40
0.193553
50
88.667885
51
162.407471
0
ARC
8
MCD_Layer_0
10
-2.183628
20
6.121724
40
0.359555
50
17.559074
51
77.829526
0
ARC
8
MCD_Layer_0
10
-1.361028
20
6.338316
40
0.135433
50
84.831284
51
204.944682
0
ARC
8
MCD_Layer_0
10
-0.250441
20
6.352358
40
0.120840
50
340.085527
51
90.182881
0
ARC
8
MCD_Layer_0
10
0.366675
20
6.193108
40
0.281639
50
96.012804
51
161.129629
0
ARC
8
MCD_Layer_0
10
2.886750
20
4.043948
40
0.066855
50
273.215314
51
356.784645
0
ARC
8
MCD_Layer_0
10
2.951470
20
3.979227
40
0.128046
50
270.908183
51
359.091817
0
ARC
8
MCD_Layer_0
10
2.530500
20
5.102198
40
0.123037
50
358.602937
51
91.397103
0
ARC
8
MCD_Layer_0
10
2.530500
20
5.585198
40
0.123037
50
268.602758
51
1.397120
0
ARC
8
MCD_Layer_0
10
2.714470
20
6.219169
40
0.128045
50
0.907993
51
89.091925
0
ARC
8
MCD_Layer_0
10
1.499471
20
6.345169
40
0.128045
50
0.908089
51
89.091992
0
ARC
8
MCD_Layer_0
10
1.493812
20
3.858885
40
0.133908
50
273.291038
51
356.708972
0
ARC
8
MCD_Layer_0
10
4.979087
20
3.451164
40
0.064081
50
59.184713
51
159.888593
0
ARC
8
MCD_Layer_0
10
5.448085
20
4.413893
40
1.007053
50
244.334478
51
287.261650
0
ARC
8
MCD_Layer_0
10
5.479835
20
4.345803
40
0.932663
50
286.640246
51
327.099565
0
ARC
8
MCD_Layer_0
10
5.440905
20
4.327807
40
0.956263
50
329.272379
51
20.788144
0
ARC
8
MCD_Layer_0
10
5.576951
20
4.422215
40
0.796570
50
17.911454
51
43.169721
0
ARC
8
MCD_Layer_0
10
5.558246
20
6.014852
40
0.325268
50
184.346903
51
225.413756
0
ARC
8
MCD_Layer_0
10
5.638140
20
5.996827
40
0.404280
50
141.009255
51
180.939536
0
ARC
8
MCD_Layer_0
10
5.524903
20
6.045896
40
0.287308
50
51.967917
51
134.391716
0
ARC
8
MCD_Layer_0
10
5.522852
20
6.015928
40
0.312630
50
5.740406
51
55.057057
0
ARC
8
MCD_Layer_0
10
5.866214
20
6.800498
40
0.073985
50
238.823675
51
325.128473
0
ARC
8
MCD_Layer_0
10
5.467172
20
6.041493
40
0.783671
50
62.592037
51
97.645186
0
ARC
8
MCD_Layer_0
10
5.487618
20
5.995553
40
0.832044
50
98.619828
51
130.078910
0
ARC
8
MCD_Layer_0
10
5.458504
20
5.995130
40
0.813934
50
128.491394
51
161.217490
0
ARC
8
MCD_Layer_0
10
5.590383
20
5.958661
40
0.950566
50
161.695781
51
195.840259
0
ARC
8
MCD_Layer_0
10
5.590728
20
5.962736
40
0.952017
50
196.070531
51
224.860575
0
ARC
8
MCD_Layer_0
10
5.414453
20
4.254768
40
0.390020
50
324.484662
51
40.525523
0
ARC
8
MCD_Layer_0
10
5.441227
20
4.269228
40
0.377617
50
258.495605
51
320.335334
0
ARC
8
MCD_Layer_0
10
5.475385
20
4.437351
40
0.549175
50
224.533883
51
258.501737
0
ARC
8
MCD_Layer_0
10
5.516899
20
4.420150
40
0.568212
50
178.381553
51
220.357955
0
ARC
8
MCD_Layer_0
10
4.930679
20
3.542008
40
0.123435
50
55.881917
51
150.815528
0
ARC
8
MCD_Layer_0
10
5.499168
20
4.559469
40
1.042581
50
241.388788
51
267.127131
0
ARC
8
MCD_Layer_0
10
5.461972
20
4.329812
40
0.811753
50
268.937097
51
313.419080
0
ARC
8
MCD_Layer_0
10
5.418388
20
4.372752
40
0.872902
50
313.559717
51
343.866827
0
ARC
8
MCD_Layer_0
10
5.429349
20
4.321886
40
0.849475
50
346.958618
51
42.172905
0
ARC
8
MCD_Layer_0
10
5.756067
20
6.115959
40
0.664179
50
205.962004
51
226.623271
0
ARC
8
MCD_Layer_0
10
5.620639
20
6.033378
40
0.506487
50
174.013861
51
204.269383
0
ARC
8
MCD_Layer_0
10
5.515914
20
6.041198
40
0.401530
50
128.325532
51
173.565281
0
ARC
8
MCD_Layer_0
10
5.534757
20
6.043399
40
0.411805
50
89.699862
51
130.572662
0
ARC
8
MCD_Layer_0
10
5.525692
20
6.036510
40
0.418839
50
38.842609
51
88.464719
0
ARC
8
MCD_Layer_0
10
5.563894
20
6.047642
40
0.382408
50
4.883778
51
41.133945
0
ARC
8
MCD_Layer_0
10
5.890569
20
6.634292
40
0.069376
50
229.934471
51
358.269912
0
ARC
8
MCD_Layer_0
10
5.517264
20
6.164770
40
0.530493
50
51.719085
51
79.392895
0
ARC
8
MCD_Layer_0
10
5.482473
20
5.880884
40
0.816132
50
80.660820
51
107.510577
0
ARC
8
MCD_Layer_0
10
5.449396
20
6.029272
40
0.664797
50
108.639957
51
148.442329
0
ARC
8
MCD_Layer_0
10
5.510114
20
5.971022
40
0.747234
50
147.072778
51
179.449715
0
ARC
8
MCD_Layer_0
10
5.538931
20
5.942795
40
0.776824
50
177.387915
51
222.578297
0
ARC
8
MCD_Layer_0
10
5.426128
20
4.258501
40
0.501118
50
344.454260
51
43.618222
0
ARC
8
MCD_Layer_0
10
5.448747
20
4.240724
40
0.474691
50
279.967815
51
345.789988
0
ARC
8
MCD_Layer_0
10
5.449348
20
4.380680
40
0.612933
50
234.096869
51
277.647300
0
ARC
8
MCD_Layer_0
10
5.418785
20
4.363431
40
0.581224
50
181.994979
51
235.540324
0
ENDSEC
0
EOF
