0
SECTION
2
ENTITIES
0
LINE
8
MCD_Layer_0
10
-5.019183
20
10.048004
30
0.0
11
-5.019183
21
10.126129
31
0.0
0
LINE
8
MCD_Layer_0
10
-5.191964
20
11.070504
30
0.0
11
-5.266183
21
11.070504
31
0.0
0
LINE
8
MCD_Layer_0
10
-5.266183
20
11.298004
30
0.0
11
-4.437308
21
11.298004
31
0.0
0
LINE
8
MCD_Layer_0
10
-4.437308
20
11.070504
30
0.0
11
-4.511526
21
11.070504
31
0.0
0
LINE
8
MCD_Layer_0
10
-4.684308
20
10.126129
30
0.0
11
-4.684308
21
10.048004
31
0.0
0
LINE
8
MCD_Layer_0
10
-5.019183
20
10.126129
30
0.0
11
-4.944370
21
10.126129
31
0.0
0
LINE
8
MCD_Layer_0
10
-4.919433
20
10.152379
30
0.0
11
-4.919433
21
11.194254
31
0.0
0
LINE
8
MCD_Layer_0
10
-4.944370
20
11.220504
30
0.0
11
-5.168214
21
11.220504
31
0.0
0
LINE
8
MCD_Layer_0
10
-5.191964
20
11.194254
30
0.0
11
-5.191964
21
11.070504
31
0.0
0
LINE
8
MCD_Layer_0
10
-5.266183
20
11.070504
30
0.0
11
-5.266183
21
11.298004
31
0.0
0
LINE
8
MCD_Layer_0
10
-4.437308
20
11.298004
30
0.0
11
-4.437308
21
11.070504
31
0.0
0
LINE
8
MCD_Layer_0
10
-4.511526
20
11.070504
30
0.0
11
-4.511526
21
11.194254
31
0.0
0
LINE
8
MCD_Layer_0
10
-4.536464
20
11.220504
30
0.0
11
-4.759120
21
11.220504
31
0.0
0
LINE
8
MCD_Layer_0
10
-4.784058
20
11.194254
30
0.0
11
-4.784058
21
10.152379
31
0.0
0
LINE
8
MCD_Layer_0
10
-4.759120
20
10.126129
30
0.0
11
-4.684308
21
10.126129
31
0.0
0
LINE
8
MCD_Layer_0
10
-4.684308
20
10.048004
30
0.0
11
-5.019183
21
10.048004
31
0.0
0
LINE
8
MCD_Layer_0
10
-4.326396
20
10.126129
30
0.0
11
-4.251583
21
10.126129
31
0.0
0
LINE
8
MCD_Layer_0
10
-4.227833
20
10.152379
30
0.0
11
-4.227833
21
11.194879
31
0.0
0
LINE
8
MCD_Layer_0
10
-4.251583
20
11.219879
30
0.0
11
-4.326396
21
11.219879
31
0.0
0
LINE
8
MCD_Layer_0
10
-4.326396
20
11.298004
30
0.0
11
-3.645958
21
11.298004
31
0.0
0
LINE
8
MCD_Layer_0
10
-3.645958
20
11.064254
30
0.0
11
-3.714833
21
11.064254
31
0.0
0
LINE
8
MCD_Layer_0
10
-4.091271
20
11.220504
30
0.0
11
-4.091271
21
10.751754
31
0.0
0
LINE
8
MCD_Layer_0
10
-3.826102
20
10.841754
30
0.0
11
-3.751646
21
10.841754
31
0.0
0
LINE
8
MCD_Layer_0
10
-3.751646
20
10.585129
30
0.0
11
-3.826102
21
10.585129
31
0.0
0
LINE
8
MCD_Layer_0
10
-4.091271
20
10.675129
30
0.0
11
-4.091271
21
10.184254
31
0.0
0
LINE
8
MCD_Layer_0
10
-3.595846
20
10.349379
30
0.0
11
-3.528396
21
10.315504
31
0.0
0
LINE
8
MCD_Layer_0
10
-3.615083
20
10.048004
30
0.0
11
-4.326396
21
10.048004
31
0.0
0
LINE
8
MCD_Layer_0
10
-4.326396
20
10.048004
30
0.0
11
-4.326396
21
10.126129
31
0.0
0
LINE
8
MCD_Layer_0
10
-4.326396
20
11.219879
30
0.0
11
-4.326396
21
11.298004
31
0.0
0
LINE
8
MCD_Layer_0
10
-3.645958
20
11.298004
30
0.0
11
-3.645958
21
11.064254
31
0.0
0
LINE
8
MCD_Layer_0
10
-3.714833
20
11.064254
30
0.0
11
-3.714833
21
11.168004
31
0.0
0
LINE
8
MCD_Layer_0
10
-3.763521
20
11.220504
30
0.0
11
-4.091271
21
11.220504
31
0.0
0
LINE
8
MCD_Layer_0
10
-4.091271
20
10.751754
30
0.0
11
-3.851039
21
10.751754
31
0.0
0
LINE
8
MCD_Layer_0
10
-3.826102
20
10.776754
30
0.0
11
-3.826102
21
10.841754
31
0.0
0
LINE
8
MCD_Layer_0
10
-3.751646
20
10.841754
30
0.0
11
-3.751646
21
10.585129
31
0.0
0
LINE
8
MCD_Layer_0
10
-3.826102
20
10.585129
30
0.0
11
-3.826102
21
10.650129
31
0.0
0
LINE
8
MCD_Layer_0
10
-3.851039
20
10.675129
30
0.0
11
-4.091271
21
10.675129
31
0.0
0
LINE
8
MCD_Layer_0
10
-3.628502
20
10.248129
30
0.0
11
-3.595846
21
10.349379
31
0.0
0
LINE
8
MCD_Layer_0
10
-3.528396
20
10.315504
30
0.0
11
-3.615083
21
10.048004
31
0.0
0
LINE
8
MCD_Layer_0
10
-3.429833
20
10.126129
30
0.0
11
-3.355020
21
10.126129
31
0.0
0
LINE
8
MCD_Layer_0
10
-3.331270
20
10.152379
30
0.0
11
-3.331270
21
11.194879
31
0.0
0
LINE
8
MCD_Layer_0
10
-3.355020
20
11.219879
30
0.0
11
-3.429833
21
11.219879
31
0.0
0
LINE
8
MCD_Layer_0
10
-3.429833
20
11.298004
30
0.0
11
-3.021333
21
11.298004
31
0.0
0
LINE
8
MCD_Layer_0
10
-2.586708
20
10.113004
30
0.0
11
-2.567708
21
10.068004
31
0.0
0
LINE
8
MCD_Layer_0
10
-3.194708
20
10.646754
30
0.0
11
-3.194708
21
10.152379
31
0.0
0
LINE
8
MCD_Layer_0
10
-3.169770
20
10.126129
30
0.0
11
-3.096145
21
10.126129
31
0.0
0
LINE
8
MCD_Layer_0
10
-3.096145
20
10.048004
30
0.0
11
-3.429833
21
10.048004
31
0.0
0
LINE
8
MCD_Layer_0
10
-3.058145
20
11.220504
30
0.0
11
-3.194708
21
11.220504
31
0.0
0
LINE
8
MCD_Layer_0
10
-3.429833
20
10.048004
30
0.0
11
-3.429833
21
10.126129
31
0.0
0
LINE
8
MCD_Layer_0
10
-3.429833
20
11.219879
30
0.0
11
-3.429833
21
11.298004
31
0.0
0
LINE
8
MCD_Layer_0
10
-3.096145
20
10.126129
30
0.0
11
-3.096145
21
10.048004
31
0.0
0
LINE
8
MCD_Layer_0
10
-3.194708
20
11.220504
30
0.0
11
-3.194708
21
10.725504
31
0.0
0
LINE
8
MCD_Layer_0
10
-2.444350
20
10.126129
30
0.0
11
-2.369538
21
10.126129
31
0.0
0
LINE
8
MCD_Layer_0
10
-2.345788
20
10.152379
30
0.0
11
-2.345788
21
11.194879
31
0.0
0
LINE
8
MCD_Layer_0
10
-2.369538
20
11.219879
30
0.0
11
-2.444350
21
11.219879
31
0.0
0
LINE
8
MCD_Layer_0
10
-2.444350
20
11.298004
30
0.0
11
-1.763913
21
11.298004
31
0.0
0
LINE
8
MCD_Layer_0
10
-1.763913
20
11.064254
30
0.0
11
-1.832788
21
11.064254
31
0.0
0
LINE
8
MCD_Layer_0
10
-2.209225
20
11.220504
30
0.0
11
-2.209225
21
10.751754
31
0.0
0
LINE
8
MCD_Layer_0
10
-1.944056
20
10.841754
30
0.0
11
-1.869600
21
10.841754
31
0.0
0
LINE
8
MCD_Layer_0
10
-1.869600
20
10.585129
30
0.0
11
-1.944056
21
10.585129
31
0.0
0
LINE
8
MCD_Layer_0
10
-2.209225
20
10.675129
30
0.0
11
-2.209225
21
10.184254
31
0.0
0
LINE
8
MCD_Layer_0
10
-1.713800
20
10.349379
30
0.0
11
-1.646350
21
10.315504
31
0.0
0
LINE
8
MCD_Layer_0
10
-1.733038
20
10.048004
30
0.0
11
-2.444350
21
10.048004
31
0.0
0
LINE
8
MCD_Layer_0
10
-2.444350
20
10.048004
30
0.0
11
-2.444350
21
10.126129
31
0.0
0
LINE
8
MCD_Layer_0
10
-2.444350
20
11.219879
30
0.0
11
-2.444350
21
11.298004
31
0.0
0
LINE
8
MCD_Layer_0
10
-1.763913
20
11.298004
30
0.0
11
-1.763913
21
11.064254
31
0.0
0
LINE
8
MCD_Layer_0
10
-1.832788
20
11.064254
30
0.0
11
-1.832788
21
11.168004
31
0.0
0
LINE
8
MCD_Layer_0
10
-1.881475
20
11.220504
30
0.0
11
-2.209225
21
11.220504
31
0.0
0
LINE
8
MCD_Layer_0
10
-2.209225
20
10.751754
30
0.0
11
-1.968994
21
10.751754
31
0.0
0
LINE
8
MCD_Layer_0
10
-1.944056
20
10.776754
30
0.0
11
-1.944056
21
10.841754
31
0.0
0
LINE
8
MCD_Layer_0
10
-1.869600
20
10.841754
30
0.0
11
-1.869600
21
10.585129
31
0.0
0
LINE
8
MCD_Layer_0
10
-1.944056
20
10.585129
30
0.0
11
-1.944056
21
10.650129
31
0.0
0
LINE
8
MCD_Layer_0
10
-1.968994
20
10.675129
30
0.0
11
-2.209225
21
10.675129
31
0.0
0
LINE
8
MCD_Layer_0
10
-1.746456
20
10.248129
30
0.0
11
-1.713800
21
10.349379
31
0.0
0
LINE
8
MCD_Layer_0
10
-1.646350
20
10.315504
30
0.0
11
-1.733038
21
10.048004
31
0.0
0
LINE
8
MCD_Layer_0
10
-1.498150
20
10.411754
30
0.0
11
-1.421913
21
10.411754
31
0.0
0
LINE
8
MCD_Layer_0
10
-1.021844
20
10.535504
30
0.0
11
-1.386525
21
10.873004
31
0.0
0
LINE
8
MCD_Layer_0
10
-0.931594
20
11.371754
30
0.0
11
-0.865094
21
11.371754
31
0.0
0
LINE
8
MCD_Layer_0
10
-0.865094
20
11.059254
30
0.0
11
-0.931594
21
11.059254
31
0.0
0
LINE
8
MCD_Layer_0
10
-1.248775
20
10.919254
30
0.0
11
-0.971969
21
10.698004
31
0.0
0
LINE
8
MCD_Layer_0
10
-1.498150
20
10.048004
30
0.0
11
-1.498150
21
10.411754
31
0.0
0
LINE
8
MCD_Layer_0
10
-1.421913
20
10.411754
30
0.0
11
-1.421913
21
10.372754
31
0.0
0
LINE
8
MCD_Layer_0
10
-0.931594
20
11.353004
30
0.0
11
-0.931594
21
11.371754
31
0.0
0
LINE
8
MCD_Layer_0
10
-0.865094
20
11.371754
30
0.0
11
-0.865094
21
11.059254
31
0.0
0
LINE
8
MCD_Layer_0
10
-0.931594
20
11.059254
30
0.0
11
-0.931594
21
11.085504
31
0.0
0
LINE
8
MCD_Layer_0
10
-1.421913
20
10.048004
30
0.0
11
-1.498150
21
10.048004
31
0.0
0
LINE
8
MCD_Layer_0
10
-0.640276
20
10.126129
30
0.0
11
-0.593964
21
10.126129
31
0.0
0
LINE
8
MCD_Layer_0
10
-0.546464
20
10.161129
30
0.0
11
-0.139151
21
11.363004
31
0.0
0
LINE
8
MCD_Layer_0
10
0.398786
20
10.126129
30
0.0
11
0.398786
21
10.048004
31
0.0
0
LINE
8
MCD_Layer_0
10
0.034224
20
10.048004
30
0.0
11
0.034224
21
10.126129
31
0.0
0
LINE
8
MCD_Layer_0
10
-0.004964
20
10.516754
30
0.0
11
-0.348151
21
10.516754
31
0.0
0
LINE
8
MCD_Layer_0
10
-0.386151
20
10.126129
30
0.0
11
-0.386151
21
10.048004
31
0.0
0
LINE
8
MCD_Layer_0
10
-0.322026
20
10.595504
30
0.0
11
-0.031089
21
10.595504
31
0.0
0
LINE
8
MCD_Layer_0
10
-0.177151
20
11.033004
30
0.0
11
-0.322026
21
10.595504
31
0.0
0
LINE
8
MCD_Layer_0
10
-0.640276
20
10.048004
30
0.0
11
-0.640276
21
10.126129
31
0.0
0
LINE
8
MCD_Layer_0
10
-0.139151
20
11.363004
30
0.0
11
0.269349
21
10.161129
31
0.0
0
LINE
8
MCD_Layer_0
10
0.316849
20
10.126129
30
0.0
11
0.398786
21
10.126129
31
0.0
0
LINE
8
MCD_Layer_0
10
0.398786
20
10.048004
30
0.0
11
0.034224
21
10.048004
31
0.0
0
LINE
8
MCD_Layer_0
10
0.034224
20
10.126129
30
0.0
11
0.099536
21
10.126129
31
0.0
0
LINE
8
MCD_Layer_0
10
0.122099
20
10.159879
30
0.0
11
-0.004964
21
10.516754
31
0.0
0
LINE
8
MCD_Layer_0
10
-0.348151
20
10.516754
30
0.0
11
-0.475214
21
10.159879
31
0.0
0
LINE
8
MCD_Layer_0
10
-0.451464
20
10.126129
30
0.0
11
-0.386151
21
10.126129
31
0.0
0
LINE
8
MCD_Layer_0
10
-0.386151
20
10.048004
30
0.0
11
-0.640276
21
10.048004
31
0.0
0
LINE
8
MCD_Layer_0
10
-0.031089
20
10.595504
30
0.0
11
-0.177151
21
11.033004
31
0.0
0
LINE
8
MCD_Layer_0
10
1.288699
20
10.126129
30
0.0
11
1.363511
21
10.126129
31
0.0
0
LINE
8
MCD_Layer_0
10
1.387261
20
10.152379
30
0.0
11
1.387261
21
11.194879
31
0.0
0
LINE
8
MCD_Layer_0
10
1.363511
20
11.219879
30
0.0
11
1.288699
21
11.219879
31
0.0
0
LINE
8
MCD_Layer_0
10
1.288699
20
11.298004
30
0.0
11
1.622386
21
11.298004
31
0.0
0
LINE
8
MCD_Layer_0
10
1.622386
20
11.219879
30
0.0
11
1.548761
21
11.219879
31
0.0
0
LINE
8
MCD_Layer_0
10
1.523824
20
11.194879
30
0.0
11
1.523824
21
10.184254
31
0.0
0
LINE
8
MCD_Layer_0
10
2.006780
20
10.309879
30
0.0
11
2.076011
21
10.281754
31
0.0
0
LINE
8
MCD_Layer_0
10
2.000011
20
10.048004
30
0.0
11
1.288699
21
10.048004
31
0.0
0
LINE
8
MCD_Layer_0
10
1.288699
20
10.048004
30
0.0
11
1.288699
21
10.126129
31
0.0
0
LINE
8
MCD_Layer_0
10
1.288699
20
11.219879
30
0.0
11
1.288699
21
11.298004
31
0.0
0
LINE
8
MCD_Layer_0
10
1.622386
20
11.298004
30
0.0
11
1.622386
21
11.219879
31
0.0
0
LINE
8
MCD_Layer_0
10
1.991936
20
10.264129
30
0.0
11
2.006780
21
10.309879
31
0.0
0
LINE
8
MCD_Layer_0
10
2.076011
20
10.281754
30
0.0
11
2.000011
21
10.048004
31
0.0
0
LINE
8
MCD_Layer_0
10
1.964362
20
11.297504
30
0.0
11
2.341987
21
11.297504
31
0.0
0
LINE
8
MCD_Layer_0
10
2.341987
20
11.219379
30
0.0
11
2.249362
21
11.219379
31
0.0
0
LINE
8
MCD_Layer_0
10
2.227987
20
11.179379
30
0.0
11
2.521300
21
10.686254
31
0.0
0
LINE
8
MCD_Layer_0
10
2.706550
20
11.219379
30
0.0
11
2.706550
21
11.297504
31
0.0
0
LINE
8
MCD_Layer_0
10
3.016487
20
11.297504
30
0.0
11
3.016487
21
11.219379
31
0.0
0
LINE
8
MCD_Layer_0
10
2.546237
20
10.588754
30
0.0
11
2.546237
21
10.151879
31
0.0
0
LINE
8
MCD_Layer_0
10
2.571175
20
10.125629
30
0.0
11
2.644800
21
10.125629
31
0.0
0
LINE
8
MCD_Layer_0
10
2.644800
20
10.048004
30
0.0
11
2.311112
21
10.048004
31
0.0
0
LINE
8
MCD_Layer_0
10
2.311112
20
10.125629
30
0.0
11
2.385925
21
10.125629
31
0.0
0
LINE
8
MCD_Layer_0
10
2.409675
20
10.151879
30
0.0
11
2.409675
21
10.588754
31
0.0
0
LINE
8
MCD_Layer_0
10
1.964362
20
11.219379
30
0.0
11
1.964362
21
11.297504
31
0.0
0
LINE
8
MCD_Layer_0
10
2.341987
20
11.297504
30
0.0
11
2.341987
21
11.219379
31
0.0
0
LINE
8
MCD_Layer_0
10
2.521300
20
10.686254
30
0.0
11
2.797987
21
11.180629
31
0.0
0
LINE
8
MCD_Layer_0
10
2.776612
20
11.219379
30
0.0
11
2.706550
21
11.219379
31
0.0
0
LINE
8
MCD_Layer_0
10
2.706550
20
11.297504
30
0.0
11
3.016487
21
11.297504
31
0.0
0
LINE
8
MCD_Layer_0
10
3.016487
20
11.219379
30
0.0
11
2.909612
21
11.219379
31
0.0
0
LINE
8
MCD_Layer_0
10
2.888237
20
11.205629
30
0.0
11
2.546237
21
10.588754
31
0.0
0
LINE
8
MCD_Layer_0
10
2.644800
20
10.125629
30
0.0
11
2.644800
21
10.048004
31
0.0
0
LINE
8
MCD_Layer_0
10
2.311112
20
10.048004
30
0.0
11
2.311112
21
10.125629
31
0.0
0
LINE
8
MCD_Layer_0
10
2.409675
20
10.588754
30
0.0
11
2.046300
21
11.205629
31
0.0
0
LINE
8
MCD_Layer_0
10
2.024925
20
11.219379
30
0.0
11
1.964362
21
11.219379
31
0.0
0
LINE
8
MCD_Layer_0
10
3.090326
20
10.126129
30
0.0
11
3.165139
21
10.126129
31
0.0
0
LINE
8
MCD_Layer_0
10
3.188889
20
10.152379
30
0.0
11
3.188889
21
11.194879
31
0.0
0
LINE
8
MCD_Layer_0
10
3.165139
20
11.219879
30
0.0
11
3.090326
21
11.219879
31
0.0
0
LINE
8
MCD_Layer_0
10
3.090326
20
11.298004
30
0.0
11
3.263701
21
11.298004
31
0.0
0
LINE
8
MCD_Layer_0
10
3.907326
20
10.373004
30
0.0
11
3.907326
21
11.194879
31
0.0
0
LINE
8
MCD_Layer_0
10
3.882389
20
11.219879
30
0.0
11
3.807576
21
11.219879
31
0.0
0
LINE
8
MCD_Layer_0
10
3.807576
20
11.298004
30
0.0
11
4.079514
21
11.298004
31
0.0
0
LINE
8
MCD_Layer_0
10
4.079514
20
11.219879
30
0.0
11
4.005889
21
11.219879
31
0.0
0
LINE
8
MCD_Layer_0
10
3.980951
20
11.194879
30
0.0
11
3.980951
21
10.001754
31
0.0
0
LINE
8
MCD_Layer_0
10
3.263701
20
11.056754
30
0.0
11
3.263701
21
10.152379
31
0.0
0
LINE
8
MCD_Layer_0
10
3.288639
20
10.126129
30
0.0
11
3.362264
21
10.126129
31
0.0
0
LINE
8
MCD_Layer_0
10
3.362264
20
10.048004
30
0.0
11
3.090326
21
10.048004
31
0.0
0
LINE
8
MCD_Layer_0
10
3.090326
20
10.048004
30
0.0
11
3.090326
21
10.126129
31
0.0
0
LINE
8
MCD_Layer_0
10
3.090326
20
11.219879
30
0.0
11
3.090326
21
11.298004
31
0.0
0
LINE
8
MCD_Layer_0
10
3.263701
20
11.298004
30
0.0
11
3.907326
21
10.373004
31
0.0
0
LINE
8
MCD_Layer_0
10
3.807576
20
11.219879
30
0.0
11
3.807576
21
11.298004
31
0.0
0
LINE
8
MCD_Layer_0
10
4.079514
20
11.298004
30
0.0
11
4.079514
21
11.219879
31
0.0
0
LINE
8
MCD_Layer_0
10
3.980951
20
10.001754
30
0.0
11
3.263701
21
11.056754
31
0.0
0
LINE
8
MCD_Layer_0
10
3.362264
20
10.126129
30
0.0
11
3.362264
21
10.048004
31
0.0
0
LINE
8
MCD_Layer_0
10
4.276971
20
10.126129
30
0.0
11
4.351784
21
10.126129
31
0.0
0
LINE
8
MCD_Layer_0
10
4.375534
20
10.152379
30
0.0
11
4.375534
21
11.194879
31
0.0
0
LINE
8
MCD_Layer_0
10
4.351784
20
11.219879
30
0.0
11
4.276971
21
11.219879
31
0.0
0
LINE
8
MCD_Layer_0
10
4.276971
20
11.298004
30
0.0
11
4.450346
21
11.298004
31
0.0
0
LINE
8
MCD_Layer_0
10
5.093971
20
10.373004
30
0.0
11
5.093971
21
11.194879
31
0.0
0
LINE
8
MCD_Layer_0
10
5.069034
20
11.219879
30
0.0
11
4.994221
21
11.219879
31
0.0
0
LINE
8
MCD_Layer_0
10
4.994221
20
11.298004
30
0.0
11
5.266159
21
11.298004
31
0.0
0
LINE
8
MCD_Layer_0
10
5.266159
20
11.219879
30
0.0
11
5.192534
21
11.219879
31
0.0
0
LINE
8
MCD_Layer_0
10
5.167596
20
11.194879
30
0.0
11
5.167596
21
10.001754
31
0.0
0
LINE
8
MCD_Layer_0
10
4.450346
20
11.056754
30
0.0
11
4.450346
21
10.152379
31
0.0
0
LINE
8
MCD_Layer_0
10
4.475284
20
10.126129
30
0.0
11
4.548909
21
10.126129
31
0.0
0
LINE
8
MCD_Layer_0
10
4.548909
20
10.048004
30
0.0
11
4.276971
21
10.048004
31
0.0
0
LINE
8
MCD_Layer_0
10
4.276971
20
10.048004
30
0.0
11
4.276971
21
10.126129
31
0.0
0
LINE
8
MCD_Layer_0
10
4.276971
20
11.219879
30
0.0
11
4.276971
21
11.298004
31
0.0
0
LINE
8
MCD_Layer_0
10
4.450346
20
11.298004
30
0.0
11
5.093971
21
10.373004
31
0.0
0
LINE
8
MCD_Layer_0
10
4.994221
20
11.219879
30
0.0
11
4.994221
21
11.298004
31
0.0
0
LINE
8
MCD_Layer_0
10
5.266159
20
11.298004
30
0.0
11
5.266159
21
11.219879
31
0.0
0
LINE
8
MCD_Layer_0
10
5.167596
20
10.001754
30
0.0
11
4.450346
21
11.056754
31
0.0
0
LINE
8
MCD_Layer_0
10
4.548909
20
10.126129
30
0.0
11
4.548909
21
10.048004
31
0.0
0
LINE
8
MCD_Layer_0
10
-4.571800
20
8.016754
30
0.0
11
-4.477300
21
8.016754
31
0.0
0
LINE
8
MCD_Layer_0
10
-4.447300
20
8.048254
30
0.0
11
-4.447300
21
9.299254
31
0.0
0
LINE
8
MCD_Layer_0
10
-4.477300
20
9.329254
30
0.0
11
-4.586800
21
9.329254
31
0.0
0
LINE
8
MCD_Layer_0
10
-4.586800
20
9.423004
30
0.0
11
-4.033300
21
9.423004
31
0.0
0
LINE
8
MCD_Layer_0
10
-4.070800
20
8.673004
30
0.0
11
-4.274800
21
8.673004
31
0.0
0
LINE
8
MCD_Layer_0
10
-4.274800
20
8.767504
30
0.0
11
-4.090300
21
8.767504
31
0.0
0
LINE
8
MCD_Layer_0
10
-4.103800
20
9.330004
30
0.0
11
-4.274800
21
9.330004
31
0.0
0
LINE
8
MCD_Layer_0
10
-4.571800
20
7.923004
30
0.0
11
-4.571800
21
8.016754
31
0.0
0
LINE
8
MCD_Layer_0
10
-4.586800
20
9.329254
30
0.0
11
-4.586800
21
9.423004
31
0.0
0
LINE
8
MCD_Layer_0
10
-4.040800
20
7.923004
30
0.0
11
-4.571800
21
7.923004
31
0.0
0
LINE
8
MCD_Layer_0
10
-4.274800
20
8.673004
30
0.0
11
-4.274800
21
8.086504
31
0.0
0
LINE
8
MCD_Layer_0
10
-4.274800
20
9.330004
30
0.0
11
-4.274800
21
8.767504
31
0.0
0
LINE
8
MCD_Layer_0
10
-2.070200
20
9.422404
30
0.0
11
-1.600700
21
9.422404
31
0.0
0
LINE
8
MCD_Layer_0
10
-1.600700
20
9.328654
30
0.0
11
-1.722200
21
9.328654
31
0.0
0
LINE
8
MCD_Layer_0
10
-1.752200
20
9.288154
30
0.0
11
-1.444700
21
8.391904
31
0.0
0
LINE
8
MCD_Layer_0
10
-1.186700
20
9.468904
30
0.0
11
-0.930200
21
8.399404
31
0.0
0
LINE
8
MCD_Layer_0
10
-0.804200
20
9.329254
30
0.0
11
-0.804200
21
9.422404
31
0.0
0
LINE
8
MCD_Layer_0
10
-0.429200
20
9.422404
30
0.0
11
-0.429200
21
9.329254
31
0.0
0
LINE
8
MCD_Layer_0
10
-0.976700
20
7.859404
30
0.0
11
-1.234700
21
8.883904
31
0.0
0
LINE
8
MCD_Layer_0
10
-1.461200
20
7.859404
30
0.0
11
-1.953200
21
9.307654
31
0.0
0
LINE
8
MCD_Layer_0
10
-1.983200
20
9.328654
30
0.0
11
-2.070200
21
9.328654
31
0.0
0
LINE
8
MCD_Layer_0
10
-2.070200
20
9.328654
30
0.0
11
-2.070200
21
9.422404
31
0.0
0
LINE
8
MCD_Layer_0
10
-1.600700
20
9.422404
30
0.0
11
-1.600700
21
9.328654
31
0.0
0
LINE
8
MCD_Layer_0
10
-1.444700
20
8.391904
30
0.0
11
-1.186700
21
9.468904
31
0.0
0
LINE
8
MCD_Layer_0
10
-0.930200
20
8.399404
30
0.0
11
-0.657200
21
9.290254
31
0.0
0
LINE
8
MCD_Layer_0
10
-0.687200
20
9.329254
30
0.0
11
-0.804200
21
9.329254
31
0.0
0
LINE
8
MCD_Layer_0
10
-0.804200
20
9.422404
30
0.0
11
-0.429200
21
9.422404
31
0.0
0
LINE
8
MCD_Layer_0
10
-0.429200
20
9.329254
30
0.0
11
-0.528200
21
9.329254
31
0.0
0
LINE
8
MCD_Layer_0
10
-0.558200
20
9.306754
30
0.0
11
-0.976700
21
7.859404
31
0.0
0
LINE
8
MCD_Layer_0
10
-1.234700
20
8.883904
30
0.0
11
-1.461200
21
7.859404
31
0.0
0
LINE
8
MCD_Layer_0
10
-0.288900
20
8.359504
30
0.0
11
-0.192600
21
8.359504
31
0.0
0
LINE
8
MCD_Layer_0
10
0.312750
20
8.508004
30
0.0
11
-0.147900
21
8.913004
31
0.0
0
LINE
8
MCD_Layer_0
10
0.426750
20
9.511504
30
0.0
11
0.510750
21
9.511504
31
0.0
0
LINE
8
MCD_Layer_0
10
0.510750
20
9.136504
30
0.0
11
0.426750
21
9.136504
31
0.0
0
LINE
8
MCD_Layer_0
10
0.026100
20
8.968504
30
0.0
11
0.375750
21
8.703004
31
0.0
0
LINE
8
MCD_Layer_0
10
-0.288900
20
7.923004
30
0.0
11
-0.288900
21
8.359504
31
0.0
0
LINE
8
MCD_Layer_0
10
-0.192600
20
8.359504
30
0.0
11
-0.192600
21
8.312704
31
0.0
0
LINE
8
MCD_Layer_0
10
0.426750
20
9.489004
30
0.0
11
0.426750
21
9.511504
31
0.0
0
LINE
8
MCD_Layer_0
10
0.510750
20
9.511504
30
0.0
11
0.510750
21
9.136504
31
0.0
0
LINE
8
MCD_Layer_0
10
0.426750
20
9.136504
30
0.0
11
0.426750
21
9.168004
31
0.0
0
LINE
8
MCD_Layer_0
10
-0.192600
20
7.923004
30
0.0
11
-0.288900
21
7.923004
31
0.0
0
LINE
8
MCD_Layer_0
10
0.888500
20
8.016754
30
0.0
11
0.983000
21
8.016754
31
0.0
0
LINE
8
MCD_Layer_0
10
1.013000
20
8.048254
30
0.0
11
1.013000
21
9.299254
31
0.0
0
LINE
8
MCD_Layer_0
10
0.983000
20
9.329254
30
0.0
11
0.888500
21
9.329254
31
0.0
0
LINE
8
MCD_Layer_0
10
0.888500
20
9.423004
30
0.0
11
1.310000
21
9.423004
31
0.0
0
LINE
8
MCD_Layer_0
10
1.310000
20
9.329254
30
0.0
11
1.217000
21
9.329254
31
0.0
0
LINE
8
MCD_Layer_0
10
1.185500
20
9.299254
30
0.0
11
1.185500
21
8.767504
31
0.0
0
LINE
8
MCD_Layer_0
10
1.818500
20
8.767504
30
0.0
11
1.818500
21
9.299254
31
0.0
0
LINE
8
MCD_Layer_0
10
1.787000
20
9.329254
30
0.0
11
1.694000
21
9.329254
31
0.0
0
LINE
8
MCD_Layer_0
10
1.694000
20
9.423004
30
0.0
11
2.115500
21
9.423004
31
0.0
0
LINE
8
MCD_Layer_0
10
2.115500
20
9.329254
30
0.0
11
2.021000
21
9.329254
31
0.0
0
LINE
8
MCD_Layer_0
10
1.989500
20
9.299254
30
0.0
11
1.989500
21
8.048254
31
0.0
0
LINE
8
MCD_Layer_0
10
2.021000
20
8.016754
30
0.0
11
2.115500
21
8.016754
31
0.0
0
LINE
8
MCD_Layer_0
10
2.115500
20
7.923004
30
0.0
11
1.694000
21
7.923004
31
0.0
0
LINE
8
MCD_Layer_0
10
1.694000
20
8.016754
30
0.0
11
1.787000
21
8.016754
31
0.0
0
LINE
8
MCD_Layer_0
10
1.818500
20
8.048254
30
0.0
11
1.818500
21
8.673004
31
0.0
0
LINE
8
MCD_Layer_0
10
1.185500
20
8.673004
30
0.0
11
1.185500
21
8.048254
31
0.0
0
LINE
8
MCD_Layer_0
10
1.217000
20
8.016754
30
0.0
11
1.310000
21
8.016754
31
0.0
0
LINE
8
MCD_Layer_0
10
1.310000
20
7.923004
30
0.0
11
0.888500
21
7.923004
31
0.0
0
LINE
8
MCD_Layer_0
10
0.888500
20
7.923004
30
0.0
11
0.888500
21
8.016754
31
0.0
0
LINE
8
MCD_Layer_0
10
0.888500
20
9.329254
30
0.0
11
0.888500
21
9.423004
31
0.0
0
LINE
8
MCD_Layer_0
10
1.310000
20
9.423004
30
0.0
11
1.310000
21
9.329254
31
0.0
0
LINE
8
MCD_Layer_0
10
1.185500
20
8.767504
30
0.0
11
1.818500
21
8.767504
31
0.0
0
LINE
8
MCD_Layer_0
10
1.694000
20
9.329254
30
0.0
11
1.694000
21
9.423004
31
0.0
0
LINE
8
MCD_Layer_0
10
2.115500
20
9.423004
30
0.0
11
2.115500
21
9.329254
31
0.0
0
LINE
8
MCD_Layer_0
10
2.115500
20
8.016754
30
0.0
11
2.115500
21
7.923004
31
0.0
0
LINE
8
MCD_Layer_0
10
1.694000
20
7.923004
30
0.0
11
1.694000
21
8.016754
31
0.0
0
LINE
8
MCD_Layer_0
10
1.818500
20
8.673004
30
0.0
11
1.185500
21
8.673004
31
0.0
0
LINE
8
MCD_Layer_0
10
1.310000
20
8.016754
30
0.0
11
1.310000
21
7.923004
31
0.0
0
LINE
8
MCD_Layer_0
10
2.365000
20
8.016754
30
0.0
11
2.459500
21
8.016754
31
0.0
0
LINE
8
MCD_Layer_0
10
2.489500
20
8.048254
30
0.0
11
2.489500
21
9.299254
31
0.0
0
LINE
8
MCD_Layer_0
10
2.459500
20
9.329254
30
0.0
11
2.365000
21
9.329254
31
0.0
0
LINE
8
MCD_Layer_0
10
2.365000
20
9.423004
30
0.0
11
3.224500
21
9.423004
31
0.0
0
LINE
8
MCD_Layer_0
10
3.224500
20
9.142504
30
0.0
11
3.137500
21
9.142504
31
0.0
0
LINE
8
MCD_Layer_0
10
2.662000
20
9.330004
30
0.0
11
2.662000
21
8.767504
31
0.0
0
LINE
8
MCD_Layer_0
10
2.996950
20
8.875504
30
0.0
11
3.091000
21
8.875504
31
0.0
0
LINE
8
MCD_Layer_0
10
3.091000
20
8.567554
30
0.0
11
2.996950
21
8.567554
31
0.0
0
LINE
8
MCD_Layer_0
10
2.662000
20
8.675554
30
0.0
11
2.662000
21
8.086504
31
0.0
0
LINE
8
MCD_Layer_0
10
3.287800
20
8.284654
30
0.0
11
3.373000
21
8.244004
31
0.0
0
LINE
8
MCD_Layer_0
10
3.263500
20
7.923004
30
0.0
11
2.365000
21
7.923004
31
0.0
0
LINE
8
MCD_Layer_0
10
2.365000
20
7.923004
30
0.0
11
2.365000
21
8.016754
31
0.0
0
LINE
8
MCD_Layer_0
10
2.365000
20
9.329254
30
0.0
11
2.365000
21
9.423004
31
0.0
0
LINE
8
MCD_Layer_0
10
3.224500
20
9.423004
30
0.0
11
3.224500
21
9.142504
31
0.0
0
LINE
8
MCD_Layer_0
10
3.137500
20
9.142504
30
0.0
11
3.137500
21
9.267004
31
0.0
0
LINE
8
MCD_Layer_0
10
3.076000
20
9.330004
30
0.0
11
2.662000
21
9.330004
31
0.0
0
LINE
8
MCD_Layer_0
10
2.662000
20
8.767504
30
0.0
11
2.965450
21
8.767504
31
0.0
0
LINE
8
MCD_Layer_0
10
2.996950
20
8.797504
30
0.0
11
2.996950
21
8.875504
31
0.0
0
LINE
8
MCD_Layer_0
10
3.091000
20
8.875504
30
0.0
11
3.091000
21
8.567554
31
0.0
0
LINE
8
MCD_Layer_0
10
2.996950
20
8.567554
30
0.0
11
2.996950
21
8.645554
31
0.0
0
LINE
8
MCD_Layer_0
10
2.965450
20
8.675554
30
0.0
11
2.662000
21
8.675554
31
0.0
0
LINE
8
MCD_Layer_0
10
3.246550
20
8.163154
30
0.0
11
3.287800
21
8.284654
31
0.0
0
LINE
8
MCD_Layer_0
10
3.373000
20
8.244004
30
0.0
11
3.263500
21
7.923004
31
0.0
0
LINE
8
MCD_Layer_0
10
3.497500
20
8.016754
30
0.0
11
3.592000
21
8.016754
31
0.0
0
LINE
8
MCD_Layer_0
10
3.622000
20
8.048254
30
0.0
11
3.622000
21
9.299254
31
0.0
0
LINE
8
MCD_Layer_0
10
3.592000
20
9.329254
30
0.0
11
3.497500
21
9.329254
31
0.0
0
LINE
8
MCD_Layer_0
10
3.497500
20
9.423004
30
0.0
11
4.013500
21
9.423004
31
0.0
0
LINE
8
MCD_Layer_0
10
4.562500
20
8.001004
30
0.0
11
4.586500
21
7.947004
31
0.0
0
LINE
8
MCD_Layer_0
10
3.794500
20
8.641504
30
0.0
11
3.794500
21
8.048254
31
0.0
0
LINE
8
MCD_Layer_0
10
3.826000
20
8.016754
30
0.0
11
3.919000
21
8.016754
31
0.0
0
LINE
8
MCD_Layer_0
10
3.919000
20
7.923004
30
0.0
11
3.497500
21
7.923004
31
0.0
0
LINE
8
MCD_Layer_0
10
3.967000
20
9.330004
30
0.0
11
3.794500
21
9.330004
31
0.0
0
LINE
8
MCD_Layer_0
10
3.497500
20
7.923004
30
0.0
11
3.497500
21
8.016754
31
0.0
0
LINE
8
MCD_Layer_0
10
3.497500
20
9.329254
30
0.0
11
3.497500
21
9.423004
31
0.0
0
LINE
8
MCD_Layer_0
10
3.919000
20
8.016754
30
0.0
11
3.919000
21
7.923004
31
0.0
0
LINE
8
MCD_Layer_0
10
3.794500
20
9.330004
30
0.0
11
3.794500
21
8.736004
31
0.0
0
LINE
8
MCD_Layer_0
10
-6.916090
20
6.110505
30
0.0
11
-6.879040
21
6.110505
31
0.0
0
LINE
8
MCD_Layer_0
10
-6.841040
20
6.138505
30
0.0
11
-6.515190
21
7.100005
31
0.0
0
LINE
8
MCD_Layer_0
10
-6.084840
20
6.110505
30
0.0
11
-6.084840
21
6.048005
31
0.0
0
LINE
8
MCD_Layer_0
10
-6.376490
20
6.048005
30
0.0
11
-6.376490
21
6.110505
31
0.0
0
LINE
8
MCD_Layer_0
10
-6.407840
20
6.423005
30
0.0
11
-6.682390
21
6.423005
31
0.0
0
LINE
8
MCD_Layer_0
10
-6.712790
20
6.110505
30
0.0
11
-6.712790
21
6.048005
31
0.0
0
LINE
8
MCD_Layer_0
10
-6.661490
20
6.486005
30
0.0
11
-6.428740
21
6.486005
31
0.0
0
LINE
8
MCD_Layer_0
10
-6.545590
20
6.836005
30
0.0
11
-6.661490
21
6.486005
31
0.0
0
LINE
8
MCD_Layer_0
10
-6.916090
20
6.048005
30
0.0
11
-6.916090
21
6.110505
31
0.0
0
LINE
8
MCD_Layer_0
10
-6.515190
20
7.100005
30
0.0
11
-6.188390
21
6.138505
31
0.0
0
LINE
8
MCD_Layer_0
10
-6.150390
20
6.110505
30
0.0
11
-6.084840
21
6.110505
31
0.0
0
LINE
8
MCD_Layer_0
10
-6.084840
20
6.048005
30
0.0
11
-6.376490
21
6.048005
31
0.0
0
LINE
8
MCD_Layer_0
10
-6.376490
20
6.110505
30
0.0
11
-6.324240
21
6.110505
31
0.0
0
LINE
8
MCD_Layer_0
10
-6.306190
20
6.137505
30
0.0
11
-6.407840
21
6.423005
31
0.0
0
LINE
8
MCD_Layer_0
10
-6.682390
20
6.423005
30
0.0
11
-6.784040
21
6.137505
31
0.0
0
LINE
8
MCD_Layer_0
10
-6.765040
20
6.110505
30
0.0
11
-6.712790
21
6.110505
31
0.0
0
LINE
8
MCD_Layer_0
10
-6.712790
20
6.048005
30
0.0
11
-6.916090
21
6.048005
31
0.0
0
LINE
8
MCD_Layer_0
10
-6.428740
20
6.486005
30
0.0
11
-6.545590
21
6.836005
31
0.0
0
LINE
8
MCD_Layer_0
10
-6.041708
20
7.049105
30
0.0
11
-5.773808
21
7.049105
31
0.0
0
LINE
8
MCD_Layer_0
10
-5.773808
20
6.986605
30
0.0
11
-5.833658
21
6.986605
31
0.0
0
LINE
8
MCD_Layer_0
10
-5.853608
20
6.966605
30
0.0
11
-5.853608
21
6.341105
31
0.0
0
LINE
8
MCD_Layer_0
10
-5.392858
20
6.309105
30
0.0
11
-5.392858
21
6.966605
31
0.0
0
LINE
8
MCD_Layer_0
10
-5.412808
20
6.986605
30
0.0
11
-5.472658
21
6.986605
31
0.0
0
LINE
8
MCD_Layer_0
10
-5.472658
20
7.049105
30
0.0
11
-5.255108
21
7.049105
31
0.0
0
LINE
8
MCD_Layer_0
10
-5.255108
20
6.986605
30
0.0
11
-5.314008
21
6.986605
31
0.0
0
LINE
8
MCD_Layer_0
10
-5.333958
20
6.966605
30
0.0
11
-5.333768
21
6.296505
31
0.0
0
LINE
8
MCD_Layer_0
10
-6.041708
20
6.986605
30
0.0
11
-6.041708
21
7.049105
31
0.0
0
LINE
8
MCD_Layer_0
10
-5.773808
20
7.049105
30
0.0
11
-5.773808
21
6.986605
31
0.0
0
LINE
8
MCD_Layer_0
10
-5.472658
20
6.986605
30
0.0
11
-5.472658
21
7.049105
31
0.0
0
LINE
8
MCD_Layer_0
10
-5.255108
20
7.049105
30
0.0
11
-5.255108
21
6.986605
31
0.0
0
LINE
8
MCD_Layer_0
10
-5.961908
20
6.320105
30
0.0
11
-5.961908
21
6.966605
31
0.0
0
LINE
8
MCD_Layer_0
10
-5.981858
20
6.986605
30
0.0
11
-6.041708
21
6.986605
31
0.0
0
LINE
8
MCD_Layer_0
10
-4.328860
20
6.398105
30
0.0
11
-4.388710
21
6.398105
31
0.0
0
LINE
8
MCD_Layer_0
10
-4.408660
20
6.377105
30
0.0
11
-4.408660
21
6.029105
31
0.0
0
LINE
8
MCD_Layer_0
10
-4.458060
20
6.029105
30
0.0
11
-4.458060
21
6.044105
31
0.0
0
LINE
8
MCD_Layer_0
10
-4.487510
20
7.080105
30
0.0
11
-4.432790
21
7.080105
31
0.0
0
LINE
8
MCD_Layer_0
10
-4.432790
20
6.778105
30
0.0
11
-4.487510
21
6.778105
31
0.0
0
LINE
8
MCD_Layer_0
10
-4.596760
20
6.398105
30
0.0
11
-4.596760
21
6.455405
31
0.0
0
LINE
8
MCD_Layer_0
10
-4.328860
20
6.455405
30
0.0
11
-4.328860
21
6.398105
31
0.0
0
LINE
8
MCD_Layer_0
10
-4.408660
20
6.029105
30
0.0
11
-4.458060
21
6.029105
31
0.0
0
LINE
8
MCD_Layer_0
10
-4.432790
20
7.080105
30
0.0
11
-4.432790
21
6.778105
31
0.0
0
LINE
8
MCD_Layer_0
10
-4.516960
20
6.268105
30
0.0
11
-4.516960
21
6.377105
31
0.0
0
LINE
8
MCD_Layer_0
10
-4.536910
20
6.398105
30
0.0
11
-4.596760
21
6.398105
31
0.0
0
LINE
8
MCD_Layer_0
10
-4.596760
20
6.455405
30
0.0
11
-4.328860
21
6.455405
31
0.0
0
LINE
8
MCD_Layer_0
10
-4.108555
20
6.114778
30
0.0
11
-4.166358
21
6.068864
31
0.0
0
LINE
8
MCD_Layer_0
10
-3.335160
20
6.100005
30
0.0
11
-3.315210
21
6.100005
31
0.0
0
LINE
8
MCD_Layer_0
10
-3.275310
20
6.143005
30
0.0
11
-3.275310
21
6.877005
31
0.0
0
LINE
8
MCD_Layer_0
10
-3.315210
20
6.920005
30
0.0
11
-3.335160
21
6.920005
31
0.0
0
LINE
8
MCD_Layer_0
10
-3.176510
20
7.111005
30
0.0
11
-3.176510
21
6.143005
31
0.0
0
LINE
8
MCD_Layer_0
10
-3.137560
20
6.100005
30
0.0
11
-3.117610
21
6.100005
31
0.0
0
LINE
8
MCD_Layer_0
10
-3.117610
20
6.048005
30
0.0
11
-3.335160
21
6.048005
31
0.0
0
LINE
8
MCD_Layer_0
10
-3.335160
20
6.048005
30
0.0
11
-3.335160
21
6.100005
31
0.0
0
LINE
8
MCD_Layer_0
10
-3.335160
20
6.920005
30
0.0
11
-3.335160
21
6.984005
31
0.0
0
LINE
8
MCD_Layer_0
10
-3.216410
20
7.111005
30
0.0
11
-3.176510
21
7.111005
31
0.0
0
LINE
8
MCD_Layer_0
10
-3.117610
20
6.100005
30
0.0
11
-3.117610
21
6.048005
31
0.0
0
LINE
8
MCD_Layer_0
10
-2.789575
20
6.514105
30
0.0
11
-2.869375
21
6.556105
31
0.0
0
LINE
8
MCD_Layer_0
10
-2.769625
20
7.046105
30
0.0
11
-2.294625
21
7.046105
31
0.0
0
LINE
8
MCD_Layer_0
10
-2.294625
20
6.813105
30
0.0
11
-2.354475
21
6.813105
31
0.0
0
LINE
8
MCD_Layer_0
10
-2.710725
20
6.941105
30
0.0
11
-2.769625
21
6.662105
31
0.0
0
LINE
8
MCD_Layer_0
10
-2.919725
20
6.142105
30
0.0
11
-2.886475
21
6.198105
31
0.0
0
LINE
8
MCD_Layer_0
10
-2.869375
20
6.556105
30
0.0
11
-2.769625
21
7.046105
31
0.0
0
LINE
8
MCD_Layer_0
10
-2.294625
20
7.046105
30
0.0
11
-2.294625
21
6.813105
31
0.0
0
LINE
8
MCD_Layer_0
10
-2.354475
20
6.813105
30
0.0
11
-2.354475
21
6.898105
31
0.0
0
LINE
8
MCD_Layer_0
10
-2.394375
20
6.941105
30
0.0
11
-2.710725
21
6.941105
31
0.0
0
LINE
8
MCD_Layer_0
10
-5.715575
20
4.475004
30
0.0
11
-5.695625
21
4.475004
31
0.0
0
LINE
8
MCD_Layer_0
10
-5.655725
20
4.518004
30
0.0
11
-5.655725
21
5.252004
31
0.0
0
LINE
8
MCD_Layer_0
10
-5.695625
20
5.295004
30
0.0
11
-5.715575
21
5.295004
31
0.0
0
LINE
8
MCD_Layer_0
10
-5.556925
20
5.486004
30
0.0
11
-5.556925
21
4.518004
31
0.0
0
LINE
8
MCD_Layer_0
10
-5.517975
20
4.475004
30
0.0
11
-5.498025
21
4.475004
31
0.0
0
LINE
8
MCD_Layer_0
10
-5.498025
20
4.423004
30
0.0
11
-5.715575
21
4.423004
31
0.0
0
LINE
8
MCD_Layer_0
10
-5.715575
20
4.423004
30
0.0
11
-5.715575
21
4.475004
31
0.0
0
LINE
8
MCD_Layer_0
10
-5.715575
20
5.295004
30
0.0
11
-5.715575
21
5.359004
31
0.0
0
LINE
8
MCD_Layer_0
10
-5.596825
20
5.486004
30
0.0
11
-5.556925
21
5.486004
31
0.0
0
LINE
8
MCD_Layer_0
10
-5.498025
20
4.475004
30
0.0
11
-5.498025
21
4.423004
31
0.0
0
LINE
8
MCD_Layer_0
10
-5.310021
20
4.390840
30
0.0
11
-5.310021
21
4.454840
31
0.0
0
LINE
8
MCD_Layer_0
10
-4.823621
20
5.124240
30
0.0
11
-4.823146
21
5.170240
31
0.0
0
LINE
8
MCD_Layer_0
10
-5.219391
20
5.170240
30
0.0
11
-5.219391
21
5.097240
31
0.0
0
LINE
8
MCD_Layer_0
10
-3.880935
20
5.455204
30
0.0
11
-3.880935
21
5.391204
31
0.0
0
LINE
8
MCD_Layer_0
10
-4.367335
20
4.721804
30
0.0
11
-4.367810
21
4.675804
31
0.0
0
LINE
8
MCD_Layer_0
10
-3.971565
20
4.675804
30
0.0
11
-3.971565
21
4.748804
31
0.0
0
LINE
8
MCD_Layer_0
10
-3.680010
20
5.146104
30
0.0
11
-3.680010
21
5.465104
31
0.0
0
LINE
8
MCD_Layer_0
10
-3.185535
20
4.693704
30
0.0
11
-3.133380
21
4.662604
31
0.0
0
LINE
8
MCD_Layer_0
10
-3.205010
20
4.423004
30
0.0
11
-3.680010
21
4.423004
31
0.0
0
LINE
8
MCD_Layer_0
10
-3.620635
20
5.146104
30
0.0
11
-3.680010
21
5.146104
31
0.0
0
LINE
8
MCD_Layer_0
10
-3.680010
20
5.465104
30
0.0
11
-3.600875
21
5.465104
31
0.0
0
LINE
8
MCD_Layer_0
10
-3.620635
20
4.527204
30
0.0
11
-3.322810
21
4.527204
31
0.0
0
LINE
8
MCD_Layer_0
10
-3.209665
20
4.614204
30
0.0
11
-3.185535
21
4.693704
31
0.0
0
LINE
8
MCD_Layer_0
10
-3.133380
20
4.662604
30
0.0
11
-3.205010
21
4.423004
31
0.0
0
LINE
8
MCD_Layer_0
10
2.286930
20
6.125000
30
0.0
11
2.336330
21
6.125000
31
0.0
0
LINE
8
MCD_Layer_0
10
2.356280
20
6.146000
30
0.0
11
2.356280
21
6.980001
31
0.0
0
LINE
8
MCD_Layer_0
10
2.336330
20
7.000001
30
0.0
11
2.286930
21
7.000001
31
0.0
0
LINE
8
MCD_Layer_0
10
2.286930
20
7.062500
30
0.0
11
2.667880
21
7.062500
31
0.0
0
LINE
8
MCD_Layer_0
10
2.623230
20
6.062500
30
0.0
11
2.286930
21
6.062500
31
0.0
0
LINE
8
MCD_Layer_0
10
2.465530
20
7.000501
30
0.0
11
2.465530
21
6.213500
31
0.0
0
LINE
8
MCD_Layer_0
10
2.286930
20
6.062500
30
0.0
11
2.286930
21
6.125000
31
0.0
0
LINE
8
MCD_Layer_0
10
2.286930
20
7.000001
30
0.0
11
2.286930
21
7.062500
31
0.0
0
LINE
8
MCD_Layer_0
10
2.618480
20
7.000501
30
0.0
11
2.465530
21
7.000501
31
0.0
0
LINE
8
MCD_Layer_0
10
3.177650
20
6.125000
30
0.0
11
3.237500
21
6.125000
31
0.0
0
LINE
8
MCD_Layer_0
10
3.256500
20
6.146000
30
0.0
11
3.256500
21
6.980001
31
0.0
0
LINE
8
MCD_Layer_0
10
3.237500
20
7.000001
30
0.0
11
3.177650
21
7.000001
31
0.0
0
LINE
8
MCD_Layer_0
10
3.177650
20
7.062500
30
0.0
11
3.722000
21
7.062500
31
0.0
0
LINE
8
MCD_Layer_0
10
3.722000
20
6.875501
30
0.0
11
3.666900
21
6.875501
31
0.0
0
LINE
8
MCD_Layer_0
10
3.365750
20
7.000501
30
0.0
11
3.365750
21
6.625501
31
0.0
0
LINE
8
MCD_Layer_0
10
3.577885
20
6.697500
30
0.0
11
3.637450
21
6.697500
31
0.0
0
LINE
8
MCD_Layer_0
10
3.637450
20
6.492200
30
0.0
11
3.577885
21
6.492200
31
0.0
0
LINE
8
MCD_Layer_0
10
3.365750
20
6.564200
30
0.0
11
3.365750
21
6.171500
31
0.0
0
LINE
8
MCD_Layer_0
10
3.762090
20
6.303600
30
0.0
11
3.816050
21
6.276500
31
0.0
0
LINE
8
MCD_Layer_0
10
3.746700
20
6.062500
30
0.0
11
3.177650
21
6.062500
31
0.0
0
LINE
8
MCD_Layer_0
10
3.177650
20
6.062500
30
0.0
11
3.177650
21
6.125000
31
0.0
0
LINE
8
MCD_Layer_0
10
3.177650
20
7.000001
30
0.0
11
3.177650
21
7.062500
31
0.0
0
LINE
8
MCD_Layer_0
10
3.722000
20
7.062500
30
0.0
11
3.722000
21
6.875501
31
0.0
0
LINE
8
MCD_Layer_0
10
3.666900
20
6.875501
30
0.0
11
3.666900
21
6.958500
31
0.0
0
LINE
8
MCD_Layer_0
10
3.627950
20
7.000501
30
0.0
11
3.365750
21
7.000501
31
0.0
0
LINE
8
MCD_Layer_0
10
3.365750
20
6.625501
30
0.0
11
3.557935
21
6.625501
31
0.0
0
LINE
8
MCD_Layer_0
10
3.577885
20
6.645500
30
0.0
11
3.577885
21
6.697500
31
0.0
0
LINE
8
MCD_Layer_0
10
3.637450
20
6.697500
30
0.0
11
3.637450
21
6.492200
31
0.0
0
LINE
8
MCD_Layer_0
10
3.577885
20
6.492200
30
0.0
11
3.577885
21
6.544200
31
0.0
0
LINE
8
MCD_Layer_0
10
3.557935
20
6.564200
30
0.0
11
3.365750
21
6.564200
31
0.0
0
LINE
8
MCD_Layer_0
10
3.735965
20
6.222600
30
0.0
11
3.762090
21
6.303600
31
0.0
0
LINE
8
MCD_Layer_0
10
3.816050
20
6.276500
30
0.0
11
3.746700
21
6.062500
31
0.0
0
LINE
8
MCD_Layer_0
10
4.560565
20
7.106996
30
0.0
11
4.616615
21
7.106996
31
0.0
0
LINE
8
MCD_Layer_0
10
4.616615
20
6.804996
30
0.0
11
4.555815
21
6.804996
31
0.0
0
LINE
8
MCD_Layer_0
10
4.578615
20
6.324996
30
0.0
11
4.578615
21
6.387996
31
0.0
0
LINE
8
MCD_Layer_0
10
4.642265
20
6.387996
30
0.0
11
4.642265
21
6.324996
31
0.0
0
LINE
8
MCD_Layer_0
10
4.560565
20
7.095996
30
0.0
11
4.560565
21
7.106996
31
0.0
0
LINE
8
MCD_Layer_0
10
4.616615
20
7.106996
30
0.0
11
4.616615
21
6.804996
31
0.0
0
LINE
8
MCD_Layer_0
10
4.555815
20
6.804996
30
0.0
11
4.555815
21
6.840996
31
0.0
0
LINE
8
MCD_Layer_0
10
4.578615
20
6.387996
30
0.0
11
4.642265
21
6.387996
31
0.0
0
LINE
8
MCD_Layer_0
10
4.857440
20
6.129274
30
0.0
11
4.799638
21
6.083360
31
0.0
0
LINE
8
MCD_Layer_0
10
3.011590
20
5.160600
30
0.0
11
3.011590
21
5.479600
31
0.0
0
LINE
8
MCD_Layer_0
10
3.506065
20
4.708200
30
0.0
11
3.558220
21
4.677100
31
0.0
0
LINE
8
MCD_Layer_0
10
3.486590
20
4.437500
30
0.0
11
3.011590
21
4.437500
31
0.0
0
LINE
8
MCD_Layer_0
10
3.070965
20
5.160600
30
0.0
11
3.011590
21
5.160600
31
0.0
0
LINE
8
MCD_Layer_0
10
3.011590
20
5.479600
30
0.0
11
3.090725
21
5.479600
31
0.0
0
LINE
8
MCD_Layer_0
10
3.070965
20
4.541700
30
0.0
11
3.368790
21
4.541700
31
0.0
0
LINE
8
MCD_Layer_0
10
3.481935
20
4.628700
30
0.0
11
3.506065
21
4.708200
31
0.0
0
LINE
8
MCD_Layer_0
10
3.558220
20
4.677100
30
0.0
11
3.486590
21
4.437500
31
0.0
0
LINE
8
MCD_Layer_0
10
5.622475
20
4.489500
30
0.0
11
5.642425
21
4.489500
31
0.0
0
LINE
8
MCD_Layer_0
10
5.682325
20
4.532500
30
0.0
11
5.682325
21
5.266500
31
0.0
0
LINE
8
MCD_Layer_0
10
5.642425
20
5.309500
30
0.0
11
5.622475
21
5.309500
31
0.0
0
LINE
8
MCD_Layer_0
10
5.781125
20
5.500500
30
0.0
11
5.781125
21
4.532500
31
0.0
0
LINE
8
MCD_Layer_0
10
5.820075
20
4.489500
30
0.0
11
5.840025
21
4.489500
31
0.0
0
LINE
8
MCD_Layer_0
10
5.840025
20
4.437500
30
0.0
11
5.622475
21
4.437500
31
0.0
0
LINE
8
MCD_Layer_0
10
5.622475
20
4.437500
30
0.0
11
5.622475
21
4.489500
31
0.0
0
LINE
8
MCD_Layer_0
10
5.622475
20
5.309500
30
0.0
11
5.622475
21
5.373500
31
0.0
0
LINE
8
MCD_Layer_0
10
5.741225
20
5.500500
30
0.0
11
5.781125
21
5.500500
31
0.0
0
LINE
8
MCD_Layer_0
10
5.840025
20
4.489500
30
0.0
11
5.840025
21
4.437500
31
0.0
0
LINE
8
MCD_Layer_0
10
0.203100
20
12.859400
30
0.0
11
0.203100
21
14.044500
31
0.0
0
LINE
8
MCD_Layer_0
10
0.203100
20
15.015600
30
0.0
11
-0.203100
21
15.015600
31
0.0
0
LINE
8
MCD_Layer_0
10
-0.203100
20
14.044500
30
0.0
11
-0.203100
21
12.859400
31
0.0
0
LINE
8
MCD_Layer_0
10
0.125000
20
12.937500
30
0.0
11
0.125000
21
14.122600
31
0.0
0
LINE
8
MCD_Layer_0
10
0.125000
20
14.937500
30
0.0
11
-0.125000
21
14.937500
31
0.0
0
LINE
8
MCD_Layer_0
10
-0.125000
20
14.122600
30
0.0
11
-0.125000
21
12.937500
31
0.0
0
LINE
8
MCD_Layer_0
10
0.640600
20
14.044500
30
0.0
11
0.640600
21
14.450700
31
0.0
0
LINE
8
MCD_Layer_0
10
-0.203100
20
14.450700
30
0.0
11
-0.640600
21
14.450700
31
0.0
0
LINE
8
MCD_Layer_0
10
-0.640600
20
14.044500
30
0.0
11
-0.203100
21
14.044500
31
0.0
0
LINE
8
MCD_Layer_0
10
0.562500
20
14.122600
30
0.0
11
0.562500
21
14.372600
31
0.0
0
LINE
8
MCD_Layer_0
10
-0.125000
20
14.372600
30
0.0
11
-0.562500
21
14.372600
31
0.0
0
LINE
8
MCD_Layer_0
10
-0.562500
20
14.122600
30
0.0
11
-0.125000
21
14.122600
31
0.0
0
LINE
8
MCD_Layer_0
10
-0.203100
20
12.859400
30
0.0
11
0.203100
21
12.859400
31
0.0
0
LINE
8
MCD_Layer_0
10
0.203100
20
14.450700
30
0.0
11
0.203100
21
15.015600
31
0.0
0
LINE
8
MCD_Layer_0
10
-0.203100
20
15.015600
30
0.0
11
-0.203100
21
14.450700
31
0.0
0
LINE
8
MCD_Layer_0
10
-0.125000
20
12.937500
30
0.0
11
0.125000
21
12.937500
31
0.0
0
LINE
8
MCD_Layer_0
10
0.125000
20
14.372600
30
0.0
11
0.125000
21
14.937500
31
0.0
0
LINE
8
MCD_Layer_0
10
-0.125000
20
14.937500
30
0.0
11
-0.125000
21
14.372600
31
0.0
0
LINE
8
MCD_Layer_0
10
0.203100
20
14.044500
30
0.0
11
0.640600
21
14.044500
31
0.0
0
LINE
8
MCD_Layer_0
10
0.640600
20
14.450700
30
0.0
11
0.203100
21
14.450700
31
0.0
0
LINE
8
MCD_Layer_0
10
-0.640600
20
14.450700
30
0.0
11
-0.640600
21
14.044500
31
0.0
0
LINE
8
MCD_Layer_0
10
0.125000
20
14.122600
30
0.0
11
0.562500
21
14.122600
31
0.0
0
LINE
8
MCD_Layer_0
10
0.562500
20
14.372600
30
0.0
11
0.125000
21
14.372600
31
0.0
0
LINE
8
MCD_Layer_0
10
-0.562500
20
14.372600
30
0.0
11
-0.562500
21
14.122600
31
0.0
0
LINE
8
MCD_Layer_11
10
0.203100
20
1.513200
30
0.0
11
0.203100
21
2.078100
31
0.0
0
LINE
8
MCD_Layer_11
10
-0.203100
20
2.078100
30
0.0
11
-0.203100
21
1.513200
31
0.0
0
LINE
8
MCD_Layer_0
10
10.000000
20
0.000000
30
0.0
11
10.000008
21
14.337500
31
0.0
0
LINE
8
MCD_Layer_1
10
-10.000000
20
0.000000
30
0.0
11
-10.000000
21
-3.000000
31
0.0
0
LINE
8
MCD_Layer_1
10
10.000000
20
-3.000000
30
0.0
11
10.000000
21
0.000000
31
0.0
0
LINE
8
MCD_Layer_0
10
-7.181784
20
5.233148
30
0.0
11
-7.314348
21
5.407485
31
0.0
0
LINE
8
MCD_Layer_0
10
-7.737655
20
6.560941
30
0.0
11
-7.726213
21
6.614899
31
0.0
0
LINE
8
MCD_Layer_0
10
-7.337454
20
7.988350
30
0.0
11
-7.404369
21
8.040834
31
0.0
0
LINE
8
MCD_Layer_0
10
-7.175197
20
8.543527
30
0.0
11
-7.228325
21
8.562322
31
0.0
0
LINE
8
MCD_Layer_0
10
-6.200178
20
11.901863
30
0.0
11
-6.253009
21
11.951728
31
0.0
0
LINE
8
MCD_Layer_0
10
-5.990849
20
12.374114
30
0.0
11
-6.052963
21
12.391459
31
0.0
0
LINE
8
MCD_Layer_0
10
-6.592905
20
12.985909
30
0.0
11
-6.614122
21
13.048935
31
0.0
0
LINE
8
MCD_Layer_0
10
-7.048501
20
12.719494
30
0.0
11
-7.092207
21
12.760626
31
0.0
0
LINE
8
MCD_Layer_0
10
-8.357860
20
12.006339
30
0.0
11
-8.401970
21
11.966690
31
0.0
0
LINE
8
MCD_Layer_0
10
-8.163610
20
11.719702
30
0.0
11
-8.206059
21
11.673966
31
0.0
0
LINE
8
MCD_Layer_0
10
-9.438096
20
11.100908
30
0.0
11
-9.483343
21
11.061848
31
0.0
0
LINE
8
MCD_Layer_0
10
-9.500868
20
10.092838
30
0.0
11
-9.539161
21
10.047895
31
0.0
0
LINE
8
MCD_Layer_0
10
-8.869244
20
9.096928
30
0.0
11
-8.884715
21
9.019938
31
0.0
0
LINE
8
MCD_Layer_0
10
-9.046260
20
8.736712
30
0.0
11
-9.067692
21
8.681274
31
0.0
0
LINE
8
MCD_Layer_0
10
-7.432091
20
4.383591
30
0.0
11
-7.533269
21
4.402477
31
0.0
0
LINE
8
MCD_Layer_0
10
-8.251420
20
8.730842
30
0.0
11
-8.190453
21
8.666512
31
0.0
0
LINE
8
MCD_Layer_0
10
-7.784435
20
8.985231
30
0.0
11
-7.751772
21
8.914240
31
0.0
0
LINE
8
MCD_Layer_0
10
-7.325119
20
8.522057
30
0.0
11
-7.252372
21
8.495379
31
0.0
0
LINE
8
MCD_Layer_0
10
-7.515075
20
8.037454
30
0.0
11
-7.441865
21
7.979590
31
0.0
0
LINE
8
MCD_Layer_0
10
-8.157971
20
6.721593
30
0.0
11
-8.134472
21
6.708001
31
0.0
0
LINE
8
MCD_Layer_0
10
-8.215164
20
5.821901
30
0.0
11
-8.232536
21
5.804499
31
0.0
0
LINE
8
MCD_Layer_0
10
-8.427892
20
6.247411
30
0.0
11
-8.382268
21
6.262630
31
0.0
0
LINE
8
MCD_Layer_72
10
2.000000
20
0.000000
30
0.0
11
0.000000
21
2.000001
31
0.0
0
LINE
8
MCD_Layer_72
10
-0.000000
20
0.000000
30
0.0
11
2.000000
21
-0.000000
31
0.0
0
LINE
8
MCD_Layer_0
10
-8.020127
20
7.687284
30
0.0
11
-8.032334
21
7.729131
31
0.0
0
LINE
8
MCD_Layer_0
10
-8.287794
20
7.560923
30
0.0
11
-8.250460
21
7.547604
31
0.0
0
LINE
8
MCD_Layer_2
10
-7.398719
20
8.857065
30
0.0
11
-7.424433
21
8.877179
31
0.0
0
LINE
8
MCD_Layer_72
10
-0.000000
20
2.000001
30
0.0
11
-0.000000
21
0.000000
31
0.0
0
LINE
8
MCD_Layer_0
10
-8.613562
20
8.859785
30
0.0
11
-8.506349
21
8.833715
31
0.0
0
LINE
8
MCD_Layer_56
10
-0.000000
20
-2.000001
30
0.0
11
-2.000000
21
-0.000000
31
0.0
0
LINE
8
MCD_Layer_2
10
-9.431667
20
8.553488
30
0.0
11
-9.404257
21
8.566952
31
0.0
0
LINE
8
MCD_Layer_72
10
0.000000
20
-2.000001
30
0.0
11
0.000000
21
-0.000000
31
0.0
0
LINE
8
MCD_Layer_2
10
-8.100264
20
10.942059
30
0.0
11
-8.192885
21
10.779570
31
0.0
0
LINE
8
MCD_Layer_2
10
-8.073564
20
10.781378
30
0.0
11
-8.006791
21
10.897520
31
0.0
0
LINE
8
MCD_Layer_0
10
-8.119319
20
11.693140
30
0.0
11
-8.060771
21
11.743217
31
0.0
0
LINE
8
MCD_Layer_0
10
-8.317036
20
11.970114
30
0.0
11
-8.266378
21
12.023115
31
0.0
0
LINE
8
MCD_Layer_0
10
-8.090487
20
12.544019
30
0.0
11
-8.096912
21
12.611476
31
0.0
0
LINE
8
MCD_Layer_0
10
-7.592202
20
12.496181
30
0.0
11
-7.573066
21
12.561989
31
0.0
0
LINE
8
MCD_Layer_0
10
-7.288119
20
12.194523
30
0.0
11
-7.205198
21
12.196598
31
0.0
0
LINE
8
MCD_Layer_0
10
-7.072895
20
12.678424
30
0.0
11
-7.016710
21
12.625774
31
0.0
0
LINE
8
MCD_Layer_0
10
-6.644132
20
12.961126
30
0.0
11
-6.618434
21
12.893901
31
0.0
0
LINE
8
MCD_Layer_0
10
-6.149976
20
12.366513
30
0.0
11
-6.079891
21
12.335037
31
0.0
0
LINE
8
MCD_Layer_0
10
-6.347617
20
11.967410
30
0.0
11
-6.291871
21
11.915956
31
0.0
0
LINE
8
MCD_Layer_0
10
-6.668556
20
11.769182
30
0.0
11
-6.660100
21
11.709057
31
0.0
0
LINE
8
MCD_Layer_0
10
-6.486478
20
11.682657
30
0.0
11
-6.506347
21
11.626356
31
0.0
0
LINE
8
MCD_Layer_0
10
-6.161540
20
11.406685
30
0.0
11
-6.205800
21
11.360381
31
0.0
0
LINE
8
MCD_Layer_0
10
-7.414279
20
11.363900
30
0.0
11
-7.464075
21
11.399046
31
0.0
0
LINE
8
MCD_Layer_2
10
-7.461711
20
11.771456
30
0.0
11
-7.435922
21
11.793407
31
0.0
0
LINE
8
MCD_Layer_56
10
-2.000000
20
0.000000
30
0.0
11
-0.000000
21
-0.000000
31
0.0
0
LINE
8
MCD_Layer_2
10
-8.308615
20
12.337831
30
0.0
11
-8.314992
21
12.308965
31
0.0
0
LINE
8
MCD_Layer_72
10
0.000000
20
2.000001
30
0.0
11
-2.000000
21
0.000000
31
0.0
0
LINE
8
MCD_Layer_56
10
0.000000
20
0.000000
30
0.0
11
-2.000000
21
-0.000000
31
0.0
0
LINE
8
MCD_Layer_2
10
-7.033718
20
11.882027
30
0.0
11
-7.054675
21
11.908764
31
0.0
0
LINE
8
MCD_Layer_0
10
-7.153597
20
11.599743
30
0.0
11
-7.113122
21
11.585069
31
0.0
0
LINE
8
MCD_Layer_0
10
-6.810071
20
11.700365
30
0.0
11
-6.830513
21
11.753252
31
0.0
0
LINE
8
MCD_Layer_2
10
-7.099232
20
11.473835
30
0.0
11
-7.092350
21
11.503361
31
0.0
0
LINE
8
MCD_Layer_0
10
7.539461
20
6.355743
30
0.0
11
7.476714
21
6.322432
31
0.0
0
LINE
8
MCD_Layer_0
10
7.246144
20
6.974386
30
0.0
11
7.187976
21
6.981230
31
0.0
0
LINE
8
MCD_Layer_0
10
7.394573
20
7.472266
30
0.0
11
7.348313
21
7.496177
31
0.0
0
LINE
8
MCD_Layer_0
10
7.211631
20
9.264691
30
0.0
11
7.221025
21
9.327929
31
0.0
0
LINE
8
MCD_Layer_0
10
6.645212
20
10.046460
30
0.0
11
6.653066
21
10.109383
31
0.0
0
LINE
8
MCD_Layer_0
10
6.782385
20
10.672325
30
0.0
11
6.775258
21
10.725368
31
0.0
0
LINE
8
MCD_Layer_0
10
6.286578
20
10.699780
30
0.0
11
6.291435
21
10.754230
31
0.0
0
LINE
8
MCD_Layer_0
10
5.788208
20
11.190041
30
0.0
11
5.824719
21
11.260949
31
0.0
0
LINE
8
MCD_Layer_0
10
6.117413
20
11.357086
30
0.0
11
6.073170
21
11.404766
31
0.0
0
LINE
8
MCD_Layer_0
10
6.433954
20
11.681860
30
0.0
11
6.419778
21
11.728579
31
0.0
0
LINE
8
MCD_Layer_0
10
7.595141
20
12.653724
30
0.0
11
7.615692
21
12.595437
31
0.0
0
LINE
8
MCD_Layer_0
10
8.150093
20
12.671205
30
0.0
11
8.144673
21
12.618439
31
0.0
0
LINE
8
MCD_Layer_0
10
8.728111
20
12.222349
30
0.0
11
8.673552
21
12.160890
31
0.0
0
LINE
8
MCD_Layer_0
10
8.795208
20
9.291441
30
0.0
11
8.758334
21
9.284189
31
0.0
0
LINE
8
MCD_Layer_0
10
9.489458
20
8.911087
30
0.0
11
9.543243
21
8.894871
31
0.0
0
LINE
8
MCD_Layer_0
10
9.544291
20
8.249193
30
0.0
11
9.592989
21
8.229824
31
0.0
0
LINE
8
MCD_Layer_0
10
9.353098
20
7.779541
30
0.0
11
9.412437
21
7.736656
31
0.0
0
LINE
8
MCD_Layer_0
10
7.602686
20
4.340337
30
0.0
11
7.378676
21
4.298517
31
0.0
0
LINE
8
MCD_Layer_0
10
8.727961
20
7.087726
30
0.0
11
8.641335
21
7.084057
31
0.0
0
LINE
8
MCD_Layer_0
10
9.313283
20
7.725988
30
0.0
11
9.241571
21
7.773435
31
0.0
0
LINE
8
MCD_Layer_0
10
9.512747
20
8.205108
30
0.0
11
9.452744
21
8.234056
31
0.0
0
LINE
8
MCD_Layer_0
10
9.043642
20
8.589776
30
0.0
11
9.020277
21
8.654734
31
0.0
0
LINE
8
MCD_Layer_0
10
8.642858
20
8.409330
30
0.0
11
8.593707
21
8.474617
31
0.0
0
LINE
8
MCD_Layer_0
10
8.439014
20
8.142490
30
0.0
11
8.374917
21
8.142221
31
0.0
0
LINE
8
MCD_Layer_0
10
7.926733
20
7.762158
30
0.0
11
7.917377
21
7.707746
31
0.0
0
LINE
8
MCD_Layer_0
10
7.449118
20
7.516339
30
0.0
11
7.506666
21
7.481472
31
0.0
0
LINE
8
MCD_Layer_0
10
7.269374
20
7.033028
30
0.0
11
7.334853
21
7.022055
31
0.0
0
LINE
8
MCD_Layer_0
10
7.756375
20
6.720005
30
0.0
11
7.774601
21
6.646018
31
0.0
0
LINE
8
MCD_Layer_0
10
8.100525
20
6.846977
30
0.0
11
8.132978
21
6.778891
31
0.0
0
LINE
8
MCD_Layer_0
10
8.461636
20
6.371538
30
0.0
11
8.408795
21
6.383965
31
0.0
0
LINE
8
MCD_Layer_0
10
7.334576
20
5.312188
30
0.0
11
7.276840
21
5.236221
31
0.0
0
LINE
8
MCD_Layer_0
10
7.538225
20
5.168609
30
0.0
11
7.547550
21
5.182177
31
0.0
0
LINE
8
MCD_Layer_0
10
7.621522
20
4.835859
30
0.0
11
7.608460
21
4.843236
31
0.0
0
LINE
8
MCD_Layer_0
10
8.645987
20
6.966122
30
0.0
11
8.719859
21
6.969099
31
0.0
0
LINE
8
MCD_Layer_0
10
8.625044
20
6.443813
30
0.0
11
8.598585
21
6.452657
31
0.0
0
LINE
8
MCD_Layer_2
10
8.221288
20
7.410360
30
0.0
11
8.207814
21
7.442207
31
0.0
0
LINE
8
MCD_Layer_2
10
7.479427
20
6.757249
30
0.0
11
7.503762
21
6.747936
31
0.0
0
LINE
8
MCD_Layer_72
10
2.000000
20
-2.000000
30
0.0
11
0.000000
21
-0.000000
31
0.0
0
LINE
8
MCD_Layer_2
10
8.202036
20
7.941397
30
0.0
11
8.174384
21
7.926020
31
0.0
0
LINE
8
MCD_Layer_0
10
8.460917
20
7.699680
30
0.0
11
8.476097
21
7.737766
31
0.0
0
LINE
8
MCD_Layer_0
10
8.426163
20
8.014935
30
0.0
11
8.381427
21
8.007053
31
0.0
0
LINE
8
MCD_Layer_0
10
8.471626
20
8.955191
30
0.0
11
8.595287
21
8.982455
31
0.0
0
LINE
8
MCD_Layer_72
10
-2.000000
20
-0.000000
30
0.0
11
-2.000000
21
0.000000
31
0.0
0
LINE
8
MCD_Layer_2
10
8.569353
20
7.734965
30
0.0
11
8.591563
21
7.722149
31
0.0
0
LINE
8
MCD_Layer_56
10
2.000000
20
0.000000
30
0.0
11
0.000000
21
2.000000
31
0.0
0
LINE
8
MCD_Layer_2
10
7.803857
20
10.814599
30
0.0
11
7.840343
21
10.565500
31
0.0
0
LINE
8
MCD_Layer_72
10
0.000000
20
2.000000
30
0.0
11
-2.000000
21
2.000000
31
0.0
0
LINE
8
MCD_Layer_2
10
7.897167
20
10.801666
30
0.0
11
7.919753
21
10.710100
31
0.0
0
LINE
8
MCD_Layer_0
10
6.361599
20
10.825898
30
0.0
11
6.354816
21
10.765417
31
0.0
0
LINE
8
MCD_Layer_0
10
6.815113
20
10.821972
30
0.0
11
6.825809
21
10.758880
31
0.0
0
LINE
8
MCD_Layer_0
10
7.270294
20
12.045298
30
0.0
11
7.209225
21
12.038496
31
0.0
0
LINE
8
MCD_Layer_0
10
7.307653
20
11.747063
30
0.0
11
7.334280
21
11.785753
31
0.0
0
LINE
8
MCD_Layer_72
10
-2.000000
20
-0.000000
30
0.0
11
0.000000
21
2.000000
31
0.0
0
LINE
8
MCD_Layer_2
10
6.179869
20
12.809724
30
0.0
11
6.164580
21
12.780217
31
0.0
0
LINE
8
MCD_Layer_56
10
0.000000
20
0.000000
30
0.0
11
0.000000
21
-2.000000
31
0.0
0
LINE
8
MCD_Layer_2
10
6.135803
20
11.088646
30
0.0
11
6.125454
21
11.055975
31
0.0
0
LINE
8
MCD_Layer_72
10
0.000000
20
2.000000
30
0.0
11
-0.000000
21
-2.000000
31
0.0
0
LINE
8
MCD_Layer_72
10
2.000000
20
-0.000000
30
0.0
11
-2.000000
21
-2.000000
31
0.0
0
LINE
8
MCD_Layer_56
10
0.000000
20
-2.000000
30
0.0
11
-2.503133
21
-0.000000
31
0.0
0
LINE
8
MCD_Layer_72
10
0.000000
20
0.000000
30
0.0
11
-2.500571
21
-0.000000
31
0.0
0
LINE
8
MCD_Layer_72
10
0.000000
20
-0.000000
30
0.0
11
-2.385286
21
-0.000000
31
0.0
0
LINE
8
MCD_Layer_72
10
0.000000
20
0.000000
30
0.0
11
-2.409662
21
0.000000
31
0.0
0
LINE
8
MCD_Layer_72
10
0.000000
20
2.000000
30
0.0
11
-2.504770
21
2.000000
31
0.0
0
LINE
8
MCD_Layer_56
10
0.000000
20
2.000000
30
0.0
11
2.506314
21
-0.000000
31
0.0
0
LINE
8
MCD_Layer_56
10
0.000000
20
2.000000
30
0.0
11
2.517792
21
-2.000000
31
0.0
0
LINE
8
MCD_Layer_72
10
0.000000
20
-0.000000
30
0.0
11
2.509843
21
-0.000000
31
0.0
0
LINE
8
MCD_Layer_72
10
0.000000
20
-2.000000
30
0.0
11
2.411277
21
-0.000000
31
0.0
0
ARC
8
MCD_Layer_0
10
-4.946576
20
10.153195
40
0.027156
50
274.659535
51
358.278047
0
ARC
8
MCD_Layer_0
10
-4.949424
20
11.190732
40
0.030198
50
6.697691
51
80.364809
0
ARC
8
MCD_Layer_0
10
-5.164496
20
11.193271
40
0.027486
50
97.774460
51
177.950233
0
ARC
8
MCD_Layer_0
10
-4.538734
20
11.193377
40
0.027222
50
1.846390
51
85.216171
0
ARC
8
MCD_Layer_0
10
-4.756850
20
11.193377
40
0.027222
50
94.783857
51
178.153643
0
ARC
8
MCD_Layer_0
10
-4.759072
20
10.151145
40
0.025016
50
177.171659
51
269.890760
0
ARC
8
MCD_Layer_0
10
-3.767053
20
11.168402
40
0.052222
50
359.563377
51
86.121069
0
ARC
8
MCD_Layer_0
10
-3.851065
20
10.776717
40
0.024963
50
270.058630
51
0.084719
0
ARC
8
MCD_Layer_0
10
-3.851065
20
10.650166
40
0.024963
50
359.915281
51
89.941370
0
ARC
8
MCD_Layer_0
10
-3.769350
20
10.284612
40
0.145497
50
287.042454
51
345.478426
0
ARC
8
MCD_Layer_0
10
-4.252874
20
10.151166
40
0.025070
50
272.950668
51
2.774106
0
ARC
8
MCD_Layer_0
10
-4.252850
20
11.194894
40
0.025017
50
359.966327
51
87.096157
0
ARC
8
MCD_Layer_0
10
-3.843254
20
10.783318
40
0.648374
50
247.510130
51
280.355292
0
ARC
8
MCD_Layer_0
10
-3.082515
20
10.954885
40
0.359271
50
0.696818
51
50.725429
0
ARC
8
MCD_Layer_0
10
-3.148486
20
11.046133
40
0.466820
50
304.573616
51
312.006658
0
ARC
8
MCD_Layer_0
10
-2.238444
20
10.445797
40
0.572490
50
197.305113
51
215.542569
0
ARC
8
MCD_Layer_0
10
-2.618422
20
10.276304
40
0.251906
50
211.281306
51
252.923121
0
ARC
8
MCD_Layer_0
10
-3.062033
20
10.957557
40
0.347207
50
261.399125
51
275.155544
0
ARC
8
MCD_Layer_0
10
-3.104511
20
10.909009
40
0.220925
50
282.114882
51
335.317823
0
ARC
8
MCD_Layer_0
10
-3.124593
20
10.964700
40
0.263971
50
17.540237
51
61.532946
0
ARC
8
MCD_Layer_0
10
-3.356311
20
10.151166
40
0.025070
50
272.950668
51
2.774106
0
ARC
8
MCD_Layer_0
10
-3.356288
20
11.194894
40
0.025017
50
359.966327
51
87.096157
0
ARC
8
MCD_Layer_0
10
-3.047922
20
10.984889
40
0.314242
50
52.145064
51
85.146237
0
ARC
8
MCD_Layer_0
10
-3.070677
20
10.955518
40
0.347427
50
312.472290
51
0.616218
0
ARC
8
MCD_Layer_0
10
4.916815
20
12.446544
40
8.001979
50
192.887857
51
195.742403
0
ARC
8
MCD_Layer_0
10
-2.645489
20
10.165525
40
0.078827
50
221.780834
51
318.219166
0
ARC
8
MCD_Layer_0
10
-2.657958
20
10.158818
40
0.128032
50
254.396640
51
314.821718
0
ARC
8
MCD_Layer_0
10
2.215779
20
12.555164
40
5.594978
50
200.325249
51
205.510886
0
ARC
8
MCD_Layer_0
10
-3.058402
20
10.868856
40
0.260593
50
238.462161
51
257.690567
0
ARC
8
MCD_Layer_0
10
-3.169723
20
10.151145
40
0.025016
50
177.171557
51
269.890841
0
ARC
8
MCD_Layer_0
10
-3.077161
20
10.916264
40
0.224068
50
238.358486
51
274.868311
0
ARC
8
MCD_Layer_0
10
-3.221665
20
10.975742
40
0.355435
50
333.429080
51
11.113644
0
ARC
8
MCD_Layer_0
10
-3.125257
20
10.966630
40
0.262595
50
61.204718
51
75.192473
0
ARC
8
MCD_Layer_0
10
-1.885008
20
11.168402
40
0.052222
50
359.563377
51
86.121069
0
ARC
8
MCD_Layer_0
10
-1.969019
20
10.776717
40
0.024963
50
270.058630
51
0.084719
0
ARC
8
MCD_Layer_0
10
-1.969019
20
10.650166
40
0.024963
50
359.915281
51
89.941370
0
ARC
8
MCD_Layer_0
10
-1.887305
20
10.284612
40
0.145497
50
287.042454
51
345.478426
0
ARC
8
MCD_Layer_0
10
-2.370828
20
10.151166
40
0.025070
50
272.950668
51
2.774106
0
ARC
8
MCD_Layer_0
10
-2.370805
20
11.194894
40
0.025017
50
359.966327
51
87.096157
0
ARC
8
MCD_Layer_0
10
-1.961209
20
10.783318
40
0.648374
50
247.510130
51
280.355292
0
ARC
8
MCD_Layer_0
10
-1.181221
20
10.354393
40
0.241391
50
175.637655
51
317.642339
0
ARC
8
MCD_Layer_0
10
-1.186246
20
11.066614
40
0.272996
50
122.539966
51
148.807132
0
ARC
8
MCD_Layer_0
10
-0.974331
20
11.350667
40
0.042801
50
245.388618
51
3.129856
0
ARC
8
MCD_Layer_0
10
-1.108571
20
11.086171
40
0.176979
50
359.784111
51
61.534795
0
ARC
8
MCD_Layer_0
10
-1.124249
20
11.073942
40
0.205153
50
124.504657
51
199.487032
0
ARC
8
MCD_Layer_0
10
-1.169054
20
10.392250
40
0.356462
50
304.718849
51
9.609303
0
ARC
8
MCD_Layer_0
10
-1.372631
20
10.043689
40
0.049470
50
60.521764
51
174.995323
0
ARC
8
MCD_Layer_0
10
-1.188490
20
10.353893
40
0.246482
50
318.866821
51
47.460533
0
ARC
8
MCD_Layer_0
10
-1.160102
20
11.064628
40
0.296626
50
151.095062
51
220.241454
0
ARC
8
MCD_Layer_0
10
-1.149901
20
11.015133
40
0.335958
50
61.995696
51
123.042766
0
ARC
8
MCD_Layer_0
10
-1.133705
20
11.006440
40
0.259538
50
65.048615
51
114.289003
0
ARC
8
MCD_Layer_0
10
-1.140404
20
11.076419
40
0.190907
50
201.806079
51
235.412243
0
ARC
8
MCD_Layer_0
10
-1.224786
20
10.367998
40
0.415717
50
11.623168
51
52.544335
0
ARC
8
MCD_Layer_0
10
-1.166397
20
10.375498
40
0.341258
50
237.791678
51
305.954197
0
ARC
8
MCD_Layer_0
10
0.316292
20
10.175106
40
0.048980
50
196.580441
51
270.650850
0
ARC
8
MCD_Layer_0
10
0.098933
20
10.150949
40
0.024827
50
271.391945
51
21.081141
0
ARC
8
MCD_Layer_0
10
-0.451574
20
10.151283
40
0.025154
50
160.016726
51
270.251619
0
ARC
8
MCD_Layer_0
10
-0.593407
20
10.175106
40
0.048980
50
269.349150
51
343.419559
0
ARC
8
MCD_Layer_0
10
1.822650
20
10.311743
40
0.175854
50
286.498927
51
344.290742
0
ARC
8
MCD_Layer_0
10
1.362221
20
10.151166
40
0.025070
50
272.950730
51
2.774171
0
ARC
8
MCD_Layer_0
10
1.362244
20
11.194894
40
0.025017
50
359.966259
51
87.096097
0
ARC
8
MCD_Layer_0
10
1.548787
20
11.194916
40
0.024963
50
90.058904
51
180.084465
0
ARC
8
MCD_Layer_0
10
1.770798
20
10.779302
40
0.644266
50
247.459171
51
279.090894
0
ARC
8
MCD_Layer_0
10
2.774836
20
11.193129
40
0.026310
50
331.633928
51
86.129413
0
ARC
8
MCD_Layer_0
10
2.909023
20
11.196806
40
0.022581
50
88.505110
51
156.999362
0
ARC
8
MCD_Layer_0
10
2.023180
20
11.193178
40
0.026259
50
28.304507
51
86.191021
0
ARC
8
MCD_Layer_0
10
2.251540
20
11.192504
40
0.026963
50
94.633340
51
209.128824
0
ARC
8
MCD_Layer_0
10
2.571223
20
10.150645
40
0.025016
50
177.171625
51
269.890774
0
ARC
8
MCD_Layer_0
10
2.384634
20
10.150666
40
0.025070
50
272.950655
51
2.774140
0
ARC
8
MCD_Layer_0
10
3.163848
20
10.151166
40
0.025070
50
272.950668
51
2.774106
0
ARC
8
MCD_Layer_0
10
3.163872
20
11.194894
40
0.025017
50
359.966327
51
87.096157
0
ARC
8
MCD_Layer_0
10
3.880124
20
11.192682
40
0.027291
50
4.617740
51
85.238890
0
ARC
8
MCD_Layer_0
10
4.005915
20
11.194916
40
0.024963
50
90.058893
51
180.084395
0
ARC
8
MCD_Layer_0
10
3.288687
20
10.151145
40
0.025016
50
177.171692
51
269.890706
0
ARC
8
MCD_Layer_0
10
4.350493
20
10.151166
40
0.025070
50
272.950668
51
2.774106
0
ARC
8
MCD_Layer_0
10
4.350516
20
11.194894
40
0.025017
50
359.966327
51
87.096157
0
ARC
8
MCD_Layer_0
10
5.066768
20
11.192682
40
0.027291
50
4.617740
51
85.238890
0
ARC
8
MCD_Layer_0
10
5.192559
20
11.194916
40
0.024963
50
90.058893
51
180.084395
0
ARC
8
MCD_Layer_0
10
4.475331
20
10.151145
40
0.025016
50
177.171692
51
269.890706
0
ARC
8
MCD_Layer_0
10
-4.052742
20
9.048966
40
0.374082
50
305.257831
51
24.484745
0
ARC
8
MCD_Layer_0
10
-4.045698
20
8.361013
40
0.438037
50
270.640623
51
353.707697
0
ARC
8
MCD_Layer_0
10
-4.160884
20
8.175610
40
0.144626
50
218.032660
51
261.684576
0
ARC
8
MCD_Layer_0
10
-4.163259
20
8.367754
40
0.368581
50
312.383922
51
14.735323
0
ARC
8
MCD_Layer_0
10
-4.227023
20
9.080183
40
0.377496
50
325.801038
51
0.625580
0
ARC
8
MCD_Layer_0
10
-4.478050
20
8.047504
40
0.030759
50
271.397210
51
1.397200
0
ARC
8
MCD_Layer_0
10
-4.478050
20
9.298504
40
0.030759
50
1.397431
51
88.602569
0
ARC
8
MCD_Layer_0
10
-4.048558
20
9.055887
40
0.367435
50
23.772934
51
87.620106
0
ARC
8
MCD_Layer_0
10
-4.049762
20
8.356623
40
0.441622
50
354.331609
51
61.169017
0
ARC
8
MCD_Layer_0
10
-4.130800
20
8.413647
40
0.384540
50
262.378632
51
304.174164
0
ARC
8
MCD_Layer_0
10
-4.078595
20
8.392759
40
0.280353
50
14.194169
51
88.406869
0
ARC
8
MCD_Layer_0
10
-4.093000
20
8.975704
40
0.208217
50
270.742970
51
328.852189
0
ARC
8
MCD_Layer_0
10
-4.106976
20
9.072319
40
0.257705
50
2.665636
51
89.293862
0
ARC
8
MCD_Layer_0
10
-2.221271
20
8.644749
40
1.134323
50
178.489257
51
193.619075
0
ARC
8
MCD_Layer_0
10
-2.671764
20
8.831311
40
0.666871
50
139.018631
51
167.851267
0
ARC
8
MCD_Layer_0
10
-2.750701
20
8.862906
40
0.590341
50
91.019018
51
107.905510
0
ARC
8
MCD_Layer_0
10
-2.846601
20
8.760472
40
0.712496
50
45.499286
51
68.778873
0
ARC
8
MCD_Layer_0
10
-3.301129
20
8.704560
40
1.134323
50
358.489255
51
13.619075
0
ARC
8
MCD_Layer_0
10
-2.871443
20
8.528401
40
0.689425
50
319.499962
51
347.369952
0
ARC
8
MCD_Layer_0
10
-2.754462
20
8.419143
40
0.521532
50
269.259700
51
288.532048
0
ARC
8
MCD_Layer_0
10
-2.684044
20
8.578464
40
0.699320
50
225.385470
51
249.215511
0
ARC
8
MCD_Layer_0
10
-2.752873
20
8.292473
40
0.312430
50
268.472739
51
323.047302
0
ARC
8
MCD_Layer_0
10
-3.808925
20
8.662214
40
1.457278
50
346.201996
51
0.489100
0
ARC
8
MCD_Layer_0
10
-2.961521
20
8.872125
40
0.590623
50
15.972919
51
39.104704
0
ARC
8
MCD_Layer_0
10
-2.762158
20
9.045472
40
0.325183
50
89.831235
51
142.227931
0
ARC
8
MCD_Layer_0
10
-1.615121
20
8.669135
40
1.557088
50
166.423392
51
179.796913
0
ARC
8
MCD_Layer_0
10
-2.560866
20
8.477191
40
0.590639
50
195.973221
51
219.104396
0
ARC
8
MCD_Layer_0
10
-2.650957
20
8.528401
40
0.689425
50
192.630048
51
220.500038
0
ARC
8
MCD_Layer_0
10
-2.221271
20
8.704560
40
1.134323
50
166.380925
51
181.510745
0
ARC
8
MCD_Layer_0
10
-2.684046
20
8.770849
40
0.699316
50
110.784416
51
134.614618
0
ARC
8
MCD_Layer_0
10
-2.772905
20
8.846019
40
0.607248
50
72.341480
51
88.895526
0
ARC
8
MCD_Layer_0
10
-2.850636
20
8.831311
40
0.666871
50
12.148733
51
40.981369
0
ARC
8
MCD_Layer_0
10
-3.301129
20
8.644749
40
1.134323
50
346.380925
51
1.510743
0
ARC
8
MCD_Layer_0
10
-2.846604
20
8.588840
40
0.712501
50
291.221200
51
314.500626
0
ARC
8
MCD_Layer_0
10
-2.768563
20
8.406024
40
0.508423
50
251.225002
51
270.829795
0
ARC
8
MCD_Layer_0
10
-2.766242
20
8.299280
40
0.319166
50
217.574756
51
270.905235
0
ARC
8
MCD_Layer_0
10
-2.961520
20
8.477184
40
0.590623
50
320.895295
51
344.027088
0
ARC
8
MCD_Layer_0
10
-3.808923
20
8.687094
40
1.457277
50
359.510893
51
13.798011
0
ARC
8
MCD_Layer_0
10
-2.756790
20
9.052542
40
0.318143
50
37.146520
51
90.794282
0
ARC
8
MCD_Layer_0
10
-2.560865
20
8.872117
40
0.590639
50
140.895606
51
164.026772
0
ARC
8
MCD_Layer_0
10
-1.615120
20
8.680174
40
1.557090
50
180.203094
51
193.576601
0
ARC
8
MCD_Layer_0
10
-0.686244
20
9.298951
40
0.030319
50
343.331134
51
91.806031
0
ARC
8
MCD_Layer_0
10
-0.527450
20
9.297004
40
0.032259
50
91.332294
51
162.407638
0
ARC
8
MCD_Layer_0
10
-1.723452
20
9.298220
40
0.030460
50
87.644887
51
199.297394
0
ARC
8
MCD_Layer_0
10
-1.984427
20
9.294972
40
0.033704
50
22.102733
51
87.913261
0
ARC
8
MCD_Layer_0
10
0.114914
20
8.308509
40
0.307542
50
179.218378
51
316.163506
0
ARC
8
MCD_Layer_0
10
0.092380
20
9.134315
40
0.335158
50
121.032141
51
147.376396
0
ARC
8
MCD_Layer_0
10
0.373071
20
9.488099
40
0.053687
50
244.844639
51
0.965632
0
ARC
8
MCD_Layer_0
10
0.215727
20
9.166580
40
0.211028
50
0.386741
51
63.541567
0
ARC
8
MCD_Layer_0
10
0.163111
20
9.154546
40
0.238735
50
122.000304
51
200.227533
0
ARC
8
MCD_Layer_0
10
0.157801
20
8.337493
40
0.418842
50
302.565768
51
9.622415
0
ARC
8
MCD_Layer_0
10
-0.130350
20
7.914754
40
0.062794
50
60.679506
51
172.450602
0
ARC
8
MCD_Layer_0
10
0.128172
20
8.290317
40
0.285406
50
316.954379
51
49.705262
0
ARC
8
MCD_Layer_0
10
0.105118
20
9.142633
40
0.341683
50
149.703353
51
222.225626
0
ARC
8
MCD_Layer_0
10
0.151104
20
9.043412
40
0.443338
50
63.307873
51
121.478966
0
ARC
8
MCD_Layer_0
10
0.171444
20
9.041048
40
0.343528
50
66.258880
51
113.111856
0
ARC
8
MCD_Layer_0
10
0.152196
20
9.162814
40
0.231639
50
203.080915
51
237.018583
0
ARC
8
MCD_Layer_0
10
0.087291
20
8.300560
40
0.495146
50
12.473284
51
54.368247
0
ARC
8
MCD_Layer_0
10
0.130039
20
8.356397
40
0.449912
50
239.308922
51
304.249782
0
ARC
8
MCD_Layer_0
10
0.982250
20
8.047504
40
0.030759
50
271.397139
51
1.397272
0
ARC
8
MCD_Layer_0
10
0.982250
20
9.298504
40
0.030759
50
1.397358
51
88.602642
0
ARC
8
MCD_Layer_0
10
1.216250
20
9.298504
40
0.030759
50
88.603044
51
178.602504
0
ARC
8
MCD_Layer_0
10
1.787750
20
9.298504
40
0.030759
50
1.397496
51
91.396956
0
ARC
8
MCD_Layer_0
10
2.022977
20
9.295640
40
0.033672
50
93.366681
51
173.838908
0
ARC
8
MCD_Layer_0
10
2.022875
20
8.050129
40
0.033428
50
183.215474
51
266.784526
0
ARC
8
MCD_Layer_0
10
1.787750
20
8.047504
40
0.030759
50
268.602828
51
1.397131
0
ARC
8
MCD_Layer_0
10
1.216250
20
8.047504
40
0.030759
50
178.602869
51
271.397172
0
ARC
8
MCD_Layer_0
10
3.073410
20
9.265959
40
0.064098
50
0.934672
51
87.684710
0
ARC
8
MCD_Layer_0
10
2.966200
20
8.798254
40
0.030759
50
268.602744
51
358.602825
0
ARC
8
MCD_Layer_0
10
2.966200
20
8.644804
40
0.030759
50
1.397175
51
91.397256
0
ARC
8
MCD_Layer_0
10
3.074631
20
8.212276
40
0.178799
50
285.528962
51
344.053846
0
ARC
8
MCD_Layer_0
10
2.458750
20
8.047504
40
0.030759
50
271.397195
51
1.397131
0
ARC
8
MCD_Layer_0
10
2.458750
20
9.298504
40
0.030759
50
1.397503
51
88.602582
0
ARC
8
MCD_Layer_0
10
2.975353
20
8.886241
40
0.858935
50
248.603758
51
279.864198
0
ARC
8
MCD_Layer_0
10
3.965786
20
9.007937
40
0.424300
50
1.156937
51
52.599322
0
ARC
8
MCD_Layer_0
10
3.866497
20
9.150009
40
0.586206
50
303.202118
51
310.537626
0
ARC
8
MCD_Layer_0
10
4.953143
20
8.407194
40
0.675030
50
198.231698
51
216.994355
0
ARC
8
MCD_Layer_0
10
4.516460
20
8.212964
40
0.317253
50
213.036877
51
253.997577
0
ARC
8
MCD_Layer_0
10
3.962093
20
9.059257
40
0.461438
50
261.827785
51
274.899054
0
ARC
8
MCD_Layer_0
10
3.913890
20
8.969024
40
0.277156
50
281.047538
51
333.533818
0
ARC
8
MCD_Layer_0
10
3.896105
20
9.014170
40
0.322252
50
18.890884
51
63.080746
0
ARC
8
MCD_Layer_0
10
3.591250
20
8.047504
40
0.030759
50
271.397195
51
1.397131
0
ARC
8
MCD_Layer_0
10
3.591250
20
9.298504
40
0.030759
50
1.397503
51
88.602582
0
ARC
8
MCD_Layer_0
10
3.981474
20
9.015087
40
0.409173
50
53.736363
51
85.510821
0
ARC
8
MCD_Layer_0
10
3.980904
20
9.014809
40
0.409100
50
310.667287
51
0.237430
0
ARC
8
MCD_Layer_0
10
13.143774
20
10.816764
40
9.212417
50
193.542629
51
196.527845
0
ARC
8
MCD_Layer_0
10
4.488250
20
8.072540
40
0.103104
50
223.933372
51
316.066628
0
ARC
8
MCD_Layer_0
10
4.472500
20
8.069860
40
0.167599
50
254.956776
51
312.858773
0
ARC
8
MCD_Layer_0
10
10.091122
20
10.974473
40
6.536358
50
201.305919
51
206.676055
0
ARC
8
MCD_Layer_0
10
3.965052
20
8.934678
40
0.339174
50
239.811619
51
258.339386
0
ARC
8
MCD_Layer_0
10
3.825250
20
8.047504
40
0.030759
50
178.602731
51
271.397269
0
ARC
8
MCD_Layer_0
10
3.942772
20
8.990832
40
0.294825
50
239.806951
51
274.713732
0
ARC
8
MCD_Layer_0
10
3.802236
20
9.036185
40
0.407172
50
332.075694
51
11.664099
0
ARC
8
MCD_Layer_0
10
3.883728
20
8.997933
40
0.342353
50
62.463955
51
75.922474
0
ARC
8
MCD_Layer_0
10
-6.150835
20
6.149686
40
0.039184
50
196.580442
51
270.650851
0
ARC
8
MCD_Layer_0
10
-6.324723
20
6.130361
40
0.019862
50
271.391943
51
21.081140
0
ARC
8
MCD_Layer_0
10
-6.765129
20
6.130628
40
0.020123
50
160.016726
51
270.251621
0
ARC
8
MCD_Layer_0
10
-6.878595
20
6.149686
40
0.039184
50
269.349149
51
343.419558
0
ARC
8
MCD_Layer_0
10
-5.614432
20
6.330900
40
0.244880
50
243.314012
51
293.367027
0
ARC
8
MCD_Layer_0
10
-5.613587
20
6.302694
40
0.280132
50
273.567028
51
325.271118
0
ARC
8
MCD_Layer_0
10
-5.672180
20
6.316794
40
0.289746
50
179.345404
51
238.364130
0
ARC
8
MCD_Layer_0
10
-5.983670
20
6.964847
40
0.021833
50
4.617742
51
85.238891
0
ARC
8
MCD_Layer_0
10
-5.833637
20
6.966634
40
0.019971
50
90.058862
51
180.084464
0
ARC
8
MCD_Layer_0
10
-5.604403
20
6.330757
40
0.249419
50
177.622326
51
241.240384
0
ARC
8
MCD_Layer_0
10
-5.619754
20
6.308557
40
0.226897
50
296.840576
51
0.138306
0
ARC
8
MCD_Layer_0
10
-5.414620
20
6.964847
40
0.021833
50
4.617744
51
85.238848
0
ARC
8
MCD_Layer_0
10
-5.313987
20
6.966634
40
0.019971
50
90.058892
51
180.084394
0
ARC
8
MCD_Layer_0
10
-5.591602
20
6.295140
40
0.257838
50
323.867517
51
0.303303
0
ARC
8
MCD_Layer_0
10
-5.632603
20
6.422826
40
0.401380
50
241.494709
51
275.209663
0
ARC
8
MCD_Layer_0
10
-4.707159
20
6.375557
40
0.346838
50
248.839841
51
300.301932
0
ARC
8
MCD_Layer_0
10
-4.616725
20
6.447714
40
0.468895
50
191.890204
51
218.925241
0
ARC
8
MCD_Layer_0
10
-4.301494
20
6.569107
40
0.794268
50
167.049846
51
181.443023
0
ARC
8
MCD_Layer_0
10
-4.663254
20
6.640019
40
0.440867
50
111.888452
51
136.210351
0
ARC
8
MCD_Layer_0
10
-4.701503
20
6.753733
40
0.319374
50
64.966344
51
89.785919
0
ARC
8
MCD_Layer_0
10
-4.713766
20
6.786456
40
0.226717
50
46.205026
51
91.401218
0
ARC
8
MCD_Layer_0
10
-4.564346
20
6.684224
40
0.401649
50
142.433097
51
164.863220
0
ARC
8
MCD_Layer_0
10
-3.889623
20
6.552645
40
1.089993
50
180.186084
51
192.910738
0
ARC
8
MCD_Layer_0
10
-4.720841
20
6.285431
40
0.199332
50
215.702736
51
270.440140
0
ARC
8
MCD_Layer_0
10
-4.713758
20
6.288370
40
0.197839
50
322.926460
51
354.120766
0
ARC
8
MCD_Layer_0
10
-4.536948
20
6.378092
40
0.020013
50
357.171696
51
89.890705
0
ARC
8
MCD_Layer_0
10
-4.388671
20
6.378092
40
0.020013
50
90.109362
51
182.828236
0
ARC
8
MCD_Layer_0
10
-4.501709
20
6.044823
40
0.043655
50
359.056829
51
134.229072
0
ARC
8
MCD_Layer_0
10
-4.678402
20
6.440087
40
0.417413
50
223.434624
51
248.355960
0
ARC
8
MCD_Layer_0
10
-4.301493
20
6.529103
40
0.794268
50
178.556981
51
192.950150
0
ARC
8
MCD_Layer_0
10
-4.631062
20
6.657305
40
0.453478
50
140.606007
51
168.578554
0
ARC
8
MCD_Layer_0
10
-4.707407
20
6.761141
40
0.312044
50
88.696637
51
112.656724
0
ARC
8
MCD_Layer_0
10
-4.539133
20
7.087600
40
0.052164
50
238.537044
51
351.739093
0
ARC
8
MCD_Layer_0
10
-4.748722
20
6.772765
40
0.261267
50
1.170971
51
42.747374
0
ARC
8
MCD_Layer_0
10
-4.718155
20
6.809932
40
0.203176
50
90.325674
51
144.087556
0
ARC
8
MCD_Layer_0
10
-3.889623
20
6.545565
40
1.089992
50
167.089259
51
179.813917
0
ARC
8
MCD_Layer_0
10
-4.564345
20
6.413985
40
0.401650
50
195.136812
51
217.566881
0
ARC
8
MCD_Layer_0
10
-4.715666
20
6.281271
40
0.195201
50
268.930329
51
324.926802
0
ARC
8
MCD_Layer_0
10
-3.334370
20
7.102284
40
0.118282
50
269.617381
51
4.228079
0
ARC
8
MCD_Layer_0
10
-3.316942
20
6.141623
40
0.041655
50
272.382982
51
1.900359
0
ARC
8
MCD_Layer_0
10
-3.316787
20
6.878530
40
0.041505
50
357.894039
51
87.822645
0
ARC
8
MCD_Layer_0
10
-3.134789
20
6.141655
40
0.041743
50
178.147862
51
266.194094
0
ARC
8
MCD_Layer_0
10
-2.640032
20
6.444765
40
0.348676
50
225.025256
51
288.290618
0
ARC
8
MCD_Layer_0
10
-2.637625
20
6.380260
40
0.277515
50
2.880247
51
66.163969
0
ARC
8
MCD_Layer_0
10
-2.395952
20
6.899630
40
0.041505
50
357.894340
51
87.822607
0
ARC
8
MCD_Layer_0
10
-2.625932
20
6.357105
40
0.375348
50
329.589140
51
30.410860
0
ARC
8
MCD_Layer_0
10
-2.605129
20
6.450408
40
0.440479
50
224.421253
51
274.186245
0
ARC
8
MCD_Layer_0
10
-2.642095
20
6.373185
40
0.282418
50
293.251532
51
4.268352
0
ARC
8
MCD_Layer_0
10
-2.602380
20
6.452740
40
0.196996
50
67.021198
51
161.850354
0
ARC
8
MCD_Layer_0
10
-2.587721
20
6.394088
40
0.323917
50
28.189932
51
124.164850
0
ARC
8
MCD_Layer_0
10
-2.607663
20
6.384261
40
0.374766
50
275.310798
51
324.588335
0
ARC
8
MCD_Layer_0
10
-1.991725
20
6.113489
40
0.073431
50
15.752760
51
255.160451
0
ARC
8
MCD_Layer_0
10
-2.054517
20
6.091772
40
0.139814
50
264.269452
51
17.332555
0
ARC
8
MCD_Layer_0
10
-2.090719
20
6.030611
40
0.081065
50
285.924024
51
8.438993
0
ARC
8
MCD_Layer_0
10
-5.714785
20
5.477284
40
0.118282
50
269.617381
51
4.228079
0
ARC
8
MCD_Layer_0
10
-5.697357
20
4.516623
40
0.041655
50
272.382982
51
1.900359
0
ARC
8
MCD_Layer_0
10
-5.697202
20
5.253529
40
0.041505
50
357.894039
51
87.822645
0
ARC
8
MCD_Layer_0
10
-5.515204
20
4.516655
40
0.041743
50
178.147862
51
266.194094
0
ARC
8
MCD_Layer_0
10
-5.029105
20
5.102812
40
0.279456
50
273.371514
51
314.015192
0
ARC
8
MCD_Layer_0
10
-5.005176
20
5.153314
40
0.309626
50
118.915520
51
182.586815
0
ARC
8
MCD_Layer_0
10
-5.076790
20
5.093361
40
0.392213
50
0.990330
51
54.167326
0
ARC
8
MCD_Layer_0
10
-5.347156
20
4.982539
40
0.659741
50
313.859692
51
350.727983
0
ARC
8
MCD_Layer_0
10
-5.001763
20
5.167012
40
0.217651
50
93.974916
51
179.150222
0
ARC
8
MCD_Layer_0
10
-5.016154
20
5.117703
40
0.204264
50
185.749361
51
273.591037
0
ARC
8
MCD_Layer_0
10
-5.246585
20
4.863395
40
0.413451
50
261.174263
51
5.335358
0
ARC
8
MCD_Layer_0
10
-5.017206
20
5.121613
40
0.297808
50
176.587518
51
270.872572
0
ARC
8
MCD_Layer_0
10
-5.011481
20
5.170548
40
0.291505
50
55.693038
51
119.468564
0
ARC
8
MCD_Layer_0
10
-5.684641
20
5.038816
40
1.001884
50
350.661324
51
3.509216
0
ARC
8
MCD_Layer_0
10
-5.202570
20
4.820125
40
0.442528
50
255.947468
51
314.932169
0
ARC
8
MCD_Layer_0
10
-5.050716
20
5.136268
40
0.227413
50
282.018837
51
356.968107
0
ARC
8
MCD_Layer_0
10
-5.026475
20
5.180766
40
0.203602
50
357.036674
51
87.290481
0
ARC
8
MCD_Layer_0
10
-4.161851
20
4.743232
40
0.279456
50
93.371486
51
134.015216
0
ARC
8
MCD_Layer_0
10
-4.185780
20
4.692730
40
0.309626
50
298.915541
51
2.586794
0
ARC
8
MCD_Layer_0
10
-4.114166
20
4.752683
40
0.392213
50
180.990328
51
234.167323
0
ARC
8
MCD_Layer_0
10
-3.843799
20
4.863506
40
0.659741
50
133.859693
51
170.727980
0
ARC
8
MCD_Layer_0
10
-4.189193
20
4.679032
40
0.217652
50
273.974925
51
359.150223
0
ARC
8
MCD_Layer_0
10
-4.174661
20
4.728506
40
0.204108
50
5.707274
51
93.633154
0
ARC
8
MCD_Layer_0
10
-3.944371
20
4.982649
40
0.413451
50
81.174274
51
185.335359
0
ARC
8
MCD_Layer_0
10
-4.173750
20
4.724431
40
0.297808
50
356.587514
51
90.872583
0
ARC
8
MCD_Layer_0
10
-4.179475
20
4.675496
40
0.291505
50
235.693043
51
299.468541
0
ARC
8
MCD_Layer_0
10
-3.506308
20
4.807228
40
1.001891
50
170.661362
51
183.509163
0
ARC
8
MCD_Layer_0
10
-3.988386
20
5.025919
40
0.442529
50
75.947488
51
134.932150
0
ARC
8
MCD_Layer_0
10
-4.140240
20
4.709776
40
0.227413
50
102.018822
51
176.968126
0
ARC
8
MCD_Layer_0
10
-4.164481
20
4.665279
40
0.203602
50
177.036643
51
267.290495
0
ARC
8
MCD_Layer_0
10
-3.128270
20
4.463581
40
0.582653
50
121.831614
51
154.719403
0
ARC
8
MCD_Layer_0
10
-3.450238
20
5.207773
40
0.184164
50
330.506228
51
59.347306
0
ARC
8
MCD_Layer_0
10
-3.278126
20
5.101408
40
0.345414
50
137.984429
51
172.565080
0
ARC
8
MCD_Layer_0
10
-3.560417
20
5.469745
40
0.040724
50
186.544371
51
294.552551
0
ARC
8
MCD_Layer_0
10
-3.407517
20
5.192826
40
0.264638
50
318.509460
51
47.842858
0
ARC
8
MCD_Layer_0
10
-3.319072
20
4.549574
40
0.302392
50
122.075989
51
184.242436
0
ARC
8
MCD_Layer_0
10
-3.324633
20
4.646648
40
0.119458
50
270.874123
51
344.241019
0
ARC
8
MCD_Layer_0
10
-3.225073
20
4.529647
40
0.467269
50
156.976006
51
193.192680
0
ARC
8
MCD_Layer_0
10
-3.720182
20
5.366267
40
0.497183
50
304.920524
51
329.923864
0
ARC
8
MCD_Layer_0
10
-3.426284
20
5.247102
40
0.138118
50
59.577877
51
141.753347
0
ARC
8
MCD_Layer_0
10
-3.420940
20
5.165125
40
0.294310
50
49.525263
51
114.608412
0
ARC
8
MCD_Layer_0
10
-3.897672
20
5.618169
40
0.913605
50
297.228892
51
318.893067
0
ARC
8
MCD_Layer_0
10
2.598854
20
6.678002
40
0.407897
50
13.973818
51
44.421154
0
ARC
8
MCD_Layer_0
10
2.194674
20
6.536249
40
0.825298
50
345.778733
51
2.170133
0
ARC
8
MCD_Layer_0
10
2.664448
20
6.418664
40
0.351357
50
284.501504
51
304.900841
0
ARC
8
MCD_Layer_0
10
2.619942
20
6.489545
40
0.361419
50
252.162055
51
281.594252
0
ARC
8
MCD_Layer_0
10
2.420090
20
6.480734
40
0.490642
50
332.673577
51
344.109959
0
ARC
8
MCD_Layer_0
10
2.117181
20
6.583177
40
0.795234
50
359.792769
51
11.704440
0
ARC
8
MCD_Layer_0
10
2.602348
20
6.718709
40
0.282253
50
49.239585
51
86.723509
0
ARC
8
MCD_Layer_0
10
2.336292
20
6.145013
40
0.020013
50
270.109157
51
2.828441
0
ARC
8
MCD_Layer_0
10
2.336309
20
6.980030
40
0.019971
50
359.915466
51
89.941167
0
ARC
8
MCD_Layer_0
10
2.631228
20
6.681117
40
0.383140
50
47.478417
51
84.510558
0
ARC
8
MCD_Layer_0
10
2.110943
20
6.566099
40
0.908438
50
0.088363
51
13.391732
0
ARC
8
MCD_Layer_0
10
2.577392
20
6.456470
40
0.435030
50
311.469881
51
343.580419
0
ARC
8
MCD_Layer_0
10
2.644478
20
6.420569
40
0.358698
50
266.604032
51
287.514987
0
ARC
8
MCD_Layer_0
10
2.531464
20
6.207831
40
0.066177
50
175.085185
51
250.368214
0
ARC
8
MCD_Layer_0
10
2.620229
20
6.405266
40
0.279299
50
285.013311
51
327.573365
0
ARC
8
MCD_Layer_0
10
1.835905
20
6.556463
40
1.076769
50
348.750241
51
1.268504
0
ARC
8
MCD_Layer_0
10
2.578395
20
6.685748
40
0.322876
50
10.484304
51
49.838890
0
ARC
8
MCD_Layer_0
10
3.625124
20
6.958819
40
0.041777
50
359.563378
51
86.121070
0
ARC
8
MCD_Layer_0
10
3.557914
20
6.645471
40
0.019970
50
270.058629
51
0.084718
0
ARC
8
MCD_Layer_0
10
3.557914
20
6.544230
40
0.019970
50
359.915282
51
89.941371
0
ARC
8
MCD_Layer_0
10
3.623286
20
6.251786
40
0.116397
50
287.042453
51
345.478424
0
ARC
8
MCD_Layer_0
10
3.236467
20
6.145030
40
0.020056
50
272.950667
51
2.774104
0
ARC
8
MCD_Layer_0
10
3.236486
20
6.980012
40
0.020014
50
359.966328
51
87.096158
0
ARC
8
MCD_Layer_0
10
3.564163
20
6.650751
40
0.518699
50
247.510131
51
280.355291
0
ARC
8
MCD_Layer_0
10
4.366984
20
6.316427
40
0.275415
50
291.397552
51
1.782950
0
ARC
8
MCD_Layer_0
10
4.347960
20
6.407963
40
0.367727
50
220.530382
51
261.800580
0
ARC
8
MCD_Layer_0
10
4.748478
20
6.544993
40
0.794264
50
178.556947
51
192.950187
0
ARC
8
MCD_Layer_0
10
4.418914
20
6.673195
40
0.453479
50
140.606044
51
168.578524
0
ARC
8
MCD_Layer_0
10
4.337418
20
6.727347
40
0.356713
50
91.084760
51
108.816426
0
ARC
8
MCD_Layer_0
10
4.508790
20
7.108305
40
0.053218
50
245.196951
51
346.626724
0
ARC
8
MCD_Layer_0
10
4.381760
20
6.840593
40
0.174056
50
0.132653
51
41.972130
0
ARC
8
MCD_Layer_0
10
4.332543
20
6.825058
40
0.204210
50
98.554809
51
144.032495
0
ARC
8
MCD_Layer_0
10
5.160351
20
6.561455
40
1.089992
50
167.089255
51
179.813914
0
ARC
8
MCD_Layer_0
10
4.485630
20
6.429876
40
0.401650
50
195.136823
51
217.566874
0
ARC
8
MCD_Layer_0
10
4.363765
20
6.307751
40
0.207050
50
281.689496
51
310.366185
0
ARC
8
MCD_Layer_0
10
4.350362
20
6.386531
40
0.346898
50
260.903078
51
289.729086
0
ARC
8
MCD_Layer_0
10
4.433251
20
6.463606
40
0.468896
50
191.890230
51
218.925205
0
ARC
8
MCD_Layer_0
10
4.748478
20
6.584998
40
0.794264
50
167.049814
51
181.443056
0
ARC
8
MCD_Layer_0
10
4.386722
20
6.655908
40
0.440869
50
111.888504
51
136.210318
0
ARC
8
MCD_Layer_0
10
4.341166
20
6.634461
40
0.449658
50
71.147466
51
91.338112
0
ARC
8
MCD_Layer_0
10
4.333577
20
6.773775
40
0.255161
50
45.894312
51
97.071388
0
ARC
8
MCD_Layer_0
10
4.485630
20
6.700115
40
0.401650
50
142.433121
51
164.863197
0
ARC
8
MCD_Layer_0
10
5.160352
20
6.568536
40
1.089993
50
180.186092
51
192.910741
0
ARC
8
MCD_Layer_0
10
4.351402
20
6.338474
40
0.239712
50
219.811221
51
283.095563
0
ARC
8
MCD_Layer_0
10
4.343551
20
6.327331
40
0.235076
50
311.029291
51
359.430825
0
ARC
8
MCD_Layer_0
10
5.932293
20
6.856661
40
0.252092
50
48.717964
51
105.054676
0
ARC
8
MCD_Layer_0
10
5.894536
20
6.338056
40
0.346447
50
354.209205
51
61.355242
0
ARC
8
MCD_Layer_0
10
5.929888
20
6.340146
40
0.303072
50
183.602975
51
270.755649
0
ARC
8
MCD_Layer_0
10
5.987449
20
6.332410
40
0.290403
50
113.314403
51
176.112077
0
ARC
8
MCD_Layer_0
10
5.930391
20
6.353973
40
0.243860
50
239.851669
51
308.866221
0
ARC
8
MCD_Layer_0
10
5.795994
20
6.232004
40
0.374650
50
25.297730
51
62.426397
0
ARC
8
MCD_Layer_0
10
5.925035
20
6.854792
40
0.192744
50
289.497097
51
353.837218
0
ARC
8
MCD_Layer_0
10
5.930776
20
6.824777
40
0.212961
50
51.785603
51
94.433219
0
ARC
8
MCD_Layer_0
10
5.959643
20
6.886600
40
0.184074
50
163.428528
51
218.464660
0
ARC
8
MCD_Layer_0
10
5.928770
20
6.853153
40
0.254600
50
104.083893
51
241.174218
0
ARC
8
MCD_Layer_0
10
5.931022
20
6.858077
40
0.251874
50
300.965155
51
48.288049
0
ARC
8
MCD_Layer_0
10
5.927489
20
6.352679
40
0.315643
50
271.160972
51
350.963036
0
ARC
8
MCD_Layer_0
10
5.955855
20
6.337379
40
0.328844
50
117.107340
51
182.837377
0
ARC
8
MCD_Layer_0
10
5.930323
20
6.341196
40
0.232863
50
177.315888
51
238.287033
0
ARC
8
MCD_Layer_0
10
5.944649
20
6.315094
40
0.205073
50
312.583505
51
22.055727
0
ARC
8
MCD_Layer_0
10
5.814717
20
6.287447
40
0.316967
50
60.787230
51
79.493660
0
ARC
8
MCD_Layer_0
10
5.948075
20
6.864600
40
0.171326
50
349.745373
51
48.090006
0
ARC
8
MCD_Layer_0
10
5.924007
20
6.887445
40
0.149969
50
93.705483
51
159.852312
0
ARC
8
MCD_Layer_0
10
6.031514
20
6.949263
40
0.279360
50
219.358556
51
261.322204
0
ARC
8
MCD_Layer_0
10
6.495469
20
6.127985
40
0.073431
50
15.752760
51
255.160451
0
ARC
8
MCD_Layer_0
10
6.432677
20
6.106268
40
0.139814
50
264.269452
51
17.332555
0
ARC
8
MCD_Layer_0
10
6.396476
20
6.045107
40
0.081065
50
285.924024
51
8.438993
0
ARC
8
MCD_Layer_0
10
3.563330
20
4.478077
40
0.582653
50
121.831614
51
154.719403
0
ARC
8
MCD_Layer_0
10
3.241362
20
5.222269
40
0.184164
50
330.506228
51
59.347306
0
ARC
8
MCD_Layer_0
10
3.413474
20
5.115904
40
0.345414
50
137.984429
51
172.565080
0
ARC
8
MCD_Layer_0
10
3.131183
20
5.484241
40
0.040724
50
186.544371
51
294.552551
0
ARC
8
MCD_Layer_0
10
3.284084
20
5.207322
40
0.264638
50
318.509460
51
47.842858
0
ARC
8
MCD_Layer_0
10
3.372528
20
4.564070
40
0.302392
50
122.075989
51
184.242436
0
ARC
8
MCD_Layer_0
10
3.366967
20
4.661144
40
0.119458
50
270.874123
51
344.241019
0
ARC
8
MCD_Layer_0
10
3.466527
20
4.544143
40
0.467269
50
156.976006
51
193.192680
0
ARC
8
MCD_Layer_0
10
2.971418
20
5.380763
40
0.497183
50
304.920524
51
329.923864
0
ARC
8
MCD_Layer_0
10
3.265316
20
5.261598
40
0.138118
50
59.577877
51
141.753347
0
ARC
8
MCD_Layer_0
10
3.270660
20
5.179621
40
0.294310
50
49.525263
51
114.608412
0
ARC
8
MCD_Layer_0
10
2.793928
20
5.632665
40
0.913605
50
297.228892
51
318.893067
0
ARC
8
MCD_Layer_0
10
4.454063
20
4.954922
40
0.703106
50
144.881237
51
180.507014
0
ARC
8
MCD_Layer_0
10
4.121808
20
5.174154
40
0.307048
50
37.107662
51
89.829899
0
ARC
8
MCD_Layer_0
10
3.792605
20
4.942317
40
0.702164
50
324.843228
51
0.520869
0
ARC
8
MCD_Layer_0
10
4.121571
20
4.720738
40
0.303741
50
216.986405
51
270.234575
0
ARC
8
MCD_Layer_0
10
4.113982
20
4.692760
40
0.208251
50
272.454348
51
332.809585
0
ARC
8
MCD_Layer_0
10
3.593730
20
4.953247
40
0.785968
50
359.668535
51
26.154814
0
ARC
8
MCD_Layer_0
10
4.131666
20
5.204805
40
0.208080
50
92.414593
51
152.867397
0
ARC
8
MCD_Layer_0
10
4.654465
20
4.944838
40
0.788549
50
179.719424
51
206.126278
0
ARC
8
MCD_Layer_0
10
4.454064
20
4.942478
40
0.703107
50
179.493000
51
215.118755
0
ARC
8
MCD_Layer_0
10
4.124012
20
5.173772
40
0.307431
50
90.240978
51
142.857156
0
ARC
8
MCD_Layer_0
10
3.792605
20
4.955083
40
0.702163
50
359.479117
51
35.156780
0
ARC
8
MCD_Layer_0
10
4.124241
20
4.720369
40
0.303372
50
269.730559
51
323.048460
0
ARC
8
MCD_Layer_0
10
4.131711
20
4.692748
40
0.208235
50
207.189079
51
267.575018
0
ARC
8
MCD_Layer_0
10
3.592512
20
4.944334
40
0.787185
50
333.865940
51
0.317815
0
ARC
8
MCD_Layer_0
10
4.114026
20
5.204793
40
0.208096
50
27.133939
51
87.556033
0
ARC
8
MCD_Layer_0
10
4.653243
20
4.952743
40
0.787329
50
153.852964
51
180.294222
0
ARC
8
MCD_Layer_0
10
5.387914
20
4.954922
40
0.703106
50
144.881237
51
180.507014
0
ARC
8
MCD_Layer_0
10
5.055658
20
5.174154
40
0.307048
50
37.107662
51
89.829899
0
ARC
8
MCD_Layer_0
10
4.726455
20
4.942317
40
0.702164
50
324.843228
51
0.520869
0
ARC
8
MCD_Layer_0
10
5.055421
20
4.720738
40
0.303741
50
216.986405
51
270.234575
0
ARC
8
MCD_Layer_0
10
5.047832
20
4.692760
40
0.208251
50
272.454348
51
332.809585
0
ARC
8
MCD_Layer_0
10
4.527581
20
4.953247
40
0.785968
50
359.668535
51
26.154814
0
ARC
8
MCD_Layer_0
10
5.065517
20
5.204805
40
0.208080
50
92.414593
51
152.867397
0
ARC
8
MCD_Layer_0
10
5.588315
20
4.944838
40
0.788549
50
179.719424
51
206.126278
0
ARC
8
MCD_Layer_0
10
5.387914
20
4.942478
40
0.703107
50
179.493000
51
215.118755
0
ARC
8
MCD_Layer_0
10
5.057863
20
5.173772
40
0.307431
50
90.240978
51
142.857156
0
ARC
8
MCD_Layer_0
10
4.726456
20
4.955083
40
0.702163
50
359.479117
51
35.156780
0
ARC
8
MCD_Layer_0
10
5.058091
20
4.720369
40
0.303372
50
269.730559
51
323.048460
0
ARC
8
MCD_Layer_0
10
5.065561
20
4.692748
40
0.208235
50
207.189079
51
267.575018
0
ARC
8
MCD_Layer_0
10
4.526363
20
4.944334
40
0.787185
50
333.865940
51
0.317815
0
ARC
8
MCD_Layer_0
10
5.047877
20
5.204793
40
0.208096
50
27.133939
51
87.556033
0
ARC
8
MCD_Layer_0
10
5.587093
20
4.952743
40
0.787329
50
153.852964
51
180.294222
0
ARC
8
MCD_Layer_0
10
5.623265
20
5.491779
40
0.118282
50
269.617381
51
4.228079
0
ARC
8
MCD_Layer_0
10
5.640693
20
4.531119
40
0.041655
50
272.382982
51
1.900359
0
ARC
8
MCD_Layer_0
10
5.640848
20
5.268025
40
0.041505
50
357.894039
51
87.822645
0
ARC
8
MCD_Layer_0
10
5.822846
20
4.531151
40
0.041743
50
178.147862
51
266.194094
0
ARC
8
MCD_Layer_0
10
10.012210
20
36.239130
40
21.901634
50
256.770597
51
269.968078
0
CIRCLE
8
MCD_Layer_0
10
-0.002200
20
0.066773
40
0.076224
0
ENDSEC
0
EOF
