0
SECTION
2
ENTITIES
0
LINE
8
MCD_Layer_0
10
-8.919000
20
3.473198
30
0.0
11
-7.875000
21
3.473198
31
0.0
0
LINE
8
MCD_Layer_0
10
-7.875000
20
3.473198
30
0.0
11
-7.875000
21
3.854198
31
0.0
0
LINE
8
MCD_Layer_0
10
-7.875000
20
3.854198
30
0.0
11
-8.097000
21
3.854198
31
0.0
0
LINE
8
MCD_Layer_0
10
-8.097000
20
3.854198
30
0.0
11
-8.097000
21
4.694198
31
0.0
0
LINE
8
MCD_Layer_0
10
-8.097000
20
4.694198
30
0.0
11
-8.064000
21
4.688198
31
0.0
0
LINE
8
MCD_Layer_0
10
-8.031000
20
4.679198
30
0.0
11
-7.536000
21
3.899198
31
0.0
0
LINE
8
MCD_Layer_0
10
-7.536000
20
3.899198
30
0.0
11
-7.455000
21
3.791198
31
0.0
0
LINE
8
MCD_Layer_0
10
-7.353000
20
3.665198
30
0.0
11
-7.185000
21
3.524198
31
0.0
0
LINE
8
MCD_Layer_0
10
-6.930000
20
3.416198
30
0.0
11
-6.468000
21
3.419198
31
0.0
0
LINE
8
MCD_Layer_0
10
-6.249000
20
3.509198
30
0.0
11
-6.414000
21
3.860198
31
0.0
0
LINE
8
MCD_Layer_0
10
-6.414000
20
3.860198
30
0.0
11
-6.642000
21
3.818198
31
0.0
0
LINE
8
MCD_Layer_0
10
-6.789000
20
3.917198
30
0.0
11
-6.996000
21
4.178198
31
0.0
0
LINE
8
MCD_Layer_0
10
-7.077000
20
4.340198
30
0.0
11
-7.338000
21
4.817198
31
0.0
0
LINE
8
MCD_Layer_0
10
-7.335000
20
4.817198
30
0.0
11
-7.146000
21
4.967198
31
0.0
0
LINE
8
MCD_Layer_0
10
-6.990000
20
5.156198
30
0.0
11
-6.861000
21
5.522198
31
0.0
0
LINE
8
MCD_Layer_0
10
-6.879000
20
5.942198
30
0.0
11
-7.014000
21
6.248198
31
0.0
0
LINE
8
MCD_Layer_0
10
-7.269000
20
6.515198
30
0.0
11
-7.566000
21
6.677198
31
0.0
0
LINE
8
MCD_Layer_0
10
-7.893000
20
6.728198
30
0.0
11
-8.934000
21
6.728198
31
0.0
0
LINE
8
MCD_Layer_0
10
-8.934000
20
6.728198
30
0.0
11
-8.934000
21
6.347198
31
0.0
0
LINE
8
MCD_Layer_0
10
-8.934000
20
6.347198
30
0.0
11
-8.712000
21
6.347198
31
0.0
0
LINE
8
MCD_Layer_0
10
-8.712000
20
6.347198
30
0.0
11
-8.712000
21
3.854198
31
0.0
0
LINE
8
MCD_Layer_0
10
-8.712000
20
3.854198
30
0.0
11
-8.919000
21
3.854198
31
0.0
0
LINE
8
MCD_Layer_0
10
-8.919000
20
3.854198
30
0.0
11
-8.919000
21
3.473198
31
0.0
0
LINE
8
MCD_Layer_0
10
-8.793000
20
3.602198
30
0.0
11
-8.001000
21
3.602198
31
0.0
0
LINE
8
MCD_Layer_0
10
-8.001000
20
3.602198
30
0.0
11
-8.001000
21
3.728198
31
0.0
0
LINE
8
MCD_Layer_0
10
-8.001000
20
3.728198
30
0.0
11
-8.097000
21
3.728198
31
0.0
0
LINE
8
MCD_Layer_0
10
-8.097000
20
3.728198
30
0.0
11
-8.187000
21
3.764198
31
0.0
0
LINE
8
MCD_Layer_0
10
-8.223000
20
3.854198
30
0.0
11
-8.223000
21
4.817198
31
0.0
0
LINE
8
MCD_Layer_0
10
-8.223000
20
4.817198
30
0.0
11
-8.082000
21
4.784198
31
0.0
0
LINE
8
MCD_Layer_0
10
-7.953000
20
4.781198
30
0.0
11
-7.437000
21
3.965198
31
0.0
0
LINE
8
MCD_Layer_0
10
-7.437000
20
3.965198
30
0.0
11
-7.350000
21
3.848198
31
0.0
0
LINE
8
MCD_Layer_0
10
-7.257000
20
3.746198
30
0.0
11
-7.077000
21
3.605198
31
0.0
0
LINE
8
MCD_Layer_0
10
-6.831000
20
3.521198
30
0.0
11
-6.603000
21
3.515198
31
0.0
0
LINE
8
MCD_Layer_0
10
-6.408000
20
3.572198
30
0.0
11
-6.468000
21
3.707198
31
0.0
0
LINE
8
MCD_Layer_0
10
-6.468000
20
3.707198
30
0.0
11
-6.603000
21
3.686198
31
0.0
0
LINE
8
MCD_Layer_0
10
-6.786000
20
3.758198
30
0.0
11
-6.936000
21
3.896198
31
0.0
0
LINE
8
MCD_Layer_0
10
-7.095000
20
4.127198
30
0.0
11
-7.491000
21
4.862198
31
0.0
0
LINE
8
MCD_Layer_0
10
-7.491000
20
4.862198
30
0.0
11
-7.374000
21
4.928198
31
0.0
0
LINE
8
MCD_Layer_0
10
-7.269000
20
5.012198
30
0.0
11
-7.125000
21
5.165198
31
0.0
0
LINE
8
MCD_Layer_0
10
-7.008000
20
5.396198
30
0.0
11
-6.966000
21
5.603198
31
0.0
0
LINE
8
MCD_Layer_0
10
-6.996000
20
5.924198
30
0.0
11
-7.134000
21
6.215198
31
0.0
0
LINE
8
MCD_Layer_0
10
-7.290000
20
6.380198
30
0.0
11
-7.536000
21
6.536198
31
0.0
0
LINE
8
MCD_Layer_0
10
-7.788000
20
6.593198
30
0.0
11
-7.896000
21
6.599198
31
0.0
0
LINE
8
MCD_Layer_0
10
-8.019000
20
6.599198
30
0.0
11
-8.808000
21
6.599198
31
0.0
0
LINE
8
MCD_Layer_0
10
-8.808000
20
6.599198
30
0.0
11
-8.808000
21
6.473198
31
0.0
0
LINE
8
MCD_Layer_0
10
-8.808000
20
6.473198
30
0.0
11
-8.712000
21
6.473198
31
0.0
0
LINE
8
MCD_Layer_0
10
-8.712000
20
6.473198
30
0.0
11
-8.622000
21
6.437198
31
0.0
0
LINE
8
MCD_Layer_0
10
-8.586000
20
6.347198
30
0.0
11
-8.586000
21
3.854198
31
0.0
0
LINE
8
MCD_Layer_0
10
-8.586000
20
3.854198
30
0.0
11
-8.622000
21
3.764198
31
0.0
0
LINE
8
MCD_Layer_0
10
-8.712000
20
3.728198
30
0.0
11
-8.793000
21
3.728198
31
0.0
0
LINE
8
MCD_Layer_0
10
-8.793000
20
3.728198
30
0.0
11
-8.793000
21
3.602198
31
0.0
0
LINE
8
MCD_Layer_0
10
-8.013000
20
5.009198
30
0.0
11
-8.121000
21
5.018198
31
0.0
0
LINE
8
MCD_Layer_0
10
-8.223000
20
5.036198
30
0.0
11
-8.223000
21
6.347198
31
0.0
0
LINE
8
MCD_Layer_0
10
-8.223000
20
6.347198
30
0.0
11
-7.971000
21
6.347198
31
0.0
0
LINE
8
MCD_Layer_0
10
-7.971000
20
6.347198
30
0.0
11
-7.674000
21
6.254198
31
0.0
0
LINE
8
MCD_Layer_0
10
-7.434000
20
5.942198
30
0.0
11
-7.407000
21
5.609198
31
0.0
0
LINE
8
MCD_Layer_0
10
-7.455000
20
5.402198
30
0.0
11
-7.539000
21
5.243198
31
0.0
0
LINE
8
MCD_Layer_0
10
-7.695000
20
5.099198
30
0.0
11
-7.839000
21
5.039198
31
0.0
0
LINE
8
MCD_Layer_0
10
-8.097000
20
5.141198
30
0.0
11
-7.950000
21
5.141198
31
0.0
0
LINE
8
MCD_Layer_0
10
-7.950000
20
5.141198
30
0.0
11
-7.860000
21
5.162198
31
0.0
0
LINE
8
MCD_Layer_0
10
-7.758000
20
5.210198
30
0.0
11
-7.641000
21
5.318198
31
0.0
0
LINE
8
MCD_Layer_0
10
-7.554000
20
5.909198
30
0.0
11
-7.533000
21
5.621198
31
0.0
0
LINE
8
MCD_Layer_0
10
-7.971000
20
6.221198
30
0.0
11
-7.743000
21
6.146198
31
0.0
0
LINE
8
MCD_Layer_0
10
-8.097000
20
6.221198
30
0.0
11
-7.971000
21
6.221198
31
0.0
0
LINE
8
MCD_Layer_0
10
-8.097000
20
6.221198
30
0.0
11
-8.097000
21
5.141198
31
0.0
0
LINE
8
MCD_Layer_0
10
-5.289000
20
4.235498
30
0.0
11
-5.458200
21
4.704998
31
0.0
0
LINE
8
MCD_Layer_0
10
-5.493000
20
5.103698
30
0.0
11
-5.458200
21
5.502398
31
0.0
0
LINE
8
MCD_Layer_0
10
-5.289000
20
5.971898
30
0.0
11
-5.146500
21
6.203798
31
0.0
0
LINE
8
MCD_Layer_0
10
-4.929000
20
6.450998
30
0.0
11
-4.671000
21
6.630698
31
0.0
0
LINE
8
MCD_Layer_0
10
-4.448100
20
6.727598
30
0.0
11
-4.309800
21
6.763298
31
0.0
0
LINE
8
MCD_Layer_0
10
-4.023000
20
6.789098
30
0.0
11
-3.736500
21
6.763298
31
0.0
0
LINE
8
MCD_Layer_0
10
-3.597900
20
6.727598
30
0.0
11
-3.375000
21
6.630698
31
0.0
0
LINE
8
MCD_Layer_0
10
-3.117000
20
6.450998
30
0.0
11
-2.899800
21
6.203798
31
0.0
0
LINE
8
MCD_Layer_0
10
-2.757000
20
5.971898
30
0.0
11
-2.587800
21
5.502398
31
0.0
0
LINE
8
MCD_Layer_0
10
-2.553300
20
5.103698
30
0.0
11
-2.587800
21
4.704998
31
0.0
0
LINE
8
MCD_Layer_0
10
-2.757000
20
4.235498
30
0.0
11
-2.899800
21
4.003598
31
0.0
0
LINE
8
MCD_Layer_0
10
-3.117000
20
3.756398
30
0.0
11
-3.375000
21
3.576698
31
0.0
0
LINE
8
MCD_Layer_0
10
-3.597900
20
3.479798
30
0.0
11
-3.736500
21
3.443798
31
0.0
0
LINE
8
MCD_Layer_0
10
-4.022700
20
3.418298
30
0.0
11
-4.309800
21
3.443798
31
0.0
0
LINE
8
MCD_Layer_0
10
-4.448100
20
3.479798
30
0.0
11
-4.671000
21
3.576698
31
0.0
0
LINE
8
MCD_Layer_0
10
-4.929000
20
3.756398
30
0.0
11
-5.146500
21
4.003598
31
0.0
0
LINE
8
MCD_Layer_0
10
-5.237100
20
4.389998
30
0.0
11
-5.358900
21
4.831898
31
0.0
0
LINE
8
MCD_Layer_0
10
-5.373000
20
5.103698
30
0.0
11
-5.358900
21
5.375498
31
0.0
0
LINE
8
MCD_Layer_0
10
-5.237100
20
5.817398
30
0.0
11
-5.047200
21
6.144398
31
0.0
0
LINE
8
MCD_Layer_0
10
-4.789500
20
6.414998
30
0.0
11
-4.611000
21
6.531998
31
0.0
0
LINE
8
MCD_Layer_0
10
-4.424100
20
6.614498
30
0.0
11
-4.162200
21
6.683797
31
0.0
0
LINE
8
MCD_Layer_0
10
-4.023000
20
6.691897
30
0.0
11
-3.884100
21
6.683797
31
0.0
0
LINE
8
MCD_Layer_0
10
-3.621900
20
6.614498
30
0.0
11
-3.435000
21
6.531998
31
0.0
0
LINE
8
MCD_Layer_0
10
-3.256500
20
6.414998
30
0.0
11
-2.998800
21
6.144398
31
0.0
0
LINE
8
MCD_Layer_0
10
-2.809200
20
5.817398
30
0.0
11
-2.687400
21
5.375498
31
0.0
0
LINE
8
MCD_Layer_0
10
-2.673300
20
5.103698
30
0.0
11
-2.687400
21
4.831898
31
0.0
0
LINE
8
MCD_Layer_0
10
-2.809200
20
4.389998
30
0.0
11
-2.998800
21
4.062998
31
0.0
0
LINE
8
MCD_Layer_0
10
-3.256500
20
3.792098
30
0.0
11
-3.435000
21
3.675398
31
0.0
0
LINE
8
MCD_Layer_0
10
-3.621900
20
3.592598
30
0.0
11
-3.884100
21
3.523598
31
0.0
0
LINE
8
MCD_Layer_0
10
-4.023000
20
3.515198
30
0.0
11
-4.162200
21
3.523598
31
0.0
0
LINE
8
MCD_Layer_0
10
-4.424100
20
3.592598
30
0.0
11
-4.611000
21
3.675398
31
0.0
0
LINE
8
MCD_Layer_0
10
-4.789500
20
3.792098
30
0.0
11
-5.047200
21
4.062998
31
0.0
0
LINE
8
MCD_Layer_0
10
-4.864800
20
4.533098
30
0.0
11
-4.917600
21
4.750598
31
0.0
0
LINE
8
MCD_Layer_0
10
-4.952700
20
5.103698
30
0.0
11
-4.917600
21
5.456798
31
0.0
0
LINE
8
MCD_Layer_0
10
-4.864800
20
5.674298
30
0.0
11
-4.766700
21
5.924798
31
0.0
0
LINE
8
MCD_Layer_0
10
-4.574100
20
6.200498
30
0.0
11
-4.423500
21
6.317498
31
0.0
0
LINE
8
MCD_Layer_0
10
-4.300200
20
6.377498
30
0.0
11
-4.089300
21
6.425498
31
0.0
0
LINE
8
MCD_Layer_0
10
-4.023000
20
6.428498
30
0.0
11
-3.956700
21
6.425498
31
0.0
0
LINE
8
MCD_Layer_0
10
-3.745800
20
6.377498
30
0.0
11
-3.622800
21
6.317498
31
0.0
0
LINE
8
MCD_Layer_0
10
-3.472200
20
6.200498
30
0.0
11
-3.279300
21
5.924798
31
0.0
0
LINE
8
MCD_Layer_0
10
-3.181200
20
5.674298
30
0.0
11
-3.128700
21
5.456798
31
0.0
0
LINE
8
MCD_Layer_0
10
-3.093300
20
5.103698
30
0.0
11
-3.128700
21
4.750598
31
0.0
0
LINE
8
MCD_Layer_0
10
-3.181200
20
4.533098
30
0.0
11
-3.279300
21
4.282598
31
0.0
0
LINE
8
MCD_Layer_0
10
-3.472200
20
4.006598
30
0.0
11
-3.622800
21
3.889898
31
0.0
0
LINE
8
MCD_Layer_0
10
-3.745800
20
3.829898
30
0.0
11
-3.956700
21
3.781598
31
0.0
0
LINE
8
MCD_Layer_0
10
-4.023000
20
3.778598
30
0.0
11
-4.089300
21
3.781598
31
0.0
0
LINE
8
MCD_Layer_0
10
-4.300200
20
3.829898
30
0.0
11
-4.423500
21
3.889898
31
0.0
0
LINE
8
MCD_Layer_0
10
-4.574100
20
4.006598
30
0.0
11
-4.766700
21
4.282598
31
0.0
0
LINE
8
MCD_Layer_0
10
-4.700100
20
4.434698
30
0.0
11
-4.802100
21
4.782398
31
0.0
0
LINE
8
MCD_Layer_0
10
-4.832400
20
5.103698
30
0.0
11
-4.802100
21
5.424698
31
0.0
0
LINE
8
MCD_Layer_0
10
-4.700100
20
5.772698
30
0.0
11
-4.584000
21
5.995598
31
0.0
0
LINE
8
MCD_Layer_0
10
-4.378500
20
6.214598
30
0.0
11
-4.140300
21
6.302198
31
0.0
0
LINE
8
MCD_Layer_0
10
-4.023000
20
6.314198
30
0.0
11
-3.905700
21
6.302198
31
0.0
0
LINE
8
MCD_Layer_0
10
-3.667500
20
6.214598
30
0.0
11
-3.462300
21
5.995598
31
0.0
0
LINE
8
MCD_Layer_0
10
-3.346200
20
5.772698
30
0.0
11
-3.243900
21
5.424698
31
0.0
0
LINE
8
MCD_Layer_0
10
-3.213600
20
5.103698
30
0.0
11
-3.243900
21
4.782398
31
0.0
0
LINE
8
MCD_Layer_0
10
-3.346200
20
4.434698
30
0.0
11
-3.462300
21
4.211798
31
0.0
0
LINE
8
MCD_Layer_0
10
-3.667500
20
3.992798
30
0.0
11
-3.905700
21
3.905198
31
0.0
0
LINE
8
MCD_Layer_0
10
-4.023000
20
3.893198
30
0.0
11
-4.140300
21
3.905198
31
0.0
0
LINE
8
MCD_Layer_0
10
-4.378500
20
3.992798
30
0.0
11
-4.584000
21
4.211798
31
0.0
0
LINE
8
MCD_Layer_0
10
-1.039827
20
3.404198
30
0.0
11
-1.963827
21
6.209198
31
0.0
0
LINE
8
MCD_Layer_0
10
-1.963827
20
6.209198
30
0.0
11
-2.035827
21
6.311198
31
0.0
0
LINE
8
MCD_Layer_0
10
-2.155827
20
6.347198
30
0.0
11
-2.296827
21
6.347198
31
0.0
0
LINE
8
MCD_Layer_0
10
-2.296827
20
6.347198
30
0.0
11
-2.296827
21
6.728198
31
0.0
0
LINE
8
MCD_Layer_0
10
-2.296827
20
6.728198
30
0.0
11
-1.144827
21
6.728198
31
0.0
0
LINE
8
MCD_Layer_0
10
-1.144827
20
6.728198
30
0.0
11
-1.144827
21
6.347198
31
0.0
0
LINE
8
MCD_Layer_0
10
-1.144827
20
6.347198
30
0.0
11
-1.384827
21
6.347198
31
0.0
0
LINE
8
MCD_Layer_0
10
-1.384827
20
6.347198
30
0.0
11
-0.829827
21
4.706198
31
0.0
0
LINE
8
MCD_Layer_0
10
-0.829827
20
4.706198
30
0.0
11
-0.253827
21
6.347198
31
0.0
0
LINE
8
MCD_Layer_0
10
-0.253827
20
6.347198
30
0.0
11
-0.484826
21
6.347198
31
0.0
0
LINE
8
MCD_Layer_0
10
-0.484826
20
6.347198
30
0.0
11
-0.484826
21
6.728198
31
0.0
0
LINE
8
MCD_Layer_0
10
-0.484826
20
6.728198
30
0.0
11
0.526174
21
6.728198
31
0.0
0
LINE
8
MCD_Layer_0
10
0.526174
20
6.728198
30
0.0
11
0.526174
21
6.347198
31
0.0
0
LINE
8
MCD_Layer_0
10
0.526174
20
6.347198
30
0.0
11
0.394173
21
6.347198
31
0.0
0
LINE
8
MCD_Layer_0
10
0.394173
20
6.347198
30
0.0
11
0.277174
21
6.311198
31
0.0
0
LINE
8
MCD_Layer_0
10
0.205173
20
6.212198
30
0.0
11
-0.778827
21
3.404198
31
0.0
0
LINE
8
MCD_Layer_0
10
-0.778827
20
3.404198
30
0.0
11
-1.039827
21
3.404198
31
0.0
0
LINE
8
MCD_Layer_0
10
-0.946827
20
3.530198
30
0.0
11
-1.840827
21
6.230198
31
0.0
0
LINE
8
MCD_Layer_0
10
-1.840827
20
6.230198
30
0.0
11
-1.936827
21
6.383198
31
0.0
0
LINE
8
MCD_Layer_0
10
-2.107827
20
6.473198
30
0.0
11
-2.170827
21
6.473198
31
0.0
0
LINE
8
MCD_Layer_0
10
-2.170827
20
6.473198
30
0.0
11
-2.170827
21
6.602198
31
0.0
0
LINE
8
MCD_Layer_0
10
-2.170827
20
6.602198
30
0.0
11
-1.255827
21
6.602198
31
0.0
0
LINE
8
MCD_Layer_0
10
-1.255827
20
6.602198
30
0.0
11
-1.255827
21
6.473198
31
0.0
0
LINE
8
MCD_Layer_0
10
-1.255827
20
6.473198
30
0.0
11
-1.348827
21
6.473198
31
0.0
0
LINE
8
MCD_Layer_0
10
-1.348827
20
6.473198
30
0.0
11
-1.471827
21
6.416198
31
0.0
0
LINE
8
MCD_Layer_0
10
-1.483827
20
6.281198
30
0.0
11
-0.835827
21
4.340198
31
0.0
0
LINE
8
MCD_Layer_0
10
-0.835827
20
4.340198
30
0.0
11
-0.136827
21
6.311198
31
0.0
0
LINE
8
MCD_Layer_0
10
-0.136827
20
6.311198
30
0.0
11
-0.151827
21
6.422198
31
0.0
0
LINE
8
MCD_Layer_0
10
-0.250827
20
6.473198
30
0.0
11
-0.358826
21
6.473198
31
0.0
0
LINE
8
MCD_Layer_0
10
-0.358826
20
6.473198
30
0.0
11
-0.358826
21
6.602198
31
0.0
0
LINE
8
MCD_Layer_0
10
-0.358826
20
6.602198
30
0.0
11
0.400173
21
6.602198
31
0.0
0
LINE
8
MCD_Layer_0
10
0.400173
20
6.602198
30
0.0
11
0.400173
21
6.473198
31
0.0
0
LINE
8
MCD_Layer_0
10
0.400173
20
6.473198
30
0.0
11
0.337173
21
6.473198
31
0.0
0
LINE
8
MCD_Layer_0
10
0.337173
20
6.473198
30
0.0
11
0.226173
21
6.437198
31
0.0
0
LINE
8
MCD_Layer_0
10
0.100173
20
6.284198
30
0.0
11
-0.859827
21
3.530198
31
0.0
0
LINE
8
MCD_Layer_0
10
-0.859827
20
3.530198
30
0.0
11
-0.946827
21
3.530198
31
0.0
0
LINE
8
MCD_Layer_0
10
1.294500
20
3.473198
30
0.0
11
3.331500
21
3.473198
31
0.0
0
LINE
8
MCD_Layer_0
10
3.331500
20
3.473198
30
0.0
11
3.331500
21
4.277198
31
0.0
0
LINE
8
MCD_Layer_0
10
3.331500
20
4.277198
30
0.0
11
2.953500
21
4.277198
31
0.0
0
LINE
8
MCD_Layer_0
10
2.953500
20
4.277198
30
0.0
11
2.953500
21
4.040198
31
0.0
0
LINE
8
MCD_Layer_0
10
2.953500
20
4.040198
30
0.0
11
2.935500
21
3.998198
31
0.0
0
LINE
8
MCD_Layer_0
10
2.890500
20
3.977198
30
0.0
11
2.116500
21
3.977198
31
0.0
0
LINE
8
MCD_Layer_0
10
2.116500
20
3.977198
30
0.0
11
2.116500
21
5.099198
31
0.0
0
LINE
8
MCD_Layer_0
10
2.116500
20
5.099198
30
0.0
11
2.527500
21
5.099198
31
0.0
0
LINE
8
MCD_Layer_0
10
2.527500
20
5.099198
30
0.0
11
2.527500
21
4.895198
31
0.0
0
LINE
8
MCD_Layer_0
10
2.527500
20
4.895198
30
0.0
11
2.920500
21
4.895198
31
0.0
0
LINE
8
MCD_Layer_0
10
2.920500
20
4.895198
30
0.0
11
2.920500
21
5.777198
31
0.0
0
LINE
8
MCD_Layer_0
10
2.920500
20
5.777198
30
0.0
11
2.527500
21
5.777198
31
0.0
0
LINE
8
MCD_Layer_0
10
2.527500
20
5.777198
30
0.0
11
2.527500
21
5.588198
31
0.0
0
LINE
8
MCD_Layer_0
10
2.527500
20
5.588198
30
0.0
11
2.101500
21
5.588198
31
0.0
0
LINE
8
MCD_Layer_0
10
2.101500
20
5.588198
30
0.0
11
2.101500
21
6.221198
31
0.0
0
LINE
8
MCD_Layer_0
10
2.101500
20
6.221198
30
0.0
11
2.716500
21
6.221198
31
0.0
0
LINE
8
MCD_Layer_0
10
2.716500
20
6.221198
30
0.0
11
2.716500
21
5.969198
31
0.0
0
LINE
8
MCD_Layer_0
10
2.716500
20
5.969198
30
0.0
11
3.112500
21
5.969198
31
0.0
0
LINE
8
MCD_Layer_0
10
3.112500
20
5.969198
30
0.0
11
3.112500
21
6.725198
31
0.0
0
LINE
8
MCD_Layer_0
10
3.112500
20
6.725198
30
0.0
11
1.279500
21
6.725198
31
0.0
0
LINE
8
MCD_Layer_0
10
1.279500
20
6.725198
30
0.0
11
1.279500
21
6.347198
31
0.0
0
LINE
8
MCD_Layer_0
10
1.279500
20
6.347198
30
0.0
11
1.501500
21
6.347198
31
0.0
0
LINE
8
MCD_Layer_0
10
1.501500
20
6.347198
30
0.0
11
1.501500
21
3.851198
31
0.0
0
LINE
8
MCD_Layer_0
10
1.501500
20
3.851198
30
0.0
11
1.294500
21
3.851198
31
0.0
0
LINE
8
MCD_Layer_0
10
1.294500
20
3.851198
30
0.0
11
1.294500
21
3.473198
31
0.0
0
LINE
8
MCD_Layer_0
10
1.420500
20
3.599198
30
0.0
11
3.205500
21
3.599198
31
0.0
0
LINE
8
MCD_Layer_0
10
3.205500
20
3.599198
30
0.0
11
3.205500
21
4.151198
31
0.0
0
LINE
8
MCD_Layer_0
10
3.205500
20
4.151198
30
0.0
11
3.079500
21
4.151198
31
0.0
0
LINE
8
MCD_Layer_0
10
3.079500
20
4.151198
30
0.0
11
3.079500
21
3.977198
31
0.0
0
LINE
8
MCD_Layer_0
10
3.079500
20
3.977198
30
0.0
11
3.043500
21
3.890198
31
0.0
0
LINE
8
MCD_Layer_0
10
2.953500
20
3.851198
30
0.0
11
1.990500
21
3.851198
31
0.0
0
LINE
8
MCD_Layer_0
10
1.990500
20
3.851198
30
0.0
11
1.990500
21
5.225198
31
0.0
0
LINE
8
MCD_Layer_0
10
1.990500
20
5.225198
30
0.0
11
2.527500
21
5.225198
31
0.0
0
LINE
8
MCD_Layer_0
10
2.527500
20
5.225198
30
0.0
11
2.617500
21
5.189198
31
0.0
0
LINE
8
MCD_Layer_0
10
2.653500
20
5.099198
30
0.0
11
2.653500
21
5.021198
31
0.0
0
LINE
8
MCD_Layer_0
10
2.653500
20
5.021198
30
0.0
11
2.794500
21
5.021198
31
0.0
0
LINE
8
MCD_Layer_0
10
2.794500
20
5.021198
30
0.0
11
2.794500
21
5.669198
31
0.0
0
LINE
8
MCD_Layer_0
10
2.794500
20
5.669198
30
0.0
11
2.653500
21
5.669198
31
0.0
0
LINE
8
MCD_Layer_0
10
2.653500
20
5.669198
30
0.0
11
2.653500
21
5.588198
31
0.0
0
LINE
8
MCD_Layer_0
10
2.653500
20
5.588198
30
0.0
11
2.617500
21
5.498198
31
0.0
0
LINE
8
MCD_Layer_0
10
2.527500
20
5.462198
30
0.0
11
1.975500
21
5.462198
31
0.0
0
LINE
8
MCD_Layer_0
10
1.975500
20
5.462198
30
0.0
11
1.975500
21
6.347198
31
0.0
0
LINE
8
MCD_Layer_0
10
1.975500
20
6.347198
30
0.0
11
2.716500
21
6.347198
31
0.0
0
LINE
8
MCD_Layer_0
10
2.716500
20
6.347198
30
0.0
11
2.806500
21
6.308198
31
0.0
0
LINE
8
MCD_Layer_0
10
2.842500
20
6.221198
30
0.0
11
2.842500
21
6.095198
31
0.0
0
LINE
8
MCD_Layer_0
10
2.842500
20
6.095198
30
0.0
11
2.983500
21
6.095198
31
0.0
0
LINE
8
MCD_Layer_0
10
2.983500
20
6.095198
30
0.0
11
2.983500
21
6.599198
31
0.0
0
LINE
8
MCD_Layer_0
10
2.983500
20
6.599198
30
0.0
11
1.405500
21
6.599198
31
0.0
0
LINE
8
MCD_Layer_0
10
1.405500
20
6.599198
30
0.0
11
1.405500
21
6.473198
31
0.0
0
LINE
8
MCD_Layer_0
10
1.405500
20
6.473198
30
0.0
11
1.501500
21
6.473198
31
0.0
0
LINE
8
MCD_Layer_0
10
1.501500
20
6.473198
30
0.0
11
1.588500
21
6.437198
31
0.0
0
LINE
8
MCD_Layer_0
10
1.627500
20
6.347198
30
0.0
11
1.627500
21
3.851198
31
0.0
0
LINE
8
MCD_Layer_0
10
1.627500
20
3.851198
30
0.0
11
1.588500
21
3.764198
31
0.0
0
LINE
8
MCD_Layer_0
10
1.501500
20
3.725198
30
0.0
11
1.420500
21
3.725198
31
0.0
0
LINE
8
MCD_Layer_0
10
1.420500
20
3.725198
30
0.0
11
1.420500
21
3.599198
31
0.0
0
LINE
8
MCD_Layer_0
10
4.585914
20
3.473198
30
0.0
11
4.918914
21
3.473198
31
0.0
0
LINE
8
MCD_Layer_0
10
4.918914
20
3.473198
30
0.0
11
4.951914
21
3.509198
31
0.0
0
LINE
8
MCD_Layer_0
10
5.011914
20
3.506198
30
0.0
11
5.365914
21
3.410198
31
0.0
0
LINE
8
MCD_Layer_0
10
5.746914
20
3.452198
30
0.0
11
6.013914
21
3.581198
31
0.0
0
LINE
8
MCD_Layer_0
10
6.262914
20
3.839198
30
0.0
11
6.394914
21
4.262198
31
0.0
0
LINE
8
MCD_Layer_0
10
6.334914
20
4.667198
30
0.0
11
6.259914
21
4.832198
31
0.0
0
LINE
8
MCD_Layer_0
10
6.157914
20
4.967198
30
0.0
11
5.329914
21
5.783198
31
0.0
0
LINE
8
MCD_Layer_0
10
5.329914
20
5.783198
30
0.0
11
5.266914
21
5.870198
31
0.0
0
LINE
8
MCD_Layer_0
10
5.233914
20
5.990198
30
0.0
11
5.257914
21
6.134198
31
0.0
0
LINE
8
MCD_Layer_0
10
5.323914
20
6.251198
30
0.0
11
5.548914
21
6.332198
31
0.0
0
LINE
8
MCD_Layer_0
10
5.701914
20
6.272198
30
0.0
11
5.770914
21
6.206198
31
0.0
0
LINE
8
MCD_Layer_0
10
5.833914
20
6.047198
30
0.0
11
5.833914
21
5.858198
31
0.0
0
LINE
8
MCD_Layer_0
10
5.833914
20
5.858198
30
0.0
11
6.211914
21
5.858198
31
0.0
0
LINE
8
MCD_Layer_0
10
6.211914
20
5.858198
30
0.0
11
6.211914
21
6.758198
31
0.0
0
LINE
8
MCD_Layer_0
10
6.211914
20
6.758198
30
0.0
11
5.926914
21
6.758198
31
0.0
0
LINE
8
MCD_Layer_0
10
5.926914
20
6.758198
30
0.0
11
5.881914
21
6.728198
31
0.0
0
LINE
8
MCD_Layer_0
10
5.827914
20
6.737198
30
0.0
11
5.545914
21
6.821198
31
0.0
0
LINE
8
MCD_Layer_0
10
5.362914
20
6.818198
30
0.0
11
5.161914
21
6.761198
31
0.0
0
LINE
8
MCD_Layer_0
10
4.951914
20
6.632198
30
0.0
11
4.810914
21
6.488198
31
0.0
0
LINE
8
MCD_Layer_0
10
4.687914
20
6.257198
30
0.0
11
4.639914
21
5.972198
31
0.0
0
LINE
8
MCD_Layer_0
10
4.675914
20
5.699198
30
0.0
11
4.780914
21
5.462198
31
0.0
0
LINE
8
MCD_Layer_0
10
4.915914
20
5.291198
30
0.0
11
5.710914
21
4.508198
31
0.0
0
LINE
8
MCD_Layer_0
10
5.710914
20
4.508198
30
0.0
11
5.800914
21
4.202198
31
0.0
0
LINE
8
MCD_Layer_0
10
5.731914
20
4.028198
30
0.0
11
5.551914
21
3.908198
31
0.0
0
LINE
8
MCD_Layer_0
10
5.365914
20
3.899198
30
0.0
11
5.194914
21
3.965198
31
0.0
0
LINE
8
MCD_Layer_0
10
5.083914
20
4.052198
30
0.0
11
4.990914
21
4.205198
31
0.0
0
LINE
8
MCD_Layer_0
10
4.948914
20
4.436198
30
0.0
11
4.948914
21
4.565198
31
0.0
0
LINE
8
MCD_Layer_0
10
4.948914
20
4.565198
30
0.0
11
4.585914
21
4.565198
31
0.0
0
LINE
8
MCD_Layer_0
10
4.585914
20
4.565198
30
0.0
11
4.585914
21
3.473198
31
0.0
0
LINE
8
MCD_Layer_0
10
4.711914
20
3.602198
30
0.0
11
4.822914
21
3.602198
31
0.0
0
LINE
8
MCD_Layer_0
10
4.822914
20
3.602198
30
0.0
11
4.891914
21
3.659198
31
0.0
0
LINE
8
MCD_Layer_0
10
4.999914
20
3.644198
30
0.0
11
5.146914
21
3.578198
31
0.0
0
LINE
8
MCD_Layer_0
10
5.446914
20
3.518198
30
0.0
11
5.782914
21
3.584198
31
0.0
0
LINE
8
MCD_Layer_0
10
6.019914
20
3.740198
30
0.0
11
6.106914
21
3.836198
31
0.0
0
LINE
8
MCD_Layer_0
10
6.256914
20
4.130198
30
0.0
11
6.277914
21
4.361198
31
0.0
0
LINE
8
MCD_Layer_0
10
6.058914
20
4.892198
30
0.0
11
5.299914
21
5.633198
31
0.0
0
LINE
8
MCD_Layer_0
10
5.299914
20
5.633198
30
0.0
11
5.224914
21
5.717198
31
0.0
0
LINE
8
MCD_Layer_0
10
5.158914
20
5.825198
30
0.0
11
5.119914
21
5.957198
31
0.0
0
LINE
8
MCD_Layer_0
10
5.116914
20
6.086198
30
0.0
11
5.164914
21
6.236198
31
0.0
0
LINE
8
MCD_Layer_0
10
5.266914
20
6.356198
30
0.0
11
5.404914
21
6.434198
31
0.0
0
LINE
8
MCD_Layer_0
10
5.536914
20
6.455198
30
0.0
11
5.695914
21
6.419198
31
0.0
0
LINE
8
MCD_Layer_0
10
5.851914
20
6.299198
30
0.0
11
5.899914
21
6.230198
31
0.0
0
LINE
8
MCD_Layer_0
10
5.944914
20
6.080198
30
0.0
11
5.944914
21
5.984198
31
0.0
0
LINE
8
MCD_Layer_0
10
5.944914
20
5.984198
30
0.0
11
6.085914
21
5.984198
31
0.0
0
LINE
8
MCD_Layer_0
10
6.085914
20
5.984198
30
0.0
11
6.085914
21
6.599198
31
0.0
0
LINE
8
MCD_Layer_0
10
6.085914
20
6.599198
30
0.0
11
6.085914
21
6.632198
31
0.0
0
LINE
8
MCD_Layer_0
10
6.085914
20
6.632198
30
0.0
11
5.959914
21
6.632198
31
0.0
0
LINE
8
MCD_Layer_0
10
5.959914
20
6.632198
30
0.0
11
5.926914
21
6.575198
31
0.0
0
LINE
8
MCD_Layer_0
10
5.845914
20
6.581198
30
0.0
11
5.737914
21
6.647198
31
0.0
0
LINE
8
MCD_Layer_0
10
5.614914
20
6.686198
30
0.0
11
5.536914
21
6.695198
31
0.0
0
LINE
8
MCD_Layer_0
10
5.236914
20
6.659198
30
0.0
11
5.008914
21
6.527198
31
0.0
0
LINE
8
MCD_Layer_0
10
4.882914
20
6.377198
30
0.0
11
4.789914
21
6.170198
31
0.0
0
LINE
8
MCD_Layer_0
10
4.762914
20
5.978198
30
0.0
11
4.792914
21
5.726198
31
0.0
0
LINE
8
MCD_Layer_0
10
4.966914
20
5.417198
30
0.0
11
5.788914
21
4.604198
31
0.0
0
LINE
8
MCD_Layer_0
10
5.788914
20
4.604198
30
0.0
11
5.923914
21
4.316198
31
0.0
0
LINE
8
MCD_Layer_0
10
5.908914
20
4.124198
30
0.0
11
5.806914
21
3.929198
31
0.0
0
LINE
8
MCD_Layer_0
10
5.530914
20
3.773198
30
0.0
11
5.347914
21
3.776198
31
0.0
0
LINE
8
MCD_Layer_0
10
5.089914
20
3.884198
30
0.0
11
4.927914
21
4.052198
31
0.0
0
LINE
8
MCD_Layer_0
10
4.837914
20
4.343198
30
0.0
11
4.837914
21
4.436198
31
0.0
0
LINE
8
MCD_Layer_0
10
4.837914
20
4.436198
30
0.0
11
4.711914
21
4.436198
31
0.0
0
LINE
8
MCD_Layer_0
10
4.711914
20
4.436198
30
0.0
11
4.711914
21
3.602198
31
0.0
0
LINE
8
MCD_Layer_0
10
7.386557
20
3.473198
30
0.0
11
8.177985
21
4.932331
31
0.0
0
LINE
8
MCD_Layer_0
10
8.969412
20
3.473198
30
0.0
11
8.177985
21
4.932331
31
0.0
0
LINE
8
MCD_Layer_0
10
-12.038676
20
0.006710
30
0.0
11
12.038676
21
0.006710
31
0.0
0
ENDSEC
0
EOF
