0
SECTION
2
ENTITIES
0
LINE
8
0
10
-8.919000267982483
20
3.4731979370117188
30
0.0
11
-7.875000298023224
21
3.4731979370117188
31
0.0
0
LINE
8
0
10
-7.875000298023224
20
3.4731979370117188
30
0.0
11
-7.875000298023224
21
3.8541979491710663
31
0.0
0
LINE
8
0
10
-7.875000298023224
20
3.8541979491710663
30
0.0
11
-8.097000300884247
21
3.8541979491710663
31
0.0
0
LINE
8
0
10
-8.097000300884247
20
3.8541979491710663
30
0.0
11
-8.097000300884247
21
4.694197952747345
31
0.0
0
LINE
8
0
10
-8.031000345945358
20
4.67919796705246
30
0.0
11
-7.536000281572342
21
3.8991979509592056
31
0.0
0
LINE
8
0
10
-6.24900022149086
20
3.509197937324643
30
0.0
11
-6.414000421762466
21
3.860197961330414
31
0.0
0
LINE
8
0
10
-7.077000290155411
20
4.340197950601578
30
0.0
11
-7.338000327348709
21
4.8171979784965515
31
0.0
0
LINE
8
0
10
-7.893000245094299
20
6.728198051452637
30
0.0
11
-8.934000253677368
21
6.728198051452637
31
0.0
0
LINE
8
0
10
-8.934000253677368
20
6.728198051452637
30
0.0
11
-8.934000253677368
21
6.347197949886322
31
0.0
0
LINE
8
0
10
-8.934000253677368
20
6.347197949886322
30
0.0
11
-8.712000250816345
21
6.347197949886322
31
0.0
0
LINE
8
0
10
-8.712000250816345
20
6.347197949886322
30
0.0
11
-8.712000250816345
21
3.8541979491710663
31
0.0
0
LINE
8
0
10
-8.712000250816345
20
3.8541979491710663
30
0.0
11
-8.919000267982483
21
3.8541979491710663
31
0.0
0
LINE
8
0
10
-8.919000267982483
20
3.8541979491710663
30
0.0
11
-8.919000267982483
21
3.4731979370117188
31
0.0
0
LINE
8
0
10
-8.793000280857086
20
3.6021979302167892
30
0.0
11
-8.00100028514862
21
3.6021979302167892
31
0.0
0
LINE
8
0
10
-8.00100028514862
20
3.6021979302167892
30
0.0
11
-8.00100028514862
21
3.728197917342186
31
0.0
0
LINE
8
0
10
-8.00100028514862
20
3.728197917342186
30
0.0
11
-8.097000300884247
21
3.728197917342186
31
0.0
0
LINE
8
0
10
-8.223000288009644
20
3.8541979491710663
30
0.0
11
-8.223000288009644
21
4.8171979784965515
31
0.0
0
LINE
8
0
10
-7.9530002772808075
20
4.7811979949474335
30
0.0
11
-7.4370003044605255
21
3.9651979506015778
31
0.0
0
LINE
8
0
10
-6.408000320196152
20
3.572197936475277
30
0.0
11
-6.468000262975693
21
3.707197919487953
31
0.0
0
LINE
8
0
10
-7.095000237226486
20
4.127197965979576
30
0.0
11
-7.491000324487686
21
4.862197935581207
31
0.0
0
LINE
8
0
10
-8.019000321626663
20
6.599197745323181
30
0.0
11
-8.808000266551971
21
6.599197745323181
31
0.0
0
LINE
8
0
10
-8.808000266551971
20
6.599197745323181
30
0.0
11
-8.808000266551971
21
6.473197937011719
31
0.0
0
LINE
8
0
10
-8.808000266551971
20
6.473197937011719
30
0.0
11
-8.712000250816345
21
6.473197937011719
31
0.0
0
LINE
8
0
10
-8.586000263690948
20
6.347197949886322
30
0.0
11
-8.586000263690948
21
3.8541979491710663
31
0.0
0
LINE
8
0
10
-8.712000250816345
20
3.728197917342186
30
0.0
11
-8.793000280857086
21
3.728197917342186
31
0.0
0
LINE
8
0
10
-8.793000280857086
20
3.728197917342186
30
0.0
11
-8.793000280857086
21
3.6021979302167892
31
0.0
0
LINE
8
0
10
-8.223000288009644
20
5.03619784116745
30
0.0
11
-8.223000288009644
21
6.347197949886322
31
0.0
0
LINE
8
0
10
-8.223000288009644
20
6.347197949886322
30
0.0
11
-7.97100031375885
21
6.347197949886322
31
0.0
0
LINE
8
0
10
-8.097000300884247
20
5.141197919845581
30
0.0
11
-7.95000022649765
21
5.141197919845581
31
0.0
0
LINE
8
0
10
-8.097000300884247
20
6.221197962760925
30
0.0
11
-7.97100031375885
21
6.221197962760925
31
0.0
0
LINE
8
0
10
-8.097000300884247
20
6.221197962760925
30
0.0
11
-8.097000300884247
21
5.141197919845581
31
0.0
0
ENDSEC
0
EOF
