0
SECTION
2
ENTITIES
0
LINE
8
0
10
-8.919000267982483
20
3.4731979370117188
30
0.0
11
-7.875000298023224
21
3.4731979370117188
31
0.0
0
LINE
8
0
10
-7.875000298023224
20
3.4731979370117188
30
0.0
11
-7.875000298023224
21
3.8541979491710663
31
0.0
0
LINE
8
0
10
-7.875000298023224
20
3.8541979491710663
30
0.0
11
-8.097000300884247
21
3.8541979491710663
31
0.0
0
LINE
8
0
10
-8.097000300884247
20
3.8541979491710663
30
0.0
11
-8.097000300884247
21
4.694197952747345
31
0.0
0
LINE
8
0
10
-8.031000345945358
20
4.67919796705246
30
0.0
11
-7.536000281572342
21
3.8991979509592056
31
0.0
0
LINE
8
0
10
-6.24900022149086
20
3.509197937324643
30
0.0
11
-6.414000421762466
21
3.860197961330414
31
0.0
0
LINE
8
0
10
-7.077000290155411
20
4.340197950601578
30
0.0
11
-7.338000327348709
21
4.8171979784965515
31
0.0
0
LINE
8
0
10
-7.893000245094299
20
6.728198051452637
30
0.0
11
-8.934000253677368
21
6.728198051452637
31
0.0
0
LINE
8
0
10
-8.934000253677368
20
6.728198051452637
30
0.0
11
-8.934000253677368
21
6.347197949886322
31
0.0
0
LINE
8
0
10
-8.934000253677368
20
6.347197949886322
30
0.0
11
-8.712000250816345
21
6.347197949886322
31
0.0
0
LINE
8
0
10
-8.712000250816345
20
6.347197949886322
30
0.0
11
-8.712000250816345
21
3.8541979491710663
31
0.0
0
LINE
8
0
10
-8.712000250816345
20
3.8541979491710663
30
0.0
11
-8.919000267982483
21
3.8541979491710663
31
0.0
0
LINE
8
0
10
-8.919000267982483
20
3.8541979491710663
30
0.0
11
-8.919000267982483
21
3.4731979370117188
31
0.0
0
LINE
8
0
10
-8.793000280857086
20
3.6021979302167892
30
0.0
11
-8.00100028514862
21
3.6021979302167892
31
0.0
0
LINE
8
0
10
-8.00100028514862
20
3.6021979302167892
30
0.0
11
-8.00100028514862
21
3.728197917342186
31
0.0
0
LINE
8
0
10
-8.00100028514862
20
3.728197917342186
30
0.0
11
-8.097000300884247
21
3.728197917342186
31
0.0
0
LINE
8
0
10
-8.223000288009644
20
3.8541979491710663
30
0.0
11
-8.223000288009644
21
4.8171979784965515
31
0.0
0
LINE
8
0
10
-7.9530002772808075
20
4.7811979949474335
30
0.0
11
-7.4370003044605255
21
3.9651979506015778
31
0.0
0
LINE
8
0
10
-6.408000320196152
20
3.572197936475277
30
0.0
11
-6.468000262975693
21
3.707197919487953
31
0.0
0
LINE
8
0
10
-7.095000237226486
20
4.127197965979576
30
0.0
11
-7.491000324487686
21
4.862197935581207
31
0.0
0
LINE
8
0
10
-8.019000321626663
20
6.599197745323181
30
0.0
11
-8.808000266551971
21
6.599197745323181
31
0.0
0
LINE
8
0
10
-8.808000266551971
20
6.599197745323181
30
0.0
11
-8.808000266551971
21
6.473197937011719
31
0.0
0
LINE
8
0
10
-8.808000266551971
20
6.473197937011719
30
0.0
11
-8.712000250816345
21
6.473197937011719
31
0.0
0
LINE
8
0
10
-8.586000263690948
20
6.347197949886322
30
0.0
11
-8.586000263690948
21
3.8541979491710663
31
0.0
0
LINE
8
0
10
-8.712000250816345
20
3.728197917342186
30
0.0
11
-8.793000280857086
21
3.728197917342186
31
0.0
0
LINE
8
0
10
-8.793000280857086
20
3.728197917342186
30
0.0
11
-8.793000280857086
21
3.6021979302167892
31
0.0
0
LINE
8
0
10
-8.223000288009644
20
5.03619784116745
30
0.0
11
-8.223000288009644
21
6.347197949886322
31
0.0
0
LINE
8
0
10
-8.223000288009644
20
6.347197949886322
30
0.0
11
-7.97100031375885
21
6.347197949886322
31
0.0
0
LINE
8
0
10
-8.097000300884247
20
5.141197919845581
30
0.0
11
-7.95000022649765
21
5.141197919845581
31
0.0
0
LINE
8
0
10
-8.097000300884247
20
6.221197962760925
30
0.0
11
-7.97100031375885
21
6.221197962760925
31
0.0
0
LINE
8
0
10
-8.097000300884247
20
6.221197962760925
30
0.0
11
-8.097000300884247
21
5.141197919845581
31
0.0
0
LINE
8
0
10
-1.0398265719413757
20
3.4041979368776083
30
0.0
11
-1.9638265669345856
21
6.20919793844223
31
0.0
0
LINE
8
0
10
-2.155826598405838
20
6.347198128700256
30
0.0
11
-2.29682657122612
21
6.347198128700256
31
0.0
0
LINE
8
0
10
-2.29682657122612
20
6.347198128700256
30
0.0
11
-2.29682657122612
21
6.728198051452637
31
0.0
0
LINE
8
0
10
-2.29682657122612
20
6.728198051452637
30
0.0
11
-1.1448265612125397
21
6.728198051452637
31
0.0
0
LINE
8
0
10
-1.1448265612125397
20
6.728198051452637
30
0.0
11
-1.1448265612125397
21
6.347198128700256
31
0.0
0
LINE
8
0
10
-1.1448265612125397
20
6.347198128700256
30
0.0
11
-1.384826511144638
21
6.347198128700256
31
0.0
0
LINE
8
0
10
-1.384826511144638
20
6.347198128700256
30
0.0
11
-0.8298265039920807
21
4.706197887659073
31
0.0
0
LINE
8
0
10
-0.8298265039920807
20
4.706197887659073
30
0.0
11
-0.2538265883922577
21
6.347198128700256
31
0.0
0
LINE
8
0
10
-0.2538265883922577
20
6.347198128700256
30
0.0
11
-0.4848264753818512
21
6.347198128700256
31
0.0
0
LINE
8
0
10
-0.4848264753818512
20
6.347198128700256
30
0.0
11
-0.4848264753818512
21
6.728198051452637
31
0.0
0
LINE
8
0
10
-0.4848264753818512
20
6.728198051452637
30
0.0
11
0.5261735618114471
21
6.728198051452637
31
0.0
0
LINE
8
0
10
0.5261735618114471
20
6.728198051452637
30
0.0
11
0.5261735618114471
21
6.347198128700256
31
0.0
0
LINE
8
0
10
0.5261735618114471
20
6.347198128700256
30
0.0
11
0.3941734731197357
21
6.347198128700256
31
0.0
0
LINE
8
0
10
0.20517340302467346
20
6.212198078632355
30
0.0
11
-0.7788266241550446
21
3.4041979368776083
31
0.0
0
LINE
8
0
10
-0.7788266241550446
20
3.4041979368776083
30
0.0
11
-1.0398265719413757
21
3.4041979368776083
31
0.0
0
LINE
8
0
10
-0.9468265175819397
20
3.530197935178876
30
0.0
11
-1.840826541185379
21
6.23019802570343
31
0.0
0
LINE
8
0
10
-2.107826590538025
20
6.473197937011719
30
0.0
11
-2.1708265841007233
21
6.473197937011719
31
0.0
0
LINE
8
0
10
-2.1708265841007233
20
6.473197937011719
30
0.0
11
-2.1708265841007233
21
6.602197885513306
31
0.0
0
LINE
8
0
10
-2.1708265841007233
20
6.602197885513306
30
0.0
11
-1.2558265626430511
21
6.602197885513306
31
0.0
0
LINE
8
0
10
-1.2558265626430511
20
6.602197885513306
30
0.0
11
-1.2558265626430511
21
6.473197937011719
31
0.0
0
LINE
8
0
10
-1.2558265626430511
20
6.473197937011719
30
0.0
11
-1.34882652759552
21
6.473197937011719
31
0.0
0
LINE
8
0
10
-1.4838265776634216
20
6.281197905540466
30
0.0
11
-0.8358265161514282
21
4.340197950601578
31
0.0
0
LINE
8
0
10
-0.8358265161514282
20
4.340197950601578
30
0.0
11
-0.13682666420936584
21
6.311198055744171
31
0.0
0
LINE
8
0
10
-0.2508266270160675
20
6.473197937011719
30
0.0
11
-0.35882648825645447
21
6.473197937011719
31
0.0
0
LINE
8
0
10
-0.35882648825645447
20
6.473197937011719
30
0.0
11
-0.35882648825645447
21
6.602197885513306
31
0.0
0
LINE
8
0
10
-0.35882648825645447
20
6.602197885513306
30
0.0
11
0.4001733958721161
21
6.602197885513306
31
0.0
0
LINE
8
0
10
0.4001733958721161
20
6.602197885513306
30
0.0
11
0.4001733958721161
21
6.473197937011719
31
0.0
0
LINE
8
0
10
0.4001733958721161
20
6.473197937011719
30
0.0
11
0.3371734917163849
21
6.473197937011719
31
0.0
0
LINE
8
0
10
0.10017332434654236
20
6.284198045730591
30
0.0
11
-0.8598265647888184
21
3.530197935178876
31
0.0
0
LINE
8
0
10
-0.8598265647888184
20
3.530197935178876
30
0.0
11
-0.9468265175819397
21
3.530197935178876
31
0.0
0
LINE
8
0
10
1.294499695301056
20
3.4731979370117188
30
0.0
11
3.3314996659755707
21
3.4731979370117188
31
0.0
0
LINE
8
0
10
3.3314996659755707
20
3.4731979370117188
30
0.0
11
3.3314996659755707
21
4.277197867631912
31
0.0
0
LINE
8
0
10
3.3314996659755707
20
4.277197867631912
30
0.0
11
2.9534997045993805
21
4.277197867631912
31
0.0
0
LINE
8
0
10
2.9534997045993805
20
4.277197867631912
30
0.0
11
2.9534997045993805
21
4.040197968482971
31
0.0
0
LINE
8
0
10
2.890499621629715
20
3.9771979302167892
30
0.0
11
2.116499751806259
21
3.9771979302167892
31
0.0
0
LINE
8
0
10
2.116499751806259
20
3.9771979302167892
30
0.0
11
2.116499751806259
21
5.0991979241371155
31
0.0
0
LINE
8
0
10
2.116499751806259
20
5.0991979241371155
30
0.0
11
2.527499735355377
21
5.0991979241371155
31
0.0
0
LINE
8
0
10
2.527499735355377
20
5.0991979241371155
30
0.0
11
2.527499735355377
21
4.895197957754135
31
0.0
0
LINE
8
0
10
2.527499735355377
20
4.895197957754135
30
0.0
11
2.92049977183342
21
4.895197957754135
31
0.0
0
LINE
8
0
10
2.92049977183342
20
4.895197957754135
30
0.0
11
2.92049977183342
21
5.777197957038879
31
0.0
0
LINE
8
0
10
2.92049977183342
20
5.777197957038879
30
0.0
11
2.527499735355377
21
5.777197957038879
31
0.0
0
LINE
8
0
10
2.527499735355377
20
5.777197957038879
30
0.0
11
2.527499735355377
21
5.588197886943817
31
0.0
0
LINE
8
0
10
2.527499735355377
20
5.588197886943817
30
0.0
11
2.101499766111374
21
5.588197886943817
31
0.0
0
LINE
8
0
10
2.101499766111374
20
5.588197886943817
30
0.0
11
2.101499766111374
21
6.221197962760925
31
0.0
0
LINE
8
0
10
2.101499766111374
20
6.221197962760925
30
0.0
11
2.7164997160434723
21
6.221197962760925
31
0.0
0
LINE
8
0
10
2.7164997160434723
20
6.221197962760925
30
0.0
11
2.7164997160434723
21
5.9691978096961975
31
0.0
0
LINE
8
0
10
2.7164997160434723
20
5.9691978096961975
30
0.0
11
3.1124998033046722
21
5.9691978096961975
31
0.0
0
LINE
8
0
10
3.1124998033046722
20
5.9691978096961975
30
0.0
11
3.1124998033046722
21
6.725197911262512
31
0.0
0
LINE
8
0
10
3.1124998033046722
20
6.725197911262512
30
0.0
11
1.2794997096061707
21
6.725197911262512
31
0.0
0
LINE
8
0
10
1.2794997096061707
20
6.725197911262512
30
0.0
11
1.2794997096061707
21
6.347198128700256
31
0.0
0
LINE
8
0
10
1.2794997096061707
20
6.347198128700256
30
0.0
11
1.5014997124671936
21
6.347198128700256
31
0.0
0
LINE
8
0
10
1.5014997124671936
20
6.347198128700256
30
0.0
11
1.5014997124671936
21
3.8511979430913925
31
0.0
0
LINE
8
0
10
1.5014997124671936
20
3.8511979430913925
30
0.0
11
1.294499695301056
21
3.8511979430913925
31
0.0
0
LINE
8
0
10
1.294499695301056
20
3.8511979430913925
30
0.0
11
1.294499695301056
21
3.4731979370117188
31
0.0
0
LINE
8
0
10
1.4204996824264526
20
3.5991979353129864
30
0.0
11
3.2054998576641083
21
3.5991979353129864
31
0.0
0
LINE
8
0
10
3.2054998576641083
20
3.5991979353129864
30
0.0
11
3.2054998576641083
21
4.151197925209999
31
0.0
0
LINE
8
0
10
3.2054998576641083
20
4.151197925209999
30
0.0
11
3.079499691724777
21
4.151197925209999
31
0.0
0
LINE
8
0
10
3.079499691724777
20
4.151197925209999
30
0.0
11
3.079499691724777
21
3.9771979302167892
31
0.0
0
LINE
8
0
10
2.9534997045993805
20
3.8511979430913925
30
0.0
11
1.9904997199773788
21
3.8511979430913925
31
0.0
0
LINE
8
0
10
1.9904997199773788
20
3.8511979430913925
30
0.0
11
1.9904997199773788
21
5.225197911262512
31
0.0
0
LINE
8
0
10
1.9904997199773788
20
5.225197911262512
30
0.0
11
2.527499735355377
21
5.225197911262512
31
0.0
0
LINE
8
0
10
2.653499811887741
20
5.0991979241371155
30
0.0
11
2.653499811887741
21
5.021197855472565
31
0.0
0
LINE
8
0
10
2.653499811887741
20
5.021197855472565
30
0.0
11
2.794499784708023
21
5.021197855472565
31
0.0
0
LINE
8
0
10
2.794499784708023
20
5.021197855472565
30
0.0
11
2.794499784708023
21
5.669197738170624
31
0.0
0
LINE
8
0
10
2.794499784708023
20
5.669197738170624
30
0.0
11
2.653499811887741
21
5.669197738170624
31
0.0
0
LINE
8
0
10
2.653499811887741
20
5.669197738170624
30
0.0
11
2.653499811887741
21
5.588197886943817
31
0.0
0
LINE
8
0
10
2.527499735355377
20
5.462198078632355
30
0.0
11
1.9754997342824936
21
5.462198078632355
31
0.0
0
LINE
8
0
10
1.9754997342824936
20
5.462198078632355
30
0.0
11
1.9754997342824936
21
6.347198128700256
31
0.0
0
LINE
8
0
10
1.9754997342824936
20
6.347198128700256
30
0.0
11
2.7164997160434723
21
6.347198128700256
31
0.0
0
LINE
8
0
10
2.842499703168869
20
6.221197962760925
30
0.0
11
2.842499703168869
21
6.095197975635529
31
0.0
0
LINE
8
0
10
2.842499703168869
20
6.095197975635529
30
0.0
11
2.983499675989151
21
6.095197975635529
31
0.0
0
LINE
8
0
10
2.983499675989151
20
6.095197975635529
30
0.0
11
2.983499675989151
21
6.599197745323181
31
0.0
0
LINE
8
0
10
2.983499675989151
20
6.599197745323181
30
0.0
11
1.4054996967315674
21
6.599197745323181
31
0.0
0
LINE
8
0
10
1.4054996967315674
20
6.599197745323181
30
0.0
11
1.4054996967315674
21
6.473197937011719
31
0.0
0
LINE
8
0
10
1.4054996967315674
20
6.473197937011719
30
0.0
11
1.5014997124671936
21
6.473197937011719
31
0.0
0
LINE
8
0
10
1.6274996995925903
20
6.347198128700256
30
0.0
11
1.6274996995925903
21
3.8511979430913925
31
0.0
0
LINE
8
0
10
1.5014997124671936
20
3.725197933614254
30
0.0
11
1.4204996824264526
21
3.725197933614254
31
0.0
0
LINE
8
0
10
1.4204996824264526
20
3.725197933614254
30
0.0
11
1.4204996824264526
21
3.5991979353129864
31
0.0
0
LINE
8
0
10
4.585913717746735
20
3.4731979370117188
30
0.0
11
4.918913722038269
21
3.4731979370117188
31
0.0
0
LINE
8
0
10
6.157913774251938
20
4.967197924852371
30
0.0
11
5.329913705587387
21
5.78319787979126
31
0.0
0
LINE
8
0
10
5.833913743495941
20
6.047198057174683
30
0.0
11
5.833913743495941
21
5.85819798707962
31
0.0
0
LINE
8
0
10
5.833913743495941
20
5.85819798707962
30
0.0
11
6.2119137942790985
21
5.85819798707962
31
0.0
0
LINE
8
0
10
6.2119137942790985
20
5.85819798707962
30
0.0
11
6.2119137942790985
21
6.758198022842407
31
0.0
0
LINE
8
0
10
6.2119137942790985
20
6.758198022842407
30
0.0
11
5.926913797855377
21
6.758198022842407
31
0.0
0
LINE
8
0
10
4.915913760662079
20
5.291198134422302
30
0.0
11
5.710913717746735
21
4.50819793343544
31
0.0
0
LINE
8
0
10
4.948913782835007
20
4.436197966337204
30
0.0
11
4.948913782835007
21
4.565198004245758
31
0.0
0
LINE
8
0
10
4.948913782835007
20
4.565198004245758
30
0.0
11
4.585913717746735
21
4.565198004245758
31
0.0
0
LINE
8
0
10
4.585913717746735
20
4.565198004245758
30
0.0
11
4.585913717746735
21
3.4731979370117188
31
0.0
0
LINE
8
0
10
4.711913704872131
20
3.6021979302167892
30
0.0
11
4.822913706302643
21
3.6021979302167892
31
0.0
0
LINE
8
0
10
6.0589137971401215
20
4.892197906970978
30
0.0
11
5.2999137789011
21
5.633197844028473
31
0.0
0
LINE
8
0
10
5.94491383433342
20
6.080197989940643
30
0.0
11
5.94491383433342
21
5.984197974205017
31
0.0
0
LINE
8
0
10
5.94491383433342
20
5.984197974205017
30
0.0
11
6.085913807153702
21
5.984197974205017
31
0.0
0
LINE
8
0
10
6.085913807153702
20
5.984197974205017
30
0.0
11
6.085913807153702
21
6.599197745323181
31
0.0
0
LINE
8
0
10
6.085913807153702
20
6.599197745323181
30
0.0
11
6.085913807153702
21
6.632197856903076
31
0.0
0
LINE
8
0
10
6.085913807153702
20
6.632197856903076
30
0.0
11
5.959913730621338
21
6.632197856903076
31
0.0
0
LINE
8
0
10
4.966913729906082
20
5.417198121547699
30
0.0
11
5.788913786411285
21
4.604197949171066
31
0.0
0
LINE
8
0
10
4.837913736701012
20
4.343197911977768
30
0.0
11
4.837913736701012
21
4.436197966337204
31
0.0
0
LINE
8
0
10
4.837913736701012
20
4.436197966337204
30
0.0
11
4.711913704872131
21
4.436197966337204
31
0.0
0
LINE
8
0
10
4.711913704872131
20
4.436197966337204
30
0.0
11
4.711913704872131
21
3.6021979302167892
31
0.0
0
LINE
8
0
10
7.386557221412659
20
3.4731979431826687
30
0.0
11
8.177984649315476
21
4.932331085205078
31
0.0
0
LINE
8
0
10
8.969412088394165
20
3.4731979370117188
30
0.0
11
8.177984649315476
21
4.932331085205078
31
0.0
0
LINE
8
0
10
-12.038676261901855
20
0.0
30
0.0
11
12.038676261901855
21
0.0
31
0.0
0
ENDSEC
0
EOF
