0
SECTION
2
ENTITIES
0
LINE
8
MCD_Layer_0
10
0.776917
20
0.000000
30
0.0
11
0.000000
21
0.000092
31
0.0
0
LINE
8
MCD_Layer_0
10
0.000000
20
-0.723206
30
0.0
11
-0.511688
21
0.255981
31
0.0
0
LINE
8
MCD_Layer_0
10
-0.406372
20
-0.512268
30
0.0
11
0.143982
21
0.480560
31
0.0
0
LINE
8
MCD_Layer_0
10
-0.406372
20
-0.512268
30
0.0
11
0.256012
21
0.495605
31
0.0
0
LINE
8
MCD_Layer_0
10
-0.723206
20
-0.511688
30
0.0
11
0.496033
21
0.495758
31
0.0
0
LINE
8
MCD_Layer_0
10
0.028839
20
-0.510529
30
0.0
11
0.496033
21
0.495758
31
0.0
0
LINE
8
MCD_Layer_0
10
0.028839
20
-0.510529
30
0.0
11
0.000000
21
0.496094
31
0.0
0
LINE
8
MCD_Layer_0
10
-0.675201
20
0.476624
30
0.0
11
0.000000
21
0.496094
31
0.0
0
LINE
8
MCD_Layer_0
10
-0.342407
20
0.477356
30
0.0
11
0.000000
21
0.000000
31
0.0
0
LINE
8
MCD_Layer_0
10
-0.211182
20
-0.510712
30
0.0
11
0.000000
21
0.000000
31
0.0
0
LINE
8
MCD_Layer_0
10
-0.953583
20
0.470978
30
0.0
11
0.000000
21
0.492188
31
0.0
0
LINE
8
MCD_Layer_0
10
0.147217
20
-0.516052
30
0.0
11
0.000000
21
0.492188
31
0.0
0
LINE
8
MCD_Layer_0
10
0.147217
20
-0.516052
30
0.0
11
0.463989
21
0.483368
31
0.0
0
LINE
8
MCD_Layer_0
10
0.147217
20
-0.516052
30
0.0
11
0.256012
21
0.492676
31
0.0
0
LINE
8
MCD_Layer_0
10
0.787170
20
0.458313
30
0.0
11
0.256012
21
0.492676
31
0.0
0
LINE
8
MCD_Layer_0
10
-0.694427
20
-0.528076
30
0.0
11
0.256012
21
0.495605
31
0.0
0
LINE
8
MCD_Layer_0
10
0.147217
20
-0.516052
30
0.0
11
0.256012
21
0.495605
31
0.0
0
LINE
8
MCD_Layer_0
10
-0.143066
20
0.489349
30
0.0
11
0.751984
21
0.496246
31
0.0
0
LINE
8
MCD_Layer_0
10
-0.143066
20
0.489349
30
0.0
11
0.880005
21
0.494049
31
0.0
0
LINE
8
MCD_Layer_0
10
-0.270996
20
0.488617
30
0.0
11
0.880005
21
0.494049
31
0.0
0
LINE
8
MCD_Layer_0
10
-0.270996
20
0.488617
30
0.0
11
-0.688019
21
0.494324
31
0.0
0
LINE
8
MCD_Layer_0
10
-0.767029
20
0.488953
30
0.0
11
-0.479980
21
0.487946
31
0.0
0
LINE
8
MCD_Layer_0
10
-0.767029
20
0.488953
30
0.0
11
0.752014
21
0.489410
31
0.0
0
LINE
8
MCD_Layer_0
10
0.864868
20
0.490021
30
0.0
11
0.752014
21
0.489410
31
0.0
0
LINE
8
MCD_Layer_0
10
0.864868
20
0.490021
30
0.0
11
0.000000
21
0.488281
31
0.0
0
LINE
8
MCD_Layer_0
10
0.848999
20
0.488708
30
0.0
11
-0.063995
21
0.496185
31
0.0
0
LINE
8
MCD_Layer_0
10
0.848999
20
0.488708
30
0.0
11
0.751984
21
0.496246
31
0.0
0
LINE
8
MCD_Layer_0
10
-0.323242
20
-0.509705
30
0.0
11
0.000000
21
0.438354
31
0.0
0
LINE
8
MCD_Layer_0
10
-0.323242
20
-0.509705
30
0.0
11
0.962891
21
0.494415
31
0.0
0
LINE
8
MCD_Layer_0
10
-0.412598
20
0.490295
30
0.0
11
0.962891
21
0.494415
31
0.0
0
LINE
8
MCD_Layer_0
10
-0.412598
20
0.490295
30
0.0
11
0.000000
21
0.438354
31
0.0
0
LINE
8
MCD_Layer_0
10
-0.083008
20
-0.511505
30
0.0
11
0.000000
21
0.438354
31
0.0
0
LINE
8
MCD_Layer_0
10
-0.083008
20
-0.511505
30
0.0
11
0.962891
21
0.494415
31
0.0
0
LINE
8
MCD_Layer_0
10
-0.605469
20
-0.520172
30
0.0
11
0.962891
21
0.494415
31
0.0
0
LINE
8
MCD_Layer_0
10
-0.605469
20
-0.520172
30
0.0
11
0.000000
21
0.438354
31
0.0
0
LINE
8
MCD_Layer_0
10
-0.172852
20
0.488495
30
0.0
11
0.000000
21
0.438354
31
0.0
0
LINE
8
MCD_Layer_0
10
-0.172852
20
0.488495
30
0.0
11
0.962891
21
0.494415
31
0.0
0
LINE
8
MCD_Layer_0
10
0.683594
20
0.479828
30
0.0
11
0.962891
21
0.494415
31
0.0
0
LINE
8
MCD_Layer_0
10
0.683594
20
0.479828
30
0.0
11
0.000000
21
0.438354
31
0.0
0
LINE
8
MCD_Layer_0
10
-0.104736
20
-0.511505
30
0.0
11
0.000000
21
0.438843
31
0.0
0
LINE
8
MCD_Layer_0
10
-0.104736
20
-0.511505
30
0.0
11
0.117676
21
0.494202
31
0.0
0
LINE
8
MCD_Layer_0
10
-0.151367
20
0.488495
30
0.0
11
0.117676
21
0.494202
31
0.0
0
LINE
8
MCD_Layer_0
10
-0.151367
20
0.488495
30
0.0
11
0.000000
21
0.438843
31
0.0
0
LINE
8
MCD_Layer_0
10
0.270020
20
-0.514832
30
0.0
11
0.000000
21
0.438843
31
0.0
0
LINE
8
MCD_Layer_0
10
0.270020
20
-0.514832
30
0.0
11
-0.955078
21
0.492188
31
0.0
0
LINE
8
MCD_Layer_0
10
0.270020
20
-0.514832
30
0.0
11
-0.074707
21
0.493073
31
0.0
0
LINE
8
MCD_Layer_0
10
0.270020
20
-0.514832
30
0.0
11
0.172363
21
0.494171
31
0.0
0
LINE
8
MCD_Layer_0
10
0.177734
20
0.485168
30
0.0
11
0.172363
21
0.494171
31
0.0
0
LINE
8
MCD_Layer_0
10
0.177734
20
0.485168
30
0.0
11
-0.074707
21
0.493073
31
0.0
0
LINE
8
MCD_Layer_0
10
0.177734
20
0.485168
30
0.0
11
-0.955078
21
0.492188
31
0.0
0
LINE
8
MCD_Layer_0
10
0.177734
20
0.485168
30
0.0
11
0.000000
21
0.438843
31
0.0
0
LINE
8
MCD_Layer_0
10
0.725586
20
-0.511200
30
0.0
11
0.750000
21
0.464935
31
0.0
0
LINE
8
MCD_Layer_0
10
0.571777
20
-0.511688
30
0.0
11
0.250000
21
0.483734
31
0.0
0
LINE
8
MCD_Layer_0
10
-0.833008
20
-0.510529
30
0.0
11
0.002197
21
0.496094
31
0.0
0
LINE
8
MCD_Layer_0
10
0.464844
20
-0.513000
30
0.0
11
0.002197
21
0.496094
31
0.0
0
LINE
8
MCD_Layer_0
10
0.776367
20
0.487488
30
0.0
11
0.002197
21
0.496094
31
0.0
0
LINE
8
MCD_Layer_0
10
0.250000
20
0.489685
30
0.0
11
0.002197
21
0.496094
31
0.0
0
LINE
8
MCD_Layer_0
10
-0.990234
20
-0.513031
30
0.0
11
-0.593750
21
0.469604
31
0.0
0
LINE
8
MCD_Layer_0
10
-0.437500
20
-0.514374
30
0.0
11
0.628906
21
0.483826
31
0.0
0
LINE
8
MCD_Layer_0
10
0.660156
20
0.481415
30
0.0
11
-0.088379
21
0.492340
31
0.0
0
LINE
8
MCD_Layer_0
10
0.257812
20
0.479340
30
0.0
11
-0.525879
21
0.490479
31
0.0
0
LINE
8
MCD_Layer_0
10
-0.650391
20
-0.520172
30
0.0
11
0.000000
21
0.430664
31
0.0
0
LINE
8
MCD_Layer_0
10
-0.650391
20
-0.520172
30
0.0
11
0.002319
21
0.496094
31
0.0
0
LINE
8
MCD_Layer_0
10
0.728516
20
0.479828
30
0.0
11
0.002319
21
0.496094
31
0.0
0
LINE
8
MCD_Layer_0
10
0.728516
20
0.479828
30
0.0
11
0.000000
21
0.430664
31
0.0
0
LINE
8
MCD_Layer_0
10
-0.286621
20
-0.511108
30
0.0
11
-0.113281
21
0.479553
31
0.0
0
LINE
8
MCD_Layer_0
10
0.415039
20
-0.512543
30
0.0
11
-0.835938
21
0.485107
31
0.0
0
LINE
8
MCD_Layer_0
10
0.447266
20
-0.513824
30
0.0
11
-0.514893
21
0.492218
31
0.0
0
LINE
8
MCD_Layer_0
10
-0.541992
20
-0.511749
30
0.0
11
-0.284912
21
0.492950
31
0.0
0
LINE
8
MCD_Layer_0
10
-0.541992
20
-0.511749
30
0.0
11
0.001343
21
0.496094
31
0.0
0
LINE
8
MCD_Layer_0
10
0.541016
20
0.486328
30
0.0
11
0.001343
21
0.496094
31
0.0
0
LINE
8
MCD_Layer_0
10
0.541016
20
0.486328
30
0.0
11
-0.877197
21
0.495178
31
0.0
0
LINE
8
MCD_Layer_0
10
-0.062500
20
-0.515350
30
0.0
11
-0.877197
21
0.495178
31
0.0
0
LINE
8
MCD_Layer_0
10
-0.062500
20
-0.515350
30
0.0
11
-0.489502
21
0.493439
31
0.0
0
LINE
8
MCD_Layer_0
10
-0.940796
20
-0.509613
30
0.0
11
0.000000
21
0.000000
31
0.0
0
LINE
8
MCD_Layer_0
10
-0.940796
20
-0.509613
30
0.0
11
0.000000
21
0.480469
31
0.0
0
LINE
8
MCD_Layer_0
10
-0.188782
20
-0.510437
30
0.0
11
0.000000
21
0.480469
31
0.0
0
LINE
8
MCD_Layer_0
10
0.307220
20
-0.510742
30
0.0
11
0.015991
21
0.481781
31
0.0
0
LINE
8
MCD_Layer_0
10
0.307220
20
-0.510742
30
0.0
11
-0.239960
21
0.495422
31
0.0
0
LINE
8
MCD_Layer_0
10
-0.188782
20
-0.510437
30
0.0
11
0.000031
21
0.495605
31
0.0
0
LINE
8
MCD_Layer_0
10
-0.940796
20
-0.509613
30
0.0
11
0.000031
21
0.495605
31
0.0
0
LINE
8
MCD_Layer_0
10
-0.940796
20
-0.509613
30
0.0
11
0.000000
21
0.496094
31
0.0
0
LINE
8
MCD_Layer_0
10
0.073578
20
0.472443
30
0.0
11
0.000000
21
0.496094
31
0.0
0
LINE
8
MCD_Layer_0
10
0.505585
20
-0.523376
30
0.0
11
0.000000
21
0.000000
31
0.0
0
LINE
8
MCD_Layer_0
10
-0.534424
20
-0.522766
30
0.0
11
0.256012
21
0.495605
31
0.0
0
LINE
8
MCD_Layer_0
10
-0.905609
20
-0.513367
30
0.0
11
0.256012
21
0.495605
31
0.0
0
LINE
8
MCD_Layer_0
10
-0.905609
20
-0.513367
30
0.0
11
-0.751984
21
0.485168
31
0.0
0
LINE
8
MCD_Layer_0
10
-0.287994
20
-0.509979
30
0.0
11
0.000000
21
0.000000
31
0.0
0
LINE
8
MCD_Layer_0
10
-0.287994
20
-0.509979
30
0.0
11
0.000000
21
0.480469
31
0.0
0
LINE
8
MCD_Layer_0
10
-0.799988
20
-0.510956
30
0.0
11
0.000000
21
0.480469
31
0.0
0
LINE
8
MCD_Layer_0
10
0.720001
20
-0.511261
30
0.0
11
0.015991
21
0.481781
31
0.0
0
LINE
8
MCD_Layer_0
10
0.720001
20
-0.511261
30
0.0
11
-0.239960
21
0.495422
31
0.0
0
LINE
8
MCD_Layer_0
10
-0.799988
20
-0.510956
30
0.0
11
0.000031
21
0.495605
31
0.0
0
LINE
8
MCD_Layer_0
10
-0.287994
20
-0.509979
30
0.0
11
0.000031
21
0.495605
31
0.0
0
LINE
8
MCD_Layer_0
10
-0.287994
20
-0.509979
30
0.0
11
0.000000
21
0.496094
31
0.0
0
LINE
8
MCD_Layer_0
10
-0.704010
20
-0.526520
30
0.0
11
0.000000
21
0.496094
31
0.0
0
LINE
8
MCD_Layer_0
10
-0.671997
20
0.489777
30
0.0
11
-0.016022
21
0.479126
31
0.0
0
LINE
8
MCD_Layer_0
10
-0.287994
20
0.490021
30
0.0
11
0.143982
21
0.472748
31
0.0
0
LINE
8
MCD_Layer_0
10
-0.080017
20
-0.514404
30
0.0
11
0.496002
21
0.491852
31
0.0
0
LINE
8
MCD_Layer_0
10
-0.080017
20
-0.514404
30
0.0
11
0.015991
21
0.481781
31
0.0
0
LINE
8
MCD_Layer_0
10
0.911987
20
-0.515045
30
0.0
11
0.000000
21
0.480469
31
0.0
0
LINE
8
MCD_Layer_0
10
-0.128021
20
-0.518341
30
0.0
11
0.000000
21
0.480469
31
0.0
0
LINE
8
MCD_Layer_0
10
-0.128021
20
-0.518341
30
0.0
11
0.000000
21
0.000000
31
0.0
0
LINE
8
MCD_Layer_0
10
-0.400024
20
-0.521118
30
0.0
11
0.256012
21
0.495605
31
0.0
0
LINE
8
MCD_Layer_0
10
-0.080017
20
-0.514404
30
0.0
11
0.256012
21
0.495605
31
0.0
0
LINE
8
MCD_Layer_0
10
-0.080017
20
-0.514404
30
0.0
11
-0.496002
21
0.492493
31
0.0
0
LINE
8
MCD_Layer_0
10
0.768005
20
-0.515137
30
0.0
11
0.000000
21
0.000000
31
0.0
0
LINE
8
MCD_Layer_0
10
0.768005
20
-0.515137
30
0.0
11
0.000000
21
0.480469
31
0.0
0
LINE
8
MCD_Layer_0
10
-0.511993
20
-0.518585
30
0.0
11
0.000000
21
0.480469
31
0.0
0
LINE
8
MCD_Layer_0
10
0.943970
20
-0.520233
30
0.0
11
0.015991
21
0.481781
31
0.0
0
LINE
8
MCD_Layer_0
10
0.943970
20
-0.520233
30
0.0
11
-0.495972
21
0.495422
31
0.0
0
LINE
8
MCD_Layer_0
10
-0.511993
20
-0.518585
30
0.0
11
0.256012
21
0.495605
31
0.0
0
LINE
8
MCD_Layer_0
10
0.895996
20
-0.511475
30
0.0
11
0.256012
21
0.495605
31
0.0
0
LINE
8
MCD_Layer_0
10
-0.623993
20
-0.511169
30
0.0
11
-0.495972
21
0.495422
31
0.0
0
LINE
8
MCD_Layer_0
10
-0.623993
20
-0.511169
30
0.0
11
0.816010
21
0.494659
31
0.0
0
LINE
8
MCD_Layer_0
10
-0.623993
20
-0.510193
30
0.0
11
0.816010
21
0.494659
31
0.0
0
LINE
8
MCD_Layer_0
10
-0.623993
20
-0.510193
30
0.0
11
0.000000
21
0.496094
31
0.0
0
LINE
8
MCD_Layer_0
10
-0.623993
20
0.489807
30
0.0
11
0.000000
21
0.496094
31
0.0
0
LINE
8
MCD_Layer_0
10
-0.623993
20
0.489807
30
0.0
11
0.816010
21
0.494659
31
0.0
0
LINE
8
MCD_Layer_0
10
-0.623993
20
0.488831
30
0.0
11
0.816010
21
0.494659
31
0.0
0
LINE
8
MCD_Layer_0
10
-0.623993
20
0.488831
30
0.0
11
-0.495972
21
0.495422
31
0.0
0
LINE
8
MCD_Layer_0
10
-0.128021
20
0.488495
30
0.0
11
0.256012
21
0.495605
31
0.0
0
LINE
8
MCD_Layer_0
10
-0.511993
20
0.481415
30
0.0
11
0.256012
21
0.495605
31
0.0
0
LINE
8
MCD_Layer_0
10
0.943970
20
0.479767
30
0.0
11
-0.495972
21
0.495422
31
0.0
0
LINE
8
MCD_Layer_0
10
0.943970
20
0.479767
30
0.0
11
0.015991
21
0.481781
31
0.0
0
LINE
8
MCD_Layer_0
10
-0.511993
20
0.481415
30
0.0
11
0.000000
21
0.480469
31
0.0
0
LINE
8
MCD_Layer_0
10
0.768005
20
0.484863
30
0.0
11
0.000000
21
0.480469
31
0.0
0
LINE
8
MCD_Layer_0
10
0.768005
20
0.484863
30
0.0
11
0.000000
21
0.000000
31
0.0
0
LINE
8
MCD_Layer_0
10
0.816010
20
-0.509247
30
0.0
11
0.000000
21
0.000000
31
0.0
0
LINE
8
MCD_Layer_0
10
0.816010
20
-0.509247
30
0.0
11
0.000000
21
0.480469
31
0.0
0
LINE
8
MCD_Layer_0
10
0.304016
20
-0.510223
30
0.0
11
0.000000
21
0.480469
31
0.0
0
LINE
8
MCD_Layer_0
10
-0.175964
20
-0.510559
30
0.0
11
0.015991
21
0.481781
31
0.0
0
LINE
8
MCD_Layer_0
10
-0.175964
20
-0.510559
30
0.0
11
-0.239960
21
0.495422
31
0.0
0
LINE
8
MCD_Layer_0
10
0.304016
20
-0.510223
30
0.0
11
0.000031
21
0.495605
31
0.0
0
LINE
8
MCD_Layer_0
10
0.816010
20
-0.509247
30
0.0
11
0.000031
21
0.495605
31
0.0
0
LINE
8
MCD_Layer_0
10
0.816010
20
-0.509247
30
0.0
11
0.000000
21
0.496094
31
0.0
0
LINE
8
MCD_Layer_0
10
0.144012
20
-0.515533
30
0.0
11
0.000000
21
0.496094
31
0.0
0
LINE
8
MCD_Layer_0
10
0.144012
20
-0.515533
30
0.0
11
0.000031
21
0.495605
31
0.0
0
LINE
8
MCD_Layer_0
10
-0.880005
20
-0.513611
30
0.0
11
0.000031
21
0.495605
31
0.0
0
LINE
8
MCD_Layer_0
10
0.128021
20
-0.512939
30
0.0
11
-0.239960
21
0.495422
31
0.0
0
LINE
8
MCD_Layer_0
10
0.128021
20
-0.512939
30
0.0
11
0.256012
21
0.492676
31
0.0
0
LINE
8
MCD_Layer_0
10
0.128021
20
0.487061
30
0.0
11
0.256012
21
0.492676
31
0.0
0
LINE
8
MCD_Layer_0
10
0.128021
20
0.487061
30
0.0
11
-0.239960
21
0.495422
31
0.0
0
LINE
8
MCD_Layer_0
10
-0.880005
20
0.486389
30
0.0
11
0.000031
21
0.495605
31
0.0
0
LINE
8
MCD_Layer_0
10
0.144012
20
0.484467
30
0.0
11
0.000031
21
0.495605
31
0.0
0
LINE
8
MCD_Layer_0
10
0.144012
20
0.484467
30
0.0
11
0.000000
21
0.496094
31
0.0
0
LINE
8
MCD_Layer_0
10
0.816010
20
0.490753
30
0.0
11
0.000000
21
0.496094
31
0.0
0
LINE
8
MCD_Layer_0
10
0.816010
20
0.490753
30
0.0
11
0.000031
21
0.495605
31
0.0
0
LINE
8
MCD_Layer_0
10
0.304016
20
0.489777
30
0.0
11
0.000031
21
0.495605
31
0.0
0
LINE
8
MCD_Layer_0
10
0.800018
20
0.489441
30
0.0
11
-0.239960
21
0.495422
31
0.0
0
LINE
8
MCD_Layer_0
10
0.800018
20
0.489441
30
0.0
11
0.015991
21
0.481781
31
0.0
0
LINE
8
MCD_Layer_0
10
0.304016
20
0.489777
30
0.0
11
0.000000
21
0.480469
31
0.0
0
LINE
8
MCD_Layer_0
10
0.816010
20
0.490753
30
0.0
11
0.000000
21
0.480469
31
0.0
0
LINE
8
MCD_Layer_0
10
0.816010
20
0.490753
30
0.0
11
0.000000
21
0.000000
31
0.0
0
LINE
8
MCD_Layer_0
10
0.144012
20
0.484467
30
0.0
11
0.000000
21
0.000000
31
0.0
0
LINE
8
MCD_Layer_0
10
0.144012
20
0.484467
30
0.0
11
0.000000
21
0.480469
31
0.0
0
LINE
8
MCD_Layer_0
10
-0.880005
20
0.486389
30
0.0
11
0.000000
21
0.480469
31
0.0
0
LINE
8
MCD_Layer_0
10
0.128021
20
0.487061
30
0.0
11
0.015991
21
0.481781
31
0.0
0
LINE
8
MCD_Layer_0
10
0.128021
20
0.487061
30
0.0
11
0.000000
21
0.492188
31
0.0
0
LINE
8
MCD_Layer_0
10
0.128021
20
-0.512939
30
0.0
11
0.000000
21
0.492188
31
0.0
0
LINE
8
MCD_Layer_0
10
0.128021
20
-0.512939
30
0.0
11
0.015991
21
0.481781
31
0.0
0
LINE
8
MCD_Layer_0
10
-0.880005
20
-0.513611
30
0.0
11
0.000000
21
0.480469
31
0.0
0
LINE
8
MCD_Layer_0
10
0.144012
20
-0.515533
30
0.0
11
0.000000
21
0.480469
31
0.0
0
LINE
8
MCD_Layer_0
10
0.144012
20
-0.515533
30
0.0
11
0.000000
21
0.000000
31
0.0
0
LINE
8
MCD_Layer_0
10
-0.368011
20
-0.508728
30
0.0
11
-0.204773
21
0.495575
31
0.0
0
LINE
8
MCD_Layer_0
10
-0.368011
20
-0.508728
30
0.0
11
-0.204803
21
0.496063
31
0.0
0
LINE
8
MCD_Layer_0
10
0.000000
20
-0.515625
30
0.0
11
-0.204803
21
0.496063
31
0.0
0
LINE
8
MCD_Layer_0
10
0.000000
20
-0.515625
30
0.0
11
-0.204773
21
0.495575
31
0.0
0
LINE
8
MCD_Layer_0
10
-0.255981
20
-0.513214
30
0.0
11
-0.204773
21
0.495575
31
0.0
0
LINE
8
MCD_Layer_0
10
0.608002
20
-0.512634
30
0.0
11
-0.588776
21
0.495331
31
0.0
0
LINE
8
MCD_Layer_0
10
-0.016022
20
0.475220
30
0.0
11
-0.572815
21
0.492249
31
0.0
0
LINE
8
MCD_Layer_0
10
-0.783997
20
0.488403
30
0.0
11
-0.076782
21
0.495331
31
0.0
0
LINE
8
MCD_Layer_0
10
-0.431976
20
0.487976
30
0.0
11
-0.204773
21
0.495575
31
0.0
0
LINE
8
MCD_Layer_0
10
0.736023
20
0.486145
30
0.0
11
-0.204773
21
0.495575
31
0.0
0
LINE
8
MCD_Layer_0
10
0.736023
20
0.486145
30
0.0
11
-0.204803
21
0.496063
31
0.0
0
LINE
8
MCD_Layer_0
10
-0.368011
20
0.491272
30
0.0
11
-0.204803
21
0.496063
31
0.0
0
LINE
8
MCD_Layer_0
10
-0.368011
20
0.491272
30
0.0
11
-0.204773
21
0.495575
31
0.0
0
LINE
8
MCD_Layer_0
10
-0.527985
20
0.489868
30
0.0
11
-0.204773
21
0.495575
31
0.0
0
LINE
8
MCD_Layer_0
10
-0.959991
20
0.489594
30
0.0
11
0.163208
21
0.495514
31
0.0
0
LINE
8
MCD_Layer_0
10
-0.976013
20
0.478516
30
0.0
11
0.982422
21
0.491119
31
0.0
0
LINE
8
MCD_Layer_0
10
-0.976013
20
0.478516
30
0.0
11
0.377594
21
0.481750
31
0.0
0
LINE
8
MCD_Layer_0
10
0.527985
20
0.480804
30
0.0
11
0.723206
21
0.480408
31
0.0
0
LINE
8
MCD_Layer_0
10
0.239990
20
0.484528
30
0.0
11
0.723206
21
0.480408
31
0.0
0
LINE
8
MCD_Layer_0
10
0.239990
20
0.484528
30
0.0
11
0.000000
21
0.000000
31
0.0
0
LINE
8
MCD_Layer_0
10
-0.751984
20
-0.514832
30
0.0
11
0.000000
21
0.000000
31
0.0
0
LINE
8
MCD_Layer_0
10
-0.751984
20
-0.514832
30
0.0
11
0.723206
21
0.480408
31
0.0
0
LINE
8
MCD_Layer_0
10
0.447998
20
-0.517944
30
0.0
11
0.723206
21
0.480408
31
0.0
0
LINE
8
MCD_Layer_0
10
0.527985
20
-0.519196
30
0.0
11
0.377594
21
0.481750
31
0.0
0
LINE
8
MCD_Layer_0
10
0.527985
20
-0.519196
30
0.0
11
0.982422
21
0.491119
31
0.0
0
LINE
8
MCD_Layer_0
10
0.976013
20
-0.509796
30
0.0
11
0.163208
21
0.495514
31
0.0
0
LINE
8
MCD_Layer_0
10
-0.591980
20
-0.509521
30
0.0
11
-0.204773
21
0.495575
31
0.0
0
LINE
8
MCD_Layer_0
10
0.064026
20
-0.507446
30
0.0
11
-0.204773
21
0.495575
31
0.0
0
LINE
8
MCD_Layer_0
10
0.064026
20
-0.507446
30
0.0
11
-0.204803
21
0.496063
31
0.0
0
LINE
8
MCD_Layer_0
10
-0.768005
20
-0.512238
30
0.0
11
-0.204803
21
0.496063
31
0.0
0
LINE
8
MCD_Layer_0
10
-0.768005
20
-0.512238
30
0.0
11
-0.204773
21
0.495575
31
0.0
0
LINE
8
MCD_Layer_0
10
0.559998
20
-0.510712
30
0.0
11
-0.204773
21
0.495575
31
0.0
0
LINE
8
MCD_Layer_0
10
-0.959991
20
-0.510406
30
0.0
11
-0.028778
21
0.495361
31
0.0
0
LINE
8
MCD_Layer_0
10
0.239990
20
-0.515472
30
0.0
11
0.102417
21
0.489258
31
0.0
0
LINE
8
MCD_Layer_0
10
0.063995
20
0.477905
30
0.0
11
-0.166412
21
0.496185
31
0.0
0
LINE
8
MCD_Layer_0
10
0.224030
20
0.487122
30
0.0
11
-0.777588
21
0.489319
31
0.0
0
LINE
8
MCD_Layer_0
10
0.480011
20
0.490540
30
0.0
11
0.688019
21
0.495392
31
0.0
0
LINE
8
MCD_Layer_0
10
0.000000
20
0.490234
30
0.0
11
0.000031
21
0.495605
31
0.0
0
LINE
8
MCD_Layer_0
10
0.127991
20
0.489014
30
0.0
11
0.000031
21
0.495605
31
0.0
0
LINE
8
MCD_Layer_0
10
0.127991
20
0.489014
30
0.0
11
-0.204803
21
0.496063
31
0.0
0
LINE
8
MCD_Layer_0
10
0.064026
20
0.492554
30
0.0
11
-0.204803
21
0.496063
31
0.0
0
LINE
8
MCD_Layer_0
10
0.064026
20
0.492554
30
0.0
11
0.000031
21
0.495605
31
0.0
0
LINE
8
MCD_Layer_0
10
0.544006
20
0.491882
30
0.0
11
0.000031
21
0.495605
31
0.0
0
LINE
8
MCD_Layer_0
10
0.063995
20
0.491577
30
0.0
11
0.320007
21
0.495483
31
0.0
0
LINE
8
MCD_Layer_0
10
0.736023
20
0.486145
30
0.0
11
-0.659210
21
-0.522064
31
0.0
0
LINE
8
MCD_Layer_0
10
-0.320007
20
0.469818
30
0.0
11
-0.012787
21
0.493256
31
0.0
0
LINE
8
MCD_Layer_0
10
0.768005
20
-0.515137
30
0.0
11
-0.659210
21
-0.522064
31
0.0
0
LINE
8
MCD_Layer_0
10
0.256012
20
-0.508301
30
0.0
11
0.627228
21
0.495483
31
0.0
0
LINE
8
MCD_Layer_0
10
0.736023
20
-0.507996
30
0.0
11
-0.204773
21
0.495575
31
0.0
0
LINE
8
MCD_Layer_0
10
-0.496002
20
-0.510437
30
0.0
11
0.787201
21
-0.529968
31
0.0
0
LINE
8
MCD_Layer_0
10
-0.496002
20
-0.510437
30
0.0
11
-0.665588
21
0.488739
31
0.0
0
LINE
8
MCD_Layer_0
10
-0.188812
20
-0.511414
30
0.0
11
-0.665588
21
0.488739
31
0.0
0
LINE
8
MCD_Layer_0
10
-0.291229
20
0.484680
30
0.0
11
-0.211212
21
0.488312
31
0.0
0
LINE
8
MCD_Layer_0
10
-0.291229
20
0.484680
30
0.0
11
-0.444763
21
0.495422
31
0.0
0
LINE
8
MCD_Layer_0
10
-0.598389
20
0.483704
30
0.0
11
-0.204773
21
0.495575
31
0.0
0
LINE
8
MCD_Layer_0
10
0.707153
20
0.479095
30
0.0
11
-0.204773
21
0.495575
31
0.0
0
LINE
8
MCD_Layer_0
10
0.707153
20
0.479095
30
0.0
11
-0.204803
21
0.496063
31
0.0
0
LINE
8
MCD_Layer_0
10
-0.393585
20
0.489563
30
0.0
11
-0.204803
21
0.496063
31
0.0
0
LINE
8
MCD_Layer_0
10
-0.393585
20
0.489563
30
0.0
11
-0.204773
21
0.495575
31
0.0
0
LINE
8
MCD_Layer_0
10
-0.905579
20
0.488586
30
0.0
11
-0.204773
21
0.495575
31
0.0
0
LINE
8
MCD_Layer_0
10
-0.819183
20
0.488251
30
0.0
11
-0.444763
21
0.495422
31
0.0
0
LINE
8
MCD_Layer_0
10
-0.819183
20
0.488251
30
0.0
11
-0.169586
21
0.488403
31
0.0
0
LINE
8
MCD_Layer_0
10
-0.188812
20
-0.511414
30
0.0
11
0.787201
21
-0.529968
31
0.0
0
LINE
8
MCD_Layer_0
10
-0.063995
20
-0.509186
30
0.0
11
0.563202
21
0.495605
31
0.0
0
LINE
8
MCD_Layer_0
10
-0.063995
20
-0.509186
30
0.0
11
0.281616
21
0.496094
31
0.0
0
LINE
8
MCD_Layer_0
10
0.335999
20
-0.515411
30
0.0
11
0.281616
21
0.496094
31
0.0
0
LINE
8
MCD_Layer_0
10
0.335999
20
-0.515411
30
0.0
11
0.563202
21
0.495605
31
0.0
0
LINE
8
MCD_Layer_0
10
-0.640015
20
-0.513458
30
0.0
11
0.563202
21
0.495605
31
0.0
0
LINE
8
MCD_Layer_0
10
0.368011
20
-0.512787
30
0.0
11
0.323212
21
0.495453
31
0.0
0
LINE
8
MCD_Layer_0
10
0.368011
20
-0.512787
30
0.0
11
0.134369
21
0.488953
31
0.0
0
LINE
8
MCD_Layer_0
10
-0.544006
20
0.488556
30
0.0
11
-0.633636
21
0.488434
31
0.0
0
LINE
8
MCD_Layer_0
10
-0.544006
20
0.488556
30
0.0
11
0.323212
21
0.495453
31
0.0
0
LINE
8
MCD_Layer_0
10
-0.095978
20
0.488190
30
0.0
11
0.563202
21
0.495605
31
0.0
0
LINE
8
MCD_Layer_0
10
0.880005
20
0.486237
30
0.0
11
0.563202
21
0.495605
31
0.0
0
LINE
8
MCD_Layer_0
10
0.880005
20
0.486237
30
0.0
11
0.281616
21
0.496094
31
0.0
0
LINE
8
MCD_Layer_0
10
-0.063995
20
0.490814
30
0.0
11
0.281616
21
0.496094
31
0.0
0
LINE
8
MCD_Layer_0
10
-0.063995
20
0.490814
30
0.0
11
0.563202
21
0.495605
31
0.0
0
LINE
8
MCD_Layer_0
10
0.448029
20
0.489868
30
0.0
11
0.563202
21
0.495605
31
0.0
0
LINE
8
MCD_Layer_0
10
0.944000
20
0.489532
30
0.0
11
0.323212
21
0.495453
31
0.0
0
LINE
8
MCD_Layer_0
10
-0.851196
20
0.489532
30
0.0
11
0.928009
21
0.488220
31
0.0
0
LINE
8
MCD_Layer_0
10
-0.079987
20
-0.510498
30
0.0
11
0.630402
21
0.488617
31
0.0
0
LINE
8
MCD_Layer_0
10
-0.079987
20
-0.510498
30
0.0
11
0.323212
21
0.495453
31
0.0
0
LINE
8
MCD_Layer_0
10
-0.575989
20
-0.510162
30
0.0
11
0.563202
21
0.495605
31
0.0
0
LINE
8
MCD_Layer_0
10
-0.544006
20
-0.510468
30
0.0
11
0.000000
21
0.000000
31
0.0
0
LINE
8
MCD_Layer_0
10
-0.544006
20
-0.510468
30
0.0
11
0.000000
21
0.480469
31
0.0
0
LINE
8
MCD_Layer_0
10
0.943970
20
-0.511444
30
0.0
11
0.000000
21
0.480469
31
0.0
0
LINE
8
MCD_Layer_0
10
0.928009
20
-0.511780
30
0.0
11
0.015991
21
0.481781
31
0.0
0
LINE
8
MCD_Layer_0
10
0.928009
20
-0.511780
30
0.0
11
-0.239960
21
0.495422
31
0.0
0
LINE
8
MCD_Layer_0
10
0.943970
20
-0.511444
30
0.0
11
0.000031
21
0.495605
31
0.0
0
LINE
8
MCD_Layer_0
10
-0.544006
20
-0.510468
30
0.0
11
0.000031
21
0.495605
31
0.0
0
LINE
8
MCD_Layer_0
10
-0.544006
20
-0.510468
30
0.0
11
0.000000
21
0.496094
31
0.0
0
LINE
8
MCD_Layer_0
10
-0.304016
20
-0.521057
30
0.0
11
0.000000
21
0.496094
31
0.0
0
LINE
8
MCD_Layer_0
10
-0.304016
20
-0.521057
30
0.0
11
0.000031
21
0.495605
31
0.0
0
LINE
8
MCD_Layer_0
10
0.799988
20
-0.516418
30
0.0
11
0.000031
21
0.495605
31
0.0
0
LINE
8
MCD_Layer_0
10
-0.592010
20
-0.515381
30
0.0
11
-0.239960
21
0.495422
31
0.0
0
LINE
8
MCD_Layer_0
10
-0.592010
20
-0.515381
30
0.0
11
0.463989
21
0.483368
31
0.0
0
LINE
8
MCD_Layer_0
10
0.956787
20
0.488434
30
0.0
11
0.099213
21
0.485870
31
0.0
0
LINE
8
MCD_Layer_0
10
-0.243195
20
0.488617
30
0.0
11
-0.944000
21
0.487000
31
0.0
0
LINE
8
MCD_Layer_0
10
-0.544006
20
0.489532
30
0.0
11
0.976013
21
0.486298
31
0.0
0
LINE
8
MCD_Layer_0
10
-0.080017
20
0.488525
30
0.0
11
0.000000
21
0.000000
31
0.0
0
LINE
8
MCD_Layer_0
10
0.102417
20
-0.512695
30
0.0
11
0.227203
21
0.493927
31
0.0
0
LINE
8
MCD_Layer_0
10
0.051178
20
-0.511230
30
0.0
11
0.227203
21
0.493927
31
0.0
0
LINE
8
MCD_Layer_0
10
0.051178
20
-0.511230
30
0.0
11
0.777588
21
0.496246
31
0.0
0
LINE
8
MCD_Layer_0
10
-0.496002
20
-0.513367
30
0.0
11
0.777588
21
0.496246
31
0.0
0
LINE
8
MCD_Layer_0
10
0.102417
20
-0.512695
30
0.0
11
0.803223
21
0.483063
31
0.0
0
LINE
8
MCD_Layer_0
10
-0.108826
20
0.482452
30
0.0
11
0.803223
21
0.483063
31
0.0
0
LINE
8
MCD_Layer_0
10
-0.137573
20
0.487122
30
0.0
11
-0.422394
21
0.486420
31
0.0
0
LINE
8
MCD_Layer_0
10
-0.118378
20
0.487915
30
0.0
11
-0.803192
21
0.488586
31
0.0
0
LINE
8
MCD_Layer_0
10
-0.841614
20
0.488953
30
0.0
11
0.700806
21
0.487946
31
0.0
0
LINE
8
MCD_Layer_0
10
-0.102386
20
0.487274
30
0.0
11
0.000000
21
0.000000
31
0.0
0
LINE
8
MCD_Layer_0
10
0.051178
20
-0.511230
30
0.0
11
0.000000
21
0.000000
31
0.0
0
LINE
8
MCD_Layer_0
10
-0.554749
20
0.507599
30
0.0
11
0.000000
21
0.511475
31
0.0
0
LINE
8
MCD_Layer_0
10
-0.554749
20
0.507599
30
0.0
11
0.000000
21
0.512695
31
0.0
0
LINE
8
MCD_Layer_0
10
-0.554749
20
-0.492401
30
0.0
11
0.000000
21
0.512695
31
0.0
0
LINE
8
MCD_Layer_0
10
-0.554749
20
-0.492401
30
0.0
11
0.000000
21
0.511475
31
0.0
0
LINE
8
MCD_Layer_0
10
-0.554718
20
0.507690
30
0.0
11
0.999969
21
0.511414
31
0.0
0
LINE
8
MCD_Layer_0
10
-0.554718
20
0.507690
30
0.0
11
-0.500000
21
0.512695
31
0.0
0
LINE
8
MCD_Layer_0
10
-0.554718
20
-0.492310
30
0.0
11
-0.500000
21
0.512695
31
0.0
0
LINE
8
MCD_Layer_0
10
-0.554718
20
-0.492310
30
0.0
11
0.999969
21
0.511414
31
0.0
0
LINE
8
MCD_Layer_0
10
0.376892
20
0.494537
30
0.0
11
0.035339
21
0.506989
31
0.0
0
LINE
8
MCD_Layer_0
10
0.776794
20
0.494598
30
0.0
11
0.405457
21
0.507050
31
0.0
0
LINE
8
MCD_Layer_0
10
-0.974640
20
0.497070
30
0.0
11
-0.625549
21
0.507080
31
0.0
0
LINE
8
MCD_Layer_0
10
0.902802
20
0.497040
30
0.0
11
-0.394592
21
0.507141
31
0.0
0
LINE
8
MCD_Layer_0
10
0.543427
20
0.497803
30
0.0
11
-0.913879
21
0.507751
31
0.0
0
LINE
8
MCD_Layer_0
10
-0.703156
20
0.497955
30
0.0
11
0.321625
21
0.507812
31
0.0
0
LINE
8
MCD_Layer_0
10
0.425720
20
0.495422
30
0.0
11
0.249847
21
0.507965
31
0.0
0
LINE
8
MCD_Layer_0
10
0.446228
20
0.495483
30
0.0
11
0.810516
21
0.507996
31
0.0
0
LINE
8
MCD_Layer_0
10
0.254913
20
-0.503510
30
0.0
11
0.198700
21
0.507965
31
0.0
0
LINE
8
MCD_Layer_0
10
-0.236053
20
-0.503571
30
0.0
11
0.063080
21
0.507935
31
0.0
0
LINE
8
MCD_Layer_0
10
0.946808
20
-0.502838
30
0.0
11
-0.185608
21
0.507477
31
0.0
0
LINE
8
MCD_Layer_0
10
-0.311249
20
-0.502655
30
0.0
11
0.730652
21
0.507446
31
0.0
0
LINE
8
MCD_Layer_0
10
0.386780
20
-0.504730
30
0.0
11
-0.106018
21
0.507141
31
0.0
0
LINE
8
MCD_Layer_0
10
-0.805603
20
-0.504517
30
0.0
11
-0.104797
21
0.507080
31
0.0
0
LINE
8
MCD_Layer_0
10
-0.981873
20
-0.505066
30
0.0
11
-0.447327
21
0.507050
31
0.0
0
LINE
8
MCD_Layer_0
10
0.801208
20
0.492218
30
0.0
11
0.556519
21
0.502838
31
0.0
0
LINE
8
MCD_Layer_0
10
-0.690491
20
0.492706
30
0.0
11
0.219604
21
0.502869
31
0.0
0
LINE
8
MCD_Layer_0
10
0.033051
20
0.491028
30
0.0
11
-0.301880
21
0.503357
31
0.0
0
LINE
8
MCD_Layer_0
10
0.841644
20
0.490723
30
0.0
11
0.003784
21
0.503357
31
0.0
0
LINE
8
MCD_Layer_0
10
-0.230042
20
0.494049
30
0.0
11
0.472839
21
0.507050
31
0.0
0
LINE
8
MCD_Layer_0
10
0.777771
20
0.494141
30
0.0
11
-0.559875
21
0.507111
31
0.0
0
LINE
8
MCD_Layer_0
10
-0.062042
20
0.496765
30
0.0
11
0.426697
21
0.507141
31
0.0
0
LINE
8
MCD_Layer_0
10
-0.410431
20
0.496735
30
0.0
11
-0.893372
21
0.507202
31
0.0
0
LINE
8
MCD_Layer_0
10
0.344208
20
0.497437
30
0.0
11
0.297058
21
0.507751
31
0.0
0
LINE
8
MCD_Layer_0
10
-0.915802
20
0.497620
30
0.0
11
0.254242
21
0.507812
31
0.0
0
LINE
8
MCD_Layer_0
10
0.181091
20
0.494843
30
0.0
11
0.184784
21
0.507935
31
0.0
0
LINE
8
MCD_Layer_0
10
0.444275
20
0.494904
30
0.0
11
0.884125
21
0.507965
31
0.0
0
LINE
8
MCD_Layer_0
10
0.552582
20
0.492157
30
0.0
11
-0.512848
21
0.507904
31
0.0
0
LINE
8
MCD_Layer_0
10
-0.424957
20
0.491394
30
0.0
11
-0.952179
21
0.507935
31
0.0
0
LINE
8
MCD_Layer_0
10
-0.600159
20
0.492279
30
0.0
11
0.903900
21
0.508118
31
0.0
0
LINE
8
MCD_Layer_0
10
-0.687653
20
0.491333
30
0.0
11
0.555023
21
0.508118
31
0.0
0
LINE
8
MCD_Layer_0
10
0.318085
20
0.487762
30
0.0
11
0.910980
21
0.508362
31
0.0
0
LINE
8
MCD_Layer_0
10
0.562225
20
0.485962
30
0.0
11
-0.739655
21
0.508331
31
0.0
0
LINE
8
MCD_Layer_0
10
0.357574
20
-0.510651
30
0.0
11
-0.531647
21
0.508270
31
0.0
0
LINE
8
MCD_Layer_0
10
0.009918
20
-0.509613
30
0.0
11
-0.193268
21
0.508270
31
0.0
0
LINE
8
MCD_Layer_0
10
0.159332
20
-0.509583
30
0.0
11
-0.895905
21
0.508026
31
0.0
0
LINE
8
MCD_Layer_0
10
0.730621
20
-0.508484
30
0.0
11
0.514252
21
0.508026
31
0.0
0
LINE
8
MCD_Layer_0
10
-0.310394
20
-0.510284
30
0.0
11
0.171112
21
0.507935
31
0.0
0
LINE
8
MCD_Layer_0
10
-0.544769
20
-0.509918
30
0.0
11
-0.872223
21
0.507904
31
0.0
0
LINE
8
MCD_Layer_0
10
-0.924255
20
-0.507507
30
0.0
11
-0.178741
21
0.507935
31
0.0
0
LINE
8
MCD_Layer_0
10
0.238342
20
-0.507385
30
0.0
11
-0.637970
21
0.507904
31
0.0
0
LINE
8
MCD_Layer_0
10
0.877716
20
-0.503815
30
0.0
11
0.676117
21
0.507935
31
0.0
0
LINE
8
MCD_Layer_0
10
0.232941
20
-0.503845
30
0.0
11
0.399384
21
0.507904
31
0.0
0
LINE
8
MCD_Layer_0
10
-0.424042
20
-0.503235
30
0.0
11
-0.093079
21
0.507477
31
0.0
0
LINE
8
MCD_Layer_0
10
0.060333
20
-0.502991
30
0.0
11
0.400574
21
0.507446
31
0.0
0
LINE
8
MCD_Layer_0
10
0.770081
20
-0.505493
30
0.0
11
0.937195
21
0.507202
31
0.0
0
LINE
8
MCD_Layer_0
10
0.167542
20
-0.505219
30
0.0
11
0.235046
21
0.507141
31
0.0
0
LINE
8
MCD_Layer_0
10
0.156525
20
-0.512482
30
0.0
11
-0.952209
21
0.507507
31
0.0
0
LINE
8
MCD_Layer_0
10
0.312775
20
-0.512848
30
0.0
11
0.511169
21
0.507538
31
0.0
0
LINE
8
MCD_Layer_0
10
-0.046112
20
-0.503052
30
0.0
11
0.672821
21
0.507812
31
0.0
0
LINE
8
MCD_Layer_0
10
0.675323
20
-0.502960
30
0.0
11
-0.188782
21
0.507782
31
0.0
0
LINE
8
MCD_Layer_0
10
0.702576
20
0.480804
30
0.0
11
0.573914
21
0.507660
31
0.0
0
LINE
8
MCD_Layer_0
10
0.729919
20
0.482758
30
0.0
11
0.382507
21
0.507660
31
0.0
0
LINE
8
MCD_Layer_0
10
-0.702850
20
-0.515228
30
0.0
11
0.966278
21
0.508362
31
0.0
0
LINE
8
MCD_Layer_0
10
-0.671600
20
-0.514496
30
0.0
11
0.610077
21
0.508362
31
0.0
0
LINE
8
MCD_Layer_0
10
-0.328949
20
-0.511353
30
0.0
11
0.601044
21
0.507874
31
0.0
0
LINE
8
MCD_Layer_0
10
0.810699
20
-0.511719
30
0.0
11
-0.581940
21
0.507874
31
0.0
0
LINE
8
MCD_Layer_0
10
0.446136
20
0.490265
30
0.0
11
-0.126251
21
0.507874
31
0.0
0
LINE
8
MCD_Layer_0
10
0.173676
20
0.490814
30
0.0
11
0.925873
21
0.507874
31
0.0
0
LINE
8
MCD_Layer_0
10
-0.488434
20
0.490570
30
0.0
11
0.152771
21
0.507599
31
0.0
0
LINE
8
MCD_Layer_0
10
-0.970856
20
0.490692
30
0.0
11
0.387878
21
0.507568
31
0.0
0
LINE
8
MCD_Layer_0
10
-0.279327
20
0.497681
30
0.0
11
0.335388
21
0.507385
31
0.0
0
LINE
8
MCD_Layer_0
10
-0.063995
20
0.497742
30
0.0
11
-0.441467
21
0.507385
31
0.0
0
LINE
8
MCD_Layer_0
10
0.223602
20
0.496582
30
0.0
11
0.757996
21
0.506622
31
0.0
0
LINE
8
MCD_Layer_0
10
-0.732452
20
0.497742
30
0.0
11
0.757996
21
0.506622
31
0.0
0
LINE
8
MCD_Layer_0
10
0.071228
20
0.495667
30
0.0
11
0.757996
21
0.506714
31
0.0
0
LINE
8
MCD_Layer_0
10
-0.704865
20
0.497803
30
0.0
11
0.757996
21
0.506714
31
0.0
0
LINE
8
MCD_Layer_0
10
0.253387
20
0.497955
30
0.0
11
-0.967407
21
0.502960
31
0.0
0
LINE
8
MCD_Layer_0
10
0.390106
20
0.498169
30
0.0
11
-0.624634
21
0.503021
31
0.0
0
LINE
8
MCD_Layer_0
10
-0.947296
20
0.497284
30
0.0
11
0.567749
21
0.503418
31
0.0
0
LINE
8
MCD_Layer_0
10
-0.296661
20
0.497223
30
0.0
11
0.155151
21
0.503387
31
0.0
0
LINE
8
MCD_Layer_0
10
0.226501
20
0.492706
30
0.0
11
-0.370728
21
0.503662
31
0.0
0
LINE
8
MCD_Layer_0
10
-0.225647
20
0.494049
30
0.0
11
0.204468
21
0.503693
31
0.0
0
LINE
8
MCD_Layer_0
10
-0.097748
20
-0.498779
30
0.0
11
0.333466
21
0.508026
31
0.0
0
LINE
8
MCD_Layer_0
10
-0.748993
20
-0.498627
30
0.0
11
0.509399
21
0.508057
31
0.0
0
LINE
8
MCD_Layer_0
10
-0.069489
20
-0.498962
30
0.0
11
0.909485
21
0.510193
31
0.0
0
LINE
8
MCD_Layer_0
10
0.829987
20
-0.498962
30
0.0
11
0.093018
21
0.510254
31
0.0
0
LINE
8
MCD_Layer_0
10
0.108276
20
0.495270
30
0.0
11
0.143829
21
0.511017
31
0.0
0
LINE
8
MCD_Layer_0
10
-0.981079
20
0.496002
30
0.0
11
-0.551117
21
0.511017
31
0.0
0
LINE
8
MCD_Layer_0
10
0.778687
20
0.492828
30
0.0
11
0.323700
21
0.511292
31
0.0
0
LINE
8
MCD_Layer_0
10
-0.891235
20
0.492645
30
0.0
11
0.452667
21
0.511322
31
0.0
0
LINE
8
MCD_Layer_0
10
-0.199371
20
0.500580
30
0.0
11
-0.010590
21
0.510925
31
0.0
0
LINE
8
MCD_Layer_0
10
0.725311
20
0.500671
30
0.0
11
0.296906
21
0.510925
31
0.0
0
LINE
8
MCD_Layer_0
10
0.644623
20
0.502106
30
0.0
11
0.220245
21
0.511536
31
0.0
0
LINE
8
MCD_Layer_0
10
-0.855377
20
0.502197
30
0.0
11
-0.642792
21
0.511475
31
0.0
0
LINE
8
MCD_Layer_0
10
-0.726654
20
0.504059
30
0.0
11
0.803192
21
0.511383
31
0.0
0
LINE
8
MCD_Layer_0
10
0.090240
20
0.504059
30
0.0
11
0.751251
21
0.511353
31
0.0
0
LINE
8
MCD_Layer_0
10
-0.696564
20
0.503326
30
0.0
11
0.035370
21
0.510651
31
0.0
0
LINE
8
MCD_Layer_0
10
-0.987335
20
0.503174
30
0.0
11
-0.474182
21
0.510590
31
0.0
0
LINE
8
MCD_Layer_0
10
-0.159943
20
0.503021
30
0.0
11
0.977936
21
0.509979
31
0.0
0
LINE
8
MCD_Layer_0
10
-0.042023
20
0.502899
30
0.0
11
-0.594635
21
0.509979
31
0.0
0
LINE
8
MCD_Layer_0
10
-0.075592
20
0.501801
30
0.0
11
-0.820312
21
0.510162
31
0.0
0
LINE
8
MCD_Layer_0
10
-0.199371
20
0.501740
30
0.0
11
0.020844
21
0.510132
31
0.0
0
LINE
8
MCD_Layer_0
10
-0.799347
20
0.501770
30
0.0
11
-0.751343
21
0.508331
31
0.0
0
LINE
8
MCD_Layer_0
10
0.147430
20
0.501648
30
0.0
11
0.992584
21
0.508301
31
0.0
0
LINE
8
MCD_Layer_0
10
0.747345
20
-0.509827
30
0.0
11
-0.900330
21
0.508606
31
0.0
0
LINE
8
MCD_Layer_0
10
0.386017
20
-0.507965
30
0.0
11
-0.051056
21
0.508484
31
0.0
0
LINE
8
MCD_Layer_0
10
0.554321
20
-0.505402
30
0.0
11
-0.110596
21
0.508270
31
0.0
0
LINE
8
MCD_Layer_0
10
-0.493042
20
-0.503967
30
0.0
11
-0.125641
21
0.508179
31
0.0
0
LINE
8
MCD_Layer_0
10
-0.106628
20
-0.502960
30
0.0
11
0.538513
21
0.509674
31
0.0
0
LINE
8
MCD_Layer_0
10
-0.525757
20
-0.504028
30
0.0
11
-0.432007
21
0.509644
31
0.0
0
LINE
8
MCD_Layer_0
10
-0.664764
20
-0.508698
30
0.0
11
0.178955
21
0.509674
31
0.0
0
LINE
8
MCD_Layer_0
10
0.242737
20
-0.513428
30
0.0
11
-0.414764
21
0.509674
31
0.0
0
LINE
8
MCD_Layer_0
10
-0.158997
20
0.496094
30
0.0
11
0.742828
21
0.510986
31
0.0
0
LINE
8
MCD_Layer_0
10
-0.520081
20
0.496582
30
0.0
11
0.428680
21
0.511017
31
0.0
0
LINE
8
MCD_Layer_0
10
0.337097
20
0.499329
30
0.0
11
0.519928
21
0.511353
31
0.0
0
LINE
8
MCD_Layer_0
10
0.927673
20
0.499603
30
0.0
11
-0.637299
21
0.511383
31
0.0
0
LINE
8
MCD_Layer_0
10
-0.594269
20
0.500305
30
0.0
11
-0.231293
21
0.510864
31
0.0
0
LINE
8
MCD_Layer_0
10
-0.271393
20
0.500427
30
0.0
11
-0.137115
21
0.510803
31
0.0
0
LINE
8
MCD_Layer_0
10
-0.367584
20
0.502014
30
0.0
11
0.960968
21
0.511475
31
0.0
0
LINE
8
MCD_Layer_0
10
-0.423370
20
0.502136
30
0.0
11
-0.540314
21
0.511414
31
0.0
0
LINE
8
MCD_Layer_0
10
0.095673
20
0.503235
30
0.0
11
-0.745941
21
0.511047
31
0.0
0
LINE
8
MCD_Layer_0
10
0.162323
20
0.503418
30
0.0
11
-0.313751
21
0.511017
31
0.0
0
LINE
8
MCD_Layer_0
10
-0.073273
20
0.500763
30
0.0
11
-0.410736
21
0.510742
31
0.0
0
LINE
8
MCD_Layer_0
10
0.229218
20
0.501038
30
0.0
11
-0.145844
21
0.510712
31
0.0
0
LINE
8
MCD_Layer_0
10
-0.954376
20
0.503113
30
0.0
11
0.331116
21
0.510651
31
0.0
0
LINE
8
MCD_Layer_0
10
0.524017
20
0.502960
30
0.0
11
-0.232666
21
0.510590
31
0.0
0
LINE
8
MCD_Layer_0
10
0.289642
20
0.501740
30
0.0
11
-0.430573
21
0.510223
31
0.0
0
LINE
8
MCD_Layer_0
10
0.960175
20
0.501648
30
0.0
11
-0.516937
21
0.510162
31
0.0
0
LINE
8
MCD_Layer_0
10
0.851013
20
0.498596
30
0.0
11
0.630127
21
0.510376
31
0.0
0
LINE
8
MCD_Layer_0
10
0.076599
20
0.498718
30
0.0
11
-0.611450
21
0.510345
31
0.0
0
LINE
8
MCD_Layer_0
10
-0.974976
20
-0.507538
30
0.0
11
0.045898
21
0.509369
31
0.0
0
LINE
8
MCD_Layer_0
10
0.366821
20
-0.507721
30
0.0
11
-0.662079
21
0.509399
31
0.0
0
LINE
8
MCD_Layer_0
10
0.109009
20
-0.506531
30
0.0
11
-0.366302
21
0.509430
31
0.0
0
LINE
8
MCD_Layer_0
10
0.460571
20
-0.505859
30
0.0
11
-0.304718
21
0.509491
31
0.0
0
LINE
8
MCD_Layer_0
10
-0.765747
20
0.496002
30
0.0
11
0.844391
21
0.510284
31
0.0
0
LINE
8
MCD_Layer_0
10
-0.900940
20
0.496368
30
0.0
11
-0.784882
21
0.510254
31
0.0
0
LINE
8
MCD_Layer_0
10
-0.929016
20
0.496582
30
0.0
11
-0.927399
21
0.510223
31
0.0
0
LINE
8
MCD_Layer_0
10
-0.999817
20
0.000000
30
0.0
11
0.000000
21
0.000092
31
0.0
0
LINE
8
MCD_Layer_0
10
0.000000
20
-0.406372
30
0.0
11
-0.512268
21
0.256012
31
0.0
0
LINE
8
MCD_Layer_0
10
-0.470764
20
0.331177
30
0.0
11
-0.970825
21
-0.666016
31
0.0
0
LINE
8
MCD_Layer_0
10
-0.384827
20
-0.877625
30
0.0
11
0.001892
21
0.000000
31
0.0
0
LINE
8
MCD_Layer_0
10
0.992188
20
-0.516296
30
0.0
11
0.000000
21
0.000000
31
0.0
0
LINE
8
MCD_Layer_0
10
0.992188
20
-0.516296
30
0.0
11
-0.016022
21
0.479126
31
0.0
0
LINE
8
MCD_Layer_0
10
0.976562
20
-0.517609
30
0.0
11
-0.016022
21
0.479126
31
0.0
0
LINE
8
MCD_Layer_0
10
-0.109375
20
-0.520935
30
0.0
11
-0.880005
21
0.482483
31
0.0
0
LINE
8
MCD_Layer_0
10
-0.109375
20
-0.520935
30
0.0
11
0.447998
21
0.494751
31
0.0
0
LINE
8
MCD_Layer_0
10
0.976562
20
-0.517609
30
0.0
11
0.463989
21
0.495087
31
0.0
0
LINE
8
MCD_Layer_0
10
0.992188
20
-0.516296
30
0.0
11
0.463989
21
0.495087
31
0.0
0
LINE
8
MCD_Layer_0
10
0.992188
20
-0.516296
30
0.0
11
-0.768005
21
0.495575
31
0.0
0
LINE
8
MCD_Layer_0
10
0.062500
20
0.470093
30
0.0
11
0.127991
21
0.496338
31
0.0
0
LINE
8
MCD_Layer_0
10
0.078125
20
0.479218
30
0.0
11
0.127991
21
0.496338
31
0.0
0
LINE
8
MCD_Layer_0
10
0.078125
20
0.479218
30
0.0
11
-0.880005
21
0.482483
31
0.0
0
LINE
8
MCD_Layer_0
10
0.976562
20
0.482391
30
0.0
11
-0.016022
21
0.479126
31
0.0
0
LINE
8
MCD_Layer_0
10
0.992188
20
0.483704
30
0.0
11
-0.016022
21
0.479126
31
0.0
0
LINE
8
MCD_Layer_0
10
0.992188
20
0.483704
30
0.0
11
0.000000
21
0.000000
31
0.0
0
LINE
8
MCD_Layer_0
10
-0.489563
20
-0.510498
30
0.0
11
-0.511871
21
-0.523346
31
0.0
0
LINE
8
MCD_Layer_0
10
-0.489563
20
-0.510498
30
0.0
11
0.799866
21
0.476624
31
0.0
0
LINE
8
MCD_Layer_0
10
-0.444763
20
0.486145
30
0.0
11
-0.967224
21
0.493744
31
0.0
0
LINE
8
MCD_Layer_0
10
0.579224
20
0.486176
30
0.0
11
0.584808
21
0.494110
31
0.0
0
LINE
8
MCD_Layer_0
10
-0.358398
20
-0.512238
30
0.0
11
0.584808
21
0.494110
31
0.0
0
LINE
8
MCD_Layer_0
10
-0.358398
20
-0.512238
30
0.0
11
-0.791199
21
0.493530
31
0.0
0
LINE
8
MCD_Layer_0
10
-0.435181
20
0.489471
30
0.0
11
0.243195
21
0.496216
31
0.0
0
LINE
8
MCD_Layer_0
10
-0.435181
20
0.489471
30
0.0
11
-0.281586
21
0.495819
31
0.0
0
LINE
8
MCD_Layer_0
10
-0.553589
20
-0.513794
30
0.0
11
-0.028809
21
0.489014
31
0.0
0
LINE
8
MCD_Layer_0
10
0.470398
20
-0.513763
30
0.0
11
0.867218
21
0.488312
31
0.0
0
LINE
8
MCD_Layer_0
10
-0.249573
20
0.487701
30
0.0
11
0.867218
21
0.488312
31
0.0
0
LINE
8
MCD_Layer_0
10
-0.249573
20
0.487701
30
0.0
11
-0.380768
21
0.489441
31
0.0
0
LINE
8
MCD_Layer_0
10
0.000000
20
-0.508789
30
0.0
11
0.000000
21
0.000000
31
0.0
0
LINE
8
MCD_Layer_0
10
0.000000
20
-0.508789
30
0.0
11
0.000000
21
0.480469
31
0.0
0
LINE
8
MCD_Layer_0
10
0.063995
20
-0.509399
30
0.0
11
0.000000
21
0.480469
31
0.0
0
LINE
8
MCD_Layer_0
10
-0.895996
20
-0.510040
30
0.0
11
0.687988
21
0.482208
31
0.0
0
LINE
8
MCD_Layer_0
10
-0.096008
20
-0.527435
30
0.0
11
-0.688019
21
0.496277
31
0.0
0
LINE
8
MCD_Layer_0
10
0.384003
20
0.489502
30
0.0
11
0.687988
21
0.482208
31
0.0
0
LINE
8
MCD_Layer_0
10
-0.656006
20
0.490112
30
0.0
11
0.000000
21
0.480469
31
0.0
0
LINE
8
MCD_Layer_0
10
0.000000
20
0.491211
30
0.0
11
0.000000
21
0.480469
31
0.0
0
LINE
8
MCD_Layer_0
10
0.000000
20
0.491211
30
0.0
11
0.000000
21
0.000000
31
0.0
0
LINE
8
MCD_Layer_0
10
-0.736023
20
0.484528
30
0.0
11
0.000000
21
0.000000
31
0.0
0
LINE
8
MCD_Layer_0
10
-0.736023
20
0.484528
30
0.0
11
0.000000
21
0.480469
31
0.0
0
LINE
8
MCD_Layer_0
10
-0.096008
20
0.486237
30
0.0
11
0.000000
21
0.480469
31
0.0
0
LINE
8
MCD_Layer_0
10
0.815979
20
0.486847
30
0.0
11
0.591980
21
0.482147
31
0.0
0
LINE
8
MCD_Layer_0
10
-0.640015
20
0.482635
30
0.0
11
0.000000
21
0.490234
31
0.0
0
LINE
8
MCD_Layer_0
10
0.191986
20
-0.513550
30
0.0
11
0.000000
21
0.490234
31
0.0
0
LINE
8
MCD_Layer_0
10
-0.336029
20
-0.510986
30
0.0
11
0.591980
21
0.482147
31
0.0
0
LINE
8
MCD_Layer_0
10
-0.816010
20
-0.511292
30
0.0
11
0.000000
21
0.480469
31
0.0
0
LINE
8
MCD_Layer_0
10
-0.272003
20
-0.512573
30
0.0
11
0.000000
21
0.480469
31
0.0
0
LINE
8
MCD_Layer_0
10
-0.272003
20
-0.512573
30
0.0
11
0.000000
21
0.000000
31
0.0
0
LINE
8
MCD_Layer_0
10
-0.864014
20
-0.514252
30
0.0
11
0.511993
21
0.491211
31
0.0
0
LINE
8
MCD_Layer_0
10
-0.751984
20
0.481262
30
0.0
11
0.511993
21
0.491211
31
0.0
0
LINE
8
MCD_Layer_0
10
-0.880005
20
-0.521423
30
0.0
11
-0.544006
21
0.494415
31
0.0
0
LINE
8
MCD_Layer_0
10
0.127991
20
-0.510986
30
0.0
11
0.000000
21
0.000000
31
0.0
0
LINE
8
MCD_Layer_0
10
0.127991
20
-0.510986
30
0.0
11
0.000000
21
0.480469
31
0.0
0
LINE
8
MCD_Layer_0
10
-0.768005
20
-0.512238
30
0.0
11
0.000000
21
0.480469
31
0.0
0
LINE
8
MCD_Layer_0
10
0.272003
20
-0.512848
30
0.0
11
0.015991
21
0.481781
31
0.0
0
LINE
8
MCD_Layer_0
10
0.272003
20
-0.512848
30
0.0
11
-0.239960
21
0.495422
31
0.0
0
LINE
8
MCD_Layer_0
10
-0.768005
20
-0.512238
30
0.0
11
0.000031
21
0.495605
31
0.0
0
LINE
8
MCD_Layer_0
10
0.127991
20
-0.510986
30
0.0
11
0.000031
21
0.495605
31
0.0
0
LINE
8
MCD_Layer_0
10
0.127991
20
-0.510986
30
0.0
11
0.000000
21
0.496094
31
0.0
0
LINE
8
MCD_Layer_0
10
-0.976013
20
0.478516
30
0.0
11
0.000000
21
0.496094
31
0.0
0
LINE
8
MCD_Layer_0
10
-0.496033
20
-0.517273
30
0.0
11
0.496002
21
0.491852
31
0.0
0
LINE
8
MCD_Layer_0
10
-0.496033
20
-0.517273
30
0.0
11
0.015991
21
0.481781
31
0.0
0
LINE
8
MCD_Layer_0
10
0.143982
20
-0.527252
30
0.0
11
0.000000
21
0.480469
31
0.0
0
LINE
8
MCD_Layer_0
10
0.143982
20
-0.527252
30
0.0
11
0.000000
21
0.000000
31
0.0
0
LINE
8
MCD_Layer_0
10
-0.320007
20
0.465912
30
0.0
11
0.256012
21
0.495605
31
0.0
0
LINE
8
MCD_Layer_0
10
-0.496033
20
-0.517273
30
0.0
11
0.256012
21
0.495605
31
0.0
0
LINE
8
MCD_Layer_0
10
-0.496033
20
-0.517273
30
0.0
11
-0.496002
21
0.492493
31
0.0
0
LINE
8
MCD_Layer_0
10
0.131226
20
-0.510529
30
0.0
11
0.009613
21
0.482819
31
0.0
0
LINE
8
MCD_Layer_0
10
0.291168
20
-0.511078
30
0.0
11
-0.595184
21
0.485138
31
0.0
0
LINE
8
MCD_Layer_0
10
0.713593
20
-0.521942
30
0.0
11
-0.233582
21
0.491943
31
0.0
0
LINE
8
MCD_Layer_0
10
0.713593
20
-0.521942
30
0.0
11
0.758392
21
0.491302
31
0.0
0
LINE
8
MCD_Layer_0
10
-0.595215
20
-0.516815
30
0.0
11
0.758392
21
0.491302
31
0.0
0
LINE
8
MCD_Layer_0
10
-0.595215
20
-0.516815
30
0.0
11
-0.812775
21
0.493561
31
0.0
0
LINE
8
MCD_Layer_0
10
0.713593
20
-0.521942
30
0.0
11
-0.812775
21
0.493561
31
0.0
0
LINE
8
MCD_Layer_0
10
0.713593
20
-0.521942
30
0.0
11
-0.828796
21
0.493225
31
0.0
0
LINE
8
MCD_Layer_0
10
0.678406
20
-0.514282
30
0.0
11
0.707214
21
0.494232
31
0.0
0
LINE
8
MCD_Layer_0
10
-0.297577
20
-0.512329
30
0.0
11
0.707214
21
0.494232
31
0.0
0
LINE
8
MCD_Layer_0
10
-0.297577
20
-0.512329
30
0.0
11
0.009583
21
0.496246
31
0.0
0
LINE
8
MCD_Layer_0
10
0.678406
20
-0.514282
30
0.0
11
0.009583
21
0.496246
31
0.0
0
LINE
8
MCD_Layer_0
10
0.790405
20
0.490021
30
0.0
11
-0.693024
21
0.489441
31
0.0
0
LINE
8
MCD_Layer_0
10
0.790405
20
0.490021
30
0.0
11
0.794983
21
0.488464
31
0.0
0
LINE
8
MCD_Layer_0
10
0.726410
20
0.488678
30
0.0
11
0.574738
21
0.496216
31
0.0
0
LINE
8
MCD_Layer_0
10
0.726410
20
0.488678
30
0.0
11
-0.609253
21
0.496246
31
0.0
0
LINE
8
MCD_Layer_0
10
-0.857605
20
0.489594
30
0.0
11
-0.609253
21
0.496246
31
0.0
0
LINE
8
MCD_Layer_0
10
-0.857605
20
0.489594
30
0.0
11
0.157471
21
0.494080
31
0.0
0
LINE
8
MCD_Layer_0
10
-0.393616
20
0.488586
30
0.0
11
0.157471
21
0.494080
31
0.0
0
LINE
8
MCD_Layer_0
10
-0.393616
20
0.488586
30
0.0
11
0.589478
21
0.494354
31
0.0
0
LINE
8
MCD_Layer_0
10
0.000000
20
0.003938
30
0.0
11
0.000000
21
0.000000
31
0.0
0
LINE
8
MCD_Layer_0
10
0.005188
20
0.005188
30
0.0
11
0.000000
21
0.000000
31
0.0
0
LINE
8
MCD_Layer_0
10
0.005188
20
0.007813
30
0.0
11
0.000000
21
0.000000
31
0.0
0
LINE
8
MCD_Layer_0
10
0.007813
20
0.007813
30
0.0
11
0.000000
21
0.000000
31
0.0
0
LINE
8
MCD_Layer_0
10
0.000031
20
0.000031
30
0.0
11
0.000000
21
0.000000
31
0.0
0
LINE
8
MCD_Layer_0
10
0.000031
20
0.000000
30
0.0
11
0.000000
21
0.000000
31
0.0
0
LINE
8
MCD_Layer_0
10
0.000062
20
0.000062
30
0.0
11
0.000000
21
0.000000
31
0.0
0
LINE
8
MCD_Layer_0
10
0.003938
20
0.003938
30
0.0
11
0.000000
21
0.000000
31
0.0
0
LINE
8
MCD_Layer_0
10
0.003938
20
0.000062
30
0.0
11
0.000000
21
0.000000
31
0.0
0
LINE
8
MCD_Layer_0
10
0.000000
20
0.003938
30
0.0
11
0.000000
21
0.000000
31
0.0
0
LINE
8
MCD_Layer_0
10
0.005188
20
0.005188
30
0.0
11
0.000000
21
0.000000
31
0.0
0
LINE
8
MCD_Layer_0
10
0.005188
20
0.007813
30
0.0
11
0.000000
21
0.000000
31
0.0
0
LINE
8
MCD_Layer_0
10
0.007813
20
0.007813
30
0.0
11
0.000000
21
0.000000
31
0.0
0
LINE
8
MCD_Layer_0
10
0.007813
20
0.000984
30
0.0
11
0.000000
21
0.000000
31
0.0
0
LINE
8
MCD_Layer_0
10
0.000984
20
0.000984
30
0.0
11
0.000000
21
0.000000
31
0.0
0
LINE
8
MCD_Layer_0
10
0.000984
20
0.002609
30
0.0
11
0.000000
21
0.000000
31
0.0
0
LINE
8
MCD_Layer_0
10
0.003938
20
0.003938
30
0.0
11
0.000000
21
0.000000
31
0.0
0
LINE
8
MCD_Layer_0
10
0.003938
20
0.000062
30
0.0
11
0.000000
21
0.000000
31
0.0
0
LINE
8
MCD_Layer_0
10
0.000062
20
0.000062
30
0.0
11
0.000000
21
0.000000
31
0.0
0
LINE
8
MCD_Layer_0
10
0.000081
20
0.000142
30
0.0
11
0.000000
21
0.000000
31
0.0
0
LINE
8
MCD_Layer_0
10
0.000142
20
0.000142
30
0.0
11
0.000000
21
0.000000
31
0.0
0
LINE
8
MCD_Layer_0
10
0.000142
20
0.000008
30
0.0
11
0.000000
21
0.000000
31
0.0
0
LINE
8
MCD_Layer_0
10
0.000008
20
0.000008
30
0.0
11
0.000000
21
0.000000
31
0.0
0
LINE
8
MCD_Layer_0
10
0.000008
20
0.000026
30
0.0
11
0.000000
21
0.000000
31
0.0
0
LINE
8
MCD_Layer_0
10
0.000035
20
0.000035
30
0.0
11
0.000000
21
0.000000
31
0.0
0
LINE
8
MCD_Layer_0
10
0.000035
20
0.000000
30
0.0
11
0.000000
21
0.000000
31
0.0
0
LINE
8
MCD_Layer_0
10
0.000000
20
0.000000
30
0.0
11
0.000000
21
0.000000
31
0.0
0
LINE
8
MCD_Layer_0
10
0.000000
20
0.000000
30
0.0
11
0.000000
21
0.000000
31
0.0
0
LINE
8
MCD_Layer_0
10
0.000000
20
0.000000
30
0.0
11
0.000000
21
0.000000
31
0.0
0
LINE
8
MCD_Layer_0
10
0.010437
20
0.000449
30
0.0
11
0.000000
21
0.000000
31
0.0
0
LINE
8
MCD_Layer_0
10
0.000449
20
0.000449
30
0.0
11
0.000000
21
0.000000
31
0.0
0
LINE
8
MCD_Layer_0
10
0.000449
20
0.000691
30
0.0
11
0.000000
21
0.000000
31
0.0
0
LINE
8
MCD_Layer_0
10
0.000000
20
0.000001
30
0.0
11
0.000000
21
0.000000
31
0.0
0
LINE
8
MCD_Layer_0
10
0.000001
20
0.000001
30
0.0
11
0.000000
21
0.000000
31
0.0
0
LINE
8
MCD_Layer_0
10
0.000001
20
0.000000
30
0.0
11
0.000000
21
0.000000
31
0.0
0
LINE
8
MCD_Layer_0
10
0.009750
20
0.010437
30
0.0
11
0.000000
21
0.000000
31
0.0
0
LINE
8
MCD_Layer_0
10
0.000000
20
0.003938
30
0.0
11
0.000000
21
0.000000
31
0.0
0
LINE
8
MCD_Layer_0
10
0.005188
20
0.005188
30
0.0
11
0.000000
21
0.000000
31
0.0
0
LINE
8
MCD_Layer_0
10
0.005188
20
0.007813
30
0.0
11
0.000000
21
0.000000
31
0.0
0
LINE
8
MCD_Layer_0
10
0.007813
20
0.007813
30
0.0
11
0.000000
21
0.000000
31
0.0
0
LINE
8
MCD_Layer_0
10
0.007813
20
0.005188
30
0.0
11
0.000000
21
0.000000
31
0.0
0
LINE
8
MCD_Layer_0
10
0.005188
20
0.005188
30
0.0
11
0.000000
21
0.000000
31
0.0
0
LINE
8
MCD_Layer_0
10
0.003938
20
0.000014
30
0.0
11
0.000000
21
0.000000
31
0.0
0
LINE
8
MCD_Layer_0
10
0.000014
20
0.003547
30
0.0
11
0.000000
21
0.000000
31
0.0
0
LINE
8
MCD_Layer_0
10
0.005188
20
0.005188
30
0.0
11
0.000000
21
0.000000
31
0.0
0
LINE
8
MCD_Layer_0
10
0.005188
20
0.007813
30
0.0
11
0.000000
21
0.000000
31
0.0
0
LINE
8
MCD_Layer_0
10
0.007813
20
0.007813
30
0.0
11
0.000000
21
0.000000
31
0.0
0
LINE
8
MCD_Layer_0
10
0.007813
20
0.005188
30
0.0
11
0.000000
21
0.000000
31
0.0
0
LINE
8
MCD_Layer_0
10
0.005188
20
0.005188
30
0.0
11
0.000000
21
0.000000
31
0.0
0
LINE
8
MCD_Layer_0
10
0.004625
20
0.000126
30
0.0
11
0.000000
21
0.000000
31
0.0
0
LINE
8
MCD_Layer_0
10
0.000126
20
0.000000
30
0.0
11
0.000000
21
0.000000
31
0.0
0
LINE
8
MCD_Layer_0
10
0.000000
20
0.000039
30
0.0
11
0.000000
21
0.000000
31
0.0
0
LINE
8
MCD_Layer_0
10
0.000039
20
0.000001
30
0.0
11
0.000000
21
0.000000
31
0.0
0
LINE
8
MCD_Layer_0
10
0.000001
20
0.000000
30
0.0
11
0.000000
21
0.000000
31
0.0
0
LINE
8
MCD_Layer_0
10
0.000000
20
0.000778
30
0.0
11
0.000000
21
0.000000
31
0.0
0
LINE
8
MCD_Layer_0
10
0.000778
20
0.000000
30
0.0
11
0.000000
21
0.000000
31
0.0
0
LINE
8
MCD_Layer_0
10
0.000000
20
0.000778
30
0.0
11
0.000000
21
0.000000
31
0.0
0
LINE
8
MCD_Layer_0
10
0.000778
20
0.000000
30
0.0
11
0.000000
21
0.000000
31
0.0
0
LINE
8
MCD_Layer_0
10
0.000000
20
0.000778
30
0.0
11
0.000000
21
0.000000
31
0.0
0
LINE
8
MCD_Layer_0
10
0.000778
20
0.000000
30
0.0
11
0.000000
21
0.000000
31
0.0
0
LINE
8
MCD_Layer_0
10
0.000000
20
0.000551
30
0.0
11
0.000000
21
0.000000
31
0.0
0
LINE
8
MCD_Layer_0
10
0.000551
20
0.000000
30
0.0
11
0.000000
21
0.000000
31
0.0
0
LINE
8
MCD_Layer_0
10
0.000000
20
0.000032
30
0.0
11
0.000000
21
0.000000
31
0.0
0
LINE
8
MCD_Layer_0
10
0.000114
20
0.000521
30
0.0
11
0.000000
21
0.000000
31
0.0
0
LINE
8
MCD_Layer_0
10
0.000521
20
0.000114
30
0.0
11
0.000000
21
0.000000
31
0.0
0
LINE
8
MCD_Layer_0
10
0.000032
20
0.000000
30
0.0
11
0.000000
21
0.000000
31
0.0
0
LINE
8
MCD_Layer_0
10
0.000032
20
0.000032
30
0.0
11
0.000000
21
0.000000
31
0.0
0
LINE
8
MCD_Layer_0
10
0.000114
20
0.000114
30
0.0
11
0.000000
21
0.000000
31
0.0
0
LINE
8
MCD_Layer_0
10
0.007813
20
0.007813
30
0.0
11
0.000000
21
0.000000
31
0.0
0
LINE
8
MCD_Layer_0
10
0.007813
20
0.007813
30
0.0
11
0.000000
21
-0.000000
31
0.0
0
LINE
8
MCD_Layer_0
10
0.000042
20
0.000003
30
0.0
11
0.000000
21
0.000000
31
0.0
0
LINE
8
MCD_Layer_0
10
0.000000
20
0.007813
30
0.0
11
0.000000
21
0.000000
31
0.0
0
LINE
8
MCD_Layer_0
10
0.007813
20
0.007813
30
0.0
11
0.000000
21
0.000000
31
0.0
0
LINE
8
MCD_Layer_0
10
0.007813
20
0.000000
30
0.0
11
0.000000
21
0.000000
31
0.0
0
LINE
8
MCD_Layer_0
10
0.000000
20
0.000000
30
0.0
11
0.000000
21
0.000000
31
0.0
0
LINE
8
MCD_Layer_0
10
0.000034
20
0.000099
30
0.0
11
0.000000
21
0.000000
31
0.0
0
LINE
8
MCD_Layer_0
10
0.000099
20
0.007813
30
0.0
11
0.000000
21
0.000000
31
0.0
0
LINE
8
MCD_Layer_0
10
0.007813
20
0.007813
30
0.0
11
0.000000
21
0.000000
31
0.0
0
LINE
8
MCD_Layer_0
10
0.007813
20
0.002266
30
0.0
11
0.000000
21
0.000000
31
0.0
0
LINE
8
MCD_Layer_0
10
0.002266
20
0.002266
30
0.0
11
0.000000
21
0.000000
31
0.0
0
LINE
8
MCD_Layer_0
10
0.002266
20
0.000196
30
0.0
11
0.000000
21
0.000000
31
0.0
0
LINE
8
MCD_Layer_0
10
0.000000
20
0.003281
30
0.0
11
0.000000
21
0.000000
31
0.0
0
LINE
8
MCD_Layer_0
10
0.003906
20
0.003906
30
0.0
11
0.000000
21
0.000000
31
0.0
0
LINE
8
MCD_Layer_0
10
0.003906
20
0.007813
30
0.0
11
0.000000
21
0.000000
31
0.0
0
LINE
8
MCD_Layer_0
10
0.007813
20
0.007813
30
0.0
11
0.000000
21
0.000000
31
0.0
0
LINE
8
MCD_Layer_0
10
0.003938
20
0.003938
30
0.0
11
0.000000
21
0.000000
31
0.0
0
LINE
8
MCD_Layer_0
10
0.003938
20
0.000000
30
0.0
11
0.000000
21
-0.000000
31
0.0
0
LINE
8
MCD_Layer_0
10
0.000000
20
0.003281
30
0.0
11
0.000000
21
0.000000
31
0.0
0
LINE
8
MCD_Layer_0
10
0.003906
20
0.003906
30
0.0
11
0.000000
21
0.000000
31
0.0
0
LINE
8
MCD_Layer_0
10
0.003906
20
0.007813
30
0.0
11
0.000000
21
0.000000
31
0.0
0
LINE
8
MCD_Layer_0
10
0.007813
20
0.007813
30
0.0
11
0.000000
21
0.000000
31
0.0
0
LINE
8
MCD_Layer_0
10
0.000020
20
0.000000
30
0.0
11
0.000000
21
0.000000
31
0.0
0
LINE
8
MCD_Layer_0
10
0.003938
20
0.003938
30
0.0
11
0.000000
21
0.000000
31
0.0
0
LINE
8
MCD_Layer_0
10
0.003938
20
0.000051
30
0.0
11
0.000000
21
-0.000000
31
0.0
0
LINE
8
MCD_Layer_0
10
0.000000
20
0.003266
30
0.0
11
0.000000
21
0.000000
31
0.0
0
LINE
8
MCD_Layer_0
10
0.003938
20
0.003938
30
0.0
11
0.000000
21
0.000000
31
0.0
0
LINE
8
MCD_Layer_0
10
0.003266
20
0.001063
30
0.0
11
0.000000
21
0.000000
31
0.0
0
LINE
8
MCD_Layer_0
10
0.001063
20
0.001063
30
0.0
11
0.000000
21
0.000000
31
0.0
0
LINE
8
MCD_Layer_0
10
0.001063
20
0.007813
30
0.0
11
0.000000
21
0.000000
31
0.0
0
LINE
8
MCD_Layer_0
10
0.007813
20
0.007813
30
0.0
11
0.000000
21
0.000000
31
0.0
0
LINE
8
MCD_Layer_0
10
0.007813
20
0.001063
30
0.0
11
0.000000
21
0.000000
31
0.0
0
LINE
8
MCD_Layer_0
10
0.001063
20
0.001063
30
0.0
11
0.000000
21
0.000000
31
0.0
0
LINE
8
MCD_Layer_0
10
0.001063
20
0.003266
30
0.0
11
0.000000
21
0.000000
31
0.0
0
LINE
8
MCD_Layer_0
10
0.003938
20
0.003938
30
0.0
11
0.000000
21
0.000000
31
0.0
0
LINE
8
MCD_Layer_0
10
0.003266
20
0.000000
30
0.0
11
0.000000
21
0.000000
31
0.0
0
LINE
8
MCD_Layer_0
10
0.000000
20
0.003281
30
0.0
11
0.000000
21
0.000000
31
0.0
0
LINE
8
MCD_Layer_0
10
0.003906
20
0.003906
30
0.0
11
0.000000
21
0.000000
31
0.0
0
LINE
8
MCD_Layer_0
10
0.003906
20
0.007813
30
0.0
11
0.000000
21
0.000000
31
0.0
0
LINE
8
MCD_Layer_0
10
0.007813
20
0.007813
30
0.0
11
0.000000
21
0.000000
31
0.0
0
LINE
8
MCD_Layer_0
10
0.007813
20
0.003906
30
0.0
11
0.000000
21
0.000000
31
0.0
0
LINE
8
MCD_Layer_0
10
0.003906
20
0.003906
30
0.0
11
0.000000
21
0.000000
31
0.0
0
LINE
8
MCD_Layer_0
10
0.003281
20
0.000062
30
0.0
11
0.000000
21
0.000000
31
0.0
0
LINE
8
MCD_Layer_0
10
0.000062
20
0.000062
30
0.0
11
0.000000
21
0.000000
31
0.0
0
LINE
8
MCD_Layer_0
10
0.000062
20
0.003281
30
0.0
11
0.000000
21
0.000000
31
0.0
0
LINE
8
MCD_Layer_0
10
0.003906
20
0.003906
30
0.0
11
0.000000
21
0.000000
31
0.0
0
LINE
8
MCD_Layer_0
10
0.003906
20
0.007813
30
0.0
11
0.000000
21
0.000000
31
0.0
0
LINE
8
MCD_Layer_0
10
0.007813
20
0.007813
30
0.0
11
0.000000
21
0.000000
31
0.0
0
LINE
8
MCD_Layer_0
10
0.007813
20
0.003906
30
0.0
11
0.000000
21
0.000000
31
0.0
0
LINE
8
MCD_Layer_0
10
0.003906
20
0.003906
30
0.0
11
0.000000
21
0.000000
31
0.0
0
LINE
8
MCD_Layer_0
10
0.003281
20
0.000000
30
0.0
11
0.000000
21
0.000000
31
0.0
0
LINE
8
MCD_Layer_0
10
0.000000
20
0.000031
30
0.0
11
0.000000
21
0.000000
31
0.0
0
LINE
8
MCD_Layer_0
10
0.000031
20
0.000031
30
0.0
11
0.000000
21
0.000000
31
0.0
0
LINE
8
MCD_Layer_0
10
0.000031
20
0.000000
30
0.0
11
0.000000
21
0.000000
31
0.0
0
LINE
8
MCD_Layer_0
10
0.003894
20
0.007788
30
0.0
11
0.000000
21
0.000000
31
0.0
0
LINE
8
MCD_Layer_0
10
0.007788
20
0.007788
30
0.0
11
0.000000
21
0.000000
31
0.0
0
LINE
8
MCD_Layer_0
10
0.007788
20
0.003894
30
0.0
11
0.000000
21
0.000000
31
0.0
0
LINE
8
MCD_Layer_0
10
0.003894
20
0.003894
30
0.0
11
0.000000
21
0.000000
31
0.0
0
LINE
8
MCD_Layer_0
10
0.002894
20
0.000036
30
0.0
11
0.000000
21
0.000000
31
0.0
0
LINE
8
MCD_Layer_0
10
0.000036
20
0.002925
30
0.0
11
0.000000
21
0.000000
31
0.0
0
LINE
8
MCD_Layer_0
10
0.003894
20
0.003894
30
0.0
11
0.000000
21
0.000000
31
0.0
0
LINE
8
MCD_Layer_0
10
0.003894
20
0.007788
30
0.0
11
0.000000
21
0.000000
31
0.0
0
LINE
8
MCD_Layer_0
10
0.007788
20
0.007788
30
0.0
11
0.000000
21
0.000000
31
0.0
0
LINE
8
MCD_Layer_0
10
0.007788
20
0.003894
30
0.0
11
0.000000
21
0.000000
31
0.0
0
LINE
8
MCD_Layer_0
10
0.003894
20
0.003894
30
0.0
11
0.000000
21
0.000000
31
0.0
0
LINE
8
MCD_Layer_0
10
0.003550
20
0.000007
30
0.0
11
0.000000
21
0.000000
31
0.0
0
LINE
8
MCD_Layer_0
10
0.000007
20
0.000000
30
0.0
11
0.000000
21
0.000000
31
0.0
0
LINE
8
MCD_Layer_0
10
0.000000
20
0.000007
30
0.0
11
0.000000
21
0.000000
31
0.0
0
LINE
8
MCD_Layer_0
10
0.000007
20
0.003550
30
0.0
11
0.000000
21
0.000000
31
0.0
0
LINE
8
MCD_Layer_0
10
0.003894
20
0.003894
30
0.0
11
0.000000
21
-0.000000
31
0.0
0
LINE
8
MCD_Layer_0
10
0.003894
20
0.007788
30
0.0
11
0.000000
21
0.000000
31
0.0
0
LINE
8
MCD_Layer_0
10
0.007788
20
0.007788
30
0.0
11
0.000000
21
0.000000
31
0.0
0
LINE
8
MCD_Layer_0
10
0.007788
20
0.003894
30
0.0
11
0.000000
21
0.000000
31
0.0
0
LINE
8
MCD_Layer_0
10
0.003894
20
0.003894
30
0.0
11
0.000000
21
0.000000
31
0.0
0
LINE
8
MCD_Layer_0
10
0.003050
20
0.000000
30
0.0
11
0.000000
21
0.000000
31
0.0
0
LINE
8
MCD_Layer_0
10
0.000000
20
0.009725
30
0.0
11
0.000000
21
0.000000
31
0.0
0
LINE
8
MCD_Layer_0
10
0.009725
20
0.000001
30
0.0
11
0.000000
21
0.000000
31
0.0
0
LINE
8
MCD_Layer_0
10
0.000001
20
0.003094
30
0.0
11
0.000000
21
0.000000
31
0.0
0
LINE
8
MCD_Layer_0
10
0.003906
20
0.003906
30
0.0
11
0.000000
21
0.000000
31
0.0
0
LINE
8
MCD_Layer_0
10
0.003906
20
0.007788
30
0.0
11
0.000000
21
0.000000
31
0.0
0
LINE
8
MCD_Layer_0
10
0.007788
20
0.007788
30
0.0
11
0.000000
21
0.000000
31
0.0
0
LINE
8
MCD_Layer_0
10
0.007788
20
0.003906
30
0.0
11
0.000000
21
0.000000
31
0.0
0
LINE
8
MCD_Layer_0
10
0.003906
20
0.003906
30
0.0
11
0.000000
21
0.000000
31
0.0
0
LINE
8
MCD_Layer_0
10
0.003438
20
-0.000000
30
0.0
11
0.000000
21
0.000000
31
0.0
0
LINE
8
MCD_Layer_0
10
-0.000000
20
0.000153
30
0.0
11
0.000000
21
0.000000
31
0.0
0
LINE
8
MCD_Layer_0
10
0.000153
20
-0.000000
30
0.0
11
0.000000
21
0.000000
31
0.0
0
LINE
8
MCD_Layer_0
10
-0.000000
20
0.003456
30
0.0
11
0.000000
21
0.000000
31
0.0
0
LINE
8
MCD_Layer_0
10
0.003894
20
0.003894
30
0.0
11
0.000000
21
-0.000000
31
0.0
0
LINE
8
MCD_Layer_0
10
-0.000000
20
0.000000
30
0.0
11
0.000000
21
0.000000
31
0.0
0
LINE
8
MCD_Layer_0
10
0.000000
20
0.000000
30
0.0
11
0.000000
21
0.000000
31
0.0
0
LINE
8
MCD_Layer_0
10
0.000000
20
0.003269
30
0.0
11
0.000000
21
0.000000
31
0.0
0
LINE
8
MCD_Layer_0
10
0.003894
20
0.003894
30
0.0
11
0.000000
21
0.000000
31
0.0
0
LINE
8
MCD_Layer_0
10
0.003894
20
0.007788
30
0.0
11
0.000000
21
0.000000
31
0.0
0
LINE
8
MCD_Layer_0
10
0.007788
20
0.007788
30
0.0
11
0.000000
21
0.000000
31
0.0
0
LINE
8
MCD_Layer_0
10
0.007788
20
0.003894
30
0.0
11
0.000000
21
0.000000
31
0.0
0
LINE
8
MCD_Layer_0
10
0.003894
20
0.003894
30
0.0
11
0.000000
21
0.000000
31
0.0
0
LINE
8
MCD_Layer_0
10
0.003269
20
0.000000
30
0.0
11
0.000000
21
0.000000
31
0.0
0
LINE
8
MCD_Layer_0
10
0.003975
20
0.007881
30
0.0
11
0.000000
21
0.000000
31
0.0
0
LINE
8
MCD_Layer_0
10
0.007881
20
0.007881
30
0.0
11
0.000000
21
0.000000
31
0.0
0
LINE
8
MCD_Layer_0
10
0.007881
20
0.003975
30
0.0
11
0.000000
21
0.000000
31
0.0
0
LINE
8
MCD_Layer_0
10
0.003975
20
0.003975
30
0.0
11
0.000000
21
0.000000
31
0.0
0
LINE
8
MCD_Layer_0
10
0.003316
20
0.000000
30
0.0
11
0.000000
21
0.000000
31
0.0
0
LINE
8
MCD_Layer_0
10
0.000000
20
0.003316
30
0.0
11
0.000000
21
0.000000
31
0.0
0
LINE
8
MCD_Layer_0
10
0.003975
20
0.003975
30
0.0
11
0.000000
21
0.000000
31
0.0
0
LINE
8
MCD_Layer_0
10
0.003975
20
0.007881
30
0.0
11
0.000000
21
0.000000
31
0.0
0
LINE
8
MCD_Layer_0
10
0.007881
20
0.007881
30
0.0
11
0.000000
21
0.000000
31
0.0
0
LINE
8
MCD_Layer_0
10
0.007881
20
0.003975
30
0.0
11
0.000000
21
0.000000
31
0.0
0
LINE
8
MCD_Layer_0
10
0.003975
20
0.003975
30
0.0
11
0.000000
21
0.000000
31
0.0
0
LINE
8
MCD_Layer_0
10
0.003316
20
0.000000
30
0.0
11
0.000000
21
0.000000
31
0.0
0
LINE
8
MCD_Layer_0
10
0.000000
20
0.003316
30
0.0
11
0.000000
21
0.000000
31
0.0
0
LINE
8
MCD_Layer_0
10
0.003975
20
0.003975
30
0.0
11
0.000000
21
-0.000000
31
0.0
0
LINE
8
MCD_Layer_0
10
0.000000
20
0.003281
30
0.0
11
0.000000
21
0.000000
31
0.0
0
LINE
8
MCD_Layer_0
10
0.003906
20
0.003906
30
0.0
11
0.000000
21
0.000000
31
0.0
0
LINE
8
MCD_Layer_0
10
0.003906
20
0.007813
30
0.0
11
0.000000
21
0.000000
31
0.0
0
LINE
8
MCD_Layer_0
10
0.007813
20
0.007813
30
0.0
11
0.000000
21
0.000000
31
0.0
0
LINE
8
MCD_Layer_0
10
0.007813
20
0.003906
30
0.0
11
0.000000
21
0.000000
31
0.0
0
LINE
8
MCD_Layer_0
10
0.003906
20
0.003906
30
0.0
11
0.000000
21
0.000000
31
0.0
0
LINE
8
MCD_Layer_0
10
0.003281
20
0.000000
30
0.0
11
0.000000
21
0.000000
31
0.0
0
LINE
8
MCD_Layer_0
10
0.000000
20
0.000000
30
0.0
11
0.000000
21
0.000000
31
0.0
0
LINE
8
MCD_Layer_0
10
0.000000
20
0.000000
30
0.0
11
0.000000
21
0.000000
31
0.0
0
LINE
8
MCD_Layer_0
10
0.000000
20
0.000000
30
0.0
11
0.000000
21
0.000000
31
0.0
0
LINE
8
MCD_Layer_0
10
0.000383
20
0.000383
30
0.0
11
0.000000
21
0.000000
31
0.0
0
LINE
8
MCD_Layer_0
10
0.000383
20
0.010444
30
0.0
11
0.000000
21
0.000000
31
0.0
0
LINE
8
MCD_Layer_0
10
0.010444
20
0.010444
30
0.0
11
0.000000
21
0.000000
31
0.0
0
LINE
8
MCD_Layer_0
10
0.000000
20
0.000000
30
0.0
11
0.000000
21
0.000000
31
0.0
0
LINE
8
MCD_Layer_0
10
0.000000
20
0.000000
30
0.0
11
0.000000
21
0.000000
31
0.0
0
LINE
8
MCD_Layer_0
10
0.000000
20
0.000000
30
0.0
11
0.000000
21
0.000000
31
0.0
0
LINE
8
MCD_Layer_0
10
0.000000
20
0.001234
30
0.0
11
0.000000
21
0.000000
31
0.0
0
LINE
8
MCD_Layer_0
10
0.001906
20
0.001906
30
0.0
11
0.000000
21
0.000000
31
0.0
0
LINE
8
MCD_Layer_0
10
0.001906
20
0.003859
30
0.0
11
0.000000
21
0.000000
31
0.0
0
LINE
8
MCD_Layer_0
10
0.011750
20
0.011750
30
0.0
11
0.000000
21
0.000000
31
0.0
0
LINE
8
MCD_Layer_0
10
0.011750
20
0.000000
30
0.0
11
0.000000
21
0.000000
31
0.0
0
LINE
8
MCD_Layer_0
10
0.000298
20
0.000477
30
0.0
11
0.000000
21
0.000000
31
0.0
0
LINE
8
MCD_Layer_0
10
0.000477
20
0.000218
30
0.0
11
0.000000
21
0.000000
31
0.0
0
LINE
8
MCD_Layer_0
10
0.009825
20
0.005825
30
0.0
11
0.000000
21
0.000000
31
0.0
0
LINE
8
MCD_Layer_0
10
0.000000
20
0.000000
30
0.0
11
0.000000
21
0.000000
31
0.0
0
LINE
8
MCD_Layer_0
10
0.000000
20
0.000001
30
0.0
11
0.000000
21
0.000000
31
0.0
0
LINE
8
MCD_Layer_0
10
0.000000
20
0.011063
30
0.0
11
0.000000
21
0.000000
31
0.0
0
LINE
8
MCD_Layer_0
10
0.011063
20
0.000000
30
0.0
11
0.000000
21
0.000000
31
0.0
0
LINE
8
MCD_Layer_0
10
0.000000
20
0.000002
30
0.0
11
0.000000
21
0.000000
31
0.0
0
LINE
8
MCD_Layer_0
10
0.000002
20
0.000002
30
0.0
11
0.000000
21
0.000000
31
0.0
0
LINE
8
MCD_Layer_0
10
0.000002
20
0.000000
30
0.0
11
0.000000
21
0.000000
31
0.0
0
LINE
8
MCD_Layer_0
10
0.000008
20
0.000008
30
0.0
11
0.000000
21
0.000000
31
0.0
0
LINE
8
MCD_Layer_0
10
0.000008
20
0.000785
30
0.0
11
0.000000
21
0.000000
31
0.0
0
LINE
8
MCD_Layer_0
10
0.000785
20
0.000008
30
0.0
11
0.000000
21
-0.000000
31
0.0
0
LINE
8
MCD_Layer_0
10
0.000000
20
0.003281
30
0.0
11
0.000000
21
0.000000
31
0.0
0
LINE
8
MCD_Layer_0
10
0.003906
20
0.003906
30
0.0
11
0.000000
21
0.000000
31
0.0
0
LINE
8
MCD_Layer_0
10
0.003906
20
0.007813
30
0.0
11
0.000000
21
0.000000
31
0.0
0
LINE
8
MCD_Layer_0
10
0.007813
20
0.007813
30
0.0
11
0.000000
21
0.000000
31
0.0
0
LINE
8
MCD_Layer_0
10
0.000020
20
0.000000
30
0.0
11
0.000000
21
0.000000
31
0.0
0
LINE
8
MCD_Layer_0
10
0.003938
20
0.003938
30
0.0
11
0.000000
21
0.000000
31
0.0
0
LINE
8
MCD_Layer_0
10
0.003938
20
0.000051
30
0.0
11
0.000000
21
-0.000000
31
0.0
0
LINE
8
MCD_Layer_0
10
0.000000
20
0.000000
30
0.0
11
0.000000
21
0.000000
31
0.0
0
LINE
8
MCD_Layer_0
10
0.000024
20
0.000009
30
0.0
11
0.000000
21
0.000000
31
0.0
0
LINE
8
MCD_Layer_0
10
0.000009
20
0.000009
30
0.0
11
0.000000
21
0.000000
31
0.0
0
LINE
8
MCD_Layer_0
10
0.000009
20
0.000226
30
0.0
11
0.000000
21
0.000000
31
0.0
0
LINE
8
MCD_Layer_0
10
0.000226
20
0.000226
30
0.0
11
0.000000
21
0.000000
31
0.0
0
LINE
8
MCD_Layer_0
10
0.000226
20
0.000142
30
0.0
11
0.000000
21
0.000000
31
0.0
0
LINE
8
MCD_Layer_0
10
0.000591
20
0.000591
30
0.0
11
0.000000
21
0.000000
31
0.0
0
LINE
8
MCD_Layer_0
10
0.000591
20
0.010256
30
0.0
11
0.000000
21
0.000000
31
0.0
0
LINE
8
MCD_Layer_0
10
0.010256
20
0.010256
30
0.0
11
0.000000
21
0.000000
31
0.0
0
LINE
8
MCD_Layer_0
10
0.000001
20
0.000000
30
0.0
11
0.000000
21
0.000000
31
0.0
0
LINE
8
MCD_Layer_0
10
0.009906
20
0.010593
30
0.0
11
0.000000
21
0.000000
31
0.0
0
LINE
8
MCD_Layer_0
10
0.010593
20
0.010593
30
0.0
11
0.000000
21
0.000000
31
0.0
0
LINE
8
MCD_Layer_0
10
0.010593
20
0.000459
30
0.0
11
0.000000
21
0.000000
31
0.0
0
LINE
8
MCD_Layer_0
10
0.000459
20
0.000459
30
0.0
11
0.000000
21
0.000000
31
0.0
0
LINE
8
MCD_Layer_0
10
0.000459
20
0.000711
30
0.0
11
0.000000
21
0.000000
31
0.0
0
LINE
8
MCD_Layer_0
10
0.000000
20
0.000001
30
0.0
11
0.000000
21
0.000000
31
0.0
0
LINE
8
MCD_Layer_0
10
0.000001
20
0.000001
30
0.0
11
0.000000
21
-0.000000
31
0.0
0
LINE
8
MCD_Layer_0
10
0.000000
20
0.003281
30
0.0
11
0.000000
21
0.000000
31
0.0
0
LINE
8
MCD_Layer_0
10
0.003906
20
0.003906
30
0.0
11
0.000000
21
0.000000
31
0.0
0
LINE
8
MCD_Layer_0
10
0.003906
20
0.007813
30
0.0
11
0.000000
21
0.000000
31
0.0
0
LINE
8
MCD_Layer_0
10
0.007813
20
0.007813
30
0.0
11
0.000000
21
0.000000
31
0.0
0
LINE
8
MCD_Layer_0
10
0.007813
20
0.000984
30
0.0
11
0.000000
21
0.000000
31
0.0
0
LINE
8
MCD_Layer_0
10
0.000984
20
0.000984
30
0.0
11
0.000000
21
0.000000
31
0.0
0
LINE
8
MCD_Layer_0
10
0.000984
20
0.002609
30
0.0
11
0.000000
21
0.000000
31
0.0
0
LINE
8
MCD_Layer_0
10
0.003938
20
0.003938
30
0.0
11
0.000000
21
0.000000
31
0.0
0
LINE
8
MCD_Layer_0
10
0.000062
20
0.000062
30
0.0
11
0.000000
21
0.000000
31
0.0
0
LINE
8
MCD_Layer_0
10
0.000081
20
0.000142
30
0.0
11
0.000000
21
0.000000
31
0.0
0
LINE
8
MCD_Layer_0
10
0.000142
20
0.000142
30
0.0
11
0.000000
21
0.000000
31
0.0
0
LINE
8
MCD_Layer_0
10
0.000142
20
0.000007
30
0.0
11
0.000000
21
0.000000
31
0.0
0
LINE
8
MCD_Layer_0
10
0.000007
20
0.000007
30
0.0
11
0.000000
21
0.000000
31
0.0
0
LINE
8
MCD_Layer_0
10
0.000007
20
0.000022
30
0.0
11
0.000000
21
0.000000
31
0.0
0
LINE
8
MCD_Layer_0
10
0.000031
20
0.000031
30
0.0
11
0.000000
21
0.000000
31
0.0
0
LINE
8
MCD_Layer_0
10
0.000031
20
0.000000
30
0.0
11
0.000000
21
0.000000
31
0.0
0
LINE
8
MCD_Layer_0
10
0.000000
20
0.000000
30
0.0
11
0.000000
21
0.000000
31
0.0
0
LINE
8
MCD_Layer_0
10
0.000000
20
0.000000
30
0.0
11
0.000000
21
0.000000
31
0.0
0
LINE
8
MCD_Layer_0
10
0.000000
20
0.000000
30
0.0
11
0.000000
21
0.000000
31
0.0
0
LINE
8
MCD_Layer_0
10
0.000000
20
0.003281
30
0.0
11
0.000000
21
0.000000
31
0.0
0
LINE
8
MCD_Layer_0
10
0.003906
20
0.003906
30
0.0
11
0.000000
21
0.000000
31
0.0
0
LINE
8
MCD_Layer_0
10
0.003906
20
0.007813
30
0.0
11
0.000000
21
0.000000
31
0.0
0
LINE
8
MCD_Layer_0
10
0.007813
20
0.007813
30
0.0
11
0.000000
21
0.000000
31
0.0
0
LINE
8
MCD_Layer_0
10
0.007813
20
0.000000
30
0.0
11
0.000000
21
0.000000
31
0.0
0
LINE
8
MCD_Layer_0
10
0.000000
20
0.007813
30
0.0
11
0.000000
21
0.000000
31
0.0
0
LINE
8
MCD_Layer_0
10
0.007813
20
0.007813
30
0.0
11
0.000000
21
0.000000
31
0.0
0
LINE
8
MCD_Layer_0
10
0.007813
20
0.003906
30
0.0
11
0.000000
21
0.000000
31
0.0
0
LINE
8
MCD_Layer_0
10
0.003906
20
0.003906
30
0.0
11
0.000000
21
0.000000
31
0.0
0
LINE
8
MCD_Layer_0
10
0.003281
20
0.000000
30
0.0
11
0.000000
21
0.000000
31
0.0
0
LINE
8
MCD_Layer_0
10
0.000000
20
0.000488
30
0.0
11
0.000000
21
0.000000
31
0.0
0
LINE
8
MCD_Layer_0
10
0.000488
20
-0.000000
30
0.0
11
0.000000
21
0.000000
31
0.0
0
LINE
8
MCD_Layer_0
10
-0.000000
20
0.000426
30
0.0
11
0.000000
21
0.000000
31
0.0
0
LINE
8
MCD_Layer_0
10
0.000426
20
0.000000
30
0.0
11
0.000000
21
0.000000
31
0.0
0
LINE
8
MCD_Layer_0
10
0.001563
20
0.007813
30
0.0
11
0.000000
21
0.000000
31
0.0
0
LINE
8
MCD_Layer_0
10
0.007813
20
0.007813
30
0.0
11
0.000000
21
0.000000
31
0.0
0
LINE
8
MCD_Layer_0
10
0.007813
20
0.001172
30
0.0
11
0.000000
21
0.000000
31
0.0
0
LINE
8
MCD_Layer_0
10
0.001172
20
0.000000
30
0.0
11
0.000000
21
0.000000
31
0.0
0
LINE
8
MCD_Layer_0
10
0.000000
20
0.000000
30
0.0
11
0.000000
21
0.000000
31
0.0
0
LINE
8
MCD_Layer_0
10
0.000000
20
0.000000
30
0.0
11
0.000000
21
0.000000
31
0.0
0
LINE
8
MCD_Layer_0
10
0.000000
20
0.001563
30
0.0
11
0.000000
21
-0.000000
31
0.0
0
LINE
8
MCD_Layer_0
10
0.000000
20
0.000031
30
0.0
11
0.000000
21
0.000000
31
0.0
0
LINE
8
MCD_Layer_0
10
0.000003
20
0.000031
30
0.0
11
0.000000
21
0.000000
31
0.0
0
LINE
8
MCD_Layer_0
10
0.000031
20
0.000031
30
0.0
11
0.000000
21
0.000000
31
0.0
0
LINE
8
MCD_Layer_0
10
0.000031
20
0.000003
30
0.0
11
0.000000
21
-0.000000
31
0.0
0
LINE
8
MCD_Layer_0
10
0.007813
20
0.000000
30
0.0
11
0.000000
21
0.000000
31
0.0
0
LINE
8
MCD_Layer_0
10
0.000000
20
0.000003
30
0.0
11
0.000000
21
0.000000
31
0.0
0
LINE
8
MCD_Layer_0
10
0.000003
20
0.000006
30
0.0
11
0.000000
21
0.000000
31
0.0
0
LINE
8
MCD_Layer_0
10
0.000006
20
0.000031
30
0.0
11
0.000000
21
0.000000
31
0.0
0
LINE
8
MCD_Layer_0
10
0.000031
20
0.000031
30
0.0
11
0.000000
21
0.000000
31
0.0
0
LINE
8
MCD_Layer_0
10
0.000031
20
0.000006
30
0.0
11
0.000000
21
-0.000000
31
0.0
0
LINE
8
MCD_Layer_0
10
0.000001
20
0.000006
30
0.0
11
0.000000
21
0.000000
31
0.0
0
LINE
8
MCD_Layer_0
10
0.000006
20
0.000031
30
0.0
11
0.000000
21
0.000000
31
0.0
0
LINE
8
MCD_Layer_0
10
0.000031
20
0.000031
30
0.0
11
0.000000
21
0.000000
31
0.0
0
LINE
8
MCD_Layer_0
10
0.000031
20
0.000003
30
0.0
11
0.000000
21
0.000000
31
0.0
0
LINE
8
MCD_Layer_0
10
0.000003
20
0.000000
30
0.0
11
0.000000
21
0.000000
31
0.0
0
LINE
8
MCD_Layer_0
10
0.000001
20
0.000000
30
0.0
11
0.000000
21
0.000000
31
0.0
0
LINE
8
MCD_Layer_0
10
0.000000
20
0.000000
30
0.0
11
0.000000
21
-0.000000
31
0.0
0
LINE
8
MCD_Layer_0
10
0.000879
20
0.000000
30
0.0
11
0.000000
21
0.000000
31
0.0
0
LINE
8
MCD_Layer_0
10
0.000879
20
0.000000
30
0.0
11
0.000000
21
0.000000
31
0.0
0
LINE
8
MCD_Layer_0
10
0.000293
20
0.000293
30
0.0
11
0.000000
21
0.000000
31
0.0
0
LINE
8
MCD_Layer_0
10
0.000001
20
0.000001
30
0.0
11
0.000000
21
-0.000000
31
0.0
0
LINE
8
MCD_Layer_0
10
0.007812
20
0.000000
30
0.0
11
0.000000
21
0.000000
31
0.0
0
LINE
8
MCD_Layer_0
10
0.000000
20
0.007813
30
0.0
11
0.000000
21
-0.000000
31
0.0
0
LINE
8
MCD_Layer_0
10
0.000031
20
0.000002
30
0.0
11
0.000000
21
0.000000
31
0.0
0
LINE
8
MCD_Layer_0
10
0.000002
20
0.000000
30
0.0
11
0.000000
21
0.000000
31
0.0
0
LINE
8
MCD_Layer_0
10
0.000000
20
0.000002
30
0.0
11
0.000000
21
0.000000
31
0.0
0
LINE
8
MCD_Layer_0
10
0.000002
20
0.000002
30
0.0
11
0.000000
21
0.000000
31
0.0
0
LINE
8
MCD_Layer_0
10
0.000002
20
0.000000
30
0.0
11
0.000000
21
0.000000
31
0.0
0
LINE
8
MCD_Layer_0
10
0.000000
20
0.000000
30
0.0
11
0.000000
21
0.000000
31
0.0
0
LINE
8
MCD_Layer_0
10
0.000006
20
0.000031
30
0.0
11
0.000000
21
-0.000000
31
0.0
0
LINE
8
MCD_Layer_0
10
0.000031
20
0.000000
30
0.0
11
0.000000
21
0.000000
31
0.0
0
LINE
8
MCD_Layer_0
10
0.000006
20
0.000031
30
0.0
11
0.000000
21
0.000000
31
0.0
0
LINE
8
MCD_Layer_0
10
0.000031
20
0.000031
30
0.0
11
0.000000
21
0.000000
31
0.0
0
LINE
8
MCD_Layer_0
10
0.000031
20
0.000006
30
0.0
11
0.000000
21
0.000000
31
0.0
0
LINE
8
MCD_Layer_0
10
0.000006
20
0.000031
30
0.0
11
0.000000
21
0.000000
31
0.0
0
LINE
8
MCD_Layer_0
10
0.000031
20
0.000031
30
0.0
11
0.000000
21
0.000000
31
0.0
0
LINE
8
MCD_Layer_0
10
0.000031
20
0.000006
30
0.0
11
0.000000
21
0.000000
31
0.0
0
LINE
8
MCD_Layer_0
10
0.000006
20
0.000000
30
0.0
11
0.000000
21
-0.000000
31
0.0
0
LINE
8
MCD_Layer_0
10
0.000003
20
0.000031
30
0.0
11
0.000000
21
0.000000
31
0.0
0
LINE
8
MCD_Layer_0
10
0.000031
20
0.000031
30
0.0
11
0.000000
21
0.000000
31
0.0
0
LINE
8
MCD_Layer_0
10
0.000031
20
0.000003
30
0.0
11
0.000000
21
0.000000
31
0.0
0
LINE
8
MCD_Layer_0
10
0.000003
20
0.000000
30
0.0
11
0.000000
21
-0.000000
31
0.0
0
LINE
8
MCD_Layer_0
10
0.001172
20
0.000098
30
0.0
11
0.000000
21
0.000000
31
0.0
0
LINE
8
MCD_Layer_0
10
0.000098
20
0.000031
30
0.0
11
0.000000
21
0.000000
31
0.0
0
LINE
8
MCD_Layer_0
10
0.000031
20
0.000031
30
0.0
11
0.000000
21
0.000000
31
0.0
0
LINE
8
MCD_Layer_0
10
0.000031
20
0.000002
30
0.0
11
0.000000
21
0.000000
31
0.0
0
LINE
8
MCD_Layer_0
10
0.000002
20
0.000000
30
0.0
11
0.000000
21
0.000000
31
0.0
0
LINE
8
MCD_Layer_0
10
0.000000
20
0.000000
30
0.0
11
0.000000
21
0.000000
31
0.0
0
LINE
8
MCD_Layer_0
10
0.000000
20
0.000000
30
0.0
11
0.000000
21
-0.000000
31
0.0
0
LINE
8
MCD_Layer_0
10
0.004688
20
0.000000
30
0.0
11
0.000000
21
0.000000
31
0.0
0
LINE
8
MCD_Layer_0
10
0.000031
20
0.000031
30
0.0
11
0.000000
21
-0.000000
31
0.0
0
LINE
8
MCD_Layer_0
10
0.000003
20
0.000031
30
0.0
11
0.000000
21
0.000000
31
0.0
0
LINE
8
MCD_Layer_0
10
0.000003
20
0.000000
30
0.0
11
0.000000
21
0.000000
31
0.0
0
LINE
8
MCD_Layer_0
10
0.000000
20
0.000003
30
0.0
11
0.000000
21
-0.000000
31
0.0
0
LINE
8
MCD_Layer_0
10
0.007812
20
0.007813
30
0.0
11
0.000000
21
0.000000
31
0.0
0
LINE
8
MCD_Layer_0
10
0.007813
20
0.001563
30
0.0
11
0.000000
21
0.000000
31
0.0
0
LINE
8
MCD_Layer_0
10
0.001563
20
0.000000
30
0.0
11
0.000000
21
0.000000
31
0.0
0
LINE
8
MCD_Layer_0
10
0.001953
20
0.007813
30
0.0
11
0.000000
21
0.000000
31
0.0
0
LINE
8
MCD_Layer_0
10
0.007813
20
0.007813
30
0.0
11
0.000000
21
0.000000
31
0.0
0
LINE
8
MCD_Layer_0
10
0.007813
20
0.001563
30
0.0
11
0.000000
21
0.000000
31
0.0
0
LINE
8
MCD_Layer_0
10
0.001563
20
0.000000
30
0.0
11
0.000000
21
0.000000
31
0.0
0
LINE
8
MCD_Layer_0
10
0.000031
20
0.000000
30
0.0
11
0.000000
21
0.000000
31
0.0
0
LINE
8
MCD_Layer_0
10
0.000031
20
0.000000
30
0.0
11
0.000000
21
0.000000
31
0.0
0
LINE
8
MCD_Layer_0
10
0.000000
20
-0.000000
30
0.0
11
0.000000
21
0.000000
31
0.0
0
LINE
8
MCD_Layer_0
10
-0.000000
20
-0.000000
30
0.0
11
0.000000
21
0.000000
31
0.0
0
LINE
8
MCD_Layer_0
10
-0.000000
20
-0.000001
30
0.0
11
0.000000
21
0.000000
31
0.0
0
LINE
8
MCD_Layer_0
10
-0.000001
20
-0.000001
30
0.0
11
0.000000
21
0.000000
31
0.0
0
LINE
8
MCD_Layer_0
10
-0.000001
20
-0.000000
30
0.0
11
0.000000
21
-0.000000
31
0.0
0
LINE
8
MCD_Layer_0
10
0.007813
20
0.007813
30
0.0
11
0.000000
21
0.000000
31
0.0
0
LINE
8
MCD_Layer_0
10
0.000000
20
0.007813
30
0.0
11
0.000000
21
0.000000
31
0.0
0
LINE
8
MCD_Layer_0
10
0.000003
20
0.000031
30
0.0
11
0.000000
21
0.000000
31
0.0
0
LINE
8
MCD_Layer_0
10
0.000031
20
0.000031
30
0.0
11
0.000000
21
0.000000
31
0.0
0
LINE
8
MCD_Layer_0
10
0.000031
20
0.000003
30
0.0
11
0.000000
21
0.000000
31
0.0
0
LINE
8
MCD_Layer_0
10
0.000003
20
0.000000
30
0.0
11
0.000000
21
-0.000000
31
0.0
0
LINE
8
MCD_Layer_0
10
0.000031
20
0.000003
30
0.0
11
0.000000
21
0.000000
31
0.0
0
LINE
8
MCD_Layer_0
10
0.000003
20
0.000000
30
0.0
11
0.000000
21
0.000000
31
0.0
0
LINE
8
MCD_Layer_0
10
0.000000
20
0.000003
30
0.0
11
0.000000
21
0.000000
31
0.0
0
LINE
8
MCD_Layer_0
10
0.000003
20
0.000031
30
0.0
11
0.000000
21
-0.000000
31
0.0
0
LINE
8
MCD_Layer_0
10
0.000031
20
0.000006
30
0.0
11
0.000000
21
0.000000
31
0.0
0
LINE
8
MCD_Layer_0
10
0.000006
20
0.000000
30
0.0
11
0.000000
21
0.000000
31
0.0
0
LINE
8
MCD_Layer_0
10
0.002734
20
0.007813
30
0.0
11
0.000000
21
0.000000
31
0.0
0
LINE
8
MCD_Layer_0
10
0.007813
20
0.007813
30
0.0
11
0.000000
21
0.000000
31
0.0
0
LINE
8
MCD_Layer_0
10
0.007813
20
0.003516
30
0.0
11
0.000000
21
0.000000
31
0.0
0
LINE
8
MCD_Layer_0
10
0.003516
20
0.000000
30
0.0
11
0.000000
21
0.000000
31
0.0
0
LINE
8
MCD_Layer_0
10
0.000031
20
0.000031
30
0.0
11
0.000000
21
-0.000000
31
0.0
0
LINE
8
MCD_Layer_0
10
0.000031
20
0.000000
30
0.0
11
0.000000
21
0.000000
31
0.0
0
LINE
8
MCD_Layer_0
10
0.000000
20
0.000031
30
0.0
11
0.000000
21
0.000000
31
0.0
0
LINE
8
MCD_Layer_0
10
0.007813
20
0.007813
30
0.0
11
0.000000
21
0.000000
31
0.0
0
LINE
8
MCD_Layer_0
10
0.007813
20
0.000000
30
0.0
11
0.000000
21
0.000000
31
0.0
0
LINE
8
MCD_Layer_0
10
0.007812
20
0.000000
30
0.0
11
0.000000
21
0.000000
31
0.0
0
LINE
8
MCD_Layer_0
10
0.000031
20
0.000001
30
0.0
11
0.000000
21
0.000000
31
0.0
0
LINE
8
MCD_Layer_0
10
0.000001
20
0.000000
30
0.0
11
0.000000
21
0.000000
31
0.0
0
LINE
8
MCD_Layer_0
10
0.000001
20
0.000001
30
0.0
11
0.000000
21
-0.000000
31
0.0
0
LINE
8
MCD_Layer_0
10
0.000003
20
0.000000
30
0.0
11
0.000000
21
0.000000
31
0.0
0
LINE
8
MCD_Layer_0
10
0.000011
20
0.000000
30
0.0
11
0.000000
21
0.000000
31
0.0
0
LINE
8
MCD_Layer_0
10
0.000000
20
0.000003
30
0.0
11
0.000000
21
0.000000
31
0.0
0
LINE
8
MCD_Layer_0
10
0.000003
20
0.000031
30
0.0
11
0.000000
21
-0.000000
31
0.0
0
LINE
8
MCD_Layer_0
10
0.000031
20
0.000031
30
0.0
11
0.000000
21
0.000000
31
0.0
0
LINE
8
MCD_Layer_0
10
0.000031
20
0.000000
30
0.0
11
0.000000
21
0.000000
31
0.0
0
LINE
8
MCD_Layer_0
10
0.000122
20
0.000122
30
0.0
11
0.000000
21
-0.000000
31
0.0
0
LINE
8
MCD_Layer_0
10
0.000003
20
-0.000000
30
0.0
11
0.000000
21
0.000000
31
0.0
0
LINE
8
MCD_Layer_0
10
-0.000000
20
-0.000000
30
0.0
11
0.000000
21
0.000000
31
0.0
0
LINE
8
MCD_Layer_0
10
-0.000000
20
-0.000000
30
0.0
11
0.000000
21
0.000000
31
0.0
0
LINE
8
MCD_Layer_0
10
-0.000000
20
-0.000000
30
0.0
11
0.000000
21
-0.000000
31
0.0
0
LINE
8
MCD_Layer_0
10
0.007813
20
0.000000
30
0.0
11
0.000000
21
0.000000
31
0.0
0
LINE
8
MCD_Layer_0
10
0.000000
20
0.000006
30
0.0
11
0.000000
21
0.000000
31
0.0
0
LINE
8
MCD_Layer_0
10
0.000006
20
0.000031
30
0.0
11
0.000000
21
0.000000
31
0.0
0
LINE
8
MCD_Layer_0
10
0.000031
20
0.000031
30
0.0
11
0.000000
21
0.000000
31
0.0
0
LINE
8
MCD_Layer_0
10
0.000031
20
0.000006
30
0.0
11
0.000000
21
-0.000000
31
0.0
0
LINE
8
MCD_Layer_0
10
0.007812
20
0.007813
30
0.0
11
0.000000
21
0.000000
31
0.0
0
LINE
8
MCD_Layer_0
10
0.007813
20
0.000000
30
0.0
11
0.000000
21
-0.000000
31
0.0
0
LINE
8
MCD_Layer_0
10
0.000031
20
0.000002
30
0.0
11
0.000000
21
0.000000
31
0.0
0
LINE
8
MCD_Layer_0
10
0.000002
20
0.000000
30
0.0
11
0.000000
21
0.000000
31
0.0
0
LINE
8
MCD_Layer_0
10
0.000000
20
0.000000
30
0.0
11
0.000000
21
0.000000
31
0.0
0
LINE
8
MCD_Layer_0
10
0.000000
20
0.000000
30
0.0
11
0.000000
21
0.000000
31
0.0
0
LINE
8
MCD_Layer_0
10
0.000000
20
0.000000
30
0.0
11
0.000000
21
0.000000
31
0.0
0
LINE
8
MCD_Layer_0
10
0.000000
20
0.000000
30
0.0
11
0.000000
21
0.000000
31
0.0
0
LINE
8
MCD_Layer_0
10
0.000031
20
0.000031
30
0.0
11
0.000000
21
0.000000
31
0.0
0
LINE
8
MCD_Layer_0
10
0.000031
20
0.000000
30
0.0
11
0.000000
21
0.000000
31
0.0
0
LINE
8
MCD_Layer_0
10
0.007812
20
0.000031
30
0.0
11
0.000000
21
0.000000
31
0.0
0
LINE
8
MCD_Layer_0
10
0.000031
20
0.007813
30
0.0
11
0.000000
21
0.000000
31
0.0
0
LINE
8
MCD_Layer_0
10
0.000031
20
0.000000
30
0.0
11
0.000000
21
-0.000000
31
0.0
0
LINE
8
MCD_Layer_0
10
0.000031
20
0.000006
30
0.0
11
0.000000
21
0.000000
31
0.0
0
LINE
8
MCD_Layer_0
10
0.000006
20
0.000000
30
0.0
11
0.000000
21
0.000000
31
0.0
0
LINE
8
MCD_Layer_0
10
-0.000001
20
0.000031
30
0.0
11
0.000000
21
-0.000000
31
0.0
0
LINE
8
MCD_Layer_1
10
19041.003896
20
19041.004002
30
0.0
11
0.000000
21
0.000000
31
0.0
0
LINE
8
MCD_Layer_1
10
16176.501948
20
16176.502001
30
0.0
11
0.000000
21
0.000000
31
0.0
0
LINE
8
MCD_Layer_1
10
19041.011711
20
19041.011814
30
0.0
11
0.000000
21
0.000000
31
0.0
0
LINE
8
MCD_Layer_0
10
43044.195227
20
47519.195228
30
0.0
11
0.000000
21
0.000000
31
0.0
0
LINE
8
MCD_Layer_0
10
50559.445267
20
54891.945266
30
0.0
11
0.000000
21
0.000000
31
0.0
0
LINE
8
MCD_Layer_0
10
89731.921787
20
83416.421793
30
0.0
11
0.000000
21
0.000000
31
0.0
0
LINE
8
MCD_Layer_0
10
55187.460864
20
51092.710867
30
0.0
11
0.000000
21
0.000000
31
0.0
0
LINE
8
MCD_Layer_0
10
51092.710867
20
48693.960859
30
0.0
11
0.000000
21
0.000000
31
0.0
0
LINE
8
MCD_Layer_0
10
117.113052
20
120.439224
30
0.0
11
0.000000
21
0.000000
31
0.0
0
LINE
8
MCD_Layer_0
10
246.792510
20
240.015167
30
0.0
11
0.000000
21
0.000000
31
0.0
0
LINE
8
MCD_Layer_0
10
47588.195220
20
52674.695221
30
0.0
11
0.000000
21
0.000000
31
0.0
0
LINE
8
MCD_Layer_0
10
53684.945262
20
58477.195262
30
0.0
11
0.000000
21
0.000000
31
0.0
0
LINE
8
MCD_Layer_0
10
89921.421775
20
82740.421782
30
0.0
11
0.000000
21
0.000000
31
0.0
0
LINE
8
MCD_Layer_0
10
58303.710852
20
53488.710856
30
0.0
11
0.000000
21
0.000000
31
0.0
0
LINE
8
MCD_Layer_2147876864
10
-0.030603
20
-0.008667
30
0.0
11
-0.000530
21
0.000000
31
0.0
0
LINE
8
MCD_Layer_2147876864
10
-0.000530
20
-0.000022
30
0.0
11
-0.000000
21
0.000000
31
0.0
0
LINE
8
MCD_Layer_2147680256
10
-0.000000
20
-0.000000
30
0.0
11
0.000000
21
0.000000
31
0.0
0
LINE
8
MCD_Layer_2
10
92257.921485
20
95254.921474
30
0.0
11
0.000000
21
0.000000
31
0.0
0
LINE
8
MCD_Layer_2147876864
10
-0.000000
20
-0.000015
30
0.0
11
-0.000471
21
0.000000
31
0.0
0
LINE
8
MCD_Layer_2147876864
10
-0.000471
20
-0.007460
30
0.0
11
-0.028298
21
0.000000
31
0.0
0
LINE
8
MCD_Layer_2147680256
10
-0.028298
20
-0.030603
30
0.0
11
0.000000
21
0.000000
31
0.0
0
LINE
8
MCD_Layer_2147876864
10
-0.000000
20
0.000000
30
0.0
11
0.000000
21
0.000000
31
0.0
0
LINE
8
MCD_Layer_2147680256
10
-0.000000
20
-0.000000
30
0.0
11
0.000000
21
0.000000
31
0.0
0
LINE
8
MCD_Layer_2147680256
10
0.000003
20
0.000004
30
0.0
11
0.000000
21
0.000000
31
0.0
0
LINE
8
MCD_Layer_2147876864
10
0.000004
20
0.003805
30
0.0
11
0.081486
21
0.000000
31
0.0
0
LINE
8
MCD_Layer_2147680256
10
0.081486
20
0.089719
30
0.0
11
0.000000
21
0.000000
31
0.0
0
LINE
8
MCD_Layer_2
10
74414.890553
20
76919.890555
30
0.0
11
0.000000
21
0.000000
31
0.0
0
LINE
8
MCD_Layer_2147876864
10
0.089719
20
0.004319
30
0.0
11
0.000003
21
0.000000
31
0.0
0
LINE
8
MCD_Layer_1
10
25988.097630
20
25988.097639
30
0.0
11
0.000000
21
0.000000
31
0.0
0
LINE
8
MCD_Layer_1
10
29060.097622
20
29060.097639
30
0.0
11
0.000000
21
0.000000
31
0.0
0
LINE
8
MCD_Layer_0
10
140.130401
20
157.501495
30
0.0
11
0.000000
21
0.000000
31
0.0
0
LINE
8
MCD_Layer_0
10
260.542053
20
248.620636
30
0.0
11
0.000000
21
0.000000
31
0.0
0
LINE
8
MCD_Layer_0
10
397.034240
20
401.635802
30
0.0
11
0.000000
21
0.000000
31
0.0
0
LINE
8
MCD_Layer_2147876864
10
-0.422685
20
-1.603098
30
0.0
11
-3.289195
21
0.000000
31
0.0
0
LINE
8
MCD_Layer_2147876864
10
-3.289194
20
-2.823157
30
0.0
11
-2.585391
21
0.000000
31
0.0
0
LINE
8
MCD_Layer_2147876864
10
-2.585390
20
-2.767878
30
0.0
11
-3.304293
21
0.000000
31
0.0
0
LINE
8
MCD_Layer_2147876864
10
-3.304293
20
-4.106420
30
0.0
11
-3.791750
21
0.000000
31
0.0
0
LINE
8
MCD_Layer_2147876864
10
-3.791750
20
-2.233233
30
0.0
11
-0.738530
21
0.000000
31
0.0
0
LINE
8
MCD_Layer_2147876864
10
0.949367
20
2.777922
30
0.0
11
4.836530
21
0.000000
31
0.0
0
LINE
8
MCD_Layer_2147876864
10
4.836529
20
3.941161
30
0.0
11
3.687750
21
0.000000
31
0.0
0
LINE
8
MCD_Layer_2147876864
10
3.687750
20
3.850752
30
0.0
11
4.765637
21
0.000000
31
0.0
0
LINE
8
MCD_Layer_2147876864
10
4.765636
20
6.348111
30
0.0
11
5.855069
21
0.000000
31
0.0
0
LINE
8
MCD_Layer_2147876864
10
5.855068
20
3.413001
30
0.0
11
1.691191
21
0.000000
31
0.0
0
LINE
8
MCD_Layer_2147876864
10
130.228394
20
46.539406
30
0.0
11
8.959772
21
0.000000
31
0.0
0
LINE
8
MCD_Layer_2147680256
10
8.959770
20
10.379602
30
0.0
11
0.000000
21
0.000000
31
0.0
0
LINE
8
MCD_Layer_2147876864
10
10.379601
20
58.257424
30
0.0
11
161.125397
21
0.000000
31
0.0
0
LINE
8
MCD_Layer_2147680256
10
161.125366
20
130.228425
30
0.0
11
0.000000
21
0.000000
31
0.0
0
LINE
8
MCD_Layer_2147876864
10
58.511566
20
108.461869
30
0.0
11
262.272279
21
0.000000
31
0.0
0
LINE
8
MCD_Layer_2147680256
10
262.272217
20
242.718659
30
0.0
11
0.000000
21
0.000000
31
0.0
0
LINE
8
MCD_Layer_2147876864
10
242.718628
20
99.320511
30
0.0
11
56.963844
21
0.000000
31
0.0
0
LINE
8
MCD_Layer_2147876864
10
56.963837
20
26.025013
30
0.0
11
12.975245
21
0.000000
31
0.0
0
LINE
8
MCD_Layer_2147680256
10
12.975243
20
13.726038
30
0.0
11
0.000000
21
0.000000
31
0.0
0
LINE
8
MCD_Layer_2147876864
10
13.726036
20
35.394142
30
0.0
11
58.511574
21
0.000000
31
0.0
0
LINE
8
MCD_Layer_2147876864
10
2.408163
20
0.276105
30
0.0
11
0.009483
21
0.000000
31
0.0
0
LINE
8
MCD_Layer_2147680256
10
0.009483
20
0.008465
30
0.0
11
0.000000
21
0.000000
31
0.0
0
LINE
8
MCD_Layer_2147876864
10
0.008465
20
0.244086
30
0.0
11
2.027319
21
0.000000
31
0.0
0
LINE
8
MCD_Layer_2147680256
10
2.027319
20
2.408164
30
0.0
11
0.000000
21
0.000000
31
0.0
0
LINE
8
MCD_Layer_2147876864
10
-0.000192
20
-0.001391
30
0.0
11
-0.001732
21
0.000000
31
0.0
0
LINE
8
MCD_Layer_2147876864
10
-0.001732
20
-0.001763
30
0.0
11
-0.001095
21
0.000000
31
0.0
0
LINE
8
MCD_Layer_2147876864
10
-0.000455
20
-0.000867
30
0.0
11
-0.000890
21
0.000000
31
0.0
0
LINE
8
MCD_Layer_2147876864
10
-0.000890
20
-0.000424
30
0.0
11
-0.000212
21
0.000000
31
0.0
0
LINE
8
MCD_Layer_2147876864
10
-0.000212
20
-0.000129
30
0.0
11
-0.000192
21
0.000000
31
0.0
0
LINE
8
MCD_Layer_2147680256
10
-1.616430
20
-1.533534
30
0.0
11
0.000000
21
0.000000
31
0.0
0
LINE
8
MCD_Layer_2147876864
10
-608.509766
20
-329.021791
30
0.0
11
-160.028596
21
0.000000
31
0.0
0
LINE
8
MCD_Layer_2147876864
10
-160.028564
20
-74.977738
30
0.0
11
-32.795204
21
0.000000
31
0.0
0
LINE
8
MCD_Layer_2147680256
10
-32.795197
20
-32.796303
30
0.0
11
0.000000
21
0.000000
31
0.0
0
LINE
8
MCD_Layer_2147876864
10
-32.796295
20
-76.876297
30
0.0
11
-168.567170
21
0.000000
31
0.0
0
LINE
8
MCD_Layer_2147876864
10
-168.567139
20
-334.712465
30
0.0
11
-602.572390
21
0.000000
31
0.0
0
LINE
8
MCD_Layer_2147680256
10
-602.572266
20
-608.509890
30
0.0
11
0.000000
21
0.000000
31
0.0
0
LINE
8
MCD_Layer_2147876864
10
-194.554932
20
-50.546242
30
0.0
11
-19.415012
21
0.000000
31
0.0
0
LINE
8
MCD_Layer_2147680256
10
-19.415009
20
-17.461567
30
0.0
11
0.000000
21
0.000000
31
0.0
0
LINE
8
MCD_Layer_2147876864
10
-17.461563
20
-45.091591
30
0.0
11
-186.078522
21
0.000000
31
0.0
0
LINE
8
MCD_Layer_2147680256
10
-186.078491
20
-194.554963
30
0.0
11
0.000000
21
0.000000
31
0.0
0
LINE
8
MCD_Layer_2147680256
10
-7.414391
20
-7.095689
30
0.0
11
0.000000
21
0.000000
31
0.0
0
LINE
8
MCD_Layer_2147876864
10
-0.384576
20
-2.948617
30
0.0
11
-7.414392
21
0.000000
31
0.0
0
LINE
8
MCD_Layer_2147876864
10
-0.360832
20
-2.762570
30
0.0
11
-7.095689
21
0.000000
31
0.0
0
LINE
8
MCD_Layer_2147876864
10
-0.101634
20
-0.320172
30
0.0
11
-1.616431
21
0.000000
31
0.0
0
LINE
8
MCD_Layer_2147876864
10
-0.068181
20
-0.228737
30
0.0
11
-1.533536
21
0.000000
31
0.0
0
LINE
8
MCD_Layer_1
10
-8192.005913
20
-8192.002007
30
0.0
11
0.000000
21
0.000000
31
0.0
0
LINE
8
MCD_Layer_1
10
-8192.002007
20
0.000000
30
0.0
11
0.000000
21
0.000000
31
0.0
0
LINE
8
MCD_Layer_1
10
0.031250
20
0.031250
30
0.0
11
0.000000
21
0.000000
31
0.0
0
ARC
8
MCD_Layer_0
10
0.002594
20
0.001895
40
0.003212
50
216.150295
51
65.270879
0
ARC
8
MCD_Layer_0
10
0.000000
20
0.000000
40
0.000054
50
9.553543
51
360.000000
0
ARC
8
MCD_Layer_0
10
0.000001
20
0.000000
40
0.000001
50
179.991371
51
177.622534
0
ARC
8
MCD_Layer_0
10
0.000031
20
0.000000
40
0.000031
50
180.000000
51
152.140004
0
ARC
8
MCD_Layer_0
10
0.000066
20
0.000014
40
0.000067
50
191.858419
51
93.741140
0
ARC
8
MCD_Layer_0
10
0.000410
20
-0.000038
40
0.000412
50
174.723074
51
132.484858
0
ARC
8
MCD_Layer_0
10
0.000574
20
0.000315
40
0.000655
50
208.767485
51
68.007631
0
ARC
8
MCD_Layer_0
10
0.001969
20
0.000691
40
0.002086
50
199.338305
51
113.151170
0
ARC
8
MCD_Layer_0
10
0.000000
20
0.000000
40
0.000000
50
180.000000
51
175.559560
0
ARC
8
MCD_Layer_0
10
0.002594
20
0.001895
40
0.003212
50
216.151955
51
65.269147
0
ARC
8
MCD_Layer_0
10
0.001969
20
0.001265
40
0.002340
50
212.720936
51
74.111887
0
ARC
8
MCD_Layer_0
10
0.000041
20
0.000025
40
0.000048
50
211.438073
51
63.767034
0
ARC
8
MCD_Layer_0
10
0.000018
20
0.000012
40
0.000022
50
214.971062
51
68.448731
0
ARC
8
MCD_Layer_0
10
0.000000
20
0.000000
40
0.000000
50
180.000000
51
176.488403
0
ARC
8
MCD_Layer_0
10
0.001555
20
-0.000076
40
0.001557
50
177.183696
51
123.683956
0
ARC
8
MCD_Layer_0
10
0.002744
20
0.001646
40
0.003200
50
210.963528
51
83.438614
0
ARC
8
MCD_Layer_0
10
0.000001
20
0.000000
40
0.000001
50
180.000000
51
7.114969
0
ARC
8
MCD_Layer_0
10
0.000000
20
0.000000
40
0.000000
50
180.000000
51
169.599600
0
ARC
8
MCD_Layer_0
10
0.000000
20
0.000000
40
0.000002
50
25.751987
51
0.152192
0
ARC
8
MCD_Layer_0
10
0.000000
20
0.000000
40
0.000001
50
180.000000
51
179.385215
0
ARC
8
MCD_Layer_0
10
0.000053
20
0.000000
40
0.000054
50
181.427107
51
175.149972
0
ARC
8
MCD_Layer_0
10
0.000937
20
-0.000093
40
0.000942
50
174.356767
51
159.751719
0
ARC
8
MCD_Layer_0
10
0.002919
20
0.000773
40
0.003019
50
194.833805
51
110.223538
0
ARC
8
MCD_Layer_0
10
0.004563
20
0.002772
40
0.005339
50
211.282259
51
76.182738
0
ARC
8
MCD_Layer_0
10
0.000000
20
0.000000
40
0.000001
50
180.000000
51
175.559560
0
ARC
8
MCD_Layer_0
10
0.002594
20
0.001895
40
0.003212
50
216.150295
51
65.270879
0
ARC
8
MCD_Layer_0
10
0.002594
20
0.001603
40
0.003049
50
211.724016
51
71.786091
0
ARC
8
MCD_Layer_0
10
0.002313
20
0.002819
40
0.003646
50
230.641577
51
37.961196
0
ARC
8
MCD_Layer_0
10
0.000000
20
0.000000
40
0.000000
50
180.000000
51
4.440440
0
ARC
8
MCD_Layer_0
10
0.003523
20
0.001293
40
0.003753
50
200.147480
51
137.016036
0
ARC
8
MCD_Layer_0
10
0.003523
20
0.001825
40
0.003968
50
207.382871
51
81.239511
0
ARC
8
MCD_Layer_0
10
0.001180
20
0.000517
40
0.001289
50
203.660802
51
108.206902
0
ARC
8
MCD_Layer_0
10
0.001180
20
0.001368
40
0.001807
50
229.208940
51
49.208939
0
ARC
8
MCD_Layer_0
10
0.001180
20
0.000517
40
0.001289
50
203.661622
51
108.207955
0
ARC
8
MCD_Layer_0
10
0.001180
20
0.001368
40
0.001807
50
229.208946
51
49.208947
0
ARC
8
MCD_Layer_0
10
0.003008
20
0.000318
40
0.003024
50
186.041337
51
144.313570
0
ARC
8
MCD_Layer_0
10
0.000979
20
0.000241
40
0.001008
50
193.850970
51
116.980079
0
ARC
8
MCD_Layer_0
10
0.001049
20
0.001318
40
0.001684
50
231.470751
51
57.356518
0
ARC
8
MCD_Layer_0
10
0.000000
20
0.000000
40
0.000000
50
180.000000
51
170.696199
0
ARC
8
MCD_Layer_0
10
0.000000
20
0.000000
40
0.000000
50
180.000000
51
166.786928
0
ARC
8
MCD_Layer_0
10
0.000000
20
0.000000
40
0.000000
50
180.000000
51
153.067737
0
ARC
8
MCD_Layer_0
10
0.000002
20
0.000000
40
0.000003
50
180.311829
51
166.900394
0
ARC
8
MCD_Layer_0
10
0.000057
20
0.000000
40
0.000057
50
180.013764
51
164.679331
0
ARC
8
MCD_Layer_0
10
0.000188
20
0.000001
40
0.000188
50
180.352854
51
134.229230
0
ARC
8
MCD_Layer_0
10
0.001125
20
0.000055
40
0.001127
50
182.846134
51
131.669208
0
ARC
8
MCD_Layer_0
10
0.003907
20
0.000632
40
0.003957
50
189.180659
51
114.753544
0
ARC
8
MCD_Layer_0
10
0.000025
20
0.000285
40
0.000286
50
265.128287
51
320.947299
0
ARC
8
MCD_Layer_0
10
0.000001
20
0.000000
40
0.000001
50
180.000000
51
5.346218
0
ARC
8
MCD_Layer_0
10
-0.000000
20
0.000000
40
0.000000
50
180.000000
51
0.000019
0
ARC
8
MCD_Layer_0
10
0.000054
20
0.000517
40
0.000520
50
264.069701
51
324.874777
0
ARC
8
MCD_Layer_0
10
0.000016
20
0.000000
40
0.000016
50
180.000000
51
28.536064
0
ARC
8
MCD_Layer_0
10
0.000002
20
0.000000
40
0.000002
50
179.952467
51
17.592978
0
ARC
8
MCD_Layer_0
10
0.000056
20
0.000000
40
0.000056
50
179.998493
51
170.743073
0
ARC
8
MCD_Layer_0
10
0.000162
20
0.000008
40
0.000162
50
182.755528
51
130.685201
0
ARC
8
MCD_Layer_0
10
0.001102
20
-0.000128
40
0.001109
50
173.370355
51
134.478186
0
ARC
8
MCD_Layer_0
10
0.003907
20
0.000592
40
0.003951
50
188.612440
51
115.535298
0
ARC
8
MCD_Layer_0
10
0.000000
20
0.000000
40
0.000000
50
180.000000
51
161.861032
0
ARC
8
MCD_Layer_0
10
0.000000
20
0.000000
40
0.000000
50
180.000000
51
171.709253
0
ARC
8
MCD_Layer_0
10
0.000004
20
0.000000
40
0.000004
50
179.897913
51
172.596202
0
ARC
8
MCD_Layer_0
10
0.000061
20
0.000014
40
0.000062
50
192.594421
51
155.352049
0
ARC
8
MCD_Layer_0
10
0.000114
20
0.000045
40
0.000122
50
201.429913
51
86.676015
0
ARC
8
MCD_Layer_0
10
0.000359
20
0.000073
40
0.000366
50
191.564587
51
110.953619
0
ARC
8
MCD_Layer_0
10
0.000831
20
0.000231
40
0.000862
50
195.503857
51
97.548214
0
ARC
8
MCD_Layer_0
10
0.001184
20
0.000666
40
0.001358
50
209.350971
51
69.388312
0
ARC
8
MCD_Layer_0
10
0.001370
20
0.001135
40
0.001779
50
219.654914
51
55.882159
0
ARC
8
MCD_Layer_0
10
0.001140
20
0.001561
40
0.001933
50
233.852103
51
34.153675
0
ARC
8
MCD_Layer_0
10
0.000684
20
0.001486
40
0.001636
50
245.275281
51
12.627155
0
ARC
8
MCD_Layer_0
10
0.000568
20
0.000754
40
0.000944
50
233.026020
51
31.992606
0
ARC
8
MCD_Layer_0
10
0.000222
20
0.000893
40
0.000921
50
256.022261
51
352.646986
0
ARC
8
MCD_Layer_0
10
0.000100
20
0.000330
40
0.000345
50
253.091300
51
357.472563
0
ARC
8
MCD_Layer_0
10
0.000041
20
0.000158
40
0.000163
50
255.497490
51
348.620558
0
ARC
8
MCD_Layer_0
10
0.000020
20
0.000060
40
0.000063
50
251.778663
51
351.276817
0
ARC
8
MCD_Layer_0
10
0.000028
20
0.000000
40
0.000028
50
180.000797
51
71.655605
0
ARC
8
MCD_Layer_0
10
0.000018
20
0.000000
40
0.000018
50
180.000000
51
64.906742
0
ARC
8
MCD_Layer_0
10
0.000016
20
0.000000
40
0.000016
50
180.000000
51
81.401614
0
ARC
8
MCD_Layer_0
10
0.000017
20
0.000000
40
0.000017
50
180.000000
51
96.583686
0
ARC
8
MCD_Layer_0
10
0.000021
20
0.000005
40
0.000021
50
192.983959
51
99.703137
0
ARC
8
MCD_Layer_0
10
0.000001
20
0.000000
40
0.000001
50
180.000000
51
38.227326
0
ARC
8
MCD_Layer_0
10
0.000001
20
0.000000
40
0.000001
50
98.298679
51
92.803249
0
ARC
8
MCD_Layer_0
10
0.000003
20
0.000000
40
0.000003
50
181.248608
51
133.381340
0
ARC
8
MCD_Layer_0
10
0.000008
20
0.000000
40
0.000008
50
180.544938
51
129.092824
0
ARC
8
MCD_Layer_0
10
0.000036
20
0.000000
40
0.000036
50
180.000000
51
147.526189
0
ARC
8
MCD_Layer_0
10
0.000026
20
0.000015
40
0.000031
50
211.397133
51
69.749075
0
ARC
8
MCD_Layer_0
10
0.000099
20
0.000016
40
0.000101
50
189.526528
51
117.458787
0
ARC
8
MCD_Layer_0
10
0.000331
20
0.000071
40
0.000340
50
192.250805
51
113.005380
0
ARC
8
MCD_Layer_0
10
0.001263
20
0.000298
40
0.001298
50
193.264109
51
117.486281
0
ARC
8
MCD_Layer_0
10
0.001649
20
0.001126
40
0.001997
50
214.329858
51
63.935303
0
ARC
8
MCD_Layer_0
10
0.003739
20
0.001612
40
0.004072
50
203.318954
51
96.211417
0
ARC
8
MCD_Layer_0
10
0.004374
20
0.003684
40
0.005718
50
220.102614
51
57.110635
0
ARC
8
MCD_Layer_0
10
0.003743
20
0.004812
40
0.006096
50
232.123608
51
34.808612
0
ARC
8
MCD_Layer_0
10
0.000070
20
0.000248
40
0.000257
50
254.451576
51
349.002166
0
ARC
8
MCD_Layer_0
10
0.000003
20
0.000000
40
0.000002
50
150.993239
51
14.869268
0
ARC
8
MCD_Layer_0
10
0.000000
20
0.000000
40
0.000000
50
180.000000
51
4.549973
0
ARC
8
MCD_Layer_0
10
0.000000
20
0.000000
40
0.000000
50
180.000000
51
180.000000
0
ARC
8
MCD_Layer_0
10
0.000000
20
0.000000
40
0.000000
50
180.000000
51
171.995145
0
ARC
8
MCD_Layer_0
10
0.000000
20
0.000000
40
0.000000
50
180.000000
51
167.800495
0
ARC
8
MCD_Layer_0
10
0.000001
20
0.000000
40
0.000001
50
180.000000
51
138.023189
0
ARC
8
MCD_Layer_0
10
0.000021
20
0.000000
40
0.000021
50
179.999933
51
167.137575
0
ARC
8
MCD_Layer_0
10
0.000026
20
0.000011
40
0.000029
50
203.253946
51
100.328028
0
ARC
8
MCD_Layer_0
10
0.000031
20
0.000026
40
0.000040
50
220.358857
51
56.227197
0
ARC
8
MCD_Layer_0
10
0.000017
20
0.000042
40
0.000046
50
248.184876
51
14.301573
0
ARC
8
MCD_Layer_0
10
0.000112
20
0.000095
40
0.000147
50
220.376404
51
55.096191
0
ARC
8
MCD_Layer_0
10
0.000087
20
0.000133
40
0.000159
50
236.898458
51
30.239403
0
ARC
8
MCD_Layer_0
10
0.000029
20
0.000148
40
0.000151
50
259.076992
51
344.305653
0
ARC
8
MCD_Layer_0
10
0.000001
20
0.000000
40
0.000000
50
180.000000
51
10.402634
0
ARC
8
MCD_Layer_0
10
0.000000
20
0.000000
40
0.000001
50
29.007052
51
360.000000
0
ARC
8
MCD_Layer_0
10
0.001952
20
0.001583
40
0.002515
50
219.086202
51
58.091760
0
ARC
8
MCD_Layer_0
10
0.000045
20
0.000375
40
0.000375
50
263.486815
51
323.800613
0
ARC
8
MCD_Layer_0
10
0.000000
20
0.000000
40
0.000003
50
43.668793
51
3.863778
0
ARC
8
MCD_Layer_0
10
0.000000
20
0.000000
40
0.000000
50
0.359813
51
360.000000
0
ARC
8
MCD_Layer_0
10
0.000000
20
0.000000
40
0.000000
50
178.860674
51
360.000000
0
ARC
8
MCD_Layer_0
10
0.000000
20
0.000000
40
0.000000
50
180.000000
51
156.486755
0
ARC
8
MCD_Layer_0
10
0.000039
20
0.000000
40
0.000039
50
179.721242
51
174.918217
0
ARC
8
MCD_Layer_0
10
0.000117
20
0.000025
40
0.000119
50
191.950009
51
130.625686
0
ARC
8
MCD_Layer_0
10
0.000938
20
0.000033
40
0.000938
50
181.985578
51
138.641579
0
ARC
8
MCD_Layer_0
10
0.001969
20
0.001146
40
0.002278
50
210.200584
51
92.358757
0
ARC
8
MCD_Layer_0
10
-5.270874
20
-259.924013
40
259.977450
50
271.161714
51
88.838286
0
ARC
8
MCD_Layer_0
10
0.000031
20
0.000000
40
0.000031
50
180.000000
51
174.500310
0
ARC
8
MCD_Layer_0
10
0.000143
20
0.000012
40
0.000147
50
185.924491
51
139.610914
0
ARC
8
MCD_Layer_0
10
0.001322
20
0.000160
40
0.001332
50
186.915406
51
140.823174
0
ARC
8
MCD_Layer_0
10
0.003941
20
0.001311
40
0.004153
50
198.399520
51
108.194551
0
ARC
8
MCD_Layer_0
10
0.004534
20
0.003914
40
0.005990
50
220.798349
51
56.029749
0
ARC
8
MCD_Layer_0
10
0.000016
20
0.000402
40
0.000402
50
267.785708
51
312.970064
0
ARC
8
MCD_Layer_0
10
0.000000
20
0.000000
40
0.000004
50
46.010170
51
5.499691
0
ARC
8
MCD_Layer_0
10
0.000000
20
0.000000
40
0.000000
50
1.161714
51
360.000000
0
ARC
8
MCD_Layer_0
10
0.000000
20
0.000000
40
0.000000
50
176.238703
51
360.000000
0
ARC
8
MCD_Layer_0
10
0.000031
20
0.000000
40
0.000031
50
179.666378
51
176.342999
0
ARC
8
MCD_Layer_0
10
0.000227
20
0.000009
40
0.000227
50
182.385404
51
149.622536
0
ARC
8
MCD_Layer_0
10
0.001072
20
0.000064
40
0.001074
50
183.433064
51
125.159874
0
ARC
8
MCD_Layer_0
10
0.002816
20
0.000892
40
0.002954
50
197.587483
51
103.148125
0
ARC
8
MCD_Layer_0
10
0.000011
20
0.000850
40
0.000850
50
269.281928
51
301.389501
0
ARC
8
MCD_Layer_0
10
0.000000
20
0.000000
40
0.000000
50
180.000000
51
3.657001
0
ARC
8
MCD_Layer_0
10
0.000000
20
0.000000
40
0.000000
50
180.000000
51
3.761297
0
ARC
8
MCD_Layer_0
10
0.000000
20
0.000000
40
0.000000
50
180.000000
51
162.914071
0
ARC
8
MCD_Layer_0
10
0.001953
20
0.001584
40
0.002515
50
219.040003
51
58.112780
0
ARC
8
MCD_Layer_0
10
0.000020
20
0.000898
40
0.000898
50
268.698640
51
295.453237
0
ARC
8
MCD_Layer_0
10
0.000026
20
0.000000
40
0.000026
50
179.998456
51
66.037529
0
ARC
8
MCD_Layer_0
10
0.000000
20
0.000000
40
0.000026
50
2.442198
51
360.000000
0
ARC
8
MCD_Layer_0
10
0.000000
20
0.000000
40
0.000000
50
0.454154
51
360.000000
0
ARC
8
MCD_Layer_0
10
0.000011
20
0.000000
40
0.000011
50
180.000009
51
179.274839
0
ARC
8
MCD_Layer_0
10
0.000011
20
0.000000
40
0.000011
50
180.003684
51
92.617416
0
ARC
8
MCD_Layer_0
10
0.000020
20
0.000000
40
0.000020
50
180.008215
51
122.116719
0
ARC
8
MCD_Layer_0
10
0.000000
20
0.000000
40
0.000000
50
180.000000
51
17.085929
0
ARC
8
MCD_Layer_0
10
0.000019
20
0.000028
40
0.000034
50
235.921766
51
21.330942
0
ARC
8
MCD_Layer_0
10
0.000056
20
0.000000
40
0.000056
50
180.221695
51
108.505098
0
ARC
8
MCD_Layer_0
10
0.000428
20
0.000085
40
0.000436
50
191.297506
51
136.315464
0
ARC
8
MCD_Layer_0
10
0.001664
20
0.000553
40
0.001754
50
198.391558
51
117.457870
0
ARC
8
MCD_Layer_0
10
0.001969
20
0.001596
40
0.002534
50
219.024262
51
57.560029
0
ARC
8
MCD_Layer_0
10
0.001969
20
0.001555
40
0.002509
50
218.312776
51
58.874644
0
ARC
8
MCD_Layer_0
10
0.001633
20
0.002209
40
0.002747
50
233.531203
51
32.955770
0
ARC
8
MCD_Layer_0
10
0.001969
20
0.001555
40
0.002509
50
218.310292
51
58.877438
0
ARC
8
MCD_Layer_0
10
0.001633
20
0.002209
40
0.002747
50
233.526569
51
32.959424
0
ARC
8
MCD_Layer_0
10
0.001951
20
0.001583
40
0.002516
50
219.119610
51
58.078722
0
ARC
8
MCD_Layer_0
10
0.001641
20
0.002188
40
0.002734
50
233.131755
51
34.050922
0
ARC
8
MCD_Layer_0
10
0.001953
20
0.001584
40
0.002514
50
219.035912
51
58.116722
0
ARC
8
MCD_Layer_0
10
0.001641
20
0.002188
40
0.002734
50
233.119844
51
34.062353
0
ARC
8
MCD_Layer_0
10
0.001447
20
0.002323
40
0.002737
50
238.087720
51
26.623721
0
ARC
8
MCD_Layer_0
10
0.001947
20
0.001376
40
0.002384
50
215.250411
51
65.777909
0
ARC
8
MCD_Layer_0
10
0.001775
20
0.002076
40
0.002731
50
229.470822
51
39.132915
0
ARC
8
MCD_Layer_0
10
0.001945
20
0.001739
40
0.002612
50
221.815920
51
52.085151
0
ARC
8
MCD_Layer_0
10
0.001525
20
0.002273
40
0.002737
50
236.138007
51
30.062666
0
ARC
8
MCD_Layer_0
10
0.001953
20
0.001481
40
0.002451
50
217.165665
51
62.264915
0
ARC
8
MCD_Layer_0
10
0.001725
20
0.002132
40
0.002734
50
231.233208
51
37.099850
0
ARC
8
MCD_Layer_0
10
0.001931
20
0.001682
40
0.002585
50
221.156682
51
53.834523
0
ARC
8
MCD_Layer_0
10
0.000000
20
0.000000
40
0.000000
50
180.000000
51
164.217264
0
ARC
8
MCD_Layer_0
10
0.001947
20
0.001578
40
0.002506
50
219.017151
51
58.161057
0
ARC
8
MCD_Layer_0
10
0.001634
20
0.002181
40
0.002726
50
233.158683
51
34.014777
0
ARC
8
MCD_Layer_0
10
-0.000000
20
0.000000
40
0.000000
50
180.000000
51
44.261706
0
ARC
8
MCD_Layer_0
10
0.001658
20
0.002226
40
0.002775
50
233.319908
51
33.391023
0
ARC
8
MCD_Layer_0
10
0.000000
20
0.000000
40
0.000000
50
0.229524
51
360.000000
0
ARC
8
MCD_Layer_0
10
0.000000
20
0.000000
40
0.000000
50
180.000000
51
179.532830
0
ARC
8
MCD_Layer_0
10
0.001988
20
0.001585
40
0.002542
50
218.578000
51
58.507059
0
ARC
8
MCD_Layer_0
10
0.001659
20
0.002226
40
0.002775
50
233.306383
51
33.403869
0
ARC
8
MCD_Layer_0
10
-0.000000
20
0.000000
40
0.000000
50
180.000000
51
0.000490
0
ARC
8
MCD_Layer_0
10
0.000000
20
0.000000
40
0.000000
50
180.000000
51
179.985147
0
ARC
8
MCD_Layer_0
10
0.001987
20
0.001585
40
0.002543
50
218.589506
51
58.493872
0
ARC
8
MCD_Layer_0
10
0.001953
20
0.001584
40
0.002515
50
219.051361
51
58.109703
0
ARC
8
MCD_Layer_0
10
0.001641
20
0.002188
40
0.002734
50
233.131755
51
34.050922
0
ARC
8
MCD_Layer_0
10
0.000000
20
0.000000
40
0.000000
50
177.537676
51
360.000000
0
ARC
8
MCD_Layer_0
10
0.000000
20
0.000000
40
0.000000
50
180.000000
51
179.709161
0
ARC
8
MCD_Layer_0
10
0.000048
20
0.000000
40
0.000048
50
180.007180
51
175.721119
0
ARC
8
MCD_Layer_0
10
0.000135
20
-0.000011
40
0.000135
50
175.139173
51
129.997917
0
ARC
8
MCD_Layer_0
10
0.002131
20
0.000362
40
0.002162
50
189.630364
51
149.433873
0
ARC
8
MCD_Layer_0
10
0.004209
20
0.005534
40
0.006953
50
232.742174
51
26.279604
0
ARC
8
MCD_Layer_0
10
0.000002
20
0.000000
40
0.000002
50
180.070711
51
9.980354
0
ARC
8
MCD_Layer_0
10
0.000000
20
0.000000
40
0.000000
50
180.000000
51
176.486351
0
ARC
8
MCD_Layer_0
10
0.005081
20
0.001272
40
0.005238
50
194.059432
51
163.224188
0
ARC
8
MCD_Layer_0
10
0.000000
20
0.000000
40
0.000000
50
180.000000
51
11.091223
0
ARC
8
MCD_Layer_0
10
-0.000000
20
0.000000
40
0.000000
50
0.001106
51
360.000000
0
ARC
8
MCD_Layer_0
10
0.000000
20
0.000000
40
0.000000
50
180.000000
51
179.996389
0
ARC
8
MCD_Layer_0
10
0.000066
20
0.000000
40
0.000066
50
180.006922
51
172.555724
0
ARC
8
MCD_Layer_0
10
0.000000
20
0.000000
40
0.000000
50
180.000000
51
10.737514
0
ARC
8
MCD_Layer_0
10
0.000001
20
0.000000
40
0.000001
50
180.000000
51
178.363506
0
ARC
8
MCD_Layer_0
10
0.000031
20
0.000000
40
0.000031
50
179.998798
51
166.176981
0
ARC
8
MCD_Layer_0
10
0.000024
20
0.000015
40
0.000028
50
210.928533
51
75.413254
0
ARC
8
MCD_Layer_0
10
0.000329
20
0.000037
40
0.000331
50
186.468749
51
131.832189
0
ARC
8
MCD_Layer_0
10
0.001830
20
-0.000119
40
0.001834
50
176.281816
51
129.758772
0
ARC
8
MCD_Layer_0
10
0.003113
20
0.002002
40
0.003701
50
212.752703
51
81.502401
0
ARC
8
MCD_Layer_0
10
0.000054
20
0.000311
40
0.000316
50
260.157104
51
331.061020
0
ARC
8
MCD_Layer_0
10
0.000953
20
0.000628
40
0.001141
50
213.384370
51
75.735818
0
ARC
8
MCD_Layer_0
10
0.000020
20
0.000000
40
0.000021
50
179.999987
51
179.986067
0
ARC
8
MCD_Layer_0
10
0.000003
20
0.000000
40
0.000003
50
181.596060
51
17.615295
0
ARC
8
MCD_Layer_0
10
0.000178
20
-0.000017
40
0.000180
50
174.542604
51
166.303306
0
ARC
8
MCD_Layer_0
10
0.003948
20
0.000904
40
0.004050
50
192.891496
51
152.461621
0
ARC
8
MCD_Layer_0
10
0.000011
20
0.000000
40
0.000011
50
176.072957
51
17.966071
0
ARC
8
MCD_Layer_0
10
0.000000
20
0.000000
40
0.000001
50
180.000000
51
0.317922
0
ARC
8
MCD_Layer_0
10
0.000149
20
-0.000031
40
0.000152
50
168.268760
51
143.887491
0
ARC
8
MCD_Layer_0
10
0.002692
20
0.000351
40
0.002714
50
187.422751
51
144.658666
0
ARC
8
MCD_Layer_0
10
0.000013
20
0.000454
40
0.000454
50
268.401774
51
296.812109
0
ARC
8
MCD_Layer_0
10
0.000048
20
0.000025
40
0.000055
50
207.668546
51
97.975315
0
ARC
8
MCD_Layer_0
10
0.000000
20
0.000000
40
0.000103
50
20.352043
51
360.000000
0
ARC
8
MCD_Layer_0
10
-0.000000
20
0.000000
40
0.000000
50
180.000000
51
0.010595
0
ARC
8
MCD_Layer_0
10
0.000001
20
0.000000
40
0.000002
50
208.907365
51
179.997653
0
ARC
8
MCD_Layer_0
10
0.000053
20
0.000000
40
0.000054
50
180.078408
51
172.809595
0
ARC
8
MCD_Layer_0
10
0.001620
20
0.000160
40
0.001628
50
185.638342
51
164.234876
0
ARC
8
MCD_Layer_0
10
0.000000
20
0.000000
40
0.000000
50
180.000000
51
14.256965
0
ARC
8
MCD_Layer_0
10
0.000000
20
0.000000
40
0.000000
50
0.233013
51
360.000000
0
ARC
8
MCD_Layer_0
10
0.000000
20
0.000000
40
0.000000
50
180.000000
51
179.959740
0
ARC
8
MCD_Layer_0
10
0.000035
20
0.000000
40
0.000035
50
179.997040
51
158.056899
0
ARC
8
MCD_Layer_0
10
0.000000
20
0.000000
40
0.000001
50
180.000000
51
170.773460
0
ARC
8
MCD_Layer_0
10
0.000000
20
0.000000
40
0.000000
50
180.000000
51
10.887133
0
ARC
8
MCD_Layer_0
10
0.001953
20
0.001584
40
0.002514
50
219.035899
51
58.116733
0
ARC
8
MCD_Layer_0
10
0.000020
20
0.000898
40
0.000898
50
268.699380
51
295.453364
0
ARC
8
MCD_Layer_0
10
0.000011
20
0.000000
40
0.000011
50
180.000016
51
23.284809
0
ARC
8
MCD_Layer_0
10
0.000020
20
0.000000
40
0.000020
50
180.000009
51
122.116719
0
ARC
8
MCD_Layer_0
10
0.000019
20
0.000028
40
0.000034
50
235.921758
51
21.330896
0
ARC
8
MCD_Layer_0
10
0.000056
20
0.000000
40
0.000056
50
180.221818
51
108.505107
0
ARC
8
MCD_Layer_0
10
0.000428
20
0.000085
40
0.000436
50
191.297985
51
136.315986
0
ARC
8
MCD_Layer_0
10
0.001711
20
0.000534
40
0.001792
50
197.342190
51
118.507407
0
ARC
8
MCD_Layer_0
10
0.001969
20
0.001631
40
0.002557
50
219.638951
51
55.361866
0
ARC
8
MCD_Layer_0
10
0.000036
20
0.000000
40
0.000039
50
181.558903
51
179.717276
0
ARC
8
MCD_Layer_0
10
0.001709
20
0.000159
40
0.001717
50
185.330099
51
167.066656
0
ARC
8
MCD_Layer_0
10
0.005272
20
0.002729
40
0.005936
50
207.368035
51
108.188916
0
ARC
8
MCD_Layer_0
10
0.000000
20
0.000000
40
0.000000
50
0.135616
51
360.000000
0
ARC
8
MCD_Layer_0
10
0.000000
20
0.000000
40
0.000000
50
180.000000
51
179.864385
0
ARC
8
MCD_Layer_0
10
0.000036
20
0.000000
40
0.000036
50
179.907556
51
179.661379
0
ARC
8
MCD_Layer_0
10
0.000877
20
0.000176
40
0.000894
50
191.333946
51
160.094049
0
ARC
8
MCD_Layer_0
10
0.003131
20
0.001419
40
0.003438
50
204.381952
51
113.632404
0
ARC
8
MCD_Layer_0
10
0.000000
20
0.000000
40
0.000000
50
180.000000
51
0.338621
0
ARC
8
MCD_Layer_0
10
0.000000
20
0.000000
40
0.000000
50
0.640288
51
360.000000
0
ARC
8
MCD_Layer_0
10
0.000000
20
0.000000
40
0.000000
50
180.000000
51
179.868255
0
ARC
8
MCD_Layer_0
10
0.000022
20
0.000013
40
0.000026
50
210.278355
51
148.276351
0
ARC
8
MCD_Layer_0
10
0.000024
20
0.000000
40
0.000024
50
180.000000
51
61.008136
0
ARC
8
MCD_Layer_0
10
0.000045
20
0.000086
40
0.000097
50
242.077683
51
7.086298
0
ARC
8
MCD_Layer_0
10
0.000366
20
-0.000109
40
0.000382
50
163.329492
51
136.035471
0
ARC
8
MCD_Layer_0
10
0.004191
20
0.005361
40
0.006804
50
231.983714
51
26.944102
0
ARC
8
MCD_Layer_0
10
0.000000
20
0.000000
40
0.000000
50
180.000000
51
5.868874
0
ARC
8
MCD_Layer_0
10
0.000000
20
0.000000
40
0.000000
50
0.003619
51
360.000000
0
ARC
8
MCD_Layer_0
10
0.000000
20
0.000000
40
0.000002
50
225.620397
51
178.776341
0
ARC
8
MCD_Layer_0
10
0.000032
20
0.000000
40
0.000033
50
182.376709
51
174.462998
0
ARC
8
MCD_Layer_0
10
0.000147
20
0.000016
40
0.000148
50
186.226855
51
141.273446
0
ARC
8
MCD_Layer_0
10
0.001344
20
0.000167
40
0.001354
50
187.078776
51
140.761308
0
ARC
8
MCD_Layer_0
10
0.003984
20
0.001344
40
0.004205
50
198.637271
51
107.964894
0
ARC
8
MCD_Layer_0
10
0.004578
20
0.003957
40
0.006051
50
220.836422
51
55.921487
0
ARC
8
MCD_Layer_0
10
0.001281
20
0.000202
40
0.001297
50
188.968989
51
116.084667
0
ARC
8
MCD_Layer_0
10
0.002797
20
0.001451
40
0.003151
50
207.426219
51
94.265843
0
ARC
8
MCD_Layer_0
10
0.000014
20
0.000841
40
0.000841
50
269.014958
51
301.914061
0
ARC
8
MCD_Layer_0
10
0.000000
20
0.000000
40
0.000000
50
180.000000
51
3.732823
0
ARC
8
MCD_Layer_0
10
0.000000
20
0.000000
40
0.000000
50
180.000000
51
174.127695
0
ARC
8
MCD_Layer_0
10
0.000000
20
0.000000
40
0.000000
50
180.000000
51
162.914071
0
ARC
8
MCD_Layer_0
10
0.001953
20
0.001584
40
0.002515
50
219.038193
51
58.114522
0
ARC
8
MCD_Layer_0
10
0.001969
20
0.001265
40
0.002340
50
212.720927
51
74.111878
0
ARC
8
MCD_Layer_0
10
0.000041
20
0.000025
40
0.000048
50
211.438073
51
63.767034
0
ARC
8
MCD_Layer_0
10
0.000031
20
0.000000
40
0.000031
50
180.001559
51
108.964892
0
ARC
8
MCD_Layer_0
10
0.000000
20
0.000000
40
0.000000
50
180.000000
51
177.037616
0
ARC
8
MCD_Layer_0
10
0.001946
20
0.001583
40
0.002519
50
219.274727
51
57.999589
0
ARC
8
MCD_Layer_0
10
0.001643
20
0.002187
40
0.002733
50
233.102024
51
34.079435
0
ARC
8
MCD_Layer_0
10
0.000000
20
0.000000
40
0.000000
50
180.000000
51
17.085929
0
ARC
8
MCD_Layer_0
10
4802.982088
20
5381.270845
40
7212.927642
50
228.249866
51
39.603452
0
ARC
8
MCD_Layer_0
10
4721.586910
20
4506.212010
40
6526.816194
50
223.662971
51
47.233659
0
ARC
8
MCD_Layer_0
10
6776.626590
20
6687.039201
40
9520.448131
50
224.618757
51
45.635252
0
ARC
8
MCD_Layer_0
10
21522.098568
20
22875.340158
40
31408.308327
50
226.745845
51
41.006408
0
ARC
8
MCD_Layer_0
10
277.450749
20
202.183471
40
343.303170
50
216.081514
51
75.937559
0
ARC
8
MCD_Layer_0
10
227.712432
20
185.771738
40
293.877679
50
219.208160
51
56.689137
0
ARC
8
MCD_Layer_0
10
26842.475567
20
25225.674880
40
36835.483606
50
223.221438
51
45.469705
0
ARC
8
MCD_Layer_0
10
4041.189654
20
4591.387239
40
6116.553672
50
228.646747
51
34.961593
0
ARC
8
MCD_Layer_0
10
7929.401307
20
7722.950753
40
11068.847044
50
224.244327
51
44.023641
0
ARC
8
MCD_Layer_0
10
17247.105392
20
14721.481341
40
22675.640197
50
220.482826
51
63.884952
0
ARC
8
MCD_Layer_0
10
311.009337
20
297.896088
40
430.660988
50
223.766282
51
48.520084
0
ARC
8
MCD_Layer_0
10
5092.776501
20
5285.810713
40
7340.125187
50
226.065482
51
42.935741
0
ARC
8
MCD_Layer_0
10
8916.788090
20
9954.729975
40
13364.366074
50
228.148119
51
39.822130
0
ARC
8
MCD_Layer_1
10
3767.856930
20
3737.534504
40
5307.156491
50
224.768521
51
45.343841
0
ARC
8
MCD_Layer_0
10
7072.856606
20
6197.682859
40
9404.092484
50
221.226892
51
51.351847
0
ARC
8
MCD_Layer_1
10
12992.287983
20
13647.291993
40
18842.741077
50
226.408481
51
42.663503
0
ARC
8
MCD_Layer_0
10
40557.180215
20
42296.900868
40
58599.638798
50
226.202880
51
42.996876
0
ARC
8
MCD_Layer_0
10
28755.477400
20
31857.009509
40
42915.578579
50
227.929261
51
39.960535
0
ARC
8
MCD_Layer_0
10
27593.768023
20
27777.256578
40
39153.388966
50
225.189871
51
44.681305
0
ARC
8
MCD_Layer_0
10
27446.068363
20
27592.313792
40
38918.015615
50
225.152259
51
44.787897
0
ARC
8
MCD_Layer_0
10
27114.472638
20
26182.512832
40
37692.421050
50
223.998219
51
46.780218
0
ARC
8
MCD_Layer_0
10
25092.821141
20
22370.065221
40
33616.172568
50
221.716704
51
50.731856
0
ARC
8
MCD_Layer_0
10
431.318666
20
420.629788
40
602.467685
50
224.281035
51
45.514156
0
ARC
8
MCD_Layer_0
10
2118.246565
20
2235.610910
40
3079.760486
50
226.544114
51
41.589750
0
ARC
8
MCD_Layer_0
10
884.631590
20
889.499256
40
1254.505188
50
225.157182
51
44.205688
0
ARC
8
MCD_Layer_0
10
4505.743013
20
4700.545441
40
6511.286334
50
226.212182
51
41.698549
0
ARC
8
MCD_Layer_1
10
9511.986259
20
9531.123609
40
13465.518922
50
225.057579
51
41.555138
0
ARC
8
MCD_Layer_1
10
9700.177654
20
9209.651187
40
13375.766203
50
223.514064
51
44.672954
0
ARC
8
MCD_Layer_0
10
152.913728
20
127.613611
40
199.158687
50
219.846842
51
61.278277
0
ARC
8
MCD_Layer_0
10
264.238499
20
221.649233
40
344.875866
50
219.988475
51
55.173581
0
ARC
8
MCD_Layer_0
10
450.592193
20
520.860914
40
689.533153
50
229.171037
51
36.977530
0
ARC
8
MCD_Layer_0
10
2164.289356
20
2111.006516
40
3023.322942
50
224.285913
51
46.095532
0
ARC
8
MCD_Layer_0
10
961.916287
20
853.053202
40
1285.679142
50
221.567258
51
50.122643
0
CIRCLE
8
MCD_Layer_0
10
0.000000
20
0.007812
40
0.007812
0
CIRCLE
8
MCD_Layer_0
10
0.000006
20
0.000000
40
0.000006
0
CIRCLE
8
MCD_Layer_0
10
0.000000
20
0.007813
40
0.007813
0
CIRCLE
8
MCD_Layer_0
10
0.000000
20
0.000011
40
0.000011
0
CIRCLE
8
MCD_Layer_1
10
0.000000
20
-8192.005913
40
8192.005913
0
ENDSEC
0
EOF
