0
SECTION
2
ENTITIES
0
LINE
8
MCD_Layer_0
10
0.000000
20
0.000000
30
0.0
11
-0.519531
21
0.256012
31
0.0
0
LINE
8
MCD_Layer_0
10
0.495605
20
-0.335999
30
0.0
11
-0.515869
21
-0.543976
31
0.0
0
LINE
8
MCD_Layer_0
10
0.031982
20
-0.514954
30
0.0
11
-0.751984
21
0.494934
31
0.0
0
LINE
8
MCD_Layer_0
10
0.031982
20
-0.514954
30
0.0
11
0.256012
21
0.494629
31
0.0
0
LINE
8
MCD_Layer_0
10
-0.015991
20
-0.513062
30
0.0
11
0.256012
21
0.494629
31
0.0
0
LINE
8
MCD_Layer_0
10
-0.015991
20
-0.513062
30
0.0
11
0.000000
21
0.496094
31
0.0
0
LINE
8
MCD_Layer_0
10
-0.960022
20
0.487640
30
0.0
11
0.000000
21
0.496094
31
0.0
0
LINE
8
MCD_Layer_0
10
0.480011
20
-0.515320
30
0.0
11
0.048004
21
0.480499
31
0.0
0
LINE
8
MCD_Layer_0
10
-0.927979
20
0.484406
30
0.0
11
0.048004
21
0.480499
31
0.0
0
LINE
8
MCD_Layer_0
10
-0.943970
20
0.487000
30
0.0
11
-0.992004
21
0.485016
31
0.0
0
LINE
8
MCD_Layer_0
10
-0.943970
20
0.487000
30
0.0
11
-0.015991
21
0.486938
31
0.0
0
LINE
8
MCD_Layer_0
10
-0.496002
20
0.488586
30
0.0
11
-0.015991
21
0.486938
31
0.0
0
LINE
8
MCD_Layer_0
10
-0.496002
20
0.488586
30
0.0
11
0.000000
21
0.000000
31
0.0
0
LINE
8
MCD_Layer_0
10
-0.496002
20
-0.511414
30
0.0
11
0.000000
21
0.000000
31
0.0
0
LINE
8
MCD_Layer_0
10
0.256012
20
-0.510254
30
0.0
11
0.000000
21
0.000000
31
0.0
0
LINE
8
MCD_Layer_0
10
0.256012
20
-0.510254
30
0.0
11
0.000000
21
0.480469
31
0.0
0
LINE
8
MCD_Layer_0
10
0.656006
20
-0.510651
30
0.0
11
0.000000
21
0.480469
31
0.0
0
LINE
8
MCD_Layer_0
10
-0.303986
20
-0.511292
30
0.0
11
0.879974
21
0.482330
31
0.0
0
LINE
8
MCD_Layer_0
10
0.143555
20
-0.531158
30
0.0
11
-0.576019
21
0.496185
31
0.0
0
LINE
8
MCD_Layer_0
10
0.767975
20
0.488770
30
0.0
11
0.783997
21
0.482269
31
0.0
0
LINE
8
MCD_Layer_0
10
-0.272003
20
0.489380
30
0.0
11
0.000000
21
0.480469
31
0.0
0
LINE
8
MCD_Layer_0
10
0.256012
20
0.489746
30
0.0
11
0.000000
21
0.480469
31
0.0
0
LINE
8
MCD_Layer_0
10
0.256012
20
0.489746
30
0.0
11
0.000000
21
0.000000
31
0.0
0
LINE
8
MCD_Layer_0
10
0.943970
20
0.483673
30
0.0
11
0.000000
21
0.000000
31
0.0
0
LINE
8
MCD_Layer_0
10
0.943970
20
0.483673
30
0.0
11
0.000000
21
0.480469
31
0.0
0
LINE
8
MCD_Layer_0
10
-0.608032
20
0.485260
30
0.0
11
0.000000
21
0.480469
31
0.0
0
LINE
8
MCD_Layer_0
10
0.351990
20
0.485901
30
0.0
11
0.591980
21
0.482147
31
0.0
0
LINE
8
MCD_Layer_0
10
0.752075
20
0.483551
30
0.0
11
-0.496002
21
0.488586
31
0.0
0
LINE
8
MCD_Layer_0
10
-0.415985
20
-0.514618
30
0.0
11
-0.496002
21
0.488586
31
0.0
0
LINE
8
MCD_Layer_0
10
0.320007
20
-0.512817
30
0.0
11
0.496002
21
0.482086
31
0.0
0
LINE
8
MCD_Layer_0
10
-0.639984
20
-0.513458
30
0.0
11
0.000000
21
0.480469
31
0.0
0
LINE
8
MCD_Layer_0
10
-0.511993
20
-0.514679
30
0.0
11
0.000000
21
0.480469
31
0.0
0
LINE
8
MCD_Layer_0
10
-0.511993
20
-0.514679
30
0.0
11
0.000000
21
0.000000
31
0.0
0
LINE
8
MCD_Layer_0
10
0.720032
20
-0.515167
30
0.0
11
0.992004
21
0.489563
31
0.0
0
LINE
8
MCD_Layer_0
10
0.368164
20
-0.524506
30
0.0
11
0.783966
21
0.493988
31
0.0
0
LINE
8
MCD_Layer_0
10
-0.976074
20
0.482422
30
0.0
11
0.992004
21
0.489563
31
0.0
0
LINE
8
MCD_Layer_0
10
0.303314
20
0.488434
30
0.0
11
-0.767975
21
0.496063
31
0.0
0
LINE
8
MCD_Layer_0
10
0.303314
20
0.488434
30
0.0
11
-0.767975
21
0.494110
31
0.0
0
LINE
8
MCD_Layer_0
10
0.245117
20
0.486664
30
0.0
11
-0.767975
21
0.494110
31
0.0
0
LINE
8
MCD_Layer_0
10
0.245117
20
0.486664
30
0.0
11
-0.511993
21
0.494598
31
0.0
0
LINE
8
MCD_Layer_0
10
-0.935730
20
0.486664
30
0.0
11
-0.025604
21
0.488495
31
0.0
0
LINE
8
MCD_Layer_0
10
-0.877472
20
0.488434
30
0.0
11
-0.025604
21
0.488495
31
0.0
0
LINE
8
MCD_Layer_0
10
0.245117
20
0.486664
30
0.0
11
-0.863983
21
0.496002
31
0.0
0
LINE
8
MCD_Layer_0
10
0.245117
20
0.486664
30
0.0
11
-0.767975
21
0.496063
31
0.0
0
LINE
8
MCD_Layer_0
10
0.064026
20
-0.510864
30
0.0
11
0.000000
21
0.000000
31
0.0
0
LINE
8
MCD_Layer_0
10
0.064026
20
-0.510864
30
0.0
11
0.000000
21
0.480469
31
0.0
0
LINE
8
MCD_Layer_0
10
-0.636780
20
-0.511536
30
0.0
11
0.000000
21
0.480469
31
0.0
0
LINE
8
MCD_Layer_0
10
-0.281555
20
-0.511993
30
0.0
11
0.015991
21
0.481781
31
0.0
0
LINE
8
MCD_Layer_0
10
-0.281555
20
-0.511993
30
0.0
11
-0.342377
21
0.495422
31
0.0
0
LINE
8
MCD_Layer_0
10
-0.636780
20
-0.511536
30
0.0
11
-0.102386
21
0.495575
31
0.0
0
LINE
8
MCD_Layer_0
10
0.064026
20
-0.510864
30
0.0
11
-0.102386
21
0.495575
31
0.0
0
LINE
8
MCD_Layer_0
10
0.064026
20
-0.510864
30
0.0
11
0.000000
21
0.496094
31
0.0
0
LINE
8
MCD_Layer_0
10
-0.207886
20
-0.519043
30
0.0
11
0.000000
21
0.496094
31
0.0
0
LINE
8
MCD_Layer_0
10
-0.207886
20
-0.519043
30
0.0
11
-0.102386
21
0.495575
31
0.0
0
LINE
8
MCD_Layer_0
10
0.547302
20
-0.516449
30
0.0
11
-0.102386
21
0.495575
31
0.0
0
LINE
8
MCD_Layer_0
10
0.281647
20
-0.515381
30
0.0
11
-0.342377
21
0.495422
31
0.0
0
LINE
8
MCD_Layer_0
10
0.281647
20
-0.515381
30
0.0
11
0.000031
21
0.493652
31
0.0
0
LINE
8
MCD_Layer_0
10
0.281555
20
0.484619
30
0.0
11
0.000031
21
0.493652
31
0.0
0
LINE
8
MCD_Layer_0
10
0.281555
20
0.484619
30
0.0
11
-0.342377
21
0.495422
31
0.0
0
LINE
8
MCD_Layer_0
10
0.547119
20
0.483551
30
0.0
11
-0.102386
21
0.495575
31
0.0
0
LINE
8
MCD_Layer_0
10
0.515137
20
0.480927
30
0.0
11
-0.102386
21
0.495575
31
0.0
0
LINE
8
MCD_Layer_0
10
0.515137
20
0.480927
30
0.0
11
0.000000
21
0.496094
31
0.0
0
LINE
8
MCD_Layer_0
10
-0.447998
20
0.489105
30
0.0
11
0.000000
21
0.496094
31
0.0
0
LINE
8
MCD_Layer_0
10
-0.447998
20
0.489105
30
0.0
11
-0.102386
21
0.495575
31
0.0
0
LINE
8
MCD_Layer_0
10
-0.636780
20
0.488464
30
0.0
11
-0.102386
21
0.495575
31
0.0
0
LINE
8
MCD_Layer_0
10
-0.281616
20
0.488007
30
0.0
11
-0.342377
21
0.495422
31
0.0
0
LINE
8
MCD_Layer_0
10
-0.281616
20
0.488007
30
0.0
11
0.015991
21
0.481781
31
0.0
0
LINE
8
MCD_Layer_0
10
-0.636780
20
0.488464
30
0.0
11
0.000000
21
0.480469
31
0.0
0
LINE
8
MCD_Layer_0
10
0.064026
20
0.489136
30
0.0
11
0.000000
21
0.480469
31
0.0
0
LINE
8
MCD_Layer_0
10
0.064026
20
0.489136
30
0.0
11
0.000000
21
0.000000
31
0.0
0
LINE
8
MCD_Layer_0
10
-0.256104
20
0.480927
30
0.0
11
0.000000
21
0.000000
31
0.0
0
LINE
8
MCD_Layer_0
10
-0.256104
20
0.480927
30
0.0
11
0.000000
21
0.480469
31
0.0
0
LINE
8
MCD_Layer_0
10
0.547119
20
0.483551
30
0.0
11
0.000000
21
0.480469
31
0.0
0
LINE
8
MCD_Layer_0
10
0.281555
20
0.484619
30
0.0
11
0.015991
21
0.481781
31
0.0
0
LINE
8
MCD_Layer_0
10
0.281555
20
0.484619
30
0.0
11
0.000000
21
0.493164
31
0.0
0
LINE
8
MCD_Layer_0
10
0.281647
20
-0.515381
30
0.0
11
0.000000
21
0.493164
31
0.0
0
LINE
8
MCD_Layer_0
10
0.281647
20
-0.515381
30
0.0
11
0.015991
21
0.481781
31
0.0
0
LINE
8
MCD_Layer_0
10
0.547302
20
-0.516449
30
0.0
11
0.000000
21
0.480469
31
0.0
0
LINE
8
MCD_Layer_0
10
-0.255859
20
-0.519073
30
0.0
11
0.000000
21
0.480469
31
0.0
0
LINE
8
MCD_Layer_0
10
-0.255859
20
-0.519073
30
0.0
11
0.000000
21
0.000000
31
0.0
0
LINE
8
MCD_Layer_0
10
0.880005
20
-0.510834
30
0.0
11
0.000000
21
0.000000
31
0.0
0
LINE
8
MCD_Layer_0
10
0.880005
20
-0.510834
30
0.0
11
0.000000
21
0.480469
31
0.0
0
LINE
8
MCD_Layer_0
10
0.179199
20
-0.511475
30
0.0
11
0.000000
21
0.480469
31
0.0
0
LINE
8
MCD_Layer_0
10
-0.649597
20
-0.511902
30
0.0
11
0.015991
21
0.481781
31
0.0
0
LINE
8
MCD_Layer_0
10
-0.649597
20
-0.511902
30
0.0
11
-0.342377
21
0.495422
31
0.0
0
LINE
8
MCD_Layer_0
10
0.179199
20
-0.511475
30
0.0
11
-0.102386
21
0.495575
31
0.0
0
LINE
8
MCD_Layer_0
10
0.880005
20
-0.510834
30
0.0
11
-0.102386
21
0.495575
31
0.0
0
LINE
8
MCD_Layer_0
10
0.880005
20
-0.510834
30
0.0
11
0.000000
21
0.496094
31
0.0
0
LINE
8
MCD_Layer_0
10
0.096008
20
-0.519470
30
0.0
11
-0.102386
21
0.496063
31
0.0
0
LINE
8
MCD_Layer_0
10
0.617615
20
0.488739
30
0.0
11
0.515167
21
0.478973
31
0.0
0
LINE
8
MCD_Layer_0
10
0.880005
20
0.489166
30
0.0
11
-0.784027
21
-0.533081
31
0.0
0
LINE
8
MCD_Layer_0
10
-0.086395
20
-0.515320
30
0.0
11
0.678406
21
0.491577
31
0.0
0
LINE
8
MCD_Layer_0
10
-0.086395
20
-0.515320
30
0.0
11
0.015991
21
0.481781
31
0.0
0
LINE
8
MCD_Layer_0
10
-0.188782
20
-0.516296
30
0.0
11
0.000000
21
0.480469
31
0.0
0
LINE
8
MCD_Layer_0
10
-0.991943
20
-0.518890
30
0.0
11
0.000000
21
0.480469
31
0.0
0
LINE
8
MCD_Layer_0
10
-0.991943
20
-0.518890
30
0.0
11
0.000000
21
0.000000
31
0.0
0
LINE
8
MCD_Layer_0
10
-0.086395
20
-0.515320
30
0.0
11
-0.172791
21
0.492340
31
0.0
0
LINE
8
MCD_Layer_0
10
-0.086395
20
-0.515320
30
0.0
11
-0.342377
21
0.495422
31
0.0
0
LINE
8
MCD_Layer_0
10
0.256012
20
-0.510254
30
0.0
11
-0.127838
21
0.496063
31
0.0
0
LINE
8
MCD_Layer_0
10
-0.016052
20
-0.516968
30
0.0
11
-0.127838
21
0.496063
31
0.0
0
LINE
8
MCD_Layer_0
10
-0.016052
20
-0.516968
30
0.0
11
0.025757
21
0.495605
31
0.0
0
LINE
8
MCD_Layer_0
10
0.911987
20
-0.515045
30
0.0
11
0.025757
21
0.495605
31
0.0
0
LINE
8
MCD_Layer_0
10
-0.176025
20
-0.514465
30
0.0
11
-0.822205
21
0.495361
31
0.0
0
LINE
8
MCD_Layer_0
10
0.144043
20
0.476654
30
0.0
11
0.432159
21
0.492218
31
0.0
0
LINE
8
MCD_Layer_0
10
0.272034
20
0.487152
30
0.0
11
-0.822205
21
0.495361
31
0.0
0
LINE
8
MCD_Layer_0
10
-0.639954
20
0.486542
30
0.0
11
0.025757
21
0.495605
31
0.0
0
LINE
8
MCD_Layer_0
10
-0.751953
20
0.485168
30
0.0
11
0.025757
21
0.495605
31
0.0
0
LINE
8
MCD_Layer_0
10
-0.751953
20
0.485168
30
0.0
11
-0.127838
21
0.496063
31
0.0
0
LINE
8
MCD_Layer_0
10
-0.751953
20
0.485168
30
0.0
11
-0.563202
21
0.496063
31
0.0
0
LINE
8
MCD_Layer_0
10
0.256012
20
0.489746
30
0.0
11
-0.563202
21
0.496063
31
0.0
0
LINE
8
MCD_Layer_0
10
0.256012
20
0.489746
30
0.0
11
-0.409607
21
0.495575
31
0.0
0
LINE
8
MCD_Layer_0
10
-0.607941
20
0.489166
30
0.0
11
-0.409607
21
0.495575
31
0.0
0
LINE
8
MCD_Layer_0
10
-0.063995
20
0.488861
30
0.0
11
-0.553589
21
0.495483
31
0.0
0
LINE
8
MCD_Layer_0
10
0.047974
20
0.480499
30
0.0
11
-0.118408
21
0.490845
31
0.0
0
LINE
8
MCD_Layer_0
10
0.047974
20
0.480499
30
0.0
11
0.752319
21
0.490875
31
0.0
0
LINE
8
MCD_Layer_0
10
0.047974
20
0.480499
30
0.0
11
0.174164
21
0.481750
31
0.0
0
LINE
8
MCD_Layer_0
10
-0.031982
20
0.481720
30
0.0
11
0.254150
21
0.480499
31
0.0
0
LINE
8
MCD_Layer_0
10
0.528015
20
0.484711
30
0.0
11
0.254150
21
0.480499
31
0.0
0
LINE
8
MCD_Layer_0
10
0.528015
20
0.484711
30
0.0
11
-0.204346
21
-0.550720
31
0.0
0
LINE
8
MCD_Layer_0
10
0.943970
20
-0.516327
30
0.0
11
-0.204346
21
-0.550720
31
0.0
0
LINE
8
MCD_Layer_0
10
0.943970
20
-0.516327
30
0.0
11
0.254150
21
0.480499
31
0.0
0
LINE
8
MCD_Layer_0
10
-0.095947
20
-0.519623
30
0.0
11
0.254150
21
0.480499
31
0.0
0
LINE
8
MCD_Layer_0
10
0.063965
20
-0.522095
30
0.0
11
0.174164
21
0.481750
31
0.0
0
LINE
8
MCD_Layer_0
10
0.063965
20
-0.522095
30
0.0
11
0.752319
21
0.490875
31
0.0
0
LINE
8
MCD_Layer_0
10
0.864014
20
-0.511169
30
0.0
11
-0.118225
21
0.495483
31
0.0
0
LINE
8
MCD_Layer_0
10
0.320007
20
-0.510864
30
0.0
11
0.025757
21
0.495605
31
0.0
0
LINE
8
MCD_Layer_0
10
0.256012
20
-0.510254
30
0.0
11
0.025757
21
0.495605
31
0.0
0
LINE
8
MCD_Layer_0
10
0.219086
20
-0.511017
30
0.0
11
0.000000
21
0.496094
31
0.0
0
LINE
8
MCD_Layer_0
10
0.728760
20
-0.519775
30
0.0
11
0.051208
21
0.496094
31
0.0
0
LINE
8
MCD_Layer_0
10
-0.167236
20
-0.522980
30
0.0
11
0.000000
21
0.000000
31
0.0
0
LINE
8
MCD_Layer_0
10
0.219086
20
-0.511017
30
0.0
11
0.000000
21
0.000000
31
0.0
0
LINE
8
MCD_Layer_0
10
0.219086
20
-0.511017
30
0.0
11
0.000000
21
0.480469
31
0.0
0
LINE
8
MCD_Layer_0
10
-0.788910
20
-0.511688
30
0.0
11
0.000000
21
0.480469
31
0.0
0
LINE
8
MCD_Layer_0
10
-0.585815
20
-0.512299
30
0.0
11
0.015991
21
0.481781
31
0.0
0
LINE
8
MCD_Layer_0
10
-0.585815
20
-0.512299
30
0.0
11
-0.239960
21
0.495422
31
0.0
0
LINE
8
MCD_Layer_0
10
-0.788910
20
-0.511688
30
0.0
11
0.000031
21
0.495605
31
0.0
0
LINE
8
MCD_Layer_0
10
0.219086
20
-0.511017
30
0.0
11
0.000031
21
0.495605
31
0.0
0
LINE
8
MCD_Layer_0
10
0.821899
20
-0.515717
30
0.0
11
-0.614410
21
0.495575
31
0.0
0
LINE
8
MCD_Layer_0
10
0.821899
20
-0.515717
30
0.0
11
0.169586
21
0.480316
31
0.0
0
LINE
8
MCD_Layer_0
10
-0.637817
20
-0.520935
30
0.0
11
0.169586
21
0.480316
31
0.0
0
LINE
8
MCD_Layer_0
10
0.322266
20
-0.520294
30
0.0
11
-0.665619
21
0.495575
31
0.0
0
LINE
8
MCD_Layer_0
10
0.496002
20
-0.512054
30
0.0
11
0.000000
21
0.496094
31
0.0
0
LINE
8
MCD_Layer_0
10
0.527985
20
0.486664
30
0.0
11
0.000000
21
0.496094
31
0.0
0
LINE
8
MCD_Layer_0
10
0.527985
20
0.486664
30
0.0
11
-0.623993
21
0.494690
31
0.0
0
LINE
8
MCD_Layer_0
10
0.067230
20
0.485199
30
0.0
11
-0.623993
21
0.494690
31
0.0
0
LINE
8
MCD_Layer_0
10
0.067230
20
0.485199
30
0.0
11
-0.751984
21
0.494934
31
0.0
0
LINE
8
MCD_Layer_0
10
0.166443
20
0.480835
30
0.0
11
0.256012
21
0.495605
31
0.0
0
LINE
8
MCD_Layer_0
10
0.000000
20
-0.519531
30
0.0
11
0.256012
21
0.495605
31
0.0
0
LINE
8
MCD_Layer_0
10
0.000000
20
-0.519531
30
0.0
11
-0.870392
21
0.493134
31
0.0
0
LINE
8
MCD_Layer_0
10
0.409607
20
0.480469
30
0.0
11
-0.870392
21
0.493134
31
0.0
0
LINE
8
MCD_Layer_0
10
0.425598
20
0.481781
30
0.0
11
-0.630371
21
0.493286
31
0.0
0
LINE
8
MCD_Layer_0
10
0.425598
20
0.481781
30
0.0
11
0.505585
21
0.493713
31
0.0
0
LINE
8
MCD_Layer_0
10
-0.787201
20
0.485016
30
0.0
11
0.505585
21
0.493713
31
0.0
0
LINE
8
MCD_Layer_0
10
-0.787201
20
0.485016
30
0.0
11
-0.239990
21
0.492004
31
0.0
0
LINE
8
MCD_Layer_0
10
0.425598
20
0.481781
30
0.0
11
-0.239990
21
0.492004
31
0.0
0
LINE
8
MCD_Layer_0
10
0.425598
20
0.481781
30
0.0
11
-0.496002
21
0.492493
31
0.0
0
LINE
8
MCD_Layer_0
10
0.409607
20
0.480469
30
0.0
11
0.256012
21
0.492676
31
0.0
0
LINE
8
MCD_Layer_0
10
0.000000
20
-0.519531
30
0.0
11
0.256012
21
0.492676
31
0.0
0
LINE
8
MCD_Layer_0
10
0.000000
20
-0.519531
30
0.0
11
0.048004
21
0.480499
31
0.0
0
LINE
8
MCD_Layer_0
10
-0.758362
20
0.482300
30
0.0
11
0.048004
21
0.480499
31
0.0
0
LINE
8
MCD_Layer_0
10
0.652802
20
0.485962
30
0.0
11
-0.992004
21
0.485016
31
0.0
0
LINE
8
MCD_Layer_0
10
0.652802
20
0.485962
30
0.0
11
-0.496002
21
0.486633
31
0.0
0
LINE
8
MCD_Layer_0
10
0.496002
20
0.487946
30
0.0
11
-0.496002
21
0.486633
31
0.0
0
LINE
8
MCD_Layer_0
10
0.496002
20
0.487946
30
0.0
11
0.000000
21
0.000000
31
0.0
0
LINE
8
MCD_Layer_0
10
0.496002
20
-0.512054
30
0.0
11
0.000000
21
0.000000
31
0.0
0
LINE
8
MCD_Layer_0
10
0.496002
20
-0.512054
30
0.0
11
0.000000
21
0.480469
31
0.0
0
LINE
8
MCD_Layer_0
10
0.000000
20
-0.513672
30
0.0
11
0.000000
21
0.480469
31
0.0
0
LINE
8
MCD_Layer_0
10
0.992004
20
-0.514343
30
0.0
11
0.015991
21
0.481781
31
0.0
0
LINE
8
MCD_Layer_0
10
0.992004
20
-0.514343
30
0.0
11
0.016022
21
0.495453
31
0.0
0
LINE
8
MCD_Layer_0
10
0.000000
20
-0.513672
30
0.0
11
0.256012
21
0.495605
31
0.0
0
LINE
8
MCD_Layer_0
10
0.496002
20
-0.512054
30
0.0
11
0.256012
21
0.495605
31
0.0
0
LINE
8
MCD_Layer_0
10
0.396423
20
-0.511078
30
0.0
11
0.000000
21
0.000000
31
0.0
0
LINE
8
MCD_Layer_0
10
0.396423
20
-0.511078
30
0.0
11
-0.723206
21
0.480499
31
0.0
0
LINE
8
MCD_Layer_0
10
0.776855
20
-0.511749
30
0.0
11
-0.723206
21
0.480499
31
0.0
0
LINE
8
MCD_Layer_0
10
-0.231140
20
-0.512421
30
0.0
11
-0.707214
21
0.481812
31
0.0
0
LINE
8
MCD_Layer_0
10
-0.231140
20
-0.512421
30
0.0
11
-0.649597
21
0.495422
31
0.0
0
LINE
8
MCD_Layer_0
10
0.776855
20
-0.511749
30
0.0
11
0.102417
21
0.495605
31
0.0
0
LINE
8
MCD_Layer_0
10
0.396423
20
-0.511078
30
0.0
11
0.102417
21
0.495605
31
0.0
0
LINE
8
MCD_Layer_0
10
0.396423
20
-0.511078
30
0.0
11
0.486420
21
0.496094
31
0.0
0
LINE
8
MCD_Layer_0
10
0.744843
20
-0.514374
30
0.0
11
0.486420
21
0.496094
31
0.0
0
LINE
8
MCD_Layer_0
10
-0.760803
20
0.485687
30
0.0
11
0.201599
21
0.489777
31
0.0
0
LINE
8
MCD_Layer_0
10
-0.760803
20
0.485687
30
0.0
11
-0.649597
21
0.495422
31
0.0
0
LINE
8
MCD_Layer_0
10
0.231140
20
0.485046
30
0.0
11
0.102417
21
0.495605
31
0.0
0
LINE
8
MCD_Layer_0
10
0.430420
20
0.483093
30
0.0
11
0.102417
21
0.495605
31
0.0
0
LINE
8
MCD_Layer_0
10
0.430420
20
0.483093
30
0.0
11
0.486420
21
0.496094
31
0.0
0
LINE
8
MCD_Layer_0
10
-0.380432
20
0.488922
30
0.0
11
0.486420
21
0.496094
31
0.0
0
LINE
8
MCD_Layer_0
10
-0.380432
20
0.488922
30
0.0
11
0.102417
21
0.495605
31
0.0
0
LINE
8
MCD_Layer_0
10
0.611572
20
0.488281
30
0.0
11
0.102417
21
0.495605
31
0.0
0
LINE
8
MCD_Layer_0
10
0.215088
20
0.487640
30
0.0
11
-0.649597
21
0.495422
31
0.0
0
LINE
8
MCD_Layer_0
10
0.215088
20
0.487640
30
0.0
11
-0.579224
21
-0.531128
31
0.0
0
LINE
8
MCD_Layer_0
10
0.744843
20
-0.514374
30
0.0
11
-0.787231
21
0.494293
31
0.0
0
LINE
8
MCD_Layer_0
10
0.744843
20
-0.514374
30
0.0
11
-0.707214
21
0.481812
31
0.0
0
LINE
8
MCD_Layer_0
10
-0.215149
20
-0.515015
30
0.0
11
-0.723206
21
0.480499
31
0.0
0
LINE
8
MCD_Layer_0
10
0.766479
20
-0.516968
30
0.0
11
-0.723206
21
0.480499
31
0.0
0
LINE
8
MCD_Layer_0
10
0.766479
20
-0.516968
30
0.0
11
0.000000
21
0.000000
31
0.0
0
LINE
8
MCD_Layer_0
10
-0.863983
20
-0.512299
30
0.0
11
-0.592010
21
-0.525146
31
0.0
0
LINE
8
MCD_Layer_0
10
-0.863983
20
-0.512299
30
0.0
11
-0.656006
21
0.487183
31
0.0
0
LINE
8
MCD_Layer_0
10
0.316833
20
-0.514252
30
0.0
11
-0.656006
21
0.487183
31
0.0
0
LINE
8
MCD_Layer_0
10
0.316833
20
-0.514252
30
0.0
11
0.320007
21
0.485229
31
0.0
0
LINE
8
MCD_Layer_0
10
-0.745728
20
0.480225
30
0.0
11
0.249603
21
0.484924
31
0.0
0
LINE
8
MCD_Layer_0
10
-0.745728
20
0.480225
30
0.0
11
0.889618
21
0.495422
31
0.0
0
LINE
8
MCD_Layer_0
10
-0.777710
20
0.477600
30
0.0
11
-0.870392
21
0.495575
31
0.0
0
LINE
8
MCD_Layer_0
10
-0.533203
20
-0.538391
30
0.0
11
-0.870392
21
0.495575
31
0.0
0
LINE
8
MCD_Layer_0
10
-0.533203
20
-0.538391
30
0.0
11
-0.716797
21
0.496063
31
0.0
0
LINE
8
MCD_Layer_0
10
-0.863983
20
0.487701
30
0.0
11
-0.716797
21
0.496063
31
0.0
0
LINE
8
MCD_Layer_0
10
-0.863983
20
0.487701
30
0.0
11
-0.870392
21
0.495575
31
0.0
0
LINE
8
MCD_Layer_0
10
0.758453
20
0.486420
30
0.0
11
-0.870392
21
0.495575
31
0.0
0
LINE
8
MCD_Layer_0
10
-0.249603
20
0.485748
30
0.0
11
0.889618
21
0.495422
31
0.0
0
LINE
8
MCD_Layer_0
10
-0.249603
20
0.485748
30
0.0
11
0.934418
21
0.485229
31
0.0
0
LINE
8
MCD_Layer_0
10
0.316833
20
-0.514252
30
0.0
11
0.832001
21
-0.529419
31
0.0
0
LINE
8
MCD_Layer_0
10
0.316833
20
-0.514252
30
0.0
11
-0.592010
21
-0.525146
31
0.0
0
LINE
8
MCD_Layer_0
10
-0.394012
20
-0.512878
30
0.0
11
-0.704010
21
-0.526520
31
0.0
0
LINE
8
MCD_Layer_0
10
-0.394012
20
-0.512878
30
0.0
11
0.048004
21
0.488312
31
0.0
0
LINE
8
MCD_Layer_0
10
0.015594
20
-0.514801
30
0.0
11
0.048004
21
0.488312
31
0.0
0
LINE
8
MCD_Layer_0
10
0.015594
20
-0.514801
30
0.0
11
-0.880005
21
0.486389
31
0.0
0
LINE
8
MCD_Layer_0
10
0.685608
20
0.483704
30
0.0
11
0.000000
21
0.496094
31
0.0
0
LINE
8
MCD_Layer_0
10
0.685608
20
0.483704
30
0.0
11
-0.112000
21
0.496155
31
0.0
0
LINE
8
MCD_Layer_0
10
0.547638
20
0.485992
30
0.0
11
-0.112000
21
0.496155
31
0.0
0
LINE
8
MCD_Layer_0
10
0.547638
20
0.485992
30
0.0
11
-0.223999
21
0.494293
31
0.0
0
LINE
8
MCD_Layer_0
10
0.685608
20
0.483704
30
0.0
11
-0.223999
21
0.494293
31
0.0
0
LINE
8
MCD_Layer_0
10
0.685608
20
0.483704
30
0.0
11
0.012756
21
0.494507
31
0.0
0
LINE
8
MCD_Layer_0
10
0.015594
20
-0.514801
30
0.0
11
0.000000
21
0.000000
31
0.0
0
LINE
8
MCD_Layer_0
10
0.015594
20
-0.514801
30
0.0
11
-0.704010
21
-0.526520
31
0.0
0
LINE
8
MCD_Layer_0
10
-0.419220
20
-0.509705
30
0.0
11
0.000000
21
0.000000
31
0.0
0
LINE
8
MCD_Layer_0
10
-0.419220
20
-0.509705
30
0.0
11
0.361603
21
0.480438
31
0.0
0
LINE
8
MCD_Layer_0
10
-0.403229
20
-0.510345
30
0.0
11
0.361603
21
0.480438
31
0.0
0
LINE
8
MCD_Layer_0
10
0.092773
20
-0.510651
30
0.0
11
-0.899231
21
0.481689
31
0.0
0
LINE
8
MCD_Layer_0
10
0.300781
20
-0.511169
30
0.0
11
-0.220795
21
0.495239
31
0.0
0
LINE
8
MCD_Layer_0
10
-0.691223
20
-0.510529
30
0.0
11
-0.204773
21
0.495575
31
0.0
0
LINE
8
MCD_Layer_0
10
-0.659210
20
-0.509857
30
0.0
11
-0.204773
21
0.495575
31
0.0
0
LINE
8
MCD_Layer_0
10
-0.659210
20
-0.509857
30
0.0
11
0.486420
21
0.496094
31
0.0
0
LINE
8
MCD_Layer_0
10
-0.326447
20
-0.512543
30
0.0
11
0.486420
21
0.496094
31
0.0
0
LINE
8
MCD_Layer_0
10
0.195312
20
-0.536072
30
0.0
11
0.185577
21
0.488464
31
0.0
0
LINE
8
MCD_Layer_0
10
0.822449
20
0.486786
30
0.0
11
0.486420
21
0.496094
31
0.0
0
LINE
8
MCD_Layer_0
10
0.915192
20
0.489807
30
0.0
11
0.486420
21
0.496094
31
0.0
0
LINE
8
MCD_Layer_0
10
0.915192
20
0.489807
30
0.0
11
-0.204773
21
0.495575
31
0.0
0
LINE
8
MCD_Layer_0
10
-0.828766
20
0.489319
30
0.0
11
-0.204773
21
0.495575
31
0.0
0
LINE
8
MCD_Layer_0
10
0.163239
20
0.488678
30
0.0
11
-0.220795
21
0.495239
31
0.0
0
LINE
8
MCD_Layer_0
10
-0.828766
20
0.489319
30
0.0
11
-0.899231
21
0.481689
31
0.0
0
LINE
8
MCD_Layer_0
10
0.675201
20
0.489655
30
0.0
11
0.361603
21
0.480438
31
0.0
0
LINE
8
MCD_Layer_0
10
-0.419220
20
0.490295
30
0.0
11
0.361603
21
0.480438
31
0.0
0
LINE
8
MCD_Layer_0
10
-0.419220
20
0.490295
30
0.0
11
0.000000
21
0.000000
31
0.0
0
LINE
8
MCD_Layer_0
10
-0.035217
20
0.485168
30
0.0
11
0.000000
21
0.000000
31
0.0
0
LINE
8
MCD_Layer_0
10
-0.035217
20
0.485168
30
0.0
11
0.361603
21
0.480438
31
0.0
0
LINE
8
MCD_Layer_0
10
0.342468
20
0.486481
30
0.0
11
0.361603
21
0.480438
31
0.0
0
LINE
8
MCD_Layer_0
10
-0.649597
20
0.487122
30
0.0
11
-0.803223
21
0.481750
31
0.0
0
LINE
8
MCD_Layer_0
10
-0.281555
20
0.486053
30
0.0
11
-0.819214
21
0.493622
31
0.0
0
LINE
8
MCD_Layer_0
10
-0.563965
20
-0.525909
30
0.0
11
0.115204
21
-0.522583
31
0.0
0
LINE
8
MCD_Layer_0
10
0.057556
20
-0.512268
30
0.0
11
-0.547211
21
0.493469
31
0.0
0
LINE
8
MCD_Layer_0
10
-0.419220
20
-0.511658
30
0.0
11
-0.803223
21
0.481750
31
0.0
0
LINE
8
MCD_Layer_0
10
0.153564
20
-0.512207
30
0.0
11
0.361603
21
0.480438
31
0.0
0
LINE
8
MCD_Layer_0
10
0.137543
20
-0.513519
30
0.0
11
0.361603
21
0.480438
31
0.0
0
LINE
8
MCD_Layer_0
10
0.137543
20
-0.513519
30
0.0
11
0.000000
21
0.000000
31
0.0
0
LINE
8
MCD_Layer_0
10
0.992004
20
-0.516296
30
0.0
11
0.000000
21
0.000000
31
0.0
0
LINE
8
MCD_Layer_0
10
0.992004
20
-0.516296
30
0.0
11
0.048004
21
0.480499
31
0.0
0
LINE
8
MCD_Layer_0
10
-0.943970
20
-0.518860
30
0.0
11
0.048004
21
0.480499
31
0.0
0
LINE
8
MCD_Layer_0
10
0.080017
20
-0.520782
30
0.0
11
-0.032013
21
0.481720
31
0.0
0
LINE
8
MCD_Layer_0
10
0.080017
20
-0.520782
30
0.0
11
0.256012
21
0.494629
31
0.0
0
LINE
8
MCD_Layer_0
10
0.992004
20
-0.516296
30
0.0
11
0.256012
21
0.494629
31
0.0
0
LINE
8
MCD_Layer_0
10
0.992004
20
-0.516296
30
0.0
11
0.256012
21
0.495117
31
0.0
0
LINE
8
MCD_Layer_0
10
-0.444824
20
-0.529480
30
0.0
11
-0.051208
21
0.496063
31
0.0
0
LINE
8
MCD_Layer_0
10
-0.112061
20
0.479065
30
0.0
11
0.000000
21
0.496094
31
0.0
0
LINE
8
MCD_Layer_0
10
-0.112061
20
0.479065
30
0.0
11
-0.032013
21
0.481720
31
0.0
0
LINE
8
MCD_Layer_0
10
0.960022
20
0.481079
30
0.0
11
0.048004
21
0.480499
31
0.0
0
LINE
8
MCD_Layer_0
10
0.992004
20
0.483704
30
0.0
11
0.048004
21
0.480499
31
0.0
0
LINE
8
MCD_Layer_0
10
0.992004
20
0.483704
30
0.0
11
0.000000
21
0.000000
31
0.0
0
LINE
8
MCD_Layer_0
10
0.079834
20
0.486206
30
0.0
11
-0.467194
21
0.496124
31
0.0
0
LINE
8
MCD_Layer_0
10
0.591858
20
0.485229
30
0.0
11
-0.166382
21
0.495697
31
0.0
0
LINE
8
MCD_Layer_0
10
0.015625
20
0.000000
30
0.0
11
-1.000000
21
-0.906738
31
0.0
0
LINE
8
MCD_Layer_0
10
0.005798
20
0.312500
30
0.0
11
-0.998291
21
-0.906738
31
0.0
0
LINE
8
MCD_Layer_0
10
-0.992004
20
-0.511078
30
0.0
11
-0.079773
21
0.460968
31
0.0
0
LINE
8
MCD_Layer_0
10
-0.992004
20
-0.511078
30
0.0
11
0.309021
21
0.478149
31
0.0
0
LINE
8
MCD_Layer_0
10
0.000000
20
-0.511719
30
0.0
11
0.309021
21
0.478149
31
0.0
0
LINE
8
MCD_Layer_0
10
0.992004
20
-0.512390
30
0.0
11
0.170502
21
0.480621
31
0.0
0
LINE
8
MCD_Layer_0
10
0.992004
20
-0.512390
30
0.0
11
-0.728668
21
0.495605
31
0.0
0
LINE
8
MCD_Layer_0
10
0.000000
20
-0.511719
30
0.0
11
0.023315
21
0.495789
31
0.0
0
LINE
8
MCD_Layer_0
10
-0.992004
20
-0.511078
30
0.0
11
0.023315
21
0.495789
31
0.0
0
LINE
8
MCD_Layer_0
10
-0.992004
20
-0.511078
30
0.0
11
0.507660
21
0.496094
31
0.0
0
LINE
8
MCD_Layer_0
10
-0.032013
20
-0.514374
30
0.0
11
0.507660
21
0.496094
31
0.0
0
LINE
8
MCD_Layer_0
10
0.015991
20
0.485687
30
0.0
11
0.286652
21
0.489777
31
0.0
0
LINE
8
MCD_Layer_0
10
0.015991
20
0.485687
30
0.0
11
-0.728668
21
0.495605
31
0.0
0
LINE
8
MCD_Layer_0
10
-0.992004
20
0.485016
30
0.0
11
0.023315
21
0.495789
31
0.0
0
LINE
8
MCD_Layer_0
10
-0.015991
20
0.483032
30
0.0
11
0.023315
21
0.495789
31
0.0
0
LINE
8
MCD_Layer_0
10
-0.015991
20
0.483032
30
0.0
11
0.507660
21
0.496094
31
0.0
0
LINE
8
MCD_Layer_0
10
-0.992004
20
0.488922
30
0.0
11
0.507660
21
0.496094
31
0.0
0
LINE
8
MCD_Layer_0
10
-0.992004
20
0.488922
30
0.0
11
0.023315
21
0.495789
31
0.0
0
LINE
8
MCD_Layer_0
10
-0.000122
20
0.488251
30
0.0
11
0.023315
21
0.495789
31
0.0
0
LINE
8
MCD_Layer_0
10
0.991943
20
0.487610
30
0.0
11
-0.728668
21
0.495605
31
0.0
0
LINE
8
MCD_Layer_0
10
0.991943
20
0.487610
30
0.0
11
0.699921
21
-0.531158
31
0.0
0
LINE
8
MCD_Layer_0
10
-0.032013
20
-0.514374
30
0.0
11
-0.744690
21
0.494293
31
0.0
0
LINE
8
MCD_Layer_0
10
-0.032013
20
-0.514374
30
0.0
11
0.170502
21
0.480621
31
0.0
0
LINE
8
MCD_Layer_0
10
-0.992004
20
-0.514984
30
0.0
11
0.309021
21
0.478149
31
0.0
0
LINE
8
MCD_Layer_0
10
0.927917
20
-0.517639
30
0.0
11
0.309021
21
0.478149
31
0.0
0
LINE
8
MCD_Layer_0
10
0.927917
20
-0.517639
30
0.0
11
-0.079773
21
0.460968
31
0.0
0
LINE
8
MCD_Layer_0
10
0.000000
20
-0.493164
30
0.0
11
0.000000
21
0.000000
31
0.0
0
LINE
8
MCD_Layer_0
10
0.000000
20
0.506836
30
0.0
11
0.000000
21
0.000000
31
0.0
0
LINE
8
MCD_Layer_0
10
-0.001282
20
-0.493195
30
0.0
11
-0.399902
21
0.511108
31
0.0
0
LINE
8
MCD_Layer_0
10
0.000336
20
0.506836
30
0.0
11
-0.399994
21
0.511108
31
0.0
0
LINE
8
MCD_Layer_0
10
0.000000
20
-0.491211
30
0.0
11
0.000000
21
0.000000
31
0.0
0
LINE
8
MCD_Layer_0
10
0.000000
20
-0.491211
30
0.0
11
0.000000
21
-0.496094
31
0.0
0
LINE
8
MCD_Layer_0
10
0.000000
20
0.508789
30
0.0
11
0.000000
21
-0.496094
31
0.0
0
LINE
8
MCD_Layer_0
10
0.000000
20
0.508789
30
0.0
11
0.000000
21
0.000000
31
0.0
0
LINE
8
MCD_Layer_0
10
0.005768
20
0.000000
30
0.0
11
-0.046875
21
-0.168030
31
0.0
0
LINE
8
MCD_Layer_0
10
0.294830
20
-0.992004
30
0.0
11
0.001862
21
0.000000
31
0.0
0
LINE
8
MCD_Layer_0
10
-0.559998
20
-0.514709
30
0.0
11
-0.623993
21
0.494690
31
0.0
0
LINE
8
MCD_Layer_0
10
-0.559998
20
-0.514709
30
0.0
11
-0.128021
21
0.494354
31
0.0
0
LINE
8
MCD_Layer_0
10
-0.006378
20
-0.512665
30
0.0
11
-0.128021
21
0.494354
31
0.0
0
LINE
8
MCD_Layer_0
10
-0.006378
20
-0.512665
30
0.0
11
0.880005
21
0.496002
31
0.0
0
LINE
8
MCD_Layer_0
10
-0.559998
20
-0.514709
30
0.0
11
0.880005
21
0.496002
31
0.0
0
LINE
8
MCD_Layer_0
10
-0.559998
20
-0.514709
30
0.0
11
0.783997
21
0.495941
31
0.0
0
LINE
8
MCD_Layer_0
10
0.080078
20
-0.516876
30
0.0
11
-0.032013
21
0.481720
31
0.0
0
LINE
8
MCD_Layer_0
10
-0.211212
20
0.485382
30
0.0
11
-0.032013
21
0.481720
31
0.0
0
LINE
8
MCD_Layer_0
10
0.796722
20
0.486053
30
0.0
11
-0.015991
21
0.483032
31
0.0
0
LINE
8
MCD_Layer_0
10
0.796722
20
0.486053
30
0.0
11
0.015991
21
0.485687
31
0.0
0
LINE
8
MCD_Layer_0
10
-0.431976
20
0.487976
30
0.0
11
0.015991
21
0.485687
31
0.0
0
LINE
8
MCD_Layer_0
10
-0.431976
20
0.487976
30
0.0
11
0.000000
21
0.000000
31
0.0
0
LINE
8
MCD_Layer_0
10
-0.431976
20
-0.512024
30
0.0
11
0.000000
21
0.000000
31
0.0
0
LINE
8
MCD_Layer_0
10
-0.805237
20
-0.511597
30
0.0
11
0.000000
21
0.000000
31
0.0
0
LINE
8
MCD_Layer_0
10
-0.805237
20
-0.511597
30
0.0
11
0.000000
21
0.480469
31
0.0
0
LINE
8
MCD_Layer_0
10
0.987915
20
-0.512756
30
0.0
11
0.000000
21
0.480469
31
0.0
0
LINE
8
MCD_Layer_0
10
-0.020081
20
-0.513428
30
0.0
11
0.015991
21
0.481781
31
0.0
0
LINE
8
MCD_Layer_0
10
-0.020081
20
-0.513428
30
0.0
11
-0.342377
21
0.495422
31
0.0
0
LINE
8
MCD_Layer_0
10
0.987915
20
-0.512756
30
0.0
11
-0.102386
21
0.495575
31
0.0
0
LINE
8
MCD_Layer_0
10
-0.805237
20
-0.511597
30
0.0
11
-0.102386
21
0.495575
31
0.0
0
LINE
8
MCD_Layer_0
10
-0.805237
20
-0.511597
30
0.0
11
0.000000
21
0.496094
31
0.0
0
LINE
8
MCD_Layer_0
10
-0.557617
20
-0.527252
30
0.0
11
0.000000
21
0.496094
31
0.0
0
LINE
8
MCD_Layer_0
10
-0.913757
20
-0.518005
30
0.0
11
0.985596
21
0.491577
31
0.0
0
LINE
8
MCD_Layer_0
10
-0.913757
20
-0.518005
30
0.0
11
0.015991
21
0.481781
31
0.0
0
LINE
8
MCD_Layer_0
10
-0.929749
20
-0.519318
30
0.0
11
0.000000
21
0.480469
31
0.0
0
LINE
8
MCD_Layer_0
10
-0.931641
20
-0.525146
30
0.0
11
0.000000
21
0.480469
31
0.0
0
LINE
8
MCD_Layer_0
10
-0.931641
20
-0.525146
30
0.0
11
0.000000
21
0.000000
31
0.0
0
LINE
8
MCD_Layer_0
10
-0.913757
20
-0.518005
30
0.0
11
-0.342377
21
0.495422
31
0.0
0
LINE
8
MCD_Layer_0
10
-0.913757
20
-0.518005
30
0.0
11
-0.070404
21
0.492340
31
0.0
0
LINE
8
MCD_Layer_0
10
-0.716431
20
-0.511993
30
0.0
11
0.335999
21
0.480682
31
0.0
0
LINE
8
MCD_Layer_0
10
-0.418823
20
-0.513367
30
0.0
11
-0.524780
21
0.483490
31
0.0
0
LINE
8
MCD_Layer_0
10
0.122314
20
-0.518250
30
0.0
11
-0.239990
21
0.492981
31
0.0
0
LINE
8
MCD_Layer_0
10
0.138367
20
-0.516937
30
0.0
11
-0.239990
21
0.492981
31
0.0
0
LINE
8
MCD_Layer_0
10
0.077179
20
-0.515625
30
0.0
11
-0.992004
21
0.492828
31
0.0
0
LINE
8
MCD_Layer_0
10
0.077179
20
-0.515625
30
0.0
11
0.268829
21
0.492554
31
0.0
0
LINE
8
MCD_Layer_0
10
-0.716431
20
-0.513947
30
0.0
11
0.268829
21
0.492554
31
0.0
0
LINE
8
MCD_Layer_0
10
-0.716431
20
-0.513947
30
0.0
11
0.025604
21
0.493896
31
0.0
0
LINE
8
MCD_Layer_0
10
0.077179
20
-0.515625
30
0.0
11
0.025604
21
0.493896
31
0.0
0
LINE
8
MCD_Layer_0
10
0.077179
20
-0.515625
30
0.0
11
0.624023
21
0.493561
31
0.0
0
LINE
8
MCD_Layer_0
10
0.138367
20
-0.516937
30
0.0
11
0.384033
21
0.493408
31
0.0
0
LINE
8
MCD_Layer_0
10
0.122314
20
-0.518250
30
0.0
11
0.384033
21
0.493408
31
0.0
0
LINE
8
MCD_Layer_0
10
-0.914825
20
-0.514984
30
0.0
11
-0.239990
21
0.494934
31
0.0
0
LINE
8
MCD_Layer_0
10
-0.914825
20
-0.514984
30
0.0
11
-0.496033
21
0.494446
31
0.0
0
LINE
8
MCD_Layer_0
10
-0.614014
20
-0.512970
30
0.0
11
-0.496033
21
0.494446
31
0.0
0
LINE
8
MCD_Layer_0
10
-0.614014
20
-0.512970
30
0.0
11
0.000000
21
0.496094
31
0.0
0
LINE
8
MCD_Layer_0
10
-0.914825
20
-0.514984
30
0.0
11
0.000000
21
0.496094
31
0.0
0
LINE
8
MCD_Layer_0
10
-0.914825
20
-0.514984
30
0.0
11
0.368011
21
0.496002
31
0.0
0
LINE
8
MCD_Layer_0
10
-0.934570
20
-0.511627
30
0.0
11
0.714844
21
0.485870
31
0.0
0
LINE
8
MCD_Layer_0
10
-0.388672
20
-0.514862
30
0.0
11
0.574219
21
0.487213
31
0.0
0
LINE
8
MCD_Layer_0
10
0.074219
20
0.483643
30
0.0
11
0.331055
21
0.490509
31
0.0
0
LINE
8
MCD_Layer_0
10
0.951172
20
-0.515411
30
0.0
11
-0.418945
21
0.493225
31
0.0
0
LINE
8
MCD_Layer_0
10
-0.458984
20
0.488220
30
0.0
11
-0.553223
21
0.495483
31
0.0
0
LINE
8
MCD_Layer_0
10
-0.841797
20
0.485504
30
0.0
11
-0.741699
21
0.494843
31
0.0
0
LINE
8
MCD_Layer_0
10
-0.054688
20
-0.521423
30
0.0
11
-0.482910
21
0.493835
31
0.0
0
LINE
8
MCD_Layer_0
10
0.697266
20
0.486511
30
0.0
11
0.605469
21
0.491791
31
0.0
0
LINE
8
MCD_Layer_0
10
-0.175293
20
-0.511475
30
0.0
11
-0.785156
21
0.488312
31
0.0
0
LINE
8
MCD_Layer_0
10
-0.175293
20
-0.511475
30
0.0
11
0.433105
21
0.494110
31
0.0
0
LINE
8
MCD_Layer_0
10
-0.189941
20
0.488525
30
0.0
11
0.433105
21
0.494110
31
0.0
0
LINE
8
MCD_Layer_0
10
-0.189941
20
0.488525
30
0.0
11
-0.785156
21
0.488312
31
0.0
0
LINE
8
MCD_Layer_0
10
0.100586
20
0.485229
30
0.0
11
0.702148
21
0.488312
31
0.0
0
LINE
8
MCD_Layer_0
10
0.100586
20
0.485229
30
0.0
11
0.637695
21
0.494110
31
0.0
0
LINE
8
MCD_Layer_0
10
0.129883
20
-0.514771
30
0.0
11
0.637695
21
0.494110
31
0.0
0
LINE
8
MCD_Layer_0
10
0.129883
20
-0.514771
30
0.0
11
0.702148
21
0.488312
31
0.0
0
LINE
8
MCD_Layer_0
10
0.581055
20
-0.511322
30
0.0
11
0.000000
21
0.438599
31
0.0
0
LINE
8
MCD_Layer_0
10
0.581055
20
-0.511322
30
0.0
11
0.010010
21
0.496094
31
0.0
0
LINE
8
MCD_Layer_0
10
0.477539
20
-0.513184
30
0.0
11
0.010010
21
0.496094
31
0.0
0
LINE
8
MCD_Layer_0
10
-0.891602
20
-0.513824
30
0.0
11
-0.246094
21
0.495667
31
0.0
0
LINE
8
MCD_Layer_0
10
0.666504
20
0.488678
30
0.0
11
-0.802734
21
0.494141
31
0.0
0
LINE
8
MCD_Layer_0
10
0.666504
20
0.488678
30
0.0
11
0.000000
21
0.438599
31
0.0
0
LINE
8
MCD_Layer_0
10
-0.357422
20
-0.514526
30
0.0
11
0.000000
21
0.438599
31
0.0
0
LINE
8
MCD_Layer_0
10
-0.357422
20
-0.514526
30
0.0
11
-0.802734
21
0.494141
31
0.0
0
LINE
8
MCD_Layer_0
10
-0.186523
20
0.485474
30
0.0
11
-0.802734
21
0.494141
31
0.0
0
LINE
8
MCD_Layer_0
10
-0.186523
20
0.485474
30
0.0
11
0.000000
21
0.438599
31
0.0
0
LINE
8
MCD_Layer_0
10
0.685547
20
-0.512543
30
0.0
11
0.000000
21
0.438965
31
0.0
0
LINE
8
MCD_Layer_0
10
0.685547
20
-0.512543
30
0.0
11
0.010742
21
0.496094
31
0.0
0
LINE
8
MCD_Layer_0
10
0.818359
20
0.487457
30
0.0
11
0.010742
21
0.496094
31
0.0
0
LINE
8
MCD_Layer_0
10
0.818359
20
0.487457
30
0.0
11
-0.857910
21
0.495178
31
0.0
0
LINE
8
MCD_Layer_0
10
0.332031
20
-0.516632
30
0.0
11
-0.857910
21
0.495178
31
0.0
0
LINE
8
MCD_Layer_0
10
0.332031
20
-0.516632
30
0.0
11
-0.074219
21
0.493073
31
0.0
0
LINE
8
MCD_Layer_0
10
0.832031
20
0.484863
30
0.0
11
-0.074219
21
0.493073
31
0.0
0
LINE
8
MCD_Layer_0
10
0.832031
20
0.484863
30
0.0
11
-0.954590
21
0.492188
31
0.0
0
LINE
8
MCD_Layer_0
10
0.332031
20
-0.516632
30
0.0
11
-0.954590
21
0.492188
31
0.0
0
LINE
8
MCD_Layer_0
10
0.332031
20
-0.516632
30
0.0
11
0.000000
21
0.438965
31
0.0
0
LINE
8
MCD_Layer_0
10
0.166016
20
-0.512939
30
0.0
11
0.070312
21
0.480286
31
0.0
0
LINE
8
MCD_Layer_0
10
0.533203
20
-0.515442
30
0.0
11
-0.855469
21
0.485046
31
0.0
0
LINE
8
MCD_Layer_0
10
-0.863281
20
0.482544
30
0.0
11
0.554688
21
0.487274
31
0.0
0
LINE
8
MCD_Layer_0
10
-0.863281
20
0.482544
30
0.0
11
0.010986
21
0.496094
31
0.0
0
LINE
8
MCD_Layer_0
10
0.087891
20
0.487061
30
0.0
11
0.010986
21
0.496094
31
0.0
0
LINE
8
MCD_Layer_0
10
0.087891
20
0.487061
30
0.0
11
0.363281
21
0.487152
31
0.0
0
LINE
8
MCD_Layer_0
10
0.011230
20
-0.511719
30
0.0
11
0.000000
21
0.438843
31
0.0
0
LINE
8
MCD_Layer_0
10
0.011230
20
-0.511719
30
0.0
11
0.010498
21
0.496094
31
0.0
0
LINE
8
MCD_Layer_0
10
-0.518555
20
0.486633
30
0.0
11
0.010498
21
0.496094
31
0.0
0
LINE
8
MCD_Layer_0
10
-0.518555
20
0.486633
30
0.0
11
-0.858398
21
0.495178
31
0.0
0
LINE
8
MCD_Layer_0
10
0.502930
20
-0.515320
30
0.0
11
-0.858398
21
0.495178
31
0.0
0
LINE
8
MCD_Layer_0
10
0.502930
20
-0.515320
30
0.0
11
-0.074707
21
0.493073
31
0.0
0
LINE
8
MCD_Layer_0
10
0.994141
20
0.483734
30
0.0
11
-0.074707
21
0.493073
31
0.0
0
LINE
8
MCD_Layer_0
10
0.994141
20
0.483734
30
0.0
11
-0.955078
21
0.492188
31
0.0
0
LINE
8
MCD_Layer_0
10
0.502930
20
-0.515320
30
0.0
11
-0.955078
21
0.492188
31
0.0
0
LINE
8
MCD_Layer_0
10
0.502930
20
-0.515320
30
0.0
11
-0.789062
21
0.483734
31
0.0
0
LINE
8
MCD_Layer_0
10
-0.022461
20
0.488251
30
0.0
11
-0.789062
21
0.483734
31
0.0
0
LINE
8
MCD_Layer_0
10
-0.022461
20
0.488251
30
0.0
11
0.000000
21
0.438843
31
0.0
0
LINE
8
MCD_Layer_0
10
-0.121094
20
-0.511383
30
0.0
11
0.000000
21
0.438721
31
0.0
0
LINE
8
MCD_Layer_0
10
-0.121094
20
-0.511383
30
0.0
11
0.010254
21
0.496094
31
0.0
0
LINE
8
MCD_Layer_0
10
0.953125
20
-0.523193
30
0.0
11
0.010254
21
0.496094
31
0.0
0
LINE
8
MCD_Layer_0
10
0.236328
20
-0.514587
30
0.0
11
0.000000
21
0.438721
31
0.0
0
LINE
8
MCD_Layer_0
10
0.236328
20
-0.514587
30
0.0
11
0.018555
21
0.489960
31
0.0
0
LINE
8
MCD_Layer_0
10
0.234375
20
-0.523499
30
0.0
11
-0.859863
21
0.495178
31
0.0
0
LINE
8
MCD_Layer_0
10
0.236328
20
-0.514587
30
0.0
11
-0.859863
21
0.495178
31
0.0
0
LINE
8
MCD_Layer_0
10
0.236328
20
-0.514587
30
0.0
11
-0.221680
21
0.491730
31
0.0
0
LINE
8
MCD_Layer_0
10
0.787109
20
0.485291
30
0.0
11
0.000000
21
0.438721
31
0.0
0
LINE
8
MCD_Layer_0
10
-0.160156
20
0.488617
30
0.0
11
0.000000
21
0.438721
31
0.0
0
LINE
8
MCD_Layer_0
10
-0.323242
20
-0.509705
30
0.0
11
0.000000
21
0.438354
31
0.0
0
LINE
8
MCD_Layer_0
10
-0.323242
20
-0.509705
30
0.0
11
0.962891
21
0.494415
31
0.0
0
LINE
8
MCD_Layer_0
10
0.000000
20
0.003938
30
0.0
11
0.000000
21
0.000000
31
0.0
0
LINE
8
MCD_Layer_0
10
0.001625
20
0.000984
30
0.0
11
0.000000
21
0.000000
31
0.0
0
LINE
8
MCD_Layer_0
10
0.000984
20
0.000984
30
0.0
11
0.000000
21
0.000000
31
0.0
0
LINE
8
MCD_Layer_0
10
0.000984
20
0.007813
30
0.0
11
0.000000
21
0.000000
31
0.0
0
LINE
8
MCD_Layer_0
10
0.007813
20
0.007813
30
0.0
11
0.000000
21
0.000000
31
0.0
0
LINE
8
MCD_Layer_0
10
0.007813
20
0.000000
30
0.0
11
0.000000
21
0.000000
31
0.0
0
LINE
8
MCD_Layer_0
10
0.000000
20
0.000000
30
0.0
11
0.000000
21
0.000000
31
0.0
0
LINE
8
MCD_Layer_0
10
0.000000
20
0.000000
30
0.0
11
0.000000
21
0.000000
31
0.0
0
LINE
8
MCD_Layer_0
10
0.000000
20
0.000000
30
0.0
11
0.000000
21
0.000000
31
0.0
0
LINE
8
MCD_Layer_0
10
0.000000
20
0.009625
30
0.0
11
0.000000
21
0.000000
31
0.0
0
LINE
8
MCD_Layer_0
10
0.009625
20
0.000000
30
0.0
11
0.000000
21
0.000000
31
0.0
0
LINE
8
MCD_Layer_0
10
0.000000
20
0.000000
30
0.0
11
0.000000
21
0.000000
31
0.0
0
LINE
8
MCD_Layer_0
10
0.000000
20
0.000000
30
0.0
11
0.000000
21
0.000000
31
0.0
0
LINE
8
MCD_Layer_0
10
0.000000
20
0.000000
30
0.0
11
0.000000
21
0.000000
31
0.0
0
LINE
8
MCD_Layer_0
10
0.000001
20
0.000418
30
0.0
11
0.000000
21
0.000000
31
0.0
0
LINE
8
MCD_Layer_0
10
0.000418
20
0.000001
30
0.0
11
0.000000
21
0.000000
31
0.0
0
LINE
8
MCD_Layer_0
10
0.007719
20
0.000482
30
0.0
11
0.000000
21
0.000000
31
0.0
0
LINE
8
MCD_Layer_0
10
0.000482
20
0.000482
30
0.0
11
0.000000
21
0.000000
31
0.0
0
LINE
8
MCD_Layer_0
10
0.000482
20
0.000969
30
0.0
11
0.000000
21
0.000000
31
0.0
0
LINE
8
MCD_Layer_0
10
0.000000
20
0.000000
30
0.0
11
0.000000
21
0.000000
31
0.0
0
LINE
8
MCD_Layer_0
10
0.007219
20
0.007719
30
0.0
11
0.000000
21
0.000000
31
0.0
0
LINE
8
MCD_Layer_0
10
0.007719
20
0.007719
30
0.0
11
0.000000
21
-0.000000
31
0.0
0
LINE
8
MCD_Layer_0
10
0.000000
20
0.003275
30
0.0
11
0.000000
21
0.000000
31
0.0
0
LINE
8
MCD_Layer_0
10
0.003900
20
0.003900
30
0.0
11
0.000000
21
0.000000
31
0.0
0
LINE
8
MCD_Layer_0
10
0.003900
20
0.007813
30
0.0
11
0.000000
21
0.000000
31
0.0
0
LINE
8
MCD_Layer_0
10
0.007813
20
0.007813
30
0.0
11
0.000000
21
0.000000
31
0.0
0
LINE
8
MCD_Layer_0
10
0.007813
20
0.003900
30
0.0
11
0.000000
21
0.000000
31
0.0
0
LINE
8
MCD_Layer_0
10
0.003900
20
0.003900
30
0.0
11
0.000000
21
0.000000
31
0.0
0
LINE
8
MCD_Layer_0
10
0.003275
20
0.000244
30
0.0
11
0.000000
21
0.000000
31
0.0
0
LINE
8
MCD_Layer_0
10
0.000244
20
0.000244
30
0.0
11
0.000000
21
0.000000
31
0.0
0
LINE
8
MCD_Layer_0
10
0.000244
20
0.003275
30
0.0
11
0.000000
21
0.000000
31
0.0
0
LINE
8
MCD_Layer_0
10
0.003900
20
0.003900
30
0.0
11
0.000000
21
0.000000
31
0.0
0
LINE
8
MCD_Layer_0
10
0.003900
20
0.007813
30
0.0
11
0.000000
21
0.000000
31
0.0
0
LINE
8
MCD_Layer_0
10
0.007813
20
0.007813
30
0.0
11
0.000000
21
0.000000
31
0.0
0
LINE
8
MCD_Layer_0
10
0.007813
20
0.003900
30
0.0
11
0.000000
21
0.000000
31
0.0
0
LINE
8
MCD_Layer_0
10
0.003900
20
0.003900
30
0.0
11
0.000000
21
0.000000
31
0.0
0
LINE
8
MCD_Layer_0
10
0.003275
20
0.000000
30
0.0
11
0.000000
21
0.000000
31
0.0
0
LINE
8
MCD_Layer_0
10
0.000000
20
0.000122
30
0.0
11
0.000000
21
0.000000
31
0.0
0
LINE
8
MCD_Layer_0
10
0.000122
20
0.000122
30
0.0
11
0.000000
21
0.000000
31
0.0
0
LINE
8
MCD_Layer_0
10
0.000122
20
0.000000
30
0.0
11
0.000000
21
0.000000
31
0.0
0
LINE
8
MCD_Layer_0
10
0.000000
20
0.003275
30
0.0
11
0.000000
21
0.000000
31
0.0
0
LINE
8
MCD_Layer_0
10
0.003900
20
0.003900
30
0.0
11
0.000000
21
0.000000
31
0.0
0
LINE
8
MCD_Layer_0
10
0.003900
20
0.007813
30
0.0
11
0.000000
21
0.000000
31
0.0
0
LINE
8
MCD_Layer_0
10
0.007813
20
0.007800
30
0.0
11
0.000000
21
0.000000
31
0.0
0
LINE
8
MCD_Layer_0
10
0.000014
20
0.000000
30
0.0
11
0.000000
21
0.000000
31
0.0
0
LINE
8
MCD_Layer_0
10
0.000042
20
0.003275
30
0.0
11
0.000000
21
0.000000
31
0.0
0
LINE
8
MCD_Layer_0
10
0.007797
20
0.007797
30
0.0
11
0.000000
21
0.000000
31
0.0
0
LINE
8
MCD_Layer_0
10
0.007797
20
0.003909
30
0.0
11
0.000000
21
0.000000
31
0.0
0
LINE
8
MCD_Layer_0
10
0.003909
20
0.003909
30
0.0
11
0.000000
21
0.000000
31
0.0
0
LINE
8
MCD_Layer_0
10
0.003002
20
0.000033
30
0.0
11
0.000000
21
0.000000
31
0.0
0
LINE
8
MCD_Layer_0
10
0.000033
20
0.003002
30
0.0
11
0.000000
21
0.000000
31
0.0
0
LINE
8
MCD_Layer_0
10
0.003909
20
0.003909
30
0.0
11
0.000000
21
0.000000
31
0.0
0
LINE
8
MCD_Layer_0
10
0.003909
20
0.007797
30
0.0
11
0.000000
21
0.000000
31
0.0
0
LINE
8
MCD_Layer_0
10
0.007744
20
0.007744
30
0.0
11
0.000000
21
0.000000
31
0.0
0
LINE
8
MCD_Layer_0
10
0.007744
20
0.003881
30
0.0
11
0.000000
21
0.000000
31
0.0
0
LINE
8
MCD_Layer_0
10
0.003881
20
0.003881
30
0.0
11
0.000000
21
0.000000
31
0.0
0
LINE
8
MCD_Layer_0
10
0.003506
20
0.000005
30
0.0
11
0.000000
21
0.000000
31
0.0
0
LINE
8
MCD_Layer_0
10
0.000005
20
0.000000
30
0.0
11
0.000000
21
0.000000
31
0.0
0
LINE
8
MCD_Layer_0
10
0.000000
20
0.000005
30
0.0
11
0.000000
21
0.000000
31
0.0
0
LINE
8
MCD_Layer_0
10
0.000005
20
0.003533
30
0.0
11
0.000000
21
0.000000
31
0.0
0
LINE
8
MCD_Layer_0
10
0.003909
20
0.003909
30
0.0
11
0.000000
21
0.000000
31
0.0
0
LINE
8
MCD_Layer_0
10
0.003909
20
0.007797
30
0.0
11
0.000000
21
-0.000000
31
0.0
0
LINE
8
MCD_Layer_0
10
0.007813
20
0.007825
30
0.0
11
0.000000
21
0.000000
31
0.0
0
LINE
8
MCD_Layer_0
10
0.000000
20
0.003281
30
0.0
11
0.000000
21
0.000000
31
0.0
0
LINE
8
MCD_Layer_0
10
0.003906
20
0.003906
30
0.0
11
0.000000
21
0.000000
31
0.0
0
LINE
8
MCD_Layer_0
10
0.003906
20
0.007813
30
0.0
11
0.000000
21
0.000000
31
0.0
0
LINE
8
MCD_Layer_0
10
0.003869
20
0.000000
30
0.0
11
0.000000
21
0.000000
31
0.0
0
LINE
8
MCD_Layer_0
10
0.003866
20
0.003869
30
0.0
11
0.000000
21
-0.000000
31
0.0
0
LINE
8
MCD_Layer_0
10
0.007813
20
0.007813
30
0.0
11
0.000000
21
0.000000
31
0.0
0
LINE
8
MCD_Layer_0
10
0.007813
20
0.001141
30
0.0
11
0.000000
21
0.000000
31
0.0
0
LINE
8
MCD_Layer_0
10
0.001141
20
0.001141
30
0.0
11
0.000000
21
0.000000
31
0.0
0
LINE
8
MCD_Layer_0
10
0.001141
20
0.001625
30
0.0
11
0.000000
21
0.000000
31
0.0
0
LINE
8
MCD_Layer_0
10
0.003938
20
0.003938
30
0.0
11
0.000000
21
0.000000
31
0.0
0
LINE
8
MCD_Layer_0
10
0.003938
20
0.000120
30
0.0
11
0.000000
21
0.000000
31
0.0
0
LINE
8
MCD_Layer_0
10
0.000120
20
0.000120
30
0.0
11
0.000000
21
0.000000
31
0.0
0
LINE
8
MCD_Layer_0
10
0.000158
20
0.000279
30
0.0
11
0.000000
21
0.000000
31
0.0
0
LINE
8
MCD_Layer_0
10
0.000279
20
0.000279
30
0.0
11
0.000000
21
0.000000
31
0.0
0
LINE
8
MCD_Layer_0
10
0.000279
20
0.000026
30
0.0
11
0.000000
21
0.000000
31
0.0
0
LINE
8
MCD_Layer_0
10
0.000026
20
0.000026
30
0.0
11
0.000000
21
0.000000
31
0.0
0
LINE
8
MCD_Layer_0
10
0.000026
20
0.000051
30
0.0
11
0.000000
21
0.000000
31
0.0
0
LINE
8
MCD_Layer_0
10
0.000062
20
0.000062
30
0.0
11
0.000000
21
0.000000
31
0.0
0
LINE
8
MCD_Layer_0
10
0.000062
20
0.000000
30
0.0
11
0.000000
21
0.000000
31
0.0
0
LINE
8
MCD_Layer_0
10
0.000000
20
0.000000
30
0.0
11
0.000000
21
0.000000
31
0.0
0
LINE
8
MCD_Layer_0
10
0.000000
20
0.000000
30
0.0
11
0.000000
21
0.000000
31
0.0
0
LINE
8
MCD_Layer_0
10
0.000000
20
0.000000
30
0.0
11
0.000000
21
0.000000
31
0.0
0
LINE
8
MCD_Layer_0
10
0.000000
20
0.003297
30
0.0
11
0.000000
21
0.000000
31
0.0
0
LINE
8
MCD_Layer_0
10
0.003938
20
0.003938
30
0.0
11
0.000000
21
0.000000
31
0.0
0
LINE
8
MCD_Layer_0
10
0.003938
20
0.007813
30
0.0
11
0.000000
21
-0.000000
31
0.0
0
LINE
8
MCD_Layer_0
10
0.000000
20
0.003256
30
0.0
11
0.000000
21
0.000000
31
0.0
0
LINE
8
MCD_Layer_0
10
0.003919
20
0.003919
30
0.0
11
0.000000
21
0.000000
31
0.0
0
LINE
8
MCD_Layer_0
10
0.003919
20
0.007931
30
0.0
11
0.000000
21
0.000000
31
0.0
0
LINE
8
MCD_Layer_0
10
0.007931
20
0.007931
30
0.0
11
0.000000
21
0.000000
31
0.0
0
LINE
8
MCD_Layer_0
10
0.007931
20
0.000001
30
0.0
11
0.000000
21
0.000000
31
0.0
0
LINE
8
MCD_Layer_0
10
0.000001
20
0.003256
30
0.0
11
0.000000
21
0.000000
31
0.0
0
LINE
8
MCD_Layer_0
10
0.003919
20
0.003919
30
0.0
11
0.000000
21
0.000000
31
0.0
0
LINE
8
MCD_Layer_0
10
0.003919
20
0.007931
30
0.0
11
0.000000
21
0.000000
31
0.0
0
LINE
8
MCD_Layer_0
10
0.007931
20
0.007931
30
0.0
11
0.000000
21
0.000000
31
0.0
0
LINE
8
MCD_Layer_0
10
0.007931
20
0.003919
30
0.0
11
0.000000
21
0.000000
31
0.0
0
LINE
8
MCD_Layer_0
10
0.003919
20
0.003919
30
0.0
11
0.000000
21
0.000000
31
0.0
0
LINE
8
MCD_Layer_0
10
0.003256
20
-0.000000
30
0.0
11
0.000000
21
0.000000
31
0.0
0
LINE
8
MCD_Layer_0
10
-0.000000
20
0.000659
30
0.0
11
0.000000
21
0.000000
31
0.0
0
LINE
8
MCD_Layer_0
10
0.000659
20
0.000000
30
0.0
11
0.000000
21
0.000000
31
0.0
0
LINE
8
MCD_Layer_0
10
-0.000000
20
0.000000
30
0.0
11
0.000000
21
0.000000
31
0.0
0
LINE
8
MCD_Layer_0
10
0.000000
20
0.000000
30
0.0
11
0.000000
21
0.000000
31
0.0
0
LINE
8
MCD_Layer_0
10
0.000000
20
0.000000
30
0.0
11
0.000000
21
0.000000
31
0.0
0
LINE
8
MCD_Layer_0
10
0.000000
20
0.003228
30
0.0
11
0.000000
21
0.000000
31
0.0
0
LINE
8
MCD_Layer_0
10
0.003853
20
0.003853
30
0.0
11
0.000000
21
0.000000
31
0.0
0
LINE
8
MCD_Layer_0
10
0.003853
20
0.007725
30
0.0
11
0.000000
21
0.000000
31
0.0
0
LINE
8
MCD_Layer_0
10
0.007725
20
0.007725
30
0.0
11
0.000000
21
0.000000
31
0.0
0
LINE
8
MCD_Layer_0
10
0.007725
20
0.003853
30
0.0
11
0.000000
21
0.000000
31
0.0
0
LINE
8
MCD_Layer_0
10
0.003853
20
0.003853
30
0.0
11
0.000000
21
0.000000
31
0.0
0
LINE
8
MCD_Layer_0
10
0.003228
20
0.000000
30
0.0
11
0.000000
21
0.000000
31
0.0
0
LINE
8
MCD_Layer_0
10
-0.000000
20
0.000000
30
0.0
11
0.000000
21
0.000000
31
0.0
0
LINE
8
MCD_Layer_0
10
0.000000
20
0.000000
30
0.0
11
0.000000
21
0.000000
31
0.0
0
LINE
8
MCD_Layer_0
10
0.000000
20
0.000000
30
0.0
11
0.000000
21
0.000000
31
0.0
0
LINE
8
MCD_Layer_0
10
0.007813
20
0.009250
30
0.0
11
0.000000
21
0.000000
31
0.0
0
LINE
8
MCD_Layer_0
10
0.009250
20
0.009250
30
0.0
11
0.000000
21
0.000000
31
0.0
0
LINE
8
MCD_Layer_0
10
0.009250
20
0.000668
30
0.0
11
0.000000
21
0.000000
31
0.0
0
LINE
8
MCD_Layer_0
10
0.000668
20
0.000668
30
0.0
11
0.000000
21
0.000000
31
0.0
0
LINE
8
MCD_Layer_0
10
0.000668
20
0.000855
30
0.0
11
0.000000
21
0.000000
31
0.0
0
LINE
8
MCD_Layer_0
10
0.000000
20
0.002550
30
0.0
11
0.000000
21
0.000000
31
0.0
0
LINE
8
MCD_Layer_0
10
0.003894
20
0.003894
30
0.0
11
0.000000
21
0.000000
31
0.0
0
LINE
8
MCD_Layer_0
10
0.003894
20
0.007931
30
0.0
11
0.000000
21
0.000000
31
0.0
0
LINE
8
MCD_Layer_0
10
0.007931
20
0.007931
30
0.0
11
0.000000
21
0.000000
31
0.0
0
LINE
8
MCD_Layer_0
10
0.007931
20
0.000000
30
0.0
11
0.000000
21
0.000000
31
0.0
0
LINE
8
MCD_Layer_0
10
0.000000
20
0.007931
30
0.0
11
0.000000
21
0.000000
31
0.0
0
LINE
8
MCD_Layer_0
10
0.007931
20
0.007931
30
0.0
11
0.000000
21
0.000000
31
0.0
0
LINE
8
MCD_Layer_0
10
0.007931
20
0.003894
30
0.0
11
0.000000
21
0.000000
31
0.0
0
LINE
8
MCD_Layer_0
10
0.003894
20
0.003894
30
0.0
11
0.000000
21
0.000000
31
0.0
0
LINE
8
MCD_Layer_0
10
0.002550
20
0.000000
30
0.0
11
0.000000
21
0.000000
31
0.0
0
LINE
8
MCD_Layer_0
10
0.000000
20
0.000241
30
0.0
11
0.000000
21
0.000000
31
0.0
0
LINE
8
MCD_Layer_0
10
0.000241
20
-0.000000
30
0.0
11
0.000000
21
0.000000
31
0.0
0
LINE
8
MCD_Layer_0
10
-0.000000
20
0.000204
30
0.0
11
0.000000
21
0.000000
31
0.0
0
LINE
8
MCD_Layer_0
10
0.000204
20
0.000000
30
0.0
11
0.000000
21
0.000000
31
0.0
0
LINE
8
MCD_Layer_0
10
0.000000
20
0.000984
30
0.0
11
0.000000
21
0.000000
31
0.0
0
LINE
8
MCD_Layer_0
10
0.000984
20
0.000984
30
0.0
11
0.000000
21
0.000000
31
0.0
0
LINE
8
MCD_Layer_0
10
0.000984
20
0.001969
30
0.0
11
0.000000
21
0.000000
31
0.0
0
LINE
8
MCD_Layer_0
10
0.007806
20
0.007813
30
0.0
11
0.000000
21
0.000000
31
0.0
0
LINE
8
MCD_Layer_0
10
0.007813
20
0.000000
30
0.0
11
0.000000
21
0.000000
31
0.0
0
LINE
8
MCD_Layer_0
10
0.008675
20
0.004863
30
0.0
11
0.000000
21
0.000000
31
0.0
0
LINE
8
MCD_Layer_0
10
0.001141
20
0.000730
30
0.0
11
0.000000
21
0.000000
31
0.0
0
LINE
8
MCD_Layer_0
10
0.000730
20
0.000730
30
0.0
11
0.000000
21
0.000000
31
0.0
0
LINE
8
MCD_Layer_0
10
0.000730
20
0.007188
30
0.0
11
0.000000
21
0.000000
31
0.0
0
LINE
8
MCD_Layer_0
10
0.007188
20
0.007188
30
0.0
11
0.000000
21
0.000000
31
0.0
0
LINE
8
MCD_Layer_0
10
0.007188
20
0.006688
30
0.0
11
0.000000
21
0.000000
31
0.0
0
LINE
8
MCD_Layer_0
10
0.000000
20
0.000000
30
0.0
11
0.000000
21
0.000000
31
0.0
0
LINE
8
MCD_Layer_0
10
0.000000
20
0.000000
30
0.0
11
0.000000
21
0.000000
31
0.0
0
LINE
8
MCD_Layer_0
10
0.000000
20
0.000000
30
0.0
11
0.000000
21
0.000000
31
0.0
0
LINE
8
MCD_Layer_0
10
0.000000
20
0.003275
30
0.0
11
0.000000
21
0.000000
31
0.0
0
LINE
8
MCD_Layer_0
10
0.003900
20
0.003900
30
0.0
11
0.000000
21
0.000000
31
0.0
0
LINE
8
MCD_Layer_0
10
0.003900
20
0.007813
30
0.0
11
0.000000
21
0.000000
31
0.0
0
LINE
8
MCD_Layer_0
10
0.007813
20
0.007813
30
0.0
11
0.000000
21
0.000000
31
0.0
0
LINE
8
MCD_Layer_0
10
0.000014
20
0.000000
30
0.0
11
0.000000
21
0.000000
31
0.0
0
LINE
8
MCD_Layer_0
10
0.003275
20
0.000042
30
0.0
11
0.000000
21
-0.000000
31
0.0
0
LINE
8
MCD_Layer_0
10
0.000103
20
0.000103
30
0.0
11
0.000000
21
0.000000
31
0.0
0
LINE
8
MCD_Layer_0
10
0.000082
20
0.000054
30
0.0
11
0.000000
21
0.000000
31
0.0
0
LINE
8
MCD_Layer_0
10
0.000054
20
0.000054
30
0.0
11
0.000000
21
0.000000
31
0.0
0
LINE
8
MCD_Layer_0
10
0.000054
20
0.000366
30
0.0
11
0.000000
21
0.000000
31
0.0
0
LINE
8
MCD_Layer_0
10
0.000366
20
0.000366
30
0.0
11
0.000000
21
0.000000
31
0.0
0
LINE
8
MCD_Layer_0
10
0.000366
20
0.000224
30
0.0
11
0.000000
21
0.000000
31
0.0
0
LINE
8
MCD_Layer_0
10
0.000185
20
0.000185
30
0.0
11
0.000000
21
0.000000
31
0.0
0
LINE
8
MCD_Layer_0
10
0.001641
20
0.000816
30
0.0
11
0.000000
21
0.000000
31
0.0
0
LINE
8
MCD_Layer_0
10
0.000816
20
0.000816
30
0.0
11
0.000000
21
0.000000
31
0.0
0
LINE
8
MCD_Layer_0
10
0.000816
20
0.007813
30
0.0
11
0.000000
21
0.000000
31
0.0
0
LINE
8
MCD_Layer_0
10
0.007813
20
0.007813
30
0.0
11
0.000000
21
0.000000
31
0.0
0
LINE
8
MCD_Layer_0
10
0.007813
20
0.007125
30
0.0
11
0.000000
21
0.000000
31
0.0
0
LINE
8
MCD_Layer_0
10
0.000000
20
0.000000
30
0.0
11
0.000000
21
0.000000
31
0.0
0
LINE
8
MCD_Layer_0
10
0.000003
20
0.000143
30
0.0
11
0.000000
21
0.000000
31
0.0
0
LINE
8
MCD_Layer_0
10
0.003506
20
0.001442
30
0.0
11
0.000000
21
0.000000
31
0.0
0
LINE
8
MCD_Layer_0
10
0.000347
20
0.000018
30
0.0
11
0.000000
21
0.000000
31
0.0
0
LINE
8
MCD_Layer_0
10
0.000000
20
0.000476
30
0.0
11
0.000000
21
0.000000
31
0.0
0
LINE
8
MCD_Layer_0
10
0.000476
20
0.000000
30
0.0
11
0.000000
21
0.000000
31
0.0
0
LINE
8
MCD_Layer_0
10
0.000000
20
0.000478
30
0.0
11
0.000000
21
0.000000
31
0.0
0
LINE
8
MCD_Layer_0
10
0.000478
20
0.000000
30
0.0
11
0.000000
21
0.000000
31
0.0
0
LINE
8
MCD_Layer_0
10
0.000000
20
0.007815
30
0.0
11
0.000000
21
0.000000
31
0.0
0
LINE
8
MCD_Layer_0
10
0.007815
20
0.007815
30
0.0
11
0.000000
21
0.000000
31
0.0
0
LINE
8
MCD_Layer_0
10
0.007815
20
0.004609
30
0.0
11
0.000000
21
0.000000
31
0.0
0
LINE
8
MCD_Layer_0
10
0.000507
20
0.000000
30
0.0
11
0.000000
21
0.000000
31
0.0
0
LINE
8
MCD_Layer_0
10
0.000000
20
0.000507
30
0.0
11
0.000000
21
0.000000
31
0.0
0
LINE
8
MCD_Layer_0
10
0.000507
20
0.000000
30
0.0
11
0.000000
21
0.000000
31
0.0
0
LINE
8
MCD_Layer_0
10
0.000000
20
0.007815
30
0.0
11
0.000000
21
0.000000
31
0.0
0
LINE
8
MCD_Layer_0
10
0.007815
20
0.007815
30
0.0
11
0.000000
21
0.000000
31
0.0
0
LINE
8
MCD_Layer_0
10
0.007815
20
0.002267
30
0.0
11
0.000000
21
0.000000
31
0.0
0
LINE
8
MCD_Layer_0
10
0.002267
20
0.002267
30
0.0
11
0.000000
21
0.000000
31
0.0
0
LINE
8
MCD_Layer_0
10
0.002267
20
0.000114
30
0.0
11
0.000000
21
0.000000
31
0.0
0
LINE
8
MCD_Layer_0
10
0.000114
20
0.000114
30
0.0
11
0.000000
21
0.000000
31
0.0
0
LINE
8
MCD_Layer_0
10
0.000114
20
0.000032
30
0.0
11
0.000000
21
0.000000
31
0.0
0
LINE
8
MCD_Layer_0
10
0.000032
20
0.000032
30
0.0
11
0.000000
21
0.000000
31
0.0
0
LINE
8
MCD_Layer_0
10
0.000032
20
0.000000
30
0.0
11
0.000000
21
0.000000
31
0.0
0
LINE
8
MCD_Layer_0
10
0.000000
20
0.000000
30
0.0
11
0.000000
21
0.000000
31
0.0
0
LINE
8
MCD_Layer_0
10
0.000000
20
0.007815
30
0.0
11
0.000000
21
0.000000
31
0.0
0
LINE
8
MCD_Layer_0
10
0.007815
20
0.007815
30
0.0
11
0.000000
21
0.000000
31
0.0
0
LINE
8
MCD_Layer_0
10
0.007815
20
0.000000
30
0.0
11
0.000000
21
0.000000
31
0.0
0
LINE
8
MCD_Layer_0
10
0.000000
20
0.007815
30
0.0
11
0.000000
21
0.000000
31
0.0
0
LINE
8
MCD_Layer_0
10
0.007815
20
0.007815
30
0.0
11
0.000000
21
0.000000
31
0.0
0
LINE
8
MCD_Layer_0
10
0.007815
20
0.002267
30
0.0
11
0.000000
21
0.000000
31
0.0
0
LINE
8
MCD_Layer_0
10
0.002267
20
0.002267
30
0.0
11
0.000000
21
0.000000
31
0.0
0
LINE
8
MCD_Layer_0
10
0.002267
20
0.000114
30
0.0
11
0.000000
21
0.000000
31
0.0
0
LINE
8
MCD_Layer_0
10
0.000114
20
0.000114
30
0.0
11
0.000000
21
0.000000
31
0.0
0
LINE
8
MCD_Layer_0
10
0.000114
20
0.000032
30
0.0
11
0.000000
21
0.000000
31
0.0
0
LINE
8
MCD_Layer_0
10
0.000032
20
0.000032
30
0.0
11
0.000000
21
0.000000
31
0.0
0
LINE
8
MCD_Layer_0
10
0.000032
20
0.000000
30
0.0
11
0.000000
21
0.000000
31
0.0
0
LINE
8
MCD_Layer_0
10
0.000000
20
0.007815
30
0.0
11
0.000000
21
0.000000
31
0.0
0
LINE
8
MCD_Layer_0
10
0.007815
20
0.007815
30
0.0
11
0.000000
21
0.000000
31
0.0
0
LINE
8
MCD_Layer_0
10
0.000000
20
0.000001
30
0.0
11
0.000000
21
0.000000
31
0.0
0
LINE
8
MCD_Layer_0
10
0.002267
20
0.002267
30
0.0
11
0.000000
21
0.000000
31
0.0
0
LINE
8
MCD_Layer_0
10
0.002267
20
0.000017
30
0.0
11
0.000000
21
0.000000
31
0.0
0
LINE
8
MCD_Layer_0
10
0.000000
20
0.000778
30
0.0
11
0.000000
21
0.000000
31
0.0
0
LINE
8
MCD_Layer_0
10
0.000778
20
0.000000
30
0.0
11
0.000000
21
0.000000
31
0.0
0
LINE
8
MCD_Layer_0
10
0.000000
20
0.000778
30
0.0
11
0.000000
21
0.000000
31
0.0
0
LINE
8
MCD_Layer_0
10
0.000778
20
0.000000
30
0.0
11
0.000000
21
0.000000
31
0.0
0
LINE
8
MCD_Layer_0
10
0.000000
20
0.000778
30
0.0
11
0.000000
21
0.000000
31
0.0
0
LINE
8
MCD_Layer_0
10
0.000778
20
0.000000
30
0.0
11
0.000000
21
0.000000
31
0.0
0
LINE
8
MCD_Layer_0
10
0.000000
20
0.007815
30
0.0
11
0.000000
21
0.000000
31
0.0
0
LINE
8
MCD_Layer_0
10
0.007815
20
0.007815
30
0.0
11
0.000000
21
0.000000
31
0.0
0
LINE
8
MCD_Layer_0
10
0.007815
20
0.000000
30
0.0
11
0.000000
21
0.000000
31
0.0
0
LINE
8
MCD_Layer_0
10
0.000000
20
0.000551
30
0.0
11
0.000000
21
0.000000
31
0.0
0
LINE
8
MCD_Layer_0
10
0.000551
20
0.000000
30
0.0
11
0.000000
21
0.000000
31
0.0
0
LINE
8
MCD_Layer_0
10
0.000000
20
0.000032
30
0.0
11
0.000000
21
0.000000
31
0.0
0
LINE
8
MCD_Layer_0
10
0.000114
20
0.000521
30
0.0
11
0.000000
21
0.000000
31
0.0
0
LINE
8
MCD_Layer_0
10
0.000521
20
0.000114
30
0.0
11
0.000000
21
0.000000
31
0.0
0
LINE
8
MCD_Layer_0
10
0.000032
20
0.000000
30
0.0
11
0.000000
21
0.000000
31
0.0
0
LINE
8
MCD_Layer_0
10
0.000032
20
0.000032
30
0.0
11
0.000000
21
0.000000
31
0.0
0
LINE
8
MCD_Layer_0
10
0.000114
20
0.000114
30
0.0
11
0.000000
21
0.000000
31
0.0
0
LINE
8
MCD_Layer_0
10
0.000000
20
0.007815
30
0.0
11
0.000000
21
0.000000
31
0.0
0
LINE
8
MCD_Layer_0
10
0.007815
20
0.007815
30
0.0
11
0.000000
21
0.000000
31
0.0
0
LINE
8
MCD_Layer_0
10
0.007815
20
0.000114
30
0.0
11
0.000000
21
0.000000
31
0.0
0
LINE
8
MCD_Layer_0
10
0.000114
20
0.000114
30
0.0
11
0.000000
21
0.000000
31
0.0
0
LINE
8
MCD_Layer_0
10
0.000114
20
0.007815
30
0.0
11
0.000000
21
0.000000
31
0.0
0
LINE
8
MCD_Layer_0
10
0.007815
20
0.007815
30
0.0
11
0.000000
21
0.000000
31
0.0
0
LINE
8
MCD_Layer_0
10
0.007815
20
0.000000
30
0.0
11
0.000000
21
0.000000
31
0.0
0
LINE
8
MCD_Layer_0
10
0.000000
20
0.000032
30
0.0
11
0.000000
21
0.000000
31
0.0
0
LINE
8
MCD_Layer_0
10
0.000032
20
0.000032
30
0.0
11
0.000000
21
0.000000
31
0.0
0
LINE
8
MCD_Layer_0
10
0.000032
20
0.000000
30
0.0
11
0.000000
21
0.000000
31
0.0
0
LINE
8
MCD_Layer_0
10
0.000000
20
0.007815
30
0.0
11
0.000000
21
0.000000
31
0.0
0
LINE
8
MCD_Layer_0
10
0.007815
20
0.007815
30
0.0
11
0.000000
21
0.000000
31
0.0
0
LINE
8
MCD_Layer_0
10
0.002267
20
0.002267
30
0.0
11
0.000000
21
0.000000
31
0.0
0
LINE
8
MCD_Layer_0
10
0.003236
20
0.001348
30
0.0
11
0.000000
21
0.000000
31
0.0
0
LINE
8
MCD_Layer_0
10
0.000000
20
0.000000
30
0.0
11
0.000000
21
0.000000
31
0.0
0
LINE
8
MCD_Layer_0
10
-0.000000
20
0.000000
30
0.0
11
0.000000
21
0.000000
31
0.0
0
LINE
8
MCD_Layer_0
10
0.000000
20
0.000000
30
0.0
11
0.000000
21
0.000000
31
0.0
0
LINE
8
MCD_Layer_0
10
0.000000
20
0.000000
30
0.0
11
0.000000
21
0.000000
31
0.0
0
LINE
8
MCD_Layer_0
10
0.000000
20
0.003828
30
0.0
11
0.000000
21
0.000000
31
0.0
0
LINE
8
MCD_Layer_0
10
0.005063
20
0.005063
30
0.0
11
0.000000
21
0.000000
31
0.0
0
LINE
8
MCD_Layer_0
10
0.005063
20
0.007688
30
0.0
11
0.000000
21
0.000000
31
0.0
0
LINE
8
MCD_Layer_0
10
0.007688
20
0.007688
30
0.0
11
0.000000
21
0.000000
31
0.0
0
LINE
8
MCD_Layer_0
10
0.007688
20
0.005063
30
0.0
11
0.000000
21
0.000000
31
0.0
0
LINE
8
MCD_Layer_0
10
0.005063
20
0.005063
30
0.0
11
0.000000
21
0.000000
31
0.0
0
LINE
8
MCD_Layer_0
10
0.003828
20
0.000000
30
0.0
11
0.000000
21
0.000000
31
0.0
0
LINE
8
MCD_Layer_0
10
0.000000
20
0.003938
30
0.0
11
0.000000
21
0.000000
31
0.0
0
LINE
8
MCD_Layer_0
10
0.005188
20
0.005188
30
0.0
11
0.000000
21
0.000000
31
0.0
0
LINE
8
MCD_Layer_0
10
0.005188
20
0.007813
30
0.0
11
0.000000
21
0.000000
31
0.0
0
LINE
8
MCD_Layer_0
10
0.007813
20
0.007813
30
0.0
11
0.000000
21
0.000000
31
0.0
0
LINE
8
MCD_Layer_0
10
0.007813
20
0.005188
30
0.0
11
0.000000
21
0.000000
31
0.0
0
LINE
8
MCD_Layer_0
10
0.005188
20
0.005188
30
0.0
11
0.000000
21
0.000000
31
0.0
0
LINE
8
MCD_Layer_0
10
0.005188
20
0.005188
30
0.0
11
0.000000
21
0.000000
31
0.0
0
LINE
8
MCD_Layer_0
10
0.003938
20
0.000224
30
0.0
11
0.000000
21
0.000000
31
0.0
0
LINE
8
MCD_Layer_0
10
0.000224
20
0.000224
30
0.0
11
0.000000
21
0.000000
31
0.0
0
LINE
8
MCD_Layer_0
10
0.000224
20
0.003938
30
0.0
11
0.000000
21
0.000000
31
0.0
0
LINE
8
MCD_Layer_0
10
0.005188
20
0.005188
30
0.0
11
0.000000
21
0.000000
31
0.0
0
LINE
8
MCD_Layer_0
10
0.005188
20
0.007813
30
0.0
11
0.000000
21
0.000000
31
0.0
0
LINE
8
MCD_Layer_0
10
0.007813
20
0.007813
30
0.0
11
0.000000
21
0.000000
31
0.0
0
LINE
8
MCD_Layer_0
10
0.007813
20
0.005188
30
0.0
11
0.000000
21
0.000000
31
0.0
0
LINE
8
MCD_Layer_0
10
0.005188
20
0.005188
30
0.0
11
0.000000
21
0.000000
31
0.0
0
LINE
8
MCD_Layer_0
10
0.005188
20
0.005188
30
0.0
11
0.000000
21
0.000000
31
0.0
0
LINE
8
MCD_Layer_0
10
0.003938
20
0.000000
30
0.0
11
0.000000
21
0.000000
31
0.0
0
LINE
8
MCD_Layer_0
10
0.000000
20
0.000122
30
0.0
11
0.000000
21
0.000000
31
0.0
0
LINE
8
MCD_Layer_0
10
0.000122
20
0.000122
30
0.0
11
0.000000
21
0.000000
31
0.0
0
LINE
8
MCD_Layer_0
10
0.000122
20
0.000000
30
0.0
11
0.000000
21
0.000000
31
0.0
0
LINE
8
MCD_Layer_0
10
0.000000
20
0.004061
30
0.0
11
0.000000
21
0.000000
31
0.0
0
LINE
8
MCD_Layer_0
10
0.005374
20
0.005374
30
0.0
11
0.000000
21
0.000000
31
0.0
0
LINE
8
MCD_Layer_0
10
0.005374
20
0.007936
30
0.0
11
0.000000
21
0.000000
31
0.0
0
LINE
8
MCD_Layer_0
10
0.007936
20
0.007936
30
0.0
11
0.000000
21
0.000000
31
0.0
0
LINE
8
MCD_Layer_0
10
0.007936
20
0.000001
30
0.0
11
0.000000
21
0.000000
31
0.0
0
LINE
8
MCD_Layer_0
10
0.000001
20
0.004061
30
0.0
11
0.000000
21
0.000000
31
0.0
0
LINE
8
MCD_Layer_0
10
0.005374
20
0.005374
30
0.0
11
0.000000
21
0.000000
31
0.0
0
LINE
8
MCD_Layer_0
10
0.005374
20
0.007936
30
0.0
11
0.000000
21
0.000000
31
0.0
0
LINE
8
MCD_Layer_0
10
0.007936
20
0.007936
30
0.0
11
0.000000
21
0.000000
31
0.0
0
LINE
8
MCD_Layer_0
10
0.007936
20
0.005374
30
0.0
11
0.000000
21
0.000000
31
0.0
0
LINE
8
MCD_Layer_0
10
0.005374
20
0.005374
30
0.0
11
0.000000
21
0.000000
31
0.0
0
LINE
8
MCD_Layer_0
10
0.004061
20
-0.000000
30
0.0
11
0.000000
21
0.000000
31
0.0
0
LINE
8
MCD_Layer_0
10
-0.000000
20
0.000660
30
0.0
11
0.000000
21
0.000000
31
0.0
0
LINE
8
MCD_Layer_0
10
0.000660
20
0.000000
30
0.0
11
0.000000
21
0.000000
31
0.0
0
LINE
8
MCD_Layer_0
10
-0.000000
20
0.000000
30
0.0
11
0.000000
21
0.000000
31
0.0
0
LINE
8
MCD_Layer_0
10
0.000000
20
0.000000
30
0.0
11
0.000000
21
0.000000
31
0.0
0
LINE
8
MCD_Layer_0
10
0.000000
20
0.000000
30
0.0
11
0.000000
21
0.000000
31
0.0
0
LINE
8
MCD_Layer_0
10
0.007706
20
0.009250
30
0.0
11
0.000000
21
0.000000
31
0.0
0
LINE
8
MCD_Layer_0
10
0.009250
20
0.009250
30
0.0
11
0.000000
21
0.000000
31
0.0
0
LINE
8
MCD_Layer_0
10
0.009250
20
0.000668
30
0.0
11
0.000000
21
0.000000
31
0.0
0
LINE
8
MCD_Layer_0
10
0.000668
20
0.000668
30
0.0
11
0.000000
21
0.000000
31
0.0
0
LINE
8
MCD_Layer_0
10
0.000668
20
0.001016
30
0.0
11
0.000000
21
0.000000
31
0.0
0
LINE
8
MCD_Layer_0
10
-512.000368
20
-512.000124
30
0.0
11
0.000000
21
0.000000
31
0.0
0
LINE
8
MCD_Layer_0
10
-512.000124
20
0.000000
30
0.0
11
0.000000
21
0.000000
31
0.0
0
LINE
8
MCD_Layer_1
10
0.044508
20
0.044508
30
0.0
11
0.000000
21
0.000000
31
0.0
0
LINE
8
MCD_Layer_1
10
0.073391
20
0.073391
30
0.0
11
0.000000
21
0.000000
31
0.0
0
ARC
8
MCD_Layer_0
10
0.000000
20
0.000000
40
0.000000
50
180.000000
51
179.242176
0
ARC
8
MCD_Layer_0
10
0.000000
20
0.000000
40
0.000000
50
180.000000
51
171.510073
0
ARC
8
MCD_Layer_0
10
0.000000
20
0.000000
40
0.000000
50
180.000000
51
12.013421
0
ARC
8
MCD_Layer_0
10
0.001344
20
0.000357
40
0.001390
50
194.861908
51
105.648559
0
ARC
8
MCD_Layer_0
10
0.000000
20
0.000000
40
0.000000
50
180.000000
51
1.164720
0
ARC
8
MCD_Layer_0
10
0.000000
20
0.000000
40
0.000000
50
5.782603
51
360.000000
0
ARC
8
MCD_Layer_0
10
0.000000
20
0.000000
40
0.000000
50
180.000000
51
179.130310
0
ARC
8
MCD_Layer_0
10
0.000000
20
0.000000
40
0.000000
50
180.000000
51
169.631307
0
ARC
8
MCD_Layer_0
10
-0.279507
20
-22.245332
40
22.247088
50
270.719870
51
89.280130
0
ARC
8
MCD_Layer_0
10
0.001020
20
-0.000133
40
0.001029
50
172.580576
51
172.371015
0
ARC
8
MCD_Layer_0
10
0.003609
20
0.000653
40
0.003668
50
190.257209
51
115.320763
0
ARC
8
MCD_Layer_0
10
0.001950
20
0.001581
40
0.002510
50
219.026562
51
58.138834
0
ARC
8
MCD_Layer_0
10
0.001638
20
0.002185
40
0.002730
50
233.145186
51
34.032914
0
ARC
8
MCD_Layer_0
10
0.001950
20
0.001581
40
0.002510
50
219.026562
51
58.138839
0
ARC
8
MCD_Layer_0
10
0.001638
20
0.002185
40
0.002730
50
233.143600
51
34.034433
0
ARC
8
MCD_Layer_0
10
0.001950
20
0.001581
40
0.002510
50
219.034808
51
58.134190
0
ARC
8
MCD_Layer_0
10
0.000015
20
0.000000
40
0.000015
50
179.999944
51
9.118961
0
ARC
8
MCD_Layer_0
10
0.000000
20
0.000000
40
0.000015
50
2.218660
51
360.000000
0
ARC
8
MCD_Layer_0
10
0.000000
20
0.000000
40
0.000000
50
360.000000
51
180.289129
0
ARC
8
MCD_Layer_0
10
0.000000
20
0.000000
40
0.000000
50
180.000000
51
179.508188
0
ARC
8
MCD_Layer_0
10
0.000010
20
0.000000
40
0.000010
50
180.003891
51
177.877319
0
ARC
8
MCD_Layer_0
10
0.000014
20
0.000000
40
0.000014
50
180.003326
51
104.073529
0
ARC
8
MCD_Layer_0
10
0.001950
20
0.001581
40
0.002510
50
219.026561
51
58.138832
0
ARC
8
MCD_Layer_0
10
0.001852
20
0.002040
40
0.002755
50
227.765761
51
41.958094
0
ARC
8
MCD_Layer_0
10
0.000053
20
0.000660
40
0.000662
50
265.412438
51
326.163658
0
ARC
8
MCD_Layer_0
10
0.000020
20
0.000105
40
0.000107
50
258.463855
51
323.146066
0
ARC
8
MCD_Layer_0
10
0.001501
20
0.002303
40
0.002749
50
236.904452
51
28.796956
0
ARC
8
MCD_Layer_0
10
0.001955
20
0.001438
40
0.002426
50
216.333024
51
64.440499
0
ARC
8
MCD_Layer_0
10
0.001753
20
0.002086
40
0.002725
50
229.956205
51
38.647400
0
ARC
8
MCD_Layer_0
10
0.001955
20
0.001733
40
0.002612
50
221.553627
51
52.830966
0
ARC
8
MCD_Layer_0
10
0.000000
20
0.000000
40
0.000000
50
180.000000
51
2.195830
0
ARC
8
MCD_Layer_0
10
0.001953
20
0.001584
40
0.002514
50
219.035899
51
58.116733
0
ARC
8
MCD_Layer_0
10
0.000000
20
0.000000
40
0.000000
50
180.000000
51
179.970541
0
ARC
8
MCD_Layer_0
10
0.000338
20
0.000021
40
0.000339
50
183.508264
51
176.437855
0
ARC
8
MCD_Layer_0
10
0.001523
20
0.000533
40
0.001614
50
199.277825
51
121.682504
0
ARC
8
MCD_Layer_0
10
0.001933
20
0.001552
40
0.002479
50
218.755966
51
63.289418
0
ARC
8
MCD_Layer_0
10
0.001969
20
0.000972
40
0.002196
50
206.277472
51
99.007276
0
ARC
8
MCD_Layer_0
10
0.000079
20
0.000048
40
0.000092
50
211.299551
51
63.292355
0
ARC
8
MCD_Layer_0
10
0.000031
20
0.000024
40
0.000039
50
218.308729
51
58.875930
0
ARC
8
MCD_Layer_0
10
0.000000
20
0.000000
40
0.000000
50
179.242176
51
360.000000
0
ARC
8
MCD_Layer_0
10
0.000000
20
0.000000
40
0.000000
50
180.000000
51
162.914071
0
ARC
8
MCD_Layer_0
10
0.001969
20
0.001584
40
0.002527
50
218.826210
51
58.294716
0
ARC
8
MCD_Layer_0
10
0.001959
20
0.001573
40
0.002513
50
218.762525
51
58.922860
0
ARC
8
MCD_Layer_0
10
0.001959
20
0.001573
40
0.002513
50
218.756504
51
58.926126
0
ARC
8
MCD_Layer_0
10
0.001628
20
0.002211
40
0.002746
50
233.632760
51
33.463211
0
ARC
8
MCD_Layer_0
10
0.000000
20
0.000000
40
0.000000
50
180.000000
51
0.000552
0
ARC
8
MCD_Layer_0
10
0.001927
20
0.001558
40
0.002477
50
218.955267
51
58.307346
0
ARC
8
MCD_Layer_0
10
0.001614
20
0.002161
40
0.002697
50
233.247455
51
33.895499
0
ARC
8
MCD_Layer_0
10
-0.000000
20
0.000000
40
0.000000
50
0.087999
51
360.000000
0
ARC
8
MCD_Layer_0
10
0.000000
20
0.000000
40
0.000001
50
180.000000
51
179.609352
0
ARC
8
MCD_Layer_0
10
0.000027
20
0.000000
40
0.000027
50
180.699786
51
173.517251
0
ARC
8
MCD_Layer_0
10
0.000195
20
-0.000008
40
0.000196
50
177.577358
51
149.546764
0
ARC
8
MCD_Layer_0
10
0.001898
20
0.000269
40
0.001917
50
188.056888
51
141.850141
0
ARC
8
MCD_Layer_0
10
0.004375
20
0.002662
40
0.005121
50
211.315681
51
96.482027
0
ARC
8
MCD_Layer_0
10
0.000023
20
0.000788
40
0.000788
50
268.333521
51
297.777612
0
ARC
8
MCD_Layer_0
10
0.000000
20
0.000000
40
0.000027
50
6.482749
51
360.000000
0
ARC
8
MCD_Layer_0
10
0.000000
20
0.000000
40
0.000000
50
180.000000
51
179.562924
0
ARC
8
MCD_Layer_0
10
0.000002
20
0.000000
40
0.000002
50
179.829762
51
175.709801
0
ARC
8
MCD_Layer_0
10
0.000054
20
0.000012
40
0.000055
50
192.560127
51
158.676403
0
ARC
8
MCD_Layer_0
10
0.000539
20
0.000042
40
0.000541
50
184.413217
51
142.973020
0
ARC
8
MCD_Layer_0
10
0.001852
20
0.000740
40
0.001994
50
201.790033
51
112.822363
0
ARC
8
MCD_Layer_0
10
0.002625
20
0.001772
40
0.003167
50
214.021551
51
70.098148
0
ARC
8
MCD_Layer_0
10
0.000054
20
0.001609
40
0.001610
50
268.087695
51
309.527892
0
ARC
8
MCD_Layer_0
10
0.000002
20
0.000000
40
0.000002
50
180.171773
51
16.945748
0
ARC
8
MCD_Layer_0
10
0.000000
20
0.000000
40
0.000000
50
180.000000
51
4.290198
0
ARC
8
MCD_Layer_0
10
0.000000
20
0.000000
40
0.000000
50
180.000000
51
179.950151
0
ARC
8
MCD_Layer_0
10
0.000001
20
0.000000
40
0.000001
50
180.000495
51
165.108806
0
ARC
8
MCD_Layer_0
10
0.000009
20
0.000000
40
0.000009
50
180.000000
51
160.373123
0
ARC
8
MCD_Layer_0
10
0.000065
20
0.000010
40
0.000065
50
188.680377
51
147.667583
0
ARC
8
MCD_Layer_0
10
0.000350
20
0.000046
40
0.000353
50
187.553985
51
128.708976
0
ARC
8
MCD_Layer_0
10
0.004500
20
0.000323
40
0.004512
50
184.106553
51
147.362886
0
ARC
8
MCD_Layer_0
10
0.003406
20
0.005002
40
0.006052
50
235.748150
51
22.439557
0
ARC
8
MCD_Layer_0
10
0.003906
20
0.003362
40
0.005154
50
220.720064
51
55.675296
0
ARC
8
MCD_Layer_0
10
0.002063
20
0.000427
40
0.002106
50
191.709586
51
124.989028
0
ARC
8
MCD_Layer_0
10
0.000252
20
0.001440
40
0.001462
50
260.073915
51
334.992862
0
ARC
8
MCD_Layer_0
10
0.000027
20
0.000741
40
0.000741
50
267.876829
51
309.989503
0
ARC
8
MCD_Layer_0
10
0.000006
20
0.000000
40
0.000006
50
179.999727
51
27.190287
0
ARC
8
MCD_Layer_0
10
0.001947
20
0.001272
40
0.002326
50
213.168561
51
74.970565
0
ARC
8
MCD_Layer_0
10
0.000000
20
0.000000
40
0.000002
50
68.677990
51
17.363134
0
ARC
8
MCD_Layer_0
10
0.000912
20
0.000053
40
0.000913
50
183.297239
51
176.688756
0
ARC
8
MCD_Layer_0
10
0.000143
20
0.000074
40
0.000161
50
207.454878
51
87.843308
0
ARC
8
MCD_Layer_0
10
0.000076
20
0.000200
40
0.000214
50
249.155998
51
11.585317
0
ARC
8
MCD_Layer_0
10
0.000015
20
0.000167
40
0.000167
50
264.703217
51
324.684986
0
ARC
8
MCD_Layer_0
10
0.000001
20
0.000000
40
0.000001
50
180.000000
51
5.087448
0
ARC
8
MCD_Layer_0
10
0.000000
20
0.000000
40
0.000000
50
180.000000
51
15.948942
0
ARC
8
MCD_Layer_0
10
0.000000
20
0.000000
40
0.000000
50
180.000000
51
179.966971
0
ARC
8
MCD_Layer_0
10
0.000001
20
0.000000
40
0.000001
50
180.000000
51
177.857589
0
ARC
8
MCD_Layer_0
10
0.000043
20
0.000006
40
0.000043
50
188.130166
51
166.880473
0
ARC
8
MCD_Layer_0
10
0.000047
20
0.000064
40
0.000080
50
233.491355
51
61.258281
0
ARC
8
MCD_Layer_0
10
0.000015
20
0.000083
40
0.000085
50
259.828925
51
340.257355
0
ARC
8
MCD_Layer_0
10
0.000001
20
0.000000
40
0.000001
50
180.000000
51
12.185926
0
ARC
8
MCD_Layer_0
10
0.000000
20
0.000000
40
0.000000
50
180.000000
51
6.777567
0
ARC
8
MCD_Layer_0
10
0.000033
20
0.000033
40
0.000047
50
224.702029
51
134.899988
0
ARC
8
MCD_Layer_0
10
0.000680
20
0.000004
40
0.000680
50
180.322780
51
154.460011
0
ARC
8
MCD_Layer_0
10
0.001914
20
0.000708
40
0.002041
50
200.297077
51
105.771489
0
ARC
8
MCD_Layer_0
10
0.002875
20
0.003370
40
0.004430
50
229.530194
51
30.605657
0
ARC
8
MCD_Layer_0
10
0.000044
20
0.001509
40
0.001509
50
268.312912
51
307.580084
0
ARC
8
MCD_Layer_0
10
0.000027
20
0.000000
40
0.000028
50
180.207303
51
179.727207
0
ARC
8
MCD_Layer_0
10
0.002025
20
0.000085
40
0.002027
50
182.389728
51
170.261387
0
ARC
8
MCD_Layer_0
10
0.004869
20
0.002311
40
0.005389
50
205.389633
51
98.738271
0
ARC
8
MCD_Layer_0
10
0.000000
20
0.000000
40
0.000000
50
180.000000
51
177.625363
0
ARC
8
MCD_Layer_0
10
0.000027
20
0.000000
40
0.000027
50
179.993309
51
178.692316
0
ARC
8
MCD_Layer_0
10
0.000641
20
0.000014
40
0.000642
50
181.271865
51
163.133022
0
ARC
8
MCD_Layer_0
10
0.001900
20
0.000384
40
0.001938
50
191.434013
51
108.565543
0
ARC
8
MCD_Layer_0
10
0.002831
20
0.001880
40
0.003399
50
213.584075
51
73.438291
0
ARC
8
MCD_Layer_0
10
0.000000
20
0.000000
40
0.000000
50
180.000000
51
1.307684
0
ARC
8
MCD_Layer_0
10
0.001950
20
0.001581
40
0.002510
50
219.029745
51
58.137508
0
ARC
8
MCD_Layer_0
10
0.000015
20
0.000000
40
0.000015
50
180.000031
51
9.118961
0
ARC
8
MCD_Layer_0
10
0.000014
20
0.000000
40
0.000014
50
180.000000
51
82.082480
0
ARC
8
MCD_Layer_0
10
0.000053
20
-0.000013
40
0.000055
50
166.368023
51
101.731353
0
ARC
8
MCD_Layer_0
10
0.000302
20
0.000055
40
0.000307
50
190.394539
51
129.642708
0
ARC
8
MCD_Layer_0
10
0.001109
20
0.000384
40
0.001174
50
199.111850
51
115.542874
0
ARC
8
MCD_Layer_0
10
0.001852
20
0.001210
40
0.002212
50
213.156933
51
80.443340
0
ARC
8
MCD_Layer_0
10
0.001950
20
0.001845
40
0.002685
50
223.416157
51
49.228523
0
ARC
8
MCD_Layer_0
10
0.001638
20
0.002185
40
0.002730
50
233.145186
51
34.032914
0
ARC
8
MCD_Layer_0
10
0.000000
20
0.000000
40
0.000000
50
180.000000
51
179.457694
0
ARC
8
MCD_Layer_0
10
0.000013
20
0.000000
40
0.000013
50
179.999953
51
178.900726
0
ARC
8
MCD_Layer_0
10
0.000028
20
0.000010
40
0.000030
50
199.264775
51
120.056773
0
ARC
8
MCD_Layer_0
10
0.000051
20
0.000028
40
0.000059
50
209.034186
51
85.462848
0
ARC
8
MCD_Layer_0
10
0.000041
20
0.000059
40
0.000072
50
235.119827
51
30.930290
0
ARC
8
MCD_Layer_0
10
0.000092
20
0.000120
40
0.000152
50
232.529531
51
30.019185
0
ARC
8
MCD_Layer_0
10
0.001430
20
0.000321
40
0.001465
50
192.661621
51
148.181514
0
ARC
8
MCD_Layer_0
10
0.003063
20
0.003594
40
0.004722
50
229.563209
51
30.638607
0
ARC
8
MCD_Layer_0
10
0.000023
20
0.000117
40
0.000119
50
258.914910
51
10.278131
0
ARC
8
MCD_Layer_0
10
0.000000
20
0.000000
40
0.000000
50
180.000000
51
1.163186
0
ARC
8
MCD_Layer_0
10
0.000000
20
0.000000
40
0.000000
50
180.000000
51
177.113997
0
ARC
8
MCD_Layer_0
10
0.000003
20
0.000000
40
0.000003
50
180.013050
51
162.976425
0
ARC
8
MCD_Layer_0
10
0.000559
20
0.000006
40
0.000559
50
180.574207
51
138.013872
0
ARC
8
MCD_Layer_0
10
0.001741
20
0.000972
40
0.001994
50
209.189993
51
98.608076
0
ARC
8
MCD_Layer_0
10
0.000174
20
0.000809
40
0.000827
50
257.883505
51
342.274999
0
ARC
8
MCD_Layer_0
10
0.000000
20
0.000000
40
0.000000
50
180.000000
51
6.999451
0
ARC
8
MCD_Layer_0
10
0.000000
20
0.000000
40
0.000000
50
180.000000
51
179.820576
0
ARC
8
MCD_Layer_0
10
0.000000
20
0.000000
40
0.000000
50
180.000000
51
178.209823
0
ARC
8
MCD_Layer_0
10
0.001354
20
0.000155
40
0.001363
50
186.529540
51
130.077682
0
ARC
8
MCD_Layer_0
10
0.003620
20
0.001133
40
0.003793
50
197.381963
51
103.919100
0
ARC
8
MCD_Layer_0
10
0.004376
20
0.003532
40
0.005623
50
218.903042
51
59.386600
0
ARC
8
MCD_Layer_0
10
0.000000
20
0.000000
40
0.000000
50
1.790177
51
360.000000
0
ARC
8
MCD_Layer_0
10
0.000000
20
0.000000
40
0.000000
50
180.000000
51
164.466158
0
ARC
8
MCD_Layer_0
10
0.000000
20
0.000000
40
0.000000
50
180.000000
51
171.476635
0
ARC
8
MCD_Layer_0
10
0.000655
20
0.000169
40
0.000676
50
194.437723
51
105.180732
0
ARC
8
MCD_Layer_0
10
0.001154
20
0.000525
40
0.001268
50
204.482641
51
82.920076
0
ARC
8
MCD_Layer_0
10
0.001368
20
0.001125
40
0.001771
50
219.437649
51
57.955706
0
ARC
8
MCD_Layer_0
10
0.001152
20
0.001538
40
0.001922
50
233.156924
51
34.505936
0
ARC
8
MCD_Layer_0
10
0.000656
20
0.001533
40
0.001667
50
246.841404
51
8.633945
0
ARC
8
MCD_Layer_0
10
0.000239
20
0.001076
40
0.001102
50
257.482978
51
346.632344
0
ARC
8
MCD_Layer_0
10
0.000000
20
0.000000
40
0.000000
50
180.000000
51
8.567344
0
ARC
8
MCD_Layer_0
10
0.003907
20
0.002098
40
0.004435
50
208.232590
51
80.903721
0
ARC
8
MCD_Layer_0
10
0.003907
20
0.004376
40
0.005867
50
228.238632
51
48.238583
0
ARC
8
MCD_Layer_0
10
0.001221
20
0.000267
40
0.001250
50
192.347067
51
124.859898
0
ARC
8
MCD_Layer_0
10
0.001221
20
0.001368
40
0.001833
50
228.247747
51
48.247708
0
ARC
8
MCD_Layer_0
10
0.000673
20
0.001650
40
0.001782
50
247.812268
51
6.968065
0
ARC
8
MCD_Layer_0
10
0.000253
20
0.001092
40
0.001121
50
256.938524
51
347.150588
0
ARC
8
MCD_Layer_0
10
0.000000
20
0.000000
40
0.000000
50
180.000000
51
173.775269
0
ARC
8
MCD_Layer_0
10
0.000000
20
0.000000
40
0.000000
50
0.508625
51
360.000000
0
ARC
8
MCD_Layer_0
10
0.000000
20
0.000000
40
0.000000
50
180.000000
51
179.976586
0
ARC
8
MCD_Layer_0
10
0.000010
20
0.000138
40
0.000139
50
265.698913
51
322.215523
0
ARC
8
MCD_Layer_0
10
0.000006
20
0.000000
40
0.000006
50
180.000000
51
35.225465
0
ARC
8
MCD_Layer_0
10
0.000001
20
0.000000
40
0.000001
50
180.000000
51
21.133372
0
ARC
8
MCD_Layer_0
10
0.000000
20
0.000000
40
0.000001
50
9.669279
51
360.000000
0
ARC
8
MCD_Layer_0
10
0.000000
20
0.000000
40
0.000000
50
0.235996
51
360.000000
0
ARC
8
MCD_Layer_0
10
0.000023
20
0.000000
40
0.000023
50
180.000000
51
108.371540
0
ARC
8
MCD_Layer_0
10
0.000030
20
0.000008
40
0.000031
50
194.703600
51
102.189210
0
ARC
8
MCD_Layer_0
10
0.000096
20
0.000014
40
0.000097
50
188.439496
51
112.055657
0
ARC
8
MCD_Layer_0
10
0.000510
20
0.000041
40
0.000512
50
184.600818
51
128.414789
0
ARC
8
MCD_Layer_0
10
0.001133
20
0.000491
40
0.001235
50
203.418415
51
95.225267
0
ARC
8
MCD_Layer_0
10
0.000002
20
0.000000
40
0.000002
50
180.000325
51
109.316314
0
ARC
8
MCD_Layer_0
10
0.000000
20
0.000000
40
0.000000
50
180.000000
51
22.207065
0
ARC
8
MCD_Layer_0
10
0.003523
20
0.001293
40
0.003753
50
200.147480
51
137.016036
0
ARC
8
MCD_Layer_0
10
0.003523
20
0.001825
40
0.003968
50
207.382871
51
81.239511
0
ARC
8
MCD_Layer_0
10
0.001180
20
0.000517
40
0.001289
50
203.660802
51
108.206902
0
ARC
8
MCD_Layer_0
10
0.001180
20
0.001368
40
0.001807
50
229.208940
51
49.208939
0
ARC
8
MCD_Layer_0
10
0.001180
20
0.000517
40
0.001289
50
203.661622
51
108.207955
0
ARC
8
MCD_Layer_0
10
0.001180
20
0.001368
40
0.001807
50
229.208946
51
49.208947
0
ARC
8
MCD_Layer_0
10
0.003008
20
0.000318
40
0.003024
50
186.041337
51
144.313570
0
ARC
8
MCD_Layer_0
10
0.000979
20
0.000241
40
0.001008
50
193.850970
51
116.980079
0
ARC
8
MCD_Layer_0
10
0.001049
20
0.001318
40
0.001684
50
231.470751
51
57.356518
0
ARC
8
MCD_Layer_0
10
0.000022
20
0.000520
40
0.000520
50
267.588939
51
301.740189
0
ARC
8
MCD_Layer_0
10
0.000000
20
0.000000
40
0.000000
50
180.000000
51
9.880088
0
ARC
8
MCD_Layer_0
10
0.000000
20
0.000000
40
0.000000
50
180.000000
51
3.524740
0
ARC
8
MCD_Layer_0
10
0.000000
20
0.000000
40
0.000000
50
180.000000
51
175.728027
0
ARC
8
MCD_Layer_0
10
0.000001
20
0.000000
40
0.000001
50
180.000000
51
166.028353
0
ARC
8
MCD_Layer_0
10
0.000033
20
0.000000
40
0.000033
50
179.990227
51
171.028801
0
ARC
8
MCD_Layer_0
10
0.000100
20
0.000007
40
0.000101
50
184.050118
51
132.212978
0
ARC
8
MCD_Layer_0
10
0.000374
20
0.000070
40
0.000381
50
190.651262
51
117.097161
0
ARC
8
MCD_Layer_0
10
0.000885
20
0.000454
40
0.000995
50
207.188050
51
97.855471
0
ARC
8
MCD_Layer_0
10
0.001133
20
0.000819
40
0.001398
50
215.837855
51
62.945877
0
ARC
8
MCD_Layer_0
10
0.000000
20
0.000000
40
0.000000
50
180.000000
51
175.523916
0
ARC
8
MCD_Layer_0
10
0.000030
20
0.000000
40
0.000031
50
180.722067
51
178.993777
0
ARC
8
MCD_Layer_0
10
0.000771
20
0.000021
40
0.000771
50
181.571665
51
163.755280
0
ARC
8
MCD_Layer_0
10
0.002845
20
-0.000105
40
0.002847
50
177.895176
51
117.255070
0
ARC
8
MCD_Layer_0
10
0.003926
20
0.002587
40
0.004702
50
213.385362
51
67.969723
0
ARC
8
MCD_Layer_0
10
0.004067
20
0.004314
40
0.005929
50
226.691458
51
50.320110
0
ARC
8
MCD_Layer_0
10
0.001271
20
0.000536
40
0.001379
50
202.863688
51
86.818765
0
ARC
8
MCD_Layer_0
10
0.001226
20
0.001443
40
0.001893
50
229.661498
51
45.959607
0
ARC
8
MCD_Layer_0
10
0.000952
20
0.001407
40
0.001698
50
235.913521
51
28.015732
0
ARC
8
MCD_Layer_0
10
0.000358
20
0.001631
40
0.001669
50
257.605244
51
337.775487
0
ARC
8
MCD_Layer_0
10
0.000015
20
0.001501
40
0.001501
50
269.434994
51
297.872591
0
ARC
8
MCD_Layer_0
10
0.000000
20
0.000000
40
0.000000
50
180.000000
51
2.062663
0
ARC
8
MCD_Layer_0
10
0.000000
20
0.000000
40
0.000000
50
168.509765
51
360.000000
0
ARC
8
MCD_Layer_0
10
0.000000
20
0.000000
40
0.000000
50
180.000000
51
0.000814
0
ARC
8
MCD_Layer_0
10
0.002531
20
0.001840
40
0.003129
50
216.009675
51
65.515630
0
ARC
8
MCD_Layer_0
10
0.000000
20
0.000000
40
0.000000
50
180.000000
51
179.609352
0
ARC
8
MCD_Layer_0
10
0.000027
20
0.000000
40
0.000027
50
180.000000
51
173.517248
0
ARC
8
MCD_Layer_0
10
0.000195
20
-0.000008
40
0.000196
50
177.577724
51
149.547251
0
ARC
8
MCD_Layer_0
10
0.001898
20
0.000269
40
0.001917
50
188.056859
51
141.850118
0
ARC
8
MCD_Layer_0
10
0.004375
20
0.002662
40
0.005121
50
211.315650
51
96.482081
0
ARC
8
MCD_Layer_0
10
0.000013
20
0.000828
40
0.000828
50
269.079618
51
297.097856
0
ARC
8
MCD_Layer_0
10
0.000000
20
0.000000
40
0.000000
50
180.000000
51
6.482752
0
ARC
8
MCD_Layer_0
10
0.000000
20
0.000000
40
0.000000
50
180.000000
51
179.562920
0
ARC
8
MCD_Layer_0
10
0.000002
20
0.000000
40
0.000002
50
179.929424
51
175.709798
0
ARC
8
MCD_Layer_0
10
0.000060
20
0.000008
40
0.000061
50
187.458506
51
161.997935
0
ARC
8
MCD_Layer_0
10
0.000539
20
0.000030
40
0.000540
50
183.174234
51
140.910645
0
ARC
8
MCD_Layer_0
10
0.001852
20
0.000740
40
0.001994
50
201.790048
51
112.822419
0
ARC
8
MCD_Layer_0
10
0.002625
20
0.001772
40
0.003167
50
214.021667
51
70.097988
0
ARC
8
MCD_Layer_0
10
0.000060
20
0.001580
40
0.001581
50
267.828651
51
310.084899
0
ARC
8
MCD_Layer_0
10
0.000002
20
0.000000
40
0.000002
50
180.178889
51
12.731815
0
ARC
8
MCD_Layer_0
10
0.000000
20
0.000000
40
0.000000
50
180.000000
51
4.290202
0
ARC
8
MCD_Layer_0
10
0.002594
20
0.001895
40
0.003212
50
216.150295
51
65.270879
0
ARC
8
MCD_Layer_0
10
0.002594
20
0.001895
40
0.003212
50
216.150292
51
65.270887
0
ARC
8
MCD_Layer_0
10
0.002687
20
0.001966
40
0.003330
50
216.196247
51
65.618758
0
ARC
8
MCD_Layer_0
10
0.002687
20
0.001966
40
0.003330
50
216.196251
51
65.618774
0
ARC
8
MCD_Layer_0
10
0.000000
20
0.000000
40
0.000000
50
180.000000
51
5.016785
0
ARC
8
MCD_Layer_0
10
0.000000
20
0.000000
40
0.000000
50
180.000000
51
0.000455
0
ARC
8
MCD_Layer_0
10
0.000001
20
0.000000
40
0.000001
50
179.999998
51
170.483818
0
ARC
8
MCD_Layer_0
10
0.000012
20
0.000000
40
0.000012
50
180.000033
51
161.085606
0
ARC
8
MCD_Layer_0
10
0.000070
20
0.000012
40
0.000071
50
189.562009
51
144.637785
0
ARC
8
MCD_Layer_0
10
0.000475
20
0.000010
40
0.000475
50
181.261449
51
134.740193
0
ARC
8
MCD_Layer_0
10
0.004500
20
0.001937
40
0.004899
50
203.288967
51
136.449443
0
ARC
8
MCD_Layer_0
10
0.003406
20
0.005002
40
0.006052
50
235.748209
51
22.439452
0
ARC
8
MCD_Layer_0
10
0.002062
20
0.000306
40
0.002085
50
188.442717
51
120.137415
0
ARC
8
MCD_Layer_0
10
0.000252
20
0.000997
40
0.001028
50
255.816766
51
350.330427
0
ARC
8
MCD_Layer_0
10
0.000027
20
0.000741
40
0.000741
50
267.876809
51
309.989519
0
ARC
8
MCD_Layer_0
10
0.000006
20
0.000000
40
0.000006
50
179.845585
51
27.190267
0
ARC
8
MCD_Layer_0
10
0.000000
20
0.000000
40
0.000006
50
4.522587
51
360.000000
0
CIRCLE
8
MCD_Layer_0
10
0.000001
20
0.000001
40
0.000001
0
CIRCLE
8
MCD_Layer_0
10
0.000000
20
-512.000368
40
512.000368
0
ENDSEC
0
EOF
