0
SECTION
2
ENTITIES
0
LINE
8
MCD_Layer_0
10
0.000000
20
0.480469
30
0.0
11
0.143982
21
-0.519440
31
0.0
0
LINE
8
MCD_Layer_0
10
0.575989
20
0.480835
30
0.0
11
0.943970
21
-0.520233
31
0.0
0
LINE
8
MCD_Layer_0
10
0.943970
20
-0.520233
30
0.0
11
0.015991
21
0.481781
31
0.0
0
LINE
8
MCD_Layer_0
10
0.943970
20
-0.520233
30
0.0
11
-0.239960
21
0.495422
31
0.0
0
LINE
8
MCD_Layer_0
10
-0.511993
20
-0.518585
30
0.0
11
0.000031
21
0.495605
31
0.0
0
LINE
8
MCD_Layer_0
10
-0.479980
20
-0.515961
30
0.0
11
0.000031
21
0.495605
31
0.0
0
LINE
8
MCD_Layer_0
10
-0.479980
20
-0.515961
30
0.0
11
0.000000
21
0.496094
31
0.0
0
LINE
8
MCD_Layer_0
10
-0.479980
20
0.484039
30
0.0
11
0.000000
21
0.496094
31
0.0
0
LINE
8
MCD_Layer_0
10
-0.479980
20
0.484039
30
0.0
11
0.000031
21
0.495605
31
0.0
0
LINE
8
MCD_Layer_0
10
-0.511993
20
0.481415
30
0.0
11
0.000031
21
0.495605
31
0.0
0
LINE
8
MCD_Layer_0
10
0.943970
20
0.479767
30
0.0
11
-0.239960
21
0.495422
31
0.0
0
LINE
8
MCD_Layer_0
10
0.943970
20
0.479767
30
0.0
11
0.015991
21
0.481781
31
0.0
0
LINE
8
MCD_Layer_0
10
-0.511993
20
0.481415
30
0.0
11
0.000000
21
0.480469
31
0.0
0
LINE
8
MCD_Layer_0
10
-0.479980
20
0.484039
30
0.0
11
0.000000
21
0.480469
31
0.0
0
LINE
8
MCD_Layer_0
10
-0.479980
20
0.484039
30
0.0
11
0.000000
21
0.000000
31
0.0
0
LINE
8
MCD_Layer_0
10
-0.479980
20
-0.515961
30
0.0
11
0.000000
21
0.000000
31
0.0
0
LINE
8
MCD_Layer_0
10
0.496002
20
-0.509125
30
0.0
11
0.000000
21
0.000000
31
0.0
0
LINE
8
MCD_Layer_0
10
0.496002
20
-0.509125
30
0.0
11
0.000000
21
0.480469
31
0.0
0
LINE
8
MCD_Layer_0
10
-0.015991
20
-0.510132
30
0.0
11
0.000000
21
0.480469
31
0.0
0
LINE
8
MCD_Layer_0
10
-0.496002
20
-0.510437
30
0.0
11
0.015991
21
0.481781
31
0.0
0
LINE
8
MCD_Layer_0
10
-0.496002
20
-0.510437
30
0.0
11
-0.239960
21
0.495422
31
0.0
0
LINE
8
MCD_Layer_0
10
-0.015991
20
-0.510132
30
0.0
11
0.000031
21
0.495605
31
0.0
0
LINE
8
MCD_Layer_0
10
0.496002
20
-0.509125
30
0.0
11
0.000031
21
0.495605
31
0.0
0
LINE
8
MCD_Layer_0
10
0.496002
20
-0.509125
30
0.0
11
0.000000
21
0.496094
31
0.0
0
LINE
8
MCD_Layer_0
10
0.992004
20
-0.511414
30
0.0
11
0.000000
21
0.496094
31
0.0
0
LINE
8
MCD_Layer_0
10
0.015991
20
0.488617
30
0.0
11
0.239990
21
0.488434
31
0.0
0
LINE
8
MCD_Layer_0
10
0.015991
20
0.488617
30
0.0
11
-0.239960
21
0.495422
31
0.0
0
LINE
8
MCD_Layer_0
10
0.511993
20
0.488281
30
0.0
11
0.000031
21
0.495605
31
0.0
0
LINE
8
MCD_Layer_0
10
0.000000
20
0.486328
30
0.0
11
0.000031
21
0.495605
31
0.0
0
LINE
8
MCD_Layer_0
10
0.000000
20
0.486328
30
0.0
11
0.000000
21
0.496094
31
0.0
0
LINE
8
MCD_Layer_0
10
0.496002
20
0.490875
30
0.0
11
0.000000
21
0.496094
31
0.0
0
LINE
8
MCD_Layer_0
10
0.496002
20
0.490875
30
0.0
11
0.000031
21
0.495605
31
0.0
0
LINE
8
MCD_Layer_0
10
-0.991974
20
0.489899
30
0.0
11
0.000031
21
0.495605
31
0.0
0
LINE
8
MCD_Layer_0
10
-0.496002
20
0.489563
30
0.0
11
-0.239960
21
0.495422
31
0.0
0
LINE
8
MCD_Layer_0
10
-0.496002
20
0.489563
30
0.0
11
-0.895996
21
-0.522736
31
0.0
0
LINE
8
MCD_Layer_0
10
0.992004
20
-0.511414
30
0.0
11
-0.815979
21
0.494568
31
0.0
0
LINE
8
MCD_Layer_0
10
0.992004
20
-0.511414
30
0.0
11
0.015991
21
0.481781
31
0.0
0
LINE
8
MCD_Layer_0
10
0.976013
20
-0.511749
30
0.0
11
0.000000
21
0.480469
31
0.0
0
LINE
8
MCD_Layer_0
10
0.000000
20
-0.513672
30
0.0
11
0.000000
21
0.480469
31
0.0
0
LINE
8
MCD_Layer_0
10
0.000000
20
-0.513672
30
0.0
11
0.000000
21
0.000000
31
0.0
0
LINE
8
MCD_Layer_0
10
0.944031
20
-0.508514
30
0.0
11
0.000000
21
0.000000
31
0.0
0
LINE
8
MCD_Layer_0
10
0.944031
20
-0.508514
30
0.0
11
0.000000
21
0.480469
31
0.0
0
LINE
8
MCD_Layer_0
10
-0.303986
20
-0.509338
30
0.0
11
0.000000
21
0.480469
31
0.0
0
LINE
8
MCD_Layer_0
10
0.191986
20
-0.509644
30
0.0
11
0.015991
21
0.481781
31
0.0
0
LINE
8
MCD_Layer_0
10
0.191986
20
-0.509644
30
0.0
11
-0.239960
21
0.495422
31
0.0
0
LINE
8
MCD_Layer_0
10
-0.303986
20
-0.509338
30
0.0
11
0.000031
21
0.495605
31
0.0
0
LINE
8
MCD_Layer_0
10
0.944031
20
-0.508514
30
0.0
11
0.000031
21
0.495605
31
0.0
0
LINE
8
MCD_Layer_0
10
0.944031
20
-0.508514
30
0.0
11
0.000000
21
0.496094
31
0.0
0
LINE
8
MCD_Layer_0
10
0.320007
20
-0.510864
30
0.0
11
0.000000
21
0.496094
31
0.0
0
LINE
8
MCD_Layer_0
10
0.143982
20
-0.531158
30
0.0
11
-0.255981
21
0.486786
31
0.0
0
LINE
8
MCD_Layer_0
10
0.931213
20
0.488678
30
0.0
11
0.000000
21
0.496094
31
0.0
0
LINE
8
MCD_Layer_0
10
-0.953583
20
0.491486
30
0.0
11
0.000000
21
0.496094
31
0.0
0
LINE
8
MCD_Layer_0
10
-0.953583
20
0.491486
30
0.0
11
0.000031
21
0.495605
31
0.0
0
LINE
8
MCD_Layer_0
10
-0.585632
20
0.490417
30
0.0
11
0.000031
21
0.495605
31
0.0
0
LINE
8
MCD_Layer_0
10
-0.089600
20
0.490082
30
0.0
11
-0.239960
21
0.495422
31
0.0
0
LINE
8
MCD_Layer_0
10
-0.089600
20
0.490082
30
0.0
11
0.015991
21
0.481781
31
0.0
0
LINE
8
MCD_Layer_0
10
-0.585632
20
0.490417
30
0.0
11
0.000000
21
0.480469
31
0.0
0
LINE
8
MCD_Layer_0
10
-0.953583
20
0.491486
30
0.0
11
0.000000
21
0.480469
31
0.0
0
LINE
8
MCD_Layer_0
10
-0.953583
20
0.491486
30
0.0
11
0.000000
21
0.000000
31
0.0
0
LINE
8
MCD_Layer_0
10
0.316803
20
0.485748
30
0.0
11
0.000000
21
0.000000
31
0.0
0
LINE
8
MCD_Layer_0
10
0.316803
20
0.485748
30
0.0
11
0.000000
21
0.480469
31
0.0
0
LINE
8
MCD_Layer_0
10
-0.659180
20
0.487701
30
0.0
11
0.000000
21
0.480469
31
0.0
0
LINE
8
MCD_Layer_0
10
0.150391
20
0.488312
30
0.0
11
0.015991
21
0.481781
31
0.0
0
LINE
8
MCD_Layer_0
10
0.150391
20
0.488312
30
0.0
11
0.000000
21
0.494141
31
0.0
0
LINE
8
MCD_Layer_0
10
0.527985
20
-0.523102
30
0.0
11
0.943970
21
-0.520233
31
0.0
0
LINE
8
MCD_Layer_0
10
0.704010
20
-0.510620
30
0.0
11
-0.192017
21
0.493988
31
0.0
0
LINE
8
MCD_Layer_0
10
0.704010
20
-0.510620
30
0.0
11
0.015991
21
0.481781
31
0.0
0
LINE
8
MCD_Layer_0
10
-0.799988
20
-0.510956
30
0.0
11
0.000000
21
0.480469
31
0.0
0
LINE
8
MCD_Layer_0
10
-0.095978
20
-0.511810
30
0.0
11
0.000000
21
0.480469
31
0.0
0
LINE
8
MCD_Layer_0
10
-0.095978
20
-0.511810
30
0.0
11
0.000000
21
0.000000
31
0.0
0
LINE
8
MCD_Layer_0
10
0.064026
20
-0.510376
30
0.0
11
0.000000
21
0.000000
31
0.0
0
LINE
8
MCD_Layer_0
10
0.064026
20
-0.510376
30
0.0
11
0.000000
21
0.480469
31
0.0
0
LINE
8
MCD_Layer_0
10
-0.447998
20
-0.511383
30
0.0
11
0.000000
21
0.480469
31
0.0
0
LINE
8
MCD_Layer_0
10
-0.928009
20
-0.511688
30
0.0
11
0.015991
21
0.481781
31
0.0
0
LINE
8
MCD_Layer_0
10
-0.928009
20
-0.511688
30
0.0
11
-0.239960
21
0.495422
31
0.0
0
LINE
8
MCD_Layer_0
10
-0.447998
20
-0.511383
30
0.0
11
0.000031
21
0.495605
31
0.0
0
LINE
8
MCD_Layer_0
10
0.064026
20
-0.510376
30
0.0
11
0.000031
21
0.495605
31
0.0
0
LINE
8
MCD_Layer_0
10
0.064026
20
-0.510376
30
0.0
11
0.000000
21
0.496094
31
0.0
0
LINE
8
MCD_Layer_0
10
-0.623993
20
0.487854
30
0.0
11
0.000000
21
0.496094
31
0.0
0
LINE
8
MCD_Layer_0
10
-0.623993
20
0.487854
30
0.0
11
0.256012
21
0.494629
31
0.0
0
LINE
8
MCD_Layer_0
10
0.592010
20
0.486053
30
0.0
11
0.256012
21
0.494629
31
0.0
0
LINE
8
MCD_Layer_0
10
0.592010
20
0.486053
30
0.0
11
0.751984
21
0.495270
31
0.0
0
LINE
8
MCD_Layer_0
10
0.623993
20
0.484772
30
0.0
11
0.256012
21
0.495605
31
0.0
0
LINE
8
MCD_Layer_0
10
0.623993
20
-0.515228
30
0.0
11
0.256012
21
0.495605
31
0.0
0
LINE
8
MCD_Layer_0
10
0.623993
20
-0.515228
30
0.0
11
0.256012
21
0.492676
31
0.0
0
LINE
8
MCD_Layer_0
10
-0.627228
20
0.480560
30
0.0
11
0.256012
21
0.492676
31
0.0
0
LINE
8
MCD_Layer_0
10
-0.611206
20
0.481873
30
0.0
11
0.496002
21
0.492828
31
0.0
0
LINE
8
MCD_Layer_0
10
-0.611206
20
0.481873
30
0.0
11
-0.880005
21
0.493225
31
0.0
0
LINE
8
MCD_Layer_0
10
-0.895996
20
0.485077
30
0.0
11
-0.880005
21
0.493225
31
0.0
0
LINE
8
MCD_Layer_0
10
-0.895996
20
0.485077
30
0.0
11
0.012817
21
0.491089
31
0.0
0
LINE
8
MCD_Layer_0
10
-0.611206
20
0.481873
30
0.0
11
0.012817
21
0.491089
31
0.0
0
LINE
8
MCD_Layer_0
10
-0.611206
20
0.481873
30
0.0
11
-0.739197
21
0.491882
31
0.0
0
LINE
8
MCD_Layer_0
10
-0.627228
20
0.480560
30
0.0
11
0.870392
21
0.492188
31
0.0
0
LINE
8
MCD_Layer_0
10
0.623993
20
-0.515228
30
0.0
11
0.870392
21
0.492188
31
0.0
0
LINE
8
MCD_Layer_0
10
0.623993
20
-0.515228
30
0.0
11
0.463989
21
0.483368
31
0.0
0
LINE
8
MCD_Layer_0
10
-0.259216
20
0.488281
30
0.0
11
-0.115204
21
0.485443
31
0.0
0
LINE
8
MCD_Layer_0
10
-0.099182
20
0.488708
30
0.0
11
-0.227173
21
0.487976
31
0.0
0
LINE
8
MCD_Layer_0
10
0.064026
20
0.489624
30
0.0
11
0.272003
21
0.487152
31
0.0
0
LINE
8
MCD_Layer_0
10
-0.688019
20
0.488464
30
0.0
11
0.000000
21
0.000000
31
0.0
0
LINE
8
MCD_Layer_0
10
-0.287994
20
-0.509979
30
0.0
11
0.000000
21
0.000000
31
0.0
0
LINE
8
MCD_Layer_0
10
-0.287994
20
-0.509979
30
0.0
11
0.000000
21
0.480469
31
0.0
0
LINE
8
MCD_Layer_0
10
0.720001
20
-0.511261
30
0.0
11
0.015991
21
0.481781
31
0.0
0
LINE
8
MCD_Layer_0
10
0.720001
20
-0.511261
30
0.0
11
-0.239960
21
0.495422
31
0.0
0
LINE
8
MCD_Layer_0
10
-0.799988
20
-0.510956
30
0.0
11
0.000031
21
0.495605
31
0.0
0
LINE
8
MCD_Layer_0
10
-0.287994
20
-0.509979
30
0.0
11
0.000031
21
0.495605
31
0.0
0
LINE
8
MCD_Layer_0
10
-0.287994
20
-0.509979
30
0.0
11
0.000000
21
0.496094
31
0.0
0
LINE
8
MCD_Layer_0
10
-0.704010
20
-0.526520
30
0.0
11
0.000000
21
0.496094
31
0.0
0
LINE
8
MCD_Layer_0
10
-0.671997
20
0.489777
30
0.0
11
-0.016022
21
0.479126
31
0.0
0
LINE
8
MCD_Layer_0
10
-0.287994
20
0.490021
30
0.0
11
0.143982
21
0.472748
31
0.0
0
LINE
8
MCD_Layer_0
10
-0.080017
20
-0.514404
30
0.0
11
0.496002
21
0.491852
31
0.0
0
LINE
8
MCD_Layer_0
10
-0.080017
20
-0.514404
30
0.0
11
0.015991
21
0.481781
31
0.0
0
LINE
8
MCD_Layer_0
10
0.911987
20
-0.515045
30
0.0
11
0.000000
21
0.480469
31
0.0
0
LINE
8
MCD_Layer_0
10
-0.128021
20
-0.518341
30
0.0
11
0.000000
21
0.480469
31
0.0
0
LINE
8
MCD_Layer_0
10
-0.128021
20
-0.518341
30
0.0
11
0.000000
21
0.000000
31
0.0
0
LINE
8
MCD_Layer_0
10
-0.400024
20
-0.521118
30
0.0
11
0.256012
21
0.495605
31
0.0
0
LINE
8
MCD_Layer_0
10
-0.080017
20
-0.514404
30
0.0
11
0.256012
21
0.495605
31
0.0
0
LINE
8
MCD_Layer_0
10
-0.080017
20
-0.514404
30
0.0
11
-0.496002
21
0.492493
31
0.0
0
LINE
8
MCD_Layer_0
10
-0.368011
20
-0.508728
30
0.0
11
-0.204773
21
0.495575
31
0.0
0
LINE
8
MCD_Layer_0
10
-0.368011
20
-0.508728
30
0.0
11
-0.204803
21
0.496063
31
0.0
0
LINE
8
MCD_Layer_0
10
0.000000
20
-0.515625
30
0.0
11
-0.204803
21
0.496063
31
0.0
0
LINE
8
MCD_Layer_0
10
0.000000
20
-0.515625
30
0.0
11
-0.204773
21
0.495575
31
0.0
0
LINE
8
MCD_Layer_0
10
-0.255981
20
-0.513214
30
0.0
11
-0.204773
21
0.495575
31
0.0
0
LINE
8
MCD_Layer_0
10
0.608002
20
-0.512634
30
0.0
11
-0.588776
21
0.495331
31
0.0
0
LINE
8
MCD_Layer_0
10
-0.016022
20
0.475220
30
0.0
11
-0.572815
21
0.492249
31
0.0
0
LINE
8
MCD_Layer_0
10
-0.783997
20
0.488403
30
0.0
11
-0.076782
21
0.495331
31
0.0
0
LINE
8
MCD_Layer_0
10
-0.431976
20
0.487976
30
0.0
11
-0.204773
21
0.495575
31
0.0
0
LINE
8
MCD_Layer_0
10
0.736023
20
0.486145
30
0.0
11
-0.204773
21
0.495575
31
0.0
0
LINE
8
MCD_Layer_0
10
0.736023
20
0.486145
30
0.0
11
-0.204803
21
0.496063
31
0.0
0
LINE
8
MCD_Layer_0
10
-0.368011
20
0.491272
30
0.0
11
-0.204803
21
0.496063
31
0.0
0
LINE
8
MCD_Layer_0
10
-0.368011
20
0.491272
30
0.0
11
-0.204773
21
0.495575
31
0.0
0
LINE
8
MCD_Layer_0
10
-0.527985
20
0.489868
30
0.0
11
-0.204773
21
0.495575
31
0.0
0
LINE
8
MCD_Layer_0
10
-0.959991
20
0.489594
30
0.0
11
0.163208
21
0.495514
31
0.0
0
LINE
8
MCD_Layer_0
10
-0.976013
20
0.478516
30
0.0
11
0.982422
21
0.491119
31
0.0
0
LINE
8
MCD_Layer_0
10
-0.976013
20
0.478516
30
0.0
11
0.377594
21
0.481750
31
0.0
0
LINE
8
MCD_Layer_0
10
0.527985
20
0.480804
30
0.0
11
0.723206
21
0.480408
31
0.0
0
LINE
8
MCD_Layer_0
10
0.239990
20
0.484528
30
0.0
11
0.723206
21
0.480408
31
0.0
0
LINE
8
MCD_Layer_0
10
0.239990
20
0.484528
30
0.0
11
0.000000
21
0.000000
31
0.0
0
LINE
8
MCD_Layer_0
10
-0.751984
20
-0.514832
30
0.0
11
0.000000
21
0.000000
31
0.0
0
LINE
8
MCD_Layer_0
10
-0.751984
20
-0.514832
30
0.0
11
0.723206
21
0.480408
31
0.0
0
LINE
8
MCD_Layer_0
10
0.447998
20
-0.517944
30
0.0
11
0.723206
21
0.480408
31
0.0
0
LINE
8
MCD_Layer_0
10
0.527985
20
-0.519196
30
0.0
11
0.377594
21
0.481750
31
0.0
0
LINE
8
MCD_Layer_0
10
0.527985
20
-0.519196
30
0.0
11
0.982422
21
0.491119
31
0.0
0
LINE
8
MCD_Layer_0
10
0.976013
20
-0.509796
30
0.0
11
0.163208
21
0.495514
31
0.0
0
LINE
8
MCD_Layer_0
10
-0.591980
20
-0.509521
30
0.0
11
-0.204773
21
0.495575
31
0.0
0
LINE
8
MCD_Layer_0
10
-0.623993
20
-0.511169
30
0.0
11
0.000000
21
0.000000
31
0.0
0
LINE
8
MCD_Layer_0
10
-0.623993
20
-0.511169
30
0.0
11
0.000000
21
0.480469
31
0.0
0
LINE
8
MCD_Layer_0
10
-0.272003
20
-0.512573
30
0.0
11
0.000000
21
0.480469
31
0.0
0
LINE
8
MCD_Layer_0
10
0.768005
20
-0.513184
30
0.0
11
0.015991
21
0.481781
31
0.0
0
LINE
8
MCD_Layer_0
10
0.768005
20
-0.513184
30
0.0
11
-0.239960
21
0.495422
31
0.0
0
LINE
8
MCD_Layer_0
10
-0.272003
20
-0.512573
30
0.0
11
0.000031
21
0.495605
31
0.0
0
LINE
8
MCD_Layer_0
10
-0.623993
20
-0.511169
30
0.0
11
0.000031
21
0.495605
31
0.0
0
LINE
8
MCD_Layer_0
10
-0.623993
20
-0.511169
30
0.0
11
0.000000
21
0.496094
31
0.0
0
LINE
8
MCD_Layer_0
10
-0.623993
20
0.488831
30
0.0
11
0.000000
21
0.496094
31
0.0
0
LINE
8
MCD_Layer_0
10
-0.623993
20
0.488831
30
0.0
11
0.256012
21
0.494629
31
0.0
0
LINE
8
MCD_Layer_0
10
-0.681580
20
0.487427
30
0.0
11
0.256012
21
0.494629
31
0.0
0
LINE
8
MCD_Layer_0
10
-0.681580
20
0.487427
30
0.0
11
0.751984
21
0.495270
31
0.0
0
LINE
8
MCD_Layer_0
10
-0.649567
20
0.486145
30
0.0
11
0.256012
21
0.495605
31
0.0
0
LINE
8
MCD_Layer_0
10
0.496002
20
-0.517914
30
0.0
11
0.256012
21
0.495605
31
0.0
0
LINE
8
MCD_Layer_0
10
0.496002
20
-0.517914
30
0.0
11
0.256012
21
0.492676
31
0.0
0
LINE
8
MCD_Layer_0
10
0.124786
20
0.483673
30
0.0
11
0.256012
21
0.492676
31
0.0
0
LINE
8
MCD_Layer_0
10
0.070374
20
0.484680
30
0.0
11
0.496002
21
0.492828
31
0.0
0
LINE
8
MCD_Layer_0
10
0.070374
20
0.484680
30
0.0
11
-0.880005
21
0.493225
31
0.0
0
LINE
8
MCD_Layer_0
10
0.479980
20
0.486633
30
0.0
11
-0.880005
21
0.493225
31
0.0
0
LINE
8
MCD_Layer_0
10
0.479980
20
0.486633
30
0.0
11
0.012817
21
0.491089
31
0.0
0
LINE
8
MCD_Layer_0
10
0.070374
20
0.484680
30
0.0
11
0.012817
21
0.491089
31
0.0
0
LINE
8
MCD_Layer_0
10
0.070374
20
0.484680
30
0.0
11
-0.739197
21
0.491882
31
0.0
0
LINE
8
MCD_Layer_0
10
0.124786
20
0.483673
30
0.0
11
0.870392
21
0.492188
31
0.0
0
LINE
8
MCD_Layer_0
10
0.496002
20
-0.517914
30
0.0
11
0.870392
21
0.492188
31
0.0
0
LINE
8
MCD_Layer_0
10
0.496002
20
-0.517914
30
0.0
11
0.015991
21
0.481781
31
0.0
0
LINE
8
MCD_Layer_0
10
0.985596
20
-0.519165
30
0.0
11
0.000000
21
0.480469
31
0.0
0
LINE
8
MCD_Layer_0
10
-0.998413
20
-0.533478
30
0.0
11
0.000000
21
0.480469
31
0.0
0
LINE
8
MCD_Layer_0
10
-0.998413
20
-0.533478
30
0.0
11
0.000000
21
0.000000
31
0.0
0
LINE
8
MCD_Layer_0
10
-0.063995
20
-0.509186
30
0.0
11
0.563202
21
0.495605
31
0.0
0
LINE
8
MCD_Layer_0
10
-0.063995
20
-0.509186
30
0.0
11
0.281616
21
0.496094
31
0.0
0
LINE
8
MCD_Layer_0
10
0.335999
20
-0.515411
30
0.0
11
0.281616
21
0.496094
31
0.0
0
LINE
8
MCD_Layer_0
10
0.335999
20
-0.515411
30
0.0
11
0.563202
21
0.495605
31
0.0
0
LINE
8
MCD_Layer_0
10
-0.640015
20
-0.513458
30
0.0
11
0.563202
21
0.495605
31
0.0
0
LINE
8
MCD_Layer_0
10
0.368011
20
-0.512787
30
0.0
11
0.323212
21
0.495453
31
0.0
0
LINE
8
MCD_Layer_0
10
0.368011
20
-0.512787
30
0.0
11
0.134369
21
0.488953
31
0.0
0
LINE
8
MCD_Layer_0
10
-0.544006
20
0.488556
30
0.0
11
-0.633636
21
0.488434
31
0.0
0
LINE
8
MCD_Layer_0
10
-0.544006
20
0.488556
30
0.0
11
0.323212
21
0.495453
31
0.0
0
LINE
8
MCD_Layer_0
10
-0.095978
20
0.488190
30
0.0
11
0.563202
21
0.495605
31
0.0
0
LINE
8
MCD_Layer_0
10
0.880005
20
0.486237
30
0.0
11
0.563202
21
0.495605
31
0.0
0
LINE
8
MCD_Layer_0
10
0.880005
20
0.486237
30
0.0
11
0.281616
21
0.496094
31
0.0
0
LINE
8
MCD_Layer_0
10
-0.063995
20
0.490814
30
0.0
11
0.281616
21
0.496094
31
0.0
0
LINE
8
MCD_Layer_0
10
-0.063995
20
0.490814
30
0.0
11
0.563202
21
0.495605
31
0.0
0
LINE
8
MCD_Layer_0
10
0.448029
20
0.489868
30
0.0
11
0.563202
21
0.495605
31
0.0
0
LINE
8
MCD_Layer_0
10
0.944000
20
0.489532
30
0.0
11
0.323212
21
0.495453
31
0.0
0
LINE
8
MCD_Layer_0
10
-0.851196
20
0.489532
30
0.0
11
0.928009
21
0.488220
31
0.0
0
LINE
8
MCD_Layer_0
10
-0.079987
20
-0.510498
30
0.0
11
0.630402
21
0.488617
31
0.0
0
LINE
8
MCD_Layer_0
10
-0.079987
20
-0.510498
30
0.0
11
0.323212
21
0.495453
31
0.0
0
LINE
8
MCD_Layer_0
10
-0.575989
20
-0.510162
30
0.0
11
0.563202
21
0.495605
31
0.0
0
LINE
8
MCD_Layer_0
10
-0.678406
20
-0.511139
30
0.0
11
0.000000
21
0.000000
31
0.0
0
LINE
8
MCD_Layer_0
10
-0.678406
20
-0.511139
30
0.0
11
-0.016022
21
0.488892
31
0.0
0
LINE
8
MCD_Layer_0
10
-0.838409
20
-0.512543
30
0.0
11
-0.016022
21
0.488892
31
0.0
0
LINE
8
MCD_Layer_0
10
-0.838409
20
-0.512543
30
0.0
11
0.035217
21
0.488434
31
0.0
0
LINE
8
MCD_Layer_0
10
-0.380829
20
0.483582
30
0.0
11
-0.639984
21
0.490448
31
0.0
0
LINE
8
MCD_Layer_0
10
0.131195
20
-0.513458
30
0.0
11
-0.079987
21
0.493408
31
0.0
0
LINE
8
MCD_Layer_0
10
0.457611
20
0.486359
30
0.0
11
-0.736023
21
0.496246
31
0.0
0
LINE
8
MCD_Layer_0
10
0.457611
20
0.486359
30
0.0
11
-0.896027
21
0.496307
31
0.0
0
LINE
8
MCD_Layer_0
10
-0.854401
20
0.488098
30
0.0
11
-0.896027
21
0.496307
31
0.0
0
LINE
8
MCD_Layer_0
10
-0.854401
20
0.488098
30
0.0
11
0.208008
21
0.494598
31
0.0
0
LINE
8
MCD_Layer_0
10
0.457611
20
0.486359
30
0.0
11
0.208008
21
0.494598
31
0.0
0
LINE
8
MCD_Layer_0
10
0.457611
20
0.486359
30
0.0
11
0.959991
21
0.494751
31
0.0
0
LINE
8
MCD_Layer_0
10
-0.873596
20
-0.518555
30
0.0
11
0.864014
21
0.493713
31
0.0
0
LINE
8
MCD_Layer_0
10
0.825592
20
0.485291
30
0.0
11
0.239990
21
0.492340
31
0.0
0
LINE
8
MCD_Layer_0
10
-0.838409
20
-0.512543
30
0.0
11
0.000000
21
0.000000
31
0.0
0
LINE
8
MCD_Layer_0
10
-0.544006
20
-0.510468
30
0.0
11
0.000000
21
0.000000
31
0.0
0
LINE
8
MCD_Layer_0
10
-0.544006
20
-0.510468
30
0.0
11
0.000000
21
0.480469
31
0.0
0
LINE
8
MCD_Layer_0
10
0.943970
20
-0.511444
30
0.0
11
0.000000
21
0.480469
31
0.0
0
LINE
8
MCD_Layer_0
10
0.928009
20
-0.511780
30
0.0
11
0.015991
21
0.481781
31
0.0
0
LINE
8
MCD_Layer_0
10
0.928009
20
-0.511780
30
0.0
11
-0.239960
21
0.495422
31
0.0
0
LINE
8
MCD_Layer_0
10
0.943970
20
-0.511444
30
0.0
11
0.000031
21
0.495605
31
0.0
0
LINE
8
MCD_Layer_0
10
-0.544006
20
-0.510468
30
0.0
11
0.000031
21
0.495605
31
0.0
0
LINE
8
MCD_Layer_0
10
-0.544006
20
-0.510468
30
0.0
11
0.000000
21
0.496094
31
0.0
0
LINE
8
MCD_Layer_0
10
-0.304016
20
-0.521057
30
0.0
11
0.000000
21
0.496094
31
0.0
0
LINE
8
MCD_Layer_0
10
-0.304016
20
-0.521057
30
0.0
11
0.000031
21
0.495605
31
0.0
0
LINE
8
MCD_Layer_0
10
0.799988
20
-0.516418
30
0.0
11
0.000031
21
0.495605
31
0.0
0
LINE
8
MCD_Layer_0
10
-0.592010
20
-0.515381
30
0.0
11
-0.239960
21
0.495422
31
0.0
0
LINE
8
MCD_Layer_0
10
-0.592010
20
-0.515381
30
0.0
11
0.463989
21
0.483368
31
0.0
0
LINE
8
MCD_Layer_0
10
0.956787
20
0.488434
30
0.0
11
0.099213
21
0.485870
31
0.0
0
LINE
8
MCD_Layer_0
10
-0.243195
20
0.488617
30
0.0
11
-0.944000
21
0.487000
31
0.0
0
LINE
8
MCD_Layer_0
10
-0.544006
20
0.489532
30
0.0
11
0.976013
21
0.486298
31
0.0
0
LINE
8
MCD_Layer_0
10
-0.080017
20
0.488525
30
0.0
11
0.000000
21
0.000000
31
0.0
0
LINE
8
MCD_Layer_0
10
0.768005
20
-0.515137
30
0.0
11
0.000000
21
0.000000
31
0.0
0
LINE
8
MCD_Layer_0
10
0.768005
20
-0.515137
30
0.0
11
0.000000
21
0.480469
31
0.0
0
LINE
8
MCD_Layer_0
10
-0.511993
20
-0.518585
30
0.0
11
0.000000
21
0.480469
31
0.0
0
LINE
8
MCD_Layer_0
10
0.943970
20
-0.520233
30
0.0
11
-0.495972
21
0.495422
31
0.0
0
LINE
8
MCD_Layer_0
10
-0.511993
20
-0.518585
30
0.0
11
0.256012
21
0.495605
31
0.0
0
LINE
8
MCD_Layer_0
10
0.895996
20
-0.511475
30
0.0
11
0.256012
21
0.495605
31
0.0
0
LINE
8
MCD_Layer_0
10
-0.623993
20
-0.511169
30
0.0
11
-0.495972
21
0.495422
31
0.0
0
LINE
8
MCD_Layer_0
10
-0.623993
20
-0.511169
30
0.0
11
0.816010
21
0.494659
31
0.0
0
LINE
8
MCD_Layer_0
10
-0.623993
20
-0.510193
30
0.0
11
0.816010
21
0.494659
31
0.0
0
LINE
8
MCD_Layer_0
10
-0.623993
20
-0.510193
30
0.0
11
0.000000
21
0.496094
31
0.0
0
LINE
8
MCD_Layer_0
10
-0.623993
20
0.489807
30
0.0
11
0.000000
21
0.496094
31
0.0
0
LINE
8
MCD_Layer_0
10
-0.623993
20
0.489807
30
0.0
11
0.816010
21
0.494659
31
0.0
0
LINE
8
MCD_Layer_0
10
-0.623993
20
0.488831
30
0.0
11
0.816010
21
0.494659
31
0.0
0
LINE
8
MCD_Layer_0
10
-0.623993
20
0.488831
30
0.0
11
-0.495972
21
0.495422
31
0.0
0
LINE
8
MCD_Layer_0
10
-0.128021
20
0.488495
30
0.0
11
0.256012
21
0.495605
31
0.0
0
LINE
8
MCD_Layer_0
10
-0.511993
20
0.481415
30
0.0
11
0.256012
21
0.495605
31
0.0
0
LINE
8
MCD_Layer_0
10
0.943970
20
0.479767
30
0.0
11
-0.495972
21
0.495422
31
0.0
0
LINE
8
MCD_Layer_0
10
0.768005
20
0.484863
30
0.0
11
0.000000
21
0.480469
31
0.0
0
LINE
8
MCD_Layer_0
10
0.768005
20
0.484863
30
0.0
11
0.000000
21
0.000000
31
0.0
0
LINE
8
MCD_Layer_0
10
-0.211182
20
-0.510712
30
0.0
11
0.000000
21
0.000000
31
0.0
0
LINE
8
MCD_Layer_0
10
-0.211182
20
-0.510712
30
0.0
11
0.000000
21
0.480469
31
0.0
0
LINE
8
MCD_Layer_0
10
-0.723206
20
-0.511688
30
0.0
11
0.000000
21
0.480469
31
0.0
0
LINE
8
MCD_Layer_0
10
-0.406372
20
-0.512268
30
0.0
11
0.015991
21
0.481781
31
0.0
0
LINE
8
MCD_Layer_0
10
-0.406372
20
-0.512268
30
0.0
11
-0.239960
21
0.495422
31
0.0
0
LINE
8
MCD_Layer_0
10
-0.723206
20
-0.511688
30
0.0
11
0.000031
21
0.495605
31
0.0
0
LINE
8
MCD_Layer_0
10
0.028839
20
-0.510529
30
0.0
11
0.000031
21
0.495605
31
0.0
0
LINE
8
MCD_Layer_0
10
0.028839
20
-0.510529
30
0.0
11
0.000000
21
0.496094
31
0.0
0
LINE
8
MCD_Layer_0
10
0.617584
20
0.477997
30
0.0
11
0.000000
21
0.496094
31
0.0
0
LINE
8
MCD_Layer_0
10
-0.342407
20
0.477356
30
0.0
11
0.000000
21
0.000000
31
0.0
0
LINE
8
MCD_Layer_0
10
-0.364807
20
0.473175
30
0.0
11
0.000000
21
0.492188
31
0.0
0
LINE
8
MCD_Layer_0
10
0.147217
20
-0.516052
30
0.0
11
0.000000
21
0.492188
31
0.0
0
LINE
8
MCD_Layer_0
10
0.147217
20
-0.516052
30
0.0
11
0.463989
21
0.483368
31
0.0
0
LINE
8
MCD_Layer_0
10
0.147217
20
-0.516052
30
0.0
11
0.256012
21
0.492676
31
0.0
0
LINE
8
MCD_Layer_0
10
0.572784
20
0.465729
30
0.0
11
0.256012
21
0.492676
31
0.0
0
LINE
8
MCD_Layer_0
10
-0.748810
20
-0.534882
30
0.0
11
0.256012
21
0.495605
31
0.0
0
LINE
8
MCD_Layer_0
10
0.147217
20
-0.516052
30
0.0
11
0.256012
21
0.495605
31
0.0
0
LINE
8
MCD_Layer_0
10
0.816010
20
-0.509247
30
0.0
11
0.000000
21
0.000000
31
0.0
0
LINE
8
MCD_Layer_0
10
0.816010
20
-0.509247
30
0.0
11
0.000000
21
0.480469
31
0.0
0
LINE
8
MCD_Layer_0
10
0.304016
20
-0.510223
30
0.0
11
0.000000
21
0.480469
31
0.0
0
LINE
8
MCD_Layer_0
10
-0.175964
20
-0.510559
30
0.0
11
0.015991
21
0.481781
31
0.0
0
LINE
8
MCD_Layer_0
10
-0.175964
20
-0.510559
30
0.0
11
-0.239960
21
0.495422
31
0.0
0
LINE
8
MCD_Layer_0
10
0.304016
20
-0.510223
30
0.0
11
0.000031
21
0.495605
31
0.0
0
LINE
8
MCD_Layer_0
10
0.816010
20
-0.509247
30
0.0
11
0.000031
21
0.495605
31
0.0
0
LINE
8
MCD_Layer_0
10
0.816010
20
-0.509247
30
0.0
11
0.000000
21
0.496094
31
0.0
0
LINE
8
MCD_Layer_0
10
0.144012
20
-0.515533
30
0.0
11
0.000000
21
0.496094
31
0.0
0
LINE
8
MCD_Layer_0
10
0.144012
20
-0.515533
30
0.0
11
0.000031
21
0.495605
31
0.0
0
LINE
8
MCD_Layer_0
10
-0.880005
20
-0.513611
30
0.0
11
0.000031
21
0.495605
31
0.0
0
LINE
8
MCD_Layer_0
10
0.128021
20
-0.512939
30
0.0
11
-0.239960
21
0.495422
31
0.0
0
LINE
8
MCD_Layer_0
10
0.128021
20
-0.512939
30
0.0
11
0.256012
21
0.492676
31
0.0
0
LINE
8
MCD_Layer_0
10
0.128021
20
0.487061
30
0.0
11
0.256012
21
0.492676
31
0.0
0
LINE
8
MCD_Layer_0
10
0.128021
20
0.487061
30
0.0
11
-0.239960
21
0.495422
31
0.0
0
LINE
8
MCD_Layer_0
10
-0.880005
20
0.486389
30
0.0
11
0.000031
21
0.495605
31
0.0
0
LINE
8
MCD_Layer_0
10
0.144012
20
0.484467
30
0.0
11
0.000031
21
0.495605
31
0.0
0
LINE
8
MCD_Layer_0
10
0.144012
20
0.484467
30
0.0
11
0.000000
21
0.496094
31
0.0
0
LINE
8
MCD_Layer_0
10
0.816010
20
0.490753
30
0.0
11
0.000000
21
0.496094
31
0.0
0
LINE
8
MCD_Layer_0
10
0.816010
20
0.490753
30
0.0
11
0.000031
21
0.495605
31
0.0
0
LINE
8
MCD_Layer_0
10
0.304016
20
0.489777
30
0.0
11
0.000031
21
0.495605
31
0.0
0
LINE
8
MCD_Layer_0
10
0.800018
20
0.489441
30
0.0
11
-0.239960
21
0.495422
31
0.0
0
LINE
8
MCD_Layer_0
10
0.800018
20
0.489441
30
0.0
11
0.015991
21
0.481781
31
0.0
0
LINE
8
MCD_Layer_0
10
0.304016
20
0.489777
30
0.0
11
0.000000
21
0.480469
31
0.0
0
LINE
8
MCD_Layer_0
10
0.816010
20
0.490753
30
0.0
11
0.000000
21
0.480469
31
0.0
0
LINE
8
MCD_Layer_0
10
0.816010
20
0.490753
30
0.0
11
0.000000
21
0.000000
31
0.0
0
LINE
8
MCD_Layer_0
10
0.144012
20
0.484467
30
0.0
11
0.000000
21
0.000000
31
0.0
0
LINE
8
MCD_Layer_0
10
0.144012
20
0.484467
30
0.0
11
0.000000
21
0.480469
31
0.0
0
LINE
8
MCD_Layer_0
10
-0.880005
20
0.486389
30
0.0
11
0.000000
21
0.480469
31
0.0
0
LINE
8
MCD_Layer_0
10
0.128021
20
0.487061
30
0.0
11
0.015991
21
0.481781
31
0.0
0
LINE
8
MCD_Layer_0
10
0.128021
20
0.487061
30
0.0
11
0.000000
21
0.492188
31
0.0
0
LINE
8
MCD_Layer_0
10
0.128021
20
-0.512939
30
0.0
11
0.000000
21
0.492188
31
0.0
0
LINE
8
MCD_Layer_0
10
0.128021
20
-0.512939
30
0.0
11
0.015991
21
0.481781
31
0.0
0
LINE
8
MCD_Layer_0
10
-0.880005
20
-0.513611
30
0.0
11
0.000000
21
0.480469
31
0.0
0
LINE
8
MCD_Layer_0
10
0.144012
20
-0.515533
30
0.0
11
0.000000
21
0.480469
31
0.0
0
LINE
8
MCD_Layer_0
10
0.144012
20
-0.515533
30
0.0
11
0.000000
21
0.000000
31
0.0
0
LINE
8
MCD_Layer_0
10
0.000000
20
-0.508789
30
0.0
11
0.000000
21
0.000000
31
0.0
0
LINE
8
MCD_Layer_0
10
0.000000
20
-0.508789
30
0.0
11
0.000000
21
0.480469
31
0.0
0
LINE
8
MCD_Layer_0
10
0.063995
20
-0.509399
30
0.0
11
0.000000
21
0.480469
31
0.0
0
LINE
8
MCD_Layer_0
10
-0.895996
20
-0.510040
30
0.0
11
0.687988
21
0.482208
31
0.0
0
LINE
8
MCD_Layer_0
10
-0.096008
20
-0.527435
30
0.0
11
-0.688019
21
0.496277
31
0.0
0
LINE
8
MCD_Layer_0
10
0.384003
20
0.489502
30
0.0
11
0.687988
21
0.482208
31
0.0
0
LINE
8
MCD_Layer_0
10
-0.656006
20
0.490112
30
0.0
11
0.000000
21
0.480469
31
0.0
0
LINE
8
MCD_Layer_0
10
0.000000
20
0.491211
30
0.0
11
0.000000
21
0.480469
31
0.0
0
LINE
8
MCD_Layer_0
10
0.000000
20
0.491211
30
0.0
11
0.000000
21
0.000000
31
0.0
0
LINE
8
MCD_Layer_0
10
-0.736023
20
0.484528
30
0.0
11
0.000000
21
0.000000
31
0.0
0
LINE
8
MCD_Layer_0
10
-0.736023
20
0.484528
30
0.0
11
0.000000
21
0.480469
31
0.0
0
LINE
8
MCD_Layer_0
10
-0.096008
20
0.486237
30
0.0
11
0.000000
21
0.480469
31
0.0
0
LINE
8
MCD_Layer_0
10
0.815979
20
0.486847
30
0.0
11
0.591980
21
0.482147
31
0.0
0
LINE
8
MCD_Layer_0
10
-0.640015
20
0.482635
30
0.0
11
0.000000
21
0.490234
31
0.0
0
LINE
8
MCD_Layer_0
10
0.191986
20
-0.513550
30
0.0
11
0.000000
21
0.490234
31
0.0
0
LINE
8
MCD_Layer_0
10
-0.336029
20
-0.510986
30
0.0
11
0.591980
21
0.482147
31
0.0
0
LINE
8
MCD_Layer_0
10
-0.816010
20
-0.511292
30
0.0
11
0.000000
21
0.480469
31
0.0
0
LINE
8
MCD_Layer_0
10
-0.272003
20
-0.512573
30
0.0
11
0.000000
21
0.000000
31
0.0
0
LINE
8
MCD_Layer_0
10
-0.864014
20
-0.514252
30
0.0
11
0.511993
21
0.491211
31
0.0
0
LINE
8
MCD_Layer_0
10
-0.751984
20
0.481262
30
0.0
11
0.511993
21
0.491211
31
0.0
0
LINE
8
MCD_Layer_0
10
-0.880005
20
-0.521423
30
0.0
11
-0.544006
21
0.494415
31
0.0
0
LINE
8
MCD_Layer_0
10
-0.688019
20
-0.509583
30
0.0
11
0.000000
21
0.000000
31
0.0
0
LINE
8
MCD_Layer_0
10
-0.688019
20
-0.509583
30
0.0
11
0.000000
21
0.480469
31
0.0
0
LINE
8
MCD_Layer_0
10
-0.816010
20
-0.510315
30
0.0
11
0.000000
21
0.480469
31
0.0
0
LINE
8
MCD_Layer_0
10
-0.319977
20
-0.510651
30
0.0
11
0.015991
21
0.481781
31
0.0
0
LINE
8
MCD_Layer_0
10
-0.319977
20
-0.510651
30
0.0
11
-0.239960
21
0.495422
31
0.0
0
LINE
8
MCD_Layer_0
10
-0.816010
20
-0.510315
30
0.0
11
0.000031
21
0.495605
31
0.0
0
LINE
8
MCD_Layer_0
10
-0.688019
20
-0.509583
30
0.0
11
0.000031
21
0.495605
31
0.0
0
LINE
8
MCD_Layer_0
10
-0.688019
20
-0.509583
30
0.0
11
0.000000
21
0.496094
31
0.0
0
LINE
8
MCD_Layer_0
10
0.384003
20
-0.515381
30
0.0
11
0.000000
21
0.496094
31
0.0
0
LINE
8
MCD_Layer_0
10
0.384003
20
-0.515381
30
0.0
11
0.000031
21
0.495605
31
0.0
0
LINE
8
MCD_Layer_0
10
0.880005
20
-0.513763
30
0.0
11
0.000031
21
0.495605
31
0.0
0
LINE
8
MCD_Layer_0
10
-0.112000
20
-0.513123
30
0.0
11
-0.239960
21
0.495422
31
0.0
0
LINE
8
MCD_Layer_0
10
-0.112000
20
-0.513123
30
0.0
11
-0.863983
21
0.491608
31
0.0
0
LINE
8
MCD_Layer_0
10
0.559998
20
0.483429
30
0.0
11
-0.383972
21
0.495331
31
0.0
0
LINE
8
MCD_Layer_0
10
0.927979
20
0.482361
30
0.0
11
0.000031
21
0.495605
31
0.0
0
LINE
8
MCD_Layer_0
10
0.911987
20
0.473236
30
0.0
11
0.000031
21
0.495605
31
0.0
0
LINE
8
MCD_Layer_0
10
0.911987
20
0.473236
30
0.0
11
0.000000
21
0.496094
31
0.0
0
LINE
8
MCD_Layer_0
10
-0.175964
20
0.489441
30
0.0
11
0.000000
21
0.496094
31
0.0
0
LINE
8
MCD_Layer_0
10
-0.175964
20
0.489441
30
0.0
11
0.000031
21
0.495605
31
0.0
0
LINE
8
MCD_Layer_0
10
-0.128021
20
0.487518
30
0.0
11
0.000031
21
0.495605
31
0.0
0
LINE
8
MCD_Layer_0
10
0.803223
20
0.486969
30
0.0
11
-0.915192
21
0.495514
31
0.0
0
LINE
8
MCD_Layer_0
10
0.832001
20
-0.529419
30
0.0
11
-0.201599
21
0.493103
31
0.0
0
LINE
8
MCD_Layer_0
10
-0.063995
20
0.488861
30
0.0
11
-0.944000
21
0.481140
31
0.0
0
LINE
8
MCD_Layer_0
10
-0.608002
20
0.489166
30
0.0
11
0.000000
21
0.480469
31
0.0
0
LINE
8
MCD_Layer_0
10
-0.688019
20
0.490417
30
0.0
11
0.000000
21
0.480469
31
0.0
0
LINE
8
MCD_Layer_0
10
-0.688019
20
0.490417
30
0.0
11
0.000000
21
0.000000
31
0.0
0
LINE
8
MCD_Layer_0
10
0.239990
20
0.480621
30
0.0
11
0.000000
21
0.000000
31
0.0
0
LINE
8
MCD_Layer_0
10
0.239990
20
0.480621
30
0.0
11
0.000000
21
0.480469
31
0.0
0
LINE
8
MCD_Layer_0
10
0.000092
20
0.000000
30
0.0
11
0.943970
21
-0.520233
31
0.0
0
LINE
8
MCD_Layer_0
10
-0.239960
20
0.495422
30
0.0
11
0.143982
21
-0.519440
31
0.0
0
LINE
8
MCD_Layer_0
10
-0.944000
20
0.485046
30
0.0
11
0.879974
21
0.482330
31
0.0
0
LINE
8
MCD_Layer_0
10
-0.371216
20
-0.517975
30
0.0
11
-0.780792
21
0.492279
31
0.0
0
LINE
8
MCD_Layer_0
10
0.000000
20
0.003281
30
0.0
11
0.000000
21
0.000000
31
0.0
0
LINE
8
MCD_Layer_0
10
0.003906
20
0.003906
30
0.0
11
0.000000
21
0.000000
31
0.0
0
LINE
8
MCD_Layer_0
10
0.003906
20
0.007813
30
0.0
11
0.000000
21
0.000000
31
0.0
0
LINE
8
MCD_Layer_0
10
0.007813
20
0.007813
30
0.0
11
0.000000
21
0.000000
31
0.0
0
LINE
8
MCD_Layer_0
10
0.007813
20
0.003906
30
0.0
11
0.000000
21
0.000000
31
0.0
0
LINE
8
MCD_Layer_0
10
0.003906
20
0.003906
30
0.0
11
0.000000
21
0.000000
31
0.0
0
LINE
8
MCD_Layer_0
10
0.003281
20
0.000000
30
0.0
11
0.000000
21
0.000000
31
0.0
0
LINE
8
MCD_Layer_0
10
0.000000
20
0.003281
30
0.0
11
0.000000
21
0.000000
31
0.0
0
LINE
8
MCD_Layer_0
10
0.003906
20
0.003906
30
0.0
11
0.000000
21
0.000000
31
0.0
0
LINE
8
MCD_Layer_0
10
0.003906
20
0.007813
30
0.0
11
0.000000
21
0.000000
31
0.0
0
LINE
8
MCD_Layer_0
10
0.007813
20
0.007813
30
0.0
11
0.000000
21
0.000000
31
0.0
0
LINE
8
MCD_Layer_0
10
0.007813
20
0.000000
30
0.0
11
0.000000
21
0.000000
31
0.0
0
LINE
8
MCD_Layer_0
10
0.000000
20
0.003281
30
0.0
11
0.000000
21
0.000000
31
0.0
0
LINE
8
MCD_Layer_0
10
0.003906
20
0.003906
30
0.0
11
0.000000
21
0.000000
31
0.0
0
LINE
8
MCD_Layer_0
10
0.003906
20
0.007813
30
0.0
11
0.000000
21
0.000000
31
0.0
0
LINE
8
MCD_Layer_0
10
0.007813
20
0.007813
30
0.0
11
0.000000
21
0.000000
31
0.0
0
LINE
8
MCD_Layer_0
10
0.007813
20
0.003906
30
0.0
11
0.000000
21
0.000000
31
0.0
0
LINE
8
MCD_Layer_0
10
0.003906
20
0.003906
30
0.0
11
0.000000
21
0.000000
31
0.0
0
LINE
8
MCD_Layer_0
10
0.003281
20
-0.000000
30
0.0
11
0.000000
21
0.000000
31
0.0
0
LINE
8
MCD_Layer_0
10
-0.000000
20
0.000934
30
0.0
11
0.000000
21
0.000000
31
0.0
0
LINE
8
MCD_Layer_0
10
0.000934
20
0.000000
30
0.0
11
0.000000
21
0.000000
31
0.0
0
LINE
8
MCD_Layer_0
10
0.000000
20
0.003281
30
0.0
11
0.000000
21
0.000000
31
0.0
0
LINE
8
MCD_Layer_0
10
0.003906
20
0.003906
30
0.0
11
0.000000
21
0.000000
31
0.0
0
LINE
8
MCD_Layer_0
10
0.003906
20
0.007813
30
0.0
11
0.000000
21
0.000000
31
0.0
0
LINE
8
MCD_Layer_0
10
0.007813
20
0.007813
30
0.0
11
0.000000
21
0.000000
31
0.0
0
LINE
8
MCD_Layer_0
10
0.007813
20
0.000000
30
0.0
11
0.000000
21
0.000000
31
0.0
0
LINE
8
MCD_Layer_0
10
0.000000
20
0.007813
30
0.0
11
0.000000
21
0.000000
31
0.0
0
LINE
8
MCD_Layer_0
10
0.007813
20
0.007813
30
0.0
11
0.000000
21
0.000000
31
0.0
0
LINE
8
MCD_Layer_0
10
0.007813
20
0.003906
30
0.0
11
0.000000
21
0.000000
31
0.0
0
LINE
8
MCD_Layer_0
10
0.003906
20
0.003906
30
0.0
11
0.000000
21
0.000000
31
0.0
0
LINE
8
MCD_Layer_0
10
0.003281
20
0.000000
30
0.0
11
0.000000
21
0.000000
31
0.0
0
LINE
8
MCD_Layer_0
10
0.000000
20
0.000488
30
0.0
11
0.000000
21
0.000000
31
0.0
0
LINE
8
MCD_Layer_0
10
0.000488
20
-0.000000
30
0.0
11
0.000000
21
0.000000
31
0.0
0
LINE
8
MCD_Layer_0
10
-0.000000
20
0.000426
30
0.0
11
0.000000
21
0.000000
31
0.0
0
LINE
8
MCD_Layer_0
10
0.000426
20
0.000000
30
0.0
11
0.000000
21
0.000000
31
0.0
0
LINE
8
MCD_Layer_0
10
0.000000
20
0.003281
30
0.0
11
0.000000
21
0.000000
31
0.0
0
LINE
8
MCD_Layer_0
10
0.003906
20
0.003906
30
0.0
11
0.000000
21
0.000000
31
0.0
0
LINE
8
MCD_Layer_0
10
0.003906
20
0.007813
30
0.0
11
0.000000
21
0.000000
31
0.0
0
LINE
8
MCD_Layer_0
10
0.007813
20
0.007813
30
0.0
11
0.000000
21
0.000000
31
0.0
0
LINE
8
MCD_Layer_0
10
0.007813
20
0.000984
30
0.0
11
0.000000
21
0.000000
31
0.0
0
LINE
8
MCD_Layer_0
10
0.000984
20
0.000984
30
0.0
11
0.000000
21
0.000000
31
0.0
0
LINE
8
MCD_Layer_0
10
0.000984
20
0.002609
30
0.0
11
0.000000
21
0.000000
31
0.0
0
LINE
8
MCD_Layer_0
10
0.003938
20
0.003938
30
0.0
11
0.000000
21
0.000000
31
0.0
0
LINE
8
MCD_Layer_0
10
0.003938
20
0.000062
30
0.0
11
0.000000
21
0.000000
31
0.0
0
LINE
8
MCD_Layer_0
10
0.000062
20
0.000062
30
0.0
11
0.000000
21
0.000000
31
0.0
0
LINE
8
MCD_Layer_0
10
0.000081
20
0.000142
30
0.0
11
0.000000
21
0.000000
31
0.0
0
LINE
8
MCD_Layer_0
10
0.000142
20
0.000142
30
0.0
11
0.000000
21
0.000000
31
0.0
0
LINE
8
MCD_Layer_0
10
0.000142
20
0.000007
30
0.0
11
0.000000
21
0.000000
31
0.0
0
LINE
8
MCD_Layer_0
10
0.000007
20
0.000007
30
0.0
11
0.000000
21
0.000000
31
0.0
0
LINE
8
MCD_Layer_0
10
0.000007
20
0.000022
30
0.0
11
0.000000
21
0.000000
31
0.0
0
LINE
8
MCD_Layer_0
10
0.000031
20
0.000031
30
0.0
11
0.000000
21
0.000000
31
0.0
0
LINE
8
MCD_Layer_0
10
0.000031
20
0.000000
30
0.0
11
0.000000
21
0.000000
31
0.0
0
LINE
8
MCD_Layer_0
10
0.000000
20
0.000000
30
0.0
11
0.000000
21
0.000000
31
0.0
0
LINE
8
MCD_Layer_0
10
0.000000
20
0.000000
30
0.0
11
0.000000
21
0.000000
31
0.0
0
LINE
8
MCD_Layer_0
10
0.000000
20
0.000000
30
0.0
11
0.000000
21
0.000000
31
0.0
0
LINE
8
MCD_Layer_0
10
0.000000
20
0.003281
30
0.0
11
0.000000
21
0.000000
31
0.0
0
LINE
8
MCD_Layer_0
10
0.003906
20
0.003906
30
0.0
11
0.000000
21
0.000000
31
0.0
0
LINE
8
MCD_Layer_0
10
0.003906
20
0.007813
30
0.0
11
0.000000
21
0.000000
31
0.0
0
LINE
8
MCD_Layer_0
10
0.007813
20
0.007813
30
0.0
11
0.000000
21
0.000000
31
0.0
0
LINE
8
MCD_Layer_0
10
0.000020
20
0.000000
30
0.0
11
0.000000
21
0.000000
31
0.0
0
LINE
8
MCD_Layer_0
10
0.003938
20
0.003938
30
0.0
11
0.000000
21
0.000000
31
0.0
0
LINE
8
MCD_Layer_0
10
0.003938
20
0.000051
30
0.0
11
0.000000
21
-0.000000
31
0.0
0
LINE
8
MCD_Layer_0
10
0.003894
20
0.007788
30
0.0
11
0.000000
21
0.000000
31
0.0
0
LINE
8
MCD_Layer_0
10
0.007788
20
0.007788
30
0.0
11
0.000000
21
0.000000
31
0.0
0
LINE
8
MCD_Layer_0
10
0.007788
20
0.003894
30
0.0
11
0.000000
21
0.000000
31
0.0
0
LINE
8
MCD_Layer_0
10
0.003894
20
0.003894
30
0.0
11
0.000000
21
0.000000
31
0.0
0
LINE
8
MCD_Layer_0
10
0.002894
20
0.000036
30
0.0
11
0.000000
21
0.000000
31
0.0
0
LINE
8
MCD_Layer_0
10
0.000036
20
0.002925
30
0.0
11
0.000000
21
0.000000
31
0.0
0
LINE
8
MCD_Layer_0
10
0.003894
20
0.003894
30
0.0
11
0.000000
21
0.000000
31
0.0
0
LINE
8
MCD_Layer_0
10
0.003894
20
0.007788
30
0.0
11
0.000000
21
0.000000
31
0.0
0
LINE
8
MCD_Layer_0
10
0.007788
20
0.007788
30
0.0
11
0.000000
21
0.000000
31
0.0
0
LINE
8
MCD_Layer_0
10
0.007788
20
0.003894
30
0.0
11
0.000000
21
0.000000
31
0.0
0
LINE
8
MCD_Layer_0
10
0.003894
20
0.003894
30
0.0
11
0.000000
21
0.000000
31
0.0
0
LINE
8
MCD_Layer_0
10
0.003550
20
0.000007
30
0.0
11
0.000000
21
0.000000
31
0.0
0
LINE
8
MCD_Layer_0
10
0.000007
20
0.000000
30
0.0
11
0.000000
21
0.000000
31
0.0
0
LINE
8
MCD_Layer_0
10
0.000000
20
0.000007
30
0.0
11
0.000000
21
0.000000
31
0.0
0
LINE
8
MCD_Layer_0
10
0.000007
20
0.003550
30
0.0
11
0.000000
21
0.000000
31
0.0
0
LINE
8
MCD_Layer_0
10
0.003894
20
0.003894
30
0.0
11
0.000000
21
-0.000000
31
0.0
0
LINE
8
MCD_Layer_0
10
0.000000
20
0.003281
30
0.0
11
0.000000
21
0.000000
31
0.0
0
LINE
8
MCD_Layer_0
10
0.003906
20
0.003906
30
0.0
11
0.000000
21
0.000000
31
0.0
0
LINE
8
MCD_Layer_0
10
0.003906
20
0.007813
30
0.0
11
0.000000
21
0.000000
31
0.0
0
LINE
8
MCD_Layer_0
10
0.007813
20
0.007813
30
0.0
11
0.000000
21
0.000000
31
0.0
0
LINE
8
MCD_Layer_0
10
0.007813
20
0.000984
30
0.0
11
0.000000
21
0.000000
31
0.0
0
LINE
8
MCD_Layer_0
10
0.000984
20
0.000984
30
0.0
11
0.000000
21
0.000000
31
0.0
0
LINE
8
MCD_Layer_0
10
0.000984
20
0.002609
30
0.0
11
0.000000
21
0.000000
31
0.0
0
LINE
8
MCD_Layer_0
10
0.003938
20
0.003938
30
0.0
11
0.000000
21
0.000000
31
0.0
0
LINE
8
MCD_Layer_0
10
0.003938
20
0.000062
30
0.0
11
0.000000
21
0.000000
31
0.0
0
LINE
8
MCD_Layer_0
10
0.000062
20
0.000062
30
0.0
11
0.000000
21
0.000000
31
0.0
0
LINE
8
MCD_Layer_0
10
0.000081
20
0.000142
30
0.0
11
0.000000
21
0.000000
31
0.0
0
LINE
8
MCD_Layer_0
10
0.000142
20
0.000142
30
0.0
11
0.000000
21
0.000000
31
0.0
0
LINE
8
MCD_Layer_0
10
0.000142
20
0.000007
30
0.0
11
0.000000
21
0.000000
31
0.0
0
LINE
8
MCD_Layer_0
10
0.000007
20
0.000007
30
0.0
11
0.000000
21
0.000000
31
0.0
0
LINE
8
MCD_Layer_0
10
0.000007
20
0.000022
30
0.0
11
0.000000
21
0.000000
31
0.0
0
LINE
8
MCD_Layer_0
10
0.000031
20
0.000031
30
0.0
11
0.000000
21
0.000000
31
0.0
0
LINE
8
MCD_Layer_0
10
0.000031
20
0.000000
30
0.0
11
0.000000
21
0.000000
31
0.0
0
LINE
8
MCD_Layer_0
10
0.003975
20
0.007881
30
0.0
11
0.000000
21
0.000000
31
0.0
0
LINE
8
MCD_Layer_0
10
0.007881
20
0.007881
30
0.0
11
0.000000
21
0.000000
31
0.0
0
LINE
8
MCD_Layer_0
10
0.007881
20
0.003975
30
0.0
11
0.000000
21
0.000000
31
0.0
0
LINE
8
MCD_Layer_0
10
0.003975
20
0.003975
30
0.0
11
0.000000
21
0.000000
31
0.0
0
LINE
8
MCD_Layer_0
10
0.003316
20
0.000000
30
0.0
11
0.000000
21
0.000000
31
0.0
0
LINE
8
MCD_Layer_0
10
0.000000
20
0.003316
30
0.0
11
0.000000
21
0.000000
31
0.0
0
LINE
8
MCD_Layer_0
10
0.003975
20
0.003975
30
0.0
11
0.000000
21
0.000000
31
0.0
0
LINE
8
MCD_Layer_0
10
0.003975
20
0.007881
30
0.0
11
0.000000
21
0.000000
31
0.0
0
LINE
8
MCD_Layer_0
10
0.007881
20
0.007881
30
0.0
11
0.000000
21
0.000000
31
0.0
0
LINE
8
MCD_Layer_0
10
0.007881
20
0.003975
30
0.0
11
0.000000
21
0.000000
31
0.0
0
LINE
8
MCD_Layer_0
10
0.003975
20
0.003975
30
0.0
11
0.000000
21
0.000000
31
0.0
0
LINE
8
MCD_Layer_0
10
0.003316
20
0.000000
30
0.0
11
0.000000
21
0.000000
31
0.0
0
LINE
8
MCD_Layer_0
10
0.000000
20
0.003316
30
0.0
11
0.000000
21
0.000000
31
0.0
0
LINE
8
MCD_Layer_0
10
0.003975
20
0.003975
30
0.0
11
0.000000
21
-0.000000
31
0.0
0
LINE
8
MCD_Layer_0
10
0.000000
20
0.000000
30
0.0
11
0.000000
21
0.000000
31
0.0
0
LINE
8
MCD_Layer_0
10
0.000000
20
0.000000
30
0.0
11
0.000000
21
0.000000
31
0.0
0
LINE
8
MCD_Layer_0
10
0.000000
20
0.000000
30
0.0
11
0.000000
21
0.000000
31
0.0
0
LINE
8
MCD_Layer_0
10
0.000003
20
0.000190
30
0.0
11
0.000000
21
0.000000
31
0.0
0
LINE
8
MCD_Layer_0
10
0.010562
20
0.011500
30
0.0
11
0.000000
21
0.000000
31
0.0
0
LINE
8
MCD_Layer_0
10
0.011500
20
0.011500
30
0.0
11
0.000000
21
0.000000
31
0.0
0
LINE
8
MCD_Layer_0
10
0.011500
20
0.000949
30
0.0
11
0.000000
21
0.000000
31
0.0
0
LINE
8
MCD_Layer_0
10
0.000949
20
0.000949
30
0.0
11
0.000000
21
0.000000
31
0.0
0
LINE
8
MCD_Layer_0
10
0.000949
20
0.001250
30
0.0
11
0.000000
21
0.000000
31
0.0
0
LINE
8
MCD_Layer_0
10
0.000281
20
0.000040
30
0.0
11
0.000000
21
0.000000
31
0.0
0
LINE
8
MCD_Layer_0
10
0.000000
20
0.003281
30
0.0
11
0.000000
21
0.000000
31
0.0
0
LINE
8
MCD_Layer_0
10
0.003906
20
0.003906
30
0.0
11
0.000000
21
0.000000
31
0.0
0
LINE
8
MCD_Layer_0
10
0.003906
20
0.007813
30
0.0
11
0.000000
21
0.000000
31
0.0
0
LINE
8
MCD_Layer_0
10
0.007813
20
0.007813
30
0.0
11
0.000000
21
0.000000
31
0.0
0
LINE
8
MCD_Layer_0
10
0.007813
20
0.003906
30
0.0
11
0.000000
21
0.000000
31
0.0
0
LINE
8
MCD_Layer_0
10
0.003906
20
0.003906
30
0.0
11
0.000000
21
0.000000
31
0.0
0
LINE
8
MCD_Layer_0
10
0.003281
20
0.000000
30
0.0
11
0.000000
21
0.000000
31
0.0
0
LINE
8
MCD_Layer_0
10
0.000000
20
0.000000
30
0.0
11
0.000000
21
0.000000
31
0.0
0
LINE
8
MCD_Layer_0
10
0.000000
20
0.000000
30
0.0
11
0.000000
21
0.000000
31
0.0
0
LINE
8
MCD_Layer_0
10
0.000000
20
0.000000
30
0.0
11
0.000000
21
0.000000
31
0.0
0
LINE
8
MCD_Layer_0
10
0.000000
20
0.003266
30
0.0
11
0.000000
21
0.000000
31
0.0
0
LINE
8
MCD_Layer_0
10
0.003938
20
0.003938
30
0.0
11
0.000000
21
0.000000
31
0.0
0
LINE
8
MCD_Layer_0
10
0.003266
20
0.001063
30
0.0
11
0.000000
21
0.000000
31
0.0
0
LINE
8
MCD_Layer_0
10
0.001063
20
0.001063
30
0.0
11
0.000000
21
0.000000
31
0.0
0
LINE
8
MCD_Layer_0
10
0.001063
20
0.007813
30
0.0
11
0.000000
21
0.000000
31
0.0
0
LINE
8
MCD_Layer_0
10
0.007813
20
0.007813
30
0.0
11
0.000000
21
0.000000
31
0.0
0
LINE
8
MCD_Layer_0
10
0.007813
20
0.001063
30
0.0
11
0.000000
21
0.000000
31
0.0
0
LINE
8
MCD_Layer_0
10
0.001063
20
0.001063
30
0.0
11
0.000000
21
0.000000
31
0.0
0
LINE
8
MCD_Layer_0
10
0.001063
20
0.003266
30
0.0
11
0.000000
21
0.000000
31
0.0
0
LINE
8
MCD_Layer_0
10
0.003938
20
0.003938
30
0.0
11
0.000000
21
0.000000
31
0.0
0
LINE
8
MCD_Layer_0
10
0.003266
20
0.000000
30
0.0
11
0.000000
21
0.000000
31
0.0
0
LINE
8
MCD_Layer_0
10
0.000000
20
0.003281
30
0.0
11
0.000000
21
0.000000
31
0.0
0
LINE
8
MCD_Layer_0
10
0.003906
20
0.003906
30
0.0
11
0.000000
21
0.000000
31
0.0
0
LINE
8
MCD_Layer_0
10
0.003906
20
0.007813
30
0.0
11
0.000000
21
0.000000
31
0.0
0
LINE
8
MCD_Layer_0
10
0.007813
20
0.007813
30
0.0
11
0.000000
21
0.000000
31
0.0
0
LINE
8
MCD_Layer_0
10
0.000031
20
0.000031
30
0.0
11
0.000000
21
0.000000
31
0.0
0
LINE
8
MCD_Layer_0
10
0.000031
20
0.000000
30
0.0
11
0.000000
21
0.000000
31
0.0
0
LINE
8
MCD_Layer_0
10
0.000062
20
0.000062
30
0.0
11
0.000000
21
0.000000
31
0.0
0
LINE
8
MCD_Layer_0
10
0.003938
20
0.003938
30
0.0
11
0.000000
21
0.000000
31
0.0
0
LINE
8
MCD_Layer_0
10
0.003938
20
0.000062
30
0.0
11
0.000000
21
-0.000000
31
0.0
0
LINE
8
MCD_Layer_0
10
0.000000
20
0.003281
30
0.0
11
0.000000
21
0.000000
31
0.0
0
LINE
8
MCD_Layer_0
10
0.003906
20
0.003906
30
0.0
11
0.000000
21
0.000000
31
0.0
0
LINE
8
MCD_Layer_0
10
0.003906
20
0.007813
30
0.0
11
0.000000
21
0.000000
31
0.0
0
LINE
8
MCD_Layer_0
10
0.007813
20
0.007813
30
0.0
11
0.000000
21
0.000000
31
0.0
0
LINE
8
MCD_Layer_0
10
0.007813
20
0.003906
30
0.0
11
0.000000
21
0.000000
31
0.0
0
LINE
8
MCD_Layer_0
10
0.003906
20
0.003906
30
0.0
11
0.000000
21
0.000000
31
0.0
0
LINE
8
MCD_Layer_0
10
0.003281
20
0.000062
30
0.0
11
0.000000
21
0.000000
31
0.0
0
LINE
8
MCD_Layer_0
10
0.000062
20
0.000062
30
0.0
11
0.000000
21
0.000000
31
0.0
0
LINE
8
MCD_Layer_0
10
0.000062
20
0.003281
30
0.0
11
0.000000
21
0.000000
31
0.0
0
LINE
8
MCD_Layer_0
10
0.003906
20
0.003906
30
0.0
11
0.000000
21
0.000000
31
0.0
0
LINE
8
MCD_Layer_0
10
0.003906
20
0.007813
30
0.0
11
0.000000
21
0.000000
31
0.0
0
LINE
8
MCD_Layer_0
10
0.007813
20
0.007813
30
0.0
11
0.000000
21
0.000000
31
0.0
0
LINE
8
MCD_Layer_0
10
0.007813
20
0.003906
30
0.0
11
0.000000
21
0.000000
31
0.0
0
LINE
8
MCD_Layer_0
10
0.003906
20
0.003906
30
0.0
11
0.000000
21
0.000000
31
0.0
0
LINE
8
MCD_Layer_0
10
0.003281
20
0.000000
30
0.0
11
0.000000
21
0.000000
31
0.0
0
LINE
8
MCD_Layer_0
10
0.000000
20
0.000031
30
0.0
11
0.000000
21
0.000000
31
0.0
0
LINE
8
MCD_Layer_0
10
0.000031
20
0.000031
30
0.0
11
0.000000
21
0.000000
31
0.0
0
LINE
8
MCD_Layer_0
10
0.000031
20
0.000000
30
0.0
11
0.000000
21
0.000000
31
0.0
0
LINE
8
MCD_Layer_0
10
0.000000
20
0.011063
30
0.0
11
0.000000
21
0.000000
31
0.0
0
LINE
8
MCD_Layer_0
10
0.011063
20
0.000000
30
0.0
11
0.000000
21
0.000000
31
0.0
0
LINE
8
MCD_Layer_0
10
0.000000
20
0.000002
30
0.0
11
0.000000
21
0.000000
31
0.0
0
LINE
8
MCD_Layer_0
10
0.000002
20
0.000002
30
0.0
11
0.000000
21
0.000000
31
0.0
0
LINE
8
MCD_Layer_0
10
0.000002
20
0.000000
30
0.0
11
0.000000
21
0.000000
31
0.0
0
LINE
8
MCD_Layer_0
10
0.000008
20
0.000008
30
0.0
11
0.000000
21
0.000000
31
0.0
0
LINE
8
MCD_Layer_0
10
0.000008
20
0.000785
30
0.0
11
0.000000
21
0.000000
31
0.0
0
LINE
8
MCD_Layer_0
10
0.000785
20
0.000008
30
0.0
11
0.000000
21
-0.000000
31
0.0
0
LINE
8
MCD_Layer_0
10
0.000000
20
0.003281
30
0.0
11
0.000000
21
0.000000
31
0.0
0
LINE
8
MCD_Layer_0
10
0.003906
20
0.003906
30
0.0
11
0.000000
21
0.000000
31
0.0
0
LINE
8
MCD_Layer_0
10
0.003906
20
0.007813
30
0.0
11
0.000000
21
0.000000
31
0.0
0
LINE
8
MCD_Layer_0
10
0.007813
20
0.007813
30
0.0
11
0.000000
21
0.000000
31
0.0
0
LINE
8
MCD_Layer_0
10
0.007813
20
0.003906
30
0.0
11
0.000000
21
0.000000
31
0.0
0
LINE
8
MCD_Layer_0
10
0.003906
20
0.003906
30
0.0
11
0.000000
21
0.000000
31
0.0
0
LINE
8
MCD_Layer_0
10
0.003281
20
0.000014
30
0.0
11
0.000000
21
0.000000
31
0.0
0
LINE
8
MCD_Layer_0
10
0.000014
20
0.002906
30
0.0
11
0.000000
21
0.000000
31
0.0
0
LINE
8
MCD_Layer_0
10
0.003906
20
0.003906
30
0.0
11
0.000000
21
0.000000
31
0.0
0
LINE
8
MCD_Layer_0
10
0.003906
20
0.007813
30
0.0
11
0.000000
21
0.000000
31
0.0
0
LINE
8
MCD_Layer_0
10
0.007813
20
0.007813
30
0.0
11
0.000000
21
0.000000
31
0.0
0
LINE
8
MCD_Layer_0
10
0.007813
20
0.003906
30
0.0
11
0.000000
21
0.000000
31
0.0
0
LINE
8
MCD_Layer_0
10
0.003906
20
0.003906
30
0.0
11
0.000000
21
0.000000
31
0.0
0
LINE
8
MCD_Layer_0
10
0.003606
20
0.000118
30
0.0
11
0.000000
21
0.000000
31
0.0
0
LINE
8
MCD_Layer_0
10
0.000118
20
0.000000
30
0.0
11
0.000000
21
0.000000
31
0.0
0
LINE
8
MCD_Layer_0
10
0.000000
20
0.000037
30
0.0
11
0.000000
21
0.000000
31
0.0
0
LINE
8
MCD_Layer_0
10
0.000037
20
0.000001
30
0.0
11
0.000000
21
0.000000
31
0.0
0
LINE
8
MCD_Layer_0
10
0.000001
20
0.000000
30
0.0
11
0.000000
21
0.000000
31
0.0
0
LINE
8
MCD_Layer_0
10
0.001563
20
0.007813
30
0.0
11
0.000000
21
0.000000
31
0.0
0
LINE
8
MCD_Layer_0
10
0.007813
20
0.007813
30
0.0
11
0.000000
21
0.000000
31
0.0
0
LINE
8
MCD_Layer_0
10
0.007813
20
0.001172
30
0.0
11
0.000000
21
0.000000
31
0.0
0
LINE
8
MCD_Layer_0
10
0.001172
20
0.000000
30
0.0
11
0.000000
21
0.000000
31
0.0
0
LINE
8
MCD_Layer_0
10
0.000000
20
0.000000
30
0.0
11
0.000000
21
0.000000
31
0.0
0
LINE
8
MCD_Layer_0
10
0.000000
20
0.000000
30
0.0
11
0.000000
21
0.000000
31
0.0
0
LINE
8
MCD_Layer_0
10
0.000000
20
0.001563
30
0.0
11
0.000000
21
-0.000000
31
0.0
0
LINE
8
MCD_Layer_0
10
0.000000
20
0.000031
30
0.0
11
0.000000
21
0.000000
31
0.0
0
LINE
8
MCD_Layer_0
10
0.000003
20
0.000031
30
0.0
11
0.000000
21
0.000000
31
0.0
0
LINE
8
MCD_Layer_0
10
0.000031
20
0.000031
30
0.0
11
0.000000
21
0.000000
31
0.0
0
LINE
8
MCD_Layer_0
10
0.000031
20
0.000003
30
0.0
11
0.000000
21
-0.000000
31
0.0
0
LINE
8
MCD_Layer_0
10
0.007813
20
0.000000
30
0.0
11
0.000000
21
0.000000
31
0.0
0
LINE
8
MCD_Layer_0
10
0.000000
20
0.000003
30
0.0
11
0.000000
21
0.000000
31
0.0
0
LINE
8
MCD_Layer_0
10
0.000003
20
0.000006
30
0.0
11
0.000000
21
0.000000
31
0.0
0
LINE
8
MCD_Layer_0
10
0.000006
20
0.000031
30
0.0
11
0.000000
21
0.000000
31
0.0
0
LINE
8
MCD_Layer_0
10
0.000031
20
0.000031
30
0.0
11
0.000000
21
0.000000
31
0.0
0
LINE
8
MCD_Layer_0
10
0.000031
20
0.000006
30
0.0
11
0.000000
21
-0.000000
31
0.0
0
LINE
8
MCD_Layer_0
10
0.000001
20
0.000006
30
0.0
11
0.000000
21
0.000000
31
0.0
0
LINE
8
MCD_Layer_0
10
0.000006
20
0.000031
30
0.0
11
0.000000
21
0.000000
31
0.0
0
LINE
8
MCD_Layer_0
10
0.000031
20
0.000031
30
0.0
11
0.000000
21
0.000000
31
0.0
0
LINE
8
MCD_Layer_0
10
0.000031
20
0.000003
30
0.0
11
0.000000
21
0.000000
31
0.0
0
LINE
8
MCD_Layer_0
10
0.000003
20
0.000000
30
0.0
11
0.000000
21
0.000000
31
0.0
0
LINE
8
MCD_Layer_0
10
0.000001
20
0.000000
30
0.0
11
0.000000
21
0.000000
31
0.0
0
LINE
8
MCD_Layer_0
10
0.000000
20
0.000000
30
0.0
11
0.000000
21
-0.000000
31
0.0
0
LINE
8
MCD_Layer_0
10
0.000879
20
0.000000
30
0.0
11
0.000000
21
0.000000
31
0.0
0
LINE
8
MCD_Layer_0
10
0.000879
20
0.000000
30
0.0
11
0.000000
21
0.000000
31
0.0
0
LINE
8
MCD_Layer_0
10
0.000293
20
0.000293
30
0.0
11
0.000000
21
0.000000
31
0.0
0
LINE
8
MCD_Layer_0
10
0.000001
20
0.000001
30
0.0
11
0.000000
21
-0.000000
31
0.0
0
LINE
8
MCD_Layer_0
10
0.007812
20
0.000000
30
0.0
11
0.000000
21
0.000000
31
0.0
0
LINE
8
MCD_Layer_0
10
0.000000
20
0.007813
30
0.0
11
0.000000
21
-0.000000
31
0.0
0
LINE
8
MCD_Layer_0
10
0.000031
20
0.000002
30
0.0
11
0.000000
21
0.000000
31
0.0
0
LINE
8
MCD_Layer_0
10
0.000002
20
0.000000
30
0.0
11
0.000000
21
0.000000
31
0.0
0
LINE
8
MCD_Layer_0
10
0.000000
20
0.000002
30
0.0
11
0.000000
21
0.000000
31
0.0
0
LINE
8
MCD_Layer_0
10
0.000002
20
0.000002
30
0.0
11
0.000000
21
0.000000
31
0.0
0
LINE
8
MCD_Layer_0
10
0.000002
20
0.000000
30
0.0
11
0.000000
21
0.000000
31
0.0
0
LINE
8
MCD_Layer_0
10
0.000000
20
0.000000
30
0.0
11
0.000000
21
0.000000
31
0.0
0
LINE
8
MCD_Layer_0
10
0.000006
20
0.000031
30
0.0
11
0.000000
21
-0.000000
31
0.0
0
LINE
8
MCD_Layer_0
10
0.000031
20
0.000000
30
0.0
11
0.000000
21
0.000000
31
0.0
0
LINE
8
MCD_Layer_0
10
0.000006
20
0.000031
30
0.0
11
0.000000
21
0.000000
31
0.0
0
LINE
8
MCD_Layer_0
10
0.000031
20
0.000031
30
0.0
11
0.000000
21
0.000000
31
0.0
0
LINE
8
MCD_Layer_0
10
0.000031
20
0.000006
30
0.0
11
0.000000
21
0.000000
31
0.0
0
LINE
8
MCD_Layer_0
10
0.000006
20
0.000031
30
0.0
11
0.000000
21
0.000000
31
0.0
0
LINE
8
MCD_Layer_0
10
0.000031
20
0.000031
30
0.0
11
0.000000
21
0.000000
31
0.0
0
LINE
8
MCD_Layer_0
10
0.000031
20
0.000006
30
0.0
11
0.000000
21
0.000000
31
0.0
0
LINE
8
MCD_Layer_0
10
0.000006
20
0.000000
30
0.0
11
0.000000
21
-0.000000
31
0.0
0
LINE
8
MCD_Layer_0
10
0.000003
20
0.000031
30
0.0
11
0.000000
21
0.000000
31
0.0
0
LINE
8
MCD_Layer_0
10
0.000031
20
0.000031
30
0.0
11
0.000000
21
0.000000
31
0.0
0
LINE
8
MCD_Layer_0
10
0.000031
20
0.000003
30
0.0
11
0.000000
21
0.000000
31
0.0
0
LINE
8
MCD_Layer_0
10
0.000003
20
0.000000
30
0.0
11
0.000000
21
-0.000000
31
0.0
0
LINE
8
MCD_Layer_0
10
0.001172
20
0.000098
30
0.0
11
0.000000
21
0.000000
31
0.0
0
LINE
8
MCD_Layer_0
10
0.000098
20
0.000031
30
0.0
11
0.000000
21
0.000000
31
0.0
0
LINE
8
MCD_Layer_0
10
0.000031
20
0.000031
30
0.0
11
0.000000
21
0.000000
31
0.0
0
LINE
8
MCD_Layer_0
10
0.000031
20
0.000002
30
0.0
11
0.000000
21
0.000000
31
0.0
0
LINE
8
MCD_Layer_0
10
0.000002
20
0.000000
30
0.0
11
0.000000
21
0.000000
31
0.0
0
LINE
8
MCD_Layer_0
10
0.000000
20
0.000000
30
0.0
11
0.000000
21
0.000000
31
0.0
0
LINE
8
MCD_Layer_0
10
0.000000
20
0.000000
30
0.0
11
0.000000
21
-0.000000
31
0.0
0
LINE
8
MCD_Layer_0
10
0.004688
20
0.000000
30
0.0
11
0.000000
21
0.000000
31
0.0
0
LINE
8
MCD_Layer_0
10
0.000031
20
0.000031
30
0.0
11
0.000000
21
-0.000000
31
0.0
0
LINE
8
MCD_Layer_0
10
0.000003
20
0.000031
30
0.0
11
0.000000
21
0.000000
31
0.0
0
LINE
8
MCD_Layer_0
10
0.000003
20
0.000000
30
0.0
11
0.000000
21
0.000000
31
0.0
0
LINE
8
MCD_Layer_0
10
0.000000
20
0.000003
30
0.0
11
0.000000
21
-0.000000
31
0.0
0
LINE
8
MCD_Layer_0
10
0.007812
20
0.007813
30
0.0
11
0.000000
21
0.000000
31
0.0
0
LINE
8
MCD_Layer_0
10
0.007813
20
0.001563
30
0.0
11
0.000000
21
0.000000
31
0.0
0
LINE
8
MCD_Layer_0
10
0.001563
20
0.000000
30
0.0
11
0.000000
21
0.000000
31
0.0
0
LINE
8
MCD_Layer_0
10
0.001953
20
0.007813
30
0.0
11
0.000000
21
0.000000
31
0.0
0
LINE
8
MCD_Layer_0
10
0.007813
20
0.007813
30
0.0
11
0.000000
21
0.000000
31
0.0
0
LINE
8
MCD_Layer_0
10
0.007813
20
0.001563
30
0.0
11
0.000000
21
0.000000
31
0.0
0
LINE
8
MCD_Layer_0
10
0.001563
20
0.000000
30
0.0
11
0.000000
21
0.000000
31
0.0
0
LINE
8
MCD_Layer_0
10
0.000031
20
0.000000
30
0.0
11
0.000000
21
0.000000
31
0.0
0
LINE
8
MCD_Layer_0
10
0.000031
20
0.000000
30
0.0
11
0.000000
21
0.000000
31
0.0
0
LINE
8
MCD_Layer_0
10
0.000000
20
-0.000000
30
0.0
11
0.000000
21
0.000000
31
0.0
0
LINE
8
MCD_Layer_0
10
-0.000000
20
-0.000000
30
0.0
11
0.000000
21
0.000000
31
0.0
0
LINE
8
MCD_Layer_0
10
-0.000000
20
-0.000001
30
0.0
11
0.000000
21
0.000000
31
0.0
0
LINE
8
MCD_Layer_0
10
-0.000001
20
-0.000001
30
0.0
11
0.000000
21
0.000000
31
0.0
0
LINE
8
MCD_Layer_0
10
-0.000001
20
-0.000000
30
0.0
11
0.000000
21
-0.000000
31
0.0
0
LINE
8
MCD_Layer_0
10
0.007813
20
0.007813
30
0.0
11
0.000000
21
0.000000
31
0.0
0
LINE
8
MCD_Layer_0
10
0.000000
20
0.007813
30
0.0
11
0.000000
21
0.000000
31
0.0
0
LINE
8
MCD_Layer_0
10
0.000003
20
0.000031
30
0.0
11
0.000000
21
0.000000
31
0.0
0
LINE
8
MCD_Layer_0
10
0.000031
20
0.000031
30
0.0
11
0.000000
21
0.000000
31
0.0
0
LINE
8
MCD_Layer_0
10
0.000031
20
0.000003
30
0.0
11
0.000000
21
0.000000
31
0.0
0
LINE
8
MCD_Layer_0
10
0.000003
20
0.000000
30
0.0
11
0.000000
21
-0.000000
31
0.0
0
LINE
8
MCD_Layer_0
10
0.000031
20
0.000003
30
0.0
11
0.000000
21
0.000000
31
0.0
0
LINE
8
MCD_Layer_0
10
0.000003
20
0.000000
30
0.0
11
0.000000
21
0.000000
31
0.0
0
LINE
8
MCD_Layer_0
10
0.000000
20
0.000003
30
0.0
11
0.000000
21
0.000000
31
0.0
0
LINE
8
MCD_Layer_0
10
0.000003
20
0.000031
30
0.0
11
0.000000
21
-0.000000
31
0.0
0
LINE
8
MCD_Layer_0
10
0.000031
20
0.000006
30
0.0
11
0.000000
21
0.000000
31
0.0
0
LINE
8
MCD_Layer_0
10
0.000006
20
0.000000
30
0.0
11
0.000000
21
0.000000
31
0.0
0
LINE
8
MCD_Layer_0
10
0.002734
20
0.007813
30
0.0
11
0.000000
21
0.000000
31
0.0
0
LINE
8
MCD_Layer_0
10
0.007813
20
0.007813
30
0.0
11
0.000000
21
0.000000
31
0.0
0
LINE
8
MCD_Layer_0
10
0.007813
20
0.003516
30
0.0
11
0.000000
21
0.000000
31
0.0
0
LINE
8
MCD_Layer_0
10
0.003516
20
0.000000
30
0.0
11
0.000000
21
0.000000
31
0.0
0
LINE
8
MCD_Layer_0
10
0.000031
20
0.000031
30
0.0
11
0.000000
21
-0.000000
31
0.0
0
LINE
8
MCD_Layer_0
10
0.000031
20
0.000000
30
0.0
11
0.000000
21
0.000000
31
0.0
0
LINE
8
MCD_Layer_0
10
0.000000
20
0.000031
30
0.0
11
0.000000
21
0.000000
31
0.0
0
LINE
8
MCD_Layer_0
10
0.007813
20
0.007813
30
0.0
11
0.000000
21
0.000000
31
0.0
0
LINE
8
MCD_Layer_0
10
0.007813
20
0.000000
30
0.0
11
0.000000
21
0.000000
31
0.0
0
LINE
8
MCD_Layer_0
10
0.007812
20
0.000000
30
0.0
11
0.000000
21
0.000000
31
0.0
0
LINE
8
MCD_Layer_0
10
0.000031
20
0.000001
30
0.0
11
0.000000
21
0.000000
31
0.0
0
LINE
8
MCD_Layer_0
10
0.000001
20
0.000000
30
0.0
11
0.000000
21
0.000000
31
0.0
0
LINE
8
MCD_Layer_0
10
0.000001
20
0.000001
30
0.0
11
0.000000
21
-0.000000
31
0.0
0
LINE
8
MCD_Layer_0
10
0.000003
20
0.000000
30
0.0
11
0.000000
21
0.000000
31
0.0
0
LINE
8
MCD_Layer_0
10
0.000011
20
0.000000
30
0.0
11
0.000000
21
0.000000
31
0.0
0
LINE
8
MCD_Layer_0
10
0.000000
20
0.000003
30
0.0
11
0.000000
21
0.000000
31
0.0
0
LINE
8
MCD_Layer_0
10
0.000003
20
0.000031
30
0.0
11
0.000000
21
-0.000000
31
0.0
0
LINE
8
MCD_Layer_0
10
0.000031
20
0.000031
30
0.0
11
0.000000
21
0.000000
31
0.0
0
LINE
8
MCD_Layer_0
10
0.000031
20
0.000000
30
0.0
11
0.000000
21
0.000000
31
0.0
0
LINE
8
MCD_Layer_0
10
0.000122
20
0.000122
30
0.0
11
0.000000
21
-0.000000
31
0.0
0
LINE
8
MCD_Layer_0
10
0.000003
20
-0.000000
30
0.0
11
0.000000
21
0.000000
31
0.0
0
LINE
8
MCD_Layer_0
10
-0.000000
20
-0.000000
30
0.0
11
0.000000
21
0.000000
31
0.0
0
LINE
8
MCD_Layer_0
10
-0.000000
20
-0.000000
30
0.0
11
0.000000
21
0.000000
31
0.0
0
LINE
8
MCD_Layer_0
10
-0.000000
20
-0.000000
30
0.0
11
0.000000
21
-0.000000
31
0.0
0
LINE
8
MCD_Layer_0
10
0.007813
20
0.000000
30
0.0
11
0.000000
21
0.000000
31
0.0
0
LINE
8
MCD_Layer_0
10
0.000000
20
0.000006
30
0.0
11
0.000000
21
0.000000
31
0.0
0
LINE
8
MCD_Layer_0
10
0.000006
20
0.000031
30
0.0
11
0.000000
21
0.000000
31
0.0
0
LINE
8
MCD_Layer_0
10
0.000031
20
0.000031
30
0.0
11
0.000000
21
0.000000
31
0.0
0
LINE
8
MCD_Layer_0
10
0.000031
20
0.000006
30
0.0
11
0.000000
21
-0.000000
31
0.0
0
LINE
8
MCD_Layer_0
10
0.007812
20
0.007813
30
0.0
11
0.000000
21
0.000000
31
0.0
0
LINE
8
MCD_Layer_0
10
0.007813
20
0.000000
30
0.0
11
0.000000
21
-0.000000
31
0.0
0
LINE
8
MCD_Layer_0
10
0.000031
20
0.000002
30
0.0
11
0.000000
21
0.000000
31
0.0
0
LINE
8
MCD_Layer_0
10
0.000002
20
0.000000
30
0.0
11
0.000000
21
0.000000
31
0.0
0
LINE
8
MCD_Layer_0
10
0.000000
20
0.000000
30
0.0
11
0.000000
21
0.000000
31
0.0
0
LINE
8
MCD_Layer_0
10
0.000000
20
0.000000
30
0.0
11
0.000000
21
0.000000
31
0.0
0
LINE
8
MCD_Layer_0
10
0.000000
20
0.000000
30
0.0
11
0.000000
21
0.000000
31
0.0
0
LINE
8
MCD_Layer_0
10
0.000000
20
0.000000
30
0.0
11
0.000000
21
0.000000
31
0.0
0
LINE
8
MCD_Layer_0
10
0.000031
20
0.000031
30
0.0
11
0.000000
21
0.000000
31
0.0
0
LINE
8
MCD_Layer_0
10
0.000031
20
0.000000
30
0.0
11
0.000000
21
0.000000
31
0.0
0
LINE
8
MCD_Layer_0
10
0.007812
20
0.000031
30
0.0
11
0.000000
21
0.000000
31
0.0
0
LINE
8
MCD_Layer_0
10
0.000031
20
0.007813
30
0.0
11
0.000000
21
0.000000
31
0.0
0
LINE
8
MCD_Layer_0
10
0.000031
20
0.000000
30
0.0
11
0.000000
21
-0.000000
31
0.0
0
LINE
8
MCD_Layer_0
10
0.000031
20
0.000006
30
0.0
11
0.000000
21
0.000000
31
0.0
0
LINE
8
MCD_Layer_0
10
0.000006
20
0.000000
30
0.0
11
0.000000
21
0.000000
31
0.0
0
LINE
8
MCD_Layer_0
10
-0.000001
20
0.000031
30
0.0
11
0.000000
21
-0.000000
31
0.0
0
LINE
8
MCD_Layer_0
10
0.004688
20
0.007813
30
0.0
11
0.000000
21
0.000000
31
0.0
0
LINE
8
MCD_Layer_0
10
0.007813
20
0.000000
30
0.0
11
0.000000
21
0.000000
31
0.0
0
LINE
8
MCD_Layer_0
10
0.000043
20
0.000043
30
0.0
11
0.000000
21
-0.000000
31
0.0
0
LINE
8
MCD_Layer_0
10
0.000055
20
0.000055
30
0.0
11
0.000000
21
-0.000000
31
0.0
0
LINE
8
MCD_Layer_0
10
0.000001
20
0.000001
30
0.0
11
0.000000
21
0.000000
31
0.0
0
LINE
8
MCD_Layer_0
10
0.000055
20
0.000055
30
0.0
11
0.000000
21
-0.000000
31
0.0
0
LINE
8
MCD_Layer_0
10
0.007813
20
0.000000
30
0.0
11
0.000000
21
-0.000000
31
0.0
0
LINE
8
MCD_Layer_0
10
0.001953
20
0.007813
30
0.0
11
0.000000
21
0.000000
31
0.0
0
LINE
8
MCD_Layer_0
10
0.007813
20
0.007813
30
0.0
11
0.000000
21
0.000000
31
0.0
0
LINE
8
MCD_Layer_0
10
0.007813
20
0.001563
30
0.0
11
0.000000
21
0.000000
31
0.0
0
LINE
8
MCD_Layer_0
10
0.001563
20
0.000122
30
0.0
11
0.000000
21
0.000000
31
0.0
0
LINE
8
MCD_Layer_0
10
0.000122
20
0.000000
30
0.0
11
0.000000
21
0.000000
31
0.0
0
LINE
8
MCD_Layer_0
10
0.000000
20
0.000000
30
0.0
11
0.000000
21
0.000000
31
0.0
0
LINE
8
MCD_Layer_0
10
8192.001976
20
8192.005882
30
0.0
11
0.000000
21
0.000000
31
0.0
0
LINE
8
MCD_Layer_0
10
8192.005882
20
0.000000
30
0.0
11
0.000000
21
0.000000
31
0.0
0
LINE
8
MCD_Layer_0
10
0.000000
20
6144.002941
30
0.0
11
0.000000
21
0.000000
31
0.0
0
LINE
8
MCD_Layer_0
10
0.000000
20
0.000000
30
0.0
11
0.000000
21
0.000000
31
0.0
0
LINE
8
MCD_Layer_0
10
6144.000988
20
0.000000
30
0.0
11
0.000000
21
0.000000
31
0.0
0
ARC
8
MCD_Layer_0
10
0.001953
20
0.001584
40
0.002514
50
219.035906
51
58.116730
0
ARC
8
MCD_Layer_0
10
0.001641
20
0.002188
40
0.002734
50
233.131750
51
34.050940
0
ARC
8
MCD_Layer_0
10
0.000000
20
0.000000
40
0.000002
50
215.388423
51
162.914071
0
ARC
8
MCD_Layer_0
10
0.001950
20
0.001583
40
0.002516
50
219.138038
51
58.070308
0
ARC
8
MCD_Layer_0
10
0.001953
20
0.001584
40
0.002514
50
219.033761
51
58.119691
0
ARC
8
MCD_Layer_0
10
0.001642
20
0.002187
40
0.002734
50
233.118774
51
34.069017
0
ARC
8
MCD_Layer_0
10
0.001946
20
0.001583
40
0.002519
50
219.274727
51
57.999589
0
ARC
8
MCD_Layer_0
10
0.001643
20
0.002187
40
0.002733
50
233.102024
51
34.079435
0
ARC
8
MCD_Layer_0
10
0.000000
20
0.000000
40
0.000000
50
180.000000
51
17.085929
0
ARC
8
MCD_Layer_0
10
0.000000
20
0.000000
40
0.000000
50
180.000000
51
162.914071
0
ARC
8
MCD_Layer_0
10
0.001953
20
0.001584
40
0.002515
50
219.038193
51
58.114522
0
ARC
8
MCD_Layer_0
10
0.001969
20
0.001265
40
0.002340
50
212.720927
51
74.111878
0
ARC
8
MCD_Layer_0
10
0.000041
20
0.000025
40
0.000048
50
211.438073
51
63.767034
0
ARC
8
MCD_Layer_0
10
0.000031
20
0.000000
40
0.000031
50
180.001559
51
108.964892
0
ARC
8
MCD_Layer_0
10
0.000000
20
0.000000
40
0.000000
50
180.000000
51
177.037616
0
ARC
8
MCD_Layer_0
10
-5.270874
20
-259.924013
40
259.977450
50
271.161714
51
88.838286
0
ARC
8
MCD_Layer_0
10
0.000031
20
0.000000
40
0.000031
50
180.000000
51
174.500310
0
ARC
8
MCD_Layer_0
10
0.000143
20
0.000012
40
0.000147
50
185.924491
51
139.610914
0
ARC
8
MCD_Layer_0
10
0.001322
20
0.000160
40
0.001332
50
186.915406
51
140.823174
0
ARC
8
MCD_Layer_0
10
0.003941
20
0.001311
40
0.004153
50
198.399520
51
108.194551
0
ARC
8
MCD_Layer_0
10
0.004534
20
0.003914
40
0.005990
50
220.798349
51
56.029749
0
ARC
8
MCD_Layer_0
10
0.000016
20
0.000402
40
0.000402
50
267.785708
51
312.970064
0
ARC
8
MCD_Layer_0
10
0.000000
20
0.000000
40
0.000004
50
46.010170
51
5.499691
0
ARC
8
MCD_Layer_0
10
0.000000
20
0.000000
40
0.000000
50
1.161714
51
360.000000
0
ARC
8
MCD_Layer_0
10
0.000000
20
0.000000
40
0.000000
50
176.238703
51
360.000000
0
ARC
8
MCD_Layer_0
10
0.000031
20
0.000000
40
0.000031
50
179.666378
51
176.342999
0
ARC
8
MCD_Layer_0
10
0.000227
20
0.000009
40
0.000227
50
182.385404
51
149.622536
0
ARC
8
MCD_Layer_0
10
0.001072
20
0.000064
40
0.001074
50
183.433064
51
125.159874
0
ARC
8
MCD_Layer_0
10
0.002816
20
0.000892
40
0.002954
50
197.587483
51
103.148125
0
ARC
8
MCD_Layer_0
10
0.000011
20
0.000850
40
0.000850
50
269.281928
51
301.389501
0
ARC
8
MCD_Layer_0
10
0.000000
20
0.000000
40
0.000000
50
180.000000
51
3.657001
0
ARC
8
MCD_Layer_0
10
0.000000
20
0.000000
40
0.000000
50
180.000000
51
3.761297
0
ARC
8
MCD_Layer_0
10
0.000000
20
0.000000
40
0.000000
50
180.000000
51
162.914071
0
ARC
8
MCD_Layer_0
10
0.001953
20
0.001584
40
0.002515
50
219.040003
51
58.112780
0
ARC
8
MCD_Layer_0
10
0.000020
20
0.000898
40
0.000898
50
268.698640
51
295.453237
0
ARC
8
MCD_Layer_0
10
0.000026
20
0.000000
40
0.000026
50
179.998456
51
66.037529
0
ARC
8
MCD_Layer_0
10
0.000000
20
0.000000
40
0.000026
50
2.442198
51
360.000000
0
ARC
8
MCD_Layer_0
10
0.000000
20
0.000000
40
0.000000
50
0.454154
51
360.000000
0
ARC
8
MCD_Layer_0
10
0.000011
20
0.000000
40
0.000011
50
180.000009
51
179.274839
0
ARC
8
MCD_Layer_0
10
0.000011
20
0.000000
40
0.000011
50
180.003684
51
92.617416
0
ARC
8
MCD_Layer_0
10
0.000020
20
0.000000
40
0.000020
50
180.008215
51
122.116719
0
ARC
8
MCD_Layer_0
10
0.000000
20
0.000000
40
0.000000
50
180.000000
51
17.085929
0
ARC
8
MCD_Layer_0
10
0.000019
20
0.000028
40
0.000034
50
235.921766
51
21.330942
0
ARC
8
MCD_Layer_0
10
0.000056
20
0.000000
40
0.000056
50
180.221695
51
108.505098
0
ARC
8
MCD_Layer_0
10
0.000428
20
0.000085
40
0.000436
50
191.297506
51
136.315464
0
ARC
8
MCD_Layer_0
10
0.001664
20
0.000553
40
0.001754
50
198.391558
51
117.457870
0
ARC
8
MCD_Layer_0
10
0.001969
20
0.001596
40
0.002534
50
219.024262
51
57.560029
0
ARC
8
MCD_Layer_0
10
0.001447
20
0.002323
40
0.002737
50
238.087720
51
26.623721
0
ARC
8
MCD_Layer_0
10
0.001947
20
0.001376
40
0.002384
50
215.250411
51
65.777909
0
ARC
8
MCD_Layer_0
10
0.001775
20
0.002076
40
0.002731
50
229.470822
51
39.132915
0
ARC
8
MCD_Layer_0
10
0.001945
20
0.001739
40
0.002612
50
221.815920
51
52.085151
0
ARC
8
MCD_Layer_0
10
0.001953
20
0.001584
40
0.002515
50
219.041776
51
58.114440
0
ARC
8
MCD_Layer_0
10
0.001969
20
0.001265
40
0.002340
50
212.720899
51
74.111874
0
ARC
8
MCD_Layer_0
10
0.000041
20
0.000025
40
0.000047
50
211.437504
51
63.767282
0
ARC
8
MCD_Layer_0
10
0.000031
20
0.000000
40
0.000031
50
180.000000
51
108.964892
0
ARC
8
MCD_Layer_0
10
0.001658
20
0.002226
40
0.002775
50
233.319908
51
33.391023
0
ARC
8
MCD_Layer_0
10
0.000000
20
0.000000
40
0.000000
50
0.229524
51
360.000000
0
ARC
8
MCD_Layer_0
10
0.000000
20
0.000000
40
0.000000
50
180.000000
51
179.532830
0
ARC
8
MCD_Layer_0
10
0.001988
20
0.001585
40
0.002542
50
218.578000
51
58.507059
0
ARC
8
MCD_Layer_0
10
0.001659
20
0.002226
40
0.002775
50
233.306383
51
33.403869
0
ARC
8
MCD_Layer_0
10
-0.000000
20
0.000000
40
0.000000
50
180.000000
51
0.000490
0
ARC
8
MCD_Layer_0
10
0.000000
20
0.000000
40
0.000000
50
180.000000
51
179.985147
0
ARC
8
MCD_Layer_0
10
0.001987
20
0.001585
40
0.002543
50
218.589506
51
58.493872
0
ARC
8
MCD_Layer_0
10
0.000003
20
0.000000
40
0.000003
50
180.218016
51
177.272576
0
ARC
8
MCD_Layer_0
10
0.001805
20
0.000111
40
0.001808
50
183.525984
51
153.223159
0
ARC
8
MCD_Layer_0
10
0.002500
20
0.000585
40
0.002568
50
193.177497
51
119.132744
0
ARC
8
MCD_Layer_0
10
0.000141
20
0.000455
40
0.000476
50
252.816600
51
353.205439
0
ARC
8
MCD_Layer_0
10
0.000001
20
0.000000
40
0.000001
50
180.000000
51
7.194896
0
ARC
8
MCD_Layer_0
10
0.001953
20
0.001584
40
0.002515
50
219.051361
51
58.109703
0
ARC
8
MCD_Layer_0
10
0.001641
20
0.002188
40
0.002734
50
233.131755
51
34.050922
0
ARC
8
MCD_Layer_0
10
0.000000
20
0.000000
40
0.000000
50
177.537676
51
360.000000
0
ARC
8
MCD_Layer_0
10
0.001969
20
0.001555
40
0.002509
50
218.312776
51
58.874644
0
ARC
8
MCD_Layer_0
10
0.001633
20
0.002209
40
0.002747
50
233.531203
51
32.955770
0
ARC
8
MCD_Layer_0
10
0.001969
20
0.001555
40
0.002509
50
218.310292
51
58.877438
0
ARC
8
MCD_Layer_0
10
0.001633
20
0.002209
40
0.002747
50
233.526569
51
32.959424
0
ARC
8
MCD_Layer_0
10
0.001953
20
0.001584
40
0.002514
50
219.035899
51
58.116733
0
ARC
8
MCD_Layer_0
10
0.000000
20
0.000000
40
0.000054
50
9.553543
51
360.000000
0
ARC
8
MCD_Layer_0
10
0.000001
20
0.000000
40
0.000001
50
179.991371
51
177.623332
0
ARC
8
MCD_Layer_0
10
0.000031
20
0.000000
40
0.000031
50
180.000494
51
152.140004
0
ARC
8
MCD_Layer_0
10
0.000066
20
0.000014
40
0.000067
50
191.858336
51
93.741150
0
ARC
8
MCD_Layer_0
10
0.000339
20
0.000019
40
0.000339
50
183.279866
51
127.570207
0
ARC
8
MCD_Layer_0
10
0.001969
20
0.000531
40
0.002039
50
195.101109
51
129.294102
0
ARC
8
MCD_Layer_0
10
0.001951
20
0.001583
40
0.002516
50
219.119610
51
58.078722
0
ARC
8
MCD_Layer_0
10
0.001641
20
0.002188
40
0.002734
50
233.131755
51
34.050922
0
ARC
8
MCD_Layer_0
10
0.001953
20
0.001584
40
0.002514
50
219.035912
51
58.116722
0
ARC
8
MCD_Layer_0
10
0.001641
20
0.002188
40
0.002734
50
233.119844
51
34.062353
0
ARC
8
MCD_Layer_0
10
0.000000
20
0.000000
40
0.000001
50
180.000000
51
170.773460
0
ARC
8
MCD_Layer_0
10
0.000000
20
0.000000
40
0.000000
50
180.000000
51
10.887133
0
ARC
8
MCD_Layer_0
10
0.000000
20
0.000000
40
0.000001
50
180.000000
51
162.914071
0
ARC
8
MCD_Layer_0
10
0.001953
20
0.001584
40
0.002514
50
219.035899
51
58.116733
0
ARC
8
MCD_Layer_0
10
0.001641
20
0.002188
40
0.002734
50
233.132070
51
34.050620
0
ARC
8
MCD_Layer_0
10
0.001953
20
0.001373
40
0.002388
50
215.113229
51
66.472341
0
ARC
8
MCD_Layer_0
10
0.001803
20
0.002057
40
0.002735
50
228.763924
51
39.750602
0
ARC
8
MCD_Layer_0
10
0.000000
20
0.000000
40
0.000000
50
180.000000
51
17.085929
0
CIRCLE
8
MCD_Layer_0
10
0.000000
20
0.007812
40
0.007812
0
CIRCLE
8
MCD_Layer_0
10
0.000006
20
0.000000
40
0.000006
0
CIRCLE
8
MCD_Layer_0
10
0.000000
20
0.007813
40
0.007813
0
CIRCLE
8
MCD_Layer_0
10
0.000000
20
0.000011
40
0.000011
0
CIRCLE
8
MCD_Layer_0
10
0.000000
20
0.007813
40
0.007813
0
CIRCLE
8
MCD_Layer_0
10
0.000000
20
8192.001976
40
8192.001976
0
ENDSEC
0
EOF
