0
SECTION
2
ENTITIES
0
LINE
8
MCD_Layer_0
10
0.000000
20
0.000000
30
0.0
11
0.000031
21
0.000000
31
0.0
0
LINE
8
MCD_Layer_0
10
-0.999847
20
0.000000
30
0.0
11
0.000000
21
0.000092
31
0.0
0
LINE
8
MCD_Layer_0
10
0.183624
20
0.509766
30
0.0
11
0.833984
21
0.474518
31
0.0
0
LINE
8
MCD_Layer_0
10
0.183624
20
-0.490234
30
0.0
11
0.833984
21
0.474518
31
0.0
0
LINE
8
MCD_Layer_0
10
0.183624
20
0.509766
30
0.0
11
0.000000
21
0.500000
31
0.0
0
LINE
8
MCD_Layer_0
10
0.183624
20
-0.490234
30
0.0
11
0.000000
21
0.500000
31
0.0
0
LINE
8
MCD_Layer_0
10
0.183624
20
-0.490234
30
0.0
11
0.730957
21
0.480804
31
0.0
0
LINE
8
MCD_Layer_0
10
0.667847
20
-0.490204
30
0.0
11
0.045166
21
0.485901
31
0.0
0
LINE
8
MCD_Layer_0
10
0.183624
20
-0.490234
30
0.0
11
0.573029
21
0.499756
31
0.0
0
LINE
8
MCD_Layer_0
10
-0.466766
20
-0.490204
30
0.0
11
0.835571
21
0.498962
31
0.0
0
LINE
8
MCD_Layer_0
10
0.183624
20
0.509766
30
0.0
11
0.730957
21
0.480804
31
0.0
0
LINE
8
MCD_Layer_0
10
0.667847
20
0.509796
30
0.0
11
0.045166
21
0.485901
31
0.0
0
LINE
8
MCD_Layer_0
10
0.183624
20
0.509766
30
0.0
11
0.573029
21
0.499756
31
0.0
0
LINE
8
MCD_Layer_0
10
-0.466766
20
0.509796
30
0.0
11
0.835571
21
0.498962
31
0.0
0
LINE
8
MCD_Layer_0
10
0.000000
20
-0.508789
30
0.0
11
0.630402
21
0.495941
31
0.0
0
LINE
8
MCD_Layer_0
10
0.000000
20
-0.508789
30
0.0
11
0.639984
21
0.496094
31
0.0
0
LINE
8
MCD_Layer_0
10
0.000000
20
-0.513672
30
0.0
11
0.639984
21
0.496094
31
0.0
0
LINE
8
MCD_Layer_0
10
0.000000
20
-0.513672
30
0.0
11
0.630402
21
0.495941
31
0.0
0
LINE
8
MCD_Layer_0
10
0.598419
20
-0.513031
30
0.0
11
0.630402
21
0.495941
31
0.0
0
LINE
8
MCD_Layer_0
10
0.400024
20
-0.512115
30
0.0
11
-0.409607
21
0.495575
31
0.0
0
LINE
8
MCD_Layer_0
10
0.774414
20
0.476013
30
0.0
11
0.937592
21
0.486664
31
0.0
0
LINE
8
MCD_Layer_0
10
-0.998474
20
0.488983
30
0.0
11
-0.470367
21
0.495667
31
0.0
0
LINE
8
MCD_Layer_0
10
-0.803223
20
0.488586
30
0.0
11
0.476807
21
0.495941
31
0.0
0
LINE
8
MCD_Layer_0
10
-0.204834
20
0.488251
30
0.0
11
0.476807
21
0.495941
31
0.0
0
LINE
8
MCD_Layer_0
10
-0.204834
20
0.488251
30
0.0
11
0.588806
21
0.496094
31
0.0
0
LINE
8
MCD_Layer_0
10
0.000000
20
0.491211
30
0.0
11
0.639984
21
0.496094
31
0.0
0
LINE
8
MCD_Layer_0
10
0.000000
20
0.491211
30
0.0
11
0.630402
21
0.495941
31
0.0
0
LINE
8
MCD_Layer_0
10
0.700745
20
0.489899
30
0.0
11
0.630402
21
0.495453
31
0.0
0
LINE
8
MCD_Layer_0
10
0.000000
20
0.000000
30
0.0
11
-0.873627
21
-0.522461
31
0.0
0
LINE
8
MCD_Layer_0
10
0.598419
20
-0.510101
30
0.0
11
-0.719971
21
0.495605
31
0.0
0
LINE
8
MCD_Layer_0
10
-0.051208
20
-0.509308
30
0.0
11
0.630402
21
0.495941
31
0.0
0
LINE
8
MCD_Layer_0
10
0.143921
20
0.489349
30
0.0
11
0.377563
21
0.496155
31
0.0
0
LINE
8
MCD_Layer_0
10
0.143921
20
0.489349
30
0.0
11
0.089600
21
0.495728
31
0.0
0
LINE
8
MCD_Layer_0
10
-0.598389
20
-0.516296
30
0.0
11
0.000000
21
0.000000
31
0.0
0
LINE
8
MCD_Layer_0
10
-0.598389
20
-0.516296
30
0.0
11
0.802734
21
0.479156
31
0.0
0
LINE
8
MCD_Layer_0
10
-0.204834
20
-0.517609
30
0.0
11
0.802734
21
0.479156
31
0.0
0
LINE
8
MCD_Layer_0
10
0.802734
20
-0.520844
30
0.0
11
-0.518555
21
0.482452
31
0.0
0
LINE
8
MCD_Layer_0
10
0.802734
20
-0.520844
30
0.0
11
0.652710
21
0.494751
31
0.0
0
LINE
8
MCD_Layer_0
10
-0.204834
20
-0.517609
30
0.0
11
0.463989
21
0.495087
31
0.0
0
LINE
8
MCD_Layer_0
10
-0.598389
20
-0.516296
30
0.0
11
0.463989
21
0.495087
31
0.0
0
LINE
8
MCD_Layer_0
10
-0.598389
20
-0.516296
30
0.0
11
-0.870422
21
0.495575
31
0.0
0
LINE
8
MCD_Layer_0
10
0.785156
20
0.470032
30
0.0
11
0.230408
21
0.496338
31
0.0
0
LINE
8
MCD_Layer_0
10
0.802734
20
0.479156
30
0.0
11
0.230408
21
0.496338
31
0.0
0
LINE
8
MCD_Layer_0
10
0.802734
20
0.479156
30
0.0
11
-0.518555
21
0.482452
31
0.0
0
LINE
8
MCD_Layer_0
10
0.205078
20
0.482422
30
0.0
11
0.802734
21
0.479156
31
0.0
0
LINE
8
MCD_Layer_0
10
-0.598633
20
0.483704
30
0.0
11
0.802734
21
0.479156
31
0.0
0
LINE
8
MCD_Layer_0
10
-0.598633
20
0.483704
30
0.0
11
0.000000
21
0.000000
31
0.0
0
LINE
8
MCD_Layer_0
10
0.601562
20
-0.510620
30
0.0
11
-0.512695
21
-0.526398
31
0.0
0
LINE
8
MCD_Layer_0
10
0.601562
20
-0.510620
30
0.0
11
0.905273
21
0.478180
31
0.0
0
LINE
8
MCD_Layer_0
10
-0.000977
20
0.480438
30
0.0
11
-0.562500
21
-0.548309
31
0.0
0
LINE
8
MCD_Layer_0
10
-0.000977
20
0.480438
30
0.0
11
0.722656
21
0.480408
31
0.0
0
LINE
8
MCD_Layer_0
10
0.803223
20
0.483063
30
0.0
11
0.722656
21
0.480408
31
0.0
0
LINE
8
MCD_Layer_0
10
0.598389
20
0.485016
30
0.0
11
-0.834961
21
0.483032
31
0.0
0
LINE
8
MCD_Layer_0
10
0.598389
20
0.485016
30
0.0
11
0.582520
21
0.487610
31
0.0
0
LINE
8
MCD_Layer_0
10
0.700806
20
-0.509125
30
0.0
11
0.582520
21
0.487610
31
0.0
0
LINE
8
MCD_Layer_0
10
0.000000
20
0.488281
30
0.0
11
0.572754
21
0.496246
31
0.0
0
LINE
8
MCD_Layer_0
10
0.000000
20
0.488281
30
0.0
11
0.291382
21
0.488922
31
0.0
0
LINE
8
MCD_Layer_0
10
-0.000122
20
0.489227
30
0.0
11
0.291382
21
0.488922
31
0.0
0
LINE
8
MCD_Layer_0
10
0.700684
20
0.489899
30
0.0
11
0.889526
21
0.489563
31
0.0
0
LINE
8
MCD_Layer_0
10
0.700684
20
0.489899
30
0.0
11
0.291138
21
0.489899
31
0.0
0
LINE
8
MCD_Layer_0
10
0.700806
20
0.490875
30
0.0
11
0.291138
21
0.489899
31
0.0
0
LINE
8
MCD_Layer_0
10
0.700806
20
0.490875
30
0.0
11
0.582520
21
0.485657
31
0.0
0
LINE
8
MCD_Layer_0
10
0.700684
20
0.489899
30
0.0
11
0.582520
21
0.485657
31
0.0
0
LINE
8
MCD_Layer_0
10
0.700684
20
0.489899
30
0.0
11
-0.819092
21
0.486298
31
0.0
0
LINE
8
MCD_Layer_0
10
-0.000122
20
0.489227
30
0.0
11
0.582520
21
0.487610
31
0.0
0
LINE
8
MCD_Layer_0
10
0.000000
20
0.488281
30
0.0
11
0.582520
21
0.487610
31
0.0
0
LINE
8
MCD_Layer_0
10
0.000000
20
0.488281
30
0.0
11
-0.834961
21
0.483032
31
0.0
0
LINE
8
MCD_Layer_0
10
0.700928
20
0.488922
30
0.0
11
0.722656
21
0.480408
31
0.0
0
LINE
8
MCD_Layer_0
10
-0.700806
20
0.489563
30
0.0
11
0.722656
21
0.480408
31
0.0
0
LINE
8
MCD_Layer_0
10
-0.700806
20
0.489563
30
0.0
11
-0.562500
21
-0.548309
31
0.0
0
LINE
8
MCD_Layer_0
10
0.598389
20
0.485016
30
0.0
11
0.291382
21
0.488922
31
0.0
0
LINE
8
MCD_Layer_0
10
0.598389
20
0.485016
30
0.0
11
-0.854309
21
0.494446
31
0.0
0
LINE
8
MCD_Layer_0
10
-0.700745
20
-0.511414
30
0.0
11
0.291382
21
0.488922
31
0.0
0
LINE
8
MCD_Layer_0
10
0.956787
20
-0.509613
30
0.0
11
0.000000
21
0.000000
31
0.0
0
LINE
8
MCD_Layer_0
10
0.956787
20
-0.509613
30
0.0
11
0.063995
21
0.477905
31
0.0
0
LINE
8
MCD_Layer_0
10
-0.291199
20
-0.510437
30
0.0
11
0.063995
21
0.477905
31
0.0
0
LINE
8
MCD_Layer_0
10
0.204803
20
-0.510742
30
0.0
11
0.048004
21
0.480499
31
0.0
0
LINE
8
MCD_Layer_0
10
0.204803
20
-0.510742
30
0.0
11
0.256012
21
0.495605
31
0.0
0
LINE
8
MCD_Layer_0
10
-0.291199
20
-0.510437
30
0.0
11
0.496033
21
0.495758
31
0.0
0
LINE
8
MCD_Layer_0
10
0.956787
20
-0.509613
30
0.0
11
0.496033
21
0.495758
31
0.0
0
LINE
8
MCD_Layer_0
10
0.956787
20
-0.509613
30
0.0
11
0.000000
21
0.496094
31
0.0
0
LINE
8
MCD_Layer_0
10
0.572784
20
0.457916
30
0.0
11
0.000000
21
0.496094
31
0.0
0
LINE
8
MCD_Layer_0
10
0.412750
20
0.468231
30
0.0
11
0.000000
21
0.000000
31
0.0
0
LINE
8
MCD_Layer_0
10
0.617584
20
-0.522003
30
0.0
11
0.256012
21
0.495605
31
0.0
0
LINE
8
MCD_Layer_0
10
0.889587
20
-0.513367
30
0.0
11
0.256012
21
0.495605
31
0.0
0
LINE
8
MCD_Layer_0
10
0.889587
20
-0.513367
30
0.0
11
-0.172791
21
0.485016
31
0.0
0
LINE
8
MCD_Layer_0
10
0.063477
20
0.470093
30
0.0
11
-0.016022
21
-0.520874
31
0.0
0
LINE
8
MCD_Layer_0
10
-0.496002
20
-0.510437
30
0.0
11
0.671997
21
0.495544
31
0.0
0
LINE
8
MCD_Layer_0
10
0.463989
20
-0.509796
30
0.0
11
0.496033
21
0.495758
31
0.0
0
LINE
8
MCD_Layer_0
10
0.880005
20
-0.508881
30
0.0
11
0.496033
21
0.495758
31
0.0
0
LINE
8
MCD_Layer_0
10
0.880005
20
-0.508881
30
0.0
11
0.000000
21
0.496094
31
0.0
0
LINE
8
MCD_Layer_0
10
-0.047974
20
-0.515686
30
0.0
11
0.000000
21
0.496094
31
0.0
0
LINE
8
MCD_Layer_0
10
-0.047974
20
-0.515686
30
0.0
11
0.496033
21
0.495758
31
0.0
0
LINE
8
MCD_Layer_0
10
0.143982
20
-0.513580
30
0.0
11
0.496033
21
0.495758
31
0.0
0
LINE
8
MCD_Layer_0
10
-0.944000
20
-0.513000
30
0.0
11
0.671997
21
0.495544
31
0.0
0
LINE
8
MCD_Layer_0
10
-0.031982
20
0.477814
30
0.0
11
0.176025
21
0.487091
31
0.0
0
LINE
8
MCD_Layer_0
10
-0.480042
20
0.488922
30
0.0
11
0.671997
21
0.495544
31
0.0
0
LINE
8
MCD_Layer_0
10
0.063965
20
0.488647
30
0.0
11
0.496033
21
0.495758
31
0.0
0
LINE
8
MCD_Layer_0
10
-0.511963
20
0.487274
30
0.0
11
0.496033
21
0.495758
31
0.0
0
LINE
8
MCD_Layer_0
10
-0.511963
20
0.487274
30
0.0
11
0.000000
21
0.496094
31
0.0
0
LINE
8
MCD_Layer_0
10
0.880005
20
0.491119
30
0.0
11
0.000000
21
0.496094
31
0.0
0
LINE
8
MCD_Layer_0
10
0.880005
20
0.491119
30
0.0
11
0.496033
21
0.495758
31
0.0
0
LINE
8
MCD_Layer_0
10
0.943970
20
0.490509
30
0.0
11
0.496033
21
0.495758
31
0.0
0
LINE
8
MCD_Layer_0
10
-0.016052
20
0.489868
30
0.0
11
0.160004
21
0.495544
31
0.0
0
LINE
8
MCD_Layer_0
10
-0.496002
20
-0.510437
30
0.0
11
0.787201
21
-0.529968
31
0.0
0
LINE
8
MCD_Layer_0
10
-0.496002
20
-0.510437
30
0.0
11
-0.665588
21
0.488739
31
0.0
0
LINE
8
MCD_Layer_0
10
-0.188812
20
-0.511414
30
0.0
11
-0.665588
21
0.488739
31
0.0
0
LINE
8
MCD_Layer_0
10
-0.291229
20
0.484680
30
0.0
11
-0.211212
21
0.488312
31
0.0
0
LINE
8
MCD_Layer_0
10
-0.291229
20
0.484680
30
0.0
11
-0.444763
21
0.495422
31
0.0
0
LINE
8
MCD_Layer_0
10
-0.598389
20
0.483704
30
0.0
11
-0.204773
21
0.495575
31
0.0
0
LINE
8
MCD_Layer_0
10
0.707153
20
0.479095
30
0.0
11
-0.204773
21
0.495575
31
0.0
0
LINE
8
MCD_Layer_0
10
0.707153
20
0.479095
30
0.0
11
-0.204803
21
0.496063
31
0.0
0
LINE
8
MCD_Layer_0
10
-0.393585
20
0.489563
30
0.0
11
-0.204803
21
0.496063
31
0.0
0
LINE
8
MCD_Layer_0
10
-0.393585
20
0.489563
30
0.0
11
-0.204773
21
0.495575
31
0.0
0
LINE
8
MCD_Layer_0
10
-0.905579
20
0.488586
30
0.0
11
-0.204773
21
0.495575
31
0.0
0
LINE
8
MCD_Layer_0
10
-0.819183
20
0.488251
30
0.0
11
-0.444763
21
0.495422
31
0.0
0
LINE
8
MCD_Layer_0
10
-0.819183
20
0.488251
30
0.0
11
-0.169586
21
0.488403
31
0.0
0
LINE
8
MCD_Layer_0
10
-0.188812
20
-0.511414
30
0.0
11
0.787201
21
-0.529968
31
0.0
0
LINE
8
MCD_Layer_0
10
-0.063995
20
-0.509186
30
0.0
11
0.563202
21
0.495605
31
0.0
0
LINE
8
MCD_Layer_0
10
-0.063995
20
-0.509186
30
0.0
11
0.281616
21
0.496094
31
0.0
0
LINE
8
MCD_Layer_0
10
0.335999
20
-0.515411
30
0.0
11
0.281616
21
0.496094
31
0.0
0
LINE
8
MCD_Layer_0
10
0.335999
20
-0.515411
30
0.0
11
0.563202
21
0.495605
31
0.0
0
LINE
8
MCD_Layer_0
10
-0.640015
20
-0.513458
30
0.0
11
0.563202
21
0.495605
31
0.0
0
LINE
8
MCD_Layer_0
10
0.368011
20
-0.512787
30
0.0
11
0.323212
21
0.495453
31
0.0
0
LINE
8
MCD_Layer_0
10
0.368011
20
-0.512787
30
0.0
11
0.134369
21
0.488953
31
0.0
0
LINE
8
MCD_Layer_0
10
-0.544006
20
0.488556
30
0.0
11
-0.633636
21
0.488434
31
0.0
0
LINE
8
MCD_Layer_0
10
-0.544006
20
0.488556
30
0.0
11
0.323212
21
0.495453
31
0.0
0
LINE
8
MCD_Layer_0
10
-0.095978
20
0.488190
30
0.0
11
0.563202
21
0.495605
31
0.0
0
LINE
8
MCD_Layer_0
10
0.880005
20
0.486237
30
0.0
11
0.563202
21
0.495605
31
0.0
0
LINE
8
MCD_Layer_0
10
0.880005
20
0.486237
30
0.0
11
0.281616
21
0.496094
31
0.0
0
LINE
8
MCD_Layer_0
10
-0.063995
20
0.490814
30
0.0
11
0.281616
21
0.496094
31
0.0
0
LINE
8
MCD_Layer_0
10
-0.063995
20
0.490814
30
0.0
11
0.563202
21
0.495605
31
0.0
0
LINE
8
MCD_Layer_0
10
0.448029
20
0.489868
30
0.0
11
0.563202
21
0.495605
31
0.0
0
LINE
8
MCD_Layer_0
10
0.944000
20
0.489532
30
0.0
11
0.323212
21
0.495453
31
0.0
0
LINE
8
MCD_Layer_0
10
-0.851196
20
0.489532
30
0.0
11
0.928009
21
0.488220
31
0.0
0
LINE
8
MCD_Layer_0
10
-0.079987
20
-0.510498
30
0.0
11
0.630402
21
0.488617
31
0.0
0
LINE
8
MCD_Layer_0
10
-0.079987
20
-0.510498
30
0.0
11
0.323212
21
0.495453
31
0.0
0
LINE
8
MCD_Layer_0
10
-0.575989
20
-0.510162
30
0.0
11
0.563202
21
0.495605
31
0.0
0
LINE
8
MCD_Layer_0
10
0.496002
20
-0.509125
30
0.0
11
0.000000
21
0.000000
31
0.0
0
LINE
8
MCD_Layer_0
10
0.496002
20
-0.509125
30
0.0
11
0.000000
21
0.480469
31
0.0
0
LINE
8
MCD_Layer_0
10
-0.015991
20
-0.510132
30
0.0
11
0.000000
21
0.480469
31
0.0
0
LINE
8
MCD_Layer_0
10
-0.496002
20
-0.510437
30
0.0
11
0.015991
21
0.481781
31
0.0
0
LINE
8
MCD_Layer_0
10
-0.496002
20
-0.510437
30
0.0
11
-0.239960
21
0.495422
31
0.0
0
LINE
8
MCD_Layer_0
10
-0.015991
20
-0.510132
30
0.0
11
0.000031
21
0.495605
31
0.0
0
LINE
8
MCD_Layer_0
10
0.496002
20
-0.509125
30
0.0
11
0.000031
21
0.495605
31
0.0
0
LINE
8
MCD_Layer_0
10
0.496002
20
-0.509125
30
0.0
11
0.000000
21
0.496094
31
0.0
0
LINE
8
MCD_Layer_0
10
0.992004
20
-0.511414
30
0.0
11
0.000000
21
0.496094
31
0.0
0
LINE
8
MCD_Layer_0
10
0.015991
20
0.488617
30
0.0
11
0.239990
21
0.488434
31
0.0
0
LINE
8
MCD_Layer_0
10
0.015991
20
0.488617
30
0.0
11
-0.239960
21
0.495422
31
0.0
0
LINE
8
MCD_Layer_0
10
0.511993
20
0.488281
30
0.0
11
0.000031
21
0.495605
31
0.0
0
LINE
8
MCD_Layer_0
10
0.000000
20
0.486328
30
0.0
11
0.000031
21
0.495605
31
0.0
0
LINE
8
MCD_Layer_0
10
0.000000
20
0.486328
30
0.0
11
0.000000
21
0.496094
31
0.0
0
LINE
8
MCD_Layer_0
10
0.496002
20
0.490875
30
0.0
11
0.000000
21
0.496094
31
0.0
0
LINE
8
MCD_Layer_0
10
0.496002
20
0.490875
30
0.0
11
0.000031
21
0.495605
31
0.0
0
LINE
8
MCD_Layer_0
10
-0.991974
20
0.489899
30
0.0
11
0.000031
21
0.495605
31
0.0
0
LINE
8
MCD_Layer_0
10
-0.496002
20
0.489563
30
0.0
11
-0.239960
21
0.495422
31
0.0
0
LINE
8
MCD_Layer_0
10
-0.496002
20
0.489563
30
0.0
11
-0.895996
21
-0.522736
31
0.0
0
LINE
8
MCD_Layer_0
10
0.992004
20
-0.511414
30
0.0
11
-0.815979
21
0.494568
31
0.0
0
LINE
8
MCD_Layer_0
10
0.992004
20
-0.511414
30
0.0
11
0.015991
21
0.481781
31
0.0
0
LINE
8
MCD_Layer_0
10
0.976013
20
-0.511749
30
0.0
11
0.000000
21
0.480469
31
0.0
0
LINE
8
MCD_Layer_0
10
0.000000
20
-0.513672
30
0.0
11
0.000000
21
0.480469
31
0.0
0
LINE
8
MCD_Layer_0
10
0.000000
20
-0.513672
30
0.0
11
0.000000
21
0.000000
31
0.0
0
LINE
8
MCD_Layer_0
10
0.064026
20
-0.510376
30
0.0
11
0.000000
21
0.000000
31
0.0
0
LINE
8
MCD_Layer_0
10
0.064026
20
-0.510376
30
0.0
11
0.000000
21
0.480469
31
0.0
0
LINE
8
MCD_Layer_0
10
-0.447998
20
-0.511383
30
0.0
11
0.000000
21
0.480469
31
0.0
0
LINE
8
MCD_Layer_0
10
-0.928009
20
-0.511688
30
0.0
11
0.015991
21
0.481781
31
0.0
0
LINE
8
MCD_Layer_0
10
-0.928009
20
-0.511688
30
0.0
11
-0.239960
21
0.495422
31
0.0
0
LINE
8
MCD_Layer_0
10
-0.447998
20
-0.511383
30
0.0
11
0.000031
21
0.495605
31
0.0
0
LINE
8
MCD_Layer_0
10
0.064026
20
-0.510376
30
0.0
11
0.000031
21
0.495605
31
0.0
0
LINE
8
MCD_Layer_0
10
0.064026
20
-0.510376
30
0.0
11
0.000000
21
0.496094
31
0.0
0
LINE
8
MCD_Layer_0
10
-0.623993
20
0.487854
30
0.0
11
0.000000
21
0.496094
31
0.0
0
LINE
8
MCD_Layer_0
10
-0.623993
20
0.487854
30
0.0
11
0.256012
21
0.494629
31
0.0
0
LINE
8
MCD_Layer_0
10
0.592010
20
0.486053
30
0.0
11
0.256012
21
0.494629
31
0.0
0
LINE
8
MCD_Layer_0
10
0.592010
20
0.486053
30
0.0
11
0.751984
21
0.495270
31
0.0
0
LINE
8
MCD_Layer_0
10
0.623993
20
0.484772
30
0.0
11
0.256012
21
0.495605
31
0.0
0
LINE
8
MCD_Layer_0
10
0.623993
20
-0.515228
30
0.0
11
0.256012
21
0.495605
31
0.0
0
LINE
8
MCD_Layer_0
10
0.623993
20
-0.515228
30
0.0
11
0.256012
21
0.492676
31
0.0
0
LINE
8
MCD_Layer_0
10
-0.627228
20
0.480560
30
0.0
11
0.256012
21
0.492676
31
0.0
0
LINE
8
MCD_Layer_0
10
-0.611206
20
0.481873
30
0.0
11
0.496002
21
0.492828
31
0.0
0
LINE
8
MCD_Layer_0
10
-0.611206
20
0.481873
30
0.0
11
-0.880005
21
0.493225
31
0.0
0
LINE
8
MCD_Layer_0
10
-0.895996
20
0.485077
30
0.0
11
-0.880005
21
0.493225
31
0.0
0
LINE
8
MCD_Layer_0
10
-0.895996
20
0.485077
30
0.0
11
0.012817
21
0.491089
31
0.0
0
LINE
8
MCD_Layer_0
10
-0.611206
20
0.481873
30
0.0
11
0.012817
21
0.491089
31
0.0
0
LINE
8
MCD_Layer_0
10
-0.611206
20
0.481873
30
0.0
11
-0.739197
21
0.491882
31
0.0
0
LINE
8
MCD_Layer_0
10
-0.627228
20
0.480560
30
0.0
11
0.870392
21
0.492188
31
0.0
0
LINE
8
MCD_Layer_0
10
0.623993
20
-0.515228
30
0.0
11
0.870392
21
0.492188
31
0.0
0
LINE
8
MCD_Layer_0
10
0.623993
20
-0.515228
30
0.0
11
0.463989
21
0.483368
31
0.0
0
LINE
8
MCD_Layer_0
10
-0.259216
20
0.488281
30
0.0
11
-0.115204
21
0.485443
31
0.0
0
LINE
8
MCD_Layer_0
10
-0.099182
20
0.488708
30
0.0
11
-0.227173
21
0.487976
31
0.0
0
LINE
8
MCD_Layer_0
10
0.064026
20
0.489624
30
0.0
11
0.272003
21
0.487152
31
0.0
0
LINE
8
MCD_Layer_0
10
-0.688019
20
0.488464
30
0.0
11
0.000000
21
0.000000
31
0.0
0
LINE
8
MCD_Layer_0
10
0.992188
20
-0.516296
30
0.0
11
0.000000
21
0.000000
31
0.0
0
LINE
8
MCD_Layer_0
10
0.992188
20
-0.516296
30
0.0
11
-0.016022
21
0.479126
31
0.0
0
LINE
8
MCD_Layer_0
10
0.976562
20
-0.517609
30
0.0
11
-0.016022
21
0.479126
31
0.0
0
LINE
8
MCD_Layer_0
10
-0.109375
20
-0.520935
30
0.0
11
-0.880005
21
0.482483
31
0.0
0
LINE
8
MCD_Layer_0
10
-0.109375
20
-0.520935
30
0.0
11
0.447998
21
0.494751
31
0.0
0
LINE
8
MCD_Layer_0
10
0.976562
20
-0.517609
30
0.0
11
0.463989
21
0.495087
31
0.0
0
LINE
8
MCD_Layer_0
10
0.992188
20
-0.516296
30
0.0
11
0.463989
21
0.495087
31
0.0
0
LINE
8
MCD_Layer_0
10
0.992188
20
-0.516296
30
0.0
11
-0.768005
21
0.495575
31
0.0
0
LINE
8
MCD_Layer_0
10
0.062500
20
0.470093
30
0.0
11
0.127991
21
0.496338
31
0.0
0
LINE
8
MCD_Layer_0
10
0.078125
20
0.479218
30
0.0
11
0.127991
21
0.496338
31
0.0
0
LINE
8
MCD_Layer_0
10
0.078125
20
0.479218
30
0.0
11
-0.880005
21
0.482483
31
0.0
0
LINE
8
MCD_Layer_0
10
0.976562
20
0.482391
30
0.0
11
-0.016022
21
0.479126
31
0.0
0
LINE
8
MCD_Layer_0
10
0.992188
20
0.483704
30
0.0
11
-0.016022
21
0.479126
31
0.0
0
LINE
8
MCD_Layer_0
10
0.992188
20
0.483704
30
0.0
11
0.000000
21
0.000000
31
0.0
0
LINE
8
MCD_Layer_0
10
-0.489563
20
-0.510498
30
0.0
11
-0.511871
21
-0.523346
31
0.0
0
LINE
8
MCD_Layer_0
10
-0.489563
20
-0.510498
30
0.0
11
0.799866
21
0.476624
31
0.0
0
LINE
8
MCD_Layer_0
10
-0.444763
20
0.486145
30
0.0
11
-0.967224
21
0.493744
31
0.0
0
LINE
8
MCD_Layer_0
10
0.579224
20
0.486176
30
0.0
11
0.584808
21
0.494110
31
0.0
0
LINE
8
MCD_Layer_0
10
-0.358398
20
-0.512238
30
0.0
11
0.584808
21
0.494110
31
0.0
0
LINE
8
MCD_Layer_0
10
-0.358398
20
-0.512238
30
0.0
11
-0.791199
21
0.493530
31
0.0
0
LINE
8
MCD_Layer_0
10
0.131226
20
-0.510529
30
0.0
11
0.009613
21
0.482819
31
0.0
0
LINE
8
MCD_Layer_0
10
0.291168
20
-0.511078
30
0.0
11
-0.595184
21
0.485138
31
0.0
0
LINE
8
MCD_Layer_0
10
0.713593
20
-0.521942
30
0.0
11
-0.233582
21
0.491943
31
0.0
0
LINE
8
MCD_Layer_0
10
0.713593
20
-0.521942
30
0.0
11
0.758392
21
0.491302
31
0.0
0
LINE
8
MCD_Layer_0
10
-0.595215
20
-0.516815
30
0.0
11
0.758392
21
0.491302
31
0.0
0
LINE
8
MCD_Layer_0
10
-0.595215
20
-0.516815
30
0.0
11
-0.812775
21
0.493561
31
0.0
0
LINE
8
MCD_Layer_0
10
0.713593
20
-0.521942
30
0.0
11
-0.812775
21
0.493561
31
0.0
0
LINE
8
MCD_Layer_0
10
0.713593
20
-0.521942
30
0.0
11
-0.828796
21
0.493225
31
0.0
0
LINE
8
MCD_Layer_0
10
0.678406
20
-0.514282
30
0.0
11
0.707214
21
0.494232
31
0.0
0
LINE
8
MCD_Layer_0
10
-0.297577
20
-0.512329
30
0.0
11
0.707214
21
0.494232
31
0.0
0
LINE
8
MCD_Layer_0
10
-0.297577
20
-0.512329
30
0.0
11
0.009583
21
0.496246
31
0.0
0
LINE
8
MCD_Layer_0
10
0.678406
20
-0.514282
30
0.0
11
0.009583
21
0.496246
31
0.0
0
LINE
8
MCD_Layer_0
10
0.255981
20
-0.510254
30
0.0
11
0.000000
21
0.000000
31
0.0
0
LINE
8
MCD_Layer_0
10
0.255981
20
-0.510254
30
0.0
11
0.063477
21
0.477905
31
0.0
0
LINE
8
MCD_Layer_0
10
0.656006
20
-0.510651
30
0.0
11
0.063477
21
0.477905
31
0.0
0
LINE
8
MCD_Layer_0
10
-0.303955
20
-0.511292
30
0.0
11
0.912109
21
0.481049
31
0.0
0
LINE
8
MCD_Layer_0
10
0.144531
20
-0.531158
30
0.0
11
-0.575989
21
0.496185
31
0.0
0
LINE
8
MCD_Layer_0
10
0.768066
20
0.488770
30
0.0
11
0.816406
21
0.480988
31
0.0
0
LINE
8
MCD_Layer_0
10
-0.272095
20
0.489380
30
0.0
11
0.063477
21
0.477905
31
0.0
0
LINE
8
MCD_Layer_0
10
0.255859
20
0.489746
30
0.0
11
0.063477
21
0.477905
31
0.0
0
LINE
8
MCD_Layer_0
10
0.255859
20
0.489746
30
0.0
11
0.000000
21
0.000000
31
0.0
0
LINE
8
MCD_Layer_0
10
0.943848
20
0.483673
30
0.0
11
0.000000
21
0.000000
31
0.0
0
LINE
8
MCD_Layer_0
10
0.943848
20
0.483673
30
0.0
11
0.063477
21
0.477905
31
0.0
0
LINE
8
MCD_Layer_0
10
-0.608154
20
0.485260
30
0.0
11
0.063477
21
0.477905
31
0.0
0
LINE
8
MCD_Layer_0
10
0.352051
20
0.485901
30
0.0
11
0.623535
21
0.480865
31
0.0
0
LINE
8
MCD_Layer_0
10
0.751953
20
0.483551
30
0.0
11
-0.495850
21
0.488586
31
0.0
0
LINE
8
MCD_Layer_0
10
-0.416016
20
-0.514618
30
0.0
11
-0.495850
21
0.488586
31
0.0
0
LINE
8
MCD_Layer_0
10
0.320068
20
-0.512817
30
0.0
11
0.527832
21
0.480804
31
0.0
0
LINE
8
MCD_Layer_0
10
-0.640015
20
-0.513458
30
0.0
11
0.063477
21
0.477905
31
0.0
0
LINE
8
MCD_Layer_0
10
-0.512085
20
-0.514679
30
0.0
11
0.063477
21
0.477905
31
0.0
0
LINE
8
MCD_Layer_0
10
-0.512085
20
-0.514679
30
0.0
11
0.000000
21
0.000000
31
0.0
0
LINE
8
MCD_Layer_0
10
0.719971
20
-0.515167
30
0.0
11
0.991943
21
0.489563
31
0.0
0
LINE
8
MCD_Layer_0
10
-0.976074
20
0.482422
30
0.0
11
0.991943
21
0.489563
31
0.0
0
LINE
8
MCD_Layer_0
10
0.367188
20
-0.524506
30
0.0
11
0.783997
21
0.493988
31
0.0
0
LINE
8
MCD_Layer_0
10
0.182434
20
-0.511017
30
0.0
11
0.000000
21
0.000000
31
0.0
0
LINE
8
MCD_Layer_0
10
0.182434
20
-0.511017
30
0.0
11
0.063477
21
0.477905
31
0.0
0
LINE
8
MCD_Layer_0
10
-0.825562
20
-0.511688
30
0.0
11
0.063477
21
0.477905
31
0.0
0
LINE
8
MCD_Layer_0
10
-0.659180
20
-0.512299
30
0.0
11
0.047852
21
0.480499
31
0.0
0
LINE
8
MCD_Layer_0
10
-0.659180
20
-0.512299
30
0.0
11
0.255981
21
0.495605
31
0.0
0
LINE
8
MCD_Layer_0
10
-0.825562
20
-0.511688
30
0.0
11
0.495972
21
0.495758
31
0.0
0
LINE
8
MCD_Layer_0
10
0.182434
20
-0.511017
30
0.0
11
0.495972
21
0.495758
31
0.0
0
LINE
8
MCD_Layer_0
10
0.182434
20
-0.511017
30
0.0
11
0.000000
21
0.496094
31
0.0
0
LINE
8
MCD_Layer_0
10
-0.937988
20
-0.519897
30
0.0
11
-0.051208
21
0.496063
31
0.0
0
LINE
8
MCD_Layer_0
10
0.367188
20
-0.524506
30
0.0
11
0.000000
21
0.000000
31
0.0
0
LINE
8
MCD_Layer_0
10
0.348877
20
-0.515533
30
0.0
11
0.047852
21
0.480499
31
0.0
0
LINE
8
MCD_Layer_0
10
0.690918
20
-0.522217
30
0.0
11
0.047852
21
0.480499
31
0.0
0
LINE
8
MCD_Layer_0
10
-0.541016
20
-0.521729
30
0.0
11
0.255981
21
0.495605
31
0.0
0
LINE
8
MCD_Layer_0
10
0.348877
20
-0.515533
30
0.0
11
0.255981
21
0.495605
31
0.0
0
LINE
8
MCD_Layer_0
10
0.511963
20
-0.510742
30
0.0
11
0.000000
21
0.000000
31
0.0
0
LINE
8
MCD_Layer_0
10
0.511963
20
-0.510742
30
0.0
11
0.063477
21
0.477905
31
0.0
0
LINE
8
MCD_Layer_0
10
-0.735962
20
-0.511566
30
0.0
11
0.063477
21
0.477905
31
0.0
0
LINE
8
MCD_Layer_0
10
-0.479980
20
-0.512054
30
0.0
11
0.047852
21
0.480499
31
0.0
0
LINE
8
MCD_Layer_0
10
-0.479980
20
-0.512054
30
0.0
11
0.255981
21
0.495605
31
0.0
0
LINE
8
MCD_Layer_0
10
-0.735962
20
-0.511566
30
0.0
11
0.495972
21
0.495758
31
0.0
0
LINE
8
MCD_Layer_0
10
0.511963
20
-0.510742
30
0.0
11
0.495972
21
0.495758
31
0.0
0
LINE
8
MCD_Layer_0
10
0.511963
20
-0.510742
30
0.0
11
0.000000
21
0.496094
31
0.0
0
LINE
8
MCD_Layer_0
10
0.063477
20
-0.522095
30
0.0
11
0.000000
21
0.496094
31
0.0
0
LINE
8
MCD_Layer_0
10
-0.704102
20
0.489105
30
0.0
11
-0.320312
21
0.473724
31
0.0
0
LINE
8
MCD_Layer_0
10
0.511963
20
0.489258
30
0.0
11
-0.785156
21
-0.533081
31
0.0
0
LINE
8
MCD_Layer_0
10
0.527954
20
-0.515289
30
0.0
11
-0.864136
21
0.491608
31
0.0
0
LINE
8
MCD_Layer_0
10
0.527954
20
-0.515289
30
0.0
11
0.047852
21
0.480499
31
0.0
0
LINE
8
MCD_Layer_0
10
-0.959961
20
-0.516266
30
0.0
11
0.063477
21
0.477905
31
0.0
0
LINE
8
MCD_Layer_0
10
0.047852
20
-0.519501
30
0.0
11
0.063477
21
0.477905
31
0.0
0
LINE
8
MCD_Layer_0
10
0.047852
20
-0.519501
30
0.0
11
0.000000
21
0.000000
31
0.0
0
LINE
8
MCD_Layer_0
10
-0.976074
20
-0.517578
30
0.0
11
0.255981
21
0.495605
31
0.0
0
LINE
8
MCD_Layer_0
10
0.527954
20
-0.515289
30
0.0
11
0.255981
21
0.495605
31
0.0
0
LINE
8
MCD_Layer_0
10
0.527954
20
-0.515289
30
0.0
11
-0.687988
21
0.492371
31
0.0
0
LINE
8
MCD_Layer_0
10
0.000000
20
-0.515625
30
0.0
11
0.000000
21
0.000000
31
0.0
0
LINE
8
MCD_Layer_0
10
0.000000
20
-0.515625
30
0.0
11
0.063995
21
0.477905
31
0.0
0
LINE
8
MCD_Layer_0
10
-0.992004
20
-0.518890
30
0.0
11
0.063995
21
0.477905
31
0.0
0
LINE
8
MCD_Layer_0
10
-0.015991
20
-0.520874
30
0.0
11
0.048004
21
0.480499
31
0.0
0
LINE
8
MCD_Layer_0
10
-0.015991
20
-0.520874
30
0.0
11
0.256012
21
0.495605
31
0.0
0
LINE
8
MCD_Layer_0
10
-0.992004
20
-0.518890
30
0.0
11
0.496033
21
0.495758
31
0.0
0
LINE
8
MCD_Layer_0
10
0.000000
20
-0.515625
30
0.0
11
0.496033
21
0.495758
31
0.0
0
LINE
8
MCD_Layer_0
10
0.000000
20
-0.515625
30
0.0
11
0.000000
21
0.496094
31
0.0
0
LINE
8
MCD_Layer_0
10
0.000000
20
0.484375
30
0.0
11
0.000000
21
0.496094
31
0.0
0
LINE
8
MCD_Layer_0
10
0.000000
20
0.484375
30
0.0
11
0.496033
21
0.495758
31
0.0
0
LINE
8
MCD_Layer_0
10
-0.992004
20
0.481110
30
0.0
11
0.496033
21
0.495758
31
0.0
0
LINE
8
MCD_Layer_0
10
-0.015991
20
0.479126
30
0.0
11
0.256012
21
0.495605
31
0.0
0
LINE
8
MCD_Layer_0
10
-0.015991
20
0.479126
30
0.0
11
0.048004
21
0.480499
31
0.0
0
LINE
8
MCD_Layer_0
10
-0.992004
20
0.481110
30
0.0
11
0.063995
21
0.477905
31
0.0
0
LINE
8
MCD_Layer_0
10
0.000000
20
0.484375
30
0.0
11
0.063995
21
0.477905
31
0.0
0
LINE
8
MCD_Layer_0
10
0.000000
20
0.484375
30
0.0
11
0.000000
21
0.000000
31
0.0
0
LINE
8
MCD_Layer_0
10
-0.419220
20
-0.509705
30
0.0
11
0.000000
21
0.000000
31
0.0
0
LINE
8
MCD_Layer_0
10
-0.419220
20
-0.509705
30
0.0
11
0.361603
21
0.480438
31
0.0
0
LINE
8
MCD_Layer_0
10
-0.403229
20
-0.510345
30
0.0
11
0.361603
21
0.480438
31
0.0
0
LINE
8
MCD_Layer_0
10
0.092773
20
-0.510651
30
0.0
11
-0.899231
21
0.481689
31
0.0
0
LINE
8
MCD_Layer_0
10
0.300781
20
-0.511169
30
0.0
11
-0.220795
21
0.495239
31
0.0
0
LINE
8
MCD_Layer_0
10
-0.691223
20
-0.510529
30
0.0
11
-0.204773
21
0.495575
31
0.0
0
LINE
8
MCD_Layer_0
10
-0.659210
20
-0.509857
30
0.0
11
-0.204773
21
0.495575
31
0.0
0
LINE
8
MCD_Layer_0
10
-0.659210
20
-0.509857
30
0.0
11
0.486420
21
0.496094
31
0.0
0
LINE
8
MCD_Layer_0
10
-0.326447
20
-0.512543
30
0.0
11
0.486420
21
0.496094
31
0.0
0
LINE
8
MCD_Layer_0
10
0.195312
20
-0.536072
30
0.0
11
0.185577
21
0.488464
31
0.0
0
LINE
8
MCD_Layer_0
10
0.822449
20
0.486786
30
0.0
11
0.486420
21
0.496094
31
0.0
0
LINE
8
MCD_Layer_0
10
0.915192
20
0.489807
30
0.0
11
0.486420
21
0.496094
31
0.0
0
LINE
8
MCD_Layer_0
10
0.915192
20
0.489807
30
0.0
11
-0.204773
21
0.495575
31
0.0
0
LINE
8
MCD_Layer_0
10
-0.828766
20
0.489319
30
0.0
11
-0.204773
21
0.495575
31
0.0
0
LINE
8
MCD_Layer_0
10
0.163239
20
0.488678
30
0.0
11
-0.220795
21
0.495239
31
0.0
0
LINE
8
MCD_Layer_0
10
-0.828766
20
0.489319
30
0.0
11
-0.899231
21
0.481689
31
0.0
0
LINE
8
MCD_Layer_0
10
0.675201
20
0.489655
30
0.0
11
0.361603
21
0.480438
31
0.0
0
LINE
8
MCD_Layer_0
10
-0.419220
20
0.490295
30
0.0
11
0.361603
21
0.480438
31
0.0
0
LINE
8
MCD_Layer_0
10
-0.419220
20
0.490295
30
0.0
11
0.000000
21
0.000000
31
0.0
0
LINE
8
MCD_Layer_0
10
-0.035217
20
0.485168
30
0.0
11
0.000000
21
0.000000
31
0.0
0
LINE
8
MCD_Layer_0
10
-0.035217
20
0.485168
30
0.0
11
0.361603
21
0.480438
31
0.0
0
LINE
8
MCD_Layer_0
10
0.342468
20
0.486481
30
0.0
11
0.361603
21
0.480438
31
0.0
0
LINE
8
MCD_Layer_0
10
-0.649597
20
0.487122
30
0.0
11
-0.803223
21
0.481750
31
0.0
0
LINE
8
MCD_Layer_0
10
-0.281555
20
0.486053
30
0.0
11
-0.819214
21
0.493622
31
0.0
0
LINE
8
MCD_Layer_0
10
-0.563965
20
-0.525909
30
0.0
11
0.115204
21
-0.522583
31
0.0
0
LINE
8
MCD_Layer_0
10
0.057556
20
-0.512268
30
0.0
11
-0.547211
21
0.493469
31
0.0
0
LINE
8
MCD_Layer_0
10
-0.419220
20
-0.511658
30
0.0
11
-0.803223
21
0.481750
31
0.0
0
LINE
8
MCD_Layer_0
10
0.153564
20
-0.512207
30
0.0
11
0.361603
21
0.480438
31
0.0
0
LINE
8
MCD_Layer_0
10
0.137543
20
-0.513519
30
0.0
11
0.361603
21
0.480438
31
0.0
0
LINE
8
MCD_Layer_0
10
0.137543
20
-0.513519
30
0.0
11
0.000000
21
0.000000
31
0.0
0
LINE
8
MCD_Layer_0
10
-0.447998
20
-0.511383
30
0.0
11
0.000000
21
0.496094
31
0.0
0
LINE
8
MCD_Layer_0
10
-0.447998
20
0.488617
30
0.0
11
0.000000
21
0.496094
31
0.0
0
LINE
8
MCD_Layer_0
10
-0.447998
20
0.488617
30
0.0
11
0.623993
21
0.494537
31
0.0
0
LINE
8
MCD_Layer_0
10
-0.486389
20
0.487030
30
0.0
11
0.623993
21
0.494537
31
0.0
0
LINE
8
MCD_Layer_0
10
-0.486389
20
0.487030
30
0.0
11
0.000000
21
0.495117
31
0.0
0
LINE
8
MCD_Layer_0
10
0.489624
20
0.485077
30
0.0
11
0.256012
21
0.495605
31
0.0
0
LINE
8
MCD_Layer_0
10
-0.354980
20
0.479431
30
0.0
11
0.256012
21
0.495605
31
0.0
0
LINE
8
MCD_Layer_0
10
-0.354980
20
0.479431
30
0.0
11
-0.175995
21
0.481628
31
0.0
0
LINE
8
MCD_Layer_0
10
0.838379
20
0.481262
30
0.0
11
-0.384003
21
0.480194
31
0.0
0
LINE
8
MCD_Layer_0
10
-0.358398
20
0.483856
30
0.0
11
-0.384003
21
0.480194
31
0.0
0
LINE
8
MCD_Layer_0
10
-0.358398
20
0.483856
30
0.0
11
0.000000
21
0.000000
31
0.0
0
LINE
8
MCD_Layer_0
10
0.870422
20
-0.516113
30
0.0
11
0.000000
21
0.000000
31
0.0
0
LINE
8
MCD_Layer_0
10
0.870422
20
-0.516113
30
0.0
11
-0.384003
21
0.480194
31
0.0
0
LINE
8
MCD_Layer_0
10
0.067200
20
-0.518707
30
0.0
11
-0.384003
21
0.480194
31
0.0
0
LINE
8
MCD_Layer_0
10
0.102295
20
-0.520508
30
0.0
11
-0.175995
21
0.481628
31
0.0
0
LINE
8
MCD_Layer_0
10
0.102295
20
-0.520508
30
0.0
11
0.256012
21
0.495605
31
0.0
0
LINE
8
MCD_Layer_0
10
0.127991
20
-0.514893
30
0.0
11
0.256012
21
0.495605
31
0.0
0
LINE
8
MCD_Layer_0
10
-0.847992
20
-0.512939
30
0.0
11
0.000000
21
0.495117
31
0.0
0
LINE
8
MCD_Layer_0
10
-0.847992
20
-0.512939
30
0.0
11
0.623993
21
0.494537
31
0.0
0
LINE
8
MCD_Layer_0
10
-0.447998
20
-0.511383
30
0.0
11
0.623993
21
0.494537
31
0.0
0
LINE
8
MCD_Layer_0
10
0.064026
20
-0.510864
30
0.0
11
0.000000
21
0.000000
31
0.0
0
LINE
8
MCD_Layer_0
10
0.064026
20
-0.510864
30
0.0
11
0.000000
21
0.480469
31
0.0
0
LINE
8
MCD_Layer_0
10
-0.636780
20
-0.511536
30
0.0
11
0.000000
21
0.480469
31
0.0
0
LINE
8
MCD_Layer_0
10
-0.281555
20
-0.511993
30
0.0
11
0.015991
21
0.481781
31
0.0
0
LINE
8
MCD_Layer_0
10
-0.281555
20
-0.511993
30
0.0
11
-0.342377
21
0.495422
31
0.0
0
LINE
8
MCD_Layer_0
10
-0.636780
20
-0.511536
30
0.0
11
-0.102386
21
0.495575
31
0.0
0
LINE
8
MCD_Layer_0
10
0.064026
20
-0.510864
30
0.0
11
-0.102386
21
0.495575
31
0.0
0
LINE
8
MCD_Layer_0
10
0.064026
20
-0.510864
30
0.0
11
0.000000
21
0.496094
31
0.0
0
LINE
8
MCD_Layer_0
10
-0.207886
20
-0.519043
30
0.0
11
0.000000
21
0.496094
31
0.0
0
LINE
8
MCD_Layer_0
10
-0.207886
20
-0.519043
30
0.0
11
-0.102386
21
0.495575
31
0.0
0
LINE
8
MCD_Layer_0
10
0.547302
20
-0.516449
30
0.0
11
-0.102386
21
0.495575
31
0.0
0
LINE
8
MCD_Layer_0
10
0.281647
20
-0.515381
30
0.0
11
-0.342377
21
0.495422
31
0.0
0
LINE
8
MCD_Layer_0
10
0.281647
20
-0.515381
30
0.0
11
0.000031
21
0.493652
31
0.0
0
LINE
8
MCD_Layer_0
10
0.281555
20
0.484619
30
0.0
11
0.000031
21
0.493652
31
0.0
0
LINE
8
MCD_Layer_0
10
0.281555
20
0.484619
30
0.0
11
-0.342377
21
0.495422
31
0.0
0
LINE
8
MCD_Layer_0
10
0.547119
20
0.483551
30
0.0
11
-0.102386
21
0.495575
31
0.0
0
LINE
8
MCD_Layer_0
10
0.515137
20
0.480927
30
0.0
11
-0.102386
21
0.495575
31
0.0
0
LINE
8
MCD_Layer_0
10
0.515137
20
0.480927
30
0.0
11
0.000000
21
0.496094
31
0.0
0
LINE
8
MCD_Layer_0
10
-0.447998
20
0.489105
30
0.0
11
0.000000
21
0.496094
31
0.0
0
LINE
8
MCD_Layer_0
10
-0.447998
20
0.489105
30
0.0
11
-0.102386
21
0.495575
31
0.0
0
LINE
8
MCD_Layer_0
10
-0.636780
20
0.488464
30
0.0
11
-0.102386
21
0.495575
31
0.0
0
LINE
8
MCD_Layer_0
10
-0.281616
20
0.488007
30
0.0
11
-0.342377
21
0.495422
31
0.0
0
LINE
8
MCD_Layer_0
10
-0.281616
20
0.488007
30
0.0
11
0.015991
21
0.481781
31
0.0
0
LINE
8
MCD_Layer_0
10
-0.636780
20
0.488464
30
0.0
11
0.000000
21
0.480469
31
0.0
0
LINE
8
MCD_Layer_0
10
0.064026
20
0.489136
30
0.0
11
0.000000
21
0.480469
31
0.0
0
LINE
8
MCD_Layer_0
10
0.064026
20
0.489136
30
0.0
11
0.000000
21
0.000000
31
0.0
0
LINE
8
MCD_Layer_0
10
-0.256104
20
0.480927
30
0.0
11
0.000000
21
0.000000
31
0.0
0
LINE
8
MCD_Layer_0
10
-0.256104
20
0.480927
30
0.0
11
0.000000
21
0.480469
31
0.0
0
LINE
8
MCD_Layer_0
10
0.547119
20
0.483551
30
0.0
11
0.000000
21
0.480469
31
0.0
0
LINE
8
MCD_Layer_0
10
0.281555
20
0.484619
30
0.0
11
0.015991
21
0.481781
31
0.0
0
LINE
8
MCD_Layer_0
10
0.281555
20
0.484619
30
0.0
11
0.000000
21
0.493164
31
0.0
0
LINE
8
MCD_Layer_0
10
0.281647
20
-0.515381
30
0.0
11
0.000000
21
0.493164
31
0.0
0
LINE
8
MCD_Layer_0
10
0.281647
20
-0.515381
30
0.0
11
0.015991
21
0.481781
31
0.0
0
LINE
8
MCD_Layer_0
10
0.547302
20
-0.516449
30
0.0
11
0.000000
21
0.480469
31
0.0
0
LINE
8
MCD_Layer_0
10
-0.255859
20
-0.519073
30
0.0
11
0.000000
21
0.480469
31
0.0
0
LINE
8
MCD_Layer_0
10
-0.255859
20
-0.519073
30
0.0
11
0.000000
21
0.000000
31
0.0
0
LINE
8
MCD_Layer_0
10
0.496002
20
-0.512054
30
0.0
11
0.000000
21
0.496094
31
0.0
0
LINE
8
MCD_Layer_0
10
0.527985
20
0.486664
30
0.0
11
0.000000
21
0.496094
31
0.0
0
LINE
8
MCD_Layer_0
10
0.527985
20
0.486664
30
0.0
11
-0.623993
21
0.494690
31
0.0
0
LINE
8
MCD_Layer_0
10
0.067230
20
0.485199
30
0.0
11
-0.623993
21
0.494690
31
0.0
0
LINE
8
MCD_Layer_0
10
0.067230
20
0.485199
30
0.0
11
-0.751984
21
0.494934
31
0.0
0
LINE
8
MCD_Layer_0
10
0.166443
20
0.480835
30
0.0
11
0.256012
21
0.495605
31
0.0
0
LINE
8
MCD_Layer_0
10
0.000000
20
-0.519531
30
0.0
11
0.256012
21
0.495605
31
0.0
0
LINE
8
MCD_Layer_0
10
0.000000
20
-0.519531
30
0.0
11
-0.870392
21
0.493134
31
0.0
0
LINE
8
MCD_Layer_0
10
0.409607
20
0.480469
30
0.0
11
-0.870392
21
0.493134
31
0.0
0
LINE
8
MCD_Layer_0
10
0.425598
20
0.481781
30
0.0
11
-0.630371
21
0.493286
31
0.0
0
LINE
8
MCD_Layer_0
10
0.425598
20
0.481781
30
0.0
11
0.505585
21
0.493713
31
0.0
0
LINE
8
MCD_Layer_0
10
-0.787201
20
0.485016
30
0.0
11
0.505585
21
0.493713
31
0.0
0
LINE
8
MCD_Layer_0
10
-0.787201
20
0.485016
30
0.0
11
-0.239990
21
0.492004
31
0.0
0
LINE
8
MCD_Layer_0
10
0.425598
20
0.481781
30
0.0
11
-0.239990
21
0.492004
31
0.0
0
LINE
8
MCD_Layer_0
10
0.425598
20
0.481781
30
0.0
11
-0.496002
21
0.492493
31
0.0
0
LINE
8
MCD_Layer_0
10
0.409607
20
0.480469
30
0.0
11
0.256012
21
0.492676
31
0.0
0
LINE
8
MCD_Layer_0
10
0.000000
20
-0.519531
30
0.0
11
0.256012
21
0.492676
31
0.0
0
LINE
8
MCD_Layer_0
10
0.000000
20
-0.519531
30
0.0
11
0.048004
21
0.480499
31
0.0
0
LINE
8
MCD_Layer_0
10
-0.758362
20
0.482300
30
0.0
11
0.048004
21
0.480499
31
0.0
0
LINE
8
MCD_Layer_0
10
0.652802
20
0.485962
30
0.0
11
-0.992004
21
0.485016
31
0.0
0
LINE
8
MCD_Layer_0
10
0.652802
20
0.485962
30
0.0
11
-0.496002
21
0.486633
31
0.0
0
LINE
8
MCD_Layer_0
10
0.496002
20
0.487946
30
0.0
11
-0.496002
21
0.486633
31
0.0
0
LINE
8
MCD_Layer_0
10
0.496002
20
0.487946
30
0.0
11
0.000000
21
0.000000
31
0.0
0
LINE
8
MCD_Layer_0
10
0.496002
20
-0.512054
30
0.0
11
0.000000
21
0.000000
31
0.0
0
LINE
8
MCD_Layer_0
10
0.496002
20
-0.512054
30
0.0
11
0.000000
21
0.480469
31
0.0
0
LINE
8
MCD_Layer_0
10
0.992004
20
-0.514343
30
0.0
11
0.015991
21
0.481781
31
0.0
0
LINE
8
MCD_Layer_0
10
0.992004
20
-0.514343
30
0.0
11
0.016022
21
0.495453
31
0.0
0
LINE
8
MCD_Layer_0
10
0.000000
20
-0.513672
30
0.0
11
0.256012
21
0.495605
31
0.0
0
LINE
8
MCD_Layer_0
10
0.496002
20
-0.512054
30
0.0
11
0.256012
21
0.495605
31
0.0
0
LINE
8
MCD_Layer_0
10
0.880005
20
-0.510834
30
0.0
11
0.000000
21
0.000000
31
0.0
0
LINE
8
MCD_Layer_0
10
0.880005
20
-0.510834
30
0.0
11
0.000000
21
0.480469
31
0.0
0
LINE
8
MCD_Layer_0
10
0.179199
20
-0.511475
30
0.0
11
0.000000
21
0.480469
31
0.0
0
LINE
8
MCD_Layer_0
10
-0.649597
20
-0.511902
30
0.0
11
0.015991
21
0.481781
31
0.0
0
LINE
8
MCD_Layer_0
10
-0.649597
20
-0.511902
30
0.0
11
-0.342377
21
0.495422
31
0.0
0
LINE
8
MCD_Layer_0
10
0.179199
20
-0.511475
30
0.0
11
-0.102386
21
0.495575
31
0.0
0
LINE
8
MCD_Layer_0
10
0.880005
20
-0.510834
30
0.0
11
-0.102386
21
0.495575
31
0.0
0
LINE
8
MCD_Layer_0
10
0.880005
20
-0.510834
30
0.0
11
0.000000
21
0.496094
31
0.0
0
LINE
8
MCD_Layer_0
10
0.096008
20
-0.519470
30
0.0
11
-0.102386
21
0.496063
31
0.0
0
LINE
8
MCD_Layer_0
10
0.617615
20
0.488739
30
0.0
11
0.515167
21
0.478973
31
0.0
0
LINE
8
MCD_Layer_0
10
0.880005
20
0.489166
30
0.0
11
-0.784027
21
-0.533081
31
0.0
0
LINE
8
MCD_Layer_0
10
-0.086395
20
-0.515320
30
0.0
11
0.678406
21
0.491577
31
0.0
0
LINE
8
MCD_Layer_0
10
-0.086395
20
-0.515320
30
0.0
11
0.015991
21
0.481781
31
0.0
0
LINE
8
MCD_Layer_0
10
-0.188782
20
-0.516296
30
0.0
11
0.000000
21
0.480469
31
0.0
0
LINE
8
MCD_Layer_0
10
-0.991943
20
-0.518890
30
0.0
11
0.000000
21
0.480469
31
0.0
0
LINE
8
MCD_Layer_0
10
-0.991943
20
-0.518890
30
0.0
11
0.000000
21
0.000000
31
0.0
0
LINE
8
MCD_Layer_0
10
-0.086395
20
-0.515320
30
0.0
11
-0.172791
21
0.492340
31
0.0
0
LINE
8
MCD_Layer_0
10
-0.086395
20
-0.515320
30
0.0
11
-0.342377
21
0.495422
31
0.0
0
LINE
8
MCD_Layer_0
10
-0.940796
20
-0.512543
30
0.0
11
0.000000
21
0.496094
31
0.0
0
LINE
8
MCD_Layer_0
10
-0.035187
20
0.487122
30
0.0
11
0.000000
21
0.496094
31
0.0
0
LINE
8
MCD_Layer_0
10
-0.035187
20
0.487122
30
0.0
11
-0.623993
21
0.494690
31
0.0
0
LINE
8
MCD_Layer_0
10
-0.902374
20
0.485138
30
0.0
11
-0.623993
21
0.494690
31
0.0
0
LINE
8
MCD_Layer_0
10
-0.902374
20
0.485138
30
0.0
11
-0.751984
21
0.494934
31
0.0
0
LINE
8
MCD_Layer_0
10
0.227234
20
0.480743
30
0.0
11
0.256012
21
0.495605
31
0.0
0
LINE
8
MCD_Layer_0
10
-0.271973
20
-0.522339
30
0.0
11
0.256012
21
0.495605
31
0.0
0
LINE
8
MCD_Layer_0
10
-0.271973
20
-0.522339
30
0.0
11
-0.870392
21
0.493134
31
0.0
0
LINE
8
MCD_Layer_0
10
0.246277
20
0.481537
30
0.0
11
-0.870392
21
0.493134
31
0.0
0
LINE
8
MCD_Layer_0
10
0.262390
20
0.482849
30
0.0
11
-0.630371
21
0.493286
31
0.0
0
LINE
8
MCD_Layer_0
10
0.262390
20
0.482849
30
0.0
11
0.505585
21
0.493713
31
0.0
0
LINE
8
MCD_Layer_0
10
0.444794
20
0.485504
30
0.0
11
0.505585
21
0.493713
31
0.0
0
LINE
8
MCD_Layer_0
10
0.444794
20
0.485504
30
0.0
11
-0.239990
21
0.492004
31
0.0
0
LINE
8
MCD_Layer_0
10
0.262390
20
0.482849
30
0.0
11
-0.239990
21
0.492004
31
0.0
0
LINE
8
MCD_Layer_0
10
0.262390
20
0.482849
30
0.0
11
-0.496002
21
0.492493
31
0.0
0
LINE
8
MCD_Layer_0
10
0.246277
20
0.481537
30
0.0
11
0.256012
21
0.492676
31
0.0
0
LINE
8
MCD_Layer_0
10
-0.271973
20
-0.522339
30
0.0
11
0.256012
21
0.492676
31
0.0
0
LINE
8
MCD_Layer_0
10
-0.271973
20
-0.522339
30
0.0
11
-0.441620
21
0.481720
31
0.0
0
LINE
8
MCD_Layer_0
10
-0.969238
20
-0.526428
30
0.0
11
0.000000
21
0.480469
31
0.0
0
LINE
8
MCD_Layer_0
10
0.329346
20
0.473907
30
0.0
11
0.000000
21
0.480469
31
0.0
0
LINE
8
MCD_Layer_0
10
0.329346
20
0.473907
30
0.0
11
0.000000
21
0.000000
31
0.0
0
LINE
8
MCD_Layer_0
10
-0.035187
20
-0.512878
30
0.0
11
0.000000
21
0.000000
31
0.0
0
LINE
8
MCD_Layer_0
10
-0.035187
20
-0.512878
30
0.0
11
0.000000
21
0.480469
31
0.0
0
LINE
8
MCD_Layer_0
10
0.563232
20
-0.514160
30
0.0
11
0.000000
21
0.480469
31
0.0
0
LINE
8
MCD_Layer_0
10
-0.444763
20
-0.514832
30
0.0
11
0.015991
21
0.481781
31
0.0
0
LINE
8
MCD_Layer_0
10
-0.444763
20
-0.514832
30
0.0
11
0.016022
21
0.495453
31
0.0
0
LINE
8
MCD_Layer_0
10
0.563232
20
-0.514160
30
0.0
11
0.256012
21
0.495605
31
0.0
0
LINE
8
MCD_Layer_0
10
-0.940796
20
-0.512543
30
0.0
11
0.256012
21
0.495605
31
0.0
0
LINE
8
MCD_Layer_0
10
-0.896027
20
-0.511444
30
0.0
11
0.000000
21
0.496094
31
0.0
0
LINE
8
MCD_Layer_0
10
0.480469
20
0.471008
30
0.0
11
0.000000
21
0.496094
31
0.0
0
LINE
8
MCD_Layer_0
10
0.585938
20
-0.536865
30
0.0
11
0.000000
21
0.000000
31
0.0
0
LINE
8
MCD_Layer_0
10
-0.896027
20
-0.511444
30
0.0
11
0.000000
21
0.000000
31
0.0
0
LINE
8
MCD_Layer_0
10
-0.896027
20
-0.511444
30
0.0
11
0.000000
21
0.480469
31
0.0
0
LINE
8
MCD_Layer_0
10
-0.800049
20
-0.511810
30
0.0
11
0.000000
21
0.480469
31
0.0
0
LINE
8
MCD_Layer_0
10
0.617554
20
-0.513092
30
0.0
11
-0.063995
21
0.483002
31
0.0
0
LINE
8
MCD_Layer_0
10
0.617554
20
-0.513092
30
0.0
11
-0.992004
21
0.495270
31
0.0
0
LINE
8
MCD_Layer_0
10
-0.800049
20
-0.511810
30
0.0
11
0.000031
21
0.495605
31
0.0
0
LINE
8
MCD_Layer_0
10
-0.896027
20
-0.511444
30
0.0
11
0.000031
21
0.495605
31
0.0
0
LINE
8
MCD_Layer_0
10
-0.361694
20
-0.517334
30
0.0
11
-0.102386
21
0.495575
31
0.0
0
LINE
8
MCD_Layer_0
10
-0.361694
20
-0.517334
30
0.0
11
0.624023
21
0.493561
31
0.0
0
LINE
8
MCD_Layer_0
10
-0.419434
20
-0.521423
30
0.0
11
0.624023
21
0.493561
31
0.0
0
LINE
8
MCD_Layer_0
10
-0.493164
20
-0.521210
30
0.0
11
-0.102386
21
0.495575
31
0.0
0
LINE
8
MCD_Layer_0
10
-0.361694
20
-0.517334
30
0.0
11
0.982391
21
0.493073
31
0.0
0
LINE
8
MCD_Layer_0
10
-0.361694
20
-0.517334
30
0.0
11
0.048004
21
0.480499
31
0.0
0
LINE
8
MCD_Layer_0
10
-0.192139
20
-0.523102
30
0.0
11
0.457611
21
0.480499
31
0.0
0
LINE
8
MCD_Layer_0
10
0.255981
20
-0.516113
30
0.0
11
0.000000
21
0.000000
31
0.0
0
LINE
8
MCD_Layer_0
10
0.255981
20
-0.516113
30
0.0
11
0.000000
21
0.480469
31
0.0
0
LINE
8
MCD_Layer_0
10
-0.547211
20
-0.518738
30
0.0
11
0.000000
21
0.480469
31
0.0
0
LINE
8
MCD_Layer_0
10
0.873596
20
-0.520538
30
0.0
11
0.015991
21
0.481781
31
0.0
0
LINE
8
MCD_Layer_0
10
0.873596
20
-0.520538
30
0.0
11
-0.342377
21
0.495422
31
0.0
0
LINE
8
MCD_Layer_0
10
-0.547211
20
-0.518738
30
0.0
11
-0.102386
21
0.495575
31
0.0
0
LINE
8
MCD_Layer_0
10
0.255981
20
-0.516113
30
0.0
11
-0.102386
21
0.495575
31
0.0
0
LINE
8
MCD_Layer_0
10
0.255981
20
-0.516113
30
0.0
11
0.000000
21
0.496094
31
0.0
0
LINE
8
MCD_Layer_0
10
0.208008
20
0.483856
30
0.0
11
0.000000
21
0.496094
31
0.0
0
LINE
8
MCD_Layer_0
10
0.208008
20
0.483856
30
0.0
11
-0.102386
21
0.495575
31
0.0
0
LINE
8
MCD_Layer_0
10
-0.547180
20
0.481262
30
0.0
11
-0.102386
21
0.495575
31
0.0
0
LINE
8
MCD_Layer_0
10
0.873657
20
0.479462
30
0.0
11
-0.342377
21
0.495422
31
0.0
0
LINE
8
MCD_Layer_0
10
0.873657
20
0.479462
30
0.0
11
0.015991
21
0.481781
31
0.0
0
LINE
8
MCD_Layer_0
10
-0.547180
20
0.481262
30
0.0
11
0.000000
21
0.480469
31
0.0
0
LINE
8
MCD_Layer_0
10
0.255981
20
0.483887
30
0.0
11
0.000000
21
0.480469
31
0.0
0
LINE
8
MCD_Layer_0
10
0.255981
20
0.483887
30
0.0
11
0.000000
21
0.000000
31
0.0
0
LINE
8
MCD_Layer_0
10
-0.239990
20
-0.511902
30
0.0
11
0.000000
21
0.000000
31
0.0
0
LINE
8
MCD_Layer_0
10
-0.239990
20
-0.511902
30
0.0
11
0.000000
21
0.480469
31
0.0
0
LINE
8
MCD_Layer_0
10
0.358398
20
-0.513184
30
0.0
11
0.000000
21
0.480469
31
0.0
0
LINE
8
MCD_Layer_0
10
-0.649597
20
-0.513855
30
0.0
11
0.015991
21
0.481781
31
0.0
0
LINE
8
MCD_Layer_0
10
-0.649597
20
-0.513855
30
0.0
11
-0.342377
21
0.495422
31
0.0
0
LINE
8
MCD_Layer_0
10
0.358398
20
-0.513184
30
0.0
11
-0.102386
21
0.495575
31
0.0
0
LINE
8
MCD_Layer_0
10
-0.239990
20
-0.511902
30
0.0
11
-0.102386
21
0.495575
31
0.0
0
LINE
8
MCD_Layer_0
10
-0.239990
20
-0.511902
30
0.0
11
0.000000
21
0.496094
31
0.0
0
LINE
8
MCD_Layer_0
10
0.448242
20
-0.529663
30
0.0
11
0.000000
21
0.496094
31
0.0
0
LINE
8
MCD_Layer_0
10
0.448242
20
-0.529663
30
0.0
11
-0.102386
21
0.495575
31
0.0
0
LINE
8
MCD_Layer_0
10
-0.377563
20
-0.520844
30
0.0
11
-0.102386
21
0.495575
31
0.0
0
LINE
8
MCD_Layer_0
10
-0.172791
20
-0.518890
30
0.0
11
-0.342377
21
0.495422
31
0.0
0
LINE
8
MCD_Layer_0
10
-0.172791
20
-0.518890
30
0.0
11
0.015991
21
0.481781
31
0.0
0
LINE
8
MCD_Layer_0
10
-0.377563
20
-0.520844
30
0.0
11
0.000000
21
0.480469
31
0.0
0
LINE
8
MCD_Layer_0
10
0.684814
20
0.482727
30
0.0
11
0.000000
21
0.480469
31
0.0
0
LINE
8
MCD_Layer_0
10
-0.239990
20
0.486145
30
0.0
11
-0.691193
21
0.485077
31
0.0
0
LINE
8
MCD_Layer_0
10
-0.239990
20
0.486145
30
0.0
11
0.812805
21
0.487366
31
0.0
0
LINE
8
MCD_Layer_0
10
-0.239990
20
0.488098
30
0.0
11
0.812805
21
0.487366
31
0.0
0
LINE
8
MCD_Layer_0
10
-0.239990
20
0.488098
30
0.0
11
0.000000
21
0.000000
31
0.0
0
LINE
8
MCD_Layer_0
10
0.064453
20
-0.529907
30
0.0
11
0.000000
21
0.480469
31
0.0
0
LINE
8
MCD_Layer_0
10
0.256012
20
-0.510254
30
0.0
11
-0.127838
21
0.496063
31
0.0
0
LINE
8
MCD_Layer_0
10
-0.016052
20
-0.516968
30
0.0
11
-0.127838
21
0.496063
31
0.0
0
LINE
8
MCD_Layer_0
10
-0.016052
20
-0.516968
30
0.0
11
0.025757
21
0.495605
31
0.0
0
LINE
8
MCD_Layer_0
10
0.911987
20
-0.515045
30
0.0
11
0.025757
21
0.495605
31
0.0
0
LINE
8
MCD_Layer_0
10
-0.176025
20
-0.514465
30
0.0
11
-0.822205
21
0.495361
31
0.0
0
LINE
8
MCD_Layer_0
10
0.144043
20
0.476654
30
0.0
11
0.432159
21
0.492218
31
0.0
0
LINE
8
MCD_Layer_0
10
0.272034
20
0.487152
30
0.0
11
-0.822205
21
0.495361
31
0.0
0
LINE
8
MCD_Layer_0
10
-0.639954
20
0.486542
30
0.0
11
0.025757
21
0.495605
31
0.0
0
LINE
8
MCD_Layer_0
10
-0.751953
20
0.485168
30
0.0
11
0.025757
21
0.495605
31
0.0
0
LINE
8
MCD_Layer_0
10
-0.751953
20
0.485168
30
0.0
11
-0.127838
21
0.496063
31
0.0
0
LINE
8
MCD_Layer_0
10
-0.751953
20
0.485168
30
0.0
11
-0.563202
21
0.496063
31
0.0
0
LINE
8
MCD_Layer_0
10
0.256012
20
0.489746
30
0.0
11
-0.563202
21
0.496063
31
0.0
0
LINE
8
MCD_Layer_0
10
0.256012
20
0.489746
30
0.0
11
-0.409607
21
0.495575
31
0.0
0
LINE
8
MCD_Layer_0
10
-0.607941
20
0.489166
30
0.0
11
-0.409607
21
0.495575
31
0.0
0
LINE
8
MCD_Layer_0
10
-0.063995
20
0.488861
30
0.0
11
-0.553589
21
0.495483
31
0.0
0
LINE
8
MCD_Layer_0
10
0.047974
20
0.480499
30
0.0
11
-0.118408
21
0.490845
31
0.0
0
LINE
8
MCD_Layer_0
10
0.047974
20
0.480499
30
0.0
11
0.752319
21
0.490875
31
0.0
0
LINE
8
MCD_Layer_0
10
0.047974
20
0.480499
30
0.0
11
0.174164
21
0.481750
31
0.0
0
LINE
8
MCD_Layer_0
10
-0.031982
20
0.481720
30
0.0
11
0.254150
21
0.480499
31
0.0
0
LINE
8
MCD_Layer_0
10
0.528015
20
0.484711
30
0.0
11
0.254150
21
0.480499
31
0.0
0
LINE
8
MCD_Layer_0
10
0.528015
20
0.484711
30
0.0
11
-0.204346
21
-0.550720
31
0.0
0
LINE
8
MCD_Layer_0
10
0.943970
20
-0.516327
30
0.0
11
-0.204346
21
-0.550720
31
0.0
0
LINE
8
MCD_Layer_0
10
0.943970
20
-0.516327
30
0.0
11
0.254150
21
0.480499
31
0.0
0
LINE
8
MCD_Layer_0
10
-0.095947
20
-0.519623
30
0.0
11
0.254150
21
0.480499
31
0.0
0
LINE
8
MCD_Layer_0
10
0.063965
20
-0.522095
30
0.0
11
0.174164
21
0.481750
31
0.0
0
LINE
8
MCD_Layer_0
10
0.063965
20
-0.522095
30
0.0
11
0.752319
21
0.490875
31
0.0
0
LINE
8
MCD_Layer_0
10
0.864014
20
-0.511169
30
0.0
11
-0.118225
21
0.495483
31
0.0
0
LINE
8
MCD_Layer_0
10
0.320007
20
-0.510864
30
0.0
11
0.025757
21
0.495605
31
0.0
0
LINE
8
MCD_Layer_0
10
0.256012
20
-0.510254
30
0.0
11
0.025757
21
0.495605
31
0.0
0
LINE
8
MCD_Layer_0
10
-0.863983
20
-0.512299
30
0.0
11
-0.592010
21
-0.525146
31
0.0
0
LINE
8
MCD_Layer_0
10
-0.863983
20
-0.512299
30
0.0
11
-0.656006
21
0.487183
31
0.0
0
LINE
8
MCD_Layer_0
10
0.316833
20
-0.514252
30
0.0
11
-0.656006
21
0.487183
31
0.0
0
LINE
8
MCD_Layer_0
10
0.316833
20
-0.514252
30
0.0
11
0.320007
21
0.485229
31
0.0
0
LINE
8
MCD_Layer_0
10
-0.745728
20
0.480225
30
0.0
11
0.249603
21
0.484924
31
0.0
0
LINE
8
MCD_Layer_0
10
-0.745728
20
0.480225
30
0.0
11
0.889618
21
0.495422
31
0.0
0
LINE
8
MCD_Layer_0
10
-0.777710
20
0.477600
30
0.0
11
-0.870392
21
0.495575
31
0.0
0
LINE
8
MCD_Layer_0
10
-0.533203
20
-0.538391
30
0.0
11
-0.870392
21
0.495575
31
0.0
0
LINE
8
MCD_Layer_0
10
-0.533203
20
-0.538391
30
0.0
11
-0.716797
21
0.496063
31
0.0
0
LINE
8
MCD_Layer_0
10
-0.863983
20
0.487701
30
0.0
11
-0.716797
21
0.496063
31
0.0
0
LINE
8
MCD_Layer_0
10
-0.863983
20
0.487701
30
0.0
11
-0.870392
21
0.495575
31
0.0
0
LINE
8
MCD_Layer_0
10
0.758453
20
0.486420
30
0.0
11
-0.870392
21
0.495575
31
0.0
0
LINE
8
MCD_Layer_0
10
-0.249603
20
0.485748
30
0.0
11
0.889618
21
0.495422
31
0.0
0
LINE
8
MCD_Layer_0
10
-0.249603
20
0.485748
30
0.0
11
0.934418
21
0.485229
31
0.0
0
LINE
8
MCD_Layer_0
10
0.316833
20
-0.514252
30
0.0
11
0.832001
21
-0.529419
31
0.0
0
LINE
8
MCD_Layer_0
10
0.316833
20
-0.514252
30
0.0
11
-0.592010
21
-0.525146
31
0.0
0
LINE
8
MCD_Layer_0
10
0.976501
20
0.488861
30
0.0
11
0.145844
21
0.490326
31
0.0
0
LINE
8
MCD_Layer_0
10
0.358765
20
0.490387
30
0.0
11
0.746735
21
0.490356
31
0.0
0
LINE
8
MCD_Layer_1
10
2.000000
20
2.000001
30
0.0
11
0.000000
21
0.000000
31
0.0
0
LINE
8
MCD_Layer_0
10
0.000000
20
0.000000
30
0.0
11
0.000000
21
0.000000
31
0.0
0
LINE
8
MCD_Layer_0
10
1.517908
20
0.475278
30
0.0
11
0.000000
21
0.000000
31
0.0
0
LINE
8
MCD_Layer_1
10
0.000000
20
2.000000
30
0.0
11
0.000000
21
0.000000
31
0.0
0
LINE
8
MCD_Layer_0
10
0.000000
20
0.000000
30
0.0
11
0.000000
21
0.000000
31
0.0
0
LINE
8
MCD_Layer_0
10
1.517907
20
0.475278
30
0.0
11
0.000000
21
-553.705322
31
0.0
0
LINE
8
MCD_Layer_0
10
0.000000
20
0.000977
30
0.0
11
0.000000
21
0.000000
31
0.0
0
LINE
8
MCD_Layer_0
10
0.000977
20
-0.000000
30
0.0
11
0.000000
21
0.000000
31
0.0
0
LINE
8
MCD_Layer_0
10
-0.000000
20
0.003906
30
0.0
11
0.000000
21
0.000000
31
0.0
0
LINE
8
MCD_Layer_0
10
0.006513
20
0.006513
30
0.0
11
0.000000
21
0.000000
31
0.0
0
LINE
8
MCD_Layer_0
10
0.006513
20
0.007813
30
0.0
11
0.000000
21
0.000000
31
0.0
0
LINE
8
MCD_Layer_0
10
0.007813
20
0.007813
30
0.0
11
0.000000
21
0.000000
31
0.0
0
LINE
8
MCD_Layer_0
10
0.007813
20
0.006513
30
0.0
11
0.000000
21
0.000000
31
0.0
0
LINE
8
MCD_Layer_0
10
0.006513
20
0.006513
30
0.0
11
0.000000
21
0.000000
31
0.0
0
LINE
8
MCD_Layer_0
10
0.003906
20
0.000000
30
0.0
11
0.000000
21
0.000000
31
0.0
0
LINE
8
MCD_Layer_0
10
0.000000
20
0.007813
30
0.0
11
0.000000
21
0.000000
31
0.0
0
LINE
8
MCD_Layer_0
10
0.007813
20
0.007813
30
0.0
11
0.000000
21
0.000000
31
0.0
0
LINE
8
MCD_Layer_0
10
0.007813
20
0.006513
30
0.0
11
0.000000
21
0.000000
31
0.0
0
LINE
8
MCD_Layer_0
10
0.006513
20
0.006513
30
0.0
11
0.000000
21
0.000000
31
0.0
0
LINE
8
MCD_Layer_0
10
0.003906
20
0.000000
30
0.0
11
0.000000
21
0.000000
31
0.0
0
LINE
8
MCD_Layer_0
10
0.000000
20
0.010417
30
0.0
11
0.000000
21
0.000000
31
0.0
0
LINE
8
MCD_Layer_0
10
0.010417
20
0.000000
30
0.0
11
0.000000
21
0.000000
31
0.0
0
LINE
8
MCD_Layer_0
10
0.000000
20
0.000003
30
0.0
11
0.000000
21
0.000000
31
0.0
0
LINE
8
MCD_Layer_0
10
0.000003
20
0.000003
30
0.0
11
0.000000
21
0.000000
31
0.0
0
LINE
8
MCD_Layer_0
10
0.000003
20
0.000000
30
0.0
11
0.000000
21
0.000000
31
0.0
0
LINE
8
MCD_Layer_0
10
0.000009
20
0.000009
30
0.0
11
0.000000
21
0.000000
31
0.0
0
LINE
8
MCD_Layer_0
10
0.000009
20
0.000924
30
0.0
11
0.000000
21
0.000000
31
0.0
0
LINE
8
MCD_Layer_0
10
0.000001
20
0.000001
30
0.0
11
0.000000
21
0.000000
31
0.0
0
LINE
8
MCD_Layer_0
10
0.000001
20
0.000000
30
0.0
11
0.000000
21
0.000000
31
0.0
0
LINE
8
MCD_Layer_0
10
0.000454
20
0.000454
30
0.0
11
0.000000
21
0.000000
31
0.0
0
LINE
8
MCD_Layer_0
10
0.000454
20
0.007475
30
0.0
11
0.000000
21
0.000000
31
0.0
0
LINE
8
MCD_Layer_0
10
0.007475
20
0.007475
30
0.0
11
0.000000
21
0.000000
31
0.0
0
LINE
8
MCD_Layer_0
10
0.000000
20
0.000001
30
0.0
11
0.000000
21
-0.000000
31
0.0
0
LINE
8
MCD_Layer_0
10
0.006475
20
0.007781
30
0.0
11
0.000000
21
0.000000
31
0.0
0
LINE
8
MCD_Layer_0
10
0.007781
20
0.007781
30
0.0
11
0.000000
21
0.000000
31
0.0
0
LINE
8
MCD_Layer_0
10
0.007781
20
0.006475
30
0.0
11
0.000000
21
0.000000
31
0.0
0
LINE
8
MCD_Layer_0
10
0.006475
20
0.006475
30
0.0
11
0.000000
21
0.000000
31
0.0
0
LINE
8
MCD_Layer_0
10
0.003891
20
0.003891
30
0.0
11
0.000000
21
0.000000
31
0.0
0
LINE
8
MCD_Layer_0
10
0.003891
20
0.000030
30
0.0
11
0.000000
21
0.000000
31
0.0
0
LINE
8
MCD_Layer_0
10
0.000030
20
0.000030
30
0.0
11
0.000000
21
0.000000
31
0.0
0
LINE
8
MCD_Layer_0
10
0.000030
20
0.003747
30
0.0
11
0.000000
21
0.000000
31
0.0
0
LINE
8
MCD_Layer_0
10
0.006475
20
0.006475
30
0.0
11
0.000000
21
0.000000
31
0.0
0
LINE
8
MCD_Layer_0
10
0.006475
20
0.007781
30
0.0
11
0.000000
21
0.000000
31
0.0
0
LINE
8
MCD_Layer_0
10
0.007781
20
0.007781
30
0.0
11
0.000000
21
0.000000
31
0.0
0
LINE
8
MCD_Layer_0
10
0.007781
20
0.006475
30
0.0
11
0.000000
21
0.000000
31
0.0
0
LINE
8
MCD_Layer_0
10
0.003238
20
0.003238
30
0.0
11
0.000000
21
0.000000
31
0.0
0
LINE
8
MCD_Layer_0
10
0.003238
20
0.000008
30
0.0
11
0.000000
21
0.000000
31
0.0
0
LINE
8
MCD_Layer_0
10
0.000008
20
0.000000
30
0.0
11
0.000000
21
0.000000
31
0.0
0
LINE
8
MCD_Layer_0
10
0.000000
20
0.000008
30
0.0
11
0.000000
21
0.000000
31
0.0
0
LINE
8
MCD_Layer_0
10
0.000008
20
0.004525
30
0.0
11
0.000000
21
0.000000
31
0.0
0
LINE
8
MCD_Layer_0
10
0.004525
20
0.004525
30
0.0
11
0.000000
21
0.000000
31
0.0
0
LINE
8
MCD_Layer_0
10
0.000000
20
0.003906
30
0.0
11
0.000000
21
0.000000
31
0.0
0
LINE
8
MCD_Layer_0
10
0.006513
20
0.006513
30
0.0
11
0.000000
21
0.000000
31
0.0
0
LINE
8
MCD_Layer_0
10
0.006513
20
0.007813
30
0.0
11
0.000000
21
0.000000
31
0.0
0
LINE
8
MCD_Layer_0
10
0.007813
20
0.007813
30
0.0
11
0.000000
21
0.000000
31
0.0
0
LINE
8
MCD_Layer_0
10
0.007813
20
0.006513
30
0.0
11
0.000000
21
0.000000
31
0.0
0
LINE
8
MCD_Layer_0
10
0.006513
20
0.006513
30
0.0
11
0.000000
21
0.000000
31
0.0
0
LINE
8
MCD_Layer_0
10
0.003906
20
0.000000
30
0.0
11
0.000000
21
0.000000
31
0.0
0
LINE
8
MCD_Layer_0
10
0.000000
20
0.000000
30
0.0
11
0.000000
21
0.000000
31
0.0
0
LINE
8
MCD_Layer_0
10
0.000000
20
0.000000
30
0.0
11
0.000000
21
0.000000
31
0.0
0
LINE
8
MCD_Layer_0
10
0.006669
20
0.007969
30
0.0
11
0.000000
21
0.000000
31
0.0
0
LINE
8
MCD_Layer_0
10
0.007969
20
0.007969
30
0.0
11
0.000000
21
0.000000
31
0.0
0
LINE
8
MCD_Layer_0
10
0.007969
20
0.006669
30
0.0
11
0.000000
21
0.000000
31
0.0
0
LINE
8
MCD_Layer_0
10
0.006669
20
0.006669
30
0.0
11
0.000000
21
0.000000
31
0.0
0
LINE
8
MCD_Layer_0
10
0.003881
20
0.000000
30
0.0
11
0.000000
21
0.000000
31
0.0
0
LINE
8
MCD_Layer_0
10
0.000000
20
0.004581
30
0.0
11
0.000000
21
0.000000
31
0.0
0
LINE
8
MCD_Layer_0
10
0.006650
20
0.006650
30
0.0
11
0.000000
21
0.000000
31
0.0
0
LINE
8
MCD_Layer_0
10
0.006650
20
0.007956
30
0.0
11
0.000000
21
0.000000
31
0.0
0
LINE
8
MCD_Layer_0
10
0.007956
20
0.007969
30
0.0
11
0.000000
21
0.000000
31
0.0
0
LINE
8
MCD_Layer_0
10
0.007969
20
0.006669
30
0.0
11
0.000000
21
0.000000
31
0.0
0
LINE
8
MCD_Layer_0
10
0.003334
20
-0.000000
30
0.0
11
0.000000
21
0.000000
31
0.0
0
LINE
8
MCD_Layer_0
10
-0.000000
20
0.004063
30
0.0
11
0.000000
21
0.000000
31
0.0
0
LINE
8
MCD_Layer_0
10
0.008881
20
0.004894
30
0.0
11
0.000000
21
0.000000
31
0.0
0
LINE
8
MCD_Layer_0
10
0.000000
20
0.001241
30
0.0
11
0.000000
21
0.000000
31
0.0
0
LINE
8
MCD_Layer_0
10
0.001906
20
0.001906
30
0.0
11
0.000000
21
0.000000
31
0.0
0
LINE
8
MCD_Layer_0
10
0.001906
20
0.003853
30
0.0
11
0.000000
21
0.000000
31
0.0
0
LINE
8
MCD_Layer_0
10
0.011775
20
0.011775
30
0.0
11
0.000000
21
0.000000
31
0.0
0
LINE
8
MCD_Layer_0
10
0.011775
20
0.000000
30
0.0
11
0.000000
21
0.000000
31
0.0
0
LINE
8
MCD_Layer_0
10
0.000000
20
0.000000
30
0.0
11
0.000000
21
0.000000
31
0.0
0
LINE
8
MCD_Layer_0
10
0.000000
20
0.000000
30
0.0
11
0.000000
21
0.000000
31
0.0
0
LINE
8
MCD_Layer_0
10
0.000000
20
0.010394
30
0.0
11
0.000000
21
0.000000
31
0.0
0
LINE
8
MCD_Layer_0
10
0.010394
20
0.000000
30
0.0
11
0.000000
21
0.000000
31
0.0
0
LINE
8
MCD_Layer_0
10
0.000000
20
0.000000
30
0.0
11
0.000000
21
0.000000
31
0.0
0
LINE
8
MCD_Layer_0
10
0.000001
20
0.000001
30
0.0
11
0.000000
21
0.000000
31
0.0
0
LINE
8
MCD_Layer_0
10
0.000001
20
0.000001
30
0.0
11
0.000000
21
0.000000
31
0.0
0
LINE
8
MCD_Layer_0
10
0.000001
20
0.000000
30
0.0
11
0.000000
21
0.000000
31
0.0
0
LINE
8
MCD_Layer_0
10
0.000000
20
0.000000
30
0.0
11
0.000000
21
0.000000
31
0.0
0
LINE
8
MCD_Layer_0
10
0.000000
20
0.000000
30
0.0
11
0.000000
21
0.000000
31
0.0
0
LINE
8
MCD_Layer_0
10
0.000000
20
0.000000
30
0.0
11
0.000000
21
0.000000
31
0.0
0
LINE
8
MCD_Layer_0
10
0.000000
20
0.000000
30
0.0
11
0.000000
21
0.000000
31
0.0
0
LINE
8
MCD_Layer_0
10
0.000000
20
0.000811
30
0.0
11
0.000000
21
0.000000
31
0.0
0
LINE
8
MCD_Layer_0
10
0.000811
20
0.000000
30
0.0
11
0.000000
21
0.000000
31
0.0
0
LINE
8
MCD_Layer_0
10
0.000000
20
0.003938
30
0.0
11
0.000000
21
0.000000
31
0.0
0
LINE
8
MCD_Layer_0
10
0.005188
20
0.005188
30
0.0
11
0.000000
21
0.000000
31
0.0
0
LINE
8
MCD_Layer_0
10
0.005188
20
0.007813
30
0.0
11
0.000000
21
0.000000
31
0.0
0
LINE
8
MCD_Layer_0
10
0.007813
20
0.007813
30
0.0
11
0.000000
21
0.000000
31
0.0
0
LINE
8
MCD_Layer_0
10
0.003938
20
0.003938
30
0.0
11
0.000000
21
0.000000
31
0.0
0
LINE
8
MCD_Layer_0
10
0.003938
20
0.000000
30
0.0
11
0.000000
21
0.000000
31
0.0
0
LINE
8
MCD_Layer_0
10
0.000000
20
0.011063
30
0.0
11
0.000000
21
0.000000
31
0.0
0
LINE
8
MCD_Layer_0
10
0.011063
20
0.000000
30
0.0
11
0.000000
21
0.000000
31
0.0
0
LINE
8
MCD_Layer_0
10
0.000000
20
0.000002
30
0.0
11
0.000000
21
0.000000
31
0.0
0
LINE
8
MCD_Layer_0
10
0.000002
20
0.000002
30
0.0
11
0.000000
21
0.000000
31
0.0
0
LINE
8
MCD_Layer_0
10
0.000002
20
0.000000
30
0.0
11
0.000000
21
0.000000
31
0.0
0
LINE
8
MCD_Layer_0
10
0.000008
20
0.000008
30
0.0
11
0.000000
21
0.000000
31
0.0
0
LINE
8
MCD_Layer_0
10
0.000008
20
0.000785
30
0.0
11
0.000000
21
0.000000
31
0.0
0
LINE
8
MCD_Layer_0
10
0.000785
20
0.000008
30
0.0
11
0.000000
21
-0.000000
31
0.0
0
LINE
8
MCD_Layer_0
10
-0.000000
20
0.003703
30
0.0
11
0.000000
21
0.000000
31
0.0
0
LINE
8
MCD_Layer_0
10
0.005188
20
0.005188
30
0.0
11
0.000000
21
0.000000
31
0.0
0
LINE
8
MCD_Layer_0
10
0.005188
20
0.007813
30
0.0
11
0.000000
21
0.000000
31
0.0
0
LINE
8
MCD_Layer_0
10
0.007813
20
0.007813
30
0.0
11
0.000000
21
0.000000
31
0.0
0
LINE
8
MCD_Layer_0
10
0.007813
20
0.005188
30
0.0
11
0.000000
21
0.000000
31
0.0
0
LINE
8
MCD_Layer_0
10
0.005188
20
0.005188
30
0.0
11
0.000000
21
0.000000
31
0.0
0
LINE
8
MCD_Layer_0
10
0.003703
20
0.000000
30
0.0
11
0.000000
21
0.000000
31
0.0
0
LINE
8
MCD_Layer_0
10
0.000000
20
0.003703
30
0.0
11
0.000000
21
0.000000
31
0.0
0
LINE
8
MCD_Layer_0
10
0.005188
20
0.005188
30
0.0
11
0.000000
21
0.000000
31
0.0
0
LINE
8
MCD_Layer_0
10
0.005188
20
0.007813
30
0.0
11
0.000000
21
0.000000
31
0.0
0
LINE
8
MCD_Layer_0
10
0.007813
20
0.007813
30
0.0
11
0.000000
21
0.000000
31
0.0
0
LINE
8
MCD_Layer_0
10
0.007813
20
0.005188
30
0.0
11
0.000000
21
0.000000
31
0.0
0
LINE
8
MCD_Layer_0
10
0.005188
20
0.005188
30
0.0
11
0.000000
21
0.000000
31
0.0
0
LINE
8
MCD_Layer_0
10
0.003672
20
-0.000000
30
0.0
11
0.000000
21
-0.000000
31
0.0
0
LINE
8
MCD_Layer_0
10
0.000000
20
0.003938
30
0.0
11
0.000000
21
0.000000
31
0.0
0
LINE
8
MCD_Layer_0
10
0.005188
20
0.005188
30
0.0
11
0.000000
21
0.000000
31
0.0
0
LINE
8
MCD_Layer_0
10
0.005188
20
0.007813
30
0.0
11
0.000000
21
0.000000
31
0.0
0
LINE
8
MCD_Layer_0
10
0.007813
20
0.007813
30
0.0
11
0.000000
21
0.000000
31
0.0
0
LINE
8
MCD_Layer_0
10
0.007813
20
0.005188
30
0.0
11
0.000000
21
0.000000
31
0.0
0
LINE
8
MCD_Layer_0
10
0.005188
20
0.005188
30
0.0
11
0.000000
21
0.000000
31
0.0
0
LINE
8
MCD_Layer_0
10
0.003938
20
0.000000
30
0.0
11
0.000000
21
0.000000
31
0.0
0
LINE
8
MCD_Layer_0
10
-0.000000
20
0.000000
30
0.0
11
0.000000
21
0.000000
31
0.0
0
LINE
8
MCD_Layer_0
10
0.000000
20
0.000000
30
0.0
11
0.000000
21
0.000000
31
0.0
0
LINE
8
MCD_Layer_0
10
0.000000
20
0.003269
30
0.0
11
0.000000
21
0.000000
31
0.0
0
LINE
8
MCD_Layer_0
10
0.003894
20
0.003894
30
0.0
11
0.000000
21
0.000000
31
0.0
0
LINE
8
MCD_Layer_0
10
0.003894
20
0.007788
30
0.0
11
0.000000
21
0.000000
31
0.0
0
LINE
8
MCD_Layer_0
10
0.007788
20
0.007788
30
0.0
11
0.000000
21
0.000000
31
0.0
0
LINE
8
MCD_Layer_0
10
0.007788
20
0.003894
30
0.0
11
0.000000
21
0.000000
31
0.0
0
LINE
8
MCD_Layer_0
10
0.003894
20
0.003894
30
0.0
11
0.000000
21
0.000000
31
0.0
0
LINE
8
MCD_Layer_0
10
0.003269
20
0.000000
30
0.0
11
0.000000
21
0.000000
31
0.0
0
LINE
8
MCD_Layer_0
10
0.003975
20
0.007881
30
0.0
11
0.000000
21
0.000000
31
0.0
0
LINE
8
MCD_Layer_0
10
0.007881
20
0.007881
30
0.0
11
0.000000
21
0.000000
31
0.0
0
LINE
8
MCD_Layer_0
10
0.007881
20
0.003975
30
0.0
11
0.000000
21
0.000000
31
0.0
0
LINE
8
MCD_Layer_0
10
0.003975
20
0.003975
30
0.0
11
0.000000
21
0.000000
31
0.0
0
LINE
8
MCD_Layer_0
10
0.003316
20
0.000000
30
0.0
11
0.000000
21
0.000000
31
0.0
0
LINE
8
MCD_Layer_0
10
0.000000
20
0.003316
30
0.0
11
0.000000
21
0.000000
31
0.0
0
LINE
8
MCD_Layer_0
10
0.003975
20
0.003975
30
0.0
11
0.000000
21
0.000000
31
0.0
0
LINE
8
MCD_Layer_0
10
0.003975
20
0.007881
30
0.0
11
0.000000
21
0.000000
31
0.0
0
LINE
8
MCD_Layer_0
10
0.007881
20
0.007881
30
0.0
11
0.000000
21
0.000000
31
0.0
0
LINE
8
MCD_Layer_0
10
0.007881
20
0.003975
30
0.0
11
0.000000
21
0.000000
31
0.0
0
LINE
8
MCD_Layer_0
10
0.003975
20
0.003975
30
0.0
11
0.000000
21
0.000000
31
0.0
0
LINE
8
MCD_Layer_0
10
0.003316
20
0.000000
30
0.0
11
0.000000
21
0.000000
31
0.0
0
LINE
8
MCD_Layer_0
10
0.000000
20
0.003316
30
0.0
11
0.000000
21
0.000000
31
0.0
0
LINE
8
MCD_Layer_0
10
0.003975
20
0.003975
30
0.0
11
0.000000
21
-0.000000
31
0.0
0
LINE
8
MCD_Layer_0
10
0.000000
20
0.003281
30
0.0
11
0.000000
21
0.000000
31
0.0
0
LINE
8
MCD_Layer_0
10
0.003906
20
0.003906
30
0.0
11
0.000000
21
0.000000
31
0.0
0
LINE
8
MCD_Layer_0
10
0.003906
20
0.007813
30
0.0
11
0.000000
21
0.000000
31
0.0
0
LINE
8
MCD_Layer_0
10
0.007813
20
0.007813
30
0.0
11
0.000000
21
0.000000
31
0.0
0
LINE
8
MCD_Layer_0
10
0.007813
20
0.000000
30
0.0
11
0.000000
21
0.000000
31
0.0
0
LINE
8
MCD_Layer_0
10
0.000000
20
0.003281
30
0.0
11
0.000000
21
0.000000
31
0.0
0
LINE
8
MCD_Layer_0
10
0.003906
20
0.003906
30
0.0
11
0.000000
21
0.000000
31
0.0
0
LINE
8
MCD_Layer_0
10
0.003906
20
0.007813
30
0.0
11
0.000000
21
0.000000
31
0.0
0
LINE
8
MCD_Layer_0
10
0.007813
20
0.007813
30
0.0
11
0.000000
21
0.000000
31
0.0
0
LINE
8
MCD_Layer_0
10
0.007813
20
0.003906
30
0.0
11
0.000000
21
0.000000
31
0.0
0
LINE
8
MCD_Layer_0
10
0.003906
20
0.003906
30
0.0
11
0.000000
21
0.000000
31
0.0
0
LINE
8
MCD_Layer_0
10
0.003281
20
-0.000000
30
0.0
11
0.000000
21
0.000000
31
0.0
0
LINE
8
MCD_Layer_0
10
-0.000000
20
0.000934
30
0.0
11
0.000000
21
0.000000
31
0.0
0
LINE
8
MCD_Layer_0
10
0.000934
20
0.000000
30
0.0
11
0.000000
21
0.000000
31
0.0
0
LINE
8
MCD_Layer_0
10
0.000000
20
0.003281
30
0.0
11
0.000000
21
0.000000
31
0.0
0
LINE
8
MCD_Layer_0
10
0.003906
20
0.003906
30
0.0
11
0.000000
21
0.000000
31
0.0
0
LINE
8
MCD_Layer_0
10
0.003906
20
0.007813
30
0.0
11
0.000000
21
0.000000
31
0.0
0
LINE
8
MCD_Layer_0
10
0.007813
20
0.007813
30
0.0
11
0.000000
21
0.000000
31
0.0
0
LINE
8
MCD_Layer_0
10
0.007813
20
0.000984
30
0.0
11
0.000000
21
0.000000
31
0.0
0
LINE
8
MCD_Layer_0
10
0.000984
20
0.000984
30
0.0
11
0.000000
21
0.000000
31
0.0
0
LINE
8
MCD_Layer_0
10
0.000984
20
0.002609
30
0.0
11
0.000000
21
0.000000
31
0.0
0
LINE
8
MCD_Layer_0
10
0.003938
20
0.003938
30
0.0
11
0.000000
21
0.000000
31
0.0
0
LINE
8
MCD_Layer_0
10
0.003938
20
0.000062
30
0.0
11
0.000000
21
0.000000
31
0.0
0
LINE
8
MCD_Layer_0
10
0.000062
20
0.000062
30
0.0
11
0.000000
21
0.000000
31
0.0
0
LINE
8
MCD_Layer_0
10
0.000081
20
0.000142
30
0.0
11
0.000000
21
0.000000
31
0.0
0
LINE
8
MCD_Layer_0
10
0.000142
20
0.000142
30
0.0
11
0.000000
21
0.000000
31
0.0
0
LINE
8
MCD_Layer_0
10
0.000142
20
0.000007
30
0.0
11
0.000000
21
0.000000
31
0.0
0
LINE
8
MCD_Layer_0
10
0.000007
20
0.000007
30
0.0
11
0.000000
21
0.000000
31
0.0
0
LINE
8
MCD_Layer_0
10
0.000007
20
0.000022
30
0.0
11
0.000000
21
0.000000
31
0.0
0
LINE
8
MCD_Layer_0
10
0.000031
20
0.000031
30
0.0
11
0.000000
21
0.000000
31
0.0
0
LINE
8
MCD_Layer_0
10
0.000031
20
0.000000
30
0.0
11
0.000000
21
0.000000
31
0.0
0
LINE
8
MCD_Layer_0
10
0.000000
20
0.000000
30
0.0
11
0.000000
21
0.000000
31
0.0
0
LINE
8
MCD_Layer_0
10
0.000000
20
0.000000
30
0.0
11
0.000000
21
0.000000
31
0.0
0
LINE
8
MCD_Layer_0
10
0.000000
20
0.000000
30
0.0
11
0.000000
21
0.000000
31
0.0
0
LINE
8
MCD_Layer_0
10
0.000383
20
0.000383
30
0.0
11
0.000000
21
0.000000
31
0.0
0
LINE
8
MCD_Layer_0
10
0.000383
20
0.010444
30
0.0
11
0.000000
21
0.000000
31
0.0
0
LINE
8
MCD_Layer_0
10
0.010444
20
0.010444
30
0.0
11
0.000000
21
0.000000
31
0.0
0
LINE
8
MCD_Layer_0
10
0.000000
20
0.000000
30
0.0
11
0.000000
21
0.000000
31
0.0
0
LINE
8
MCD_Layer_0
10
0.000000
20
0.000000
30
0.0
11
0.000000
21
0.000000
31
0.0
0
LINE
8
MCD_Layer_0
10
0.000000
20
0.000000
30
0.0
11
0.000000
21
0.000000
31
0.0
0
LINE
8
MCD_Layer_0
10
0.000000
20
0.001234
30
0.0
11
0.000000
21
0.000000
31
0.0
0
LINE
8
MCD_Layer_0
10
0.001906
20
0.001906
30
0.0
11
0.000000
21
0.000000
31
0.0
0
LINE
8
MCD_Layer_0
10
0.001906
20
0.003859
30
0.0
11
0.000000
21
0.000000
31
0.0
0
LINE
8
MCD_Layer_0
10
0.011750
20
0.011750
30
0.0
11
0.000000
21
0.000000
31
0.0
0
LINE
8
MCD_Layer_0
10
0.011750
20
0.000000
30
0.0
11
0.000000
21
0.000000
31
0.0
0
LINE
8
MCD_Layer_0
10
0.000298
20
0.000477
30
0.0
11
0.000000
21
0.000000
31
0.0
0
LINE
8
MCD_Layer_0
10
0.000477
20
0.000218
30
0.0
11
0.000000
21
0.000000
31
0.0
0
LINE
8
MCD_Layer_0
10
0.000000
20
0.000000
30
0.0
11
0.000000
21
0.000000
31
0.0
0
LINE
8
MCD_Layer_0
10
0.000024
20
0.000009
30
0.0
11
0.000000
21
0.000000
31
0.0
0
LINE
8
MCD_Layer_0
10
0.000009
20
0.000009
30
0.0
11
0.000000
21
0.000000
31
0.0
0
LINE
8
MCD_Layer_0
10
0.000009
20
0.000226
30
0.0
11
0.000000
21
0.000000
31
0.0
0
LINE
8
MCD_Layer_0
10
0.000226
20
0.000226
30
0.0
11
0.000000
21
0.000000
31
0.0
0
LINE
8
MCD_Layer_0
10
0.000226
20
0.000142
30
0.0
11
0.000000
21
0.000000
31
0.0
0
LINE
8
MCD_Layer_0
10
0.000591
20
0.000591
30
0.0
11
0.000000
21
0.000000
31
0.0
0
LINE
8
MCD_Layer_0
10
0.000591
20
0.010256
30
0.0
11
0.000000
21
0.000000
31
0.0
0
LINE
8
MCD_Layer_0
10
0.010256
20
0.010256
30
0.0
11
0.000000
21
0.000000
31
0.0
0
LINE
8
MCD_Layer_0
10
0.000000
20
0.009625
30
0.0
11
0.000000
21
0.000000
31
0.0
0
LINE
8
MCD_Layer_0
10
0.009625
20
0.000000
30
0.0
11
0.000000
21
0.000000
31
0.0
0
LINE
8
MCD_Layer_0
10
0.000000
20
0.000000
30
0.0
11
0.000000
21
0.000000
31
0.0
0
LINE
8
MCD_Layer_0
10
0.000000
20
0.000000
30
0.0
11
0.000000
21
0.000000
31
0.0
0
LINE
8
MCD_Layer_0
10
0.000000
20
0.000000
30
0.0
11
0.000000
21
0.000000
31
0.0
0
LINE
8
MCD_Layer_0
10
0.000001
20
0.000418
30
0.0
11
0.000000
21
0.000000
31
0.0
0
LINE
8
MCD_Layer_0
10
0.000418
20
0.000001
30
0.0
11
0.000000
21
0.000000
31
0.0
0
LINE
8
MCD_Layer_0
10
0.000000
20
0.004061
30
0.0
11
0.000000
21
0.000000
31
0.0
0
LINE
8
MCD_Layer_0
10
0.005374
20
0.005374
30
0.0
11
0.000000
21
0.000000
31
0.0
0
LINE
8
MCD_Layer_0
10
0.005374
20
0.007936
30
0.0
11
0.000000
21
0.000000
31
0.0
0
LINE
8
MCD_Layer_0
10
0.007936
20
0.007936
30
0.0
11
0.000000
21
0.000000
31
0.0
0
LINE
8
MCD_Layer_0
10
0.007936
20
0.000001
30
0.0
11
0.000000
21
0.000000
31
0.0
0
LINE
8
MCD_Layer_0
10
0.000001
20
0.004061
30
0.0
11
0.000000
21
0.000000
31
0.0
0
LINE
8
MCD_Layer_0
10
0.005374
20
0.005374
30
0.0
11
0.000000
21
0.000000
31
0.0
0
LINE
8
MCD_Layer_0
10
0.005374
20
0.007936
30
0.0
11
0.000000
21
0.000000
31
0.0
0
LINE
8
MCD_Layer_0
10
0.007936
20
0.007936
30
0.0
11
0.000000
21
0.000000
31
0.0
0
LINE
8
MCD_Layer_0
10
0.007936
20
0.005374
30
0.0
11
0.000000
21
0.000000
31
0.0
0
LINE
8
MCD_Layer_0
10
0.005374
20
0.005374
30
0.0
11
0.000000
21
0.000000
31
0.0
0
LINE
8
MCD_Layer_0
10
0.004061
20
-0.000000
30
0.0
11
0.000000
21
0.000000
31
0.0
0
LINE
8
MCD_Layer_0
10
-0.000000
20
0.000660
30
0.0
11
0.000000
21
0.000000
31
0.0
0
LINE
8
MCD_Layer_0
10
0.000660
20
0.000000
30
0.0
11
0.000000
21
0.000000
31
0.0
0
LINE
8
MCD_Layer_0
10
0.000000
20
0.003938
30
0.0
11
0.000000
21
0.000000
31
0.0
0
LINE
8
MCD_Layer_0
10
0.005187
20
0.005187
30
0.0
11
0.000000
21
0.000000
31
0.0
0
LINE
8
MCD_Layer_0
10
0.005187
20
0.007813
30
0.0
11
0.000000
21
0.000000
31
0.0
0
LINE
8
MCD_Layer_0
10
0.007813
20
0.007806
30
0.0
11
0.000000
21
0.000000
31
0.0
0
LINE
8
MCD_Layer_0
10
0.003938
20
0.003938
30
0.0
11
0.000000
21
0.000000
31
0.0
0
LINE
8
MCD_Layer_0
10
0.000000
20
0.003938
30
0.0
11
0.000000
21
0.000000
31
0.0
0
LINE
8
MCD_Layer_0
10
0.005188
20
0.005188
30
0.0
11
0.000000
21
0.000000
31
0.0
0
LINE
8
MCD_Layer_0
10
0.005188
20
0.007813
30
0.0
11
0.000000
21
0.000000
31
0.0
0
LINE
8
MCD_Layer_0
10
0.007813
20
0.007813
30
0.0
11
0.000000
21
0.000000
31
0.0
0
LINE
8
MCD_Layer_0
10
0.007813
20
0.001141
30
0.0
11
0.000000
21
0.000000
31
0.0
0
LINE
8
MCD_Layer_0
10
0.001141
20
0.001141
30
0.0
11
0.000000
21
0.000000
31
0.0
0
LINE
8
MCD_Layer_0
10
0.001141
20
0.001625
30
0.0
11
0.000000
21
0.000000
31
0.0
0
LINE
8
MCD_Layer_0
10
0.003938
20
0.003938
30
0.0
11
0.000000
21
0.000000
31
0.0
0
LINE
8
MCD_Layer_0
10
0.003938
20
0.000112
30
0.0
11
0.000000
21
0.000000
31
0.0
0
LINE
8
MCD_Layer_0
10
0.000112
20
0.000112
30
0.0
11
0.000000
21
0.000000
31
0.0
0
LINE
8
MCD_Layer_0
10
0.000142
20
0.000246
30
0.0
11
0.000000
21
0.000000
31
0.0
0
LINE
8
MCD_Layer_0
10
0.000246
20
0.000246
30
0.0
11
0.000000
21
0.000000
31
0.0
0
LINE
8
MCD_Layer_0
10
0.000246
20
0.000026
30
0.0
11
0.000000
21
0.000000
31
0.0
0
LINE
8
MCD_Layer_0
10
0.000026
20
0.000026
30
0.0
11
0.000000
21
0.000000
31
0.0
0
LINE
8
MCD_Layer_0
10
0.000026
20
0.000051
30
0.0
11
0.000000
21
0.000000
31
0.0
0
LINE
8
MCD_Layer_0
10
0.000062
20
0.000062
30
0.0
11
0.000000
21
0.000000
31
0.0
0
LINE
8
MCD_Layer_0
10
0.000062
20
0.000000
30
0.0
11
0.000000
21
0.000000
31
0.0
0
LINE
8
MCD_Layer_0
10
0.000000
20
0.000000
30
0.0
11
0.000000
21
0.000000
31
0.0
0
LINE
8
MCD_Layer_0
10
0.000000
20
0.000000
30
0.0
11
0.000000
21
0.000000
31
0.0
0
LINE
8
MCD_Layer_0
10
0.000000
20
0.000000
30
0.0
11
0.000000
21
0.000000
31
0.0
0
LINE
8
MCD_Layer_0
10
0.000000
20
0.003938
30
0.0
11
0.000000
21
0.000000
31
0.0
0
LINE
8
MCD_Layer_0
10
0.005187
20
0.005187
30
0.0
11
0.000000
21
0.000000
31
0.0
0
LINE
8
MCD_Layer_0
10
0.005187
20
0.007813
30
0.0
11
0.000000
21
0.000000
31
0.0
0
LINE
8
MCD_Layer_0
10
0.007813
20
0.007813
30
0.0
11
0.000000
21
0.000000
31
0.0
0
LINE
8
MCD_Layer_0
10
0.000014
20
0.000000
30
0.0
11
0.000000
21
0.000000
31
0.0
0
LINE
8
MCD_Layer_0
10
0.003938
20
0.003938
30
0.0
11
0.000000
21
0.000000
31
0.0
0
LINE
8
MCD_Layer_0
10
0.003938
20
0.000043
30
0.0
11
0.000000
21
-0.000000
31
0.0
0
LINE
8
MCD_Layer_0
10
-0.000000
20
0.000000
30
0.0
11
0.000000
21
0.000000
31
0.0
0
LINE
8
MCD_Layer_0
10
0.000000
20
0.000000
30
0.0
11
0.000000
21
0.000000
31
0.0
0
LINE
8
MCD_Layer_0
10
0.000000
20
0.000000
30
0.0
11
0.000000
21
0.000000
31
0.0
0
LINE
8
MCD_Layer_0
10
0.007706
20
0.009250
30
0.0
11
0.000000
21
0.000000
31
0.0
0
LINE
8
MCD_Layer_0
10
0.009250
20
0.009250
30
0.0
11
0.000000
21
0.000000
31
0.0
0
LINE
8
MCD_Layer_0
10
0.009250
20
0.000668
30
0.0
11
0.000000
21
0.000000
31
0.0
0
LINE
8
MCD_Layer_0
10
0.000668
20
0.000668
30
0.0
11
0.000000
21
0.000000
31
0.0
0
LINE
8
MCD_Layer_0
10
0.000668
20
0.001016
30
0.0
11
0.000000
21
0.000000
31
0.0
0
LINE
8
MCD_Layer_0
10
0.000000
20
0.003938
30
0.0
11
0.000000
21
0.000000
31
0.0
0
LINE
8
MCD_Layer_0
10
0.005188
20
0.005188
30
0.0
11
0.000000
21
0.000000
31
0.0
0
LINE
8
MCD_Layer_0
10
0.005188
20
0.007813
30
0.0
11
0.000000
21
0.000000
31
0.0
0
LINE
8
MCD_Layer_0
10
0.007813
20
0.007813
30
0.0
11
0.000000
21
0.000000
31
0.0
0
LINE
8
MCD_Layer_0
10
0.007813
20
0.005188
30
0.0
11
0.000000
21
0.000000
31
0.0
0
LINE
8
MCD_Layer_0
10
0.005188
20
0.005188
30
0.0
11
0.000000
21
0.000000
31
0.0
0
LINE
8
MCD_Layer_0
10
0.005188
20
0.005188
30
0.0
11
0.000000
21
0.000000
31
0.0
0
LINE
8
MCD_Layer_0
10
0.003938
20
0.000224
30
0.0
11
0.000000
21
0.000000
31
0.0
0
LINE
8
MCD_Layer_0
10
0.000224
20
0.000224
30
0.0
11
0.000000
21
0.000000
31
0.0
0
LINE
8
MCD_Layer_0
10
0.000224
20
0.003938
30
0.0
11
0.000000
21
0.000000
31
0.0
0
LINE
8
MCD_Layer_0
10
0.005188
20
0.005188
30
0.0
11
0.000000
21
0.000000
31
0.0
0
LINE
8
MCD_Layer_0
10
0.005188
20
0.007813
30
0.0
11
0.000000
21
0.000000
31
0.0
0
LINE
8
MCD_Layer_0
10
0.007813
20
0.007813
30
0.0
11
0.000000
21
0.000000
31
0.0
0
LINE
8
MCD_Layer_0
10
0.007813
20
0.005188
30
0.0
11
0.000000
21
0.000000
31
0.0
0
LINE
8
MCD_Layer_0
10
0.005188
20
0.005188
30
0.0
11
0.000000
21
0.000000
31
0.0
0
LINE
8
MCD_Layer_0
10
0.005188
20
0.005188
30
0.0
11
0.000000
21
0.000000
31
0.0
0
LINE
8
MCD_Layer_0
10
0.003938
20
0.000000
30
0.0
11
0.000000
21
0.000000
31
0.0
0
LINE
8
MCD_Layer_0
10
0.000000
20
0.000122
30
0.0
11
0.000000
21
0.000000
31
0.0
0
LINE
8
MCD_Layer_0
10
0.000122
20
0.000122
30
0.0
11
0.000000
21
0.000000
31
0.0
0
LINE
8
MCD_Layer_0
10
0.000122
20
0.000000
30
0.0
11
0.000000
21
0.000000
31
0.0
0
LINE
8
MCD_Layer_0
10
0.000000
20
0.003938
30
0.0
11
0.000000
21
0.000000
31
0.0
0
LINE
8
MCD_Layer_0
10
0.005188
20
0.005188
30
0.0
11
0.000000
21
0.000000
31
0.0
0
LINE
8
MCD_Layer_0
10
0.005188
20
0.007813
30
0.0
11
0.000000
21
0.000000
31
0.0
0
LINE
8
MCD_Layer_0
10
0.007813
20
0.007813
30
0.0
11
0.000000
21
0.000000
31
0.0
0
LINE
8
MCD_Layer_0
10
0.007813
20
0.005188
30
0.0
11
0.000000
21
0.000000
31
0.0
0
LINE
8
MCD_Layer_0
10
0.005188
20
0.005188
30
0.0
11
0.000000
21
0.000000
31
0.0
0
LINE
8
MCD_Layer_0
10
0.003938
20
0.000000
30
0.0
11
0.000000
21
0.000000
31
0.0
0
LINE
8
MCD_Layer_0
10
0.000000
20
0.003866
30
0.0
11
0.000000
21
0.000000
31
0.0
0
LINE
8
MCD_Layer_0
10
0.005138
20
0.005138
30
0.0
11
0.000000
21
0.000000
31
0.0
0
LINE
8
MCD_Layer_0
10
0.005138
20
0.007700
30
0.0
11
0.000000
21
0.000000
31
0.0
0
LINE
8
MCD_Layer_0
10
0.007700
20
0.007700
30
0.0
11
0.000000
21
0.000000
31
0.0
0
LINE
8
MCD_Layer_0
10
0.007700
20
0.005138
30
0.0
11
0.000000
21
0.000000
31
0.0
0
LINE
8
MCD_Layer_0
10
0.005138
20
0.005138
30
0.0
11
0.000000
21
0.000000
31
0.0
0
LINE
8
MCD_Layer_0
10
0.003866
20
0.000000
30
0.0
11
0.000000
21
0.000000
31
0.0
0
LINE
8
MCD_Layer_0
10
0.000000
20
0.000000
30
0.0
11
0.000000
21
0.000000
31
0.0
0
LINE
8
MCD_Layer_0
10
0.000000
20
0.000000
30
0.0
11
0.000000
21
0.000000
31
0.0
0
LINE
8
MCD_Layer_0
10
0.000000
20
0.000000
30
0.0
11
0.000000
21
0.000000
31
0.0
0
LINE
8
MCD_Layer_0
10
0.000000
20
0.002550
30
0.0
11
0.000000
21
0.000000
31
0.0
0
LINE
8
MCD_Layer_0
10
0.003894
20
0.003894
30
0.0
11
0.000000
21
0.000000
31
0.0
0
LINE
8
MCD_Layer_0
10
0.003894
20
0.007931
30
0.0
11
0.000000
21
0.000000
31
0.0
0
LINE
8
MCD_Layer_0
10
0.007931
20
0.007931
30
0.0
11
0.000000
21
0.000000
31
0.0
0
LINE
8
MCD_Layer_0
10
0.007931
20
0.000000
30
0.0
11
0.000000
21
0.000000
31
0.0
0
LINE
8
MCD_Layer_0
10
0.000000
20
0.007931
30
0.0
11
0.000000
21
0.000000
31
0.0
0
LINE
8
MCD_Layer_0
10
0.007931
20
0.007931
30
0.0
11
0.000000
21
0.000000
31
0.0
0
LINE
8
MCD_Layer_0
10
0.007931
20
0.003894
30
0.0
11
0.000000
21
0.000000
31
0.0
0
LINE
8
MCD_Layer_0
10
0.003894
20
0.003894
30
0.0
11
0.000000
21
0.000000
31
0.0
0
LINE
8
MCD_Layer_0
10
0.002550
20
0.000000
30
0.0
11
0.000000
21
0.000000
31
0.0
0
LINE
8
MCD_Layer_0
10
0.000000
20
0.000241
30
0.0
11
0.000000
21
0.000000
31
0.0
0
LINE
8
MCD_Layer_0
10
0.000241
20
-0.000000
30
0.0
11
0.000000
21
0.000000
31
0.0
0
LINE
8
MCD_Layer_0
10
-0.000000
20
0.000204
30
0.0
11
0.000000
21
0.000000
31
0.0
0
LINE
8
MCD_Layer_0
10
0.000204
20
0.000000
30
0.0
11
0.000000
21
0.000000
31
0.0
0
LINE
8
MCD_Layer_0
10
0.007813
20
0.007813
30
0.0
11
0.000000
21
0.000000
31
0.0
0
LINE
8
MCD_Layer_0
10
0.007813
20
0.000895
30
0.0
11
0.000000
21
0.000000
31
0.0
0
LINE
8
MCD_Layer_0
10
0.000895
20
0.000895
30
0.0
11
0.000000
21
0.000000
31
0.0
0
LINE
8
MCD_Layer_0
10
0.000895
20
0.001953
30
0.0
11
0.000000
21
0.000000
31
0.0
0
LINE
8
MCD_Layer_0
10
0.003938
20
0.003938
30
0.0
11
0.000000
21
0.000000
31
0.0
0
LINE
8
MCD_Layer_0
10
0.003938
20
0.000000
30
0.0
11
0.000000
21
0.000000
31
0.0
0
LINE
8
MCD_Layer_0
10
0.000000
20
0.003938
30
0.0
11
0.000000
21
0.000000
31
0.0
0
LINE
8
MCD_Layer_0
10
0.003938
20
0.003938
30
0.0
11
0.000000
21
0.000000
31
0.0
0
LINE
8
MCD_Layer_0
10
0.001953
20
0.000895
30
0.0
11
0.000000
21
0.000000
31
0.0
0
LINE
8
MCD_Layer_0
10
0.000895
20
0.000895
30
0.0
11
0.000000
21
0.000000
31
0.0
0
LINE
8
MCD_Layer_0
10
0.000895
20
0.007813
30
0.0
11
0.000000
21
-0.000000
31
0.0
0
LINE
8
MCD_Layer_0
10
0.000000
20
0.003275
30
0.0
11
0.000000
21
0.000000
31
0.0
0
LINE
8
MCD_Layer_0
10
0.003900
20
0.003900
30
0.0
11
0.000000
21
0.000000
31
0.0
0
LINE
8
MCD_Layer_0
10
0.003900
20
0.007813
30
0.0
11
0.000000
21
0.000000
31
0.0
0
LINE
8
MCD_Layer_0
10
0.007813
20
0.007813
30
0.0
11
0.000000
21
0.000000
31
0.0
0
LINE
8
MCD_Layer_0
10
0.007813
20
0.003900
30
0.0
11
0.000000
21
0.000000
31
0.0
0
LINE
8
MCD_Layer_0
10
0.003900
20
0.003900
30
0.0
11
0.000000
21
0.000000
31
0.0
0
LINE
8
MCD_Layer_0
10
0.003275
20
0.000244
30
0.0
11
0.000000
21
0.000000
31
0.0
0
LINE
8
MCD_Layer_0
10
0.000244
20
0.000244
30
0.0
11
0.000000
21
0.000000
31
0.0
0
LINE
8
MCD_Layer_0
10
0.000244
20
0.003275
30
0.0
11
0.000000
21
0.000000
31
0.0
0
LINE
8
MCD_Layer_0
10
0.003900
20
0.003900
30
0.0
11
0.000000
21
0.000000
31
0.0
0
LINE
8
MCD_Layer_0
10
0.003900
20
0.007813
30
0.0
11
0.000000
21
0.000000
31
0.0
0
LINE
8
MCD_Layer_0
10
0.007813
20
0.007813
30
0.0
11
0.000000
21
0.000000
31
0.0
0
LINE
8
MCD_Layer_0
10
0.007813
20
0.003900
30
0.0
11
0.000000
21
0.000000
31
0.0
0
LINE
8
MCD_Layer_0
10
0.003900
20
0.003900
30
0.0
11
0.000000
21
0.000000
31
0.0
0
LINE
8
MCD_Layer_0
10
0.003275
20
0.000000
30
0.0
11
0.000000
21
0.000000
31
0.0
0
LINE
8
MCD_Layer_0
10
0.000000
20
0.000122
30
0.0
11
0.000000
21
0.000000
31
0.0
0
LINE
8
MCD_Layer_0
10
0.000122
20
0.000122
30
0.0
11
0.000000
21
0.000000
31
0.0
0
LINE
8
MCD_Layer_0
10
0.000122
20
0.000000
30
0.0
11
0.000000
21
0.000000
31
0.0
0
LINE
8
MCD_Layer_0
10
0.001141
20
0.001141
30
0.0
11
0.000000
21
0.000000
31
0.0
0
LINE
8
MCD_Layer_0
10
0.001141
20
0.001625
30
0.0
11
0.000000
21
0.000000
31
0.0
0
LINE
8
MCD_Layer_0
10
0.003938
20
0.003938
30
0.0
11
0.000000
21
0.000000
31
0.0
0
LINE
8
MCD_Layer_0
10
0.003938
20
0.000120
30
0.0
11
0.000000
21
0.000000
31
0.0
0
LINE
8
MCD_Layer_0
10
0.000120
20
0.000120
30
0.0
11
0.000000
21
0.000000
31
0.0
0
LINE
8
MCD_Layer_0
10
0.000158
20
0.000279
30
0.0
11
0.000000
21
0.000000
31
0.0
0
LINE
8
MCD_Layer_0
10
0.000279
20
0.000279
30
0.0
11
0.000000
21
0.000000
31
0.0
0
LINE
8
MCD_Layer_0
10
0.000279
20
0.000026
30
0.0
11
0.000000
21
0.000000
31
0.0
0
LINE
8
MCD_Layer_0
10
0.000026
20
0.000026
30
0.0
11
0.000000
21
0.000000
31
0.0
0
LINE
8
MCD_Layer_0
10
0.000026
20
0.000051
30
0.0
11
0.000000
21
0.000000
31
0.0
0
LINE
8
MCD_Layer_0
10
0.000062
20
0.000062
30
0.0
11
0.000000
21
0.000000
31
0.0
0
LINE
8
MCD_Layer_0
10
0.000000
20
0.000000
30
0.0
11
0.000000
21
0.000000
31
0.0
0
LINE
8
MCD_Layer_0
10
0.000000
20
0.000000
30
0.0
11
0.000000
21
0.000000
31
0.0
0
LINE
8
MCD_Layer_0
10
0.000000
20
0.003297
30
0.0
11
0.000000
21
0.000000
31
0.0
0
LINE
8
MCD_Layer_0
10
0.003938
20
0.003938
30
0.0
11
0.000000
21
0.000000
31
0.0
0
LINE
8
MCD_Layer_0
10
0.003938
20
0.007813
30
0.0
11
0.000000
21
-0.000000
31
0.0
0
LINE
8
MCD_Layer_0
10
0.000000
20
0.003275
30
0.0
11
0.000000
21
0.000000
31
0.0
0
LINE
8
MCD_Layer_0
10
0.003900
20
0.003900
30
0.0
11
0.000000
21
0.000000
31
0.0
0
LINE
8
MCD_Layer_0
10
0.003900
20
0.007813
30
0.0
11
0.000000
21
0.000000
31
0.0
0
LINE
8
MCD_Layer_0
10
0.007813
20
0.007800
30
0.0
11
0.000000
21
0.000000
31
0.0
0
LINE
8
MCD_Layer_0
10
0.000014
20
0.000000
30
0.0
11
0.000000
21
0.000000
31
0.0
0
LINE
8
MCD_Layer_0
10
0.000042
20
0.003275
30
0.0
11
0.000000
21
0.000000
31
0.0
0
LINE
8
MCD_Layer_0
10
0.007813
20
0.007813
30
0.0
11
0.000000
21
0.000000
31
0.0
0
LINE
8
MCD_Layer_0
10
0.007813
20
0.001141
30
0.0
11
0.000000
21
0.000000
31
0.0
0
LINE
8
MCD_Layer_0
10
0.001141
20
0.001141
30
0.0
11
0.000000
21
0.000000
31
0.0
0
LINE
8
MCD_Layer_0
10
0.001141
20
0.001625
30
0.0
11
0.000000
21
0.000000
31
0.0
0
LINE
8
MCD_Layer_0
10
0.003938
20
0.003938
30
0.0
11
0.000000
21
0.000000
31
0.0
0
LINE
8
MCD_Layer_0
10
0.003938
20
0.000120
30
0.0
11
0.000000
21
0.000000
31
0.0
0
LINE
8
MCD_Layer_0
10
0.000120
20
0.000120
30
0.0
11
0.000000
21
0.000000
31
0.0
0
LINE
8
MCD_Layer_0
10
0.000158
20
0.000279
30
0.0
11
0.000000
21
0.000000
31
0.0
0
LINE
8
MCD_Layer_0
10
0.000279
20
0.000279
30
0.0
11
0.000000
21
0.000000
31
0.0
0
LINE
8
MCD_Layer_0
10
0.000279
20
0.000026
30
0.0
11
0.000000
21
0.000000
31
0.0
0
LINE
8
MCD_Layer_0
10
0.000026
20
0.000026
30
0.0
11
0.000000
21
0.000000
31
0.0
0
LINE
8
MCD_Layer_0
10
0.000026
20
0.000051
30
0.0
11
0.000000
21
0.000000
31
0.0
0
LINE
8
MCD_Layer_0
10
0.000062
20
0.000062
30
0.0
11
0.000000
21
0.000000
31
0.0
0
LINE
8
MCD_Layer_0
10
0.000062
20
0.000000
30
0.0
11
0.000000
21
0.000000
31
0.0
0
LINE
8
MCD_Layer_0
10
0.000000
20
0.003297
30
0.0
11
0.000000
21
0.000000
31
0.0
0
LINE
8
MCD_Layer_0
10
0.003938
20
0.003938
30
0.0
11
0.000000
21
0.000000
31
0.0
0
LINE
8
MCD_Layer_0
10
0.003938
20
0.007813
30
0.0
11
0.000000
21
-0.000000
31
0.0
0
LINE
8
MCD_Layer_0
10
0.007813
20
0.007813
30
0.0
11
0.000000
21
0.000000
31
0.0
0
LINE
8
MCD_Layer_0
10
0.000000
20
0.002625
30
0.0
11
0.000000
21
0.000000
31
0.0
0
LINE
8
MCD_Layer_0
10
0.003906
20
0.003906
30
0.0
11
0.000000
21
0.000000
31
0.0
0
LINE
8
MCD_Layer_0
10
0.003906
20
0.007813
30
0.0
11
0.000000
21
0.000000
31
0.0
0
LINE
8
MCD_Layer_0
10
0.003900
20
0.000224
30
0.0
11
0.000000
21
0.000000
31
0.0
0
LINE
8
MCD_Layer_0
10
0.000224
20
0.000224
30
0.0
11
0.000000
21
0.000000
31
0.0
0
LINE
8
MCD_Layer_0
10
0.003900
20
0.003900
30
0.0
11
0.000000
21
0.000000
31
0.0
0
LINE
8
MCD_Layer_0
10
0.000113
20
0.000000
30
0.0
11
0.000000
21
0.000000
31
0.0
0
LINE
8
MCD_Layer_0
10
0.000000
20
0.003275
30
0.0
11
0.000000
21
0.000000
31
0.0
0
LINE
8
MCD_Layer_0
10
0.003900
20
0.003900
30
0.0
11
0.000000
21
0.000000
31
0.0
0
LINE
8
MCD_Layer_0
10
0.003900
20
0.007813
30
0.0
11
0.000000
21
0.000000
31
0.0
0
LINE
8
MCD_Layer_0
10
0.007813
20
0.007813
30
0.0
11
0.000000
21
0.000000
31
0.0
0
LINE
8
MCD_Layer_0
10
0.007813
20
0.003900
30
0.0
11
0.000000
21
0.000000
31
0.0
0
LINE
8
MCD_Layer_0
10
0.003900
20
0.003900
30
0.0
11
0.000000
21
0.000000
31
0.0
0
LINE
8
MCD_Layer_0
10
0.003275
20
0.000000
30
0.0
11
0.000000
21
0.000000
31
0.0
0
LINE
8
MCD_Layer_0
10
0.000000
20
0.003275
30
0.0
11
0.000000
21
0.000000
31
0.0
0
LINE
8
MCD_Layer_0
10
0.003900
20
0.003900
30
0.0
11
0.000000
21
0.000000
31
0.0
0
LINE
8
MCD_Layer_0
10
0.003900
20
0.007813
30
0.0
11
0.000000
21
0.000000
31
0.0
0
LINE
8
MCD_Layer_0
10
0.007813
20
0.007813
30
0.0
11
0.000000
21
0.000000
31
0.0
0
LINE
8
MCD_Layer_0
10
0.007813
20
0.003900
30
0.0
11
0.000000
21
0.000000
31
0.0
0
LINE
8
MCD_Layer_0
10
0.003900
20
0.003900
30
0.0
11
0.000000
21
0.000000
31
0.0
0
LINE
8
MCD_Layer_0
10
0.003275
20
0.000000
30
0.0
11
0.000000
21
0.000000
31
0.0
0
LINE
8
MCD_Layer_0
10
0.000000
20
0.000000
30
0.0
11
0.000000
21
0.000000
31
0.0
0
LINE
8
MCD_Layer_0
10
0.000000
20
0.000000
30
0.0
11
0.000000
21
0.000000
31
0.0
0
LINE
8
MCD_Layer_0
10
0.000000
20
0.000000
30
0.0
11
0.000000
21
0.000000
31
0.0
0
LINE
8
MCD_Layer_0
10
0.007797
20
0.007797
30
0.0
11
0.000000
21
0.000000
31
0.0
0
LINE
8
MCD_Layer_0
10
0.007797
20
0.003909
30
0.0
11
0.000000
21
0.000000
31
0.0
0
LINE
8
MCD_Layer_0
10
0.003909
20
0.003909
30
0.0
11
0.000000
21
0.000000
31
0.0
0
LINE
8
MCD_Layer_0
10
0.003002
20
0.000033
30
0.0
11
0.000000
21
0.000000
31
0.0
0
LINE
8
MCD_Layer_0
10
0.000033
20
0.003002
30
0.0
11
0.000000
21
0.000000
31
0.0
0
LINE
8
MCD_Layer_0
10
0.003909
20
0.003909
30
0.0
11
0.000000
21
0.000000
31
0.0
0
LINE
8
MCD_Layer_0
10
0.003909
20
0.007797
30
0.0
11
0.000000
21
0.000000
31
0.0
0
LINE
8
MCD_Layer_0
10
0.007744
20
0.007744
30
0.0
11
0.000000
21
0.000000
31
0.0
0
LINE
8
MCD_Layer_0
10
0.007744
20
0.003881
30
0.0
11
0.000000
21
0.000000
31
0.0
0
LINE
8
MCD_Layer_0
10
0.003881
20
0.003881
30
0.0
11
0.000000
21
0.000000
31
0.0
0
LINE
8
MCD_Layer_0
10
0.003506
20
0.000005
30
0.0
11
0.000000
21
0.000000
31
0.0
0
LINE
8
MCD_Layer_0
10
0.000005
20
0.000000
30
0.0
11
0.000000
21
0.000000
31
0.0
0
LINE
8
MCD_Layer_0
10
0.000000
20
0.000005
30
0.0
11
0.000000
21
0.000000
31
0.0
0
LINE
8
MCD_Layer_0
10
0.000005
20
0.003533
30
0.0
11
0.000000
21
0.000000
31
0.0
0
LINE
8
MCD_Layer_0
10
0.003909
20
0.003909
30
0.0
11
0.000000
21
0.000000
31
0.0
0
LINE
8
MCD_Layer_0
10
0.003909
20
0.007797
30
0.0
11
0.000000
21
-0.000000
31
0.0
0
LINE
8
MCD_Layer_0
10
-0.000000
20
0.000000
30
0.0
11
0.000000
21
0.000000
31
0.0
0
LINE
8
MCD_Layer_0
10
0.000000
20
0.000000
30
0.0
11
0.000000
21
0.000000
31
0.0
0
LINE
8
MCD_Layer_0
10
0.000000
20
0.000000
30
0.0
11
0.000000
21
0.000000
31
0.0
0
LINE
8
MCD_Layer_0
10
0.000000
20
0.003228
30
0.0
11
0.000000
21
0.000000
31
0.0
0
LINE
8
MCD_Layer_0
10
0.003853
20
0.003853
30
0.0
11
0.000000
21
0.000000
31
0.0
0
LINE
8
MCD_Layer_0
10
0.003853
20
0.007725
30
0.0
11
0.000000
21
0.000000
31
0.0
0
LINE
8
MCD_Layer_0
10
0.007725
20
0.007725
30
0.0
11
0.000000
21
0.000000
31
0.0
0
LINE
8
MCD_Layer_0
10
0.007725
20
0.003853
30
0.0
11
0.000000
21
0.000000
31
0.0
0
LINE
8
MCD_Layer_0
10
0.003853
20
0.003853
30
0.0
11
0.000000
21
0.000000
31
0.0
0
LINE
8
MCD_Layer_0
10
0.003228
20
0.000000
30
0.0
11
0.000000
21
0.000000
31
0.0
0
LINE
8
MCD_Layer_0
10
0.007719
20
0.000482
30
0.0
11
0.000000
21
0.000000
31
0.0
0
LINE
8
MCD_Layer_0
10
0.000482
20
0.000482
30
0.0
11
0.000000
21
0.000000
31
0.0
0
LINE
8
MCD_Layer_0
10
0.000482
20
0.000969
30
0.0
11
0.000000
21
0.000000
31
0.0
0
LINE
8
MCD_Layer_0
10
0.000000
20
0.000000
30
0.0
11
0.000000
21
0.000000
31
0.0
0
LINE
8
MCD_Layer_0
10
0.007219
20
0.007719
30
0.0
11
0.000000
21
0.000000
31
0.0
0
LINE
8
MCD_Layer_0
10
0.007719
20
0.007719
30
0.0
11
0.000000
21
-0.000000
31
0.0
0
LINE
8
MCD_Layer_0
10
-0.000000
20
0.000000
30
0.0
11
0.000000
21
0.000000
31
0.0
0
LINE
8
MCD_Layer_0
10
0.000000
20
0.000000
30
0.0
11
0.000000
21
0.000000
31
0.0
0
LINE
8
MCD_Layer_0
10
0.000000
20
0.000000
30
0.0
11
0.000000
21
0.000000
31
0.0
0
LINE
8
MCD_Layer_0
10
0.007813
20
0.009250
30
0.0
11
0.000000
21
0.000000
31
0.0
0
LINE
8
MCD_Layer_0
10
0.009250
20
0.009250
30
0.0
11
0.000000
21
0.000000
31
0.0
0
LINE
8
MCD_Layer_0
10
0.009250
20
0.000668
30
0.0
11
0.000000
21
0.000000
31
0.0
0
LINE
8
MCD_Layer_0
10
0.000668
20
0.000668
30
0.0
11
0.000000
21
0.000000
31
0.0
0
LINE
8
MCD_Layer_0
10
0.000668
20
0.000855
30
0.0
11
0.000000
21
0.000000
31
0.0
0
LINE
8
MCD_Layer_0
10
0.007813
20
0.007825
30
0.0
11
0.000000
21
0.000000
31
0.0
0
LINE
8
MCD_Layer_0
10
0.000000
20
0.003281
30
0.0
11
0.000000
21
0.000000
31
0.0
0
LINE
8
MCD_Layer_0
10
0.003906
20
0.003906
30
0.0
11
0.000000
21
0.000000
31
0.0
0
LINE
8
MCD_Layer_0
10
0.003906
20
0.007813
30
0.0
11
0.000000
21
0.000000
31
0.0
0
LINE
8
MCD_Layer_0
10
0.003869
20
0.000000
30
0.0
11
0.000000
21
0.000000
31
0.0
0
LINE
8
MCD_Layer_0
10
0.003866
20
0.003869
30
0.0
11
0.000000
21
-0.000000
31
0.0
0
LINE
8
MCD_Layer_0
10
0.000000
20
0.009625
30
0.0
11
0.000000
21
0.000000
31
0.0
0
LINE
8
MCD_Layer_0
10
0.009625
20
0.000000
30
0.0
11
0.000000
21
0.000000
31
0.0
0
LINE
8
MCD_Layer_0
10
0.000000
20
0.000000
30
0.0
11
0.000000
21
0.000000
31
0.0
0
LINE
8
MCD_Layer_0
10
0.000000
20
0.000000
30
0.0
11
0.000000
21
0.000000
31
0.0
0
LINE
8
MCD_Layer_0
10
0.000000
20
0.000000
30
0.0
11
0.000000
21
0.000000
31
0.0
0
LINE
8
MCD_Layer_0
10
0.000001
20
0.000418
30
0.0
11
0.000000
21
0.000000
31
0.0
0
LINE
8
MCD_Layer_0
10
0.000418
20
0.000001
30
0.0
11
0.000000
21
0.000000
31
0.0
0
LINE
8
MCD_Layer_0
10
0.000001
20
0.000001
30
0.0
11
0.000000
21
-0.000000
31
0.0
0
LINE
8
MCD_Layer_0
10
0.000000
20
0.003256
30
0.0
11
0.000000
21
0.000000
31
0.0
0
LINE
8
MCD_Layer_0
10
0.003919
20
0.003919
30
0.0
11
0.000000
21
0.000000
31
0.0
0
LINE
8
MCD_Layer_0
10
0.003919
20
0.007931
30
0.0
11
0.000000
21
0.000000
31
0.0
0
LINE
8
MCD_Layer_0
10
0.007931
20
0.007931
30
0.0
11
0.000000
21
0.000000
31
0.0
0
LINE
8
MCD_Layer_0
10
0.007931
20
0.000001
30
0.0
11
0.000000
21
0.000000
31
0.0
0
LINE
8
MCD_Layer_0
10
0.000001
20
0.003256
30
0.0
11
0.000000
21
0.000000
31
0.0
0
LINE
8
MCD_Layer_0
10
0.003919
20
0.003919
30
0.0
11
0.000000
21
0.000000
31
0.0
0
LINE
8
MCD_Layer_0
10
0.003919
20
0.007931
30
0.0
11
0.000000
21
0.000000
31
0.0
0
LINE
8
MCD_Layer_0
10
0.007931
20
0.007931
30
0.0
11
0.000000
21
0.000000
31
0.0
0
LINE
8
MCD_Layer_0
10
0.007931
20
0.003919
30
0.0
11
0.000000
21
0.000000
31
0.0
0
LINE
8
MCD_Layer_0
10
0.003919
20
0.003919
30
0.0
11
0.000000
21
0.000000
31
0.0
0
LINE
8
MCD_Layer_0
10
0.003256
20
-0.000000
30
0.0
11
0.000000
21
0.000000
31
0.0
0
LINE
8
MCD_Layer_0
10
-0.000000
20
0.000659
30
0.0
11
0.000000
21
0.000000
31
0.0
0
LINE
8
MCD_Layer_0
10
0.000659
20
0.000000
30
0.0
11
0.000000
21
0.000000
31
0.0
0
LINE
8
MCD_Layer_0
10
0.007931
20
0.007931
30
0.0
11
0.000000
21
0.000000
31
0.0
0
LINE
8
MCD_Layer_0
10
0.007931
20
0.003906
30
0.0
11
0.000000
21
0.000000
31
0.0
0
LINE
8
MCD_Layer_0
10
0.003906
20
0.003906
30
0.0
11
0.000000
21
0.000000
31
0.0
0
LINE
8
MCD_Layer_0
10
0.003094
20
0.000001
30
0.0
11
0.000000
21
0.000000
31
0.0
0
LINE
8
MCD_Layer_0
10
0.000001
20
0.009244
30
0.0
11
0.000000
21
0.000000
31
0.0
0
LINE
8
MCD_Layer_0
10
0.009244
20
0.000001
30
0.0
11
0.000000
21
0.000000
31
0.0
0
LINE
8
MCD_Layer_0
10
0.000001
20
0.003094
30
0.0
11
0.000000
21
0.000000
31
0.0
0
LINE
8
MCD_Layer_0
10
0.003906
20
0.003906
30
0.0
11
0.000000
21
0.000000
31
0.0
0
LINE
8
MCD_Layer_0
10
0.003906
20
0.007931
30
0.0
11
0.000000
21
0.000000
31
0.0
0
LINE
8
MCD_Layer_0
10
0.007931
20
0.007931
30
0.0
11
0.000000
21
0.000000
31
0.0
0
LINE
8
MCD_Layer_0
10
0.007931
20
0.003906
30
0.0
11
0.000000
21
0.000000
31
0.0
0
LINE
8
MCD_Layer_0
10
0.003906
20
0.003906
30
0.0
11
0.000000
21
0.000000
31
0.0
0
LINE
8
MCD_Layer_0
10
0.003406
20
-0.000000
30
0.0
11
0.000000
21
0.000000
31
0.0
0
LINE
8
MCD_Layer_0
10
-0.000000
20
0.000171
30
0.0
11
0.000000
21
0.000000
31
0.0
0
LINE
8
MCD_Layer_0
10
0.000171
20
-0.000000
30
0.0
11
0.000000
21
0.000000
31
0.0
0
LINE
8
MCD_Layer_0
10
-0.000000
20
0.003469
30
0.0
11
0.000000
21
0.000000
31
0.0
0
LINE
8
MCD_Layer_0
10
0.003906
20
0.003906
30
0.0
11
0.000000
21
0.000000
31
0.0
0
LINE
8
MCD_Layer_0
10
0.003906
20
0.007931
30
0.0
11
0.000000
21
-0.000000
31
0.0
0
LINE
8
MCD_Layer_0
10
0.007875
20
0.000496
30
0.0
11
0.000000
21
0.000000
31
0.0
0
LINE
8
MCD_Layer_0
10
0.000496
20
0.000496
30
0.0
11
0.000000
21
0.000000
31
0.0
0
LINE
8
MCD_Layer_0
10
0.000496
20
0.001000
30
0.0
11
0.000000
21
0.000000
31
0.0
0
LINE
8
MCD_Layer_0
10
0.000000
20
0.000000
30
0.0
11
0.000000
21
0.000000
31
0.0
0
LINE
8
MCD_Layer_0
10
0.000001
20
0.000003
30
0.0
11
0.000000
21
0.000000
31
0.0
0
LINE
8
MCD_Layer_0
10
0.000003
20
0.000003
30
0.0
11
0.000000
21
0.000000
31
0.0
0
LINE
8
MCD_Layer_0
10
0.000003
20
0.000001
30
0.0
11
0.000000
21
0.000000
31
0.0
0
LINE
8
MCD_Layer_0
10
0.000000
20
0.000000
30
0.0
11
0.000000
21
0.000000
31
0.0
0
LINE
8
MCD_Layer_0
10
0.007375
20
0.007875
30
0.0
11
0.000000
21
0.000000
31
0.0
0
LINE
8
MCD_Layer_0
10
0.007875
20
0.007875
30
0.0
11
0.000000
21
-0.000000
31
0.0
0
LINE
8
MCD_Layer_0
10
0.007894
20
0.007894
30
0.0
11
0.000000
21
0.000000
31
0.0
0
LINE
8
MCD_Layer_0
10
0.007894
20
0.003900
30
0.0
11
0.000000
21
0.000000
31
0.0
0
LINE
8
MCD_Layer_0
10
0.003900
20
0.003900
30
0.0
11
0.000000
21
0.000000
31
0.0
0
LINE
8
MCD_Layer_0
10
0.003088
20
0.000000
30
0.0
11
0.000000
21
0.000000
31
0.0
0
LINE
8
MCD_Layer_0
10
0.000000
20
0.003088
30
0.0
11
0.000000
21
0.000000
31
0.0
0
LINE
8
MCD_Layer_0
10
0.003900
20
0.003900
30
0.0
11
0.000000
21
0.000000
31
0.0
0
LINE
8
MCD_Layer_0
10
0.003900
20
0.007894
30
0.0
11
0.000000
21
0.000000
31
0.0
0
LINE
8
MCD_Layer_0
10
0.007894
20
0.007894
30
0.0
11
0.000000
21
0.000000
31
0.0
0
LINE
8
MCD_Layer_0
10
0.007894
20
0.003900
30
0.0
11
0.000000
21
0.000000
31
0.0
0
LINE
8
MCD_Layer_0
10
0.003900
20
0.003900
30
0.0
11
0.000000
21
0.000000
31
0.0
0
LINE
8
MCD_Layer_0
10
0.002963
20
-0.000000
30
0.0
11
0.000000
21
0.000000
31
0.0
0
LINE
8
MCD_Layer_0
10
-0.000000
20
0.002994
30
0.0
11
0.000000
21
0.000000
31
0.0
0
LINE
8
MCD_Layer_0
10
0.003900
20
0.003900
30
0.0
11
0.000000
21
0.000000
31
0.0
0
LINE
8
MCD_Layer_0
10
0.003900
20
0.007894
30
0.0
11
0.000000
21
-0.000000
31
0.0
0
LINE
8
MCD_Layer_0
10
0.000000
20
0.000984
30
0.0
11
0.000000
21
0.000000
31
0.0
0
LINE
8
MCD_Layer_0
10
0.000984
20
0.000984
30
0.0
11
0.000000
21
0.000000
31
0.0
0
LINE
8
MCD_Layer_0
10
0.000984
20
0.001969
30
0.0
11
0.000000
21
0.000000
31
0.0
0
LINE
8
MCD_Layer_0
10
0.007806
20
0.007813
30
0.0
11
0.000000
21
0.000000
31
0.0
0
LINE
8
MCD_Layer_0
10
0.007813
20
0.000000
30
0.0
11
0.000000
21
0.000000
31
0.0
0
LINE
8
MCD_Layer_0
10
0.007800
20
0.007800
30
0.0
11
0.000000
21
0.000000
31
0.0
0
LINE
8
MCD_Layer_0
10
0.001950
20
0.001950
30
0.0
11
0.000000
21
0.000000
31
0.0
0
LINE
8
MCD_Layer_0
10
0.001950
20
0.000981
30
0.0
11
0.000000
21
0.000000
31
0.0
0
LINE
8
MCD_Layer_0
10
0.000981
20
0.000981
30
0.0
11
0.000000
21
0.000000
31
0.0
0
LINE
8
MCD_Layer_0
10
0.000981
20
0.007800
30
0.0
11
0.000000
21
-0.000000
31
0.0
0
LINE
8
MCD_Layer_0
10
0.000000
20
0.009237
30
0.0
11
0.000000
21
0.000000
31
0.0
0
LINE
8
MCD_Layer_0
10
0.009237
20
0.000001
30
0.0
11
0.000000
21
0.000000
31
0.0
0
LINE
8
MCD_Layer_0
10
0.000001
20
0.000001
30
0.0
11
0.000000
21
0.000000
31
0.0
0
LINE
8
MCD_Layer_0
10
0.000001
20
0.000002
30
0.0
11
0.000000
21
0.000000
31
0.0
0
LINE
8
MCD_Layer_0
10
0.000002
20
0.000002
30
0.0
11
0.000000
21
0.000000
31
0.0
0
LINE
8
MCD_Layer_0
10
0.000002
20
0.000000
30
0.0
11
0.000000
21
0.000000
31
0.0
0
LINE
8
MCD_Layer_0
10
0.000000
20
0.000000
30
0.0
11
0.000000
21
0.000000
31
0.0
0
LINE
8
MCD_Layer_0
10
0.000000
20
0.000000
30
0.0
11
0.000000
21
0.000000
31
0.0
0
LINE
8
MCD_Layer_0
10
0.000000
20
0.000000
30
0.0
11
0.000000
21
0.000000
31
0.0
0
LINE
8
MCD_Layer_0
10
0.000000
20
0.000000
30
0.0
11
0.000000
21
0.000000
31
0.0
0
LINE
8
MCD_Layer_0
10
0.000000
20
0.000000
30
0.0
11
0.000000
21
0.000000
31
0.0
0
LINE
8
MCD_Layer_0
10
0.000000
20
0.000000
30
0.0
11
0.000000
21
0.000000
31
0.0
0
LINE
8
MCD_Layer_0
10
0.000001
20
0.000001
30
0.0
11
0.000000
21
0.000000
31
0.0
0
LINE
8
MCD_Layer_0
10
0.000001
20
0.000392
30
0.0
11
0.000000
21
0.000000
31
0.0
0
LINE
8
MCD_Layer_0
10
0.000392
20
0.000001
30
0.0
11
0.000000
21
-0.000000
31
0.0
0
LINE
8
MCD_Layer_0
10
0.001563
20
0.007813
30
0.0
11
0.000000
21
0.000000
31
0.0
0
LINE
8
MCD_Layer_0
10
0.007813
20
0.007813
30
0.0
11
0.000000
21
0.000000
31
0.0
0
LINE
8
MCD_Layer_0
10
0.007813
20
0.001172
30
0.0
11
0.000000
21
0.000000
31
0.0
0
LINE
8
MCD_Layer_0
10
0.001172
20
0.000000
30
0.0
11
0.000000
21
0.000000
31
0.0
0
LINE
8
MCD_Layer_0
10
0.000000
20
0.000000
30
0.0
11
0.000000
21
0.000000
31
0.0
0
LINE
8
MCD_Layer_0
10
0.000000
20
0.000000
30
0.0
11
0.000000
21
0.000000
31
0.0
0
LINE
8
MCD_Layer_0
10
0.000000
20
0.001563
30
0.0
11
0.000000
21
-0.000000
31
0.0
0
LINE
8
MCD_Layer_0
10
0.000000
20
0.000031
30
0.0
11
0.000000
21
0.000000
31
0.0
0
LINE
8
MCD_Layer_0
10
0.000003
20
0.000031
30
0.0
11
0.000000
21
0.000000
31
0.0
0
LINE
8
MCD_Layer_0
10
0.000031
20
0.000031
30
0.0
11
0.000000
21
0.000000
31
0.0
0
LINE
8
MCD_Layer_0
10
0.000031
20
0.000003
30
0.0
11
0.000000
21
-0.000000
31
0.0
0
LINE
8
MCD_Layer_0
10
0.007813
20
0.000000
30
0.0
11
0.000000
21
0.000000
31
0.0
0
LINE
8
MCD_Layer_0
10
0.000000
20
0.000003
30
0.0
11
0.000000
21
0.000000
31
0.0
0
LINE
8
MCD_Layer_0
10
0.000003
20
0.000006
30
0.0
11
0.000000
21
0.000000
31
0.0
0
LINE
8
MCD_Layer_0
10
0.000006
20
0.000031
30
0.0
11
0.000000
21
0.000000
31
0.0
0
LINE
8
MCD_Layer_0
10
0.000031
20
0.000031
30
0.0
11
0.000000
21
0.000000
31
0.0
0
LINE
8
MCD_Layer_0
10
0.000031
20
0.000006
30
0.0
11
0.000000
21
-0.000000
31
0.0
0
LINE
8
MCD_Layer_0
10
0.000001
20
0.000006
30
0.0
11
0.000000
21
0.000000
31
0.0
0
LINE
8
MCD_Layer_0
10
0.000006
20
0.000031
30
0.0
11
0.000000
21
0.000000
31
0.0
0
LINE
8
MCD_Layer_0
10
0.000031
20
0.000031
30
0.0
11
0.000000
21
0.000000
31
0.0
0
LINE
8
MCD_Layer_0
10
0.000031
20
0.000003
30
0.0
11
0.000000
21
0.000000
31
0.0
0
LINE
8
MCD_Layer_0
10
0.000003
20
0.000000
30
0.0
11
0.000000
21
0.000000
31
0.0
0
LINE
8
MCD_Layer_0
10
0.000001
20
0.000000
30
0.0
11
0.000000
21
0.000000
31
0.0
0
LINE
8
MCD_Layer_0
10
0.000000
20
0.000000
30
0.0
11
0.000000
21
-0.000000
31
0.0
0
LINE
8
MCD_Layer_0
10
0.000879
20
0.000000
30
0.0
11
0.000000
21
0.000000
31
0.0
0
LINE
8
MCD_Layer_0
10
0.000879
20
0.000000
30
0.0
11
0.000000
21
0.000000
31
0.0
0
LINE
8
MCD_Layer_0
10
0.000293
20
0.000293
30
0.0
11
0.000000
21
0.000000
31
0.0
0
LINE
8
MCD_Layer_0
10
0.000001
20
0.000001
30
0.0
11
0.000000
21
-0.000000
31
0.0
0
LINE
8
MCD_Layer_0
10
0.007812
20
0.000000
30
0.0
11
0.000000
21
0.000000
31
0.0
0
LINE
8
MCD_Layer_0
10
0.000000
20
0.007813
30
0.0
11
0.000000
21
-0.000000
31
0.0
0
LINE
8
MCD_Layer_0
10
0.000031
20
0.000002
30
0.0
11
0.000000
21
0.000000
31
0.0
0
LINE
8
MCD_Layer_0
10
0.000002
20
0.000000
30
0.0
11
0.000000
21
0.000000
31
0.0
0
LINE
8
MCD_Layer_0
10
0.000000
20
0.000002
30
0.0
11
0.000000
21
0.000000
31
0.0
0
LINE
8
MCD_Layer_0
10
0.000002
20
0.000002
30
0.0
11
0.000000
21
0.000000
31
0.0
0
LINE
8
MCD_Layer_0
10
0.000002
20
0.000000
30
0.0
11
0.000000
21
0.000000
31
0.0
0
LINE
8
MCD_Layer_0
10
0.000000
20
0.000000
30
0.0
11
0.000000
21
0.000000
31
0.0
0
LINE
8
MCD_Layer_0
10
0.000006
20
0.000031
30
0.0
11
0.000000
21
-0.000000
31
0.0
0
LINE
8
MCD_Layer_0
10
0.000031
20
0.000000
30
0.0
11
0.000000
21
0.000000
31
0.0
0
LINE
8
MCD_Layer_0
10
0.000006
20
0.000031
30
0.0
11
0.000000
21
0.000000
31
0.0
0
LINE
8
MCD_Layer_0
10
0.000031
20
0.000031
30
0.0
11
0.000000
21
0.000000
31
0.0
0
LINE
8
MCD_Layer_0
10
0.000031
20
0.000006
30
0.0
11
0.000000
21
0.000000
31
0.0
0
LINE
8
MCD_Layer_0
10
0.000006
20
0.000031
30
0.0
11
0.000000
21
0.000000
31
0.0
0
LINE
8
MCD_Layer_0
10
0.000031
20
0.000031
30
0.0
11
0.000000
21
0.000000
31
0.0
0
LINE
8
MCD_Layer_0
10
0.000031
20
0.000006
30
0.0
11
0.000000
21
0.000000
31
0.0
0
LINE
8
MCD_Layer_0
10
0.000006
20
0.000000
30
0.0
11
0.000000
21
-0.000000
31
0.0
0
LINE
8
MCD_Layer_0
10
0.000003
20
0.000031
30
0.0
11
0.000000
21
0.000000
31
0.0
0
LINE
8
MCD_Layer_0
10
0.000031
20
0.000031
30
0.0
11
0.000000
21
0.000000
31
0.0
0
LINE
8
MCD_Layer_0
10
0.000031
20
0.000003
30
0.0
11
0.000000
21
0.000000
31
0.0
0
LINE
8
MCD_Layer_0
10
0.000003
20
0.000000
30
0.0
11
0.000000
21
-0.000000
31
0.0
0
LINE
8
MCD_Layer_0
10
0.001172
20
0.000098
30
0.0
11
0.000000
21
0.000000
31
0.0
0
LINE
8
MCD_Layer_0
10
0.000098
20
0.000031
30
0.0
11
0.000000
21
0.000000
31
0.0
0
LINE
8
MCD_Layer_0
10
0.000031
20
0.000031
30
0.0
11
0.000000
21
0.000000
31
0.0
0
LINE
8
MCD_Layer_0
10
0.000031
20
0.000002
30
0.0
11
0.000000
21
0.000000
31
0.0
0
LINE
8
MCD_Layer_0
10
0.000002
20
0.000000
30
0.0
11
0.000000
21
0.000000
31
0.0
0
LINE
8
MCD_Layer_0
10
0.000000
20
0.000000
30
0.0
11
0.000000
21
0.000000
31
0.0
0
LINE
8
MCD_Layer_0
10
0.000000
20
0.000000
30
0.0
11
0.000000
21
-0.000000
31
0.0
0
LINE
8
MCD_Layer_0
10
0.004688
20
0.000000
30
0.0
11
0.000000
21
0.000000
31
0.0
0
LINE
8
MCD_Layer_0
10
0.000031
20
0.000031
30
0.0
11
0.000000
21
-0.000000
31
0.0
0
LINE
8
MCD_Layer_0
10
0.000003
20
0.000031
30
0.0
11
0.000000
21
0.000000
31
0.0
0
LINE
8
MCD_Layer_0
10
0.000003
20
0.000000
30
0.0
11
0.000000
21
0.000000
31
0.0
0
LINE
8
MCD_Layer_0
10
0.000000
20
0.000003
30
0.0
11
0.000000
21
-0.000000
31
0.0
0
LINE
8
MCD_Layer_0
10
0.007812
20
0.007813
30
0.0
11
0.000000
21
0.000000
31
0.0
0
LINE
8
MCD_Layer_0
10
0.007813
20
0.001563
30
0.0
11
0.000000
21
0.000000
31
0.0
0
LINE
8
MCD_Layer_0
10
0.001563
20
0.000000
30
0.0
11
0.000000
21
0.000000
31
0.0
0
LINE
8
MCD_Layer_0
10
0.001953
20
0.007813
30
0.0
11
0.000000
21
0.000000
31
0.0
0
LINE
8
MCD_Layer_0
10
0.007813
20
0.007813
30
0.0
11
0.000000
21
0.000000
31
0.0
0
LINE
8
MCD_Layer_0
10
0.007813
20
0.001563
30
0.0
11
0.000000
21
0.000000
31
0.0
0
LINE
8
MCD_Layer_0
10
0.001563
20
0.000000
30
0.0
11
0.000000
21
0.000000
31
0.0
0
LINE
8
MCD_Layer_0
10
0.000031
20
0.000000
30
0.0
11
0.000000
21
0.000000
31
0.0
0
LINE
8
MCD_Layer_0
10
0.000031
20
0.000000
30
0.0
11
0.000000
21
0.000000
31
0.0
0
LINE
8
MCD_Layer_0
10
0.000000
20
-0.000000
30
0.0
11
0.000000
21
0.000000
31
0.0
0
LINE
8
MCD_Layer_0
10
-0.000000
20
-0.000000
30
0.0
11
0.000000
21
0.000000
31
0.0
0
LINE
8
MCD_Layer_0
10
-0.000000
20
-0.000001
30
0.0
11
0.000000
21
0.000000
31
0.0
0
LINE
8
MCD_Layer_0
10
-0.000001
20
-0.000001
30
0.0
11
0.000000
21
0.000000
31
0.0
0
LINE
8
MCD_Layer_0
10
-0.000001
20
-0.000000
30
0.0
11
0.000000
21
-0.000000
31
0.0
0
LINE
8
MCD_Layer_0
10
0.007813
20
0.007813
30
0.0
11
0.000000
21
0.000000
31
0.0
0
LINE
8
MCD_Layer_0
10
0.000000
20
0.007813
30
0.0
11
0.000000
21
0.000000
31
0.0
0
LINE
8
MCD_Layer_0
10
0.000003
20
0.000031
30
0.0
11
0.000000
21
0.000000
31
0.0
0
LINE
8
MCD_Layer_0
10
0.000031
20
0.000031
30
0.0
11
0.000000
21
0.000000
31
0.0
0
LINE
8
MCD_Layer_0
10
0.000031
20
0.000003
30
0.0
11
0.000000
21
0.000000
31
0.0
0
LINE
8
MCD_Layer_0
10
0.000003
20
0.000000
30
0.0
11
0.000000
21
-0.000000
31
0.0
0
LINE
8
MCD_Layer_0
10
0.000031
20
0.000003
30
0.0
11
0.000000
21
0.000000
31
0.0
0
LINE
8
MCD_Layer_0
10
0.000003
20
0.000000
30
0.0
11
0.000000
21
0.000000
31
0.0
0
LINE
8
MCD_Layer_0
10
0.000000
20
0.000003
30
0.0
11
0.000000
21
0.000000
31
0.0
0
LINE
8
MCD_Layer_0
10
0.000003
20
0.000031
30
0.0
11
0.000000
21
-0.000000
31
0.0
0
LINE
8
MCD_Layer_0
10
0.000031
20
0.000006
30
0.0
11
0.000000
21
0.000000
31
0.0
0
LINE
8
MCD_Layer_0
10
0.000006
20
0.000000
30
0.0
11
0.000000
21
0.000000
31
0.0
0
LINE
8
MCD_Layer_0
10
0.002734
20
0.007813
30
0.0
11
0.000000
21
0.000000
31
0.0
0
LINE
8
MCD_Layer_0
10
0.007813
20
0.007813
30
0.0
11
0.000000
21
0.000000
31
0.0
0
LINE
8
MCD_Layer_0
10
0.007813
20
0.003516
30
0.0
11
0.000000
21
0.000000
31
0.0
0
LINE
8
MCD_Layer_0
10
0.003516
20
0.000000
30
0.0
11
0.000000
21
0.000000
31
0.0
0
LINE
8
MCD_Layer_0
10
0.000031
20
0.000031
30
0.0
11
0.000000
21
-0.000000
31
0.0
0
LINE
8
MCD_Layer_0
10
0.000031
20
0.000000
30
0.0
11
0.000000
21
0.000000
31
0.0
0
LINE
8
MCD_Layer_0
10
0.000000
20
0.000031
30
0.0
11
0.000000
21
0.000000
31
0.0
0
LINE
8
MCD_Layer_0
10
0.007813
20
0.007813
30
0.0
11
0.000000
21
0.000000
31
0.0
0
LINE
8
MCD_Layer_0
10
0.007813
20
0.000000
30
0.0
11
0.000000
21
0.000000
31
0.0
0
LINE
8
MCD_Layer_0
10
0.007812
20
0.000000
30
0.0
11
0.000000
21
0.000000
31
0.0
0
LINE
8
MCD_Layer_0
10
0.000031
20
0.000001
30
0.0
11
0.000000
21
0.000000
31
0.0
0
LINE
8
MCD_Layer_0
10
0.000001
20
0.000000
30
0.0
11
0.000000
21
0.000000
31
0.0
0
LINE
8
MCD_Layer_0
10
0.000001
20
0.000001
30
0.0
11
0.000000
21
-0.000000
31
0.0
0
LINE
8
MCD_Layer_0
10
0.000003
20
0.000000
30
0.0
11
0.000000
21
0.000000
31
0.0
0
LINE
8
MCD_Layer_0
10
0.000011
20
0.000000
30
0.0
11
0.000000
21
0.000000
31
0.0
0
LINE
8
MCD_Layer_0
10
0.000000
20
0.000003
30
0.0
11
0.000000
21
0.000000
31
0.0
0
LINE
8
MCD_Layer_0
10
0.000003
20
0.000031
30
0.0
11
0.000000
21
-0.000000
31
0.0
0
LINE
8
MCD_Layer_0
10
0.000031
20
0.000031
30
0.0
11
0.000000
21
0.000000
31
0.0
0
LINE
8
MCD_Layer_0
10
0.000031
20
0.000000
30
0.0
11
0.000000
21
0.000000
31
0.0
0
LINE
8
MCD_Layer_0
10
0.000122
20
0.000122
30
0.0
11
0.000000
21
-0.000000
31
0.0
0
LINE
8
MCD_Layer_0
10
0.000003
20
-0.000000
30
0.0
11
0.000000
21
0.000000
31
0.0
0
LINE
8
MCD_Layer_0
10
-0.000000
20
-0.000000
30
0.0
11
0.000000
21
0.000000
31
0.0
0
LINE
8
MCD_Layer_0
10
-0.000000
20
-0.000000
30
0.0
11
0.000000
21
0.000000
31
0.0
0
LINE
8
MCD_Layer_0
10
-0.000000
20
-0.000000
30
0.0
11
0.000000
21
-0.000000
31
0.0
0
LINE
8
MCD_Layer_0
10
0.007813
20
0.000000
30
0.0
11
0.000000
21
0.000000
31
0.0
0
LINE
8
MCD_Layer_0
10
0.000000
20
0.000006
30
0.0
11
0.000000
21
0.000000
31
0.0
0
LINE
8
MCD_Layer_0
10
0.000006
20
0.000031
30
0.0
11
0.000000
21
0.000000
31
0.0
0
LINE
8
MCD_Layer_0
10
0.000031
20
0.000031
30
0.0
11
0.000000
21
0.000000
31
0.0
0
LINE
8
MCD_Layer_0
10
0.000031
20
0.000006
30
0.0
11
0.000000
21
-0.000000
31
0.0
0
LINE
8
MCD_Layer_0
10
0.007812
20
0.007813
30
0.0
11
0.000000
21
0.000000
31
0.0
0
LINE
8
MCD_Layer_0
10
0.007813
20
0.000000
30
0.0
11
0.000000
21
-0.000000
31
0.0
0
LINE
8
MCD_Layer_0
10
0.000031
20
0.000002
30
0.0
11
0.000000
21
0.000000
31
0.0
0
LINE
8
MCD_Layer_0
10
0.000002
20
0.000000
30
0.0
11
0.000000
21
0.000000
31
0.0
0
LINE
8
MCD_Layer_0
10
0.000000
20
0.000000
30
0.0
11
0.000000
21
0.000000
31
0.0
0
LINE
8
MCD_Layer_0
10
0.000000
20
0.000000
30
0.0
11
0.000000
21
0.000000
31
0.0
0
LINE
8
MCD_Layer_0
10
0.000000
20
0.000000
30
0.0
11
0.000000
21
0.000000
31
0.0
0
LINE
8
MCD_Layer_0
10
0.000000
20
0.000000
30
0.0
11
0.000000
21
0.000000
31
0.0
0
LINE
8
MCD_Layer_0
10
0.000031
20
0.000031
30
0.0
11
0.000000
21
0.000000
31
0.0
0
LINE
8
MCD_Layer_0
10
0.000031
20
0.000000
30
0.0
11
0.000000
21
0.000000
31
0.0
0
LINE
8
MCD_Layer_0
10
0.007812
20
0.000031
30
0.0
11
0.000000
21
0.000000
31
0.0
0
LINE
8
MCD_Layer_0
10
0.000031
20
0.007813
30
0.0
11
0.000000
21
0.000000
31
0.0
0
LINE
8
MCD_Layer_0
10
0.000031
20
0.000000
30
0.0
11
0.000000
21
-0.000000
31
0.0
0
LINE
8
MCD_Layer_0
10
0.000031
20
0.000006
30
0.0
11
0.000000
21
0.000000
31
0.0
0
LINE
8
MCD_Layer_0
10
0.000006
20
0.000000
30
0.0
11
0.000000
21
0.000000
31
0.0
0
LINE
8
MCD_Layer_0
10
-0.000001
20
0.000031
30
0.0
11
0.000000
21
-0.000000
31
0.0
0
LINE
8
MCD_Layer_0
10
0.004688
20
0.007813
30
0.0
11
0.000000
21
0.000000
31
0.0
0
LINE
8
MCD_Layer_0
10
0.006250
20
0.004688
30
0.0
11
0.000000
21
0.000000
31
0.0
0
LINE
8
MCD_Layer_0
10
0.004688
20
0.003516
30
0.0
11
0.000000
21
0.000000
31
0.0
0
LINE
8
MCD_Layer_0
10
0.003516
20
0.004688
30
0.0
11
0.000000
21
0.000000
31
0.0
0
LINE
8
MCD_Layer_0
10
0.004688
20
0.006250
30
0.0
11
0.000000
21
0.000000
31
0.0
0
LINE
8
MCD_Layer_0
10
0.006250
20
0.004688
30
0.0
11
0.000000
21
0.000000
31
0.0
0
LINE
8
MCD_Layer_0
10
0.004688
20
0.003516
30
0.0
11
0.000000
21
0.000000
31
0.0
0
LINE
8
MCD_Layer_0
10
0.003516
20
0.004688
30
0.0
11
0.000000
21
0.000000
31
0.0
0
LINE
8
MCD_Layer_0
10
0.004688
20
0.006250
30
0.0
11
0.000000
21
0.000000
31
0.0
0
LINE
8
MCD_Layer_0
10
0.004688
20
0.002734
30
0.0
11
0.000000
21
0.000000
31
0.0
0
LINE
8
MCD_Layer_0
10
0.002734
20
0.001563
30
0.0
11
0.000000
21
0.000000
31
0.0
0
LINE
8
MCD_Layer_0
10
0.004688
20
0.002734
30
0.0
11
0.000000
21
0.000000
31
0.0
0
LINE
8
MCD_Layer_0
10
0.002734
20
0.001563
30
0.0
11
0.000000
21
-0.000000
31
0.0
0
LINE
8
MCD_Layer_0
10
0.000001
20
0.000001
30
0.0
11
0.000000
21
0.000000
31
0.0
0
LINE
8
MCD_Layer_0
10
0.000055
20
0.000055
30
0.0
11
0.000000
21
-0.000000
31
0.0
0
LINE
8
MCD_Layer_0
10
0.001953
20
0.000220
30
0.0
11
0.000000
21
0.000000
31
0.0
0
LINE
8
MCD_Layer_0
10
0.000220
20
0.000073
30
0.0
11
0.000000
21
0.000000
31
0.0
0
LINE
8
MCD_Layer_0
10
0.000073
20
0.000011
30
0.0
11
0.000000
21
0.000000
31
0.0
0
LINE
8
MCD_Layer_0
10
0.000011
20
0.000000
30
0.0
11
0.000000
21
0.000000
31
0.0
0
LINE
8
MCD_Layer_0
10
0.000000
20
0.000011
30
0.0
11
0.000000
21
0.000000
31
0.0
0
LINE
8
MCD_Layer_0
10
0.000011
20
0.000073
30
0.0
11
0.000000
21
0.000000
31
0.0
0
LINE
8
MCD_Layer_0
10
0.000073
20
0.000220
30
0.0
11
0.000000
21
0.000000
31
0.0
0
LINE
8
MCD_Layer_0
10
0.007813
20
0.007813
30
0.0
11
0.000000
21
0.000000
31
0.0
0
LINE
8
MCD_Layer_0
10
0.001953
20
0.000220
30
0.0
11
0.000000
21
0.000000
31
0.0
0
LINE
8
MCD_Layer_0
10
0.000073
20
0.000073
30
0.0
11
0.000000
21
0.000000
31
0.0
0
LINE
8
MCD_Layer_0
10
0.000073
20
0.000073
30
0.0
11
0.000000
21
0.000000
31
0.0
0
LINE
8
MCD_Layer_0
10
0.001953
20
0.007813
30
0.0
11
0.000000
21
0.000000
31
0.0
0
LINE
8
MCD_Layer_0
10
0.007813
20
0.007813
30
0.0
11
0.000000
21
0.000000
31
0.0
0
LINE
8
MCD_Layer_0
10
0.007813
20
0.001953
30
0.0
11
0.000000
21
-0.000000
31
0.0
0
LINE
8
MCD_Layer_0
10
0.000001
20
0.000001
30
0.0
11
0.000000
21
0.000000
31
0.0
0
LINE
8
MCD_Layer_0
10
0.000763
20
0.000244
30
0.0
11
0.000000
21
0.000000
31
0.0
0
LINE
8
MCD_Layer_0
10
3.147050
20
3.147050
30
0.0
11
0.000000
21
0.000000
31
0.0
0
LINE
8
MCD_Layer_0
10
1.841609
20
1.841609
30
0.0
11
0.000000
21
0.000000
31
0.0
0
LINE
8
MCD_Layer_0
10
0.000763
20
0.000763
30
0.0
11
0.000000
21
0.000000
31
0.0
0
LINE
8
MCD_Layer_0
10
0.000243
20
0.000243
30
0.0
11
0.000000
21
0.000000
31
0.0
0
LINE
8
MCD_Layer_0
10
0.000245
20
0.000245
30
0.0
11
0.000000
21
0.000000
31
0.0
0
LINE
8
MCD_Layer_0
10
0.000761
20
0.000761
30
0.0
11
0.000000
21
0.000000
31
0.0
0
LINE
8
MCD_Layer_0
10
1.841591
20
1.841591
30
0.0
11
0.000000
21
0.000000
31
0.0
0
LINE
8
MCD_Layer_0
10
3.149797
20
3.149797
30
0.0
11
0.000000
21
0.000000
31
0.0
0
LINE
8
MCD_Layer_0
10
0.000245
20
0.000245
30
0.0
11
0.000000
21
0.000000
31
0.0
0
LINE
8
MCD_Layer_0
10
0.000761
20
0.000761
30
0.0
11
0.000000
21
0.000000
31
0.0
0
LINE
8
MCD_Layer_0
10
1.841590
20
1.841591
30
0.0
11
0.000000
21
0.000000
31
0.0
0
LINE
8
MCD_Layer_0
10
3.149796
20
3.149797
30
0.0
11
0.000000
21
0.000000
31
0.0
0
LINE
8
MCD_Layer_0
10
0.000001
20
0.000001
30
0.0
11
0.000000
21
0.000000
31
0.0
0
LINE
8
MCD_Layer_0
10
0.000763
20
0.000244
30
0.0
11
0.000000
21
0.000000
31
0.0
0
LINE
8
MCD_Layer_0
10
3.147049
20
3.147049
30
0.0
11
0.000000
21
0.000000
31
0.0
0
LINE
8
MCD_Layer_0
10
1.841608
20
1.841608
30
0.0
11
0.000000
21
0.000000
31
0.0
0
LINE
8
MCD_Layer_0
10
0.000763
20
0.000763
30
0.0
11
0.000000
21
0.000000
31
0.0
0
LINE
8
MCD_Layer_0
10
0.000243
20
0.000243
30
0.0
11
0.000000
21
0.000000
31
0.0
0
LINE
8
MCD_Layer_0
10
8192.001976
20
8192.005882
30
0.0
11
0.000000
21
0.000000
31
0.0
0
LINE
8
MCD_Layer_0
10
8192.005882
20
0.000000
30
0.0
11
0.000000
21
0.000000
31
0.0
0
LINE
8
MCD_Layer_0
10
8192.005917
20
0.000000
30
0.0
11
0.000000
21
0.000000
31
0.0
0
LINE
8
MCD_Layer_0
10
8192.001976
20
-0.000000
30
0.0
11
0.000000
21
0.000000
31
0.0
0
LINE
8
MCD_Layer_0
10
8192.002010
20
-0.000000
30
0.0
11
0.000000
21
0.000000
31
0.0
0
LINE
8
MCD_Layer_0
10
8192.005938
20
8192.005941
30
0.0
11
0.000000
21
0.000000
31
0.0
0
LINE
8
MCD_Layer_0
10
8192.005941
20
0.000000
30
0.0
11
0.000000
21
0.000000
31
0.0
0
LINE
8
MCD_Layer_0
10
8192.005946
20
0.000000
30
0.0
11
0.000000
21
0.000000
31
0.0
0
LINE
8
MCD_Layer_0
10
8192.005938
20
-0.000000
30
0.0
11
0.000000
21
0.000000
31
0.0
0
LINE
8
MCD_Layer_0
10
8192.005930
20
-0.000000
30
0.0
11
0.000000
21
0.000000
31
0.0
0
ARC
8
MCD_Layer_0
10
0.419477
20
0.342869
40
0.541749
50
219.258292
51
66.297996
0
ARC
8
MCD_Layer_0
10
0.000000
20
0.000000
40
0.000000
50
180.000000
51
174.163741
0
ARC
8
MCD_Layer_0
10
0.000008
20
0.000000
40
0.000008
50
180.000000
51
175.603645
0
ARC
8
MCD_Layer_0
10
0.000029
20
0.000026
40
0.000039
50
221.334460
51
122.724393
0
ARC
8
MCD_Layer_0
10
0.607811
20
0.302576
40
0.678960
50
206.464662
51
98.897015
0
ARC
8
MCD_Layer_0
10
0.000000
20
0.000000
40
0.000000
50
180.000000
51
0.139689
0
ARC
8
MCD_Layer_0
10
0.000006
20
0.000000
40
0.000006
50
180.000000
51
176.902703
0
ARC
8
MCD_Layer_0
10
0.000000
20
0.000000
40
0.000000
50
180.000000
51
90.000000
0
ARC
8
MCD_Layer_0
10
0.000000
20
0.000000
40
0.000000
50
180.000000
51
1.795978
0
ARC
8
MCD_Layer_0
10
0.411826
20
-0.032021
40
0.428294
50
176.211928
51
161.186251
0
ARC
8
MCD_Layer_0
10
0.000000
20
0.000000
40
0.000000
50
10.591122
51
269.484997
0
ARC
8
MCD_Layer_0
10
0.000000
20
0.000000
40
0.000015
50
269.484997
51
177.839291
0
ARC
8
MCD_Layer_0
10
0.427684
20
0.195853
40
0.455493
50
205.460540
51
95.136295
0
ARC
8
MCD_Layer_0
10
0.000025
20
0.000266
40
0.000267
50
264.565888
51
330.804142
0
ARC
8
MCD_Layer_0
10
0.000025
20
0.000266
40
0.000267
50
264.565887
51
330.804144
0
ARC
8
MCD_Layer_0
10
0.000000
20
0.000000
40
0.000000
50
180.000000
51
179.847793
0
ARC
8
MCD_Layer_0
10
0.003258
20
0.001630
40
0.003640
50
206.559515
51
79.739194
0
ARC
8
MCD_Layer_0
10
0.000000
20
0.000000
40
0.000002
50
180.000000
51
179.377777
0
ARC
8
MCD_Layer_0
10
0.000000
20
0.000000
40
0.000002
50
55.088968
51
0.816836
0
ARC
8
MCD_Layer_0
10
0.000000
20
0.000000
40
0.000000
50
1.306185
51
360.000000
0
ARC
8
MCD_Layer_0
10
0.000000
20
0.000000
40
0.000000
50
180.000000
51
179.941366
0
ARC
8
MCD_Layer_0
10
0.000000
20
0.000000
40
0.000001
50
180.000000
51
178.082147
0
ARC
8
MCD_Layer_0
10
0.000023
20
0.000000
40
0.000023
50
180.204009
51
171.765645
0
ARC
8
MCD_Layer_0
10
0.000114
20
0.000020
40
0.000115
50
190.045253
51
141.568628
0
ARC
8
MCD_Layer_0
10
0.001130
20
0.000093
40
0.001134
50
184.701278
51
142.756239
0
ARC
8
MCD_Layer_0
10
0.003138
20
0.001187
40
0.003355
50
200.727825
51
105.174832
0
ARC
8
MCD_Layer_0
10
0.003359
20
0.003701
40
0.004998
50
227.770925
51
34.573795
0
ARC
8
MCD_Layer_0
10
0.004538
20
0.004819
40
0.006619
50
226.722758
51
47.754456
0
ARC
8
MCD_Layer_0
10
-0.000014
20
0.000536
40
0.000538
50
271.328223
51
306.419831
0
ARC
8
MCD_Layer_0
10
0.000000
20
0.000000
40
0.000023
50
6.296143
51
216.978394
0
ARC
8
MCD_Layer_0
10
0.000000
20
0.000000
40
0.000000
50
179.738888
51
360.000000
0
ARC
8
MCD_Layer_0
10
0.000000
20
0.000000
40
0.000000
50
169.982996
51
60.544509
0
ARC
8
MCD_Layer_0
10
0.003238
20
0.001779
40
0.003694
50
208.785931
51
82.074885
0
ARC
8
MCD_Layer_0
10
0.003236
20
0.002241
40
0.003938
50
214.714653
51
70.900848
0
ARC
8
MCD_Layer_0
10
0.003256
20
0.001932
40
0.003787
50
210.691638
51
80.109613
0
ARC
8
MCD_Layer_0
10
0.000000
20
0.000000
40
0.000000
50
179.742002
51
360.000000
0
ARC
8
MCD_Layer_0
10
0.000000
20
0.000000
40
0.000000
50
180.000000
51
179.756112
0
ARC
8
MCD_Layer_0
10
0.000023
20
0.000000
40
0.000021
50
173.760782
51
173.717990
0
ARC
8
MCD_Layer_0
10
0.000153
20
0.000023
40
0.000153
50
188.154535
51
148.078630
0
ARC
8
MCD_Layer_0
10
0.001212
20
0.000083
40
0.001214
50
183.940278
51
138.351016
0
ARC
8
MCD_Layer_0
10
0.004424
20
0.002285
40
0.004979
50
207.321445
51
113.694378
0
ARC
8
MCD_Layer_0
10
-0.000044
20
0.000618
40
0.000621
50
273.870334
51
304.137301
0
ARC
8
MCD_Layer_0
10
0.000000
20
0.000000
40
0.000023
50
6.282010
51
202.734271
0
ARC
8
MCD_Layer_0
10
0.000000
20
0.000000
40
0.000000
50
180.000000
51
178.342661
0
ARC
8
MCD_Layer_0
10
0.000000
20
0.000000
40
0.000000
50
180.000000
51
8.229563
0
ARC
8
MCD_Layer_0
10
0.000000
20
0.000000
40
0.000000
50
180.000000
51
178.097536
0
ARC
8
MCD_Layer_0
10
0.000023
20
0.000000
40
0.000023
50
179.492326
51
171.770437
0
ARC
8
MCD_Layer_0
10
0.000114
20
0.000020
40
0.000115
50
190.089443
51
141.830735
0
ARC
8
MCD_Layer_0
10
0.001125
20
0.000092
40
0.001129
50
184.686138
51
142.687988
0
ARC
8
MCD_Layer_0
10
0.002827
20
0.001331
40
0.003125
50
205.218376
51
100.641561
0
ARC
8
MCD_Layer_0
10
0.000009
20
0.000304
40
0.000304
50
268.312725
51
315.732613
0
ARC
8
MCD_Layer_0
10
0.003325
20
0.002151
40
0.003960
50
212.894900
51
71.507552
0
ARC
8
MCD_Layer_0
10
0.003333
20
0.001833
40
0.003806
50
208.823520
51
78.953770
0
ARC
8
MCD_Layer_0
10
0.000000
20
0.000000
40
0.000000
50
180.000000
51
21.901216
0
ARC
8
MCD_Layer_0
10
0.000000
20
0.000000
40
0.000000
50
180.000000
51
178.921942
0
ARC
8
MCD_Layer_0
10
0.000002
20
0.000000
40
0.000002
50
179.931957
51
168.110847
0
ARC
8
MCD_Layer_0
10
0.000032
20
0.000000
40
0.000032
50
180.000141
51
164.181582
0
ARC
8
MCD_Layer_0
10
0.000002
20
0.000000
40
0.000002
50
180.002525
51
24.848358
0
ARC
8
MCD_Layer_0
10
0.000041
20
0.000019
40
0.000046
50
205.079130
51
99.458723
0
ARC
8
MCD_Layer_0
10
0.000001
20
0.000000
40
0.000000
50
180.000000
51
19.727927
0
ARC
8
MCD_Layer_0
10
0.000000
20
0.000000
40
0.000000
50
180.000000
51
14.955185
0
ARC
8
MCD_Layer_0
10
-0.000000
20
0.000000
40
0.000000
50
0.134871
51
360.000000
0
ARC
8
MCD_Layer_0
10
0.000000
20
0.000000
40
0.000001
50
180.000000
51
179.653220
0
ARC
8
MCD_Layer_0
10
0.000002
20
0.000000
40
0.000002
50
192.334224
51
165.513164
0
ARC
8
MCD_Layer_0
10
0.001400
20
0.000076
40
0.001402
50
183.096762
51
175.772439
0
ARC
8
MCD_Layer_0
10
0.000953
20
0.000631
40
0.001143
50
213.510550
51
75.433697
0
ARC
8
MCD_Layer_0
10
0.000004
20
0.000000
40
0.000004
50
180.000000
51
17.772810
0
ARC
8
MCD_Layer_0
10
0.000076
20
0.000003
40
0.000076
50
182.935220
51
158.942838
0
ARC
8
MCD_Layer_0
10
0.000238
20
0.000089
40
0.000254
50
200.456072
51
109.907111
0
ARC
8
MCD_Layer_0
10
0.003547
20
0.000440
40
0.003574
50
187.070211
51
149.222984
0
ARC
8
MCD_Layer_0
10
0.000061
20
0.000453
40
0.000456
50
262.439006
51
337.847443
0
ARC
8
MCD_Layer_0
10
0.000000
20
0.000000
40
0.000001
50
180.000000
51
0.456800
0
ARC
8
MCD_Layer_0
10
0.000026
20
0.000000
40
0.000026
50
179.997790
51
179.997438
0
ARC
8
MCD_Layer_0
10
0.001803
20
0.000596
40
0.001899
50
198.277195
51
146.495166
0
ARC
8
MCD_Layer_0
10
0.000096
20
0.000416
40
0.000427
50
257.055363
51
344.497652
0
ARC
8
MCD_Layer_0
10
0.000014
20
0.000334
40
0.000334
50
267.580920
51
302.081516
0
ARC
8
MCD_Layer_0
10
0.000110
20
-0.000021
40
0.000112
50
169.256421
51
136.930166
0
ARC
8
MCD_Layer_0
10
0.000001
20
0.000000
40
0.000001
50
140.013007
51
360.000000
0
ARC
8
MCD_Layer_0
10
0.000000
20
0.000000
40
0.000000
50
180.000000
51
150.191612
0
ARC
8
MCD_Layer_0
10
0.000000
20
0.000000
40
0.000000
50
180.000000
51
175.559560
0
ARC
8
MCD_Layer_0
10
0.002592
20
0.001895
40
0.003213
50
216.187799
51
65.251832
0
ARC
8
MCD_Layer_0
10
0.000036
20
0.000255
40
0.000255
50
262.371511
51
336.566737
0
ARC
8
MCD_Layer_0
10
0.000000
20
0.000000
40
0.000003
50
43.672349
51
3.863778
0
ARC
8
MCD_Layer_0
10
0.000000
20
0.000000
40
0.000000
50
0.359814
51
360.000000
0
ARC
8
MCD_Layer_0
10
0.000000
20
0.000000
40
0.000000
50
179.870013
51
360.000000
0
ARC
8
MCD_Layer_0
10
0.000011
20
0.000000
40
0.000011
50
178.978862
51
177.664728
0
ARC
8
MCD_Layer_0
10
0.000097
20
0.000010
40
0.000097
50
185.843682
51
151.699988
0
ARC
8
MCD_Layer_0
10
0.000938
20
0.000077
40
0.000941
50
184.705704
51
142.305564
0
ARC
8
MCD_Layer_0
10
0.001969
20
0.001146
40
0.002278
50
210.200850
51
92.358665
0
ARC
8
MCD_Layer_0
10
0.000000
20
0.000000
40
0.000001
50
180.000000
51
177.141477
0
ARC
8
MCD_Layer_0
10
0.000000
20
0.000000
40
0.000000
50
180.000000
51
3.567191
0
ARC
8
MCD_Layer_0
10
0.002590
20
0.001795
40
0.003157
50
214.810339
51
69.363482
0
ARC
8
MCD_Layer_0
10
0.002594
20
0.001757
40
0.003133
50
214.119989
51
69.262582
0
ARC
8
MCD_Layer_0
10
0.002594
20
0.001895
40
0.003212
50
216.150301
51
65.270877
0
ARC
8
MCD_Layer_0
10
0.000000
20
0.000000
40
0.000000
50
180.000000
51
164.217264
0
ARC
8
MCD_Layer_0
10
0.001947
20
0.001578
40
0.002506
50
219.017151
51
58.161057
0
ARC
8
MCD_Layer_0
10
0.001634
20
0.002181
40
0.002726
50
233.158683
51
34.014777
0
ARC
8
MCD_Layer_0
10
-0.000000
20
0.000000
40
0.000000
50
180.000000
51
44.261706
0
ARC
8
MCD_Layer_0
10
0.001658
20
0.002226
40
0.002775
50
233.319908
51
33.391023
0
ARC
8
MCD_Layer_0
10
0.000000
20
0.000000
40
0.000000
50
0.229524
51
360.000000
0
ARC
8
MCD_Layer_0
10
0.000000
20
0.000000
40
0.000000
50
180.000000
51
179.532830
0
ARC
8
MCD_Layer_0
10
0.001988
20
0.001585
40
0.002542
50
218.578000
51
58.507059
0
ARC
8
MCD_Layer_0
10
0.001659
20
0.002226
40
0.002775
50
233.306383
51
33.403869
0
ARC
8
MCD_Layer_0
10
-0.000000
20
0.000000
40
0.000000
50
180.000000
51
0.000490
0
ARC
8
MCD_Layer_0
10
0.000000
20
0.000000
40
0.000000
50
180.000000
51
179.985147
0
ARC
8
MCD_Layer_0
10
0.001987
20
0.001585
40
0.002543
50
218.589506
51
58.493872
0
ARC
8
MCD_Layer_0
10
0.000000
20
0.000000
40
0.000002
50
215.388423
51
162.914071
0
ARC
8
MCD_Layer_0
10
0.001950
20
0.001583
40
0.002516
50
219.138038
51
58.070308
0
ARC
8
MCD_Layer_0
10
0.001953
20
0.001584
40
0.002514
50
219.033761
51
58.119691
0
ARC
8
MCD_Layer_0
10
0.001642
20
0.002187
40
0.002734
50
233.118774
51
34.069017
0
ARC
8
MCD_Layer_0
10
0.000000
20
0.000000
40
0.000000
50
180.000000
51
162.914071
0
ARC
8
MCD_Layer_0
10
0.001953
20
0.001584
40
0.002515
50
219.038193
51
58.114522
0
ARC
8
MCD_Layer_0
10
0.001969
20
0.001265
40
0.002340
50
212.720927
51
74.111878
0
ARC
8
MCD_Layer_0
10
0.000041
20
0.000025
40
0.000048
50
211.438073
51
63.767034
0
ARC
8
MCD_Layer_0
10
0.000031
20
0.000000
40
0.000031
50
180.001559
51
108.964892
0
ARC
8
MCD_Layer_0
10
0.000000
20
0.000000
40
0.000000
50
180.000000
51
177.037616
0
ARC
8
MCD_Layer_0
10
0.000000
20
0.000000
40
0.000000
50
180.000000
51
179.709161
0
ARC
8
MCD_Layer_0
10
0.000048
20
0.000000
40
0.000048
50
180.007180
51
175.721119
0
ARC
8
MCD_Layer_0
10
0.000135
20
-0.000011
40
0.000135
50
175.139173
51
129.997917
0
ARC
8
MCD_Layer_0
10
0.002131
20
0.000362
40
0.002162
50
189.630364
51
149.433873
0
ARC
8
MCD_Layer_0
10
0.004209
20
0.005534
40
0.006953
50
232.742174
51
26.279604
0
ARC
8
MCD_Layer_0
10
0.000002
20
0.000000
40
0.000002
50
180.070711
51
9.980354
0
ARC
8
MCD_Layer_0
10
0.000000
20
0.000000
40
0.000000
50
180.000000
51
176.486351
0
ARC
8
MCD_Layer_0
10
0.005081
20
0.001272
40
0.005238
50
194.059432
51
163.224188
0
ARC
8
MCD_Layer_0
10
0.000000
20
0.000000
40
0.000000
50
180.000000
51
11.091223
0
ARC
8
MCD_Layer_0
10
-0.000000
20
0.000000
40
0.000000
50
0.001106
51
360.000000
0
ARC
8
MCD_Layer_0
10
0.000000
20
0.000000
40
0.000000
50
180.000000
51
179.996389
0
ARC
8
MCD_Layer_0
10
0.000066
20
0.000000
40
0.000066
50
180.006922
51
172.555724
0
ARC
8
MCD_Layer_0
10
0.000000
20
0.000000
40
0.000000
50
180.000000
51
10.737514
0
ARC
8
MCD_Layer_0
10
0.000001
20
0.000000
40
0.000001
50
180.000000
51
178.363506
0
ARC
8
MCD_Layer_0
10
0.000031
20
0.000000
40
0.000031
50
179.998798
51
166.176981
0
ARC
8
MCD_Layer_0
10
0.000024
20
0.000015
40
0.000028
50
210.928533
51
75.413254
0
ARC
8
MCD_Layer_0
10
0.000329
20
0.000037
40
0.000331
50
186.468749
51
131.832189
0
ARC
8
MCD_Layer_0
10
0.001830
20
-0.000119
40
0.001834
50
176.281816
51
129.758772
0
ARC
8
MCD_Layer_0
10
0.003113
20
0.002002
40
0.003701
50
212.752703
51
81.502401
0
ARC
8
MCD_Layer_0
10
0.000054
20
0.000311
40
0.000316
50
260.157104
51
331.061020
0
ARC
8
MCD_Layer_0
10
0.000953
20
0.000628
40
0.001141
50
213.384370
51
75.735818
0
ARC
8
MCD_Layer_0
10
0.000020
20
0.000000
40
0.000021
50
179.999987
51
179.986067
0
ARC
8
MCD_Layer_0
10
0.000003
20
0.000000
40
0.000003
50
181.596060
51
17.615295
0
ARC
8
MCD_Layer_0
10
0.000178
20
-0.000017
40
0.000180
50
174.542604
51
166.303306
0
ARC
8
MCD_Layer_0
10
0.003948
20
0.000904
40
0.004050
50
192.891496
51
152.461621
0
ARC
8
MCD_Layer_0
10
0.000011
20
0.000000
40
0.000011
50
176.072957
51
17.966071
0
ARC
8
MCD_Layer_0
10
0.000000
20
0.000000
40
0.000001
50
180.000000
51
0.317922
0
ARC
8
MCD_Layer_0
10
0.000149
20
-0.000031
40
0.000152
50
168.268760
51
143.887491
0
ARC
8
MCD_Layer_0
10
0.002692
20
0.000351
40
0.002714
50
187.422751
51
144.658666
0
ARC
8
MCD_Layer_0
10
0.000013
20
0.000456
40
0.000456
50
268.363617
51
296.765355
0
ARC
8
MCD_Layer_0
10
0.000000
20
0.000000
40
0.000000
50
0.640288
51
360.000000
0
ARC
8
MCD_Layer_0
10
0.000000
20
0.000000
40
0.000000
50
180.000000
51
179.868255
0
ARC
8
MCD_Layer_0
10
0.000022
20
0.000013
40
0.000026
50
210.278355
51
148.276351
0
ARC
8
MCD_Layer_0
10
0.000024
20
0.000000
40
0.000024
50
180.000000
51
61.008136
0
ARC
8
MCD_Layer_0
10
0.000045
20
0.000086
40
0.000097
50
242.077683
51
7.086298
0
ARC
8
MCD_Layer_0
10
0.000366
20
-0.000109
40
0.000382
50
163.329492
51
136.035471
0
ARC
8
MCD_Layer_0
10
0.004191
20
0.005361
40
0.006804
50
231.983714
51
26.944102
0
ARC
8
MCD_Layer_0
10
0.000000
20
0.000000
40
0.000000
50
180.000000
51
5.868874
0
ARC
8
MCD_Layer_0
10
0.000000
20
0.000000
40
0.000000
50
0.003619
51
360.000000
0
ARC
8
MCD_Layer_0
10
0.000000
20
0.000000
40
0.000000
50
180.000000
51
177.321406
0
ARC
8
MCD_Layer_0
10
0.000000
20
0.000000
40
0.000000
50
180.000000
51
3.838725
0
ARC
8
MCD_Layer_0
10
0.002687
20
0.001966
40
0.003330
50
216.196247
51
65.618758
0
ARC
8
MCD_Layer_0
10
0.002687
20
0.001966
40
0.003330
50
216.196251
51
65.618774
0
ARC
8
MCD_Layer_0
10
0.000000
20
0.000000
40
0.000000
50
180.000000
51
5.016785
0
ARC
8
MCD_Layer_0
10
0.002594
20
0.001895
40
0.003212
50
216.150298
51
65.270842
0
ARC
8
MCD_Layer_0
10
0.000000
20
0.000000
40
0.000000
50
180.000000
51
2.195760
0
ARC
8
MCD_Layer_0
10
0.000000
20
0.000000
40
0.000000
50
180.000000
51
179.947728
0
ARC
8
MCD_Layer_0
10
0.000338
20
0.000021
40
0.000339
50
183.518778
51
176.448468
0
ARC
8
MCD_Layer_0
10
0.001523
20
0.000533
40
0.001614
50
199.277840
51
121.682464
0
ARC
8
MCD_Layer_0
10
0.001969
20
0.001522
40
0.002489
50
217.715923
51
64.329467
0
ARC
8
MCD_Layer_0
10
0.000000
20
0.000000
40
0.000000
50
180.000000
51
175.559560
0
ARC
8
MCD_Layer_0
10
0.002594
20
0.001895
40
0.003212
50
216.150295
51
65.270879
0
ARC
8
MCD_Layer_0
10
0.001969
20
0.000972
40
0.002196
50
206.277472
51
99.007276
0
ARC
8
MCD_Layer_0
10
0.000071
20
0.000045
40
0.000084
50
212.531588
51
60.381120
0
ARC
8
MCD_Layer_0
10
0.000031
20
0.000024
40
0.000039
50
218.308707
51
58.875995
0
ARC
8
MCD_Layer_0
10
0.000000
20
0.000000
40
0.000000
50
179.242176
51
360.000000
0
ARC
8
MCD_Layer_0
10
0.002593
20
0.001895
40
0.003212
50
216.157326
51
65.267169
0
ARC
8
MCD_Layer_0
10
0.000015
20
0.000000
40
0.000015
50
179.999732
51
19.992774
0
ARC
8
MCD_Layer_0
10
0.000000
20
0.000000
40
0.000000
50
180.000000
51
1.577170
0
ARC
8
MCD_Layer_0
10
0.000000
20
0.000000
40
0.000000
50
180.000000
51
179.346692
0
ARC
8
MCD_Layer_0
10
0.000010
20
0.000000
40
0.000010
50
180.000145
51
177.474148
0
ARC
8
MCD_Layer_0
10
0.000014
20
0.000000
40
0.000014
50
180.000105
51
109.674001
0
ARC
8
MCD_Layer_0
10
0.000059
20
-0.000006
40
0.000059
50
173.806769
51
105.127488
0
ARC
8
MCD_Layer_0
10
0.000307
20
0.000051
40
0.000311
50
189.356428
51
127.561669
0
ARC
8
MCD_Layer_0
10
0.001086
20
0.000178
40
0.001100
50
189.314163
51
115.436649
0
ARC
8
MCD_Layer_0
10
0.001852
20
0.001205
40
0.002209
50
213.053739
51
81.662866
0
ARC
8
MCD_Layer_0
10
0.001969
20
0.001826
40
0.002685
50
222.838016
51
49.760503
0
ARC
8
MCD_Layer_0
10
0.000000
20
0.000000
40
0.000000
50
180.000000
51
0.000455
0
ARC
8
MCD_Layer_0
10
0.000001
20
0.000000
40
0.000001
50
179.999998
51
170.483818
0
ARC
8
MCD_Layer_0
10
0.000012
20
0.000000
40
0.000012
50
180.000033
51
161.085606
0
ARC
8
MCD_Layer_0
10
0.000070
20
0.000012
40
0.000071
50
189.562009
51
144.637785
0
ARC
8
MCD_Layer_0
10
0.000475
20
0.000010
40
0.000475
50
181.261449
51
134.740193
0
ARC
8
MCD_Layer_0
10
0.004500
20
0.001937
40
0.004899
50
203.288967
51
136.449443
0
ARC
8
MCD_Layer_0
10
0.003406
20
0.005002
40
0.006052
50
235.748209
51
22.439452
0
ARC
8
MCD_Layer_0
10
0.002062
20
0.000306
40
0.002085
50
188.442717
51
120.137415
0
ARC
8
MCD_Layer_0
10
0.000252
20
0.000997
40
0.001028
50
255.816766
51
350.330427
0
ARC
8
MCD_Layer_0
10
0.000027
20
0.000741
40
0.000741
50
267.876809
51
309.989519
0
ARC
8
MCD_Layer_0
10
0.000006
20
0.000000
40
0.000006
50
179.845585
51
27.190267
0
ARC
8
MCD_Layer_0
10
0.000000
20
0.000000
40
0.000006
50
4.522587
51
360.000000
0
ARC
8
MCD_Layer_0
10
0.000000
20
0.000000
40
0.000000
50
180.000000
51
179.609352
0
ARC
8
MCD_Layer_0
10
0.000027
20
0.000000
40
0.000027
50
180.000000
51
173.517248
0
ARC
8
MCD_Layer_0
10
0.000195
20
-0.000008
40
0.000196
50
177.577724
51
149.547251
0
ARC
8
MCD_Layer_0
10
0.001898
20
0.000269
40
0.001917
50
188.056859
51
141.850118
0
ARC
8
MCD_Layer_0
10
0.004375
20
0.002662
40
0.005121
50
211.315650
51
96.482081
0
ARC
8
MCD_Layer_0
10
0.000013
20
0.000828
40
0.000828
50
269.079618
51
297.097856
0
ARC
8
MCD_Layer_0
10
0.000000
20
0.000000
40
0.000000
50
180.000000
51
6.482752
0
ARC
8
MCD_Layer_0
10
0.000000
20
0.000000
40
0.000000
50
180.000000
51
179.562920
0
ARC
8
MCD_Layer_0
10
0.000002
20
0.000000
40
0.000002
50
179.929424
51
175.709798
0
ARC
8
MCD_Layer_0
10
0.000060
20
0.000008
40
0.000061
50
187.458506
51
161.997935
0
ARC
8
MCD_Layer_0
10
0.000539
20
0.000030
40
0.000540
50
183.174234
51
140.910645
0
ARC
8
MCD_Layer_0
10
0.001852
20
0.000740
40
0.001994
50
201.790048
51
112.822419
0
ARC
8
MCD_Layer_0
10
0.002625
20
0.001772
40
0.003167
50
214.021667
51
70.097988
0
ARC
8
MCD_Layer_0
10
0.000060
20
0.001580
40
0.001581
50
267.828651
51
310.084899
0
ARC
8
MCD_Layer_0
10
0.000002
20
0.000000
40
0.000002
50
180.178889
51
12.731815
0
ARC
8
MCD_Layer_0
10
0.000000
20
0.000000
40
0.000000
50
180.000000
51
4.290202
0
ARC
8
MCD_Layer_0
10
0.002594
20
0.001895
40
0.003212
50
216.150295
51
65.270879
0
ARC
8
MCD_Layer_0
10
0.002594
20
0.001895
40
0.003212
50
216.150292
51
65.270887
0
ARC
8
MCD_Layer_0
10
0.002594
20
0.001895
40
0.003212
50
216.150295
51
65.270879
0
ARC
8
MCD_Layer_0
10
0.002569
20
0.001865
40
0.003174
50
215.983767
51
65.886327
0
ARC
8
MCD_Layer_0
10
0.000000
20
0.000000
40
0.000000
50
180.000000
51
179.304948
0
ARC
8
MCD_Layer_0
10
0.001947
20
0.001272
40
0.002326
50
213.168561
51
74.970565
0
ARC
8
MCD_Layer_0
10
0.000000
20
0.000000
40
0.000002
50
68.677990
51
17.363134
0
ARC
8
MCD_Layer_0
10
0.000000
20
0.000000
40
0.000001
50
180.000000
51
179.609352
0
ARC
8
MCD_Layer_0
10
0.000027
20
0.000000
40
0.000027
50
180.699786
51
173.517251
0
ARC
8
MCD_Layer_0
10
0.000195
20
-0.000008
40
0.000196
50
177.577358
51
149.546764
0
ARC
8
MCD_Layer_0
10
0.001898
20
0.000269
40
0.001917
50
188.056888
51
141.850141
0
ARC
8
MCD_Layer_0
10
0.004375
20
0.002662
40
0.005121
50
211.315681
51
96.482027
0
ARC
8
MCD_Layer_0
10
0.000023
20
0.000788
40
0.000788
50
268.333521
51
297.777612
0
ARC
8
MCD_Layer_0
10
0.000000
20
0.000000
40
0.000027
50
6.482749
51
360.000000
0
ARC
8
MCD_Layer_0
10
0.000000
20
0.000000
40
0.000000
50
180.000000
51
179.562924
0
ARC
8
MCD_Layer_0
10
0.000002
20
0.000000
40
0.000002
50
179.829762
51
175.709801
0
ARC
8
MCD_Layer_0
10
0.000054
20
0.000012
40
0.000055
50
192.560127
51
158.676403
0
ARC
8
MCD_Layer_0
10
0.000539
20
0.000042
40
0.000541
50
184.413217
51
142.973020
0
ARC
8
MCD_Layer_0
10
0.001852
20
0.000740
40
0.001994
50
201.790033
51
112.822363
0
ARC
8
MCD_Layer_0
10
0.002625
20
0.001772
40
0.003167
50
214.021551
51
70.098148
0
ARC
8
MCD_Layer_0
10
0.000054
20
0.001609
40
0.001610
50
268.087695
51
309.527892
0
ARC
8
MCD_Layer_0
10
0.000002
20
0.000000
40
0.000002
50
180.171773
51
16.945748
0
ARC
8
MCD_Layer_0
10
0.000000
20
0.000000
40
0.000000
50
180.000000
51
4.290198
0
ARC
8
MCD_Layer_0
10
0.001969
20
0.001082
40
0.002246
50
208.788014
51
90.398566
0
ARC
8
MCD_Layer_0
10
0.001950
20
0.001581
40
0.002510
50
219.026562
51
58.138834
0
ARC
8
MCD_Layer_0
10
0.001638
20
0.002185
40
0.002730
50
233.145186
51
34.032914
0
ARC
8
MCD_Layer_0
10
0.001950
20
0.001581
40
0.002510
50
219.026562
51
58.138839
0
ARC
8
MCD_Layer_0
10
0.001638
20
0.002185
40
0.002730
50
233.143600
51
34.034433
0
ARC
8
MCD_Layer_0
10
0.001969
20
0.000972
40
0.002196
50
206.277472
51
99.007276
0
ARC
8
MCD_Layer_0
10
0.000079
20
0.000048
40
0.000092
50
211.299551
51
63.292355
0
ARC
8
MCD_Layer_0
10
0.000031
20
0.000024
40
0.000039
50
218.308729
51
58.875930
0
ARC
8
MCD_Layer_0
10
0.000000
20
0.000000
40
0.000000
50
179.242176
51
360.000000
0
ARC
8
MCD_Layer_0
10
0.000000
20
0.000000
40
0.000000
50
180.000000
51
162.914071
0
ARC
8
MCD_Layer_0
10
0.001969
20
0.001584
40
0.002527
50
218.826210
51
58.294716
0
ARC
8
MCD_Layer_0
10
0.001950
20
0.001581
40
0.002510
50
219.034808
51
58.134190
0
ARC
8
MCD_Layer_0
10
0.000015
20
0.000000
40
0.000015
50
179.999944
51
9.118961
0
ARC
8
MCD_Layer_0
10
0.000000
20
0.000000
40
0.000015
50
2.218660
51
360.000000
0
ARC
8
MCD_Layer_0
10
0.000000
20
0.000000
40
0.000000
50
360.000000
51
180.289129
0
ARC
8
MCD_Layer_0
10
0.000000
20
0.000000
40
0.000000
50
180.000000
51
179.508188
0
ARC
8
MCD_Layer_0
10
0.000010
20
0.000000
40
0.000010
50
180.003891
51
177.877319
0
ARC
8
MCD_Layer_0
10
0.000014
20
0.000000
40
0.000014
50
180.003326
51
104.073529
0
ARC
8
MCD_Layer_0
10
0.001950
20
0.001581
40
0.002510
50
219.026561
51
58.138832
0
ARC
8
MCD_Layer_0
10
0.001852
20
0.002040
40
0.002755
50
227.765761
51
41.958094
0
ARC
8
MCD_Layer_0
10
0.000053
20
0.000660
40
0.000662
50
265.412438
51
326.163658
0
ARC
8
MCD_Layer_0
10
0.000021
20
0.000104
40
0.000106
50
258.637264
51
323.317969
0
ARC
8
MCD_Layer_0
10
0.001969
20
0.000972
40
0.002196
50
206.277483
51
99.007301
0
ARC
8
MCD_Layer_0
10
0.000079
20
0.000048
40
0.000092
50
211.299551
51
63.292355
0
ARC
8
MCD_Layer_0
10
0.000031
20
0.000024
40
0.000039
50
218.308713
51
58.875974
0
ARC
8
MCD_Layer_0
10
0.000000
20
0.000000
40
0.000000
50
180.000000
51
162.914071
0
ARC
8
MCD_Layer_0
10
0.001969
20
0.001584
40
0.002527
50
218.827066
51
58.294405
0
ARC
8
MCD_Layer_0
10
0.003692
20
-0.028001
40
0.028243
50
97.205542
51
82.488952
0
ARC
8
MCD_Layer_0
10
0.001953
20
0.001289
40
0.002340
50
213.431818
51
73.316715
0
ARC
8
MCD_Layer_0
10
0.001261
20
-0.000356
40
0.001310
50
164.241231
51
142.347031
0
ARC
8
MCD_Layer_0
10
0.001950
20
0.001333
40
0.002362
50
214.358651
51
75.989527
0
ARC
8
MCD_Layer_0
10
0.000000
20
0.000000
40
0.000000
50
180.000000
51
179.615176
0
ARC
8
MCD_Layer_0
10
0.000033
20
0.000000
40
0.000033
50
179.997106
51
175.043730
0
ARC
8
MCD_Layer_0
10
0.000056
20
0.000033
40
0.000065
50
210.274879
51
110.493227
0
ARC
8
MCD_Layer_0
10
0.001950
20
0.001581
40
0.002510
50
219.026562
51
58.138834
0
ARC
8
MCD_Layer_0
10
0.001638
20
0.002185
40
0.002730
50
233.145188
51
34.032911
0
ARC
8
MCD_Layer_0
10
0.001950
20
0.001581
40
0.002510
50
219.028669
51
58.137999
0
ARC
8
MCD_Layer_0
10
0.001638
20
0.002185
40
0.002730
50
233.145186
51
34.032914
0
ARC
8
MCD_Layer_0
10
0.000000
20
0.000000
40
0.000000
50
179.326727
51
360.000000
0
ARC
8
MCD_Layer_0
10
0.001501
20
0.002303
40
0.002749
50
236.904452
51
28.796956
0
ARC
8
MCD_Layer_0
10
0.001955
20
0.001438
40
0.002426
50
216.333024
51
64.440499
0
ARC
8
MCD_Layer_0
10
0.001753
20
0.002086
40
0.002725
50
229.956205
51
38.647400
0
ARC
8
MCD_Layer_0
10
0.001955
20
0.001733
40
0.002612
50
221.553627
51
52.830966
0
ARC
8
MCD_Layer_0
10
0.000000
20
0.000000
40
0.000000
50
180.000000
51
0.000552
0
ARC
8
MCD_Layer_0
10
0.001927
20
0.001558
40
0.002477
50
218.955267
51
58.307346
0
ARC
8
MCD_Layer_0
10
0.001614
20
0.002161
40
0.002697
50
233.247455
51
33.895499
0
ARC
8
MCD_Layer_0
10
-0.000000
20
0.000000
40
0.000000
50
0.087999
51
360.000000
0
ARC
8
MCD_Layer_0
10
0.001344
20
0.000357
40
0.001390
50
194.861908
51
105.648559
0
ARC
8
MCD_Layer_0
10
0.000000
20
0.000000
40
0.000000
50
180.000000
51
1.164720
0
ARC
8
MCD_Layer_0
10
0.000000
20
0.000000
40
0.000000
50
5.782603
51
360.000000
0
ARC
8
MCD_Layer_0
10
0.000000
20
0.000000
40
0.000000
50
180.000000
51
179.130310
0
ARC
8
MCD_Layer_0
10
0.000000
20
0.000000
40
0.000000
50
180.000000
51
169.631307
0
ARC
8
MCD_Layer_0
10
-0.279507
20
-22.245332
40
22.247088
50
270.719870
51
89.280130
0
ARC
8
MCD_Layer_0
10
0.001020
20
-0.000133
40
0.001029
50
172.580576
51
172.371015
0
ARC
8
MCD_Layer_0
10
0.003609
20
0.000653
40
0.003668
50
190.257209
51
115.320763
0
ARC
8
MCD_Layer_0
10
0.000000
20
0.000000
40
0.000000
50
180.000000
51
179.950151
0
ARC
8
MCD_Layer_0
10
0.000001
20
0.000000
40
0.000001
50
180.000495
51
165.108806
0
ARC
8
MCD_Layer_0
10
0.000009
20
0.000000
40
0.000009
50
180.000000
51
160.373123
0
ARC
8
MCD_Layer_0
10
0.000065
20
0.000010
40
0.000065
50
188.680377
51
147.667583
0
ARC
8
MCD_Layer_0
10
0.000350
20
0.000046
40
0.000353
50
187.553985
51
128.708976
0
ARC
8
MCD_Layer_0
10
0.004500
20
0.000323
40
0.004512
50
184.106553
51
147.362886
0
ARC
8
MCD_Layer_0
10
0.003406
20
0.005002
40
0.006052
50
235.748150
51
22.439557
0
ARC
8
MCD_Layer_0
10
0.003906
20
0.003362
40
0.005154
50
220.720064
51
55.675296
0
ARC
8
MCD_Layer_0
10
0.002063
20
0.000427
40
0.002106
50
191.709586
51
124.989028
0
ARC
8
MCD_Layer_0
10
0.000252
20
0.001440
40
0.001462
50
260.073915
51
334.992862
0
ARC
8
MCD_Layer_0
10
0.000027
20
0.000741
40
0.000741
50
267.876829
51
309.989503
0
ARC
8
MCD_Layer_0
10
0.000006
20
0.000000
40
0.000006
50
179.999727
51
27.190287
0
ARC
8
MCD_Layer_0
10
0.000000
20
0.000000
40
0.000000
50
180.000000
51
2.195830
0
ARC
8
MCD_Layer_0
10
0.001953
20
0.001584
40
0.002514
50
219.035899
51
58.116733
0
ARC
8
MCD_Layer_0
10
0.000000
20
0.000000
40
0.000000
50
180.000000
51
179.970541
0
ARC
8
MCD_Layer_0
10
0.000338
20
0.000021
40
0.000339
50
183.508264
51
176.437855
0
ARC
8
MCD_Layer_0
10
0.001523
20
0.000533
40
0.001614
50
199.277825
51
121.682504
0
ARC
8
MCD_Layer_0
10
0.001933
20
0.001552
40
0.002479
50
218.755966
51
63.289418
0
ARC
8
MCD_Layer_0
10
0.000000
20
0.000000
40
0.000000
50
180.000000
51
171.510073
0
ARC
8
MCD_Layer_0
10
0.000000
20
0.000000
40
0.000000
50
180.000000
51
12.013421
0
ARC
8
MCD_Layer_0
10
0.001959
20
0.001573
40
0.002513
50
218.762525
51
58.922860
0
ARC
8
MCD_Layer_0
10
0.001959
20
0.001573
40
0.002513
50
218.756504
51
58.926126
0
ARC
8
MCD_Layer_0
10
0.001628
20
0.002211
40
0.002746
50
233.632760
51
33.463211
0
ARC
8
MCD_Layer_0
10
0.001547
20
0.002262
40
0.002741
50
235.633319
51
30.575595
0
ARC
8
MCD_Layer_0
10
0.001953
20
0.001484
40
0.002453
50
217.234794
51
62.292488
0
ARC
8
MCD_Layer_0
10
0.001705
20
0.002149
40
0.002741
50
231.626435
51
36.561378
0
ARC
8
MCD_Layer_0
10
0.001944
20
0.001689
40
0.002589
50
221.135445
51
53.923764
0
ARC
8
MCD_Layer_0
10
0.001383
20
0.000357
40
0.001428
50
194.473530
51
105.548300
0
ARC
8
MCD_Layer_0
10
0.000000
20
0.000000
40
0.000000
50
180.000000
51
1.182000
0
ARC
8
MCD_Layer_0
10
0.000000
20
0.000000
40
0.000000
50
180.000000
51
178.823231
0
ARC
8
MCD_Layer_0
10
0.000001
20
0.000000
40
0.000001
50
180.000000
51
113.596817
0
ARC
8
MCD_Layer_0
10
0.000000
20
0.000000
40
0.000000
50
180.000000
51
66.403183
0
ARC
8
MCD_Layer_0
10
0.000000
20
0.000000
40
0.000000
50
180.000000
51
175.346829
0
ARC
8
MCD_Layer_0
10
0.000000
20
0.000000
40
0.000000
50
180.000000
51
179.994887
0
ARC
8
MCD_Layer_0
10
0.000000
20
0.000000
40
0.000000
50
180.000000
51
179.515338
0
ARC
8
MCD_Layer_0
10
0.001059
20
-0.000061
40
0.001061
50
176.705465
51
176.503012
0
ARC
8
MCD_Layer_0
10
0.003688
20
0.000713
40
0.003756
50
190.937469
51
114.689205
0
ARC
8
MCD_Layer_0
10
0.001544
20
0.002259
40
0.002736
50
235.653035
51
30.553861
0
ARC
8
MCD_Layer_0
10
0.001950
20
0.001481
40
0.002449
50
217.222849
51
62.322030
0
ARC
8
MCD_Layer_0
10
0.001481
20
0.002326
40
0.002757
50
237.510142
51
28.700181
0
ARC
8
MCD_Layer_0
10
0.001949
20
0.001453
40
0.002432
50
216.712984
51
64.572498
0
ARC
8
MCD_Layer_0
10
0.000007
20
0.000000
40
0.000007
50
180.000000
51
179.947692
0
ARC
8
MCD_Layer_0
10
0.000975
20
0.000005
40
0.000975
50
180.278030
51
173.157271
0
ARC
8
MCD_Layer_0
10
0.000001
20
0.000000
40
0.000001
50
179.999945
51
179.678519
0
ARC
8
MCD_Layer_0
10
0.000000
20
0.000000
40
0.000000
50
180.000000
51
26.849799
0
ARC
8
MCD_Layer_0
10
0.000001
20
0.000000
40
0.000001
50
180.334168
51
153.391557
0
ARC
8
MCD_Layer_0
10
0.000026
20
0.000000
40
0.000026
50
180.156296
51
168.005816
0
ARC
8
MCD_Layer_0
10
0.000100
20
0.000028
40
0.000104
50
195.498022
51
135.605138
0
ARC
8
MCD_Layer_0
10
0.000519
20
-0.000033
40
0.000520
50
176.340356
51
127.767102
0
ARC
8
MCD_Layer_0
10
0.002663
20
0.000551
40
0.002719
50
191.698247
51
126.701869
0
ARC
8
MCD_Layer_0
10
0.004744
20
0.002815
40
0.005516
50
210.683084
51
83.951187
0
ARC
8
MCD_Layer_0
10
0.000000
20
0.000000
40
0.000000
50
180.000000
51
0.160950
0
ARC
8
MCD_Layer_0
10
0.000003
20
0.000000
40
0.000003
50
179.999670
51
68.070407
0
ARC
8
MCD_Layer_0
10
0.000026
20
0.000000
40
0.000026
50
179.999038
51
160.358174
0
ARC
8
MCD_Layer_0
10
0.000094
20
-0.000003
40
0.000094
50
177.981646
51
136.148954
0
ARC
8
MCD_Layer_0
10
0.000716
20
-0.000005
40
0.000716
50
179.568968
51
137.581980
0
ARC
8
MCD_Layer_0
10
0.002341
20
0.000783
40
0.002468
50
198.506957
51
111.618584
0
ARC
8
MCD_Layer_0
10
0.002544
20
0.002570
40
0.003616
50
225.299323
51
53.767345
0
ARC
8
MCD_Layer_0
10
0.000004
20
0.000000
40
0.000004
50
179.954511
51
11.750129
0
ARC
8
MCD_Layer_0
10
0.000001
20
0.000000
40
0.000001
50
180.000000
51
117.967087
0
ARC
8
MCD_Layer_0
10
0.000000
20
0.000000
40
0.000000
50
180.000000
51
124.674495
0
ARC
8
MCD_Layer_0
10
0.000243
20
0.000000
40
0.000243
50
180.000000
51
179.850583
0
ARC
8
MCD_Layer_0
10
0.920804
20
-0.020537
40
0.921033
50
178.722319
51
177.322841
0
ARC
8
MCD_Layer_0
10
0.000243
20
0.000000
40
0.000243
50
180.000000
51
179.850583
0
ARC
8
MCD_Layer_0
10
0.920804
20
-0.020537
40
0.921033
50
178.722319
51
177.322841
0
ARC
8
MCD_Layer_1
10
461.556580
20
528.044598
40
701.331287
50
228.843737
51
38.817496
0
CIRCLE
8
MCD_Layer_0
10
0.000001
20
0.000001
40
0.000001
0
CIRCLE
8
MCD_Layer_0
10
0.000001
20
0.000001
40
0.000001
0
CIRCLE
8
MCD_Layer_0
10
0.000001
20
0.000001
40
0.000001
0
CIRCLE
8
MCD_Layer_0
10
0.000001
20
0.000001
40
0.000001
0
CIRCLE
8
MCD_Layer_0
10
0.000000
20
0.007812
40
0.007812
0
CIRCLE
8
MCD_Layer_0
10
0.000006
20
0.000000
40
0.000006
0
CIRCLE
8
MCD_Layer_0
10
0.000000
20
0.007813
40
0.007813
0
CIRCLE
8
MCD_Layer_0
10
0.000000
20
0.000011
40
0.000011
0
ENDSEC
0
EOF
