0
SECTION
2
ENTITIES
0
LINE
8
MCD_Layer_0
10
4.572763
20
0.228183
30
0.0
11
3.384741
21
0.000000
31
0.0
0
LINE
8
MCD_Layer_0
10
4.572763
20
0.228183
30
0.0
11
1.008698
21
6.000000
31
0.0
0
LINE
8
MCD_Layer_0
10
4.572763
20
0.228183
30
0.0
11
1.008698
21
6.000000
31
0.0
0
LINE
8
MCD_Layer_0
10
0.000000
20
5.942560
30
0.0
11
1.008698
21
6.000000
31
0.0
0
LINE
8
MCD_Layer_0
10
0.000000
20
5.942560
30
0.0
11
1.008698
21
6.000000
31
0.0
0
LINE
8
MCD_Layer_0
10
4.572763
20
5.966552
30
0.0
11
5.396533
21
5.995622
31
0.0
0
LINE
8
MCD_Layer_0
10
4.572763
20
5.966552
30
0.0
11
5.396533
21
5.995622
31
0.0
0
LINE
8
MCD_Layer_0
10
4.572763
20
5.966552
30
0.0
11
1.580293
21
5.983188
31
0.0
0
LINE
8
MCD_Layer_0
10
4.572763
20
5.966552
30
0.0
11
1.580293
21
5.983188
31
0.0
0
LINE
8
MCD_Layer_0
10
0.577199
20
5.946063
30
0.0
11
0.470726
21
5.979861
31
0.0
0
LINE
8
MCD_Layer_0
10
0.577199
20
5.946063
30
0.0
11
0.470726
21
5.979861
31
0.0
0
LINE
8
MCD_Layer_0
10
4.572763
20
5.966552
30
0.0
11
5.850447
21
5.970930
31
0.0
0
LINE
8
MCD_Layer_0
10
4.572763
20
5.966552
30
0.0
11
5.850447
21
5.970930
31
0.0
0
LINE
8
MCD_Layer_0
10
4.572763
20
5.966552
30
0.0
11
1.905318
21
5.923297
31
0.0
0
LINE
8
MCD_Layer_0
10
4.572763
20
5.966552
30
0.0
11
1.905318
21
5.923297
31
0.0
0
LINE
8
MCD_Layer_0
10
6.102621
20
5.941685
30
0.0
11
3.384741
21
5.738194
31
0.0
0
LINE
8
MCD_Layer_0
10
6.102621
20
5.941685
30
0.0
11
3.384741
21
5.738194
31
0.0
0
LINE
8
MCD_Layer_0
10
4.572763
20
0.228183
30
0.0
11
3.384741
21
0.000000
31
0.0
0
LINE
8
MCD_Layer_0
10
0.577199
20
5.946063
30
0.0
11
0.470726
21
5.979861
31
0.0
0
LINE
8
MCD_Layer_0
10
9.078279
20
0.228183
30
0.0
11
0.470726
21
5.979861
31
0.0
0
LINE
8
MCD_Layer_0
10
13.167132
20
5.946374
30
0.0
11
14.592501
21
0.000000
31
0.0
0
LINE
8
MCD_Layer_0
10
16.537710
20
5.966637
30
0.0
11
12.982672
21
5.932749
31
0.0
0
LINE
8
MCD_Layer_0
10
13.167132
20
5.946374
30
0.0
11
14.592501
21
0.000000
31
0.0
0
LINE
8
MCD_Layer_0
10
15.190597
20
0.227605
30
0.0
11
14.592501
21
5.723485
31
0.0
0
LINE
8
MCD_Layer_0
10
15.190597
20
0.227605
30
0.0
11
14.592501
21
5.723485
31
0.0
0
LINE
8
MCD_Layer_0
10
16.540505
20
0.242802
30
0.0
11
12.133041
21
5.932574
31
0.0
0
LINE
8
MCD_Layer_0
10
16.540505
20
0.242802
30
0.0
11
12.133041
21
5.932574
31
0.0
0
LINE
8
MCD_Layer_0
10
16.540505
20
0.242802
30
0.0
11
9.645632
21
5.993362
31
0.0
0
LINE
8
MCD_Layer_0
10
16.540505
20
0.242802
30
0.0
11
9.645632
21
5.993362
31
0.0
0
LINE
8
MCD_Layer_0
10
13.312464
20
0.222365
30
0.0
11
11.864736
21
6.000000
31
0.0
0
LINE
8
MCD_Layer_0
10
13.312464
20
0.222365
30
0.0
11
11.864736
21
6.000000
31
0.0
0
LINE
8
MCD_Layer_0
10
19.254296
20
5.946374
30
0.0
11
11.864736
21
6.000000
31
0.0
0
LINE
8
MCD_Layer_0
10
19.254296
20
5.946374
30
0.0
11
11.864736
21
6.000000
31
0.0
0
LINE
8
MCD_Layer_0
10
9.078279
20
5.966462
30
0.0
11
9.494710
21
5.994585
31
0.0
0
LINE
8
MCD_Layer_0
10
24.179804
20
0.254503
30
0.0
11
23.404441
21
5.712028
31
0.0
0
LINE
8
MCD_Layer_0
10
24.179804
20
0.254503
30
0.0
11
24.218851
21
6.000000
31
0.0
0
LINE
8
MCD_Layer_0
10
24.179804
20
0.254503
30
0.0
11
24.218851
21
6.000000
31
0.0
0
LINE
8
MCD_Layer_0
10
27.164116
20
5.946833
30
0.0
11
24.218851
21
6.000000
31
0.0
0
LINE
8
MCD_Layer_0
10
27.164116
20
5.946833
30
0.0
11
24.218851
21
6.000000
31
0.0
0
LINE
8
MCD_Layer_0
10
24.179804
20
5.966531
30
0.0
11
22.818735
21
5.993202
31
0.0
0
LINE
8
MCD_Layer_0
10
24.179804
20
5.966531
30
0.0
11
22.818735
21
5.993202
31
0.0
0
LINE
8
MCD_Layer_0
10
24.179804
20
5.966531
30
0.0
11
19.254296
21
5.937246
31
0.0
0
LINE
8
MCD_Layer_0
10
24.179804
20
5.966531
30
0.0
11
19.254296
21
5.937246
31
0.0
0
LINE
8
MCD_Layer_0
10
19.795377
20
5.946136
30
0.0
11
23.404441
21
0.000000
31
0.0
0
LINE
8
MCD_Layer_0
10
19.795377
20
5.946136
30
0.0
11
23.404441
21
0.000000
31
0.0
0
LINE
8
MCD_Layer_0
10
24.179804
20
0.254503
30
0.0
11
23.404441
21
5.712028
31
0.0
0
LINE
8
MCD_Layer_0
10
29.188985
20
5.966357
30
0.0
11
32.521931
21
0.000000
31
0.0
0
LINE
8
MCD_Layer_0
10
29.191774
20
0.254329
30
0.0
11
32.521931
21
5.712028
31
0.0
0
LINE
8
MCD_Layer_0
10
29.191774
20
0.254329
30
0.0
11
32.521931
21
5.712028
31
0.0
0
LINE
8
MCD_Layer_0
10
29.191774
20
0.254329
30
0.0
11
33.336341
21
6.000000
31
0.0
0
LINE
8
MCD_Layer_0
10
29.191774
20
0.254329
30
0.0
11
33.336341
21
6.000000
31
0.0
0
LINE
8
MCD_Layer_0
10
27.164116
20
5.966705
30
0.0
11
33.336341
21
6.000000
31
0.0
0
LINE
8
MCD_Layer_0
10
32.296016
20
0.254329
30
0.0
11
28.293692
21
5.979779
31
0.0
0
LINE
8
MCD_Layer_0
10
27.641048
20
5.937769
30
0.0
11
28.293692
21
5.979779
31
0.0
0
LINE
8
MCD_Layer_0
10
35.281913
20
0.000000
30
0.0
11
39.277909
21
3.041049
31
0.0
0
LINE
8
MCD_Layer_0
10
35.281913
20
0.000000
30
0.0
11
37.792517
21
6.000000
31
0.0
0
LINE
8
MCD_Layer_0
10
35.281913
20
0.000000
30
0.0
11
37.792517
21
6.000000
31
0.0
0
LINE
8
MCD_Layer_0
10
35.281913
20
5.964868
30
0.0
11
37.792517
21
6.000000
31
0.0
0
LINE
8
MCD_Layer_0
10
42.726348
20
0.000000
30
0.0
11
37.233310
21
5.979066
31
0.0
0
LINE
8
MCD_Layer_0
10
44.485518
20
5.931191
30
0.0
11
37.233310
21
5.979066
31
0.0
0
LINE
8
MCD_Layer_0
10
35.281913
20
0.000000
30
0.0
11
37.792517
21
5.988350
31
0.0
0
LINE
8
MCD_Layer_0
10
35.281913
20
0.000000
30
0.0
11
33.336341
21
5.953399
31
0.0
0
ENDSEC
0
EOF
