0
SECTION
2
ENTITIES
0
LINE
8
MCD_Layer_0
10
0.000000
20
0.337106
30
0.0
11
3.082780
21
3.065008
31
0.0
0
LINE
8
MCD_Layer_0
10
0.000000
20
0.337106
30
0.0
11
3.082780
21
0.000000
31
0.0
0
LINE
8
MCD_Layer_0
10
3.070901
20
3.065008
30
0.0
11
3.088953
21
3.065008
31
0.0
0
LINE
8
MCD_Layer_0
10
3.136844
20
3.076981
30
0.0
11
3.065008
21
3.112899
31
0.0
0
LINE
8
MCD_Layer_0
10
3.065008
20
0.000000
30
0.0
11
0.337106
21
3.082780
31
0.0
0
LINE
8
MCD_Layer_0
10
0.000000
20
0.005893
30
0.0
11
3.677953
21
3.082686
31
0.0
0
LINE
8
MCD_Layer_0
10
0.000000
20
3.070901
30
0.0
11
3.065008
21
3.088953
31
0.0
0
LINE
8
MCD_Layer_0
10
3.065008
20
3.184735
30
0.0
11
3.076981
21
3.065008
31
0.0
0
LINE
8
MCD_Layer_0
10
3.136844
20
3.065008
30
0.0
11
0.000000
21
3.677953
31
0.0
0
LINE
8
MCD_Layer_0
10
3.082686
20
0.000000
30
0.0
11
1.538397
21
2.329342
31
0.0
0
LINE
8
MCD_Layer_0
10
2.304462
20
5.887195
30
0.0
11
0.772145
21
4.970162
31
0.0
0
LINE
8
MCD_Layer_0
10
1.538303
20
5.320176
30
0.0
11
3.070901
21
3.065008
31
0.0
0
LINE
8
MCD_Layer_0
10
3.088953
20
3.065008
30
0.0
11
3.184735
21
3.076981
31
0.0
0
LINE
8
MCD_Layer_0
10
3.065008
20
3.136844
30
0.0
11
3.065008
21
0.766252
31
0.0
0
LINE
8
MCD_Layer_0
10
4.970162
20
1.538303
30
0.0
11
5.320176
21
0.772145
31
0.0
0
LINE
8
MCD_Layer_0
10
5.828360
20
2.304555
30
0.0
11
4.492003
21
3.070901
31
0.0
0
LINE
8
MCD_Layer_0
10
5.100178
20
0.772051
30
0.0
11
3.791975
21
3.070901
31
0.0
0
LINE
8
MCD_Layer_0
10
3.065008
20
3.088953
30
0.0
11
3.065008
21
3.184735
31
0.0
0
LINE
8
MCD_Layer_0
10
3.076981
20
3.065008
30
0.0
11
3.136844
21
3.065008
31
0.0
0
LINE
8
MCD_Layer_0
10
3.065008
20
5.100178
30
0.0
11
0.772051
21
3.791975
31
0.0
0
LINE
8
MCD_Layer_0
10
5.369657
20
4.580301
30
0.0
11
5.752689
21
3.583575
31
0.0
0
LINE
8
MCD_Layer_0
10
5.369657
20
3.984473
30
0.0
11
1.921429
21
3.387990
31
0.0
0
LINE
8
MCD_Layer_0
10
3.070901
20
3.065008
30
0.0
11
3.088953
21
3.065008
31
0.0
0
LINE
8
MCD_Layer_0
10
3.184735
20
3.076981
30
0.0
11
3.065008
21
3.136844
31
0.0
0
LINE
8
MCD_Layer_0
10
3.065008
20
5.363764
30
0.0
11
3.984473
21
1.921429
31
0.0
0
LINE
8
MCD_Layer_0
10
3.387990
20
5.369657
30
0.0
11
5.105042
21
4.986437
31
0.0
0
LINE
8
MCD_Layer_0
10
3.130577
20
0.772145
30
0.0
11
6.000000
21
2.304555
31
0.0
0
LINE
8
MCD_Layer_0
10
2.580675
20
3.070807
30
0.0
11
3.065008
21
3.088953
31
0.0
0
LINE
8
MCD_Layer_0
10
3.065008
20
3.184735
30
0.0
11
3.076981
21
3.065008
31
0.0
0
LINE
8
MCD_Layer_0
10
3.136844
20
3.065008
30
0.0
11
0.766252
21
6.000000
31
0.0
0
LINE
8
MCD_Layer_0
10
2.304555
20
2.580675
30
0.0
11
3.070807
21
0.457301
31
0.0
0
LINE
8
MCD_Layer_0
10
0.005799
20
0.541858
30
0.0
11
5.369563
21
5.950987
31
0.0
0
LINE
8
MCD_Layer_0
10
0.005799
20
3.481807
30
0.0
11
3.070807
21
3.065008
31
0.0
0
LINE
8
MCD_Layer_0
10
3.088953
20
3.065008
30
0.0
11
3.184735
21
3.076981
31
0.0
0
LINE
8
MCD_Layer_0
10
3.065008
20
3.136844
30
0.0
11
3.065008
21
5.363764
31
0.0
0
LINE
8
MCD_Layer_0
10
5.950987
20
0.005799
30
0.0
11
3.481807
21
0.005799
31
0.0
0
LINE
8
MCD_Layer_0
10
3.653447
20
3.070807
30
0.0
11
4.276401
21
3.070714
31
0.0
0
LINE
8
MCD_Layer_0
10
3.065008
20
3.088953
30
0.0
11
3.065008
21
3.136844
31
0.0
0
LINE
8
MCD_Layer_0
10
3.076981
20
3.065008
30
0.0
11
3.112899
21
3.065008
31
0.0
0
LINE
8
MCD_Layer_0
10
0.000000
20
0.337106
30
0.0
11
3.082780
21
3.065008
31
0.0
0
LINE
8
MCD_Layer_0
10
3.065008
20
3.065008
30
0.0
11
3.088953
21
3.065008
31
0.0
0
LINE
8
MCD_Layer_0
10
3.136844
20
3.076981
30
0.0
11
3.065008
21
3.112899
31
0.0
0
LINE
8
MCD_Layer_0
10
3.065008
20
5.363764
30
0.0
11
3.984473
21
0.017772
31
0.0
0
LINE
8
MCD_Layer_0
10
2.574595
20
3.070714
30
0.0
11
3.139837
21
0.017398
31
0.0
0
LINE
8
MCD_Layer_0
10
2.574595
20
3.070714
30
0.0
11
3.065008
21
3.088953
31
0.0
0
LINE
8
MCD_Layer_0
10
3.065008
20
3.184735
30
0.0
11
3.076981
21
3.065008
31
0.0
0
LINE
8
MCD_Layer_0
10
3.136844
20
3.065008
30
0.0
11
3.065008
21
3.139837
31
0.0
0
LINE
8
MCD_Layer_0
10
0.017398
20
2.574595
30
0.0
11
3.070714
21
1.221121
31
0.0
0
LINE
8
MCD_Layer_0
10
3.070714
20
3.450005
30
0.0
11
3.837059
21
3.535778
31
0.0
0
LINE
8
MCD_Layer_0
10
3.070807
20
4.935927
30
0.0
11
3.070807
21
3.065008
31
0.0
0
LINE
8
MCD_Layer_0
10
3.088953
20
3.065008
30
0.0
11
3.184735
21
3.076981
31
0.0
0
LINE
8
MCD_Layer_0
10
3.065008
20
3.136844
30
0.0
11
3.065008
21
3.831260
31
0.0
0
LINE
8
MCD_Layer_0
10
3.535778
20
3.070807
30
0.0
11
4.935927
21
1.538303
31
0.0
0
LINE
8
MCD_Layer_0
10
4.227200
20
2.304555
30
0.0
11
0.581049
21
1.538303
31
0.0
0
LINE
8
MCD_Layer_0
10
3.565148
20
0.005799
30
0.0
11
1.868394
21
3.070807
31
0.0
0
LINE
8
MCD_Layer_0
10
3.065008
20
3.088953
30
0.0
11
3.065008
21
3.184735
31
0.0
0
LINE
8
MCD_Layer_0
10
3.076981
20
3.065008
30
0.0
11
3.136844
21
3.065008
31
0.0
0
LINE
8
MCD_Layer_0
10
1.532504
20
3.565148
30
0.0
11
0.005799
21
1.868394
31
0.0
0
LINE
8
MCD_Layer_0
10
0.005799
20
2.554953
30
0.0
11
5.369470
21
2.358806
31
0.0
0
LINE
8
MCD_Layer_0
10
3.070807
20
0.593396
30
0.0
11
5.369470
21
2.736414
31
0.0
0
LINE
8
MCD_Layer_0
10
3.070807
20
3.065008
30
0.0
11
3.088953
21
3.065008
31
0.0
0
LINE
8
MCD_Layer_0
10
3.184735
20
3.076981
30
0.0
11
3.065008
21
3.136844
31
0.0
0
LINE
8
MCD_Layer_0
10
3.065008
20
3.065008
30
0.0
11
0.593396
21
5.369470
31
0.0
0
LINE
8
MCD_Layer_0
10
2.736414
20
3.070807
30
0.0
11
3.776073
21
0.783930
31
0.0
0
LINE
8
MCD_Layer_0
10
2.075578
20
5.369563
30
0.0
11
3.984473
21
3.082780
31
0.0
0
LINE
8
MCD_Layer_0
10
1.851277
20
3.070807
30
0.0
11
3.065008
21
3.088953
31
0.0
0
LINE
8
MCD_Layer_0
10
3.065008
20
3.136844
30
0.0
11
3.076981
21
3.065008
31
0.0
0
LINE
8
MCD_Layer_0
10
3.112899
20
3.065008
30
0.0
11
5.363764
21
3.984473
31
0.0
0
LINE
8
MCD_Layer_0
10
3.082780
20
1.851277
30
0.0
11
5.369563
21
3.984473
31
0.0
0
LINE
8
MCD_Layer_0
10
0.017772
20
2.574595
30
0.0
11
3.070714
21
3.065008
31
0.0
0
LINE
8
MCD_Layer_0
10
3.088953
20
3.065008
30
0.0
11
3.184735
21
3.076981
31
0.0
0
LINE
8
MCD_Layer_0
10
3.065008
20
3.136844
30
0.0
11
3.065008
21
5.363764
31
0.0
0
LINE
8
MCD_Layer_0
10
3.984473
20
0.784024
30
0.0
11
3.163034
21
0.005893
31
0.0
0
LINE
8
MCD_Layer_0
10
3.109064
20
3.465812
30
0.0
11
3.339631
21
4.603405
31
0.0
0
LINE
8
MCD_Layer_0
10
0.583575
20
5.369470
30
0.0
11
3.840427
21
3.070901
31
0.0
0
LINE
8
MCD_Layer_0
10
3.065008
20
3.088953
30
0.0
11
3.065008
21
3.184735
31
0.0
0
LINE
8
MCD_Layer_0
10
3.076981
20
3.065008
30
0.0
11
3.136844
21
3.065008
31
0.0
0
LINE
8
MCD_Layer_0
10
4.597512
20
0.583575
30
0.0
11
5.369470
21
3.840427
31
0.0
0
LINE
8
MCD_Layer_0
10
0.005893
20
1.456459
30
0.0
11
2.304462
21
3.983818
31
0.0
0
LINE
8
MCD_Layer_0
10
3.070901
20
2.216631
30
0.0
11
1.921336
21
4.136470
31
0.0
0
LINE
8
MCD_Layer_0
10
3.070901
20
3.065008
30
0.0
11
3.088953
21
3.065008
31
0.0
0
LINE
8
MCD_Layer_0
10
3.184735
20
3.076981
30
0.0
11
3.065008
21
3.136844
31
0.0
0
LINE
8
MCD_Layer_0
10
3.065008
20
3.065008
30
0.0
11
2.216631
21
1.921336
31
0.0
0
LINE
8
MCD_Layer_0
10
4.136470
20
4.603405
30
0.0
11
2.952203
21
1.155084
31
0.0
0
LINE
8
MCD_Layer_0
10
4.507343
20
1.538397
30
0.0
11
2.054719
21
1.155084
31
0.0
0
LINE
8
MCD_Layer_0
10
4.953606
20
3.070901
30
0.0
11
3.065008
21
3.088953
31
0.0
0
LINE
8
MCD_Layer_0
10
3.065008
20
3.184735
30
0.0
11
3.076981
21
3.065008
31
0.0
0
LINE
8
MCD_Layer_0
10
3.136844
20
3.065008
30
0.0
11
1.532504
21
2.054719
31
0.0
0
LINE
8
MCD_Layer_0
10
1.155084
20
4.953606
30
0.0
11
3.070901
21
4.953045
31
0.0
0
LINE
8
MCD_Layer_0
10
3.453840
20
5.284071
30
0.0
11
0.005893
21
3.462164
31
0.0
0
LINE
8
MCD_Layer_0
10
5.764568
20
5.425030
30
0.0
11
3.070901
21
3.065008
31
0.0
0
LINE
8
MCD_Layer_0
10
3.088953
20
3.065008
30
0.0
11
3.136844
21
3.076981
31
0.0
0
LINE
8
MCD_Layer_0
10
3.065008
20
3.112899
30
0.0
11
3.065008
21
0.000000
31
0.0
0
LINE
8
MCD_Layer_0
10
3.462164
20
5.764568
30
0.0
11
5.425030
21
5.369657
31
0.0
0
LINE
8
MCD_Layer_0
10
3.984473
20
5.764662
30
0.0
11
5.425030
21
3.070901
31
0.0
0
LINE
8
MCD_Layer_0
10
3.065008
20
3.088953
30
0.0
11
3.065008
21
3.136844
31
0.0
0
LINE
8
MCD_Layer_0
10
3.076981
20
3.065008
30
0.0
11
3.112899
21
3.065008
31
0.0
0
LINE
8
MCD_Layer_0
10
5.363764
20
3.984473
30
0.0
11
5.764662
21
5.425030
31
0.0
0
LINE
8
MCD_Layer_0
10
5.369657
20
3.984473
30
0.0
11
0.784024
21
3.163034
31
0.0
0
LINE
8
MCD_Layer_0
10
3.070901
20
3.065008
30
0.0
11
3.088953
21
3.065008
31
0.0
0
LINE
8
MCD_Layer_0
10
6.376235
20
0.976826
30
0.0
11
6.003785
21
1.040809
31
0.0
0
LINE
8
MCD_Layer_0
10
8.650909
20
0.145416
30
0.0
11
9.029176
21
2.441049
31
0.0
0
LINE
8
MCD_Layer_0
10
9.785338
20
4.361462
30
0.0
11
9.029176
21
0.891053
31
0.0
0
LINE
8
MCD_Layer_0
10
9.040716
20
3.023451
30
0.0
11
9.047087
21
3.023451
31
0.0
0
LINE
8
MCD_Layer_0
10
9.141631
20
3.035269
30
0.0
11
9.023451
21
3.094359
31
0.0
0
LINE
8
MCD_Layer_0
10
9.023451
20
3.779799
30
0.0
11
10.361462
21
3.029176
31
0.0
0
LINE
8
MCD_Layer_0
10
6.891053
20
3.040716
30
0.0
11
8.112640
21
3.029083
31
0.0
0
LINE
8
MCD_Layer_0
10
6.275598
20
3.040809
30
0.0
11
8.319915
21
3.040809
31
0.0
0
LINE
8
MCD_Layer_0
10
9.460715
20
3.040624
30
0.0
11
9.023451
21
3.047087
31
0.0
0
LINE
8
MCD_Layer_0
10
9.023451
20
3.141631
30
0.0
11
9.035269
21
3.023451
31
0.0
0
LINE
8
MCD_Layer_0
10
9.094359
20
3.023451
30
0.0
11
9.023451
21
2.319915
31
0.0
0
LINE
8
MCD_Layer_0
10
9.040809
20
3.460715
30
0.0
11
6.015234
21
0.042378
31
0.0
0
LINE
8
MCD_Layer_0
10
9.040901
20
5.397009
30
0.0
11
10.541686
21
1.678515
31
0.0
0
LINE
8
MCD_Layer_0
10
9.040901
20
3.284000
30
0.0
11
9.029083
21
3.023451
31
0.0
0
LINE
8
MCD_Layer_0
10
9.047087
20
3.023451
30
0.0
11
9.141631
21
3.035269
31
0.0
0
LINE
8
MCD_Layer_0
10
9.023451
20
3.094359
30
0.0
11
9.023451
21
4.536146
31
0.0
0
LINE
8
MCD_Layer_0
10
7.678515
20
3.040901
30
0.0
11
9.284000
21
3.029083
31
0.0
0
LINE
8
MCD_Layer_0
10
10.442157
20
3.040993
30
0.0
11
8.289724
21
3.785431
31
0.0
0
LINE
8
MCD_Layer_0
10
11.233589
20
1.528298
30
0.0
11
9.663374
21
3.029176
31
0.0
0
LINE
8
MCD_Layer_0
10
9.023451
20
3.047087
30
0.0
11
9.023451
21
3.141631
31
0.0
0
LINE
8
MCD_Layer_0
10
9.035269
20
3.023451
30
0.0
11
9.094359
21
3.023451
31
0.0
0
LINE
8
MCD_Layer_0
10
9.779799
20
5.233589
30
0.0
11
7.528298
21
3.663374
31
0.0
0
LINE
8
MCD_Layer_0
10
6.003785
20
0.622657
30
0.0
11
6.771951
21
0.800849
31
0.0
0
LINE
8
MCD_Layer_0
10
8.272828
20
0.977195
30
0.0
11
10.553688
21
3.022713
31
0.0
0
LINE
8
MCD_Layer_0
10
9.029176
20
3.023451
30
0.0
11
9.047087
21
3.023451
31
0.0
0
LINE
8
MCD_Layer_0
10
9.141631
20
3.035269
30
0.0
11
9.023451
21
3.094359
31
0.0
0
LINE
8
MCD_Layer_0
10
9.023451
20
2.267104
30
0.0
11
6.977195
21
4.553688
31
0.0
0
LINE
8
MCD_Layer_0
10
9.022713
20
0.003785
30
0.0
11
6.622657
21
1.906472
31
0.0
0
LINE
8
MCD_Layer_0
10
10.135168
20
3.785615
30
0.0
11
11.233589
21
0.393777
31
0.0
0
LINE
8
MCD_Layer_0
10
11.132952
20
3.029268
30
0.0
11
9.023451
21
3.047087
31
0.0
0
LINE
8
MCD_Layer_0
10
9.023451
20
3.141631
30
0.0
11
9.035269
21
3.023451
31
0.0
0
LINE
8
MCD_Layer_0
10
9.094359
20
3.023451
30
0.0
11
9.779799
21
5.233589
31
0.0
0
LINE
8
MCD_Layer_0
10
6.393777
20
5.132952
30
0.0
11
9.029268
21
4.442157
31
0.0
0
LINE
8
MCD_Layer_0
10
11.310036
20
5.384083
30
0.0
11
10.541963
21
1.678515
31
0.0
0
LINE
8
MCD_Layer_0
10
6.015511
20
5.843320
30
0.0
11
9.029268
21
3.023451
31
0.0
0
LINE
8
MCD_Layer_0
10
9.047087
20
3.023451
30
0.0
11
9.141631
21
3.035269
31
0.0
0
LINE
8
MCD_Layer_0
10
9.023451
20
3.094359
30
0.0
11
9.023451
21
4.536146
31
0.0
0
LINE
8
MCD_Layer_0
10
7.678515
20
0.015511
30
0.0
11
11.843320
21
0.003878
31
0.0
0
LINE
8
MCD_Layer_0
10
6.042378
20
1.906380
30
0.0
11
11.964916
21
3.029268
31
0.0
0
LINE
8
MCD_Layer_0
10
8.319915
20
3.229896
30
0.0
11
6.000000
21
3.029268
31
0.0
0
LINE
8
MCD_Layer_0
10
9.023451
20
3.047087
30
0.0
11
9.023451
21
3.141631
31
0.0
0
LINE
8
MCD_Layer_0
10
9.035269
20
3.023451
30
0.0
11
9.094359
21
3.023451
31
0.0
0
LINE
8
MCD_Layer_0
10
9.023451
20
2.319915
30
0.0
11
9.229896
21
0.000000
31
0.0
0
LINE
8
MCD_Layer_0
10
9.029268
20
2.112640
30
0.0
11
11.487213
21
0.049580
31
0.0
0
LINE
8
MCD_Layer_0
10
9.785615
20
4.361462
30
0.0
11
11.865479
21
0.013572
31
0.0
0
LINE
8
MCD_Layer_0
10
9.029268
20
3.023451
30
0.0
11
9.047087
21
3.023451
31
0.0
0
LINE
8
MCD_Layer_0
10
9.141631
20
3.035269
30
0.0
11
9.023451
21
3.094359
31
0.0
0
LINE
8
MCD_Layer_0
10
9.023451
20
3.779799
30
0.0
11
10.361462
21
5.865479
31
0.0
0
LINE
8
MCD_Layer_0
10
6.013572
20
2.651094
30
0.0
11
6.145416
21
3.407349
31
0.0
0
LINE
8
MCD_Layer_0
10
11.877851
20
0.382052
30
0.0
11
6.976826
21
1.516480
31
0.0
0
LINE
8
MCD_Layer_0
10
11.540763
20
3.029268
30
0.0
11
9.023451
21
3.047087
31
0.0
0
LINE
8
MCD_Layer_0
10
9.023451
20
3.094359
30
0.0
11
9.035269
21
3.023451
31
0.0
0
LINE
8
MCD_Layer_0
10
9.070723
20
3.023451
30
0.0
11
6.376235
21
0.976826
31
0.0
0
LINE
8
MCD_Layer_0
10
7.516480
20
5.540763
30
0.0
11
11.298310
21
6.000000
31
0.0
0
LINE
8
MCD_Layer_0
10
8.651002
20
5.057889
30
0.0
11
9.029268
21
3.023451
31
0.0
0
LINE
8
MCD_Layer_0
10
9.047087
20
3.023451
30
0.0
11
9.141631
21
3.035269
31
0.0
0
LINE
8
MCD_Layer_0
10
9.023451
20
3.094359
30
0.0
11
9.023451
21
5.292494
31
0.0
0
LINE
8
MCD_Layer_0
10
12.000000
20
2.651002
30
0.0
11
11.057889
21
0.760225
31
0.0
0
LINE
8
MCD_Layer_0
10
10.942295
20
5.298218
30
0.0
11
11.276983
21
2.272920
31
0.0
0
LINE
8
MCD_Layer_0
10
9.669190
20
2.272828
30
0.0
11
11.406426
21
3.029268
31
0.0
0
LINE
8
MCD_Layer_0
10
9.023451
20
3.047087
30
0.0
11
9.023451
21
3.141631
31
0.0
0
LINE
8
MCD_Layer_0
10
9.035269
20
3.023451
30
0.0
11
9.094359
21
3.023451
31
0.0
0
LINE
8
MCD_Layer_0
10
8.267104
20
3.669190
30
0.0
11
8.272828
21
5.406426
31
0.0
0
LINE
8
MCD_Layer_0
10
6.003878
20
1.783400
30
0.0
11
10.919952
21
5.457298
31
0.0
0
LINE
8
MCD_Layer_0
10
9.029268
20
2.304404
30
0.0
11
7.894377
21
5.388884
31
0.0
0
LINE
8
MCD_Layer_0
10
9.029268
20
3.023451
30
0.0
11
9.047087
21
3.023451
31
0.0
0
LINE
8
MCD_Layer_0
10
9.141631
20
3.035269
30
0.0
11
9.023451
21
3.094359
31
0.0
0
LINE
8
MCD_Layer_0
10
9.023451
20
3.023451
30
0.0
11
8.304404
21
1.894377
31
0.0
0
LINE
8
MCD_Layer_0
10
11.388884
20
3.029268
30
0.0
11
10.806297
21
3.418983
31
0.0
0
LINE
8
MCD_Layer_0
10
11.341150
20
3.029268
30
0.0
11
9.016896
21
3.418983
31
0.0
0
LINE
8
MCD_Layer_0
10
11.273382
20
3.029268
30
0.0
11
9.023451
21
3.047087
31
0.0
0
LINE
8
MCD_Layer_0
10
9.023451
20
3.141631
30
0.0
11
9.035269
21
3.023451
31
0.0
0
LINE
8
MCD_Layer_0
10
9.094359
20
3.023451
30
0.0
11
9.023451
21
3.016896
31
0.0
0
LINE
8
MCD_Layer_0
10
9.418983
20
5.273382
30
0.0
11
6.003878
21
1.693011
31
0.0
0
LINE
8
MCD_Layer_0
10
6.015511
20
4.922999
30
0.0
11
10.541963
21
3.000000
31
0.0
0
LINE
8
MCD_Layer_0
10
11.309944
20
4.713046
30
0.0
11
9.029268
21
3.023451
31
0.0
0
LINE
8
MCD_Layer_0
10
9.047087
20
3.023451
30
0.0
11
9.141631
21
3.035269
31
0.0
0
LINE
8
MCD_Layer_0
10
9.023451
20
3.094359
30
0.0
11
9.023451
21
4.536146
31
0.0
0
LINE
8
MCD_Layer_0
10
9.000000
20
5.309944
30
0.0
11
10.713046
21
3.029268
31
0.0
0
LINE
8
MCD_Layer_0
10
10.623673
20
3.040993
30
0.0
11
9.941003
21
1.516573
31
0.0
0
LINE
8
MCD_Layer_0
10
11.206906
20
4.553688
30
0.0
11
9.022713
21
3.029176
31
0.0
0
LINE
8
MCD_Layer_0
10
9.023451
20
3.047087
30
0.0
11
9.023451
21
3.141631
31
0.0
0
LINE
8
MCD_Layer_0
10
9.035269
20
3.023451
30
0.0
11
9.094359
21
3.023451
31
0.0
0
LINE
8
MCD_Layer_0
10
7.510756
20
5.206906
30
0.0
11
10.553688
21
3.022713
31
0.0
0
LINE
8
MCD_Layer_0
10
9.029176
20
4.623673
30
0.0
11
9.040993
21
1.189364
31
0.0
0
LINE
8
MCD_Layer_0
10
10.541871
20
3.000000
30
0.0
11
6.015511
21
5.340689
31
0.0
0
LINE
8
MCD_Layer_0
10
9.029176
20
3.023451
30
0.0
11
9.047087
21
3.023451
31
0.0
0
LINE
8
MCD_Layer_0
10
9.141631
20
3.035269
30
0.0
11
9.023451
21
3.094359
31
0.0
0
LINE
8
MCD_Layer_0
10
9.023451
20
4.536146
30
0.0
11
9.000000
21
0.015511
31
0.0
0
LINE
8
MCD_Layer_0
10
11.340689
20
0.003785
30
0.0
11
7.693011
21
3.040901
31
0.0
0
LINE
8
MCD_Layer_0
10
10.500877
20
3.029176
30
0.0
11
9.016896
21
1.528114
31
0.0
0
LINE
8
MCD_Layer_0
10
9.099437
20
3.029176
30
0.0
11
9.023451
21
3.047087
31
0.0
0
LINE
8
MCD_Layer_0
10
9.023451
20
3.141631
30
0.0
11
9.035269
21
3.023451
31
0.0
0
LINE
8
MCD_Layer_0
10
9.094359
20
3.023451
30
0.0
11
9.023451
21
3.016896
31
0.0
0
LINE
8
MCD_Layer_0
10
7.528114
20
3.099437
30
0.0
11
9.029176
21
4.806297
31
0.0
0
LINE
8
MCD_Layer_0
10
9.040809
20
2.633367
30
0.0
11
9.029083
21
2.304404
31
0.0
0
LINE
8
MCD_Layer_0
10
6.003508
20
2.255747
30
0.0
11
9.029083
21
3.023451
31
0.0
0
LINE
8
MCD_Layer_0
10
9.047087
20
3.023451
30
0.0
11
9.141631
21
3.035269
31
0.0
0
LINE
8
MCD_Layer_0
10
9.023451
20
3.094359
30
0.0
11
9.023451
21
3.023451
31
0.0
0
LINE
8
MCD_Layer_0
10
8.304404
20
0.003508
30
0.0
11
8.255747
21
0.003693
31
0.0
0
LINE
8
MCD_Layer_0
10
7.783400
20
3.029083
30
0.0
11
7.703998
21
2.272736
31
0.0
0
LINE
8
MCD_Layer_0
10
9.669190
20
3.029176
30
0.0
11
8.110608
21
3.029083
31
0.0
0
LINE
8
MCD_Layer_0
10
9.023451
20
3.047087
30
0.0
11
9.023451
21
3.141631
31
0.0
0
LINE
8
MCD_Layer_0
10
9.035269
20
3.023451
30
0.0
11
9.094359
21
3.023451
31
0.0
0
LINE
8
MCD_Layer_0
10
8.267104
20
3.669190
30
0.0
11
9.029176
21
2.110608
31
0.0
0
LINE
8
MCD_Layer_0
10
6.760041
20
4.942295
30
0.0
11
6.003785
21
3.084941
31
0.0
0
LINE
8
MCD_Layer_0
10
11.298218
20
6.000000
30
0.0
11
10.541871
21
3.961130
31
0.0
0
LINE
8
MCD_Layer_0
10
9.029176
20
3.023451
30
0.0
11
9.047087
21
3.023451
31
0.0
0
LINE
8
MCD_Layer_0
10
9.094359
20
3.035269
30
0.0
11
9.023451
21
3.070723
31
0.0
0
LINE
8
MCD_Layer_0
10
9.023451
20
5.292494
30
0.0
11
12.000000
21
4.541871
31
0.0
0
LINE
8
MCD_Layer_0
10
9.961130
20
0.381959
30
0.0
11
6.976826
21
0.003785
31
0.0
0
LINE
8
MCD_Layer_0
10
7.040809
20
3.029083
30
0.0
11
9.023451
21
3.047087
31
0.0
0
LINE
8
MCD_Layer_0
10
17.986245
20
0.610546
30
0.0
11
15.022283
21
3.004860
31
0.0
0
LINE
8
MCD_Layer_0
10
17.986245
20
0.610546
30
0.0
11
15.022283
21
0.000000
31
0.0
0
LINE
8
MCD_Layer_0
10
15.010637
20
3.004860
30
0.0
11
15.028336
21
3.004860
31
0.0
0
LINE
8
MCD_Layer_0
10
15.075287
20
3.016598
30
0.0
11
15.004860
21
3.051811
31
0.0
0
LINE
8
MCD_Layer_0
10
15.004860
20
5.986245
30
0.0
11
12.610546
21
3.022283
31
0.0
0
LINE
8
MCD_Layer_0
10
12.000000
20
0.710041
30
0.0
11
15.177900
21
3.022283
31
0.0
0
LINE
8
MCD_Layer_0
10
12.000000
20
3.010637
30
0.0
11
15.004860
21
3.028336
31
0.0
0
LINE
8
MCD_Layer_0
10
15.004860
20
3.122238
30
0.0
11
15.016598
21
3.004860
31
0.0
0
LINE
8
MCD_Layer_0
10
15.075287
20
3.004860
30
0.0
11
12.704264
21
3.177900
31
0.0
0
LINE
8
MCD_Layer_0
10
15.022283
20
0.000000
30
0.0
11
14.846309
21
5.067309
31
0.0
0
LINE
8
MCD_Layer_0
10
14.646584
20
5.957359
30
0.0
11
15.714901
21
6.000000
31
0.0
0
LINE
8
MCD_Layer_0
10
17.264007
20
5.839615
30
0.0
11
15.010637
21
3.004860
31
0.0
0
LINE
8
MCD_Layer_0
10
15.028336
20
3.004860
30
0.0
11
15.122238
21
3.016598
31
0.0
0
LINE
8
MCD_Layer_0
10
15.004860
20
3.075287
30
0.0
11
15.004860
21
3.709124
31
0.0
0
LINE
8
MCD_Layer_0
10
18.000000
20
5.264007
30
0.0
11
17.839615
21
1.602109
31
0.0
0
LINE
8
MCD_Layer_0
10
12.894177
20
3.761669
30
0.0
11
17.656946
21
3.057588
31
0.0
0
LINE
8
MCD_Layer_0
10
16.339019
20
0.756901
30
0.0
11
17.147272
21
3.010637
31
0.0
0
LINE
8
MCD_Layer_0
10
15.004860
20
3.028336
30
0.0
11
15.004860
21
3.122238
31
0.0
0
LINE
8
MCD_Layer_0
10
15.016598
20
3.004860
30
0.0
11
15.075287
21
3.004860
31
0.0
0
LINE
8
MCD_Layer_0
10
15.051811
20
4.339019
30
0.0
11
12.756901
21
5.147272
31
0.0
0
LINE
8
MCD_Layer_0
10
16.560018
20
5.531316
30
0.0
11
15.761761
21
4.737460
31
0.0
0
LINE
8
MCD_Layer_0
10
14.658505
20
0.235488
30
0.0
11
16.137368
21
4.211004
31
0.0
0
LINE
8
MCD_Layer_0
10
15.010637
20
3.004860
30
0.0
11
15.028336
21
3.004860
31
0.0
0
LINE
8
MCD_Layer_0
10
15.122238
20
3.016598
30
0.0
11
15.004860
21
3.075287
31
0.0
0
LINE
8
MCD_Layer_0
10
15.004860
20
2.652728
30
0.0
11
12.235488
21
4.137368
31
0.0
0
LINE
8
MCD_Layer_0
10
16.211004
20
1.156075
30
0.0
11
12.557634
21
4.137368
31
0.0
0
LINE
8
MCD_Layer_0
10
15.482623
20
5.663365
30
0.0
11
12.610546
21
0.005685
31
0.0
0
LINE
8
MCD_Layer_0
10
15.032462
20
3.010637
30
0.0
11
15.004860
21
3.028336
31
0.0
0
LINE
8
MCD_Layer_0
10
15.004860
20
3.122238
30
0.0
11
15.016598
21
3.004860
31
0.0
0
LINE
8
MCD_Layer_0
10
15.075287
20
3.004860
30
0.0
11
15.028336
21
0.605777
31
0.0
0
LINE
8
MCD_Layer_0
10
15.010546
20
3.026502
30
0.0
11
13.156075
21
0.557634
31
0.0
0
LINE
8
MCD_Layer_0
10
15.010546
20
2.049335
30
0.0
11
14.658414
21
0.235488
31
0.0
0
LINE
8
MCD_Layer_0
10
14.259331
20
0.592481
30
0.0
11
15.010546
21
3.004860
31
0.0
0
LINE
8
MCD_Layer_0
10
15.028336
20
3.004860
30
0.0
11
15.122238
21
3.016598
31
0.0
0
LINE
8
MCD_Layer_0
10
15.004860
20
3.075287
30
0.0
11
15.004860
21
2.652728
31
0.0
0
LINE
8
MCD_Layer_0
10
12.235488
20
2.259331
30
0.0
11
12.592481
21
4.559927
31
0.0
0
LINE
8
MCD_Layer_0
10
17.531316
20
4.512976
30
0.0
11
17.089042
21
3.057497
31
0.0
0
LINE
8
MCD_Layer_0
10
16.339019
20
3.010546
30
0.0
11
15.449610
21
3.010546
31
0.0
0
LINE
8
MCD_Layer_0
10
15.004860
20
3.028336
30
0.0
11
15.004860
21
3.122238
31
0.0
0
LINE
8
MCD_Layer_0
10
15.016598
20
3.004860
30
0.0
11
15.075287
21
3.004860
31
0.0
0
LINE
8
MCD_Layer_0
10
15.051811
20
4.339019
30
0.0
11
15.010546
21
3.449610
31
0.0
0
LINE
8
MCD_Layer_0
10
13.602017
20
0.894177
30
0.0
11
15.010454
21
5.644383
31
0.0
0
LINE
8
MCD_Layer_0
10
15.714718
20
6.000000
30
0.0
11
15.010362
21
2.437781
31
0.0
0
LINE
8
MCD_Layer_0
10
15.010362
20
3.004860
30
0.0
11
15.028336
21
3.004860
31
0.0
0
LINE
8
MCD_Layer_0
10
15.122238
20
3.016598
30
0.0
11
15.004860
21
3.075287
31
0.0
0
LINE
8
MCD_Layer_0
10
15.004860
20
3.709124
30
0.0
11
18.000000
21
3.010362
31
0.0
0
LINE
8
MCD_Layer_0
10
14.437781
20
2.846034
30
0.0
11
17.067309
21
3.022192
31
0.0
0
LINE
8
MCD_Layer_0
10
15.346355
20
0.709766
30
0.0
11
15.177900
21
3.022283
31
0.0
0
LINE
8
MCD_Layer_0
10
15.004860
20
3.004860
30
0.0
11
15.004860
21
3.028336
31
0.0
0
LINE
8
MCD_Layer_0
10
15.004860
20
3.075287
30
0.0
11
15.016598
21
3.004860
31
0.0
0
LINE
8
MCD_Layer_0
10
15.051811
20
3.004860
30
0.0
11
12.704264
21
3.177900
31
0.0
0
LINE
8
MCD_Layer_0
10
15.022283
20
3.004860
30
0.0
11
17.986245
21
0.610546
31
0.0
0
LINE
8
MCD_Layer_0
10
15.022283
20
3.004860
30
0.0
11
15.004860
21
3.004860
31
0.0
0
LINE
8
MCD_Layer_0
10
15.028336
20
3.004860
30
0.0
11
15.075287
21
3.016598
31
0.0
0
LINE
8
MCD_Layer_0
10
15.004860
20
3.051811
30
0.0
11
15.004860
21
5.962769
31
0.0
0
LINE
8
MCD_Layer_0
10
16.466392
20
0.017423
30
0.0
11
14.524072
21
2.212288
31
0.0
0
LINE
8
MCD_Layer_0
10
15.237964
20
0.017423
30
0.0
11
14.524072
21
3.010454
31
0.0
0
LINE
8
MCD_Layer_0
10
15.004860
20
3.028336
30
0.0
11
15.004860
21
3.122238
31
0.0
0
LINE
8
MCD_Layer_0
10
15.016598
20
3.004860
30
0.0
11
15.075287
21
3.004860
31
0.0
0
LINE
8
MCD_Layer_0
10
14.206694
20
3.237964
30
0.0
11
12.017423
21
2.524072
31
0.0
0
LINE
8
MCD_Layer_0
10
14.916552
20
0.624943
30
0.0
11
12.017331
21
2.831820
31
0.0
0
LINE
8
MCD_Layer_0
10
14.658322
20
1.783677
30
0.0
11
12.017240
21
3.266850
31
0.0
0
LINE
8
MCD_Layer_0
10
15.010546
20
3.004860
30
0.0
11
15.028336
21
3.004860
31
0.0
0
LINE
8
MCD_Layer_0
10
15.122238
20
3.016598
30
0.0
11
15.004860
21
3.075287
31
0.0
0
LINE
8
MCD_Layer_0
10
15.004860
20
2.652728
30
0.0
11
13.783677
21
0.017240
31
0.0
0
LINE
8
MCD_Layer_0
10
15.266850
20
3.362678
30
0.0
11
13.379826
21
1.507932
31
0.0
0
LINE
8
MCD_Layer_0
10
15.793306
20
3.104448
30
0.0
11
13.471160
21
1.508024
31
0.0
0
LINE
8
MCD_Layer_0
10
17.218799
20
3.010546
30
0.0
11
15.004860
21
3.028336
31
0.0
0
LINE
8
MCD_Layer_0
10
15.004860
20
3.122238
30
0.0
11
15.016598
21
3.004860
31
0.0
0
LINE
8
MCD_Layer_0
10
15.075287
20
3.004860
30
0.0
11
15.098762
21
1.471160
31
0.0
0
LINE
8
MCD_Layer_0
10
13.508024
20
5.218799
30
0.0
11
13.555066
21
3.149014
31
0.0
0
LINE
8
MCD_Layer_0
10
12.756901
20
0.241541
30
0.0
11
16.559927
21
3.848602
31
0.0
0
LINE
8
MCD_Layer_0
10
14.259331
20
1.017973
30
0.0
11
15.010546
21
3.004860
31
0.0
0
LINE
8
MCD_Layer_0
10
15.028336
20
3.004860
30
0.0
11
15.122238
21
3.016598
31
0.0
0
LINE
8
MCD_Layer_0
10
15.004860
20
3.075287
30
0.0
11
15.004860
21
4.554241
31
0.0
0
LINE
8
MCD_Layer_0
10
15.848602
20
2.259331
30
0.0
11
13.017973
21
3.808712
31
0.0
0
LINE
8
MCD_Layer_0
10
16.319762
20
0.005685
30
0.0
11
13.998808
21
3.808712
31
0.0
0
LINE
8
MCD_Layer_0
10
16.476020
20
0.005685
30
0.0
11
15.032462
21
3.010637
31
0.0
0
LINE
8
MCD_Layer_0
10
15.004860
20
3.028336
30
0.0
11
15.004860
21
3.122238
31
0.0
0
LINE
8
MCD_Layer_0
10
15.016598
20
3.004860
30
0.0
11
15.075287
21
3.004860
31
0.0
0
LINE
8
MCD_Layer_0
10
15.803026
20
4.476020
30
0.0
11
12.005685
21
3.032462
31
0.0
0
LINE
8
MCD_Layer_0
10
15.808803
20
4.319762
30
0.0
11
14.634938
21
3.507199
31
0.0
0
LINE
8
MCD_Layer_0
10
16.560018
20
3.848602
30
0.0
11
16.137368
21
3.998258
31
0.0
0
LINE
8
MCD_Layer_0
10
15.010637
20
3.004860
30
0.0
11
15.028336
21
3.004860
31
0.0
0
LINE
8
MCD_Layer_0
10
15.122238
20
3.016598
30
0.0
11
15.004860
21
3.075287
31
0.0
0
LINE
8
MCD_Layer_0
10
15.004860
20
4.554241
30
0.0
11
15.848602
21
4.137368
31
0.0
0
LINE
8
MCD_Layer_0
10
15.998258
20
1.555158
30
0.0
11
15.149014
21
4.888583
31
0.0
0
LINE
8
MCD_Layer_0
10
16.385878
20
3.104539
30
0.0
11
13.403851
21
5.639707
31
0.0
0
LINE
8
MCD_Layer_0
10
16.707382
20
3.010637
30
0.0
11
15.004860
21
3.028336
31
0.0
0
LINE
8
MCD_Layer_0
10
15.004860
20
3.122238
30
0.0
11
15.016598
21
3.004860
31
0.0
0
LINE
8
MCD_Layer_0
10
15.075287
20
3.004860
30
0.0
11
15.098762
21
1.403851
31
0.0
0
LINE
8
MCD_Layer_0
10
17.639707
20
4.707382
30
0.0
11
15.362769
21
1.379826
31
0.0
0
LINE
8
MCD_Layer_0
10
14.259147
20
5.060706
30
0.0
11
14.658505
21
1.341311
31
0.0
0
LINE
8
MCD_Layer_0
10
13.519670
20
5.187529
30
0.0
11
15.010637
21
3.004860
31
0.0
0
LINE
8
MCD_Layer_0
10
15.028336
20
3.004860
30
0.0
11
15.122238
21
3.016598
31
0.0
0
LINE
8
MCD_Layer_0
10
15.004860
20
3.075287
30
0.0
11
15.004860
21
2.652728
31
0.0
0
LINE
8
MCD_Layer_0
10
13.341311
20
1.519670
30
0.0
11
17.187529
21
2.916735
31
0.0
0
LINE
8
MCD_Layer_0
10
12.624943
20
5.651444
30
0.0
11
17.279505
21
2.212471
31
0.0
0
LINE
8
MCD_Layer_0
10
15.237964
20
5.651536
30
0.0
11
17.318569
21
3.010637
31
0.0
0
LINE
8
MCD_Layer_0
10
15.004860
20
3.028336
30
0.0
11
15.004860
21
3.075287
31
0.0
0
LINE
8
MCD_Layer_0
10
15.016598
20
3.004860
30
0.0
11
15.051811
21
3.004860
31
0.0
0
LINE
8
MCD_Layer_0
10
14.206694
20
3.237964
30
0.0
11
17.651536
21
5.318569
31
0.0
0
LINE
8
MCD_Layer_0
10
17.968547
20
4.466392
30
0.0
11
17.651536
21
5.318569
31
0.0
0
LINE
8
MCD_Layer_0
10
15.010637
20
3.004860
30
0.0
11
15.028336
21
3.004860
31
0.0
0
LINE
8
MCD_Layer_0
10
15.075287
20
3.016598
30
0.0
11
15.004860
21
3.051811
31
0.0
0
LINE
8
MCD_Layer_0
10
15.004860
20
5.962769
30
0.0
11
16.466392
21
5.651536
31
0.0
0
LINE
8
MCD_Layer_0
10
17.318569
20
5.968547
30
0.0
11
16.466392
21
0.017423
31
0.0
0
LINE
8
MCD_Layer_0
10
14.524072
20
3.010454
30
0.0
11
15.004860
21
3.028336
31
0.0
0
LINE
8
MCD_Layer_0
10
23.264057
20
0.961307
30
0.0
11
21.013724
21
2.406940
31
0.0
0
LINE
8
MCD_Layer_0
10
23.269748
20
0.961307
30
0.0
11
21.013724
21
1.036857
31
0.0
0
LINE
8
MCD_Layer_0
10
21.013632
20
3.008032
30
0.0
11
21.031533
21
3.008032
31
0.0
0
LINE
8
MCD_Layer_0
10
21.125534
20
3.019782
30
0.0
11
21.008032
21
3.078533
31
0.0
0
LINE
8
MCD_Layer_0
10
21.008032
20
5.264057
30
0.0
11
18.961307
21
3.013724
31
0.0
0
LINE
8
MCD_Layer_0
10
19.036857
20
0.757608
30
0.0
11
18.134667
21
3.013724
31
0.0
0
LINE
8
MCD_Layer_0
10
20.429155
20
1.509524
30
0.0
11
22.312205
21
3.013724
31
0.0
0
LINE
8
MCD_Layer_0
10
18.887135
20
3.025199
30
0.0
11
21.008032
21
3.031533
31
0.0
0
LINE
8
MCD_Layer_0
10
21.008032
20
3.125534
30
0.0
11
21.019782
21
3.008032
31
0.0
0
LINE
8
MCD_Layer_0
10
21.078533
20
3.008032
30
0.0
11
19.504016
21
4.312205
31
0.0
0
LINE
8
MCD_Layer_0
10
21.013724
20
0.887135
30
0.0
11
21.025199
21
2.054987
31
0.0
0
LINE
8
MCD_Layer_0
10
21.013632
20
0.275761
30
0.0
11
21.025290
21
2.498187
31
0.0
0
LINE
8
MCD_Layer_0
10
21.025290
20
3.436912
30
0.0
11
21.025107
21
3.008032
31
0.0
0
LINE
8
MCD_Layer_0
10
21.031533
20
3.008032
30
0.0
11
21.125534
21
3.019782
31
0.0
0
LINE
8
MCD_Layer_0
10
21.008032
20
3.078533
30
0.0
11
21.008032
21
3.008032
31
0.0
0
LINE
8
MCD_Layer_0
10
20.498187
20
3.025290
30
0.0
11
21.436912
21
3.025107
31
0.0
0
LINE
8
MCD_Layer_0
10
18.091522
20
3.025382
30
0.0
11
23.368339
21
3.013540
31
0.0
0
LINE
8
MCD_Layer_0
10
19.718272
20
3.025382
30
0.0
11
21.267178
21
3.013632
31
0.0
0
LINE
8
MCD_Layer_0
10
21.008032
20
3.031533
30
0.0
11
21.008032
21
3.125534
31
0.0
0
LINE
8
MCD_Layer_0
10
21.019782
20
3.008032
30
0.0
11
21.078533
21
3.008032
31
0.0
0
LINE
8
MCD_Layer_0
10
21.008032
20
1.718272
30
0.0
11
21.025382
21
3.267178
31
0.0
0
LINE
8
MCD_Layer_0
10
18.005600
20
4.444669
30
0.0
11
18.017442
21
2.278515
31
0.0
0
LINE
8
MCD_Layer_0
10
18.005600
20
5.229173
30
0.0
11
21.025474
21
3.644375
31
0.0
0
LINE
8
MCD_Layer_0
10
21.013724
20
3.008032
30
0.0
11
21.031533
21
3.008032
31
0.0
0
LINE
8
MCD_Layer_0
10
21.125534
20
3.019782
30
0.0
11
21.008032
21
3.078533
31
0.0
0
LINE
8
MCD_Layer_0
10
21.008032
20
0.000000
30
0.0
11
23.229173
21
3.025474
31
0.0
0
LINE
8
MCD_Layer_0
10
21.644375
20
4.517740
30
0.0
11
18.617249
21
0.017442
31
0.0
0
LINE
8
MCD_Layer_0
10
18.751274
20
5.269748
30
0.0
11
18.956534
21
2.273466
31
0.0
0
LINE
8
MCD_Layer_0
10
20.897783
20
3.013724
30
0.0
11
21.008032
21
3.031533
31
0.0
0
LINE
8
MCD_Layer_0
10
21.008032
20
3.125534
30
0.0
11
21.019782
21
3.008032
31
0.0
0
LINE
8
MCD_Layer_0
10
21.078533
20
3.008032
30
0.0
11
23.264057
21
0.956534
31
0.0
0
LINE
8
MCD_Layer_0
10
20.273466
20
2.897783
30
0.0
11
18.005691
21
0.810942
31
0.0
0
LINE
8
MCD_Layer_0
10
19.145454
20
3.837242
30
0.0
11
23.269840
21
0.281544
31
0.0
0
LINE
8
MCD_Layer_0
10
21.025474
20
4.671134
30
0.0
11
21.013816
21
3.008032
31
0.0
0
LINE
8
MCD_Layer_0
10
21.031533
20
3.008032
30
0.0
11
21.125534
21
3.019782
31
0.0
0
LINE
8
MCD_Layer_0
10
21.008032
20
3.078533
30
0.0
11
21.008032
21
5.264057
31
0.0
0
LINE
8
MCD_Layer_0
10
18.281544
20
3.025474
30
0.0
11
22.671134
21
0.005783
31
0.0
0
LINE
8
MCD_Layer_0
10
23.217148
20
5.657502
30
0.0
11
23.220361
21
3.013816
31
0.0
0
LINE
8
MCD_Layer_0
10
21.193372
20
5.281498
30
0.0
11
23.708266
21
3.013816
31
0.0
0
LINE
8
MCD_Layer_0
10
21.008032
20
3.031533
30
0.0
11
21.008032
21
3.125534
31
0.0
0
LINE
8
MCD_Layer_0
10
21.019782
20
3.008032
30
0.0
11
21.078533
21
3.008032
31
0.0
0
LINE
8
MCD_Layer_0
10
21.008032
20
3.193372
30
0.0
11
23.281498
21
5.708266
31
0.0
0
LINE
8
MCD_Layer_0
10
21.013816
20
4.437600
30
0.0
11
19.897370
21
6.000000
31
0.0
0
LINE
8
MCD_Layer_0
10
18.005783
20
0.365631
30
0.0
11
22.705650
21
0.043420
31
0.0
0
LINE
8
MCD_Layer_0
10
21.013816
20
3.008032
30
0.0
11
21.031533
21
3.008032
31
0.0
0
LINE
8
MCD_Layer_0
10
21.125534
20
3.019782
30
0.0
11
21.008032
21
3.078533
31
0.0
0
LINE
8
MCD_Layer_0
10
21.008032
20
0.000000
30
0.0
11
18.365631
21
4.705650
31
0.0
0
LINE
8
MCD_Layer_0
10
18.043420
20
0.005783
30
0.0
11
22.591362
21
1.133704
31
0.0
0
LINE
8
MCD_Layer_0
10
23.913985
20
5.269840
30
0.0
11
18.467985
21
5.645752
31
0.0
0
LINE
8
MCD_Layer_0
10
23.450773
20
3.013816
30
0.0
11
21.008032
21
3.031533
31
0.0
0
LINE
8
MCD_Layer_0
10
21.008032
20
3.078533
30
0.0
11
21.019782
21
3.008032
31
0.0
0
LINE
8
MCD_Layer_0
10
21.055033
20
3.008032
30
0.0
11
23.264057
21
0.467985
31
0.0
0
LINE
8
MCD_Layer_0
10
23.645752
20
5.450773
30
0.0
11
18.005783
21
4.836829
31
0.0
0
LINE
8
MCD_Layer_0
10
19.133704
20
5.004360
30
0.0
11
21.013816
21
3.008032
31
0.0
0
LINE
8
MCD_Layer_0
10
21.031533
20
3.008032
30
0.0
11
21.125534
21
3.019782
31
0.0
0
LINE
8
MCD_Layer_0
10
21.008032
20
3.078533
30
0.0
11
21.008032
21
0.000000
31
0.0
0
LINE
8
MCD_Layer_0
10
22.836829
20
1.133704
30
0.0
11
23.004360
21
4.517832
31
0.0
0
LINE
8
MCD_Layer_0
10
21.364116
20
2.637720
30
0.0
11
23.293707
21
0.005783
31
0.0
0
LINE
8
MCD_Layer_0
10
18.076835
20
5.645660
30
0.0
11
23.411668
21
3.013816
31
0.0
0
LINE
8
MCD_Layer_0
10
21.008032
20
3.031533
30
0.0
11
21.008032
21
3.125534
31
0.0
0
LINE
8
MCD_Layer_0
10
21.019782
20
3.008032
30
0.0
11
21.078533
21
3.008032
31
0.0
0
LINE
8
MCD_Layer_0
10
18.000000
20
0.076835
30
0.0
11
23.645660
21
5.411668
31
0.0
0
LINE
8
MCD_Layer_0
10
21.013816
20
2.691513
30
0.0
11
22.905219
21
5.348511
31
0.0
0
LINE
8
MCD_Layer_0
10
21.013816
20
5.833387
30
0.0
11
22.905402
21
5.169229
31
0.0
0
LINE
8
MCD_Layer_0
10
21.013816
20
3.008032
30
0.0
11
21.031533
21
3.008032
31
0.0
0
LINE
8
MCD_Layer_0
10
21.125534
20
3.019782
30
0.0
11
21.008032
21
3.078533
31
0.0
0
LINE
8
MCD_Layer_0
10
21.008032
20
3.008032
30
0.0
11
23.833387
21
4.905402
31
0.0
0
LINE
8
MCD_Layer_0
10
23.169229
20
0.005783
30
0.0
11
21.056134
21
2.273466
31
0.0
0
LINE
8
MCD_Layer_0
10
22.788360
20
1.509799
30
0.0
11
22.052417
21
5.281498
31
0.0
0
LINE
8
MCD_Layer_0
10
22.388948
20
3.013816
30
0.0
11
21.008032
21
3.031533
31
0.0
0
LINE
8
MCD_Layer_0
10
21.008032
20
3.125534
30
0.0
11
21.019782
21
3.008032
31
0.0
0
LINE
8
MCD_Layer_0
10
21.078533
20
3.008032
30
0.0
11
19.504016
21
4.052417
31
0.0
0
LINE
8
MCD_Layer_0
10
23.281498
20
4.388948
30
0.0
11
22.517832
21
4.923578
31
0.0
0
LINE
8
MCD_Layer_0
10
19.145454
20
3.702483
30
0.0
11
18.005783
21
5.161794
31
0.0
0
LINE
8
MCD_Layer_0
10
21.777482
20
2.890623
30
0.0
11
21.013724
21
3.008032
31
0.0
0
LINE
8
MCD_Layer_0
10
21.031533
20
3.008032
30
0.0
11
21.125534
21
3.019782
31
0.0
0
LINE
8
MCD_Layer_0
10
21.008032
20
3.078533
30
0.0
11
21.008032
21
0.000000
31
0.0
0
LINE
8
MCD_Layer_0
10
23.161794
20
3.777482
30
0.0
11
20.890623
21
0.005691
31
0.0
0
LINE
8
MCD_Layer_0
10
22.622757
20
3.777482
30
0.0
11
19.184468
21
1.509708
31
0.0
0
LINE
8
MCD_Layer_0
10
21.022445
20
1.521458
30
0.0
11
23.311975
21
3.013724
31
0.0
0
LINE
8
MCD_Layer_0
10
21.008032
20
3.031533
30
0.0
11
21.008032
21
3.125534
31
0.0
0
LINE
8
MCD_Layer_0
10
21.019782
20
3.008032
30
0.0
11
21.078533
21
3.008032
31
0.0
0
LINE
8
MCD_Layer_0
10
19.504016
20
3.022445
30
0.0
11
19.521458
21
5.311975
31
0.0
0
LINE
8
MCD_Layer_0
10
18.005691
20
1.732685
30
0.0
11
22.529398
21
4.476982
31
0.0
0
LINE
8
MCD_Layer_0
10
21.013724
20
3.099647
30
0.0
11
21.025382
21
3.083674
31
0.0
0
LINE
8
MCD_Layer_0
10
21.013724
20
3.008032
30
0.0
11
21.031533
21
3.008032
31
0.0
0
LINE
8
MCD_Layer_0
10
21.125534
20
3.019782
30
0.0
11
21.008032
21
3.078533
31
0.0
0
LINE
8
MCD_Layer_0
10
21.008032
20
3.008032
30
0.0
11
21.099647
21
3.025382
31
0.0
0
LINE
8
MCD_Layer_0
10
21.083674
20
3.013724
30
0.0
11
23.160141
21
0.017258
31
0.0
0
LINE
8
MCD_Layer_0
10
20.620186
20
3.013632
30
0.0
11
19.457016
21
3.013448
31
0.0
0
LINE
8
MCD_Layer_0
10
20.244825
20
3.013632
30
0.0
11
21.008032
21
3.031533
31
0.0
0
LINE
8
MCD_Layer_0
10
21.008032
20
3.125534
30
0.0
11
21.019782
21
3.008032
31
0.0
0
LINE
8
MCD_Layer_0
10
21.078533
20
3.008032
30
0.0
11
21.008032
21
1.457016
31
0.0
0
LINE
8
MCD_Layer_0
10
21.013448
20
2.244825
30
0.0
11
21.013632
21
1.722862
31
0.0
0
LINE
8
MCD_Layer_0
10
18.005600
20
1.696149
30
0.0
11
18.005600
21
3.626383
31
0.0
0
LINE
8
MCD_Layer_0
10
18.005691
20
2.100427
30
0.0
11
21.013632
21
3.008032
31
0.0
0
LINE
8
MCD_Layer_0
10
21.031533
20
3.008032
30
0.0
11
21.125534
21
3.019782
31
0.0
0
LINE
8
MCD_Layer_0
10
21.008032
20
3.078533
30
0.0
11
21.008032
21
0.000000
31
0.0
0
LINE
8
MCD_Layer_0
10
21.626383
20
0.005691
30
0.0
11
20.100427
21
3.013632
31
0.0
0
LINE
8
MCD_Layer_0
10
22.430165
20
3.013724
30
0.0
11
20.653968
21
0.005600
31
0.0
0
LINE
8
MCD_Layer_0
10
23.171341
20
1.509708
30
0.0
11
21.252031
21
3.013724
31
0.0
0
LINE
8
MCD_Layer_0
10
21.008032
20
3.031533
30
0.0
11
21.008032
21
3.078533
31
0.0
0
LINE
8
MCD_Layer_0
10
21.019782
20
3.008032
30
0.0
11
21.055033
21
3.008032
31
0.0
0
LINE
8
MCD_Layer_0
10
18.000000
20
5.171341
30
0.0
11
19.509708
21
3.252031
31
0.0
0
LINE
8
MCD_Layer_0
10
18.005691
20
5.171341
30
0.0
11
21.013724
21
2.406940
31
0.0
0
LINE
8
MCD_Layer_0
10
21.013724
20
3.008032
30
0.0
11
21.031533
21
3.008032
31
0.0
0
LINE
8
MCD_Layer_0
10
21.078533
20
3.019782
30
0.0
11
21.008032
21
3.055033
31
0.0
0
LINE
8
MCD_Layer_0
10
21.008032
20
0.000000
30
0.0
11
23.171341
21
3.013724
31
0.0
0
LINE
8
MCD_Layer_0
10
20.406940
20
5.269748
30
0.0
11
18.961307
21
3.013724
31
0.0
0
LINE
8
MCD_Layer_0
10
20.406940
20
3.013724
30
0.0
11
21.008032
21
3.031533
31
0.0
0
LINE
8
MCD_Layer_0
10
23.913985
20
0.031945
30
0.0
11
27.429629
21
6.000000
31
0.0
0
LINE
8
MCD_Layer_0
10
26.285084
20
5.594130
30
0.0
11
27.444962
21
3.027647
31
0.0
0
LINE
8
MCD_Layer_0
10
24.946898
20
1.649501
30
0.0
11
27.444962
21
3.174475
31
0.0
0
LINE
8
MCD_Layer_0
10
27.429977
20
2.497948
30
0.0
11
27.452745
21
2.497948
31
0.0
0
LINE
8
MCD_Layer_0
10
27.571695
20
2.512817
30
0.0
11
27.423007
21
2.587160
31
0.0
0
LINE
8
MCD_Layer_0
10
27.423007
20
0.000000
30
0.0
11
26.574560
21
2.519902
31
0.0
0
ENDSEC
0
EOF
