0
SECTION
2
ENTITIES
0
LINE
8
MCD_Layer_0
10
0.000000
20
0.000000
30
0.0
11
0.000000
21
4.481250
31
0.0
0
LINE
8
MCD_Layer_0
10
0.705886
20
5.741671
30
0.0
11
0.508745
21
5.588055
31
0.0
0
LINE
8
MCD_Layer_0
10
0.508745
20
5.588055
30
0.0
11
0.338474
21
5.405106
31
0.0
0
LINE
8
MCD_Layer_0
10
0.338474
20
5.405106
30
0.0
11
0.199387
21
5.197458
31
0.0
0
LINE
8
MCD_Layer_0
10
0.199387
20
5.197458
30
0.0
11
0.095007
21
4.970374
31
0.0
0
LINE
8
MCD_Layer_0
10
0.095007
20
4.970374
30
0.0
11
0.027979
21
4.729605
31
0.0
0
LINE
8
MCD_Layer_0
10
0.027979
20
4.729605
30
0.0
11
0.000000
21
4.481250
31
0.0
0
LINE
8
MCD_Layer_0
10
2.358861
20
5.787779
30
0.0
11
2.095927
21
5.909748
31
0.0
0
LINE
8
MCD_Layer_0
10
2.095927
20
5.909748
30
0.0
11
1.815052
21
5.981301
31
0.0
0
LINE
8
MCD_Layer_0
10
1.815052
20
5.981301
30
0.0
11
1.525811
21
6.000000
31
0.0
0
LINE
8
MCD_Layer_0
10
1.525811
20
6.000000
30
0.0
11
1.238061
21
5.965207
31
0.0
0
LINE
8
MCD_Layer_0
10
1.238061
20
5.965207
30
0.0
11
0.961612
21
5.878108
31
0.0
0
LINE
8
MCD_Layer_0
10
0.961612
20
5.878108
30
0.0
11
0.705886
21
5.741671
31
0.0
0
LINE
8
MCD_Layer_0
10
3.139234
20
4.481250
30
0.0
11
3.108301
21
4.743892
31
0.0
0
LINE
8
MCD_Layer_0
10
3.108301
20
4.743892
30
0.0
11
3.033767
21
4.997628
31
0.0
0
LINE
8
MCD_Layer_0
10
3.033767
20
4.997628
30
0.0
11
2.917742
21
5.235274
31
0.0
0
LINE
8
MCD_Layer_0
10
2.917742
20
5.235274
30
0.0
11
2.763511
21
5.450100
31
0.0
0
LINE
8
MCD_Layer_0
10
2.763511
20
5.450100
30
0.0
11
2.575442
21
5.636024
31
0.0
0
LINE
8
MCD_Layer_0
10
2.575442
20
5.636024
30
0.0
11
2.358861
21
5.787779
31
0.0
0
LINE
8
MCD_Layer_0
10
3.139234
20
4.481250
30
0.0
11
3.139234
21
0.000000
31
0.0
0
LINE
8
MCD_Layer_0
10
0.679873
20
0.000000
30
0.0
11
0.679873
21
2.967788
31
0.0
0
LINE
8
MCD_Layer_0
10
0.679873
20
3.647664
30
0.0
11
0.679873
21
4.458788
31
0.0
0
LINE
8
MCD_Layer_0
10
1.080110
20
5.173536
30
0.0
11
0.968279
21
5.086462
31
0.0
0
LINE
8
MCD_Layer_0
10
0.968279
20
5.086462
30
0.0
11
0.871697
21
4.982732
31
0.0
0
LINE
8
MCD_Layer_0
10
0.871697
20
4.982732
30
0.0
11
0.792817
21
4.864978
31
0.0
0
LINE
8
MCD_Layer_0
10
0.792817
20
4.864978
30
0.0
11
0.733641
21
4.736190
31
0.0
0
LINE
8
MCD_Layer_0
10
0.733641
20
4.736190
30
0.0
11
0.695672
21
4.599638
31
0.0
0
LINE
8
MCD_Layer_0
10
0.695672
20
4.599638
30
0.0
11
0.679873
21
4.458788
31
0.0
0
LINE
8
MCD_Layer_0
10
2.017151
20
5.200142
30
0.0
11
1.868083
21
5.269302
31
0.0
0
LINE
8
MCD_Layer_0
10
1.868083
20
5.269302
30
0.0
11
1.708831
21
5.309844
31
0.0
0
LINE
8
MCD_Layer_0
10
1.708831
20
5.309844
30
0.0
11
1.544839
21
5.320382
31
0.0
0
LINE
8
MCD_Layer_0
10
1.544839
20
5.320382
30
0.0
11
1.381709
21
5.300556
31
0.0
0
LINE
8
MCD_Layer_0
10
1.381709
20
5.300556
30
0.0
11
1.225014
21
5.251043
31
0.0
0
LINE
8
MCD_Layer_0
10
1.225014
20
5.251043
30
0.0
11
1.080110
21
5.173536
31
0.0
0
LINE
8
MCD_Layer_0
10
2.459363
20
4.458788
30
0.0
11
2.441995
21
4.607805
31
0.0
0
LINE
8
MCD_Layer_0
10
2.441995
20
4.607805
30
0.0
11
2.399851
21
4.751788
31
0.0
0
LINE
8
MCD_Layer_0
10
2.399851
20
4.751788
30
0.0
11
2.334126
21
4.886650
31
0.0
0
LINE
8
MCD_Layer_0
10
2.334126
20
4.886650
30
0.0
11
2.246688
21
5.008560
31
0.0
0
LINE
8
MCD_Layer_0
10
2.246688
20
5.008560
30
0.0
11
2.140020
21
5.114056
31
0.0
0
LINE
8
MCD_Layer_0
10
2.140020
20
5.114056
30
0.0
11
2.017151
21
5.200142
31
0.0
0
LINE
8
MCD_Layer_0
10
2.459363
20
4.458788
30
0.0
11
2.459363
21
3.647664
31
0.0
0
LINE
8
MCD_Layer_0
10
2.459363
20
2.967788
30
0.0
11
2.459363
21
0.000000
31
0.0
0
LINE
8
MCD_Layer_0
10
0.000000
20
0.000000
30
0.0
11
0.679873
21
0.000000
31
0.0
0
LINE
8
MCD_Layer_0
10
0.679873
20
2.967788
30
0.0
11
2.459363
21
2.967788
31
0.0
0
LINE
8
MCD_Layer_0
10
2.459363
20
3.647664
30
0.0
11
0.679873
21
3.647664
31
0.0
0
LINE
8
MCD_Layer_0
10
2.459363
20
0.000000
30
0.0
11
3.139234
21
0.000000
31
0.0
0
LINE
8
MCD_Layer_0
10
3.139234
20
0.000000
30
0.0
11
3.139234
21
6.000000
31
0.0
0
LINE
8
MCD_Layer_0
10
3.139234
20
6.000000
30
0.0
11
4.579235
21
6.000000
31
0.0
0
LINE
8
MCD_Layer_0
10
6.020436
20
5.207405
30
0.0
11
5.850889
21
5.438506
31
0.0
0
LINE
8
MCD_Layer_0
10
5.850889
20
5.438506
30
0.0
11
5.643890
21
5.636763
31
0.0
0
LINE
8
MCD_Layer_0
10
5.643890
20
5.636763
30
0.0
11
5.405693
21
5.796186
31
0.0
0
LINE
8
MCD_Layer_0
10
5.405693
20
5.796186
30
0.0
11
5.143490
21
5.911960
31
0.0
0
LINE
8
MCD_Layer_0
10
5.143490
20
5.911960
30
0.0
11
4.865202
21
5.980589
31
0.0
0
LINE
8
MCD_Layer_0
10
4.865202
20
5.980589
30
0.0
11
4.579235
21
6.000000
31
0.0
0
LINE
8
MCD_Layer_0
10
6.052236
20
3.711605
30
0.0
11
6.154006
21
3.950968
31
0.0
0
LINE
8
MCD_Layer_0
10
6.154006
20
3.950968
30
0.0
11
6.213987
21
4.204056
31
0.0
0
LINE
8
MCD_Layer_0
10
6.213987
20
4.204056
30
0.0
11
6.230466
21
4.463632
31
0.0
0
LINE
8
MCD_Layer_0
10
6.230466
20
4.463632
30
0.0
11
6.202970
21
4.722274
31
0.0
0
LINE
8
MCD_Layer_0
10
6.202970
20
4.722274
30
0.0
11
6.132286
21
4.972584
31
0.0
0
LINE
8
MCD_Layer_0
10
6.132286
20
4.972584
30
0.0
11
6.020436
21
5.207405
31
0.0
0
LINE
8
MCD_Layer_0
10
5.779234
20
3.316206
30
0.0
11
5.829793
21
3.378456
31
0.0
0
LINE
8
MCD_Layer_0
10
5.829793
20
3.378456
30
0.0
11
5.878389
21
3.442250
31
0.0
0
LINE
8
MCD_Layer_0
10
5.878389
20
3.442250
30
0.0
11
5.924975
21
3.507526
31
0.0
0
LINE
8
MCD_Layer_0
10
5.924975
20
3.507526
30
0.0
11
5.969507
21
3.574220
31
0.0
0
LINE
8
MCD_Layer_0
10
5.969507
20
3.574220
30
0.0
11
6.011941
21
3.642269
31
0.0
0
LINE
8
MCD_Layer_0
10
6.011941
20
3.642269
30
0.0
11
6.052236
21
3.711605
31
0.0
0
LINE
8
MCD_Layer_0
10
6.272435
20
2.763010
30
0.0
11
6.206148
21
2.868180
31
0.0
0
LINE
8
MCD_Layer_0
10
6.206148
20
2.868180
30
0.0
11
6.133039
21
2.968728
31
0.0
0
LINE
8
MCD_Layer_0
10
6.133039
20
2.968728
30
0.0
11
6.053431
21
3.064211
31
0.0
0
LINE
8
MCD_Layer_0
10
6.053431
20
3.064211
30
0.0
11
5.967672
21
3.154212
31
0.0
0
LINE
8
MCD_Layer_0
10
5.967672
20
3.154212
30
0.0
11
5.876139
21
3.238333
31
0.0
0
LINE
8
MCD_Layer_0
10
5.876139
20
3.238333
30
0.0
11
5.779234
21
3.316206
31
0.0
0
LINE
8
MCD_Layer_0
10
6.260435
20
0.852001
30
0.0
11
6.406481
21
1.152191
31
0.0
0
LINE
8
MCD_Layer_0
10
6.406481
20
1.152191
30
0.0
11
6.496872
21
1.473551
31
0.0
0
LINE
8
MCD_Layer_0
10
6.496872
20
1.473551
30
0.0
11
6.528732
21
1.805859
31
0.0
0
LINE
8
MCD_Layer_0
10
6.528732
20
1.805859
30
0.0
11
6.501048
21
2.138540
31
0.0
0
LINE
8
MCD_Layer_0
10
6.501048
20
2.138540
30
0.0
11
6.414699
21
2.461010
31
0.0
0
LINE
8
MCD_Layer_0
10
6.414699
20
2.461010
30
0.0
11
6.272435
21
2.763010
31
0.0
0
LINE
8
MCD_Layer_0
10
4.804235
20
0.000000
30
0.0
11
5.097166
21
0.026946
31
0.0
0
LINE
8
MCD_Layer_0
10
5.097166
20
0.026946
30
0.0
11
5.380926
21
0.104500
31
0.0
0
LINE
8
MCD_Layer_0
10
5.380926
20
0.104500
30
0.0
11
5.646843
21
0.230290
31
0.0
0
LINE
8
MCD_Layer_0
10
5.646843
20
0.230290
30
0.0
11
5.886786
21
0.400471
31
0.0
0
LINE
8
MCD_Layer_0
10
5.886786
20
0.400471
30
0.0
11
6.093423
21
0.609841
31
0.0
0
LINE
8
MCD_Layer_0
10
6.093423
20
0.609841
30
0.0
11
6.260435
21
0.852001
31
0.0
0
LINE
8
MCD_Layer_0
10
4.804235
20
0.000000
30
0.0
11
3.139234
21
0.000000
31
0.0
0
LINE
8
MCD_Layer_0
10
3.829235
20
0.690004
30
0.0
11
4.801234
21
0.690004
31
0.0
0
LINE
8
MCD_Layer_0
10
4.801234
20
0.690004
30
0.0
11
4.976973
21
0.706458
31
0.0
0
LINE
8
MCD_Layer_0
10
4.976973
20
0.706458
30
0.0
11
5.147034
21
0.753729
31
0.0
0
LINE
8
MCD_Layer_0
10
5.147034
20
0.753729
30
0.0
11
5.306056
21
0.830328
31
0.0
0
LINE
8
MCD_Layer_0
10
5.306056
20
0.830328
30
0.0
11
5.449025
21
0.933841
31
0.0
0
LINE
8
MCD_Layer_0
10
5.449025
20
0.933841
30
0.0
11
5.571438
21
1.061004
31
0.0
0
LINE
8
MCD_Layer_0
10
5.571438
20
1.061004
30
0.0
11
5.669434
21
1.207809
31
0.0
0
LINE
8
MCD_Layer_0
10
5.669434
20
1.207809
30
0.0
11
5.761815
21
1.397318
31
0.0
0
LINE
8
MCD_Layer_0
10
5.761815
20
1.397318
30
0.0
11
5.818970
21
1.600250
31
0.0
0
LINE
8
MCD_Layer_0
10
5.818970
20
1.600250
30
0.0
11
5.839072
21
1.810117
31
0.0
0
LINE
8
MCD_Layer_0
10
5.839072
20
1.810117
30
0.0
11
5.821477
21
2.020208
31
0.0
0
LINE
8
MCD_Layer_0
10
5.821477
20
2.020208
30
0.0
11
5.766748
21
2.223808
31
0.0
0
LINE
8
MCD_Layer_0
10
5.766748
20
2.223808
30
0.0
11
5.676635
21
2.414406
31
0.0
0
LINE
8
MCD_Layer_0
10
5.676635
20
2.414406
30
0.0
11
5.622012
21
2.499620
31
0.0
0
LINE
8
MCD_Layer_0
10
5.622012
20
2.499620
30
0.0
11
5.560260
21
2.579818
31
0.0
0
LINE
8
MCD_Layer_0
10
5.560260
20
2.579818
30
0.0
11
5.491836
21
2.654406
31
0.0
0
LINE
8
MCD_Layer_0
10
5.491836
20
2.654406
30
0.0
11
5.417248
21
2.722829
31
0.0
0
LINE
8
MCD_Layer_0
10
5.417248
20
2.722829
30
0.0
11
5.337050
21
2.784582
31
0.0
0
LINE
8
MCD_Layer_0
10
5.337050
20
2.784582
30
0.0
11
5.251836
21
2.839205
31
0.0
0
LINE
8
MCD_Layer_0
10
3.829235
20
2.406006
30
0.0
11
4.080414
21
2.417842
31
0.0
0
LINE
8
MCD_Layer_0
10
4.080414
20
2.417842
30
0.0
11
4.329179
21
2.454547
31
0.0
0
LINE
8
MCD_Layer_0
10
4.329179
20
2.454547
30
0.0
11
4.573073
21
2.515756
31
0.0
0
LINE
8
MCD_Layer_0
10
4.573073
20
2.515756
30
0.0
11
4.809688
21
2.600868
31
0.0
0
LINE
8
MCD_Layer_0
10
4.809688
20
2.600868
30
0.0
11
5.036690
21
2.709040
31
0.0
0
LINE
8
MCD_Layer_0
10
5.036690
20
2.709040
30
0.0
11
5.251836
21
2.839205
31
0.0
0
LINE
8
MCD_Layer_0
10
3.829235
20
2.406006
30
0.0
11
3.829235
21
0.690004
31
0.0
0
LINE
8
MCD_Layer_0
10
3.829235
20
3.096004
30
0.0
11
4.098341
21
3.114931
31
0.0
0
LINE
8
MCD_Layer_0
10
4.098341
20
3.114931
30
0.0
11
4.361802
21
3.172936
31
0.0
0
LINE
8
MCD_Layer_0
10
4.361802
20
3.172936
30
0.0
11
4.613975
21
3.268776
31
0.0
0
LINE
8
MCD_Layer_0
10
4.613975
20
3.268776
30
0.0
11
4.849457
21
3.400398
31
0.0
0
LINE
8
MCD_Layer_0
10
4.849457
20
3.400398
30
0.0
11
5.063204
21
3.564984
31
0.0
0
LINE
8
MCD_Layer_0
10
5.063204
20
3.564984
30
0.0
11
5.250637
21
3.759007
31
0.0
0
LINE
8
MCD_Layer_0
10
5.250637
20
3.759007
30
0.0
11
5.287650
21
3.804632
31
0.0
0
LINE
8
MCD_Layer_0
10
5.287650
20
3.804632
30
0.0
11
5.323222
21
3.851389
31
0.0
0
LINE
8
MCD_Layer_0
10
5.323222
20
3.851389
30
0.0
11
5.357319
21
3.899233
31
0.0
0
LINE
8
MCD_Layer_0
10
5.357319
20
3.899233
30
0.0
11
5.389909
21
3.948116
31
0.0
0
LINE
8
MCD_Layer_0
10
5.389909
20
3.948116
30
0.0
11
5.420958
21
3.997992
31
0.0
0
LINE
8
MCD_Layer_0
10
5.420958
20
3.997992
30
0.0
11
5.450437
21
4.048811
31
0.0
0
LINE
8
MCD_Layer_0
10
5.450437
20
4.048811
30
0.0
11
5.502255
21
4.177424
31
0.0
0
LINE
8
MCD_Layer_0
10
5.502255
20
4.177424
30
0.0
11
5.532501
21
4.312744
31
0.0
0
LINE
8
MCD_Layer_0
10
5.532501
20
4.312744
30
0.0
11
5.540372
21
4.451179
31
0.0
0
LINE
8
MCD_Layer_0
10
5.540372
20
4.451179
30
0.0
11
5.525660
21
4.589056
31
0.0
0
LINE
8
MCD_Layer_0
10
5.525660
20
4.589056
30
0.0
11
5.488755
21
4.722713
31
0.0
0
LINE
8
MCD_Layer_0
10
5.488755
20
4.722713
30
0.0
11
5.430636
21
4.848604
31
0.0
0
LINE
8
MCD_Layer_0
10
5.430636
20
4.848604
30
0.0
11
5.332196
21
4.983232
31
0.0
0
LINE
8
MCD_Layer_0
10
5.332196
20
4.983232
30
0.0
11
5.211878
21
5.098725
31
0.0
0
LINE
8
MCD_Layer_0
10
5.211878
20
5.098725
30
0.0
11
5.073337
21
5.191576
31
0.0
0
LINE
8
MCD_Layer_0
10
5.073337
20
5.191576
30
0.0
11
4.920780
21
5.258965
31
0.0
0
LINE
8
MCD_Layer_0
10
4.920780
20
5.258965
30
0.0
11
4.758840
21
5.298846
31
0.0
0
LINE
8
MCD_Layer_0
10
4.758840
20
5.298846
30
0.0
11
4.592436
21
5.310007
31
0.0
0
LINE
8
MCD_Layer_0
10
4.592436
20
5.310007
30
0.0
11
3.829235
21
5.310007
31
0.0
0
LINE
8
MCD_Layer_0
10
3.829235
20
5.310007
30
0.0
11
3.829235
21
3.096004
31
0.0
0
LINE
8
MCD_Layer_0
10
9.491541
20
0.072854
30
0.0
11
9.655951
21
0.121489
31
0.0
0
LINE
8
MCD_Layer_0
10
9.655951
20
0.121489
30
0.0
11
9.814771
21
0.186081
31
0.0
0
LINE
8
MCD_Layer_0
10
9.814771
20
0.186081
30
0.0
11
9.966458
21
0.266002
31
0.0
0
LINE
8
MCD_Layer_0
10
9.966458
20
0.266002
30
0.0
11
10.109534
21
0.360475
31
0.0
0
LINE
8
MCD_Layer_0
10
10.109534
20
0.360475
30
0.0
11
10.242610
21
0.468582
31
0.0
0
LINE
8
MCD_Layer_0
10
10.242610
20
0.468582
30
0.0
11
10.364390
21
0.589270
31
0.0
0
LINE
8
MCD_Layer_0
10
8.286597
20
0.098937
30
0.0
11
8.483385
21
0.047078
31
0.0
0
LINE
8
MCD_Layer_0
10
8.483385
20
0.047078
30
0.0
11
8.684185
21
0.014000
31
0.0
0
LINE
8
MCD_Layer_0
10
8.684185
20
0.014000
30
0.0
11
8.887210
21
0.000000
31
0.0
0
LINE
8
MCD_Layer_0
10
8.887210
20
0.000000
30
0.0
11
9.090650
21
0.005202
31
0.0
0
LINE
8
MCD_Layer_0
10
9.090650
20
0.005202
30
0.0
11
9.292693
21
0.029558
31
0.0
0
LINE
8
MCD_Layer_0
10
9.292693
20
0.029558
30
0.0
11
9.491541
21
0.072854
31
0.0
0
LINE
8
MCD_Layer_0
10
7.883212
20
0.298893
30
0.0
11
7.946009
21
0.257323
31
0.0
0
LINE
8
MCD_Layer_0
10
7.946009
20
0.257323
30
0.0
11
8.010799
21
0.218932
31
0.0
0
LINE
8
MCD_Layer_0
10
8.010799
20
0.218932
30
0.0
11
8.077420
21
0.183815
31
0.0
0
LINE
8
MCD_Layer_0
10
8.077420
20
0.183815
30
0.0
11
8.145707
21
0.152059
31
0.0
0
LINE
8
MCD_Layer_0
10
8.145707
20
0.152059
30
0.0
11
8.215490
21
0.123743
31
0.0
0
LINE
8
MCD_Layer_0
10
8.215490
20
0.123743
30
0.0
11
8.286597
21
0.098937
31
0.0
0
LINE
8
MCD_Layer_0
10
7.192929
20
0.979906
30
0.0
11
7.289840
21
0.849466
31
0.0
0
LINE
8
MCD_Layer_0
10
7.289840
20
0.849466
30
0.0
11
7.394557
21
0.725204
31
0.0
0
LINE
8
MCD_Layer_0
10
7.394557
20
0.725204
30
0.0
11
7.506686
21
0.607588
31
0.0
0
LINE
8
MCD_Layer_0
10
7.506686
20
0.607588
30
0.0
11
7.625807
21
0.497059
31
0.0
0
LINE
8
MCD_Layer_0
10
7.625807
20
0.497059
30
0.0
11
7.751473
21
0.394032
31
0.0
0
LINE
8
MCD_Layer_0
10
7.751473
20
0.394032
30
0.0
11
7.883212
21
0.298893
31
0.0
0
LINE
8
MCD_Layer_0
10
6.528732
20
2.999732
30
0.0
11
6.547373
21
2.639926
31
0.0
0
LINE
8
MCD_Layer_0
10
6.547373
20
2.639926
30
0.0
11
6.604110
21
2.284132
31
0.0
0
LINE
8
MCD_Layer_0
10
6.604110
20
2.284132
30
0.0
11
6.698304
21
1.936374
31
0.0
0
LINE
8
MCD_Layer_0
10
6.698304
20
1.936374
30
0.0
11
6.828888
21
1.600583
31
0.0
0
LINE
8
MCD_Layer_0
10
6.828888
20
1.600583
30
0.0
11
6.994387
21
1.280554
31
0.0
0
LINE
8
MCD_Layer_0
10
6.994387
20
1.280554
30
0.0
11
7.192929
21
0.979906
31
0.0
0
LINE
8
MCD_Layer_0
10
7.192929
20
5.020729
30
0.0
11
6.994286
21
4.719914
31
0.0
0
LINE
8
MCD_Layer_0
10
6.994286
20
4.719914
30
0.0
11
6.828725
21
4.399698
31
0.0
0
LINE
8
MCD_Layer_0
10
6.828725
20
4.399698
30
0.0
11
6.698117
21
4.063706
31
0.0
0
LINE
8
MCD_Layer_0
10
6.698117
20
4.063706
30
0.0
11
6.603943
21
3.715740
31
0.0
0
LINE
8
MCD_Layer_0
10
6.603943
20
3.715740
30
0.0
11
6.547268
21
3.359739
31
0.0
0
LINE
8
MCD_Layer_0
10
6.547268
20
3.359739
30
0.0
11
6.528732
21
2.999732
31
0.0
0
LINE
8
MCD_Layer_0
10
7.883212
20
5.701157
30
0.0
11
7.751588
21
5.605996
31
0.0
0
LINE
8
MCD_Layer_0
10
7.751588
20
5.605996
30
0.0
11
7.625999
21
5.503001
31
0.0
0
LINE
8
MCD_Layer_0
10
7.625999
20
5.503001
30
0.0
11
7.506910
21
5.392555
31
0.0
0
LINE
8
MCD_Layer_0
10
7.506910
20
5.392555
30
0.0
11
7.394763
21
5.275067
31
0.0
0
LINE
8
MCD_Layer_0
10
7.394763
20
5.275067
30
0.0
11
7.289973
21
5.150971
31
0.0
0
LINE
8
MCD_Layer_0
10
7.289973
20
5.150971
30
0.0
11
7.192929
21
5.020729
31
0.0
0
LINE
8
MCD_Layer_0
10
8.286597
20
5.901693
30
0.0
11
8.215424
21
5.876921
31
0.0
0
LINE
8
MCD_Layer_0
10
8.215424
20
5.876921
30
0.0
11
8.145594
21
5.848582
31
0.0
0
LINE
8
MCD_Layer_0
10
8.145594
20
5.848582
30
0.0
11
8.077285
21
5.816751
31
0.0
0
LINE
8
MCD_Layer_0
10
8.077285
20
5.816751
30
0.0
11
8.010673
21
5.781509
31
0.0
0
LINE
8
MCD_Layer_0
10
8.010673
20
5.781509
30
0.0
11
7.945926
21
5.742944
31
0.0
0
LINE
8
MCD_Layer_0
10
7.945926
20
5.742944
30
0.0
11
7.883212
21
5.701157
31
0.0
0
LINE
8
MCD_Layer_0
10
9.491541
20
5.927771
30
0.0
11
9.292657
21
5.970721
31
0.0
0
LINE
8
MCD_Layer_0
10
9.292657
20
5.970721
30
0.0
11
9.090627
21
5.994868
31
0.0
0
LINE
8
MCD_Layer_0
10
9.090627
20
5.994868
30
0.0
11
8.887224
21
6.000000
31
0.0
0
LINE
8
MCD_Layer_0
10
8.887224
20
6.000000
30
0.0
11
8.684233
21
5.986072
31
0.0
0
LINE
8
MCD_Layer_0
10
8.684233
20
5.986072
30
0.0
11
8.483436
21
5.953207
31
0.0
0
LINE
8
MCD_Layer_0
10
8.483436
20
5.953207
30
0.0
11
8.286597
21
5.901693
31
0.0
0
LINE
8
MCD_Layer_0
10
10.364390
20
5.411372
30
0.0
11
10.242439
21
5.531840
31
0.0
0
LINE
8
MCD_Layer_0
10
10.242439
20
5.531840
30
0.0
11
10.109284
21
5.639796
31
0.0
0
LINE
8
MCD_Layer_0
10
10.109284
20
5.639796
30
0.0
11
9.966204
21
5.734203
31
0.0
0
LINE
8
MCD_Layer_0
10
9.966204
20
5.734203
30
0.0
11
9.814571
21
5.814156
31
0.0
0
LINE
8
MCD_Layer_0
10
9.814571
20
5.814156
30
0.0
11
9.655842
21
5.878885
31
0.0
0
LINE
8
MCD_Layer_0
10
9.655842
20
5.878885
30
0.0
11
9.491541
21
5.927771
31
0.0
0
LINE
8
MCD_Layer_0
10
10.364390
20
5.411372
30
0.0
11
9.883918
21
4.948863
31
0.0
0
LINE
8
MCD_Layer_0
10
9.883918
20
4.948863
30
0.0
11
9.806739
21
5.027312
31
0.0
0
LINE
8
MCD_Layer_0
10
9.806739
20
5.027312
30
0.0
11
9.721988
21
5.097512
31
0.0
0
LINE
8
MCD_Layer_0
10
9.721988
20
5.097512
30
0.0
11
9.630540
21
5.158735
31
0.0
0
LINE
8
MCD_Layer_0
10
9.630540
20
5.158735
30
0.0
11
9.533344
21
5.210347
31
0.0
0
LINE
8
MCD_Layer_0
10
9.533344
20
5.210347
30
0.0
11
9.431407
21
5.251814
31
0.0
0
LINE
8
MCD_Layer_0
10
9.431407
20
5.251814
30
0.0
11
9.325783
21
5.282707
31
0.0
0
LINE
8
MCD_Layer_0
10
9.325783
20
5.282707
30
0.0
11
9.187311
21
5.312795
31
0.0
0
LINE
8
MCD_Layer_0
10
9.187311
20
5.312795
30
0.0
11
9.046633
21
5.329810
31
0.0
0
LINE
8
MCD_Layer_0
10
9.046633
20
5.329810
30
0.0
11
8.904981
21
5.333603
31
0.0
0
LINE
8
MCD_Layer_0
10
8.904981
20
5.333603
30
0.0
11
8.763595
21
5.324141
31
0.0
0
LINE
8
MCD_Layer_0
10
8.763595
20
5.324141
30
0.0
11
8.623711
21
5.301507
31
0.0
0
LINE
8
MCD_Layer_0
10
8.623711
20
5.301507
30
0.0
11
8.486556
21
5.265898
31
0.0
0
LINE
8
MCD_Layer_0
10
8.486556
20
5.265898
30
0.0
11
8.447614
21
5.252091
31
0.0
0
LINE
8
MCD_Layer_0
10
8.447614
20
5.252091
30
0.0
11
8.409404
21
5.236371
31
0.0
0
LINE
8
MCD_Layer_0
10
8.409404
20
5.236371
30
0.0
11
8.372020
21
5.218776
31
0.0
0
LINE
8
MCD_Layer_0
10
8.372020
20
5.218776
30
0.0
11
8.335555
21
5.199349
31
0.0
0
LINE
8
MCD_Layer_0
10
8.335555
20
5.199349
30
0.0
11
8.300097
21
5.178139
31
0.0
0
LINE
8
MCD_Layer_0
10
8.300097
20
5.178139
30
0.0
11
8.265734
21
5.155198
31
0.0
0
LINE
8
MCD_Layer_0
10
8.265734
20
5.155198
30
0.0
11
8.161912
21
5.080780
31
0.0
0
LINE
8
MCD_Layer_0
10
8.161912
20
5.080780
30
0.0
11
8.063054
21
4.999885
31
0.0
0
LINE
8
MCD_Layer_0
10
8.063054
20
4.999885
30
0.0
11
7.969562
21
4.912843
31
0.0
0
LINE
8
MCD_Layer_0
10
7.969562
20
4.912843
30
0.0
11
7.881819
21
4.820009
31
0.0
0
LINE
8
MCD_Layer_0
10
7.881819
20
4.820009
30
0.0
11
7.800183
21
4.721762
31
0.0
0
LINE
8
MCD_Layer_0
10
7.800183
20
4.721762
30
0.0
11
7.724987
21
4.618502
31
0.0
0
LINE
8
MCD_Layer_0
10
7.724987
20
4.618502
30
0.0
11
7.566001
21
4.377723
31
0.0
0
LINE
8
MCD_Layer_0
10
7.566001
20
4.377723
30
0.0
11
7.433851
21
4.121231
31
0.0
0
LINE
8
MCD_Layer_0
10
7.433851
20
4.121231
30
0.0
11
7.330074
21
3.852006
31
0.0
0
LINE
8
MCD_Layer_0
10
7.330074
20
3.852006
30
0.0
11
7.255875
21
3.573177
31
0.0
0
LINE
8
MCD_Layer_0
10
7.255875
20
3.573177
30
0.0
11
7.212116
21
3.287981
31
0.0
0
LINE
8
MCD_Layer_0
10
7.212116
20
3.287981
30
0.0
11
7.199305
21
2.999732
31
0.0
0
LINE
8
MCD_Layer_0
10
7.199305
20
2.999732
30
0.0
11
7.212268
21
2.711602
31
0.0
0
LINE
8
MCD_Layer_0
10
7.212268
20
2.711602
30
0.0
11
7.256116
21
2.426534
31
0.0
0
LINE
8
MCD_Layer_0
10
7.256116
20
2.426534
30
0.0
11
7.330341
21
2.147827
31
0.0
0
LINE
8
MCD_Layer_0
10
7.330341
20
2.147827
30
0.0
11
7.434083
21
1.878709
31
0.0
0
LINE
8
MCD_Layer_0
10
7.434083
20
1.878709
30
0.0
11
7.566142
21
1.622297
31
0.0
0
LINE
8
MCD_Layer_0
10
7.566142
20
1.622297
30
0.0
11
7.724987
21
1.381559
31
0.0
0
LINE
8
MCD_Layer_0
10
7.724987
20
1.381559
30
0.0
11
7.800183
21
1.278299
31
0.0
0
LINE
8
MCD_Layer_0
10
7.800183
20
1.278299
30
0.0
11
7.881819
21
1.180052
31
0.0
0
LINE
8
MCD_Layer_0
10
7.881819
20
1.180052
30
0.0
11
7.969562
21
1.087218
31
0.0
0
LINE
8
MCD_Layer_0
10
7.969562
20
1.087218
30
0.0
11
8.063054
21
1.000176
31
0.0
0
LINE
8
MCD_Layer_0
10
8.063054
20
1.000176
30
0.0
11
8.161912
21
0.919281
31
0.0
0
LINE
8
MCD_Layer_0
10
8.161912
20
0.919281
30
0.0
11
8.265734
21
0.844863
31
0.0
0
LINE
8
MCD_Layer_0
10
8.265734
20
0.844863
30
0.0
11
8.300031
21
0.821884
31
0.0
0
LINE
8
MCD_Layer_0
10
8.300031
20
0.821884
30
0.0
11
8.335456
21
0.800685
31
0.0
0
LINE
8
MCD_Layer_0
10
8.335456
20
0.800685
30
0.0
11
8.371917
21
0.781323
31
0.0
0
LINE
8
MCD_Layer_0
10
8.371917
20
0.781323
30
0.0
11
8.409320
21
0.763848
31
0.0
0
LINE
8
MCD_Layer_0
10
8.409320
20
0.763848
30
0.0
11
8.447566
21
0.748306
31
0.0
0
LINE
8
MCD_Layer_0
10
8.447566
20
0.748306
30
0.0
11
8.486556
21
0.734737
31
0.0
0
LINE
8
MCD_Layer_0
10
8.486556
20
0.734737
30
0.0
11
8.623670
21
0.698907
31
0.0
0
LINE
8
MCD_Layer_0
10
8.623670
20
0.698907
30
0.0
11
8.763542
21
0.676098
31
0.0
0
LINE
8
MCD_Layer_0
10
8.763542
20
0.676098
30
0.0
11
8.904936
21
0.666513
31
0.0
0
LINE
8
MCD_Layer_0
10
8.904936
20
0.666513
30
0.0
11
9.046606
21
0.670235
31
0.0
0
LINE
8
MCD_Layer_0
10
9.046606
20
0.670235
30
0.0
11
9.187302
21
0.687232
31
0.0
0
LINE
8
MCD_Layer_0
10
9.187302
20
0.687232
30
0.0
11
9.325783
21
0.717354
31
0.0
0
LINE
8
MCD_Layer_0
10
9.325783
20
0.717354
30
0.0
11
9.431407
21
0.748247
31
0.0
0
LINE
8
MCD_Layer_0
10
9.431407
20
0.748247
30
0.0
11
9.533344
21
0.789714
31
0.0
0
LINE
8
MCD_Layer_0
10
9.533344
20
0.789714
30
0.0
11
9.630540
21
0.841326
31
0.0
0
LINE
8
MCD_Layer_0
10
9.630540
20
0.841326
30
0.0
11
9.721988
21
0.902549
31
0.0
0
LINE
8
MCD_Layer_0
10
9.721988
20
0.902549
30
0.0
11
9.806739
21
0.972749
31
0.0
0
LINE
8
MCD_Layer_0
10
9.806739
20
0.972749
30
0.0
11
9.883918
21
1.051198
31
0.0
0
LINE
8
MCD_Layer_0
10
9.883918
20
1.051198
30
0.0
11
10.364390
21
0.589270
31
0.0
0
LINE
8
MCD_Layer_0
10
10.364390
20
0.000000
30
0.0
11
10.364390
21
6.000000
31
0.0
0
LINE
8
MCD_Layer_0
10
10.364390
20
6.000000
30
0.0
11
11.375988
21
6.000000
31
0.0
0
LINE
8
MCD_Layer_0
10
12.262791
20
5.830204
30
0.0
11
12.119814
21
5.879378
31
0.0
0
LINE
8
MCD_Layer_0
10
12.119814
20
5.879378
30
0.0
11
11.974275
21
5.920351
31
0.0
0
LINE
8
MCD_Layer_0
10
11.974275
20
5.920351
30
0.0
11
11.826644
21
5.952992
31
0.0
0
LINE
8
MCD_Layer_0
10
11.826644
20
5.952992
30
0.0
11
11.677397
21
5.977195
31
0.0
0
LINE
8
MCD_Layer_0
10
11.677397
20
5.977195
30
0.0
11
11.527017
21
5.992881
31
0.0
0
LINE
8
MCD_Layer_0
10
11.527017
20
5.992881
30
0.0
11
11.375988
21
6.000000
31
0.0
0
LINE
8
MCD_Layer_0
10
13.252192
20
5.139004
30
0.0
11
13.115744
21
5.290093
31
0.0
0
LINE
8
MCD_Layer_0
10
13.115744
20
5.290093
30
0.0
11
12.966187
21
5.428218
31
0.0
0
LINE
8
MCD_Layer_0
10
12.966187
20
5.428218
30
0.0
11
12.804746
21
5.552246
31
0.0
0
LINE
8
MCD_Layer_0
10
12.804746
20
5.552246
30
0.0
11
12.632747
21
5.661160
31
0.0
0
LINE
8
MCD_Layer_0
10
12.632747
20
5.661160
30
0.0
11
12.451600
21
5.754067
31
0.0
0
LINE
8
MCD_Layer_0
10
12.451600
20
5.754067
30
0.0
11
12.262791
21
5.830204
31
0.0
0
LINE
8
MCD_Layer_0
10
13.786789
20
4.204210
30
0.0
11
13.725079
21
4.374054
31
0.0
0
LINE
8
MCD_Layer_0
10
13.725079
20
4.374054
30
0.0
11
13.651906
21
4.539284
31
0.0
0
LINE
8
MCD_Layer_0
10
13.651906
20
4.539284
30
0.0
11
13.567611
21
4.699127
31
0.0
0
LINE
8
MCD_Layer_0
10
13.567611
20
4.699127
30
0.0
11
13.472590
21
4.852835
31
0.0
0
LINE
8
MCD_Layer_0
10
13.472590
20
4.852835
30
0.0
11
13.367286
21
4.999689
31
0.0
0
LINE
8
MCD_Layer_0
10
13.367286
20
4.999689
30
0.0
11
13.252192
21
5.139004
31
0.0
0
LINE
8
MCD_Layer_0
10
13.973991
20
3.027603
30
0.0
11
13.968941
21
3.226922
31
0.0
0
LINE
8
MCD_Layer_0
10
13.968941
20
3.226922
30
0.0
11
13.953343
21
3.425694
31
0.0
0
LINE
8
MCD_Layer_0
10
13.953343
20
3.425694
30
0.0
11
13.927241
21
3.623361
31
0.0
0
LINE
8
MCD_Layer_0
10
13.927241
20
3.623361
30
0.0
11
13.890708
21
3.819368
31
0.0
0
LINE
8
MCD_Layer_0
10
13.890708
20
3.819368
30
0.0
11
13.843847
21
4.013166
31
0.0
0
LINE
8
MCD_Layer_0
10
13.843847
20
4.013166
30
0.0
11
13.786789
21
4.204210
31
0.0
0
LINE
8
MCD_Layer_0
10
13.786789
20
1.795801
30
0.0
11
13.846324
21
1.994655
31
0.0
0
LINE
8
MCD_Layer_0
10
13.846324
20
1.994655
30
0.0
11
13.894534
21
2.196554
31
0.0
0
LINE
8
MCD_Layer_0
10
13.894534
20
2.196554
30
0.0
11
13.931264
21
2.400853
31
0.0
0
LINE
8
MCD_Layer_0
10
13.931264
20
2.400853
30
0.0
11
13.956397
21
2.606901
31
0.0
0
LINE
8
MCD_Layer_0
10
13.956397
20
2.606901
30
0.0
11
13.969854
21
2.814039
31
0.0
0
LINE
8
MCD_Layer_0
10
13.969854
20
2.814039
30
0.0
11
13.971591
21
3.021606
31
0.0
0
LINE
8
MCD_Layer_0
10
13.252192
20
0.861008
30
0.0
11
13.367285
21
1.000323
31
0.0
0
LINE
8
MCD_Layer_0
10
13.367285
20
1.000323
30
0.0
11
13.472588
21
1.147178
31
0.0
0
LINE
8
MCD_Layer_0
10
13.472588
20
1.147178
30
0.0
11
13.567609
21
1.300886
31
0.0
0
LINE
8
MCD_Layer_0
10
13.567609
20
1.300886
30
0.0
11
13.651903
21
1.460728
31
0.0
0
LINE
8
MCD_Layer_0
10
13.651903
20
1.460728
30
0.0
11
13.725077
21
1.625958
31
0.0
0
LINE
8
MCD_Layer_0
10
13.725077
20
1.625958
30
0.0
11
13.786789
21
1.795801
31
0.0
0
LINE
8
MCD_Layer_0
10
12.262791
20
0.169807
30
0.0
11
12.451600
21
0.245945
31
0.0
0
LINE
8
MCD_Layer_0
10
12.451600
20
0.245945
30
0.0
11
12.632747
21
0.338852
31
0.0
0
LINE
8
MCD_Layer_0
10
12.632747
20
0.338852
30
0.0
11
12.804746
21
0.447766
31
0.0
0
LINE
8
MCD_Layer_0
10
12.804746
20
0.447766
30
0.0
11
12.966187
21
0.571794
31
0.0
0
LINE
8
MCD_Layer_0
10
12.966187
20
0.571794
30
0.0
11
13.115744
21
0.709919
31
0.0
0
LINE
8
MCD_Layer_0
10
13.115744
20
0.709919
30
0.0
11
13.252192
21
0.861008
31
0.0
0
LINE
8
MCD_Layer_0
10
11.375988
20
0.000000
30
0.0
11
11.527017
21
0.007124
31
0.0
0
LINE
8
MCD_Layer_0
10
11.527017
20
0.007124
30
0.0
11
11.677397
21
0.022814
31
0.0
0
LINE
8
MCD_Layer_0
10
11.677397
20
0.022814
30
0.0
11
11.826644
21
0.047019
31
0.0
0
LINE
8
MCD_Layer_0
10
11.826644
20
0.047019
30
0.0
11
11.974275
21
0.079661
31
0.0
0
LINE
8
MCD_Layer_0
10
11.974275
20
0.079661
30
0.0
11
12.119814
21
0.120635
31
0.0
0
LINE
8
MCD_Layer_0
10
12.119814
20
0.120635
30
0.0
11
12.262791
21
0.169807
31
0.0
0
LINE
8
MCD_Layer_0
10
11.375988
20
0.000000
30
0.0
11
10.364390
21
0.000000
31
0.0
0
LINE
8
MCD_Layer_0
10
11.054389
20
0.690004
30
0.0
11
11.360990
21
0.690004
31
0.0
0
LINE
8
MCD_Layer_0
10
11.360990
20
0.690004
30
0.0
11
11.473180
21
0.695090
31
0.0
0
LINE
8
MCD_Layer_0
10
11.473180
20
0.695090
30
0.0
11
11.584896
21
0.706572
31
0.0
0
LINE
8
MCD_Layer_0
10
11.584896
20
0.706572
30
0.0
11
11.695775
21
0.724413
31
0.0
0
LINE
8
MCD_Layer_0
10
11.695775
20
0.724413
30
0.0
11
11.805454
21
0.748554
31
0.0
0
LINE
8
MCD_Layer_0
10
11.805454
20
0.748554
30
0.0
11
11.913577
21
0.778917
31
0.0
0
LINE
8
MCD_Layer_0
10
11.913577
20
0.778917
30
0.0
11
12.019790
21
0.815403
31
0.0
0
LINE
8
MCD_Layer_0
10
12.019790
20
0.815403
30
0.0
11
12.154534
21
0.868828
31
0.0
0
LINE
8
MCD_Layer_0
10
12.154534
20
0.868828
30
0.0
11
12.283926
21
0.934160
31
0.0
0
LINE
8
MCD_Layer_0
10
12.283926
20
0.934160
30
0.0
11
12.406914
21
1.010869
31
0.0
0
LINE
8
MCD_Layer_0
10
12.406914
20
1.010869
30
0.0
11
12.522501
21
1.098333
31
0.0
0
LINE
8
MCD_Layer_0
10
12.522501
20
1.098333
30
0.0
11
12.629750
21
1.195843
31
0.0
0
LINE
8
MCD_Layer_0
10
12.629750
20
1.195843
30
0.0
11
12.727790
21
1.302607
31
0.0
0
LINE
8
MCD_Layer_0
10
12.727790
20
1.302607
30
0.0
11
12.813698
21
1.408304
31
0.0
0
LINE
8
MCD_Layer_0
10
12.813698
20
1.408304
30
0.0
11
12.892466
21
1.519424
31
0.0
0
LINE
8
MCD_Layer_0
10
12.892466
20
1.519424
30
0.0
11
12.963751
21
1.635487
31
0.0
0
LINE
8
MCD_Layer_0
10
12.963751
20
1.635487
30
0.0
11
13.027245
21
1.755989
31
0.0
0
LINE
8
MCD_Layer_0
10
13.027245
20
1.755989
30
0.0
11
13.082672
21
1.880407
31
0.0
0
LINE
8
MCD_Layer_0
10
13.082672
20
1.880407
30
0.0
11
13.129792
21
2.008204
31
0.0
0
LINE
8
MCD_Layer_0
10
13.129792
20
2.008204
30
0.0
11
13.178762
21
2.173740
31
0.0
0
LINE
8
MCD_Layer_0
10
13.178762
20
2.173740
30
0.0
11
13.218713
21
2.341682
31
0.0
0
LINE
8
MCD_Layer_0
10
13.218713
20
2.341682
30
0.0
11
13.249528
21
2.511538
31
0.0
0
LINE
8
MCD_Layer_0
10
13.249528
20
2.511538
30
0.0
11
13.271117
21
2.682811
31
0.0
0
LINE
8
MCD_Layer_0
10
13.271117
20
2.682811
30
0.0
11
13.283416
21
2.855000
31
0.0
0
LINE
8
MCD_Layer_0
10
13.283416
20
2.855000
30
0.0
11
13.286390
21
3.027603
31
0.0
0
LINE
8
MCD_Layer_0
10
13.286390
20
3.027603
30
0.0
11
13.280963
21
3.190942
31
0.0
0
LINE
8
MCD_Layer_0
10
13.280963
20
3.190942
30
0.0
11
13.267198
21
3.353789
31
0.0
0
LINE
8
MCD_Layer_0
10
13.267198
20
3.353789
30
0.0
11
13.245130
21
3.515721
31
0.0
0
LINE
8
MCD_Layer_0
10
13.245130
20
3.515721
30
0.0
11
13.214816
21
3.676314
31
0.0
0
LINE
8
MCD_Layer_0
10
13.214816
20
3.676314
30
0.0
11
13.176337
21
3.835148
31
0.0
0
LINE
8
MCD_Layer_0
10
13.176337
20
3.835148
30
0.0
11
13.129792
21
3.991808
31
0.0
0
LINE
8
MCD_Layer_0
10
13.129792
20
3.991808
30
0.0
11
13.082618
21
4.120823
31
0.0
0
LINE
8
MCD_Layer_0
10
13.082618
20
4.120823
30
0.0
11
13.026547
21
4.246227
31
0.0
0
LINE
8
MCD_Layer_0
10
13.026547
20
4.246227
30
0.0
11
12.961852
21
4.367407
31
0.0
0
LINE
8
MCD_Layer_0
10
12.961852
20
4.367407
30
0.0
11
12.888850
21
4.483772
31
0.0
0
LINE
8
MCD_Layer_0
10
12.888850
20
4.483772
30
0.0
11
12.807898
21
4.594753
31
0.0
0
LINE
8
MCD_Layer_0
10
12.807898
20
4.594753
30
0.0
11
12.719390
21
4.699808
31
0.0
0
LINE
8
MCD_Layer_0
10
12.719390
20
4.699808
30
0.0
11
12.624792
21
4.804549
31
0.0
0
LINE
8
MCD_Layer_0
10
12.624792
20
4.804549
30
0.0
11
12.521118
21
4.900315
31
0.0
0
LINE
8
MCD_Layer_0
10
12.521118
20
4.900315
30
0.0
11
12.409217
21
4.986325
31
0.0
0
LINE
8
MCD_Layer_0
10
12.409217
20
4.986325
30
0.0
11
12.290004
21
5.061873
31
0.0
0
LINE
8
MCD_Layer_0
10
12.290004
20
5.061873
30
0.0
11
12.164453
21
5.126343
31
0.0
0
LINE
8
MCD_Layer_0
10
12.164453
20
5.126343
30
0.0
11
12.033591
21
5.179207
31
0.0
0
LINE
8
MCD_Layer_0
10
12.033591
20
5.179207
30
0.0
11
11.925240
21
5.216993
31
0.0
0
LINE
8
MCD_Layer_0
10
11.925240
20
5.216993
30
0.0
11
11.814900
21
5.248502
31
0.0
0
LINE
8
MCD_Layer_0
10
11.814900
20
5.248502
30
0.0
11
11.702935
21
5.273630
31
0.0
0
LINE
8
MCD_Layer_0
10
11.702935
20
5.273630
30
0.0
11
11.589712
21
5.292294
31
0.0
0
LINE
8
MCD_Layer_0
10
11.589712
20
5.292294
30
0.0
11
11.475606
21
5.304433
31
0.0
0
LINE
8
MCD_Layer_0
10
11.475606
20
5.304433
30
0.0
11
11.360990
21
5.310007
31
0.0
0
LINE
8
MCD_Layer_0
10
11.360990
20
5.310007
30
0.0
11
11.054389
21
5.310007
31
0.0
0
LINE
8
MCD_Layer_0
10
11.054389
20
5.310007
30
0.0
11
11.054389
21
0.690004
31
0.0
0
LINE
8
MCD_Layer_0
10
13.973991
20
0.000000
30
0.0
11
13.973991
21
6.000000
31
0.0
0
LINE
8
MCD_Layer_0
10
13.973991
20
6.000000
30
0.0
11
16.661991
21
6.000000
31
0.0
0
LINE
8
MCD_Layer_0
10
16.661991
20
6.000000
30
0.0
11
16.661991
21
5.310007
31
0.0
0
LINE
8
MCD_Layer_0
10
16.661991
20
5.310007
30
0.0
11
14.663990
21
5.310007
31
0.0
0
LINE
8
MCD_Layer_0
10
14.663990
20
5.310007
30
0.0
11
14.663990
21
3.702003
31
0.0
0
LINE
8
MCD_Layer_0
10
14.663990
20
3.702003
30
0.0
11
16.163990
21
3.702003
31
0.0
0
LINE
8
MCD_Layer_0
10
16.163990
20
3.702003
30
0.0
11
16.163990
21
3.011999
31
0.0
0
LINE
8
MCD_Layer_0
10
16.163990
20
3.011999
30
0.0
11
14.663990
21
3.011999
31
0.0
0
LINE
8
MCD_Layer_0
10
14.663990
20
3.011999
30
0.0
11
14.663990
21
0.690004
31
0.0
0
LINE
8
MCD_Layer_0
10
14.663990
20
0.690004
30
0.0
11
16.973991
21
0.690004
31
0.0
0
LINE
8
MCD_Layer_0
10
16.973991
20
0.690004
30
0.0
11
16.973991
21
0.000000
31
0.0
0
LINE
8
MCD_Layer_0
10
16.973991
20
0.000000
30
0.0
11
13.973991
21
0.000000
31
0.0
0
ENDSEC
0
EOF
