0
SECTION
2
ENTITIES
0
LINE
8
MCD_Layer_0
10
0.796875
20
0.039764
30
0.0
11
0.589844
21
0.000000
31
0.0
0
LINE
8
MCD_Layer_0
10
0.796875
20
0.039764
30
0.0
11
0.175781
21
1.045593
31
0.0
0
LINE
8
MCD_Layer_0
10
0.796875
20
0.039764
30
0.0
11
0.175781
21
1.045593
31
0.0
0
LINE
8
MCD_Layer_0
10
0.000000
20
1.035583
30
0.0
11
0.175781
21
1.045593
31
0.0
0
LINE
8
MCD_Layer_0
10
0.000000
20
1.035583
30
0.0
11
0.175781
21
1.045593
31
0.0
0
LINE
8
MCD_Layer_0
10
0.796875
20
1.039764
30
0.0
11
0.940430
21
1.044830
31
0.0
0
LINE
8
MCD_Layer_0
10
0.796875
20
1.039764
30
0.0
11
0.940430
21
1.044830
31
0.0
0
LINE
8
MCD_Layer_0
10
0.796875
20
1.039764
30
0.0
11
0.275391
21
1.042664
31
0.0
0
LINE
8
MCD_Layer_0
10
0.796875
20
1.039764
30
0.0
11
0.275391
21
1.042664
31
0.0
0
LINE
8
MCD_Layer_0
10
0.100586
20
1.036194
30
0.0
11
0.082031
21
1.042084
31
0.0
0
LINE
8
MCD_Layer_0
10
0.100586
20
1.036194
30
0.0
11
0.082031
21
1.042084
31
0.0
0
LINE
8
MCD_Layer_0
10
0.796875
20
1.039764
30
0.0
11
1.019531
21
1.040527
31
0.0
0
LINE
8
MCD_Layer_0
10
0.796875
20
1.039764
30
0.0
11
1.019531
21
1.040527
31
0.0
0
LINE
8
MCD_Layer_0
10
0.796875
20
1.039764
30
0.0
11
0.332031
21
1.032227
31
0.0
0
LINE
8
MCD_Layer_0
10
0.796875
20
1.039764
30
0.0
11
0.332031
21
1.032227
31
0.0
0
LINE
8
MCD_Layer_0
10
1.063477
20
1.035431
30
0.0
11
0.589844
21
0.999969
31
0.0
0
LINE
8
MCD_Layer_0
10
1.063477
20
1.035431
30
0.0
11
0.589844
21
0.999969
31
0.0
0
LINE
8
MCD_Layer_0
10
0.796875
20
0.039764
30
0.0
11
0.589844
21
0.000000
31
0.0
0
LINE
8
MCD_Layer_0
10
0.100586
20
1.036194
30
0.0
11
0.082031
21
1.042084
31
0.0
0
LINE
8
MCD_Layer_0
10
1.582031
20
0.039764
30
0.0
11
0.082031
21
1.042084
31
0.0
0
LINE
8
MCD_Layer_0
10
2.890918
20
1.038879
30
0.0
11
3.139941
21
0.000000
31
0.0
0
LINE
8
MCD_Layer_0
10
3.479785
20
1.042419
30
0.0
11
2.858691
21
1.036499
31
0.0
0
LINE
8
MCD_Layer_0
10
2.890918
20
1.038879
30
0.0
11
3.139941
21
0.000000
31
0.0
0
LINE
8
MCD_Layer_0
10
3.244434
20
0.039764
30
0.0
11
3.139941
21
0.999939
31
0.0
0
LINE
8
MCD_Layer_0
10
3.244434
20
0.039764
30
0.0
11
3.139941
21
0.999939
31
0.0
0
LINE
8
MCD_Layer_0
10
3.480273
20
0.042419
30
0.0
11
2.710254
21
1.036469
31
0.0
0
LINE
8
MCD_Layer_0
10
3.480273
20
0.042419
30
0.0
11
2.710254
21
1.036469
31
0.0
0
LINE
8
MCD_Layer_0
10
3.480273
20
0.042419
30
0.0
11
2.275684
21
1.047089
31
0.0
0
LINE
8
MCD_Layer_0
10
3.480273
20
0.042419
30
0.0
11
2.275684
21
1.047089
31
0.0
0
LINE
8
MCD_Layer_0
10
2.916309
20
0.038849
30
0.0
11
2.663379
21
1.048248
31
0.0
0
LINE
8
MCD_Layer_0
10
2.916309
20
0.038849
30
0.0
11
2.663379
21
1.048248
31
0.0
0
LINE
8
MCD_Layer_0
10
3.954395
20
1.038879
30
0.0
11
2.663379
21
1.048248
31
0.0
0
LINE
8
MCD_Layer_0
10
3.954395
20
1.038879
30
0.0
11
2.663379
21
1.048248
31
0.0
0
LINE
8
MCD_Layer_0
10
2.176563
20
1.042389
30
0.0
11
2.249316
21
1.047302
31
0.0
0
LINE
8
MCD_Layer_0
10
5.215430
20
0.044556
30
0.0
11
5.079688
21
1.000000
31
0.0
0
LINE
8
MCD_Layer_0
10
5.215430
20
0.044556
30
0.0
11
5.222266
21
1.050415
31
0.0
0
LINE
8
MCD_Layer_0
10
5.215430
20
0.044556
30
0.0
11
5.222266
21
1.050415
31
0.0
0
LINE
8
MCD_Layer_0
10
5.737891
20
1.041107
30
0.0
11
5.222266
21
1.050415
31
0.0
0
LINE
8
MCD_Layer_0
10
5.737891
20
1.041107
30
0.0
11
5.222266
21
1.050415
31
0.0
0
LINE
8
MCD_Layer_0
10
5.215430
20
1.044556
30
0.0
11
4.977148
21
1.049225
31
0.0
0
LINE
8
MCD_Layer_0
10
5.215430
20
1.044556
30
0.0
11
4.977148
21
1.049225
31
0.0
0
LINE
8
MCD_Layer_0
10
5.215430
20
1.044556
30
0.0
11
4.353125
21
1.039429
31
0.0
0
LINE
8
MCD_Layer_0
10
5.215430
20
1.044556
30
0.0
11
4.353125
21
1.039429
31
0.0
0
LINE
8
MCD_Layer_0
10
4.447852
20
1.040985
30
0.0
11
5.079688
21
0.000000
31
0.0
0
LINE
8
MCD_Layer_0
10
4.447852
20
1.040985
30
0.0
11
5.079688
21
0.000000
31
0.0
0
LINE
8
MCD_Layer_0
10
5.215430
20
0.044556
30
0.0
11
5.079688
21
1.000000
31
0.0
0
LINE
8
MCD_Layer_0
10
6.884180
20
1.044525
30
0.0
11
7.467676
21
0.000000
31
0.0
0
LINE
8
MCD_Layer_0
10
6.884668
20
0.044525
30
0.0
11
7.467676
21
1.000000
31
0.0
0
LINE
8
MCD_Layer_0
10
6.884668
20
0.044525
30
0.0
11
7.467676
21
1.000000
31
0.0
0
LINE
8
MCD_Layer_0
10
6.884668
20
0.044525
30
0.0
11
7.610254
21
1.050415
31
0.0
0
LINE
8
MCD_Layer_0
10
6.884668
20
0.044525
30
0.0
11
7.610254
21
1.050415
31
0.0
0
LINE
8
MCD_Layer_0
10
6.529688
20
1.044586
30
0.0
11
7.610254
21
1.050415
31
0.0
0
LINE
8
MCD_Layer_0
10
7.428125
20
0.044525
30
0.0
11
6.727441
21
1.046875
31
0.0
0
LINE
8
MCD_Layer_0
10
6.613184
20
1.039520
30
0.0
11
6.727441
21
1.046875
31
0.0
0
LINE
8
MCD_Layer_0
10
9.032422
20
0.000000
30
0.0
11
9.702344
21
0.509827
31
0.0
0
LINE
8
MCD_Layer_0
10
9.032422
20
0.000000
30
0.0
11
9.453320
21
1.005890
31
0.0
0
LINE
8
MCD_Layer_0
10
9.032422
20
0.000000
30
0.0
11
9.453320
21
1.005890
31
0.0
0
LINE
8
MCD_Layer_0
10
9.032422
20
1.000000
30
0.0
11
9.453320
21
1.005890
31
0.0
0
LINE
8
MCD_Layer_0
10
10.280469
20
0.000000
30
0.0
11
9.359570
21
1.002380
31
0.0
0
LINE
8
MCD_Layer_0
10
10.575391
20
0.994354
30
0.0
11
9.359570
21
1.002380
31
0.0
0
LINE
8
MCD_Layer_0
10
9.032422
20
0.000000
30
0.0
11
9.453320
21
1.003937
31
0.0
0
LINE
8
MCD_Layer_0
10
9.032422
20
0.000000
30
0.0
11
8.706250
21
0.998077
31
0.0
0
LINE
8
MCD_Layer_0
10
11.106445
20
0.999207
30
0.0
11
11.868164
21
1.003906
31
0.0
0
LINE
8
MCD_Layer_0
10
11.106445
20
0.999207
30
0.0
11
12.118164
21
1.005096
31
0.0
0
LINE
8
MCD_Layer_0
10
11.106445
20
0.999207
30
0.0
11
12.118164
21
1.005096
31
0.0
0
LINE
8
MCD_Layer_0
10
12.448242
20
1.003540
30
0.0
11
12.118164
21
1.005096
31
0.0
0
LINE
8
MCD_Layer_0
10
12.448242
20
1.003540
30
0.0
11
12.118164
21
1.005096
31
0.0
0
LINE
8
MCD_Layer_0
10
12.448242
20
1.003540
30
0.0
11
11.668945
21
0.998352
31
0.0
0
LINE
8
MCD_Layer_0
10
12.448242
20
1.003540
30
0.0
11
11.668945
21
0.998352
31
0.0
0
LINE
8
MCD_Layer_0
10
12.752930
20
0.999268
30
0.0
11
11.848633
21
0.513306
31
0.0
0
LINE
8
MCD_Layer_0
10
12.752930
20
0.999268
30
0.0
11
11.848633
21
0.513306
31
0.0
0
LINE
8
MCD_Layer_0
10
12.827148
20
0.000824
30
0.0
11
11.848633
21
0.513306
31
0.0
0
LINE
8
MCD_Layer_0
10
12.827148
20
0.000824
30
0.0
11
11.848633
21
0.513306
31
0.0
0
LINE
8
MCD_Layer_0
10
12.448242
20
0.003540
30
0.0
11
11.395508
21
0.998413
31
0.0
0
LINE
8
MCD_Layer_0
10
12.448242
20
0.003540
30
0.0
11
11.395508
21
0.998413
31
0.0
0
LINE
8
MCD_Layer_0
10
12.448242
20
0.003540
30
0.0
11
11.924805
21
1.008423
31
0.0
0
LINE
8
MCD_Layer_0
10
12.448242
20
0.003540
30
0.0
11
11.924805
21
1.008423
31
0.0
0
LINE
8
MCD_Layer_0
10
12.143555
20
0.000000
30
0.0
11
11.270508
21
1.009369
31
0.0
0
LINE
8
MCD_Layer_0
10
12.143555
20
0.000000
30
0.0
11
11.270508
21
1.009369
31
0.0
0
LINE
8
MCD_Layer_0
10
12.752930
20
0.999268
30
0.0
11
11.270508
21
1.009369
31
0.0
0
LINE
8
MCD_Layer_0
10
12.752930
20
0.999268
30
0.0
11
11.270508
21
1.009369
31
0.0
0
LINE
8
MCD_Layer_0
10
12.625977
20
1.003510
30
0.0
11
10.882812
21
1.008209
31
0.0
0
LINE
8
MCD_Layer_0
10
14.052539
20
0.034790
30
0.0
11
13.059375
21
0.000000
31
0.0
0
LINE
8
MCD_Layer_0
10
14.052539
20
0.034790
30
0.0
11
14.434863
21
1.040680
31
0.0
0
LINE
8
MCD_Layer_0
10
13.443164
20
0.034790
30
0.0
11
14.853320
21
1.037140
31
0.0
0
LINE
8
MCD_Layer_0
10
14.052539
20
1.034790
30
0.0
11
14.853320
21
1.037140
31
0.0
0
LINE
8
MCD_Layer_0
10
14.052539
20
1.034790
30
0.0
11
14.434863
21
1.040680
31
0.0
0
LINE
8
MCD_Layer_0
10
14.052539
20
1.034790
30
0.0
11
13.059375
21
1.000000
31
0.0
0
LINE
8
MCD_Layer_0
10
16.288672
20
0.000122
30
0.0
11
15.814063
21
0.515656
31
0.0
0
LINE
8
MCD_Layer_0
10
15.935156
20
1.000183
30
0.0
11
15.814063
21
0.515656
31
0.0
0
LINE
8
MCD_Layer_0
10
15.814063
20
0.515656
30
0.0
11
15.235938
21
1.011719
31
0.0
0
LINE
8
MCD_Layer_0
10
16.181250
20
0.000000
30
0.0
11
15.235938
21
1.011719
31
0.0
0
LINE
8
MCD_Layer_0
10
16.310156
20
0.999664
30
0.0
11
15.235938
21
1.011719
31
0.0
0
LINE
8
MCD_Layer_0
10
18.738672
20
0.003540
30
0.0
11
17.685938
21
0.998413
31
0.0
0
LINE
8
MCD_Layer_0
10
18.433984
20
0.000000
30
0.0
11
18.139063
21
0.513306
31
0.0
0
LINE
8
MCD_Layer_0
10
18.433984
20
0.000000
30
0.0
11
18.139063
21
0.513306
31
0.0
0
LINE
8
MCD_Layer_0
10
19.117578
20
1.000824
30
0.0
11
18.139063
21
0.513306
31
0.0
0
LINE
8
MCD_Layer_0
10
19.117578
20
1.000824
30
0.0
11
18.139063
21
0.513306
31
0.0
0
LINE
8
MCD_Layer_0
10
18.739648
20
1.003540
30
0.0
11
17.412500
21
0.998474
31
0.0
0
LINE
8
MCD_Layer_0
10
18.739648
20
1.003540
30
0.0
11
17.412500
21
0.998474
31
0.0
0
LINE
8
MCD_Layer_0
10
18.739648
20
1.003540
30
0.0
11
17.560938
21
1.009369
31
0.0
0
LINE
8
MCD_Layer_0
10
19.996289
20
0.029297
30
0.0
11
20.514844
21
1.000000
31
0.0
0
LINE
8
MCD_Layer_0
10
19.996289
20
0.029297
30
0.0
11
19.589063
21
1.035156
31
0.0
0
LINE
8
MCD_Layer_0
10
20.056836
20
0.029297
30
0.0
11
20.510938
21
1.030853
31
0.0
0
LINE
8
MCD_Layer_0
10
20.349805
20
1.029236
30
0.0
11
21.123242
21
1.035156
31
0.0
0
LINE
8
MCD_Layer_0
10
21.022656
20
0.026672
30
0.0
11
20.679883
21
1.031860
31
0.0
0
LINE
8
MCD_Layer_0
10
19.995313
20
1.029297
30
0.0
11
20.514844
21
0.000000
31
0.0
0
LINE
8
MCD_Layer_0
10
22.032227
20
1.000000
30
0.0
11
22.343750
21
0.509796
31
0.0
0
LINE
8
MCD_Layer_0
10
22.032227
20
0.000000
30
0.0
11
22.343750
21
0.509796
31
0.0
0
LINE
8
MCD_Layer_0
10
22.032227
20
0.000000
30
0.0
11
22.343750
21
0.509796
31
0.0
0
LINE
8
MCD_Layer_0
10
22.032227
20
0.000000
30
0.0
11
21.765625
21
1.005859
31
0.0
0
LINE
8
MCD_Layer_0
10
24.062305
20
0.036102
30
0.0
11
24.833789
21
0.545868
31
0.0
0
LINE
8
MCD_Layer_0
10
23.958789
20
0.031067
30
0.0
11
23.942188
21
1.041962
31
0.0
0
LINE
8
MCD_Layer_0
10
23.958789
20
0.031067
30
0.0
11
23.942188
21
1.041962
31
0.0
0
LINE
8
MCD_Layer_0
10
24.833789
20
0.000000
30
0.0
11
25.067188
21
1.038666
31
0.0
0
LINE
8
MCD_Layer_0
10
24.833789
20
0.000000
30
0.0
11
25.067188
21
1.038666
31
0.0
0
LINE
8
MCD_Layer_0
10
25.443164
20
1.031036
30
0.0
11
25.476367
21
1.041962
31
0.0
0
LINE
8
MCD_Layer_0
10
24.062305
20
1.036102
30
0.0
11
24.833789
21
0.545868
31
0.0
0
LINE
8
MCD_Layer_0
10
25.443164
20
1.031036
30
0.0
11
25.476367
21
1.041962
31
0.0
0
LINE
8
MCD_Layer_0
10
27.296484
20
0.000000
30
0.0
11
26.696875
21
0.509766
31
0.0
0
LINE
8
MCD_Layer_0
10
27.296484
20
0.000000
30
0.0
11
26.118750
21
1.005829
31
0.0
0
LINE
8
MCD_Layer_0
10
27.296484
20
1.000000
30
0.0
11
26.696875
21
0.509766
31
0.0
0
LINE
8
MCD_Layer_0
10
27.296484
20
1.000000
30
0.0
11
26.118750
21
1.005829
31
0.0
0
LINE
8
MCD_Layer_0
10
27.296484
20
1.000000
30
0.0
11
26.696875
21
0.509766
31
0.0
0
LINE
8
MCD_Layer_0
10
27.296484
20
0.000000
30
0.0
11
26.118750
21
1.005829
31
0.0
0
LINE
8
MCD_Layer_0
10
30.241602
20
0.000000
30
0.0
11
29.261133
21
0.512482
31
0.0
0
LINE
8
MCD_Layer_0
10
29.862695
20
0.002716
30
0.0
11
28.534570
21
0.997650
31
0.0
0
LINE
8
MCD_Layer_0
10
29.862695
20
0.002716
30
0.0
11
28.534570
21
0.997650
31
0.0
0
LINE
8
MCD_Layer_0
10
29.862695
20
0.002716
30
0.0
11
29.116602
21
1.007202
31
0.0
0
LINE
8
MCD_Layer_0
10
29.862695
20
0.002716
30
0.0
11
29.116602
21
1.007202
31
0.0
0
LINE
8
MCD_Layer_0
10
29.886133
20
0.000061
30
0.0
11
29.437891
21
1.008575
31
0.0
0
LINE
8
MCD_Layer_0
10
29.886133
20
0.000061
30
0.0
11
29.437891
21
1.008575
31
0.0
0
LINE
8
MCD_Layer_0
10
29.198633
20
0.999207
30
0.0
11
29.437891
21
1.008575
31
0.0
0
LINE
8
MCD_Layer_0
10
29.198633
20
0.999207
30
0.0
11
29.437891
21
1.008575
31
0.0
0
LINE
8
MCD_Layer_0
10
29.860742
20
1.002716
30
0.0
11
28.295313
21
1.007385
31
0.0
0
LINE
8
MCD_Layer_0
10
29.860742
20
1.002716
30
0.0
11
28.295313
21
1.007385
31
0.0
0
LINE
8
MCD_Layer_0
10
29.860742
20
1.002716
30
0.0
11
28.534570
21
0.997650
31
0.0
0
LINE
8
MCD_Layer_0
10
29.860742
20
1.002716
30
0.0
11
28.534570
21
0.997650
31
0.0
0
LINE
8
MCD_Layer_0
10
29.554102
20
0.999176
30
0.0
11
29.261133
21
0.512482
31
0.0
0
LINE
8
MCD_Layer_0
10
29.554102
20
0.999176
30
0.0
11
29.261133
21
0.512482
31
0.0
0
LINE
8
MCD_Layer_0
10
30.241602
20
0.000000
30
0.0
11
29.261133
21
0.512482
31
0.0
0
LINE
8
MCD_Layer_0
10
31.598828
20
0.000000
30
0.0
11
31.434766
21
0.509766
31
0.0
0
LINE
8
MCD_Layer_0
10
31.598828
20
0.000000
30
0.0
11
31.185742
21
1.005829
31
0.0
0
LINE
8
MCD_Layer_0
10
31.598828
20
0.000000
30
0.0
11
31.185742
21
1.005829
31
0.0
0
LINE
8
MCD_Layer_0
10
30.501172
20
0.996490
30
0.0
11
31.185742
21
1.005829
31
0.0
0
LINE
8
MCD_Layer_0
10
30.501172
20
0.996490
30
0.0
11
31.185742
21
1.005829
31
0.0
0
LINE
8
MCD_Layer_0
10
31.596875
20
1.000000
30
0.0
11
31.840039
21
1.004883
31
0.0
0
LINE
8
MCD_Layer_0
10
31.596875
20
1.000000
30
0.0
11
31.840039
21
1.004883
31
0.0
0
LINE
8
MCD_Layer_0
10
31.596875
20
1.000000
30
0.0
11
32.244336
21
1.002716
31
0.0
0
LINE
8
MCD_Layer_0
10
31.596875
20
1.000000
30
0.0
11
32.244336
21
1.002716
31
0.0
0
LINE
8
MCD_Layer_0
10
30.501172
20
0.996490
30
0.0
11
30.583203
21
1.001923
31
0.0
0
LINE
8
MCD_Layer_0
10
30.501172
20
0.996490
30
0.0
11
30.583203
21
1.001923
31
0.0
0
LINE
8
MCD_Layer_0
10
30.471875
20
0.000000
30
0.0
11
30.583203
21
1.001923
31
0.0
0
LINE
8
MCD_Layer_0
10
34.625000
20
0.027130
30
0.0
11
33.648438
21
0.539612
31
0.0
0
LINE
8
MCD_Layer_0
10
34.425781
20
0.029816
30
0.0
11
32.921875
21
1.024780
31
0.0
0
LINE
8
MCD_Layer_0
10
34.425781
20
0.029816
30
0.0
11
32.921875
21
1.024780
31
0.0
0
LINE
8
MCD_Layer_0
10
34.425781
20
0.029816
30
0.0
11
32.682617
21
1.034515
31
0.0
0
LINE
8
MCD_Layer_0
10
34.425781
20
0.029816
30
0.0
11
32.682617
21
1.034515
31
0.0
0
LINE
8
MCD_Layer_0
10
33.335938
20
0.027008
30
0.0
11
33.825195
21
1.035706
31
0.0
0
LINE
8
MCD_Layer_0
10
33.335938
20
0.027008
30
0.0
11
33.825195
21
1.035706
31
0.0
0
LINE
8
MCD_Layer_0
10
34.273438
20
1.027191
30
0.0
11
33.825195
21
1.035706
31
0.0
0
LINE
8
MCD_Layer_0
10
34.273438
20
1.027191
30
0.0
11
33.825195
21
1.035706
31
0.0
0
LINE
8
MCD_Layer_0
10
34.248047
20
1.029846
30
0.0
11
32.682617
21
1.034515
31
0.0
0
LINE
8
MCD_Layer_0
10
34.248047
20
1.029846
30
0.0
11
32.682617
21
1.034515
31
0.0
0
LINE
8
MCD_Layer_0
10
34.248047
20
1.029846
30
0.0
11
33.195312
21
1.024719
31
0.0
0
LINE
8
MCD_Layer_0
10
34.248047
20
1.029846
30
0.0
11
33.195312
21
1.024719
31
0.0
0
LINE
8
MCD_Layer_0
10
34.625000
20
1.027130
30
0.0
11
33.648438
21
0.539612
31
0.0
0
LINE
8
MCD_Layer_0
10
34.625000
20
1.027130
30
0.0
11
33.648438
21
0.539612
31
0.0
0
LINE
8
MCD_Layer_0
10
34.625000
20
0.027130
30
0.0
11
33.648438
21
0.539612
31
0.0
0
LINE
8
MCD_Layer_0
10
33.589844
20
1.026337
30
0.0
11
33.636719
21
1.025452
31
0.0
0
LINE
8
MCD_Layer_0
10
33.894531
20
1.029907
30
0.0
11
32.648438
21
0.000000
31
0.0
0
LINE
8
MCD_Layer_0
10
34.826953
20
0.032959
30
0.0
11
35.323047
21
1.000000
31
0.0
0
LINE
8
MCD_Layer_0
10
34.826953
20
0.032959
30
0.0
11
36.198535
21
1.038818
31
0.0
0
LINE
8
MCD_Layer_0
10
34.826953
20
0.032959
30
0.0
11
36.198535
21
1.038818
31
0.0
0
LINE
8
MCD_Layer_0
10
34.924609
20
1.029419
30
0.0
11
36.198535
21
1.038818
31
0.0
0
LINE
8
MCD_Layer_0
10
34.924609
20
1.029419
30
0.0
11
36.198535
21
1.038818
31
0.0
0
LINE
8
MCD_Layer_0
10
35.002734
20
1.032928
30
0.0
11
35.254688
21
1.037628
31
0.0
0
LINE
8
MCD_Layer_0
10
35.002734
20
1.032928
30
0.0
11
35.254688
21
1.037628
31
0.0
0
LINE
8
MCD_Layer_0
10
35.002734
20
1.032928
30
0.0
11
36.673633
21
1.035889
31
0.0
0
LINE
8
MCD_Layer_0
10
35.002734
20
1.032928
30
0.0
11
36.673633
21
1.035889
31
0.0
0
LINE
8
MCD_Layer_0
10
35.276172
20
1.029358
30
0.0
11
36.397266
21
1.034912
31
0.0
0
LINE
8
MCD_Layer_0
10
35.276172
20
1.029358
30
0.0
11
36.397266
21
1.034912
31
0.0
0
LINE
8
MCD_Layer_0
10
36.020313
20
0.032959
30
0.0
11
36.397266
21
1.034912
31
0.0
0
LINE
8
MCD_Layer_0
10
35.823047
20
0.994324
30
0.0
11
36.397266
21
1.034912
31
0.0
0
LINE
8
MCD_Layer_0
10
34.825000
20
1.032959
30
0.0
11
35.323047
21
0.000000
31
0.0
0
LINE
8
MCD_Layer_0
10
37.629492
20
0.002716
30
0.0
11
37.486914
21
0.997620
31
0.0
0
LINE
8
MCD_Layer_0
10
37.096289
20
0.000000
30
0.0
11
37.940039
21
0.512512
31
0.0
0
LINE
8
MCD_Layer_0
10
37.096289
20
0.000000
30
0.0
11
37.940039
21
0.512512
31
0.0
0
LINE
8
MCD_Layer_0
10
38.057227
20
0.999237
30
0.0
11
37.940039
21
0.512512
31
0.0
0
LINE
8
MCD_Layer_0
10
38.057227
20
0.999237
30
0.0
11
37.940039
21
0.512512
31
0.0
0
LINE
8
MCD_Layer_0
10
37.627539
20
1.002716
30
0.0
11
37.760352
21
0.997559
31
0.0
0
LINE
8
MCD_Layer_0
10
37.627539
20
1.002716
30
0.0
11
37.760352
21
0.997559
31
0.0
0
LINE
8
MCD_Layer_0
10
37.627539
20
1.002716
30
0.0
11
37.738867
21
1.002716
31
0.0
0
LINE
8
MCD_Layer_0
10
37.627539
20
1.002716
30
0.0
11
37.738867
21
1.002716
31
0.0
0
LINE
8
MCD_Layer_0
10
38.057227
20
0.999237
30
0.0
11
38.430273
21
1.004669
31
0.0
0
LINE
8
MCD_Layer_0
10
38.057227
20
0.999237
30
0.0
11
38.430273
21
1.004669
31
0.0
0
LINE
8
MCD_Layer_0
10
37.096289
20
0.000000
30
0.0
11
38.430273
21
1.004669
31
0.0
0
LINE
8
MCD_Layer_0
10
37.096289
20
0.000000
30
0.0
11
38.430273
21
1.004669
31
0.0
0
LINE
8
MCD_Layer_0
10
37.629492
20
0.002716
30
0.0
11
37.352148
21
1.005463
31
0.0
0
LINE
8
MCD_Layer_0
10
37.629492
20
0.002716
30
0.0
11
37.352148
21
1.005463
31
0.0
0
LINE
8
MCD_Layer_0
10
37.629492
20
0.002716
30
0.0
11
37.001563
21
1.007202
31
0.0
0
LINE
8
MCD_Layer_0
10
37.629492
20
0.002716
30
0.0
11
37.001563
21
1.007202
31
0.0
0
LINE
8
MCD_Layer_0
10
37.096289
20
0.000000
30
0.0
11
37.361914
21
1.008575
31
0.0
0
LINE
8
MCD_Layer_0
10
37.096289
20
0.000000
30
0.0
11
37.361914
21
1.008575
31
0.0
0
LINE
8
MCD_Layer_0
10
37.701758
20
0.999268
30
0.0
11
37.361914
21
1.008575
31
0.0
0
LINE
8
MCD_Layer_0
10
37.701758
20
0.999268
30
0.0
11
37.361914
21
1.008575
31
0.0
0
LINE
8
MCD_Layer_0
10
37.805273
20
1.002686
30
0.0
11
37.905859
21
1.007416
31
0.0
0
LINE
8
MCD_Layer_0
10
39.428125
20
0.977020
30
0.0
11
39.178125
21
0.509857
31
0.0
0
LINE
8
MCD_Layer_0
10
39.428125
20
0.977020
30
0.0
11
39.820703
21
1.005951
31
0.0
0
LINE
8
MCD_Layer_0
10
39.398828
20
0.000000
30
0.0
11
39.820703
21
1.005951
31
0.0
0
LINE
8
MCD_Layer_0
10
39.398828
20
1.000000
30
0.0
11
39.820703
21
1.005951
31
0.0
0
LINE
8
MCD_Layer_0
10
42.475781
20
0.026337
30
0.0
11
42.354688
21
0.539612
31
0.0
0
LINE
8
MCD_Layer_0
10
42.044141
20
0.029816
30
0.0
11
41.796094
21
1.025574
31
0.0
0
LINE
8
MCD_Layer_0
10
42.044141
20
0.029816
30
0.0
11
41.796094
21
1.025574
31
0.0
0
LINE
8
MCD_Layer_0
10
42.044141
20
0.029816
30
0.0
11
41.776563
21
1.035675
31
0.0
0
LINE
8
MCD_Layer_0
10
42.475781
20
0.026337
30
0.0
11
42.354688
21
0.539612
31
0.0
0
LINE
8
MCD_Layer_0
10
42.272656
20
1.027893
30
0.0
11
42.354688
21
0.539612
31
0.0
0
LINE
8
MCD_Layer_0
10
42.272656
20
1.027893
30
0.0
11
42.354688
21
0.539612
31
0.0
0
LINE
8
MCD_Layer_0
10
42.042188
20
1.029816
30
0.0
11
42.069531
21
1.025513
31
0.0
0
LINE
8
MCD_Layer_0
10
42.042188
20
1.029816
30
0.0
11
41.354688
21
0.000000
31
0.0
0
LINE
8
MCD_Layer_0
10
42.042188
20
1.029816
30
0.0
11
42.394238
21
1.035736
31
0.0
0
LINE
8
MCD_Layer_0
10
44.556641
20
0.000000
30
0.0
11
43.531250
21
1.005859
31
0.0
0
LINE
8
MCD_Layer_0
10
44.734375
20
0.999969
30
0.0
11
43.531250
21
1.005859
31
0.0
0
LINE
8
MCD_Layer_0
10
46.397266
20
0.033875
30
0.0
11
46.049121
21
1.039764
31
0.0
0
LINE
8
MCD_Layer_0
10
47.442188
20
0.027954
30
0.0
11
46.457813
21
0.006134
31
0.0
0
LINE
8
MCD_Layer_0
10
47.442188
20
0.027954
30
0.0
11
46.457813
21
0.006134
31
0.0
0
LINE
8
MCD_Layer_0
10
45.707813
20
0.000000
30
0.0
11
47.635547
21
1.035522
31
0.0
0
LINE
8
MCD_Layer_0
10
45.707813
20
0.000000
30
0.0
11
47.635547
21
1.035522
31
0.0
0
LINE
8
MCD_Layer_0
10
47.426563
20
1.027954
30
0.0
11
46.832813
21
1.009155
31
0.0
0
LINE
8
MCD_Layer_0
10
47.426563
20
1.027954
30
0.0
11
46.832813
21
1.009155
31
0.0
0
LINE
8
MCD_Layer_0
10
46.395313
20
1.033875
30
0.0
11
46.049121
21
1.039764
31
0.0
0
LINE
8
MCD_Layer_0
10
49.171484
20
0.044556
30
0.0
11
48.839453
21
1.000000
31
0.0
0
LINE
8
MCD_Layer_0
10
49.171484
20
1.044556
30
0.0
11
48.982031
21
1.050415
31
0.0
0
LINE
8
MCD_Layer_0
10
49.171484
20
1.044556
30
0.0
11
48.839453
21
0.000000
31
0.0
0
LINE
8
MCD_Layer_0
10
47.884375
20
0.044525
30
0.0
11
48.192969
21
1.050385
31
0.0
0
LINE
8
MCD_Layer_0
10
50.952539
20
0.509796
30
0.0
11
50.060938
21
1.001984
31
0.0
0
LINE
8
MCD_Layer_0
10
50.952539
20
0.509796
30
0.0
11
50.060938
21
1.001984
31
0.0
0
LINE
8
MCD_Layer_0
10
51.729883
20
0.000000
30
0.0
11
51.129297
21
1.005890
31
0.0
0
LINE
8
MCD_Layer_0
10
50.952539
20
0.509796
30
0.0
11
50.060938
21
1.001984
31
0.0
0
LINE
8
MCD_Layer_0
10
51.552148
20
1.000031
30
0.0
11
51.129297
21
1.005890
31
0.0
0
LINE
8
MCD_Layer_0
10
52.292188
20
0.000031
30
0.0
11
52.487500
21
0.509827
31
0.0
0
LINE
8
MCD_Layer_0
10
52.292188
20
1.000031
30
0.0
11
52.595898
21
1.005920
31
0.0
0
LINE
8
MCD_Layer_0
10
52.292188
20
1.000031
30
0.0
11
52.595898
21
1.005920
31
0.0
0
LINE
8
MCD_Layer_0
10
52.237500
20
0.000000
30
0.0
11
52.595898
21
1.005920
31
0.0
0
LINE
8
MCD_Layer_0
10
52.292188
20
0.000031
30
0.0
11
52.487500
21
0.509827
31
0.0
0
LINE
8
MCD_Layer_0
10
52.292188
20
1.000031
30
0.0
11
52.487500
21
0.509827
31
0.0
0
LINE
8
MCD_Layer_0
10
55.779785
20
1.002716
30
0.0
11
55.390625
21
0.994415
31
0.0
0
LINE
8
MCD_Layer_0
10
56.033203
20
1.000732
30
0.0
11
55.398438
21
0.513275
31
0.0
0
LINE
8
MCD_Layer_0
10
56.033203
20
1.000732
30
0.0
11
55.398438
21
0.513275
31
0.0
0
LINE
8
MCD_Layer_0
10
54.904297
20
0.000824
30
0.0
11
55.398438
21
0.513275
31
0.0
0
LINE
8
MCD_Layer_0
10
54.904297
20
0.000824
30
0.0
11
55.398438
21
0.513275
31
0.0
0
LINE
8
MCD_Layer_0
10
55.779785
20
0.002716
30
0.0
11
54.414063
21
0.994537
31
0.0
0
LINE
8
MCD_Layer_0
10
55.779785
20
0.002716
30
0.0
11
54.414063
21
0.994537
31
0.0
0
LINE
8
MCD_Layer_0
10
55.779785
20
0.002716
30
0.0
11
55.832031
21
1.001984
31
0.0
0
LINE
8
MCD_Layer_0
10
55.779785
20
0.002716
30
0.0
11
55.832031
21
1.001984
31
0.0
0
LINE
8
MCD_Layer_0
10
55.937012
20
0.000000
30
0.0
11
55.910156
21
1.003510
31
0.0
0
LINE
8
MCD_Layer_0
10
55.937012
20
0.000000
30
0.0
11
55.910156
21
1.003510
31
0.0
0
LINE
8
MCD_Layer_0
10
56.033203
20
1.000732
30
0.0
11
55.910156
21
1.003510
31
0.0
0
LINE
8
MCD_Layer_0
10
56.033203
20
1.000732
30
0.0
11
55.910156
21
1.003510
31
0.0
0
LINE
8
MCD_Layer_0
10
55.779785
20
1.002716
30
0.0
11
56.076172
21
1.001953
31
0.0
0
LINE
8
MCD_Layer_0
10
55.779785
20
1.002716
30
0.0
11
55.910156
21
1.003510
31
0.0
0
LINE
8
MCD_Layer_0
10
55.779785
20
1.002716
30
0.0
11
54.898438
21
0.973236
31
0.0
0
LINE
8
MCD_Layer_0
10
55.779785
20
1.002716
30
0.0
11
55.910156
21
1.003510
31
0.0
0
LINE
8
MCD_Layer_0
10
56.033203
20
1.000732
30
0.0
11
55.739258
21
1.005463
31
0.0
0
LINE
8
MCD_Layer_0
10
56.033203
20
1.000732
30
0.0
11
55.739258
21
1.005463
31
0.0
0
LINE
8
MCD_Layer_0
10
55.372070
20
0.000031
30
0.0
11
55.739258
21
1.005463
31
0.0
0
LINE
8
MCD_Layer_0
10
55.372070
20
0.000031
30
0.0
11
55.739258
21
1.005463
31
0.0
0
LINE
8
MCD_Layer_0
10
55.779785
20
0.002716
30
0.0
11
54.828125
21
1.004272
31
0.0
0
LINE
8
MCD_Layer_0
10
1.255859
20
-1.694080
30
0.0
11
0.718750
21
-1.178149
31
0.0
0
LINE
8
MCD_Layer_0
10
1.257812
20
-0.694080
30
0.0
11
0.718750
21
-1.178149
31
0.0
0
LINE
8
MCD_Layer_0
10
0.000000
20
-0.712665
30
0.0
11
0.718750
21
-1.178149
31
0.0
0
LINE
8
MCD_Layer_0
10
0.000000
20
-0.712665
30
0.0
11
0.534180
21
-0.682117
31
0.0
0
LINE
8
MCD_Layer_0
10
0.000000
20
-0.712665
30
0.0
11
0.534180
21
-0.682117
31
0.0
0
LINE
8
MCD_Layer_0
10
0.324219
20
-1.700000
30
0.0
11
0.636719
21
-0.682483
31
0.0
0
LINE
8
MCD_Layer_0
10
3.058887
20
-0.695850
30
0.0
11
3.063281
21
-1.185260
31
0.0
0
LINE
8
MCD_Layer_0
10
3.058398
20
-1.695850
30
0.0
11
3.063281
21
-1.185260
31
0.0
0
LINE
8
MCD_Layer_0
10
3.058398
20
-1.695850
30
0.0
11
3.063281
21
-1.185260
31
0.0
0
LINE
8
MCD_Layer_0
10
3.058398
20
-1.695850
30
0.0
11
3.157031
21
-0.696948
31
0.0
0
LINE
8
MCD_Layer_0
10
3.058398
20
-1.695850
30
0.0
11
3.157031
21
-0.696948
31
0.0
0
LINE
8
MCD_Layer_0
10
2.176563
20
-0.695789
30
0.0
11
3.290820
21
-0.692096
31
0.0
0
LINE
8
MCD_Layer_0
10
2.176563
20
-0.695789
30
0.0
11
3.290820
21
-0.692096
31
0.0
0
LINE
8
MCD_Layer_0
10
2.176563
20
-0.695789
30
0.0
11
3.998828
21
-0.690356
31
0.0
0
LINE
8
MCD_Layer_0
10
2.176563
20
-0.695789
30
0.0
11
3.998828
21
-0.690356
31
0.0
0
LINE
8
MCD_Layer_0
10
3.791797
20
-0.699237
30
0.0
11
3.563770
21
-0.689166
31
0.0
0
LINE
8
MCD_Layer_0
10
3.791797
20
-0.699237
30
0.0
11
3.563770
21
-0.689166
31
0.0
0
LINE
8
MCD_Layer_0
10
3.912891
20
-1.700000
30
0.0
11
3.563770
21
-0.689166
31
0.0
0
LINE
8
MCD_Layer_0
10
3.912891
20
-1.700000
30
0.0
11
3.563770
21
-0.689166
31
0.0
0
LINE
8
MCD_Layer_0
10
3.058398
20
-1.695850
30
0.0
11
2.743945
21
-0.690173
31
0.0
0
LINE
8
MCD_Layer_0
10
4.889746
20
-1.693195
30
0.0
11
6.206641
21
-0.696735
31
0.0
0
LINE
8
MCD_Layer_0
10
4.353125
20
-1.700000
30
0.0
11
5.335547
21
-1.182635
31
0.0
0
LINE
8
MCD_Layer_0
10
4.353125
20
-1.700000
30
0.0
11
5.335547
21
-1.182635
31
0.0
0
LINE
8
MCD_Layer_0
10
5.067969
20
-0.697437
30
0.0
11
5.335547
21
-1.182635
31
0.0
0
LINE
8
MCD_Layer_0
10
5.067969
20
-0.697437
30
0.0
11
5.335547
21
-1.182635
31
0.0
0
LINE
8
MCD_Layer_0
10
4.889746
20
-0.693195
30
0.0
11
5.148047
21
-0.698322
31
0.0
0
LINE
8
MCD_Layer_0
10
4.889746
20
-0.693195
30
0.0
11
5.148047
21
-0.698322
31
0.0
0
LINE
8
MCD_Layer_0
10
4.889746
20
-0.693195
30
0.0
11
4.677344
21
-0.691669
31
0.0
0
LINE
8
MCD_Layer_0
10
4.889746
20
-0.693195
30
0.0
11
4.677344
21
-0.691669
31
0.0
0
LINE
8
MCD_Layer_0
10
4.577734
20
-0.698291
30
0.0
11
4.479102
21
-0.689899
31
0.0
0
LINE
8
MCD_Layer_0
10
4.577734
20
-0.698291
30
0.0
11
4.479102
21
-0.689899
31
0.0
0
LINE
8
MCD_Layer_0
10
4.889746
20
-0.693195
30
0.0
11
5.799414
21
-0.688892
31
0.0
0
LINE
8
MCD_Layer_0
10
4.889746
20
-0.693195
30
0.0
11
5.799414
21
-0.688892
31
0.0
0
LINE
8
MCD_Layer_0
10
4.889746
20
-0.693195
30
0.0
11
4.609961
21
-0.687518
31
0.0
0
LINE
8
MCD_Layer_0
10
4.889746
20
-0.693195
30
0.0
11
4.609961
21
-0.687518
31
0.0
0
LINE
8
MCD_Layer_0
10
4.945898
20
-0.696674
30
0.0
11
4.743750
21
-0.686572
31
0.0
0
LINE
8
MCD_Layer_0
10
4.945898
20
-0.696674
30
0.0
11
4.743750
21
-0.686572
31
0.0
0
LINE
8
MCD_Layer_0
10
5.761328
20
-1.699420
30
0.0
11
4.743750
21
-0.686572
31
0.0
0
LINE
8
MCD_Layer_0
10
5.761328
20
-1.699420
30
0.0
11
4.743750
21
-0.686572
31
0.0
0
LINE
8
MCD_Layer_0
10
5.772070
20
-1.693225
30
0.0
11
5.864844
21
-0.687701
31
0.0
0
LINE
8
MCD_Layer_0
10
7.764063
20
-0.701740
30
0.0
11
6.547266
21
-0.730060
31
0.0
0
LINE
8
MCD_Layer_0
10
7.764063
20
-0.701740
30
0.0
11
7.658594
21
-0.693317
31
0.0
0
LINE
8
MCD_Layer_0
10
7.764063
20
-0.701740
30
0.0
11
7.658594
21
-0.693317
31
0.0
0
LINE
8
MCD_Layer_0
10
7.925195
20
-1.700000
30
0.0
11
6.529688
21
-0.700336
31
0.0
0
LINE
8
MCD_Layer_0
10
7.925195
20
-1.700000
30
0.0
11
6.529688
21
-0.700336
31
0.0
0
LINE
8
MCD_Layer_0
10
7.925684
20
-0.700000
30
0.0
11
6.529688
21
-0.700336
31
0.0
0
LINE
8
MCD_Layer_0
10
9.245313
20
-1.696429
30
0.0
11
9.542188
21
-0.703113
31
0.0
0
LINE
8
MCD_Layer_0
10
9.067578
20
-1.700000
30
0.0
11
9.690625
21
-1.185870
31
0.0
0
LINE
8
MCD_Layer_0
10
9.067578
20
-1.700000
30
0.0
11
9.690625
21
-1.185870
31
0.0
0
LINE
8
MCD_Layer_0
10
8.706250
20
-0.699329
30
0.0
11
9.690625
21
-1.185870
31
0.0
0
LINE
8
MCD_Layer_0
10
8.706250
20
-0.699329
30
0.0
11
9.690625
21
-1.185870
31
0.0
0
LINE
8
MCD_Layer_0
10
9.244336
20
-0.696429
30
0.0
11
10.284375
21
-0.702899
31
0.0
0
LINE
8
MCD_Layer_0
10
9.244336
20
-0.696429
30
0.0
11
10.284375
21
-0.702899
31
0.0
0
LINE
8
MCD_Layer_0
10
9.244336
20
-0.696429
30
0.0
11
10.014844
21
-0.694110
31
0.0
0
LINE
8
MCD_Layer_0
10
9.244336
20
-0.696429
30
0.0
11
10.014844
21
-0.694110
31
0.0
0
LINE
8
MCD_Layer_0
10
9.411328
20
-0.699054
30
0.0
11
10.427930
21
-0.693103
31
0.0
0
LINE
8
MCD_Layer_0
10
9.411328
20
-0.699054
30
0.0
11
10.427930
21
-0.693103
31
0.0
0
LINE
8
MCD_Layer_0
10
9.067578
20
-1.700000
30
0.0
11
10.427930
21
-0.693103
31
0.0
0
LINE
8
MCD_Layer_0
10
9.067578
20
-1.700000
30
0.0
11
10.427930
21
-0.693103
31
0.0
0
LINE
8
MCD_Layer_0
10
10.128125
20
-1.696460
30
0.0
11
9.710156
21
-0.694446
31
0.0
0
LINE
8
MCD_Layer_0
10
10.128125
20
-1.696460
30
0.0
11
9.710156
21
-0.694446
31
0.0
0
LINE
8
MCD_Layer_0
10
10.128125
20
-1.696460
30
0.0
11
10.191113
21
-0.689777
31
0.0
0
LINE
8
MCD_Layer_0
10
10.128125
20
-1.696460
30
0.0
11
10.191113
21
-0.689777
31
0.0
0
LINE
8
MCD_Layer_0
10
9.971875
20
-0.696704
30
0.0
11
10.191113
21
-0.689777
31
0.0
0
LINE
8
MCD_Layer_0
10
12.406250
20
-1.699908
30
0.0
11
11.849609
21
-1.185931
31
0.0
0
LINE
8
MCD_Layer_0
10
10.883789
20
-1.696490
30
0.0
11
12.435547
21
-0.700854
31
0.0
0
LINE
8
MCD_Layer_0
10
10.883789
20
-1.696490
30
0.0
11
12.435547
21
-0.700854
31
0.0
0
LINE
8
MCD_Layer_0
10
10.883789
20
-1.696490
30
0.0
11
12.114258
21
-0.691028
31
0.0
0
LINE
8
MCD_Layer_0
10
10.883789
20
-1.696490
30
0.0
11
12.114258
21
-0.691028
31
0.0
0
LINE
8
MCD_Layer_0
10
10.923828
20
-1.700000
30
0.0
11
11.161133
21
-0.689868
31
0.0
0
LINE
8
MCD_Layer_0
10
10.923828
20
-1.700000
30
0.0
11
11.161133
21
-0.689868
31
0.0
0
LINE
8
MCD_Layer_0
10
11.066406
20
-0.700671
30
0.0
11
11.161133
21
-0.689868
31
0.0
0
LINE
8
MCD_Layer_0
10
11.066406
20
-0.700671
30
0.0
11
11.161133
21
-0.689868
31
0.0
0
LINE
8
MCD_Layer_0
10
10.882812
20
-0.696490
30
0.0
11
12.123047
21
-0.690814
31
0.0
0
LINE
8
MCD_Layer_0
10
10.883789
20
-1.696490
30
0.0
11
12.544922
21
-0.694171
31
0.0
0
LINE
8
MCD_Layer_0
10
10.923828
20
-1.700000
30
0.0
11
12.636719
21
-0.692981
31
0.0
0
LINE
8
MCD_Layer_0
10
10.923828
20
-1.700000
30
0.0
11
12.636719
21
-0.692981
31
0.0
0
LINE
8
MCD_Layer_0
10
11.583984
20
-0.700763
30
0.0
11
12.636719
21
-0.692981
31
0.0
0
LINE
8
MCD_Layer_0
10
11.583984
20
-0.700763
30
0.0
11
12.636719
21
-0.692981
31
0.0
0
LINE
8
MCD_Layer_0
10
10.882812
20
-0.696490
30
0.0
11
12.544922
21
-0.694171
31
0.0
0
LINE
8
MCD_Layer_0
10
10.882812
20
-0.696490
30
0.0
11
12.544922
21
-0.694171
31
0.0
0
LINE
8
MCD_Layer_0
10
10.882812
20
-0.696490
30
0.0
11
11.642578
21
-0.700702
31
0.0
0
LINE
8
MCD_Layer_0
10
10.882812
20
-0.696490
30
0.0
11
11.642578
21
-0.700702
31
0.0
0
LINE
8
MCD_Layer_0
10
12.404297
20
-0.699908
30
0.0
11
11.849609
21
-1.185931
31
0.0
0
LINE
8
MCD_Layer_0
10
12.404297
20
-0.699908
30
0.0
11
11.849609
21
-1.185931
31
0.0
0
LINE
8
MCD_Layer_0
10
12.406250
20
-1.699908
30
0.0
11
11.849609
21
-1.185931
31
0.0
0
LINE
8
MCD_Layer_0
10
13.635547
20
-1.685474
30
0.0
11
14.051563
21
-1.170184
31
0.0
0
LINE
8
MCD_Layer_0
10
13.635547
20
-1.685474
30
0.0
11
13.067188
21
-0.680438
31
0.0
0
LINE
8
MCD_Layer_0
10
13.635547
20
-1.685474
30
0.0
11
13.067188
21
-0.680438
31
0.0
0
LINE
8
MCD_Layer_0
10
14.926563
20
-1.700000
30
0.0
11
13.631641
21
-0.677417
31
0.0
0
LINE
8
MCD_Layer_0
10
14.926563
20
-1.700000
30
0.0
11
13.631641
21
-0.677417
31
0.0
0
LINE
8
MCD_Layer_0
10
13.059375
20
-0.682788
30
0.0
11
14.687305
21
-0.676013
31
0.0
0
LINE
8
MCD_Layer_0
10
13.059375
20
-0.682788
30
0.0
11
14.687305
21
-0.676013
31
0.0
0
LINE
8
MCD_Layer_0
10
13.419727
20
-0.680560
30
0.0
11
14.932422
21
-0.674884
31
0.0
0
LINE
8
MCD_Layer_0
10
13.419727
20
-0.680560
30
0.0
11
14.932422
21
-0.674884
31
0.0
0
LINE
8
MCD_Layer_0
10
13.419727
20
-0.680560
30
0.0
11
14.407520
21
-0.674091
31
0.0
0
LINE
8
MCD_Layer_0
10
13.419727
20
-0.680560
30
0.0
11
14.407520
21
-0.674091
31
0.0
0
LINE
8
MCD_Layer_0
10
13.419727
20
-1.680560
30
0.0
11
14.407520
21
-0.674091
31
0.0
0
LINE
8
MCD_Layer_0
10
13.419727
20
-1.680560
30
0.0
11
14.407520
21
-0.674091
31
0.0
0
LINE
8
MCD_Layer_0
10
13.419727
20
-1.680560
30
0.0
11
14.932422
21
-0.674884
31
0.0
0
LINE
8
MCD_Layer_0
10
13.953906
20
-1.682300
30
0.0
11
14.408008
21
-0.677997
31
0.0
0
LINE
8
MCD_Layer_0
10
13.116016
20
-0.685382
30
0.0
11
14.408008
21
-0.677997
31
0.0
0
LINE
8
MCD_Layer_0
10
16.612891
20
-1.700000
30
0.0
11
16.202734
21
-1.186694
31
0.0
0
LINE
8
MCD_Layer_0
10
15.235938
20
-1.697253
30
0.0
11
15.648047
21
-0.703998
31
0.0
0
LINE
8
MCD_Layer_0
10
15.235938
20
-1.697253
30
0.0
11
15.648047
21
-0.703998
31
0.0
0
LINE
8
MCD_Layer_0
10
15.235938
20
-1.697253
30
0.0
11
16.880469
21
-0.695361
31
0.0
0
LINE
8
MCD_Layer_0
10
15.235938
20
-1.697253
30
0.0
11
16.880469
21
-0.695361
31
0.0
0
LINE
8
MCD_Layer_0
10
15.950781
20
-1.699268
30
0.0
11
16.382422
21
-0.693927
31
0.0
0
LINE
8
MCD_Layer_0
10
15.950781
20
-1.699268
30
0.0
11
16.382422
21
-0.693927
31
0.0
0
LINE
8
MCD_Layer_0
10
15.235938
20
-1.697253
30
0.0
11
16.813086
21
-0.693164
31
0.0
0
LINE
8
MCD_Layer_0
10
15.235938
20
-1.697253
30
0.0
11
16.813086
21
-0.693164
31
0.0
0
LINE
8
MCD_Layer_0
10
15.235938
20
-1.697253
30
0.0
11
16.476172
21
-0.691577
31
0.0
0
LINE
8
MCD_Layer_0
10
15.235938
20
-1.697253
30
0.0
11
16.476172
21
-0.691577
31
0.0
0
LINE
8
MCD_Layer_0
10
16.612891
20
-1.700000
30
0.0
11
15.514258
21
-0.690631
31
0.0
0
LINE
8
MCD_Layer_0
10
16.612891
20
-1.700000
30
0.0
11
15.514258
21
-0.690631
31
0.0
0
LINE
8
MCD_Layer_0
10
16.097266
20
-0.699939
30
0.0
11
15.514258
21
-0.690631
31
0.0
0
LINE
8
MCD_Layer_0
10
16.097266
20
-0.699939
30
0.0
11
15.514258
21
-0.690631
31
0.0
0
LINE
8
MCD_Layer_0
10
15.236914
20
-0.697253
30
0.0
11
17.074805
21
-0.691608
31
0.0
0
LINE
8
MCD_Layer_0
10
15.236914
20
-0.697253
30
0.0
11
17.074805
21
-0.691608
31
0.0
0
LINE
8
MCD_Layer_0
10
15.236914
20
-0.697253
30
0.0
11
16.813086
21
-0.693164
31
0.0
0
LINE
8
MCD_Layer_0
10
15.236914
20
-0.697253
30
0.0
11
16.813086
21
-0.693164
31
0.0
0
LINE
8
MCD_Layer_0
10
15.437109
20
-0.699176
30
0.0
11
16.382422
21
-0.693927
31
0.0
0
LINE
8
MCD_Layer_0
10
15.437109
20
-0.699176
30
0.0
11
16.382422
21
-0.693927
31
0.0
0
LINE
8
MCD_Layer_0
10
15.236914
20
-0.697253
30
0.0
11
15.683203
21
-0.695331
31
0.0
0
LINE
8
MCD_Layer_0
10
15.236914
20
-0.697253
30
0.0
11
15.683203
21
-0.695331
31
0.0
0
LINE
8
MCD_Layer_0
10
15.236914
20
-0.697253
30
0.0
11
15.648047
21
-0.703998
31
0.0
0
LINE
8
MCD_Layer_0
10
15.236914
20
-0.697253
30
0.0
11
15.648047
21
-0.703998
31
0.0
0
LINE
8
MCD_Layer_0
10
17.134375
20
-0.700092
30
0.0
11
16.202734
21
-1.186694
31
0.0
0
LINE
8
MCD_Layer_0
10
17.134375
20
-0.700092
30
0.0
11
16.202734
21
-1.186694
31
0.0
0
LINE
8
MCD_Layer_0
10
16.612891
20
-1.700000
30
0.0
11
16.202734
21
-1.186694
31
0.0
0
LINE
8
MCD_Layer_0
10
15.950781
20
-1.699268
30
0.0
11
16.382422
21
-0.693927
31
0.0
0
LINE
8
MCD_Layer_0
10
15.437109
20
-0.699176
30
0.0
11
16.382422
21
-0.693927
31
0.0
0
LINE
8
MCD_Layer_0
10
17.412500
20
-1.697833
30
0.0
11
18.137109
21
-0.702899
31
0.0
0
LINE
8
MCD_Layer_0
10
19.164453
20
-1.700000
30
0.0
11
18.379297
21
-1.187274
31
0.0
0
LINE
8
MCD_Layer_0
10
19.164453
20
-1.700000
30
0.0
11
18.379297
21
-1.187274
31
0.0
0
LINE
8
MCD_Layer_0
10
18.791406
20
-0.700580
30
0.0
11
18.379297
21
-1.187274
31
0.0
0
LINE
8
MCD_Layer_0
10
18.791406
20
-0.700580
30
0.0
11
18.379297
21
-1.187274
31
0.0
0
LINE
8
MCD_Layer_0
10
17.413477
20
-0.697833
30
0.0
11
18.172266
21
-0.702045
31
0.0
0
LINE
8
MCD_Layer_0
10
17.413477
20
-0.697833
30
0.0
11
18.172266
21
-0.702045
31
0.0
0
LINE
8
MCD_Layer_0
10
17.413477
20
-0.697833
30
0.0
11
18.651758
21
-0.692157
31
0.0
0
LINE
8
MCD_Layer_0
10
17.413477
20
-0.697833
30
0.0
11
18.651758
21
-0.692157
31
0.0
0
LINE
8
MCD_Layer_0
10
19.308984
20
-0.700671
30
0.0
11
18.735254
21
-0.691180
31
0.0
0
LINE
8
MCD_Layer_0
10
19.308984
20
-0.700671
30
0.0
11
18.735254
21
-0.691180
31
0.0
0
LINE
8
MCD_Layer_0
10
18.129297
20
-1.699847
30
0.0
11
18.735254
21
-0.691180
31
0.0
0
LINE
8
MCD_Layer_0
10
18.129297
20
-1.699847
30
0.0
11
18.735254
21
-0.691180
31
0.0
0
LINE
8
MCD_Layer_0
10
17.412500
20
-1.697833
30
0.0
11
18.651758
21
-0.692157
31
0.0
0
LINE
8
MCD_Layer_0
10
17.412500
20
-1.697833
30
0.0
11
18.651758
21
-0.692157
31
0.0
0
LINE
8
MCD_Layer_0
10
17.412500
20
-1.697833
30
0.0
11
17.959375
21
-0.694507
31
0.0
0
LINE
8
MCD_Layer_0
10
17.412500
20
-1.697833
30
0.0
11
17.959375
21
-0.694507
31
0.0
0
LINE
8
MCD_Layer_0
10
18.129297
20
-1.699847
30
0.0
11
18.660547
21
-0.695850
31
0.0
0
LINE
8
MCD_Layer_0
10
18.129297
20
-1.699847
30
0.0
11
18.660547
21
-0.695850
31
0.0
0
LINE
8
MCD_Layer_0
10
18.273828
20
-0.700519
30
0.0
11
18.660547
21
-0.695850
31
0.0
0
LINE
8
MCD_Layer_0
10
18.273828
20
-0.700519
30
0.0
11
18.660547
21
-0.695850
31
0.0
0
LINE
8
MCD_Layer_0
10
17.413477
20
-0.697833
30
0.0
11
19.351953
21
-0.694690
31
0.0
0
LINE
8
MCD_Layer_0
10
19.667188
20
-1.700000
30
0.0
11
19.589063
21
-0.693927
31
0.0
0
LINE
8
MCD_Layer_0
10
19.667188
20
-0.700000
30
0.0
11
19.589063
21
-0.693927
31
0.0
0
LINE
8
MCD_Layer_0
10
1.453125
20
-4.105066
30
0.0
11
0.390625
21
-5.087610
31
0.0
0
LINE
8
MCD_Layer_0
10
0.000000
20
-5.088007
30
0.0
11
0.953125
21
-4.562494
31
0.0
0
LINE
8
MCD_Layer_0
10
0.000000
20
-5.088007
30
0.0
11
0.953125
21
-4.562494
31
0.0
0
LINE
8
MCD_Layer_0
10
1.453125
20
-4.105066
30
0.0
11
0.390625
21
-4.087610
31
0.0
0
LINE
8
MCD_Layer_0
10
1.453125
20
-4.105066
30
0.0
11
0.390625
21
-4.087610
31
0.0
0
LINE
8
MCD_Layer_0
10
1.312500
20
-4.087457
30
0.0
11
1.453125
21
-5.100000
31
0.0
0
LINE
8
MCD_Layer_0
10
1.312500
20
-4.087457
30
0.0
11
1.453125
21
-5.100000
31
0.0
0
LINE
8
MCD_Layer_0
10
1.453125
20
-4.105066
30
0.0
11
0.390625
21
-5.087610
31
0.0
0
LINE
8
MCD_Layer_0
10
1.828125
20
-4.088068
30
0.0
11
0.953125
21
-4.562494
31
0.0
0
LINE
8
MCD_Layer_0
10
0.031250
20
-5.088007
30
0.0
11
0.953125
21
-4.562494
31
0.0
0
LINE
8
MCD_Layer_0
10
3.582813
20
-4.074274
30
0.0
11
2.176563
21
-5.067987
31
0.0
0
LINE
8
MCD_Layer_0
10
3.582813
20
-4.070367
30
0.0
11
2.629688
21
-5.070306
31
0.0
0
LINE
8
MCD_Layer_0
10
3.582813
20
-4.070367
30
0.0
11
2.629688
21
-5.070306
31
0.0
0
LINE
8
MCD_Layer_0
10
3.582813
20
-4.074274
30
0.0
11
2.848438
21
-4.100031
31
0.0
0
LINE
8
MCD_Layer_0
10
3.582813
20
-4.074274
30
0.0
11
2.848438
21
-4.100031
31
0.0
0
LINE
8
MCD_Layer_0
10
2.848438
20
-4.096277
30
0.0
11
2.567188
21
-4.074396
31
0.0
0
LINE
8
MCD_Layer_0
10
2.848438
20
-4.096277
30
0.0
11
2.567188
21
-4.074396
31
0.0
0
LINE
8
MCD_Layer_0
10
3.598438
20
-5.074274
30
0.0
11
2.848438
21
-5.100000
31
0.0
0
LINE
8
MCD_Layer_0
10
3.598438
20
-5.074274
30
0.0
11
2.848438
21
-5.100000
31
0.0
0
LINE
8
MCD_Layer_0
10
2.848438
20
-4.100183
30
0.0
11
2.598438
21
-5.074335
31
0.0
0
LINE
8
MCD_Layer_0
10
2.848438
20
-4.100183
30
0.0
11
2.598438
21
-5.074335
31
0.0
0
LINE
8
MCD_Layer_0
10
3.582813
20
-4.074274
30
0.0
11
2.848438
21
-4.100031
31
0.0
0
LINE
8
MCD_Layer_0
10
5.353125
20
-5.100000
30
0.0
11
6.228125
21
-4.079309
31
0.0
0
LINE
8
MCD_Layer_0
10
5.009375
20
-5.078851
30
0.0
11
4.353125
21
-5.099908
31
0.0
0
LINE
8
MCD_Layer_0
10
5.009375
20
-5.078851
30
0.0
11
4.353125
21
-5.099908
31
0.0
0
LINE
8
MCD_Layer_0
10
5.353125
20
-5.100000
30
0.0
11
6.228125
21
-5.079309
31
0.0
0
LINE
8
MCD_Layer_0
10
5.353125
20
-5.100000
30
0.0
11
6.228125
21
-5.079309
31
0.0
0
LINE
8
MCD_Layer_0
10
5.009375
20
-4.078851
30
0.0
11
4.353125
21
-4.099908
31
0.0
0
LINE
8
MCD_Layer_0
10
5.009375
20
-4.078851
30
0.0
11
4.353125
21
-4.099908
31
0.0
0
LINE
8
MCD_Layer_0
10
5.009375
20
-5.078851
30
0.0
11
6.290625
21
-4.079004
31
0.0
0
LINE
8
MCD_Layer_0
10
5.353125
20
-4.100000
30
0.0
11
4.400977
21
-4.061639
31
0.0
0
LINE
8
MCD_Layer_0
10
5.384375
20
-4.079126
30
0.0
11
5.555273
21
-4.061426
31
0.0
0
LINE
8
MCD_Layer_0
10
5.384375
20
-4.079126
30
0.0
11
5.555273
21
-4.061426
31
0.0
0
LINE
8
MCD_Layer_0
10
5.353125
20
-5.100000
30
0.0
11
4.611914
21
-4.061060
31
0.0
0
LINE
8
MCD_Layer_0
10
5.353125
20
-5.100000
30
0.0
11
4.611914
21
-4.061060
31
0.0
0
LINE
8
MCD_Layer_0
10
5.759375
20
-5.079431
30
0.0
11
6.302344
21
-4.061456
31
0.0
0
LINE
8
MCD_Layer_0
10
5.759375
20
-5.079431
30
0.0
11
6.302344
21
-4.061456
31
0.0
0
LINE
8
MCD_Layer_0
10
5.353125
20
-4.100000
30
0.0
11
4.400977
21
-4.061639
31
0.0
0
LINE
8
MCD_Layer_0
10
11.682831
20
-4.612512
30
0.0
11
10.882812
21
-4.603906
31
0.0
0
LINE
8
MCD_Layer_0
10
11.682831
20
-4.612512
30
0.0
11
10.882812
21
-4.603906
31
0.0
0
LINE
8
MCD_Layer_0
10
10.882812
20
-4.609766
30
0.0
11
11.282806
21
-4.607233
31
0.0
0
LINE
8
MCD_Layer_0
10
10.882812
20
-4.609766
30
0.0
11
11.282806
21
-4.607233
31
0.0
0
LINE
8
MCD_Layer_0
10
11.682831
20
-4.607629
30
0.0
11
10.882812
21
-4.603906
31
0.0
0
LINE
8
MCD_Layer_0
10
11.682831
20
-4.607629
30
0.0
11
10.882812
21
-4.603906
31
0.0
0
LINE
8
MCD_Layer_0
10
10.882812
20
-4.605859
30
0.0
11
10.882812
21
-5.100000
31
0.0
0
LINE
8
MCD_Layer_0
10
13.059375
20
-5.094965
30
0.0
11
13.912891
21
-4.079065
31
0.0
0
LINE
8
MCD_Layer_0
10
14.184375
20
-5.100000
30
0.0
11
13.739063
21
-4.078638
31
0.0
0
LINE
8
MCD_Layer_0
10
14.184375
20
-5.100000
30
0.0
11
13.739063
21
-4.078638
31
0.0
0
LINE
8
MCD_Layer_0
10
13.059375
20
-5.094965
30
0.0
11
13.566211
21
-4.078210
31
0.0
0
LINE
8
MCD_Layer_0
10
13.059375
20
-5.094965
30
0.0
11
13.566211
21
-4.078210
31
0.0
0
LINE
8
MCD_Layer_0
10
14.785938
20
-5.092767
30
0.0
11
14.000781
21
-4.078027
31
0.0
0
LINE
8
MCD_Layer_0
10
14.785938
20
-5.092767
30
0.0
11
14.000781
21
-4.078027
31
0.0
0
LINE
8
MCD_Layer_0
10
13.676563
20
-5.091119
30
0.0
11
14.087695
21
-4.078241
31
0.0
0
LINE
8
MCD_Layer_0
10
13.676563
20
-5.091119
30
0.0
11
14.087695
21
-4.078241
31
0.0
0
LINE
8
MCD_Layer_0
10
13.168750
20
-5.092981
30
0.0
11
13.913867
21
-4.078455
31
0.0
0
LINE
8
MCD_Layer_0
10
13.168750
20
-5.092981
30
0.0
11
13.913867
21
-4.078455
31
0.0
0
LINE
8
MCD_Layer_0
10
13.059375
20
-5.094965
30
0.0
11
13.566211
21
-4.078210
31
0.0
0
LINE
8
MCD_Layer_0
10
14.129688
20
-4.090784
30
0.0
11
13.912891
21
-4.079065
31
0.0
0
LINE
8
MCD_Layer_0
10
13.672656
20
-4.089471
30
0.0
11
14.000781
21
-4.078638
31
0.0
0
LINE
8
MCD_Layer_0
10
13.672656
20
-4.089471
30
0.0
11
14.000781
21
-4.078638
31
0.0
0
LINE
8
MCD_Layer_0
10
13.739063
20
-4.090601
30
0.0
11
14.348438
21
-4.078271
31
0.0
0
LINE
8
MCD_Layer_0
10
13.739063
20
-4.090601
30
0.0
11
14.348438
21
-4.078271
31
0.0
0
LINE
8
MCD_Layer_0
10
13.231250
20
-4.092462
30
0.0
11
14.000781
21
-4.078027
31
0.0
0
LINE
8
MCD_Layer_0
10
13.231250
20
-4.092462
30
0.0
11
14.000781
21
-4.078027
31
0.0
0
LINE
8
MCD_Layer_0
10
14.293750
20
-4.095575
30
0.0
11
14.087695
21
-4.078241
31
0.0
0
LINE
8
MCD_Layer_0
10
14.293750
20
-4.095575
30
0.0
11
14.087695
21
-4.078241
31
0.0
0
LINE
8
MCD_Layer_0
10
14.067188
20
-4.091821
30
0.0
11
13.913867
21
-4.078455
31
0.0
0
LINE
8
MCD_Layer_0
10
14.067188
20
-4.091821
30
0.0
11
13.913867
21
-4.078455
31
0.0
0
LINE
8
MCD_Layer_0
10
13.739063
20
-4.090601
30
0.0
11
14.348438
21
-4.078271
31
0.0
0
ENDSEC
0
EOF
