0
SECTION
2
ENTITIES
0
LINE
8
MCD_Layer_0
10
0.000551
20
0.000000
30
0.0
11
0.000000
21
0.000000
31
0.0
0
LINE
8
MCD_Layer_0
10
0.000000
20
0.000031
30
0.0
11
0.000000
21
0.000000
31
0.0
0
LINE
8
MCD_Layer_0
10
0.000114
20
0.000521
30
0.0
11
0.000000
21
0.000000
31
0.0
0
LINE
8
MCD_Layer_0
10
0.000521
20
0.000114
30
0.0
11
0.000000
21
0.000000
31
0.0
0
LINE
8
MCD_Layer_0
10
0.000031
20
0.000000
30
0.0
11
0.000000
21
0.000000
31
0.0
0
LINE
8
MCD_Layer_0
10
0.000031
20
0.000031
30
0.0
11
0.000000
21
0.000000
31
0.0
0
LINE
8
MCD_Layer_0
10
0.000114
20
0.000114
30
0.0
11
0.000000
21
0.000000
31
0.0
0
LINE
8
MCD_Layer_0
10
0.000000
20
0.007813
30
0.0
11
0.000000
21
0.000000
31
0.0
0
LINE
8
MCD_Layer_0
10
0.007813
20
0.007813
30
0.0
11
0.000000
21
0.000000
31
0.0
0
LINE
8
MCD_Layer_0
10
0.000003
20
0.000000
30
0.0
11
0.000000
21
0.000000
31
0.0
0
LINE
8
MCD_Layer_0
10
0.002266
20
0.002266
30
0.0
11
0.000000
21
0.000000
31
0.0
0
LINE
8
MCD_Layer_0
10
0.003236
20
0.001348
30
0.0
11
0.000000
21
0.000000
31
0.0
0
LINE
8
MCD_Layer_0
10
0.000000
20
0.000000
30
0.0
11
0.000000
21
0.000000
31
0.0
0
LINE
8
MCD_Layer_0
10
0.000000
20
0.007813
30
0.0
11
0.000000
21
0.000000
31
0.0
0
LINE
8
MCD_Layer_0
10
0.007813
20
0.007813
30
0.0
11
0.000000
21
0.000000
31
0.0
0
LINE
8
MCD_Layer_0
10
0.002266
20
0.002266
30
0.0
11
0.000000
21
0.000000
31
0.0
0
LINE
8
MCD_Layer_0
10
0.000011
20
0.000000
30
0.0
11
0.000000
21
0.000000
31
0.0
0
LINE
8
MCD_Layer_0
10
0.002923
20
0.001279
30
0.0
11
0.000000
21
0.000000
31
0.0
0
LINE
8
MCD_Layer_0
10
0.000000
20
0.000011
30
0.0
11
0.000000
21
0.000000
31
0.0
0
LINE
8
MCD_Layer_0
10
0.000000
20
0.007813
30
0.0
11
0.000000
21
0.000000
31
0.0
0
LINE
8
MCD_Layer_0
10
0.007813
20
0.007813
30
0.0
11
0.000000
21
0.000000
31
0.0
0
LINE
8
MCD_Layer_0
10
0.007813
20
0.002266
30
0.0
11
0.000000
21
0.000000
31
0.0
0
LINE
8
MCD_Layer_0
10
0.002266
20
0.002266
30
0.0
11
0.000000
21
0.000000
31
0.0
0
LINE
8
MCD_Layer_0
10
0.002266
20
0.000114
30
0.0
11
0.000000
21
0.000000
31
0.0
0
LINE
8
MCD_Layer_0
10
0.000114
20
0.000114
30
0.0
11
0.000000
21
0.000000
31
0.0
0
LINE
8
MCD_Layer_0
10
0.000114
20
0.000031
30
0.0
11
0.000000
21
0.000000
31
0.0
0
LINE
8
MCD_Layer_0
10
0.000031
20
0.000031
30
0.0
11
0.000000
21
0.000000
31
0.0
0
LINE
8
MCD_Layer_0
10
0.000031
20
0.000000
30
0.0
11
0.000000
21
0.000000
31
0.0
0
LINE
8
MCD_Layer_0
10
0.000000
20
0.007813
30
0.0
11
0.000000
21
0.000000
31
0.0
0
LINE
8
MCD_Layer_0
10
0.007813
20
0.007813
30
0.0
11
0.000000
21
0.000000
31
0.0
0
LINE
8
MCD_Layer_0
10
0.007813
20
0.000114
30
0.0
11
0.000000
21
0.000000
31
0.0
0
LINE
8
MCD_Layer_0
10
0.000114
20
0.000114
30
0.0
11
0.000000
21
0.000000
31
0.0
0
LINE
8
MCD_Layer_0
10
0.000114
20
0.007813
30
0.0
11
0.000000
21
0.000000
31
0.0
0
LINE
8
MCD_Layer_0
10
0.007813
20
0.007813
30
0.0
11
0.000000
21
0.000000
31
0.0
0
LINE
8
MCD_Layer_0
10
0.007813
20
0.000000
30
0.0
11
0.000000
21
0.000000
31
0.0
0
LINE
8
MCD_Layer_0
10
0.000000
20
0.000031
30
0.0
11
0.000000
21
0.000000
31
0.0
0
LINE
8
MCD_Layer_0
10
0.000031
20
0.000031
30
0.0
11
0.000000
21
0.000000
31
0.0
0
LINE
8
MCD_Layer_0
10
0.000031
20
0.000000
30
0.0
11
0.000000
21
0.000000
31
0.0
0
LINE
8
MCD_Layer_0
10
0.000000
20
0.007813
30
0.0
11
0.000000
21
0.000000
31
0.0
0
LINE
8
MCD_Layer_0
10
0.007813
20
0.007813
30
0.0
11
0.000000
21
0.000000
31
0.0
0
LINE
8
MCD_Layer_0
10
0.007813
20
0.000000
30
0.0
11
0.000000
21
0.000000
31
0.0
0
LINE
8
MCD_Layer_0
10
0.000000
20
0.000000
30
0.0
11
0.000000
21
0.000000
31
0.0
0
LINE
8
MCD_Layer_0
10
0.000000
20
0.007815
30
0.0
11
0.000000
21
0.000000
31
0.0
0
LINE
8
MCD_Layer_0
10
0.007815
20
0.007815
30
0.0
11
0.000000
21
0.000000
31
0.0
0
LINE
8
MCD_Layer_0
10
0.007815
20
0.000000
30
0.0
11
0.000000
21
0.000000
31
0.0
0
LINE
8
MCD_Layer_0
10
0.000000
20
0.007813
30
0.0
11
0.000000
21
0.000000
31
0.0
0
LINE
8
MCD_Layer_0
10
0.007813
20
0.007813
30
0.0
11
0.000000
21
0.000000
31
0.0
0
LINE
8
MCD_Layer_0
10
0.007813
20
0.000057
30
0.0
11
0.000000
21
0.000000
31
0.0
0
LINE
8
MCD_Layer_0
10
0.007813
20
0.007813
30
0.0
11
0.000000
21
0.000000
31
0.0
0
LINE
8
MCD_Layer_0
10
0.000007
20
0.000000
30
0.0
11
0.000000
21
0.000000
31
0.0
0
LINE
8
MCD_Layer_0
10
0.000000
20
0.007813
30
0.0
11
0.000000
21
0.000000
31
0.0
0
LINE
8
MCD_Layer_0
10
0.007813
20
0.007813
30
0.0
11
0.000000
21
0.000000
31
0.0
0
LINE
8
MCD_Layer_0
10
0.007813
20
0.000000
30
0.0
11
0.000000
21
0.000000
31
0.0
0
LINE
8
MCD_Layer_0
10
0.000000
20
0.000777
30
0.0
11
0.000000
21
0.000000
31
0.0
0
LINE
8
MCD_Layer_0
10
0.000777
20
0.000000
30
0.0
11
0.000000
21
0.000000
31
0.0
0
LINE
8
MCD_Layer_0
10
0.000000
20
0.000777
30
0.0
11
0.000000
21
0.000000
31
0.0
0
LINE
8
MCD_Layer_0
10
0.000777
20
0.000000
30
0.0
11
0.000000
21
0.000000
31
0.0
0
LINE
8
MCD_Layer_0
10
0.000000
20
0.000777
30
0.0
11
0.000000
21
0.000000
31
0.0
0
LINE
8
MCD_Layer_0
10
0.000777
20
0.000000
30
0.0
11
0.000000
21
0.000000
31
0.0
0
LINE
8
MCD_Layer_0
10
0.000000
20
0.007813
30
0.0
11
0.000000
21
0.000000
31
0.0
0
LINE
8
MCD_Layer_0
10
0.007813
20
0.007813
30
0.0
11
0.000000
21
0.000000
31
0.0
0
LINE
8
MCD_Layer_0
10
0.007813
20
0.004606
30
0.0
11
0.000000
21
0.000000
31
0.0
0
LINE
8
MCD_Layer_0
10
0.000506
20
0.000000
30
0.0
11
0.000000
21
0.000000
31
0.0
0
LINE
8
MCD_Layer_0
10
0.000000
20
0.000506
30
0.0
11
0.000000
21
0.000000
31
0.0
0
LINE
8
MCD_Layer_0
10
0.000506
20
0.000000
30
0.0
11
0.000000
21
0.000000
31
0.0
0
LINE
8
MCD_Layer_0
10
0.000000
20
0.007813
30
0.0
11
0.000000
21
0.000000
31
0.0
0
LINE
8
MCD_Layer_0
10
0.007813
20
0.007813
30
0.0
11
0.000000
21
0.000000
31
0.0
0
LINE
8
MCD_Layer_0
10
0.000000
20
0.000001
30
0.0
11
0.000000
21
0.000000
31
0.0
0
LINE
8
MCD_Layer_0
10
0.000017
20
0.002266
30
0.0
11
0.000000
21
0.000000
31
0.0
0
LINE
8
MCD_Layer_0
10
0.002266
20
0.002266
30
0.0
11
0.000000
21
0.000000
31
0.0
0
LINE
8
MCD_Layer_0
10
0.000000
20
0.000476
30
0.0
11
0.000000
21
0.000000
31
0.0
0
LINE
8
MCD_Layer_0
10
0.000476
20
0.000000
30
0.0
11
0.000000
21
0.000000
31
0.0
0
LINE
8
MCD_Layer_0
10
0.000000
20
0.000000
30
0.0
11
0.000000
21
0.000000
31
0.0
0
LINE
8
MCD_Layer_0
10
0.000000
20
0.000000
30
0.0
11
0.000000
21
0.000000
31
0.0
0
LINE
8
MCD_Layer_0
10
0.000000
20
0.000000
30
0.0
11
0.000000
21
0.000000
31
0.0
0
LINE
8
MCD_Layer_0
10
0.000000
20
0.000478
30
0.0
11
0.000000
21
0.000000
31
0.0
0
LINE
8
MCD_Layer_0
10
0.000478
20
0.000000
30
0.0
11
0.000000
21
0.000000
31
0.0
0
LINE
8
MCD_Layer_0
10
0.000000
20
0.007813
30
0.0
11
0.000000
21
0.000000
31
0.0
0
LINE
8
MCD_Layer_0
10
0.007813
20
0.007813
30
0.0
11
0.000000
21
0.000000
31
0.0
0
LINE
8
MCD_Layer_0
10
0.000000
20
0.000001
30
0.0
11
0.000000
21
0.000000
31
0.0
0
LINE
8
MCD_Layer_0
10
0.002266
20
0.002266
30
0.0
11
0.000000
21
0.000000
31
0.0
0
LINE
8
MCD_Layer_0
10
0.002266
20
0.000017
30
0.0
11
0.000000
21
0.000000
31
0.0
0
LINE
8
MCD_Layer_0
10
0.000000
20
0.000000
30
0.0
11
0.000000
21
0.000000
31
0.0
0
LINE
8
MCD_Layer_0
10
0.000003
20
0.000143
30
0.0
11
0.000000
21
0.000000
31
0.0
0
LINE
8
MCD_Layer_0
10
0.003506
20
0.001442
30
0.0
11
0.000000
21
0.000000
31
0.0
0
LINE
8
MCD_Layer_0
10
0.000347
20
0.000018
30
0.0
11
0.000000
21
0.000000
31
0.0
0
LINE
8
MCD_Layer_0
10
0.000000
20
0.002266
30
0.0
11
0.000000
21
0.000000
31
0.0
0
LINE
8
MCD_Layer_0
10
0.002266
20
0.002266
30
0.0
11
0.000000
21
0.000000
31
0.0
0
LINE
8
MCD_Layer_0
10
0.002266
20
0.007813
30
0.0
11
0.000000
21
0.000000
31
0.0
0
LINE
8
MCD_Layer_0
10
0.007813
20
0.007813
30
0.0
11
0.000000
21
0.000000
31
0.0
0
LINE
8
MCD_Layer_0
10
0.007813
20
0.002266
30
0.0
11
0.000000
21
0.000000
31
0.0
0
LINE
8
MCD_Layer_0
10
0.002266
20
0.002266
30
0.0
11
0.000000
21
0.000000
31
0.0
0
LINE
8
MCD_Layer_0
10
0.002266
20
0.000000
30
0.0
11
0.000000
21
0.000000
31
0.0
0
LINE
8
MCD_Layer_0
10
0.000000
20
0.007815
30
0.0
11
0.000000
21
0.000000
31
0.0
0
LINE
8
MCD_Layer_0
10
0.007815
20
0.000000
30
0.0
11
0.000000
21
0.000000
31
0.0
0
LINE
8
MCD_Layer_0
10
0.000000
20
0.007815
30
0.0
11
0.000000
21
0.000000
31
0.0
0
LINE
8
MCD_Layer_0
10
0.007815
20
0.007815
30
0.0
11
0.000000
21
0.000000
31
0.0
0
LINE
8
MCD_Layer_0
10
0.007815
20
0.007815
30
0.0
11
0.000000
21
0.000000
31
0.0
0
LINE
8
MCD_Layer_0
10
0.007815
20
0.000000
30
0.0
11
0.000000
21
0.000000
31
0.0
0
LINE
8
MCD_Layer_0
10
-0.000000
20
0.007817
30
0.0
11
0.000000
21
0.000000
31
0.0
0
LINE
8
MCD_Layer_0
10
0.007817
20
0.007817
30
0.0
11
0.000000
21
0.000000
31
0.0
0
LINE
8
MCD_Layer_0
10
0.000000
20
0.007817
30
0.0
11
0.000000
21
0.000000
31
0.0
0
LINE
8
MCD_Layer_0
10
0.007813
20
0.000000
30
0.0
11
0.000000
21
0.000000
31
0.0
0
LINE
8
MCD_Layer_0
10
0.000000
20
0.007813
30
0.0
11
0.000000
21
0.000000
31
0.0
0
LINE
8
MCD_Layer_0
10
0.007813
20
0.000000
30
0.0
11
0.000000
21
0.000000
31
0.0
0
LINE
8
MCD_Layer_0
10
0.000000
20
0.007813
30
0.0
11
0.000000
21
0.000000
31
0.0
0
LINE
8
MCD_Layer_0
10
0.007813
20
0.000000
30
0.0
11
0.000000
21
0.000000
31
0.0
0
LINE
8
MCD_Layer_0
10
0.000000
20
0.007813
30
0.0
11
0.000000
21
0.000000
31
0.0
0
LINE
8
MCD_Layer_0
10
0.007813
20
0.007813
30
0.0
11
0.000000
21
0.000000
31
0.0
0
LINE
8
MCD_Layer_0
10
0.007813
20
0.007813
30
0.0
11
0.000000
21
0.000000
31
0.0
0
LINE
8
MCD_Layer_0
10
0.007813
20
0.007813
30
0.0
11
0.000000
21
0.000000
31
0.0
0
LINE
8
MCD_Layer_0
10
0.007813
20
0.007813
30
0.0
11
0.000000
21
0.000000
31
0.0
0
LINE
8
MCD_Layer_0
10
0.007813
20
0.007813
30
0.0
11
0.000000
21
0.000000
31
0.0
0
LINE
8
MCD_Layer_0
10
0.007813
20
0.007813
30
0.0
11
0.000000
21
0.000000
31
0.0
0
LINE
8
MCD_Layer_0
10
0.002266
20
0.002266
30
0.0
11
0.000000
21
0.000000
31
0.0
0
LINE
8
MCD_Layer_0
10
0.002266
20
0.007813
30
0.0
11
0.000000
21
0.000000
31
0.0
0
LINE
8
MCD_Layer_0
10
0.007813
20
0.007813
30
0.0
11
0.000000
21
0.000000
31
0.0
0
LINE
8
MCD_Layer_0
10
0.007813
20
0.003606
30
0.0
11
0.000000
21
0.000000
31
0.0
0
LINE
8
MCD_Layer_0
10
0.000000
20
0.007812
30
0.0
11
0.000000
21
0.000000
31
0.0
0
LINE
8
MCD_Layer_0
10
0.007812
20
0.007812
30
0.0
11
0.000000
21
0.000000
31
0.0
0
LINE
8
MCD_Layer_0
10
0.007812
20
0.000000
30
0.0
11
0.000000
21
0.000000
31
0.0
0
LINE
8
MCD_Layer_0
10
0.000912
20
0.002062
30
0.0
11
0.000000
21
0.000000
31
0.0
0
LINE
8
MCD_Layer_0
10
0.000000
20
0.000000
30
0.0
11
0.000000
21
0.000000
31
0.0
0
LINE
8
MCD_Layer_0
10
0.000006
20
0.000037
30
0.0
11
0.000000
21
0.000000
31
0.0
0
LINE
8
MCD_Layer_0
10
0.000037
20
0.000269
30
0.0
11
0.000000
21
0.000000
31
0.0
0
LINE
8
MCD_Layer_0
10
0.001856
20
0.000949
30
0.0
11
0.000000
21
0.000000
31
0.0
0
LINE
8
MCD_Layer_0
10
0.000949
20
0.002638
30
0.0
11
0.000000
21
0.000000
31
0.0
0
LINE
8
MCD_Layer_0
10
0.000053
20
0.000103
30
0.0
11
0.000000
21
0.000000
31
0.0
0
LINE
8
MCD_Layer_0
10
0.000000
20
0.000000
30
0.0
11
0.000000
21
0.000000
31
0.0
0
LINE
8
MCD_Layer_0
10
0.000000
20
0.000000
30
0.0
11
0.000000
21
0.000000
31
0.0
0
LINE
8
MCD_Layer_0
10
0.000000
20
0.000001
30
0.0
11
0.000000
21
0.000000
31
0.0
0
LINE
8
MCD_Layer_0
10
0.000000
20
0.000000
30
0.0
11
0.000000
21
0.000000
31
0.0
0
LINE
8
MCD_Layer_0
10
0.000000
20
0.000000
30
0.0
11
0.000000
21
0.000000
31
0.0
0
LINE
8
MCD_Layer_0
10
0.000000
20
0.000001
30
0.0
11
0.000000
21
0.000000
31
0.0
0
LINE
8
MCD_Layer_0
10
0.000001
20
0.000001
30
0.0
11
0.000000
21
0.000000
31
0.0
0
LINE
8
MCD_Layer_0
10
0.000001
20
0.000171
30
0.0
11
0.000000
21
0.000000
31
0.0
0
LINE
8
MCD_Layer_0
10
0.000057
20
0.000001
30
0.0
11
0.000000
21
0.000000
31
0.0
0
LINE
8
MCD_Layer_0
10
0.000001
20
0.000001
30
0.0
11
0.000000
21
0.000000
31
0.0
0
LINE
8
MCD_Layer_0
10
0.000000
20
0.000000
30
0.0
11
0.000000
21
0.000000
31
0.0
0
LINE
8
MCD_Layer_0
10
0.000034
20
0.000099
30
0.0
11
0.000000
21
0.000000
31
0.0
0
LINE
8
MCD_Layer_0
10
0.000099
20
0.007813
30
0.0
11
0.000000
21
0.000000
31
0.0
0
LINE
8
MCD_Layer_0
10
0.007813
20
0.007813
30
0.0
11
0.000000
21
0.000000
31
0.0
0
LINE
8
MCD_Layer_0
10
0.007813
20
0.002266
30
0.0
11
0.000000
21
0.000000
31
0.0
0
LINE
8
MCD_Layer_0
10
0.002266
20
0.002266
30
0.0
11
0.000000
21
0.000000
31
0.0
0
LINE
8
MCD_Layer_0
10
0.002266
20
0.000196
30
0.0
11
0.000000
21
0.000000
31
0.0
0
LINE
8
MCD_Layer_0
10
0.002687
20
0.008144
30
0.0
11
0.000000
21
0.000000
31
0.0
0
LINE
8
MCD_Layer_0
10
0.000120
20
0.000026
30
0.0
11
0.000000
21
-0.000000
31
0.0
0
LINE
8
MCD_Layer_0
10
0.002266
20
0.002266
30
0.0
11
0.000000
21
0.000000
31
0.0
0
LINE
8
MCD_Layer_0
10
0.002266
20
0.007812
30
0.0
11
0.000000
21
0.000000
31
0.0
0
LINE
8
MCD_Layer_0
10
0.007812
20
0.007812
30
0.0
11
0.000000
21
0.000000
31
0.0
0
LINE
8
MCD_Layer_0
10
0.000042
20
0.000003
30
0.0
11
0.000000
21
0.000000
31
0.0
0
LINE
8
MCD_Layer_0
10
0.003384
20
0.001491
30
0.0
11
0.000000
21
0.000000
31
0.0
0
LINE
8
MCD_Layer_0
10
0.000147
20
0.000036
30
0.0
11
0.000000
21
0.000000
31
0.0
0
LINE
8
MCD_Layer_0
10
0.000001
20
0.000001
30
0.0
11
0.000000
21
0.000000
31
0.0
0
LINE
8
MCD_Layer_0
10
0.000000
20
0.000000
30
0.0
11
0.000000
21
0.000000
31
0.0
0
LINE
8
MCD_Layer_0
10
0.000009
20
0.000009
30
0.0
11
0.000000
21
0.000000
31
0.0
0
LINE
8
MCD_Layer_0
10
0.000009
20
0.000009
30
0.0
11
0.000000
21
0.000000
31
0.0
0
LINE
8
MCD_Layer_0
10
0.000018
20
0.000014
30
0.0
11
0.000000
21
0.000000
31
0.0
0
LINE
8
MCD_Layer_0
10
0.000009
20
0.000059
30
0.0
11
0.000000
21
0.000000
31
0.0
0
LINE
8
MCD_Layer_0
10
0.000059
20
0.000059
30
0.0
11
0.000000
21
0.000000
31
0.0
0
LINE
8
MCD_Layer_0
10
0.000059
20
0.000009
30
0.0
11
0.000000
21
0.000000
31
0.0
0
LINE
8
MCD_Layer_0
10
0.000009
20
0.000009
30
0.0
11
0.000000
21
-0.000000
31
0.0
0
LINE
8
MCD_Layer_0
10
0.007813
20
0.007813
30
0.0
11
0.000000
21
0.000000
31
0.0
0
LINE
8
MCD_Layer_0
10
0.007813
20
0.002266
30
0.0
11
0.000000
21
0.000000
31
0.0
0
LINE
8
MCD_Layer_0
10
0.002266
20
0.002266
30
0.0
11
0.000000
21
0.000000
31
0.0
0
LINE
8
MCD_Layer_0
10
0.002266
20
0.000114
30
0.0
11
0.000000
21
0.000000
31
0.0
0
LINE
8
MCD_Layer_0
10
0.000114
20
0.000114
30
0.0
11
0.000000
21
0.000000
31
0.0
0
LINE
8
MCD_Layer_0
10
0.000114
20
0.000031
30
0.0
11
0.000000
21
0.000000
31
0.0
0
LINE
8
MCD_Layer_0
10
0.000031
20
0.000031
30
0.0
11
0.000000
21
0.000000
31
0.0
0
LINE
8
MCD_Layer_0
10
0.000031
20
0.000000
30
0.0
11
0.000000
21
0.000000
31
0.0
0
LINE
8
MCD_Layer_0
10
0.000000
20
0.000476
30
0.0
11
0.000000
21
0.000000
31
0.0
0
LINE
8
MCD_Layer_0
10
0.000476
20
0.000000
30
0.0
11
0.000000
21
0.000000
31
0.0
0
LINE
8
MCD_Layer_0
10
0.000000
20
0.000478
30
0.0
11
0.000000
21
0.000000
31
0.0
0
LINE
8
MCD_Layer_0
10
0.000478
20
0.000000
30
0.0
11
0.000000
21
0.000000
31
0.0
0
ARC
8
MCD_Layer_0
10
0.003006
20
0.000318
40
0.003023
50
186.036945
51
144.316996
0
ARC
8
MCD_Layer_0
10
0.003250
20
0.004208
40
0.005317
50
232.316642
51
58.693699
0
ARC
8
MCD_Layer_0
10
0.000275
20
0.009606
40
0.009610
50
268.357827
51
310.370388
0
ARC
8
MCD_Layer_0
10
0.000978
20
0.000241
40
0.001007
50
193.855091
51
116.978223
0
ARC
8
MCD_Layer_0
10
0.001048
20
0.001317
40
0.001683
50
231.474415
51
57.362938
0
ARC
8
MCD_Layer_0
10
0.000261
20
0.001979
40
0.001996
50
262.498990
51
336.935157
0
ARC
8
MCD_Layer_0
10
0.000921
20
0.007038
40
0.007098
50
262.543869
51
346.138840
0
ARC
8
MCD_Layer_0
10
0.000013
20
0.000000
40
0.000013
50
180.000000
51
39.730709
0
ARC
8
MCD_Layer_0
10
0.000000
20
0.000000
40
0.000000
50
180.000000
51
1.458579
0
ARC
8
MCD_Layer_0
10
0.000000
20
0.000000
40
0.000000
50
180.000000
51
176.129123
0
ARC
8
MCD_Layer_0
10
0.000004
20
0.000000
40
0.000004
50
180.000000
51
174.208870
0
ARC
8
MCD_Layer_0
10
0.000003
20
0.000000
40
0.000003
50
180.000000
51
21.206296
0
ARC
8
MCD_Layer_0
10
-0.229228
20
-0.126690
40
0.262100
50
330.995602
51
28.947992
0
ARC
8
MCD_Layer_0
10
0.001133
20
0.000519
40
0.001246
50
204.603298
51
98.801214
0
ARC
8
MCD_Layer_0
10
0.000000
20
0.000000
40
0.000000
50
180.000000
51
175.523916
0
ARC
8
MCD_Layer_0
10
83.982640
20
535.795779
40
542.337480
50
261.091727
51
98.908277
0
ARC
8
MCD_Layer_0
10
0.003926
20
0.002587
40
0.004702
50
213.385362
51
67.969723
0
ARC
8
MCD_Layer_0
10
0.004067
20
0.004314
40
0.005929
50
226.691458
51
50.320110
0
ARC
8
MCD_Layer_0
10
0.001618
20
0.006318
40
0.006522
50
255.636413
51
357.614783
0
ARC
8
MCD_Layer_0
10
0.001226
20
0.001443
40
0.001893
50
229.661498
51
45.959607
0
ARC
8
MCD_Layer_0
10
0.000952
20
0.001407
40
0.001698
50
235.913521
51
28.015732
0
ARC
8
MCD_Layer_0
10
0.000000
20
0.000000
40
0.000000
50
180.000000
51
2.062663
0
ARC
8
MCD_Layer_0
10
0.000000
20
0.000000
40
0.000000
50
180.000000
51
168.509765
0
ARC
8
MCD_Layer_0
10
0.000000
20
0.000000
40
0.000000
50
180.000000
51
9.877346
0
ARC
8
MCD_Layer_0
10
0.000000
20
0.000000
40
0.000000
50
180.000000
51
3.521698
0
ARC
8
MCD_Layer_0
10
0.000000
20
0.000000
40
0.000000
50
180.000000
51
175.732302
0
ARC
8
MCD_Layer_0
10
0.000001
20
0.000000
40
0.000001
50
180.000000
51
166.029071
0
ARC
8
MCD_Layer_0
10
0.000033
20
0.000000
40
0.000033
50
180.000000
51
171.032202
0
ARC
8
MCD_Layer_0
10
0.000374
20
0.000070
40
0.000381
50
190.652561
51
117.095755
0
ARC
8
MCD_Layer_0
10
0.001133
20
0.000818
40
0.001397
50
215.839236
51
62.929835
0
ARC
8
MCD_Layer_0
10
0.000000
20
0.000000
40
0.000000
50
180.000000
51
175.523564
0
ARC
8
MCD_Layer_0
10
0.000013
20
0.000749
40
0.000749
50
269.015549
51
301.850335
0
ARC
8
MCD_Layer_0
10
0.000000
20
0.000000
40
0.000000
50
180.000000
51
2.442063
0
ARC
8
MCD_Layer_0
10
0.000000
20
0.000000
40
0.000000
50
180.000000
51
173.775269
0
ARC
8
MCD_Layer_0
10
0.000168
20
0.000041
40
0.000173
50
193.651928
51
97.905779
0
ARC
8
MCD_Layer_0
10
0.000887
20
0.000085
40
0.000891
50
185.443705
51
128.131228
0
ARC
8
MCD_Layer_0
10
0.003906
20
0.000403
40
0.003927
50
185.886545
51
122.895929
0
ARC
8
MCD_Layer_0
10
0.000600
20
0.009848
40
0.009866
50
266.513522
51
316.971068
0
ARC
8
MCD_Layer_0
10
0.000027
20
0.000132
40
0.000135
50
258.342099
51
342.447799
0
ARC
8
MCD_Layer_0
10
0.000003
20
0.000000
40
0.000003
50
180.000000
51
18.377245
0
ARC
8
MCD_Layer_0
10
0.000001
20
0.000000
40
0.000001
50
180.000000
51
176.718643
0
ARC
8
MCD_Layer_0
10
0.000022
20
0.000000
40
0.000022
50
180.000000
51
168.377424
0
ARC
8
MCD_Layer_0
10
0.000007
20
0.000000
40
0.000007
50
180.000000
51
37.684762
0
ARC
8
MCD_Layer_0
10
0.000389
20
0.007657
40
0.007667
50
267.094226
51
330.226789
0
ARC
8
MCD_Layer_0
10
0.000389
20
0.001943
40
0.001981
50
258.685223
51
354.151381
0
ARC
8
MCD_Layer_0
10
0.000389
20
0.001942
40
0.001981
50
258.685221
51
354.151389
0
ARC
8
MCD_Layer_0
10
0.003906
20
0.002097
40
0.004434
50
208.228162
51
80.916501
0
ARC
8
MCD_Layer_0
10
0.003906
20
0.004375
40
0.005865
50
228.239586
51
48.239537
0
ARC
8
MCD_Layer_0
10
0.000253
20
0.003236
40
0.003245
50
265.526767
51
322.871025
0
ARC
8
MCD_Layer_0
10
0.000673
20
0.001649
40
0.001781
50
247.811297
51
6.978609
0
ARC
8
MCD_Layer_0
10
0.000253
20
0.001091
40
0.001120
50
256.941069
51
347.152829
0
ARC
8
MCD_Layer_0
10
0.001202
20
0.006626
40
0.006734
50
259.721726
51
349.022354
0
ARC
8
MCD_Layer_0
10
0.000001
20
0.000000
40
0.000001
50
180.000000
51
70.875496
0
ARC
8
MCD_Layer_0
10
0.000510
20
0.001680
40
0.001756
50
253.109879
51
1.310577
0
ARC
8
MCD_Layer_0
10
0.000096
20
0.001177
40
0.001180
50
265.330686
51
321.531345
0
ARC
8
MCD_Layer_0
10
0.000000
20
0.000000
40
0.000000
50
180.000000
51
178.209823
0
ARC
8
MCD_Layer_0
10
0.001354
20
0.000155
40
0.001363
50
186.531935
51
130.086012
0
ARC
8
MCD_Layer_0
10
0.003620
20
0.001133
40
0.003793
50
197.381964
51
103.919101
0
ARC
8
MCD_Layer_0
10
0.003620
20
0.004976
40
0.006154
50
233.966423
51
33.482780
0
ARC
8
MCD_Layer_0
10
0.001354
20
0.005815
40
0.005971
50
256.894807
51
350.357660
0
ARC
8
MCD_Layer_0
10
0.000238
20
0.003121
40
0.003130
50
265.636312
51
322.082234
0
ARC
8
MCD_Layer_0
10
0.000000
20
0.000000
40
0.000000
50
180.000000
51
6.272316
0
ARC
8
MCD_Layer_0
10
0.000000
20
0.000000
40
0.000000
50
180.000000
51
112.549348
0
ARC
8
MCD_Layer_0
10
0.000000
20
0.000000
40
0.000000
50
180.000000
51
104.700859
0
ARC
8
MCD_Layer_0
10
0.000000
20
0.000000
40
0.000000
50
180.000000
51
88.068424
0
ARC
8
MCD_Layer_0
10
0.000000
20
0.000000
40
0.000000
50
180.000000
51
155.872867
0
ARC
8
MCD_Layer_0
10
0.000000
20
0.000000
40
0.000000
50
180.000000
51
8.567344
0
ARC
8
MCD_Layer_0
10
0.000000
20
0.000000
40
0.000000
50
180.000000
51
149.035525
0
ARC
8
MCD_Layer_0
10
0.001202
20
0.006626
40
0.006734
50
259.721726
51
349.022354
0
ARC
8
MCD_Layer_0
10
0.000006
20
0.000000
40
0.000006
50
180.000000
51
35.226943
0
ARC
8
MCD_Layer_0
10
0.000001
20
0.000000
40
0.000001
50
180.000000
51
21.125679
0
ARC
8
MCD_Layer_0
10
0.000000
20
0.000000
40
0.000000
50
180.000000
51
9.665442
0
ARC
8
MCD_Layer_0
10
0.000096
20
0.000014
40
0.000097
50
188.440405
51
112.052589
0
ARC
8
MCD_Layer_0
10
0.000510
20
0.000041
40
0.000512
50
184.609203
51
128.408545
0
ARC
8
MCD_Layer_0
10
0.001133
20
0.000491
40
0.001235
50
203.428462
51
95.227763
0
ARC
8
MCD_Layer_0
10
0.000000
20
0.000000
40
0.000000
50
180.000000
51
22.201964
0
ARC
8
MCD_Layer_0
10
0.000000
20
0.000000
40
0.000000
50
180.000000
51
177.113997
0
ARC
8
MCD_Layer_0
10
0.000003
20
0.000000
40
0.000003
50
180.000000
51
162.976425
0
ARC
8
MCD_Layer_0
10
0.001753
20
0.008309
40
0.008492
50
258.085367
51
359.140112
0
ARC
8
MCD_Layer_0
10
0.001741
20
0.000972
40
0.001994
50
209.189956
51
98.608035
0
ARC
8
MCD_Layer_0
10
0.000481
20
0.002977
40
0.003016
50
260.825546
51
354.187441
0
ARC
8
MCD_Layer_0
10
0.000000
20
0.000000
40
0.000000
50
180.000000
51
6.999451
0
ARC
8
MCD_Layer_0
10
0.000000
20
0.000000
40
0.000000
50
180.000000
51
179.820576
0
ARC
8
MCD_Layer_0
10
0.000000
20
0.000000
40
0.000000
50
180.000000
51
178.294282
0
ARC
8
MCD_Layer_0
10
0.000000
20
0.000000
40
0.000000
50
180.000000
51
166.617280
0
ARC
8
MCD_Layer_0
10
0.000000
20
0.000000
40
0.000000
50
180.000000
51
171.330212
0
ARC
8
MCD_Layer_0
10
0.000000
20
0.000000
40
0.000000
50
180.000000
51
178.778057
0
ARC
8
MCD_Layer_0
10
0.000675
20
-0.000033
40
0.000676
50
177.212580
51
164.799835
0
ARC
8
MCD_Layer_0
10
0.003908
20
0.000330
40
0.003922
50
184.819386
51
130.722921
0
ARC
8
MCD_Layer_0
10
0.000718
20
0.009053
40
0.009081
50
265.467046
51
321.419137
0
ARC
8
MCD_Layer_0
10
0.000001
20
0.000000
40
0.000001
50
180.000000
51
6.465689
0
ARC
8
MCD_Layer_0
10
0.000000
20
0.000000
40
0.000000
50
180.000000
51
8.541352
0
ARC
8
MCD_Layer_0
10
0.000000
20
0.000000
40
0.000000
50
180.000000
51
179.994779
0
ARC
8
MCD_Layer_0
10
0.000000
20
0.000000
40
0.000000
50
180.000000
51
177.942718
0
ARC
8
MCD_Layer_0
10
0.000000
20
0.000000
40
0.000000
50
180.000000
51
177.942718
0
ARC
8
MCD_Layer_0
10
0.003906
20
-0.000136
40
0.003909
50
177.998896
51
170.430854
0
ARC
8
MCD_Layer_0
10
0.000055
20
0.038565
40
0.038565
50
269.918608
51
281.604643
0
ARC
8
MCD_Layer_0
10
0.003906
20
-0.000141
40
0.003909
50
177.929722
51
166.243685
0
ARC
8
MCD_Layer_0
10
0.000000
20
0.000000
40
0.000000
50
180.000000
51
170.696199
0
ARC
8
MCD_Layer_0
10
0.000000
20
0.000000
40
0.000000
50
180.000000
51
166.786928
0
ARC
8
MCD_Layer_0
10
0.000000
20
0.000000
40
0.000000
50
180.000000
51
153.067737
0
ARC
8
MCD_Layer_0
10
0.000057
20
0.000000
40
0.000057
50
180.000000
51
164.679331
0
ARC
8
MCD_Layer_0
10
0.000188
20
0.000001
40
0.000188
50
180.301294
51
134.284775
0
ARC
8
MCD_Layer_0
10
0.003907
20
0.000632
40
0.003957
50
189.183126
51
114.742483
0
ARC
8
MCD_Layer_0
10
0.001052
20
0.007527
40
0.007600
50
262.045665
51
332.833592
0
ARC
8
MCD_Layer_0
10
0.000123
20
0.003730
40
0.003732
50
268.104254
51
302.041805
0
ARC
8
MCD_Layer_0
10
0.000021
20
0.000292
40
0.000293
50
265.796427
51
320.351792
0
ARC
8
MCD_Layer_0
10
0.000001
20
0.000000
40
0.000001
50
180.000000
51
5.346218
0
ARC
8
MCD_Layer_0
10
0.000000
20
0.000000
40
0.000000
50
180.000000
51
1.659392
0
ARC
8
MCD_Layer_0
10
0.001083
20
0.007390
40
0.007469
50
261.663685
51
334.294092
0
ARC
8
MCD_Layer_0
10
0.000054
20
0.000517
40
0.000520
50
264.069712
51
324.874932
0
ARC
8
MCD_Layer_0
10
0.000002
20
0.000000
40
0.000002
50
180.000000
51
17.592978
0
ARC
8
MCD_Layer_0
10
0.000056
20
0.000000
40
0.000056
50
180.000000
51
170.743073
0
ARC
8
MCD_Layer_0
10
0.001102
20
-0.000128
40
0.001109
50
173.369993
51
134.475496
0
ARC
8
MCD_Layer_0
10
0.003907
20
0.000592
40
0.003951
50
188.612552
51
115.534753
0
ARC
8
MCD_Layer_0
10
0.000000
20
0.000000
40
0.000000
50
180.000000
51
174.752989
0
ARC
8
MCD_Layer_0
10
0.000077
20
0.000008
40
0.000078
50
185.992086
51
111.103127
0
ARC
8
MCD_Layer_0
10
0.000234
20
0.000027
40
0.000236
50
186.536854
51
109.776224
0
ARC
8
MCD_Layer_0
10
0.001133
20
0.000079
40
0.001136
50
184.007945
51
125.835385
0
ARC
8
MCD_Layer_0
10
0.000040
20
0.000340
40
0.000342
50
263.224176
51
326.620926
0
ARC
8
MCD_Layer_0
10
0.000012
20
0.000000
40
0.000012
50
180.000000
51
27.408209
0
ARC
8
MCD_Layer_0
10
0.000003
20
0.000000
40
0.000003
50
180.000000
51
35.384289
0
ARC
8
MCD_Layer_0
10
0.000000
20
0.000000
40
0.000000
50
180.000000
51
14.172977
0
ARC
8
MCD_Layer_0
10
0.000000
20
0.000000
40
0.000000
50
180.000000
51
179.214928
0
ARC
8
MCD_Layer_0
10
0.000000
20
0.000000
40
0.000000
50
180.000000
51
173.883763
0
ARC
8
MCD_Layer_0
10
0.000002
20
0.000000
40
0.000002
50
180.000000
51
166.170911
0
ARC
8
MCD_Layer_0
10
0.000031
20
0.000000
40
0.000031
50
180.000000
51
163.594510
0
ARC
8
MCD_Layer_0
10
-0.139194
20
-0.193279
40
0.238250
50
305.748961
51
54.241994
0
ARC
8
MCD_Layer_0
10
0.000238
20
0.000019
40
0.000247
50
195.478146
51
120.288422
0
ARC
8
MCD_Layer_0
10
0.002935
20
0.000449
40
0.002969
50
188.702675
51
117.151729
0
ARC
8
MCD_Layer_0
10
0.002935
20
0.005585
40
0.006309
50
242.282252
51
22.812889
0
ARC
8
MCD_Layer_0
10
0.000086
20
0.001613
40
0.001662
50
267.034526
51
334.012573
0
ARC
8
MCD_Layer_0
10
0.118890
20
-0.189449
40
0.223604
50
121.973961
51
237.879599
0
ARC
8
MCD_Layer_0
10
0.000015
20
0.000109
40
0.000110
50
262.004377
51
333.544975
0
ARC
8
MCD_Layer_0
10
0.000002
20
0.000000
40
0.000002
50
180.000000
51
16.405491
0
ARC
8
MCD_Layer_0
10
0.000000
20
0.000000
40
0.000000
50
180.000000
51
13.829089
0
ARC
8
MCD_Layer_0
10
0.000000
20
0.000000
40
0.000000
50
180.000000
51
6.116239
0
ARC
8
MCD_Layer_0
10
0.000000
20
0.000000
40
0.000000
50
180.000000
51
168.581456
0
ARC
8
MCD_Layer_0
10
0.000000
20
0.000000
40
0.000000
50
180.000000
51
160.937496
0
ARC
8
MCD_Layer_0
10
0.000004
20
0.000000
40
0.000004
50
180.000000
51
162.563786
0
ARC
8
MCD_Layer_0
10
0.000031
20
0.000000
40
0.000031
50
180.000000
51
158.083248
0
ARC
8
MCD_Layer_0
10
0.000048
20
0.000009
40
0.000049
50
190.694907
51
110.889450
0
ARC
8
MCD_Layer_0
10
0.000950
20
0.000339
40
0.001009
50
199.632680
51
94.931747
0
ARC
8
MCD_Layer_0
10
0.000950
20
0.001712
40
0.001958
50
240.978798
51
24.321430
0
ARC
8
MCD_Layer_0
10
0.000048
20
0.000323
40
0.000327
50
261.572786
51
333.741015
0
ARC
8
MCD_Layer_0
10
0.000015
20
0.000085
40
0.000086
50
259.772752
51
339.578211
0
ARC
8
MCD_Layer_0
10
0.000004
20
0.000000
40
0.000004
50
180.000000
51
21.916748
0
ARC
8
MCD_Layer_0
10
0.000000
20
0.000000
40
0.000000
50
180.000000
51
17.436217
0
ARC
8
MCD_Layer_0
10
0.000000
20
0.000000
40
0.000000
50
180.000000
51
19.062503
0
ARC
8
MCD_Layer_0
10
0.000000
20
0.000000
40
0.000000
50
180.000000
51
175.300641
0
ARC
8
MCD_Layer_0
10
0.000001
20
0.000000
40
0.000001
50
180.000000
51
159.142240
0
ARC
8
MCD_Layer_0
10
0.000009
20
0.000000
40
0.000009
50
180.000000
51
159.685203
0
ARC
8
MCD_Layer_0
10
0.000031
20
0.000010
40
0.000033
50
198.710258
51
132.006609
0
ARC
8
MCD_Layer_0
10
0.000552
20
0.000108
40
0.000563
50
191.028385
51
114.350587
0
ARC
8
MCD_Layer_0
10
0.000918
20
0.000463
40
0.001028
50
206.745050
51
79.535088
0
ARC
8
MCD_Layer_0
10
0.004034
20
0.001095
40
0.004180
50
195.187604
51
118.144847
0
ARC
8
MCD_Layer_0
10
0.002581
20
0.005715
40
0.006271
50
245.693140
51
28.946064
0
ARC
8
MCD_Layer_0
10
0.000013
20
0.000000
40
0.000013
50
180.000000
51
14.298030
0
ARC
8
MCD_Layer_0
10
0.000002
20
0.000000
40
0.000002
50
180.000000
51
22.694428
0
ARC
8
MCD_Layer_0
10
0.000000
20
0.000000
40
0.000000
50
180.000000
51
24.825439
0
ARC
8
MCD_Layer_0
10
0.000000
20
0.000000
40
0.000000
50
180.000000
51
22.107375
0
ARC
8
MCD_Layer_0
10
0.000000
20
0.000000
40
0.000000
50
180.000000
51
152.406139
0
ARC
8
MCD_Layer_0
10
0.000000
20
0.000000
40
0.000000
50
180.000000
51
164.092442
0
ARC
8
MCD_Layer_0
10
0.000000
20
0.000000
40
0.000000
50
180.000000
51
148.723070
0
ARC
8
MCD_Layer_0
10
0.000000
20
0.000000
40
0.000000
50
180.000000
51
145.307453
0
ARC
8
MCD_Layer_0
10
0.000001
20
0.000000
40
0.000001
50
180.000000
51
148.075107
0
ARC
8
MCD_Layer_0
10
0.000008
20
0.000000
40
0.000008
50
180.000000
51
124.635847
0
ARC
8
MCD_Layer_0
10
0.000198
20
0.000110
40
0.000227
50
208.916121
51
71.824813
0
ARC
8
MCD_Layer_0
10
0.001324
20
0.001297
40
0.001853
50
224.417150
51
50.579500
0
ARC
8
MCD_Layer_0
10
0.000000
20
0.000000
40
0.000000
50
180.000000
51
178.038226
0
ARC
8
MCD_Layer_0
10
0.000000
20
0.000000
40
0.000000
50
180.000000
51
156.156946
0
ARC
8
MCD_Layer_0
10
0.000000
20
0.000000
40
0.000000
50
180.000000
51
167.938374
0
ARC
8
MCD_Layer_0
10
0.000002
20
0.000000
40
0.000002
50
180.000000
51
161.937265
0
ARC
8
MCD_Layer_0
10
0.000026
20
0.000012
40
0.000029
50
204.460061
51
94.114481
0
ARC
8
MCD_Layer_0
10
2.552303
20
3.030752
40
3.961868
50
229.897007
51
130.107000
0
ARC
8
MCD_Layer_0
10
0.001713
20
0.000315
40
0.001741
50
190.434770
51
127.666465
0
ARC
8
MCD_Layer_0
10
0.003910
20
0.001697
40
0.004262
50
203.466227
51
96.525881
0
ARC
8
MCD_Layer_0
10
0.004200
20
0.004099
40
0.005869
50
224.300800
51
51.928659
0
ARC
8
MCD_Layer_0
10
0.002453
20
0.005649
40
0.006159
50
246.525141
51
15.070085
0
ARC
8
MCD_Layer_0
10
0.000017
20
0.000000
40
0.000017
50
180.000000
51
165.543104
0
ARC
8
MCD_Layer_0
10
0.000071
20
0.000028
40
0.000076
50
201.657893
51
90.294312
0
ARC
8
MCD_Layer_0
10
0.000211
20
0.000061
40
0.000219
50
196.038642
51
108.523244
0
ARC
8
MCD_Layer_0
10
0.000368
20
0.000135
40
0.000392
50
200.184664
51
82.163674
0
ARC
8
MCD_Layer_0
10
0.001045
20
0.000237
40
0.001072
50
192.799957
51
106.730645
0
ARC
8
MCD_Layer_0
10
0.003906
20
0.000472
40
0.003935
50
186.887071
51
117.480448
0
ARC
8
MCD_Layer_0
10
0.000055
20
0.000106
40
0.000119
50
242.658513
51
13.091111
0
ARC
8
MCD_Layer_0
10
0.000028
20
0.000076
40
0.000081
50
249.539207
51
2.192046
0
ARC
8
MCD_Layer_0
10
-0.000610
20
-0.000330
40
0.000744
50
325.104501
51
30.300180
0
ARC
8
MCD_Layer_0
10
0.000645
20
0.000069
40
0.000649
50
186.123378
51
124.162639
0
ARC
8
MCD_Layer_0
10
0.000000
20
0.000000
40
0.000000
50
180.000000
51
171.995145
0
ARC
8
MCD_Layer_0
10
0.000000
20
0.000000
40
0.000000
50
180.000000
51
167.800495
0
ARC
8
MCD_Layer_0
10
0.000001
20
0.000000
40
0.000001
50
180.000000
51
138.023189
0
ARC
8
MCD_Layer_0
10
0.000026
20
0.000011
40
0.000029
50
203.253305
51
100.327334
0
ARC
8
MCD_Layer_0
10
0.000031
20
0.000026
40
0.000040
50
220.358857
51
56.227197
0
ARC
8
MCD_Layer_0
10
0.000017
20
0.000042
40
0.000046
50
248.187485
51
14.300209
0
ARC
8
MCD_Layer_0
10
0.000001
20
0.000000
40
0.000001
50
180.000000
51
10.402634
0
ARC
8
MCD_Layer_0
10
0.000000
20
0.000000
40
0.000000
50
180.000000
51
29.007052
0
ARC
8
MCD_Layer_0
10
-334.178248
20
-193.875931
40
386.345716
50
329.879515
51
30.120478
0
ARC
8
MCD_Layer_0
10
0.000026
20
0.000025
40
0.000037
50
223.953211
51
47.881398
0
ARC
8
MCD_Layer_0
10
0.000020
20
0.000029
40
0.000035
50
235.054000
51
31.042654
0
ARC
8
MCD_Layer_0
10
0.000015
20
0.000024
40
0.000028
50
239.006107
51
21.019114
0
ARC
8
MCD_Layer_0
10
0.000001
20
0.000000
40
0.000001
50
180.000000
51
25.258193
0
ARC
8
MCD_Layer_0
10
0.000000
20
0.000000
40
0.000000
50
180.000000
51
26.312077
0
ARC
8
MCD_Layer_0
10
0.000000
20
0.000000
40
0.000000
50
180.000000
51
12.886982
0
ARC
8
MCD_Layer_0
10
0.000000
20
0.000000
40
0.000000
50
180.000000
51
55.300401
0
ARC
8
MCD_Layer_0
10
0.000000
20
0.000000
40
0.000000
50
180.000000
51
149.614243
0
ARC
8
MCD_Layer_0
10
0.000000
20
0.000000
40
0.000000
50
180.000000
51
169.723361
0
ARC
8
MCD_Layer_0
10
0.000001
20
0.000000
40
0.000001
50
180.000000
51
161.509552
0
ARC
8
MCD_Layer_0
10
0.000003
20
0.000000
40
0.000003
50
180.000000
51
140.988862
0
ARC
8
MCD_Layer_0
10
0.000052
20
0.000009
40
0.000052
50
190.338339
51
158.247774
0
ARC
8
MCD_Layer_0
10
0.001497
20
0.000795
40
0.001695
50
207.979391
51
79.052882
0
ARC
8
MCD_Layer_0
10
0.001344
20
0.001687
40
0.002157
50
231.460559
51
35.337002
0
ARC
8
MCD_Layer_0
10
0.004687
20
0.003791
40
0.006029
50
218.967428
51
55.020203
0
ARC
8
MCD_Layer_0
10
0.004519
20
0.005007
40
0.006745
50
227.934563
51
43.944223
0
ARC
8
MCD_Layer_0
10
0.000739
20
0.005016
40
0.005070
50
261.617860
51
339.089702
0
ARC
8
MCD_Layer_0
10
-0.035479
20
0.130820
40
0.135547
50
74.826147
51
285.228435
0
ARC
8
MCD_Layer_0
10
0.000000
20
0.000000
40
0.000000
50
180.000000
51
30.361019
0
ARC
8
MCD_Layer_0
10
0.000000
20
0.000000
40
0.000000
50
180.000000
51
8.484844
0
ARC
8
MCD_Layer_0
10
0.000000
20
0.000000
40
0.000000
50
180.000000
51
177.586899
0
ARC
8
MCD_Layer_0
10
0.000001
20
0.000000
40
0.000001
50
180.000000
51
163.641593
0
ARC
8
MCD_Layer_0
10
0.000047
20
0.000005
40
0.000048
50
185.945790
51
108.844146
0
ARC
8
MCD_Layer_0
10
0.000057
20
0.000032
40
0.000066
50
209.068933
51
73.181123
0
ARC
8
MCD_Layer_0
10
0.000000
20
0.000000
40
0.000000
50
180.000000
51
174.013415
0
ARC
8
MCD_Layer_0
10
0.000008
20
0.000000
40
0.000008
50
180.000000
51
163.927851
0
ARC
8
MCD_Layer_0
10
0.000846
20
0.000329
40
0.000908
50
201.222368
51
88.618998
0
ARC
8
MCD_Layer_0
10
0.001133
20
0.000695
40
0.001329
50
211.516689
51
65.105181
0
ARC
8
MCD_Layer_0
10
0.000720
20
0.002688
40
0.002782
50
255.011647
51
351.603886
0
ARC
8
MCD_Layer_0
10
0.000002
20
0.000000
40
0.000002
50
180.000000
51
24.500661
0
ARC
8
MCD_Layer_0
10
0.000000
20
0.000000
40
0.000000
50
180.000000
51
19.859049
0
ARC
8
MCD_Layer_0
10
0.001692
20
-0.000002
40
0.001692
50
179.915655
51
139.620437
0
ARC
8
MCD_Layer_0
10
0.001692
20
0.006861
40
0.007067
50
256.144329
51
2.804226
0
ARC
8
MCD_Layer_0
10
0.000034
20
0.000515
40
0.000516
50
266.258531
51
315.776611
0
ARC
8
MCD_Layer_0
10
0.000013
20
0.000000
40
0.000013
50
180.000000
51
36.742914
0
ARC
8
MCD_Layer_0
10
0.000001
20
0.000000
40
0.000001
50
180.000000
51
13.463603
0
ARC
8
MCD_Layer_0
10
0.000001
20
0.000000
40
0.000001
50
180.000000
51
178.699878
0
ARC
8
MCD_Layer_0
10
0.000013
20
0.000000
40
0.000013
50
180.000000
51
166.536397
0
ARC
8
MCD_Layer_0
10
0.000034
20
0.000011
40
0.000036
50
198.645451
51
125.159630
0
ARC
8
MCD_Layer_0
10
0.000001
20
0.000000
40
0.000001
50
180.000000
51
25.370787
0
ARC
8
MCD_Layer_0
10
0.000000
20
0.000000
40
0.000000
50
180.000000
51
8.575732
0
ARC
8
MCD_Layer_0
10
0.000000
20
0.000000
40
0.000000
50
180.000000
51
170.070484
0
ARC
8
MCD_Layer_0
10
0.000001
20
0.000000
40
0.000001
50
180.000000
51
171.424267
0
ARC
8
MCD_Layer_0
10
0.000036
20
0.000000
40
0.000036
50
180.000000
51
164.666028
0
ARC
8
MCD_Layer_0
10
0.000000
20
0.000000
40
0.000000
50
180.000000
51
161.861032
0
ARC
8
MCD_Layer_0
10
0.000000
20
0.000000
40
0.000000
50
180.000000
51
171.709253
0
ARC
8
MCD_Layer_0
10
0.000004
20
0.000000
40
0.000004
50
180.000000
51
172.596202
0
ARC
8
MCD_Layer_0
10
0.000061
20
0.000014
40
0.000062
50
192.590771
51
155.300592
0
ARC
8
MCD_Layer_0
10
0.000359
20
0.000073
40
0.000366
50
191.564587
51
110.953619
0
ARC
8
MCD_Layer_0
10
0.000831
20
0.000231
40
0.000862
50
195.503857
51
97.548214
0
ARC
8
MCD_Layer_0
10
0.001140
20
0.001561
40
0.001933
50
233.852103
51
34.153675
0
ARC
8
MCD_Layer_0
10
0.000568
20
0.000754
40
0.000944
50
233.025819
51
31.992760
0
ARC
8
MCD_Layer_0
10
0.000222
20
0.000893
40
0.000921
50
256.020107
51
352.648410
0
ARC
8
MCD_Layer_0
10
0.000020
20
0.000060
40
0.000063
50
251.765611
51
351.296182
0
ARC
8
MCD_Layer_0
10
0.000017
20
0.000000
40
0.000017
50
180.000000
51
96.583686
0
ARC
8
MCD_Layer_0
10
0.000001
20
0.000000
40
0.000001
50
180.010770
51
38.227326
0
ARC
8
MCD_Layer_0
10
0.000001
20
0.000000
40
0.000001
50
180.000000
51
98.298679
0
ARC
8
MCD_Layer_0
10
0.000003
20
0.000000
40
0.000003
50
180.000000
51
133.381340
0
ARC
8
MCD_Layer_0
10
0.000008
20
0.000000
40
0.000008
50
180.000000
51
129.092824
0
ARC
8
MCD_Layer_0
10
0.000036
20
0.000000
40
0.000036
50
180.000000
51
147.526189
0
ARC
8
MCD_Layer_0
10
0.000099
20
0.000016
40
0.000101
50
189.352116
51
117.816310
0
ARC
8
MCD_Layer_0
10
-13.823539
20
-16.744501
40
21.713749
50
309.540693
51
50.458629
0
ARC
8
MCD_Layer_0
10
0.001264
20
0.000298
40
0.001298
50
193.274249
51
117.514199
0
ARC
8
MCD_Layer_0
10
0.001649
20
0.001126
40
0.001997
50
214.330809
51
63.936508
0
ARC
8
MCD_Layer_0
10
0.003740
20
0.001612
40
0.004072
50
203.319640
51
96.212215
0
ARC
8
MCD_Layer_0
10
0.003743
20
0.004812
40
0.006096
50
232.123608
51
34.808612
0
ARC
8
MCD_Layer_0
10
0.000161
20
0.001568
40
0.001576
50
264.141409
51
327.290531
0
ARC
8
MCD_Layer_0
10
0.000068
20
0.000250
40
0.000259
50
254.897826
51
348.666639
0
ARC
8
MCD_Layer_0
10
0.000000
20
0.000000
40
0.000000
50
180.000000
51
4.549973
0
ARC
8
MCD_Layer_0
10
0.000053
20
0.000059
40
0.000079
50
228.355682
51
45.349202
0
ARC
8
MCD_Layer_0
10
0.000028
20
0.000072
40
0.000078
50
249.083297
51
3.629235
0
ARC
8
MCD_Layer_0
10
0.000017
20
0.000035
40
0.000039
50
243.966134
51
6.641162
0
ARC
8
MCD_Layer_0
10
0.000019
20
0.000014
40
0.000024
50
216.175162
51
54.166821
0
ARC
8
MCD_Layer_0
10
0.000057
20
0.000034
40
0.000067
50
210.891933
51
78.598702
0
ARC
8
MCD_Layer_0
10
0.000056
20
0.000062
40
0.000084
50
228.178038
51
45.328084
0
ARC
8
MCD_Layer_0
10
0.000029
20
0.000077
40
0.000082
50
249.196938
51
4.623272
0
ARC
8
MCD_Layer_0
10
0.000019
20
0.000036
40
0.000040
50
242.730597
51
9.073428
0
ARC
8
MCD_Layer_0
10
0.001172
20
0.000651
40
0.001341
50
209.050447
51
71.870016
0
ARC
8
MCD_Layer_0
10
0.005297
20
0.002471
40
0.005845
50
205.012012
51
85.735455
0
ARC
8
MCD_Layer_0
10
0.003910
20
0.005922
40
0.007096
50
236.566342
51
26.670746
0
ARC
8
MCD_Layer_0
10
0.002628
20
0.000732
40
0.002728
50
195.556131
51
101.027223
0
ARC
8
MCD_Layer_0
10
0.005060
20
0.002280
40
0.005549
50
204.253921
51
87.963867
0
ARC
8
MCD_Layer_0
10
0.004888
20
0.005570
40
0.007411
50
228.734463
51
45.095005
0
ARC
8
MCD_Layer_0
10
0.003672
20
0.005693
40
0.006774
50
237.175089
51
25.713852
0
ARC
8
MCD_Layer_0
10
0.000735
20
0.001300
40
0.001493
50
240.500160
51
15.315033
0
ARC
8
MCD_Layer_0
10
0.002628
20
0.000732
40
0.002728
50
195.556136
51
101.027227
0
ARC
8
MCD_Layer_0
10
0.005060
20
0.002280
40
0.005549
50
204.253915
51
87.963866
0
ARC
8
MCD_Layer_0
10
0.004888
20
0.005570
40
0.007411
50
228.734464
51
45.095006
0
ARC
8
MCD_Layer_0
10
0.003672
20
0.005693
40
0.006774
50
237.175082
51
25.713856
0
ARC
8
MCD_Layer_0
10
0.002628
20
0.000732
40
0.002728
50
195.556136
51
101.027226
0
ARC
8
MCD_Layer_0
10
0.005060
20
0.002280
40
0.005549
50
204.253915
51
87.963866
0
ARC
8
MCD_Layer_0
10
0.004888
20
0.005570
40
0.007411
50
228.734464
51
45.095005
0
ARC
8
MCD_Layer_0
10
0.003672
20
0.005693
40
0.006774
50
237.175082
51
25.713856
0
ARC
8
MCD_Layer_0
10
0.000735
20
0.001300
40
0.001493
50
240.500157
51
15.315045
0
ARC
8
MCD_Layer_0
10
0.002628
20
0.000732
40
0.002728
50
195.556131
51
101.027223
0
ARC
8
MCD_Layer_0
10
0.005060
20
0.002280
40
0.005549
50
204.253921
51
87.963867
0
ARC
8
MCD_Layer_0
10
0.004888
20
0.005570
40
0.007411
50
228.734463
51
45.095006
0
ARC
8
MCD_Layer_0
10
0.003672
20
0.005693
40
0.006774
50
237.175089
51
25.713852
0
ARC
8
MCD_Layer_0
10
0.001873
20
0.000057
40
0.001874
50
181.756040
51
139.488640
0
ARC
8
MCD_Layer_0
10
0.001692
20
0.007598
40
0.007784
50
257.444070
51
0.982360
0
ARC
8
MCD_Layer_0
10
0.000248
20
0.001553
40
0.001573
50
260.942147
51
335.141775
0
ARC
8
MCD_Layer_0
10
0.000073
20
0.000481
40
0.000487
50
261.339358
51
330.042877
0
ARC
8
MCD_Layer_0
10
0.000001
20
0.000000
40
0.000001
50
180.000000
51
23.486994
0
ARC
8
MCD_Layer_0
10
0.000000
20
0.000000
40
0.000000
50
180.000000
51
10.017249
0
ARC
8
MCD_Layer_0
10
0.000000
20
0.000000
40
0.000000
50
180.000000
51
169.302053
0
ARC
8
MCD_Layer_0
10
0.000001
20
0.000000
40
0.000001
50
180.000000
51
169.982752
0
ARC
8
MCD_Layer_0
10
0.000000
20
0.000000
40
0.000000
50
180.000000
51
48.176986
0
ARC
8
MCD_Layer_0
10
0.000008
20
0.000000
40
0.000008
50
180.000000
51
158.149188
0
ARC
8
MCD_Layer_0
10
0.000009
20
0.000000
40
0.000009
50
180.000000
51
98.534409
0
ARC
8
MCD_Layer_0
10
0.000001
20
0.000000
40
0.000001
50
180.000000
51
12.160868
0
ARC
8
MCD_Layer_0
10
0.000001
20
0.000000
40
0.000001
50
180.000000
51
67.835079
0
ARC
8
MCD_Layer_0
10
0.000001
20
0.000000
40
0.000001
50
180.000000
51
178.259545
0
ARC
8
MCD_Layer_0
10
0.000017
20
0.000000
40
0.000017
50
180.000000
51
166.915039
0
ARC
8
MCD_Layer_0
10
0.000000
20
0.000000
40
0.000000
50
180.000000
51
178.211862
0
ARC
8
MCD_Layer_0
10
0.001353
20
0.000155
40
0.001362
50
186.527464
51
130.083021
0
ARC
8
MCD_Layer_0
10
0.003619
20
0.001132
40
0.003792
50
197.373780
51
103.924531
0
ARC
8
MCD_Layer_0
10
0.003619
20
0.004975
40
0.006152
50
233.968974
51
33.479526
0
ARC
8
MCD_Layer_0
10
0.001353
20
0.005813
40
0.005969
50
256.897121
51
350.346360
0
ARC
8
MCD_Layer_0
10
0.000238
20
0.003120
40
0.003129
50
265.635803
51
322.080245
0
ARC
8
MCD_Layer_0
10
0.000000
20
0.000000
40
0.000000
50
180.000000
51
164.466750
0
ARC
8
MCD_Layer_0
10
0.000000
20
0.000000
40
0.000000
50
180.000000
51
171.483582
0
ARC
8
MCD_Layer_0
10
0.000000
20
0.000000
40
0.000000
50
180.000000
51
8.560448
0
CIRCLE
8
MCD_Layer_0
10
0.000000
20
0.007813
40
0.007813
0
ENDSEC
0
EOF
