0
SECTION
2
ENTITIES
0
LINE
8
MCD_Layer_1
10
-12.005738
20
0.023122
30
0.0
11
-12.005738
21
2.000000
31
0.0
0
LINE
8
MCD_Layer_1
10
12.005738
20
0.023122
30
0.0
11
-12.005738
21
0.023122
31
0.0
0
LINE
8
MCD_Layer_1
10
12.005738
20
2.000000
30
0.0
11
-12.005738
21
2.000000
31
0.0
0
LINE
8
MCD_Layer_0
10
-12.005738
20
0.068050
30
0.0
11
-12.083370
21
0.173850
31
0.0
0
LINE
8
MCD_Layer_0
10
-12.005738
20
1.939738
30
0.0
11
-12.110414
21
1.737639
31
0.0
0
LINE
8
MCD_Layer_1
10
12.005738
20
0.023122
30
0.0
11
12.005738
21
2.000000
31
0.0
0
LINE
8
MCD_Layer_0
10
12.005738
20
0.068050
30
0.0
11
12.083370
21
0.173850
31
0.0
0
LINE
8
MCD_Layer_0
10
12.005738
20
1.939738
30
0.0
11
12.110414
21
1.737639
31
0.0
0
LINE
8
MCD_Layer_0
10
-0.213675
20
-0.019000
30
0.0
11
-0.213675
21
0.252000
31
0.0
0
LINE
8
MCD_Layer_0
10
-0.213675
20
0.252000
30
0.0
11
-0.151375
21
0.252000
31
0.0
0
LINE
8
MCD_Layer_0
10
-0.151375
20
0.252000
30
0.0
11
-0.151375
21
0.190000
31
0.0
0
LINE
8
MCD_Layer_0
10
0.114425
20
1.000000
30
0.0
11
0.114425
21
1.023000
31
0.0
0
LINE
8
MCD_Layer_0
10
0.114425
20
1.023000
30
0.0
11
0.177025
21
1.023000
31
0.0
0
LINE
8
MCD_Layer_0
10
0.177025
20
1.023000
30
0.0
11
0.177025
21
0.773000
31
0.0
0
LINE
8
MCD_Layer_0
10
0.177025
20
0.773000
30
0.0
11
0.114425
21
0.773000
31
0.0
0
LINE
8
MCD_Layer_0
10
0.114425
20
0.773000
30
0.0
11
0.114425
21
0.796900
31
0.0
0
LINE
8
MCD_Layer_0
10
-0.151375
20
0.000000
30
0.0
11
-0.151375
21
-0.019000
31
0.0
0
LINE
8
MCD_Layer_0
10
-0.151375
20
-0.019000
30
0.0
11
-0.213675
21
-0.019000
31
0.0
0
LINE
8
MCD_Layer_0
10
-0.304750
20
0.000000
30
0.0
11
-0.304750
21
0.062500
31
0.0
0
LINE
8
MCD_Layer_0
10
-0.304750
20
0.062500
30
0.0
11
-0.263050
21
0.062500
31
0.0
0
LINE
8
MCD_Layer_0
10
-0.242050
20
0.083500
30
0.0
11
-0.242050
21
0.917300
31
0.0
0
LINE
8
MCD_Layer_0
10
-0.263050
20
0.937300
30
0.0
11
-0.304750
21
0.937300
31
0.0
0
LINE
8
MCD_Layer_0
10
-0.304750
20
0.937300
30
0.0
11
-0.304750
21
1.000000
31
0.0
0
LINE
8
MCD_Layer_0
10
-0.304750
20
1.000000
30
0.0
11
-0.070750
21
1.000000
31
0.0
0
LINE
8
MCD_Layer_0
10
-0.070750
20
1.000000
30
0.0
11
-0.070750
21
0.937300
31
0.0
0
LINE
8
MCD_Layer_0
10
-0.070750
20
0.937300
30
0.0
11
-0.111950
21
0.937300
31
0.0
0
LINE
8
MCD_Layer_0
10
-0.132950
20
0.917300
30
0.0
11
-0.132950
21
0.687500
31
0.0
0
LINE
8
MCD_Layer_0
10
-0.132950
20
0.687500
30
0.0
11
0.132950
21
0.687500
31
0.0
0
LINE
8
MCD_Layer_0
10
0.132950
20
0.687500
30
0.0
11
0.132950
21
0.917300
31
0.0
0
LINE
8
MCD_Layer_0
10
0.111950
20
0.937300
30
0.0
11
0.069950
21
0.937300
31
0.0
0
LINE
8
MCD_Layer_0
10
0.069950
20
0.937300
30
0.0
11
0.069950
21
1.000000
31
0.0
0
LINE
8
MCD_Layer_0
10
0.069950
20
1.000000
30
0.0
11
0.304250
21
1.000000
31
0.0
0
LINE
8
MCD_Layer_0
10
0.304250
20
1.000000
30
0.0
11
0.304250
21
0.937300
31
0.0
0
LINE
8
MCD_Layer_0
10
0.304250
20
0.937300
30
0.0
11
0.263050
21
0.937300
31
0.0
0
LINE
8
MCD_Layer_0
10
0.242050
20
0.917300
30
0.0
11
0.242050
21
0.083500
31
0.0
0
LINE
8
MCD_Layer_0
10
0.263050
20
0.062500
30
0.0
11
0.304750
21
0.062500
31
0.0
0
LINE
8
MCD_Layer_0
10
0.304750
20
0.062500
30
0.0
11
0.304750
21
0.000000
31
0.0
0
LINE
8
MCD_Layer_0
10
0.304750
20
0.000000
30
0.0
11
0.070250
21
0.000000
31
0.0
0
LINE
8
MCD_Layer_0
10
0.070250
20
0.000000
30
0.0
11
0.070250
21
0.062500
31
0.0
0
LINE
8
MCD_Layer_0
10
0.070250
20
0.062500
30
0.0
11
0.111950
21
0.062500
31
0.0
0
LINE
8
MCD_Layer_0
10
0.132950
20
0.083500
30
0.0
11
0.132950
21
0.625000
31
0.0
0
LINE
8
MCD_Layer_0
10
0.132950
20
0.625000
30
0.0
11
-0.132950
21
0.625000
31
0.0
0
LINE
8
MCD_Layer_0
10
-0.132950
20
0.625000
30
0.0
11
-0.132950
21
0.083500
31
0.0
0
LINE
8
MCD_Layer_0
10
-0.111950
20
0.062500
30
0.0
11
-0.070250
21
0.062500
31
0.0
0
LINE
8
MCD_Layer_0
10
-0.070250
20
0.062500
30
0.0
11
-0.070250
21
0.000000
31
0.0
0
LINE
8
MCD_Layer_0
10
-0.070250
20
0.000000
30
0.0
11
-0.304750
21
0.000000
31
0.0
0
LINE
8
MCD_Layer_0
10
-0.239500
20
1.000000
30
0.0
11
0.198500
21
1.000000
31
0.0
0
LINE
8
MCD_Layer_0
10
0.198500
20
1.000000
30
0.0
11
0.198500
21
0.823000
31
0.0
0
LINE
8
MCD_Layer_0
10
0.198500
20
0.823000
30
0.0
11
0.151400
21
0.823000
31
0.0
0
LINE
8
MCD_Layer_0
10
0.151400
20
0.823000
30
0.0
11
0.151400
21
0.854000
31
0.0
0
LINE
8
MCD_Layer_0
10
0.068400
20
0.938000
30
0.0
11
-0.062500
21
0.938000
31
0.0
0
LINE
8
MCD_Layer_0
10
-0.062500
20
0.938000
30
0.0
11
-0.062500
21
0.623300
31
0.0
0
LINE
8
MCD_Layer_0
10
-0.062500
20
0.623300
30
0.0
11
0.062600
21
0.623300
31
0.0
0
LINE
8
MCD_Layer_0
10
0.083600
20
0.643300
30
0.0
11
0.083600
21
0.696300
31
0.0
0
LINE
8
MCD_Layer_0
10
0.083600
20
0.696300
30
0.0
11
0.146100
21
0.696300
31
0.0
0
LINE
8
MCD_Layer_0
10
0.146100
20
0.696300
30
0.0
11
0.146100
21
0.490000
31
0.0
0
LINE
8
MCD_Layer_0
10
0.146100
20
0.490000
30
0.0
11
0.083600
21
0.490000
31
0.0
0
LINE
8
MCD_Layer_0
10
0.083600
20
0.490000
30
0.0
11
0.083600
21
0.542000
31
0.0
0
LINE
8
MCD_Layer_0
10
0.062600
20
0.563000
30
0.0
11
-0.062500
21
0.563000
31
0.0
0
LINE
8
MCD_Layer_0
10
-0.062500
20
0.563000
30
0.0
11
-0.062500
21
0.063000
31
0.0
0
LINE
8
MCD_Layer_0
10
-0.062500
20
0.063000
30
0.0
11
0.092100
21
0.063000
31
0.0
0
LINE
8
MCD_Layer_0
10
0.176100
20
0.146000
30
0.0
11
0.176100
21
0.198000
31
0.0
0
LINE
8
MCD_Layer_0
10
0.176100
20
0.198000
30
0.0
11
0.239500
21
0.198000
31
0.0
0
LINE
8
MCD_Layer_0
10
0.239500
20
0.198000
30
0.0
11
0.239500
21
0.000000
31
0.0
0
LINE
8
MCD_Layer_0
10
0.239500
20
0.000000
30
0.0
11
-0.239500
21
0.000000
31
0.0
0
LINE
8
MCD_Layer_0
10
-0.239500
20
0.000000
30
0.0
11
-0.239500
21
0.062500
31
0.0
0
LINE
8
MCD_Layer_0
10
-0.239500
20
0.062500
30
0.0
11
-0.187500
21
0.062500
31
0.0
0
LINE
8
MCD_Layer_0
10
-0.166500
20
0.083500
30
0.0
11
-0.166500
21
0.918000
31
0.0
0
LINE
8
MCD_Layer_0
10
-0.187500
20
0.938000
30
0.0
11
-0.239500
21
0.938000
31
0.0
0
LINE
8
MCD_Layer_0
10
-0.239500
20
0.938000
30
0.0
11
-0.239500
21
1.000000
31
0.0
0
LINE
8
MCD_Layer_0
10
-0.245000
20
0.000000
30
0.0
11
-0.245000
21
0.062500
31
0.0
0
LINE
8
MCD_Layer_0
10
-0.245000
20
0.062500
30
0.0
11
-0.203300
21
0.062500
31
0.0
0
LINE
8
MCD_Layer_0
10
-0.182300
20
0.083500
30
0.0
11
-0.182300
21
0.917300
31
0.0
0
LINE
8
MCD_Layer_0
10
-0.203300
20
0.937300
30
0.0
11
-0.245000
21
0.937300
31
0.0
0
LINE
8
MCD_Layer_0
10
-0.245000
20
0.937300
30
0.0
11
-0.245000
21
1.000000
31
0.0
0
LINE
8
MCD_Layer_0
10
-0.245000
20
1.000000
30
0.0
11
-0.011000
21
1.000000
31
0.0
0
LINE
8
MCD_Layer_0
10
-0.011000
20
1.000000
30
0.0
11
-0.011000
21
0.937300
31
0.0
0
LINE
8
MCD_Layer_0
10
-0.011000
20
0.937300
30
0.0
11
-0.052200
21
0.937300
31
0.0
0
LINE
8
MCD_Layer_0
10
-0.073200
20
0.917300
30
0.0
11
-0.073200
21
0.083500
31
0.0
0
LINE
8
MCD_Layer_0
10
-0.052200
20
0.062500
30
0.0
11
0.098800
21
0.062500
31
0.0
0
LINE
8
MCD_Layer_0
10
0.182500
20
0.148100
30
0.0
11
0.182500
21
0.221100
31
0.0
0
LINE
8
MCD_Layer_0
10
0.182500
20
0.221100
30
0.0
11
0.245000
21
0.221100
31
0.0
0
LINE
8
MCD_Layer_0
10
0.245000
20
0.221100
30
0.0
11
0.245000
21
0.000000
31
0.0
0
LINE
8
MCD_Layer_0
10
0.245000
20
0.000000
30
0.0
11
-0.245000
21
0.000000
31
0.0
0
LINE
8
MCD_Layer_0
10
-0.052200
20
0.062500
30
0.0
11
-0.010500
21
0.062500
31
0.0
0
LINE
8
MCD_Layer_0
10
-0.268656
20
1.000000
30
0.0
11
0.012344
21
1.000000
31
0.0
0
LINE
8
MCD_Layer_0
10
-0.003056
20
0.000000
30
0.0
11
-0.268656
21
0.000000
31
0.0
0
LINE
8
MCD_Layer_0
10
-0.268656
20
0.000000
30
0.0
11
-0.268656
21
0.062500
31
0.0
0
LINE
8
MCD_Layer_0
10
-0.268656
20
0.062500
30
0.0
11
-0.247656
21
0.062500
31
0.0
0
LINE
8
MCD_Layer_0
10
-0.206356
20
0.103500
30
0.0
11
-0.206356
21
0.896500
31
0.0
0
LINE
8
MCD_Layer_0
10
-0.247656
20
0.937500
30
0.0
11
-0.268656
21
0.937500
31
0.0
0
LINE
8
MCD_Layer_0
10
-0.268656
20
0.937500
30
0.0
11
-0.268656
21
1.000000
31
0.0
0
LINE
8
MCD_Layer_0
10
-0.098056
20
0.937300
30
0.0
11
-0.098056
21
0.677000
31
0.0
0
LINE
8
MCD_Layer_0
10
-0.098056
20
0.677000
30
0.0
11
-0.047556
21
0.677000
31
0.0
0
LINE
8
MCD_Layer_0
10
-0.049256
20
0.937300
30
0.0
11
-0.098056
21
0.937300
31
0.0
0
LINE
8
MCD_Layer_0
10
-0.098056
20
0.615200
30
0.0
11
-0.098056
21
0.063000
31
0.0
0
LINE
8
MCD_Layer_0
10
-0.098056
20
0.063000
30
0.0
11
-0.034156
21
0.063100
31
0.0
0
LINE
8
MCD_Layer_0
10
-0.344000
20
0.999750
30
0.0
11
-0.104000
21
0.999750
31
0.0
0
LINE
8
MCD_Layer_0
10
-0.104000
20
0.999750
30
0.0
11
-0.104000
21
0.937550
31
0.0
0
LINE
8
MCD_Layer_0
10
-0.104000
20
0.937550
30
0.0
11
-0.144000
21
0.937550
31
0.0
0
LINE
8
MCD_Layer_0
10
-0.163000
20
0.908550
30
0.0
11
0.032000
21
0.504750
31
0.0
0
LINE
8
MCD_Layer_0
10
0.032000
20
0.504750
30
0.0
11
0.214000
21
0.908550
31
0.0
0
LINE
8
MCD_Layer_0
10
0.195000
20
0.937550
30
0.0
11
0.151000
21
0.937550
31
0.0
0
LINE
8
MCD_Layer_0
10
0.151000
20
0.937550
30
0.0
11
0.151000
21
0.999750
31
0.0
0
LINE
8
MCD_Layer_0
10
0.151000
20
0.998900
30
0.0
11
0.344000
21
0.998900
31
0.0
0
LINE
8
MCD_Layer_0
10
0.344000
20
0.998900
30
0.0
11
0.344000
21
0.936700
31
0.0
0
LINE
8
MCD_Layer_0
10
0.344000
20
0.936700
30
0.0
11
0.308000
21
0.936700
31
0.0
0
LINE
8
MCD_Layer_0
10
0.289000
20
0.924700
30
0.0
11
0.063000
21
0.415900
31
0.0
0
LINE
8
MCD_Layer_0
10
0.063000
20
0.416750
30
0.0
11
0.063000
21
0.083050
31
0.0
0
LINE
8
MCD_Layer_0
10
0.083000
20
0.063050
30
0.0
11
0.136000
21
0.063050
31
0.0
0
LINE
8
MCD_Layer_0
10
0.136000
20
0.063050
30
0.0
11
0.136000
21
-0.000250
31
0.0
0
LINE
8
MCD_Layer_0
10
0.136000
20
-0.000250
30
0.0
11
-0.114000
21
-0.000250
31
0.0
0
LINE
8
MCD_Layer_0
10
-0.114000
20
-0.000250
30
0.0
11
-0.114000
21
0.063050
31
0.0
0
LINE
8
MCD_Layer_0
10
-0.114000
20
0.063050
30
0.0
11
-0.062000
21
0.063050
31
0.0
0
LINE
8
MCD_Layer_0
10
-0.042000
20
0.083050
30
0.0
11
-0.042000
21
0.416750
31
0.0
0
LINE
8
MCD_Layer_0
10
-0.042000
20
0.416750
30
0.0
11
-0.286000
21
0.925550
31
0.0
0
LINE
8
MCD_Layer_0
10
-0.305000
20
0.937550
30
0.0
11
-0.344000
21
0.937550
31
0.0
0
LINE
8
MCD_Layer_0
10
-0.344000
20
0.937550
30
0.0
11
-0.344000
21
0.999750
31
0.0
0
LINE
8
MCD_Layer_0
10
-0.224150
20
1.000000
30
0.0
11
0.213850
21
1.000000
31
0.0
0
LINE
8
MCD_Layer_0
10
0.213850
20
1.000000
30
0.0
11
0.213850
21
0.823000
31
0.0
0
LINE
8
MCD_Layer_0
10
0.213850
20
0.823000
30
0.0
11
0.149950
21
0.823000
31
0.0
0
LINE
8
MCD_Layer_0
10
0.149950
20
0.823000
30
0.0
11
0.149950
21
0.854000
31
0.0
0
LINE
8
MCD_Layer_0
10
0.066950
20
0.938000
30
0.0
11
-0.040250
21
0.938000
31
0.0
0
LINE
8
MCD_Layer_0
10
-0.040250
20
0.938000
30
0.0
11
-0.040250
21
0.623300
31
0.0
0
LINE
8
MCD_Layer_0
10
-0.040250
20
0.623300
30
0.0
11
0.079650
21
0.623300
31
0.0
0
LINE
8
MCD_Layer_0
10
0.100650
20
0.643300
30
0.0
11
0.100650
21
0.696300
31
0.0
0
LINE
8
MCD_Layer_0
10
0.100650
20
0.696300
30
0.0
11
0.161350
21
0.696300
31
0.0
0
LINE
8
MCD_Layer_0
10
0.161350
20
0.696300
30
0.0
11
0.161350
21
0.490000
31
0.0
0
LINE
8
MCD_Layer_0
10
0.161350
20
0.490000
30
0.0
11
0.100650
21
0.490000
31
0.0
0
LINE
8
MCD_Layer_0
10
0.100650
20
0.490000
30
0.0
11
0.100650
21
0.542000
31
0.0
0
LINE
8
MCD_Layer_0
10
0.079650
20
0.563000
30
0.0
11
-0.040250
21
0.563000
31
0.0
0
LINE
8
MCD_Layer_0
10
-0.040250
20
0.563000
30
0.0
11
-0.040250
21
0.082900
31
0.0
0
LINE
8
MCD_Layer_0
10
-0.019350
20
0.062500
30
0.0
11
0.020650
21
0.062500
31
0.0
0
LINE
8
MCD_Layer_0
10
0.020650
20
0.062500
30
0.0
11
0.020650
21
0.000000
31
0.0
0
LINE
8
MCD_Layer_0
10
0.020650
20
0.000000
30
0.0
11
-0.213850
21
0.000000
31
0.0
0
LINE
8
MCD_Layer_0
10
-0.213850
20
0.000000
30
0.0
11
-0.213850
21
0.062500
31
0.0
0
LINE
8
MCD_Layer_0
10
-0.213850
20
0.062500
30
0.0
11
-0.172150
21
0.062500
31
0.0
0
LINE
8
MCD_Layer_0
10
-0.151150
20
0.083500
30
0.0
11
-0.151150
21
0.918000
31
0.0
0
LINE
8
MCD_Layer_0
10
-0.172150
20
0.938000
30
0.0
11
-0.224150
21
0.938000
31
0.0
0
LINE
8
MCD_Layer_0
10
-0.224150
20
0.938000
30
0.0
11
-0.224150
21
1.000000
31
0.0
0
LINE
8
MCD_Layer_0
10
-0.307500
20
0.000000
30
0.0
11
-0.307500
21
0.062500
31
0.0
0
LINE
8
MCD_Layer_0
10
-0.307500
20
0.062500
30
0.0
11
-0.265800
21
0.062500
31
0.0
0
LINE
8
MCD_Layer_0
10
-0.244800
20
0.083500
30
0.0
11
-0.244800
21
0.917300
31
0.0
0
LINE
8
MCD_Layer_0
10
-0.265800
20
0.937300
30
0.0
11
-0.307500
21
0.937300
31
0.0
0
LINE
8
MCD_Layer_0
10
-0.307500
20
0.937300
30
0.0
11
-0.307500
21
1.000000
31
0.0
0
LINE
8
MCD_Layer_0
10
-0.307500
20
1.000000
30
0.0
11
-0.063500
21
0.999800
31
0.0
0
LINE
8
MCD_Layer_0
10
0.279900
20
0.050600
30
0.0
11
0.307500
21
-0.006000
31
0.0
0
LINE
8
MCD_Layer_0
10
-0.135700
20
0.461600
30
0.0
11
-0.135700
21
0.083500
31
0.0
0
LINE
8
MCD_Layer_0
10
-0.114700
20
0.062500
30
0.0
11
-0.073000
21
0.062500
31
0.0
0
LINE
8
MCD_Layer_0
10
-0.073000
20
0.062500
30
0.0
11
-0.073000
21
0.000000
31
0.0
0
LINE
8
MCD_Layer_0
10
-0.073000
20
0.000000
30
0.0
11
-0.307500
21
0.000000
31
0.0
0
LINE
8
MCD_Layer_0
10
-0.135700
20
0.523100
30
0.0
11
-0.135700
21
0.917300
31
0.0
0
LINE
8
MCD_Layer_0
10
-0.344000
20
0.000000
30
0.0
11
-0.344000
21
0.062500
31
0.0
0
LINE
8
MCD_Layer_0
10
-0.344000
20
0.062500
30
0.0
11
-0.319000
21
0.062500
31
0.0
0
LINE
8
MCD_Layer_0
10
-0.279000
20
0.092500
30
0.0
11
-0.008000
21
1.029000
31
0.0
0
LINE
8
MCD_Layer_0
10
-0.008000
20
1.029000
30
0.0
11
0.282000
21
0.091500
31
0.0
0
LINE
8
MCD_Layer_0
10
0.322000
20
0.062500
30
0.0
11
0.344000
21
0.062500
31
0.0
0
LINE
8
MCD_Layer_0
10
0.344000
20
0.062500
30
0.0
11
0.344000
21
0.000000
31
0.0
0
LINE
8
MCD_Layer_0
10
0.344000
20
0.000000
30
0.0
11
0.114000
21
0.000000
31
0.0
0
LINE
8
MCD_Layer_0
10
0.114000
20
0.000000
30
0.0
11
0.114000
21
0.062500
31
0.0
0
LINE
8
MCD_Layer_0
10
0.114000
20
0.062500
30
0.0
11
0.154000
21
0.062500
31
0.0
0
LINE
8
MCD_Layer_0
10
0.174000
20
0.089500
30
0.0
11
0.112000
21
0.271000
31
0.0
0
LINE
8
MCD_Layer_0
10
0.112000
20
0.271000
30
0.0
11
-0.158000
21
0.271000
31
0.0
0
LINE
8
MCD_Layer_0
10
-0.158000
20
0.271000
30
0.0
11
-0.215000
21
0.088500
31
0.0
0
LINE
8
MCD_Layer_0
10
-0.195000
20
0.062500
30
0.0
11
-0.156000
21
0.062500
31
0.0
0
LINE
8
MCD_Layer_0
10
-0.156000
20
0.062500
30
0.0
11
-0.156000
21
0.000000
31
0.0
0
LINE
8
MCD_Layer_0
10
-0.156000
20
0.000000
30
0.0
11
-0.344000
21
0.000000
31
0.0
0
LINE
8
MCD_Layer_0
10
-0.140000
20
0.333000
30
0.0
11
-0.027000
21
0.732000
31
0.0
0
LINE
8
MCD_Layer_0
10
-0.027000
20
0.732000
30
0.0
11
0.094000
21
0.333000
31
0.0
0
LINE
8
MCD_Layer_0
10
0.094000
20
0.333000
30
0.0
11
-0.140000
21
0.333000
31
0.0
0
LINE
8
MCD_Layer_0
10
-0.291403
20
0.000000
30
0.0
11
-0.291403
21
0.063300
31
0.0
0
LINE
8
MCD_Layer_0
10
-0.291403
20
0.063300
30
0.0
11
-0.249403
21
0.063300
31
0.0
0
LINE
8
MCD_Layer_0
10
-0.228403
20
0.084300
30
0.0
11
-0.228403
21
0.916700
31
0.0
0
LINE
8
MCD_Layer_0
10
-0.249403
20
0.937700
30
0.0
11
-0.291403
21
0.937700
31
0.0
0
LINE
8
MCD_Layer_0
10
-0.291403
20
0.937700
30
0.0
11
-0.291403
21
1.001900
31
0.0
0
LINE
8
MCD_Layer_0
10
-0.291403
20
1.001900
30
0.0
11
-0.165403
21
1.001900
31
0.0
0
LINE
8
MCD_Layer_0
10
-0.165403
20
1.001900
30
0.0
11
0.167597
21
0.345900
31
0.0
0
LINE
8
MCD_Layer_0
10
0.167597
20
0.345900
30
0.0
11
0.167597
21
0.916700
31
0.0
0
LINE
8
MCD_Layer_0
10
0.146597
20
0.937700
30
0.0
11
0.104597
21
0.937700
31
0.0
0
LINE
8
MCD_Layer_0
10
0.104597
20
0.937700
30
0.0
11
0.104597
21
1.001900
31
0.0
0
LINE
8
MCD_Layer_0
10
0.104597
20
1.001900
30
0.0
11
0.292597
21
1.001900
31
0.0
0
LINE
8
MCD_Layer_0
10
0.292597
20
1.001900
30
0.0
11
0.292597
21
0.937700
31
0.0
0
LINE
8
MCD_Layer_0
10
0.292597
20
0.937700
30
0.0
11
0.250597
21
0.937700
31
0.0
0
LINE
8
MCD_Layer_0
10
0.229597
20
0.916700
30
0.0
11
0.229597
21
-0.008100
31
0.0
0
LINE
8
MCD_Layer_0
10
0.229597
20
-0.008100
30
0.0
11
-0.165403
21
0.771900
31
0.0
0
LINE
8
MCD_Layer_0
10
-0.165403
20
0.771900
30
0.0
11
-0.165403
21
0.084300
31
0.0
0
LINE
8
MCD_Layer_0
10
-0.145403
20
0.063300
30
0.0
11
-0.103703
21
0.063300
31
0.0
0
LINE
8
MCD_Layer_0
10
-0.103703
20
0.063300
30
0.0
11
-0.103703
21
0.000000
31
0.0
0
LINE
8
MCD_Layer_0
10
-0.103703
20
0.000000
30
0.0
11
-0.291403
21
0.000000
31
0.0
0
LINE
8
MCD_Layer_0
10
-0.296950
20
0.000000
30
0.0
11
-0.296950
21
0.062500
31
0.0
0
LINE
8
MCD_Layer_0
10
-0.296950
20
0.062500
30
0.0
11
-0.255250
21
0.062500
31
0.0
0
LINE
8
MCD_Layer_0
10
-0.234250
20
0.083500
30
0.0
11
-0.234250
21
0.917300
31
0.0
0
LINE
8
MCD_Layer_0
10
-0.255250
20
0.937300
30
0.0
11
-0.297250
21
0.937300
31
0.0
0
LINE
8
MCD_Layer_0
10
-0.297250
20
0.937300
30
0.0
11
-0.297250
21
1.000000
31
0.0
0
LINE
8
MCD_Layer_0
10
-0.297250
20
1.000000
30
0.0
11
-0.062950
21
1.000000
31
0.0
0
LINE
8
MCD_Layer_0
10
-0.062950
20
1.000000
30
0.0
11
-0.062950
21
0.937300
31
0.0
0
LINE
8
MCD_Layer_0
10
-0.062950
20
0.937300
30
0.0
11
-0.104150
21
0.937300
31
0.0
0
LINE
8
MCD_Layer_0
10
-0.125150
20
0.917300
30
0.0
11
-0.125150
21
0.502800
31
0.0
0
LINE
8
MCD_Layer_0
10
-0.125150
20
0.502800
30
0.0
11
0.097050
21
0.914500
31
0.0
0
LINE
8
MCD_Layer_0
10
0.083350
20
0.937500
30
0.0
11
0.031150
21
0.937500
31
0.0
0
LINE
8
MCD_Layer_0
10
0.031150
20
0.937500
30
0.0
11
0.031150
21
0.999600
31
0.0
0
LINE
8
MCD_Layer_0
10
0.031150
20
0.999600
30
0.0
11
0.249950
21
0.999600
31
0.0
0
LINE
8
MCD_Layer_0
10
0.249950
20
0.999600
30
0.0
11
0.249950
21
0.937500
31
0.0
0
LINE
8
MCD_Layer_0
10
0.249950
20
0.937500
30
0.0
11
0.201650
21
0.937500
31
0.0
0
LINE
8
MCD_Layer_0
10
0.174050
20
0.921000
30
0.0
11
-0.008050
21
0.580200
31
0.0
0
LINE
8
MCD_Layer_0
10
-0.008050
20
0.580200
30
0.0
11
0.235850
21
0.080100
31
0.0
0
LINE
8
MCD_Layer_0
10
0.263950
20
0.062500
30
0.0
11
0.296950
21
0.062500
31
0.0
0
LINE
8
MCD_Layer_0
10
0.296950
20
0.062500
30
0.0
11
0.296950
21
0.000000
31
0.0
0
LINE
8
MCD_Layer_0
10
0.296950
20
0.000000
30
0.0
11
0.078050
21
0.000000
31
0.0
0
LINE
8
MCD_Layer_0
10
0.078050
20
0.000000
30
0.0
11
0.078050
21
0.062500
31
0.0
0
LINE
8
MCD_Layer_0
10
0.078050
20
0.062500
30
0.0
11
0.103550
21
0.062500
31
0.0
0
LINE
8
MCD_Layer_0
10
0.117550
20
0.084900
30
0.0
11
-0.068150
21
0.465900
31
0.0
0
LINE
8
MCD_Layer_0
10
-0.068150
20
0.465900
30
0.0
11
-0.125150
21
0.357700
31
0.0
0
LINE
8
MCD_Layer_0
10
-0.125150
20
0.357700
30
0.0
11
-0.125150
21
0.083500
31
0.0
0
LINE
8
MCD_Layer_0
10
-0.104150
20
0.062500
30
0.0
11
-0.062450
21
0.062500
31
0.0
0
LINE
8
MCD_Layer_0
10
-0.062450
20
0.062500
30
0.0
11
-0.062450
21
0.000000
31
0.0
0
LINE
8
MCD_Layer_0
10
-0.062450
20
0.000000
30
0.0
11
-0.296950
21
0.000000
31
0.0
0
LINE
8
MCD_Layer_0
10
-0.117250
20
0.000000
30
0.0
11
-0.117250
21
0.062500
31
0.0
0
LINE
8
MCD_Layer_0
10
-0.117250
20
0.062500
30
0.0
11
-0.075550
21
0.062500
31
0.0
0
LINE
8
MCD_Layer_0
10
-0.054550
20
0.083500
30
0.0
11
-0.054550
21
0.917300
31
0.0
0
LINE
8
MCD_Layer_0
10
-0.075550
20
0.937300
30
0.0
11
-0.117250
21
0.937300
31
0.0
0
LINE
8
MCD_Layer_0
10
-0.117250
20
0.937300
30
0.0
11
-0.117250
21
1.000000
31
0.0
0
LINE
8
MCD_Layer_0
10
-0.117250
20
1.000000
30
0.0
11
0.116750
21
1.000000
31
0.0
0
LINE
8
MCD_Layer_0
10
0.116750
20
1.000000
30
0.0
11
0.116750
21
0.937300
31
0.0
0
LINE
8
MCD_Layer_0
10
0.116750
20
0.937300
30
0.0
11
0.075550
21
0.937300
31
0.0
0
LINE
8
MCD_Layer_0
10
0.054550
20
0.917300
30
0.0
11
0.054550
21
0.083500
31
0.0
0
LINE
8
MCD_Layer_0
10
0.075550
20
0.062500
30
0.0
11
0.117250
21
0.062500
31
0.0
0
LINE
8
MCD_Layer_0
10
0.117250
20
0.062500
30
0.0
11
0.117250
21
0.000000
31
0.0
0
LINE
8
MCD_Layer_0
10
0.117250
20
0.000000
30
0.0
11
-0.117250
21
0.000000
31
0.0
0
LINE
8
MCD_Layer_0
10
-0.307850
20
1.000700
30
0.0
11
-0.072750
21
1.000700
31
0.0
0
LINE
8
MCD_Layer_0
10
-0.072750
20
1.000700
30
0.0
11
-0.072750
21
0.938000
31
0.0
0
LINE
8
MCD_Layer_0
10
-0.072750
20
0.938000
30
0.0
11
-0.114050
21
0.938000
31
0.0
0
LINE
8
MCD_Layer_0
10
-0.135050
20
0.918000
30
0.0
11
-0.134950
21
0.219500
31
0.0
0
LINE
8
MCD_Layer_0
10
0.182750
20
0.210700
30
0.0
11
0.182750
21
0.918800
31
0.0
0
LINE
8
MCD_Layer_0
10
0.162750
20
0.938800
30
0.0
11
0.120350
21
0.938800
31
0.0
0
LINE
8
MCD_Layer_0
10
0.120350
20
0.938800
30
0.0
11
0.120350
21
1.002700
31
0.0
0
LINE
8
MCD_Layer_0
10
0.120350
20
1.002700
30
0.0
11
0.307850
21
1.002700
31
0.0
0
LINE
8
MCD_Layer_0
10
0.307850
20
1.002700
30
0.0
11
0.307850
21
0.938800
31
0.0
0
LINE
8
MCD_Layer_0
10
0.307850
20
0.938800
30
0.0
11
0.266750
21
0.938800
31
0.0
0
LINE
8
MCD_Layer_0
10
0.245750
20
0.918800
30
0.0
11
0.245750
21
0.210700
31
0.0
0
LINE
8
MCD_Layer_0
10
-0.244150
20
0.205900
30
0.0
11
-0.244150
21
0.918000
31
0.0
0
LINE
8
MCD_Layer_0
10
-0.265150
20
0.938000
30
0.0
11
-0.307850
21
0.938000
31
0.0
0
LINE
8
MCD_Layer_0
10
-0.307850
20
0.938000
30
0.0
11
-0.307850
21
1.000700
31
0.0
0
LINE
8
MCD_Layer_0
10
0.220618
20
1.001000
30
0.0
11
0.220618
21
0.751000
31
0.0
0
LINE
8
MCD_Layer_0
10
0.220618
20
0.751000
30
0.0
11
0.158918
21
0.751000
31
0.0
0
LINE
8
MCD_Layer_0
10
0.158918
20
0.751000
30
0.0
11
0.158918
21
0.814000
31
0.0
0
LINE
8
MCD_Layer_0
10
0.128318
20
0.156700
30
0.0
11
0.128318
21
0.308800
31
0.0
0
LINE
8
MCD_Layer_0
10
0.107318
20
0.328800
30
0.0
11
0.066318
21
0.328800
31
0.0
0
LINE
8
MCD_Layer_0
10
0.066318
20
0.328800
30
0.0
11
0.066018
21
0.328800
31
0.0
0
LINE
8
MCD_Layer_0
10
0.066018
20
0.328800
30
0.0
11
0.066018
21
0.391300
31
0.0
0
LINE
8
MCD_Layer_0
10
0.066018
20
0.391300
30
0.0
11
0.300418
21
0.391300
31
0.0
0
LINE
8
MCD_Layer_0
10
0.300418
20
0.391300
30
0.0
11
0.300418
21
0.328800
31
0.0
0
LINE
8
MCD_Layer_0
10
0.300418
20
0.328800
30
0.0
11
0.258418
21
0.328800
31
0.0
0
LINE
8
MCD_Layer_0
10
0.237418
20
0.308800
30
0.0
11
0.237418
21
0.000000
31
0.0
0
LINE
8
MCD_Layer_0
10
0.237418
20
0.000000
30
0.0
11
0.191318
21
0.000000
31
0.0
0
LINE
8
MCD_Layer_0
10
0.191318
20
0.000000
30
0.0
11
0.191318
21
0.011700
31
0.0
0
LINE
8
MCD_Layer_0
10
0.158918
20
0.993000
30
0.0
11
0.158918
21
1.001000
31
0.0
0
LINE
8
MCD_Layer_0
10
0.158918
20
1.001000
30
0.0
11
0.220618
21
1.001000
31
0.0
0
LINE
8
MCD_Layer_0
10
-0.155000
20
0.823000
30
0.0
11
-0.155000
21
0.781000
31
0.0
0
LINE
8
MCD_Layer_0
10
-0.155000
20
0.781000
30
0.0
11
-0.220700
21
0.781000
31
0.0
0
LINE
8
MCD_Layer_0
10
-0.220700
20
0.781000
30
0.0
11
-0.220700
21
0.990000
31
0.0
0
LINE
8
MCD_Layer_0
10
-0.220700
20
0.990000
30
0.0
11
-0.155000
21
0.990000
31
0.0
0
LINE
8
MCD_Layer_0
10
-0.155000
20
0.990000
30
0.0
11
-0.155000
21
0.982000
31
0.0
0
LINE
8
MCD_Layer_0
10
-0.105000
20
0.083000
30
0.0
11
0.158100
21
0.083000
31
0.0
0
LINE
8
MCD_Layer_0
10
0.179100
20
0.104000
30
0.0
11
0.179100
21
0.167000
31
0.0
0
LINE
8
MCD_Layer_0
10
0.179100
20
0.167000
30
0.0
11
0.241000
21
0.167000
31
0.0
0
LINE
8
MCD_Layer_0
10
0.241000
20
0.167000
30
0.0
11
0.241000
21
0.000000
31
0.0
0
LINE
8
MCD_Layer_0
10
0.241000
20
0.000000
30
0.0
11
-0.241000
21
0.000000
31
0.0
0
LINE
8
MCD_Layer_0
10
-0.114500
20
0.000000
30
0.0
11
-0.114500
21
0.063000
31
0.0
0
LINE
8
MCD_Layer_0
10
-0.114500
20
0.063000
30
0.0
11
-0.073500
21
0.063000
31
0.0
0
LINE
8
MCD_Layer_0
10
-0.052500
20
0.083000
30
0.0
11
-0.052500
21
0.813000
31
0.0
0
LINE
8
MCD_Layer_0
10
-0.052500
20
0.813000
30
0.0
11
-0.114500
21
0.813000
31
0.0
0
LINE
8
MCD_Layer_0
10
-0.114500
20
0.813000
30
0.0
11
-0.114500
21
0.875500
31
0.0
0
LINE
8
MCD_Layer_0
10
-0.011400
20
0.999900
30
0.0
11
0.051500
21
1.000000
31
0.0
0
LINE
8
MCD_Layer_0
10
0.051500
20
1.000000
30
0.0
11
0.051500
21
0.083000
31
0.0
0
LINE
8
MCD_Layer_0
10
0.072500
20
0.063000
30
0.0
11
0.114500
21
0.063000
31
0.0
0
LINE
8
MCD_Layer_0
10
0.114500
20
0.063000
30
0.0
11
0.114500
21
0.000000
31
0.0
0
LINE
8
MCD_Layer_0
10
0.114500
20
0.000000
30
0.0
11
-0.114500
21
0.000000
31
0.0
0
LINE
8
MCD_Layer_0
10
-0.183840
20
-0.024100
30
0.0
11
-0.152840
21
0.036900
31
0.0
0
LINE
8
MCD_Layer_0
10
-0.241838
20
0.066000
30
0.0
11
-0.198038
21
0.111200
31
0.0
0
LINE
8
MCD_Layer_0
10
-0.083038
20
0.605000
30
0.0
11
-0.104038
21
0.605000
31
0.0
0
LINE
8
MCD_Layer_0
10
-0.125038
20
0.584000
30
0.0
11
-0.125038
21
0.547400
31
0.0
0
LINE
8
MCD_Layer_0
10
-0.125038
20
0.547400
30
0.0
11
-0.179338
21
0.547400
31
0.0
0
LINE
8
MCD_Layer_0
10
-0.179338
20
0.547400
30
0.0
11
-0.179338
21
0.718800
31
0.0
0
LINE
8
MCD_Layer_0
10
-0.179338
20
0.718800
30
0.0
11
-0.125038
21
0.718800
31
0.0
0
LINE
8
MCD_Layer_0
10
-0.125038
20
0.718800
30
0.0
11
-0.125038
21
0.677000
31
0.0
0
LINE
8
MCD_Layer_0
10
-0.104038
20
0.657000
30
0.0
11
-0.083038
21
0.657000
31
0.0
0
LINE
8
MCD_Layer_0
10
-0.146038
20
0.855000
30
0.0
11
-0.146038
21
0.792000
31
0.0
0
LINE
8
MCD_Layer_0
10
-0.146038
20
0.792000
30
0.0
11
-0.210638
21
0.792000
31
0.0
0
LINE
8
MCD_Layer_0
10
-0.210638
20
0.792000
30
0.0
11
-0.210638
21
1.000000
31
0.0
0
LINE
8
MCD_Layer_0
10
-0.210638
20
1.000000
30
0.0
11
-0.146038
21
1.000000
31
0.0
0
LINE
8
MCD_Layer_0
10
-0.146038
20
1.000000
30
0.0
11
-0.146038
21
0.989000
31
0.0
0
LINE
8
MCD_Layer_0
10
-0.232000
20
-0.024500
30
0.0
11
-0.232000
21
0.215500
31
0.0
0
LINE
8
MCD_Layer_0
10
-0.232000
20
0.215500
30
0.0
11
-0.169100
21
0.215500
31
0.0
0
LINE
8
MCD_Layer_0
10
-0.169100
20
0.215500
30
0.0
11
-0.169100
21
0.152500
31
0.0
0
LINE
8
MCD_Layer_0
10
0.060700
20
0.142700
30
0.0
11
0.060700
21
0.915800
31
0.0
0
LINE
8
MCD_Layer_0
10
0.039700
20
0.935800
30
0.0
11
-0.002300
21
0.935800
31
0.0
0
LINE
8
MCD_Layer_0
10
-0.002300
20
0.935800
30
0.0
11
-0.002300
21
0.998600
31
0.0
0
LINE
8
MCD_Layer_0
10
-0.002300
20
0.998600
30
0.0
11
0.232000
21
0.998600
31
0.0
0
LINE
8
MCD_Layer_0
10
0.232000
20
0.998600
30
0.0
11
0.232000
21
0.935800
31
0.0
0
LINE
8
MCD_Layer_0
10
0.232000
20
0.935800
30
0.0
11
0.190800
21
0.935800
31
0.0
0
LINE
8
MCD_Layer_0
10
0.169800
20
0.915800
30
0.0
11
0.169800
21
0.152800
31
0.0
0
LINE
8
MCD_Layer_0
10
-0.169100
20
-0.011500
30
0.0
11
-0.169100
21
-0.024500
31
0.0
0
LINE
8
MCD_Layer_0
10
-0.169100
20
-0.024500
30
0.0
11
-0.232000
21
-0.024500
31
0.0
0
LINE
8
MCD_Layer_0
10
0.260062
20
0.998500
30
0.0
11
0.260062
21
0.748500
31
0.0
0
LINE
8
MCD_Layer_0
10
0.260062
20
0.748500
30
0.0
11
0.198362
21
0.748500
31
0.0
0
LINE
8
MCD_Layer_0
10
0.198362
20
0.748500
30
0.0
11
0.198362
21
0.811500
31
0.0
0
LINE
8
MCD_Layer_0
10
0.198762
20
0.265600
30
0.0
11
0.260862
21
0.265600
31
0.0
0
LINE
8
MCD_Layer_0
10
0.198362
20
0.990500
30
0.0
11
0.198362
21
0.998500
31
0.0
0
LINE
8
MCD_Layer_0
10
0.198362
20
0.998500
30
0.0
11
0.260062
21
0.998500
31
0.0
0
LINE
8
MCD_Layer_0
10
-0.463800
20
1.001900
30
0.0
11
-0.223200
21
1.001900
31
0.0
0
LINE
8
MCD_Layer_0
10
-0.223200
20
1.001900
30
0.0
11
-0.223200
21
0.937500
31
0.0
0
LINE
8
MCD_Layer_0
10
-0.223200
20
0.937500
30
0.0
11
-0.268200
21
0.937500
31
0.0
0
LINE
8
MCD_Layer_0
10
-0.288200
20
0.911500
30
0.0
11
-0.116200
21
0.325900
31
0.0
0
LINE
8
MCD_Layer_0
10
-0.116200
20
0.325900
30
0.0
11
0.026800
21
1.022900
31
0.0
0
LINE
8
MCD_Layer_0
10
0.026800
20
1.022900
30
0.0
11
0.201800
21
0.329900
31
0.0
0
LINE
8
MCD_Layer_0
10
0.201800
20
0.329900
30
0.0
11
0.334800
21
0.911500
31
0.0
0
LINE
8
MCD_Layer_0
10
0.314800
20
0.937500
30
0.0
11
0.276800
21
0.937500
31
0.0
0
LINE
8
MCD_Layer_0
10
0.276800
20
0.937500
30
0.0
11
0.276800
21
1.001900
31
0.0
0
LINE
8
MCD_Layer_0
10
0.276800
20
1.001900
30
0.0
11
0.463800
21
1.001900
31
0.0
0
LINE
8
MCD_Layer_0
10
0.463800
20
1.001900
30
0.0
11
0.463800
21
0.937500
31
0.0
0
LINE
8
MCD_Layer_0
10
0.463800
20
0.937500
30
0.0
11
0.421800
21
0.937500
31
0.0
0
LINE
8
MCD_Layer_0
10
0.400800
20
0.921500
30
0.0
11
0.185800
21
-0.032100
31
0.0
0
LINE
8
MCD_Layer_0
10
0.185800
20
-0.032100
30
0.0
11
0.013800
21
0.649900
31
0.0
0
LINE
8
MCD_Layer_0
10
0.013800
20
0.649900
30
0.0
11
-0.130200
21
-0.029100
31
0.0
0
LINE
8
MCD_Layer_0
10
-0.130200
20
-0.029100
30
0.0
11
-0.400200
21
0.923500
31
0.0
0
LINE
8
MCD_Layer_0
10
-0.419200
20
0.937500
30
0.0
11
-0.463800
21
0.937500
31
0.0
0
LINE
8
MCD_Layer_0
10
-0.463800
20
0.937500
30
0.0
11
-0.463800
21
1.001900
31
0.0
0
LINE
8
MCD_Layer_0
10
-0.295136
20
1.000000
30
0.0
11
-0.060636
21
1.000200
31
0.0
0
LINE
8
MCD_Layer_0
10
-0.035136
20
0.000000
30
0.0
11
-0.295136
21
0.000000
31
0.0
0
LINE
8
MCD_Layer_0
10
-0.295136
20
0.000000
30
0.0
11
-0.295136
21
0.062500
31
0.0
0
LINE
8
MCD_Layer_0
10
-0.295136
20
0.062500
30
0.0
11
-0.253136
21
0.062500
31
0.0
0
LINE
8
MCD_Layer_0
10
-0.232136
20
0.083500
30
0.0
11
-0.232136
21
0.917500
31
0.0
0
LINE
8
MCD_Layer_0
10
-0.253136
20
0.937500
30
0.0
11
-0.295136
21
0.937500
31
0.0
0
LINE
8
MCD_Layer_0
10
-0.295136
20
0.937500
30
0.0
11
-0.295136
21
1.000000
31
0.0
0
LINE
8
MCD_Layer_0
10
-0.123736
20
0.936300
30
0.0
11
-0.123736
21
0.061300
31
0.0
0
LINE
8
MCD_Layer_0
10
-0.123736
20
0.061300
30
0.0
11
-0.051436
21
0.061300
31
0.0
0
LINE
8
MCD_Layer_0
10
-0.056436
20
0.936200
30
0.0
11
-0.123736
21
0.936300
31
0.0
0
LINE
8
MCD_Layer_0
10
-0.291450
20
0.251800
30
0.0
11
0.166450
21
1.022800
31
0.0
0
LINE
8
MCD_Layer_0
10
0.166450
20
1.022800
30
0.0
11
0.166450
21
0.314800
31
0.0
0
LINE
8
MCD_Layer_0
10
0.166450
20
0.314800
30
0.0
11
0.209150
21
0.314800
31
0.0
0
LINE
8
MCD_Layer_0
10
0.230150
20
0.335800
30
0.0
11
0.230150
21
0.376800
31
0.0
0
LINE
8
MCD_Layer_0
10
0.230150
20
0.376800
30
0.0
11
0.291450
21
0.376800
31
0.0
0
LINE
8
MCD_Layer_0
10
0.291450
20
0.376800
30
0.0
11
0.291450
21
0.189800
31
0.0
0
LINE
8
MCD_Layer_0
10
0.291450
20
0.189800
30
0.0
11
0.230150
21
0.189800
31
0.0
0
LINE
8
MCD_Layer_0
10
0.230150
20
0.189800
30
0.0
11
0.230150
21
0.231800
31
0.0
0
LINE
8
MCD_Layer_0
10
0.209150
20
0.251800
30
0.0
11
0.166450
21
0.251800
31
0.0
0
LINE
8
MCD_Layer_0
10
0.166450
20
0.251800
30
0.0
11
0.166450
21
0.085300
31
0.0
0
LINE
8
MCD_Layer_0
10
0.187450
20
0.064300
30
0.0
11
0.230150
21
0.064300
31
0.0
0
LINE
8
MCD_Layer_0
10
0.230150
20
0.064300
30
0.0
11
0.230150
21
0.001800
31
0.0
0
LINE
8
MCD_Layer_0
10
0.230150
20
0.001800
30
0.0
11
0.000450
21
0.001800
31
0.0
0
LINE
8
MCD_Layer_0
10
0.000450
20
0.001800
30
0.0
11
0.000450
21
0.064300
31
0.0
0
LINE
8
MCD_Layer_0
10
0.000450
20
0.064300
30
0.0
11
0.041450
21
0.064300
31
0.0
0
LINE
8
MCD_Layer_0
10
0.062450
20
0.085300
30
0.0
11
0.062450
21
0.251800
31
0.0
0
LINE
8
MCD_Layer_0
10
0.062450
20
0.251800
30
0.0
11
-0.291450
21
0.251800
31
0.0
0
LINE
8
MCD_Layer_0
10
-0.181450
20
0.314800
30
0.0
11
0.062450
21
0.314800
31
0.0
0
LINE
8
MCD_Layer_0
10
0.062450
20
0.314800
30
0.0
11
0.062450
21
0.725300
31
0.0
0
LINE
8
MCD_Layer_0
10
0.062450
20
0.725300
30
0.0
11
-0.181450
21
0.314800
31
0.0
0
LINE
8
MCD_Layer_0
10
-0.235305
20
0.065800
30
0.0
11
-0.188305
21
0.107800
31
0.0
0
LINE
8
MCD_Layer_0
10
-0.166305
20
0.555800
30
0.0
11
-0.211305
21
0.564800
31
0.0
0
LINE
8
MCD_Layer_0
10
-0.211305
20
0.564800
30
0.0
11
-0.211305
21
1.001800
31
0.0
0
LINE
8
MCD_Layer_0
10
-0.211305
20
1.001800
30
0.0
11
0.205695
21
1.001800
31
0.0
0
LINE
8
MCD_Layer_0
10
0.205695
20
1.001800
30
0.0
11
0.205695
21
0.835800
31
0.0
0
LINE
8
MCD_Layer_0
10
0.205695
20
0.835800
30
0.0
11
0.136995
21
0.835800
31
0.0
0
LINE
8
MCD_Layer_0
10
0.136995
20
0.835800
30
0.0
11
0.136995
21
0.876800
31
0.0
0
LINE
8
MCD_Layer_0
10
0.136995
20
0.876800
30
0.0
11
-0.148305
21
0.876800
31
0.0
0
LINE
8
MCD_Layer_0
10
-0.148305
20
0.876800
30
0.0
11
-0.148305
21
0.662300
31
0.0
0
LINE
8
MCD_Layer_0
10
-0.208600
20
-0.019000
30
0.0
11
-0.208600
21
0.252000
31
0.0
0
LINE
8
MCD_Layer_0
10
-0.208600
20
0.252000
30
0.0
11
-0.166600
21
0.252000
31
0.0
0
LINE
8
MCD_Layer_0
10
-0.166600
20
0.252000
30
0.0
11
-0.166600
21
0.190000
31
0.0
0
LINE
8
MCD_Layer_0
10
0.119400
20
0.998300
30
0.0
11
0.119400
21
1.023000
31
0.0
0
LINE
8
MCD_Layer_0
10
0.119400
20
1.023000
30
0.0
11
0.161400
21
1.023000
31
0.0
0
LINE
8
MCD_Layer_0
10
0.161400
20
1.023000
30
0.0
11
0.161400
21
0.773000
31
0.0
0
LINE
8
MCD_Layer_0
10
0.161400
20
0.773000
30
0.0
11
0.119400
21
0.773000
31
0.0
0
LINE
8
MCD_Layer_0
10
0.119400
20
0.773000
30
0.0
11
0.119400
21
0.815000
31
0.0
0
LINE
8
MCD_Layer_0
10
-0.166600
20
0.000000
30
0.0
11
-0.166600
21
-0.019000
31
0.0
0
LINE
8
MCD_Layer_0
10
-0.166600
20
-0.019000
30
0.0
11
-0.208600
21
-0.019000
31
0.0
0
LINE
8
MCD_Layer_0
10
0.248300
20
0.992500
30
0.0
11
0.248300
21
0.742500
31
0.0
0
LINE
8
MCD_Layer_0
10
0.248300
20
0.742500
30
0.0
11
0.207300
21
0.742500
31
0.0
0
LINE
8
MCD_Layer_0
10
0.207300
20
0.742500
30
0.0
11
0.207300
21
0.805500
31
0.0
0
LINE
8
MCD_Layer_0
10
0.200300
20
0.270500
30
0.0
11
0.259300
21
0.270500
31
0.0
0
LINE
8
MCD_Layer_0
10
0.207300
20
0.984500
30
0.0
11
0.207300
21
0.992500
31
0.0
0
LINE
8
MCD_Layer_0
10
0.207300
20
0.992500
30
0.0
11
0.248300
21
0.992500
31
0.0
0
LINE
8
MCD_Layer_0
10
-0.314789
20
0.000000
30
0.0
11
-0.314789
21
0.042000
31
0.0
0
LINE
8
MCD_Layer_0
10
-0.314789
20
0.042000
30
0.0
11
-0.262789
21
0.042000
31
0.0
0
LINE
8
MCD_Layer_0
10
-0.241789
20
0.063000
30
0.0
11
-0.241789
21
0.938000
31
0.0
0
LINE
8
MCD_Layer_0
10
-0.262789
20
0.958000
30
0.0
11
-0.314789
21
0.958000
31
0.0
0
LINE
8
MCD_Layer_0
10
-0.314789
20
0.958000
30
0.0
11
-0.314789
21
1.000000
31
0.0
0
LINE
8
MCD_Layer_0
10
-0.314789
20
1.000000
30
0.0
11
-0.064789
21
1.000000
31
0.0
0
LINE
8
MCD_Layer_0
10
-0.064789
20
1.000000
30
0.0
11
-0.064789
21
0.958000
31
0.0
0
LINE
8
MCD_Layer_0
10
-0.064789
20
0.958000
30
0.0
11
-0.106789
21
0.958000
31
0.0
0
LINE
8
MCD_Layer_0
10
-0.106789
20
0.958000
30
0.0
11
-0.116789
21
0.958000
31
0.0
0
LINE
8
MCD_Layer_0
10
-0.137789
20
0.938000
30
0.0
11
-0.137789
21
0.677000
31
0.0
0
LINE
8
MCD_Layer_0
10
-0.137789
20
0.677000
30
0.0
11
0.138211
21
0.677000
31
0.0
0
LINE
8
MCD_Layer_0
10
0.138211
20
0.677000
30
0.0
11
0.138211
21
0.938000
31
0.0
0
LINE
8
MCD_Layer_0
10
0.117211
20
0.958000
30
0.0
11
0.065211
21
0.958000
31
0.0
0
LINE
8
MCD_Layer_0
10
0.065211
20
0.958000
30
0.0
11
0.065211
21
1.000000
31
0.0
0
LINE
8
MCD_Layer_0
10
0.065211
20
1.000000
30
0.0
11
0.315211
21
1.000000
31
0.0
0
LINE
8
MCD_Layer_0
10
0.315211
20
1.000000
30
0.0
11
0.315211
21
0.958000
31
0.0
0
LINE
8
MCD_Layer_0
10
0.315211
20
0.958000
30
0.0
11
0.274211
21
0.958000
31
0.0
0
LINE
8
MCD_Layer_0
10
0.274211
20
0.958000
30
0.0
11
0.263211
21
0.958000
31
0.0
0
LINE
8
MCD_Layer_0
10
0.242211
20
0.938000
30
0.0
11
0.242211
21
0.063000
31
0.0
0
LINE
8
MCD_Layer_0
10
0.263211
20
0.042000
30
0.0
11
0.315211
21
0.042000
31
0.0
0
LINE
8
MCD_Layer_0
10
0.315211
20
0.042000
30
0.0
11
0.315211
21
0.000000
31
0.0
0
LINE
8
MCD_Layer_0
10
0.315211
20
0.000000
30
0.0
11
0.065211
21
0.000000
31
0.0
0
LINE
8
MCD_Layer_0
10
0.065211
20
0.000000
30
0.0
11
0.065211
21
0.042000
31
0.0
0
LINE
8
MCD_Layer_0
10
0.065211
20
0.042000
30
0.0
11
0.117211
21
0.042000
31
0.0
0
LINE
8
MCD_Layer_0
10
0.138211
20
0.063000
30
0.0
11
0.138211
21
0.625000
31
0.0
0
LINE
8
MCD_Layer_0
10
0.138211
20
0.625000
30
0.0
11
-0.137789
21
0.625000
31
0.0
0
LINE
8
MCD_Layer_0
10
-0.137789
20
0.625000
30
0.0
11
-0.137789
21
0.063000
31
0.0
0
LINE
8
MCD_Layer_0
10
-0.116789
20
0.042000
30
0.0
11
-0.064789
21
0.042000
31
0.0
0
LINE
8
MCD_Layer_0
10
-0.064789
20
0.042000
30
0.0
11
-0.064789
21
0.000000
31
0.0
0
LINE
8
MCD_Layer_0
10
-0.064789
20
0.000000
30
0.0
11
-0.314789
21
0.000000
31
0.0
0
LINE
8
MCD_Layer_0
10
-0.313000
20
0.000000
30
0.0
11
-0.313000
21
0.042000
31
0.0
0
LINE
8
MCD_Layer_0
10
-0.313000
20
0.042000
30
0.0
11
-0.261000
21
0.042000
31
0.0
0
LINE
8
MCD_Layer_0
10
-0.240000
20
0.063000
30
0.0
11
-0.240000
21
0.938000
31
0.0
0
LINE
8
MCD_Layer_0
10
-0.261000
20
0.958000
30
0.0
11
-0.313000
21
0.958000
31
0.0
0
LINE
8
MCD_Layer_0
10
-0.313000
20
0.958000
30
0.0
11
-0.313000
21
1.000000
31
0.0
0
LINE
8
MCD_Layer_0
10
-0.313000
20
1.000000
30
0.0
11
-0.042000
21
1.000000
31
0.0
0
LINE
8
MCD_Layer_0
10
0.304000
20
0.020000
30
0.0
11
0.313000
21
-0.006000
31
0.0
0
LINE
8
MCD_Layer_0
10
-0.136000
20
0.464000
30
0.0
11
-0.136000
21
0.063000
31
0.0
0
LINE
8
MCD_Layer_0
10
-0.115000
20
0.042000
30
0.0
11
-0.063000
21
0.042000
31
0.0
0
LINE
8
MCD_Layer_0
10
-0.063000
20
0.042000
30
0.0
11
-0.063000
21
0.000000
31
0.0
0
LINE
8
MCD_Layer_0
10
-0.063000
20
0.000000
30
0.0
11
-0.313000
21
0.000000
31
0.0
0
LINE
8
MCD_Layer_0
10
-0.094000
20
0.938000
30
0.0
11
-0.136000
21
0.938000
31
0.0
0
LINE
8
MCD_Layer_0
10
-0.136000
20
0.938000
30
0.0
11
-0.136000
21
0.526000
31
0.0
0
LINE
8
MCD_Layer_0
10
-0.114000
20
0.000000
30
0.0
11
-0.114000
21
0.041000
31
0.0
0
LINE
8
MCD_Layer_0
10
-0.114000
20
0.041000
30
0.0
11
-0.062000
21
0.041000
31
0.0
0
LINE
8
MCD_Layer_0
10
-0.042000
20
0.061000
30
0.0
11
-0.042000
21
0.416000
31
0.0
0
LINE
8
MCD_Layer_0
10
-0.042000
20
0.416000
30
0.0
11
-0.286000
21
0.945000
31
0.0
0
LINE
8
MCD_Layer_0
10
-0.305000
20
0.957000
30
0.0
11
-0.344000
21
0.957000
31
0.0
0
LINE
8
MCD_Layer_0
10
-0.344000
20
0.957000
30
0.0
11
-0.344000
21
0.999000
31
0.0
0
LINE
8
MCD_Layer_0
10
-0.344000
20
0.999000
30
0.0
11
-0.104000
21
0.999000
31
0.0
0
LINE
8
MCD_Layer_0
10
-0.104000
20
0.999000
30
0.0
11
-0.104000
21
0.957000
31
0.0
0
LINE
8
MCD_Layer_0
10
-0.104000
20
0.957000
30
0.0
11
-0.144000
21
0.957000
31
0.0
0
LINE
8
MCD_Layer_0
10
-0.163000
20
0.928000
30
0.0
11
0.032000
21
0.504000
31
0.0
0
LINE
8
MCD_Layer_0
10
0.032000
20
0.504000
30
0.0
11
0.214000
21
0.928000
31
0.0
0
LINE
8
MCD_Layer_0
10
0.195000
20
0.957000
30
0.0
11
0.151000
21
0.957000
31
0.0
0
LINE
8
MCD_Layer_0
10
0.151000
20
0.957000
30
0.0
11
0.151000
21
0.999000
31
0.0
0
LINE
8
MCD_Layer_0
10
0.151000
20
0.999000
30
0.0
11
0.344000
21
0.999000
31
0.0
0
LINE
8
MCD_Layer_0
10
0.344000
20
0.999000
30
0.0
11
0.344000
21
0.957000
31
0.0
0
LINE
8
MCD_Layer_0
10
0.344000
20
0.957000
30
0.0
11
0.308000
21
0.957000
31
0.0
0
LINE
8
MCD_Layer_0
10
0.289000
20
0.945000
30
0.0
11
0.063000
21
0.416000
31
0.0
0
LINE
8
MCD_Layer_0
10
0.063000
20
0.416000
30
0.0
11
0.063000
21
0.061000
31
0.0
0
LINE
8
MCD_Layer_0
10
0.083000
20
0.041000
30
0.0
11
0.136000
21
0.041000
31
0.0
0
LINE
8
MCD_Layer_0
10
0.136000
20
0.041000
30
0.0
11
0.136000
21
0.000000
31
0.0
0
LINE
8
MCD_Layer_0
10
0.136000
20
0.000000
30
0.0
11
-0.114000
21
0.000000
31
0.0
0
LINE
8
MCD_Layer_0
10
-0.239500
20
0.000000
30
0.0
11
-0.239500
21
0.042000
31
0.0
0
LINE
8
MCD_Layer_0
10
-0.239500
20
0.042000
30
0.0
11
-0.187500
21
0.042000
31
0.0
0
LINE
8
MCD_Layer_0
10
-0.166500
20
0.063000
30
0.0
11
-0.166500
21
0.938000
31
0.0
0
LINE
8
MCD_Layer_0
10
-0.187500
20
0.958000
30
0.0
11
-0.239500
21
0.958000
31
0.0
0
LINE
8
MCD_Layer_0
10
-0.239500
20
0.958000
30
0.0
11
-0.239500
21
1.000000
31
0.0
0
LINE
8
MCD_Layer_0
10
0.198500
20
0.823000
30
0.0
11
0.156500
21
0.823000
31
0.0
0
LINE
8
MCD_Layer_0
10
0.156500
20
0.823000
30
0.0
11
0.156500
21
0.854000
31
0.0
0
LINE
8
MCD_Layer_0
10
0.073500
20
0.938000
30
0.0
11
-0.062500
21
0.938000
31
0.0
0
LINE
8
MCD_Layer_0
10
-0.062500
20
0.938000
30
0.0
11
-0.062500
21
0.615000
31
0.0
0
LINE
8
MCD_Layer_0
10
-0.062500
20
0.615000
30
0.0
11
0.083500
21
0.615000
31
0.0
0
LINE
8
MCD_Layer_0
10
0.104500
20
0.635000
30
0.0
11
0.104500
21
0.688000
31
0.0
0
LINE
8
MCD_Layer_0
10
0.104500
20
0.688000
30
0.0
11
0.135500
21
0.688000
31
0.0
0
LINE
8
MCD_Layer_0
10
0.135500
20
0.688000
30
0.0
11
0.135500
21
0.490000
31
0.0
0
LINE
8
MCD_Layer_0
10
0.135500
20
0.490000
30
0.0
11
0.104500
21
0.490000
31
0.0
0
LINE
8
MCD_Layer_0
10
0.104500
20
0.490000
30
0.0
11
0.104500
21
0.542000
31
0.0
0
LINE
8
MCD_Layer_0
10
0.083500
20
0.563000
30
0.0
11
-0.062500
21
0.563000
31
0.0
0
LINE
8
MCD_Layer_0
10
-0.062500
20
0.063000
30
0.0
11
0.114500
21
0.063000
31
0.0
0
LINE
8
MCD_Layer_0
10
0.198500
20
0.146000
30
0.0
11
0.198500
21
0.198000
31
0.0
0
LINE
8
MCD_Layer_0
10
0.198500
20
0.198000
30
0.0
11
0.239500
21
0.198000
31
0.0
0
LINE
8
MCD_Layer_0
10
0.750000
20
0.850000
30
0.0
11
0.575000
21
1.000000
31
0.0
0
LINE
8
MCD_Layer_0
10
0.575000
20
1.000000
30
0.0
11
0.150000
21
1.000000
31
0.0
0
LINE
8
MCD_Layer_0
10
0.150000
20
1.000000
30
0.0
11
0.000000
21
0.825000
31
0.0
0
LINE
8
MCD_Layer_0
10
0.000000
20
0.825000
30
0.0
11
0.000000
21
0.150000
31
0.0
0
LINE
8
MCD_Layer_0
10
0.000000
20
0.150000
30
0.0
11
0.150000
21
0.000000
31
0.0
0
LINE
8
MCD_Layer_0
10
0.150000
20
0.000000
30
0.0
11
0.575000
21
0.000000
31
0.0
0
LINE
8
MCD_Layer_0
10
0.575000
20
0.000000
30
0.0
11
0.750000
21
0.150000
31
0.0
0
LINE
8
MCD_Layer_0
10
0.750000
20
0.150000
30
0.0
11
0.750000
21
0.850000
31
0.0
0
LINE
8
MCD_Layer_0
10
0.050000
20
0.000000
30
0.0
11
0.050000
21
0.500000
31
0.0
0
LINE
8
MCD_Layer_0
10
0.050000
20
0.400000
30
0.0
11
0.175000
21
0.500000
31
0.0
0
LINE
8
MCD_Layer_0
10
0.175000
20
0.500000
30
0.0
11
0.600000
21
0.500000
31
0.0
0
LINE
8
MCD_Layer_0
10
0.600000
20
0.500000
30
0.0
11
0.700000
21
0.400000
31
0.0
0
LINE
8
MCD_Layer_0
10
0.700000
20
1.000000
30
0.0
11
0.700000
21
0.000000
31
0.0
0
LINE
8
MCD_Layer_0
10
0.700000
20
0.100000
30
0.0
11
0.600000
21
0.000000
31
0.0
0
LINE
8
MCD_Layer_0
10
0.600000
20
0.000000
30
0.0
11
0.125000
21
0.000000
31
0.0
0
LINE
8
MCD_Layer_0
10
0.125000
20
0.000000
30
0.0
11
0.050000
21
0.075000
31
0.0
0
LINE
8
MCD_Layer_0
10
0.050000
20
0.075000
30
0.0
11
0.050000
21
0.400000
31
0.0
0
LINE
8
MCD_Layer_0
10
0.050000
20
0.400000
30
0.0
11
0.050000
21
0.425000
31
0.0
0
LINE
8
MCD_Layer_0
10
0.050000
20
0.425000
30
0.0
11
0.150000
21
0.500000
31
0.0
0
LINE
8
MCD_Layer_0
10
0.150000
20
0.500000
30
0.0
11
0.600000
21
0.500000
31
0.0
0
LINE
8
MCD_Layer_0
10
0.600000
20
0.500000
30
0.0
11
0.700000
21
0.425000
31
0.0
0
LINE
8
MCD_Layer_0
10
0.700000
20
0.350000
30
0.0
11
0.700000
21
0.425000
31
0.0
0
LINE
8
MCD_Layer_0
10
0.700000
20
0.425000
30
0.0
11
0.600000
21
0.500000
31
0.0
0
LINE
8
MCD_Layer_0
10
0.600000
20
0.500000
30
0.0
11
0.150000
21
0.500000
31
0.0
0
LINE
8
MCD_Layer_0
10
0.150000
20
0.500000
30
0.0
11
0.050000
21
0.400000
31
0.0
0
LINE
8
MCD_Layer_0
10
0.050000
20
0.400000
30
0.0
11
0.050000
21
0.100000
31
0.0
0
LINE
8
MCD_Layer_0
10
0.050000
20
0.100000
30
0.0
11
0.150000
21
0.000000
31
0.0
0
LINE
8
MCD_Layer_0
10
0.150000
20
0.000000
30
0.0
11
0.600000
21
0.000000
31
0.0
0
LINE
8
MCD_Layer_0
10
0.600000
20
0.000000
30
0.0
11
0.700000
21
0.100000
31
0.0
0
LINE
8
MCD_Layer_0
10
0.700000
20
0.350000
30
0.0
11
0.600000
21
0.275000
31
0.0
0
LINE
8
MCD_Layer_0
10
0.600000
20
0.275000
30
0.0
11
0.050000
21
0.275000
31
0.0
0
LINE
8
MCD_Layer_0
10
0.325000
20
0.800000
30
0.0
11
0.100000
21
0.250000
31
0.0
0
LINE
8
MCD_Layer_0
10
0.600000
20
0.800000
30
0.0
11
0.425000
21
0.250000
31
0.0
0
LINE
8
MCD_Layer_0
10
0.175000
20
0.700000
30
0.0
11
0.700000
21
0.700000
31
0.0
0
LINE
8
MCD_Layer_0
10
0.000000
20
0.350000
30
0.0
11
0.600000
21
0.350000
31
0.0
0
LINE
8
MCD_Layer_0
10
0.000000
20
1.000000
30
0.0
11
0.750000
21
0.000000
31
0.0
0
LINE
8
MCD_Layer_0
10
0.750000
20
0.000000
30
0.0
11
0.750000
21
1.000000
31
0.0
0
LINE
8
MCD_Layer_0
10
0.600000
20
0.500000
30
0.0
11
0.700000
21
0.375000
31
0.0
0
LINE
8
MCD_Layer_0
10
0.700000
20
0.375000
30
0.0
11
0.700000
21
0.000000
31
0.0
0
LINE
8
MCD_Layer_0
10
0.700000
20
0.275000
30
0.0
11
0.600000
21
0.375000
31
0.0
0
LINE
8
MCD_Layer_0
10
0.600000
20
0.375000
30
0.0
11
0.175000
21
0.375000
31
0.0
0
LINE
8
MCD_Layer_0
10
0.175000
20
0.375000
30
0.0
11
0.050000
21
0.275000
31
0.0
0
LINE
8
MCD_Layer_0
10
0.050000
20
0.275000
30
0.0
11
0.050000
21
0.075000
31
0.0
0
LINE
8
MCD_Layer_0
10
0.050000
20
0.075000
30
0.0
11
0.150000
21
0.000000
31
0.0
0
LINE
8
MCD_Layer_0
10
0.600000
20
0.000000
30
0.0
11
0.700000
21
0.075000
31
0.0
0
LINE
8
MCD_Layer_0
10
0.050000
20
0.425000
30
0.0
11
0.175000
21
0.500000
31
0.0
0
LINE
8
MCD_Layer_0
10
0.050000
20
0.500000
30
0.0
11
0.050000
21
0.000000
31
0.0
0
LINE
8
MCD_Layer_0
10
0.050000
20
0.425000
30
0.0
11
0.125000
21
0.500000
31
0.0
0
LINE
8
MCD_Layer_0
10
0.125000
20
0.500000
30
0.0
11
0.325000
21
0.500000
31
0.0
0
LINE
8
MCD_Layer_0
10
0.325000
20
0.500000
30
0.0
11
0.375000
21
0.425000
31
0.0
0
LINE
8
MCD_Layer_0
10
0.375000
20
0.425000
30
0.0
11
0.425000
21
0.500000
31
0.0
0
LINE
8
MCD_Layer_0
10
0.425000
20
0.500000
30
0.0
11
0.625000
21
0.500000
31
0.0
0
LINE
8
MCD_Layer_0
10
0.625000
20
0.500000
30
0.0
11
0.700000
21
0.425000
31
0.0
0
LINE
8
MCD_Layer_0
10
0.700000
20
0.425000
30
0.0
11
0.700000
21
0.000000
31
0.0
0
LINE
8
MCD_Layer_0
10
0.375000
20
0.425000
30
0.0
11
0.375000
21
0.000000
31
0.0
0
LINE
8
MCD_Layer_0
10
0.000000
20
0.825000
30
0.0
11
0.000000
21
0.600000
31
0.0
0
LINE
8
MCD_Layer_0
10
0.000000
20
0.600000
30
0.0
11
0.150000
21
0.500000
31
0.0
0
LINE
8
MCD_Layer_0
10
0.150000
20
0.500000
30
0.0
11
0.575000
21
0.500000
31
0.0
0
LINE
8
MCD_Layer_0
10
0.575000
20
0.500000
30
0.0
11
0.750000
21
0.375000
31
0.0
0
LINE
8
MCD_Layer_0
10
0.750000
20
0.375000
30
0.0
11
0.750000
21
0.150000
31
0.0
0
LINE
8
MCD_Layer_0
10
0.750000
20
0.150000
30
0.0
11
0.575000
21
0.000000
31
0.0
0
LINE
8
MCD_Layer_0
10
0.575000
20
0.000000
30
0.0
11
0.150000
21
0.000000
31
0.0
0
LINE
8
MCD_Layer_0
10
0.150000
20
0.000000
30
0.0
11
0.000000
21
0.150000
31
0.0
0
LINE
8
MCD_Layer_0
10
0.175000
20
0.950000
30
0.0
11
0.175000
21
0.075000
31
0.0
0
LINE
8
MCD_Layer_0
10
0.175000
20
0.075000
30
0.0
11
0.300000
21
0.000000
31
0.0
0
LINE
8
MCD_Layer_0
10
0.300000
20
0.000000
30
0.0
11
0.600000
21
0.000000
31
0.0
0
LINE
8
MCD_Layer_0
10
0.050000
20
0.500000
30
0.0
11
0.425000
21
0.500000
31
0.0
0
LINE
8
MCD_Layer_0
10
0.750000
20
0.875000
30
0.0
11
0.575000
21
1.000000
31
0.0
0
LINE
8
MCD_Layer_0
10
0.575000
20
1.000000
30
0.0
11
0.175000
21
1.000000
31
0.0
0
LINE
8
MCD_Layer_0
10
0.175000
20
1.000000
30
0.0
11
0.000000
21
0.850000
31
0.0
0
LINE
8
MCD_Layer_0
10
0.000000
20
0.850000
30
0.0
11
0.000000
21
0.125000
31
0.0
0
LINE
8
MCD_Layer_0
10
0.000000
20
0.125000
30
0.0
11
0.150000
21
0.000000
31
0.0
0
LINE
8
MCD_Layer_0
10
0.575000
20
0.000000
30
0.0
11
0.750000
21
0.125000
31
0.0
0
LINE
8
MCD_Layer_0
10
0.050000
20
0.100000
30
0.0
11
0.200000
21
0.000000
31
0.0
0
LINE
8
MCD_Layer_0
10
0.200000
20
0.000000
30
0.0
11
0.700000
21
0.000000
31
0.0
0
LINE
8
MCD_Layer_0
10
0.050000
20
0.500000
30
0.0
11
0.050000
21
0.100000
31
0.0
0
LINE
8
MCD_Layer_0
10
0.700000
20
0.500000
30
0.0
11
0.700000
21
0.000000
31
0.0
0
LINE
8
MCD_Layer_0
10
0.700000
20
0.000000
30
0.0
11
0.700000
21
-0.150000
31
0.0
0
LINE
8
MCD_Layer_0
10
0.700000
20
-0.150000
30
0.0
11
0.700000
21
-0.250000
31
0.0
0
LINE
8
MCD_Layer_0
10
0.700000
20
-0.250000
30
0.0
11
0.550000
21
-0.350000
31
0.0
0
LINE
8
MCD_Layer_0
10
0.550000
20
-0.350000
30
0.0
11
0.125000
21
-0.350000
31
0.0
0
LINE
8
MCD_Layer_0
10
0.125000
20
-0.350000
30
0.0
11
0.025000
21
-0.275000
31
0.0
0
LINE
8
MCD_Layer_0
10
0.375000
20
0.000000
30
0.0
11
0.375000
21
1.000000
31
0.0
0
LINE
8
MCD_Layer_0
10
0.250000
20
1.000000
30
0.0
11
0.500000
21
1.000000
31
0.0
0
LINE
8
MCD_Layer_0
10
0.250000
20
0.000000
30
0.0
11
0.500000
21
0.000000
31
0.0
0
LINE
8
MCD_Layer_0
10
0.050000
20
0.000000
30
0.0
11
0.050000
21
1.000000
31
0.0
0
LINE
8
MCD_Layer_0
10
0.050000
20
0.400000
30
0.0
11
0.200000
21
0.500000
31
0.0
0
LINE
8
MCD_Layer_0
10
0.200000
20
0.500000
30
0.0
11
0.600000
21
0.500000
31
0.0
0
LINE
8
MCD_Layer_0
10
0.700000
20
0.400000
30
0.0
11
0.700000
21
0.000000
31
0.0
0
LINE
8
MCD_Layer_0
10
0.050000
20
0.500000
30
0.0
11
0.050000
21
0.400000
31
0.0
0
LINE
8
MCD_Layer_0
10
0.050000
20
0.400000
30
0.0
11
0.375000
21
0.000000
31
0.0
0
LINE
8
MCD_Layer_0
10
0.375000
20
0.000000
30
0.0
11
0.700000
21
0.400000
31
0.0
0
LINE
8
MCD_Layer_0
10
0.700000
20
0.400000
30
0.0
11
0.700000
21
0.500000
31
0.0
0
LINE
8
MCD_Layer_0
10
0.700000
20
0.900000
30
0.0
11
0.600000
21
1.000000
31
0.0
0
LINE
8
MCD_Layer_0
10
0.600000
20
1.000000
30
0.0
11
0.250000
21
1.000000
31
0.0
0
LINE
8
MCD_Layer_0
10
0.250000
20
1.000000
30
0.0
11
0.125000
21
0.925000
31
0.0
0
LINE
8
MCD_Layer_0
10
0.125000
20
0.925000
30
0.0
11
0.125000
21
0.000000
31
0.0
0
LINE
8
MCD_Layer_0
10
0.000000
20
0.500000
30
0.0
11
0.375000
21
0.500000
31
0.0
0
LINE
8
MCD_Layer_0
10
0.050000
20
0.500000
30
0.0
11
0.050000
21
0.075000
31
0.0
0
LINE
8
MCD_Layer_0
10
0.150000
20
0.000000
30
0.0
11
0.625000
21
0.000000
31
0.0
0
LINE
8
MCD_Layer_0
10
0.625000
20
0.000000
30
0.0
11
0.700000
21
0.075000
31
0.0
0
LINE
8
MCD_Layer_0
10
0.700000
20
0.075000
30
0.0
11
0.700000
21
0.500000
31
0.0
0
LINE
8
MCD_Layer_0
10
0.700000
20
0.075000
30
0.0
11
0.700000
21
0.000000
31
0.0
0
LINE
8
MCD_Layer_0
10
0.250000
20
1.000000
30
0.0
11
0.375000
21
1.000000
31
0.0
0
LINE
8
MCD_Layer_0
10
0.375000
20
1.000000
30
0.0
11
0.375000
21
0.000000
31
0.0
0
LINE
8
MCD_Layer_0
10
0.225000
20
0.000000
30
0.0
11
0.525000
21
0.000000
31
0.0
0
LINE
8
MCD_Layer_0
10
0.000000
20
1.000000
30
0.0
11
0.000000
21
0.000000
31
0.0
0
LINE
8
MCD_Layer_0
10
0.700000
20
0.500000
30
0.0
11
0.450000
21
0.350000
31
0.0
0
LINE
8
MCD_Layer_0
10
0.450000
20
0.350000
30
0.0
11
0.700000
21
0.000000
31
0.0
0
LINE
8
MCD_Layer_0
10
0.000000
20
0.350000
30
0.0
11
0.450000
21
0.350000
31
0.0
0
LINE
8
MCD_Layer_0
10
0.050000
20
0.400000
30
0.0
11
0.250000
21
0.000000
31
0.0
0
LINE
8
MCD_Layer_0
10
0.250000
20
0.000000
30
0.0
11
0.375000
21
0.450000
31
0.0
0
LINE
8
MCD_Layer_0
10
0.375000
20
0.450000
30
0.0
11
0.500000
21
0.000000
31
0.0
0
LINE
8
MCD_Layer_0
10
0.500000
20
0.000000
30
0.0
11
0.700000
21
0.400000
31
0.0
0
LINE
8
MCD_Layer_0
10
0.700000
20
0.400000
30
0.0
11
0.600000
21
0.500000
31
0.0
0
LINE
8
MCD_Layer_0
10
0.050000
20
0.400000
30
0.0
11
0.050000
21
0.075000
31
0.0
0
LINE
8
MCD_Layer_0
10
0.700000
20
0.400000
30
0.0
11
0.700000
21
-0.025000
31
0.0
0
LINE
8
MCD_Layer_0
10
0.700000
20
-0.025000
30
0.0
11
0.700000
21
-0.100000
31
0.0
0
LINE
8
MCD_Layer_0
10
0.700000
20
-0.100000
30
0.0
11
0.600000
21
-0.225000
31
0.0
0
LINE
8
MCD_Layer_0
10
0.600000
20
-0.225000
30
0.0
11
0.150000
21
-0.225000
31
0.0
0
LINE
8
MCD_Layer_0
10
0.150000
20
-0.225000
30
0.0
11
0.050000
21
-0.125000
31
0.0
0
LINE
8
MCD_Layer_0
10
0.050000
20
1.000000
30
0.0
11
0.050000
21
0.000000
31
0.0
0
LINE
8
MCD_Layer_0
10
0.700000
20
0.075000
30
0.0
11
0.700000
21
0.425000
31
0.0
0
LINE
8
MCD_Layer_0
10
0.700000
20
0.425000
30
0.0
11
0.625000
21
0.500000
31
0.0
0
LINE
8
MCD_Layer_0
10
0.625000
20
0.500000
30
0.0
11
0.150000
21
0.500000
31
0.0
0
LINE
8
MCD_Layer_0
10
0.150000
20
0.500000
30
0.0
11
0.050000
21
0.425000
31
0.0
0
LINE
8
MCD_Layer_0
10
0.375000
20
0.025000
30
0.0
11
0.350000
21
0.000000
31
0.0
0
LINE
8
MCD_Layer_0
10
0.350000
20
0.000000
30
0.0
11
0.375000
21
-0.025000
31
0.0
0
LINE
8
MCD_Layer_0
10
0.375000
20
-0.025000
30
0.0
11
0.400000
21
0.000000
31
0.0
0
LINE
8
MCD_Layer_0
10
0.400000
20
0.000000
30
0.0
11
0.375000
21
0.025000
31
0.0
0
LINE
8
MCD_Layer_0
10
0.050000
20
0.500000
30
0.0
11
0.700000
21
0.500000
31
0.0
0
LINE
8
MCD_Layer_0
10
0.700000
20
0.500000
30
0.0
11
0.050000
21
0.000000
31
0.0
0
LINE
8
MCD_Layer_0
10
0.050000
20
0.000000
30
0.0
11
0.725000
21
0.000000
31
0.0
0
LINE
8
MCD_Layer_0
10
0.400000
20
0.000000
30
0.0
11
0.425000
21
-0.050000
31
0.0
0
LINE
8
MCD_Layer_0
10
0.425000
20
-0.050000
30
0.0
11
0.400000
21
-0.075000
31
0.0
0
LINE
8
MCD_Layer_0
10
0.700000
20
0.425000
30
0.0
11
0.700000
21
0.100000
31
0.0
0
LINE
8
MCD_Layer_0
10
0.600000
20
0.000000
30
0.0
11
0.150000
21
0.000000
31
0.0
0
LINE
8
MCD_Layer_0
10
0.150000
20
0.000000
30
0.0
11
0.050000
21
0.100000
31
0.0
0
LINE
8
MCD_Layer_0
10
0.050000
20
-0.350000
30
0.0
11
0.050000
21
0.500000
31
0.0
0
LINE
8
MCD_Layer_0
10
0.325000
20
0.950000
30
0.0
11
0.375000
21
1.000000
31
0.0
0
LINE
8
MCD_Layer_0
10
0.300000
20
0.975000
30
0.0
11
0.275000
21
0.950000
31
0.0
0
LINE
8
MCD_Layer_0
10
0.275000
20
0.950000
30
0.0
11
0.300000
21
0.925000
31
0.0
0
LINE
8
MCD_Layer_0
10
0.300000
20
0.925000
30
0.0
11
0.325000
21
0.950000
31
0.0
0
LINE
8
MCD_Layer_0
10
0.325000
20
0.950000
30
0.0
11
0.300000
21
0.975000
31
0.0
0
LINE
8
MCD_Layer_0
10
0.450000
20
0.975000
30
0.0
11
0.425000
21
0.950000
31
0.0
0
LINE
8
MCD_Layer_0
10
0.425000
20
0.950000
30
0.0
11
0.450000
21
0.925000
31
0.0
0
LINE
8
MCD_Layer_0
10
0.450000
20
0.925000
30
0.0
11
0.475000
21
0.950000
31
0.0
0
LINE
8
MCD_Layer_0
10
0.475000
20
0.950000
30
0.0
11
0.450000
21
0.975000
31
0.0
0
LINE
8
MCD_Layer_0
10
0.325000
20
0.950000
30
0.0
11
0.350000
21
0.900000
31
0.0
0
LINE
8
MCD_Layer_0
10
0.350000
20
0.900000
30
0.0
11
0.325000
21
0.850000
31
0.0
0
LINE
8
MCD_Layer_0
10
0.475000
20
0.950000
30
0.0
11
0.500000
21
0.900000
31
0.0
0
LINE
8
MCD_Layer_0
10
0.500000
20
0.900000
30
0.0
11
0.475000
21
0.850000
31
0.0
0
LINE
8
MCD_Layer_0
10
0.250000
20
0.350000
30
0.0
11
0.600000
21
0.350000
31
0.0
0
LINE
8
MCD_Layer_0
10
0.250000
20
0.550000
30
0.0
11
0.600000
21
0.550000
31
0.0
0
LINE
8
MCD_Layer_0
10
0.050000
20
0.875000
30
0.0
11
0.050000
21
0.675000
31
0.0
0
LINE
8
MCD_Layer_0
10
0.050000
20
0.675000
30
0.0
11
0.150000
21
0.575000
31
0.0
0
LINE
8
MCD_Layer_0
10
0.150000
20
0.575000
30
0.0
11
0.050000
21
0.450000
31
0.0
0
LINE
8
MCD_Layer_0
10
0.050000
20
0.450000
30
0.0
11
0.050000
21
0.100000
31
0.0
0
LINE
8
MCD_Layer_0
10
0.050000
20
0.100000
30
0.0
11
0.175000
21
0.000000
31
0.0
0
LINE
8
MCD_Layer_0
10
0.175000
20
0.000000
30
0.0
11
0.575000
21
0.000000
31
0.0
0
LINE
8
MCD_Layer_0
10
0.575000
20
0.000000
30
0.0
11
0.700000
21
0.100000
31
0.0
0
LINE
8
MCD_Layer_0
10
0.700000
20
0.100000
30
0.0
11
0.700000
21
0.450000
31
0.0
0
LINE
8
MCD_Layer_0
10
0.700000
20
0.450000
30
0.0
11
0.600000
21
0.575000
31
0.0
0
LINE
8
MCD_Layer_0
10
0.600000
20
0.575000
30
0.0
11
0.700000
21
0.675000
31
0.0
0
LINE
8
MCD_Layer_0
10
0.575000
20
1.000000
30
0.0
11
0.625000
21
1.000000
31
0.0
0
LINE
8
MCD_Layer_0
10
0.700000
20
0.875000
30
0.0
11
0.700000
21
0.675000
31
0.0
0
LINE
8
MCD_Layer_0
10
0.150000
20
0.575000
30
0.0
11
0.575000
21
0.575000
31
0.0
0
LINE
8
MCD_Layer_0
10
0.575000
20
0.575000
30
0.0
11
0.600000
21
0.575000
31
0.0
0
LINE
8
MCD_Layer_0
10
0.050000
20
0.875000
30
0.0
11
0.175000
21
1.000000
31
0.0
0
LINE
8
MCD_Layer_0
10
0.175000
20
1.000000
30
0.0
11
0.575000
21
1.000000
31
0.0
0
LINE
8
MCD_Layer_0
10
0.575000
20
1.000000
30
0.0
11
0.700000
21
0.875000
31
0.0
0
LINE
8
MCD_Layer_0
10
-0.380476
20
1.000010
30
0.0
11
-0.380476
21
0.213009
31
0.0
0
LINE
8
MCD_Layer_0
10
0.380524
20
0.213009
30
0.0
11
0.380524
21
1.000010
31
0.0
0
LINE
8
MCD_Layer_0
10
-0.265476
20
1.000010
30
0.0
11
-0.265476
21
0.213009
31
0.0
0
LINE
8
MCD_Layer_0
10
-0.057476
20
0.213009
30
0.0
11
-0.057476
21
1.000010
31
0.0
0
LINE
8
MCD_Layer_0
10
0.265524
20
1.000010
30
0.0
11
0.265524
21
0.213009
31
0.0
0
LINE
8
MCD_Layer_0
10
0.057524
20
0.213009
30
0.0
11
0.057524
21
1.000010
31
0.0
0
LINE
8
MCD_Layer_0
10
-0.380476
20
1.000010
30
0.0
11
-0.265476
21
1.000010
31
0.0
0
LINE
8
MCD_Layer_0
10
-0.057476
20
1.000010
30
0.0
11
0.057524
21
1.000010
31
0.0
0
LINE
8
MCD_Layer_0
10
0.265524
20
1.000010
30
0.0
11
0.380524
21
1.000010
31
0.0
0
LINE
8
MCD_Layer_0
10
-0.275975
20
0.000041
30
0.0
11
-0.275975
21
1.000041
31
0.0
0
LINE
8
MCD_Layer_0
10
-0.275975
20
1.000041
30
0.0
11
-0.160975
21
1.000041
31
0.0
0
LINE
8
MCD_Layer_0
10
-0.160975
20
1.000041
30
0.0
11
-0.160975
21
0.617042
31
0.0
0
LINE
8
MCD_Layer_0
10
-0.160975
20
0.617042
30
0.0
11
0.161024
21
0.617042
31
0.0
0
LINE
8
MCD_Layer_0
10
0.161024
20
0.617042
30
0.0
11
0.161024
21
1.000041
31
0.0
0
LINE
8
MCD_Layer_0
10
0.161024
20
1.000041
30
0.0
11
0.276025
21
1.000041
31
0.0
0
LINE
8
MCD_Layer_0
10
0.276025
20
1.000041
30
0.0
11
0.276025
21
0.000041
31
0.0
0
LINE
8
MCD_Layer_0
10
0.276025
20
0.000041
30
0.0
11
0.161024
21
0.000041
31
0.0
0
LINE
8
MCD_Layer_0
10
0.161024
20
0.000041
30
0.0
11
0.161024
21
0.502041
31
0.0
0
LINE
8
MCD_Layer_0
10
0.161024
20
0.502041
30
0.0
11
-0.160975
21
0.502041
31
0.0
0
LINE
8
MCD_Layer_0
10
-0.160975
20
0.502041
30
0.0
11
-0.160975
21
0.000041
31
0.0
0
LINE
8
MCD_Layer_0
10
-0.160975
20
0.000041
30
0.0
11
-0.275975
21
0.000041
31
0.0
0
LINE
8
MCD_Layer_0
10
-0.250011
20
0.000041
30
0.0
11
-0.250011
21
1.000041
31
0.0
0
LINE
8
MCD_Layer_0
10
-0.250011
20
1.000041
30
0.0
11
0.197989
21
1.000041
31
0.0
0
LINE
8
MCD_Layer_0
10
0.197989
20
1.000041
30
0.0
11
0.197989
21
0.885042
31
0.0
0
LINE
8
MCD_Layer_0
10
0.197989
20
0.885042
30
0.0
11
-0.135011
21
0.885042
31
0.0
0
LINE
8
MCD_Layer_0
10
-0.135011
20
0.885042
30
0.0
11
-0.135011
21
0.617042
31
0.0
0
LINE
8
MCD_Layer_0
10
-0.135011
20
0.617042
30
0.0
11
0.114989
21
0.617042
31
0.0
0
LINE
8
MCD_Layer_0
10
0.114989
20
0.617042
30
0.0
11
0.114989
21
0.502041
31
0.0
0
LINE
8
MCD_Layer_0
10
0.114989
20
0.502041
30
0.0
11
-0.135011
21
0.502041
31
0.0
0
LINE
8
MCD_Layer_0
10
-0.135011
20
0.502041
30
0.0
11
-0.135011
21
0.115042
31
0.0
0
LINE
8
MCD_Layer_0
10
-0.135011
20
0.115042
30
0.0
11
0.249989
21
0.115042
31
0.0
0
LINE
8
MCD_Layer_0
10
0.249989
20
0.115042
30
0.0
11
0.249989
21
0.000041
31
0.0
0
LINE
8
MCD_Layer_0
10
0.249989
20
0.000041
30
0.0
11
-0.250011
21
0.000041
31
0.0
0
LINE
8
MCD_Layer_0
10
-0.057510
20
0.000040
30
0.0
11
-0.057510
21
0.885039
31
0.0
0
LINE
8
MCD_Layer_0
10
-0.057510
20
0.885039
30
0.0
11
-0.271510
21
0.885039
31
0.0
0
LINE
8
MCD_Layer_0
10
-0.271510
20
0.885039
30
0.0
11
-0.271510
21
1.000040
31
0.0
0
LINE
8
MCD_Layer_0
10
-0.271510
20
1.000040
30
0.0
11
0.270489
21
1.000040
31
0.0
0
LINE
8
MCD_Layer_0
10
0.270489
20
1.000040
30
0.0
11
0.270489
21
0.885039
31
0.0
0
LINE
8
MCD_Layer_0
10
0.270489
20
0.885039
30
0.0
11
0.057489
21
0.885039
31
0.0
0
LINE
8
MCD_Layer_0
10
0.057489
20
0.885039
30
0.0
11
0.057489
21
0.000040
31
0.0
0
LINE
8
MCD_Layer_0
10
0.057489
20
0.000040
30
0.0
11
-0.057510
21
0.000040
31
0.0
0
LINE
8
MCD_Layer_0
10
-0.273319
20
0.000040
30
0.0
11
-0.273319
21
1.000040
31
0.0
0
LINE
8
MCD_Layer_0
10
-0.273319
20
1.000040
30
0.0
11
-0.033319
21
1.000040
31
0.0
0
LINE
8
MCD_Layer_0
10
-0.158319
20
0.000040
30
0.0
11
-0.158319
21
0.357440
31
0.0
0
LINE
8
MCD_Layer_0
10
-0.031020
20
0.885039
30
0.0
11
-0.158319
21
0.885039
31
0.0
0
LINE
8
MCD_Layer_0
10
-0.158319
20
0.885039
30
0.0
11
-0.158319
21
0.472440
31
0.0
0
LINE
8
MCD_Layer_0
10
-0.273319
20
0.000040
30
0.0
11
-0.158319
21
0.000040
31
0.0
0
LINE
8
MCD_Layer_0
10
0.154681
20
0.000040
30
0.0
11
0.273281
21
0.000040
31
0.0
0
LINE
8
MCD_Layer_0
10
-0.265523
20
0.000041
30
0.0
11
-0.265523
21
0.758042
31
0.0
0
LINE
8
MCD_Layer_0
10
0.265477
20
0.758042
30
0.0
11
0.265477
21
0.000041
31
0.0
0
LINE
8
MCD_Layer_0
10
-0.150522
20
0.000041
30
0.0
11
-0.150522
21
0.502041
31
0.0
0
LINE
8
MCD_Layer_0
10
-0.150522
20
0.617042
30
0.0
11
-0.150522
21
0.754243
31
0.0
0
LINE
8
MCD_Layer_0
10
0.150477
20
0.754243
30
0.0
11
0.150477
21
0.617042
31
0.0
0
LINE
8
MCD_Layer_0
10
0.150477
20
0.502041
30
0.0
11
0.150477
21
0.000041
31
0.0
0
LINE
8
MCD_Layer_0
10
-0.265523
20
0.000041
30
0.0
11
-0.150522
21
0.000041
31
0.0
0
LINE
8
MCD_Layer_0
10
-0.150522
20
0.502041
30
0.0
11
0.150477
21
0.502041
31
0.0
0
LINE
8
MCD_Layer_0
10
0.150477
20
0.617042
30
0.0
11
-0.150522
21
0.617042
31
0.0
0
LINE
8
MCD_Layer_0
10
0.150477
20
0.000041
30
0.0
11
0.265477
21
0.000041
31
0.0
0
LINE
8
MCD_Layer_0
10
-0.281498
20
0.000043
30
0.0
11
-0.281498
21
1.000043
31
0.0
0
LINE
8
MCD_Layer_0
10
-0.281498
20
1.000043
30
0.0
11
-0.166497
21
1.000043
31
0.0
0
LINE
8
MCD_Layer_0
10
-0.166497
20
1.000043
30
0.0
11
-0.166497
21
0.555143
31
0.0
0
LINE
8
MCD_Layer_0
10
0.134403
20
1.000043
30
0.0
11
0.249601
21
1.000043
31
0.0
0
LINE
8
MCD_Layer_0
10
0.281503
20
0.000043
30
0.0
11
0.163703
21
0.000043
31
0.0
0
LINE
8
MCD_Layer_0
10
-0.166497
20
0.430044
30
0.0
11
-0.166497
21
0.000043
31
0.0
0
LINE
8
MCD_Layer_0
10
-0.166497
20
0.000043
30
0.0
11
-0.281498
21
0.000043
31
0.0
0
LINE
8
MCD_Layer_0
10
-0.057486
20
0.000043
30
0.0
11
-0.057486
21
1.000043
31
0.0
0
LINE
8
MCD_Layer_0
10
-0.057486
20
1.000043
30
0.0
11
0.057514
21
1.000043
31
0.0
0
LINE
8
MCD_Layer_0
10
0.057514
20
1.000043
30
0.0
11
0.057514
21
0.000043
31
0.0
0
LINE
8
MCD_Layer_0
10
0.057514
20
0.000043
30
0.0
11
-0.057486
21
0.000043
31
0.0
0
LINE
8
MCD_Layer_0
10
-0.275958
20
0.000039
30
0.0
11
-0.275958
21
1.000039
31
0.0
0
LINE
8
MCD_Layer_0
10
-0.275958
20
1.000039
30
0.0
11
-0.203358
21
1.000039
31
0.0
0
LINE
8
MCD_Layer_0
10
-0.203358
20
1.000039
30
0.0
11
-0.183158
21
0.948738
31
0.0
0
LINE
8
MCD_Layer_0
10
0.276042
20
0.752338
30
0.0
11
0.276042
21
0.000039
31
0.0
0
LINE
8
MCD_Layer_0
10
-0.160958
20
0.000039
30
0.0
11
-0.160958
21
0.752338
31
0.0
0
LINE
8
MCD_Layer_0
10
0.161042
20
0.752338
30
0.0
11
0.161042
21
0.000039
31
0.0
0
LINE
8
MCD_Layer_0
10
-0.275958
20
0.000039
30
0.0
11
-0.160958
21
0.000039
31
0.0
0
LINE
8
MCD_Layer_0
10
0.161042
20
0.000039
30
0.0
11
0.276042
21
0.000039
31
0.0
0
LINE
8
MCD_Layer_0
10
-0.256900
20
0.173201
30
0.0
11
-0.150201
21
0.216101
31
0.0
0
LINE
8
MCD_Layer_0
10
0.113299
20
0.392901
30
0.0
11
-0.132300
21
0.635900
31
0.0
0
LINE
8
MCD_Layer_0
10
0.248799
20
0.924701
30
0.0
11
0.161698
21
0.842301
31
0.0
0
LINE
8
MCD_Layer_0
10
-0.047601
20
0.713901
30
0.0
11
0.193700
21
0.475201
31
0.0
0
LINE
8
MCD_Layer_0
10
-0.224026
20
0.000037
30
0.0
11
-0.224026
21
1.000037
31
0.0
0
LINE
8
MCD_Layer_0
10
-0.224026
20
1.000037
30
0.0
11
-0.109026
21
1.000037
31
0.0
0
LINE
8
MCD_Layer_0
10
-0.109026
20
1.000037
30
0.0
11
-0.109026
21
0.115036
31
0.0
0
LINE
8
MCD_Layer_0
10
-0.109026
20
0.115036
30
0.0
11
0.224074
21
0.115036
31
0.0
0
LINE
8
MCD_Layer_0
10
0.224074
20
0.115036
30
0.0
11
0.224074
21
0.000037
31
0.0
0
LINE
8
MCD_Layer_0
10
0.224074
20
0.000037
30
0.0
11
-0.224026
21
0.000037
31
0.0
0
LINE
8
MCD_Layer_0
10
-0.223968
20
0.000042
30
0.0
11
-0.223968
21
1.000042
31
0.0
0
LINE
8
MCD_Layer_0
10
-0.223968
20
1.000042
30
0.0
11
0.224032
21
1.000042
31
0.0
0
LINE
8
MCD_Layer_0
10
0.224032
20
1.000042
30
0.0
11
0.224032
21
0.885043
31
0.0
0
LINE
8
MCD_Layer_0
10
0.224032
20
0.885043
30
0.0
11
-0.108968
21
0.885043
31
0.0
0
LINE
8
MCD_Layer_0
10
-0.108968
20
0.885043
30
0.0
11
-0.108968
21
0.617043
31
0.0
0
LINE
8
MCD_Layer_0
10
-0.108968
20
0.617043
30
0.0
11
0.141031
21
0.617043
31
0.0
0
LINE
8
MCD_Layer_0
10
0.141031
20
0.617043
30
0.0
11
0.141031
21
0.502042
31
0.0
0
LINE
8
MCD_Layer_0
10
0.141031
20
0.502042
30
0.0
11
-0.108968
21
0.502042
31
0.0
0
LINE
8
MCD_Layer_0
10
-0.108968
20
0.502042
30
0.0
11
-0.108968
21
0.000042
31
0.0
0
LINE
8
MCD_Layer_0
10
-0.108968
20
0.000042
30
0.0
11
-0.223968
21
0.000042
31
0.0
0
LINE
8
MCD_Layer_0
10
-0.267407
20
0.253139
30
0.0
11
-0.267407
21
0.746940
31
0.0
0
LINE
8
MCD_Layer_0
10
0.267393
20
0.746940
30
0.0
11
0.267393
21
0.253139
31
0.0
0
LINE
8
MCD_Layer_0
10
0.152393
20
0.252639
30
0.0
11
0.152393
21
0.747339
31
0.0
0
LINE
8
MCD_Layer_0
10
-0.152407
20
0.747339
30
0.0
11
-0.152407
21
0.252639
31
0.0
0
LINE
8
MCD_Layer_0
10
-0.272438
20
0.000040
30
0.0
11
-0.272438
21
1.000040
31
0.0
0
LINE
8
MCD_Layer_0
10
-0.272438
20
1.000040
30
0.0
11
-0.032438
21
1.000040
31
0.0
0
LINE
8
MCD_Layer_0
10
-0.272438
20
0.000040
30
0.0
11
-0.157438
21
0.000040
31
0.0
0
LINE
8
MCD_Layer_0
10
-0.157438
20
0.000040
30
0.0
11
-0.157438
21
0.357440
31
0.0
0
LINE
8
MCD_Layer_0
10
-0.157438
20
0.472440
30
0.0
11
-0.157438
21
0.885039
31
0.0
0
LINE
8
MCD_Layer_0
10
-0.157438
20
0.885039
30
0.0
11
-0.030138
21
0.885039
31
0.0
0
LINE
8
MCD_Layer_0
10
-0.300797
20
0.000041
30
0.0
11
-0.300797
21
1.000041
31
0.0
0
LINE
8
MCD_Layer_0
10
-0.300797
20
1.000041
30
0.0
11
-0.132197
21
1.000041
31
0.0
0
LINE
8
MCD_Layer_0
10
-0.132197
20
0.000041
30
0.0
11
-0.300797
21
0.000041
31
0.0
0
LINE
8
MCD_Layer_0
10
-0.185797
20
0.115042
30
0.0
11
-0.134697
21
0.115042
31
0.0
0
LINE
8
MCD_Layer_0
10
-0.134697
20
0.885042
30
0.0
11
-0.185797
21
0.885042
31
0.0
0
LINE
8
MCD_Layer_0
10
-0.185797
20
0.885042
30
0.0
11
-0.185797
21
0.115042
31
0.0
0
LINE
8
MCD_Layer_0
10
0.286473
20
-0.014936
30
0.0
11
0.286473
21
1.000065
31
0.0
0
LINE
8
MCD_Layer_0
10
-0.286528
20
1.000065
30
0.0
11
-0.171427
21
1.000065
31
0.0
0
LINE
8
MCD_Layer_0
10
0.171473
20
0.124264
30
0.0
11
0.171473
21
1.000065
31
0.0
0
LINE
8
MCD_Layer_0
10
0.171473
20
1.000065
30
0.0
11
0.286473
21
1.000065
31
0.0
0
LINE
8
MCD_Layer_0
10
0.329898
20
0.450043
30
0.0
11
0.329898
21
0.084044
31
0.0
0
LINE
8
MCD_Layer_0
10
0.288898
20
0.906043
30
0.0
11
0.200998
21
0.831843
31
0.0
0
LINE
8
MCD_Layer_0
10
0.214899
20
0.135142
30
0.0
11
0.214899
21
0.450043
31
0.0
0
LINE
8
MCD_Layer_0
10
0.214899
20
0.450043
30
0.0
11
0.329898
21
0.450043
31
0.0
0
LINE
8
MCD_Layer_0
10
-0.565900
20
1.000000
30
0.0
11
-0.250900
21
1.000000
31
0.0
0
LINE
8
MCD_Layer_0
10
-0.250900
20
1.000000
30
0.0
11
-0.340301
21
0.925000
31
0.0
0
LINE
8
MCD_Layer_0
10
-0.340301
20
0.925000
30
0.0
11
-0.335700
21
0.348300
31
0.0
0
LINE
8
MCD_Layer_0
10
-0.335700
20
0.348300
30
0.0
11
0.036900
21
1.000000
31
0.0
0
LINE
8
MCD_Layer_0
10
0.036900
20
1.000000
30
0.0
11
0.003700
21
0.349700
31
0.0
0
LINE
8
MCD_Layer_0
10
0.003700
20
0.349700
30
0.0
11
0.369999
21
0.925000
31
0.0
0
LINE
8
MCD_Layer_0
10
0.369999
20
0.925000
30
0.0
11
0.310999
21
1.000000
31
0.0
0
LINE
8
MCD_Layer_0
10
0.310999
20
1.000000
30
0.0
11
0.565900
21
1.000000
31
0.0
0
LINE
8
MCD_Layer_0
10
0.565900
20
1.000000
30
0.0
11
0.476700
21
0.925000
31
0.0
0
LINE
8
MCD_Layer_0
10
0.476700
20
0.925000
30
0.0
11
-0.152600
21
-0.063400
31
0.0
0
LINE
8
MCD_Layer_0
10
-0.152600
20
-0.063400
30
0.0
11
-0.121700
21
0.541300
31
0.0
0
LINE
8
MCD_Layer_0
10
-0.121700
20
0.541300
30
0.0
11
-0.467401
21
-0.063400
31
0.0
0
LINE
8
MCD_Layer_0
10
-0.467401
20
-0.063400
30
0.0
11
-0.475300
21
0.925000
31
0.0
0
LINE
8
MCD_Layer_0
10
-0.475300
20
0.925000
30
0.0
11
-0.565900
21
1.000000
31
0.0
0
LINE
8
MCD_Layer_0
10
-0.344552
20
0.000000
30
0.0
11
-0.258552
21
0.075000
31
0.0
0
LINE
8
MCD_Layer_0
10
-0.258552
20
0.075000
30
0.0
11
-0.007552
21
0.884700
31
0.0
0
LINE
8
MCD_Layer_0
10
-0.007552
20
0.884700
30
0.0
11
-0.029252
21
0.941400
31
0.0
0
LINE
8
MCD_Layer_0
10
0.166648
20
1.024500
30
0.0
11
0.042748
21
0.624800
31
0.0
0
LINE
8
MCD_Layer_0
10
0.337948
20
0.516100
30
0.0
11
0.218448
21
0.130400
31
0.0
0
LINE
8
MCD_Layer_0
10
0.080448
20
0.107400
30
0.0
11
0.211748
21
0.531300
31
0.0
0
LINE
8
MCD_Layer_0
10
-0.016452
20
0.433700
30
0.0
11
-0.127652
21
0.075000
31
0.0
0
LINE
8
MCD_Layer_0
10
-0.127652
20
0.075000
30
0.0
11
-0.088052
21
0.000000
31
0.0
0
LINE
8
MCD_Layer_0
10
-0.088052
20
0.000000
30
0.0
11
-0.344552
21
0.000000
31
0.0
0
LINE
8
MCD_Layer_0
10
-0.155064
20
0.338200
30
0.0
11
0.136935
21
0.410300
31
0.0
0
LINE
8
MCD_Layer_0
10
0.051936
20
0.204700
30
0.0
11
0.155735
21
0.106600
31
0.0
0
LINE
8
MCD_Layer_0
10
0.237036
20
0.352500
30
0.0
11
-0.167164
21
0.252900
31
0.0
0
LINE
8
MCD_Layer_0
10
0.207770
20
1.024500
30
0.0
11
0.094470
21
0.658700
31
0.0
0
LINE
8
MCD_Layer_0
10
0.094470
20
0.658700
30
0.0
11
0.172470
21
0.658700
31
0.0
0
LINE
8
MCD_Layer_0
10
0.172470
20
0.658700
30
0.0
11
0.150770
21
0.588700
31
0.0
0
LINE
8
MCD_Layer_0
10
0.150770
20
0.588700
30
0.0
11
0.072770
21
0.588700
31
0.0
0
LINE
8
MCD_Layer_0
10
0.072770
20
0.588700
30
0.0
11
-0.061830
21
0.154400
31
0.0
0
LINE
8
MCD_Layer_0
10
-0.201830
20
0.125000
30
0.0
11
-0.058130
21
0.588700
31
0.0
0
LINE
8
MCD_Layer_0
10
-0.058130
20
0.588700
30
0.0
11
-0.136130
21
0.588700
31
0.0
0
LINE
8
MCD_Layer_0
10
-0.136130
20
0.588700
30
0.0
11
-0.114430
21
0.658700
31
0.0
0
LINE
8
MCD_Layer_0
10
-0.114430
20
0.658700
30
0.0
11
-0.036430
21
0.658700
31
0.0
0
LINE
8
MCD_Layer_0
10
-0.036430
20
0.658700
30
0.0
11
0.025170
21
0.857500
31
0.0
0
LINE
8
MCD_Layer_0
10
0.025170
20
0.857500
30
0.0
11
0.003470
21
0.914200
31
0.0
0
LINE
8
MCD_Layer_0
10
-0.291213
20
0.000000
30
0.0
11
-0.205112
21
0.075000
31
0.0
0
LINE
8
MCD_Layer_0
10
-0.205112
20
0.075000
30
0.0
11
-0.063313
21
0.532600
31
0.0
0
LINE
8
MCD_Layer_0
10
-0.063313
20
0.532600
30
0.0
11
-0.085012
21
0.589300
31
0.0
0
LINE
8
MCD_Layer_0
10
0.119287
20
0.699600
30
0.0
11
0.090088
21
0.605200
31
0.0
0
LINE
8
MCD_Layer_0
10
0.043188
20
0.454000
30
0.0
11
-0.074212
21
0.075000
31
0.0
0
LINE
8
MCD_Layer_0
10
-0.074212
20
0.075000
30
0.0
11
-0.034713
21
0.000000
31
0.0
0
LINE
8
MCD_Layer_0
10
-0.034713
20
0.000000
30
0.0
11
-0.291213
21
0.000000
31
0.0
0
LINE
8
MCD_Layer_0
10
-0.420850
20
0.684900
30
0.0
11
-0.175850
21
0.684900
31
0.0
0
LINE
8
MCD_Layer_0
10
-0.175850
20
0.684900
30
0.0
11
-0.235850
21
0.609900
31
0.0
0
LINE
8
MCD_Layer_0
10
-0.235850
20
0.609900
30
0.0
11
-0.235850
21
0.320600
31
0.0
0
LINE
8
MCD_Layer_0
10
-0.235850
20
0.320600
30
0.0
11
-0.003750
21
0.684900
31
0.0
0
LINE
8
MCD_Layer_0
10
-0.003750
20
0.684900
30
0.0
11
-0.003750
21
0.304600
31
0.0
0
LINE
8
MCD_Layer_0
10
-0.003750
20
0.304600
30
0.0
11
0.201650
21
0.609900
31
0.0
0
LINE
8
MCD_Layer_0
10
0.201650
20
0.609900
30
0.0
11
0.179750
21
0.684900
31
0.0
0
LINE
8
MCD_Layer_0
10
0.179750
20
0.684900
30
0.0
11
0.420850
21
0.684900
31
0.0
0
LINE
8
MCD_Layer_0
10
0.420850
20
0.684900
30
0.0
11
0.298050
21
0.609900
31
0.0
0
LINE
8
MCD_Layer_0
10
0.298050
20
0.609900
30
0.0
11
-0.128750
21
-0.024500
31
0.0
0
LINE
8
MCD_Layer_0
10
-0.128750
20
-0.024500
30
0.0
11
-0.128750
21
0.339900
31
0.0
0
LINE
8
MCD_Layer_0
10
-0.128750
20
0.339900
30
0.0
11
-0.360850
21
-0.024500
31
0.0
0
LINE
8
MCD_Layer_0
10
-0.360850
20
-0.024500
30
0.0
11
-0.360850
21
0.609900
31
0.0
0
LINE
8
MCD_Layer_0
10
-0.360850
20
0.609900
30
0.0
11
-0.420850
21
0.684900
31
0.0
0
LINE
8
MCD_Layer_0
10
0.036644
20
0.128900
30
0.0
11
0.086544
21
0.289700
31
0.0
0
LINE
8
MCD_Layer_0
10
0.119644
20
0.396600
30
0.0
11
0.158844
21
0.523100
31
0.0
0
LINE
8
MCD_Layer_0
10
0.270444
20
0.460800
30
0.0
11
0.175144
21
0.153300
31
0.0
0
LINE
8
MCD_Layer_0
10
-0.402300
20
0.000000
30
0.0
11
-0.316300
21
0.075000
31
0.0
0
LINE
8
MCD_Layer_0
10
-0.316300
20
0.075000
30
0.0
11
-0.065300
21
0.884700
31
0.0
0
LINE
8
MCD_Layer_0
10
-0.065300
20
0.884700
30
0.0
11
-0.087000
21
0.941400
31
0.0
0
LINE
8
MCD_Layer_0
10
0.108900
20
1.024500
30
0.0
11
-0.101600
21
0.345300
31
0.0
0
LINE
8
MCD_Layer_0
10
-0.101600
20
0.345300
30
0.0
11
0.164100
21
0.610100
31
0.0
0
LINE
8
MCD_Layer_0
10
0.164100
20
0.610100
30
0.0
11
0.154400
21
0.685100
31
0.0
0
LINE
8
MCD_Layer_0
10
0.154400
20
0.685100
30
0.0
11
0.402300
21
0.685100
31
0.0
0
LINE
8
MCD_Layer_0
10
0.402300
20
0.685100
30
0.0
11
0.277500
21
0.610100
31
0.0
0
LINE
8
MCD_Layer_0
10
0.277500
20
0.610100
30
0.0
11
0.072400
21
0.405800
31
0.0
0
LINE
8
MCD_Layer_0
10
0.072400
20
0.405800
30
0.0
11
0.153400
21
0.075000
31
0.0
0
LINE
8
MCD_Layer_0
10
0.153400
20
0.075000
30
0.0
11
0.233600
21
0.000000
31
0.0
0
LINE
8
MCD_Layer_0
10
0.233600
20
0.000000
30
0.0
11
-0.018700
21
0.000000
31
0.0
0
LINE
8
MCD_Layer_0
10
-0.018700
20
0.000000
30
0.0
11
0.024700
21
0.075000
31
0.0
0
LINE
8
MCD_Layer_0
10
0.024700
20
0.075000
30
0.0
11
-0.031100
21
0.302700
31
0.0
0
LINE
8
MCD_Layer_0
10
-0.031100
20
0.302700
30
0.0
11
-0.152200
21
0.181900
31
0.0
0
LINE
8
MCD_Layer_0
10
-0.152200
20
0.181900
30
0.0
11
-0.185400
21
0.075000
31
0.0
0
LINE
8
MCD_Layer_0
10
-0.185400
20
0.075000
30
0.0
11
-0.145800
21
0.000000
31
0.0
0
LINE
8
MCD_Layer_0
10
-0.145800
20
0.000000
30
0.0
11
-0.402300
21
0.000000
31
0.0
0
LINE
8
MCD_Layer_0
10
0.172686
20
0.699600
30
0.0
11
-0.020915
21
0.075000
31
0.0
0
LINE
8
MCD_Layer_0
10
-0.020915
20
0.075000
30
0.0
11
0.018685
21
0.000000
31
0.0
0
LINE
8
MCD_Layer_0
10
0.018685
20
0.000000
30
0.0
11
-0.237815
21
0.000000
31
0.0
0
LINE
8
MCD_Layer_0
10
-0.237815
20
0.000000
30
0.0
11
-0.151715
21
0.075000
31
0.0
0
LINE
8
MCD_Layer_0
10
-0.151715
20
0.075000
30
0.0
11
-0.009914
21
0.532600
31
0.0
0
LINE
8
MCD_Layer_0
10
-0.009914
20
0.532600
30
0.0
11
-0.031615
21
0.589300
31
0.0
0
LINE
8
MCD_Layer_0
10
-0.344601
20
0.000000
30
0.0
11
-0.258501
21
0.075000
31
0.0
0
LINE
8
MCD_Layer_0
10
-0.258501
20
0.075000
30
0.0
11
-0.116701
21
0.532600
31
0.0
0
LINE
8
MCD_Layer_0
10
-0.116701
20
0.532600
30
0.0
11
-0.138401
21
0.589300
31
0.0
0
LINE
8
MCD_Layer_0
10
0.065900
20
0.699600
30
0.0
11
0.042699
21
0.624800
31
0.0
0
LINE
8
MCD_Layer_0
10
0.337998
20
0.516100
30
0.0
11
0.218398
21
0.130400
31
0.0
0
LINE
8
MCD_Layer_0
10
0.080399
20
0.107400
30
0.0
11
0.211800
21
0.531300
31
0.0
0
LINE
8
MCD_Layer_0
10
-0.016501
20
0.433700
30
0.0
11
-0.127601
21
0.075000
31
0.0
0
LINE
8
MCD_Layer_0
10
-0.127601
20
0.075000
30
0.0
11
-0.088101
21
0.000000
31
0.0
0
LINE
8
MCD_Layer_0
10
-0.088101
20
0.000000
30
0.0
11
-0.344601
21
0.000000
31
0.0
0
LINE
8
MCD_Layer_0
10
-0.297550
20
-0.024500
30
0.0
11
-0.214450
21
0.243900
31
0.0
0
LINE
8
MCD_Layer_0
10
-0.191150
20
0.214700
30
0.0
11
-0.174350
21
0.160700
31
0.0
0
LINE
8
MCD_Layer_0
10
0.215050
20
0.634100
30
0.0
11
0.297550
21
0.699500
31
0.0
0
LINE
8
MCD_Layer_0
10
0.297550
20
0.699500
30
0.0
11
0.225750
21
0.468100
31
0.0
0
LINE
8
MCD_Layer_0
10
-0.199350
20
0.053500
30
0.0
11
-0.297550
21
-0.024500
31
0.0
0
LINE
8
MCD_Layer_0
10
-0.255550
20
0.000000
30
0.0
11
-0.169550
21
0.075000
31
0.0
0
LINE
8
MCD_Layer_0
10
-0.169550
20
0.075000
30
0.0
11
0.072950
21
0.857500
31
0.0
0
LINE
8
MCD_Layer_0
10
0.072950
20
0.857500
30
0.0
11
0.051250
21
0.914200
31
0.0
0
LINE
8
MCD_Layer_0
10
0.255550
20
1.024500
30
0.0
11
-0.038650
21
0.075000
31
0.0
0
LINE
8
MCD_Layer_0
10
-0.038650
20
0.075000
30
0.0
11
0.000950
21
0.000000
31
0.0
0
LINE
8
MCD_Layer_0
10
0.000950
20
0.000000
30
0.0
11
-0.255550
21
0.000000
31
0.0
0
LINE
8
MCD_Layer_0
10
-0.296437
20
0.000000
30
0.0
11
-0.210437
21
0.075000
31
0.0
0
LINE
8
MCD_Layer_0
10
-0.210437
20
0.075000
30
0.0
11
-0.059037
21
0.563400
31
0.0
0
LINE
8
MCD_Layer_0
10
0.107063
20
0.658700
30
0.0
11
0.179363
21
0.658700
31
0.0
0
LINE
8
MCD_Layer_0
10
0.179363
20
0.658700
30
0.0
11
0.157663
21
0.588700
31
0.0
0
LINE
8
MCD_Layer_0
10
0.157663
20
0.588700
30
0.0
11
0.079663
21
0.588700
31
0.0
0
LINE
8
MCD_Layer_0
10
0.079663
20
0.588700
30
0.0
11
-0.079537
21
0.075000
31
0.0
0
LINE
8
MCD_Layer_0
10
-0.079537
20
0.075000
30
0.0
11
-0.039937
21
0.000000
31
0.0
0
LINE
8
MCD_Layer_0
10
-0.039937
20
0.000000
30
0.0
11
-0.296437
21
0.000000
31
0.0
0
LINE
8
MCD_Layer_0
10
0.066669
20
0.526800
30
0.0
11
-0.050931
21
0.147400
31
0.0
0
LINE
8
MCD_Layer_0
10
-0.089731
20
0.022200
30
0.0
11
-0.170332
21
-0.238000
31
0.0
0
LINE
8
MCD_Layer_0
10
-0.170332
20
-0.238000
30
0.0
11
-0.151931
21
-0.274600
31
0.0
0
LINE
8
MCD_Layer_0
10
-0.151931
20
-0.274600
30
0.0
11
-0.411530
21
-0.391400
31
0.0
0
LINE
8
MCD_Layer_0
10
-0.411530
20
-0.391400
30
0.0
11
-0.307732
21
-0.259100
31
0.0
0
LINE
8
MCD_Layer_0
10
-0.307732
20
-0.259100
30
0.0
11
-0.062331
21
0.532600
31
0.0
0
LINE
8
MCD_Layer_0
10
-0.062331
20
0.532600
30
0.0
11
-0.084030
21
0.589300
31
0.0
0
LINE
8
MCD_Layer_0
10
0.120269
20
0.699600
30
0.0
11
0.104569
21
0.648900
31
0.0
0
LINE
8
MCD_Layer_0
10
-0.044400
20
0.133800
30
0.0
11
0.081000
21
0.538600
31
0.0
0
LINE
8
MCD_Layer_0
10
0.108000
20
0.625600
30
0.0
11
0.188300
21
0.884700
31
0.0
0
LINE
8
MCD_Layer_0
10
0.188300
20
0.884700
30
0.0
11
0.166600
21
0.941400
31
0.0
0
LINE
8
MCD_Layer_0
10
0.362500
20
1.024500
30
0.0
11
0.092500
21
0.153300
31
0.0
0
LINE
8
MCD_Layer_0
10
-0.332900
20
0.684900
30
0.0
11
-0.087100
21
0.684900
31
0.0
0
LINE
8
MCD_Layer_0
10
-0.087100
20
0.684900
30
0.0
11
-0.141400
21
0.609900
31
0.0
0
LINE
8
MCD_Layer_0
10
-0.141400
20
0.609900
30
0.0
11
-0.114600
21
0.270600
31
0.0
0
LINE
8
MCD_Layer_0
10
-0.114600
20
0.270600
30
0.0
11
0.113700
21
0.609900
31
0.0
0
LINE
8
MCD_Layer_0
10
0.113700
20
0.609900
30
0.0
11
0.091800
21
0.684900
31
0.0
0
LINE
8
MCD_Layer_0
10
0.091800
20
0.684900
30
0.0
11
0.332900
21
0.684900
31
0.0
0
LINE
8
MCD_Layer_0
10
0.332900
20
0.684900
30
0.0
11
0.210100
21
0.609900
31
0.0
0
LINE
8
MCD_Layer_0
10
0.210100
20
0.609900
30
0.0
11
-0.216700
21
-0.024500
31
0.0
0
LINE
8
MCD_Layer_0
10
-0.216700
20
-0.024500
30
0.0
11
-0.266800
21
0.609900
31
0.0
0
LINE
8
MCD_Layer_0
10
-0.266800
20
0.609900
30
0.0
11
-0.332900
21
0.684900
31
0.0
0
LINE
8
MCD_Layer_0
10
0.071946
20
0.138900
30
0.0
11
0.195146
21
0.536600
31
0.0
0
LINE
8
MCD_Layer_0
10
0.225346
20
0.621700
30
0.0
11
0.372046
21
0.685100
31
0.0
0
LINE
8
MCD_Layer_0
10
0.372046
20
0.685100
30
0.0
11
0.119745
21
-0.129100
31
0.0
0
LINE
8
MCD_Layer_0
10
-0.353654
20
-0.170200
30
0.0
11
-0.206754
21
-0.135300
31
0.0
0
LINE
8
MCD_Layer_0
10
-0.017055
20
-0.148100
30
0.0
11
0.025846
21
-0.009800
31
0.0
0
LINE
8
MCD_Layer_0
10
0.134498
20
-0.024500
30
0.0
11
0.053097
21
0.037000
31
0.0
0
LINE
8
MCD_Layer_0
10
0.329797
20
0.945800
30
0.0
11
0.428998
21
1.024500
31
0.0
0
LINE
8
MCD_Layer_0
10
0.428998
20
1.024500
30
0.0
11
0.344897
21
0.753300
31
0.0
0
LINE
8
MCD_Layer_0
10
0.075898
20
0.242700
30
0.0
11
0.136497
21
0.438200
31
0.0
0
LINE
8
MCD_Layer_0
10
0.136497
20
0.438200
30
0.0
11
0.074697
21
0.495200
31
0.0
0
LINE
8
MCD_Layer_0
10
0.074697
20
0.495200
30
0.0
11
0.368097
21
0.495200
31
0.0
0
LINE
8
MCD_Layer_0
10
0.368097
20
0.495200
30
0.0
11
0.277897
21
0.438200
31
0.0
0
LINE
8
MCD_Layer_0
10
0.277897
20
0.438200
30
0.0
11
0.134498
21
-0.024500
31
0.0
0
LINE
8
MCD_Layer_0
10
0.700000
20
0.875000
30
0.0
11
0.525000
21
1.000000
31
0.0
0
LINE
8
MCD_Layer_0
10
0.525000
20
1.000000
30
0.0
11
0.200000
21
1.000000
31
0.0
0
LINE
8
MCD_Layer_0
10
0.200000
20
1.000000
30
0.0
11
0.050000
21
0.850000
31
0.0
0
LINE
8
MCD_Layer_0
10
0.050000
20
0.850000
30
0.0
11
0.050000
21
0.150000
31
0.0
0
LINE
8
MCD_Layer_0
10
0.050000
20
0.150000
30
0.0
11
0.200000
21
0.000000
31
0.0
0
LINE
8
MCD_Layer_0
10
0.200000
20
0.000000
30
0.0
11
0.550000
21
0.000000
31
0.0
0
LINE
8
MCD_Layer_0
10
0.550000
20
0.000000
30
0.0
11
0.700000
21
0.150000
31
0.0
0
LINE
8
MCD_Layer_0
10
0.700000
20
0.150000
30
0.0
11
0.700000
21
0.475000
31
0.0
0
LINE
8
MCD_Layer_0
10
0.700000
20
0.475000
30
0.0
11
0.525000
21
0.600000
31
0.0
0
LINE
8
MCD_Layer_0
10
0.525000
20
0.600000
30
0.0
11
0.200000
21
0.600000
31
0.0
0
LINE
8
MCD_Layer_0
10
0.200000
20
0.600000
30
0.0
11
0.050000
21
0.475000
31
0.0
0
LINE
8
MCD_Layer_0
10
-124.233948
20
13.818923
30
0.0
11
-117.333199
21
13.818923
31
0.0
0
LINE
8
MCD_Layer_0
10
-124.138008
20
17.942310
30
0.0
11
-104.649384
21
17.942310
31
0.0
0
LINE
8
MCD_Layer_0
10
-104.809570
20
13.731014
30
0.0
11
-124.262917
21
13.731014
31
0.0
0
LINE
8
MCD_Layer_0
10
-104.809570
20
13.818923
30
0.0
11
-117.333199
21
13.818923
31
0.0
0
LINE
8
MCD_Layer_0
10
-104.616005
20
18.039017
30
0.0
11
-124.136047
21
18.039017
31
0.0
0
LINE
8
MCD_Layer_0
10
-126.173035
20
15.652313
30
0.0
11
-126.197052
21
15.652313
31
0.0
0
LINE
8
MCD_Layer_0
10
-129.967209
20
18.572624
30
0.0
11
-130.020294
21
18.624033
31
0.0
0
LINE
8
MCD_Layer_0
10
-135.706848
20
14.989900
30
0.0
11
-135.657349
21
14.977047
31
0.0
0
LINE
8
MCD_Layer_0
10
-135.500763
20
5.728044
30
0.0
11
-135.543365
21
6.317400
31
0.0
0
LINE
8
MCD_Layer_0
10
-135.543365
20
6.317400
30
0.0
11
-135.305695
21
5.999007
31
0.0
0
LINE
8
MCD_Layer_0
10
-135.265900
20
5.728886
30
0.0
11
-135.389832
21
5.875536
31
0.0
0
LINE
8
MCD_Layer_0
10
-135.389832
20
5.875536
30
0.0
11
-135.364975
21
5.511625
31
0.0
0
LINE
8
MCD_Layer_0
10
-133.626053
20
6.847775
30
0.0
11
-133.513519
21
6.927870
31
0.0
0
LINE
8
MCD_Layer_0
10
-127.335236
20
16.148569
30
0.0
11
-127.295593
21
16.130133
31
0.0
0
LINE
8
MCD_Layer_0
10
-131.061081
20
12.167049
30
0.0
11
-131.115555
21
12.191452
31
0.0
0
LINE
8
MCD_Layer_0
10
-80.999954
20
20.249996
30
0.0
11
-81.000000
21
0.000000
31
0.0
0
LINE
8
MCD_Layer_0
10
-81.000000
20
0.000000
30
0.0
11
-39.000000
21
0.000000
31
0.0
0
LINE
8
MCD_Layer_0
10
-39.000000
20
0.000000
30
0.0
11
-38.999989
21
20.249985
31
0.0
0
LINE
8
MCD_Layer_0
10
-81.000000
20
7.500000
30
0.0
11
-39.000000
21
7.500000
31
0.0
0
LINE
8
MCD_Layer_1
10
-80.999985
20
7.593750
30
0.0
11
-38.999992
21
7.593750
31
0.0
0
LINE
8
MCD_Layer_1
10
-15.124926
20
0.000000
30
0.0
11
13.651948
21
0.000000
31
0.0
0
LINE
8
MCD_Layer_0
10
-70.745781
20
16.090969
30
0.0
11
-70.761299
21
15.995794
31
0.0
0
LINE
8
MCD_Layer_0
10
-70.761299
20
15.995794
30
0.0
11
-70.792358
21
16.011589
31
0.0
0
LINE
8
MCD_Layer_0
10
-69.753395
20
16.039669
30
0.0
11
-69.675903
21
16.007944
31
0.0
0
LINE
8
MCD_Layer_0
10
-69.381332
20
15.960425
30
0.0
11
-69.303703
21
15.928699
31
0.0
0
LINE
8
MCD_Layer_0
10
-68.993614
20
15.865385
30
0.0
11
-68.931511
21
15.865385
31
0.0
0
LINE
8
MCD_Layer_0
10
-68.667992
20
15.897109
30
0.0
11
-68.590370
21
15.897109
31
0.0
0
LINE
8
MCD_Layer_0
10
-68.295799
20
16.055599
30
0.0
11
-68.218170
21
16.055599
31
0.0
0
LINE
8
MCD_Layer_0
10
-67.939125
20
16.340855
30
0.0
11
-67.892548
21
16.356649
31
0.0
0
LINE
8
MCD_Layer_0
10
-67.427345
20
16.372578
30
0.0
11
-67.442863
21
16.451824
31
0.0
0
LINE
8
MCD_Layer_0
10
-68.094109
20
16.879776
30
0.0
11
-68.171738
21
16.863979
31
0.0
0
LINE
8
MCD_Layer_0
10
-68.218170
20
16.546864
30
0.0
11
-68.311317
21
16.531069
31
0.0
0
LINE
8
MCD_Layer_0
10
-69.489876
20
16.943224
30
0.0
11
-69.396721
21
16.943224
31
0.0
0
LINE
8
MCD_Layer_0
10
-70.032570
20
16.039669
30
0.0
11
-69.986000
21
15.992148
31
0.0
0
LINE
8
MCD_Layer_0
10
-69.613937
20
16.800529
30
0.0
11
-69.675903
21
16.800529
31
0.0
0
LINE
8
MCD_Layer_0
10
-69.877457
20
16.594521
30
0.0
11
-69.955086
21
16.562794
31
0.0
0
LINE
8
MCD_Layer_0
10
-70.141113
20
16.340855
30
0.0
11
-70.125587
21
16.261608
31
0.0
0
LINE
8
MCD_Layer_0
10
-69.582886
20
16.229885
30
0.0
11
-69.520790
21
16.261608
31
0.0
0
LINE
8
MCD_Layer_0
10
-69.241745
20
16.229885
30
0.0
11
-69.381332
21
16.388374
31
0.0
0
LINE
8
MCD_Layer_0
10
-69.381332
20
16.388374
30
0.0
11
-69.319229
21
16.388374
31
0.0
0
LINE
8
MCD_Layer_0
10
-68.978088
20
16.356649
30
0.0
11
-68.915993
21
16.356649
31
0.0
0
LINE
8
MCD_Layer_0
10
-68.854019
20
16.546864
30
0.0
11
-68.761009
21
16.578588
31
0.0
0
LINE
8
MCD_Layer_0
10
-49.254265
20
16.090969
30
0.0
11
-49.238747
21
15.995794
31
0.0
0
LINE
8
MCD_Layer_0
10
-49.238747
20
15.995794
30
0.0
11
-49.207691
21
16.011589
31
0.0
0
LINE
8
MCD_Layer_0
10
-50.246651
20
16.039669
30
0.0
11
-50.324142
21
16.007944
31
0.0
0
LINE
8
MCD_Layer_0
10
-50.618713
20
15.960425
30
0.0
11
-50.696339
21
15.928699
31
0.0
0
LINE
8
MCD_Layer_0
10
-51.006432
20
15.865385
30
0.0
11
-51.068535
21
15.865385
31
0.0
0
LINE
8
MCD_Layer_0
10
-51.332054
20
15.897109
30
0.0
11
-51.409676
21
15.897109
31
0.0
0
LINE
8
MCD_Layer_0
10
-51.704247
20
16.055599
30
0.0
11
-51.781876
21
16.055599
31
0.0
0
LINE
8
MCD_Layer_0
10
-52.060921
20
16.340855
30
0.0
11
-52.107494
21
16.356649
31
0.0
0
LINE
8
MCD_Layer_0
10
-52.572701
20
16.372578
30
0.0
11
-52.557178
21
16.451824
31
0.0
0
LINE
8
MCD_Layer_0
10
-51.905941
20
16.879776
30
0.0
11
-51.828312
21
16.863979
31
0.0
0
LINE
8
MCD_Layer_0
10
-51.781876
20
16.546864
30
0.0
11
-51.688725
21
16.531069
31
0.0
0
LINE
8
MCD_Layer_0
10
-50.510174
20
16.943224
30
0.0
11
-50.603325
21
16.943224
31
0.0
0
LINE
8
MCD_Layer_0
10
-49.967472
20
16.039669
30
0.0
11
-50.014050
21
15.992148
31
0.0
0
LINE
8
MCD_Layer_0
10
-50.386108
20
16.800529
30
0.0
11
-50.324142
21
16.800529
31
0.0
0
LINE
8
MCD_Layer_0
10
-50.122585
20
16.594521
30
0.0
11
-50.044964
21
16.562794
31
0.0
0
LINE
8
MCD_Layer_0
10
-49.858936
20
16.340855
30
0.0
11
-49.874458
21
16.261608
31
0.0
0
LINE
8
MCD_Layer_0
10
-50.417156
20
16.229885
30
0.0
11
-50.479259
21
16.261608
31
0.0
0
LINE
8
MCD_Layer_0
10
-50.758305
20
16.229885
30
0.0
11
-50.618713
21
16.388374
31
0.0
0
LINE
8
MCD_Layer_0
10
-50.618713
20
16.388374
30
0.0
11
-50.680813
21
16.388374
31
0.0
0
LINE
8
MCD_Layer_0
10
-51.021961
20
16.356649
30
0.0
11
-51.084057
21
16.356649
31
0.0
0
LINE
8
MCD_Layer_0
10
-51.146023
20
16.546864
30
0.0
11
-51.239037
21
16.578588
31
0.0
0
LINE
8
MCD_Layer_1
10
-54.232990
20
9.578331
30
0.0
11
-65.767059
21
9.578331
31
0.0
0
LINE
8
MCD_Layer_1
10
-54.095230
20
9.672081
30
0.0
11
-65.904823
21
9.672081
31
0.0
0
LINE
8
MCD_Layer_1
10
-53.728203
20
9.984581
30
0.0
11
-66.271843
21
9.984581
31
0.0
0
LINE
8
MCD_Layer_1
10
-53.613300
20
10.078331
30
0.0
11
-66.386749
21
10.078331
31
0.0
0
LINE
8
MCD_Layer_1
10
-54.247849
20
15.469414
30
0.0
11
-65.752205
21
15.469414
31
0.0
0
LINE
8
MCD_Layer_1
10
-53.879723
20
15.375664
30
0.0
11
-66.120323
21
15.375664
31
0.0
0
LINE
8
MCD_Layer_1
10
-54.480019
20
15.781914
30
0.0
11
-65.520027
21
15.781914
31
0.0
0
LINE
8
MCD_Layer_1
10
-54.765781
20
15.875664
30
0.0
11
-65.234268
21
15.875664
31
0.0
0
LINE
8
MCD_Layer_0
10
-135.223679
20
9.833099
30
0.0
11
-135.257950
21
9.919250
31
0.0
0
LINE
8
MCD_Layer_0
10
-135.641403
20
10.776944
30
0.0
11
-135.669434
21
10.870756
31
0.0
0
LINE
8
MCD_Layer_0
10
-135.433304
20
12.298386
30
0.0
11
-135.400543
21
12.317908
31
0.0
0
LINE
8
MCD_Layer_0
10
-134.928345
20
12.620033
30
0.0
11
-134.961670
21
12.597668
31
0.0
0
LINE
8
MCD_Layer_0
10
-134.672211
20
12.735976
30
0.0
11
-134.710449
21
12.702014
31
0.0
0
LINE
8
MCD_Layer_0
10
-134.577087
20
13.820601
30
0.0
11
-134.609467
21
13.797570
31
0.0
0
LINE
8
MCD_Layer_0
10
-135.751648
20
14.104850
30
0.0
11
-135.781830
21
14.114281
31
0.0
0
LINE
8
MCD_Layer_0
10
-135.360123
20
14.774325
30
0.0
11
-135.382721
21
14.731254
31
0.0
0
LINE
8
MCD_Layer_0
10
-133.764771
20
10.476964
30
0.0
11
-133.725800
21
10.484737
31
0.0
0
LINE
8
MCD_Layer_0
10
-133.995285
20
8.487238
30
0.0
11
-133.962799
21
8.535212
31
0.0
0
LINE
8
MCD_Layer_0
10
-134.447189
20
7.116495
30
0.0
11
-134.414459
21
7.084695
31
0.0
0
LINE
8
MCD_Layer_0
10
-135.293213
20
15.396923
30
0.0
11
-135.282196
21
15.448518
31
0.0
0
LINE
8
MCD_Layer_0
10
-135.127655
20
15.597132
30
0.0
11
-135.100891
21
15.642826
31
0.0
0
LINE
8
MCD_Layer_0
10
-134.589005
20
15.332570
30
0.0
11
-134.565796
21
15.381198
31
0.0
0
LINE
8
MCD_Layer_0
10
-134.414124
20
15.678169
30
0.0
11
-134.390350
21
15.731110
31
0.0
0
LINE
8
MCD_Layer_0
10
-134.150635
20
15.885529
30
0.0
11
-134.124451
21
15.936741
31
0.0
0
LINE
8
MCD_Layer_0
10
-133.954758
20
16.026152
30
0.0
11
-133.930054
21
16.078342
31
0.0
0
LINE
8
MCD_Layer_0
10
-133.712250
20
16.004700
30
0.0
11
-133.679688
21
16.060823
31
0.0
0
LINE
8
MCD_Layer_0
10
-133.350815
20
15.935581
30
0.0
11
-133.332825
21
15.984859
31
0.0
0
LINE
8
MCD_Layer_0
10
-136.239029
20
17.388971
30
0.0
11
-136.268372
21
17.414642
31
0.0
0
LINE
8
MCD_Layer_0
10
-136.023102
20
17.029522
30
0.0
11
-136.050491
21
17.055630
31
0.0
0
LINE
8
MCD_Layer_0
10
-135.848297
20
17.021114
30
0.0
11
-135.824661
21
17.058844
31
0.0
0
LINE
8
MCD_Layer_0
10
-135.644699
20
17.035828
30
0.0
11
-135.623627
21
17.078962
31
0.0
0
LINE
8
MCD_Layer_0
10
-135.389694
20
17.351135
30
0.0
11
-135.418457
21
17.337990
31
0.0
0
LINE
8
MCD_Layer_0
10
-134.703842
20
16.866615
30
0.0
11
-134.731628
21
16.831406
31
0.0
0
LINE
8
MCD_Layer_0
10
-134.343964
20
17.043186
30
0.0
11
-134.313477
21
17.071003
31
0.0
0
LINE
8
MCD_Layer_0
10
-135.759872
20
18.152012
30
0.0
11
-135.773407
21
18.185228
31
0.0
0
LINE
8
MCD_Layer_0
10
-135.597397
20
18.044807
30
0.0
11
-135.562119
21
18.040339
31
0.0
0
LINE
8
MCD_Layer_0
10
-135.406143
20
17.958624
30
0.0
11
-135.366501
21
17.972404
31
0.0
0
LINE
8
MCD_Layer_0
10
-135.268356
20
17.996460
30
0.0
11
-135.238129
21
17.997957
31
0.0
0
LINE
8
MCD_Layer_0
10
-135.066818
20
18.135195
30
0.0
11
-135.030594
21
18.176661
31
0.0
0
LINE
8
MCD_Layer_0
10
-134.820038
20
18.332787
30
0.0
11
-134.784637
21
18.376326
31
0.0
0
LINE
8
MCD_Layer_0
10
-134.441635
20
18.315971
30
0.0
11
-134.407349
21
18.344500
31
0.0
0
LINE
8
MCD_Layer_0
10
-135.930557
20
18.614462
30
0.0
11
-135.914154
21
18.585478
31
0.0
0
LINE
8
MCD_Layer_0
10
-135.644699
20
19.610830
30
0.0
11
-135.628601
21
19.576075
31
0.0
0
LINE
8
MCD_Layer_0
10
-135.276581
20
19.783197
30
0.0
11
-135.301697
21
19.788513
31
0.0
0
LINE
8
MCD_Layer_0
10
-135.029800
20
19.482605
30
0.0
11
-135.062347
21
19.493685
31
0.0
0
LINE
8
MCD_Layer_0
10
-134.830322
20
19.570892
30
0.0
11
-134.803162
21
19.555803
31
0.0
0
LINE
8
MCD_Layer_0
10
-134.595886
20
19.427952
30
0.0
11
-134.575104
21
19.395456
31
0.0
0
LINE
8
MCD_Layer_0
10
-134.248337
20
19.839952
30
0.0
11
-134.222748
21
19.806875
31
0.0
0
LINE
8
MCD_Layer_0
10
-134.118774
20
19.512033
30
0.0
11
-134.090103
21
19.489859
31
0.0
0
LINE
8
MCD_Layer_0
10
-133.888443
20
19.715933
30
0.0
11
-133.851120
21
19.708496
31
0.0
0
LINE
8
MCD_Layer_0
10
-133.638580
20
19.574043
30
0.0
11
-133.606476
21
19.563070
31
0.0
0
LINE
8
MCD_Layer_0
10
-133.338318
20
19.752716
30
0.0
11
-133.306061
21
19.725557
31
0.0
0
LINE
8
MCD_Layer_0
10
-133.926483
20
20.280329
30
0.0
11
-133.903214
21
20.265568
31
0.0
0
LINE
8
MCD_Layer_0
10
-133.685867
20
20.303452
30
0.0
11
-133.660324
21
20.291502
31
0.0
0
LINE
8
MCD_Layer_0
10
-133.373291
20
20.414860
30
0.0
11
-133.343918
21
20.383533
31
0.0
0
LINE
8
MCD_Layer_0
10
-133.095657
20
20.528370
30
0.0
11
-133.123138
21
20.545940
31
0.0
0
LINE
8
MCD_Layer_0
10
-133.239609
20
20.076431
30
0.0
11
-133.264893
21
20.098269
31
0.0
0
LINE
8
MCD_Layer_0
10
-134.293579
20
20.819504
30
0.0
11
-134.317688
21
20.848349
31
0.0
0
LINE
8
MCD_Layer_0
10
-133.983047
20
20.806890
30
0.0
11
-133.951721
21
20.805506
31
0.0
0
LINE
8
MCD_Layer_0
10
-133.520325
20
20.996075
30
0.0
11
-133.491028
21
21.014429
31
0.0
0
LINE
8
MCD_Layer_0
10
-134.664780
20
20.742779
30
0.0
11
-134.641663
21
20.729160
31
0.0
0
LINE
8
MCD_Layer_0
10
-135.009171
20
20.700788
30
0.0
11
-135.022736
21
20.709618
31
0.0
0
LINE
8
MCD_Layer_0
10
-130.045486
20
19.442495
30
0.0
11
-130.040955
21
19.410988
31
0.0
0
LINE
8
MCD_Layer_0
10
-130.150421
20
19.702179
30
0.0
11
-130.138428
21
19.676674
31
0.0
0
LINE
8
MCD_Layer_0
10
-130.443146
20
19.775568
30
0.0
11
-130.438690
21
19.751566
31
0.0
0
LINE
8
MCD_Layer_0
10
-130.378479
20
20.029337
30
0.0
11
-130.415527
21
20.040897
31
0.0
0
LINE
8
MCD_Layer_0
10
-130.506668
20
20.255419
30
0.0
11
-130.476395
21
20.236498
31
0.0
0
LINE
8
MCD_Layer_0
10
-130.506668
20
20.351389
30
0.0
11
-130.496277
21
20.382921
31
0.0
0
LINE
8
MCD_Layer_0
10
-131.393112
20
19.846134
30
0.0
11
-131.366394
21
19.883068
31
0.0
0
LINE
8
MCD_Layer_0
10
-131.221893
20
19.721937
30
0.0
11
-131.187531
21
19.698475
31
0.0
0
LINE
8
MCD_Layer_0
10
-131.210846
20
19.467897
30
0.0
11
-131.180664
21
19.444111
31
0.0
0
LINE
8
MCD_Layer_0
10
-130.926407
20
19.312653
30
0.0
11
-130.923065
21
19.282164
31
0.0
0
LINE
8
MCD_Layer_0
10
-130.912613
20
19.163052
30
0.0
11
-130.895309
21
19.130692
31
0.0
0
LINE
8
MCD_Layer_0
10
-130.818710
20
19.013451
30
0.0
11
-130.808945
21
18.981745
31
0.0
0
LINE
8
MCD_Layer_0
10
-131.506332
20
18.875141
30
0.0
11
-131.470581
21
18.872810
31
0.0
0
LINE
8
MCD_Layer_0
10
-131.961975
20
19.067081
30
0.0
11
-131.927063
21
19.059931
31
0.0
0
LINE
8
MCD_Layer_0
10
-132.203598
20
18.975348
30
0.0
11
-132.163055
21
18.975473
31
0.0
0
LINE
8
MCD_Layer_0
10
-131.930206
20
18.715662
30
0.0
11
-131.884308
21
18.712008
31
0.0
0
LINE
8
MCD_Layer_0
10
-134.102768
20
18.323204
30
0.0
11
-134.071136
21
18.326447
31
0.0
0
LINE
8
MCD_Layer_0
10
-133.826218
20
18.261019
30
0.0
11
-133.795349
21
18.274580
31
0.0
0
LINE
8
MCD_Layer_0
10
-133.573196
20
18.392458
30
0.0
11
-133.541214
21
18.441198
31
0.0
0
LINE
8
MCD_Layer_0
10
-133.873245
20
17.116219
30
0.0
11
-133.838959
21
17.141308
31
0.0
0
LINE
8
MCD_Layer_0
10
-133.469482
20
17.155792
30
0.0
11
-133.431976
21
17.191952
31
0.0
0
LINE
8
MCD_Layer_0
10
-135.023666
20
16.126884
30
0.0
11
-135.010010
21
16.191944
31
0.0
0
LINE
8
MCD_Layer_0
10
-131.384338
20
15.652004
30
0.0
11
-131.407700
21
15.695000
31
0.0
0
LINE
8
MCD_Layer_0
10
-88.493607
20
23.861656
30
0.0
11
-31.431589
21
-19.248400
31
0.0
0
LINE
8
MCD_Layer_0
10
-35.401119
20
24.199774
30
0.0
11
-86.012650
21
-19.248400
31
0.0
0
LINE
8
MCD_Layer_0
10
-125.264610
20
63.257008
30
0.0
11
-117.145607
21
63.257008
31
0.0
0
LINE
8
MCD_Layer_0
10
-125.159943
20
67.755249
30
0.0
11
-103.717812
21
67.755249
31
0.0
0
LINE
8
MCD_Layer_0
10
-103.892563
20
63.161106
30
0.0
11
-125.296211
21
63.161106
31
0.0
0
LINE
8
MCD_Layer_0
10
-103.892563
20
63.257008
30
0.0
11
-117.145607
21
63.257008
31
0.0
0
LINE
8
MCD_Layer_0
10
-103.681396
20
67.860748
30
0.0
11
-125.157806
21
67.860748
31
0.0
0
LINE
8
MCD_Layer_0
10
-128.246613
20
65.572563
30
0.0
11
-128.270630
21
65.572563
31
0.0
0
LINE
8
MCD_Layer_0
10
-132.040787
20
68.492874
30
0.0
11
-132.093872
21
68.544281
31
0.0
0
LINE
8
MCD_Layer_0
10
-137.780426
20
64.910156
30
0.0
11
-137.730927
21
64.897301
31
0.0
0
LINE
8
MCD_Layer_0
10
-137.574341
20
55.648296
30
0.0
11
-137.616943
21
56.237652
31
0.0
0
LINE
8
MCD_Layer_0
10
-137.616943
20
56.237652
30
0.0
11
-137.379272
21
55.919258
31
0.0
0
LINE
8
MCD_Layer_0
10
-137.339478
20
55.649139
30
0.0
11
-137.463409
21
55.795788
31
0.0
0
LINE
8
MCD_Layer_0
10
-137.463409
20
55.795788
30
0.0
11
-137.438553
21
55.431877
31
0.0
0
LINE
8
MCD_Layer_0
10
-135.699631
20
56.768028
30
0.0
11
-135.587097
21
56.848122
31
0.0
0
LINE
8
MCD_Layer_0
10
-129.408813
20
66.068817
30
0.0
11
-129.369171
21
66.050385
31
0.0
0
LINE
8
MCD_Layer_0
10
-133.134659
20
62.087303
30
0.0
11
-133.189133
21
62.111702
31
0.0
0
LINE
8
MCD_Layer_0
10
-140.999954
20
72.250000
30
0.0
11
-141.000000
21
50.000000
31
0.0
0
LINE
8
MCD_Layer_0
10
-141.000000
20
50.000000
30
0.0
11
-99.000000
21
50.000000
31
0.0
0
LINE
8
MCD_Layer_0
10
-99.000000
20
50.000000
30
0.0
11
-98.999985
21
72.249985
31
0.0
0
LINE
8
MCD_Layer_0
10
-137.297256
20
59.753349
30
0.0
11
-137.331528
21
59.839500
31
0.0
0
LINE
8
MCD_Layer_0
10
-137.714981
20
60.697197
30
0.0
11
-137.743011
21
60.791008
31
0.0
0
LINE
8
MCD_Layer_0
10
-137.506882
20
62.218636
30
0.0
11
-137.474121
21
62.238159
31
0.0
0
LINE
8
MCD_Layer_0
10
-137.001923
20
62.540283
30
0.0
11
-137.035248
21
62.517921
31
0.0
0
LINE
8
MCD_Layer_0
10
-136.745789
20
62.656227
30
0.0
11
-136.784027
21
62.622265
31
0.0
0
LINE
8
MCD_Layer_0
10
-136.650665
20
63.740852
30
0.0
11
-136.683044
21
63.717823
31
0.0
0
LINE
8
MCD_Layer_0
10
-137.825226
20
64.025101
30
0.0
11
-137.855408
21
64.034531
31
0.0
0
LINE
8
MCD_Layer_0
10
-137.433701
20
64.694580
30
0.0
11
-137.456299
21
64.651505
31
0.0
0
LINE
8
MCD_Layer_0
10
-135.838348
20
60.397217
30
0.0
11
-135.799377
21
60.404991
31
0.0
0
LINE
8
MCD_Layer_0
10
-136.068863
20
58.407490
30
0.0
11
-136.036377
21
58.455463
31
0.0
0
LINE
8
MCD_Layer_0
10
-136.520767
20
57.036747
30
0.0
11
-136.488037
21
57.004948
31
0.0
0
LINE
8
MCD_Layer_0
10
-137.366791
20
65.317177
30
0.0
11
-137.355774
21
65.368774
31
0.0
0
LINE
8
MCD_Layer_0
10
-137.201233
20
65.517380
30
0.0
11
-137.174469
21
65.563080
31
0.0
0
LINE
8
MCD_Layer_0
10
-136.662582
20
65.252823
30
0.0
11
-136.639374
21
65.301453
31
0.0
0
LINE
8
MCD_Layer_0
10
-136.487701
20
65.598419
30
0.0
11
-136.463928
21
65.651360
31
0.0
0
LINE
8
MCD_Layer_0
10
-136.224213
20
65.805779
30
0.0
11
-136.198029
21
65.856995
31
0.0
0
LINE
8
MCD_Layer_0
10
-136.028336
20
65.946404
30
0.0
11
-136.003632
21
65.998596
31
0.0
0
LINE
8
MCD_Layer_0
10
-135.785828
20
65.924957
30
0.0
11
-135.753265
21
65.981079
31
0.0
0
LINE
8
MCD_Layer_0
10
-135.424393
20
65.855835
30
0.0
11
-135.406403
21
65.905106
31
0.0
0
LINE
8
MCD_Layer_0
10
-138.312607
20
67.309219
30
0.0
11
-138.341949
21
67.334892
31
0.0
0
LINE
8
MCD_Layer_0
10
-138.096680
20
66.949776
30
0.0
11
-138.124069
21
66.975883
31
0.0
0
LINE
8
MCD_Layer_0
10
-137.921875
20
66.941368
30
0.0
11
-137.898239
21
66.979095
31
0.0
0
LINE
8
MCD_Layer_0
10
-137.718277
20
66.956078
30
0.0
11
-137.697205
21
66.999214
31
0.0
0
LINE
8
MCD_Layer_0
10
-137.463272
20
67.271385
30
0.0
11
-137.492035
21
67.258240
31
0.0
0
LINE
8
MCD_Layer_0
10
-136.777420
20
66.786865
30
0.0
11
-136.805206
21
66.751656
31
0.0
0
LINE
8
MCD_Layer_0
10
-136.417542
20
66.963440
30
0.0
11
-136.387054
21
66.991257
31
0.0
0
LINE
8
MCD_Layer_0
10
-137.833450
20
68.072266
30
0.0
11
-137.846985
21
68.105484
31
0.0
0
LINE
8
MCD_Layer_0
10
-137.670975
20
67.965057
30
0.0
11
-137.635696
21
67.960587
31
0.0
0
LINE
8
MCD_Layer_0
10
-137.479721
20
67.878876
30
0.0
11
-137.440079
21
67.892654
31
0.0
0
LINE
8
MCD_Layer_0
10
-137.341934
20
67.916710
30
0.0
11
-137.311707
21
67.918213
31
0.0
0
LINE
8
MCD_Layer_0
10
-137.140396
20
68.055450
30
0.0
11
-137.104172
21
68.096909
31
0.0
0
LINE
8
MCD_Layer_0
10
-136.893616
20
68.253036
30
0.0
11
-136.858215
21
68.296577
31
0.0
0
LINE
8
MCD_Layer_0
10
-136.515213
20
68.236221
30
0.0
11
-136.480927
21
68.264755
31
0.0
0
LINE
8
MCD_Layer_0
10
-138.004135
20
68.534714
30
0.0
11
-137.987732
21
68.505730
31
0.0
0
LINE
8
MCD_Layer_0
10
-137.718277
20
69.531082
30
0.0
11
-137.702179
21
69.496323
31
0.0
0
LINE
8
MCD_Layer_0
10
-137.350159
20
69.703445
30
0.0
11
-137.375275
21
69.708763
31
0.0
0
LINE
8
MCD_Layer_0
10
-137.103378
20
69.402855
30
0.0
11
-137.135925
21
69.413940
31
0.0
0
LINE
8
MCD_Layer_0
10
-136.903900
20
69.491142
30
0.0
11
-136.876740
21
69.476059
31
0.0
0
LINE
8
MCD_Layer_0
10
-136.669464
20
69.348206
30
0.0
11
-136.648682
21
69.315704
31
0.0
0
LINE
8
MCD_Layer_0
10
-136.321915
20
69.760208
30
0.0
11
-136.296326
21
69.727127
31
0.0
0
LINE
8
MCD_Layer_0
10
-136.192352
20
69.432281
30
0.0
11
-136.163681
21
69.410110
31
0.0
0
LINE
8
MCD_Layer_0
10
-135.962021
20
69.636185
30
0.0
11
-135.924698
21
69.628746
31
0.0
0
LINE
8
MCD_Layer_0
10
-135.712158
20
69.494293
30
0.0
11
-135.680054
21
69.483322
31
0.0
0
LINE
8
MCD_Layer_0
10
-135.411896
20
69.672966
30
0.0
11
-135.379639
21
69.645813
31
0.0
0
LINE
8
MCD_Layer_0
10
-136.000061
20
70.200577
30
0.0
11
-135.976791
21
70.185822
31
0.0
0
LINE
8
MCD_Layer_0
10
-135.759445
20
70.223701
30
0.0
11
-135.733902
21
70.211754
31
0.0
0
LINE
8
MCD_Layer_0
10
-135.446869
20
70.335114
30
0.0
11
-135.417496
21
70.303787
31
0.0
0
LINE
8
MCD_Layer_0
10
-135.169235
20
70.448624
30
0.0
11
-135.196716
21
70.466194
31
0.0
0
LINE
8
MCD_Layer_0
10
-135.313187
20
69.996681
30
0.0
11
-135.338470
21
70.018524
31
0.0
0
LINE
8
MCD_Layer_0
10
-136.367157
20
70.739754
30
0.0
11
-136.391266
21
70.768600
31
0.0
0
LINE
8
MCD_Layer_0
10
-136.056625
20
70.727142
30
0.0
11
-136.025299
21
70.725754
31
0.0
0
LINE
8
MCD_Layer_0
10
-135.593903
20
70.916328
30
0.0
11
-135.564606
21
70.934677
31
0.0
0
LINE
8
MCD_Layer_0
10
-136.738358
20
70.663033
30
0.0
11
-136.715240
21
70.649414
31
0.0
0
LINE
8
MCD_Layer_0
10
-137.082748
20
70.621040
30
0.0
11
-137.096313
21
70.629868
31
0.0
0
LINE
8
MCD_Layer_0
10
-132.119064
20
69.362747
30
0.0
11
-132.114532
21
69.331238
31
0.0
0
LINE
8
MCD_Layer_0
10
-132.223999
20
69.622429
30
0.0
11
-132.212006
21
69.596924
31
0.0
0
LINE
8
MCD_Layer_0
10
-132.516724
20
69.695816
30
0.0
11
-132.512268
21
69.671814
31
0.0
0
LINE
8
MCD_Layer_0
10
-132.452057
20
69.949585
30
0.0
11
-132.489105
21
69.961151
31
0.0
0
LINE
8
MCD_Layer_0
10
-132.580246
20
70.175674
30
0.0
11
-132.549973
21
70.156754
31
0.0
0
LINE
8
MCD_Layer_0
10
-132.580246
20
70.271637
30
0.0
11
-132.569855
21
70.303177
31
0.0
0
LINE
8
MCD_Layer_0
10
-133.466690
20
69.766388
30
0.0
11
-133.439972
21
69.803322
31
0.0
0
LINE
8
MCD_Layer_0
10
-133.295471
20
69.642189
30
0.0
11
-133.261108
21
69.618729
31
0.0
0
LINE
8
MCD_Layer_0
10
-133.284424
20
69.388153
30
0.0
11
-133.254242
21
69.364365
31
0.0
0
LINE
8
MCD_Layer_0
10
-132.999985
20
69.232903
30
0.0
11
-132.996643
21
69.202415
31
0.0
0
LINE
8
MCD_Layer_0
10
-132.986191
20
69.083305
30
0.0
11
-132.968887
21
69.050941
31
0.0
0
LINE
8
MCD_Layer_0
10
-132.892288
20
68.933701
30
0.0
11
-132.882523
21
68.901993
31
0.0
0
LINE
8
MCD_Layer_0
10
-133.579910
20
68.795395
30
0.0
11
-133.544159
21
68.793060
31
0.0
0
LINE
8
MCD_Layer_0
10
-134.035553
20
68.987335
30
0.0
11
-134.000641
21
68.980179
31
0.0
0
LINE
8
MCD_Layer_0
10
-134.277176
20
68.895599
30
0.0
11
-134.236633
21
68.895721
31
0.0
0
LINE
8
MCD_Layer_0
10
-134.003784
20
68.635910
30
0.0
11
-133.957886
21
68.632263
31
0.0
0
LINE
8
MCD_Layer_0
10
-136.176346
20
68.243454
30
0.0
11
-136.144714
21
68.246696
31
0.0
0
LINE
8
MCD_Layer_0
10
-135.899796
20
68.181274
30
0.0
11
-135.868927
21
68.194832
31
0.0
0
LINE
8
MCD_Layer_0
10
-135.646774
20
68.312714
30
0.0
11
-135.614792
21
68.361450
31
0.0
0
LINE
8
MCD_Layer_0
10
-135.946823
20
67.036469
30
0.0
11
-135.912537
21
67.061562
31
0.0
0
LINE
8
MCD_Layer_0
10
-135.543060
20
67.076042
30
0.0
11
-135.505554
21
67.112206
31
0.0
0
LINE
8
MCD_Layer_0
10
-137.097244
20
66.047134
30
0.0
11
-137.083588
21
66.112198
31
0.0
0
LINE
8
MCD_Layer_0
10
-133.457916
20
65.572250
30
0.0
11
-133.481277
21
65.615250
31
0.0
0
LINE
8
MCD_Layer_0
10
-138.000000
20
0.000000
30
0.0
11
-102.000000
21
0.000000
31
0.0
0
LINE
8
MCD_Layer_0
10
-138.000000
20
0.000000
30
0.0
11
-138.000000
21
22.500000
31
0.0
0
LINE
8
MCD_Layer_0
10
-102.000000
20
0.000000
30
0.0
11
-102.000000
21
22.500000
31
0.0
0
LINE
8
MCD_Layer_0
10
-190.750870
20
11.248948
30
0.0
11
-183.131851
21
11.248948
31
0.0
0
LINE
8
MCD_Layer_0
10
-190.646194
20
15.747189
30
0.0
11
-169.204056
21
15.747189
31
0.0
0
LINE
8
MCD_Layer_0
10
-169.378815
20
11.153048
30
0.0
11
-190.782455
21
11.153048
31
0.0
0
LINE
8
MCD_Layer_0
10
-169.378815
20
11.248948
30
0.0
11
-183.131851
21
11.248948
31
0.0
0
LINE
8
MCD_Layer_0
10
-169.167648
20
15.852688
30
0.0
11
-190.644058
21
15.852688
31
0.0
0
LINE
8
MCD_Layer_0
10
-198.000000
20
0.000000
30
0.0
11
-162.000000
21
0.000000
31
0.0
0
LINE
8
MCD_Layer_0
10
-198.000000
20
0.000000
30
0.0
11
-198.000000
21
22.500000
31
0.0
0
LINE
8
MCD_Layer_0
10
-162.000000
20
0.000000
30
0.0
11
-162.000000
21
22.500000
31
0.0
0
LINE
8
MCD_Layer_0
10
-28.961218
20
29.647367
30
0.0
11
27.620581
21
-17.223255
31
0.0
0
LINE
8
MCD_Layer_0
10
-25.743296
20
-17.223255
30
0.0
11
27.084261
21
31.291950
31
0.0
0
LINE
8
MCD_Layer_0
10
-136.233948
20
8.547256
30
0.0
11
-138.000000
21
8.547256
31
0.0
0
LINE
8
MCD_Layer_0
10
-136.253052
20
8.453506
30
0.0
11
-138.000000
21
8.453506
31
0.0
0
LINE
8
MCD_Layer_0
10
-131.542542
20
8.547256
30
0.0
11
-102.000000
21
8.547256
31
0.0
0
LINE
8
MCD_Layer_0
10
-131.637268
20
8.453506
30
0.0
11
-102.000000
21
8.453506
31
0.0
0
LINE
8
MCD_Layer_0
10
-147.562500
20
25.312500
30
0.0
11
-92.937500
21
-20.062500
31
0.0
0
LINE
8
MCD_Layer_0
10
-99.375000
20
27.250000
30
0.0
11
-148.125000
21
-17.562500
31
0.0
0
LINE
8
MCD_Layer_0
10
-138.527710
20
57.500000
30
0.0
11
-140.999985
21
57.500000
31
0.0
0
LINE
8
MCD_Layer_0
10
-138.504059
20
57.593750
30
0.0
11
-140.999985
21
57.593750
31
0.0
0
LINE
8
MCD_Layer_0
10
-135.060989
20
57.593750
30
0.0
11
-99.000000
21
57.593750
31
0.0
0
LINE
8
MCD_Layer_0
10
-135.071350
20
57.500000
30
0.0
11
-99.000000
21
57.500000
31
0.0
0
LINE
8
MCD_Layer_0
10
-200.999954
20
72.250000
30
0.0
11
-201.000000
21
50.000000
31
0.0
0
LINE
8
MCD_Layer_0
10
-201.000000
20
50.000000
30
0.0
11
-159.000000
21
50.000000
31
0.0
0
LINE
8
MCD_Layer_0
10
-159.000000
20
50.000000
30
0.0
11
-158.999985
21
72.249985
31
0.0
0
LINE
8
MCD_Layer_0
10
-190.750870
20
61.248947
30
0.0
11
-183.131851
21
61.248947
31
0.0
0
LINE
8
MCD_Layer_0
10
-190.646194
20
65.747192
30
0.0
11
-169.204056
21
65.747192
31
0.0
0
LINE
8
MCD_Layer_0
10
-169.378815
20
61.153046
30
0.0
11
-190.782455
21
61.153046
31
0.0
0
LINE
8
MCD_Layer_0
10
-169.378815
20
61.248947
30
0.0
11
-183.131851
21
61.248947
31
0.0
0
LINE
8
MCD_Layer_0
10
-169.167648
20
65.852692
30
0.0
11
-190.644058
21
65.852692
31
0.0
0
LINE
8
MCD_Layer_0
10
-209.976303
20
25.710459
30
0.0
11
-151.324951
21
-20.214447
31
0.0
0
LINE
8
MCD_Layer_0
10
-155.629639
20
24.885460
30
0.0
11
-205.940659
21
-16.914454
31
0.0
0
ARC
8
MCD_Layer_0
10
-2.133769
20
1.366789
40
2.334670
50
324.166548
51
339.992575
0
ARC
8
MCD_Layer_0
10
0.004732
20
0.072337
40
0.072492
50
10.397096
51
266.256916
0
ARC
8
MCD_Layer_0
10
-0.157611
20
-0.317843
40
0.354775
50
63.624256
51
89.229428
0
ARC
8
MCD_Layer_0
10
-0.052486
20
-0.021701
40
0.056795
50
22.463439
51
337.539158
0
ARC
8
MCD_Layer_0
10
-0.038342
20
-0.014215
40
0.040892
50
20.341405
51
338.803541
0
ARC
8
MCD_Layer_0
10
-0.002653
20
0.050003
40
0.050074
50
273.037177
51
166.961734
0
ARC
8
MCD_Layer_0
10
-0.044986
20
-0.014500
40
0.047265
50
17.865202
51
342.134798
0
ARC
8
MCD_Layer_0
10
-0.027952
20
-0.007655
40
0.028981
50
15.315157
51
345.397014
0
ARC
8
MCD_Layer_0
10
0.046679
20
0.112636
40
0.121926
50
247.489979
51
302.002238
0
ARC
8
MCD_Layer_0
10
0.023959
20
-0.000522
40
0.023965
50
178.751160
51
22.658376
0
ARC
8
MCD_Layer_0
10
0.000245
20
0.056098
40
0.056098
50
269.750013
51
349.121144
0
ARC
8
MCD_Layer_0
10
-0.034021
20
-0.029258
40
0.044872
50
40.695485
51
25.557120
0
ARC
8
MCD_Layer_0
10
0.108578
20
0.402719
40
0.417100
50
213.633004
51
254.911127
0
CIRCLE
8
MCD_Layer_0
10
0.000000
20
0.000000
40
1.000000
0
CIRCLE
8
MCD_Layer_0
10
-0.002200
20
0.066773
40
0.076224
0
CIRCLE
8
MCD_Layer_0
10
0.000000
20
0.062494
40
0.062500
0
ENDSEC
0
EOF
