0
SECTION
2
ENTITIES
0
LINE
8
MCD_Layer_0
10
-0.141000
20
0.000000
30
0.0
11
-0.141000
21
0.062500
31
0.0
0
LINE
8
MCD_Layer_0
10
-0.141000
20
0.062500
30
0.0
11
-0.078000
21
0.062500
31
0.0
0
LINE
8
MCD_Layer_0
10
-0.057000
20
0.083500
30
0.0
11
-0.057000
21
0.917000
31
0.0
0
LINE
8
MCD_Layer_0
10
-0.078000
20
0.938000
30
0.0
11
-0.266500
21
0.938000
31
0.0
0
LINE
8
MCD_Layer_0
10
-0.286500
20
0.917000
30
0.0
11
-0.286500
21
0.818000
31
0.0
0
LINE
8
MCD_Layer_0
10
-0.286500
20
0.818000
30
0.0
11
-0.349000
21
0.818000
31
0.0
0
LINE
8
MCD_Layer_0
10
-0.349000
20
0.818000
30
0.0
11
-0.349000
21
1.000000
31
0.0
0
LINE
8
MCD_Layer_0
10
-0.349000
20
1.000000
30
0.0
11
0.349000
21
1.000000
31
0.0
0
LINE
8
MCD_Layer_0
10
0.349000
20
1.000000
30
0.0
11
0.349000
21
0.818000
31
0.0
0
LINE
8
MCD_Layer_0
10
0.349000
20
0.818000
30
0.0
11
0.286500
21
0.818000
31
0.0
0
LINE
8
MCD_Layer_0
10
0.286500
20
0.818000
30
0.0
11
0.286500
21
0.917000
31
0.0
0
LINE
8
MCD_Layer_0
10
0.265500
20
0.938000
30
0.0
11
0.078000
21
0.938000
31
0.0
0
LINE
8
MCD_Layer_0
10
0.057000
20
0.917000
30
0.0
11
0.057000
21
0.083500
31
0.0
0
LINE
8
MCD_Layer_0
10
0.078000
20
0.062500
30
0.0
11
0.141000
21
0.062500
31
0.0
0
LINE
8
MCD_Layer_0
10
0.141000
20
0.062500
30
0.0
11
0.141000
21
0.000000
31
0.0
0
LINE
8
MCD_Layer_0
10
0.141000
20
0.000000
30
0.0
11
-0.141000
21
0.000000
31
0.0
0
LINE
8
MCD_Layer_0
10
-0.336000
20
0.000000
30
0.0
11
-0.336000
21
0.062500
31
0.0
0
LINE
8
MCD_Layer_0
10
-0.336000
20
0.062500
30
0.0
11
-0.273000
21
0.062500
31
0.0
0
LINE
8
MCD_Layer_0
10
-0.253000
20
0.083500
30
0.0
11
-0.253000
21
0.917500
31
0.0
0
LINE
8
MCD_Layer_0
10
-0.273000
20
0.937500
30
0.0
11
-0.336000
21
0.937500
31
0.0
0
LINE
8
MCD_Layer_0
10
-0.336000
20
0.937500
30
0.0
11
-0.336000
21
1.000000
31
0.0
0
LINE
8
MCD_Layer_0
10
-0.336000
20
1.000000
30
0.0
11
0.237000
21
1.000000
31
0.0
0
LINE
8
MCD_Layer_0
10
0.237000
20
1.000000
30
0.0
11
0.237000
21
0.813000
31
0.0
0
LINE
8
MCD_Layer_0
10
0.237000
20
0.813000
30
0.0
11
0.179000
21
0.813000
31
0.0
0
LINE
8
MCD_Layer_0
10
0.179000
20
0.813000
30
0.0
11
0.179000
21
0.896000
31
0.0
0
LINE
8
MCD_Layer_0
10
0.138000
20
0.938000
30
0.0
11
-0.138000
21
0.938000
31
0.0
0
LINE
8
MCD_Layer_0
10
-0.138000
20
0.938000
30
0.0
11
-0.138000
21
0.563000
31
0.0
0
LINE
8
MCD_Layer_0
10
-0.138000
20
0.563000
30
0.0
11
0.064300
21
0.563000
31
0.0
0
LINE
8
MCD_Layer_0
10
0.085300
20
0.583000
30
0.0
11
0.085300
21
0.635000
31
0.0
0
LINE
8
MCD_Layer_0
10
0.085300
20
0.635000
30
0.0
11
0.148000
21
0.635000
31
0.0
0
LINE
8
MCD_Layer_0
10
0.148000
20
0.635000
30
0.0
11
0.148000
21
0.429700
31
0.0
0
LINE
8
MCD_Layer_0
10
0.148000
20
0.429700
30
0.0
11
0.085300
21
0.429700
31
0.0
0
LINE
8
MCD_Layer_0
10
0.085300
20
0.429700
30
0.0
11
0.085300
21
0.481700
31
0.0
0
LINE
8
MCD_Layer_0
10
0.064300
20
0.501700
30
0.0
11
-0.138000
21
0.501700
31
0.0
0
LINE
8
MCD_Layer_0
10
-0.138000
20
0.501700
30
0.0
11
-0.138000
21
0.109000
31
0.0
0
LINE
8
MCD_Layer_0
10
0.251700
20
0.160100
30
0.0
11
0.279200
21
0.241100
31
0.0
0
LINE
8
MCD_Layer_0
10
0.279200
20
0.241100
30
0.0
11
0.336000
21
0.214000
31
0.0
0
LINE
8
MCD_Layer_0
10
0.336000
20
0.214000
30
0.0
11
0.263000
21
0.000000
31
0.0
0
LINE
8
MCD_Layer_0
10
0.263000
20
0.000000
30
0.0
11
-0.336000
21
0.000000
31
0.0
0
LINE
8
MCD_Layer_0
10
-0.363000
20
0.000000
30
0.0
11
-0.363000
21
0.062500
31
0.0
0
LINE
8
MCD_Layer_0
10
-0.363000
20
0.062500
30
0.0
11
-0.300000
21
0.062500
31
0.0
0
LINE
8
MCD_Layer_0
10
-0.280000
20
0.083500
30
0.0
11
-0.280000
21
0.917500
31
0.0
0
LINE
8
MCD_Layer_0
10
-0.300000
20
0.937500
30
0.0
11
-0.363000
21
0.937500
31
0.0
0
LINE
8
MCD_Layer_0
10
-0.363000
20
0.937500
30
0.0
11
-0.363000
21
1.000000
31
0.0
0
LINE
8
MCD_Layer_0
10
-0.363000
20
1.000000
30
0.0
11
-0.019000
21
1.000000
31
0.0
0
LINE
8
MCD_Layer_0
10
0.347000
20
0.052000
30
0.0
11
0.363000
21
0.016000
31
0.0
0
LINE
8
MCD_Layer_0
10
-0.165000
20
0.479000
30
0.0
11
-0.165000
21
0.083500
31
0.0
0
LINE
8
MCD_Layer_0
10
-0.144000
20
0.062500
30
0.0
11
-0.082000
21
0.062500
31
0.0
0
LINE
8
MCD_Layer_0
10
-0.082000
20
0.062500
30
0.0
11
-0.082000
21
0.000000
31
0.0
0
LINE
8
MCD_Layer_0
10
-0.082000
20
0.000000
30
0.0
11
-0.363000
21
0.000000
31
0.0
0
LINE
8
MCD_Layer_0
10
-0.050000
20
0.938000
30
0.0
11
-0.165000
21
0.938000
31
0.0
0
LINE
8
MCD_Layer_0
10
-0.165000
20
0.938000
30
0.0
11
-0.165000
21
0.542000
31
0.0
0
LINE
8
MCD_Layer_0
10
-0.288400
20
0.000000
30
0.0
11
-0.288400
21
0.291000
31
0.0
0
LINE
8
MCD_Layer_0
10
-0.288400
20
0.291000
30
0.0
11
-0.224200
21
0.291000
31
0.0
0
LINE
8
MCD_Layer_0
10
-0.224200
20
0.291000
30
0.0
11
-0.224200
21
0.259800
31
0.0
0
LINE
8
MCD_Layer_0
10
0.112700
20
0.390000
30
0.0
11
-0.194400
21
0.660000
31
0.0
0
LINE
8
MCD_Layer_0
10
0.188700
20
1.044000
30
0.0
11
0.188700
21
1.059000
31
0.0
0
LINE
8
MCD_Layer_0
10
0.188700
20
1.059000
30
0.0
11
0.244700
21
1.059000
31
0.0
0
LINE
8
MCD_Layer_0
10
0.244700
20
1.059000
30
0.0
11
0.244700
21
0.809000
31
0.0
0
LINE
8
MCD_Layer_0
10
0.244700
20
0.809000
30
0.0
11
0.188700
21
0.809000
31
0.0
0
LINE
8
MCD_Layer_0
10
0.188700
20
0.809000
30
0.0
11
0.188700
21
0.830000
31
0.0
0
LINE
8
MCD_Layer_0
10
-0.078400
20
0.697000
30
0.0
11
0.154700
21
0.520000
31
0.0
0
LINE
8
MCD_Layer_0
10
-0.224200
20
0.000000
30
0.0
11
-0.288400
21
0.000000
31
0.0
0
LINE
8
MCD_Layer_0
10
-0.437500
20
0.000000
30
0.0
11
-0.437500
21
0.062500
31
0.0
0
LINE
8
MCD_Layer_0
10
-0.437500
20
0.062500
30
0.0
11
-0.398500
21
0.062500
31
0.0
0
LINE
8
MCD_Layer_0
10
-0.358500
20
0.090500
30
0.0
11
-0.015500
21
1.052000
31
0.0
0
LINE
8
MCD_Layer_0
10
-0.015500
20
1.052000
30
0.0
11
0.328500
21
0.090500
31
0.0
0
LINE
8
MCD_Layer_0
10
0.368500
20
0.062500
30
0.0
11
0.437500
21
0.062500
31
0.0
0
LINE
8
MCD_Layer_0
10
0.437500
20
0.062500
30
0.0
11
0.437500
21
0.000000
31
0.0
0
LINE
8
MCD_Layer_0
10
0.437500
20
0.000000
30
0.0
11
0.130500
21
0.000000
31
0.0
0
LINE
8
MCD_Layer_0
10
0.130500
20
0.000000
30
0.0
11
0.130500
21
0.062500
31
0.0
0
LINE
8
MCD_Layer_0
10
0.130500
20
0.062500
30
0.0
11
0.185500
21
0.062500
31
0.0
0
LINE
8
MCD_Layer_0
10
0.204500
20
0.089500
30
0.0
11
0.097500
21
0.375000
31
0.0
0
LINE
8
MCD_Layer_0
10
0.097500
20
0.375000
30
0.0
11
-0.191500
21
0.375000
31
0.0
0
LINE
8
MCD_Layer_0
10
-0.191500
20
0.375000
30
0.0
11
-0.298500
21
0.089500
31
0.0
0
LINE
8
MCD_Layer_0
10
-0.278500
20
0.062500
30
0.0
11
-0.223500
21
0.062500
31
0.0
0
LINE
8
MCD_Layer_0
10
-0.223500
20
0.062500
30
0.0
11
-0.223500
21
0.000000
31
0.0
0
LINE
8
MCD_Layer_0
10
-0.223500
20
0.000000
30
0.0
11
-0.437500
21
0.000000
31
0.0
0
LINE
8
MCD_Layer_0
10
-0.169500
20
0.438000
30
0.0
11
0.075500
21
0.438000
31
0.0
0
LINE
8
MCD_Layer_0
10
0.075500
20
0.438000
30
0.0
11
-0.047500
21
0.788000
31
0.0
0
LINE
8
MCD_Layer_0
10
-0.047500
20
0.788000
30
0.0
11
-0.169500
21
0.438000
31
0.0
0
LINE
8
MCD_Layer_0
10
-0.331500
20
0.000000
30
0.0
11
-0.331500
21
0.062500
31
0.0
0
LINE
8
MCD_Layer_0
10
-0.331500
20
0.062500
30
0.0
11
-0.268500
21
0.062500
31
0.0
0
LINE
8
MCD_Layer_0
10
-0.248500
20
0.083500
30
0.0
11
-0.248500
21
0.917500
31
0.0
0
LINE
8
MCD_Layer_0
10
-0.268500
20
0.937500
30
0.0
11
-0.331500
21
0.937500
31
0.0
0
LINE
8
MCD_Layer_0
10
-0.331500
20
0.937500
30
0.0
11
-0.331500
21
1.000000
31
0.0
0
LINE
8
MCD_Layer_0
10
-0.331500
20
1.000000
30
0.0
11
-0.050500
21
1.000000
31
0.0
0
LINE
8
MCD_Layer_0
10
-0.050500
20
1.000000
30
0.0
11
-0.050500
21
0.937500
31
0.0
0
LINE
8
MCD_Layer_0
10
-0.050500
20
0.937500
30
0.0
11
-0.112500
21
0.937500
31
0.0
0
LINE
8
MCD_Layer_0
10
-0.133500
20
0.917500
30
0.0
11
-0.133500
21
0.109000
31
0.0
0
LINE
8
MCD_Layer_0
10
0.260700
20
0.172900
30
0.0
11
0.273200
21
0.209500
31
0.0
0
LINE
8
MCD_Layer_0
10
0.273200
20
0.209500
30
0.0
11
0.331500
21
0.187000
31
0.0
0
LINE
8
MCD_Layer_0
10
0.331500
20
0.187000
30
0.0
11
0.267500
21
0.000000
31
0.0
0
LINE
8
MCD_Layer_0
10
0.267500
20
0.000000
30
0.0
11
-0.331500
21
0.000000
31
0.0
0
LINE
8
MCD_Layer_0
10
-0.443000
20
0.937100
30
0.0
11
-0.443000
21
0.999600
31
0.0
0
LINE
8
MCD_Layer_0
10
-0.443000
20
0.999600
30
0.0
11
-0.125000
21
0.999600
31
0.0
0
LINE
8
MCD_Layer_0
10
-0.125000
20
0.999600
30
0.0
11
-0.125000
21
0.937100
31
0.0
0
LINE
8
MCD_Layer_0
10
-0.125000
20
0.937100
30
0.0
11
-0.203000
21
0.937100
31
0.0
0
LINE
8
MCD_Layer_0
10
-0.221000
20
0.905100
30
0.0
11
0.026000
21
0.510600
31
0.0
0
LINE
8
MCD_Layer_0
10
0.026000
20
0.510600
30
0.0
11
0.259000
21
0.906100
31
0.0
0
LINE
8
MCD_Layer_0
10
0.241000
20
0.937100
30
0.0
11
0.182000
21
0.937100
31
0.0
0
LINE
8
MCD_Layer_0
10
0.182000
20
0.937100
30
0.0
11
0.182000
21
0.999600
31
0.0
0
LINE
8
MCD_Layer_0
10
0.182000
20
0.999600
30
0.0
11
0.443000
21
0.999600
31
0.0
0
LINE
8
MCD_Layer_0
10
0.443000
20
0.999600
30
0.0
11
0.443000
21
0.937100
31
0.0
0
LINE
8
MCD_Layer_0
10
0.443000
20
0.937100
30
0.0
11
0.353000
21
0.937100
31
0.0
0
LINE
8
MCD_Layer_0
10
0.335000
20
0.926100
30
0.0
11
0.047000
21
0.432600
31
0.0
0
LINE
8
MCD_Layer_0
10
0.047000
20
0.432600
30
0.0
11
0.047000
21
0.083100
31
0.0
0
LINE
8
MCD_Layer_0
10
0.068000
20
0.062100
30
0.0
11
0.130000
21
0.062100
31
0.0
0
LINE
8
MCD_Layer_0
10
0.130000
20
0.062100
30
0.0
11
0.130000
21
0.000000
31
0.0
0
LINE
8
MCD_Layer_0
10
0.130000
20
0.000000
30
0.0
11
-0.151000
21
0.000000
31
0.0
0
LINE
8
MCD_Layer_0
10
-0.151000
20
0.000000
30
0.0
11
-0.151000
21
0.062100
31
0.0
0
LINE
8
MCD_Layer_0
10
-0.151000
20
0.062100
30
0.0
11
-0.088000
21
0.062100
31
0.0
0
LINE
8
MCD_Layer_0
10
-0.068000
20
0.083100
30
0.0
11
-0.068000
21
0.432600
31
0.0
0
LINE
8
MCD_Layer_0
10
-0.068000
20
0.432600
30
0.0
11
-0.374000
21
0.926100
31
0.0
0
LINE
8
MCD_Layer_0
10
-0.392000
20
0.937100
30
0.0
11
-0.443000
21
0.937100
31
0.0
0
LINE
8
MCD_Layer_0
10
-0.416500
20
0.000000
30
0.0
11
-0.416500
21
0.062500
31
0.0
0
LINE
8
MCD_Layer_0
10
-0.416500
20
0.062500
30
0.0
11
-0.353500
21
0.062500
31
0.0
0
LINE
8
MCD_Layer_0
10
-0.333500
20
0.083500
30
0.0
11
-0.333500
21
0.917500
31
0.0
0
LINE
8
MCD_Layer_0
10
-0.353500
20
0.937500
30
0.0
11
-0.416500
21
0.937500
31
0.0
0
LINE
8
MCD_Layer_0
10
-0.416500
20
0.937500
30
0.0
11
-0.416500
21
1.000000
31
0.0
0
LINE
8
MCD_Layer_0
10
-0.416500
20
1.000000
30
0.0
11
-0.270500
21
1.000000
31
0.0
0
LINE
8
MCD_Layer_0
10
-0.270500
20
1.000000
30
0.0
11
0.271500
21
0.260000
31
0.0
0
LINE
8
MCD_Layer_0
10
0.271500
20
0.260000
30
0.0
11
0.271500
21
0.917500
31
0.0
0
LINE
8
MCD_Layer_0
10
0.250500
20
0.937500
30
0.0
11
0.187500
21
0.937500
31
0.0
0
LINE
8
MCD_Layer_0
10
0.187500
20
0.937500
30
0.0
11
0.187500
21
1.000000
31
0.0
0
LINE
8
MCD_Layer_0
10
0.187500
20
1.000000
30
0.0
11
0.416500
21
1.000000
31
0.0
0
LINE
8
MCD_Layer_0
10
0.416500
20
1.000000
30
0.0
11
0.416500
21
0.937500
31
0.0
0
LINE
8
MCD_Layer_0
10
0.416500
20
0.937500
30
0.0
11
0.354500
21
0.937500
31
0.0
0
LINE
8
MCD_Layer_0
10
0.333500
20
0.917500
30
0.0
11
0.333500
21
-0.037000
31
0.0
0
LINE
8
MCD_Layer_0
10
0.333500
20
-0.037000
30
0.0
11
-0.270500
21
0.807000
31
0.0
0
LINE
8
MCD_Layer_0
10
-0.270500
20
0.807000
30
0.0
11
-0.270500
21
0.083500
31
0.0
0
LINE
8
MCD_Layer_0
10
-0.249500
20
0.062500
30
0.0
11
-0.187500
21
0.062500
31
0.0
0
LINE
8
MCD_Layer_0
10
-0.187500
20
0.062500
30
0.0
11
-0.187500
21
0.000000
31
0.0
0
LINE
8
MCD_Layer_0
10
-0.187500
20
0.000000
30
0.0
11
-0.416500
21
0.000000
31
0.0
0
LINE
8
MCD_Layer_0
10
-0.316200
20
0.000000
30
0.0
11
-0.316200
21
0.062500
31
0.0
0
LINE
8
MCD_Layer_0
10
-0.316200
20
0.062500
30
0.0
11
-0.253200
21
0.062500
31
0.0
0
LINE
8
MCD_Layer_0
10
-0.233200
20
0.083500
30
0.0
11
-0.233200
21
0.917500
31
0.0
0
LINE
8
MCD_Layer_0
10
-0.253200
20
0.937500
30
0.0
11
-0.326200
21
0.937500
31
0.0
0
LINE
8
MCD_Layer_0
10
-0.326200
20
0.937500
30
0.0
11
-0.326200
21
1.000000
31
0.0
0
LINE
8
MCD_Layer_0
10
-0.326200
20
1.000000
30
0.0
11
0.042800
21
1.000000
31
0.0
0
LINE
8
MCD_Layer_0
10
0.037800
20
0.000000
30
0.0
11
-0.316200
21
0.000000
31
0.0
0
LINE
8
MCD_Layer_0
10
0.017800
20
0.500000
30
0.0
11
-0.118200
21
0.500000
31
0.0
0
LINE
8
MCD_Layer_0
10
-0.118200
20
0.500000
30
0.0
11
-0.118200
21
0.109000
31
0.0
0
LINE
8
MCD_Layer_0
10
-0.118200
20
0.563000
30
0.0
11
0.004800
21
0.563000
31
0.0
0
LINE
8
MCD_Layer_0
10
-0.004200
20
0.938000
30
0.0
11
-0.118200
21
0.938000
31
0.0
0
LINE
8
MCD_Layer_0
10
-0.118200
20
0.938000
30
0.0
11
-0.118200
21
0.563000
31
0.0
0
LINE
8
MCD_Layer_0
10
-0.547000
20
0.937100
30
0.0
11
-0.547000
21
0.999600
31
0.0
0
LINE
8
MCD_Layer_0
10
-0.547000
20
0.999600
30
0.0
11
-0.234000
21
0.999600
31
0.0
0
LINE
8
MCD_Layer_0
10
-0.234000
20
0.999600
30
0.0
11
-0.234000
21
0.937100
31
0.0
0
LINE
8
MCD_Layer_0
10
-0.234000
20
0.937100
30
0.0
11
-0.315000
21
0.937100
31
0.0
0
LINE
8
MCD_Layer_0
10
-0.335000
20
0.910100
30
0.0
11
-0.130000
21
0.312600
31
0.0
0
LINE
8
MCD_Layer_0
10
-0.130000
20
0.312600
30
0.0
11
0.042000
21
1.030600
31
0.0
0
LINE
8
MCD_Layer_0
10
0.042000
20
1.030600
30
0.0
11
0.213000
21
0.317600
31
0.0
0
LINE
8
MCD_Layer_0
10
0.213000
20
0.317600
30
0.0
11
0.395000
21
0.911500
31
0.0
0
LINE
8
MCD_Layer_0
10
0.375000
20
0.937500
30
0.0
11
0.297000
21
0.937500
31
0.0
0
LINE
8
MCD_Layer_0
10
0.297000
20
0.937500
30
0.0
11
0.297000
21
0.999600
31
0.0
0
LINE
8
MCD_Layer_0
10
0.297000
20
0.999600
30
0.0
11
0.547000
21
0.999600
31
0.0
0
LINE
8
MCD_Layer_0
10
0.547000
20
0.999600
30
0.0
11
0.547000
21
0.937500
31
0.0
0
LINE
8
MCD_Layer_0
10
0.547000
20
0.937500
30
0.0
11
0.481000
21
0.937500
31
0.0
0
LINE
8
MCD_Layer_0
10
0.461000
20
0.922500
30
0.0
11
0.182000
21
-0.042400
31
0.0
0
LINE
8
MCD_Layer_0
10
0.182000
20
-0.042400
30
0.0
11
0.010000
21
0.640600
31
0.0
0
LINE
8
MCD_Layer_0
10
0.010000
20
0.640600
30
0.0
11
-0.141000
21
-0.042400
31
0.0
0
LINE
8
MCD_Layer_0
10
-0.141000
20
-0.042400
30
0.0
11
-0.469000
21
0.923100
31
0.0
0
LINE
8
MCD_Layer_0
10
-0.489000
20
0.937100
30
0.0
11
-0.547000
21
0.937100
31
0.0
0
LINE
8
MCD_Layer_0
10
-0.409000
20
0.000000
30
0.0
11
-0.409000
21
0.062500
31
0.0
0
LINE
8
MCD_Layer_0
10
-0.409000
20
0.062500
30
0.0
11
-0.346000
21
0.062500
31
0.0
0
LINE
8
MCD_Layer_0
10
-0.326000
20
0.083500
30
0.0
11
-0.326000
21
0.917500
31
0.0
0
LINE
8
MCD_Layer_0
10
-0.346000
20
0.937500
30
0.0
11
-0.409000
21
0.937500
31
0.0
0
LINE
8
MCD_Layer_0
10
-0.409000
20
0.937500
30
0.0
11
-0.409000
21
1.000000
31
0.0
0
LINE
8
MCD_Layer_0
10
-0.409000
20
1.000000
30
0.0
11
-0.128000
21
1.000000
31
0.0
0
LINE
8
MCD_Layer_0
10
-0.128000
20
1.000000
30
0.0
11
-0.128000
21
0.937500
31
0.0
0
LINE
8
MCD_Layer_0
10
-0.128000
20
0.937500
30
0.0
11
-0.190000
21
0.937500
31
0.0
0
LINE
8
MCD_Layer_0
10
-0.211000
20
0.917500
30
0.0
11
-0.211000
21
0.563000
31
0.0
0
LINE
8
MCD_Layer_0
10
-0.211000
20
0.563000
30
0.0
11
0.211000
21
0.563000
31
0.0
0
LINE
8
MCD_Layer_0
10
0.211000
20
0.563000
30
0.0
11
0.211000
21
0.917500
31
0.0
0
LINE
8
MCD_Layer_0
10
0.190000
20
0.937500
30
0.0
11
0.128000
21
0.937500
31
0.0
0
LINE
8
MCD_Layer_0
10
0.128000
20
0.937500
30
0.0
11
0.128000
21
1.000000
31
0.0
0
LINE
8
MCD_Layer_0
10
0.128000
20
1.000000
30
0.0
11
0.409000
21
1.000000
31
0.0
0
LINE
8
MCD_Layer_0
10
0.409000
20
1.000000
30
0.0
11
0.409000
21
0.937500
31
0.0
0
LINE
8
MCD_Layer_0
10
0.409000
20
0.937500
30
0.0
11
0.346000
21
0.937500
31
0.0
0
LINE
8
MCD_Layer_0
10
0.325000
20
0.917500
30
0.0
11
0.325000
21
0.083500
31
0.0
0
LINE
8
MCD_Layer_0
10
0.346000
20
0.062500
30
0.0
11
0.409000
21
0.062500
31
0.0
0
LINE
8
MCD_Layer_0
10
0.409000
20
0.062500
30
0.0
11
0.409000
21
0.000000
31
0.0
0
LINE
8
MCD_Layer_0
10
0.409000
20
0.000000
30
0.0
11
0.128000
21
0.000000
31
0.0
0
LINE
8
MCD_Layer_0
10
0.128000
20
0.000000
30
0.0
11
0.128000
21
0.062500
31
0.0
0
LINE
8
MCD_Layer_0
10
0.128000
20
0.062500
30
0.0
11
0.190000
21
0.062500
31
0.0
0
LINE
8
MCD_Layer_0
10
0.211000
20
0.083500
30
0.0
11
0.211000
21
0.500000
31
0.0
0
LINE
8
MCD_Layer_0
10
0.211000
20
0.500000
30
0.0
11
-0.211000
21
0.500000
31
0.0
0
LINE
8
MCD_Layer_0
10
-0.211000
20
0.500000
30
0.0
11
-0.211000
21
0.083500
31
0.0
0
LINE
8
MCD_Layer_0
10
-0.190000
20
0.062500
30
0.0
11
-0.128000
21
0.062500
31
0.0
0
LINE
8
MCD_Layer_0
10
-0.128000
20
0.062500
30
0.0
11
-0.128000
21
0.000000
31
0.0
0
LINE
8
MCD_Layer_0
10
-0.128000
20
0.000000
30
0.0
11
-0.409000
21
0.000000
31
0.0
0
LINE
8
MCD_Layer_0
10
-0.414000
20
0.938600
30
0.0
11
-0.414000
21
1.001100
31
0.0
0
LINE
8
MCD_Layer_0
10
-0.414000
20
1.001100
30
0.0
11
-0.132000
21
1.001100
31
0.0
0
LINE
8
MCD_Layer_0
10
-0.132000
20
1.001100
30
0.0
11
-0.132000
21
0.938600
31
0.0
0
LINE
8
MCD_Layer_0
10
-0.132000
20
0.938600
30
0.0
11
-0.195000
21
0.938600
31
0.0
0
LINE
8
MCD_Layer_0
10
-0.216000
20
0.918600
30
0.0
11
-0.216000
21
0.293100
31
0.0
0
LINE
8
MCD_Layer_0
10
0.269000
20
0.261100
30
0.0
11
0.269000
21
0.918600
31
0.0
0
LINE
8
MCD_Layer_0
10
0.248000
20
0.938600
30
0.0
11
0.185000
21
0.938600
31
0.0
0
LINE
8
MCD_Layer_0
10
0.185000
20
0.938600
30
0.0
11
0.185000
21
1.001100
31
0.0
0
LINE
8
MCD_Layer_0
10
0.185000
20
1.001100
30
0.0
11
0.414000
21
1.001100
31
0.0
0
LINE
8
MCD_Layer_0
10
0.414000
20
1.001100
30
0.0
11
0.414000
21
0.938600
31
0.0
0
LINE
8
MCD_Layer_0
10
0.414000
20
0.938600
30
0.0
11
0.352000
21
0.938600
31
0.0
0
LINE
8
MCD_Layer_0
10
0.331000
20
0.918600
30
0.0
11
0.331200
21
0.248500
31
0.0
0
LINE
8
MCD_Layer_0
10
-0.330000
20
0.272100
30
0.0
11
-0.330000
21
0.918600
31
0.0
0
LINE
8
MCD_Layer_0
10
-0.351000
20
0.938600
30
0.0
11
-0.414000
21
0.938600
31
0.0
0
LINE
8
MCD_Layer_0
10
0.403700
20
0.407400
30
0.0
11
0.403700
21
0.350100
31
0.0
0
LINE
8
MCD_Layer_0
10
0.403700
20
0.350100
30
0.0
11
0.340700
21
0.350100
31
0.0
0
LINE
8
MCD_Layer_0
10
0.319700
20
0.329100
30
0.0
11
0.319700
21
-0.018900
31
0.0
0
LINE
8
MCD_Layer_0
10
0.319700
20
-0.018900
30
0.0
11
0.267700
21
-0.018900
31
0.0
0
LINE
8
MCD_Layer_0
10
0.267700
20
-0.018900
30
0.0
11
0.267700
21
-0.003900
31
0.0
0
LINE
8
MCD_Layer_0
10
0.236700
20
1.032100
30
0.0
11
0.294300
21
1.032100
31
0.0
0
LINE
8
MCD_Layer_0
10
0.294300
20
1.032100
30
0.0
11
0.294300
21
0.730100
31
0.0
0
LINE
8
MCD_Layer_0
10
0.294300
20
0.730100
30
0.0
11
0.236700
21
0.730100
31
0.0
0
LINE
8
MCD_Layer_0
10
0.205700
20
0.220100
30
0.0
11
0.205700
21
0.329100
31
0.0
0
LINE
8
MCD_Layer_0
10
0.184700
20
0.350100
30
0.0
11
0.121700
21
0.350100
31
0.0
0
LINE
8
MCD_Layer_0
10
0.121700
20
0.350100
30
0.0
11
0.121700
21
0.407400
31
0.0
0
LINE
8
MCD_Layer_0
10
0.121700
20
0.407400
30
0.0
11
0.403700
21
0.407400
31
0.0
0
LINE
8
MCD_Layer_0
10
-0.114500
20
0.000000
30
0.0
11
-0.114500
21
0.052000
31
0.0
0
LINE
8
MCD_Layer_0
10
-0.114500
20
0.052000
30
0.0
11
-0.093500
21
0.052000
31
0.0
0
LINE
8
MCD_Layer_0
10
-0.051500
20
0.095000
30
0.0
11
-0.051500
21
0.829000
31
0.0
0
LINE
8
MCD_Layer_0
10
-0.093500
20
0.872000
30
0.0
11
-0.114500
21
0.872000
31
0.0
0
LINE
8
MCD_Layer_0
10
-0.114500
20
0.872000
30
0.0
11
-0.114500
21
0.936000
31
0.0
0
LINE
8
MCD_Layer_0
10
0.010500
20
1.063000
30
0.0
11
0.052500
21
1.063000
31
0.0
0
LINE
8
MCD_Layer_0
10
0.052500
20
1.063000
30
0.0
11
0.052500
21
0.095000
31
0.0
0
LINE
8
MCD_Layer_0
10
0.093500
20
0.052000
30
0.0
11
0.114500
21
0.052000
31
0.0
0
LINE
8
MCD_Layer_0
10
0.114500
20
0.052000
30
0.0
11
0.114500
21
0.000000
31
0.0
0
LINE
8
MCD_Layer_0
10
0.114500
20
0.000000
30
0.0
11
-0.114500
21
0.000000
31
0.0
0
LINE
8
MCD_Layer_0
10
-0.352200
20
0.094100
30
0.0
11
-0.317200
21
0.150100
31
0.0
0
LINE
8
MCD_Layer_0
10
-0.215200
20
0.466100
30
0.0
11
-0.299200
21
0.508100
31
0.0
0
LINE
8
MCD_Layer_0
10
-0.299200
20
0.508100
30
0.0
11
-0.194200
21
0.998100
31
0.0
0
LINE
8
MCD_Layer_0
10
-0.194200
20
0.998100
30
0.0
11
0.305800
21
0.998100
31
0.0
0
LINE
8
MCD_Layer_0
10
0.305800
20
0.998100
30
0.0
11
0.305800
21
0.765100
31
0.0
0
LINE
8
MCD_Layer_0
10
0.305800
20
0.765100
30
0.0
11
0.242800
21
0.765100
31
0.0
0
LINE
8
MCD_Layer_0
10
0.242800
20
0.765100
30
0.0
11
0.242800
21
0.850100
31
0.0
0
LINE
8
MCD_Layer_0
10
0.200800
20
0.893100
30
0.0
11
-0.132200
21
0.893100
31
0.0
0
LINE
8
MCD_Layer_0
10
-0.132200
20
0.893100
30
0.0
11
-0.194200
21
0.614100
31
0.0
0
LINE
8
MCD_Layer_0
10
-0.329600
20
-0.032164
30
0.0
11
-0.329600
21
0.031836
31
0.0
0
LINE
8
MCD_Layer_0
10
0.182400
20
0.701236
30
0.0
11
0.182900
21
0.747236
31
0.0
0
LINE
8
MCD_Layer_0
10
-0.234200
20
0.747236
30
0.0
11
-0.234200
21
0.674236
31
0.0
0
LINE
8
MCD_Layer_0
10
0.327700
20
1.032200
30
0.0
11
0.327700
21
0.968200
31
0.0
0
LINE
8
MCD_Layer_0
10
-0.184300
20
0.298800
30
0.0
11
-0.184800
21
0.252800
31
0.0
0
LINE
8
MCD_Layer_0
10
0.232300
20
0.252800
30
0.0
11
0.232300
21
0.325800
31
0.0
0
LINE
8
MCD_Layer_0
10
-0.218800
20
0.723100
30
0.0
11
-0.281300
21
0.723100
31
0.0
0
LINE
8
MCD_Layer_0
10
-0.281300
20
0.723100
30
0.0
11
-0.281300
21
1.042100
31
0.0
0
LINE
8
MCD_Layer_0
10
-0.281300
20
1.042100
30
0.0
11
-0.198000
21
1.042100
31
0.0
0
LINE
8
MCD_Layer_0
10
-0.218800
20
0.104200
30
0.0
11
0.094700
21
0.104200
31
0.0
0
LINE
8
MCD_Layer_0
10
0.213800
20
0.191200
30
0.0
11
0.239200
21
0.270700
31
0.0
0
LINE
8
MCD_Layer_0
10
0.239200
20
0.270700
30
0.0
11
0.294100
21
0.239600
31
0.0
0
LINE
8
MCD_Layer_0
10
0.294100
20
0.239600
30
0.0
11
0.218700
21
0.000000
31
0.0
0
LINE
8
MCD_Layer_0
10
0.218700
20
0.000000
30
0.0
11
-0.281300
21
0.000000
31
0.0
0
LINE
8
MCD_Layer_0
10
-0.385800
20
0.000000
30
0.0
11
-0.385800
21
0.062500
31
0.0
0
LINE
8
MCD_Layer_0
10
-0.385800
20
0.062500
30
0.0
11
-0.333800
21
0.062500
31
0.0
0
LINE
8
MCD_Layer_0
10
-0.312800
20
0.083500
30
0.0
11
-0.312800
21
0.917500
31
0.0
0
LINE
8
MCD_Layer_0
10
-0.333800
20
0.937500
30
0.0
11
-0.385800
21
0.937500
31
0.0
0
LINE
8
MCD_Layer_0
10
-0.385800
20
0.937500
30
0.0
11
-0.385800
21
1.000000
31
0.0
0
LINE
8
MCD_Layer_0
10
-0.385800
20
1.000000
30
0.0
11
0.015200
21
1.000000
31
0.0
0
LINE
8
MCD_Layer_0
10
-0.031800
20
0.000000
30
0.0
11
-0.385800
21
0.000000
31
0.0
0
LINE
8
MCD_Layer_0
10
-0.036800
20
0.938000
30
0.0
11
-0.197800
21
0.938000
31
0.0
0
LINE
8
MCD_Layer_0
10
-0.197800
20
0.938000
30
0.0
11
-0.197800
21
0.151000
31
0.0
0
LINE
8
MCD_Layer_0
10
0.362100
20
0.325495
30
0.0
11
0.362100
21
0.262495
31
0.0
0
LINE
8
MCD_Layer_0
10
0.276100
20
1.033495
30
0.0
11
0.276100
21
1.044495
31
0.0
0
LINE
8
MCD_Layer_0
10
0.276100
20
1.044495
30
0.0
11
0.335100
21
1.044495
31
0.0
0
LINE
8
MCD_Layer_0
10
0.335100
20
1.044495
30
0.0
11
0.335100
21
0.742495
31
0.0
0
LINE
8
MCD_Layer_0
10
0.335100
20
0.742495
30
0.0
11
0.271100
21
0.742495
31
0.0
0
LINE
8
MCD_Layer_0
10
0.271100
20
0.742495
30
0.0
11
0.271100
21
0.778495
31
0.0
0
LINE
8
MCD_Layer_0
10
0.295100
20
0.262495
30
0.0
11
0.295100
21
0.325495
31
0.0
0
LINE
8
MCD_Layer_0
10
0.295100
20
0.325495
30
0.0
11
0.362100
21
0.325495
31
0.0
0
LINE
8
MCD_Layer_11
10
-0.203100
20
-0.078100
30
0.0
11
0.203100
21
-0.078100
31
0.0
0
LINE
8
MCD_Layer_11
10
0.203100
20
-0.078100
30
0.0
11
0.203100
21
1.107000
31
0.0
0
LINE
8
MCD_Layer_11
10
0.203100
20
1.513200
30
0.0
11
0.203100
21
2.078100
31
0.0
0
LINE
8
MCD_Layer_11
10
0.203100
20
2.078100
30
0.0
11
-0.203100
21
2.078100
31
0.0
0
LINE
8
MCD_Layer_11
10
-0.203100
20
2.078100
30
0.0
11
-0.203100
21
1.513200
31
0.0
0
LINE
8
MCD_Layer_11
10
-0.203100
20
1.107000
30
0.0
11
-0.203100
21
-0.078100
31
0.0
0
LINE
8
MCD_Layer_11
10
-0.125000
20
0.000000
30
0.0
11
0.125000
21
0.000000
31
0.0
0
LINE
8
MCD_Layer_11
10
0.125000
20
0.000000
30
0.0
11
0.125000
21
1.185100
31
0.0
0
LINE
8
MCD_Layer_11
10
0.125000
20
1.435100
30
0.0
11
0.125000
21
2.000000
31
0.0
0
LINE
8
MCD_Layer_11
10
0.125000
20
2.000000
30
0.0
11
-0.125000
21
2.000000
31
0.0
0
LINE
8
MCD_Layer_11
10
-0.125000
20
2.000000
30
0.0
11
-0.125000
21
1.435100
31
0.0
0
LINE
8
MCD_Layer_11
10
-0.125000
20
1.185100
30
0.0
11
-0.125000
21
0.000000
31
0.0
0
LINE
8
MCD_Layer_11
10
0.203100
20
1.107000
30
0.0
11
0.640600
21
1.107000
31
0.0
0
LINE
8
MCD_Layer_11
10
0.640600
20
1.107000
30
0.0
11
0.640600
21
1.513200
31
0.0
0
LINE
8
MCD_Layer_11
10
0.640600
20
1.513200
30
0.0
11
0.203100
21
1.513200
31
0.0
0
LINE
8
MCD_Layer_11
10
-0.203100
20
1.513200
30
0.0
11
-0.640600
21
1.513200
31
0.0
0
LINE
8
MCD_Layer_11
10
-0.640600
20
1.513200
30
0.0
11
-0.640600
21
1.107000
31
0.0
0
LINE
8
MCD_Layer_11
10
-0.640600
20
1.107000
30
0.0
11
-0.203100
21
1.107000
31
0.0
0
LINE
8
MCD_Layer_11
10
0.125000
20
1.185100
30
0.0
11
0.562500
21
1.185100
31
0.0
0
LINE
8
MCD_Layer_11
10
0.562500
20
1.185100
30
0.0
11
0.562500
21
1.435100
31
0.0
0
LINE
8
MCD_Layer_11
10
0.562500
20
1.435100
30
0.0
11
0.125000
21
1.435100
31
0.0
0
LINE
8
MCD_Layer_11
10
-0.125000
20
1.435100
30
0.0
11
-0.562500
21
1.435100
31
0.0
0
LINE
8
MCD_Layer_11
10
-0.562500
20
1.435100
30
0.0
11
-0.562500
21
1.185100
31
0.0
0
LINE
8
MCD_Layer_11
10
-0.562500
20
1.185100
30
0.0
11
-0.125000
21
1.185100
31
0.0
0
LINE
8
MCD_Layer_0
10
-10.000000
20
0.000000
30
0.0
11
10.000000
21
0.000000
31
0.0
0
LINE
8
MCD_Layer_0
10
-10.000000
20
0.000000
30
0.0
11
-9.999971
21
14.337502
31
0.0
0
LINE
8
MCD_Layer_0
10
10.000000
20
0.000000
30
0.0
11
10.000008
21
14.337500
31
0.0
0
LINE
8
MCD_Layer_1
10
-10.000000
20
0.000000
30
0.0
11
-10.000000
21
-3.000000
31
0.0
0
LINE
8
MCD_Layer_1
10
-10.000000
20
-3.000000
30
0.0
11
10.000000
21
-3.000000
31
0.0
0
LINE
8
MCD_Layer_1
10
10.000000
20
-3.000000
30
0.0
11
10.000000
21
0.000000
31
0.0
0
LINE
8
MCD_Layer_0
10
-7.181784
20
5.233148
30
0.0
11
-7.314348
21
5.407485
31
0.0
0
LINE
8
MCD_Layer_0
10
-7.737655
20
6.560941
30
0.0
11
-7.726213
21
6.614899
31
0.0
0
LINE
8
MCD_Layer_0
10
-7.539461
20
6.355743
30
0.0
11
-7.476714
21
6.322432
31
0.0
0
LINE
8
MCD_Layer_0
10
-7.246144
20
6.974386
30
0.0
11
-7.187976
21
6.981230
31
0.0
0
LINE
8
MCD_Layer_0
10
-7.394573
20
7.472266
30
0.0
11
-7.348313
21
7.496177
31
0.0
0
LINE
8
MCD_Layer_0
10
-7.337454
20
7.988350
30
0.0
11
-7.404369
21
8.040834
31
0.0
0
LINE
8
MCD_Layer_0
10
-7.175197
20
8.543527
30
0.0
11
-7.228325
21
8.562322
31
0.0
0
LINE
8
MCD_Layer_0
10
-7.211631
20
9.264691
30
0.0
11
-7.221025
21
9.327929
31
0.0
0
LINE
8
MCD_Layer_0
10
-6.645212
20
10.046460
30
0.0
11
-6.653066
21
10.109383
31
0.0
0
LINE
8
MCD_Layer_0
10
-6.782385
20
10.672325
30
0.0
11
-6.775258
21
10.725368
31
0.0
0
LINE
8
MCD_Layer_0
10
-6.286578
20
10.699780
30
0.0
11
-6.291435
21
10.754230
31
0.0
0
LINE
8
MCD_Layer_0
10
-5.788208
20
11.190041
30
0.0
11
-5.824719
21
11.260949
31
0.0
0
LINE
8
MCD_Layer_0
10
-6.117413
20
11.357086
30
0.0
11
-6.073170
21
11.404766
31
0.0
0
LINE
8
MCD_Layer_0
10
-6.433954
20
11.681860
30
0.0
11
-6.419778
21
11.728579
31
0.0
0
LINE
8
MCD_Layer_0
10
-6.200178
20
11.901863
30
0.0
11
-6.253009
21
11.951728
31
0.0
0
LINE
8
MCD_Layer_0
10
-5.990849
20
12.374114
30
0.0
11
-6.052963
21
12.391459
31
0.0
0
LINE
8
MCD_Layer_0
10
-6.592905
20
12.985909
30
0.0
11
-6.614122
21
13.048935
31
0.0
0
LINE
8
MCD_Layer_0
10
-7.048501
20
12.719494
30
0.0
11
-7.092207
21
12.760626
31
0.0
0
LINE
8
MCD_Layer_0
10
-7.595141
20
12.653724
30
0.0
11
-7.615692
21
12.595437
31
0.0
0
LINE
8
MCD_Layer_0
10
-8.150093
20
12.671205
30
0.0
11
-8.144673
21
12.618439
31
0.0
0
LINE
8
MCD_Layer_0
10
-8.728111
20
12.222349
30
0.0
11
-8.673552
21
12.160890
31
0.0
0
LINE
8
MCD_Layer_0
10
-8.357860
20
12.006339
30
0.0
11
-8.401970
21
11.966690
31
0.0
0
LINE
8
MCD_Layer_0
10
-8.163610
20
11.719702
30
0.0
11
-8.206059
21
11.673966
31
0.0
0
LINE
8
MCD_Layer_0
10
-9.438096
20
11.100908
30
0.0
11
-9.483343
21
11.061848
31
0.0
0
LINE
8
MCD_Layer_0
10
-9.500868
20
10.092838
30
0.0
11
-9.539161
21
10.047895
31
0.0
0
LINE
8
MCD_Layer_0
10
-8.795208
20
9.291441
30
0.0
11
-8.758334
21
9.284189
31
0.0
0
LINE
8
MCD_Layer_0
10
-8.869244
20
9.096928
30
0.0
11
-8.884715
21
9.019938
31
0.0
0
LINE
8
MCD_Layer_0
10
-9.046260
20
8.736712
30
0.0
11
-9.067692
21
8.681274
31
0.0
0
LINE
8
MCD_Layer_0
10
-9.489458
20
8.911087
30
0.0
11
-9.543243
21
8.894871
31
0.0
0
LINE
8
MCD_Layer_0
10
-9.544291
20
8.249193
30
0.0
11
-9.592989
21
8.229824
31
0.0
0
LINE
8
MCD_Layer_0
10
-9.353098
20
7.779541
30
0.0
11
-9.412437
21
7.736656
31
0.0
0
LINE
8
MCD_Layer_0
10
-7.602686
20
4.340337
30
0.0
11
-7.378676
21
4.298517
31
0.0
0
LINE
8
MCD_Layer_0
10
-7.432091
20
4.383591
30
0.0
11
-7.533269
21
4.402477
31
0.0
0
LINE
8
MCD_Layer_0
10
-8.727961
20
7.087726
30
0.0
11
-8.641335
21
7.084057
31
0.0
0
LINE
8
MCD_Layer_0
10
-9.313283
20
7.725988
30
0.0
11
-9.241571
21
7.773435
31
0.0
0
LINE
8
MCD_Layer_0
10
-9.512747
20
8.205108
30
0.0
11
-9.452744
21
8.234056
31
0.0
0
LINE
8
MCD_Layer_0
10
-9.043642
20
8.589776
30
0.0
11
-9.020277
21
8.654734
31
0.0
0
LINE
8
MCD_Layer_0
10
-8.642858
20
8.409330
30
0.0
11
-8.593707
21
8.474617
31
0.0
0
LINE
8
MCD_Layer_0
10
-8.439014
20
8.142490
30
0.0
11
-8.374917
21
8.142221
31
0.0
0
LINE
8
MCD_Layer_0
10
-8.251420
20
8.730842
30
0.0
11
-8.190453
21
8.666512
31
0.0
0
LINE
8
MCD_Layer_0
10
-7.784435
20
8.985231
30
0.0
11
-7.751772
21
8.914240
31
0.0
0
LINE
8
MCD_Layer_0
10
-7.325119
20
8.522057
30
0.0
11
-7.252372
21
8.495379
31
0.0
0
LINE
8
MCD_Layer_0
10
-7.515075
20
8.037454
30
0.0
11
-7.441865
21
7.979590
31
0.0
0
LINE
8
MCD_Layer_0
10
-7.926733
20
7.762158
30
0.0
11
-7.917377
21
7.707746
31
0.0
0
LINE
8
MCD_Layer_0
10
-7.449118
20
7.516339
30
0.0
11
-7.506666
21
7.481472
31
0.0
0
LINE
8
MCD_Layer_0
10
-7.269374
20
7.033028
30
0.0
11
-7.334853
21
7.022055
31
0.0
0
LINE
8
MCD_Layer_0
10
-7.756375
20
6.720005
30
0.0
11
-7.774601
21
6.646018
31
0.0
0
LINE
8
MCD_Layer_0
10
-8.100525
20
6.846977
30
0.0
11
-8.132978
21
6.778891
31
0.0
0
LINE
8
MCD_Layer_0
10
-8.461636
20
6.371538
30
0.0
11
-8.408795
21
6.383965
31
0.0
0
LINE
8
MCD_Layer_0
10
-8.157971
20
6.721593
30
0.0
11
-8.134472
21
6.708001
31
0.0
0
LINE
8
MCD_Layer_0
10
-7.334576
20
5.312188
30
0.0
11
-7.276840
21
5.236221
31
0.0
0
LINE
8
MCD_Layer_0
10
-7.538225
20
5.168609
30
0.0
11
-7.547550
21
5.182177
31
0.0
0
LINE
8
MCD_Layer_0
10
-7.621522
20
4.835859
30
0.0
11
-7.608460
21
4.843236
31
0.0
0
LINE
8
MCD_Layer_0
10
-8.215164
20
5.821901
30
0.0
11
-8.232536
21
5.804499
31
0.0
0
LINE
8
MCD_Layer_0
10
-8.427892
20
6.247411
30
0.0
11
-8.382268
21
6.262630
31
0.0
0
LINE
8
MCD_Layer_0
10
-8.645987
20
6.966122
30
0.0
11
-8.719859
21
6.969099
31
0.0
0
LINE
8
MCD_Layer_0
10
-8.625044
20
6.443813
30
0.0
11
-8.598585
21
6.452657
31
0.0
0
LINE
8
MCD_Layer_72
10
2.000000
20
0.000000
30
0.0
11
0.000000
21
2.000001
31
0.0
0
LINE
8
MCD_Layer_2
10
-8.221288
20
7.410360
30
0.0
11
-8.207814
21
7.442207
31
0.0
0
LINE
8
MCD_Layer_72
10
-0.000000
20
0.000000
30
0.0
11
2.000000
21
-0.000000
31
0.0
0
LINE
8
MCD_Layer_2
10
-7.479427
20
6.757249
30
0.0
11
-7.503762
21
6.747936
31
0.0
0
LINE
8
MCD_Layer_0
10
-8.020127
20
7.687284
30
0.0
11
-8.032334
21
7.729131
31
0.0
0
LINE
8
MCD_Layer_0
10
-8.287794
20
7.560923
30
0.0
11
-8.250460
21
7.547604
31
0.0
0
LINE
8
MCD_Layer_72
10
2.000000
20
-2.000001
30
0.0
11
0.000000
21
-0.000000
31
0.0
0
LINE
8
MCD_Layer_2
10
-7.398719
20
8.857065
30
0.0
11
-7.424433
21
8.877179
31
0.0
0
LINE
8
MCD_Layer_72
10
-0.000000
20
2.000001
30
0.0
11
-0.000000
21
0.000000
31
0.0
0
LINE
8
MCD_Layer_2
10
-8.202036
20
7.941397
30
0.0
11
-8.174384
21
7.926020
31
0.0
0
LINE
8
MCD_Layer_0
10
-8.460917
20
7.699680
30
0.0
11
-8.476097
21
7.737766
31
0.0
0
LINE
8
MCD_Layer_0
10
-8.426163
20
8.014935
30
0.0
11
-8.381427
21
8.007053
31
0.0
0
LINE
8
MCD_Layer_0
10
-8.471626
20
8.955191
30
0.0
11
-8.595287
21
8.982455
31
0.0
0
LINE
8
MCD_Layer_0
10
-8.613562
20
8.859785
30
0.0
11
-8.506349
21
8.833715
31
0.0
0
LINE
8
MCD_Layer_56
10
-0.000000
20
-2.000001
30
0.0
11
-2.000000
21
-0.000000
31
0.0
0
LINE
8
MCD_Layer_2
10
-9.431667
20
8.553488
30
0.0
11
-9.404257
21
8.566952
31
0.0
0
LINE
8
MCD_Layer_72
10
-2.000000
20
-0.000000
30
0.0
11
-2.000000
21
0.000000
31
0.0
0
LINE
8
MCD_Layer_72
10
0.000000
20
-2.000001
30
0.0
11
0.000000
21
-0.000000
31
0.0
0
LINE
8
MCD_Layer_2
10
-8.569353
20
7.734965
30
0.0
11
-8.591563
21
7.722149
31
0.0
0
LINE
8
MCD_Layer_2
10
-8.100264
20
10.942059
30
0.0
11
-8.192885
21
10.779570
31
0.0
0
LINE
8
MCD_Layer_56
10
2.000000
20
0.000000
30
0.0
11
0.000000
21
2.000001
31
0.0
0
LINE
8
MCD_Layer_2
10
-7.803857
20
10.814599
30
0.0
11
-7.840343
21
10.565500
31
0.0
0
LINE
8
MCD_Layer_72
10
0.000000
20
2.000001
30
0.0
11
-2.000000
21
2.000001
31
0.0
0
LINE
8
MCD_Layer_2
10
-7.897167
20
10.801666
30
0.0
11
-7.919753
21
10.710100
31
0.0
0
LINE
8
MCD_Layer_2
10
-8.073564
20
10.781378
30
0.0
11
-8.006791
21
10.897520
31
0.0
0
LINE
8
MCD_Layer_0
10
-8.119319
20
11.693140
30
0.0
11
-8.060771
21
11.743217
31
0.0
0
LINE
8
MCD_Layer_0
10
-8.317036
20
11.970114
30
0.0
11
-8.266378
21
12.023115
31
0.0
0
LINE
8
MCD_Layer_0
10
-8.090487
20
12.544019
30
0.0
11
-8.096912
21
12.611476
31
0.0
0
LINE
8
MCD_Layer_0
10
-7.592202
20
12.496181
30
0.0
11
-7.573066
21
12.561989
31
0.0
0
LINE
8
MCD_Layer_0
10
-7.288119
20
12.194523
30
0.0
11
-7.205198
21
12.196598
31
0.0
0
LINE
8
MCD_Layer_0
10
-7.072895
20
12.678424
30
0.0
11
-7.016710
21
12.625774
31
0.0
0
LINE
8
MCD_Layer_0
10
-6.644132
20
12.961126
30
0.0
11
-6.618434
21
12.893901
31
0.0
0
LINE
8
MCD_Layer_0
10
-6.149976
20
12.366513
30
0.0
11
-6.079891
21
12.335037
31
0.0
0
LINE
8
MCD_Layer_0
10
-6.347617
20
11.967410
30
0.0
11
-6.291871
21
11.915956
31
0.0
0
LINE
8
MCD_Layer_0
10
-6.668556
20
11.769182
30
0.0
11
-6.660100
21
11.709057
31
0.0
0
LINE
8
MCD_Layer_0
10
-6.486478
20
11.682657
30
0.0
11
-6.506347
21
11.626356
31
0.0
0
LINE
8
MCD_Layer_0
10
-6.161540
20
11.406685
30
0.0
11
-6.205800
21
11.360381
31
0.0
0
LINE
8
MCD_Layer_0
10
-6.361599
20
10.825898
30
0.0
11
-6.354816
21
10.765417
31
0.0
0
LINE
8
MCD_Layer_0
10
-6.815113
20
10.821972
30
0.0
11
-6.825809
21
10.758880
31
0.0
0
LINE
8
MCD_Layer_0
10
-7.414279
20
11.363900
30
0.0
11
-7.464075
21
11.399046
31
0.0
0
LINE
8
MCD_Layer_2
10
-7.461711
20
11.771456
30
0.0
11
-7.435922
21
11.793407
31
0.0
0
LINE
8
MCD_Layer_56
10
-2.000000
20
0.000000
30
0.0
11
-0.000000
21
-0.000000
31
0.0
0
LINE
8
MCD_Layer_2
10
-8.308615
20
12.337831
30
0.0
11
-8.314992
21
12.308965
31
0.0
0
LINE
8
MCD_Layer_0
10
-7.270294
20
12.045298
30
0.0
11
-7.209225
21
12.038496
31
0.0
0
LINE
8
MCD_Layer_0
10
-7.307653
20
11.747063
30
0.0
11
-7.334280
21
11.785753
31
0.0
0
LINE
8
MCD_Layer_72
10
-2.000000
20
-0.000000
30
0.0
11
0.000000
21
2.000001
31
0.0
0
LINE
8
MCD_Layer_72
10
0.000000
20
2.000001
30
0.0
11
-2.000000
21
0.000000
31
0.0
0
LINE
8
MCD_Layer_2
10
-6.179869
20
12.809724
30
0.0
11
-6.164580
21
12.780217
31
0.0
0
LINE
8
MCD_Layer_2
10
-7.033718
20
11.882027
30
0.0
11
-7.054675
21
11.908764
31
0.0
0
LINE
8
MCD_Layer_0
10
-7.153597
20
11.599743
30
0.0
11
-7.113122
21
11.585069
31
0.0
0
LINE
8
MCD_Layer_0
10
-6.810071
20
11.700365
30
0.0
11
-6.830513
21
11.753252
31
0.0
0
LINE
8
MCD_Layer_72
10
0.000000
20
-0.000000
30
0.0
11
2.000000
21
-0.000000
31
0.0
0
LINE
8
MCD_Layer_2
10
-6.135803
20
11.088646
30
0.0
11
-6.125454
21
11.055975
31
0.0
0
LINE
8
MCD_Layer_72
10
0.000000
20
-2.000001
30
0.0
11
0.000000
21
-0.000000
31
0.0
0
LINE
8
MCD_Layer_72
10
0.000000
20
2.000001
30
0.0
11
-0.000000
21
-2.000001
31
0.0
0
LINE
8
MCD_Layer_2
10
-7.099232
20
11.473835
30
0.0
11
-7.092350
21
11.503361
31
0.0
0
LINE
8
MCD_Layer_72
10
2.000000
20
-0.000000
30
0.0
11
-2.000000
21
-2.000001
31
0.0
0
LINE
8
MCD_Layer_0
10
7.181784
20
5.233148
30
0.0
11
7.314348
21
5.407485
31
0.0
0
LINE
8
MCD_Layer_0
10
7.737655
20
6.560941
30
0.0
11
7.726213
21
6.614899
31
0.0
0
LINE
8
MCD_Layer_0
10
7.539461
20
6.355743
30
0.0
11
7.476714
21
6.322432
31
0.0
0
LINE
8
MCD_Layer_0
10
7.246144
20
6.974386
30
0.0
11
7.187976
21
6.981230
31
0.0
0
LINE
8
MCD_Layer_0
10
7.394573
20
7.472266
30
0.0
11
7.348313
21
7.496177
31
0.0
0
LINE
8
MCD_Layer_0
10
7.337454
20
7.988350
30
0.0
11
7.404369
21
8.040834
31
0.0
0
LINE
8
MCD_Layer_0
10
7.175197
20
8.543527
30
0.0
11
7.228325
21
8.562322
31
0.0
0
LINE
8
MCD_Layer_0
10
7.211631
20
9.264691
30
0.0
11
7.221025
21
9.327929
31
0.0
0
LINE
8
MCD_Layer_0
10
6.645212
20
10.046460
30
0.0
11
6.653066
21
10.109383
31
0.0
0
LINE
8
MCD_Layer_0
10
6.782385
20
10.672325
30
0.0
11
6.775258
21
10.725368
31
0.0
0
LINE
8
MCD_Layer_0
10
6.286578
20
10.699780
30
0.0
11
6.291435
21
10.754230
31
0.0
0
LINE
8
MCD_Layer_0
10
5.788208
20
11.190041
30
0.0
11
5.824719
21
11.260949
31
0.0
0
LINE
8
MCD_Layer_0
10
6.117413
20
11.357086
30
0.0
11
6.073170
21
11.404766
31
0.0
0
LINE
8
MCD_Layer_0
10
6.433954
20
11.681860
30
0.0
11
6.419778
21
11.728579
31
0.0
0
LINE
8
MCD_Layer_0
10
6.200178
20
11.901863
30
0.0
11
6.253009
21
11.951728
31
0.0
0
LINE
8
MCD_Layer_0
10
5.990849
20
12.374114
30
0.0
11
6.052963
21
12.391459
31
0.0
0
LINE
8
MCD_Layer_0
10
6.592905
20
12.985909
30
0.0
11
6.614122
21
13.048935
31
0.0
0
LINE
8
MCD_Layer_0
10
7.048501
20
12.719494
30
0.0
11
7.092207
21
12.760626
31
0.0
0
LINE
8
MCD_Layer_0
10
7.595141
20
12.653724
30
0.0
11
7.615692
21
12.595437
31
0.0
0
LINE
8
MCD_Layer_0
10
8.150093
20
12.671205
30
0.0
11
8.144673
21
12.618439
31
0.0
0
LINE
8
MCD_Layer_0
10
8.728111
20
12.222349
30
0.0
11
8.673552
21
12.160890
31
0.0
0
LINE
8
MCD_Layer_0
10
8.357860
20
12.006339
30
0.0
11
8.401970
21
11.966690
31
0.0
0
LINE
8
MCD_Layer_0
10
8.163610
20
11.719702
30
0.0
11
8.206059
21
11.673966
31
0.0
0
LINE
8
MCD_Layer_0
10
9.438096
20
11.100908
30
0.0
11
9.483343
21
11.061848
31
0.0
0
LINE
8
MCD_Layer_0
10
9.500868
20
10.092838
30
0.0
11
9.539161
21
10.047895
31
0.0
0
LINE
8
MCD_Layer_0
10
8.795208
20
9.291441
30
0.0
11
8.758334
21
9.284189
31
0.0
0
LINE
8
MCD_Layer_0
10
8.869244
20
9.096928
30
0.0
11
8.884715
21
9.019938
31
0.0
0
LINE
8
MCD_Layer_0
10
9.046260
20
8.736712
30
0.0
11
9.067692
21
8.681274
31
0.0
0
LINE
8
MCD_Layer_0
10
9.489458
20
8.911087
30
0.0
11
9.543243
21
8.894871
31
0.0
0
LINE
8
MCD_Layer_0
10
9.544291
20
8.249193
30
0.0
11
9.592989
21
8.229824
31
0.0
0
LINE
8
MCD_Layer_0
10
9.353098
20
7.779541
30
0.0
11
9.412437
21
7.736656
31
0.0
0
LINE
8
MCD_Layer_0
10
7.602686
20
4.340337
30
0.0
11
7.378676
21
4.298517
31
0.0
0
LINE
8
MCD_Layer_0
10
7.432091
20
4.383591
30
0.0
11
7.533269
21
4.402477
31
0.0
0
LINE
8
MCD_Layer_0
10
8.727961
20
7.087726
30
0.0
11
8.641335
21
7.084057
31
0.0
0
LINE
8
MCD_Layer_0
10
9.313283
20
7.725988
30
0.0
11
9.241571
21
7.773435
31
0.0
0
LINE
8
MCD_Layer_0
10
9.512747
20
8.205108
30
0.0
11
9.452744
21
8.234056
31
0.0
0
LINE
8
MCD_Layer_0
10
9.043642
20
8.589776
30
0.0
11
9.020277
21
8.654734
31
0.0
0
LINE
8
MCD_Layer_0
10
8.642858
20
8.409330
30
0.0
11
8.593707
21
8.474617
31
0.0
0
LINE
8
MCD_Layer_0
10
8.439014
20
8.142490
30
0.0
11
8.374917
21
8.142221
31
0.0
0
LINE
8
MCD_Layer_0
10
8.251420
20
8.730842
30
0.0
11
8.190453
21
8.666512
31
0.0
0
LINE
8
MCD_Layer_0
10
7.784435
20
8.985231
30
0.0
11
7.751772
21
8.914240
31
0.0
0
LINE
8
MCD_Layer_0
10
7.325119
20
8.522057
30
0.0
11
7.252372
21
8.495379
31
0.0
0
LINE
8
MCD_Layer_0
10
7.515075
20
8.037454
30
0.0
11
7.441865
21
7.979590
31
0.0
0
LINE
8
MCD_Layer_0
10
7.926733
20
7.762158
30
0.0
11
7.917377
21
7.707746
31
0.0
0
LINE
8
MCD_Layer_0
10
7.449118
20
7.516339
30
0.0
11
7.506666
21
7.481472
31
0.0
0
LINE
8
MCD_Layer_0
10
7.269374
20
7.033028
30
0.0
11
7.334853
21
7.022055
31
0.0
0
LINE
8
MCD_Layer_0
10
7.756375
20
6.720005
30
0.0
11
7.774601
21
6.646018
31
0.0
0
LINE
8
MCD_Layer_0
10
8.100525
20
6.846977
30
0.0
11
8.132978
21
6.778891
31
0.0
0
LINE
8
MCD_Layer_0
10
8.461636
20
6.371538
30
0.0
11
8.408795
21
6.383965
31
0.0
0
LINE
8
MCD_Layer_0
10
8.157971
20
6.721593
30
0.0
11
8.134472
21
6.708001
31
0.0
0
LINE
8
MCD_Layer_0
10
7.334576
20
5.312188
30
0.0
11
7.276840
21
5.236221
31
0.0
0
LINE
8
MCD_Layer_0
10
7.538225
20
5.168609
30
0.0
11
7.547550
21
5.182177
31
0.0
0
LINE
8
MCD_Layer_0
10
7.621522
20
4.835859
30
0.0
11
7.608460
21
4.843236
31
0.0
0
LINE
8
MCD_Layer_0
10
8.215164
20
5.821901
30
0.0
11
8.232536
21
5.804499
31
0.0
0
LINE
8
MCD_Layer_0
10
8.427892
20
6.247411
30
0.0
11
8.382268
21
6.262630
31
0.0
0
LINE
8
MCD_Layer_0
10
8.645987
20
6.966122
30
0.0
11
8.719859
21
6.969099
31
0.0
0
LINE
8
MCD_Layer_0
10
8.625044
20
6.443813
30
0.0
11
8.598585
21
6.452657
31
0.0
0
LINE
8
MCD_Layer_72
10
2.000000
20
0.000000
30
0.0
11
0.000000
21
2.000000
31
0.0
0
LINE
8
MCD_Layer_2
10
8.221288
20
7.410360
30
0.0
11
8.207814
21
7.442207
31
0.0
0
LINE
8
MCD_Layer_72
10
-0.000000
20
0.000000
30
0.0
11
2.000000
21
-0.000000
31
0.0
0
LINE
8
MCD_Layer_2
10
7.479427
20
6.757249
30
0.0
11
7.503762
21
6.747936
31
0.0
0
LINE
8
MCD_Layer_0
10
8.020127
20
7.687284
30
0.0
11
8.032334
21
7.729131
31
0.0
0
LINE
8
MCD_Layer_0
10
8.287794
20
7.560923
30
0.0
11
8.250460
21
7.547604
31
0.0
0
LINE
8
MCD_Layer_72
10
2.000000
20
-2.000000
30
0.0
11
0.000000
21
-0.000000
31
0.0
0
LINE
8
MCD_Layer_2
10
7.398719
20
8.857065
30
0.0
11
7.424433
21
8.877179
31
0.0
0
LINE
8
MCD_Layer_72
10
-0.000000
20
2.000000
30
0.0
11
-0.000000
21
0.000000
31
0.0
0
LINE
8
MCD_Layer_2
10
8.202036
20
7.941397
30
0.0
11
8.174384
21
7.926020
31
0.0
0
LINE
8
MCD_Layer_0
10
8.460917
20
7.699680
30
0.0
11
8.476097
21
7.737766
31
0.0
0
LINE
8
MCD_Layer_0
10
8.426163
20
8.014935
30
0.0
11
8.381427
21
8.007053
31
0.0
0
LINE
8
MCD_Layer_0
10
8.471626
20
8.955191
30
0.0
11
8.595287
21
8.982455
31
0.0
0
LINE
8
MCD_Layer_0
10
8.613562
20
8.859785
30
0.0
11
8.506349
21
8.833715
31
0.0
0
LINE
8
MCD_Layer_56
10
-0.000000
20
-2.000000
30
0.0
11
-2.000000
21
-0.000000
31
0.0
0
LINE
8
MCD_Layer_2
10
9.431667
20
8.553488
30
0.0
11
9.404257
21
8.566952
31
0.0
0
LINE
8
MCD_Layer_72
10
-2.000000
20
-0.000000
30
0.0
11
-2.000000
21
0.000000
31
0.0
0
LINE
8
MCD_Layer_72
10
0.000000
20
-2.000000
30
0.0
11
0.000000
21
-0.000000
31
0.0
0
LINE
8
MCD_Layer_2
10
8.569353
20
7.734965
30
0.0
11
8.591563
21
7.722149
31
0.0
0
LINE
8
MCD_Layer_2
10
8.100264
20
10.942059
30
0.0
11
8.192885
21
10.779570
31
0.0
0
LINE
8
MCD_Layer_56
10
2.000000
20
0.000000
30
0.0
11
0.000000
21
2.000000
31
0.0
0
LINE
8
MCD_Layer_2
10
7.803857
20
10.814599
30
0.0
11
7.840343
21
10.565500
31
0.0
0
LINE
8
MCD_Layer_72
10
0.000000
20
2.000000
30
0.0
11
-2.000000
21
2.000000
31
0.0
0
LINE
8
MCD_Layer_2
10
7.897167
20
10.801666
30
0.0
11
7.919753
21
10.710100
31
0.0
0
LINE
8
MCD_Layer_2
10
8.073564
20
10.781378
30
0.0
11
8.006791
21
10.897520
31
0.0
0
LINE
8
MCD_Layer_0
10
8.119319
20
11.693140
30
0.0
11
8.060771
21
11.743217
31
0.0
0
LINE
8
MCD_Layer_0
10
8.317036
20
11.970114
30
0.0
11
8.266378
21
12.023115
31
0.0
0
LINE
8
MCD_Layer_0
10
8.090487
20
12.544019
30
0.0
11
8.096912
21
12.611476
31
0.0
0
LINE
8
MCD_Layer_0
10
7.592202
20
12.496181
30
0.0
11
7.573066
21
12.561989
31
0.0
0
LINE
8
MCD_Layer_0
10
7.288119
20
12.194523
30
0.0
11
7.205198
21
12.196598
31
0.0
0
LINE
8
MCD_Layer_0
10
7.072895
20
12.678424
30
0.0
11
7.016710
21
12.625774
31
0.0
0
LINE
8
MCD_Layer_0
10
6.644132
20
12.961126
30
0.0
11
6.618434
21
12.893901
31
0.0
0
LINE
8
MCD_Layer_0
10
6.149976
20
12.366513
30
0.0
11
6.079891
21
12.335037
31
0.0
0
LINE
8
MCD_Layer_0
10
6.347617
20
11.967410
30
0.0
11
6.291871
21
11.915956
31
0.0
0
LINE
8
MCD_Layer_0
10
6.668556
20
11.769182
30
0.0
11
6.660100
21
11.709057
31
0.0
0
LINE
8
MCD_Layer_0
10
6.486478
20
11.682657
30
0.0
11
6.506347
21
11.626356
31
0.0
0
LINE
8
MCD_Layer_0
10
6.161540
20
11.406685
30
0.0
11
6.205800
21
11.360381
31
0.0
0
LINE
8
MCD_Layer_0
10
6.361599
20
10.825898
30
0.0
11
6.354816
21
10.765417
31
0.0
0
LINE
8
MCD_Layer_0
10
6.815113
20
10.821972
30
0.0
11
6.825809
21
10.758880
31
0.0
0
LINE
8
MCD_Layer_0
10
7.414279
20
11.363900
30
0.0
11
7.464075
21
11.399046
31
0.0
0
LINE
8
MCD_Layer_2
10
7.461711
20
11.771456
30
0.0
11
7.435922
21
11.793407
31
0.0
0
LINE
8
MCD_Layer_56
10
-2.000000
20
0.000000
30
0.0
11
-0.000000
21
-0.000000
31
0.0
0
LINE
8
MCD_Layer_2
10
8.308615
20
12.337831
30
0.0
11
8.314992
21
12.308965
31
0.0
0
LINE
8
MCD_Layer_0
10
7.270294
20
12.045298
30
0.0
11
7.209225
21
12.038496
31
0.0
0
LINE
8
MCD_Layer_0
10
7.307653
20
11.747063
30
0.0
11
7.334280
21
11.785753
31
0.0
0
LINE
8
MCD_Layer_72
10
-2.000000
20
-0.000000
30
0.0
11
0.000000
21
2.000000
31
0.0
0
LINE
8
MCD_Layer_72
10
0.000000
20
2.000000
30
0.0
11
-2.000000
21
0.000000
31
0.0
0
LINE
8
MCD_Layer_2
10
6.179869
20
12.809724
30
0.0
11
6.164580
21
12.780217
31
0.0
0
LINE
8
MCD_Layer_2
10
7.033718
20
11.882027
30
0.0
11
7.054675
21
11.908764
31
0.0
0
LINE
8
MCD_Layer_0
10
7.153597
20
11.599743
30
0.0
11
7.113122
21
11.585069
31
0.0
0
LINE
8
MCD_Layer_0
10
6.810071
20
11.700365
30
0.0
11
6.830513
21
11.753252
31
0.0
0
LINE
8
MCD_Layer_72
10
0.000000
20
-0.000000
30
0.0
11
2.000000
21
-0.000000
31
0.0
0
LINE
8
MCD_Layer_2
10
6.135803
20
11.088646
30
0.0
11
6.125454
21
11.055975
31
0.0
0
LINE
8
MCD_Layer_72
10
0.000000
20
-2.000000
30
0.0
11
0.000000
21
-0.000000
31
0.0
0
LINE
8
MCD_Layer_72
10
0.000000
20
2.000000
30
0.0
11
-0.000000
21
-2.000000
31
0.0
0
LINE
8
MCD_Layer_2
10
7.099232
20
11.473835
30
0.0
11
7.092350
21
11.503361
31
0.0
0
LINE
8
MCD_Layer_72
10
2.000000
20
-0.000000
30
0.0
11
-2.000000
21
-2.000000
31
0.0
0
ARC
8
MCD_Layer_0
10
0.004732
20
0.072337
40
0.072492
50
10.397098
51
266.256920
0
ARC
8
MCD_Layer_0
10
0.151370
20
0.106715
40
0.445636
50
155.798876
51
193.855111
0
ARC
8
MCD_Layer_0
10
-0.060753
20
0.000041
40
0.060753
50
359.961184
51
342.225463
0
ARC
8
MCD_Layer_0
10
-0.140623
20
-0.012700
40
0.141195
50
5.160526
51
354.839474
0
ARC
8
MCD_Layer_0
10
-0.075711
20
-0.009918
40
0.076358
50
7.462953
51
352.033948
0
ARC
8
MCD_Layer_0
10
0.481513
20
0.746253
40
0.888115
50
221.299644
51
237.168264
0
CIRCLE
8
MCD_Layer_56
10
0.000000
20
0.000000
40
2.000000
0
CIRCLE
8
MCD_Layer_56
10
0.000000
20
0.000000
40
2.000001
0
CIRCLE
8
MCD_Layer_56
10
0.000000
20
0.000000
40
2.000000
0
CIRCLE
8
MCD_Layer_56
10
0.000000
20
0.000000
40
2.000000
0
CIRCLE
8
MCD_Layer_0
10
-0.002200
20
0.066773
40
0.076224
0
ENDSEC
0
EOF
