0
SECTION
2
ENTITIES
0
LINE
8
MCD_Layer_0
10
-0.316200
20
0.000000
30
0.0
11
-0.316200
21
0.043000
31
0.0
0
LINE
8
MCD_Layer_0
10
-0.316200
20
0.043000
30
0.0
11
-0.253200
21
0.043000
31
0.0
0
LINE
8
MCD_Layer_0
10
-0.233200
20
0.064000
30
0.0
11
-0.233200
21
0.938000
31
0.0
0
LINE
8
MCD_Layer_0
10
-0.253200
20
0.958000
30
0.0
11
-0.326200
21
0.958000
31
0.0
0
LINE
8
MCD_Layer_0
10
-0.326200
20
0.958000
30
0.0
11
-0.326200
21
1.000000
31
0.0
0
LINE
8
MCD_Layer_0
10
-0.326200
20
1.000000
30
0.0
11
0.031900
21
1.000000
31
0.0
0
LINE
8
MCD_Layer_0
10
0.037800
20
0.000000
30
0.0
11
-0.316200
21
0.000000
31
0.0
0
LINE
8
MCD_Layer_0
10
0.012300
20
0.500000
30
0.0
11
-0.118200
21
0.500000
31
0.0
0
LINE
8
MCD_Layer_0
10
-0.118200
20
0.500000
30
0.0
11
-0.118200
21
0.109000
31
0.0
0
LINE
8
MCD_Layer_0
10
-0.118200
20
0.563000
30
0.0
11
0.001300
21
0.563000
31
0.0
0
LINE
8
MCD_Layer_0
10
-0.014200
20
0.938000
30
0.0
11
-0.118200
21
0.938000
31
0.0
0
LINE
8
MCD_Layer_0
10
-0.118200
20
0.938000
30
0.0
11
-0.118200
21
0.563000
31
0.0
0
LINE
8
MCD_Layer_0
10
-0.336000
20
0.000000
30
0.0
11
-0.336000
21
0.042000
31
0.0
0
LINE
8
MCD_Layer_0
10
-0.336000
20
0.042000
30
0.0
11
-0.273000
21
0.042000
31
0.0
0
LINE
8
MCD_Layer_0
10
-0.253000
20
0.063000
30
0.0
11
-0.253000
21
0.938000
31
0.0
0
LINE
8
MCD_Layer_0
10
-0.273000
20
0.958000
30
0.0
11
-0.336000
21
0.958000
31
0.0
0
LINE
8
MCD_Layer_0
10
-0.336000
20
0.958000
30
0.0
11
-0.336000
21
1.000000
31
0.0
0
LINE
8
MCD_Layer_0
10
-0.336000
20
1.000000
30
0.0
11
0.237000
21
1.000000
31
0.0
0
LINE
8
MCD_Layer_0
10
0.237000
20
1.000000
30
0.0
11
0.237000
21
0.813000
31
0.0
0
LINE
8
MCD_Layer_0
10
0.237000
20
0.813000
30
0.0
11
0.195000
21
0.813000
31
0.0
0
LINE
8
MCD_Layer_0
10
0.195000
20
0.813000
30
0.0
11
0.195000
21
0.896000
31
0.0
0
LINE
8
MCD_Layer_0
10
0.154000
20
0.938000
30
0.0
11
-0.138000
21
0.938000
31
0.0
0
LINE
8
MCD_Layer_0
10
-0.138000
20
0.938000
30
0.0
11
-0.138000
21
0.563000
31
0.0
0
LINE
8
MCD_Layer_0
10
-0.138000
20
0.563000
30
0.0
11
0.086000
21
0.563000
31
0.0
0
LINE
8
MCD_Layer_0
10
0.107000
20
0.583000
30
0.0
11
0.107000
21
0.635000
31
0.0
0
LINE
8
MCD_Layer_0
10
0.107000
20
0.635000
30
0.0
11
0.148000
21
0.635000
31
0.0
0
LINE
8
MCD_Layer_0
10
0.148000
20
0.635000
30
0.0
11
0.148000
21
0.438000
31
0.0
0
LINE
8
MCD_Layer_0
10
0.148000
20
0.438000
30
0.0
11
0.107000
21
0.438000
31
0.0
0
LINE
8
MCD_Layer_0
10
0.107000
20
0.438000
30
0.0
11
0.107000
21
0.490000
31
0.0
0
LINE
8
MCD_Layer_0
10
0.086000
20
0.510000
30
0.0
11
-0.138000
21
0.510000
31
0.0
0
LINE
8
MCD_Layer_0
10
-0.138000
20
0.510000
30
0.0
11
-0.138000
21
0.109000
31
0.0
0
LINE
8
MCD_Layer_0
10
0.263000
20
0.146000
30
0.0
11
0.294000
21
0.234000
31
0.0
0
LINE
8
MCD_Layer_0
10
0.294000
20
0.234000
30
0.0
11
0.336000
21
0.214000
31
0.0
0
LINE
8
MCD_Layer_0
10
0.336000
20
0.214000
30
0.0
11
0.263000
21
0.000000
31
0.0
0
LINE
8
MCD_Layer_0
10
0.263000
20
0.000000
30
0.0
11
-0.336000
21
0.000000
31
0.0
0
LINE
8
MCD_Layer_0
10
0.320173
20
1.042000
30
0.0
11
0.320173
21
0.740000
31
0.0
0
LINE
8
MCD_Layer_0
10
0.320173
20
0.740000
30
0.0
11
0.273173
21
0.740000
31
0.0
0
LINE
8
MCD_Layer_0
10
0.273173
20
0.740000
30
0.0
11
0.273173
21
0.776000
31
0.0
0
LINE
8
MCD_Layer_0
10
0.294173
20
0.240000
30
0.0
11
0.294173
21
0.323000
31
0.0
0
LINE
8
MCD_Layer_0
10
0.294173
20
0.323000
30
0.0
11
0.362173
21
0.323000
31
0.0
0
LINE
8
MCD_Layer_0
10
0.362173
20
0.323000
30
0.0
11
0.362173
21
0.250000
31
0.0
0
LINE
8
MCD_Layer_0
10
0.278173
20
1.031000
30
0.0
11
0.278173
21
1.042000
31
0.0
0
LINE
8
MCD_Layer_0
10
0.278173
20
1.042000
30
0.0
11
0.320173
21
1.042000
31
0.0
0
LINE
8
MCD_Layer_0
10
-0.388000
20
0.000000
30
0.0
11
-0.388000
21
0.042000
31
0.0
0
LINE
8
MCD_Layer_0
10
-0.388000
20
0.042000
30
0.0
11
-0.341000
21
0.042000
31
0.0
0
LINE
8
MCD_Layer_0
10
-0.320000
20
0.063000
30
0.0
11
-0.320000
21
0.938000
31
0.0
0
LINE
8
MCD_Layer_0
10
-0.341000
20
0.958000
30
0.0
11
-0.388000
21
0.958000
31
0.0
0
LINE
8
MCD_Layer_0
10
-0.388000
20
0.958000
30
0.0
11
-0.388000
21
1.000000
31
0.0
0
LINE
8
MCD_Layer_0
10
-0.388000
20
1.000000
30
0.0
11
-0.133000
21
1.000000
31
0.0
0
LINE
8
MCD_Layer_0
10
-0.133000
20
1.000000
30
0.0
11
-0.133000
21
0.958000
31
0.0
0
LINE
8
MCD_Layer_0
10
-0.133000
20
0.958000
30
0.0
11
-0.185000
21
0.958000
31
0.0
0
LINE
8
MCD_Layer_0
10
-0.206000
20
0.938000
30
0.0
11
-0.206000
21
0.464000
31
0.0
0
LINE
8
MCD_Layer_0
10
-0.206000
20
0.464000
30
0.0
11
0.110000
21
0.926000
31
0.0
0
LINE
8
MCD_Layer_0
10
0.093000
20
0.958000
30
0.0
11
0.018000
21
0.958000
31
0.0
0
LINE
8
MCD_Layer_0
10
0.018000
20
0.958000
30
0.0
11
0.018000
21
1.000000
31
0.0
0
LINE
8
MCD_Layer_0
10
0.018000
20
1.000000
30
0.0
11
0.326000
21
1.000000
31
0.0
0
LINE
8
MCD_Layer_0
10
0.326000
20
1.000000
30
0.0
11
0.326000
21
0.958000
31
0.0
0
LINE
8
MCD_Layer_0
10
0.326000
20
0.958000
30
0.0
11
0.222000
21
0.958000
31
0.0
0
LINE
8
MCD_Layer_0
10
0.205000
20
0.949000
30
0.0
11
-0.015000
21
0.627000
31
0.0
0
LINE
8
MCD_Layer_0
10
-0.015000
20
0.627000
30
0.0
11
0.289000
21
0.053000
31
0.0
0
LINE
8
MCD_Layer_0
10
0.308000
20
0.042000
30
0.0
11
0.388000
21
0.042000
31
0.0
0
LINE
8
MCD_Layer_0
10
0.388000
20
0.042000
30
0.0
11
0.388000
21
0.000000
31
0.0
0
LINE
8
MCD_Layer_0
10
0.388000
20
0.000000
30
0.0
11
0.065000
21
0.000000
31
0.0
0
LINE
8
MCD_Layer_0
10
0.065000
20
0.000000
30
0.0
11
0.065000
21
0.042000
31
0.0
0
LINE
8
MCD_Layer_0
10
0.065000
20
0.042000
30
0.0
11
0.128000
21
0.042000
31
0.0
0
LINE
8
MCD_Layer_0
10
0.147000
20
0.072000
30
0.0
11
-0.090000
21
0.518000
31
0.0
0
LINE
8
MCD_Layer_0
10
-0.090000
20
0.518000
30
0.0
11
-0.206000
21
0.349000
31
0.0
0
LINE
8
MCD_Layer_0
10
-0.206000
20
0.349000
30
0.0
11
-0.206000
21
0.063000
31
0.0
0
LINE
8
MCD_Layer_0
10
-0.185000
20
0.042000
30
0.0
11
-0.133000
21
0.042000
31
0.0
0
LINE
8
MCD_Layer_0
10
-0.133000
20
0.042000
30
0.0
11
-0.133000
21
0.000000
31
0.0
0
LINE
8
MCD_Layer_0
10
-0.133000
20
0.000000
30
0.0
11
-0.388000
21
0.000000
31
0.0
0
LINE
8
MCD_Layer_0
10
-0.380544
20
0.000037
30
0.0
11
-0.380544
21
0.787037
31
0.0
0
LINE
8
MCD_Layer_0
10
0.380456
20
0.787037
30
0.0
11
0.380456
21
0.000037
31
0.0
0
LINE
8
MCD_Layer_0
10
-0.265544
20
0.000037
30
0.0
11
-0.265544
21
0.787037
31
0.0
0
LINE
8
MCD_Layer_0
10
-0.057543
20
0.787037
30
0.0
11
-0.057543
21
0.000037
31
0.0
0
LINE
8
MCD_Layer_0
10
0.265456
20
0.000037
30
0.0
11
0.265456
21
0.787037
31
0.0
0
LINE
8
MCD_Layer_0
10
0.057456
20
0.787037
30
0.0
11
0.057456
21
0.000037
31
0.0
0
LINE
8
MCD_Layer_0
10
-0.380544
20
0.000037
30
0.0
11
-0.265544
21
0.000037
31
0.0
0
LINE
8
MCD_Layer_0
10
-0.057543
20
0.000037
30
0.0
11
0.057456
21
0.000037
31
0.0
0
LINE
8
MCD_Layer_0
10
0.265456
20
0.000037
30
0.0
11
0.380456
21
0.000037
31
0.0
0
LINE
8
MCD_Layer_0
10
-0.265523
20
0.000041
30
0.0
11
-0.265523
21
0.758042
31
0.0
0
LINE
8
MCD_Layer_0
10
0.265477
20
0.758042
30
0.0
11
0.265477
21
0.000041
31
0.0
0
LINE
8
MCD_Layer_0
10
-0.150522
20
0.000041
30
0.0
11
-0.150522
21
0.502041
31
0.0
0
LINE
8
MCD_Layer_0
10
-0.150522
20
0.617042
30
0.0
11
-0.150522
21
0.754243
31
0.0
0
LINE
8
MCD_Layer_0
10
0.150477
20
0.754243
30
0.0
11
0.150477
21
0.617042
31
0.0
0
LINE
8
MCD_Layer_0
10
0.150477
20
0.502041
30
0.0
11
0.150477
21
0.000041
31
0.0
0
LINE
8
MCD_Layer_0
10
-0.265523
20
0.000041
30
0.0
11
-0.150522
21
0.000041
31
0.0
0
LINE
8
MCD_Layer_0
10
-0.150522
20
0.502041
30
0.0
11
0.150477
21
0.502041
31
0.0
0
LINE
8
MCD_Layer_0
10
0.150477
20
0.617042
30
0.0
11
-0.150522
21
0.617042
31
0.0
0
LINE
8
MCD_Layer_0
10
0.150477
20
0.000041
30
0.0
11
0.265477
21
0.000041
31
0.0
0
LINE
8
MCD_Layer_0
10
-0.283912
20
0.004009
30
0.0
11
-0.252512
21
0.114807
31
0.0
0
LINE
8
MCD_Layer_0
10
-0.327312
20
1.000009
30
0.0
11
-0.209211
21
1.000009
31
0.0
0
LINE
8
MCD_Layer_0
10
0.224988
20
1.000009
30
0.0
11
0.340088
21
1.000009
31
0.0
0
LINE
8
MCD_Layer_0
10
-0.208501
20
0.009564
30
0.0
11
-0.165802
21
0.116364
31
0.0
0
LINE
8
MCD_Layer_0
10
0.077798
20
0.523265
30
0.0
11
0.053498
21
0.392065
31
0.0
0
LINE
8
MCD_Layer_0
10
-0.057538
20
0.000010
30
0.0
11
-0.057538
21
1.000009
31
0.0
0
LINE
8
MCD_Layer_0
10
-0.057538
20
1.000009
30
0.0
11
0.057462
21
1.000009
31
0.0
0
LINE
8
MCD_Layer_0
10
0.057462
20
1.000009
30
0.0
11
0.057462
21
0.000010
31
0.0
0
LINE
8
MCD_Layer_0
10
0.057462
20
0.000010
30
0.0
11
-0.057538
21
0.000010
31
0.0
0
LINE
8
MCD_Layer_0
10
-0.290736
20
0.055406
30
0.0
11
-0.223835
21
0.149006
31
0.0
0
LINE
8
MCD_Layer_0
10
-0.182836
20
0.506807
30
0.0
11
-0.249735
21
0.601006
31
0.0
0
LINE
8
MCD_Layer_0
10
-0.249735
20
0.601006
30
0.0
11
-0.249735
21
1.000005
31
0.0
0
LINE
8
MCD_Layer_0
10
-0.249735
20
1.000005
30
0.0
11
0.187764
21
1.000005
31
0.0
0
LINE
8
MCD_Layer_0
10
0.187764
20
1.000005
30
0.0
11
0.187764
21
0.885005
31
0.0
0
LINE
8
MCD_Layer_0
10
0.187764
20
0.885005
30
0.0
11
-0.134735
21
0.885005
31
0.0
0
LINE
8
MCD_Layer_0
10
-0.134735
20
0.885005
30
0.0
11
-0.134735
21
0.663106
31
0.0
0
LINE
8
MCD_Layer_0
10
-0.385800
20
0.000000
30
0.0
11
-0.385800
21
0.062500
31
0.0
0
LINE
8
MCD_Layer_0
10
-0.385800
20
0.062500
30
0.0
11
-0.333800
21
0.062500
31
0.0
0
LINE
8
MCD_Layer_0
10
-0.312800
20
0.083500
30
0.0
11
-0.312800
21
0.917500
31
0.0
0
LINE
8
MCD_Layer_0
10
-0.333800
20
0.937500
30
0.0
11
-0.385800
21
0.937500
31
0.0
0
LINE
8
MCD_Layer_0
10
-0.385800
20
0.937500
30
0.0
11
-0.385800
21
1.000000
31
0.0
0
LINE
8
MCD_Layer_0
10
-0.385800
20
1.000000
30
0.0
11
0.015200
21
1.000000
31
0.0
0
LINE
8
MCD_Layer_0
10
-0.031800
20
0.000000
30
0.0
11
-0.385800
21
0.000000
31
0.0
0
LINE
8
MCD_Layer_0
10
-0.036800
20
0.938000
30
0.0
11
-0.197800
21
0.938000
31
0.0
0
LINE
8
MCD_Layer_0
10
-0.197800
20
0.938000
30
0.0
11
-0.197800
21
0.151000
31
0.0
0
LINE
8
MCD_Layer_0
10
-0.363000
20
0.000000
30
0.0
11
-0.363000
21
0.062500
31
0.0
0
LINE
8
MCD_Layer_0
10
-0.363000
20
0.062500
30
0.0
11
-0.300000
21
0.062500
31
0.0
0
LINE
8
MCD_Layer_0
10
-0.280000
20
0.083500
30
0.0
11
-0.280000
21
0.917500
31
0.0
0
LINE
8
MCD_Layer_0
10
-0.300000
20
0.937500
30
0.0
11
-0.363000
21
0.937500
31
0.0
0
LINE
8
MCD_Layer_0
10
-0.363000
20
0.937500
30
0.0
11
-0.363000
21
1.000000
31
0.0
0
LINE
8
MCD_Layer_0
10
-0.363000
20
1.000000
30
0.0
11
-0.019000
21
1.000000
31
0.0
0
LINE
8
MCD_Layer_0
10
0.347000
20
0.052000
30
0.0
11
0.363000
21
0.016000
31
0.0
0
LINE
8
MCD_Layer_0
10
-0.165000
20
0.479000
30
0.0
11
-0.165000
21
0.083500
31
0.0
0
LINE
8
MCD_Layer_0
10
-0.144000
20
0.062500
30
0.0
11
-0.082000
21
0.062500
31
0.0
0
LINE
8
MCD_Layer_0
10
-0.082000
20
0.062500
30
0.0
11
-0.082000
21
0.000000
31
0.0
0
LINE
8
MCD_Layer_0
10
-0.082000
20
0.000000
30
0.0
11
-0.363000
21
0.000000
31
0.0
0
LINE
8
MCD_Layer_0
10
-0.050000
20
0.938000
30
0.0
11
-0.165000
21
0.938000
31
0.0
0
LINE
8
MCD_Layer_0
10
-0.165000
20
0.938000
30
0.0
11
-0.165000
21
0.542000
31
0.0
0
LINE
8
MCD_Layer_0
10
-0.141000
20
0.000000
30
0.0
11
-0.141000
21
0.062500
31
0.0
0
LINE
8
MCD_Layer_0
10
-0.141000
20
0.062500
30
0.0
11
-0.078000
21
0.062500
31
0.0
0
LINE
8
MCD_Layer_0
10
-0.057000
20
0.083500
30
0.0
11
-0.057000
21
0.917000
31
0.0
0
LINE
8
MCD_Layer_0
10
-0.078000
20
0.938000
30
0.0
11
-0.266500
21
0.938000
31
0.0
0
LINE
8
MCD_Layer_0
10
-0.286500
20
0.917000
30
0.0
11
-0.286500
21
0.818000
31
0.0
0
LINE
8
MCD_Layer_0
10
-0.286500
20
0.818000
30
0.0
11
-0.349000
21
0.818000
31
0.0
0
LINE
8
MCD_Layer_0
10
-0.349000
20
0.818000
30
0.0
11
-0.349000
21
1.000000
31
0.0
0
LINE
8
MCD_Layer_0
10
-0.349000
20
1.000000
30
0.0
11
0.349000
21
1.000000
31
0.0
0
LINE
8
MCD_Layer_0
10
0.349000
20
1.000000
30
0.0
11
0.349000
21
0.818000
31
0.0
0
LINE
8
MCD_Layer_0
10
0.349000
20
0.818000
30
0.0
11
0.286500
21
0.818000
31
0.0
0
LINE
8
MCD_Layer_0
10
0.286500
20
0.818000
30
0.0
11
0.286500
21
0.917000
31
0.0
0
LINE
8
MCD_Layer_0
10
0.265500
20
0.938000
30
0.0
11
0.078000
21
0.938000
31
0.0
0
LINE
8
MCD_Layer_0
10
0.057000
20
0.917000
30
0.0
11
0.057000
21
0.083500
31
0.0
0
LINE
8
MCD_Layer_0
10
0.078000
20
0.062500
30
0.0
11
0.141000
21
0.062500
31
0.0
0
LINE
8
MCD_Layer_0
10
0.141000
20
0.062500
30
0.0
11
0.141000
21
0.000000
31
0.0
0
LINE
8
MCD_Layer_0
10
0.141000
20
0.000000
30
0.0
11
-0.141000
21
0.000000
31
0.0
0
LINE
8
MCD_Layer_0
10
-0.409000
20
0.000000
30
0.0
11
-0.409000
21
0.062500
31
0.0
0
LINE
8
MCD_Layer_0
10
-0.409000
20
0.062500
30
0.0
11
-0.346000
21
0.062500
31
0.0
0
LINE
8
MCD_Layer_0
10
-0.326000
20
0.083500
30
0.0
11
-0.326000
21
0.917500
31
0.0
0
LINE
8
MCD_Layer_0
10
-0.346000
20
0.937500
30
0.0
11
-0.409000
21
0.937500
31
0.0
0
LINE
8
MCD_Layer_0
10
-0.409000
20
0.937500
30
0.0
11
-0.409000
21
1.000000
31
0.0
0
LINE
8
MCD_Layer_0
10
-0.409000
20
1.000000
30
0.0
11
-0.128000
21
1.000000
31
0.0
0
LINE
8
MCD_Layer_0
10
-0.128000
20
1.000000
30
0.0
11
-0.128000
21
0.937500
31
0.0
0
LINE
8
MCD_Layer_0
10
-0.128000
20
0.937500
30
0.0
11
-0.190000
21
0.937500
31
0.0
0
LINE
8
MCD_Layer_0
10
-0.211000
20
0.917500
30
0.0
11
-0.211000
21
0.563000
31
0.0
0
LINE
8
MCD_Layer_0
10
-0.211000
20
0.563000
30
0.0
11
0.211000
21
0.563000
31
0.0
0
LINE
8
MCD_Layer_0
10
0.211000
20
0.563000
30
0.0
11
0.211000
21
0.917500
31
0.0
0
LINE
8
MCD_Layer_0
10
0.190000
20
0.937500
30
0.0
11
0.128000
21
0.937500
31
0.0
0
LINE
8
MCD_Layer_0
10
0.128000
20
0.937500
30
0.0
11
0.128000
21
1.000000
31
0.0
0
LINE
8
MCD_Layer_0
10
0.128000
20
1.000000
30
0.0
11
0.409000
21
1.000000
31
0.0
0
LINE
8
MCD_Layer_0
10
0.409000
20
1.000000
30
0.0
11
0.409000
21
0.937500
31
0.0
0
LINE
8
MCD_Layer_0
10
0.409000
20
0.937500
30
0.0
11
0.346000
21
0.937500
31
0.0
0
LINE
8
MCD_Layer_0
10
0.325000
20
0.917500
30
0.0
11
0.325000
21
0.083500
31
0.0
0
LINE
8
MCD_Layer_0
10
0.346000
20
0.062500
30
0.0
11
0.409000
21
0.062500
31
0.0
0
LINE
8
MCD_Layer_0
10
0.409000
20
0.062500
30
0.0
11
0.409000
21
0.000000
31
0.0
0
LINE
8
MCD_Layer_0
10
0.409000
20
0.000000
30
0.0
11
0.128000
21
0.000000
31
0.0
0
LINE
8
MCD_Layer_0
10
0.128000
20
0.000000
30
0.0
11
0.128000
21
0.062500
31
0.0
0
LINE
8
MCD_Layer_0
10
0.128000
20
0.062500
30
0.0
11
0.190000
21
0.062500
31
0.0
0
LINE
8
MCD_Layer_0
10
0.211000
20
0.083500
30
0.0
11
0.211000
21
0.500000
31
0.0
0
LINE
8
MCD_Layer_0
10
0.211000
20
0.500000
30
0.0
11
-0.211000
21
0.500000
31
0.0
0
LINE
8
MCD_Layer_0
10
-0.211000
20
0.500000
30
0.0
11
-0.211000
21
0.083500
31
0.0
0
LINE
8
MCD_Layer_0
10
-0.190000
20
0.062500
30
0.0
11
-0.128000
21
0.062500
31
0.0
0
LINE
8
MCD_Layer_0
10
-0.128000
20
0.062500
30
0.0
11
-0.128000
21
0.000000
31
0.0
0
LINE
8
MCD_Layer_0
10
-0.128000
20
0.000000
30
0.0
11
-0.409000
21
0.000000
31
0.0
0
LINE
8
MCD_Layer_0
10
-0.443000
20
0.937100
30
0.0
11
-0.443000
21
0.999600
31
0.0
0
LINE
8
MCD_Layer_0
10
-0.443000
20
0.999600
30
0.0
11
-0.125000
21
0.999600
31
0.0
0
LINE
8
MCD_Layer_0
10
-0.125000
20
0.999600
30
0.0
11
-0.125000
21
0.937100
31
0.0
0
LINE
8
MCD_Layer_0
10
-0.125000
20
0.937100
30
0.0
11
-0.203000
21
0.937100
31
0.0
0
LINE
8
MCD_Layer_0
10
-0.221000
20
0.905100
30
0.0
11
0.026000
21
0.510600
31
0.0
0
LINE
8
MCD_Layer_0
10
0.026000
20
0.510600
30
0.0
11
0.259000
21
0.906100
31
0.0
0
LINE
8
MCD_Layer_0
10
0.241000
20
0.937100
30
0.0
11
0.182000
21
0.937100
31
0.0
0
LINE
8
MCD_Layer_0
10
0.182000
20
0.937100
30
0.0
11
0.182000
21
0.999600
31
0.0
0
LINE
8
MCD_Layer_0
10
0.182000
20
0.999600
30
0.0
11
0.443000
21
0.999600
31
0.0
0
LINE
8
MCD_Layer_0
10
0.443000
20
0.999600
30
0.0
11
0.443000
21
0.937100
31
0.0
0
LINE
8
MCD_Layer_0
10
0.443000
20
0.937100
30
0.0
11
0.353000
21
0.937100
31
0.0
0
LINE
8
MCD_Layer_0
10
0.335000
20
0.926100
30
0.0
11
0.047000
21
0.432600
31
0.0
0
LINE
8
MCD_Layer_0
10
0.047000
20
0.432600
30
0.0
11
0.047000
21
0.083100
31
0.0
0
LINE
8
MCD_Layer_0
10
0.068000
20
0.062100
30
0.0
11
0.130000
21
0.062100
31
0.0
0
LINE
8
MCD_Layer_0
10
0.130000
20
0.062100
30
0.0
11
0.130000
21
0.000000
31
0.0
0
LINE
8
MCD_Layer_0
10
0.130000
20
0.000000
30
0.0
11
-0.151000
21
0.000000
31
0.0
0
LINE
8
MCD_Layer_0
10
-0.151000
20
0.000000
30
0.0
11
-0.151000
21
0.062100
31
0.0
0
LINE
8
MCD_Layer_0
10
-0.151000
20
0.062100
30
0.0
11
-0.088000
21
0.062100
31
0.0
0
LINE
8
MCD_Layer_0
10
-0.068000
20
0.083100
30
0.0
11
-0.068000
21
0.432600
31
0.0
0
LINE
8
MCD_Layer_0
10
-0.068000
20
0.432600
30
0.0
11
-0.374000
21
0.926100
31
0.0
0
LINE
8
MCD_Layer_0
10
-0.392000
20
0.937100
30
0.0
11
-0.443000
21
0.937100
31
0.0
0
LINE
8
MCD_Layer_0
10
-0.547000
20
0.937100
30
0.0
11
-0.547000
21
0.999600
31
0.0
0
LINE
8
MCD_Layer_0
10
-0.547000
20
0.999600
30
0.0
11
-0.234000
21
0.999600
31
0.0
0
LINE
8
MCD_Layer_0
10
-0.234000
20
0.999600
30
0.0
11
-0.234000
21
0.937100
31
0.0
0
LINE
8
MCD_Layer_0
10
-0.234000
20
0.937100
30
0.0
11
-0.315000
21
0.937100
31
0.0
0
LINE
8
MCD_Layer_0
10
-0.335000
20
0.910100
30
0.0
11
-0.130000
21
0.312600
31
0.0
0
LINE
8
MCD_Layer_0
10
-0.130000
20
0.312600
30
0.0
11
0.042000
21
1.030600
31
0.0
0
LINE
8
MCD_Layer_0
10
0.042000
20
1.030600
30
0.0
11
0.213000
21
0.317600
31
0.0
0
LINE
8
MCD_Layer_0
10
0.213000
20
0.317600
30
0.0
11
0.395000
21
0.911500
31
0.0
0
LINE
8
MCD_Layer_0
10
0.375000
20
0.937500
30
0.0
11
0.297000
21
0.937500
31
0.0
0
LINE
8
MCD_Layer_0
10
0.297000
20
0.937500
30
0.0
11
0.297000
21
0.999600
31
0.0
0
LINE
8
MCD_Layer_0
10
0.297000
20
0.999600
30
0.0
11
0.547000
21
0.999600
31
0.0
0
LINE
8
MCD_Layer_0
10
0.547000
20
0.999600
30
0.0
11
0.547000
21
0.937500
31
0.0
0
LINE
8
MCD_Layer_0
10
0.547000
20
0.937500
30
0.0
11
0.481000
21
0.937500
31
0.0
0
LINE
8
MCD_Layer_0
10
0.461000
20
0.922500
30
0.0
11
0.182000
21
-0.042400
31
0.0
0
LINE
8
MCD_Layer_0
10
0.182000
20
-0.042400
30
0.0
11
0.010000
21
0.640600
31
0.0
0
LINE
8
MCD_Layer_0
10
0.010000
20
0.640600
30
0.0
11
-0.141000
21
-0.042400
31
0.0
0
LINE
8
MCD_Layer_0
10
-0.141000
20
-0.042400
30
0.0
11
-0.469000
21
0.923100
31
0.0
0
LINE
8
MCD_Layer_0
10
-0.489000
20
0.937100
30
0.0
11
-0.547000
21
0.937100
31
0.0
0
LINE
8
MCD_Layer_0
10
-0.333500
20
-0.010400
30
0.0
11
-0.333500
21
0.280600
31
0.0
0
LINE
8
MCD_Layer_0
10
-0.333500
20
0.280600
30
0.0
11
-0.271300
21
0.280600
31
0.0
0
LINE
8
MCD_Layer_0
10
0.135600
20
0.253700
30
0.0
11
0.135600
21
0.917100
31
0.0
0
LINE
8
MCD_Layer_0
10
0.114600
20
0.937100
30
0.0
11
0.051600
21
0.937100
31
0.0
0
LINE
8
MCD_Layer_0
10
0.051600
20
0.937100
30
0.0
11
0.051600
21
0.999600
31
0.0
0
LINE
8
MCD_Layer_0
10
0.051600
20
0.999600
30
0.0
11
0.333600
21
0.999600
31
0.0
0
LINE
8
MCD_Layer_0
10
0.333600
20
0.999600
30
0.0
11
0.333600
21
0.937100
31
0.0
0
LINE
8
MCD_Layer_0
10
0.333600
20
0.937100
30
0.0
11
0.270600
21
0.937100
31
0.0
0
LINE
8
MCD_Layer_0
10
0.249600
20
0.917100
30
0.0
11
0.249600
21
0.259600
31
0.0
0
LINE
8
MCD_Layer_0
10
-0.271300
20
-0.010400
30
0.0
11
-0.333500
21
-0.010400
31
0.0
0
LINE
8
MCD_Layer_0
10
-0.414000
20
0.938600
30
0.0
11
-0.414000
21
1.001100
31
0.0
0
LINE
8
MCD_Layer_0
10
-0.414000
20
1.001100
30
0.0
11
-0.132000
21
1.001100
31
0.0
0
LINE
8
MCD_Layer_0
10
-0.132000
20
1.001100
30
0.0
11
-0.132000
21
0.938600
31
0.0
0
LINE
8
MCD_Layer_0
10
-0.132000
20
0.938600
30
0.0
11
-0.195000
21
0.938600
31
0.0
0
LINE
8
MCD_Layer_0
10
-0.216000
20
0.918600
30
0.0
11
-0.216000
21
0.293100
31
0.0
0
LINE
8
MCD_Layer_0
10
0.269000
20
0.261100
30
0.0
11
0.269000
21
0.918600
31
0.0
0
LINE
8
MCD_Layer_0
10
0.248000
20
0.938600
30
0.0
11
0.185000
21
0.938600
31
0.0
0
LINE
8
MCD_Layer_0
10
0.185000
20
0.938600
30
0.0
11
0.185000
21
1.001100
31
0.0
0
LINE
8
MCD_Layer_0
10
0.185000
20
1.001100
30
0.0
11
0.414000
21
1.001100
31
0.0
0
LINE
8
MCD_Layer_0
10
0.414000
20
1.001100
30
0.0
11
0.414000
21
0.938600
31
0.0
0
LINE
8
MCD_Layer_0
10
0.414000
20
0.938600
30
0.0
11
0.352000
21
0.938600
31
0.0
0
LINE
8
MCD_Layer_0
10
0.331000
20
0.918600
30
0.0
11
0.331200
21
0.248500
31
0.0
0
LINE
8
MCD_Layer_0
10
-0.330000
20
0.272100
30
0.0
11
-0.330000
21
0.918600
31
0.0
0
LINE
8
MCD_Layer_0
10
-0.351000
20
0.938600
30
0.0
11
-0.414000
21
0.938600
31
0.0
0
LINE
8
MCD_Layer_0
10
-0.331500
20
0.000000
30
0.0
11
-0.331500
21
0.062500
31
0.0
0
LINE
8
MCD_Layer_0
10
-0.331500
20
0.062500
30
0.0
11
-0.268500
21
0.062500
31
0.0
0
LINE
8
MCD_Layer_0
10
-0.248500
20
0.083500
30
0.0
11
-0.248500
21
0.917500
31
0.0
0
LINE
8
MCD_Layer_0
10
-0.268500
20
0.937500
30
0.0
11
-0.331500
21
0.937500
31
0.0
0
LINE
8
MCD_Layer_0
10
-0.331500
20
0.937500
30
0.0
11
-0.331500
21
1.000000
31
0.0
0
LINE
8
MCD_Layer_0
10
-0.331500
20
1.000000
30
0.0
11
-0.050500
21
1.000000
31
0.0
0
LINE
8
MCD_Layer_0
10
-0.050500
20
1.000000
30
0.0
11
-0.050500
21
0.937500
31
0.0
0
LINE
8
MCD_Layer_0
10
-0.050500
20
0.937500
30
0.0
11
-0.112500
21
0.937500
31
0.0
0
LINE
8
MCD_Layer_0
10
-0.133500
20
0.917500
30
0.0
11
-0.133500
21
0.109000
31
0.0
0
LINE
8
MCD_Layer_0
10
0.260700
20
0.172900
30
0.0
11
0.273200
21
0.209500
31
0.0
0
LINE
8
MCD_Layer_0
10
0.273200
20
0.209500
30
0.0
11
0.331500
21
0.187000
31
0.0
0
LINE
8
MCD_Layer_0
10
0.331500
20
0.187000
30
0.0
11
0.267500
21
0.000000
31
0.0
0
LINE
8
MCD_Layer_0
10
0.267500
20
0.000000
30
0.0
11
-0.331500
21
0.000000
31
0.0
0
LINE
8
MCD_Layer_0
10
-0.218800
20
0.723100
30
0.0
11
-0.281300
21
0.723100
31
0.0
0
LINE
8
MCD_Layer_0
10
-0.281300
20
0.723100
30
0.0
11
-0.281300
21
1.042100
31
0.0
0
LINE
8
MCD_Layer_0
10
-0.281300
20
1.042100
30
0.0
11
-0.198000
21
1.042100
31
0.0
0
LINE
8
MCD_Layer_0
10
-0.218800
20
0.104200
30
0.0
11
0.094700
21
0.104200
31
0.0
0
LINE
8
MCD_Layer_0
10
0.213800
20
0.191200
30
0.0
11
0.239200
21
0.270700
31
0.0
0
LINE
8
MCD_Layer_0
10
0.239200
20
0.270700
30
0.0
11
0.294100
21
0.239600
31
0.0
0
LINE
8
MCD_Layer_0
10
0.294100
20
0.239600
30
0.0
11
0.218700
21
0.000000
31
0.0
0
LINE
8
MCD_Layer_0
10
0.218700
20
0.000000
30
0.0
11
-0.281300
21
0.000000
31
0.0
0
LINE
8
MCD_Layer_0
10
-0.114500
20
0.000000
30
0.0
11
-0.114500
21
0.052000
31
0.0
0
LINE
8
MCD_Layer_0
10
-0.114500
20
0.052000
30
0.0
11
-0.093500
21
0.052000
31
0.0
0
LINE
8
MCD_Layer_0
10
-0.051500
20
0.095000
30
0.0
11
-0.051500
21
0.829000
31
0.0
0
LINE
8
MCD_Layer_0
10
-0.093500
20
0.872000
30
0.0
11
-0.114500
21
0.872000
31
0.0
0
LINE
8
MCD_Layer_0
10
-0.114500
20
0.872000
30
0.0
11
-0.114500
21
0.936000
31
0.0
0
LINE
8
MCD_Layer_0
10
0.010500
20
1.063000
30
0.0
11
0.052500
21
1.063000
31
0.0
0
LINE
8
MCD_Layer_0
10
0.052500
20
1.063000
30
0.0
11
0.052500
21
0.095000
31
0.0
0
LINE
8
MCD_Layer_0
10
0.093500
20
0.052000
30
0.0
11
0.114500
21
0.052000
31
0.0
0
LINE
8
MCD_Layer_0
10
0.114500
20
0.052000
30
0.0
11
0.114500
21
0.000000
31
0.0
0
LINE
8
MCD_Layer_0
10
0.114500
20
0.000000
30
0.0
11
-0.114500
21
0.000000
31
0.0
0
LINE
8
MCD_Layer_0
10
-0.329600
20
-0.032164
30
0.0
11
-0.329600
21
0.031836
31
0.0
0
LINE
8
MCD_Layer_0
10
0.182400
20
0.701236
30
0.0
11
0.182900
21
0.747236
31
0.0
0
LINE
8
MCD_Layer_0
10
-0.234200
20
0.747236
30
0.0
11
-0.234200
21
0.674236
31
0.0
0
LINE
8
MCD_Layer_0
10
0.327700
20
1.032200
30
0.0
11
0.327700
21
0.968200
31
0.0
0
LINE
8
MCD_Layer_0
10
-0.184300
20
0.298800
30
0.0
11
-0.184800
21
0.252800
31
0.0
0
LINE
8
MCD_Layer_0
10
0.232300
20
0.252800
30
0.0
11
0.232300
21
0.325800
31
0.0
0
LINE
8
MCD_Layer_0
10
-0.437500
20
0.000000
30
0.0
11
-0.437500
21
0.062500
31
0.0
0
LINE
8
MCD_Layer_0
10
-0.437500
20
0.062500
30
0.0
11
-0.398500
21
0.062500
31
0.0
0
LINE
8
MCD_Layer_0
10
-0.358500
20
0.090500
30
0.0
11
-0.015500
21
1.052000
31
0.0
0
LINE
8
MCD_Layer_0
10
-0.015500
20
1.052000
30
0.0
11
0.328500
21
0.090500
31
0.0
0
LINE
8
MCD_Layer_0
10
0.368500
20
0.062500
30
0.0
11
0.437500
21
0.062500
31
0.0
0
LINE
8
MCD_Layer_0
10
0.437500
20
0.062500
30
0.0
11
0.437500
21
0.000000
31
0.0
0
LINE
8
MCD_Layer_0
10
0.437500
20
0.000000
30
0.0
11
0.130500
21
0.000000
31
0.0
0
LINE
8
MCD_Layer_0
10
0.130500
20
0.000000
30
0.0
11
0.130500
21
0.062500
31
0.0
0
LINE
8
MCD_Layer_0
10
0.130500
20
0.062500
30
0.0
11
0.185500
21
0.062500
31
0.0
0
LINE
8
MCD_Layer_0
10
0.204500
20
0.089500
30
0.0
11
0.097500
21
0.375000
31
0.0
0
LINE
8
MCD_Layer_0
10
0.097500
20
0.375000
30
0.0
11
-0.191500
21
0.375000
31
0.0
0
LINE
8
MCD_Layer_0
10
-0.191500
20
0.375000
30
0.0
11
-0.298500
21
0.089500
31
0.0
0
LINE
8
MCD_Layer_0
10
-0.278500
20
0.062500
30
0.0
11
-0.223500
21
0.062500
31
0.0
0
LINE
8
MCD_Layer_0
10
-0.223500
20
0.062500
30
0.0
11
-0.223500
21
0.000000
31
0.0
0
LINE
8
MCD_Layer_0
10
-0.223500
20
0.000000
30
0.0
11
-0.437500
21
0.000000
31
0.0
0
LINE
8
MCD_Layer_0
10
-0.169500
20
0.438000
30
0.0
11
0.075500
21
0.438000
31
0.0
0
LINE
8
MCD_Layer_0
10
0.075500
20
0.438000
30
0.0
11
-0.047500
21
0.788000
31
0.0
0
LINE
8
MCD_Layer_0
10
-0.047500
20
0.788000
30
0.0
11
-0.169500
21
0.438000
31
0.0
0
LINE
8
MCD_Layer_0
10
-0.297000
20
0.000000
30
0.0
11
-0.297000
21
0.062500
31
0.0
0
LINE
8
MCD_Layer_0
10
-0.297000
20
0.062500
30
0.0
11
-0.234000
21
0.062500
31
0.0
0
LINE
8
MCD_Layer_0
10
-0.214000
20
0.083500
30
0.0
11
-0.214000
21
0.917500
31
0.0
0
LINE
8
MCD_Layer_0
10
-0.234000
20
0.937500
30
0.0
11
-0.297000
21
0.937500
31
0.0
0
LINE
8
MCD_Layer_0
10
-0.297000
20
0.937500
30
0.0
11
-0.297000
21
1.000000
31
0.0
0
LINE
8
MCD_Layer_0
10
-0.297000
20
1.000000
30
0.0
11
0.047000
21
1.000000
31
0.0
0
LINE
8
MCD_Layer_0
10
-0.099000
20
0.479000
30
0.0
11
-0.099000
21
0.083500
31
0.0
0
LINE
8
MCD_Layer_0
10
-0.078000
20
0.062500
30
0.0
11
-0.016000
21
0.062500
31
0.0
0
LINE
8
MCD_Layer_0
10
-0.016000
20
0.062500
30
0.0
11
-0.016000
21
0.000000
31
0.0
0
LINE
8
MCD_Layer_0
10
-0.016000
20
0.000000
30
0.0
11
-0.297000
21
0.000000
31
0.0
0
LINE
8
MCD_Layer_0
10
0.005000
20
0.938000
30
0.0
11
-0.099000
21
0.938000
31
0.0
0
LINE
8
MCD_Layer_0
10
-0.099000
20
0.938000
30
0.0
11
-0.099000
21
0.542000
31
0.0
0
LINE
8
MCD_Layer_0
10
-0.326300
20
0.100100
30
0.0
11
-0.291300
21
0.150100
31
0.0
0
LINE
8
MCD_Layer_0
10
-0.043300
20
0.486100
30
0.0
11
-0.043300
21
0.444100
31
0.0
0
LINE
8
MCD_Layer_0
10
-0.043300
20
0.444100
30
0.0
11
-0.106300
21
0.444100
31
0.0
0
LINE
8
MCD_Layer_0
10
-0.106300
20
0.444100
30
0.0
11
-0.106300
21
0.678100
31
0.0
0
LINE
8
MCD_Layer_0
10
-0.106300
20
0.678100
30
0.0
11
-0.043300
21
0.678100
31
0.0
0
LINE
8
MCD_Layer_0
10
-0.043300
20
0.678100
30
0.0
11
-0.043300
21
0.635100
31
0.0
0
LINE
8
MCD_Layer_0
10
-0.168300
20
0.763100
30
0.0
11
-0.231300
21
0.763100
31
0.0
0
LINE
8
MCD_Layer_0
10
-0.231300
20
0.763100
30
0.0
11
-0.231300
21
1.039100
31
0.0
0
LINE
8
MCD_Layer_0
10
-0.231300
20
1.039100
30
0.0
11
-0.168300
21
1.039100
31
0.0
0
LINE
8
MCD_Layer_0
10
0.362100
20
0.325495
30
0.0
11
0.362100
21
0.262495
31
0.0
0
LINE
8
MCD_Layer_0
10
0.276100
20
1.033495
30
0.0
11
0.276100
21
1.044495
31
0.0
0
LINE
8
MCD_Layer_0
10
0.276100
20
1.044495
30
0.0
11
0.335100
21
1.044495
31
0.0
0
LINE
8
MCD_Layer_0
10
0.335100
20
1.044495
30
0.0
11
0.335100
21
0.742495
31
0.0
0
LINE
8
MCD_Layer_0
10
0.335100
20
0.742495
30
0.0
11
0.271100
21
0.742495
31
0.0
0
LINE
8
MCD_Layer_0
10
0.271100
20
0.742495
30
0.0
11
0.271100
21
0.778495
31
0.0
0
LINE
8
MCD_Layer_0
10
0.295100
20
0.262495
30
0.0
11
0.295100
21
0.325495
31
0.0
0
LINE
8
MCD_Layer_0
10
0.295100
20
0.325495
30
0.0
11
0.362100
21
0.325495
31
0.0
0
LINE
8
MCD_Layer_0
10
-0.336000
20
0.000000
30
0.0
11
-0.336000
21
0.062500
31
0.0
0
LINE
8
MCD_Layer_0
10
-0.336000
20
0.062500
30
0.0
11
-0.273000
21
0.062500
31
0.0
0
LINE
8
MCD_Layer_0
10
-0.253000
20
0.083500
30
0.0
11
-0.253000
21
0.917500
31
0.0
0
LINE
8
MCD_Layer_0
10
-0.273000
20
0.937500
30
0.0
11
-0.336000
21
0.937500
31
0.0
0
LINE
8
MCD_Layer_0
10
-0.336000
20
0.937500
30
0.0
11
-0.336000
21
1.000000
31
0.0
0
LINE
8
MCD_Layer_0
10
-0.336000
20
1.000000
30
0.0
11
0.237000
21
1.000000
31
0.0
0
LINE
8
MCD_Layer_0
10
0.237000
20
1.000000
30
0.0
11
0.237000
21
0.813000
31
0.0
0
LINE
8
MCD_Layer_0
10
0.237000
20
0.813000
30
0.0
11
0.179000
21
0.813000
31
0.0
0
LINE
8
MCD_Layer_0
10
0.179000
20
0.813000
30
0.0
11
0.179000
21
0.896000
31
0.0
0
LINE
8
MCD_Layer_0
10
0.138000
20
0.938000
30
0.0
11
-0.138000
21
0.938000
31
0.0
0
LINE
8
MCD_Layer_0
10
-0.138000
20
0.563000
30
0.0
11
0.064300
21
0.563000
31
0.0
0
LINE
8
MCD_Layer_0
10
0.085300
20
0.583000
30
0.0
11
0.085300
21
0.635000
31
0.0
0
LINE
8
MCD_Layer_0
10
0.085300
20
0.635000
30
0.0
11
0.148000
21
0.635000
31
0.0
0
LINE
8
MCD_Layer_0
10
0.148000
20
0.635000
30
0.0
11
0.148000
21
0.429700
31
0.0
0
LINE
8
MCD_Layer_0
10
0.148000
20
0.429700
30
0.0
11
0.085300
21
0.429700
31
0.0
0
LINE
8
MCD_Layer_0
10
0.085300
20
0.429700
30
0.0
11
0.085300
21
0.481700
31
0.0
0
LINE
8
MCD_Layer_0
10
0.064300
20
0.501700
30
0.0
11
-0.138000
21
0.501700
31
0.0
0
LINE
8
MCD_Layer_0
10
-0.138000
20
0.501700
30
0.0
11
-0.138000
21
0.109000
31
0.0
0
LINE
8
MCD_Layer_0
10
0.251700
20
0.160100
30
0.0
11
0.279200
21
0.241100
31
0.0
0
LINE
8
MCD_Layer_0
10
0.279200
20
0.241100
30
0.0
11
0.336000
21
0.214000
31
0.0
0
LINE
8
MCD_Layer_0
10
0.336000
20
0.214000
30
0.0
11
0.263000
21
0.000000
31
0.0
0
LINE
8
MCD_Layer_0
10
0.263000
20
0.000000
30
0.0
11
-0.336000
21
0.000000
31
0.0
0
LINE
8
MCD_Layer_0
10
-0.456000
20
0.000000
30
0.0
11
-0.456000
21
0.062500
31
0.0
0
LINE
8
MCD_Layer_0
10
-0.456000
20
0.062500
30
0.0
11
-0.404000
21
0.062500
31
0.0
0
LINE
8
MCD_Layer_0
10
-0.383000
20
0.083500
30
0.0
11
-0.383000
21
0.917500
31
0.0
0
LINE
8
MCD_Layer_0
10
-0.404000
20
0.937500
30
0.0
11
-0.456000
21
0.937500
31
0.0
0
LINE
8
MCD_Layer_0
10
-0.456000
20
0.937500
30
0.0
11
-0.456000
21
1.000000
31
0.0
0
LINE
8
MCD_Layer_0
10
-0.456000
20
1.000000
30
0.0
11
-0.305000
21
1.000000
31
0.0
0
LINE
8
MCD_Layer_0
10
-0.305000
20
1.000000
30
0.0
11
-0.008000
21
0.203000
31
0.0
0
LINE
8
MCD_Layer_0
10
-0.008000
20
0.203000
30
0.0
11
0.276300
21
1.000000
31
0.0
0
LINE
8
MCD_Layer_0
10
0.276300
20
1.000000
30
0.0
11
0.456100
21
1.000000
31
0.0
0
LINE
8
MCD_Layer_0
10
0.456100
20
1.000000
30
0.0
11
0.456100
21
0.937500
31
0.0
0
LINE
8
MCD_Layer_0
10
0.456100
20
0.937500
30
0.0
11
0.388100
21
0.937500
31
0.0
0
LINE
8
MCD_Layer_0
10
0.367100
20
0.917500
30
0.0
11
0.367100
21
0.083500
31
0.0
0
LINE
8
MCD_Layer_0
10
0.388100
20
0.062500
30
0.0
11
0.456100
21
0.062500
31
0.0
0
LINE
8
MCD_Layer_0
10
0.456100
20
0.062500
30
0.0
11
0.456100
21
0.000000
31
0.0
0
LINE
8
MCD_Layer_0
10
0.456100
20
0.000000
30
0.0
11
0.169100
21
0.000000
31
0.0
0
LINE
8
MCD_Layer_0
10
0.169100
20
0.000000
30
0.0
11
0.169100
21
0.062500
31
0.0
0
LINE
8
MCD_Layer_0
10
0.169100
20
0.062500
30
0.0
11
0.232100
21
0.062500
31
0.0
0
LINE
8
MCD_Layer_0
10
0.252100
20
0.083500
30
0.0
11
0.252100
21
0.750000
31
0.0
0
LINE
8
MCD_Layer_0
10
0.252100
20
0.750000
30
0.0
11
-0.034000
21
-0.057000
31
0.0
0
LINE
8
MCD_Layer_0
10
-0.034000
20
-0.057000
30
0.0
11
-0.321000
21
0.734000
31
0.0
0
LINE
8
MCD_Layer_0
10
-0.321000
20
0.734000
30
0.0
11
-0.321000
21
0.083500
31
0.0
0
LINE
8
MCD_Layer_0
10
-0.300000
20
0.062500
30
0.0
11
-0.248000
21
0.062500
31
0.0
0
LINE
8
MCD_Layer_0
10
-0.248000
20
0.062500
30
0.0
11
-0.248000
21
0.000000
31
0.0
0
LINE
8
MCD_Layer_0
10
-0.248000
20
0.000000
30
0.0
11
-0.456000
21
0.000000
31
0.0
0
LINE
8
MCD_Layer_0
10
0.750000
20
0.850000
30
0.0
11
0.575000
21
1.000000
31
0.0
0
LINE
8
MCD_Layer_0
10
0.575000
20
1.000000
30
0.0
11
0.150000
21
1.000000
31
0.0
0
LINE
8
MCD_Layer_0
10
0.150000
20
1.000000
30
0.0
11
0.000000
21
0.825000
31
0.0
0
LINE
8
MCD_Layer_0
10
0.000000
20
0.825000
30
0.0
11
0.000000
21
0.150000
31
0.0
0
LINE
8
MCD_Layer_0
10
0.000000
20
0.150000
30
0.0
11
0.150000
21
0.000000
31
0.0
0
LINE
8
MCD_Layer_0
10
0.150000
20
0.000000
30
0.0
11
0.575000
21
0.000000
31
0.0
0
LINE
8
MCD_Layer_0
10
0.575000
20
0.000000
30
0.0
11
0.750000
21
0.150000
31
0.0
0
LINE
8
MCD_Layer_0
10
0.750000
20
0.150000
30
0.0
11
0.750000
21
0.850000
31
0.0
0
LINE
8
MCD_Layer_0
10
0.050000
20
0.000000
30
0.0
11
0.050000
21
0.500000
31
0.0
0
LINE
8
MCD_Layer_0
10
0.050000
20
0.400000
30
0.0
11
0.175000
21
0.500000
31
0.0
0
LINE
8
MCD_Layer_0
10
0.175000
20
0.500000
30
0.0
11
0.600000
21
0.500000
31
0.0
0
LINE
8
MCD_Layer_0
10
0.600000
20
0.500000
30
0.0
11
0.700000
21
0.400000
31
0.0
0
LINE
8
MCD_Layer_0
10
0.700000
20
1.000000
30
0.0
11
0.700000
21
0.000000
31
0.0
0
LINE
8
MCD_Layer_0
10
0.700000
20
0.100000
30
0.0
11
0.600000
21
0.000000
31
0.0
0
LINE
8
MCD_Layer_0
10
0.600000
20
0.000000
30
0.0
11
0.125000
21
0.000000
31
0.0
0
LINE
8
MCD_Layer_0
10
0.125000
20
0.000000
30
0.0
11
0.050000
21
0.075000
31
0.0
0
LINE
8
MCD_Layer_0
10
0.050000
20
0.075000
30
0.0
11
0.050000
21
0.400000
31
0.0
0
LINE
8
MCD_Layer_0
10
0.050000
20
0.400000
30
0.0
11
0.050000
21
0.425000
31
0.0
0
LINE
8
MCD_Layer_0
10
0.050000
20
0.425000
30
0.0
11
0.150000
21
0.500000
31
0.0
0
LINE
8
MCD_Layer_0
10
0.150000
20
0.500000
30
0.0
11
0.600000
21
0.500000
31
0.0
0
LINE
8
MCD_Layer_0
10
0.600000
20
0.500000
30
0.0
11
0.700000
21
0.425000
31
0.0
0
LINE
8
MCD_Layer_0
10
0.700000
20
0.350000
30
0.0
11
0.700000
21
0.425000
31
0.0
0
LINE
8
MCD_Layer_0
10
0.700000
20
0.425000
30
0.0
11
0.600000
21
0.500000
31
0.0
0
LINE
8
MCD_Layer_0
10
0.600000
20
0.500000
30
0.0
11
0.150000
21
0.500000
31
0.0
0
LINE
8
MCD_Layer_0
10
0.150000
20
0.500000
30
0.0
11
0.050000
21
0.400000
31
0.0
0
LINE
8
MCD_Layer_0
10
0.050000
20
0.400000
30
0.0
11
0.050000
21
0.100000
31
0.0
0
LINE
8
MCD_Layer_0
10
0.050000
20
0.100000
30
0.0
11
0.150000
21
0.000000
31
0.0
0
LINE
8
MCD_Layer_0
10
0.150000
20
0.000000
30
0.0
11
0.600000
21
0.000000
31
0.0
0
LINE
8
MCD_Layer_0
10
0.600000
20
0.000000
30
0.0
11
0.700000
21
0.100000
31
0.0
0
LINE
8
MCD_Layer_0
10
0.700000
20
0.350000
30
0.0
11
0.600000
21
0.275000
31
0.0
0
LINE
8
MCD_Layer_0
10
0.600000
20
0.275000
30
0.0
11
0.050000
21
0.275000
31
0.0
0
LINE
8
MCD_Layer_0
10
0.325000
20
0.800000
30
0.0
11
0.100000
21
0.250000
31
0.0
0
LINE
8
MCD_Layer_0
10
0.600000
20
0.800000
30
0.0
11
0.425000
21
0.250000
31
0.0
0
LINE
8
MCD_Layer_0
10
0.175000
20
0.700000
30
0.0
11
0.700000
21
0.700000
31
0.0
0
LINE
8
MCD_Layer_0
10
0.000000
20
0.350000
30
0.0
11
0.600000
21
0.350000
31
0.0
0
LINE
8
MCD_Layer_0
10
0.000000
20
1.000000
30
0.0
11
0.750000
21
0.000000
31
0.0
0
LINE
8
MCD_Layer_0
10
0.750000
20
0.000000
30
0.0
11
0.750000
21
1.000000
31
0.0
0
LINE
8
MCD_Layer_0
10
0.600000
20
0.500000
30
0.0
11
0.700000
21
0.375000
31
0.0
0
LINE
8
MCD_Layer_0
10
0.700000
20
0.375000
30
0.0
11
0.700000
21
0.000000
31
0.0
0
LINE
8
MCD_Layer_0
10
0.700000
20
0.275000
30
0.0
11
0.600000
21
0.375000
31
0.0
0
LINE
8
MCD_Layer_0
10
0.600000
20
0.375000
30
0.0
11
0.175000
21
0.375000
31
0.0
0
LINE
8
MCD_Layer_0
10
0.175000
20
0.375000
30
0.0
11
0.050000
21
0.275000
31
0.0
0
LINE
8
MCD_Layer_0
10
0.050000
20
0.275000
30
0.0
11
0.050000
21
0.075000
31
0.0
0
LINE
8
MCD_Layer_0
10
0.050000
20
0.075000
30
0.0
11
0.150000
21
0.000000
31
0.0
0
LINE
8
MCD_Layer_0
10
0.600000
20
0.000000
30
0.0
11
0.700000
21
0.075000
31
0.0
0
LINE
8
MCD_Layer_0
10
0.050000
20
0.425000
30
0.0
11
0.175000
21
0.500000
31
0.0
0
LINE
8
MCD_Layer_0
10
0.050000
20
0.500000
30
0.0
11
0.050000
21
0.000000
31
0.0
0
LINE
8
MCD_Layer_0
10
0.050000
20
0.425000
30
0.0
11
0.125000
21
0.500000
31
0.0
0
LINE
8
MCD_Layer_0
10
0.125000
20
0.500000
30
0.0
11
0.325000
21
0.500000
31
0.0
0
LINE
8
MCD_Layer_0
10
0.325000
20
0.500000
30
0.0
11
0.375000
21
0.425000
31
0.0
0
LINE
8
MCD_Layer_0
10
0.375000
20
0.425000
30
0.0
11
0.425000
21
0.500000
31
0.0
0
LINE
8
MCD_Layer_0
10
0.425000
20
0.500000
30
0.0
11
0.625000
21
0.500000
31
0.0
0
LINE
8
MCD_Layer_0
10
0.625000
20
0.500000
30
0.0
11
0.700000
21
0.425000
31
0.0
0
LINE
8
MCD_Layer_0
10
0.700000
20
0.425000
30
0.0
11
0.700000
21
0.000000
31
0.0
0
LINE
8
MCD_Layer_0
10
0.375000
20
0.425000
30
0.0
11
0.375000
21
0.000000
31
0.0
0
LINE
8
MCD_Layer_0
10
0.000000
20
0.825000
30
0.0
11
0.000000
21
0.600000
31
0.0
0
LINE
8
MCD_Layer_0
10
0.000000
20
0.600000
30
0.0
11
0.150000
21
0.500000
31
0.0
0
LINE
8
MCD_Layer_0
10
0.150000
20
0.500000
30
0.0
11
0.575000
21
0.500000
31
0.0
0
LINE
8
MCD_Layer_0
10
0.575000
20
0.500000
30
0.0
11
0.750000
21
0.375000
31
0.0
0
LINE
8
MCD_Layer_0
10
0.750000
20
0.375000
30
0.0
11
0.750000
21
0.150000
31
0.0
0
LINE
8
MCD_Layer_0
10
0.750000
20
0.150000
30
0.0
11
0.575000
21
0.000000
31
0.0
0
LINE
8
MCD_Layer_0
10
0.575000
20
0.000000
30
0.0
11
0.150000
21
0.000000
31
0.0
0
LINE
8
MCD_Layer_0
10
0.150000
20
0.000000
30
0.0
11
0.000000
21
0.150000
31
0.0
0
LINE
8
MCD_Layer_0
10
0.175000
20
0.950000
30
0.0
11
0.175000
21
0.075000
31
0.0
0
LINE
8
MCD_Layer_0
10
0.175000
20
0.075000
30
0.0
11
0.300000
21
0.000000
31
0.0
0
LINE
8
MCD_Layer_0
10
0.300000
20
0.000000
30
0.0
11
0.600000
21
0.000000
31
0.0
0
LINE
8
MCD_Layer_0
10
0.050000
20
0.500000
30
0.0
11
0.425000
21
0.500000
31
0.0
0
LINE
8
MCD_Layer_0
10
0.750000
20
0.875000
30
0.0
11
0.575000
21
1.000000
31
0.0
0
LINE
8
MCD_Layer_0
10
0.575000
20
1.000000
30
0.0
11
0.175000
21
1.000000
31
0.0
0
LINE
8
MCD_Layer_0
10
0.175000
20
1.000000
30
0.0
11
0.000000
21
0.850000
31
0.0
0
LINE
8
MCD_Layer_0
10
0.000000
20
0.850000
30
0.0
11
0.000000
21
0.125000
31
0.0
0
LINE
8
MCD_Layer_0
10
0.000000
20
0.125000
30
0.0
11
0.150000
21
0.000000
31
0.0
0
LINE
8
MCD_Layer_0
10
0.575000
20
0.000000
30
0.0
11
0.750000
21
0.125000
31
0.0
0
LINE
8
MCD_Layer_0
10
0.050000
20
0.100000
30
0.0
11
0.200000
21
0.000000
31
0.0
0
LINE
8
MCD_Layer_0
10
0.200000
20
0.000000
30
0.0
11
0.700000
21
0.000000
31
0.0
0
LINE
8
MCD_Layer_0
10
0.050000
20
0.500000
30
0.0
11
0.050000
21
0.100000
31
0.0
0
LINE
8
MCD_Layer_0
10
0.700000
20
0.500000
30
0.0
11
0.700000
21
0.000000
31
0.0
0
LINE
8
MCD_Layer_0
10
0.700000
20
0.000000
30
0.0
11
0.700000
21
-0.150000
31
0.0
0
LINE
8
MCD_Layer_0
10
0.700000
20
-0.150000
30
0.0
11
0.700000
21
-0.250000
31
0.0
0
LINE
8
MCD_Layer_0
10
0.700000
20
-0.250000
30
0.0
11
0.550000
21
-0.350000
31
0.0
0
LINE
8
MCD_Layer_0
10
0.550000
20
-0.350000
30
0.0
11
0.125000
21
-0.350000
31
0.0
0
LINE
8
MCD_Layer_0
10
0.125000
20
-0.350000
30
0.0
11
0.025000
21
-0.275000
31
0.0
0
LINE
8
MCD_Layer_0
10
0.375000
20
0.000000
30
0.0
11
0.375000
21
1.000000
31
0.0
0
LINE
8
MCD_Layer_0
10
0.250000
20
1.000000
30
0.0
11
0.500000
21
1.000000
31
0.0
0
LINE
8
MCD_Layer_0
10
0.250000
20
0.000000
30
0.0
11
0.500000
21
0.000000
31
0.0
0
LINE
8
MCD_Layer_0
10
0.050000
20
0.000000
30
0.0
11
0.050000
21
1.000000
31
0.0
0
LINE
8
MCD_Layer_0
10
0.050000
20
0.400000
30
0.0
11
0.200000
21
0.500000
31
0.0
0
LINE
8
MCD_Layer_0
10
0.200000
20
0.500000
30
0.0
11
0.600000
21
0.500000
31
0.0
0
LINE
8
MCD_Layer_0
10
0.700000
20
0.400000
30
0.0
11
0.700000
21
0.000000
31
0.0
0
LINE
8
MCD_Layer_0
10
0.050000
20
0.500000
30
0.0
11
0.050000
21
0.400000
31
0.0
0
LINE
8
MCD_Layer_0
10
0.050000
20
0.400000
30
0.0
11
0.375000
21
0.000000
31
0.0
0
LINE
8
MCD_Layer_0
10
0.375000
20
0.000000
30
0.0
11
0.700000
21
0.400000
31
0.0
0
LINE
8
MCD_Layer_0
10
0.700000
20
0.400000
30
0.0
11
0.700000
21
0.500000
31
0.0
0
LINE
8
MCD_Layer_0
10
0.700000
20
0.900000
30
0.0
11
0.600000
21
1.000000
31
0.0
0
LINE
8
MCD_Layer_0
10
0.600000
20
1.000000
30
0.0
11
0.250000
21
1.000000
31
0.0
0
LINE
8
MCD_Layer_0
10
0.250000
20
1.000000
30
0.0
11
0.125000
21
0.925000
31
0.0
0
LINE
8
MCD_Layer_0
10
0.125000
20
0.925000
30
0.0
11
0.125000
21
0.000000
31
0.0
0
LINE
8
MCD_Layer_0
10
0.000000
20
0.500000
30
0.0
11
0.375000
21
0.500000
31
0.0
0
LINE
8
MCD_Layer_0
10
0.050000
20
0.500000
30
0.0
11
0.050000
21
0.075000
31
0.0
0
LINE
8
MCD_Layer_0
10
0.150000
20
0.000000
30
0.0
11
0.625000
21
0.000000
31
0.0
0
LINE
8
MCD_Layer_0
10
0.625000
20
0.000000
30
0.0
11
0.700000
21
0.075000
31
0.0
0
LINE
8
MCD_Layer_0
10
0.700000
20
0.075000
30
0.0
11
0.700000
21
0.500000
31
0.0
0
LINE
8
MCD_Layer_0
10
0.700000
20
0.075000
30
0.0
11
0.700000
21
0.000000
31
0.0
0
LINE
8
MCD_Layer_0
10
0.250000
20
1.000000
30
0.0
11
0.375000
21
1.000000
31
0.0
0
LINE
8
MCD_Layer_0
10
0.375000
20
1.000000
30
0.0
11
0.375000
21
0.000000
31
0.0
0
LINE
8
MCD_Layer_0
10
0.225000
20
0.000000
30
0.0
11
0.525000
21
0.000000
31
0.0
0
LINE
8
MCD_Layer_0
10
0.000000
20
1.000000
30
0.0
11
0.000000
21
0.000000
31
0.0
0
LINE
8
MCD_Layer_0
10
0.700000
20
0.500000
30
0.0
11
0.450000
21
0.350000
31
0.0
0
LINE
8
MCD_Layer_0
10
0.450000
20
0.350000
30
0.0
11
0.700000
21
0.000000
31
0.0
0
LINE
8
MCD_Layer_0
10
0.000000
20
0.350000
30
0.0
11
0.450000
21
0.350000
31
0.0
0
LINE
8
MCD_Layer_0
10
0.050000
20
0.400000
30
0.0
11
0.250000
21
0.000000
31
0.0
0
LINE
8
MCD_Layer_0
10
0.250000
20
0.000000
30
0.0
11
0.375000
21
0.450000
31
0.0
0
LINE
8
MCD_Layer_0
10
0.375000
20
0.450000
30
0.0
11
0.500000
21
0.000000
31
0.0
0
LINE
8
MCD_Layer_0
10
0.500000
20
0.000000
30
0.0
11
0.700000
21
0.400000
31
0.0
0
LINE
8
MCD_Layer_0
10
0.700000
20
0.400000
30
0.0
11
0.600000
21
0.500000
31
0.0
0
LINE
8
MCD_Layer_0
10
0.050000
20
0.400000
30
0.0
11
0.050000
21
0.075000
31
0.0
0
LINE
8
MCD_Layer_0
10
0.700000
20
0.400000
30
0.0
11
0.700000
21
-0.025000
31
0.0
0
LINE
8
MCD_Layer_0
10
0.700000
20
-0.025000
30
0.0
11
0.700000
21
-0.100000
31
0.0
0
LINE
8
MCD_Layer_0
10
0.700000
20
-0.100000
30
0.0
11
0.600000
21
-0.225000
31
0.0
0
LINE
8
MCD_Layer_0
10
0.600000
20
-0.225000
30
0.0
11
0.150000
21
-0.225000
31
0.0
0
LINE
8
MCD_Layer_0
10
0.150000
20
-0.225000
30
0.0
11
0.050000
21
-0.125000
31
0.0
0
LINE
8
MCD_Layer_0
10
0.050000
20
1.000000
30
0.0
11
0.050000
21
0.000000
31
0.0
0
LINE
8
MCD_Layer_0
10
0.700000
20
0.075000
30
0.0
11
0.700000
21
0.425000
31
0.0
0
LINE
8
MCD_Layer_0
10
0.700000
20
0.425000
30
0.0
11
0.625000
21
0.500000
31
0.0
0
LINE
8
MCD_Layer_0
10
0.625000
20
0.500000
30
0.0
11
0.150000
21
0.500000
31
0.0
0
LINE
8
MCD_Layer_0
10
0.150000
20
0.500000
30
0.0
11
0.050000
21
0.425000
31
0.0
0
LINE
8
MCD_Layer_0
10
0.375000
20
0.025000
30
0.0
11
0.350000
21
0.000000
31
0.0
0
LINE
8
MCD_Layer_0
10
0.350000
20
0.000000
30
0.0
11
0.375000
21
-0.025000
31
0.0
0
LINE
8
MCD_Layer_0
10
0.375000
20
-0.025000
30
0.0
11
0.400000
21
0.000000
31
0.0
0
LINE
8
MCD_Layer_0
10
0.400000
20
0.000000
30
0.0
11
0.375000
21
0.025000
31
0.0
0
LINE
8
MCD_Layer_0
10
0.050000
20
0.500000
30
0.0
11
0.700000
21
0.500000
31
0.0
0
LINE
8
MCD_Layer_0
10
0.700000
20
0.500000
30
0.0
11
0.050000
21
0.000000
31
0.0
0
LINE
8
MCD_Layer_0
10
0.050000
20
0.000000
30
0.0
11
0.725000
21
0.000000
31
0.0
0
LINE
8
MCD_Layer_0
10
0.400000
20
0.000000
30
0.0
11
0.425000
21
-0.050000
31
0.0
0
LINE
8
MCD_Layer_0
10
0.425000
20
-0.050000
30
0.0
11
0.400000
21
-0.075000
31
0.0
0
LINE
8
MCD_Layer_0
10
0.700000
20
0.425000
30
0.0
11
0.700000
21
0.100000
31
0.0
0
LINE
8
MCD_Layer_0
10
0.600000
20
0.000000
30
0.0
11
0.150000
21
0.000000
31
0.0
0
LINE
8
MCD_Layer_0
10
0.150000
20
0.000000
30
0.0
11
0.050000
21
0.100000
31
0.0
0
LINE
8
MCD_Layer_0
10
0.050000
20
-0.350000
30
0.0
11
0.050000
21
0.500000
31
0.0
0
LINE
8
MCD_Layer_0
10
-18.000000
20
0.000000
30
0.0
11
18.000000
21
0.000000
31
0.0
0
LINE
8
MCD_Layer_0
10
-18.000000
20
0.000000
30
0.0
11
-18.000000
21
24.500000
31
0.0
0
LINE
8
MCD_Layer_0
10
18.000000
20
0.000000
30
0.0
11
18.000000
21
24.500000
31
0.0
0
LINE
8
MCD_Layer_1
10
1.676132
20
6.581085
30
0.0
11
18.000000
21
6.581085
31
0.0
0
LINE
8
MCD_Layer_1
10
1.671087
20
6.487335
30
0.0
11
18.000000
21
6.487335
31
0.0
0
LINE
8
MCD_Layer_1
10
-1.734703
20
6.581085
30
0.0
11
-18.000000
21
6.581085
31
0.0
0
LINE
8
MCD_Layer_1
10
-1.732957
20
6.487335
30
0.0
11
-18.000000
21
6.487335
31
0.0
0
LINE
8
MCD_Layer_1
10
7.803832
20
15.500000
30
0.0
11
7.803832
21
20.000000
31
0.0
0
LINE
8
MCD_Layer_1
10
7.803832
20
20.000000
30
0.0
11
-7.803832
21
20.000000
31
0.0
0
LINE
8
MCD_Layer_1
10
-7.803832
20
20.000000
30
0.0
11
-7.803832
21
15.500000
31
0.0
0
LINE
8
MCD_Layer_1
10
7.897583
20
15.406249
30
0.0
11
7.897583
21
20.093750
31
0.0
0
LINE
8
MCD_Layer_1
10
7.897583
20
20.093750
30
0.0
11
-7.897583
21
20.093750
31
0.0
0
LINE
8
MCD_Layer_1
10
-7.897583
20
20.093750
30
0.0
11
-7.897583
21
15.406249
31
0.0
0
LINE
8
MCD_Layer_0
10
0.801517
20
7.156802
30
0.0
11
0.810111
21
7.225085
31
0.0
0
LINE
8
MCD_Layer_0
10
1.254005
20
7.271476
30
0.0
11
1.245714
21
7.337584
31
0.0
0
LINE
8
MCD_Layer_0
10
1.439623
20
7.954471
30
0.0
11
1.481628
21
8.010051
31
0.0
0
LINE
8
MCD_Layer_0
10
0.914894
20
8.320308
30
0.0
11
0.922747
21
8.400329
31
0.0
0
LINE
8
MCD_Layer_0
10
-1.102558
20
8.318709
30
0.0
11
-1.092828
21
8.251971
31
0.0
0
LINE
8
MCD_Layer_0
10
-1.277136
20
7.684600
30
0.0
11
-1.326909
21
7.636416
31
0.0
0
LINE
8
MCD_Layer_0
10
-0.895287
20
7.342093
30
0.0
11
-0.924208
21
7.279613
31
0.0
0
LINE
8
MCD_Layer_0
10
-0.924208
20
7.279613
30
0.0
11
-0.853551
21
7.243011
31
0.0
0
LINE
8
MCD_Layer_0
10
0.505471
20
3.457473
30
0.0
11
0.568964
21
3.470466
31
0.0
0
LINE
8
MCD_Layer_0
10
0.425814
20
3.732017
30
0.0
11
0.407072
21
3.718780
31
0.0
0
LINE
8
MCD_Layer_0
10
0.741738
20
7.226138
30
0.0
11
0.751519
21
7.303752
31
0.0
0
LINE
8
MCD_Layer_0
10
1.179445
20
7.319167
30
0.0
11
1.170272
21
7.392291
31
0.0
0
LINE
8
MCD_Layer_0
10
1.345095
20
7.942142
30
0.0
11
1.394860
21
8.007945
31
0.0
0
LINE
8
MCD_Layer_0
10
0.840197
20
8.255774
30
0.0
11
0.848524
21
8.340129
31
0.0
0
LINE
8
MCD_Layer_0
10
0.498587
20
8.233974
30
0.0
11
0.450757
21
8.282744
31
0.0
0
LINE
8
MCD_Layer_0
10
0.514453
20
8.653247
30
0.0
11
0.446594
21
8.642344
31
0.0
0
LINE
8
MCD_Layer_0
10
0.233554
20
9.153468
30
0.0
11
0.176056
21
9.101886
31
0.0
0
LINE
8
MCD_Layer_0
10
-0.318709
20
8.983386
30
0.0
11
-0.384775
21
8.993960
31
0.0
0
LINE
8
MCD_Layer_0
10
-0.386874
20
8.472003
30
0.0
11
-0.457745
21
8.453570
31
0.0
0
LINE
8
MCD_Layer_0
10
-0.343447
20
8.255347
30
0.0
11
-0.366655
21
8.222743
31
0.0
0
LINE
8
MCD_Layer_0
10
-0.541164
20
8.306914
30
0.0
11
-0.555153
21
8.230063
31
0.0
0
LINE
8
MCD_Layer_0
10
-1.026866
20
8.271129
30
0.0
11
-1.016535
21
8.199981
31
0.0
0
LINE
8
MCD_Layer_0
10
-1.178031
20
7.686046
30
0.0
11
-1.234611
21
7.631259
31
0.0
0
LINE
8
MCD_Layer_0
10
-0.798379
20
7.389644
30
0.0
11
-0.832358
21
7.316173
31
0.0
0
LINE
8
MCD_Layer_72
10
2.000000
20
-2.000001
30
0.0
11
-0.000000
21
-2.000001
31
0.0
0
LINE
8
MCD_Layer_2
10
-0.225662
20
7.703872
30
0.0
11
-0.214020
21
7.726737
31
0.0
0
LINE
8
MCD_Layer_72
10
2.000000
20
-2.000001
30
0.0
11
2.000000
21
-2.000001
31
0.0
0
LINE
8
MCD_Layer_2
10
-1.226382
20
8.021026
30
0.0
11
-1.244825
21
7.997050
31
0.0
0
LINE
8
MCD_Layer_56
10
-2.000000
20
-2.000000
30
0.0
11
-2.000000
21
-2.000000
31
0.0
0
LINE
8
MCD_Layer_2
10
0.068043
20
7.852717
30
0.0
11
0.099299
21
7.849727
31
0.0
0
LINE
8
MCD_Layer_2
10
-0.138329
20
9.155196
30
0.0
11
-0.161781
21
9.144065
31
0.0
0
LINE
8
MCD_Layer_0
10
-0.275069
20
8.143783
30
0.0
11
-0.250792
21
8.169314
31
0.0
0
LINE
8
MCD_Layer_0
10
0.377389
20
8.183555
30
0.0
11
0.412279
21
8.153934
31
0.0
0
LINE
8
MCD_Layer_2
10
0.397961
20
7.783637
30
0.0
11
0.405302
21
7.756061
31
0.0
0
LINE
8
MCD_Layer_2
10
1.412971
20
7.567740
30
0.0
11
1.429438
21
7.586852
31
0.0
0
LINE
8
MCD_Layer_1
10
1.125873
20
6.793094
30
0.0
11
1.426826
21
6.793094
31
0.0
0
LINE
8
MCD_Layer_1
10
0.945452
20
6.886844
30
0.0
11
1.442559
21
6.886844
31
0.0
0
LINE
8
MCD_Layer_0
10
1.477552
20
3.523692
30
0.0
11
1.532774
21
3.557620
31
0.0
0
LINE
8
MCD_Layer_0
10
1.308800
20
3.754436
30
0.0
11
1.295716
21
3.735587
31
0.0
0
LINE
8
MCD_Layer_0
10
0.566849
20
3.887729
30
0.0
11
0.741747
21
3.892222
31
0.0
0
LINE
8
MCD_Layer_0
10
-2.639861
20
8.447921
30
0.0
11
-2.712898
21
8.515919
31
0.0
0
LINE
8
MCD_Layer_0
10
-2.546332
20
12.903421
30
0.0
11
-2.537734
21
13.002907
31
0.0
0
LINE
8
MCD_Layer_0
10
0.894743
20
14.566995
30
0.0
11
0.990271
21
14.607778
31
0.0
0
LINE
8
MCD_Layer_0
10
0.583552
20
15.135116
30
0.0
11
0.560759
21
15.201646
31
0.0
0
LINE
8
MCD_Layer_0
10
2.310942
20
14.437169
30
0.0
11
2.349416
21
14.384278
31
0.0
0
LINE
8
MCD_Layer_0
10
3.083161
20
15.631883
30
0.0
11
3.133942
21
15.542413
31
0.0
0
LINE
8
MCD_Layer_0
10
4.176146
20
15.337600
30
0.0
11
4.157660
21
15.273477
31
0.0
0
LINE
8
MCD_Layer_0
10
3.713308
20
13.813605
30
0.0
11
3.632911
21
13.735182
31
0.0
0
LINE
8
MCD_Layer_0
10
3.561250
20
12.468060
30
0.0
11
3.499672
21
12.481418
31
0.0
0
LINE
8
MCD_Layer_0
10
2.936909
20
12.849365
30
0.0
11
2.904692
21
12.750651
31
0.0
0
LINE
8
MCD_Layer_0
10
2.915630
20
9.101521
30
0.0
11
2.844902
21
9.031018
31
0.0
0
LINE
8
MCD_Layer_0
10
-0.371824
20
9.659365
30
0.0
11
-0.490611
21
9.435905
31
0.0
0
LINE
8
MCD_Layer_0
10
-0.809676
20
8.996544
30
0.0
11
-0.995131
21
8.808574
31
0.0
0
LINE
8
MCD_Layer_0
10
-1.249583
20
11.829329
30
0.0
11
-0.987254
21
11.799000
31
0.0
0
LINE
8
MCD_Layer_0
10
-0.444663
20
11.818092
30
0.0
11
-0.195431
21
11.862039
31
0.0
0
LINE
8
MCD_Layer_0
10
1.007191
20
14.523213
30
0.0
11
1.130781
21
14.575896
31
0.0
0
LINE
8
MCD_Layer_0
10
1.829442
20
15.266248
30
0.0
11
1.902061
21
15.355084
31
0.0
0
LINE
8
MCD_Layer_0
10
2.167232
20
14.305272
30
0.0
11
2.232255
21
14.183215
31
0.0
0
LINE
8
MCD_Layer_0
10
3.044003
20
15.530030
30
0.0
11
3.106067
21
15.420615
31
0.0
0
LINE
8
MCD_Layer_0
10
3.656997
20
14.664189
30
0.0
11
3.751268
21
14.615195
31
0.0
0
LINE
8
MCD_Layer_0
10
2.405678
20
14.049664
30
0.0
11
2.533041
21
13.995442
31
0.0
0
LINE
8
MCD_Layer_0
10
3.601919
20
13.822847
30
0.0
11
3.519719
21
13.742729
31
0.0
0
LINE
8
MCD_Layer_0
10
2.892888
20
12.986545
30
0.0
11
2.851251
21
12.858846
31
0.0
0
LINE
8
MCD_Layer_0
10
1.643949
20
13.269691
30
0.0
11
1.672174
21
13.230892
31
0.0
0
LINE
8
MCD_Layer_0
10
-0.537158
20
11.188934
30
0.0
11
-0.512435
21
11.291810
31
0.0
0
LINE
8
MCD_Layer_0
10
-0.512435
20
11.291810
30
0.0
11
-0.664275
21
11.363553
31
0.0
0
LINE
8
MCD_Layer_0
10
-0.664275
20
11.363553
30
0.0
11
-0.750900
21
11.490478
31
0.0
0
LINE
8
MCD_Layer_0
10
0.990692
20
13.088887
30
0.0
11
1.074606
21
13.037972
31
0.0
0
LINE
8
MCD_Layer_0
10
1.074606
20
13.037972
30
0.0
11
1.129184
21
12.971019
31
0.0
0
LINE
8
MCD_Layer_0
10
0.536047
20
10.162521
30
0.0
11
0.662516
21
9.943373
31
0.0
0
LINE
8
MCD_Layer_0
10
0.996688
20
9.515471
30
0.0
11
1.188602
21
9.334088
31
0.0
0
LINE
8
MCD_Layer_2
10
2.529993
20
13.830774
30
0.0
11
2.574363
21
13.882371
31
0.0
0
LINE
8
MCD_Layer_2
10
3.564698
20
12.940867
30
0.0
11
3.504352
21
12.919260
31
0.0
0
LINE
8
MCD_Layer_2
10
3.756125
20
15.316358
30
0.0
11
3.724060
21
15.376416
31
0.0
0
LINE
8
MCD_Layer_2
10
2.655476
20
14.454785
30
0.0
11
2.678939
21
14.382337
31
0.0
0
LINE
8
MCD_Layer_56
10
-2.000000
20
-0.000000
30
0.0
11
-2.000000
21
-0.000000
31
0.0
0
LINE
8
MCD_Layer_2
10
1.026733
20
15.241132
30
0.0
11
1.010432
21
15.179128
31
0.0
0
LINE
8
MCD_Layer_72
10
-2.000000
20
-0.000000
30
0.0
11
-2.000000
21
0.000000
31
0.0
0
LINE
8
MCD_Layer_2
10
2.003415
20
14.287900
30
0.0
11
2.051020
21
14.336686
31
0.0
0
LINE
8
MCD_Layer_72
10
-0.000000
20
-2.000001
30
0.0
11
-0.000000
21
-0.000000
31
0.0
0
LINE
8
MCD_Layer_1
10
0.192866
20
9.242914
30
0.0
11
0.234822
21
9.280554
31
0.0
0
LINE
8
MCD_Layer_0
10
-2.153379
20
14.491745
30
0.0
11
-2.089960
21
14.512170
31
0.0
0
LINE
8
MCD_Layer_0
10
-1.612821
20
14.948617
30
0.0
11
-1.580200
21
15.010177
31
0.0
0
LINE
8
MCD_Layer_0
10
-1.059500
20
14.627661
30
0.0
11
-0.990295
21
14.668596
31
0.0
0
LINE
8
MCD_Layer_0
10
-2.078645
20
14.444325
30
0.0
11
-2.008496
21
14.466915
31
0.0
0
LINE
8
MCD_Layer_0
10
-1.584046
20
14.857735
30
0.0
11
-1.545439
21
14.930647
31
0.0
0
LINE
8
MCD_Layer_0
10
-1.086418
20
14.532690
30
0.0
11
-1.013486
21
14.575887
31
0.0
0
LINE
8
MCD_Layer_2
10
-1.952054
20
14.761024
30
0.0
11
-1.941692
21
14.784024
31
0.0
0
LINE
8
MCD_Layer_0
10
-2.236688
20
12.292103
30
0.0
11
-2.267341
21
12.370336
31
0.0
0
LINE
8
MCD_Layer_0
10
-4.114384
20
11.333495
30
0.0
11
-4.073661
21
11.275971
31
0.0
0
LINE
8
MCD_Layer_0
10
-3.976099
20
10.660252
30
0.0
11
-3.999584
21
10.591774
31
0.0
0
LINE
8
MCD_Layer_0
10
-2.275623
20
12.196579
30
0.0
11
-2.307889
21
12.279072
31
0.0
0
LINE
8
MCD_Layer_0
10
-2.583354
20
12.014213
30
0.0
11
-2.651026
21
12.036932
31
0.0
0
LINE
8
MCD_Layer_0
10
-2.767494
20
12.412126
30
0.0
11
-2.825504
21
12.369781
31
0.0
0
LINE
8
MCD_Layer_0
10
-3.266354
20
12.744618
30
0.0
11
-3.295418
21
12.669312
31
0.0
0
LINE
8
MCD_Layer_0
10
-3.699876
20
12.324250
30
0.0
11
-3.766407
21
12.302752
31
0.0
0
LINE
8
MCD_Layer_0
10
-3.520735
20
11.815763
30
0.0
11
-3.577978
21
11.764977
31
0.0
0
LINE
8
MCD_Layer_0
10
-3.377513
20
11.634636
30
0.0
11
-3.383656
21
11.593267
31
0.0
0
LINE
8
MCD_Layer_0
10
-3.586073
20
11.588850
30
0.0
11
-3.562639
21
11.510657
31
0.0
0
LINE
8
MCD_Layer_0
10
-4.021335
20
11.325102
30
0.0
11
-3.977960
21
11.263758
31
0.0
0
LINE
8
MCD_Layer_0
10
-3.884508
20
10.708614
30
0.0
11
-3.911198
21
10.630760
31
0.0
0
LINE
8
MCD_Layer_0
10
-3.390395
20
10.612748
30
0.0
11
-3.387177
21
10.528219
31
0.0
0
LINE
8
MCD_Layer_2
10
-3.006212
20
11.177035
30
0.0
11
-3.006221
21
11.203848
31
0.0
0
LINE
8
MCD_Layer_72
10
-0.000000
20
-2.000001
30
0.0
11
-0.000000
21
2.000001
31
0.0
0
LINE
8
MCD_Layer_56
10
-0.000000
20
2.000001
30
0.0
11
-0.000000
21
-0.000000
31
0.0
0
LINE
8
MCD_Layer_2
10
-4.088449
20
10.997576
30
0.0
11
-4.094248
21
10.966503
31
0.0
0
LINE
8
MCD_Layer_0
10
-3.679132
20
11.770346
30
0.0
11
-3.624415
21
11.818876
31
0.0
0
LINE
8
MCD_Layer_56
10
-2.000000
20
2.000001
30
0.0
11
0.000000
21
-2.000001
31
0.0
0
LINE
8
MCD_Layer_2
10
-2.803360
20
11.454966
30
0.0
11
-2.772837
21
11.467009
31
0.0
0
LINE
8
MCD_Layer_2
10
-3.613435
20
12.569799
30
0.0
11
-3.629990
21
12.548309
31
0.0
0
LINE
8
MCD_Layer_0
10
-3.260919
20
11.563198
30
0.0
11
-3.250426
21
11.598489
31
0.0
0
LINE
8
MCD_Layer_0
10
-2.672282
20
11.909769
30
0.0
11
-2.625742
21
11.898742
31
0.0
0
LINE
8
MCD_Layer_2
10
-2.463399
20
11.547164
30
0.0
11
-2.443480
21
11.524971
31
0.0
0
LINE
8
MCD_Layer_1
10
-3.446440
20
10.531319
30
0.0
11
-3.455353
21
10.450603
31
0.0
0
LINE
8
MCD_Layer_1
10
-3.640351
20
11.570919
30
0.0
11
-3.663969
21
11.627392
31
0.0
0
LINE
8
MCD_Layer_1
10
-3.663969
20
11.627392
30
0.0
11
-3.526088
21
11.650218
31
0.0
0
LINE
8
MCD_Layer_1
10
-3.840802
20
12.348828
30
0.0
11
-3.780750
21
12.372971
31
0.0
0
LINE
8
MCD_Layer_72
10
-2.000000
20
0.000000
30
0.0
11
-2.000000
21
0.000000
31
0.0
0
LINE
8
MCD_Layer_1
10
-3.331995
20
12.781624
30
0.0
11
-3.316518
21
12.831059
31
0.0
0
LINE
8
MCD_Layer_1
10
-2.803854
20
12.473147
30
0.0
11
-2.753555
21
12.510717
31
0.0
0
LINE
8
MCD_Layer_1
10
4.013947
20
15.500000
30
0.0
11
7.803832
21
15.500000
31
0.0
0
LINE
8
MCD_Layer_1
10
4.118843
20
15.406249
30
0.0
11
7.897583
21
15.406249
31
0.0
0
LINE
8
MCD_Layer_0
10
3.870205
20
14.648482
30
0.0
11
3.771647
21
14.699666
31
0.0
0
LINE
8
MCD_Layer_1
10
1.090212
20
15.499998
30
0.0
11
-7.803832
21
15.500000
31
0.0
0
LINE
8
MCD_Layer_1
10
1.501039
20
15.499997
30
0.0
11
2.810802
21
15.500000
31
0.0
0
LINE
8
MCD_Layer_1
10
1.976239
20
15.406249
30
0.0
11
2.700283
21
15.406249
31
0.0
0
LINE
8
MCD_Layer_1
10
0.828927
20
15.406249
30
0.0
11
-7.897583
21
15.406249
31
0.0
0
LINE
8
MCD_Layer_1
10
-18.000000
20
0.000000
30
0.0
11
-24.000000
21
0.000000
31
0.0
0
LINE
8
MCD_Layer_1
10
-24.000000
20
0.000000
30
0.0
11
-24.000000
21
-6.000000
31
0.0
0
LINE
8
MCD_Layer_1
10
-24.000000
20
-6.000000
30
0.0
11
24.000000
21
-6.000000
31
0.0
0
LINE
8
MCD_Layer_1
10
24.000000
20
-6.000000
30
0.0
11
24.000000
21
0.000000
31
0.0
0
LINE
8
MCD_Layer_1
10
24.000000
20
0.000000
30
0.0
11
18.000000
21
0.000000
31
0.0
0
LINE
8
MCD_Layer_1
10
-11.405801
20
1.250000
30
0.0
11
-8.141701
21
1.250000
31
0.0
0
ARC
8
MCD_Layer_0
10
0.023959
20
-0.000522
40
0.023965
50
178.751160
51
22.658376
0
ARC
8
MCD_Layer_0
10
0.151370
20
0.106715
40
0.445636
50
155.798876
51
193.855111
0
ARC
8
MCD_Layer_0
10
-0.140623
20
-0.012700
40
0.141195
50
5.160526
51
354.839474
0
ARC
8
MCD_Layer_0
10
0.004732
20
0.072337
40
0.072492
50
10.397098
51
266.256920
0
ARC
8
MCD_Layer_0
10
-0.075711
20
-0.009918
40
0.076358
50
7.462953
51
352.033948
0
ARC
8
MCD_Layer_0
10
0.481513
20
0.746253
40
0.888115
50
221.299644
51
237.168264
0
ARC
8
MCD_Layer_0
10
-0.060753
20
0.000041
40
0.060753
50
359.961184
51
342.225463
0
CIRCLE
8
MCD_Layer_0
10
0.000000
20
0.000000
40
1.000000
0
CIRCLE
8
MCD_Layer_0
10
-0.002200
20
0.066773
40
0.076224
0
ENDSEC
0
EOF
