0
SECTION
2
ENTITIES
0
LINE
8
MCD_Layer_0
10
-0.271000
20
0.000000
30
0.0
11
0.094000
21
0.938000
31
0.0
0
LINE
8
MCD_Layer_0
10
0.094000
20
0.938000
30
0.0
11
-0.062500
21
0.938000
31
0.0
0
LINE
8
MCD_Layer_0
10
-0.146500
20
0.854000
30
0.0
11
-0.146500
21
0.813000
31
0.0
0
LINE
8
MCD_Layer_0
10
-0.146500
20
0.813000
30
0.0
11
-0.208000
21
0.813000
31
0.0
0
LINE
8
MCD_Layer_0
10
-0.208000
20
0.813000
30
0.0
11
-0.208000
21
1.000000
31
0.0
0
LINE
8
MCD_Layer_0
10
-0.208000
20
1.000000
30
0.0
11
0.230000
21
1.000000
31
0.0
0
LINE
8
MCD_Layer_0
10
0.230000
20
1.000000
30
0.0
11
-0.135000
21
0.063000
31
0.0
0
LINE
8
MCD_Layer_0
10
-0.135000
20
0.063000
30
0.0
11
0.126500
21
0.063000
31
0.0
0
LINE
8
MCD_Layer_0
10
0.209500
20
0.146000
30
0.0
11
0.209500
21
0.208000
31
0.0
0
LINE
8
MCD_Layer_0
10
0.209500
20
0.208000
30
0.0
11
0.271000
21
0.208000
31
0.0
0
LINE
8
MCD_Layer_0
10
0.271000
20
0.208000
30
0.0
11
0.271000
21
0.000000
31
0.0
0
LINE
8
MCD_Layer_0
10
0.271000
20
0.000000
30
0.0
11
-0.271000
21
0.000000
31
0.0
0
LINE
8
MCD_Layer_0
10
-0.344000
20
0.000000
30
0.0
11
-0.344000
21
0.062500
31
0.0
0
LINE
8
MCD_Layer_0
10
-0.344000
20
0.062500
30
0.0
11
-0.319000
21
0.062500
31
0.0
0
LINE
8
MCD_Layer_0
10
-0.279000
20
0.092500
30
0.0
11
-0.008000
21
1.029000
31
0.0
0
LINE
8
MCD_Layer_0
10
-0.008000
20
1.029000
30
0.0
11
0.282000
21
0.091500
31
0.0
0
LINE
8
MCD_Layer_0
10
0.322000
20
0.062500
30
0.0
11
0.344000
21
0.062500
31
0.0
0
LINE
8
MCD_Layer_0
10
0.344000
20
0.062500
30
0.0
11
0.344000
21
0.000000
31
0.0
0
LINE
8
MCD_Layer_0
10
0.344000
20
0.000000
30
0.0
11
0.114000
21
0.000000
31
0.0
0
LINE
8
MCD_Layer_0
10
0.114000
20
0.000000
30
0.0
11
0.114000
21
0.062500
31
0.0
0
LINE
8
MCD_Layer_0
10
0.114000
20
0.062500
30
0.0
11
0.154000
21
0.062500
31
0.0
0
LINE
8
MCD_Layer_0
10
0.174000
20
0.089500
30
0.0
11
0.112000
21
0.271000
31
0.0
0
LINE
8
MCD_Layer_0
10
0.112000
20
0.271000
30
0.0
11
-0.158000
21
0.271000
31
0.0
0
LINE
8
MCD_Layer_0
10
-0.158000
20
0.271000
30
0.0
11
-0.215000
21
0.088500
31
0.0
0
LINE
8
MCD_Layer_0
10
-0.195000
20
0.062500
30
0.0
11
-0.156000
21
0.062500
31
0.0
0
LINE
8
MCD_Layer_0
10
-0.156000
20
0.062500
30
0.0
11
-0.156000
21
0.000000
31
0.0
0
LINE
8
MCD_Layer_0
10
-0.156000
20
0.000000
30
0.0
11
-0.344000
21
0.000000
31
0.0
0
LINE
8
MCD_Layer_0
10
-0.140000
20
0.333000
30
0.0
11
-0.027000
21
0.732000
31
0.0
0
LINE
8
MCD_Layer_0
10
-0.027000
20
0.732000
30
0.0
11
0.094000
21
0.333000
31
0.0
0
LINE
8
MCD_Layer_0
10
0.094000
20
0.333000
30
0.0
11
-0.140000
21
0.333000
31
0.0
0
LINE
8
MCD_Layer_0
10
0.260062
20
0.998500
30
0.0
11
0.260062
21
0.748500
31
0.0
0
LINE
8
MCD_Layer_0
10
0.260062
20
0.748500
30
0.0
11
0.198362
21
0.748500
31
0.0
0
LINE
8
MCD_Layer_0
10
0.198362
20
0.748500
30
0.0
11
0.198362
21
0.811500
31
0.0
0
LINE
8
MCD_Layer_0
10
0.198762
20
0.265600
30
0.0
11
0.260862
21
0.265600
31
0.0
0
LINE
8
MCD_Layer_0
10
0.198362
20
0.990500
30
0.0
11
0.198362
21
0.998500
31
0.0
0
LINE
8
MCD_Layer_0
10
0.198362
20
0.998500
30
0.0
11
0.260062
21
0.998500
31
0.0
0
LINE
8
MCD_Layer_0
10
-0.304750
20
0.000000
30
0.0
11
-0.304750
21
0.062500
31
0.0
0
LINE
8
MCD_Layer_0
10
-0.304750
20
0.062500
30
0.0
11
-0.263050
21
0.062500
31
0.0
0
LINE
8
MCD_Layer_0
10
-0.242050
20
0.083500
30
0.0
11
-0.242050
21
0.917300
31
0.0
0
LINE
8
MCD_Layer_0
10
-0.263050
20
0.937300
30
0.0
11
-0.304750
21
0.937300
31
0.0
0
LINE
8
MCD_Layer_0
10
-0.304750
20
0.937300
30
0.0
11
-0.304750
21
1.000000
31
0.0
0
LINE
8
MCD_Layer_0
10
-0.304750
20
1.000000
30
0.0
11
-0.070750
21
1.000000
31
0.0
0
LINE
8
MCD_Layer_0
10
-0.070750
20
1.000000
30
0.0
11
-0.070750
21
0.937300
31
0.0
0
LINE
8
MCD_Layer_0
10
-0.070750
20
0.937300
30
0.0
11
-0.111950
21
0.937300
31
0.0
0
LINE
8
MCD_Layer_0
10
-0.132950
20
0.917300
30
0.0
11
-0.132950
21
0.687500
31
0.0
0
LINE
8
MCD_Layer_0
10
-0.132950
20
0.687500
30
0.0
11
0.132950
21
0.687500
31
0.0
0
LINE
8
MCD_Layer_0
10
0.132950
20
0.687500
30
0.0
11
0.132950
21
0.917300
31
0.0
0
LINE
8
MCD_Layer_0
10
0.111950
20
0.937300
30
0.0
11
0.069950
21
0.937300
31
0.0
0
LINE
8
MCD_Layer_0
10
0.069950
20
0.937300
30
0.0
11
0.069950
21
1.000000
31
0.0
0
LINE
8
MCD_Layer_0
10
0.069950
20
1.000000
30
0.0
11
0.304250
21
1.000000
31
0.0
0
LINE
8
MCD_Layer_0
10
0.304250
20
1.000000
30
0.0
11
0.304250
21
0.937300
31
0.0
0
LINE
8
MCD_Layer_0
10
0.304250
20
0.937300
30
0.0
11
0.263050
21
0.937300
31
0.0
0
LINE
8
MCD_Layer_0
10
0.242050
20
0.917300
30
0.0
11
0.242050
21
0.083500
31
0.0
0
LINE
8
MCD_Layer_0
10
0.263050
20
0.062500
30
0.0
11
0.304750
21
0.062500
31
0.0
0
LINE
8
MCD_Layer_0
10
0.304750
20
0.062500
30
0.0
11
0.304750
21
0.000000
31
0.0
0
LINE
8
MCD_Layer_0
10
0.304750
20
0.000000
30
0.0
11
0.070250
21
0.000000
31
0.0
0
LINE
8
MCD_Layer_0
10
0.070250
20
0.000000
30
0.0
11
0.070250
21
0.062500
31
0.0
0
LINE
8
MCD_Layer_0
10
0.070250
20
0.062500
30
0.0
11
0.111950
21
0.062500
31
0.0
0
LINE
8
MCD_Layer_0
10
0.132950
20
0.083500
30
0.0
11
0.132950
21
0.625000
31
0.0
0
LINE
8
MCD_Layer_0
10
0.132950
20
0.625000
30
0.0
11
-0.132950
21
0.625000
31
0.0
0
LINE
8
MCD_Layer_0
10
-0.132950
20
0.625000
30
0.0
11
-0.132950
21
0.083500
31
0.0
0
LINE
8
MCD_Layer_0
10
-0.111950
20
0.062500
30
0.0
11
-0.070250
21
0.062500
31
0.0
0
LINE
8
MCD_Layer_0
10
-0.070250
20
0.062500
30
0.0
11
-0.070250
21
0.000000
31
0.0
0
LINE
8
MCD_Layer_0
10
-0.070250
20
0.000000
30
0.0
11
-0.304750
21
0.000000
31
0.0
0
LINE
8
MCD_Layer_0
10
-0.307500
20
0.000000
30
0.0
11
-0.307500
21
0.062500
31
0.0
0
LINE
8
MCD_Layer_0
10
-0.307500
20
0.062500
30
0.0
11
-0.265800
21
0.062500
31
0.0
0
LINE
8
MCD_Layer_0
10
-0.244800
20
0.083500
30
0.0
11
-0.244800
21
0.917300
31
0.0
0
LINE
8
MCD_Layer_0
10
-0.265800
20
0.937300
30
0.0
11
-0.307500
21
0.937300
31
0.0
0
LINE
8
MCD_Layer_0
10
-0.307500
20
0.937300
30
0.0
11
-0.307500
21
1.000000
31
0.0
0
LINE
8
MCD_Layer_0
10
-0.307500
20
1.000000
30
0.0
11
-0.063500
21
0.999800
31
0.0
0
LINE
8
MCD_Layer_0
10
0.279900
20
0.050600
30
0.0
11
0.307500
21
-0.006000
31
0.0
0
LINE
8
MCD_Layer_0
10
-0.135700
20
0.461600
30
0.0
11
-0.135700
21
0.083500
31
0.0
0
LINE
8
MCD_Layer_0
10
-0.114700
20
0.062500
30
0.0
11
-0.073000
21
0.062500
31
0.0
0
LINE
8
MCD_Layer_0
10
-0.073000
20
0.062500
30
0.0
11
-0.073000
21
0.000000
31
0.0
0
LINE
8
MCD_Layer_0
10
-0.073000
20
0.000000
30
0.0
11
-0.307500
21
0.000000
31
0.0
0
LINE
8
MCD_Layer_0
10
-0.135700
20
0.523100
30
0.0
11
-0.135700
21
0.917300
31
0.0
0
LINE
8
MCD_Layer_0
10
-0.344000
20
0.999750
30
0.0
11
-0.104000
21
0.999750
31
0.0
0
LINE
8
MCD_Layer_0
10
-0.104000
20
0.999750
30
0.0
11
-0.104000
21
0.937550
31
0.0
0
LINE
8
MCD_Layer_0
10
-0.104000
20
0.937550
30
0.0
11
-0.144000
21
0.937550
31
0.0
0
LINE
8
MCD_Layer_0
10
-0.163000
20
0.908550
30
0.0
11
0.032000
21
0.504750
31
0.0
0
LINE
8
MCD_Layer_0
10
0.032000
20
0.504750
30
0.0
11
0.214000
21
0.908550
31
0.0
0
LINE
8
MCD_Layer_0
10
0.195000
20
0.937550
30
0.0
11
0.151000
21
0.937550
31
0.0
0
LINE
8
MCD_Layer_0
10
0.151000
20
0.937550
30
0.0
11
0.151000
21
0.999750
31
0.0
0
LINE
8
MCD_Layer_0
10
0.151000
20
0.998900
30
0.0
11
0.344000
21
0.998900
31
0.0
0
LINE
8
MCD_Layer_0
10
0.344000
20
0.998900
30
0.0
11
0.344000
21
0.936700
31
0.0
0
LINE
8
MCD_Layer_0
10
0.344000
20
0.936700
30
0.0
11
0.308000
21
0.936700
31
0.0
0
LINE
8
MCD_Layer_0
10
0.289000
20
0.924700
30
0.0
11
0.063000
21
0.415900
31
0.0
0
LINE
8
MCD_Layer_0
10
0.063000
20
0.416750
30
0.0
11
0.063000
21
0.083050
31
0.0
0
LINE
8
MCD_Layer_0
10
0.083000
20
0.063050
30
0.0
11
0.136000
21
0.063050
31
0.0
0
LINE
8
MCD_Layer_0
10
0.136000
20
0.063050
30
0.0
11
0.136000
21
-0.000250
31
0.0
0
LINE
8
MCD_Layer_0
10
0.136000
20
-0.000250
30
0.0
11
-0.114000
21
-0.000250
31
0.0
0
LINE
8
MCD_Layer_0
10
-0.114000
20
-0.000250
30
0.0
11
-0.114000
21
0.063050
31
0.0
0
LINE
8
MCD_Layer_0
10
-0.114000
20
0.063050
30
0.0
11
-0.062000
21
0.063050
31
0.0
0
LINE
8
MCD_Layer_0
10
-0.042000
20
0.083050
30
0.0
11
-0.042000
21
0.416750
31
0.0
0
LINE
8
MCD_Layer_0
10
-0.042000
20
0.416750
30
0.0
11
-0.286000
21
0.925550
31
0.0
0
LINE
8
MCD_Layer_0
10
-0.305000
20
0.937550
30
0.0
11
-0.344000
21
0.937550
31
0.0
0
LINE
8
MCD_Layer_0
10
-0.344000
20
0.937550
30
0.0
11
-0.344000
21
0.999750
31
0.0
0
LINE
8
MCD_Layer_0
10
-0.295136
20
1.000000
30
0.0
11
-0.060636
21
1.000200
31
0.0
0
LINE
8
MCD_Layer_0
10
-0.035136
20
0.000000
30
0.0
11
-0.295136
21
0.000000
31
0.0
0
LINE
8
MCD_Layer_0
10
-0.295136
20
0.000000
30
0.0
11
-0.295136
21
0.062500
31
0.0
0
LINE
8
MCD_Layer_0
10
-0.295136
20
0.062500
30
0.0
11
-0.253136
21
0.062500
31
0.0
0
LINE
8
MCD_Layer_0
10
-0.232136
20
0.083500
30
0.0
11
-0.232136
21
0.917500
31
0.0
0
LINE
8
MCD_Layer_0
10
-0.253136
20
0.937500
30
0.0
11
-0.295136
21
0.937500
31
0.0
0
LINE
8
MCD_Layer_0
10
-0.295136
20
0.937500
30
0.0
11
-0.295136
21
1.000000
31
0.0
0
LINE
8
MCD_Layer_0
10
-0.123736
20
0.936300
30
0.0
11
-0.123736
21
0.061300
31
0.0
0
LINE
8
MCD_Layer_0
10
-0.123736
20
0.061300
30
0.0
11
-0.051436
21
0.061300
31
0.0
0
LINE
8
MCD_Layer_0
10
-0.056436
20
0.936200
30
0.0
11
-0.123736
21
0.936300
31
0.0
0
LINE
8
MCD_Layer_0
10
-0.239500
20
1.000000
30
0.0
11
0.198500
21
1.000000
31
0.0
0
LINE
8
MCD_Layer_0
10
0.198500
20
1.000000
30
0.0
11
0.198500
21
0.823000
31
0.0
0
LINE
8
MCD_Layer_0
10
0.198500
20
0.823000
30
0.0
11
0.151400
21
0.823000
31
0.0
0
LINE
8
MCD_Layer_0
10
0.151400
20
0.823000
30
0.0
11
0.151400
21
0.854000
31
0.0
0
LINE
8
MCD_Layer_0
10
0.068400
20
0.938000
30
0.0
11
-0.062500
21
0.938000
31
0.0
0
LINE
8
MCD_Layer_0
10
-0.062500
20
0.938000
30
0.0
11
-0.062500
21
0.623300
31
0.0
0
LINE
8
MCD_Layer_0
10
-0.062500
20
0.623300
30
0.0
11
0.062600
21
0.623300
31
0.0
0
LINE
8
MCD_Layer_0
10
0.083600
20
0.643300
30
0.0
11
0.083600
21
0.696300
31
0.0
0
LINE
8
MCD_Layer_0
10
0.083600
20
0.696300
30
0.0
11
0.146100
21
0.696300
31
0.0
0
LINE
8
MCD_Layer_0
10
0.146100
20
0.696300
30
0.0
11
0.146100
21
0.490000
31
0.0
0
LINE
8
MCD_Layer_0
10
0.146100
20
0.490000
30
0.0
11
0.083600
21
0.490000
31
0.0
0
LINE
8
MCD_Layer_0
10
0.083600
20
0.490000
30
0.0
11
0.083600
21
0.542000
31
0.0
0
LINE
8
MCD_Layer_0
10
0.062600
20
0.563000
30
0.0
11
-0.062500
21
0.563000
31
0.0
0
LINE
8
MCD_Layer_0
10
-0.062500
20
0.563000
30
0.0
11
-0.062500
21
0.063000
31
0.0
0
LINE
8
MCD_Layer_0
10
-0.062500
20
0.063000
30
0.0
11
0.092100
21
0.063000
31
0.0
0
LINE
8
MCD_Layer_0
10
0.176100
20
0.146000
30
0.0
11
0.176100
21
0.198000
31
0.0
0
LINE
8
MCD_Layer_0
10
0.176100
20
0.198000
30
0.0
11
0.239500
21
0.198000
31
0.0
0
LINE
8
MCD_Layer_0
10
0.239500
20
0.198000
30
0.0
11
0.239500
21
0.000000
31
0.0
0
LINE
8
MCD_Layer_0
10
0.239500
20
0.000000
30
0.0
11
-0.239500
21
0.000000
31
0.0
0
LINE
8
MCD_Layer_0
10
-0.239500
20
0.000000
30
0.0
11
-0.239500
21
0.062500
31
0.0
0
LINE
8
MCD_Layer_0
10
-0.239500
20
0.062500
30
0.0
11
-0.187500
21
0.062500
31
0.0
0
LINE
8
MCD_Layer_0
10
-0.166500
20
0.083500
30
0.0
11
-0.166500
21
0.918000
31
0.0
0
LINE
8
MCD_Layer_0
10
-0.187500
20
0.938000
30
0.0
11
-0.239500
21
0.938000
31
0.0
0
LINE
8
MCD_Layer_0
10
-0.239500
20
0.938000
30
0.0
11
-0.239500
21
1.000000
31
0.0
0
LINE
8
MCD_Layer_0
10
-0.291403
20
0.000000
30
0.0
11
-0.291403
21
0.063300
31
0.0
0
LINE
8
MCD_Layer_0
10
-0.291403
20
0.063300
30
0.0
11
-0.249403
21
0.063300
31
0.0
0
LINE
8
MCD_Layer_0
10
-0.228403
20
0.084300
30
0.0
11
-0.228403
21
0.916700
31
0.0
0
LINE
8
MCD_Layer_0
10
-0.249403
20
0.937700
30
0.0
11
-0.291403
21
0.937700
31
0.0
0
LINE
8
MCD_Layer_0
10
-0.291403
20
0.937700
30
0.0
11
-0.291403
21
1.001900
31
0.0
0
LINE
8
MCD_Layer_0
10
-0.291403
20
1.001900
30
0.0
11
-0.165403
21
1.001900
31
0.0
0
LINE
8
MCD_Layer_0
10
-0.165403
20
1.001900
30
0.0
11
0.167597
21
0.345900
31
0.0
0
LINE
8
MCD_Layer_0
10
0.167597
20
0.345900
30
0.0
11
0.167597
21
0.916700
31
0.0
0
LINE
8
MCD_Layer_0
10
0.146597
20
0.937700
30
0.0
11
0.104597
21
0.937700
31
0.0
0
LINE
8
MCD_Layer_0
10
0.104597
20
0.937700
30
0.0
11
0.104597
21
1.001900
31
0.0
0
LINE
8
MCD_Layer_0
10
0.104597
20
1.001900
30
0.0
11
0.292597
21
1.001900
31
0.0
0
LINE
8
MCD_Layer_0
10
0.292597
20
1.001900
30
0.0
11
0.292597
21
0.937700
31
0.0
0
LINE
8
MCD_Layer_0
10
0.292597
20
0.937700
30
0.0
11
0.250597
21
0.937700
31
0.0
0
LINE
8
MCD_Layer_0
10
0.229597
20
0.916700
30
0.0
11
0.229597
21
-0.008100
31
0.0
0
LINE
8
MCD_Layer_0
10
0.229597
20
-0.008100
30
0.0
11
-0.165403
21
0.771900
31
0.0
0
LINE
8
MCD_Layer_0
10
-0.165403
20
0.771900
30
0.0
11
-0.165403
21
0.084300
31
0.0
0
LINE
8
MCD_Layer_0
10
-0.145403
20
0.063300
30
0.0
11
-0.103703
21
0.063300
31
0.0
0
LINE
8
MCD_Layer_0
10
-0.103703
20
0.063300
30
0.0
11
-0.103703
21
0.000000
31
0.0
0
LINE
8
MCD_Layer_0
10
-0.103703
20
0.000000
30
0.0
11
-0.291403
21
0.000000
31
0.0
0
LINE
8
MCD_Layer_0
10
-0.232000
20
-0.024500
30
0.0
11
-0.232000
21
0.215500
31
0.0
0
LINE
8
MCD_Layer_0
10
-0.232000
20
0.215500
30
0.0
11
-0.169100
21
0.215500
31
0.0
0
LINE
8
MCD_Layer_0
10
-0.169100
20
0.215500
30
0.0
11
-0.169100
21
0.152500
31
0.0
0
LINE
8
MCD_Layer_0
10
0.060700
20
0.142700
30
0.0
11
0.060700
21
0.915800
31
0.0
0
LINE
8
MCD_Layer_0
10
0.039700
20
0.935800
30
0.0
11
-0.002300
21
0.935800
31
0.0
0
LINE
8
MCD_Layer_0
10
-0.002300
20
0.935800
30
0.0
11
-0.002300
21
0.998600
31
0.0
0
LINE
8
MCD_Layer_0
10
-0.002300
20
0.998600
30
0.0
11
0.232000
21
0.998600
31
0.0
0
LINE
8
MCD_Layer_0
10
0.232000
20
0.998600
30
0.0
11
0.232000
21
0.935800
31
0.0
0
LINE
8
MCD_Layer_0
10
0.232000
20
0.935800
30
0.0
11
0.190800
21
0.935800
31
0.0
0
LINE
8
MCD_Layer_0
10
0.169800
20
0.915800
30
0.0
11
0.169800
21
0.152800
31
0.0
0
LINE
8
MCD_Layer_0
10
-0.169100
20
-0.011500
30
0.0
11
-0.169100
21
-0.024500
31
0.0
0
LINE
8
MCD_Layer_0
10
-0.169100
20
-0.024500
30
0.0
11
-0.232000
21
-0.024500
31
0.0
0
LINE
8
MCD_Layer_0
10
-0.213675
20
-0.019000
30
0.0
11
-0.213675
21
0.252000
31
0.0
0
LINE
8
MCD_Layer_0
10
-0.213675
20
0.252000
30
0.0
11
-0.151375
21
0.252000
31
0.0
0
LINE
8
MCD_Layer_0
10
-0.151375
20
0.252000
30
0.0
11
-0.151375
21
0.190000
31
0.0
0
LINE
8
MCD_Layer_0
10
0.114425
20
1.000000
30
0.0
11
0.114425
21
1.023000
31
0.0
0
LINE
8
MCD_Layer_0
10
0.114425
20
1.023000
30
0.0
11
0.177025
21
1.023000
31
0.0
0
LINE
8
MCD_Layer_0
10
0.177025
20
1.023000
30
0.0
11
0.177025
21
0.773000
31
0.0
0
LINE
8
MCD_Layer_0
10
0.177025
20
0.773000
30
0.0
11
0.114425
21
0.773000
31
0.0
0
LINE
8
MCD_Layer_0
10
0.114425
20
0.773000
30
0.0
11
0.114425
21
0.796900
31
0.0
0
LINE
8
MCD_Layer_0
10
-0.151375
20
0.000000
30
0.0
11
-0.151375
21
-0.019000
31
0.0
0
LINE
8
MCD_Layer_0
10
-0.151375
20
-0.019000
30
0.0
11
-0.213675
21
-0.019000
31
0.0
0
LINE
8
MCD_Layer_0
10
-0.380450
20
0.000000
30
0.0
11
-0.380450
21
0.062300
31
0.0
0
LINE
8
MCD_Layer_0
10
-0.380450
20
0.062300
30
0.0
11
-0.339450
21
0.062300
31
0.0
0
LINE
8
MCD_Layer_0
10
-0.318450
20
0.082300
30
0.0
11
-0.285450
21
0.894100
31
0.0
0
LINE
8
MCD_Layer_0
10
-0.327450
20
0.937100
30
0.0
11
-0.370450
21
0.937100
31
0.0
0
LINE
8
MCD_Layer_0
10
-0.370450
20
0.937100
30
0.0
11
-0.370450
21
1.001900
31
0.0
0
LINE
8
MCD_Layer_0
10
-0.370450
20
1.001900
30
0.0
11
-0.224450
21
1.001900
31
0.0
0
LINE
8
MCD_Layer_0
10
-0.224450
20
1.001900
30
0.0
11
-0.003450
21
0.261900
31
0.0
0
LINE
8
MCD_Layer_0
10
-0.003450
20
0.261900
30
0.0
11
0.202550
21
1.001900
31
0.0
0
LINE
8
MCD_Layer_0
10
0.202550
20
1.001900
30
0.0
11
0.348550
21
1.001900
31
0.0
0
LINE
8
MCD_Layer_0
10
0.348550
20
1.001900
30
0.0
11
0.348550
21
0.937100
31
0.0
0
LINE
8
MCD_Layer_0
10
0.348550
20
0.937100
30
0.0
11
0.317550
21
0.937100
31
0.0
0
LINE
8
MCD_Layer_0
10
0.275550
20
0.894100
30
0.0
11
0.317550
21
0.082300
31
0.0
0
LINE
8
MCD_Layer_0
10
0.338550
20
0.062300
30
0.0
11
0.380450
21
0.062300
31
0.0
0
LINE
8
MCD_Layer_0
10
0.380450
20
0.062300
30
0.0
11
0.380450
21
0.000000
31
0.0
0
LINE
8
MCD_Layer_0
10
0.380450
20
0.000000
30
0.0
11
0.151350
21
0.000000
31
0.0
0
LINE
8
MCD_Layer_0
10
0.151350
20
0.000000
30
0.0
11
0.151350
21
0.062300
31
0.0
0
LINE
8
MCD_Layer_0
10
0.151350
20
0.062300
30
0.0
11
0.192550
21
0.062300
31
0.0
0
LINE
8
MCD_Layer_0
10
0.213550
20
0.083300
30
0.0
11
0.179550
21
0.685900
31
0.0
0
LINE
8
MCD_Layer_0
10
0.179550
20
0.685900
30
0.0
11
-0.021450
21
-0.038100
31
0.0
0
LINE
8
MCD_Layer_0
10
-0.021450
20
-0.038100
30
0.0
11
-0.232450
21
0.666900
31
0.0
0
LINE
8
MCD_Layer_0
10
-0.232450
20
0.666900
30
0.0
11
-0.255450
21
0.083300
31
0.0
0
LINE
8
MCD_Layer_0
10
-0.234450
20
0.062300
30
0.0
11
-0.192450
21
0.062300
31
0.0
0
LINE
8
MCD_Layer_0
10
-0.192450
20
0.062300
30
0.0
11
-0.192450
21
0.000000
31
0.0
0
LINE
8
MCD_Layer_0
10
-0.192450
20
0.000000
30
0.0
11
-0.380450
21
0.000000
31
0.0
0
LINE
8
MCD_Layer_0
10
-0.114500
20
0.000000
30
0.0
11
-0.114500
21
0.063000
31
0.0
0
LINE
8
MCD_Layer_0
10
-0.114500
20
0.063000
30
0.0
11
-0.073500
21
0.063000
31
0.0
0
LINE
8
MCD_Layer_0
10
-0.052500
20
0.083000
30
0.0
11
-0.052500
21
0.813000
31
0.0
0
LINE
8
MCD_Layer_0
10
-0.052500
20
0.813000
30
0.0
11
-0.114500
21
0.813000
31
0.0
0
LINE
8
MCD_Layer_0
10
-0.114500
20
0.813000
30
0.0
11
-0.114500
21
0.875500
31
0.0
0
LINE
8
MCD_Layer_0
10
-0.011400
20
0.999900
30
0.0
11
0.051500
21
1.000000
31
0.0
0
LINE
8
MCD_Layer_0
10
0.051500
20
1.000000
30
0.0
11
0.051500
21
0.083000
31
0.0
0
LINE
8
MCD_Layer_0
10
0.072500
20
0.063000
30
0.0
11
0.114500
21
0.063000
31
0.0
0
LINE
8
MCD_Layer_0
10
0.114500
20
0.063000
30
0.0
11
0.114500
21
0.000000
31
0.0
0
LINE
8
MCD_Layer_0
10
0.114500
20
0.000000
30
0.0
11
-0.114500
21
0.000000
31
0.0
0
LINE
8
MCD_Layer_0
10
0.183633
20
1.013800
30
0.0
11
0.152633
21
0.952800
31
0.0
0
LINE
8
MCD_Layer_0
10
-0.155000
20
0.823000
30
0.0
11
-0.155000
21
0.781000
31
0.0
0
LINE
8
MCD_Layer_0
10
-0.155000
20
0.781000
30
0.0
11
-0.220700
21
0.781000
31
0.0
0
LINE
8
MCD_Layer_0
10
-0.220700
20
0.781000
30
0.0
11
-0.220700
21
0.990000
31
0.0
0
LINE
8
MCD_Layer_0
10
-0.220700
20
0.990000
30
0.0
11
-0.155000
21
0.990000
31
0.0
0
LINE
8
MCD_Layer_0
10
-0.155000
20
0.990000
30
0.0
11
-0.155000
21
0.982000
31
0.0
0
LINE
8
MCD_Layer_0
10
-0.105000
20
0.083000
30
0.0
11
0.158100
21
0.083000
31
0.0
0
LINE
8
MCD_Layer_0
10
0.179100
20
0.104000
30
0.0
11
0.179100
21
0.167000
31
0.0
0
LINE
8
MCD_Layer_0
10
0.179100
20
0.167000
30
0.0
11
0.241000
21
0.167000
31
0.0
0
LINE
8
MCD_Layer_0
10
0.241000
20
0.167000
30
0.0
11
0.241000
21
0.000000
31
0.0
0
LINE
8
MCD_Layer_0
10
0.241000
20
0.000000
30
0.0
11
-0.241000
21
0.000000
31
0.0
0
LINE
8
MCD_Layer_0
10
-0.258979
20
0.000000
30
0.0
11
-0.258979
21
0.062500
31
0.0
0
LINE
8
MCD_Layer_0
10
-0.258979
20
0.062500
30
0.0
11
-0.217279
21
0.062500
31
0.0
0
LINE
8
MCD_Layer_0
10
-0.196279
20
0.083500
30
0.0
11
-0.196279
21
0.917300
31
0.0
0
LINE
8
MCD_Layer_0
10
-0.217279
20
0.937300
30
0.0
11
-0.258979
21
0.937300
31
0.0
0
LINE
8
MCD_Layer_0
10
-0.258979
20
0.937300
30
0.0
11
-0.258979
21
1.000000
31
0.0
0
LINE
8
MCD_Layer_0
10
-0.258979
20
1.000000
30
0.0
11
-0.016079
21
1.000000
31
0.0
0
LINE
8
MCD_Layer_0
10
-0.087179
20
0.461900
30
0.0
11
-0.087179
21
0.083500
31
0.0
0
LINE
8
MCD_Layer_0
10
-0.066179
20
0.062500
30
0.0
11
-0.024479
21
0.062500
31
0.0
0
LINE
8
MCD_Layer_0
10
-0.024479
20
0.062500
30
0.0
11
-0.024479
21
0.000000
31
0.0
0
LINE
8
MCD_Layer_0
10
-0.024479
20
0.000000
30
0.0
11
-0.258979
21
0.000000
31
0.0
0
LINE
8
MCD_Layer_0
10
-0.087179
20
0.917300
30
0.0
11
-0.087179
21
0.523300
31
0.0
0
LINE
8
MCD_Layer_0
10
-0.241838
20
0.066000
30
0.0
11
-0.198038
21
0.111200
31
0.0
0
LINE
8
MCD_Layer_0
10
-0.083038
20
0.605000
30
0.0
11
-0.104038
21
0.605000
31
0.0
0
LINE
8
MCD_Layer_0
10
-0.125038
20
0.584000
30
0.0
11
-0.125038
21
0.547400
31
0.0
0
LINE
8
MCD_Layer_0
10
-0.125038
20
0.547400
30
0.0
11
-0.179338
21
0.547400
31
0.0
0
LINE
8
MCD_Layer_0
10
-0.179338
20
0.547400
30
0.0
11
-0.179338
21
0.718800
31
0.0
0
LINE
8
MCD_Layer_0
10
-0.179338
20
0.718800
30
0.0
11
-0.125038
21
0.718800
31
0.0
0
LINE
8
MCD_Layer_0
10
-0.125038
20
0.718800
30
0.0
11
-0.125038
21
0.677000
31
0.0
0
LINE
8
MCD_Layer_0
10
-0.104038
20
0.657000
30
0.0
11
-0.083038
21
0.657000
31
0.0
0
LINE
8
MCD_Layer_0
10
-0.146038
20
0.855000
30
0.0
11
-0.146038
21
0.792000
31
0.0
0
LINE
8
MCD_Layer_0
10
-0.146038
20
0.792000
30
0.0
11
-0.210638
21
0.792000
31
0.0
0
LINE
8
MCD_Layer_0
10
-0.210638
20
0.792000
30
0.0
11
-0.210638
21
1.000000
31
0.0
0
LINE
8
MCD_Layer_0
10
-0.210638
20
1.000000
30
0.0
11
-0.146038
21
1.000000
31
0.0
0
LINE
8
MCD_Layer_0
10
-0.146038
20
1.000000
30
0.0
11
-0.146038
21
0.989000
31
0.0
0
LINE
8
MCD_Layer_0
10
-0.256900
20
0.173201
30
0.0
11
-0.150201
21
0.216101
31
0.0
0
LINE
8
MCD_Layer_0
10
0.113299
20
0.392901
30
0.0
11
-0.132300
21
0.635900
31
0.0
0
LINE
8
MCD_Layer_0
10
0.248799
20
0.924701
30
0.0
11
0.161698
21
0.842301
31
0.0
0
LINE
8
MCD_Layer_0
10
-0.047601
20
0.713901
30
0.0
11
0.193700
21
0.475201
31
0.0
0
LINE
8
MCD_Layer_0
10
-0.267407
20
0.253139
30
0.0
11
-0.267407
21
0.746940
31
0.0
0
LINE
8
MCD_Layer_0
10
0.267393
20
0.746940
30
0.0
11
0.267393
21
0.253139
31
0.0
0
LINE
8
MCD_Layer_0
10
0.152393
20
0.252639
30
0.0
11
0.152393
21
0.747339
31
0.0
0
LINE
8
MCD_Layer_0
10
-0.152407
20
0.747339
30
0.0
11
-0.152407
21
0.252639
31
0.0
0
LINE
8
MCD_Layer_0
10
-0.275958
20
0.000039
30
0.0
11
-0.275958
21
1.000039
31
0.0
0
LINE
8
MCD_Layer_0
10
-0.275958
20
1.000039
30
0.0
11
-0.203358
21
1.000039
31
0.0
0
LINE
8
MCD_Layer_0
10
-0.203358
20
1.000039
30
0.0
11
-0.183158
21
0.948738
31
0.0
0
LINE
8
MCD_Layer_0
10
0.276042
20
0.752338
30
0.0
11
0.276042
21
0.000039
31
0.0
0
LINE
8
MCD_Layer_0
10
-0.160958
20
0.000039
30
0.0
11
-0.160958
21
0.752338
31
0.0
0
LINE
8
MCD_Layer_0
10
0.161042
20
0.752338
30
0.0
11
0.161042
21
0.000039
31
0.0
0
LINE
8
MCD_Layer_0
10
-0.275958
20
0.000039
30
0.0
11
-0.160958
21
0.000039
31
0.0
0
LINE
8
MCD_Layer_0
10
0.161042
20
0.000039
30
0.0
11
0.276042
21
0.000039
31
0.0
0
LINE
8
MCD_Layer_0
10
-0.223968
20
0.000042
30
0.0
11
-0.223968
21
1.000042
31
0.0
0
LINE
8
MCD_Layer_0
10
-0.223968
20
1.000042
30
0.0
11
0.224032
21
1.000042
31
0.0
0
LINE
8
MCD_Layer_0
10
0.224032
20
1.000042
30
0.0
11
0.224032
21
0.885043
31
0.0
0
LINE
8
MCD_Layer_0
10
0.224032
20
0.885043
30
0.0
11
-0.108968
21
0.885043
31
0.0
0
LINE
8
MCD_Layer_0
10
-0.108968
20
0.885043
30
0.0
11
-0.108968
21
0.617043
31
0.0
0
LINE
8
MCD_Layer_0
10
-0.108968
20
0.617043
30
0.0
11
0.141031
21
0.617043
31
0.0
0
LINE
8
MCD_Layer_0
10
0.141031
20
0.617043
30
0.0
11
0.141031
21
0.502042
31
0.0
0
LINE
8
MCD_Layer_0
10
0.141031
20
0.502042
30
0.0
11
-0.108968
21
0.502042
31
0.0
0
LINE
8
MCD_Layer_0
10
-0.108968
20
0.502042
30
0.0
11
-0.108968
21
0.000042
31
0.0
0
LINE
8
MCD_Layer_0
10
-0.108968
20
0.000042
30
0.0
11
-0.223968
21
0.000042
31
0.0
0
LINE
8
MCD_Layer_0
10
-0.211019
20
0.061044
30
0.0
11
-0.131120
21
0.147043
31
0.0
0
LINE
8
MCD_Layer_0
10
0.095981
20
0.218044
30
0.0
11
0.095981
21
1.000043
31
0.0
0
LINE
8
MCD_Layer_0
10
0.095981
20
1.000043
30
0.0
11
0.210980
21
1.000043
31
0.0
0
LINE
8
MCD_Layer_0
10
0.210980
20
1.000043
30
0.0
11
0.210980
21
0.214045
31
0.0
0
LINE
8
MCD_Layer_0
10
-0.250011
20
0.000041
30
0.0
11
-0.250011
21
1.000041
31
0.0
0
LINE
8
MCD_Layer_0
10
-0.250011
20
1.000041
30
0.0
11
0.197989
21
1.000041
31
0.0
0
LINE
8
MCD_Layer_0
10
0.197989
20
1.000041
30
0.0
11
0.197989
21
0.885042
31
0.0
0
LINE
8
MCD_Layer_0
10
0.197989
20
0.885042
30
0.0
11
-0.135011
21
0.885042
31
0.0
0
LINE
8
MCD_Layer_0
10
-0.135011
20
0.885042
30
0.0
11
-0.135011
21
0.617042
31
0.0
0
LINE
8
MCD_Layer_0
10
-0.135011
20
0.617042
30
0.0
11
0.114989
21
0.617042
31
0.0
0
LINE
8
MCD_Layer_0
10
0.114989
20
0.617042
30
0.0
11
0.114989
21
0.502041
31
0.0
0
LINE
8
MCD_Layer_0
10
0.114989
20
0.502041
30
0.0
11
-0.135011
21
0.502041
31
0.0
0
LINE
8
MCD_Layer_0
10
-0.135011
20
0.502041
30
0.0
11
-0.135011
21
0.115042
31
0.0
0
LINE
8
MCD_Layer_0
10
-0.135011
20
0.115042
30
0.0
11
0.249989
21
0.115042
31
0.0
0
LINE
8
MCD_Layer_0
10
0.249989
20
0.115042
30
0.0
11
0.249989
21
0.000041
31
0.0
0
LINE
8
MCD_Layer_0
10
0.249989
20
0.000041
30
0.0
11
-0.250011
21
0.000041
31
0.0
0
LINE
8
MCD_Layer_0
10
-0.273319
20
0.000040
30
0.0
11
-0.273319
21
1.000040
31
0.0
0
LINE
8
MCD_Layer_0
10
-0.273319
20
1.000040
30
0.0
11
-0.033319
21
1.000040
31
0.0
0
LINE
8
MCD_Layer_0
10
-0.158319
20
0.000040
30
0.0
11
-0.158319
21
0.357440
31
0.0
0
LINE
8
MCD_Layer_0
10
-0.031020
20
0.885039
30
0.0
11
-0.158319
21
0.885039
31
0.0
0
LINE
8
MCD_Layer_0
10
-0.158319
20
0.885039
30
0.0
11
-0.158319
21
0.472440
31
0.0
0
LINE
8
MCD_Layer_0
10
-0.273319
20
0.000040
30
0.0
11
-0.158319
21
0.000040
31
0.0
0
LINE
8
MCD_Layer_0
10
0.154681
20
0.000040
30
0.0
11
0.273281
21
0.000040
31
0.0
0
LINE
8
MCD_Layer_0
10
-0.380544
20
0.000037
30
0.0
11
-0.380544
21
0.787037
31
0.0
0
LINE
8
MCD_Layer_0
10
0.380456
20
0.787037
30
0.0
11
0.380456
21
0.000037
31
0.0
0
LINE
8
MCD_Layer_0
10
-0.265544
20
0.000037
30
0.0
11
-0.265544
21
0.787037
31
0.0
0
LINE
8
MCD_Layer_0
10
-0.057543
20
0.787037
30
0.0
11
-0.057543
21
0.000037
31
0.0
0
LINE
8
MCD_Layer_0
10
0.265456
20
0.000037
30
0.0
11
0.265456
21
0.787037
31
0.0
0
LINE
8
MCD_Layer_0
10
0.057456
20
0.787037
30
0.0
11
0.057456
21
0.000037
31
0.0
0
LINE
8
MCD_Layer_0
10
-0.380544
20
0.000037
30
0.0
11
-0.265544
21
0.000037
31
0.0
0
LINE
8
MCD_Layer_0
10
-0.057543
20
0.000037
30
0.0
11
0.057456
21
0.000037
31
0.0
0
LINE
8
MCD_Layer_0
10
0.265456
20
0.000037
30
0.0
11
0.380456
21
0.000037
31
0.0
0
LINE
8
MCD_Layer_0
10
-0.057486
20
0.000043
30
0.0
11
-0.057486
21
1.000043
31
0.0
0
LINE
8
MCD_Layer_0
10
-0.057486
20
1.000043
30
0.0
11
0.057514
21
1.000043
31
0.0
0
LINE
8
MCD_Layer_0
10
0.057514
20
1.000043
30
0.0
11
0.057514
21
0.000043
31
0.0
0
LINE
8
MCD_Layer_0
10
0.057514
20
0.000043
30
0.0
11
-0.057486
21
0.000043
31
0.0
0
LINE
8
MCD_Layer_0
10
-0.265523
20
0.000041
30
0.0
11
-0.265523
21
0.758042
31
0.0
0
LINE
8
MCD_Layer_0
10
0.265477
20
0.758042
30
0.0
11
0.265477
21
0.000041
31
0.0
0
LINE
8
MCD_Layer_0
10
-0.150522
20
0.000041
30
0.0
11
-0.150522
21
0.502041
31
0.0
0
LINE
8
MCD_Layer_0
10
-0.150522
20
0.617042
30
0.0
11
-0.150522
21
0.754243
31
0.0
0
LINE
8
MCD_Layer_0
10
0.150477
20
0.754243
30
0.0
11
0.150477
21
0.617042
31
0.0
0
LINE
8
MCD_Layer_0
10
0.150477
20
0.502041
30
0.0
11
0.150477
21
0.000041
31
0.0
0
LINE
8
MCD_Layer_0
10
-0.265523
20
0.000041
30
0.0
11
-0.150522
21
0.000041
31
0.0
0
LINE
8
MCD_Layer_0
10
-0.150522
20
0.502041
30
0.0
11
0.150477
21
0.502041
31
0.0
0
LINE
8
MCD_Layer_0
10
0.150477
20
0.617042
30
0.0
11
-0.150522
21
0.617042
31
0.0
0
LINE
8
MCD_Layer_0
10
0.150477
20
0.000041
30
0.0
11
0.265477
21
0.000041
31
0.0
0
LINE
8
MCD_Layer_0
10
-0.275975
20
0.000041
30
0.0
11
-0.275975
21
1.000041
31
0.0
0
LINE
8
MCD_Layer_0
10
-0.275975
20
1.000041
30
0.0
11
-0.160975
21
1.000041
31
0.0
0
LINE
8
MCD_Layer_0
10
-0.160975
20
1.000041
30
0.0
11
-0.160975
21
0.617042
31
0.0
0
LINE
8
MCD_Layer_0
10
-0.160975
20
0.617042
30
0.0
11
0.161024
21
0.617042
31
0.0
0
LINE
8
MCD_Layer_0
10
0.161024
20
0.617042
30
0.0
11
0.161024
21
1.000041
31
0.0
0
LINE
8
MCD_Layer_0
10
0.161024
20
1.000041
30
0.0
11
0.276025
21
1.000041
31
0.0
0
LINE
8
MCD_Layer_0
10
0.276025
20
1.000041
30
0.0
11
0.276025
21
0.000041
31
0.0
0
LINE
8
MCD_Layer_0
10
0.276025
20
0.000041
30
0.0
11
0.161024
21
0.000041
31
0.0
0
LINE
8
MCD_Layer_0
10
0.161024
20
0.000041
30
0.0
11
0.161024
21
0.502041
31
0.0
0
LINE
8
MCD_Layer_0
10
0.161024
20
0.502041
30
0.0
11
-0.160975
21
0.502041
31
0.0
0
LINE
8
MCD_Layer_0
10
-0.160975
20
0.502041
30
0.0
11
-0.160975
21
0.000041
31
0.0
0
LINE
8
MCD_Layer_0
10
-0.160975
20
0.000041
30
0.0
11
-0.275975
21
0.000041
31
0.0
0
LINE
8
MCD_Layer_0
10
-0.300797
20
0.000041
30
0.0
11
-0.300797
21
1.000041
31
0.0
0
LINE
8
MCD_Layer_0
10
-0.300797
20
1.000041
30
0.0
11
-0.132197
21
1.000041
31
0.0
0
LINE
8
MCD_Layer_0
10
-0.132197
20
0.000041
30
0.0
11
-0.300797
21
0.000041
31
0.0
0
LINE
8
MCD_Layer_0
10
-0.185797
20
0.115042
30
0.0
11
-0.134697
21
0.115042
31
0.0
0
LINE
8
MCD_Layer_0
10
-0.134697
20
0.885042
30
0.0
11
-0.185797
21
0.885042
31
0.0
0
LINE
8
MCD_Layer_0
10
-0.185797
20
0.885042
30
0.0
11
-0.185797
21
0.115042
31
0.0
0
LINE
8
MCD_Layer_0
10
0.330884
20
0.916042
30
0.0
11
0.247983
21
0.836242
31
0.0
0
LINE
8
MCD_Layer_0
10
0.247983
20
0.163743
30
0.0
11
0.330884
21
0.084043
31
0.0
0
LINE
8
MCD_Layer_0
10
-0.234500
20
-0.023000
30
0.0
11
-0.234500
21
0.217000
31
0.0
0
LINE
8
MCD_Layer_0
10
-0.234500
20
0.217000
30
0.0
11
-0.192500
21
0.217000
31
0.0
0
LINE
8
MCD_Layer_0
10
-0.192500
20
0.217000
30
0.0
11
-0.192500
21
0.154000
31
0.0
0
LINE
8
MCD_Layer_0
10
0.057500
20
0.144000
30
0.0
11
0.057500
21
0.935000
31
0.0
0
LINE
8
MCD_Layer_0
10
0.036500
20
0.956000
30
0.0
11
-0.015500
21
0.956000
31
0.0
0
LINE
8
MCD_Layer_0
10
-0.015500
20
0.956000
30
0.0
11
-0.015500
21
0.998000
31
0.0
0
LINE
8
MCD_Layer_0
10
-0.015500
20
0.998000
30
0.0
11
0.234500
21
0.998000
31
0.0
0
LINE
8
MCD_Layer_0
10
0.234500
20
0.998000
30
0.0
11
0.234500
21
0.956000
31
0.0
0
LINE
8
MCD_Layer_0
10
0.234500
20
0.956000
30
0.0
11
0.182500
21
0.956000
31
0.0
0
LINE
8
MCD_Layer_0
10
0.161500
20
0.935000
30
0.0
11
0.161500
21
0.154000
31
0.0
0
LINE
8
MCD_Layer_0
10
-0.192500
20
-0.010000
30
0.0
11
-0.192500
21
-0.023000
31
0.0
0
LINE
8
MCD_Layer_0
10
-0.192500
20
-0.023000
30
0.0
11
-0.234500
21
-0.023000
31
0.0
0
LINE
8
MCD_Layer_0
10
-0.314789
20
0.000000
30
0.0
11
-0.314789
21
0.042000
31
0.0
0
LINE
8
MCD_Layer_0
10
-0.314789
20
0.042000
30
0.0
11
-0.262789
21
0.042000
31
0.0
0
LINE
8
MCD_Layer_0
10
-0.241789
20
0.063000
30
0.0
11
-0.241789
21
0.938000
31
0.0
0
LINE
8
MCD_Layer_0
10
-0.262789
20
0.958000
30
0.0
11
-0.314789
21
0.958000
31
0.0
0
LINE
8
MCD_Layer_0
10
-0.314789
20
0.958000
30
0.0
11
-0.314789
21
1.000000
31
0.0
0
LINE
8
MCD_Layer_0
10
-0.314789
20
1.000000
30
0.0
11
-0.064789
21
1.000000
31
0.0
0
LINE
8
MCD_Layer_0
10
-0.064789
20
1.000000
30
0.0
11
-0.064789
21
0.958000
31
0.0
0
LINE
8
MCD_Layer_0
10
-0.064789
20
0.958000
30
0.0
11
-0.106789
21
0.958000
31
0.0
0
LINE
8
MCD_Layer_0
10
-0.106789
20
0.958000
30
0.0
11
-0.116789
21
0.958000
31
0.0
0
LINE
8
MCD_Layer_0
10
-0.137789
20
0.938000
30
0.0
11
-0.137789
21
0.677000
31
0.0
0
LINE
8
MCD_Layer_0
10
-0.137789
20
0.677000
30
0.0
11
0.138211
21
0.677000
31
0.0
0
LINE
8
MCD_Layer_0
10
0.138211
20
0.677000
30
0.0
11
0.138211
21
0.938000
31
0.0
0
LINE
8
MCD_Layer_0
10
0.117211
20
0.958000
30
0.0
11
0.065211
21
0.958000
31
0.0
0
LINE
8
MCD_Layer_0
10
0.065211
20
0.958000
30
0.0
11
0.065211
21
1.000000
31
0.0
0
LINE
8
MCD_Layer_0
10
0.065211
20
1.000000
30
0.0
11
0.315211
21
1.000000
31
0.0
0
LINE
8
MCD_Layer_0
10
0.315211
20
1.000000
30
0.0
11
0.315211
21
0.958000
31
0.0
0
LINE
8
MCD_Layer_0
10
0.315211
20
0.958000
30
0.0
11
0.274211
21
0.958000
31
0.0
0
LINE
8
MCD_Layer_0
10
0.274211
20
0.958000
30
0.0
11
0.263211
21
0.958000
31
0.0
0
LINE
8
MCD_Layer_0
10
0.242211
20
0.938000
30
0.0
11
0.242211
21
0.063000
31
0.0
0
LINE
8
MCD_Layer_0
10
0.263211
20
0.042000
30
0.0
11
0.315211
21
0.042000
31
0.0
0
LINE
8
MCD_Layer_0
10
0.315211
20
0.042000
30
0.0
11
0.315211
21
0.000000
31
0.0
0
LINE
8
MCD_Layer_0
10
0.315211
20
0.000000
30
0.0
11
0.065211
21
0.000000
31
0.0
0
LINE
8
MCD_Layer_0
10
0.065211
20
0.000000
30
0.0
11
0.065211
21
0.042000
31
0.0
0
LINE
8
MCD_Layer_0
10
0.065211
20
0.042000
30
0.0
11
0.117211
21
0.042000
31
0.0
0
LINE
8
MCD_Layer_0
10
0.138211
20
0.063000
30
0.0
11
0.138211
21
0.625000
31
0.0
0
LINE
8
MCD_Layer_0
10
0.138211
20
0.625000
30
0.0
11
-0.137789
21
0.625000
31
0.0
0
LINE
8
MCD_Layer_0
10
-0.137789
20
0.625000
30
0.0
11
-0.137789
21
0.063000
31
0.0
0
LINE
8
MCD_Layer_0
10
-0.116789
20
0.042000
30
0.0
11
-0.064789
21
0.042000
31
0.0
0
LINE
8
MCD_Layer_0
10
-0.064789
20
0.042000
30
0.0
11
-0.064789
21
0.000000
31
0.0
0
LINE
8
MCD_Layer_0
10
-0.064789
20
0.000000
30
0.0
11
-0.314789
21
0.000000
31
0.0
0
LINE
8
MCD_Layer_0
10
-0.292000
20
0.001983
30
0.0
11
-0.292000
21
0.043983
31
0.0
0
LINE
8
MCD_Layer_0
10
-0.292000
20
0.043983
30
0.0
11
-0.250000
21
0.043983
31
0.0
0
LINE
8
MCD_Layer_0
10
-0.229000
20
0.064983
30
0.0
11
-0.229000
21
0.939983
31
0.0
0
LINE
8
MCD_Layer_0
10
-0.250000
20
0.960983
30
0.0
11
-0.292000
21
0.960983
31
0.0
0
LINE
8
MCD_Layer_0
10
-0.292000
20
0.960983
30
0.0
11
-0.292000
21
1.001983
31
0.0
0
LINE
8
MCD_Layer_0
10
-0.292000
20
1.001983
30
0.0
11
-0.166000
21
1.001983
31
0.0
0
LINE
8
MCD_Layer_0
10
-0.166000
20
1.001983
30
0.0
11
0.167000
21
0.345983
31
0.0
0
LINE
8
MCD_Layer_0
10
0.167000
20
0.345983
30
0.0
11
0.167000
21
0.939983
31
0.0
0
LINE
8
MCD_Layer_0
10
0.146000
20
0.960983
30
0.0
11
0.104000
21
0.960983
31
0.0
0
LINE
8
MCD_Layer_0
10
0.104000
20
0.960983
30
0.0
11
0.104000
21
1.001983
31
0.0
0
LINE
8
MCD_Layer_0
10
0.104000
20
1.001983
30
0.0
11
0.292000
21
1.001983
31
0.0
0
LINE
8
MCD_Layer_0
10
0.292000
20
1.001983
30
0.0
11
0.292000
21
0.960983
31
0.0
0
LINE
8
MCD_Layer_0
10
0.292000
20
0.960983
30
0.0
11
0.250000
21
0.960983
31
0.0
0
LINE
8
MCD_Layer_0
10
0.229000
20
0.939983
30
0.0
11
0.229000
21
-0.008017
31
0.0
0
LINE
8
MCD_Layer_0
10
0.229000
20
-0.008017
30
0.0
11
-0.166000
21
0.771983
31
0.0
0
LINE
8
MCD_Layer_0
10
-0.166000
20
0.771983
30
0.0
11
-0.166000
21
0.064983
31
0.0
0
LINE
8
MCD_Layer_0
10
-0.146000
20
0.043983
30
0.0
11
-0.093000
21
0.043983
31
0.0
0
LINE
8
MCD_Layer_0
10
-0.093000
20
0.043983
30
0.0
11
-0.093000
21
0.001983
31
0.0
0
LINE
8
MCD_Layer_0
10
-0.093000
20
0.001983
30
0.0
11
-0.292000
21
0.001983
31
0.0
0
LINE
8
MCD_Layer_0
10
-0.208600
20
-0.019000
30
0.0
11
-0.208600
21
0.252000
31
0.0
0
LINE
8
MCD_Layer_0
10
-0.208600
20
0.252000
30
0.0
11
-0.166600
21
0.252000
31
0.0
0
LINE
8
MCD_Layer_0
10
-0.166600
20
0.252000
30
0.0
11
-0.166600
21
0.190000
31
0.0
0
LINE
8
MCD_Layer_0
10
0.119400
20
0.998300
30
0.0
11
0.119400
21
1.023000
31
0.0
0
LINE
8
MCD_Layer_0
10
0.119400
20
1.023000
30
0.0
11
0.161400
21
1.023000
31
0.0
0
LINE
8
MCD_Layer_0
10
0.161400
20
1.023000
30
0.0
11
0.161400
21
0.773000
31
0.0
0
LINE
8
MCD_Layer_0
10
0.161400
20
0.773000
30
0.0
11
0.119400
21
0.773000
31
0.0
0
LINE
8
MCD_Layer_0
10
0.119400
20
0.773000
30
0.0
11
0.119400
21
0.815000
31
0.0
0
LINE
8
MCD_Layer_0
10
-0.166600
20
0.000000
30
0.0
11
-0.166600
21
-0.019000
31
0.0
0
LINE
8
MCD_Layer_0
10
-0.166600
20
-0.019000
30
0.0
11
-0.208600
21
-0.019000
31
0.0
0
LINE
8
MCD_Layer_0
10
-7.000000
20
0.000000
30
0.0
11
7.000000
21
0.000000
31
0.0
0
LINE
8
MCD_Layer_0
10
-7.000000
20
0.000000
30
0.0
11
-6.999980
21
14.800003
31
0.0
0
LINE
8
MCD_Layer_0
10
7.000000
20
0.000000
30
0.0
11
7.000005
21
14.800000
31
0.0
0
LINE
8
MCD_Layer_0
10
-7.000000
20
0.000000
30
0.0
11
-10.000000
21
0.000000
31
0.0
0
LINE
8
MCD_Layer_0
10
-10.000000
20
0.000000
30
0.0
11
-10.000000
21
-4.000000
31
0.0
0
LINE
8
MCD_Layer_0
10
-10.000000
20
-4.000000
30
0.0
11
10.000000
21
-4.000000
31
0.0
0
LINE
8
MCD_Layer_0
10
10.000000
20
-4.000000
30
0.0
11
10.000000
21
0.000000
31
0.0
0
LINE
8
MCD_Layer_0
10
7.000000
20
0.000000
30
0.0
11
10.000000
21
0.000000
31
0.0
0
LINE
8
MCD_Layer_1
10
5.750000
20
10.557441
30
0.0
11
-5.750000
21
10.557441
31
0.0
0
LINE
8
MCD_Layer_1
10
5.843750
20
10.651190
30
0.0
11
-5.843750
21
10.651190
31
0.0
0
LINE
8
MCD_Layer_1
10
5.843750
20
1.303034
30
0.0
11
-5.843750
21
1.303034
31
0.0
0
LINE
8
MCD_Layer_1
10
-5.843750
20
1.303034
30
0.0
11
-5.843750
21
10.651190
31
0.0
0
LINE
8
MCD_Layer_1
10
-5.750000
20
1.396783
30
0.0
11
-5.750000
21
10.557441
31
0.0
0
LINE
8
MCD_Layer_1
10
5.750000
20
1.396783
30
0.0
11
5.750000
21
10.557441
31
0.0
0
LINE
8
MCD_Layer_1
10
5.750000
20
1.396783
30
0.0
11
-5.750000
21
1.396783
31
0.0
0
LINE
8
MCD_Layer_1
10
5.843750
20
1.303034
30
0.0
11
5.843750
21
10.651190
31
0.0
0
LINE
8
MCD_Layer_1
10
-6.190605
20
19.586565
30
0.0
11
6.190605
21
19.586565
31
0.0
0
LINE
8
MCD_Layer_1
10
6.190605
20
19.586565
30
0.0
11
6.190605
21
22.396122
31
0.0
0
LINE
8
MCD_Layer_1
10
6.190605
20
22.396122
30
0.0
11
-6.190605
21
22.396122
31
0.0
0
LINE
8
MCD_Layer_1
10
-6.190605
20
22.396122
30
0.0
11
-6.190605
21
19.586565
31
0.0
0
LINE
8
MCD_Layer_1
10
-6.284355
20
19.492815
30
0.0
11
6.284355
21
19.492815
31
0.0
0
LINE
8
MCD_Layer_1
10
6.284355
20
19.492815
30
0.0
11
6.284355
21
22.489872
31
0.0
0
LINE
8
MCD_Layer_1
10
6.284355
20
22.489872
30
0.0
11
-6.284355
21
22.489872
31
0.0
0
LINE
8
MCD_Layer_1
10
-6.284355
20
22.489872
30
0.0
11
-6.284355
21
19.492815
31
0.0
0
ARC
8
MCD_Layer_0
10
-0.002653
20
0.050003
40
0.050074
50
273.037177
51
166.961734
0
ARC
8
MCD_Layer_0
10
-0.038342
20
-0.014215
40
0.040892
50
20.341405
51
338.803541
0
ARC
8
MCD_Layer_0
10
0.004732
20
0.072337
40
0.072492
50
10.397096
51
266.256916
0
ARC
8
MCD_Layer_0
10
-2.133769
20
1.366789
40
2.334670
50
324.166548
51
339.992575
0
ARC
8
MCD_Layer_0
10
-0.052486
20
-0.021701
40
0.056795
50
22.463439
51
337.539158
0
ARC
8
MCD_Layer_0
10
-0.027952
20
-0.007655
40
0.028981
50
15.315157
51
345.397014
0
ARC
8
MCD_Layer_0
10
0.046679
20
0.112636
40
0.121926
50
247.489979
51
302.002238
0
ARC
8
MCD_Layer_0
10
-0.043500
20
0.170049
40
0.211049
50
233.681021
51
306.318979
0
ARC
8
MCD_Layer_0
10
-0.178894
20
-0.008854
40
0.013654
50
40.423682
51
184.816040
0
ARC
8
MCD_Layer_0
10
-0.044986
20
-0.014500
40
0.047265
50
17.865202
51
342.134798
0
CIRCLE
8
MCD_Layer_0
10
-0.002200
20
0.066773
40
0.076224
0
ENDSEC
0
EOF
