0
SECTION
2
ENTITIES
0
LINE
8
MCD_Layer_0
10
-0.120000
20
0.000000
30
0.0
11
-0.120000
21
0.062500
31
0.0
0
LINE
8
MCD_Layer_0
10
-0.120000
20
0.062500
30
0.0
11
-0.078000
21
0.062500
31
0.0
0
LINE
8
MCD_Layer_0
10
-0.057000
20
0.083500
30
0.0
11
-0.057000
21
0.917500
31
0.0
0
LINE
8
MCD_Layer_0
10
-0.078000
20
0.937500
30
0.0
11
-0.120000
21
0.937500
31
0.0
0
LINE
8
MCD_Layer_0
10
-0.120000
20
0.937500
30
0.0
11
-0.120000
21
1.000000
31
0.0
0
LINE
8
MCD_Layer_0
10
-0.120000
20
1.000000
30
0.0
11
0.120000
21
1.000000
31
0.0
0
LINE
8
MCD_Layer_0
10
0.120000
20
1.000000
30
0.0
11
0.120000
21
0.937500
31
0.0
0
LINE
8
MCD_Layer_0
10
0.120000
20
0.937500
30
0.0
11
0.078000
21
0.937500
31
0.0
0
LINE
8
MCD_Layer_0
10
0.057000
20
0.917500
30
0.0
11
0.057000
21
0.083500
31
0.0
0
LINE
8
MCD_Layer_0
10
0.078000
20
0.062500
30
0.0
11
0.120000
21
0.062500
31
0.0
0
LINE
8
MCD_Layer_0
10
0.120000
20
0.062500
30
0.0
11
0.120000
21
0.000000
31
0.0
0
LINE
8
MCD_Layer_0
10
0.120000
20
0.000000
30
0.0
11
-0.120000
21
0.000000
31
0.0
0
LINE
8
MCD_Layer_0
10
-0.416500
20
0.000000
30
0.0
11
-0.416500
21
0.062500
31
0.0
0
LINE
8
MCD_Layer_0
10
-0.416500
20
0.062500
30
0.0
11
-0.353500
21
0.062500
31
0.0
0
LINE
8
MCD_Layer_0
10
-0.333500
20
0.083500
30
0.0
11
-0.333500
21
0.917500
31
0.0
0
LINE
8
MCD_Layer_0
10
-0.353500
20
0.937500
30
0.0
11
-0.416500
21
0.937500
31
0.0
0
LINE
8
MCD_Layer_0
10
-0.416500
20
0.937500
30
0.0
11
-0.416500
21
1.000000
31
0.0
0
LINE
8
MCD_Layer_0
10
-0.416500
20
1.000000
30
0.0
11
-0.270500
21
1.000000
31
0.0
0
LINE
8
MCD_Layer_0
10
-0.270500
20
1.000000
30
0.0
11
0.271500
21
0.260000
31
0.0
0
LINE
8
MCD_Layer_0
10
0.271500
20
0.260000
30
0.0
11
0.271500
21
0.917500
31
0.0
0
LINE
8
MCD_Layer_0
10
0.250500
20
0.937500
30
0.0
11
0.187500
21
0.937500
31
0.0
0
LINE
8
MCD_Layer_0
10
0.187500
20
0.937500
30
0.0
11
0.187500
21
1.000000
31
0.0
0
LINE
8
MCD_Layer_0
10
0.187500
20
1.000000
30
0.0
11
0.416500
21
1.000000
31
0.0
0
LINE
8
MCD_Layer_0
10
0.416500
20
1.000000
30
0.0
11
0.416500
21
0.937500
31
0.0
0
LINE
8
MCD_Layer_0
10
0.416500
20
0.937500
30
0.0
11
0.354500
21
0.937500
31
0.0
0
LINE
8
MCD_Layer_0
10
0.333500
20
0.917500
30
0.0
11
0.333500
21
-0.037000
31
0.0
0
LINE
8
MCD_Layer_0
10
0.333500
20
-0.037000
30
0.0
11
-0.270500
21
0.807000
31
0.0
0
LINE
8
MCD_Layer_0
10
-0.270500
20
0.807000
30
0.0
11
-0.270500
21
0.083500
31
0.0
0
LINE
8
MCD_Layer_0
10
-0.249500
20
0.062500
30
0.0
11
-0.187500
21
0.062500
31
0.0
0
LINE
8
MCD_Layer_0
10
-0.187500
20
0.062500
30
0.0
11
-0.187500
21
0.000000
31
0.0
0
LINE
8
MCD_Layer_0
10
-0.187500
20
0.000000
30
0.0
11
-0.416500
21
0.000000
31
0.0
0
LINE
8
MCD_Layer_0
10
-0.456000
20
0.000000
30
0.0
11
-0.456000
21
0.062500
31
0.0
0
LINE
8
MCD_Layer_0
10
-0.456000
20
0.062500
30
0.0
11
-0.404000
21
0.062500
31
0.0
0
LINE
8
MCD_Layer_0
10
-0.383000
20
0.083500
30
0.0
11
-0.383000
21
0.917500
31
0.0
0
LINE
8
MCD_Layer_0
10
-0.404000
20
0.937500
30
0.0
11
-0.456000
21
0.937500
31
0.0
0
LINE
8
MCD_Layer_0
10
-0.456000
20
0.937500
30
0.0
11
-0.456000
21
1.000000
31
0.0
0
LINE
8
MCD_Layer_0
10
-0.456000
20
1.000000
30
0.0
11
-0.305000
21
1.000000
31
0.0
0
LINE
8
MCD_Layer_0
10
-0.305000
20
1.000000
30
0.0
11
-0.008000
21
0.203000
31
0.0
0
LINE
8
MCD_Layer_0
10
-0.008000
20
0.203000
30
0.0
11
0.276300
21
1.000000
31
0.0
0
LINE
8
MCD_Layer_0
10
0.276300
20
1.000000
30
0.0
11
0.456100
21
1.000000
31
0.0
0
LINE
8
MCD_Layer_0
10
0.456100
20
1.000000
30
0.0
11
0.456100
21
0.937500
31
0.0
0
LINE
8
MCD_Layer_0
10
0.456100
20
0.937500
30
0.0
11
0.388100
21
0.937500
31
0.0
0
LINE
8
MCD_Layer_0
10
0.367100
20
0.917500
30
0.0
11
0.367100
21
0.083500
31
0.0
0
LINE
8
MCD_Layer_0
10
0.388100
20
0.062500
30
0.0
11
0.456100
21
0.062500
31
0.0
0
LINE
8
MCD_Layer_0
10
0.456100
20
0.062500
30
0.0
11
0.456100
21
0.000000
31
0.0
0
LINE
8
MCD_Layer_0
10
0.456100
20
0.000000
30
0.0
11
0.169100
21
0.000000
31
0.0
0
LINE
8
MCD_Layer_0
10
0.169100
20
0.000000
30
0.0
11
0.169100
21
0.062500
31
0.0
0
LINE
8
MCD_Layer_0
10
0.169100
20
0.062500
30
0.0
11
0.232100
21
0.062500
31
0.0
0
LINE
8
MCD_Layer_0
10
0.252100
20
0.083500
30
0.0
11
0.252100
21
0.750000
31
0.0
0
LINE
8
MCD_Layer_0
10
0.252100
20
0.750000
30
0.0
11
-0.034000
21
-0.057000
31
0.0
0
LINE
8
MCD_Layer_0
10
-0.034000
20
-0.057000
30
0.0
11
-0.321000
21
0.734000
31
0.0
0
LINE
8
MCD_Layer_0
10
-0.321000
20
0.734000
30
0.0
11
-0.321000
21
0.083500
31
0.0
0
LINE
8
MCD_Layer_0
10
-0.300000
20
0.062500
30
0.0
11
-0.248000
21
0.062500
31
0.0
0
LINE
8
MCD_Layer_0
10
-0.248000
20
0.062500
30
0.0
11
-0.248000
21
0.000000
31
0.0
0
LINE
8
MCD_Layer_0
10
-0.248000
20
0.000000
30
0.0
11
-0.456000
21
0.000000
31
0.0
0
LINE
8
MCD_Layer_0
10
-0.336000
20
0.000000
30
0.0
11
-0.336000
21
0.062500
31
0.0
0
LINE
8
MCD_Layer_0
10
-0.336000
20
0.062500
30
0.0
11
-0.273000
21
0.062500
31
0.0
0
LINE
8
MCD_Layer_0
10
-0.253000
20
0.083500
30
0.0
11
-0.253000
21
0.917500
31
0.0
0
LINE
8
MCD_Layer_0
10
-0.273000
20
0.937500
30
0.0
11
-0.336000
21
0.937500
31
0.0
0
LINE
8
MCD_Layer_0
10
-0.336000
20
0.937500
30
0.0
11
-0.336000
21
1.000000
31
0.0
0
LINE
8
MCD_Layer_0
10
-0.336000
20
1.000000
30
0.0
11
0.237000
21
1.000000
31
0.0
0
LINE
8
MCD_Layer_0
10
0.237000
20
1.000000
30
0.0
11
0.237000
21
0.813000
31
0.0
0
LINE
8
MCD_Layer_0
10
0.237000
20
0.813000
30
0.0
11
0.179000
21
0.813000
31
0.0
0
LINE
8
MCD_Layer_0
10
0.179000
20
0.813000
30
0.0
11
0.179000
21
0.896000
31
0.0
0
LINE
8
MCD_Layer_0
10
0.138000
20
0.938000
30
0.0
11
-0.138000
21
0.938000
31
0.0
0
LINE
8
MCD_Layer_0
10
-0.138000
20
0.938000
30
0.0
11
-0.138000
21
0.563000
31
0.0
0
LINE
8
MCD_Layer_0
10
-0.138000
20
0.563000
30
0.0
11
0.064300
21
0.563000
31
0.0
0
LINE
8
MCD_Layer_0
10
0.085300
20
0.583000
30
0.0
11
0.085300
21
0.635000
31
0.0
0
LINE
8
MCD_Layer_0
10
0.085300
20
0.635000
30
0.0
11
0.148000
21
0.635000
31
0.0
0
LINE
8
MCD_Layer_0
10
0.148000
20
0.635000
30
0.0
11
0.148000
21
0.429700
31
0.0
0
LINE
8
MCD_Layer_0
10
0.148000
20
0.429700
30
0.0
11
0.085300
21
0.429700
31
0.0
0
LINE
8
MCD_Layer_0
10
0.085300
20
0.429700
30
0.0
11
0.085300
21
0.481700
31
0.0
0
LINE
8
MCD_Layer_0
10
0.064300
20
0.501700
30
0.0
11
-0.138000
21
0.501700
31
0.0
0
LINE
8
MCD_Layer_0
10
-0.138000
20
0.501700
30
0.0
11
-0.138000
21
0.109000
31
0.0
0
LINE
8
MCD_Layer_0
10
0.251700
20
0.160100
30
0.0
11
0.279200
21
0.241100
31
0.0
0
LINE
8
MCD_Layer_0
10
0.279200
20
0.241100
30
0.0
11
0.336000
21
0.214000
31
0.0
0
LINE
8
MCD_Layer_0
10
0.336000
20
0.214000
30
0.0
11
0.263000
21
0.000000
31
0.0
0
LINE
8
MCD_Layer_0
10
0.263000
20
0.000000
30
0.0
11
-0.336000
21
0.000000
31
0.0
0
LINE
8
MCD_Layer_0
10
-0.363000
20
0.000000
30
0.0
11
-0.363000
21
0.062500
31
0.0
0
LINE
8
MCD_Layer_0
10
-0.363000
20
0.062500
30
0.0
11
-0.300000
21
0.062500
31
0.0
0
LINE
8
MCD_Layer_0
10
-0.280000
20
0.083500
30
0.0
11
-0.280000
21
0.917500
31
0.0
0
LINE
8
MCD_Layer_0
10
-0.300000
20
0.937500
30
0.0
11
-0.363000
21
0.937500
31
0.0
0
LINE
8
MCD_Layer_0
10
-0.363000
20
0.937500
30
0.0
11
-0.363000
21
1.000000
31
0.0
0
LINE
8
MCD_Layer_0
10
-0.363000
20
1.000000
30
0.0
11
-0.019000
21
1.000000
31
0.0
0
LINE
8
MCD_Layer_0
10
0.347000
20
0.052000
30
0.0
11
0.363000
21
0.016000
31
0.0
0
LINE
8
MCD_Layer_0
10
-0.165000
20
0.479000
30
0.0
11
-0.165000
21
0.083500
31
0.0
0
LINE
8
MCD_Layer_0
10
-0.144000
20
0.062500
30
0.0
11
-0.082000
21
0.062500
31
0.0
0
LINE
8
MCD_Layer_0
10
-0.082000
20
0.062500
30
0.0
11
-0.082000
21
0.000000
31
0.0
0
LINE
8
MCD_Layer_0
10
-0.082000
20
0.000000
30
0.0
11
-0.363000
21
0.000000
31
0.0
0
LINE
8
MCD_Layer_0
10
-0.050000
20
0.938000
30
0.0
11
-0.165000
21
0.938000
31
0.0
0
LINE
8
MCD_Layer_0
10
-0.165000
20
0.938000
30
0.0
11
-0.165000
21
0.542000
31
0.0
0
LINE
8
MCD_Layer_0
10
-0.443000
20
0.937100
30
0.0
11
-0.443000
21
0.999600
31
0.0
0
LINE
8
MCD_Layer_0
10
-0.443000
20
0.999600
30
0.0
11
-0.125000
21
0.999600
31
0.0
0
LINE
8
MCD_Layer_0
10
-0.125000
20
0.999600
30
0.0
11
-0.125000
21
0.937100
31
0.0
0
LINE
8
MCD_Layer_0
10
-0.125000
20
0.937100
30
0.0
11
-0.203000
21
0.937100
31
0.0
0
LINE
8
MCD_Layer_0
10
-0.221000
20
0.905100
30
0.0
11
0.026000
21
0.510600
31
0.0
0
LINE
8
MCD_Layer_0
10
0.026000
20
0.510600
30
0.0
11
0.259000
21
0.906100
31
0.0
0
LINE
8
MCD_Layer_0
10
0.241000
20
0.937100
30
0.0
11
0.182000
21
0.937100
31
0.0
0
LINE
8
MCD_Layer_0
10
0.182000
20
0.937100
30
0.0
11
0.182000
21
0.999600
31
0.0
0
LINE
8
MCD_Layer_0
10
0.182000
20
0.999600
30
0.0
11
0.443000
21
0.999600
31
0.0
0
LINE
8
MCD_Layer_0
10
0.443000
20
0.999600
30
0.0
11
0.443000
21
0.937100
31
0.0
0
LINE
8
MCD_Layer_0
10
0.443000
20
0.937100
30
0.0
11
0.353000
21
0.937100
31
0.0
0
LINE
8
MCD_Layer_0
10
0.335000
20
0.926100
30
0.0
11
0.047000
21
0.432600
31
0.0
0
LINE
8
MCD_Layer_0
10
0.047000
20
0.432600
30
0.0
11
0.047000
21
0.083100
31
0.0
0
LINE
8
MCD_Layer_0
10
0.068000
20
0.062100
30
0.0
11
0.130000
21
0.062100
31
0.0
0
LINE
8
MCD_Layer_0
10
0.130000
20
0.062100
30
0.0
11
0.130000
21
0.000000
31
0.0
0
LINE
8
MCD_Layer_0
10
0.130000
20
0.000000
30
0.0
11
-0.151000
21
0.000000
31
0.0
0
LINE
8
MCD_Layer_0
10
-0.151000
20
0.000000
30
0.0
11
-0.151000
21
0.062100
31
0.0
0
LINE
8
MCD_Layer_0
10
-0.151000
20
0.062100
30
0.0
11
-0.088000
21
0.062100
31
0.0
0
LINE
8
MCD_Layer_0
10
-0.068000
20
0.083100
30
0.0
11
-0.068000
21
0.432600
31
0.0
0
LINE
8
MCD_Layer_0
10
-0.068000
20
0.432600
30
0.0
11
-0.374000
21
0.926100
31
0.0
0
LINE
8
MCD_Layer_0
10
-0.392000
20
0.937100
30
0.0
11
-0.443000
21
0.937100
31
0.0
0
LINE
8
MCD_Layer_0
10
-0.286500
20
0.000000
30
0.0
11
-0.286500
21
0.062500
31
0.0
0
LINE
8
MCD_Layer_0
10
-0.286500
20
0.062500
30
0.0
11
-0.223500
21
0.062500
31
0.0
0
LINE
8
MCD_Layer_0
10
-0.203500
20
0.083500
30
0.0
11
-0.203500
21
0.917500
31
0.0
0
LINE
8
MCD_Layer_0
10
-0.223500
20
0.937500
30
0.0
11
-0.286500
21
0.937500
31
0.0
0
LINE
8
MCD_Layer_0
10
-0.286500
20
0.937500
30
0.0
11
-0.286500
21
1.000000
31
0.0
0
LINE
8
MCD_Layer_0
10
-0.286500
20
1.000000
30
0.0
11
0.286500
21
1.000000
31
0.0
0
LINE
8
MCD_Layer_0
10
0.286500
20
1.000000
30
0.0
11
0.286500
21
0.813000
31
0.0
0
LINE
8
MCD_Layer_0
10
0.286500
20
0.813000
30
0.0
11
0.223300
21
0.813000
31
0.0
0
LINE
8
MCD_Layer_0
10
0.223300
20
0.813000
30
0.0
11
0.223300
21
0.896000
31
0.0
0
LINE
8
MCD_Layer_0
10
0.182300
20
0.938000
30
0.0
11
-0.088500
21
0.938000
31
0.0
0
LINE
8
MCD_Layer_0
10
-0.088500
20
0.938000
30
0.0
11
-0.088500
21
0.563000
31
0.0
0
LINE
8
MCD_Layer_0
10
-0.088500
20
0.563000
30
0.0
11
0.113800
21
0.563000
31
0.0
0
LINE
8
MCD_Layer_0
10
0.134800
20
0.583000
30
0.0
11
0.134800
21
0.635000
31
0.0
0
LINE
8
MCD_Layer_0
10
0.134800
20
0.635000
30
0.0
11
0.197500
21
0.635000
31
0.0
0
LINE
8
MCD_Layer_0
10
0.197500
20
0.635000
30
0.0
11
0.197500
21
0.429700
31
0.0
0
LINE
8
MCD_Layer_0
10
0.197500
20
0.429700
30
0.0
11
0.134800
21
0.429700
31
0.0
0
LINE
8
MCD_Layer_0
10
0.134800
20
0.429700
30
0.0
11
0.134800
21
0.481700
31
0.0
0
LINE
8
MCD_Layer_0
10
0.113800
20
0.501700
30
0.0
11
-0.088500
21
0.501700
31
0.0
0
LINE
8
MCD_Layer_0
10
-0.088500
20
0.501700
30
0.0
11
-0.088500
21
0.083500
31
0.0
0
LINE
8
MCD_Layer_0
10
-0.068600
20
0.062500
30
0.0
11
-0.005600
21
0.062500
31
0.0
0
LINE
8
MCD_Layer_0
10
-0.005600
20
0.062500
30
0.0
11
-0.005600
21
0.000000
31
0.0
0
LINE
8
MCD_Layer_0
10
-0.005600
20
0.000000
30
0.0
11
-0.286500
21
0.000000
31
0.0
0
LINE
8
MCD_Layer_0
10
-0.414000
20
0.938600
30
0.0
11
-0.414000
21
1.001100
31
0.0
0
LINE
8
MCD_Layer_0
10
-0.414000
20
1.001100
30
0.0
11
-0.132000
21
1.001100
31
0.0
0
LINE
8
MCD_Layer_0
10
-0.132000
20
1.001100
30
0.0
11
-0.132000
21
0.938600
31
0.0
0
LINE
8
MCD_Layer_0
10
-0.132000
20
0.938600
30
0.0
11
-0.195000
21
0.938600
31
0.0
0
LINE
8
MCD_Layer_0
10
-0.216000
20
0.918600
30
0.0
11
-0.216000
21
0.293100
31
0.0
0
LINE
8
MCD_Layer_0
10
0.269000
20
0.261100
30
0.0
11
0.269000
21
0.918600
31
0.0
0
LINE
8
MCD_Layer_0
10
0.248000
20
0.938600
30
0.0
11
0.185000
21
0.938600
31
0.0
0
LINE
8
MCD_Layer_0
10
0.185000
20
0.938600
30
0.0
11
0.185000
21
1.001100
31
0.0
0
LINE
8
MCD_Layer_0
10
0.185000
20
1.001100
30
0.0
11
0.414000
21
1.001100
31
0.0
0
LINE
8
MCD_Layer_0
10
0.414000
20
1.001100
30
0.0
11
0.414000
21
0.938600
31
0.0
0
LINE
8
MCD_Layer_0
10
0.414000
20
0.938600
30
0.0
11
0.352000
21
0.938600
31
0.0
0
LINE
8
MCD_Layer_0
10
0.331000
20
0.918600
30
0.0
11
0.331200
21
0.248500
31
0.0
0
LINE
8
MCD_Layer_0
10
-0.330000
20
0.272100
30
0.0
11
-0.330000
21
0.918600
31
0.0
0
LINE
8
MCD_Layer_0
10
-0.351000
20
0.938600
30
0.0
11
-0.414000
21
0.938600
31
0.0
0
LINE
8
MCD_Layer_0
10
-0.288400
20
0.000000
30
0.0
11
-0.288400
21
0.291000
31
0.0
0
LINE
8
MCD_Layer_0
10
-0.288400
20
0.291000
30
0.0
11
-0.224200
21
0.291000
31
0.0
0
LINE
8
MCD_Layer_0
10
-0.224200
20
0.291000
30
0.0
11
-0.224200
21
0.259800
31
0.0
0
LINE
8
MCD_Layer_0
10
0.112700
20
0.390000
30
0.0
11
-0.194400
21
0.660000
31
0.0
0
LINE
8
MCD_Layer_0
10
0.188700
20
1.044000
30
0.0
11
0.188700
21
1.059000
31
0.0
0
LINE
8
MCD_Layer_0
10
0.188700
20
1.059000
30
0.0
11
0.244700
21
1.059000
31
0.0
0
LINE
8
MCD_Layer_0
10
0.244700
20
1.059000
30
0.0
11
0.244700
21
0.809000
31
0.0
0
LINE
8
MCD_Layer_0
10
0.244700
20
0.809000
30
0.0
11
0.188700
21
0.809000
31
0.0
0
LINE
8
MCD_Layer_0
10
0.188700
20
0.809000
30
0.0
11
0.188700
21
0.830000
31
0.0
0
LINE
8
MCD_Layer_0
10
-0.078400
20
0.697000
30
0.0
11
0.154700
21
0.520000
31
0.0
0
LINE
8
MCD_Layer_0
10
-0.224200
20
0.000000
30
0.0
11
-0.288400
21
0.000000
31
0.0
0
LINE
8
MCD_Layer_0
10
-0.331500
20
0.000000
30
0.0
11
-0.331500
21
0.062500
31
0.0
0
LINE
8
MCD_Layer_0
10
-0.331500
20
0.062500
30
0.0
11
-0.268500
21
0.062500
31
0.0
0
LINE
8
MCD_Layer_0
10
-0.248500
20
0.083500
30
0.0
11
-0.248500
21
0.917500
31
0.0
0
LINE
8
MCD_Layer_0
10
-0.268500
20
0.937500
30
0.0
11
-0.331500
21
0.937500
31
0.0
0
LINE
8
MCD_Layer_0
10
-0.331500
20
0.937500
30
0.0
11
-0.331500
21
1.000000
31
0.0
0
LINE
8
MCD_Layer_0
10
-0.331500
20
1.000000
30
0.0
11
-0.050500
21
1.000000
31
0.0
0
LINE
8
MCD_Layer_0
10
-0.050500
20
1.000000
30
0.0
11
-0.050500
21
0.937500
31
0.0
0
LINE
8
MCD_Layer_0
10
-0.050500
20
0.937500
30
0.0
11
-0.112500
21
0.937500
31
0.0
0
LINE
8
MCD_Layer_0
10
-0.133500
20
0.917500
30
0.0
11
-0.133500
21
0.109000
31
0.0
0
LINE
8
MCD_Layer_0
10
0.260700
20
0.172900
30
0.0
11
0.273200
21
0.209500
31
0.0
0
LINE
8
MCD_Layer_0
10
0.273200
20
0.209500
30
0.0
11
0.331500
21
0.187000
31
0.0
0
LINE
8
MCD_Layer_0
10
0.331500
20
0.187000
30
0.0
11
0.267500
21
0.000000
31
0.0
0
LINE
8
MCD_Layer_0
10
0.267500
20
0.000000
30
0.0
11
-0.331500
21
0.000000
31
0.0
0
LINE
8
MCD_Layer_0
10
-0.141000
20
0.000000
30
0.0
11
-0.141000
21
0.062500
31
0.0
0
LINE
8
MCD_Layer_0
10
-0.141000
20
0.062500
30
0.0
11
-0.078000
21
0.062500
31
0.0
0
LINE
8
MCD_Layer_0
10
-0.057000
20
0.083500
30
0.0
11
-0.057000
21
0.917000
31
0.0
0
LINE
8
MCD_Layer_0
10
-0.078000
20
0.938000
30
0.0
11
-0.266500
21
0.938000
31
0.0
0
LINE
8
MCD_Layer_0
10
-0.286500
20
0.917000
30
0.0
11
-0.286500
21
0.818000
31
0.0
0
LINE
8
MCD_Layer_0
10
-0.286500
20
0.818000
30
0.0
11
-0.349000
21
0.818000
31
0.0
0
LINE
8
MCD_Layer_0
10
-0.349000
20
0.818000
30
0.0
11
-0.349000
21
1.000000
31
0.0
0
LINE
8
MCD_Layer_0
10
-0.349000
20
1.000000
30
0.0
11
0.349000
21
1.000000
31
0.0
0
LINE
8
MCD_Layer_0
10
0.349000
20
1.000000
30
0.0
11
0.349000
21
0.818000
31
0.0
0
LINE
8
MCD_Layer_0
10
0.349000
20
0.818000
30
0.0
11
0.286500
21
0.818000
31
0.0
0
LINE
8
MCD_Layer_0
10
0.286500
20
0.818000
30
0.0
11
0.286500
21
0.917000
31
0.0
0
LINE
8
MCD_Layer_0
10
0.265500
20
0.938000
30
0.0
11
0.078000
21
0.938000
31
0.0
0
LINE
8
MCD_Layer_0
10
0.057000
20
0.917000
30
0.0
11
0.057000
21
0.083500
31
0.0
0
LINE
8
MCD_Layer_0
10
0.078000
20
0.062500
30
0.0
11
0.141000
21
0.062500
31
0.0
0
LINE
8
MCD_Layer_0
10
0.141000
20
0.062500
30
0.0
11
0.141000
21
0.000000
31
0.0
0
LINE
8
MCD_Layer_0
10
0.141000
20
0.000000
30
0.0
11
-0.141000
21
0.000000
31
0.0
0
LINE
8
MCD_Layer_0
10
-0.316200
20
0.000000
30
0.0
11
-0.316200
21
0.062500
31
0.0
0
LINE
8
MCD_Layer_0
10
-0.316200
20
0.062500
30
0.0
11
-0.253200
21
0.062500
31
0.0
0
LINE
8
MCD_Layer_0
10
-0.233200
20
0.083500
30
0.0
11
-0.233200
21
0.917500
31
0.0
0
LINE
8
MCD_Layer_0
10
-0.253200
20
0.937500
30
0.0
11
-0.326200
21
0.937500
31
0.0
0
LINE
8
MCD_Layer_0
10
-0.326200
20
0.937500
30
0.0
11
-0.326200
21
1.000000
31
0.0
0
LINE
8
MCD_Layer_0
10
-0.326200
20
1.000000
30
0.0
11
0.042800
21
1.000000
31
0.0
0
LINE
8
MCD_Layer_0
10
0.037800
20
0.000000
30
0.0
11
-0.316200
21
0.000000
31
0.0
0
LINE
8
MCD_Layer_0
10
0.017800
20
0.500000
30
0.0
11
-0.118200
21
0.500000
31
0.0
0
LINE
8
MCD_Layer_0
10
-0.118200
20
0.500000
30
0.0
11
-0.118200
21
0.109000
31
0.0
0
LINE
8
MCD_Layer_0
10
-0.118200
20
0.563000
30
0.0
11
0.004800
21
0.563000
31
0.0
0
LINE
8
MCD_Layer_0
10
-0.004200
20
0.938000
30
0.0
11
-0.118200
21
0.938000
31
0.0
0
LINE
8
MCD_Layer_0
10
-0.118200
20
0.938000
30
0.0
11
-0.118200
21
0.563000
31
0.0
0
LINE
8
MCD_Layer_0
10
-0.409000
20
0.000000
30
0.0
11
-0.409000
21
0.062500
31
0.0
0
LINE
8
MCD_Layer_0
10
-0.409000
20
0.062500
30
0.0
11
-0.346000
21
0.062500
31
0.0
0
LINE
8
MCD_Layer_0
10
-0.326000
20
0.083500
30
0.0
11
-0.326000
21
0.917500
31
0.0
0
LINE
8
MCD_Layer_0
10
-0.346000
20
0.937500
30
0.0
11
-0.409000
21
0.937500
31
0.0
0
LINE
8
MCD_Layer_0
10
-0.409000
20
0.937500
30
0.0
11
-0.409000
21
1.000000
31
0.0
0
LINE
8
MCD_Layer_0
10
-0.409000
20
1.000000
30
0.0
11
-0.128000
21
1.000000
31
0.0
0
LINE
8
MCD_Layer_0
10
-0.128000
20
1.000000
30
0.0
11
-0.128000
21
0.937500
31
0.0
0
LINE
8
MCD_Layer_0
10
-0.128000
20
0.937500
30
0.0
11
-0.190000
21
0.937500
31
0.0
0
LINE
8
MCD_Layer_0
10
-0.211000
20
0.917500
30
0.0
11
-0.211000
21
0.563000
31
0.0
0
LINE
8
MCD_Layer_0
10
-0.211000
20
0.563000
30
0.0
11
0.211000
21
0.563000
31
0.0
0
LINE
8
MCD_Layer_0
10
0.211000
20
0.563000
30
0.0
11
0.211000
21
0.917500
31
0.0
0
LINE
8
MCD_Layer_0
10
0.190000
20
0.937500
30
0.0
11
0.128000
21
0.937500
31
0.0
0
LINE
8
MCD_Layer_0
10
0.128000
20
0.937500
30
0.0
11
0.128000
21
1.000000
31
0.0
0
LINE
8
MCD_Layer_0
10
0.128000
20
1.000000
30
0.0
11
0.409000
21
1.000000
31
0.0
0
LINE
8
MCD_Layer_0
10
0.409000
20
1.000000
30
0.0
11
0.409000
21
0.937500
31
0.0
0
LINE
8
MCD_Layer_0
10
0.409000
20
0.937500
30
0.0
11
0.346000
21
0.937500
31
0.0
0
LINE
8
MCD_Layer_0
10
0.325000
20
0.917500
30
0.0
11
0.325000
21
0.083500
31
0.0
0
LINE
8
MCD_Layer_0
10
0.346000
20
0.062500
30
0.0
11
0.409000
21
0.062500
31
0.0
0
LINE
8
MCD_Layer_0
10
0.409000
20
0.062500
30
0.0
11
0.409000
21
0.000000
31
0.0
0
LINE
8
MCD_Layer_0
10
0.409000
20
0.000000
30
0.0
11
0.128000
21
0.000000
31
0.0
0
LINE
8
MCD_Layer_0
10
0.128000
20
0.000000
30
0.0
11
0.128000
21
0.062500
31
0.0
0
LINE
8
MCD_Layer_0
10
0.128000
20
0.062500
30
0.0
11
0.190000
21
0.062500
31
0.0
0
LINE
8
MCD_Layer_0
10
0.211000
20
0.083500
30
0.0
11
0.211000
21
0.500000
31
0.0
0
LINE
8
MCD_Layer_0
10
0.211000
20
0.500000
30
0.0
11
-0.211000
21
0.500000
31
0.0
0
LINE
8
MCD_Layer_0
10
-0.211000
20
0.500000
30
0.0
11
-0.211000
21
0.083500
31
0.0
0
LINE
8
MCD_Layer_0
10
-0.190000
20
0.062500
30
0.0
11
-0.128000
21
0.062500
31
0.0
0
LINE
8
MCD_Layer_0
10
-0.128000
20
0.062500
30
0.0
11
-0.128000
21
0.000000
31
0.0
0
LINE
8
MCD_Layer_0
10
-0.128000
20
0.000000
30
0.0
11
-0.409000
21
0.000000
31
0.0
0
LINE
8
MCD_Layer_0
10
-0.437500
20
0.000000
30
0.0
11
-0.437500
21
0.062500
31
0.0
0
LINE
8
MCD_Layer_0
10
-0.437500
20
0.062500
30
0.0
11
-0.398500
21
0.062500
31
0.0
0
LINE
8
MCD_Layer_0
10
-0.358500
20
0.090500
30
0.0
11
-0.015500
21
1.052000
31
0.0
0
LINE
8
MCD_Layer_0
10
-0.015500
20
1.052000
30
0.0
11
0.328500
21
0.090500
31
0.0
0
LINE
8
MCD_Layer_0
10
0.368500
20
0.062500
30
0.0
11
0.437500
21
0.062500
31
0.0
0
LINE
8
MCD_Layer_0
10
0.437500
20
0.062500
30
0.0
11
0.437500
21
0.000000
31
0.0
0
LINE
8
MCD_Layer_0
10
0.437500
20
0.000000
30
0.0
11
0.130500
21
0.000000
31
0.0
0
LINE
8
MCD_Layer_0
10
0.130500
20
0.000000
30
0.0
11
0.130500
21
0.062500
31
0.0
0
LINE
8
MCD_Layer_0
10
0.130500
20
0.062500
30
0.0
11
0.185500
21
0.062500
31
0.0
0
LINE
8
MCD_Layer_0
10
0.204500
20
0.089500
30
0.0
11
0.097500
21
0.375000
31
0.0
0
LINE
8
MCD_Layer_0
10
0.097500
20
0.375000
30
0.0
11
-0.191500
21
0.375000
31
0.0
0
LINE
8
MCD_Layer_0
10
-0.191500
20
0.375000
30
0.0
11
-0.298500
21
0.089500
31
0.0
0
LINE
8
MCD_Layer_0
10
-0.278500
20
0.062500
30
0.0
11
-0.223500
21
0.062500
31
0.0
0
LINE
8
MCD_Layer_0
10
-0.223500
20
0.062500
30
0.0
11
-0.223500
21
0.000000
31
0.0
0
LINE
8
MCD_Layer_0
10
-0.223500
20
0.000000
30
0.0
11
-0.437500
21
0.000000
31
0.0
0
LINE
8
MCD_Layer_0
10
-0.169500
20
0.438000
30
0.0
11
0.075500
21
0.438000
31
0.0
0
LINE
8
MCD_Layer_0
10
0.075500
20
0.438000
30
0.0
11
-0.047500
21
0.788000
31
0.0
0
LINE
8
MCD_Layer_0
10
-0.047500
20
0.788000
30
0.0
11
-0.169500
21
0.438000
31
0.0
0
LINE
8
MCD_Layer_0
10
-0.388000
20
0.000000
30
0.0
11
-0.388000
21
0.062500
31
0.0
0
LINE
8
MCD_Layer_0
10
-0.388000
20
0.062500
30
0.0
11
-0.341000
21
0.062500
31
0.0
0
LINE
8
MCD_Layer_0
10
-0.320000
20
0.083500
30
0.0
11
-0.320000
21
0.917500
31
0.0
0
LINE
8
MCD_Layer_0
10
-0.341000
20
0.937500
30
0.0
11
-0.388000
21
0.937500
31
0.0
0
LINE
8
MCD_Layer_0
10
-0.388000
20
0.937500
30
0.0
11
-0.388000
21
1.000000
31
0.0
0
LINE
8
MCD_Layer_0
10
-0.388000
20
1.000000
30
0.0
11
-0.133000
21
1.000000
31
0.0
0
LINE
8
MCD_Layer_0
10
-0.133000
20
1.000000
30
0.0
11
-0.133000
21
0.937500
31
0.0
0
LINE
8
MCD_Layer_0
10
-0.133000
20
0.937500
30
0.0
11
-0.185000
21
0.937500
31
0.0
0
LINE
8
MCD_Layer_0
10
-0.206000
20
0.917500
30
0.0
11
-0.206000
21
0.464000
31
0.0
0
LINE
8
MCD_Layer_0
10
-0.206000
20
0.464000
30
0.0
11
0.110000
21
0.905500
31
0.0
0
LINE
8
MCD_Layer_0
10
0.093000
20
0.937500
30
0.0
11
0.018000
21
0.937500
31
0.0
0
LINE
8
MCD_Layer_0
10
0.018000
20
0.937500
30
0.0
11
0.018000
21
1.000000
31
0.0
0
LINE
8
MCD_Layer_0
10
0.018000
20
1.000000
30
0.0
11
0.326000
21
1.000000
31
0.0
0
LINE
8
MCD_Layer_0
10
0.326000
20
1.000000
30
0.0
11
0.326000
21
0.937500
31
0.0
0
LINE
8
MCD_Layer_0
10
0.326000
20
0.937500
30
0.0
11
0.226500
21
0.937500
31
0.0
0
LINE
8
MCD_Layer_0
10
0.208400
20
0.927900
30
0.0
11
-0.011500
21
0.620700
31
0.0
0
LINE
8
MCD_Layer_0
10
-0.011500
20
0.620700
30
0.0
11
0.289000
21
0.073500
31
0.0
0
LINE
8
MCD_Layer_0
10
0.308000
20
0.062500
30
0.0
11
0.388000
21
0.062500
31
0.0
0
LINE
8
MCD_Layer_0
10
0.388000
20
0.062500
30
0.0
11
0.388000
21
0.000000
31
0.0
0
LINE
8
MCD_Layer_0
10
0.388000
20
0.000000
30
0.0
11
0.065000
21
0.000000
31
0.0
0
LINE
8
MCD_Layer_0
10
0.065000
20
0.000000
30
0.0
11
0.065000
21
0.062500
31
0.0
0
LINE
8
MCD_Layer_0
10
0.065000
20
0.062500
30
0.0
11
0.128000
21
0.062500
31
0.0
0
LINE
8
MCD_Layer_0
10
0.147000
20
0.092500
30
0.0
11
-0.087800
21
0.514100
31
0.0
0
LINE
8
MCD_Layer_0
10
-0.087800
20
0.514100
30
0.0
11
-0.206000
21
0.349000
31
0.0
0
LINE
8
MCD_Layer_0
10
-0.206000
20
0.349000
30
0.0
11
-0.206000
21
0.083500
31
0.0
0
LINE
8
MCD_Layer_0
10
-0.185000
20
0.062500
30
0.0
11
-0.133000
21
0.062500
31
0.0
0
LINE
8
MCD_Layer_0
10
-0.133000
20
0.062500
30
0.0
11
-0.133000
21
0.000000
31
0.0
0
LINE
8
MCD_Layer_0
10
-0.133000
20
0.000000
30
0.0
11
-0.388000
21
0.000000
31
0.0
0
LINE
8
MCD_Layer_0
10
0.750000
20
0.850000
30
0.0
11
0.575000
21
1.000000
31
0.0
0
LINE
8
MCD_Layer_0
10
0.575000
20
1.000000
30
0.0
11
0.150000
21
1.000000
31
0.0
0
LINE
8
MCD_Layer_0
10
0.150000
20
1.000000
30
0.0
11
0.000000
21
0.825000
31
0.0
0
LINE
8
MCD_Layer_0
10
0.000000
20
0.825000
30
0.0
11
0.000000
21
0.150000
31
0.0
0
LINE
8
MCD_Layer_0
10
0.000000
20
0.150000
30
0.0
11
0.150000
21
0.000000
31
0.0
0
LINE
8
MCD_Layer_0
10
0.150000
20
0.000000
30
0.0
11
0.575000
21
0.000000
31
0.0
0
LINE
8
MCD_Layer_0
10
0.575000
20
0.000000
30
0.0
11
0.750000
21
0.150000
31
0.0
0
LINE
8
MCD_Layer_0
10
0.750000
20
0.150000
30
0.0
11
0.750000
21
0.850000
31
0.0
0
LINE
8
MCD_Layer_0
10
0.050000
20
0.000000
30
0.0
11
0.050000
21
0.500000
31
0.0
0
LINE
8
MCD_Layer_0
10
0.050000
20
0.400000
30
0.0
11
0.175000
21
0.500000
31
0.0
0
LINE
8
MCD_Layer_0
10
0.175000
20
0.500000
30
0.0
11
0.600000
21
0.500000
31
0.0
0
LINE
8
MCD_Layer_0
10
0.600000
20
0.500000
30
0.0
11
0.700000
21
0.400000
31
0.0
0
LINE
8
MCD_Layer_0
10
0.700000
20
1.000000
30
0.0
11
0.700000
21
0.000000
31
0.0
0
LINE
8
MCD_Layer_0
10
0.700000
20
0.100000
30
0.0
11
0.600000
21
0.000000
31
0.0
0
LINE
8
MCD_Layer_0
10
0.600000
20
0.000000
30
0.0
11
0.125000
21
0.000000
31
0.0
0
LINE
8
MCD_Layer_0
10
0.125000
20
0.000000
30
0.0
11
0.050000
21
0.075000
31
0.0
0
LINE
8
MCD_Layer_0
10
0.050000
20
0.075000
30
0.0
11
0.050000
21
0.400000
31
0.0
0
LINE
8
MCD_Layer_0
10
0.050000
20
0.400000
30
0.0
11
0.050000
21
0.425000
31
0.0
0
LINE
8
MCD_Layer_0
10
0.050000
20
0.425000
30
0.0
11
0.150000
21
0.500000
31
0.0
0
LINE
8
MCD_Layer_0
10
0.150000
20
0.500000
30
0.0
11
0.600000
21
0.500000
31
0.0
0
LINE
8
MCD_Layer_0
10
0.600000
20
0.500000
30
0.0
11
0.700000
21
0.425000
31
0.0
0
LINE
8
MCD_Layer_0
10
0.700000
20
0.350000
30
0.0
11
0.700000
21
0.425000
31
0.0
0
LINE
8
MCD_Layer_0
10
0.700000
20
0.425000
30
0.0
11
0.600000
21
0.500000
31
0.0
0
LINE
8
MCD_Layer_0
10
0.600000
20
0.500000
30
0.0
11
0.150000
21
0.500000
31
0.0
0
LINE
8
MCD_Layer_0
10
0.150000
20
0.500000
30
0.0
11
0.050000
21
0.400000
31
0.0
0
LINE
8
MCD_Layer_0
10
0.050000
20
0.400000
30
0.0
11
0.050000
21
0.100000
31
0.0
0
LINE
8
MCD_Layer_0
10
0.050000
20
0.100000
30
0.0
11
0.150000
21
0.000000
31
0.0
0
LINE
8
MCD_Layer_0
10
0.150000
20
0.000000
30
0.0
11
0.600000
21
0.000000
31
0.0
0
LINE
8
MCD_Layer_0
10
0.600000
20
0.000000
30
0.0
11
0.700000
21
0.100000
31
0.0
0
LINE
8
MCD_Layer_0
10
0.700000
20
0.350000
30
0.0
11
0.600000
21
0.275000
31
0.0
0
LINE
8
MCD_Layer_0
10
0.600000
20
0.275000
30
0.0
11
0.050000
21
0.275000
31
0.0
0
LINE
8
MCD_Layer_0
10
0.325000
20
0.800000
30
0.0
11
0.100000
21
0.250000
31
0.0
0
LINE
8
MCD_Layer_0
10
0.600000
20
0.800000
30
0.0
11
0.425000
21
0.250000
31
0.0
0
LINE
8
MCD_Layer_0
10
0.175000
20
0.700000
30
0.0
11
0.700000
21
0.700000
31
0.0
0
LINE
8
MCD_Layer_0
10
0.000000
20
0.350000
30
0.0
11
0.600000
21
0.350000
31
0.0
0
LINE
8
MCD_Layer_0
10
0.000000
20
1.000000
30
0.0
11
0.750000
21
0.000000
31
0.0
0
LINE
8
MCD_Layer_0
10
0.750000
20
0.000000
30
0.0
11
0.750000
21
1.000000
31
0.0
0
LINE
8
MCD_Layer_0
10
0.600000
20
0.500000
30
0.0
11
0.700000
21
0.375000
31
0.0
0
LINE
8
MCD_Layer_0
10
0.700000
20
0.375000
30
0.0
11
0.700000
21
0.000000
31
0.0
0
LINE
8
MCD_Layer_0
10
0.700000
20
0.275000
30
0.0
11
0.600000
21
0.375000
31
0.0
0
LINE
8
MCD_Layer_0
10
0.600000
20
0.375000
30
0.0
11
0.175000
21
0.375000
31
0.0
0
LINE
8
MCD_Layer_0
10
0.175000
20
0.375000
30
0.0
11
0.050000
21
0.275000
31
0.0
0
LINE
8
MCD_Layer_0
10
0.050000
20
0.275000
30
0.0
11
0.050000
21
0.075000
31
0.0
0
LINE
8
MCD_Layer_0
10
0.050000
20
0.075000
30
0.0
11
0.150000
21
0.000000
31
0.0
0
LINE
8
MCD_Layer_0
10
0.600000
20
0.000000
30
0.0
11
0.700000
21
0.075000
31
0.0
0
LINE
8
MCD_Layer_0
10
0.050000
20
0.425000
30
0.0
11
0.175000
21
0.500000
31
0.0
0
LINE
8
MCD_Layer_0
10
0.050000
20
0.500000
30
0.0
11
0.050000
21
0.000000
31
0.0
0
LINE
8
MCD_Layer_0
10
0.050000
20
0.425000
30
0.0
11
0.125000
21
0.500000
31
0.0
0
LINE
8
MCD_Layer_0
10
0.125000
20
0.500000
30
0.0
11
0.325000
21
0.500000
31
0.0
0
LINE
8
MCD_Layer_0
10
0.325000
20
0.500000
30
0.0
11
0.375000
21
0.425000
31
0.0
0
LINE
8
MCD_Layer_0
10
0.375000
20
0.425000
30
0.0
11
0.425000
21
0.500000
31
0.0
0
LINE
8
MCD_Layer_0
10
0.425000
20
0.500000
30
0.0
11
0.625000
21
0.500000
31
0.0
0
LINE
8
MCD_Layer_0
10
0.625000
20
0.500000
30
0.0
11
0.700000
21
0.425000
31
0.0
0
LINE
8
MCD_Layer_0
10
0.700000
20
0.425000
30
0.0
11
0.700000
21
0.000000
31
0.0
0
LINE
8
MCD_Layer_0
10
0.375000
20
0.425000
30
0.0
11
0.375000
21
0.000000
31
0.0
0
LINE
8
MCD_Layer_0
10
0.000000
20
0.825000
30
0.0
11
0.000000
21
0.600000
31
0.0
0
LINE
8
MCD_Layer_0
10
0.000000
20
0.600000
30
0.0
11
0.150000
21
0.500000
31
0.0
0
LINE
8
MCD_Layer_0
10
0.150000
20
0.500000
30
0.0
11
0.575000
21
0.500000
31
0.0
0
LINE
8
MCD_Layer_0
10
0.575000
20
0.500000
30
0.0
11
0.750000
21
0.375000
31
0.0
0
LINE
8
MCD_Layer_0
10
0.750000
20
0.375000
30
0.0
11
0.750000
21
0.150000
31
0.0
0
LINE
8
MCD_Layer_0
10
0.750000
20
0.150000
30
0.0
11
0.575000
21
0.000000
31
0.0
0
LINE
8
MCD_Layer_0
10
0.575000
20
0.000000
30
0.0
11
0.150000
21
0.000000
31
0.0
0
LINE
8
MCD_Layer_0
10
0.150000
20
0.000000
30
0.0
11
0.000000
21
0.150000
31
0.0
0
LINE
8
MCD_Layer_0
10
0.175000
20
0.950000
30
0.0
11
0.175000
21
0.075000
31
0.0
0
LINE
8
MCD_Layer_0
10
0.175000
20
0.075000
30
0.0
11
0.300000
21
0.000000
31
0.0
0
LINE
8
MCD_Layer_0
10
0.300000
20
0.000000
30
0.0
11
0.600000
21
0.000000
31
0.0
0
LINE
8
MCD_Layer_0
10
0.050000
20
0.500000
30
0.0
11
0.425000
21
0.500000
31
0.0
0
LINE
8
MCD_Layer_0
10
0.750000
20
0.875000
30
0.0
11
0.575000
21
1.000000
31
0.0
0
LINE
8
MCD_Layer_0
10
0.575000
20
1.000000
30
0.0
11
0.175000
21
1.000000
31
0.0
0
LINE
8
MCD_Layer_0
10
0.175000
20
1.000000
30
0.0
11
0.000000
21
0.850000
31
0.0
0
LINE
8
MCD_Layer_0
10
0.000000
20
0.850000
30
0.0
11
0.000000
21
0.125000
31
0.0
0
LINE
8
MCD_Layer_0
10
0.000000
20
0.125000
30
0.0
11
0.150000
21
0.000000
31
0.0
0
LINE
8
MCD_Layer_0
10
0.575000
20
0.000000
30
0.0
11
0.750000
21
0.125000
31
0.0
0
LINE
8
MCD_Layer_0
10
0.050000
20
0.100000
30
0.0
11
0.200000
21
0.000000
31
0.0
0
LINE
8
MCD_Layer_0
10
0.200000
20
0.000000
30
0.0
11
0.700000
21
0.000000
31
0.0
0
LINE
8
MCD_Layer_0
10
0.050000
20
0.500000
30
0.0
11
0.050000
21
0.100000
31
0.0
0
LINE
8
MCD_Layer_0
10
0.700000
20
0.500000
30
0.0
11
0.700000
21
0.000000
31
0.0
0
LINE
8
MCD_Layer_0
10
0.700000
20
0.000000
30
0.0
11
0.700000
21
-0.150000
31
0.0
0
LINE
8
MCD_Layer_0
10
0.700000
20
-0.150000
30
0.0
11
0.700000
21
-0.250000
31
0.0
0
LINE
8
MCD_Layer_0
10
0.700000
20
-0.250000
30
0.0
11
0.550000
21
-0.350000
31
0.0
0
LINE
8
MCD_Layer_0
10
0.550000
20
-0.350000
30
0.0
11
0.125000
21
-0.350000
31
0.0
0
LINE
8
MCD_Layer_0
10
0.125000
20
-0.350000
30
0.0
11
0.025000
21
-0.275000
31
0.0
0
LINE
8
MCD_Layer_0
10
0.375000
20
0.000000
30
0.0
11
0.375000
21
1.000000
31
0.0
0
LINE
8
MCD_Layer_0
10
0.250000
20
1.000000
30
0.0
11
0.500000
21
1.000000
31
0.0
0
LINE
8
MCD_Layer_0
10
0.250000
20
0.000000
30
0.0
11
0.500000
21
0.000000
31
0.0
0
LINE
8
MCD_Layer_0
10
0.050000
20
0.000000
30
0.0
11
0.050000
21
1.000000
31
0.0
0
LINE
8
MCD_Layer_0
10
0.050000
20
0.400000
30
0.0
11
0.200000
21
0.500000
31
0.0
0
LINE
8
MCD_Layer_0
10
0.200000
20
0.500000
30
0.0
11
0.600000
21
0.500000
31
0.0
0
LINE
8
MCD_Layer_0
10
0.700000
20
0.400000
30
0.0
11
0.700000
21
0.000000
31
0.0
0
LINE
8
MCD_Layer_0
10
0.050000
20
0.500000
30
0.0
11
0.050000
21
0.400000
31
0.0
0
LINE
8
MCD_Layer_0
10
0.050000
20
0.400000
30
0.0
11
0.375000
21
0.000000
31
0.0
0
LINE
8
MCD_Layer_0
10
0.375000
20
0.000000
30
0.0
11
0.700000
21
0.400000
31
0.0
0
LINE
8
MCD_Layer_0
10
0.700000
20
0.400000
30
0.0
11
0.700000
21
0.500000
31
0.0
0
LINE
8
MCD_Layer_0
10
0.700000
20
0.900000
30
0.0
11
0.600000
21
1.000000
31
0.0
0
LINE
8
MCD_Layer_0
10
0.600000
20
1.000000
30
0.0
11
0.250000
21
1.000000
31
0.0
0
LINE
8
MCD_Layer_0
10
0.250000
20
1.000000
30
0.0
11
0.125000
21
0.925000
31
0.0
0
LINE
8
MCD_Layer_0
10
0.125000
20
0.925000
30
0.0
11
0.125000
21
0.000000
31
0.0
0
LINE
8
MCD_Layer_0
10
0.000000
20
0.500000
30
0.0
11
0.375000
21
0.500000
31
0.0
0
LINE
8
MCD_Layer_0
10
0.050000
20
0.500000
30
0.0
11
0.050000
21
0.075000
31
0.0
0
LINE
8
MCD_Layer_0
10
0.150000
20
0.000000
30
0.0
11
0.625000
21
0.000000
31
0.0
0
LINE
8
MCD_Layer_0
10
0.625000
20
0.000000
30
0.0
11
0.700000
21
0.075000
31
0.0
0
LINE
8
MCD_Layer_0
10
0.700000
20
0.075000
30
0.0
11
0.700000
21
0.500000
31
0.0
0
LINE
8
MCD_Layer_0
10
0.700000
20
0.075000
30
0.0
11
0.700000
21
0.000000
31
0.0
0
LINE
8
MCD_Layer_0
10
0.250000
20
1.000000
30
0.0
11
0.375000
21
1.000000
31
0.0
0
LINE
8
MCD_Layer_0
10
0.375000
20
1.000000
30
0.0
11
0.375000
21
0.000000
31
0.0
0
LINE
8
MCD_Layer_0
10
0.225000
20
0.000000
30
0.0
11
0.525000
21
0.000000
31
0.0
0
LINE
8
MCD_Layer_0
10
0.000000
20
1.000000
30
0.0
11
0.000000
21
0.000000
31
0.0
0
LINE
8
MCD_Layer_0
10
0.700000
20
0.500000
30
0.0
11
0.450000
21
0.350000
31
0.0
0
LINE
8
MCD_Layer_0
10
0.450000
20
0.350000
30
0.0
11
0.700000
21
0.000000
31
0.0
0
LINE
8
MCD_Layer_0
10
0.000000
20
0.350000
30
0.0
11
0.450000
21
0.350000
31
0.0
0
LINE
8
MCD_Layer_0
10
0.050000
20
0.400000
30
0.0
11
0.250000
21
0.000000
31
0.0
0
LINE
8
MCD_Layer_0
10
0.250000
20
0.000000
30
0.0
11
0.375000
21
0.450000
31
0.0
0
LINE
8
MCD_Layer_0
10
0.375000
20
0.450000
30
0.0
11
0.500000
21
0.000000
31
0.0
0
LINE
8
MCD_Layer_0
10
0.500000
20
0.000000
30
0.0
11
0.700000
21
0.400000
31
0.0
0
LINE
8
MCD_Layer_0
10
0.700000
20
0.400000
30
0.0
11
0.600000
21
0.500000
31
0.0
0
LINE
8
MCD_Layer_0
10
0.050000
20
0.400000
30
0.0
11
0.050000
21
0.075000
31
0.0
0
LINE
8
MCD_Layer_0
10
0.700000
20
0.400000
30
0.0
11
0.700000
21
-0.025000
31
0.0
0
LINE
8
MCD_Layer_0
10
0.700000
20
-0.025000
30
0.0
11
0.700000
21
-0.100000
31
0.0
0
LINE
8
MCD_Layer_0
10
0.700000
20
-0.100000
30
0.0
11
0.600000
21
-0.225000
31
0.0
0
LINE
8
MCD_Layer_0
10
0.600000
20
-0.225000
30
0.0
11
0.150000
21
-0.225000
31
0.0
0
LINE
8
MCD_Layer_0
10
0.150000
20
-0.225000
30
0.0
11
0.050000
21
-0.125000
31
0.0
0
LINE
8
MCD_Layer_0
10
0.050000
20
1.000000
30
0.0
11
0.050000
21
0.000000
31
0.0
0
LINE
8
MCD_Layer_0
10
0.700000
20
0.075000
30
0.0
11
0.700000
21
0.425000
31
0.0
0
LINE
8
MCD_Layer_0
10
0.700000
20
0.425000
30
0.0
11
0.625000
21
0.500000
31
0.0
0
LINE
8
MCD_Layer_0
10
0.625000
20
0.500000
30
0.0
11
0.150000
21
0.500000
31
0.0
0
LINE
8
MCD_Layer_0
10
0.150000
20
0.500000
30
0.0
11
0.050000
21
0.425000
31
0.0
0
LINE
8
MCD_Layer_0
10
0.375000
20
0.025000
30
0.0
11
0.350000
21
0.000000
31
0.0
0
LINE
8
MCD_Layer_0
10
0.350000
20
0.000000
30
0.0
11
0.375000
21
-0.025000
31
0.0
0
LINE
8
MCD_Layer_0
10
0.375000
20
-0.025000
30
0.0
11
0.400000
21
0.000000
31
0.0
0
LINE
8
MCD_Layer_0
10
0.400000
20
0.000000
30
0.0
11
0.375000
21
0.025000
31
0.0
0
LINE
8
MCD_Layer_0
10
0.050000
20
0.500000
30
0.0
11
0.700000
21
0.500000
31
0.0
0
LINE
8
MCD_Layer_0
10
0.700000
20
0.500000
30
0.0
11
0.050000
21
0.000000
31
0.0
0
LINE
8
MCD_Layer_0
10
0.050000
20
0.000000
30
0.0
11
0.725000
21
0.000000
31
0.0
0
LINE
8
MCD_Layer_0
10
0.400000
20
0.000000
30
0.0
11
0.425000
21
-0.050000
31
0.0
0
LINE
8
MCD_Layer_0
10
0.425000
20
-0.050000
30
0.0
11
0.400000
21
-0.075000
31
0.0
0
LINE
8
MCD_Layer_0
10
0.700000
20
0.425000
30
0.0
11
0.700000
21
0.100000
31
0.0
0
LINE
8
MCD_Layer_0
10
0.600000
20
0.000000
30
0.0
11
0.150000
21
0.000000
31
0.0
0
LINE
8
MCD_Layer_0
10
0.150000
20
0.000000
30
0.0
11
0.050000
21
0.100000
31
0.0
0
LINE
8
MCD_Layer_0
10
0.050000
20
-0.350000
30
0.0
11
0.050000
21
0.500000
31
0.0
0
LINE
8
MCD_Layer_0
10
0.325000
20
0.950000
30
0.0
11
0.375000
21
1.000000
31
0.0
0
LINE
8
MCD_Layer_0
10
0.250000
20
0.350000
30
0.0
11
0.600000
21
0.350000
31
0.0
0
LINE
8
MCD_Layer_0
10
0.250000
20
0.550000
30
0.0
11
0.600000
21
0.550000
31
0.0
0
LINE
8
MCD_Layer_0
10
0.750000
20
1.000000
30
0.0
11
0.000000
21
0.000000
31
0.0
0
LINE
8
MCD_Layer_0
10
0.050000
20
0.875000
30
0.0
11
0.225000
21
1.000000
31
0.0
0
LINE
8
MCD_Layer_0
10
0.225000
20
1.000000
30
0.0
11
0.550000
21
1.000000
31
0.0
0
LINE
8
MCD_Layer_0
10
0.550000
20
1.000000
30
0.0
11
0.700000
21
0.850000
31
0.0
0
LINE
8
MCD_Layer_0
10
0.700000
20
0.850000
30
0.0
11
0.700000
21
0.625000
31
0.0
0
LINE
8
MCD_Layer_0
10
0.700000
20
0.625000
30
0.0
11
0.050000
21
0.250000
31
0.0
0
LINE
8
MCD_Layer_0
10
0.050000
20
0.250000
30
0.0
11
0.050000
21
0.000000
31
0.0
0
LINE
8
MCD_Layer_0
10
0.050000
20
0.000000
30
0.0
11
0.700000
21
0.000000
31
0.0
0
LINE
8
MCD_Layer_0
10
-6.000000
20
0.000000
30
0.0
11
6.000000
21
0.000000
31
0.0
0
LINE
8
MCD_Layer_0
10
6.000000
20
0.000000
30
0.0
11
6.000000
21
6.000000
31
0.0
0
LINE
8
MCD_Layer_0
10
6.000000
20
6.000000
30
0.0
11
-6.000000
21
6.000000
31
0.0
0
LINE
8
MCD_Layer_0
10
-6.000000
20
6.000000
30
0.0
11
-6.000000
21
0.000000
31
0.0
0
LINE
8
MCD_Layer_0
10
-5.750000
20
0.250000
30
0.0
11
-5.750000
21
5.750000
31
0.0
0
LINE
8
MCD_Layer_0
10
5.750000
20
0.250000
30
0.0
11
-5.750000
21
0.250000
31
0.0
0
LINE
8
MCD_Layer_0
10
5.750000
20
5.750000
30
0.0
11
5.750000
21
0.250000
31
0.0
0
LINE
8
MCD_Layer_0
10
5.750000
20
5.750000
30
0.0
11
-5.750000
21
5.750000
31
0.0
0
CIRCLE
8
MCD_Layer_0
10
0.000000
20
0.000000
40
1.000000
0
ENDSEC
0
EOF
