0
SECTION
2
ENTITIES
0
LINE
8
MCD_Layer_0
10
-0.697221
20
0.066873
30
0.0
11
-0.765021
21
0.353974
31
0.0
0
LINE
8
MCD_Layer_0
10
-0.765021
20
0.353974
30
0.0
11
-0.322122
21
0.350474
31
0.0
0
LINE
8
MCD_Layer_0
10
-0.205121
20
0.342874
30
0.0
11
0.161979
21
0.355674
31
0.0
0
LINE
8
MCD_Layer_0
10
0.161979
20
0.355674
30
0.0
11
0.166278
21
0.552174
31
0.0
0
LINE
8
MCD_Layer_0
10
0.166278
20
0.552174
30
0.0
11
-0.241822
21
0.665073
31
0.0
0
LINE
8
MCD_Layer_0
10
-0.246621
20
0.665773
30
0.0
11
-0.901622
21
0.902774
31
0.0
0
LINE
8
MCD_Layer_0
10
-0.901622
20
0.902774
30
0.0
11
-1.107122
21
1.695774
31
0.0
0
LINE
8
MCD_Layer_0
10
-1.102623
20
1.764374
30
0.0
11
-0.487321
21
0.975074
31
0.0
0
LINE
8
MCD_Layer_0
10
-0.389621
20
0.755073
30
0.0
11
-0.359321
21
0.746073
31
0.0
0
LINE
8
MCD_Layer_0
10
-0.359321
20
0.746073
30
0.0
11
-0.336421
21
0.760174
31
0.0
0
LINE
8
MCD_Layer_0
10
-0.336421
20
0.760174
30
0.0
11
-0.287322
21
0.785274
31
0.0
0
LINE
8
MCD_Layer_0
10
-0.287322
20
0.785274
30
0.0
11
-0.286021
21
0.845373
31
0.0
0
LINE
8
MCD_Layer_0
10
-0.286021
20
0.845373
30
0.0
11
-0.316922
21
0.870973
31
0.0
0
LINE
8
MCD_Layer_0
10
-0.576621
20
1.238774
30
0.0
11
-0.915421
21
1.677274
31
0.0
0
LINE
8
MCD_Layer_0
10
-0.915421
20
1.677274
30
0.0
11
-0.902522
21
1.784374
31
0.0
0
LINE
8
MCD_Layer_0
10
0.175578
20
1.188374
30
0.0
11
0.136378
21
1.260374
31
0.0
0
LINE
8
MCD_Layer_0
10
0.136378
20
1.260374
30
0.0
11
0.110078
21
1.346174
31
0.0
0
LINE
8
MCD_Layer_0
10
0.110078
20
1.346174
30
0.0
11
0.205979
21
1.369473
31
0.0
0
LINE
8
MCD_Layer_0
10
0.205979
20
1.369473
30
0.0
11
0.217278
21
1.333273
31
0.0
0
LINE
8
MCD_Layer_0
10
0.217278
20
1.333273
30
0.0
11
0.664279
21
0.745273
31
0.0
0
LINE
8
MCD_Layer_0
10
0.997779
20
0.899473
30
0.0
11
0.788878
21
1.199774
31
0.0
0
LINE
8
MCD_Layer_0
10
0.616078
20
1.563973
30
0.0
11
0.638879
21
1.581474
31
0.0
0
LINE
8
MCD_Layer_0
10
0.638879
20
1.581474
30
0.0
11
0.745278
21
1.685174
31
0.0
0
LINE
8
MCD_Layer_0
10
0.991078
20
2.357074
30
0.0
11
1.005179
21
1.597574
31
0.0
0
LINE
8
MCD_Layer_0
10
1.005179
20
1.597574
30
0.0
11
0.919278
21
1.477773
31
0.0
0
LINE
8
MCD_Layer_0
10
1.102979
20
1.603473
30
0.0
11
1.091079
21
1.911273
31
0.0
0
LINE
8
MCD_Layer_0
10
1.252679
20
1.482774
30
0.0
11
1.268279
21
1.513374
31
0.0
0
LINE
8
MCD_Layer_0
10
1.268279
20
1.513374
30
0.0
11
1.278878
21
1.543773
31
0.0
0
LINE
8
MCD_Layer_0
10
1.278878
20
1.543773
30
0.0
11
1.274077
21
1.680274
31
0.0
0
LINE
8
MCD_Layer_0
10
2.338679
20
1.043773
30
0.0
11
2.349578
21
1.017473
31
0.0
0
LINE
8
MCD_Layer_0
10
2.349578
20
1.017473
30
0.0
11
2.353679
21
0.994273
31
0.0
0
LINE
8
MCD_Layer_0
10
2.353679
20
0.994273
30
0.0
11
2.364879
21
0.961273
31
0.0
0
LINE
8
MCD_Layer_0
10
2.364879
20
0.961273
30
0.0
11
2.467479
21
0.964874
31
0.0
0
LINE
8
MCD_Layer_0
10
2.240378
20
1.896774
30
0.0
11
2.240378
21
3.307973
31
0.0
0
LINE
8
MCD_Layer_0
10
0.979278
20
3.317674
30
0.0
11
0.979278
21
2.609674
31
0.0
0
LINE
8
MCD_Layer_0
10
-0.180923
20
3.478274
30
0.0
11
-0.176721
21
4.114474
31
0.0
0
LINE
8
MCD_Layer_0
10
-0.176721
20
4.114474
30
0.0
11
-0.141622
21
4.255774
31
0.0
0
LINE
8
MCD_Layer_0
10
-0.141622
20
4.255774
30
0.0
11
-0.105022
21
4.257073
31
0.0
0
LINE
8
MCD_Layer_0
10
-0.105022
20
4.257073
30
0.0
11
0.009978
21
4.211073
31
0.0
0
LINE
8
MCD_Layer_0
10
0.009978
20
4.211073
30
0.0
11
-0.017821
21
4.053373
31
0.0
0
LINE
8
MCD_Layer_0
10
-0.017821
20
4.053373
30
0.0
11
-0.018121
21
3.832473
31
0.0
0
LINE
8
MCD_Layer_0
10
0.840278
20
3.646373
30
0.0
11
0.987479
21
3.728274
31
0.0
0
LINE
8
MCD_Layer_0
10
0.074479
20
4.411774
30
0.0
11
-0.076821
21
4.406474
31
0.0
0
LINE
8
MCD_Layer_0
10
-0.076821
20
4.406474
30
0.0
11
-0.092221
21
4.367574
31
0.0
0
LINE
8
MCD_Layer_0
10
-0.092221
20
4.367574
30
0.0
11
-0.105422
21
4.363774
31
0.0
0
LINE
8
MCD_Layer_0
10
-0.105422
20
4.363774
30
0.0
11
-0.234822
21
4.345974
31
0.0
0
LINE
8
MCD_Layer_0
10
-0.384221
20
3.518974
30
0.0
11
-0.380521
21
3.550374
31
0.0
0
LINE
8
MCD_Layer_0
10
-0.380521
20
3.550374
30
0.0
11
-0.363521
21
4.114674
31
0.0
0
LINE
8
MCD_Layer_0
10
-0.349721
20
4.198474
30
0.0
11
-0.262322
21
4.368373
31
0.0
0
LINE
8
MCD_Layer_0
10
-1.292821
20
4.842674
30
0.0
11
-1.286623
21
4.666073
31
0.0
0
LINE
8
MCD_Layer_0
10
-1.325122
20
4.621374
30
0.0
11
-1.337423
21
4.590974
31
0.0
0
LINE
8
MCD_Layer_0
10
-1.441122
20
4.410574
30
0.0
11
-1.792821
21
4.375674
31
0.0
0
LINE
8
MCD_Layer_0
10
-1.792821
20
4.375674
30
0.0
11
-1.792821
21
5.361574
31
0.0
0
LINE
8
MCD_Layer_0
10
-1.895322
20
5.392074
30
0.0
11
-1.895322
21
4.370274
31
0.0
0
LINE
8
MCD_Layer_0
10
-1.895322
20
4.044474
30
0.0
11
-1.896322
21
3.880973
31
0.0
0
LINE
8
MCD_Layer_0
10
-1.896322
20
3.880973
30
0.0
11
-1.901823
21
2.606673
31
0.0
0
LINE
8
MCD_Layer_0
10
-1.901823
20
2.606673
30
0.0
11
-1.971822
21
2.604273
31
0.0
0
LINE
8
MCD_Layer_0
10
-1.971822
20
2.604273
30
0.0
11
-1.987722
21
2.583673
31
0.0
0
LINE
8
MCD_Layer_0
10
-1.987722
20
2.583673
30
0.0
11
-2.080822
21
2.480374
31
0.0
0
LINE
8
MCD_Layer_0
10
-2.080822
20
2.480374
30
0.0
11
-2.349523
21
2.150773
31
0.0
0
LINE
8
MCD_Layer_0
10
-2.636522
20
1.773874
30
0.0
11
-2.618322
21
1.731174
31
0.0
0
LINE
8
MCD_Layer_0
10
-2.618322
20
1.731174
30
0.0
11
-2.578422
21
1.732574
31
0.0
0
LINE
8
MCD_Layer_0
10
-2.578422
20
1.732574
30
0.0
11
-2.535322
21
1.740773
31
0.0
0
LINE
8
MCD_Layer_0
10
-2.535322
20
1.740773
30
0.0
11
-2.509523
21
1.764973
31
0.0
0
LINE
8
MCD_Layer_0
10
-1.954822
20
2.501473
30
0.0
11
-1.934822
21
2.502173
31
0.0
0
LINE
8
MCD_Layer_0
10
-1.934822
20
2.502173
30
0.0
11
-2.171623
21
1.259773
31
0.0
0
LINE
8
MCD_Layer_0
10
-2.129522
20
1.104473
30
0.0
11
-2.129222
21
1.094474
31
0.0
0
LINE
8
MCD_Layer_0
10
-2.129222
20
1.094474
30
0.0
11
-2.195522
21
0.988774
31
0.0
0
LINE
8
MCD_Layer_0
10
-2.290521
20
0.748673
30
0.0
11
-2.180122
21
0.739173
31
0.0
0
LINE
8
MCD_Layer_0
10
-2.101121
20
0.768673
30
0.0
11
-2.096921
21
0.838874
31
0.0
0
LINE
8
MCD_Layer_0
10
-2.109722
20
0.918473
30
0.0
11
-2.104421
21
0.958673
31
0.0
0
LINE
8
MCD_Layer_0
10
-1.427322
20
1.817774
30
0.0
11
-1.324022
21
1.821373
31
0.0
0
LINE
8
MCD_Layer_0
10
-1.324022
20
1.821373
30
0.0
11
-1.327022
21
1.619473
31
0.0
0
LINE
8
MCD_Layer_0
10
-1.135923
20
0.340173
30
0.0
11
-1.151222
21
0.404874
31
0.0
0
LINE
8
MCD_Layer_0
10
-1.151222
20
0.404874
30
0.0
11
-1.058721
21
0.356273
31
0.0
0
LINE
8
MCD_Layer_0
10
-1.058721
20
0.356273
30
0.0
11
-0.924922
21
0.350673
31
0.0
0
LINE
8
MCD_Layer_0
10
-0.924922
20
0.350673
30
0.0
11
-0.841422
21
0.035474
31
0.0
0
LINE
8
MCD_Layer_0
10
-0.781522
20
0.423774
30
0.0
11
-0.227922
21
0.423774
31
0.0
0
LINE
8
MCD_Layer_0
10
-0.227922
20
0.423774
30
0.0
11
-0.298522
21
0.437973
31
0.0
0
LINE
8
MCD_Layer_0
10
-0.466121
20
0.484273
30
0.0
11
-0.796721
21
0.484273
31
0.0
0
LINE
8
MCD_Layer_0
10
-0.792321
20
0.484273
30
0.0
11
-0.781522
21
0.423774
31
0.0
0
LINE
8
MCD_Layer_0
10
-0.812722
20
0.550174
30
0.0
11
-0.824822
21
0.609773
31
0.0
0
LINE
8
MCD_Layer_0
10
-0.824822
20
0.609773
30
0.0
11
-0.821322
21
0.606574
31
0.0
0
LINE
8
MCD_Layer_0
10
-0.821322
20
0.606574
30
0.0
11
-0.665921
21
0.548573
31
0.0
0
LINE
8
MCD_Layer_0
10
-0.665921
20
0.548573
30
0.0
11
-0.812722
21
0.550174
31
0.0
0
LINE
8
MCD_Layer_0
10
-0.207221
20
0.497874
30
0.0
11
-0.209321
21
0.557873
31
0.0
0
LINE
8
MCD_Layer_0
10
-0.209321
20
0.557873
30
0.0
11
-0.222621
21
0.557374
31
0.0
0
LINE
8
MCD_Layer_0
10
-0.222621
20
0.557374
30
0.0
11
-0.600921
21
0.694273
31
0.0
0
LINE
8
MCD_Layer_0
10
-0.881621
20
0.804574
30
0.0
11
-0.847022
21
0.672374
31
0.0
0
LINE
8
MCD_Layer_0
10
-0.847022
20
0.672374
30
0.0
11
-0.826922
21
0.669673
31
0.0
0
LINE
8
MCD_Layer_0
10
-1.014022
20
0.683573
30
0.0
11
-1.201622
21
0.756773
31
0.0
0
LINE
8
MCD_Layer_0
10
-1.205423
20
0.758273
30
0.0
11
-1.202722
21
0.550174
31
0.0
0
LINE
8
MCD_Layer_0
10
-1.203622
20
0.550174
30
0.0
11
-0.982022
21
0.550174
31
0.0
0
LINE
8
MCD_Layer_0
10
-0.982022
20
0.550174
30
0.0
11
-1.014022
21
0.683573
31
0.0
0
LINE
8
MCD_Layer_0
10
-1.032321
20
0.776473
30
0.0
11
-1.066322
21
0.875373
31
0.0
0
LINE
8
MCD_Layer_0
10
-1.066322
20
0.875373
30
0.0
11
-1.207622
21
0.929474
31
0.0
0
LINE
8
MCD_Layer_0
10
-1.207622
20
0.929474
30
0.0
11
-1.206522
21
0.839973
31
0.0
0
LINE
8
MCD_Layer_0
10
-1.206522
20
0.839973
30
0.0
11
-1.032321
21
0.776473
31
0.0
0
LINE
8
MCD_Layer_0
10
-1.082021
20
0.975873
30
0.0
11
-1.192922
21
1.600873
31
0.0
0
LINE
8
MCD_Layer_0
10
-1.208923
20
1.027273
30
0.0
11
-1.082021
21
0.975873
31
0.0
0
LINE
8
MCD_Layer_0
10
-1.008721
20
0.484273
30
0.0
11
-1.209922
21
0.484273
31
0.0
0
LINE
8
MCD_Layer_0
10
-1.209922
20
0.484273
30
0.0
11
-1.130521
21
0.425773
31
0.0
0
LINE
8
MCD_Layer_0
10
-1.130521
20
0.425773
30
0.0
11
-0.945222
21
0.427073
31
0.0
0
LINE
8
MCD_Layer_0
10
-0.161922
20
0.442774
30
0.0
11
-0.131722
21
0.437174
31
0.0
0
LINE
8
MCD_Layer_0
10
-0.131722
20
0.437174
30
0.0
11
-0.084222
21
0.413774
31
0.0
0
LINE
8
MCD_Layer_0
10
-0.084222
20
0.413774
30
0.0
11
0.038278
21
0.418073
31
0.0
0
LINE
8
MCD_Layer_0
10
0.038278
20
0.418073
30
0.0
11
0.039878
21
0.489873
31
0.0
0
LINE
8
MCD_Layer_0
10
0.039878
20
0.489873
30
0.0
11
-0.141921
21
0.540174
31
0.0
0
LINE
8
MCD_Layer_0
10
-0.141921
20
0.540174
30
0.0
11
-0.161922
21
0.442774
31
0.0
0
LINE
8
MCD_Layer_0
10
0.399379
20
1.563073
30
0.0
11
0.325879
21
1.660574
31
0.0
0
LINE
8
MCD_Layer_0
10
0.325879
20
1.660574
30
0.0
11
0.282979
21
1.649073
31
0.0
0
LINE
8
MCD_Layer_0
10
0.282979
20
1.649073
30
0.0
11
0.294978
21
1.589473
31
0.0
0
LINE
8
MCD_Layer_0
10
0.874778
20
2.466874
30
0.0
11
0.849378
21
2.619373
31
0.0
0
LINE
8
MCD_Layer_0
10
0.049779
20
1.734273
30
0.0
11
0.052478
21
1.754373
31
0.0
0
LINE
8
MCD_Layer_0
10
0.052478
20
1.754373
30
0.0
11
0.069879
21
1.828373
31
0.0
0
LINE
8
MCD_Layer_0
10
0.069879
20
1.828373
30
0.0
11
0.166478
21
1.831774
31
0.0
0
LINE
8
MCD_Layer_0
10
0.166478
20
1.831774
30
0.0
11
0.165879
21
1.848373
31
0.0
0
LINE
8
MCD_Layer_0
10
0.165879
20
1.848373
30
0.0
11
0.168378
21
1.968573
31
0.0
0
LINE
8
MCD_Layer_0
10
0.323279
20
1.830573
30
0.0
11
0.367978
21
1.888873
31
0.0
0
LINE
8
MCD_Layer_0
10
2.146678
20
1.958574
30
0.0
11
2.146678
21
3.202073
31
0.0
0
LINE
8
MCD_Layer_0
10
1.073079
20
3.186874
30
0.0
11
1.073079
21
2.034673
31
0.0
0
LINE
8
MCD_Layer_0
10
1.395179
20
3.577374
30
0.0
11
1.395179
21
4.860474
31
0.0
0
LINE
8
MCD_Layer_0
10
1.395179
20
4.860474
30
0.0
11
1.212779
21
5.230773
31
0.0
0
LINE
8
MCD_Layer_0
10
1.325179
20
5.285474
30
0.0
11
1.395179
21
5.143274
31
0.0
0
LINE
8
MCD_Layer_0
10
1.395179
20
5.143274
30
0.0
11
1.395179
21
5.289774
31
0.0
0
LINE
8
MCD_Layer_0
10
1.520179
20
5.297574
30
0.0
11
1.520179
21
4.899674
31
0.0
0
LINE
8
MCD_Layer_0
10
1.714580
20
4.274273
30
0.0
11
1.520179
21
4.636774
31
0.0
0
LINE
8
MCD_Layer_0
10
1.520179
20
4.636774
30
0.0
11
1.520179
21
3.584374
31
0.0
0
LINE
8
MCD_Layer_0
10
0.437579
20
4.766373
30
0.0
11
0.467578
21
4.767373
31
0.0
0
LINE
8
MCD_Layer_0
10
1.004279
20
5.826774
30
0.0
11
0.945479
21
5.791374
31
0.0
0
LINE
8
MCD_Layer_0
10
0.945479
20
5.791374
30
0.0
11
0.946279
21
5.768073
31
0.0
0
LINE
8
MCD_Layer_0
10
0.993579
20
5.749673
30
0.0
11
1.020078
21
5.753973
31
0.0
0
LINE
8
MCD_Layer_0
10
1.020078
20
5.753973
30
0.0
11
1.062778
21
5.775474
31
0.0
0
LINE
8
MCD_Layer_0
10
-1.990423
20
4.284674
30
0.0
11
-1.953222
21
4.269274
31
0.0
0
LINE
8
MCD_Layer_0
10
-1.190721
20
4.402674
30
0.0
11
-1.223121
21
4.564974
31
0.0
0
LINE
8
MCD_Layer_0
10
-1.223121
20
4.564974
30
0.0
11
-1.286722
21
4.572673
31
0.0
0
LINE
8
MCD_Layer_0
10
-1.286722
20
4.572673
30
0.0
11
-1.290521
21
4.489174
31
0.0
0
LINE
8
MCD_Layer_0
10
-1.379022
20
4.349374
30
0.0
11
-1.990423
21
4.284674
31
0.0
0
LINE
8
MCD_Layer_0
10
-1.987022
20
4.188073
30
0.0
11
-1.950721
21
4.199274
31
0.0
0
LINE
8
MCD_Layer_0
10
-2.012222
20
4.143774
30
0.0
11
-2.049623
21
4.165874
31
0.0
0
LINE
8
MCD_Layer_0
10
-1.808221
20
4.034173
30
0.0
11
-1.364023
21
4.016374
31
0.0
0
LINE
8
MCD_Layer_0
10
-1.364023
20
4.016374
30
0.0
11
-1.367622
21
3.929474
31
0.0
0
LINE
8
MCD_Layer_0
10
-1.367622
20
3.929474
30
0.0
11
-1.320121
21
3.904474
31
0.0
0
LINE
8
MCD_Layer_0
10
-1.291723
20
3.855474
30
0.0
11
-1.295421
21
3.675173
31
0.0
0
LINE
8
MCD_Layer_0
10
-1.311222
20
2.790774
30
0.0
11
-1.318122
21
2.130173
31
0.0
0
LINE
8
MCD_Layer_0
10
-1.318122
20
2.130173
30
0.0
11
-1.345521
21
2.149173
31
0.0
0
LINE
8
MCD_Layer_0
10
-1.345521
20
2.149173
30
0.0
11
-1.526123
21
2.352973
31
0.0
0
LINE
8
MCD_Layer_0
10
-1.734521
20
2.592573
30
0.0
11
-1.824823
21
2.599373
31
0.0
0
LINE
8
MCD_Layer_0
10
-1.815122
20
3.753774
30
0.0
11
-1.808221
21
4.034173
31
0.0
0
LINE
8
MCD_Layer_0
10
-1.113721
20
4.011774
30
0.0
11
-0.823922
21
4.021874
31
0.0
0
LINE
8
MCD_Layer_0
10
-0.470922
20
4.138874
30
0.0
11
-0.612622
21
3.892474
31
0.0
0
LINE
8
MCD_Layer_0
10
-1.096221
20
3.988974
30
0.0
11
-1.113721
21
4.011774
31
0.0
0
LINE
8
MCD_Layer_0
10
-1.150423
20
3.917074
30
0.0
11
-1.206623
21
3.901774
31
0.0
0
LINE
8
MCD_Layer_0
10
-1.206623
20
3.901774
30
0.0
11
-1.198722
21
3.675273
31
0.0
0
LINE
8
MCD_Layer_0
10
-0.446721
20
4.014974
30
0.0
11
-0.564221
21
3.819874
31
0.0
0
LINE
8
MCD_Layer_0
10
-1.300321
20
3.443074
30
0.0
11
-1.297721
21
3.598374
31
0.0
0
LINE
8
MCD_Layer_0
10
-1.303321
20
3.328074
30
0.0
11
-1.479522
21
3.408574
31
0.0
0
LINE
8
MCD_Layer_0
10
-0.263122
20
3.244274
30
0.0
11
-0.272222
21
3.220674
31
0.0
0
LINE
8
MCD_Layer_0
10
-1.203422
20
2.775173
30
0.0
11
-1.206222
21
2.744374
31
0.0
0
LINE
8
MCD_Layer_0
10
-1.149421
20
1.979274
30
0.0
11
-1.115722
21
1.967073
31
0.0
0
LINE
8
MCD_Layer_0
10
-1.089822
20
1.894573
30
0.0
11
-0.974721
21
1.751873
31
0.0
0
LINE
8
MCD_Layer_0
10
-0.974721
20
1.751873
30
0.0
11
-0.965421
21
1.865574
31
0.0
0
LINE
8
MCD_Layer_0
10
-1.082422
20
2.351773
30
0.0
11
-1.097322
21
2.301273
31
0.0
0
LINE
8
MCD_Layer_0
10
-0.896522
20
1.898073
30
0.0
11
-0.905221
21
2.147873
31
0.0
0
LINE
8
MCD_Layer_0
10
-1.010421
20
2.391074
30
0.0
11
-0.948422
21
2.719074
31
0.0
0
LINE
8
MCD_Layer_0
10
-1.022321
20
2.253874
30
0.0
11
-0.983922
21
2.205173
31
0.0
0
LINE
8
MCD_Layer_0
10
-0.983922
20
2.205173
30
0.0
11
-0.976321
21
2.178773
31
0.0
0
LINE
8
MCD_Layer_0
10
-0.976321
20
2.178773
30
0.0
11
-0.963422
21
1.999074
31
0.0
0
LINE
8
MCD_Layer_0
10
-1.066822
20
2.192273
30
0.0
11
-1.022321
21
2.253874
31
0.0
0
LINE
8
MCD_Layer_0
10
-1.428121
20
2.126273
30
0.0
11
-1.713022
21
2.453173
31
0.0
0
LINE
8
MCD_Layer_0
10
-1.801221
20
2.496874
30
0.0
11
-1.821922
21
2.419374
31
0.0
0
LINE
8
MCD_Layer_0
10
-2.069522
20
1.199973
30
0.0
11
-1.480422
21
1.904373
31
0.0
0
LINE
8
MCD_Layer_0
10
-1.390222
20
1.950573
30
0.0
11
-1.300521
21
1.950573
31
0.0
0
LINE
8
MCD_Layer_0
10
-1.300521
20
1.950573
30
0.0
11
-1.428121
21
2.126273
31
0.0
0
LINE
8
MCD_Layer_0
10
-0.211122
20
3.189373
30
0.0
11
-0.211022
21
3.376173
31
0.0
0
LINE
8
MCD_Layer_0
10
-0.211022
20
3.376173
30
0.0
11
-0.201222
21
3.383173
31
0.0
0
LINE
8
MCD_Layer_0
10
-0.059022
20
3.321474
30
0.0
11
0.025479
21
3.291074
31
0.0
0
LINE
8
MCD_Layer_0
10
-0.470521
20
4.314373
30
0.0
11
-0.454122
21
4.321574
31
0.0
0
LINE
8
MCD_Layer_0
10
-0.454122
20
4.321574
30
0.0
11
-0.359122
21
4.333574
31
0.0
0
LINE
8
MCD_Layer_0
10
-0.359122
20
4.333574
30
0.0
11
-0.418822
21
4.229673
31
0.0
0
LINE
8
MCD_Layer_0
10
-0.522822
20
4.379274
30
0.0
11
-0.363322
21
4.394874
31
0.0
0
LINE
8
MCD_Layer_0
10
-1.173822
20
4.776773
30
0.0
11
-1.219121
21
4.633473
31
0.0
0
LINE
8
MCD_Layer_0
10
-1.154922
20
4.617373
30
0.0
11
-1.141323
21
4.514373
31
0.0
0
LINE
8
MCD_Layer_0
10
-1.141323
20
4.514373
30
0.0
11
-1.108522
21
4.435474
31
0.0
0
LINE
8
MCD_Layer_0
10
-0.829921
20
4.385174
30
0.0
11
-0.793021
21
4.379874
31
0.0
0
LINE
8
MCD_Layer_0
10
-2.290244
20
0.387306
30
0.0
11
-2.253451
21
0.513090
31
0.0
0
LINE
8
MCD_Layer_0
10
-2.253451
20
0.513090
30
0.0
11
-2.037308
21
0.953730
31
0.0
0
LINE
8
MCD_Layer_0
10
-2.037308
20
0.953730
30
0.0
11
-2.126732
21
0.468882
31
0.0
0
LINE
8
MCD_Layer_0
10
-2.126732
20
0.468882
30
0.0
11
-2.176772
21
0.312282
31
0.0
0
LINE
8
MCD_Layer_0
10
-1.885172
20
0.292554
30
0.0
11
-1.902812
21
0.439722
31
0.0
0
LINE
8
MCD_Layer_0
10
-1.902812
20
0.439722
30
0.0
11
-1.813532
21
0.923851
31
0.0
0
LINE
8
MCD_Layer_0
10
-1.813532
20
0.923851
30
0.0
11
-1.486508
21
1.067418
31
0.0
0
LINE
8
MCD_Layer_0
10
-1.486508
20
1.067418
30
0.0
11
-1.182452
21
0.721170
31
0.0
0
LINE
8
MCD_Layer_0
10
-1.182452
20
0.721170
30
0.0
11
-1.282747
21
0.428418
31
0.0
0
LINE
8
MCD_Layer_0
10
-1.282747
20
0.428418
30
0.0
11
-1.044356
21
0.428418
31
0.0
0
LINE
8
MCD_Layer_0
10
-1.044356
20
0.428418
30
0.0
11
-1.011020
21
0.525834
31
0.0
0
LINE
8
MCD_Layer_0
10
-1.011020
20
0.525834
30
0.0
11
-0.985604
21
0.496962
31
0.0
0
LINE
8
MCD_Layer_0
10
-0.985604
20
0.496962
30
0.0
11
-0.965157
21
0.385218
31
0.0
0
LINE
8
MCD_Layer_0
10
-0.685220
20
0.621378
30
0.0
11
0.094036
21
0.542826
31
0.0
0
LINE
8
MCD_Layer_0
10
0.972507
20
0.357498
30
0.0
11
1.014916
21
0.489186
31
0.0
0
LINE
8
MCD_Layer_0
10
1.014916
20
0.489186
30
0.0
11
1.122268
21
0.611442
31
0.0
0
LINE
8
MCD_Layer_0
10
1.122268
20
0.611442
30
0.0
11
1.231997
21
0.428418
31
0.0
0
LINE
8
MCD_Layer_0
10
1.231997
20
0.428418
30
0.0
11
1.494940
21
0.428418
31
0.0
0
LINE
8
MCD_Layer_0
10
1.494940
20
0.428418
30
0.0
11
1.478885
21
0.455130
31
0.0
0
LINE
8
MCD_Layer_0
10
1.478885
20
0.455130
30
0.0
11
1.562116
21
0.455130
31
0.0
0
LINE
8
MCD_Layer_0
10
1.562116
20
0.455130
30
0.0
11
1.562116
21
1.014570
31
0.0
0
LINE
8
MCD_Layer_0
10
1.562116
20
1.014570
30
0.0
11
1.827148
21
0.898218
31
0.0
0
LINE
8
MCD_Layer_0
10
1.827148
20
0.898218
30
0.0
11
1.916356
21
0.414018
31
0.0
0
LINE
8
MCD_Layer_0
10
1.916356
20
0.414018
30
0.0
11
1.898788
21
0.266922
31
0.0
0
LINE
8
MCD_Layer_0
10
2.190316
20
0.286650
30
0.0
11
2.140276
21
0.443322
31
0.0
0
LINE
8
MCD_Layer_0
10
2.140276
20
0.443322
30
0.0
11
2.112268
21
0.594882
31
0.0
0
LINE
8
MCD_Layer_0
10
2.112268
20
0.594882
30
0.0
11
2.153668
21
0.549090
31
0.0
0
LINE
8
MCD_Layer_0
10
2.153668
20
0.549090
30
0.0
11
2.206516
21
0.423450
31
0.0
0
LINE
8
MCD_Layer_0
10
2.206516
20
0.423450
30
0.0
11
2.226028
21
0.282978
31
0.0
0
LINE
8
MCD_Layer_0
10
2.482635
20
0.409842
30
0.0
11
2.400557
21
0.531018
31
0.0
0
LINE
8
MCD_Layer_0
10
2.400557
20
0.531018
30
0.0
11
1.949188
21
1.643490
31
0.0
0
LINE
8
MCD_Layer_0
10
1.949188
20
1.643490
30
0.0
11
1.949188
21
4.648050
31
0.0
0
LINE
8
MCD_Layer_0
10
1.723684
20
4.569787
30
0.0
11
1.723684
21
3.744451
31
0.0
0
LINE
8
MCD_Layer_0
10
1.723684
20
3.744451
30
0.0
11
1.609060
21
3.778506
31
0.0
0
LINE
8
MCD_Layer_0
10
1.554844
20
3.813282
30
0.0
11
1.554844
21
3.977586
31
0.0
0
LINE
8
MCD_Layer_0
10
1.554844
20
3.977586
30
0.0
11
1.536700
21
3.977586
31
0.0
0
LINE
8
MCD_Layer_0
10
1.536700
20
3.977586
30
0.0
11
1.536700
21
4.238082
31
0.0
0
LINE
8
MCD_Layer_0
10
1.536700
20
4.238082
30
0.0
11
1.346909
21
4.238082
31
0.0
0
LINE
8
MCD_Layer_0
10
1.346909
20
4.238082
30
0.0
11
1.346909
21
3.827394
31
0.0
0
LINE
8
MCD_Layer_0
10
1.346909
20
3.827394
30
0.0
11
1.221484
21
3.761875
31
0.0
0
LINE
8
MCD_Layer_0
10
1.221484
20
3.761875
30
0.0
11
1.221484
21
3.808458
31
0.0
0
LINE
8
MCD_Layer_0
10
1.221484
20
3.808458
30
0.0
11
1.232932
21
3.820987
31
0.0
0
LINE
8
MCD_Layer_0
10
1.232932
20
3.820987
30
0.0
11
1.232932
21
3.949506
31
0.0
0
LINE
8
MCD_Layer_0
10
1.232932
20
3.949506
30
0.0
11
1.226812
21
3.962034
31
0.0
0
LINE
8
MCD_Layer_0
10
1.226812
20
3.962034
30
0.0
11
1.226812
21
4.050666
31
0.0
0
LINE
8
MCD_Layer_0
10
0.100588
20
3.964626
30
0.0
11
0.046589
21
3.976795
31
0.0
0
LINE
8
MCD_Layer_0
10
-0.106988
20
4.234771
30
0.0
11
-0.317804
21
4.291074
31
0.0
0
LINE
8
MCD_Layer_0
10
-0.317804
20
4.291074
30
0.0
11
-0.352364
21
4.298059
31
0.0
0
LINE
8
MCD_Layer_0
10
-1.236236
20
4.008906
30
0.0
11
-1.236236
21
3.898530
31
0.0
0
LINE
8
MCD_Layer_0
10
-1.236236
20
3.898530
30
0.0
11
-1.252363
21
3.884562
31
0.0
0
LINE
8
MCD_Layer_0
10
-1.252363
20
3.884562
30
0.0
11
-1.252363
21
3.695634
31
0.0
0
LINE
8
MCD_Layer_0
10
-1.252363
20
3.695634
30
0.0
11
-1.222196
21
3.675906
31
0.0
0
LINE
8
MCD_Layer_0
10
-1.222196
20
3.675906
30
0.0
11
-1.222196
21
3.440106
31
0.0
0
LINE
8
MCD_Layer_0
10
-1.222196
20
3.440106
30
0.0
11
-1.248980
21
3.427938
31
0.0
0
LINE
8
MCD_Layer_0
10
-1.248980
20
3.427938
30
0.0
11
-1.248980
21
3.144907
31
0.0
0
LINE
8
MCD_Layer_0
10
-1.710068
20
3.171186
30
0.0
11
-1.710068
21
4.595491
31
0.0
0
LINE
8
MCD_Layer_0
10
-1.935572
20
4.673682
30
0.0
11
-1.935572
21
3.159307
31
0.0
0
LINE
8
MCD_Layer_0
10
-1.935572
20
3.159307
30
0.0
11
-1.947092
21
3.156498
31
0.0
0
LINE
8
MCD_Layer_0
10
-2.144372
20
3.129138
30
0.0
11
-2.144372
21
3.036402
31
0.0
0
LINE
8
MCD_Layer_0
10
-2.144372
20
3.036402
30
0.0
11
-2.177276
21
3.036402
31
0.0
0
LINE
8
MCD_Layer_0
10
-2.177276
20
3.036402
30
0.0
11
-2.177276
21
2.832282
31
0.0
0
LINE
8
MCD_Layer_0
10
-2.177276
20
2.832282
30
0.0
11
-2.146173
21
2.832282
31
0.0
0
LINE
8
MCD_Layer_0
10
-2.146173
20
2.832282
30
0.0
11
-2.146173
21
2.512170
31
0.0
0
LINE
8
MCD_Layer_0
10
-2.146173
20
2.512170
30
0.0
11
-2.358141
21
2.512170
31
0.0
0
LINE
8
MCD_Layer_0
10
-2.358141
20
2.512170
30
0.0
11
-2.358141
21
2.016162
31
0.0
0
LINE
8
MCD_Layer_0
10
-2.358141
20
2.016162
30
0.0
11
-2.298451
21
2.016162
31
0.0
0
LINE
8
MCD_Layer_0
10
-2.298451
20
2.016162
30
0.0
11
-2.298451
21
1.156698
31
0.0
0
LINE
8
MCD_Layer_0
10
-2.298451
20
1.156698
30
0.0
11
-2.518700
21
0.968130
31
0.0
0
LINE
8
MCD_Layer_0
10
-2.518700
20
0.968130
30
0.0
11
-2.476364
21
0.916219
31
0.0
0
LINE
8
MCD_Layer_0
10
-2.476364
20
0.916219
30
0.0
11
-2.476364
21
0.733050
31
0.0
0
LINE
8
MCD_Layer_0
10
-2.476364
20
0.733050
30
0.0
11
-2.396732
21
0.733050
31
0.0
0
LINE
8
MCD_Layer_0
10
-2.396732
20
0.733050
30
0.0
11
-2.461460
21
0.601002
31
0.0
0
LINE
8
MCD_Layer_0
10
-2.461460
20
0.601002
30
0.0
11
-2.551604
21
0.527346
31
0.0
0
LINE
8
MCD_Layer_0
10
-2.479244
20
0.498978
30
0.0
11
-2.420277
21
0.547218
31
0.0
0
LINE
8
MCD_Layer_0
10
-2.420277
20
0.547218
30
0.0
11
-2.396660
21
0.551250
31
0.0
0
LINE
8
MCD_Layer_0
10
-2.396660
20
0.551250
30
0.0
11
-2.400620
21
0.571338
31
0.0
0
LINE
8
MCD_Layer_0
10
-2.400620
20
0.571338
30
0.0
11
-2.155100
21
1.071738
31
0.0
0
LINE
8
MCD_Layer_0
10
-2.155100
20
1.071738
30
0.0
11
-2.314219
21
0.935586
31
0.0
0
LINE
8
MCD_Layer_0
10
-2.314219
20
0.935586
30
0.0
11
-2.340644
21
0.929611
31
0.0
0
LINE
8
MCD_Layer_0
10
-2.340644
20
0.929611
30
0.0
11
-2.313787
21
0.900666
31
0.0
0
LINE
8
MCD_Layer_0
10
-2.313787
20
0.900666
30
0.0
11
-2.313787
21
0.800802
31
0.0
0
LINE
8
MCD_Layer_0
10
-2.313787
20
0.800802
30
0.0
11
-2.408611
21
0.800802
31
0.0
0
LINE
8
MCD_Layer_0
10
-2.408611
20
0.800802
30
0.0
11
-2.408611
21
0.897786
31
0.0
0
LINE
8
MCD_Layer_0
10
-2.408611
20
0.897786
30
0.0
11
-2.391620
21
0.919458
31
0.0
0
LINE
8
MCD_Layer_0
10
-2.391620
20
0.919458
30
0.0
11
-2.424452
21
0.959706
31
0.0
0
LINE
8
MCD_Layer_0
10
-2.424452
20
0.959706
30
0.0
11
-2.230700
21
1.125450
31
0.0
0
LINE
8
MCD_Layer_0
10
-2.230700
20
1.125450
30
0.0
11
-2.230700
21
2.083914
31
0.0
0
LINE
8
MCD_Layer_0
10
-2.230700
20
2.083914
30
0.0
11
-2.290388
21
2.083914
31
0.0
0
LINE
8
MCD_Layer_0
10
-2.290388
20
2.083914
30
0.0
11
-2.290388
21
2.444418
31
0.0
0
LINE
8
MCD_Layer_0
10
-2.290388
20
2.444418
30
0.0
11
-2.140700
21
2.444418
31
0.0
0
LINE
8
MCD_Layer_0
10
-2.140700
20
2.444418
30
0.0
11
-2.140700
21
1.101114
31
0.0
0
LINE
8
MCD_Layer_0
10
-2.140700
20
1.101114
30
0.0
11
-1.867820
21
1.657386
31
0.0
0
LINE
8
MCD_Layer_0
10
-1.867820
20
1.657386
30
0.0
11
-1.867820
21
4.863042
31
0.0
0
LINE
8
MCD_Layer_0
10
-1.867820
20
4.863042
30
0.0
11
-1.813460
21
5.075803
31
0.0
0
LINE
8
MCD_Layer_0
10
-1.813460
20
5.075803
30
0.0
11
-1.897484
21
5.152339
31
0.0
0
LINE
8
MCD_Layer_0
10
-1.558076
20
5.058739
30
0.0
11
-1.731020
21
5.058379
31
0.0
0
LINE
8
MCD_Layer_0
10
-1.731020
20
5.058379
30
0.0
11
-1.777820
21
4.863042
31
0.0
0
LINE
8
MCD_Layer_0
10
-1.777820
20
4.863042
30
0.0
11
-1.777820
21
1.638378
31
0.0
0
LINE
8
MCD_Layer_0
10
-1.777820
20
1.638378
30
0.0
11
-1.072076
21
0.834498
31
0.0
0
LINE
8
MCD_Layer_0
10
-1.072076
20
0.834498
30
0.0
11
-0.857372
21
1.458738
31
0.0
0
LINE
8
MCD_Layer_0
10
-0.857372
20
1.458738
30
0.0
11
-0.883796
21
1.475586
31
0.0
0
LINE
8
MCD_Layer_0
10
-0.883796
20
1.475586
30
0.0
11
-0.914972
21
1.427562
31
0.0
0
LINE
8
MCD_Layer_0
10
-0.914972
20
1.427562
30
0.0
11
-0.936572
21
1.444338
31
0.0
0
LINE
8
MCD_Layer_0
10
-0.936572
20
1.444338
30
0.0
11
-0.876595
21
1.564363
31
0.0
0
LINE
8
MCD_Layer_0
10
-0.876595
20
1.564363
30
0.0
11
-0.814172
21
1.537938
31
0.0
0
LINE
8
MCD_Layer_0
10
-0.814172
20
1.537938
30
0.0
11
-0.610125
21
1.537938
31
0.0
0
LINE
8
MCD_Layer_0
10
-0.579524
20
1.299258
30
0.0
11
-0.798908
21
1.354338
31
0.0
0
LINE
8
MCD_Layer_0
10
-0.798908
20
1.354338
30
0.0
11
-1.003604
21
0.756522
31
0.0
0
LINE
8
MCD_Layer_0
10
-1.003604
20
0.756522
30
0.0
11
-0.886964
21
0.623682
31
0.0
0
LINE
8
MCD_Layer_0
10
-0.886964
20
0.623682
30
0.0
11
-0.885020
21
0.592866
31
0.0
0
LINE
8
MCD_Layer_0
10
-0.885020
20
0.592866
30
0.0
11
-0.863348
21
0.600282
31
0.0
0
LINE
8
MCD_Layer_0
10
-0.863348
20
0.600282
30
0.0
11
-0.758804
21
0.563418
31
0.0
0
LINE
8
MCD_Layer_0
10
-0.906620
20
0.441738
30
0.0
11
-0.922820
21
0.530226
31
0.0
0
LINE
8
MCD_Layer_0
10
-0.922820
20
0.530226
30
0.0
11
-0.915621
21
0.563418
31
0.0
0
LINE
8
MCD_Layer_0
10
-0.915621
20
0.563418
30
0.0
11
-0.949028
21
0.557946
31
0.0
0
LINE
8
MCD_Layer_0
10
-0.949028
20
0.557946
30
0.0
11
-1.037228
21
0.658386
31
0.0
0
LINE
8
MCD_Layer_0
10
-1.037228
20
0.658386
30
0.0
11
-1.092812
21
0.496098
31
0.0
0
LINE
8
MCD_Layer_0
10
-1.092812
20
0.496098
30
0.0
11
-1.187924
21
0.496098
31
0.0
0
LINE
8
MCD_Layer_0
10
-1.187924
20
0.496098
30
0.0
11
-1.105628
21
0.736362
31
0.0
0
LINE
8
MCD_Layer_0
10
-1.105628
20
0.736362
30
0.0
11
-1.468291
21
1.149426
31
0.0
0
LINE
8
MCD_Layer_0
10
-1.468291
20
1.149426
30
0.0
11
-1.873652
21
0.971442
31
0.0
0
LINE
8
MCD_Layer_0
10
-1.873652
20
0.971442
30
0.0
11
-1.967972
21
0.459738
31
0.0
0
LINE
8
MCD_Layer_0
10
-1.967972
20
0.459738
30
0.0
11
-1.985971
21
0.445122
31
0.0
0
LINE
8
MCD_Layer_0
10
-1.985971
20
0.445122
30
0.0
11
-1.970564
21
0.420354
31
0.0
0
LINE
8
MCD_Layer_0
10
-1.970564
20
0.420354
30
0.0
11
-1.957388
21
0.321426
31
0.0
0
LINE
8
MCD_Layer_0
10
-2.100380
20
0.330426
30
0.0
11
-2.067404
21
0.438354
31
0.0
0
LINE
8
MCD_Layer_0
10
-2.067404
20
0.438354
30
0.0
11
-2.047604
21
0.454122
31
0.0
0
LINE
8
MCD_Layer_0
10
-2.047604
20
0.454122
30
0.0
11
-2.056459
21
0.476082
31
0.0
0
LINE
8
MCD_Layer_0
10
-2.056459
20
0.476082
30
0.0
11
-1.963436
21
0.980514
31
0.0
0
LINE
8
MCD_Layer_0
10
-1.963436
20
0.980514
30
0.0
11
-2.056891
21
1.067562
31
0.0
0
LINE
8
MCD_Layer_0
10
-2.056891
20
1.067562
30
0.0
11
-2.319763
21
0.531738
31
0.0
0
LINE
8
MCD_Layer_0
10
-2.319763
20
0.531738
30
0.0
11
-2.333733
21
0.535194
31
0.0
0
LINE
8
MCD_Layer_0
10
-2.333733
20
0.535194
30
0.0
11
-2.321924
21
0.503010
31
0.0
0
LINE
8
MCD_Layer_0
10
-2.321924
20
0.503010
30
0.0
11
-2.345541
21
0.434682
31
0.0
0
LINE
8
MCD_Layer_0
10
-2.015491
20
1.152018
30
0.0
11
-1.944139
21
1.085490
31
0.0
0
LINE
8
MCD_Layer_0
10
-1.944139
20
1.085490
30
0.0
11
-1.881428
21
1.425258
31
0.0
0
LINE
8
MCD_Layer_0
10
-1.881428
20
1.425258
30
0.0
11
-2.015491
21
1.152018
31
0.0
0
LINE
8
MCD_Layer_0
10
-1.853924
20
1.078434
30
0.0
11
-1.530572
21
1.220346
31
0.0
0
LINE
8
MCD_Layer_0
10
-1.530572
20
1.220346
30
0.0
11
-1.776164
21
1.500067
31
0.0
0
LINE
8
MCD_Layer_0
10
-1.776164
20
1.500067
30
0.0
11
-1.853924
21
1.078434
31
0.0
0
LINE
8
MCD_Layer_0
10
-1.764069
20
1.191834
30
0.0
11
-1.734836
21
1.350307
31
0.0
0
LINE
8
MCD_Layer_0
10
-1.734836
20
1.350307
30
0.0
11
-1.642532
21
1.245186
31
0.0
0
LINE
8
MCD_Layer_0
10
-1.642532
20
1.245186
30
0.0
11
-1.764069
21
1.191834
31
0.0
0
LINE
8
MCD_Layer_0
10
-2.072948
20
1.393003
30
0.0
11
-2.072948
21
1.813626
31
0.0
0
LINE
8
MCD_Layer_0
10
-1.971572
20
1.818090
30
0.0
11
-1.935572
21
1.724922
31
0.0
0
LINE
8
MCD_Layer_0
10
-1.935572
20
1.724922
30
0.0
11
-1.935572
21
1.673082
31
0.0
0
LINE
8
MCD_Layer_0
10
-1.935572
20
1.673082
30
0.0
11
-2.072948
21
1.393003
31
0.0
0
LINE
8
MCD_Layer_0
10
-1.935500
20
1.887066
30
0.0
11
-1.935500
21
3.089610
31
0.0
0
LINE
8
MCD_Layer_0
10
-2.076620
20
3.071538
30
0.0
11
-2.076620
21
3.036402
31
0.0
0
LINE
8
MCD_Layer_0
10
-2.076620
20
3.036402
30
0.0
11
-2.043788
21
3.036402
31
0.0
0
LINE
8
MCD_Layer_0
10
-2.043788
20
3.036402
30
0.0
11
-2.043788
21
2.832282
31
0.0
0
LINE
8
MCD_Layer_0
10
-2.043788
20
2.832282
30
0.0
11
-2.078421
21
2.832282
31
0.0
0
LINE
8
MCD_Layer_0
10
-2.078421
20
2.832282
30
0.0
11
-2.078421
21
2.124810
31
0.0
0
LINE
8
MCD_Layer_0
10
-2.078421
20
2.124810
30
0.0
11
-2.046452
21
2.124810
31
0.0
0
LINE
8
MCD_Layer_0
10
-2.046452
20
2.124810
30
0.0
11
-2.046452
21
1.956114
31
0.0
0
LINE
8
MCD_Layer_0
10
-2.046452
20
1.956114
30
0.0
11
-2.078421
21
1.956114
31
0.0
0
LINE
8
MCD_Layer_0
10
-2.078421
20
1.956114
30
0.0
11
-2.078421
21
1.881162
31
0.0
0
LINE
8
MCD_Layer_0
10
-1.263812
20
1.870363
30
0.0
11
-1.263812
21
2.086650
31
0.0
0
LINE
8
MCD_Layer_0
10
-1.263812
20
2.086650
30
0.0
11
-1.167980
21
2.073906
31
0.0
0
LINE
8
MCD_Layer_0
10
-1.167980
20
2.073906
30
0.0
11
-1.167980
21
1.862010
31
0.0
0
LINE
8
MCD_Layer_0
10
-1.069268
20
1.930482
30
0.0
11
-1.069268
21
1.975410
31
0.0
0
LINE
8
MCD_Layer_0
10
-1.069268
20
1.975410
30
0.0
11
-1.102316
21
1.975410
31
0.0
0
LINE
8
MCD_Layer_0
10
-1.102316
20
1.975410
30
0.0
11
-1.102316
21
2.081178
31
0.0
0
LINE
8
MCD_Layer_0
10
-1.130972
20
2.262762
30
0.0
11
-1.102172
21
2.262762
31
0.0
0
LINE
8
MCD_Layer_0
10
-1.102172
20
2.262762
30
0.0
11
-1.102172
21
2.480706
31
0.0
0
LINE
8
MCD_Layer_0
10
-1.102172
20
2.480706
30
0.0
11
-1.049684
21
2.480706
31
0.0
0
LINE
8
MCD_Layer_0
10
-1.049684
20
2.480706
30
0.0
11
-1.049684
21
2.261034
31
0.0
0
LINE
8
MCD_Layer_0
10
-1.049684
20
2.261034
30
0.0
11
-1.035788
21
2.261034
31
0.0
0
LINE
8
MCD_Layer_0
10
-1.035788
20
2.261034
30
0.0
11
-1.035788
21
2.079810
31
0.0
0
LINE
8
MCD_Layer_0
10
-1.035788
20
2.079810
30
0.0
11
-1.015484
21
2.079810
31
0.0
0
LINE
8
MCD_Layer_0
10
-0.790483
20
2.396106
30
0.0
11
-0.790483
21
2.760139
31
0.0
0
LINE
8
MCD_Layer_0
10
-0.790483
20
2.760139
30
0.0
11
-0.864572
21
2.777850
31
0.0
0
LINE
8
MCD_Layer_0
10
-0.864572
20
2.777850
30
0.0
11
-0.864572
21
2.880306
31
0.0
0
LINE
8
MCD_Layer_0
10
-1.167980
20
3.016674
30
0.0
11
-1.167980
21
2.795203
31
0.0
0
LINE
8
MCD_Layer_0
10
-1.167980
20
2.795203
30
0.0
11
-1.263812
21
2.810539
31
0.0
0
LINE
8
MCD_Layer_0
10
-1.263812
20
2.810539
30
0.0
11
-1.263812
21
3.050010
31
0.0
0
LINE
8
MCD_Layer_0
10
-1.263812
20
3.050010
30
0.0
11
-1.229396
21
3.050010
31
0.0
0
LINE
8
MCD_Layer_0
10
-1.229396
20
3.050010
30
0.0
11
-1.229396
21
3.073986
31
0.0
0
LINE
8
MCD_Layer_0
10
-1.710140
20
3.103650
30
0.0
11
-1.710140
21
1.889658
31
0.0
0
LINE
8
MCD_Layer_0
10
-1.710140
20
1.822194
30
0.0
11
-1.710140
21
1.663866
31
0.0
0
LINE
8
MCD_Layer_0
10
-1.710140
20
1.663866
30
0.0
11
-1.098860
21
0.967555
31
0.0
0
LINE
8
MCD_Layer_0
10
-1.098860
20
0.967555
30
0.0
11
-1.048892
21
1.109970
31
0.0
0
LINE
8
MCD_Layer_0
10
-1.022972
20
1.255554
30
0.0
11
-1.006196
21
1.304442
31
0.0
0
LINE
8
MCD_Layer_0
10
-1.006196
20
1.304442
30
0.0
11
-0.970196
21
1.314738
31
0.0
0
LINE
8
MCD_Layer_0
10
-0.970196
20
1.314738
30
0.0
11
-0.965084
21
1.380834
31
0.0
0
LINE
8
MCD_Layer_0
10
-0.965084
20
1.380834
30
0.0
11
-1.021964
21
1.425042
31
0.0
0
LINE
8
MCD_Layer_0
10
-1.021964
20
1.425042
30
0.0
11
-0.916267
21
1.636362
31
0.0
0
LINE
8
MCD_Layer_0
10
-0.916267
20
1.636362
30
0.0
11
-0.874220
21
1.636362
31
0.0
0
LINE
8
MCD_Layer_0
10
-0.818924
20
1.605618
30
0.0
11
-0.609332
21
1.605618
31
0.0
0
LINE
8
MCD_Layer_0
10
-0.023324
20
2.549394
30
0.0
11
-0.024764
21
2.604186
31
0.0
0
LINE
8
MCD_Layer_0
10
-0.024764
20
2.604186
30
0.0
11
-0.091724
21
2.603178
31
0.0
0
LINE
8
MCD_Layer_0
10
-0.091724
20
2.603178
30
0.0
11
-0.119444
21
2.570778
31
0.0
0
LINE
8
MCD_Layer_0
10
-0.119444
20
2.570778
30
0.0
11
-0.266180
21
2.566746
31
0.0
0
LINE
8
MCD_Layer_0
10
-0.266180
20
2.566746
30
0.0
11
-0.246380
21
2.591082
31
0.0
0
LINE
8
MCD_Layer_0
10
-0.246380
20
2.591082
30
0.0
11
-0.397220
21
2.577330
31
0.0
0
LINE
8
MCD_Layer_0
10
-0.965516
20
2.027107
30
0.0
11
-0.799844
21
2.027107
31
0.0
0
LINE
8
MCD_Layer_0
10
-0.799844
20
2.027107
30
0.0
11
-0.854708
21
1.956474
31
0.0
0
LINE
8
MCD_Layer_0
10
-0.854708
20
1.956474
30
0.0
11
-0.990067
21
1.956474
31
0.0
0
LINE
8
MCD_Layer_0
10
-0.728348
20
1.956474
30
0.0
11
-0.673052
21
2.027107
31
0.0
0
LINE
8
MCD_Layer_0
10
-0.673052
20
2.027107
30
0.0
11
-0.511772
21
2.027107
31
0.0
0
LINE
8
MCD_Layer_0
10
-0.540644
20
1.956474
30
0.0
11
-0.728348
21
1.956474
31
0.0
0
LINE
8
MCD_Layer_0
10
-0.722732
20
2.461123
30
0.0
11
-0.722732
21
2.813634
31
0.0
0
LINE
8
MCD_Layer_0
10
-0.722732
20
2.813634
30
0.0
11
-0.796820
21
2.831346
31
0.0
0
LINE
8
MCD_Layer_0
10
-0.796820
20
2.831346
30
0.0
11
-0.796820
21
2.864682
31
0.0
0
LINE
8
MCD_Layer_0
10
-0.176180
20
2.936394
30
0.0
11
-0.176180
21
2.807586
31
0.0
0
LINE
8
MCD_Layer_0
10
-0.176180
20
2.807586
30
0.0
11
-0.154076
21
2.807586
31
0.0
0
LINE
8
MCD_Layer_0
10
-0.154076
20
2.807586
30
0.0
11
-0.154076
21
2.640114
31
0.0
0
LINE
8
MCD_Layer_0
10
-0.154076
20
2.640114
30
0.0
11
-0.422132
21
2.640114
31
0.0
0
LINE
8
MCD_Layer_0
10
-0.086395
20
2.671506
30
0.0
11
-0.024764
21
2.672442
31
0.0
0
LINE
8
MCD_Layer_0
10
-0.024764
20
2.672442
30
0.0
11
-0.024764
21
2.807586
31
0.0
0
LINE
8
MCD_Layer_0
10
-0.024764
20
2.807586
30
0.0
11
0.009075
21
2.807586
31
0.0
0
LINE
8
MCD_Layer_0
10
0.009075
20
2.807586
30
0.0
11
0.009075
21
3.080539
31
0.0
0
LINE
8
MCD_Layer_0
10
-0.108500
20
2.995578
30
0.0
11
-0.108500
21
2.807586
31
0.0
0
LINE
8
MCD_Layer_0
10
-0.108500
20
2.807586
30
0.0
11
-0.086395
21
2.807586
31
0.0
0
LINE
8
MCD_Layer_0
10
-0.086395
20
2.807586
30
0.0
11
-0.086395
21
2.671506
31
0.0
0
LINE
8
MCD_Layer_0
10
0.042916
20
2.716075
30
0.0
11
0.099004
21
2.716075
31
0.0
0
LINE
8
MCD_Layer_0
10
0.099004
20
2.716075
30
0.0
11
0.099004
21
3.598650
31
0.0
0
LINE
8
MCD_Layer_0
10
0.099004
20
3.598650
30
0.0
11
0.098788
21
3.691890
31
0.0
0
LINE
8
MCD_Layer_0
10
0.098788
20
3.691890
30
0.0
11
0.078700
21
3.718314
31
0.0
0
LINE
8
MCD_Layer_0
10
0.078700
20
3.718314
30
0.0
11
0.078700
21
3.769650
31
0.0
0
LINE
8
MCD_Layer_0
10
0.078700
20
3.769650
30
0.0
11
-0.003092
21
3.804859
31
0.0
0
LINE
8
MCD_Layer_0
10
-0.003092
20
3.804859
30
0.0
11
-0.003092
21
3.680082
31
0.0
0
LINE
8
MCD_Layer_0
10
-0.003092
20
3.680082
30
0.0
11
-0.142196
21
3.767202
31
0.0
0
LINE
8
MCD_Layer_0
10
-0.142196
20
3.767202
30
0.0
11
-0.142196
21
3.956131
31
0.0
0
LINE
8
MCD_Layer_0
10
-0.142196
20
3.956131
30
0.0
11
-0.007771
21
3.882762
31
0.0
0
LINE
8
MCD_Layer_0
10
-0.007771
20
3.882762
30
0.0
11
0.032763
21
3.922146
31
0.0
0
LINE
8
MCD_Layer_0
10
0.032763
20
3.922146
30
0.0
11
0.222124
21
3.862027
31
0.0
0
LINE
8
MCD_Layer_0
10
0.222124
20
3.862027
30
0.0
11
0.222124
21
3.743227
31
0.0
0
LINE
8
MCD_Layer_0
10
0.222124
20
3.743227
30
0.0
11
0.189004
21
3.728611
31
0.0
0
LINE
8
MCD_Layer_0
10
0.189004
20
3.728611
30
0.0
11
0.189004
21
3.598650
31
0.0
0
LINE
8
MCD_Layer_0
10
0.189004
20
3.598650
30
0.0
11
0.189004
21
2.716075
31
0.0
0
LINE
8
MCD_Layer_0
10
0.189004
20
2.716075
30
0.0
11
0.288436
21
2.716075
31
0.0
0
LINE
8
MCD_Layer_0
10
0.288436
20
2.716075
30
0.0
11
0.288436
21
3.589867
31
0.0
0
LINE
8
MCD_Layer_0
10
0.314356
20
3.698298
30
0.0
11
0.338836
21
3.780954
31
0.0
0
LINE
8
MCD_Layer_0
10
0.456052
20
3.847483
30
0.0
11
0.544468
21
3.864330
31
0.0
0
LINE
8
MCD_Layer_0
10
0.544468
20
3.864330
30
0.0
11
0.544468
21
3.661651
31
0.0
0
LINE
8
MCD_Layer_0
10
0.544468
20
3.661651
30
0.0
11
0.378436
21
3.610530
31
0.0
0
LINE
8
MCD_Layer_0
10
0.378436
20
3.610530
30
0.0
11
0.378436
21
2.636298
31
0.0
0
LINE
8
MCD_Layer_0
10
0.042916
20
2.578554
30
0.0
11
0.042916
21
2.716075
31
0.0
0
LINE
8
MCD_Layer_0
10
-0.020156
20
3.363426
30
0.0
11
-0.020156
21
3.610890
31
0.0
0
LINE
8
MCD_Layer_0
10
-0.020156
20
3.610890
30
0.0
11
-0.209876
21
3.729763
31
0.0
0
LINE
8
MCD_Layer_0
10
-0.209876
20
3.729763
30
0.0
11
-0.209876
21
4.070178
31
0.0
0
LINE
8
MCD_Layer_0
10
-0.209876
20
4.070178
30
0.0
11
-0.020156
21
3.966570
31
0.0
0
LINE
8
MCD_Layer_0
10
-0.296492
20
4.221091
30
0.0
11
-0.296492
21
3.990331
31
0.0
0
LINE
8
MCD_Layer_0
10
-0.296492
20
3.990331
30
0.0
11
-0.385556
21
4.006602
31
0.0
0
LINE
8
MCD_Layer_0
10
-0.385556
20
4.006602
30
0.0
11
-0.385556
21
4.235130
31
0.0
0
LINE
8
MCD_Layer_0
10
-0.896108
20
4.214898
30
0.0
11
-0.896108
21
3.960306
31
0.0
0
LINE
8
MCD_Layer_0
10
-0.896108
20
3.960306
30
0.0
11
-0.989132
21
3.935826
31
0.0
0
LINE
8
MCD_Layer_0
10
-0.989132
20
3.935826
30
0.0
11
-0.989132
21
4.179763
31
0.0
0
LINE
8
MCD_Layer_0
10
-1.168484
20
4.002498
30
0.0
11
-1.168484
21
3.896010
31
0.0
0
LINE
8
MCD_Layer_0
10
-1.168484
20
3.896010
30
0.0
11
-1.140476
21
3.868938
31
0.0
0
LINE
8
MCD_Layer_0
10
-1.140476
20
3.868938
30
0.0
11
-1.140476
21
3.672810
31
0.0
0
LINE
8
MCD_Layer_0
10
-1.140476
20
3.672810
30
0.0
11
-1.154444
21
3.653730
31
0.0
0
LINE
8
MCD_Layer_0
10
-1.154444
20
3.653730
30
0.0
11
-1.154444
21
3.444859
31
0.0
0
LINE
8
MCD_Layer_0
10
-1.154444
20
3.444859
30
0.0
11
-1.132052
21
3.430531
31
0.0
0
LINE
8
MCD_Layer_0
10
-1.132052
20
3.430531
30
0.0
11
-1.132052
21
3.286458
31
0.0
0
LINE
8
MCD_Layer_0
10
-0.989132
20
3.375811
30
0.0
11
-0.989132
21
3.622698
31
0.0
0
LINE
8
MCD_Layer_0
10
-0.989132
20
3.622698
30
0.0
11
-0.896108
21
3.645163
31
0.0
0
LINE
8
MCD_Layer_0
10
-0.896108
20
3.645163
30
0.0
11
-0.896108
21
3.425490
31
0.0
0
LINE
8
MCD_Layer_0
10
-0.385556
20
3.477978
30
0.0
11
-0.385556
21
3.686563
31
0.0
0
LINE
8
MCD_Layer_0
10
-0.385556
20
3.686563
30
0.0
11
-0.296492
21
3.675186
31
0.0
0
LINE
8
MCD_Layer_0
10
-0.296492
20
3.675186
30
0.0
11
-0.296492
21
3.467034
31
0.0
0
LINE
8
MCD_Layer_0
10
0.446115
20
3.355218
30
0.0
11
0.446115
21
3.560562
31
0.0
0
LINE
8
MCD_Layer_0
10
0.446115
20
3.560562
30
0.0
11
0.612148
21
3.611682
31
0.0
0
LINE
8
MCD_Layer_0
10
0.612148
20
3.611682
30
0.0
11
0.612148
21
3.946122
31
0.0
0
LINE
8
MCD_Layer_0
10
0.612148
20
3.946122
30
0.0
11
0.443380
21
3.913938
31
0.0
0
LINE
8
MCD_Layer_0
10
0.304564
20
3.858499
30
0.0
11
0.304564
21
3.906882
31
0.0
0
LINE
8
MCD_Layer_0
10
0.304564
20
3.906882
30
0.0
11
0.191380
21
3.942738
31
0.0
0
LINE
8
MCD_Layer_0
10
0.745780
20
4.159170
30
0.0
11
0.745780
21
3.903211
31
0.0
0
LINE
8
MCD_Layer_0
10
0.745780
20
3.903211
30
0.0
11
0.834916
21
3.886939
31
0.0
0
LINE
8
MCD_Layer_0
10
0.834916
20
3.886939
30
0.0
11
0.834916
21
4.157443
31
0.0
0
LINE
8
MCD_Layer_0
10
1.161004
20
4.035114
30
0.0
11
1.159636
21
3.961963
31
0.0
0
LINE
8
MCD_Layer_0
10
1.159636
20
3.961963
30
0.0
11
1.141636
21
3.955698
31
0.0
0
LINE
8
MCD_Layer_0
10
1.141636
20
3.955698
30
0.0
11
1.141636
21
3.821419
31
0.0
0
LINE
8
MCD_Layer_0
10
1.141636
20
3.821419
30
0.0
11
1.153805
21
3.812058
31
0.0
0
LINE
8
MCD_Layer_0
10
1.153805
20
3.812058
30
0.0
11
1.153805
21
3.580938
31
0.0
0
LINE
8
MCD_Layer_0
10
1.153805
20
3.580938
30
0.0
11
1.135516
21
3.571578
31
0.0
0
LINE
8
MCD_Layer_0
10
1.135516
20
3.571578
30
0.0
11
1.135516
21
3.421602
31
0.0
0
LINE
8
MCD_Layer_0
10
1.135516
20
3.421602
30
0.0
11
1.167196
21
3.370050
31
0.0
0
LINE
8
MCD_Layer_0
10
0.834916
20
3.436362
30
0.0
11
0.834916
21
3.571795
31
0.0
0
LINE
8
MCD_Layer_0
10
0.834916
20
3.571795
30
0.0
11
0.745780
21
3.583170
31
0.0
0
LINE
8
MCD_Layer_0
10
0.745780
20
3.583170
30
0.0
11
0.745780
21
3.433123
31
0.0
0
LINE
8
MCD_Layer_0
10
0.446115
20
3.280554
30
0.0
11
0.446115
21
2.953675
31
0.0
0
LINE
8
MCD_Layer_0
10
0.559876
20
2.885202
30
0.0
11
0.559876
21
2.838978
31
0.0
0
LINE
8
MCD_Layer_0
10
0.559876
20
2.838978
30
0.0
11
0.534748
21
2.838978
31
0.0
0
LINE
8
MCD_Layer_0
10
0.534748
20
2.838978
30
0.0
11
0.534748
21
2.659266
31
0.0
0
LINE
8
MCD_Layer_0
10
0.534748
20
2.659266
30
0.0
11
0.559876
21
2.659266
31
0.0
0
LINE
8
MCD_Layer_0
10
0.559876
20
2.659266
30
0.0
11
0.559876
21
2.611026
31
0.0
0
LINE
8
MCD_Layer_0
10
0.446115
20
2.631546
30
0.0
11
0.446115
21
2.886066
31
0.0
0
LINE
8
MCD_Layer_0
10
0.603796
20
2.887434
30
0.0
11
0.603796
21
2.838978
31
0.0
0
LINE
8
MCD_Layer_0
10
0.603796
20
2.838978
30
0.0
11
0.624748
21
2.838978
31
0.0
0
LINE
8
MCD_Layer_0
10
0.624748
20
2.838978
30
0.0
11
0.624748
21
2.659266
31
0.0
0
LINE
8
MCD_Layer_0
10
0.624748
20
2.659266
30
0.0
11
0.603796
21
2.659266
31
0.0
0
LINE
8
MCD_Layer_0
10
0.603796
20
2.659266
30
0.0
11
0.603796
21
2.598714
31
0.0
0
LINE
8
MCD_Layer_0
10
0.666148
20
2.576826
30
0.0
11
0.785884
21
2.576826
31
0.0
0
LINE
8
MCD_Layer_0
10
0.785884
20
2.576826
30
0.0
11
0.785884
21
2.659266
31
0.0
0
LINE
8
MCD_Layer_0
10
0.785884
20
2.659266
30
0.0
11
0.760756
21
2.659266
31
0.0
0
LINE
8
MCD_Layer_0
10
0.760756
20
2.659266
30
0.0
11
0.760756
21
2.838978
31
0.0
0
LINE
8
MCD_Layer_0
10
0.760756
20
2.838978
30
0.0
11
0.785884
21
2.838978
31
0.0
0
LINE
8
MCD_Layer_0
10
0.785884
20
2.838978
30
0.0
11
0.785884
21
2.912274
31
0.0
0
LINE
8
MCD_Layer_0
10
0.951485
20
2.957778
30
0.0
11
0.951485
21
2.576826
31
0.0
0
LINE
8
MCD_Layer_0
10
0.951485
20
2.576826
30
0.0
11
0.829803
21
2.576826
31
0.0
0
LINE
8
MCD_Layer_0
10
0.829803
20
2.576826
30
0.0
11
0.829803
21
2.659266
31
0.0
0
LINE
8
MCD_Layer_0
10
0.829803
20
2.659266
30
0.0
11
0.850756
21
2.659266
31
0.0
0
LINE
8
MCD_Layer_0
10
0.850756
20
2.659266
30
0.0
11
0.850756
21
2.838978
31
0.0
0
LINE
8
MCD_Layer_0
10
0.850756
20
2.838978
30
0.0
11
0.829803
21
2.838978
31
0.0
0
LINE
8
MCD_Layer_0
10
0.829803
20
2.838978
30
0.0
11
0.829803
21
2.922138
31
0.0
0
LINE
8
MCD_Layer_0
10
1.019164
20
2.984346
30
0.0
11
1.019164
21
2.576826
31
0.0
0
LINE
8
MCD_Layer_0
10
1.019164
20
2.576826
30
0.0
11
1.191820
21
2.576826
31
0.0
0
LINE
8
MCD_Layer_0
10
1.191820
20
2.576826
30
0.0
11
1.191820
21
3.071322
31
0.0
0
LINE
8
MCD_Layer_0
10
1.212196
20
3.113082
30
0.0
11
1.259501
21
3.071322
31
0.0
0
LINE
8
MCD_Layer_0
10
1.259501
20
3.071322
30
0.0
11
1.259501
21
2.509146
31
0.0
0
LINE
8
MCD_Layer_0
10
1.259501
20
2.509146
30
0.0
11
0.801724
21
2.509146
31
0.0
0
LINE
8
MCD_Layer_0
10
1.311556
20
1.485378
30
0.0
11
1.336684
21
1.524978
31
0.0
0
LINE
8
MCD_Layer_0
10
1.336684
20
1.524978
30
0.0
11
1.336684
21
2.125314
31
0.0
0
LINE
8
MCD_Layer_0
10
1.336684
20
2.125314
30
0.0
11
1.244452
21
2.125314
31
0.0
0
LINE
8
MCD_Layer_0
10
1.244452
20
2.125314
30
0.0
11
1.244452
21
2.361763
31
0.0
0
LINE
8
MCD_Layer_0
10
1.244452
20
2.361763
30
0.0
11
1.289597
21
2.361763
31
0.0
0
LINE
8
MCD_Layer_0
10
1.289597
20
2.361763
30
0.0
11
1.289597
21
2.435347
31
0.0
0
LINE
8
MCD_Layer_0
10
1.289597
20
2.435347
30
0.0
11
1.336684
21
2.435347
31
0.0
0
LINE
8
MCD_Layer_0
10
1.336684
20
2.435347
30
0.0
11
1.336684
21
3.268098
31
0.0
0
LINE
8
MCD_Layer_0
10
1.336684
20
3.268098
30
0.0
11
1.222204
21
3.331890
31
0.0
0
LINE
8
MCD_Layer_0
10
1.222204
20
3.331890
30
0.0
11
1.202259
21
3.319074
31
0.0
0
LINE
8
MCD_Layer_0
10
1.221484
20
3.404682
30
0.0
11
1.296652
21
3.368754
31
0.0
0
LINE
8
MCD_Layer_0
10
1.575725
20
3.374227
30
0.0
11
1.722173
21
3.417714
31
0.0
0
LINE
8
MCD_Layer_0
10
1.722173
20
3.417714
30
0.0
11
1.722173
21
3.516859
31
0.0
0
LINE
8
MCD_Layer_0
10
1.722173
20
3.516859
30
0.0
11
1.221484
21
3.516859
31
0.0
0
LINE
8
MCD_Layer_0
10
1.221484
20
3.516859
30
0.0
11
1.221484
21
3.404682
31
0.0
0
LINE
8
MCD_Layer_0
10
1.221484
20
3.575107
30
0.0
11
1.221484
21
3.687283
31
0.0
0
LINE
8
MCD_Layer_0
10
1.221484
20
3.687283
30
0.0
11
1.296652
21
3.723210
31
0.0
0
LINE
8
MCD_Layer_0
10
1.575725
20
3.717738
30
0.0
11
1.722173
21
3.674251
31
0.0
0
LINE
8
MCD_Layer_0
10
1.722173
20
3.674251
30
0.0
11
1.722173
21
3.575107
31
0.0
0
LINE
8
MCD_Layer_0
10
1.722173
20
3.575107
30
0.0
11
1.221484
21
3.575107
31
0.0
0
LINE
8
MCD_Layer_0
10
1.487093
20
3.835818
30
0.0
11
1.487093
21
3.909834
31
0.0
0
LINE
8
MCD_Layer_0
10
1.487093
20
3.909834
30
0.0
11
1.468948
21
3.909834
31
0.0
0
LINE
8
MCD_Layer_0
10
1.468948
20
3.909834
30
0.0
11
1.468948
21
4.170331
31
0.0
0
LINE
8
MCD_Layer_0
10
1.468948
20
4.170331
30
0.0
11
1.414588
21
4.170331
31
0.0
0
LINE
8
MCD_Layer_0
10
1.414588
20
4.170331
30
0.0
11
1.414588
21
3.909834
31
0.0
0
LINE
8
MCD_Layer_0
10
1.414588
20
3.909834
30
0.0
11
1.397093
21
3.909834
31
0.0
0
LINE
8
MCD_Layer_0
10
1.397093
20
3.909834
30
0.0
11
1.397093
21
3.838842
31
0.0
0
LINE
8
MCD_Layer_0
10
1.404364
20
3.252330
30
0.0
11
1.404364
21
2.367666
31
0.0
0
LINE
8
MCD_Layer_0
10
1.404364
20
2.367666
30
0.0
11
1.363180
21
2.367666
31
0.0
0
LINE
8
MCD_Layer_0
10
1.363180
20
2.367666
30
0.0
11
1.363180
21
2.277523
31
0.0
0
LINE
8
MCD_Layer_0
10
1.363180
20
2.277523
30
0.0
11
1.314652
21
2.277523
31
0.0
0
LINE
8
MCD_Layer_0
10
1.314652
20
2.277523
30
0.0
11
1.314652
21
2.192994
31
0.0
0
LINE
8
MCD_Layer_0
10
1.314652
20
2.192994
30
0.0
11
1.404364
21
2.192994
31
0.0
0
LINE
8
MCD_Layer_0
10
1.404364
20
2.192994
30
0.0
11
1.404364
21
1.505322
31
0.0
0
LINE
8
MCD_Layer_0
10
1.404364
20
1.505322
30
0.0
11
1.287077
21
1.320354
31
0.0
0
LINE
8
MCD_Layer_0
10
1.057036
20
0.851922
30
0.0
11
1.084036
21
0.806922
31
0.0
0
LINE
8
MCD_Layer_0
10
1.084036
20
0.806922
30
0.0
11
0.914548
21
0.613890
31
0.0
0
LINE
8
MCD_Layer_0
10
0.914548
20
0.613890
30
0.0
11
0.922756
21
0.590202
31
0.0
0
LINE
8
MCD_Layer_0
10
0.922756
20
0.590202
30
0.0
11
0.894173
21
0.594378
31
0.0
0
LINE
8
MCD_Layer_0
10
0.894173
20
0.594378
30
0.0
11
0.772419
21
0.537786
31
0.0
0
LINE
8
MCD_Layer_0
10
0.920237
20
0.416106
30
0.0
11
0.957460
21
0.531738
31
0.0
0
LINE
8
MCD_Layer_0
10
0.957460
20
0.531738
30
0.0
11
0.957460
21
0.560970
31
0.0
0
LINE
8
MCD_Layer_0
10
0.957460
20
0.560970
30
0.0
11
0.983164
21
0.555714
31
0.0
0
LINE
8
MCD_Layer_0
10
0.983164
20
0.555714
30
0.0
11
1.132564
21
0.725922
31
0.0
0
LINE
8
MCD_Layer_0
10
1.132564
20
0.725922
30
0.0
11
1.270372
21
0.496098
31
0.0
0
LINE
8
MCD_Layer_0
10
1.270372
20
0.496098
30
0.0
11
1.375277
21
0.496098
31
0.0
0
LINE
8
MCD_Layer_0
10
1.375277
20
0.496098
30
0.0
11
1.194916
21
0.796914
31
0.0
0
LINE
8
MCD_Layer_0
10
1.194916
20
0.796914
30
0.0
11
1.404364
21
1.035450
31
0.0
0
LINE
8
MCD_Layer_0
10
1.404364
20
1.035450
30
0.0
11
1.404364
21
0.522882
31
0.0
0
LINE
8
MCD_Layer_0
10
1.404364
20
0.522882
30
0.0
11
1.494364
21
0.522882
31
0.0
0
LINE
8
MCD_Layer_0
10
1.494364
20
0.522882
30
0.0
11
1.494364
21
1.118322
31
0.0
0
LINE
8
MCD_Layer_0
10
1.494364
20
1.118322
30
0.0
11
1.887268
21
0.945810
31
0.0
0
LINE
8
MCD_Layer_0
10
1.887268
20
0.945810
30
0.0
11
1.981588
21
0.434106
31
0.0
0
LINE
8
MCD_Layer_0
10
1.981588
20
0.434106
30
0.0
11
1.999588
21
0.419490
31
0.0
0
LINE
8
MCD_Layer_0
10
1.999588
20
0.419490
30
0.0
11
1.984179
21
0.394722
31
0.0
0
LINE
8
MCD_Layer_0
10
1.984179
20
0.394722
30
0.0
11
1.971004
21
0.295794
31
0.0
0
LINE
8
MCD_Layer_0
10
2.113997
20
0.304794
30
0.0
11
2.081020
21
0.412722
31
0.0
0
LINE
8
MCD_Layer_0
10
2.081020
20
0.412722
30
0.0
11
2.061220
21
0.428490
31
0.0
0
LINE
8
MCD_Layer_0
10
2.061220
20
0.428490
30
0.0
11
2.070076
21
0.450450
31
0.0
0
LINE
8
MCD_Layer_0
10
2.070076
20
0.450450
30
0.0
11
2.002324
21
0.817578
31
0.0
0
LINE
8
MCD_Layer_0
10
2.002324
20
0.817578
30
0.0
11
2.211700
21
0.585954
31
0.0
0
LINE
8
MCD_Layer_0
10
2.211700
20
0.585954
30
0.0
11
2.264189
21
0.461178
31
0.0
0
LINE
8
MCD_Layer_0
10
2.264189
20
0.461178
30
0.0
11
2.281540
21
0.454050
31
0.0
0
LINE
8
MCD_Layer_0
10
2.281540
20
0.454050
30
0.0
11
2.278084
21
0.436266
31
0.0
0
LINE
8
MCD_Layer_0
10
2.278084
20
0.436266
30
0.0
11
2.288525
21
0.336834
31
0.0
0
LINE
8
MCD_Layer_0
10
2.406244
20
0.400194
30
0.0
11
2.353684
21
0.473778
31
0.0
0
LINE
8
MCD_Layer_0
10
2.353684
20
0.473778
30
0.0
11
2.338421
21
0.478026
31
0.0
0
LINE
8
MCD_Layer_0
10
2.338421
20
0.478026
30
0.0
11
2.340580
21
0.498546
31
0.0
0
LINE
8
MCD_Layer_0
10
2.340580
20
0.498546
30
0.0
11
1.881435
21
1.630314
31
0.0
0
LINE
8
MCD_Layer_0
10
1.881435
20
1.630314
30
0.0
11
1.881435
21
4.837411
31
0.0
0
LINE
8
MCD_Layer_0
10
1.881435
20
4.837411
30
0.0
11
1.827076
21
5.050170
31
0.0
0
LINE
8
MCD_Layer_0
10
1.827076
20
5.050170
30
0.0
11
1.911100
21
5.126706
31
0.0
0
LINE
8
MCD_Layer_0
10
1.571692
20
5.033107
30
0.0
11
1.744637
21
5.032747
31
0.0
0
LINE
8
MCD_Layer_0
10
1.744637
20
5.032747
30
0.0
11
1.791436
21
4.837411
31
0.0
0
LINE
8
MCD_Layer_0
10
1.791436
20
4.837411
30
0.0
11
1.791436
21
1.612746
31
0.0
0
LINE
8
MCD_Layer_0
10
1.791436
20
1.612746
30
0.0
11
1.600996
21
1.395810
31
0.0
0
LINE
8
MCD_Layer_0
10
1.600996
20
1.395810
30
0.0
11
1.494364
21
1.513818
31
0.0
0
LINE
8
MCD_Layer_0
10
1.494364
20
1.513818
30
0.0
11
1.494364
21
2.192994
31
0.0
0
LINE
8
MCD_Layer_0
10
1.494364
20
2.192994
30
0.0
11
1.539364
21
2.192994
31
0.0
0
LINE
8
MCD_Layer_0
10
1.539364
20
2.192994
30
0.0
11
1.539364
21
2.367666
31
0.0
0
LINE
8
MCD_Layer_0
10
1.539364
20
2.367666
30
0.0
11
1.494364
21
2.367666
31
0.0
0
LINE
8
MCD_Layer_0
10
1.494364
20
2.367666
30
0.0
11
1.494364
21
3.257658
31
0.0
0
LINE
8
MCD_Layer_0
10
1.562116
20
3.282354
30
0.0
11
1.562116
21
2.435347
31
0.0
0
LINE
8
MCD_Layer_0
10
1.562116
20
2.435347
30
0.0
11
1.606899
21
2.435347
31
0.0
0
LINE
8
MCD_Layer_0
10
1.606899
20
2.435347
30
0.0
11
1.606899
21
2.125314
31
0.0
0
LINE
8
MCD_Layer_0
10
1.606899
20
2.125314
30
0.0
11
1.562116
21
2.125314
31
0.0
0
LINE
8
MCD_Layer_0
10
1.562116
20
2.125314
30
0.0
11
1.562116
21
1.539810
31
0.0
0
LINE
8
MCD_Layer_0
10
1.562116
20
1.539810
30
0.0
11
1.600276
21
1.497546
31
0.0
0
LINE
8
MCD_Layer_0
10
1.600276
20
1.497546
30
0.0
11
1.723684
21
1.638162
31
0.0
0
LINE
8
MCD_Layer_0
10
1.723684
20
1.638162
30
0.0
11
1.723684
21
3.347514
31
0.0
0
LINE
8
MCD_Layer_0
10
1.723684
20
3.347514
30
0.0
11
1.609060
21
3.313458
31
0.0
0
LINE
8
MCD_Layer_0
10
1.723756
20
4.640131
30
0.0
11
1.723756
21
4.846194
31
0.0
0
LINE
8
MCD_Layer_0
10
1.675013
20
4.953907
30
0.0
11
1.552612
21
4.968306
31
0.0
0
LINE
8
MCD_Layer_0
10
1.963013
20
5.083507
30
0.0
11
1.930901
21
5.048731
31
0.0
0
LINE
8
MCD_Layer_0
10
1.949117
20
4.926763
30
0.0
11
1.949117
21
4.721994
31
0.0
0
LINE
8
MCD_Layer_0
10
-1.710140
20
4.665762
30
0.0
11
-1.710140
21
4.871827
31
0.0
0
LINE
8
MCD_Layer_0
10
-1.661396
20
4.979539
30
0.0
11
-1.538996
21
4.993939
31
0.0
0
LINE
8
MCD_Layer_0
10
-1.949396
20
5.109139
30
0.0
11
-1.917284
21
5.074363
31
0.0
0
LINE
8
MCD_Layer_0
10
-1.935500
20
4.952394
30
0.0
11
-1.935500
21
4.747626
31
0.0
0
LINE
8
MCD_Layer_0
10
-0.752612
20
1.280539
30
0.0
11
-0.557133
21
1.229346
31
0.0
0
LINE
8
MCD_Layer_0
10
-0.105908
20
0.634410
30
0.0
11
-0.827348
21
0.700074
31
0.0
0
LINE
8
MCD_Layer_0
10
-0.827348
20
0.700074
30
0.0
11
-0.921236
21
0.798786
31
0.0
0
LINE
8
MCD_Layer_0
10
-0.921236
20
0.798786
30
0.0
11
-0.752612
21
1.280539
31
0.0
0
LINE
8
MCD_Layer_0
10
1.404364
20
1.337274
30
0.0
11
1.130188
21
0.904914
31
0.0
0
LINE
8
MCD_Layer_0
10
1.130188
20
0.904914
30
0.0
11
1.146388
21
0.877986
31
0.0
0
LINE
8
MCD_Layer_0
10
1.146388
20
0.877986
30
0.0
11
1.404364
21
1.171818
31
0.0
0
LINE
8
MCD_Layer_0
10
1.404364
20
1.171818
30
0.0
11
1.404364
21
1.337274
31
0.0
0
LINE
8
MCD_Layer_0
10
1.494364
20
1.379610
30
0.0
11
1.541236
21
1.327770
31
0.0
0
LINE
8
MCD_Layer_0
10
1.541236
20
1.327770
30
0.0
11
1.494364
21
1.274346
31
0.0
0
LINE
8
MCD_Layer_0
10
1.494364
20
1.274346
30
0.0
11
1.494364
21
1.379610
31
0.0
0
LINE
8
MCD_Layer_0
10
1.661764
20
1.328634
30
0.0
11
1.789781
21
1.474434
31
0.0
0
LINE
8
MCD_Layer_0
10
1.789781
20
1.474434
30
0.0
11
1.856380
21
1.113354
31
0.0
0
LINE
8
MCD_Layer_0
10
1.856380
20
1.113354
30
0.0
11
1.661764
21
1.328634
31
0.0
0
LINE
8
MCD_Layer_0
10
1.602004
20
1.260522
30
0.0
11
1.544188
21
1.194714
31
0.0
0
LINE
8
MCD_Layer_0
10
1.544188
20
1.194714
30
0.0
11
1.738660
21
1.109322
31
0.0
0
LINE
8
MCD_Layer_0
10
1.738660
20
1.109322
30
0.0
11
1.602004
21
1.260522
31
0.0
0
LINE
8
MCD_Layer_0
10
1.899004
20
1.376226
30
0.0
11
1.969637
21
1.001034
31
0.0
0
LINE
8
MCD_Layer_0
10
1.969637
20
1.001034
30
0.0
11
2.108453
21
0.849546
31
0.0
0
LINE
8
MCD_Layer_0
10
2.108453
20
0.849546
30
0.0
11
1.899004
21
1.376226
31
0.0
0
LINE
8
MCD_Layer_0
10
1.336613
20
0.855594
30
0.0
11
1.278436
21
0.789354
31
0.0
0
LINE
8
MCD_Layer_0
10
1.278436
20
0.789354
30
0.0
11
1.336613
21
0.692442
31
0.0
0
LINE
8
MCD_Layer_0
10
1.336613
20
0.855594
30
0.0
11
1.336613
21
0.692442
31
0.0
0
LINE
8
MCD_Layer_0
10
23.469086
20
3.464402
30
0.0
11
9.350194
21
0.717448
31
0.0
0
LINE
8
MCD_Layer_0
10
10.608769
20
2.827149
30
0.0
11
23.212784
21
4.917977
31
0.0
0
LINE
8
MCD_Layer_0
10
23.994854
20
5.558412
30
0.0
11
24.503914
21
5.494336
31
0.0
0
LINE
8
MCD_Layer_0
10
24.308418
20
5.785310
30
0.0
11
24.328918
21
5.948346
31
0.0
0
LINE
8
MCD_Layer_0
10
24.902863
20
5.864133
30
0.0
11
24.887012
21
5.738065
31
0.0
0
LINE
8
MCD_Layer_0
10
24.629356
20
5.478580
30
0.0
11
25.273109
21
5.397534
31
0.0
0
LINE
8
MCD_Layer_0
10
25.078083
20
5.694480
30
0.0
11
25.098583
21
5.857516
31
0.0
0
LINE
8
MCD_Layer_0
10
25.672527
20
5.773301
30
0.0
11
25.656677
21
5.647233
31
0.0
0
LINE
8
MCD_Layer_0
10
25.398041
20
5.381791
30
0.0
11
26.041992
21
5.300780
31
0.0
0
LINE
8
MCD_Layer_0
10
25.847733
20
5.603749
30
0.0
11
25.868248
21
5.766688
31
0.0
0
LINE
8
MCD_Layer_0
10
26.442192
20
5.682473
30
0.0
11
26.426323
21
5.556504
31
0.0
0
LINE
8
MCD_Layer_0
10
26.166924
20
5.285035
30
0.0
11
26.810581
21
5.203975
31
0.0
0
LINE
8
MCD_Layer_0
10
26.617393
20
5.512921
30
0.0
11
26.637894
21
5.675958
31
0.0
0
LINE
8
MCD_Layer_0
10
27.211842
20
5.591743
30
0.0
11
27.195992
21
5.465674
31
0.0
0
LINE
8
MCD_Layer_0
10
26.936237
20
5.188153
30
0.0
11
27.578854
21
5.107213
31
0.0
0
LINE
8
MCD_Layer_0
10
27.387062
20
5.422093
30
0.0
11
27.407558
21
5.585128
31
0.0
0
LINE
8
MCD_Layer_0
10
27.981506
20
5.500913
30
0.0
11
27.965637
21
5.374946
31
0.0
0
LINE
8
MCD_Layer_0
10
27.705742
20
5.091304
30
0.0
11
28.346798
21
5.010598
31
0.0
0
LINE
8
MCD_Layer_0
10
28.156708
20
5.331361
30
0.0
11
28.177212
21
5.494399
31
0.0
0
LINE
8
MCD_Layer_0
10
28.751156
20
5.410184
30
0.0
11
28.735302
21
5.284116
31
0.0
0
LINE
8
MCD_Layer_0
10
28.475567
20
4.994412
30
0.0
11
28.575581
21
4.981788
31
0.0
0
LINE
8
MCD_Layer_0
10
28.606007
20
4.876573
30
0.0
11
23.978756
21
5.466014
31
0.0
0
LINE
8
MCD_Layer_0
10
23.493130
20
4.930144
30
0.0
11
24.294235
21
5.062972
31
0.0
0
LINE
8
MCD_Layer_0
10
24.465614
20
4.980174
30
0.0
11
23.237736
21
4.776462
31
0.0
0
LINE
8
MCD_Layer_0
10
23.237736
20
4.776462
30
0.0
11
23.241974
21
4.752431
31
0.0
0
LINE
8
MCD_Layer_0
10
23.241974
20
4.752431
30
0.0
11
23.118786
21
4.731217
31
0.0
0
LINE
8
MCD_Layer_0
10
23.118786
20
4.731217
30
0.0
11
23.114410
21
4.756034
31
0.0
0
LINE
8
MCD_Layer_0
10
23.114410
20
4.756034
30
0.0
11
21.989616
21
4.569484
31
0.0
0
LINE
8
MCD_Layer_0
10
21.989616
20
4.569484
30
0.0
11
21.995243
21
4.537576
31
0.0
0
LINE
8
MCD_Layer_0
10
21.995243
20
4.537576
30
0.0
11
21.902798
21
4.521681
31
0.0
0
LINE
8
MCD_Layer_0
10
21.902798
20
4.521681
30
0.0
11
21.897087
21
4.554081
31
0.0
0
LINE
8
MCD_Layer_0
10
21.897087
20
4.554081
30
0.0
11
20.874310
21
4.384400
31
0.0
0
LINE
8
MCD_Layer_0
10
20.874310
20
4.384400
30
0.0
11
20.881153
21
4.345599
31
0.0
0
LINE
8
MCD_Layer_0
10
20.881153
20
4.345599
30
0.0
11
20.788807
21
4.329721
31
0.0
0
LINE
8
MCD_Layer_0
10
20.788807
20
4.329721
30
0.0
11
20.781860
21
4.369113
31
0.0
0
LINE
8
MCD_Layer_0
10
20.781860
20
4.369113
30
0.0
11
19.857250
21
4.215727
31
0.0
0
LINE
8
MCD_Layer_0
10
19.857250
20
4.215727
30
0.0
11
19.865219
21
4.170524
31
0.0
0
LINE
8
MCD_Layer_0
10
19.865219
20
4.170524
30
0.0
11
19.772873
21
4.154647
31
0.0
0
LINE
8
MCD_Layer_0
10
19.772873
20
4.154647
30
0.0
11
19.764801
21
4.200441
31
0.0
0
LINE
8
MCD_Layer_0
10
19.764801
20
4.200441
30
0.0
11
18.874924
21
4.052772
31
0.0
0
LINE
8
MCD_Layer_0
10
18.874924
20
4.052772
30
0.0
11
18.883968
21
4.001464
31
0.0
0
LINE
8
MCD_Layer_0
10
18.883968
20
4.001464
30
0.0
11
18.791527
21
3.985569
31
0.0
0
LINE
8
MCD_Layer_0
10
18.791527
20
3.985569
30
0.0
11
18.782375
21
4.037469
31
0.0
0
LINE
8
MCD_Layer_0
10
18.782375
20
4.037469
30
0.0
11
17.927216
21
3.895616
31
0.0
0
LINE
8
MCD_Layer_0
10
17.927216
20
3.895616
30
0.0
11
17.937305
21
3.838400
31
0.0
0
LINE
8
MCD_Layer_0
10
17.937305
20
3.838400
30
0.0
11
17.844875
21
3.822407
31
0.0
0
LINE
8
MCD_Layer_0
10
17.844875
20
3.822407
30
0.0
11
17.834839
21
3.879328
31
0.0
0
LINE
8
MCD_Layer_0
10
17.834682
20
3.880214
30
0.0
11
17.071957
21
3.753747
31
0.0
0
LINE
8
MCD_Layer_0
10
17.071957
20
3.753747
30
0.0
11
17.082985
21
3.691213
31
0.0
0
LINE
8
MCD_Layer_0
10
17.082985
20
3.691213
30
0.0
11
16.990654
21
3.675237
31
0.0
0
LINE
8
MCD_Layer_0
10
16.990654
20
3.675237
30
0.0
11
16.979523
21
3.738362
31
0.0
0
LINE
8
MCD_Layer_0
10
16.979523
20
3.738362
30
0.0
11
16.262974
21
3.619530
31
0.0
0
LINE
8
MCD_Layer_0
10
16.262974
20
3.619530
30
0.0
11
16.274887
21
3.551972
31
0.0
0
LINE
8
MCD_Layer_0
10
16.274887
20
3.551972
30
0.0
11
16.182556
21
3.535996
31
0.0
0
LINE
8
MCD_Layer_0
10
16.182556
20
3.535996
30
0.0
11
16.170540
21
3.604145
31
0.0
0
LINE
8
MCD_Layer_0
10
16.170540
20
3.604145
30
0.0
11
15.488626
21
3.491014
31
0.0
0
LINE
8
MCD_Layer_0
10
15.488626
20
3.491014
30
0.0
11
15.501390
21
3.418630
31
0.0
0
LINE
8
MCD_Layer_0
10
15.501390
20
3.418630
30
0.0
11
15.409042
21
3.402754
31
0.0
0
LINE
8
MCD_Layer_0
10
15.409042
20
3.402754
30
0.0
11
15.396349
21
3.474742
31
0.0
0
LINE
8
MCD_Layer_0
10
15.396175
20
3.475726
30
0.0
11
14.772075
21
3.372178
31
0.0
0
LINE
8
MCD_Layer_0
10
14.772075
20
3.372178
30
0.0
11
14.785637
21
3.295266
31
0.0
0
LINE
8
MCD_Layer_0
10
14.785637
20
3.295266
30
0.0
11
14.693292
21
3.279389
31
0.0
0
LINE
8
MCD_Layer_0
10
14.693292
20
3.279389
30
0.0
11
14.679626
21
3.356893
31
0.0
0
LINE
8
MCD_Layer_0
10
14.679626
20
3.356893
30
0.0
11
14.067064
21
3.255279
31
0.0
0
LINE
8
MCD_Layer_0
10
14.067064
20
3.255279
30
0.0
11
14.081408
21
3.173935
31
0.0
0
LINE
8
MCD_Layer_0
10
14.081408
20
3.173935
30
0.0
11
13.989061
21
3.158058
31
0.0
0
LINE
8
MCD_Layer_0
10
13.989061
20
3.158058
30
0.0
11
13.974631
21
3.239895
31
0.0
0
LINE
8
MCD_Layer_0
10
13.974631
20
3.239895
30
0.0
11
13.419884
21
3.147866
31
0.0
0
LINE
8
MCD_Layer_0
10
13.419884
20
3.147866
30
0.0
11
13.434922
21
3.062582
31
0.0
0
LINE
8
MCD_Layer_0
10
13.434922
20
3.062582
30
0.0
11
13.342575
21
3.046706
31
0.0
0
LINE
8
MCD_Layer_0
10
13.342575
20
3.046706
30
0.0
11
13.327434
21
3.132581
31
0.0
0
LINE
8
MCD_Layer_0
10
13.327434
20
3.132581
30
0.0
11
12.847770
21
3.052979
31
0.0
0
LINE
8
MCD_Layer_0
10
12.847770
20
3.052979
30
0.0
11
12.863433
21
2.964149
31
0.0
0
LINE
8
MCD_Layer_0
10
12.863433
20
2.964149
30
0.0
11
12.771104
21
2.948174
31
0.0
0
LINE
8
MCD_Layer_0
10
12.771104
20
2.948174
30
0.0
11
12.755337
21
3.037594
31
0.0
0
LINE
8
MCD_Layer_0
10
12.755337
20
3.037594
30
0.0
11
12.258386
21
2.955249
31
0.0
0
LINE
8
MCD_Layer_0
10
12.258386
20
2.955249
30
0.0
11
12.274709
21
2.862677
31
0.0
0
LINE
8
MCD_Layer_0
10
12.274709
20
2.862677
30
0.0
11
12.182364
21
2.846800
31
0.0
0
LINE
8
MCD_Layer_0
10
12.182364
20
2.846800
30
0.0
11
12.165954
21
2.939863
31
0.0
0
LINE
8
MCD_Layer_0
10
12.165954
20
2.939863
30
0.0
11
11.703639
21
2.863219
31
0.0
0
LINE
8
MCD_Layer_0
10
11.703639
20
2.863219
30
0.0
11
11.720570
21
2.767200
31
0.0
0
LINE
8
MCD_Layer_0
10
11.720570
20
2.767200
30
0.0
11
11.628241
21
2.751225
31
0.0
0
LINE
8
MCD_Layer_0
10
11.628241
20
2.751225
30
0.0
11
11.611205
21
2.847835
31
0.0
0
LINE
8
MCD_Layer_0
10
11.611205
20
2.847835
30
0.0
11
11.171988
21
2.774958
31
0.0
0
LINE
8
MCD_Layer_0
10
11.171988
20
2.774958
30
0.0
11
11.189491
21
2.675691
31
0.0
0
LINE
8
MCD_Layer_0
10
11.189491
20
2.675691
30
0.0
11
11.097163
21
2.659716
31
0.0
0
LINE
8
MCD_Layer_0
10
11.097163
20
2.659716
30
0.0
11
11.079538
21
2.759671
31
0.0
0
LINE
8
MCD_Layer_0
10
11.079538
20
2.759671
30
0.0
11
10.675056
21
2.692513
31
0.0
0
LINE
8
MCD_Layer_0
10
10.675056
20
2.692513
30
0.0
11
10.693114
21
2.590094
31
0.0
0
LINE
8
MCD_Layer_0
10
10.693114
20
2.590094
30
0.0
11
10.600768
21
2.574218
31
0.0
0
LINE
8
MCD_Layer_0
10
10.600768
20
2.574218
30
0.0
11
10.582604
21
2.677227
31
0.0
0
LINE
8
MCD_Layer_0
10
10.582604
20
2.677227
30
0.0
11
10.224280
21
2.617803
31
0.0
0
LINE
8
MCD_Layer_0
10
10.224280
20
2.617803
30
0.0
11
10.242844
21
2.512527
31
0.0
0
LINE
8
MCD_Layer_0
10
10.242844
20
2.512527
30
0.0
11
10.150497
21
2.496650
31
0.0
0
LINE
8
MCD_Layer_0
10
10.150497
20
2.496650
30
0.0
11
10.131847
21
2.602418
31
0.0
0
LINE
8
MCD_Layer_0
10
10.131847
20
2.602418
30
0.0
11
9.785161
21
2.544944
31
0.0
0
LINE
8
MCD_Layer_0
10
9.785161
20
2.544944
30
0.0
11
9.804193
21
2.437009
31
0.0
0
LINE
8
MCD_Layer_0
10
9.804193
20
2.437009
30
0.0
11
9.711766
21
2.421015
31
0.0
0
LINE
8
MCD_Layer_0
10
9.711766
20
2.421015
30
0.0
11
9.692630
21
2.529541
31
0.0
0
LINE
8
MCD_Layer_0
10
9.692630
20
2.529541
30
0.0
11
9.357483
21
2.474000
31
0.0
0
LINE
8
MCD_Layer_0
10
9.357483
20
2.474000
30
0.0
11
9.376984
21
2.363406
31
0.0
0
LINE
8
MCD_Layer_0
10
9.376984
20
2.363406
30
0.0
11
9.284655
21
2.347430
31
0.0
0
LINE
8
MCD_Layer_0
10
9.284655
20
2.347430
30
0.0
11
9.265050
21
2.458615
31
0.0
0
LINE
8
MCD_Layer_0
10
9.265050
20
2.458615
30
0.0
11
8.976177
21
2.410726
31
0.0
0
LINE
8
MCD_Layer_0
10
8.976177
20
2.410726
30
0.0
11
8.996095
21
2.297769
31
0.0
0
LINE
8
MCD_Layer_0
10
8.996095
20
2.297769
30
0.0
11
8.903667
21
2.281775
31
0.0
0
LINE
8
MCD_Layer_0
10
8.903667
20
2.281775
30
0.0
11
8.883628
21
2.395423
31
0.0
0
LINE
8
MCD_Layer_0
10
8.883628
20
2.395423
30
0.0
11
8.629392
21
2.353233
31
0.0
0
LINE
8
MCD_Layer_0
10
8.629392
20
2.353233
30
0.0
11
8.649709
21
2.238011
31
0.0
0
LINE
8
MCD_Layer_0
10
8.649709
20
2.238011
30
0.0
11
8.557363
21
2.222135
31
0.0
0
LINE
8
MCD_Layer_0
10
8.557363
20
2.222135
30
0.0
11
8.536959
21
2.337849
31
0.0
0
LINE
8
MCD_Layer_0
10
8.536959
20
2.337849
30
0.0
11
8.279850
21
2.295256
31
0.0
0
LINE
8
MCD_Layer_0
10
8.448524
20
0.743774
30
0.0
11
28.163780
21
4.579467
31
0.0
0
LINE
8
MCD_Layer_0
10
28.307529
20
4.527844
30
0.0
11
23.717960
21
3.634908
31
0.0
0
LINE
8
MCD_Layer_0
10
23.717960
20
3.634908
30
0.0
11
23.723534
21
3.603295
31
0.0
0
LINE
8
MCD_Layer_0
10
28.241196
20
5.340571
30
0.0
11
28.256191
21
5.459382
31
0.0
0
LINE
8
MCD_Layer_0
10
28.674606
20
5.406638
30
0.0
11
28.659611
21
5.287827
31
0.0
0
LINE
8
MCD_Layer_0
10
27.471546
20
5.431302
30
0.0
11
27.486542
21
5.550111
31
0.0
0
LINE
8
MCD_Layer_0
10
27.904942
20
5.497466
30
0.0
11
27.889942
21
5.378655
31
0.0
0
LINE
8
MCD_Layer_0
10
26.701881
20
5.522130
30
0.0
11
26.716877
21
5.640941
31
0.0
0
LINE
8
MCD_Layer_0
10
27.135277
20
5.588296
30
0.0
11
27.120277
21
5.469487
31
0.0
0
LINE
8
MCD_Layer_0
10
25.932217
20
5.612962
30
0.0
11
25.947212
21
5.731771
31
0.0
0
LINE
8
MCD_Layer_0
10
26.365627
20
5.679027
30
0.0
11
26.350632
21
5.560216
31
0.0
0
LINE
8
MCD_Layer_0
10
26.777744
20
4.708343
30
0.0
11
23.360626
21
4.079513
31
0.0
0
LINE
8
MCD_Layer_0
10
23.360626
20
4.079513
30
0.0
11
23.374256
21
4.002205
31
0.0
0
LINE
8
MCD_Layer_0
10
23.374256
20
4.002205
30
0.0
11
23.251434
21
3.978923
31
0.0
0
LINE
8
MCD_Layer_0
10
23.251434
20
3.978923
30
0.0
11
23.237682
21
4.056919
31
0.0
0
LINE
8
MCD_Layer_0
10
23.237682
20
4.056919
30
0.0
11
22.116379
21
3.850574
31
0.0
0
LINE
8
MCD_Layer_0
10
22.116379
20
3.850574
30
0.0
11
22.131157
21
3.766767
31
0.0
0
LINE
8
MCD_Layer_0
10
22.131157
20
3.766767
30
0.0
11
22.038990
21
3.749296
31
0.0
0
LINE
8
MCD_Layer_0
10
22.038990
20
3.749296
30
0.0
11
22.024128
21
3.833596
31
0.0
0
LINE
8
MCD_Layer_0
10
22.024128
20
3.833596
30
0.0
11
21.004528
21
3.645893
31
0.0
0
LINE
8
MCD_Layer_0
10
21.004528
20
3.645893
30
0.0
11
21.020313
21
3.556375
31
0.0
0
LINE
8
MCD_Layer_0
10
21.020313
20
3.556375
30
0.0
11
20.928246
21
3.538921
31
0.0
0
LINE
8
MCD_Layer_0
10
20.928246
20
3.538921
30
0.0
11
20.912376
21
3.628933
31
0.0
0
LINE
8
MCD_Layer_0
10
20.912376
20
3.628933
30
0.0
11
19.990631
21
3.459296
31
0.0
0
LINE
8
MCD_Layer_0
10
19.990631
20
3.459296
30
0.0
11
20.007336
21
3.364558
31
0.0
0
LINE
8
MCD_Layer_0
10
20.007336
20
3.364558
30
0.0
11
19.915268
21
3.347104
31
0.0
0
LINE
8
MCD_Layer_0
10
19.915268
20
3.347104
30
0.0
11
19.898476
21
3.442337
31
0.0
0
LINE
8
MCD_Layer_0
10
19.898476
20
3.442337
30
0.0
11
19.011341
21
3.279107
31
0.0
0
LINE
8
MCD_Layer_0
10
19.011341
20
3.279107
30
0.0
11
19.028950
21
3.179248
31
0.0
0
LINE
8
MCD_Layer_0
10
19.028950
20
3.179248
30
0.0
11
18.936783
21
3.161777
31
0.0
0
LINE
8
MCD_Layer_0
10
18.936783
20
3.161777
30
0.0
11
18.919086
21
3.262130
31
0.0
0
LINE
8
MCD_Layer_0
10
18.919086
20
3.262130
30
0.0
11
18.066566
21
3.105308
31
0.0
0
LINE
8
MCD_Layer_0
10
18.066566
20
3.105308
30
0.0
11
18.085045
21
3.000525
31
0.0
0
LINE
8
MCD_Layer_0
10
18.085045
20
3.000525
30
0.0
11
17.992878
21
2.983054
31
0.0
0
LINE
8
MCD_Layer_0
10
17.992878
20
2.983054
30
0.0
11
17.974316
21
3.088330
31
0.0
0
LINE
8
MCD_Layer_0
10
17.974316
20
3.088330
30
0.0
11
17.213966
21
2.948372
31
0.0
0
LINE
8
MCD_Layer_0
10
17.213966
20
2.948372
30
0.0
11
17.233223
21
2.839156
31
0.0
0
LINE
8
MCD_Layer_0
10
17.233223
20
2.839156
30
0.0
11
17.141155
21
2.821704
31
0.0
0
LINE
8
MCD_Layer_0
10
17.141155
20
2.821704
30
0.0
11
17.121811
21
2.931412
31
0.0
0
LINE
8
MCD_Layer_0
10
17.121811
20
2.931412
30
0.0
11
16.407486
21
2.799973
31
0.0
0
LINE
8
MCD_Layer_0
10
16.407486
20
2.799973
30
0.0
11
16.427471
21
2.686622
31
0.0
0
LINE
8
MCD_Layer_0
10
16.427471
20
2.686622
30
0.0
11
16.335403
21
2.669168
31
0.0
0
LINE
8
MCD_Layer_0
10
16.335403
20
2.669168
30
0.0
11
16.315331
21
2.783012
31
0.0
0
LINE
8
MCD_Layer_0
10
16.315331
20
2.783012
30
0.0
11
15.635533
21
2.657865
31
0.0
0
LINE
8
MCD_Layer_0
10
15.635533
20
2.657865
30
0.0
11
15.656232
21
2.540477
31
0.0
0
LINE
8
MCD_Layer_0
10
15.656232
20
2.540477
30
0.0
11
15.564145
21
2.523123
31
0.0
0
LINE
8
MCD_Layer_0
10
15.564145
20
2.523123
30
0.0
11
15.543256
21
2.641594
31
0.0
0
LINE
8
MCD_Layer_0
10
15.543378
20
2.640905
30
0.0
11
14.921204
21
2.526427
31
0.0
0
LINE
8
MCD_Layer_0
10
14.921204
20
2.526427
30
0.0
11
14.942545
21
2.405394
31
0.0
0
LINE
8
MCD_Layer_0
10
14.942545
20
2.405394
30
0.0
11
14.850478
21
2.387940
31
0.0
0
LINE
8
MCD_Layer_0
10
14.850478
20
2.387940
30
0.0
11
14.829050
21
2.509467
31
0.0
0
LINE
8
MCD_Layer_0
10
14.829050
20
2.509467
30
0.0
11
14.218381
21
2.397120
31
0.0
0
LINE
8
MCD_Layer_0
10
14.218381
20
2.397120
30
0.0
11
14.240382
21
2.272344
31
0.0
0
LINE
8
MCD_Layer_0
10
14.240382
20
2.272344
30
0.0
11
14.148314
21
2.254889
31
0.0
0
LINE
8
MCD_Layer_0
10
14.148314
20
2.254889
30
0.0
11
14.126225
21
2.380158
31
0.0
0
LINE
8
MCD_Layer_0
10
14.126225
20
2.380158
30
0.0
11
13.573198
21
2.278380
31
0.0
0
LINE
8
MCD_Layer_0
10
13.573198
20
2.278380
30
0.0
11
13.595790
21
2.150256
31
0.0
0
LINE
8
MCD_Layer_0
10
13.595790
20
2.150256
30
0.0
11
13.503704
21
2.132901
31
0.0
0
LINE
8
MCD_Layer_0
10
13.503704
20
2.132901
30
0.0
11
13.481043
21
2.261420
31
0.0
0
LINE
8
MCD_Layer_0
10
13.481043
20
2.261420
30
0.0
11
13.002854
21
2.173447
31
0.0
0
LINE
8
MCD_Layer_0
10
13.002854
20
2.173447
30
0.0
11
13.025968
21
2.042368
31
0.0
0
LINE
8
MCD_Layer_0
10
13.025968
20
2.042368
30
0.0
11
12.933899
21
2.024916
31
0.0
0
LINE
8
MCD_Layer_0
10
12.933899
20
2.024916
30
0.0
11
12.910700
21
2.156487
31
0.0
0
LINE
8
MCD_Layer_0
10
12.910700
20
2.156487
30
0.0
11
12.415312
21
2.065277
31
0.0
0
LINE
8
MCD_Layer_0
10
12.415312
20
2.065277
30
0.0
11
12.438945
21
1.931245
31
0.0
0
LINE
8
MCD_Layer_0
10
12.438945
20
1.931245
30
0.0
11
12.346877
21
1.913793
31
0.0
0
LINE
8
MCD_Layer_0
10
12.346877
20
1.913793
30
0.0
11
12.323157
21
2.048318
31
0.0
0
LINE
8
MCD_Layer_0
10
12.323157
20
2.048318
30
0.0
11
11.862284
21
1.963498
31
0.0
0
LINE
8
MCD_Layer_0
10
11.862284
20
1.963498
30
0.0
11
11.886421
21
1.826611
31
0.0
0
LINE
8
MCD_Layer_0
10
11.886421
20
1.826611
30
0.0
11
11.794353
21
1.809158
31
0.0
0
LINE
8
MCD_Layer_0
10
11.794353
20
1.809158
30
0.0
11
11.770128
21
1.946538
31
0.0
0
LINE
8
MCD_Layer_0
10
11.770128
20
1.946538
30
0.0
11
11.332265
21
1.865979
31
0.0
0
LINE
8
MCD_Layer_0
10
11.332265
20
1.865979
30
0.0
11
11.356889
21
1.726334
31
0.0
0
LINE
8
MCD_Layer_0
10
11.356889
20
1.726334
30
0.0
11
11.264821
21
1.708881
31
0.0
0
LINE
8
MCD_Layer_0
10
11.264821
20
1.708881
30
0.0
11
11.240110
21
1.849021
31
0.0
0
LINE
8
MCD_Layer_0
10
11.240110
20
1.849021
30
0.0
11
10.836861
21
1.774870
31
0.0
0
LINE
8
MCD_Layer_0
10
10.836861
20
1.774870
30
0.0
11
10.861953
21
1.632566
31
0.0
0
LINE
8
MCD_Layer_0
10
10.861953
20
1.632566
30
0.0
11
10.769884
21
1.615113
31
0.0
0
LINE
8
MCD_Layer_0
10
10.769884
20
1.615113
30
0.0
11
10.744705
21
1.757910
31
0.0
0
LINE
8
MCD_Layer_0
10
10.744705
20
1.757910
30
0.0
11
10.387492
21
1.692182
31
0.0
0
LINE
8
MCD_Layer_0
10
10.387492
20
1.692182
30
0.0
11
10.413002
21
1.547514
31
0.0
0
LINE
8
MCD_Layer_0
10
10.413002
20
1.547514
30
0.0
11
10.320933
21
1.530063
31
0.0
0
LINE
8
MCD_Layer_0
10
10.320933
20
1.530063
30
0.0
11
10.295338
21
1.675221
31
0.0
0
LINE
8
MCD_Layer_0
10
10.295338
20
1.675221
30
0.0
11
9.949744
21
1.611543
31
0.0
0
LINE
8
MCD_Layer_0
10
9.949744
20
1.611543
30
0.0
11
9.975636
21
1.464707
31
0.0
0
LINE
8
MCD_Layer_0
10
9.975636
20
1.464707
30
0.0
11
9.883469
21
1.447238
31
0.0
0
LINE
8
MCD_Layer_0
10
9.883469
20
1.447238
30
0.0
11
9.857491
21
1.594565
31
0.0
0
LINE
8
MCD_Layer_0
10
9.857491
20
1.594565
30
0.0
11
9.523387
21
1.533114
31
0.0
0
LINE
8
MCD_Layer_0
10
9.523387
20
1.533114
30
0.0
11
9.549677
21
1.384016
31
0.0
0
LINE
8
MCD_Layer_0
10
9.549677
20
1.384016
30
0.0
11
9.457608
21
1.366563
31
0.0
0
LINE
8
MCD_Layer_0
10
9.457608
20
1.366563
30
0.0
11
9.431231
21
1.516154
31
0.0
0
LINE
8
MCD_Layer_0
10
9.431231
20
1.516154
30
0.0
11
9.143262
21
1.463144
31
0.0
0
LINE
8
MCD_Layer_0
10
9.143262
20
1.463144
30
0.0
11
9.169899
21
1.312074
31
0.0
0
LINE
8
MCD_Layer_0
10
9.169899
20
1.312074
30
0.0
11
9.077715
21
1.294703
31
0.0
0
LINE
8
MCD_Layer_0
10
9.077715
20
1.294703
30
0.0
11
9.051007
21
1.446167
31
0.0
0
LINE
8
MCD_Layer_0
10
9.051007
20
1.446167
30
0.0
11
8.797552
21
1.399547
31
0.0
0
LINE
8
MCD_Layer_0
10
8.797552
20
1.399547
30
0.0
11
8.824503
21
1.246703
31
0.0
0
LINE
8
MCD_Layer_0
10
8.824503
20
1.246703
30
0.0
11
8.732434
21
1.229251
31
0.0
0
LINE
8
MCD_Layer_0
10
8.732434
20
1.229251
30
0.0
11
8.705398
21
1.382586
31
0.0
0
LINE
8
MCD_Layer_0
10
7.985375
20
1.250043
30
0.0
11
8.013055
21
1.093064
31
0.0
0
LINE
8
MCD_Layer_0
10
8.013055
20
1.093064
30
0.0
11
7.920888
21
1.075594
31
0.0
0
LINE
8
MCD_Layer_0
10
7.920888
20
1.075594
30
0.0
11
7.893122
21
1.233065
31
0.0
0
LINE
8
MCD_Layer_0
10
7.893122
20
1.233065
30
0.0
11
7.679400
21
1.193755
31
0.0
0
LINE
8
MCD_Layer_0
10
7.450728
20
1.151708
30
0.0
11
7.236416
21
1.112293
31
0.0
0
LINE
8
MCD_Layer_0
10
7.236416
20
1.112293
30
0.0
11
7.264791
21
0.951376
31
0.0
0
LINE
8
MCD_Layer_0
10
7.264791
20
0.951376
30
0.0
11
7.172624
21
0.933907
31
0.0
0
LINE
8
MCD_Layer_0
10
7.172624
20
0.933907
30
0.0
11
7.144163
21
1.095316
31
0.0
0
LINE
8
MCD_Layer_0
10
7.144163
20
1.095316
30
0.0
11
6.055521
21
0.894930
31
0.0
0
LINE
8
MCD_Layer_0
10
6.055521
20
0.894930
30
0.0
11
6.084972
21
0.727907
31
0.0
0
LINE
8
MCD_Layer_0
10
6.084972
20
0.727907
30
0.0
11
5.992805
21
0.710438
31
0.0
0
LINE
8
MCD_Layer_0
10
5.992805
20
0.710438
30
0.0
11
5.963267
21
0.877954
31
0.0
0
LINE
8
MCD_Layer_0
10
5.963267
20
0.877954
30
0.0
11
5.743655
21
0.837503
31
0.0
0
LINE
8
MCD_Layer_0
10
5.526979
20
0.797672
30
0.0
11
5.306579
21
0.757085
31
0.0
0
LINE
8
MCD_Layer_0
10
5.306579
20
0.757085
30
0.0
11
5.336707
21
0.586221
31
0.0
0
LINE
8
MCD_Layer_0
10
5.336707
20
0.586221
30
0.0
11
5.244541
21
0.568750
31
0.0
0
LINE
8
MCD_Layer_0
10
5.244541
20
0.568750
30
0.0
11
5.214326
21
0.740107
31
0.0
0
LINE
8
MCD_Layer_0
10
5.214326
20
0.740107
30
0.0
11
4.214375
21
0.556172
31
0.0
0
LINE
8
MCD_Layer_0
10
4.214375
20
0.556172
30
0.0
11
4.211129
21
0.373027
31
0.0
0
LINE
8
MCD_Layer_0
10
4.211129
20
0.373027
30
0.0
11
4.117090
21
0.355227
31
0.0
0
LINE
8
MCD_Layer_0
10
4.117090
20
0.355227
30
0.0
11
4.120268
21
0.538767
31
0.0
0
LINE
8
MCD_Layer_0
10
4.120268
20
0.538767
30
0.0
11
3.897684
21
0.497894
31
0.0
0
LINE
8
MCD_Layer_0
10
3.701376
20
0.461757
30
0.0
11
3.450285
21
0.415553
31
0.0
0
LINE
8
MCD_Layer_0
10
3.450285
20
0.415553
30
0.0
11
3.447043
21
0.228347
31
0.0
0
LINE
8
MCD_Layer_0
10
3.447043
20
0.228347
30
0.0
11
3.352907
21
0.210530
31
0.0
0
LINE
8
MCD_Layer_0
10
3.352907
20
0.210530
30
0.0
11
3.356276
21
0.398165
31
0.0
0
LINE
8
MCD_Layer_0
10
3.356276
20
0.398165
30
0.0
11
2.954404
21
0.324258
31
0.0
0
LINE
8
MCD_Layer_0
10
2.954404
20
0.324258
30
0.0
11
2.986685
21
0.141182
31
0.0
0
LINE
8
MCD_Layer_0
10
2.986685
20
0.141182
30
0.0
11
2.894617
21
0.123730
31
0.0
0
LINE
8
MCD_Layer_0
10
2.894617
20
0.123730
30
0.0
11
2.862249
21
0.307298
31
0.0
0
LINE
8
MCD_Layer_0
10
2.862249
20
0.307298
30
0.0
11
2.691218
21
0.275820
31
0.0
0
LINE
8
MCD_Layer_0
10
2.769349
20
0.385554
30
0.0
11
3.663555
21
0.550133
31
0.0
0
LINE
8
MCD_Layer_0
10
3.901665
20
0.593945
30
0.0
11
5.503617
21
0.888700
31
0.0
0
LINE
8
MCD_Layer_0
10
5.733078
20
0.930886
30
0.0
11
7.439167
21
1.244917
31
0.0
0
LINE
8
MCD_Layer_0
10
7.656926
20
1.284937
30
0.0
11
8.847553
21
1.504118
31
0.0
0
LINE
8
MCD_Layer_0
10
8.772658
20
1.585650
30
0.0
11
8.672838
21
1.567237
31
0.0
0
LINE
8
MCD_Layer_0
10
8.672838
20
1.567237
30
0.0
11
8.648857
21
1.703239
31
0.0
0
LINE
8
MCD_Layer_0
10
7.928123
20
1.574733
30
0.0
11
7.952816
21
1.434693
31
0.0
0
LINE
8
MCD_Layer_0
10
7.952816
20
1.434693
30
0.0
11
7.860563
21
1.417716
31
0.0
0
LINE
8
MCD_Layer_0
10
7.860563
20
1.417716
30
0.0
11
7.835783
21
1.558248
31
0.0
0
LINE
8
MCD_Layer_0
10
7.835783
20
1.558248
30
0.0
11
7.617045
21
1.519171
31
0.0
0
LINE
8
MCD_Layer_0
10
7.397405
20
1.480036
30
0.0
11
7.178453
21
1.441023
31
0.0
0
LINE
8
MCD_Layer_0
10
7.178453
20
1.441023
30
0.0
11
7.203857
21
1.296945
31
0.0
0
LINE
8
MCD_Layer_0
10
7.203857
20
1.296945
30
0.0
11
7.111604
21
1.279967
31
0.0
0
LINE
8
MCD_Layer_0
10
7.111604
20
1.279967
30
0.0
11
7.086112
21
1.424538
31
0.0
0
LINE
8
MCD_Layer_0
10
7.086112
20
1.424538
30
0.0
11
5.996411
21
1.230160
31
0.0
0
LINE
8
MCD_Layer_0
10
5.996411
20
1.230160
30
0.0
11
6.022962
21
1.079583
31
0.0
0
LINE
8
MCD_Layer_0
10
6.022962
20
1.079583
30
0.0
11
5.930708
21
1.062606
31
0.0
0
LINE
8
MCD_Layer_0
10
5.930708
20
1.062606
30
0.0
11
5.904071
21
1.213674
31
0.0
0
LINE
8
MCD_Layer_0
10
5.904071
20
1.213674
30
0.0
11
5.683445
21
1.174366
31
0.0
0
LINE
8
MCD_Layer_0
10
5.467546
20
1.135891
30
0.0
11
5.246739
21
1.096450
31
0.0
0
LINE
8
MCD_Layer_0
10
5.246739
20
1.096450
30
0.0
11
5.274020
21
0.941737
31
0.0
0
LINE
8
MCD_Layer_0
10
5.274020
20
0.941737
30
0.0
11
5.181767
21
0.924758
31
0.0
0
LINE
8
MCD_Layer_0
10
5.181767
20
0.924758
30
0.0
11
5.154400
21
1.079965
31
0.0
0
LINE
8
MCD_Layer_0
10
5.154400
20
1.079965
30
0.0
11
4.220623
21
0.913487
31
0.0
0
LINE
8
MCD_Layer_0
10
4.220623
20
0.913487
30
0.0
11
4.217726
21
0.747360
31
0.0
0
LINE
8
MCD_Layer_0
10
4.217726
20
0.747360
30
0.0
11
4.123602
21
0.730052
31
0.0
0
LINE
8
MCD_Layer_0
10
4.123602
20
0.730052
30
0.0
11
4.126510
21
0.896689
31
0.0
0
LINE
8
MCD_Layer_0
10
4.126510
20
0.896689
30
0.0
11
3.910118
21
0.858127
31
0.0
0
LINE
8
MCD_Layer_0
10
3.694729
20
0.819640
30
0.0
11
3.456573
21
0.777242
31
0.0
0
LINE
8
MCD_Layer_0
10
3.456573
20
0.777242
30
0.0
11
3.453636
21
0.606740
31
0.0
0
LINE
8
MCD_Layer_0
10
3.453636
20
0.606740
30
0.0
11
3.359611
21
0.589451
31
0.0
0
LINE
8
MCD_Layer_0
10
3.359611
20
0.589451
30
0.0
11
3.362559
21
0.760461
31
0.0
0
LINE
8
MCD_Layer_0
10
3.362559
20
0.760461
30
0.0
11
2.892290
21
0.676523
31
0.0
0
LINE
8
MCD_Layer_0
10
2.892290
20
0.676523
30
0.0
11
2.921844
21
0.508909
31
0.0
0
LINE
8
MCD_Layer_0
10
2.921844
20
0.508909
30
0.0
11
2.829691
21
0.491950
31
0.0
0
LINE
8
MCD_Layer_0
10
2.829691
20
0.491950
30
0.0
11
2.800032
21
0.660154
31
0.0
0
LINE
8
MCD_Layer_0
10
2.800032
20
0.660154
30
0.0
11
2.628844
21
0.629563
31
0.0
0
LINE
8
MCD_Layer_0
10
2.707062
20
0.738805
30
0.0
11
3.670662
21
0.910642
31
0.0
0
LINE
8
MCD_Layer_0
10
3.901235
20
0.951704
30
0.0
11
5.443889
21
1.226864
31
0.0
0
LINE
8
MCD_Layer_0
10
5.674247
20
1.267991
30
0.0
11
7.376900
21
1.571566
31
0.0
0
LINE
8
MCD_Layer_0
10
7.604599
20
1.612223
30
0.0
11
25.844044
21
4.865087
31
0.0
0
LINE
8
MCD_Layer_0
10
26.008080
20
4.799170
30
0.0
11
23.318325
21
4.319412
31
0.0
0
LINE
8
MCD_Layer_0
10
23.318325
20
4.319412
30
0.0
11
23.328068
21
4.264165
31
0.0
0
LINE
8
MCD_Layer_0
10
23.328068
20
4.264165
30
0.0
11
23.205124
21
4.241572
31
0.0
0
LINE
8
MCD_Layer_0
10
23.205124
20
4.241572
30
0.0
11
23.195259
21
4.297509
31
0.0
0
LINE
8
MCD_Layer_0
10
23.195259
20
4.297509
30
0.0
11
22.072880
21
4.097268
31
0.0
0
LINE
8
MCD_Layer_0
10
22.072880
20
4.097268
30
0.0
11
22.083820
21
4.035225
31
0.0
0
LINE
8
MCD_Layer_0
10
22.083820
20
4.035225
30
0.0
11
21.991570
21
4.018248
31
0.0
0
LINE
8
MCD_Layer_0
10
21.991570
20
4.018248
30
0.0
11
21.980522
21
4.080880
31
0.0
0
LINE
8
MCD_Layer_0
10
21.980522
20
4.080880
30
0.0
11
20.959938
21
3.898790
31
0.0
0
LINE
8
MCD_Layer_0
10
20.959938
20
3.898790
30
0.0
11
20.971970
21
3.830544
31
0.0
0
LINE
8
MCD_Layer_0
10
20.971970
20
3.830544
30
0.0
11
20.879814
21
3.813583
31
0.0
0
LINE
8
MCD_Layer_0
10
20.879814
20
3.813583
30
0.0
11
20.867695
21
3.882323
31
0.0
0
LINE
8
MCD_Layer_0
10
20.867695
20
3.882323
30
0.0
11
20.413166
21
3.801264
31
0.0
0
LINE
8
MCD_Layer_0
10
20.541336
20
3.656013
30
0.0
11
26.614342
21
4.773557
31
0.0
0
LINE
8
MCD_Layer_0
10
27.551136
20
4.618271
30
0.0
11
23.404106
21
3.832916
31
0.0
0
LINE
8
MCD_Layer_0
10
23.404106
20
3.832916
30
0.0
11
23.418415
21
3.751768
31
0.0
0
LINE
8
MCD_Layer_0
10
23.418415
20
3.751768
30
0.0
11
23.295696
21
3.727895
31
0.0
0
LINE
8
MCD_Layer_0
10
23.295696
20
3.727895
30
0.0
11
23.281284
21
3.809634
31
0.0
0
LINE
8
MCD_Layer_0
10
23.281284
20
3.809634
30
0.0
11
22.161007
21
3.597478
31
0.0
0
LINE
8
MCD_Layer_0
10
22.161007
20
3.597478
30
0.0
11
22.176411
21
3.510124
31
0.0
0
LINE
8
MCD_Layer_0
10
22.176411
20
3.510124
30
0.0
11
22.084312
21
3.492261
31
0.0
0
LINE
8
MCD_Layer_0
10
22.084312
20
3.492261
30
0.0
11
22.068840
21
3.580008
31
0.0
0
LINE
8
MCD_Layer_0
10
22.068840
20
3.580008
30
0.0
11
21.050163
21
3.387085
31
0.0
0
LINE
8
MCD_Layer_0
10
21.050163
20
3.387085
30
0.0
11
21.066540
21
3.294217
31
0.0
0
LINE
8
MCD_Layer_0
10
21.066540
20
3.294217
30
0.0
11
20.974560
21
3.276273
31
0.0
0
LINE
8
MCD_Layer_0
10
20.974560
20
3.276273
30
0.0
11
20.958096
21
3.369633
31
0.0
0
LINE
8
MCD_Layer_0
10
20.958096
20
3.369633
30
0.0
11
20.037186
21
3.195270
31
0.0
0
LINE
8
MCD_Layer_0
10
20.037186
20
3.195270
30
0.0
11
20.054462
21
3.097280
31
0.0
0
LINE
8
MCD_Layer_0
10
20.054462
20
3.097280
30
0.0
11
19.962463
21
3.079433
31
0.0
0
LINE
8
MCD_Layer_0
10
19.962463
20
3.079433
30
0.0
11
19.945118
21
3.177816
31
0.0
0
LINE
8
MCD_Layer_0
10
19.945118
20
3.177816
30
0.0
11
19.058800
21
3.009959
31
0.0
0
LINE
8
MCD_Layer_0
10
19.058800
20
3.009959
30
0.0
11
19.076927
21
2.907145
31
0.0
0
LINE
8
MCD_Layer_0
10
19.076927
20
2.907145
30
0.0
11
18.984848
21
2.889183
31
0.0
0
LINE
8
MCD_Layer_0
10
18.984848
20
2.889183
30
0.0
11
18.966633
21
2.992489
31
0.0
0
LINE
8
MCD_Layer_0
10
18.966633
20
2.992489
30
0.0
11
18.114895
21
2.831237
31
0.0
0
LINE
8
MCD_Layer_0
10
18.114895
20
2.831237
30
0.0
11
18.133873
21
2.723597
31
0.0
0
LINE
8
MCD_Layer_0
10
18.133873
20
2.723597
30
0.0
11
18.041779
21
2.705733
31
0.0
0
LINE
8
MCD_Layer_0
10
18.041779
20
2.705733
30
0.0
11
18.022728
21
2.813767
31
0.0
0
LINE
8
MCD_Layer_0
10
18.022728
20
2.813767
30
0.0
11
17.263073
21
2.669868
31
0.0
0
LINE
8
MCD_Layer_0
10
17.263073
20
2.669868
30
0.0
11
17.282803
21
2.557994
31
0.0
0
LINE
8
MCD_Layer_0
10
17.282803
20
2.557994
30
0.0
11
17.190804
21
2.540148
31
0.0
0
LINE
8
MCD_Layer_0
10
17.190804
20
2.540148
30
0.0
11
17.171005
21
2.652415
31
0.0
0
LINE
8
MCD_Layer_0
10
17.171005
20
2.652415
30
0.0
11
16.457321
21
2.517333
31
0.0
0
LINE
8
MCD_Layer_0
10
16.457321
20
2.517333
30
0.0
11
16.477760
21
2.401422
31
0.0
0
LINE
8
MCD_Layer_0
10
16.477760
20
2.401422
30
0.0
11
16.385777
21
2.383475
31
0.0
0
LINE
8
MCD_Layer_0
10
16.385777
20
2.383475
30
0.0
11
16.365253
21
2.499880
31
0.0
0
LINE
8
MCD_Layer_0
10
16.365253
20
2.499880
30
0.0
11
15.686082
21
2.371188
31
0.0
0
LINE
8
MCD_Layer_0
10
15.686082
20
2.371188
30
0.0
11
15.707179
21
2.251534
31
0.0
0
LINE
8
MCD_Layer_0
10
15.707179
20
2.251534
30
0.0
11
15.615197
21
2.233589
31
0.0
0
LINE
8
MCD_Layer_0
10
15.615197
20
2.233589
30
0.0
11
15.593995
21
2.353833
31
0.0
0
LINE
8
MCD_Layer_0
10
15.593995
20
2.353833
30
0.0
11
14.972396
21
2.236106
31
0.0
0
LINE
8
MCD_Layer_0
10
14.972396
20
2.236106
30
0.0
11
14.994136
21
2.112808
31
0.0
0
LINE
8
MCD_Layer_0
10
14.994136
20
2.112808
30
0.0
11
14.902155
21
2.094864
31
0.0
0
LINE
8
MCD_Layer_0
10
14.902155
20
2.094864
30
0.0
11
14.880328
21
2.218653
31
0.0
0
LINE
8
MCD_Layer_0
10
14.880328
20
2.218653
30
0.0
11
14.270232
21
2.103055
31
0.0
0
LINE
8
MCD_Layer_0
10
14.270232
20
2.103055
30
0.0
11
14.292581
21
1.976311
31
0.0
0
LINE
8
MCD_Layer_0
10
14.292581
20
1.976311
30
0.0
11
14.200600
21
1.958365
31
0.0
0
LINE
8
MCD_Layer_0
10
14.200600
20
1.958365
30
0.0
11
14.178146
21
2.085701
31
0.0
0
LINE
8
MCD_Layer_0
10
14.178146
20
2.085701
30
0.0
11
13.625622
21
1.981067
31
0.0
0
LINE
8
MCD_Layer_0
10
13.625622
20
1.981067
30
0.0
11
13.648561
21
1.850973
31
0.0
0
LINE
8
MCD_Layer_0
10
13.648561
20
1.850973
30
0.0
11
13.556580
21
1.833029
31
0.0
0
LINE
8
MCD_Layer_0
10
13.556580
20
1.833029
30
0.0
11
13.533345
21
1.964796
31
0.0
0
LINE
8
MCD_Layer_0
10
13.533554
20
1.963614
30
0.0
11
13.400506
21
1.938428
31
0.0
0
LINE
8
MCD_Layer_0
10
13.184630
20
1.897520
30
0.0
11
13.055818
21
1.873080
31
0.0
0
LINE
8
MCD_Layer_0
10
13.055818
20
1.873080
30
0.0
11
13.079243
21
1.740231
31
0.0
0
LINE
8
MCD_Layer_0
10
13.079243
20
1.740231
30
0.0
11
12.987261
21
1.722285
31
0.0
0
LINE
8
MCD_Layer_0
10
12.987261
20
1.722285
30
0.0
11
12.963749
21
1.855628
31
0.0
0
LINE
8
MCD_Layer_0
10
12.963749
20
1.855628
30
0.0
11
12.468795
21
1.761956
31
0.0
0
LINE
8
MCD_Layer_0
10
12.468795
20
1.761956
30
0.0
11
12.492759
21
1.626054
31
0.0
0
LINE
8
MCD_Layer_0
10
12.492759
20
1.626054
30
0.0
11
12.400761
21
1.608207
31
0.0
0
LINE
8
MCD_Layer_0
10
12.400761
20
1.608207
30
0.0
11
12.376728
21
1.744504
31
0.0
0
LINE
8
MCD_Layer_0
10
12.376728
20
1.744504
30
0.0
11
11.916271
21
1.657321
31
0.0
0
LINE
8
MCD_Layer_0
10
11.916271
20
1.657321
30
0.0
11
11.940721
21
1.518661
31
0.0
0
LINE
8
MCD_Layer_0
10
11.940721
20
1.518661
30
0.0
11
11.848722
21
1.500814
31
0.0
0
LINE
8
MCD_Layer_0
10
11.848722
20
1.500814
30
0.0
11
11.824203
21
1.639870
31
0.0
0
LINE
8
MCD_Layer_0
10
11.824203
20
1.639870
30
0.0
11
11.386739
21
1.557046
31
0.0
0
LINE
8
MCD_Layer_0
10
11.386739
20
1.557046
30
0.0
11
11.411657
21
1.415727
31
0.0
0
LINE
8
MCD_Layer_0
10
11.411657
20
1.415727
30
0.0
11
11.319659
21
1.397880
31
0.0
0
LINE
8
MCD_Layer_0
10
11.319659
20
1.397880
30
0.0
11
11.294671
21
1.539594
31
0.0
0
LINE
8
MCD_Layer_0
10
11.294671
20
1.539594
30
0.0
11
10.891803
21
1.463277
31
0.0
0
LINE
8
MCD_Layer_0
10
10.891803
20
1.463277
30
0.0
11
10.917138
21
1.319593
31
0.0
0
LINE
8
MCD_Layer_0
10
10.917138
20
1.319593
30
0.0
11
10.825156
21
1.301648
31
0.0
0
LINE
8
MCD_Layer_0
10
10.825156
20
1.301648
30
0.0
11
10.799734
21
1.445825
31
0.0
0
LINE
8
MCD_Layer_0
10
10.799734
20
1.445825
30
0.0
11
10.442852
21
1.378225
31
0.0
0
LINE
8
MCD_Layer_0
10
10.442852
20
1.378225
30
0.0
11
10.468586
21
1.232277
31
0.0
0
LINE
8
MCD_Layer_0
10
10.468586
20
1.232277
30
0.0
11
10.376587
21
1.214430
31
0.0
0
LINE
8
MCD_Layer_0
10
10.376587
20
1.214430
30
0.0
11
10.350766
21
1.360870
31
0.0
0
LINE
8
MCD_Layer_0
10
10.350766
20
1.360870
30
0.0
11
10.005486
21
1.295420
31
0.0
0
LINE
8
MCD_Layer_0
10
10.005486
20
1.295420
30
0.0
11
10.031602
21
1.147305
31
0.0
0
LINE
8
MCD_Layer_0
10
10.031602
20
1.147305
30
0.0
11
9.939523
21
1.129342
31
0.0
0
LINE
8
MCD_Layer_0
10
9.939523
20
1.129342
30
0.0
11
9.913320
21
1.277950
31
0.0
0
LINE
8
MCD_Layer_0
10
9.913320
20
1.277950
30
0.0
11
9.579527
21
1.214726
31
0.0
0
LINE
8
MCD_Layer_0
10
9.579527
20
1.214726
30
0.0
11
9.606026
21
1.064445
31
0.0
0
LINE
8
MCD_Layer_0
10
9.606026
20
1.064445
30
0.0
11
9.514027
21
1.046599
31
0.0
0
LINE
8
MCD_Layer_0
10
9.514027
20
1.046599
30
0.0
11
9.487441
21
1.197373
31
0.0
0
LINE
8
MCD_Layer_0
10
9.487441
20
1.197373
30
0.0
11
9.199732
21
1.142884
31
0.0
0
LINE
8
MCD_Layer_0
10
9.199732
20
1.142884
30
0.0
11
9.226578
21
0.990633
31
0.0
0
LINE
8
MCD_Layer_0
10
9.226578
20
0.990633
30
0.0
11
9.134480
21
0.972769
31
0.0
0
LINE
8
MCD_Layer_0
10
9.134480
20
0.972769
30
0.0
11
9.107565
21
1.125414
31
0.0
0
LINE
8
MCD_Layer_0
10
9.107565
20
1.125414
30
0.0
11
8.854353
21
1.077415
31
0.0
0
LINE
8
MCD_Layer_0
10
8.854353
20
1.077415
30
0.0
11
8.881495
21
0.923491
31
0.0
0
LINE
8
MCD_Layer_0
10
8.881495
20
0.923491
30
0.0
11
8.789495
21
0.905643
31
0.0
0
LINE
8
MCD_Layer_0
10
8.789495
20
0.905643
30
0.0
11
8.762284
21
1.059964
31
0.0
0
LINE
8
MCD_Layer_0
10
8.042905
20
0.923775
30
0.0
11
8.070758
21
0.765812
31
0.0
0
LINE
8
MCD_Layer_0
10
8.070758
20
0.765812
30
0.0
11
7.978679
21
0.747849
31
0.0
0
LINE
8
MCD_Layer_0
10
7.978679
20
0.747849
30
0.0
11
7.950739
21
0.906305
31
0.0
0
LINE
8
MCD_Layer_0
10
7.950739
20
0.906305
30
0.0
11
7.740260
21
0.866451
31
0.0
0
LINE
8
MCD_Layer_0
10
7.505807
20
0.822063
30
0.0
11
7.294641
21
0.782088
31
0.0
0
LINE
8
MCD_Layer_0
10
7.294641
20
0.782088
30
0.0
11
7.323171
21
0.620284
31
0.0
0
LINE
8
MCD_Layer_0
10
7.323171
20
0.620284
30
0.0
11
7.231074
21
0.602420
31
0.0
0
LINE
8
MCD_Layer_0
10
7.231074
20
0.602420
30
0.0
11
7.202474
21
0.764618
31
0.0
0
LINE
8
MCD_Layer_0
10
7.202474
20
0.764618
30
0.0
11
6.114821
21
0.558619
31
0.0
0
LINE
8
MCD_Layer_0
10
6.114821
20
0.558619
30
0.0
11
6.144377
21
0.391005
31
0.0
0
LINE
8
MCD_Layer_0
10
6.144377
20
0.391005
30
0.0
11
6.052297
21
0.373042
31
0.0
0
LINE
8
MCD_Layer_0
10
6.052297
20
0.373042
30
0.0
11
6.022655
21
0.541150
31
0.0
0
LINE
8
MCD_Layer_0
10
6.022655
20
0.541150
30
0.0
11
5.803529
21
0.499669
31
0.0
0
LINE
8
MCD_Layer_0
10
5.587062
20
0.458657
30
0.0
11
5.366557
21
0.416933
31
0.0
0
LINE
8
MCD_Layer_0
10
5.366557
20
0.416933
30
0.0
11
5.396789
21
0.245477
31
0.0
0
LINE
8
MCD_Layer_0
10
5.396789
20
0.245477
30
0.0
11
5.304692
21
0.227612
31
0.0
0
LINE
8
MCD_Layer_0
10
5.304692
20
0.227612
30
0.0
11
5.274391
21
0.399463
31
0.0
0
LINE
8
MCD_Layer_0
10
5.274391
20
0.399463
30
0.0
11
4.208057
21
0.197527
31
0.0
0
LINE
8
MCD_Layer_0
10
4.208057
20
0.197527
30
0.0
11
4.204850
21
0.013576
31
0.0
0
LINE
8
MCD_Layer_0
10
4.204850
20
0.013576
30
0.0
11
4.110785
21
-0.004635
31
0.0
0
LINE
8
MCD_Layer_0
10
4.110785
20
-0.004635
30
0.0
11
4.114017
21
0.179728
31
0.0
0
LINE
8
MCD_Layer_0
10
4.114017
20
0.179728
30
0.0
11
3.880845
21
0.135566
31
0.0
0
LINE
8
MCD_Layer_0
10
3.713318
20
0.103792
30
0.0
11
3.443972
21
0.052847
31
0.0
0
LINE
8
MCD_Layer_0
10
3.443972
20
0.052847
30
0.0
11
3.440656
21
-0.135084
31
0.0
0
LINE
8
MCD_Layer_0
10
3.440656
20
-0.135084
30
0.0
11
3.346607
21
-0.153395
31
0.0
0
LINE
8
MCD_Layer_0
10
3.346607
20
-0.153395
30
0.0
11
3.349836
21
0.035030
31
0.0
0
LINE
8
MCD_Layer_0
10
3.349836
20
0.035030
30
0.0
11
3.016535
21
-0.028105
31
0.0
0
LINE
8
MCD_Layer_0
10
3.016535
20
-0.028105
30
0.0
11
3.055988
21
-0.251854
31
0.0
0
LINE
8
MCD_Layer_0
10
3.055988
20
-0.251854
30
0.0
11
2.962480
21
-0.261133
31
0.0
0
LINE
8
MCD_Layer_0
10
2.962480
20
-0.261133
30
0.0
11
2.924467
21
-0.045557
31
0.0
0
LINE
8
MCD_Layer_0
10
2.924467
20
-0.045557
30
0.0
11
2.753592
21
-0.077921
31
0.0
0
LINE
8
MCD_Layer_0
10
2.832885
20
0.016582
30
0.0
11
3.662107
21
0.173661
31
0.0
0
LINE
8
MCD_Layer_0
10
3.902945
20
0.219275
30
0.0
11
5.562094
21
0.533456
31
0.0
0
LINE
8
MCD_Layer_0
10
5.799387
20
0.578445
30
0.0
11
7.497349
21
0.899980
31
0.0
0
LINE
8
MCD_Layer_0
10
7.719725
20
0.942033
30
0.0
11
13.154952
21
1.971389
31
0.0
0
LINE
8
MCD_Layer_0
10
13.401092
20
2.018039
30
0.0
11
27.395878
21
4.668372
31
0.0
0
LINE
8
MCD_Layer_0
10
25.064354
20
4.971311
30
0.0
11
13.208182
21
2.928370
31
0.0
0
LINE
8
MCD_Layer_0
10
13.025281
20
2.896831
30
0.0
11
7.544011
21
1.952370
31
0.0
0
LINE
8
MCD_Layer_0
10
7.317842
20
1.913404
30
0.0
11
5.607036
21
1.618648
31
0.0
0
LINE
8
MCD_Layer_0
10
5.387365
20
1.580828
30
0.0
11
3.887956
21
1.322433
31
0.0
0
LINE
8
MCD_Layer_0
10
3.686029
20
1.287639
30
0.0
11
2.641125
21
1.107558
31
0.0
0
LINE
8
MCD_Layer_0
10
2.566469
20
0.983307
30
0.0
11
2.737830
21
1.012914
31
0.0
0
LINE
8
MCD_Layer_0
10
2.737830
20
1.012914
30
0.0
11
2.767472
21
0.844807
31
0.0
0
LINE
8
MCD_Layer_0
10
2.767472
20
0.844807
30
0.0
11
2.859731
21
0.861176
31
0.0
0
LINE
8
MCD_Layer_0
10
2.859731
20
0.861176
30
0.0
11
2.830175
21
1.028790
31
0.0
0
LINE
8
MCD_Layer_0
10
2.830175
20
1.028790
30
0.0
11
3.368837
21
1.121638
31
0.0
0
LINE
8
MCD_Layer_0
10
3.368837
20
1.121638
30
0.0
11
3.365830
21
0.951531
31
0.0
0
LINE
8
MCD_Layer_0
10
3.365830
20
0.951531
30
0.0
11
3.459960
21
0.968231
31
0.0
0
LINE
8
MCD_Layer_0
10
3.459960
20
0.968231
30
0.0
11
3.462858
21
1.137811
31
0.0
0
LINE
8
MCD_Layer_0
10
3.462858
20
1.137811
30
0.0
11
3.691587
21
1.177228
31
0.0
0
LINE
8
MCD_Layer_0
10
3.919725
20
1.216540
30
0.0
11
4.132797
21
1.253198
31
0.0
0
LINE
8
MCD_Layer_0
10
4.132797
20
1.253198
30
0.0
11
4.129879
21
1.087776
31
0.0
0
LINE
8
MCD_Layer_0
10
4.129879
20
1.087776
30
0.0
11
4.223893
21
1.104557
31
0.0
0
LINE
8
MCD_Layer_0
10
4.223893
20
1.104557
30
0.0
11
4.226801
21
1.269467
31
0.0
0
LINE
8
MCD_Layer_0
10
4.226801
20
1.269467
30
0.0
11
5.094630
21
1.418936
31
0.0
0
LINE
8
MCD_Layer_0
10
5.094630
20
1.418936
30
0.0
11
5.121841
21
1.264615
31
0.0
0
LINE
8
MCD_Layer_0
10
5.121841
20
1.264615
30
0.0
11
5.214180
21
1.281100
31
0.0
0
LINE
8
MCD_Layer_0
10
5.214180
20
1.281100
30
0.0
11
5.187057
21
1.434928
31
0.0
0
LINE
8
MCD_Layer_0
10
5.187057
20
1.434928
30
0.0
11
5.408795
21
1.473113
31
0.0
0
LINE
8
MCD_Layer_0
10
5.622852
20
1.509943
30
0.0
11
5.845065
21
1.548311
31
0.0
0
LINE
8
MCD_Layer_0
10
5.845065
20
1.548311
30
0.0
11
5.871512
21
1.398326
31
0.0
0
LINE
8
MCD_Layer_0
10
5.871512
20
1.398326
30
0.0
11
5.963852
21
1.414811
31
0.0
0
LINE
8
MCD_Layer_0
10
5.963852
20
1.414811
30
0.0
11
5.937510
21
1.564206
31
0.0
0
LINE
8
MCD_Layer_0
10
5.937510
20
1.564206
30
0.0
11
7.028339
21
1.752184
31
0.0
0
LINE
8
MCD_Layer_0
10
7.028339
20
1.752184
30
0.0
11
7.053554
21
1.609188
31
0.0
0
LINE
8
MCD_Layer_0
10
7.053554
20
1.609188
30
0.0
11
7.145894
21
1.625673
31
0.0
0
LINE
8
MCD_Layer_0
10
7.145894
20
1.625673
30
0.0
11
7.120784
21
1.768078
31
0.0
0
LINE
8
MCD_Layer_0
10
7.120784
20
1.768078
30
0.0
11
7.346856
21
1.807026
31
0.0
0
LINE
8
MCD_Layer_0
10
7.552131
20
1.842408
30
0.0
11
7.778792
21
1.881462
31
0.0
0
LINE
8
MCD_Layer_0
10
7.778792
20
1.881462
30
0.0
11
7.803225
21
1.742899
31
0.0
0
LINE
8
MCD_Layer_0
10
7.803225
20
1.742899
30
0.0
11
7.895564
21
1.759384
31
0.0
0
LINE
8
MCD_Layer_0
10
7.895564
20
1.759384
30
0.0
11
7.871236
21
1.897357
31
0.0
0
LINE
8
MCD_Layer_0
10
8.592700
20
2.021726
30
0.0
11
8.616299
21
1.887890
31
0.0
0
LINE
8
MCD_Layer_0
10
8.616299
20
1.887890
30
0.0
11
8.708541
21
1.904358
31
0.0
0
LINE
8
MCD_Layer_0
10
8.708541
20
1.904358
30
0.0
11
8.685046
21
2.037603
31
0.0
0
LINE
8
MCD_Layer_0
10
8.685046
20
2.037603
30
0.0
11
8.939005
21
2.081367
31
0.0
0
LINE
8
MCD_Layer_0
10
8.939005
20
2.081367
30
0.0
11
8.962238
21
1.949600
31
0.0
0
LINE
8
MCD_Layer_0
10
8.962238
20
1.949600
30
0.0
11
9.054580
21
1.966084
31
0.0
0
LINE
8
MCD_Layer_0
10
9.054580
20
1.966084
30
0.0
11
9.031432
21
2.097361
31
0.0
0
LINE
8
MCD_Layer_0
10
9.031432
20
2.097361
30
0.0
11
9.319992
21
2.147022
31
0.0
0
LINE
8
MCD_Layer_0
10
9.319992
20
2.147022
30
0.0
11
9.342844
21
2.017423
31
0.0
0
LINE
8
MCD_Layer_0
10
9.342844
20
2.017423
30
0.0
11
9.435086
21
2.033891
31
0.0
0
LINE
8
MCD_Layer_0
10
9.435086
20
2.033891
30
0.0
11
9.412338
21
2.162900
31
0.0
0
LINE
8
MCD_Layer_0
10
9.412338
20
2.162900
30
0.0
11
9.747103
21
2.220608
31
0.0
0
LINE
8
MCD_Layer_0
10
9.747103
20
2.220608
30
0.0
11
9.769504
21
2.093568
31
0.0
0
LINE
8
MCD_Layer_0
10
9.769504
20
2.093568
30
0.0
11
9.861844
21
2.110052
31
0.0
0
LINE
8
MCD_Layer_0
10
9.861844
20
2.110052
30
0.0
11
9.839530
21
2.236600
31
0.0
0
LINE
8
MCD_Layer_0
10
9.839530
20
2.236600
30
0.0
11
10.185835
21
2.296243
31
0.0
0
LINE
8
MCD_Layer_0
10
10.185835
20
2.296243
30
0.0
11
10.207801
21
2.171663
31
0.0
0
LINE
8
MCD_Layer_0
10
10.207801
20
2.171663
30
0.0
11
10.300043
21
2.188131
31
0.0
0
LINE
8
MCD_Layer_0
10
10.300043
20
2.188131
30
0.0
11
10.278181
21
2.312119
31
0.0
0
LINE
8
MCD_Layer_0
10
10.278181
20
2.312119
30
0.0
11
10.636106
21
2.373809
31
0.0
0
LINE
8
MCD_Layer_0
10
10.636106
20
2.373809
30
0.0
11
10.657603
21
2.251889
31
0.0
0
LINE
8
MCD_Layer_0
10
10.657603
20
2.251889
30
0.0
11
10.749846
21
2.268357
31
0.0
0
LINE
8
MCD_Layer_0
10
10.749846
20
2.268357
30
0.0
11
10.728452
21
2.389687
31
0.0
0
LINE
8
MCD_Layer_0
10
10.728452
20
2.389687
30
0.0
11
11.132501
21
2.459306
31
0.0
0
LINE
8
MCD_Layer_0
10
11.132501
20
2.459306
30
0.0
11
11.153478
21
2.340341
31
0.0
0
LINE
8
MCD_Layer_0
10
11.153478
20
2.340341
30
0.0
11
11.245719
21
2.356809
31
0.0
0
LINE
8
MCD_Layer_0
10
11.245719
20
2.356809
30
0.0
11
11.224829
21
2.475282
31
0.0
0
LINE
8
MCD_Layer_0
10
11.224829
20
2.475282
30
0.0
11
11.663578
21
2.550818
31
0.0
0
LINE
8
MCD_Layer_0
10
11.663578
20
2.550818
30
0.0
11
11.683999
21
2.435003
31
0.0
0
LINE
8
MCD_Layer_0
10
11.683999
20
2.435003
30
0.0
11
11.776241
21
2.451471
31
0.0
0
LINE
8
MCD_Layer_0
10
11.776241
20
2.451471
30
0.0
11
11.755907
21
2.566792
31
0.0
0
LINE
8
MCD_Layer_0
10
11.755907
20
2.566792
30
0.0
11
12.217718
21
2.646294
31
0.0
0
LINE
8
MCD_Layer_0
10
12.217718
20
2.646294
30
0.0
11
12.237566
21
2.533729
31
0.0
0
LINE
8
MCD_Layer_0
10
12.237566
20
2.533729
30
0.0
11
12.329807
21
2.550197
31
0.0
0
LINE
8
MCD_Layer_0
10
12.329807
20
2.550197
30
0.0
11
12.310046
21
2.662269
31
0.0
0
LINE
8
MCD_Layer_0
10
12.310046
20
2.662269
30
0.0
11
12.806441
21
2.747766
31
0.0
0
LINE
8
MCD_Layer_0
10
12.806441
20
2.747766
30
0.0
11
12.825699
21
2.638550
31
0.0
0
LINE
8
MCD_Layer_0
10
12.825699
20
2.638550
30
0.0
11
12.917941
21
2.655018
31
0.0
0
LINE
8
MCD_Layer_0
10
12.917941
20
2.655018
30
0.0
11
12.898770
21
2.763741
31
0.0
0
LINE
8
MCD_Layer_0
10
12.898770
20
2.763741
30
0.0
11
13.013192
21
2.783409
31
0.0
0
LINE
8
MCD_Layer_0
10
13.257500
20
2.825471
30
0.0
11
13.377913
21
2.846297
31
0.0
0
LINE
8
MCD_Layer_0
10
13.377913
20
2.846297
30
0.0
11
13.396580
21
2.740430
31
0.0
0
LINE
8
MCD_Layer_0
10
13.396580
20
2.740430
30
0.0
11
13.488822
21
2.756898
31
0.0
0
LINE
8
MCD_Layer_0
10
13.488822
20
2.756898
30
0.0
11
13.470260
21
2.862174
31
0.0
0
LINE
8
MCD_Layer_0
10
13.470260
20
2.862174
30
0.0
11
14.024399
21
2.957650
31
0.0
0
LINE
8
MCD_Layer_0
10
14.024399
20
2.957650
30
0.0
11
14.042389
21
2.855623
31
0.0
0
LINE
8
MCD_Layer_0
10
14.042389
20
2.855623
30
0.0
11
14.134648
21
2.871993
31
0.0
0
LINE
8
MCD_Layer_0
10
14.134648
20
2.871993
30
0.0
11
14.116745
21
2.973527
31
0.0
0
LINE
8
MCD_Layer_0
10
14.116745
20
2.973527
30
0.0
11
14.728628
21
3.078982
31
0.0
0
LINE
8
MCD_Layer_0
10
14.728628
20
3.078982
30
0.0
11
14.745890
21
2.981091
31
0.0
0
LINE
8
MCD_Layer_0
10
14.745890
20
2.981091
30
0.0
11
14.838148
21
2.997461
31
0.0
0
LINE
8
MCD_Layer_0
10
14.838148
20
2.997461
30
0.0
11
14.820974
21
3.094859
31
0.0
0
LINE
8
MCD_Layer_0
10
14.820974
20
3.094859
30
0.0
11
15.444380
21
3.202344
31
0.0
0
LINE
8
MCD_Layer_0
10
15.444380
20
3.202344
30
0.0
11
15.460912
21
3.108591
31
0.0
0
LINE
8
MCD_Layer_0
10
15.460912
20
3.108591
30
0.0
11
15.553153
21
3.125058
31
0.0
0
LINE
8
MCD_Layer_0
10
15.553153
20
3.125058
30
0.0
11
15.536726
21
3.218222
31
0.0
0
LINE
8
MCD_Layer_0
10
15.536726
20
3.218222
30
0.0
11
16.217896
21
3.335588
31
0.0
0
LINE
8
MCD_Layer_0
10
16.217896
20
3.335588
30
0.0
11
16.233627
21
3.246364
31
0.0
0
LINE
8
MCD_Layer_0
10
16.233627
20
3.246364
30
0.0
11
16.325871
21
3.262832
31
0.0
0
LINE
8
MCD_Layer_0
10
16.325871
20
3.262832
30
0.0
11
16.310223
21
3.351563
31
0.0
0
LINE
8
MCD_Layer_0
10
16.310223
20
3.351563
30
0.0
11
17.025993
21
3.474828
31
0.0
0
LINE
8
MCD_Layer_0
10
17.025993
20
3.474828
30
0.0
11
17.040890
21
3.390331
31
0.0
0
LINE
8
MCD_Layer_0
10
17.040890
20
3.390331
30
0.0
11
17.133133
21
3.406798
31
0.0
0
LINE
8
MCD_Layer_0
10
17.133133
20
3.406798
30
0.0
11
17.118320
21
3.490804
31
0.0
0
LINE
8
MCD_Layer_0
10
17.118320
20
3.490804
30
0.0
11
17.880215
21
3.621999
31
0.0
0
LINE
8
MCD_Layer_0
10
17.880215
20
3.621999
30
0.0
11
17.894226
21
3.542524
31
0.0
0
LINE
8
MCD_Layer_0
10
17.894226
20
3.542524
30
0.0
11
17.986568
21
3.559010
31
0.0
0
LINE
8
MCD_Layer_0
10
17.986568
20
3.559010
30
0.0
11
17.972641
21
3.637991
31
0.0
0
LINE
8
MCD_Layer_0
10
17.972641
20
3.637991
30
0.0
11
18.826862
21
3.785161
31
0.0
0
LINE
8
MCD_Layer_0
10
18.826862
20
3.785161
30
0.0
11
18.839905
21
3.711202
31
0.0
0
LINE
8
MCD_Layer_0
10
18.839905
20
3.711202
30
0.0
11
18.932243
21
3.727687
31
0.0
0
LINE
8
MCD_Layer_0
10
18.932243
20
3.727687
30
0.0
11
18.919308
21
3.801055
31
0.0
0
LINE
8
MCD_Layer_0
10
18.919308
20
3.801055
30
0.0
11
19.808212
21
3.954239
31
0.0
0
LINE
8
MCD_Layer_0
10
19.808212
20
3.954239
30
0.0
11
19.820244
21
3.885992
31
0.0
0
LINE
8
MCD_Layer_0
10
19.820244
20
3.885992
30
0.0
11
19.912487
21
3.902459
31
0.0
0
LINE
8
MCD_Layer_0
10
19.912487
20
3.902459
30
0.0
11
19.900558
21
3.970116
31
0.0
0
LINE
8
MCD_Layer_0
10
19.900558
20
3.970116
30
0.0
11
20.824142
21
4.129313
31
0.0
0
LINE
8
MCD_Layer_0
10
20.824142
20
4.129313
30
0.0
11
20.835136
21
4.066976
31
0.0
0
LINE
8
MCD_Layer_0
10
20.835136
20
4.066976
30
0.0
11
20.927380
21
4.083443
31
0.0
0
LINE
8
MCD_Layer_0
10
20.927380
20
4.083443
30
0.0
11
20.916489
21
4.145190
31
0.0
0
LINE
8
MCD_Layer_0
10
20.916489
20
4.145190
30
0.0
11
21.938137
21
4.321273
31
0.0
0
LINE
8
MCD_Layer_0
10
21.938137
20
4.321273
30
0.0
11
21.947964
21
4.265532
31
0.0
0
LINE
8
MCD_Layer_0
10
21.947964
20
4.265532
30
0.0
11
22.040321
21
4.281919
31
0.0
0
LINE
8
MCD_Layer_0
10
22.040321
20
4.281919
30
0.0
11
22.030579
21
4.337167
31
0.0
0
LINE
8
MCD_Layer_0
10
22.030579
20
4.337167
30
0.0
11
23.154121
21
4.530810
31
0.0
0
LINE
8
MCD_Layer_0
10
23.154121
20
4.530810
30
0.0
11
23.162701
21
4.482160
31
0.0
0
LINE
8
MCD_Layer_0
10
23.162701
20
4.482160
30
0.0
11
23.285767
21
4.504064
31
0.0
0
LINE
8
MCD_Layer_0
10
23.285767
20
4.504064
30
0.0
11
23.277309
21
4.552023
31
0.0
0
LINE
8
MCD_Layer_0
10
23.277309
20
4.552023
30
0.0
11
25.238434
21
4.889901
31
0.0
0
LINE
8
MCD_Layer_0
10
25.580963
20
5.651044
30
0.0
11
25.595963
21
5.769853
31
0.0
0
LINE
8
MCD_Layer_0
10
25.177567
20
5.822499
30
0.0
11
25.162567
21
5.703691
31
0.0
0
LINE
8
MCD_Layer_0
10
24.811317
20
5.741776
30
0.0
11
24.826313
21
5.860585
31
0.0
0
LINE
8
MCD_Layer_0
10
24.407898
20
5.913329
30
0.0
11
24.392902
21
5.794520
31
0.0
0
LINE
8
MCD_Layer_0
10
20.306671
20
3.612809
30
0.0
11
18.576672
21
3.294461
31
0.0
0
LINE
8
MCD_Layer_0
10
18.469719
20
3.454722
30
0.0
11
18.872463
21
3.526549
31
0.0
0
LINE
8
MCD_Layer_0
10
18.872463
20
3.526549
30
0.0
11
18.886528
21
3.446780
31
0.0
0
LINE
8
MCD_Layer_0
10
18.886528
20
3.446780
30
0.0
11
18.978783
21
3.463758
31
0.0
0
LINE
8
MCD_Layer_0
10
18.978783
20
3.463758
30
0.0
11
18.964802
21
3.543035
31
0.0
0
LINE
8
MCD_Layer_0
10
18.964802
20
3.543035
30
0.0
11
19.852806
21
3.701340
31
0.0
0
LINE
8
MCD_Layer_0
10
19.852806
20
3.701340
30
0.0
11
19.865898
21
3.627086
31
0.0
0
LINE
8
MCD_Layer_0
10
19.865898
20
3.627086
30
0.0
11
19.958054
21
3.644046
31
0.0
0
LINE
8
MCD_Layer_0
10
19.958054
20
3.644046
30
0.0
11
19.945045
21
3.717807
31
0.0
0
LINE
8
MCD_Layer_0
10
19.945045
20
3.717807
30
0.0
11
20.376038
21
3.794717
31
0.0
0
LINE
8
MCD_Layer_0
10
18.354202
20
3.253508
30
0.0
11
16.841171
21
2.975041
31
0.0
0
LINE
8
MCD_Layer_0
10
16.749554
20
3.147960
30
0.0
11
17.073452
21
3.205681
31
0.0
0
LINE
8
MCD_Layer_0
10
17.073452
20
3.205681
30
0.0
11
17.089252
21
3.116062
31
0.0
0
LINE
8
MCD_Layer_0
10
17.089252
20
3.116062
30
0.0
11
17.181408
21
3.133022
31
0.0
0
LINE
8
MCD_Layer_0
10
17.181408
20
3.133022
30
0.0
11
17.165691
21
3.222148
31
0.0
0
LINE
8
MCD_Layer_0
10
17.165691
20
3.222148
30
0.0
11
17.926788
21
3.357872
31
0.0
0
LINE
8
MCD_Layer_0
10
17.926788
20
3.357872
30
0.0
11
17.941757
21
3.272982
31
0.0
0
LINE
8
MCD_Layer_0
10
17.941757
20
3.272982
30
0.0
11
18.034008
21
3.289960
31
0.0
0
LINE
8
MCD_Layer_0
10
18.034008
20
3.289960
30
0.0
11
18.019127
21
3.374357
31
0.0
0
LINE
8
MCD_Layer_0
10
18.019127
20
3.374357
30
0.0
11
18.398354
21
3.441936
31
0.0
0
LINE
8
MCD_Layer_0
10
16.658688
20
3.131735
30
0.0
11
16.358429
21
3.078181
31
0.0
0
LINE
8
MCD_Layer_0
10
16.358429
20
3.078181
30
0.0
11
16.374924
21
2.984623
31
0.0
0
LINE
8
MCD_Layer_0
10
16.374924
20
2.984623
30
0.0
11
16.282768
21
2.967664
31
0.0
0
LINE
8
MCD_Layer_0
10
16.282768
20
2.967664
30
0.0
11
16.266186
21
3.061713
31
0.0
0
LINE
8
MCD_Layer_0
10
16.266186
20
3.061713
30
0.0
11
15.585713
21
2.940408
31
0.0
0
LINE
8
MCD_Layer_0
10
15.585713
20
2.940408
30
0.0
11
15.602973
21
2.842517
31
0.0
0
LINE
8
MCD_Layer_0
10
15.602973
20
2.842517
30
0.0
11
15.510818
21
2.825557
31
0.0
0
LINE
8
MCD_Layer_0
10
15.510818
20
2.825557
30
0.0
11
15.493470
21
2.923940
31
0.0
0
LINE
8
MCD_Layer_0
10
15.493470
20
2.923940
30
0.0
11
15.268725
21
2.883803
31
0.0
0
LINE
8
MCD_Layer_0
10
15.346817
20
2.700072
30
0.0
11
16.633537
21
2.936907
31
0.0
0
LINE
8
MCD_Layer_0
10
15.164174
20
2.865165
30
0.0
11
14.870708
21
2.812809
31
0.0
0
LINE
8
MCD_Layer_0
10
14.870708
20
2.812809
30
0.0
11
14.888645
21
2.711080
31
0.0
0
LINE
8
MCD_Layer_0
10
14.888645
20
2.711080
30
0.0
11
14.796491
21
2.694118
31
0.0
0
LINE
8
MCD_Layer_0
10
14.796491
20
2.694118
30
0.0
11
14.778448
21
2.796440
31
0.0
0
LINE
8
MCD_Layer_0
10
14.778448
20
2.796440
30
0.0
11
14.167207
21
2.687343
31
0.0
0
LINE
8
MCD_Layer_0
10
14.167207
20
2.687343
30
0.0
11
14.185822
21
2.581770
31
0.0
0
LINE
8
MCD_Layer_0
10
14.185822
20
2.581770
30
0.0
11
14.093667
21
2.564810
31
0.0
0
LINE
8
MCD_Layer_0
10
14.093667
20
2.564810
30
0.0
11
14.074947
21
2.670973
31
0.0
0
LINE
8
MCD_Layer_0
10
14.074947
20
2.670973
30
0.0
11
13.521381
21
2.572248
31
0.0
0
LINE
8
MCD_Layer_0
10
13.521381
20
2.572248
30
0.0
11
13.540639
21
2.463031
31
0.0
0
LINE
8
MCD_Layer_0
10
13.540639
20
2.463031
30
0.0
11
13.448483
21
2.446071
31
0.0
0
LINE
8
MCD_Layer_0
10
13.448483
20
2.446071
30
0.0
11
13.429139
21
2.555779
31
0.0
0
LINE
8
MCD_Layer_0
10
13.429139
20
2.555779
30
0.0
11
12.950500
21
2.470366
31
0.0
0
LINE
8
MCD_Layer_0
10
12.950500
20
2.470366
30
0.0
11
12.970296
21
2.358097
31
0.0
0
LINE
8
MCD_Layer_0
10
12.970296
20
2.358097
30
0.0
11
12.878140
21
2.341138
31
0.0
0
LINE
8
MCD_Layer_0
10
12.878140
20
2.341138
30
0.0
11
12.858257
21
2.453898
31
0.0
0
LINE
8
MCD_Layer_0
10
12.858257
20
2.453898
30
0.0
11
12.362366
21
2.365545
31
0.0
0
LINE
8
MCD_Layer_0
10
12.362366
20
2.365545
30
0.0
11
12.382752
21
2.249928
31
0.0
0
LINE
8
MCD_Layer_0
10
12.382752
20
2.249928
30
0.0
11
12.290598
21
2.232968
31
0.0
0
LINE
8
MCD_Layer_0
10
12.290598
20
2.232968
30
0.0
11
12.270124
21
2.349078
31
0.0
0
LINE
8
MCD_Layer_0
10
12.270124
20
2.349078
30
0.0
11
11.808800
21
2.266820
31
0.0
0
LINE
8
MCD_Layer_0
10
11.808800
20
2.266820
30
0.0
11
11.829724
21
2.148150
31
0.0
0
LINE
8
MCD_Layer_0
10
11.829724
20
2.148150
30
0.0
11
11.737570
21
2.131190
31
0.0
0
LINE
8
MCD_Layer_0
10
11.737570
20
2.131190
30
0.0
11
11.716558
21
2.250353
31
0.0
0
LINE
8
MCD_Layer_0
10
11.716558
20
2.250353
30
0.0
11
11.585926
21
2.227014
31
0.0
0
LINE
8
MCD_Layer_0
10
11.622149
20
2.014677
30
0.0
11
15.155515
21
2.664920
31
0.0
0
LINE
8
MCD_Layer_0
10
11.454587
20
2.203652
30
0.0
11
11.278277
21
2.172158
31
0.0
0
LINE
8
MCD_Layer_0
10
11.278277
20
2.172158
30
0.0
11
11.299706
21
2.050632
31
0.0
0
LINE
8
MCD_Layer_0
10
11.299706
20
2.050632
30
0.0
11
11.207552
21
2.033671
31
0.0
0
LINE
8
MCD_Layer_0
10
11.207552
20
2.033671
30
0.0
11
11.186036
21
2.155690
31
0.0
0
LINE
8
MCD_Layer_0
10
11.186036
20
2.155690
30
0.0
11
10.782404
21
2.083707
31
0.0
0
LINE
8
MCD_Layer_0
10
10.782404
20
2.083707
30
0.0
11
10.804301
21
1.959521
31
0.0
0
LINE
8
MCD_Layer_0
10
10.804301
20
1.959521
30
0.0
11
10.712146
21
1.942561
31
0.0
0
LINE
8
MCD_Layer_0
10
10.712146
20
1.942561
30
0.0
11
10.690163
21
2.067238
31
0.0
0
LINE
8
MCD_Layer_0
10
10.690163
20
2.067238
30
0.0
11
10.597116
21
2.050730
31
0.0
0
LINE
8
MCD_Layer_0
10
10.616798
20
1.829690
30
0.0
11
11.495282
21
1.991292
31
0.0
0
LINE
8
MCD_Layer_0
10
10.459786
20
2.026211
30
0.0
11
10.332603
21
2.003480
31
0.0
0
LINE
8
MCD_Layer_0
10
10.332603
20
2.003480
30
0.0
11
10.354934
21
1.876834
31
0.0
0
LINE
8
MCD_Layer_0
10
10.354934
20
1.876834
30
0.0
11
10.262778
21
1.859873
31
0.0
0
LINE
8
MCD_Layer_0
10
10.262778
20
1.859873
30
0.0
11
10.240360
21
1.987013
31
0.0
0
LINE
8
MCD_Layer_0
10
10.240360
20
1.987013
30
0.0
11
9.894403
21
1.925401
31
0.0
0
LINE
8
MCD_Layer_0
10
9.894403
20
1.925401
30
0.0
11
9.917185
21
1.796194
31
0.0
0
LINE
8
MCD_Layer_0
10
9.917185
20
1.796194
30
0.0
11
9.824932
21
1.779217
31
0.0
0
LINE
8
MCD_Layer_0
10
9.824932
20
1.779217
30
0.0
11
9.802063
21
1.908916
31
0.0
0
LINE
8
MCD_Layer_0
10
9.802063
20
1.908916
30
0.0
11
9.711693
21
1.892778
31
0.0
0
LINE
8
MCD_Layer_0
10
9.709806
20
1.662757
30
0.0
11
10.519048
21
1.811641
31
0.0
0
LINE
8
MCD_Layer_0
10
9.199693
20
0.688169
30
0.0
11
8.783829
21
0.607226
31
0.0
0
LINE
8
MCD_Layer_0
10
2.505165
20
-1.085977
30
0.0
11
2.361510
21
-1.068861
31
0.0
0
LINE
8
MCD_Layer_0
10
2.361510
20
-1.068861
30
0.0
11
1.816221
21
-1.165010
31
0.0
0
LINE
8
MCD_Layer_0
10
1.707165
20
-1.088993
30
0.0
11
1.671462
21
-0.886516
31
0.0
0
LINE
8
MCD_Layer_0
10
1.562325
20
-0.810615
30
0.0
11
1.165174
21
1.441739
31
0.0
0
LINE
8
MCD_Layer_0
10
1.241277
20
1.550303
30
0.0
11
2.003027
21
1.684620
31
0.0
0
LINE
8
MCD_Layer_0
10
9.245907
20
2.601157
30
0.0
11
10.383618
21
2.789887
31
0.0
0
LINE
8
MCD_Layer_0
10
9.166688
20
2.588001
30
0.0
11
8.384839
21
2.458264
31
0.0
0
LINE
8
MCD_Layer_0
10
8.227641
20
2.397849
30
0.0
11
7.491967
21
2.275745
31
0.0
0
LINE
8
MCD_Layer_0
10
7.256066
20
2.236689
30
0.0
11
5.549803
21
1.953597
31
0.0
0
LINE
8
MCD_Layer_0
10
5.326934
20
1.916636
30
0.0
11
3.882213
21
1.676921
31
0.0
0
LINE
8
MCD_Layer_0
10
3.700285
20
1.646771
30
0.0
11
2.578855
21
1.460711
31
0.0
0
LINE
8
MCD_Layer_0
10
2.504078
20
1.337148
30
0.0
11
2.675648
21
1.365572
31
0.0
0
LINE
8
MCD_Layer_0
10
2.675648
20
1.365572
30
0.0
11
2.702494
21
1.213321
31
0.0
0
LINE
8
MCD_Layer_0
10
2.702494
20
1.213321
30
0.0
11
2.794839
21
1.229198
31
0.0
0
LINE
8
MCD_Layer_0
10
2.794839
20
1.229198
30
0.0
11
2.768097
21
1.380858
31
0.0
0
LINE
8
MCD_Layer_0
10
2.768097
20
1.380858
30
0.0
11
3.375126
21
1.481598
31
0.0
0
LINE
8
MCD_Layer_0
10
3.375126
20
1.481598
30
0.0
11
3.372435
21
1.328708
31
0.0
0
LINE
8
MCD_Layer_0
10
3.372435
20
1.328708
30
0.0
11
3.466553
21
1.344897
31
0.0
0
LINE
8
MCD_Layer_0
10
3.466553
20
1.344897
30
0.0
11
3.469151
21
1.497162
31
0.0
0
LINE
8
MCD_Layer_0
10
3.469151
20
1.497162
30
0.0
11
3.691116
21
1.534065
31
0.0
0
LINE
8
MCD_Layer_0
10
3.927313
20
1.573176
30
0.0
11
4.138935
21
1.608256
31
0.0
0
LINE
8
MCD_Layer_0
10
4.138935
20
1.608256
30
0.0
11
4.136378
21
1.460365
31
0.0
0
LINE
8
MCD_Layer_0
10
4.136378
20
1.460365
30
0.0
11
4.230398
21
1.476538
31
0.0
0
LINE
8
MCD_Layer_0
10
4.230398
20
1.476538
30
0.0
11
4.232945
21
1.623919
31
0.0
0
LINE
8
MCD_Layer_0
10
4.232945
20
1.623919
30
0.0
11
5.035034
21
1.756920
31
0.0
0
LINE
8
MCD_Layer_0
10
5.035034
20
1.756920
30
0.0
11
5.059293
21
1.619344
31
0.0
0
LINE
8
MCD_Layer_0
10
5.059293
20
1.619344
30
0.0
11
5.151720
21
1.635336
31
0.0
0
LINE
8
MCD_Layer_0
10
5.151720
20
1.635336
30
0.0
11
5.127565
21
1.772323
31
0.0
0
LINE
8
MCD_Layer_0
10
5.127565
20
1.772323
30
0.0
11
5.350925
21
1.809372
31
0.0
0
LINE
8
MCD_Layer_0
10
5.561663
20
1.844296
30
0.0
11
5.786303
21
1.881572
31
0.0
0
LINE
8
MCD_Layer_0
10
5.786303
20
1.881572
30
0.0
11
5.809728
21
1.748721
31
0.0
0
LINE
8
MCD_Layer_0
10
5.809728
20
1.748721
30
0.0
11
5.902172
21
1.764614
31
0.0
0
LINE
8
MCD_Layer_0
10
5.902172
20
1.764614
30
0.0
11
5.878834
21
1.896974
31
0.0
0
LINE
8
MCD_Layer_0
10
5.878834
20
1.896974
30
0.0
11
6.970880
21
2.078055
31
0.0
0
LINE
8
MCD_Layer_0
10
6.970880
20
2.078055
30
0.0
11
6.993002
21
1.952592
31
0.0
0
LINE
8
MCD_Layer_0
10
6.993002
20
1.952592
30
0.0
11
7.085447
21
1.968486
31
0.0
0
LINE
8
MCD_Layer_0
10
7.085447
20
1.968486
30
0.0
11
7.063411
21
2.093458
31
0.0
0
LINE
8
MCD_Layer_0
10
7.063411
20
2.093458
30
0.0
11
7.300593
21
2.132741
31
0.0
0
LINE
8
MCD_Layer_0
10
7.483292
20
2.163127
30
0.0
11
7.722148
21
2.202706
31
0.0
0
LINE
8
MCD_Layer_0
10
7.722148
20
2.202706
30
0.0
11
7.743455
21
2.081870
31
0.0
0
LINE
8
MCD_Layer_0
10
7.743455
20
2.081870
30
0.0
11
7.835898
21
2.097765
31
0.0
0
LINE
8
MCD_Layer_0
10
7.835898
20
2.097765
30
0.0
11
7.814696
21
2.218010
31
0.0
0
LINE
8
MCD_Layer_0
10
7.814696
20
2.218010
30
0.0
11
8.188895
21
2.280132
31
0.0
0
LINE
8
MCD_Layer_0
10
8.448524
20
0.743774
30
0.0
11
7.772996
21
0.612273
31
0.0
0
LINE
8
MCD_Layer_0
10
7.559461
20
0.570763
30
0.0
11
5.859070
21
0.239967
31
0.0
0
LINE
8
MCD_Layer_0
10
5.621788
20
0.193763
30
0.0
11
3.897438
21
-0.141664
31
0.0
0
LINE
8
MCD_Layer_0
10
3.662421
20
-0.187470
30
0.0
11
2.895271
21
-0.336651
31
0.0
0
LINE
8
MCD_Layer_0
10
2.815968
20
-0.431665
30
0.0
11
2.986703
21
-0.398514
31
0.0
0
LINE
8
MCD_Layer_0
10
2.986703
20
-0.398514
30
0.0
11
3.014227
21
-0.554605
31
0.0
0
LINE
8
MCD_Layer_0
10
3.014227
20
-0.554605
30
0.0
11
2.577562
21
-0.631601
31
0.0
0
LINE
8
MCD_Layer_0
10
2.577562
20
-0.631601
30
0.0
11
2.180411
21
1.620752
31
0.0
0
LINE
8
MCD_Layer_0
10
2.180411
20
1.620752
30
0.0
11
2.617076
21
1.697748
31
0.0
0
LINE
8
MCD_Layer_0
10
2.617076
20
1.697748
30
0.0
11
2.640309
21
1.565981
31
0.0
0
LINE
8
MCD_Layer_0
10
2.640309
20
1.565981
30
0.0
11
2.732742
21
1.581365
31
0.0
0
LINE
8
MCD_Layer_0
10
2.732742
20
1.581365
30
0.0
11
2.709352
21
1.714019
31
0.0
0
LINE
8
MCD_Layer_0
10
2.600805
20
1.790024
30
0.0
11
2.095401
21
1.700908
31
0.0
0
LINE
8
MCD_Layer_0
10
9.375403
20
1.832770
30
0.0
11
9.398672
21
1.700806
31
0.0
0
LINE
8
MCD_Layer_0
10
9.398672
20
1.700806
30
0.0
11
9.490828
21
1.717767
31
0.0
0
LINE
8
MCD_Layer_0
10
9.490828
20
1.717767
30
0.0
11
9.467646
21
1.849239
31
0.0
0
LINE
8
MCD_Layer_0
10
9.467646
20
1.849239
30
0.0
11
9.569242
21
1.867356
31
0.0
0
LINE
8
MCD_Layer_0
10
9.651888
20
1.652037
30
0.0
11
8.970301
21
1.526675
31
0.0
0
LINE
8
MCD_Layer_0
10
9.011359
20
1.629567
30
0.0
11
9.110703
21
1.647796
31
0.0
0
LINE
8
MCD_Layer_0
10
9.110703
20
1.647796
30
0.0
11
9.087138
21
1.781434
31
0.0
0
LINE
8
MCD_Layer_0
10
9.087138
20
1.781434
30
0.0
11
9.375403
21
1.832770
31
0.0
0
LINE
8
MCD_Layer_0
10
8.472212
20
0.668749
30
0.0
11
8.100429
21
0.596391
31
0.0
0
LINE
8
MCD_Layer_0
10
7.261909
20
0.433306
30
0.0
11
6.171585
21
0.221149
31
0.0
0
LINE
8
MCD_Layer_0
10
5.339154
20
0.059239
30
0.0
11
4.201420
21
-0.162190
31
0.0
0
LINE
8
MCD_Layer_0
10
3.388338
20
-0.320384
30
0.0
11
3.078684
21
-0.380569
31
0.0
0
LINE
8
MCD_Layer_0
10
3.078684
20
-0.380569
30
0.0
11
3.106503
21
-0.538335
31
0.0
0
LINE
8
MCD_Layer_0
10
3.030497
20
-0.646881
30
0.0
11
2.752190
21
-0.695954
31
0.0
0
LINE
8
MCD_Layer_0
10
2.752190
20
-0.695954
30
0.0
11
2.723600
21
-0.758978
31
0.0
0
LINE
8
MCD_Layer_0
10
2.723600
20
-0.758978
30
0.0
11
3.292229
21
-0.826868
31
0.0
0
LINE
8
MCD_Layer_0
10
4.127230
20
-0.926587
30
0.0
11
5.113456
21
-1.044318
31
0.0
0
LINE
8
MCD_Layer_0
10
5.054755
20
-1.390369
30
0.0
11
4.182211
21
-1.286201
31
0.0
0
LINE
8
MCD_Layer_0
10
3.154079
20
-1.163470
30
0.0
11
2.606716
21
-1.098126
31
0.0
0
LINE
8
MCD_Layer_0
10
7.354006
20
0.451170
30
0.0
11
7.562126
21
0.491725
31
0.0
0
LINE
8
MCD_Layer_0
10
7.800097
20
0.538052
30
0.0
11
8.008234
21
0.578509
31
0.0
0
LINE
8
MCD_Layer_0
10
7.669147
20
2.400203
30
0.0
11
7.765931
21
2.416253
31
0.0
0
LINE
8
MCD_Layer_0
10
6.951120
20
2.281109
30
0.0
11
7.047903
21
2.297159
31
0.0
0
LINE
8
MCD_Layer_0
10
5.824455
20
2.094227
30
0.0
11
5.725899
21
2.077865
31
0.0
0
LINE
8
MCD_Layer_0
10
5.119954
20
1.977315
30
0.0
11
5.021299
21
1.960935
31
0.0
0
LINE
8
MCD_Layer_0
10
3.388328
20
1.690057
30
0.0
11
3.490921
21
1.707132
31
0.0
0
LINE
8
MCD_Layer_0
10
4.064907
20
1.802350
30
0.0
11
4.167519
21
1.819325
31
0.0
0
LINE
8
MCD_Layer_0
10
2.057310
20
1.599047
30
0.0
11
2.109770
21
1.301536
31
0.0
0
LINE
8
MCD_Layer_0
10
2.109770
20
1.301536
30
0.0
11
1.667591
21
1.223568
31
0.0
0
LINE
8
MCD_Layer_0
10
1.667591
20
1.223568
30
0.0
11
1.615131
21
1.521078
31
0.0
0
LINE
8
MCD_Layer_0
10
1.615131
20
1.521078
30
0.0
11
2.057310
21
1.599047
31
0.0
0
LINE
8
MCD_Layer_0
10
2.126058
20
1.209161
30
0.0
11
1.683879
21
1.131193
31
0.0
0
LINE
8
MCD_Layer_0
10
1.683879
20
1.131193
30
0.0
11
1.736824
21
0.830926
31
0.0
0
LINE
8
MCD_Layer_0
10
1.736824
20
0.830926
30
0.0
11
2.179003
21
0.908895
31
0.0
0
LINE
8
MCD_Layer_0
10
2.179003
20
0.908895
30
0.0
11
2.126058
21
1.209161
31
0.0
0
LINE
8
MCD_Layer_0
10
2.195292
20
0.816518
30
0.0
11
2.247750
21
0.519007
31
0.0
0
LINE
8
MCD_Layer_0
10
2.247750
20
0.519007
30
0.0
11
1.805572
21
0.441039
31
0.0
0
LINE
8
MCD_Layer_0
10
1.805572
20
0.441039
30
0.0
11
1.753113
21
0.738549
31
0.0
0
LINE
8
MCD_Layer_0
10
1.753113
20
0.738549
30
0.0
11
2.195292
21
0.816518
31
0.0
0
LINE
8
MCD_Layer_0
10
2.264021
20
0.426731
30
0.0
11
1.821842
21
0.348763
31
0.0
0
LINE
8
MCD_Layer_0
10
1.821842
20
0.348763
30
0.0
11
1.874302
21
0.051252
31
0.0
0
LINE
8
MCD_Layer_0
10
1.874302
20
0.051252
30
0.0
11
2.316481
21
0.129220
31
0.0
0
LINE
8
MCD_Layer_0
10
2.316481
20
0.129220
30
0.0
11
2.264021
21
0.426731
31
0.0
0
LINE
8
MCD_Layer_0
10
2.332768
20
0.036846
30
0.0
11
1.890590
21
-0.041122
31
0.0
0
LINE
8
MCD_Layer_0
10
1.890590
20
-0.041122
30
0.0
11
1.943535
21
-0.341391
31
0.0
0
LINE
8
MCD_Layer_0
10
1.943535
20
-0.341391
30
0.0
11
2.385714
21
-0.263422
31
0.0
0
LINE
8
MCD_Layer_0
10
2.385714
20
-0.263422
30
0.0
11
2.332768
21
0.036846
31
0.0
0
LINE
8
MCD_Layer_0
10
2.402002
20
-0.355798
30
0.0
11
2.454461
21
-0.653307
31
0.0
0
LINE
8
MCD_Layer_0
10
2.454461
20
-0.653307
30
0.0
11
2.012282
21
-0.731276
31
0.0
0
LINE
8
MCD_Layer_0
10
2.012282
20
-0.731276
30
0.0
11
1.959824
21
-0.433765
31
0.0
0
LINE
8
MCD_Layer_0
10
1.959824
20
-0.433765
30
0.0
11
2.402002
21
-0.355798
31
0.0
0
LINE
8
MCD_Layer_0
10
2.091900
20
-0.777960
30
0.0
11
5.093226
21
-1.136329
31
0.0
0
LINE
8
MCD_Layer_0
10
5.472345
20
-1.127460
30
0.0
11
5.499956
21
-1.284045
31
0.0
0
LINE
8
MCD_Layer_0
10
5.499956
20
-1.284045
30
0.0
11
5.453768
21
-1.292190
31
0.0
0
LINE
8
MCD_Layer_0
10
5.073948
20
-1.298236
30
0.0
11
2.072621
21
-0.939866
31
0.0
0
LINE
8
MCD_Layer_0
10
1.920006
20
-0.747546
30
0.0
11
1.654698
21
-0.794327
31
0.0
0
LINE
8
MCD_Layer_0
10
1.654698
20
-0.794327
30
0.0
11
1.257547
21
1.458027
31
0.0
0
LINE
8
MCD_Layer_0
10
1.257547
20
1.458027
30
0.0
11
1.522856
21
1.504807
31
0.0
0
LINE
8
MCD_Layer_0
10
1.522856
20
1.504807
30
0.0
11
1.920006
21
-0.747546
31
0.0
0
LINE
8
MCD_Layer_0
10
1.153517
20
-2.773220
30
0.0
11
0.561582
21
-3.557322
31
0.0
0
LINE
8
MCD_Layer_0
10
0.465563
20
-3.490174
30
0.0
11
0.999922
21
-2.665759
31
0.0
0
LINE
8
MCD_Layer_0
10
1.062016
20
-2.372927
30
0.0
11
1.000205
21
-2.461203
31
0.0
0
LINE
8
MCD_Layer_0
10
1.000205
20
-2.461203
30
0.0
11
1.193536
21
-2.552722
31
0.0
0
LINE
8
MCD_Layer_0
10
1.193536
20
-2.552722
30
0.0
11
1.345656
21
-2.703091
31
0.0
0
LINE
8
MCD_Layer_0
10
1.345656
20
-2.703091
30
0.0
11
1.407468
21
-2.614816
31
0.0
0
LINE
8
MCD_Layer_0
10
1.407468
20
-2.614816
30
0.0
11
1.255345
21
-2.464447
31
0.0
0
LINE
8
MCD_Layer_0
10
1.255345
20
-2.464447
30
0.0
11
1.062016
21
-2.372927
31
0.0
0
LINE
8
MCD_Layer_0
10
3.247631
20
-1.174594
30
0.0
11
3.396802
21
-1.192464
31
0.0
0
LINE
8
MCD_Layer_0
10
3.939487
20
-1.257211
30
0.0
11
4.088659
21
-1.275078
31
0.0
0
LINE
8
MCD_Layer_0
10
3.844488
20
-1.245935
30
0.0
11
3.491802
21
-1.203737
31
0.0
0
LINE
8
MCD_Layer_0
10
3.414948
20
-0.841581
30
0.0
11
4.004509
21
-0.911872
31
0.0
0
LINE
8
MCD_Layer_0
10
4.105499
20
-0.180830
30
0.0
11
3.855648
21
-0.229455
31
0.0
0
LINE
8
MCD_Layer_0
10
3.734093
20
-0.253021
30
0.0
11
3.484142
21
-0.301664
31
0.0
0
LINE
8
MCD_Layer_0
10
6.078521
20
0.203014
30
0.0
11
5.863212
21
0.161190
31
0.0
0
LINE
8
MCD_Layer_0
10
5.647428
20
0.119183
30
0.0
11
5.432137
21
0.077259
31
0.0
0
LINE
8
MCD_Layer_0
10
5.592233
20
-1.267775
30
0.0
11
5.565108
21
-1.113946
31
0.0
0
LINE
8
MCD_Layer_0
10
8.275789
20
2.173725
30
0.0
11
8.184967
21
2.158110
31
0.0
0
LINE
8
MCD_Layer_0
10
8.286560
20
1.829022
30
0.0
11
8.194574
21
1.812600
31
0.0
0
LINE
8
MCD_Layer_0
10
8.327274
20
1.503605
30
0.0
11
8.235018
21
1.486627
31
0.0
0
LINE
8
MCD_Layer_0
10
8.401796
20
1.166751
30
0.0
11
8.310101
21
1.149369
31
0.0
0
LINE
8
MCD_Layer_0
10
8.503754
20
0.850211
30
0.0
11
8.413419
21
0.832657
31
0.0
0
LINE
8
MCD_Layer_0
10
8.359978
20
0.983801
30
0.0
11
8.042905
21
0.923775
31
0.0
0
LINE
8
MCD_Layer_0
10
8.451145
20
1.001060
30
0.0
11
8.762284
21
1.059964
31
0.0
0
LINE
8
MCD_Layer_0
10
8.363767
20
1.319697
30
0.0
11
8.705398
21
1.382586
31
0.0
0
LINE
8
MCD_Layer_0
10
8.271648
20
1.302741
30
0.0
11
7.985375
21
1.250043
31
0.0
0
LINE
8
MCD_Layer_0
10
8.213985
20
1.625703
30
0.0
11
7.928123
21
1.574733
31
0.0
0
LINE
8
MCD_Layer_0
10
8.306263
20
1.642156
30
0.0
11
8.648857
21
1.703239
31
0.0
0
LINE
8
MCD_Layer_0
10
8.186626
20
1.951724
30
0.0
11
7.871236
21
1.897357
31
0.0
0
LINE
8
MCD_Layer_0
10
8.592700
20
2.021725
30
0.0
11
8.278267
21
1.967522
31
0.0
0
LINE
8
MCD_Layer_0
10
-1.514000
20
5.357300
30
0.0
11
-1.521700
21
5.447100
31
0.0
0
LINE
8
MCD_Layer_0
10
-0.765499
20
6.953199
30
0.0
11
-0.698500
21
7.027802
31
0.0
0
LINE
8
MCD_Layer_0
10
-0.698500
20
7.027802
30
0.0
11
-0.444798
21
6.846699
31
0.0
0
LINE
8
MCD_Layer_0
10
-0.444798
20
6.846699
30
0.0
11
-0.493799
21
6.784100
31
0.0
0
LINE
8
MCD_Layer_0
10
0.058201
20
5.274399
30
0.0
11
0.206699
21
6.008200
31
0.0
0
LINE
8
MCD_Layer_0
10
0.206699
20
6.008200
30
0.0
11
1.295101
21
11.381701
31
0.0
0
LINE
8
MCD_Layer_0
10
1.017200
20
12.003099
30
0.0
11
0.921200
21
11.984200
31
0.0
0
LINE
8
MCD_Layer_0
10
0.823799
20
12.172100
30
0.0
11
0.868299
21
12.433399
31
0.0
0
LINE
8
MCD_Layer_0
10
1.066700
20
12.634100
30
0.0
11
1.108702
21
12.881001
31
0.0
0
LINE
8
MCD_Layer_0
10
1.232201
20
13.113300
30
0.0
11
1.274399
21
13.361000
31
0.0
0
LINE
8
MCD_Layer_0
10
1.489302
20
13.374901
30
0.0
11
1.559402
21
13.314400
31
0.0
0
LINE
8
MCD_Layer_0
10
2.475201
20
13.164501
30
0.0
11
2.549902
21
13.195000
31
0.0
0
LINE
8
MCD_Layer_0
10
2.762499
20
13.124401
30
0.0
11
2.723900
21
12.875999
31
0.0
0
LINE
8
MCD_Layer_0
10
2.765900
20
12.607800
30
0.0
11
2.728300
21
12.365900
31
0.0
0
LINE
8
MCD_Layer_0
10
2.541903
20
12.233200
30
0.0
11
2.495401
21
12.259600
31
0.0
0
LINE
8
MCD_Layer_0
10
2.518801
20
12.131500
30
0.0
11
2.591501
21
12.154099
31
0.0
0
LINE
8
MCD_Layer_0
10
2.847799
20
12.080601
30
0.0
11
2.811602
21
11.847801
31
0.0
0
LINE
8
MCD_Layer_0
10
2.668798
20
11.695900
30
0.0
11
2.568399
21
11.752998
31
0.0
0
LINE
8
MCD_Layer_0
10
2.133999
20
11.245001
30
0.0
11
1.103601
21
4.970301
31
0.0
0
LINE
8
MCD_Layer_0
10
2.258801
20
2.223600
30
0.0
11
2.302101
21
2.028200
31
0.0
0
LINE
8
MCD_Layer_0
10
2.302101
20
2.028200
30
0.0
11
2.326000
21
1.582600
31
0.0
0
LINE
8
MCD_Layer_0
10
1.946602
20
0.555000
30
0.0
11
1.920700
21
0.529100
31
0.0
0
LINE
8
MCD_Layer_0
10
-0.195299
20
0.040000
30
0.0
11
-0.218300
21
-0.073000
31
0.0
0
LINE
8
MCD_Layer_0
10
-0.218300
20
-0.073000
30
0.0
11
-0.623201
21
0.009000
31
0.0
0
LINE
8
MCD_Layer_0
10
-0.623201
20
0.009000
30
0.0
11
-0.605299
21
0.097300
31
0.0
0
LINE
8
MCD_Layer_0
10
-0.440199
20
0.214000
30
0.0
11
-0.477898
21
0.093599
31
0.0
0
LINE
8
MCD_Layer_0
10
-0.477898
20
0.093599
30
0.0
11
-0.280800
21
0.053699
31
0.0
0
LINE
8
MCD_Layer_0
10
-0.280800
20
0.053699
30
0.0
11
-0.257898
21
0.166700
31
0.0
0
LINE
8
MCD_Layer_0
10
-0.257898
20
0.166700
30
0.0
11
-0.027800
21
0.125200
31
0.0
0
LINE
8
MCD_Layer_0
10
2.175999
20
1.379600
30
0.0
11
2.189798
21
1.729400
31
0.0
0
LINE
8
MCD_Layer_0
10
2.170399
20
1.966700
30
0.0
11
2.054201
21
2.519199
31
0.0
0
LINE
8
MCD_Layer_0
10
2.203100
20
5.532700
30
0.0
11
2.170099
21
5.523800
31
0.0
0
LINE
8
MCD_Layer_0
10
1.415701
20
4.743299
30
0.0
11
1.258301
21
4.759600
31
0.0
0
LINE
8
MCD_Layer_0
10
1.258301
20
4.759600
30
0.0
11
1.207100
21
4.778900
31
0.0
0
LINE
8
MCD_Layer_0
10
1.204700
20
4.765200
30
0.0
11
1.084301
21
4.082001
31
0.0
0
LINE
8
MCD_Layer_0
10
1.084301
20
4.082001
30
0.0
11
-0.282400
21
4.323000
31
0.0
0
LINE
8
MCD_Layer_0
10
-0.282400
20
4.323000
30
0.0
11
-0.150499
21
5.070900
31
0.0
0
LINE
8
MCD_Layer_0
10
-0.150499
20
5.070900
30
0.0
11
0.011200
21
5.042400
31
0.0
0
LINE
8
MCD_Layer_0
10
0.011200
20
5.042400
30
0.0
11
0.031702
21
5.143499
31
0.0
0
LINE
8
MCD_Layer_0
10
-0.643398
20
6.762501
30
0.0
11
-0.599400
21
6.826302
31
0.0
0
LINE
8
MCD_Layer_0
10
-0.599400
20
6.826302
30
0.0
11
-0.671000
21
6.882200
31
0.0
0
LINE
8
MCD_Layer_0
10
-0.671000
20
6.882200
30
0.0
11
-0.725000
21
6.820599
31
0.0
0
LINE
8
MCD_Layer_0
10
-0.774200
20
1.713699
30
0.0
11
0.653999
21
1.461900
31
0.0
0
LINE
8
MCD_Layer_0
10
0.719101
20
1.831200
30
0.0
11
-0.709101
21
2.083000
31
0.0
0
LINE
8
MCD_Layer_0
10
-0.442999
20
1.940599
30
0.0
11
0.419201
21
1.788600
31
0.0
0
LINE
8
MCD_Layer_0
10
0.386700
20
1.604400
30
0.0
11
-0.475498
21
1.756500
31
0.0
0
LINE
8
MCD_Layer_0
10
-0.427500
20
2.318699
30
0.0
11
-0.342699
21
2.303699
31
0.0
0
LINE
8
MCD_Layer_0
10
-0.343500
20
2.298900
30
0.0
11
-0.371901
21
2.118999
31
0.0
0
LINE
8
MCD_Layer_0
10
-0.371901
20
2.118999
30
0.0
11
-0.454397
21
2.133500
31
0.0
0
LINE
8
MCD_Layer_0
10
-0.302900
20
2.106800
30
0.0
11
-0.275900
21
2.286900
31
0.0
0
LINE
8
MCD_Layer_0
10
-0.275099
20
2.291800
30
0.0
11
-0.189699
21
2.276800
31
0.0
0
LINE
8
MCD_Layer_0
10
-0.190599
20
2.271900
30
0.0
11
-0.217400
21
2.091800
31
0.0
0
LINE
8
MCD_Layer_0
10
-0.217400
20
2.091800
30
0.0
11
-0.302900
21
2.106800
31
0.0
0
LINE
8
MCD_Layer_0
10
-0.122002
20
2.074900
30
0.0
11
-0.094698
21
2.254999
31
0.0
0
LINE
8
MCD_Layer_0
10
-0.093800
20
2.259800
30
0.0
11
-0.008499
21
2.244800
31
0.0
0
LINE
8
MCD_Layer_0
10
-0.009399
20
2.239900
30
0.0
11
-0.036699
21
2.059900
31
0.0
0
LINE
8
MCD_Layer_0
10
-0.036699
20
2.059900
30
0.0
11
-0.122002
21
2.074900
31
0.0
0
LINE
8
MCD_Layer_0
10
0.061100
20
2.042700
30
0.0
11
0.146301
21
2.027599
31
0.0
0
LINE
8
MCD_Layer_0
10
0.146301
20
2.027599
30
0.0
11
0.175600
21
2.207300
31
0.0
0
LINE
8
MCD_Layer_0
10
0.176399
20
2.212200
30
0.0
11
0.091101
21
2.227200
31
0.0
0
LINE
8
MCD_Layer_0
10
0.090302
20
2.222400
30
0.0
11
0.061100
21
2.042600
31
0.0
0
LINE
8
MCD_Layer_0
10
0.230101
20
2.012800
30
0.0
11
0.260698
21
2.192300
31
0.0
0
LINE
8
MCD_Layer_0
10
0.261499
20
2.197200
30
0.0
11
0.346901
21
2.182100
31
0.0
0
LINE
8
MCD_Layer_0
10
0.346001
20
2.177299
30
0.0
11
0.315500
21
1.997800
31
0.0
0
LINE
8
MCD_Layer_0
10
0.315500
20
1.997800
30
0.0
11
0.230101
21
2.012800
31
0.0
0
LINE
8
MCD_Layer_0
10
0.401501
20
1.982600
30
0.0
11
0.432402
21
2.162000
31
0.0
0
LINE
8
MCD_Layer_0
10
0.433201
20
2.166900
30
0.0
11
0.518501
21
2.151900
31
0.0
0
LINE
8
MCD_Layer_0
10
0.517700
20
2.146999
30
0.0
11
0.486900
21
1.967600
31
0.0
0
LINE
8
MCD_Layer_0
10
0.486900
20
1.967600
30
0.0
11
0.401501
21
1.982600
31
0.0
0
LINE
8
MCD_Layer_0
10
0.485401
20
2.348600
30
0.0
11
0.677198
21
2.314800
31
0.0
0
LINE
8
MCD_Layer_0
10
0.677198
20
2.314800
30
0.0
11
0.776400
21
2.877499
31
0.0
0
LINE
8
MCD_Layer_0
10
0.776400
20
2.877499
30
0.0
11
-0.405098
21
3.085899
31
0.0
0
LINE
8
MCD_Layer_0
10
-0.405098
20
3.085899
30
0.0
11
-0.504299
21
2.523100
31
0.0
0
LINE
8
MCD_Layer_0
10
-0.504299
20
2.523100
30
0.0
11
0.485401
21
2.348600
31
0.0
0
LINE
8
MCD_Layer_0
10
0.520700
20
2.658501
30
0.0
11
0.548801
21
2.822201
31
0.0
0
LINE
8
MCD_Layer_0
10
0.548801
20
2.822201
30
0.0
11
0.634100
21
2.807199
31
0.0
0
LINE
8
MCD_Layer_0
10
0.634100
20
2.807199
30
0.0
11
0.606001
21
2.643499
31
0.0
0
LINE
8
MCD_Layer_0
10
0.606001
20
2.643499
30
0.0
11
0.520700
21
2.658501
31
0.0
0
LINE
8
MCD_Layer_0
10
0.434502
20
2.673700
30
0.0
11
0.462400
21
2.837399
31
0.0
0
LINE
8
MCD_Layer_0
10
0.462400
20
2.837399
30
0.0
11
0.377100
21
2.852501
31
0.0
0
LINE
8
MCD_Layer_0
10
0.377100
20
2.852501
30
0.0
11
0.349201
21
2.688700
31
0.0
0
LINE
8
MCD_Layer_0
10
0.349201
20
2.688700
30
0.0
11
0.434502
21
2.673700
31
0.0
0
LINE
8
MCD_Layer_0
10
0.265200
20
2.703499
30
0.0
11
0.292000
21
2.867500
31
0.0
0
LINE
8
MCD_Layer_0
10
0.292000
20
2.867500
30
0.0
11
0.206699
21
2.882500
31
0.0
0
LINE
8
MCD_Layer_0
10
0.206699
20
2.882500
30
0.0
11
0.179998
21
2.718599
31
0.0
0
LINE
8
MCD_Layer_0
10
0.179998
20
2.718599
30
0.0
11
0.265200
21
2.703499
31
0.0
0
LINE
8
MCD_Layer_0
10
0.082102
20
2.735800
30
0.0
11
0.107000
21
2.900099
31
0.0
0
LINE
8
MCD_Layer_0
10
0.107000
20
2.900099
30
0.0
11
0.021702
21
2.915100
31
0.0
0
LINE
8
MCD_Layer_0
10
0.021702
20
2.915100
30
0.0
11
-0.003201
21
2.750900
31
0.0
0
LINE
8
MCD_Layer_0
10
-0.003201
20
2.750900
30
0.0
11
0.082102
21
2.735800
31
0.0
0
LINE
8
MCD_Layer_0
10
-0.098700
20
2.767700
30
0.0
11
-0.074200
21
2.932100
31
0.0
0
LINE
8
MCD_Layer_0
10
-0.074200
20
2.932100
30
0.0
11
-0.159500
21
2.947100
31
0.0
0
LINE
8
MCD_Layer_0
10
-0.159500
20
2.947100
30
0.0
11
-0.184099
21
2.782799
31
0.0
0
LINE
8
MCD_Layer_0
10
-0.184099
20
2.782799
30
0.0
11
-0.098700
21
2.767700
31
0.0
0
LINE
8
MCD_Layer_0
10
-0.253000
20
2.794899
30
0.0
11
-0.227100
21
2.959000
31
0.0
0
LINE
8
MCD_Layer_0
10
-0.227100
20
2.959000
30
0.0
11
-0.311802
21
2.973999
31
0.0
0
LINE
8
MCD_Layer_0
10
-0.335701
20
2.809500
30
0.0
11
-0.253000
21
2.794899
31
0.0
0
LINE
8
MCD_Layer_0
10
-0.251600
20
3.249701
30
0.0
11
-0.086899
21
4.199900
31
0.0
0
LINE
8
MCD_Layer_0
10
-0.086899
20
4.199900
30
0.0
11
-0.001699
21
4.183800
31
0.0
0
LINE
8
MCD_Layer_0
10
-0.001699
20
4.183800
30
0.0
11
-0.166300
21
3.234600
31
0.0
0
LINE
8
MCD_Layer_0
10
-0.166300
20
3.234600
30
0.0
11
-0.251600
21
3.249701
31
0.0
0
LINE
8
MCD_Layer_0
10
-0.081900
20
3.219799
30
0.0
11
0.081501
21
4.167999
31
0.0
0
LINE
8
MCD_Layer_0
10
0.081501
20
4.167999
30
0.0
11
0.166599
21
4.151901
31
0.0
0
LINE
8
MCD_Layer_0
10
0.166599
20
4.151901
30
0.0
11
0.003500
21
3.204700
31
0.0
0
LINE
8
MCD_Layer_0
10
0.003500
20
3.204700
30
0.0
11
-0.081900
21
3.219799
31
0.0
0
LINE
8
MCD_Layer_0
10
0.080400
20
3.191200
30
0.0
11
0.239201
21
4.138100
31
0.0
0
LINE
8
MCD_Layer_0
10
0.239201
20
4.138100
30
0.0
11
0.324301
21
4.121901
31
0.0
0
LINE
8
MCD_Layer_0
10
0.324301
20
4.121901
30
0.0
11
0.165699
21
3.176100
31
0.0
0
LINE
8
MCD_Layer_0
10
0.165699
20
3.176100
30
0.0
11
0.080400
21
3.191200
31
0.0
0
LINE
8
MCD_Layer_0
10
0.252901
20
3.160700
30
0.0
11
0.404701
21
4.106800
31
0.0
0
LINE
8
MCD_Layer_0
10
0.404701
20
4.106800
30
0.0
11
0.489799
21
4.090601
31
0.0
0
LINE
8
MCD_Layer_0
10
0.489799
20
4.090601
30
0.0
11
0.338200
21
3.145700
31
0.0
0
LINE
8
MCD_Layer_0
10
0.338200
20
3.145700
30
0.0
11
0.252901
21
3.160700
31
0.0
0
LINE
8
MCD_Layer_0
10
0.431801
20
3.129200
30
0.0
11
0.582001
21
4.073101
31
0.0
0
LINE
8
MCD_Layer_0
10
0.582001
20
4.073101
30
0.0
11
0.667099
21
4.056999
31
0.0
0
LINE
8
MCD_Layer_0
10
0.667099
20
4.056999
30
0.0
11
0.517200
21
3.114100
31
0.0
0
LINE
8
MCD_Layer_0
10
0.517302
20
3.114100
30
0.0
11
0.431801
21
3.129200
31
0.0
0
LINE
8
MCD_Layer_0
10
0.593401
20
3.100700
30
0.0
11
0.747900
21
4.041599
31
0.0
0
LINE
8
MCD_Layer_0
10
0.747900
20
4.041599
30
0.0
11
0.821602
21
4.027700
31
0.0
0
LINE
8
MCD_Layer_0
10
0.821602
20
4.027700
30
0.0
11
0.675600
21
3.086201
31
0.0
0
LINE
8
MCD_Layer_0
10
0.675600
20
3.086201
30
0.0
11
0.593401
21
3.100700
31
0.0
0
LINE
8
MCD_Layer_0
10
0.885302
20
2.953800
30
0.0
11
-0.481298
21
3.194799
31
0.0
0
LINE
8
MCD_Layer_0
10
-0.481298
20
3.194799
30
0.0
11
-0.613201
21
2.446899
31
0.0
0
LINE
8
MCD_Layer_0
10
-0.613201
20
2.446899
30
0.0
11
0.753500
21
2.205900
31
0.0
0
LINE
8
MCD_Layer_0
10
0.753500
20
2.205900
30
0.0
11
0.885302
21
2.953800
31
0.0
0
LINE
8
MCD_Layer_0
10
1.007999
20
4.190901
30
0.0
11
-0.173500
21
4.399300
31
0.0
0
LINE
8
MCD_Layer_0
10
-0.173500
20
4.399300
30
0.0
11
-0.074299
21
4.962000
31
0.0
0
LINE
8
MCD_Layer_0
10
-0.074299
20
4.962000
30
0.0
11
0.117498
21
4.928200
31
0.0
0
LINE
8
MCD_Layer_0
10
0.117498
20
4.928200
30
0.0
11
1.107201
21
4.753700
31
0.0
0
LINE
8
MCD_Layer_0
10
1.107201
20
4.753700
30
0.0
11
1.007999
21
4.190901
31
0.0
0
LINE
8
MCD_Layer_0
10
0.938602
20
4.467300
30
0.0
11
0.856001
21
4.481899
31
0.0
0
LINE
8
MCD_Layer_0
10
0.856001
20
4.481899
30
0.0
11
0.830101
21
4.317799
31
0.0
0
LINE
8
MCD_Layer_0
10
0.830101
20
4.317799
30
0.0
11
0.914801
21
4.302799
31
0.0
0
LINE
8
MCD_Layer_0
10
0.762499
20
4.329700
30
0.0
11
0.787100
21
4.493999
31
0.0
0
LINE
8
MCD_Layer_0
10
0.787100
20
4.493999
30
0.0
11
0.701601
21
4.509100
31
0.0
0
LINE
8
MCD_Layer_0
10
0.701601
20
4.509100
30
0.0
11
0.677099
21
4.344700
31
0.0
0
LINE
8
MCD_Layer_0
10
0.677099
20
4.344700
30
0.0
11
0.762499
21
4.329700
31
0.0
0
LINE
8
MCD_Layer_0
10
0.581200
20
4.361599
30
0.0
11
0.606201
21
4.525900
31
0.0
0
LINE
8
MCD_Layer_0
10
0.606201
20
4.525900
30
0.0
11
0.520800
21
4.541000
31
0.0
0
LINE
8
MCD_Layer_0
10
0.520800
20
4.541000
30
0.0
11
0.495901
21
4.376699
31
0.0
0
LINE
8
MCD_Layer_0
10
0.495901
20
4.376699
30
0.0
11
0.581200
21
4.361599
31
0.0
0
LINE
8
MCD_Layer_0
10
0.396301
20
4.394199
30
0.0
11
0.422901
21
4.558201
31
0.0
0
LINE
8
MCD_Layer_0
10
0.422901
20
4.558201
30
0.0
11
0.337700
21
4.573200
31
0.0
0
LINE
8
MCD_Layer_0
10
0.337700
20
4.573200
30
0.0
11
0.310999
21
4.409300
31
0.0
0
LINE
8
MCD_Layer_0
10
0.310999
20
4.409300
30
0.0
11
0.396301
21
4.394199
31
0.0
0
LINE
8
MCD_Layer_0
10
0.225901
20
4.424299
30
0.0
11
0.253700
21
4.588100
31
0.0
0
LINE
8
MCD_Layer_0
10
0.253700
20
4.588100
30
0.0
11
0.168398
21
4.603100
31
0.0
0
LINE
8
MCD_Layer_0
10
0.168398
20
4.603100
30
0.0
11
0.140499
21
4.439301
31
0.0
0
LINE
8
MCD_Layer_0
10
0.140499
20
4.439301
30
0.0
11
0.225901
21
4.424299
31
0.0
0
LINE
8
MCD_Layer_0
10
0.054201
20
4.454599
30
0.0
11
0.082302
21
4.618299
31
0.0
0
LINE
8
MCD_Layer_0
10
0.082302
20
4.618299
30
0.0
11
-0.003000
21
4.633301
31
0.0
0
LINE
8
MCD_Layer_0
10
-0.003000
20
4.633301
30
0.0
11
-0.031099
21
4.469601
31
0.0
0
LINE
8
MCD_Layer_0
10
-0.031099
20
4.469601
30
0.0
11
0.054201
21
4.454599
31
0.0
0
LINE
8
MCD_Layer_0
10
0.956402
20
4.875700
30
0.0
11
2.005800
21
11.265900
31
0.0
0
LINE
8
MCD_Layer_0
10
2.525602
20
11.885502
30
0.0
11
2.658602
21
11.809900
31
0.0
0
LINE
8
MCD_Layer_0
10
2.719700
20
11.868801
30
0.0
11
2.750000
21
12.063301
31
0.0
0
LINE
8
MCD_Layer_0
10
2.640699
20
12.073900
30
0.0
11
2.540800
21
12.033100
31
0.0
0
LINE
8
MCD_Layer_0
10
2.540800
20
12.033100
30
0.0
11
2.440601
21
12.047501
31
0.0
0
LINE
8
MCD_Layer_0
10
2.441502
20
12.398399
30
0.0
11
2.574501
21
12.322800
31
0.0
0
LINE
8
MCD_Layer_0
10
2.635601
20
12.381701
30
0.0
11
2.665899
21
12.576200
31
0.0
0
LINE
8
MCD_Layer_0
10
2.556501
20
12.586800
30
0.0
11
2.456701
21
12.546001
31
0.0
0
LINE
8
MCD_Layer_0
10
2.456701
20
12.546001
30
0.0
11
2.366798
21
12.556400
31
0.0
0
LINE
8
MCD_Layer_0
10
2.436602
20
12.905800
30
0.0
11
2.569700
21
12.830200
31
0.0
0
LINE
8
MCD_Layer_0
10
2.630798
20
12.889200
30
0.0
11
2.661098
21
13.083599
31
0.0
0
LINE
8
MCD_Layer_0
10
2.551702
20
13.094200
30
0.0
11
2.451902
21
13.053400
31
0.0
0
LINE
8
MCD_Layer_0
10
2.451902
20
13.053400
30
0.0
11
2.370600
21
13.062901
31
0.0
0
LINE
8
MCD_Layer_0
10
1.627199
20
13.183899
30
0.0
11
1.547401
21
13.200699
31
0.0
0
LINE
8
MCD_Layer_0
10
1.547401
20
13.200699
30
0.0
11
1.465700
21
13.271099
31
0.0
0
LINE
8
MCD_Layer_0
10
1.358603
20
13.295700
30
0.0
11
1.325602
21
13.101700
31
0.0
0
LINE
8
MCD_Layer_0
10
1.364901
20
13.026402
30
0.0
11
1.515001
21
13.055901
31
0.0
0
LINE
8
MCD_Layer_0
10
1.476000
20
12.701300
30
0.0
11
1.381800
21
12.721001
31
0.0
0
LINE
8
MCD_Layer_0
10
1.381800
20
12.721001
30
0.0
11
1.300100
21
12.791401
31
0.0
0
LINE
8
MCD_Layer_0
10
1.192999
20
12.816000
30
0.0
11
1.160000
21
12.622000
31
0.0
0
LINE
8
MCD_Layer_0
10
1.199301
20
12.546700
30
0.0
11
1.349401
21
12.576200
31
0.0
0
LINE
8
MCD_Layer_0
10
1.253601
20
12.240601
30
0.0
11
1.139301
21
12.261299
31
0.0
0
LINE
8
MCD_Layer_0
10
1.139301
20
12.261299
30
0.0
11
1.057602
21
12.331699
31
0.0
0
LINE
8
MCD_Layer_0
10
0.950500
20
12.356300
30
0.0
11
0.917500
21
12.162300
31
0.0
0
LINE
8
MCD_Layer_0
10
0.956800
20
12.087000
30
0.0
11
1.106901
21
12.116501
31
0.0
0
LINE
8
MCD_Layer_0
10
1.423601
20
11.360699
30
0.0
11
0.139200
21
5.019800
31
0.0
0
LINE
8
MCD_Layer_0
10
0.139200
20
5.019800
30
0.0
11
0.956402
21
4.875700
31
0.0
0
LINE
8
MCD_Layer_0
10
0.865799
20
5.089800
30
0.0
11
0.294500
21
5.198200
31
0.0
0
LINE
8
MCD_Layer_0
10
0.294500
20
5.198200
30
0.0
11
0.311399
21
5.283199
31
0.0
0
LINE
8
MCD_Layer_0
10
0.311399
20
5.283199
30
0.0
11
0.880100
21
5.175200
31
0.0
0
LINE
8
MCD_Layer_0
10
0.880100
20
5.175200
30
0.0
11
0.865799
21
5.089800
31
0.0
0
LINE
8
MCD_Layer_0
10
0.906700
20
5.335499
30
0.0
11
0.343201
21
5.442499
31
0.0
0
LINE
8
MCD_Layer_0
10
0.343201
20
5.442499
30
0.0
11
0.360201
21
5.527401
31
0.0
0
LINE
8
MCD_Layer_0
10
0.360201
20
5.527401
30
0.0
11
0.921000
21
5.421000
31
0.0
0
LINE
8
MCD_Layer_0
10
0.921000
20
5.421000
30
0.0
11
0.906700
21
5.335499
31
0.0
0
LINE
8
MCD_Layer_0
10
0.939602
20
5.533100
30
0.0
11
0.953800
21
5.618599
31
0.0
0
LINE
8
MCD_Layer_0
10
0.953800
20
5.618599
30
0.0
11
0.399500
21
5.723900
31
0.0
0
LINE
8
MCD_Layer_0
10
0.399500
20
5.723900
30
0.0
11
0.382500
21
5.638901
31
0.0
0
LINE
8
MCD_Layer_0
10
0.382500
20
5.638901
30
0.0
11
0.939602
21
5.533100
31
0.0
0
LINE
8
MCD_Layer_0
10
0.982302
20
5.789400
30
0.0
11
0.433401
21
5.893600
31
0.0
0
LINE
8
MCD_Layer_0
10
0.433401
20
5.893600
30
0.0
11
0.450401
21
5.978600
31
0.0
0
LINE
8
MCD_Layer_0
10
0.450401
20
5.978600
30
0.0
11
0.996500
21
5.874901
31
0.0
0
LINE
8
MCD_Layer_0
10
0.996500
20
5.874901
30
0.0
11
0.982302
21
5.789400
31
0.0
0
LINE
8
MCD_Layer_0
10
1.030302
20
6.077801
30
0.0
11
0.490700
21
6.180300
31
0.0
0
LINE
8
MCD_Layer_0
10
0.490700
20
6.180300
30
0.0
11
0.507601
21
6.265200
31
0.0
0
LINE
8
MCD_Layer_0
10
0.507601
20
6.265200
30
0.0
11
1.044502
21
6.163300
31
0.0
0
LINE
8
MCD_Layer_0
10
1.044502
20
6.163300
30
0.0
11
1.030302
21
6.077801
31
0.0
0
LINE
8
MCD_Layer_0
10
1.071100
20
6.323399
30
0.0
11
0.539402
21
6.424400
31
0.0
0
LINE
8
MCD_Layer_0
10
0.539402
20
6.424400
30
0.0
11
0.556402
21
6.509300
31
0.0
0
LINE
8
MCD_Layer_0
10
0.556402
20
6.509300
30
0.0
11
1.085402
21
6.408899
31
0.0
0
LINE
8
MCD_Layer_0
10
1.085402
20
6.408899
30
0.0
11
1.071100
21
6.323399
31
0.0
0
LINE
8
MCD_Layer_0
10
0.633799
20
6.896900
30
0.0
11
1.150200
21
6.798800
31
0.0
0
LINE
8
MCD_Layer_0
10
1.150200
20
6.798800
30
0.0
11
1.164499
21
6.884300
31
0.0
0
LINE
8
MCD_Layer_0
10
1.164499
20
6.884300
30
0.0
11
0.650600
21
6.981800
31
0.0
0
LINE
8
MCD_Layer_0
10
0.650600
20
6.981800
30
0.0
11
0.633799
21
6.896900
31
0.0
0
LINE
8
MCD_Layer_0
10
0.692999
20
7.194099
30
0.0
11
0.709999
21
7.279100
31
0.0
0
LINE
8
MCD_Layer_0
10
0.709999
20
7.279100
30
0.0
11
1.214199
21
7.183399
31
0.0
0
LINE
8
MCD_Layer_0
10
1.214199
20
7.183399
30
0.0
11
1.200100
21
7.097900
31
0.0
0
LINE
8
MCD_Layer_0
10
1.200100
20
7.097900
30
0.0
11
0.692999
21
7.194099
31
0.0
0
LINE
8
MCD_Layer_0
10
0.733799
20
7.399401
30
0.0
11
1.235201
21
7.304199
31
0.0
0
LINE
8
MCD_Layer_0
10
1.235201
20
7.304199
30
0.0
11
1.250000
21
7.389599
31
0.0
0
LINE
8
MCD_Layer_0
10
1.250000
20
7.389599
30
0.0
11
0.750700
21
7.484402
31
0.0
0
LINE
8
MCD_Layer_0
10
0.750700
20
7.484402
30
0.0
11
0.733799
21
7.399401
31
0.0
0
LINE
8
MCD_Layer_0
10
1.300900
20
7.683800
30
0.0
11
1.315601
21
7.769199
31
0.0
0
LINE
8
MCD_Layer_0
10
1.315601
20
7.769199
30
0.0
11
0.825401
21
7.862301
31
0.0
0
LINE
8
MCD_Layer_0
10
0.825401
20
7.862301
30
0.0
11
0.808500
21
7.777302
31
0.0
0
LINE
8
MCD_Layer_0
10
0.808500
20
7.777302
30
0.0
11
1.300900
21
7.683800
31
0.0
0
LINE
8
MCD_Layer_0
10
1.355701
20
8.000698
30
0.0
11
0.870998
21
8.092699
31
0.0
0
LINE
8
MCD_Layer_0
10
0.870998
20
8.092699
30
0.0
11
0.887798
21
8.177700
31
0.0
0
LINE
8
MCD_Layer_0
10
0.887798
20
8.177700
30
0.0
11
1.370499
21
8.086102
31
0.0
0
LINE
8
MCD_Layer_0
10
1.370499
20
8.086102
30
0.0
11
1.355701
21
8.000698
31
0.0
0
LINE
8
MCD_Layer_0
10
1.417900
20
8.360500
30
0.0
11
1.432701
21
8.445801
31
0.0
0
LINE
8
MCD_Layer_0
10
1.432701
20
8.445801
30
0.0
11
0.958603
21
8.535801
31
0.0
0
LINE
8
MCD_Layer_0
10
0.958603
20
8.535801
30
0.0
11
0.941801
21
8.450899
31
0.0
0
LINE
8
MCD_Layer_0
10
0.941801
20
8.450899
30
0.0
11
1.417900
21
8.360500
31
0.0
0
LINE
8
MCD_Layer_0
10
1.469601
20
8.669899
30
0.0
11
1.483799
21
8.755400
31
0.0
0
LINE
8
MCD_Layer_0
10
1.483799
20
8.755400
30
0.0
11
1.021603
21
8.843201
31
0.0
0
LINE
8
MCD_Layer_0
10
1.021603
20
8.843201
30
0.0
11
1.004200
21
8.758301
31
0.0
0
LINE
8
MCD_Layer_0
10
1.004200
20
8.758301
30
0.0
11
1.469601
21
8.669899
31
0.0
0
LINE
8
MCD_Layer_0
10
1.104301
20
9.247000
30
0.0
11
1.550701
21
9.162300
31
0.0
0
LINE
8
MCD_Layer_0
10
1.550701
20
9.162300
30
0.0
11
1.564800
21
9.247700
31
0.0
0
LINE
8
MCD_Layer_0
10
1.564800
20
9.247700
30
0.0
11
1.121700
21
9.331902
31
0.0
0
LINE
8
MCD_Layer_0
10
1.121700
20
9.331902
30
0.0
11
1.104301
21
9.247000
31
0.0
0
LINE
8
MCD_Layer_0
10
1.187099
20
9.650700
30
0.0
11
1.204399
21
9.735600
31
0.0
0
LINE
8
MCD_Layer_0
10
1.204399
20
9.735600
30
0.0
11
1.631901
21
9.654400
31
0.0
0
LINE
8
MCD_Layer_0
10
1.631901
20
9.654400
30
0.0
11
1.617798
21
9.568901
31
0.0
0
LINE
8
MCD_Layer_0
10
1.617798
20
9.568901
30
0.0
11
1.187099
21
9.650700
31
0.0
0
LINE
8
MCD_Layer_0
10
1.300999
20
10.206799
30
0.0
11
1.318300
21
10.291698
31
0.0
0
LINE
8
MCD_Layer_0
10
1.318300
20
10.291698
30
0.0
11
1.724100
21
10.214600
31
0.0
0
LINE
8
MCD_Layer_0
10
1.724100
20
10.214600
30
0.0
11
1.709999
21
10.129101
31
0.0
0
LINE
8
MCD_Layer_0
10
1.709999
20
10.129101
30
0.0
11
1.300999
21
10.206799
31
0.0
0
LINE
8
MCD_Layer_0
10
1.387300
20
10.628300
30
0.0
11
1.779999
21
10.553699
31
0.0
0
LINE
8
MCD_Layer_0
10
1.779999
20
10.553699
30
0.0
11
1.793999
21
10.639301
31
0.0
0
LINE
8
MCD_Layer_0
10
1.793999
20
10.639301
30
0.0
11
1.404701
21
10.713200
31
0.0
0
LINE
8
MCD_Layer_0
10
1.404701
20
10.713200
30
0.0
11
1.387300
21
10.628300
31
0.0
0
LINE
8
MCD_Layer_0
10
1.461800
20
10.991501
30
0.0
11
1.479200
21
11.076401
31
0.0
0
LINE
8
MCD_Layer_0
10
1.479200
20
11.076401
30
0.0
11
1.854301
21
11.005199
31
0.0
0
LINE
8
MCD_Layer_0
10
1.854301
20
11.005199
30
0.0
11
1.840302
21
10.919701
31
0.0
0
LINE
8
MCD_Layer_0
10
1.840302
20
10.919701
30
0.0
11
1.461800
21
10.991501
31
0.0
0
LINE
8
MCD_Layer_0
10
1.541702
20
11.381701
30
0.0
11
1.905102
21
11.312698
31
0.0
0
LINE
8
MCD_Layer_0
10
1.905102
20
11.312698
30
0.0
11
1.919102
21
11.398201
31
0.0
0
LINE
8
MCD_Layer_0
10
1.919102
20
11.398201
30
0.0
11
1.559002
21
11.466599
31
0.0
0
LINE
8
MCD_Layer_0
10
1.559002
20
11.466599
30
0.0
11
1.541702
21
11.381701
31
0.0
0
LINE
8
MCD_Layer_0
10
2.079000
20
11.634800
30
0.0
11
1.468500
21
11.742500
31
0.0
0
LINE
8
MCD_Layer_0
10
1.572800
20
11.819500
30
0.0
11
2.013302
21
11.741901
31
0.0
0
LINE
8
MCD_Layer_0
10
0.656799
20
0.612000
30
0.0
11
0.606901
21
0.705100
31
0.0
0
LINE
8
MCD_Layer_0
10
0.707699
20
0.789800
30
0.0
11
0.781700
21
0.722900
31
0.0
0
LINE
8
MCD_Layer_0
10
0.000000
20
27.000000
30
0.0
11
0.000000
21
28.000000
31
0.0
0
LINE
8
MCD_Layer_0
10
1.000000
20
27.000000
30
0.0
11
1.000000
21
28.000000
31
0.0
0
LINE
8
MCD_Layer_0
10
2.000000
20
27.000000
30
0.0
11
2.000000
21
28.000000
31
0.0
0
LINE
8
MCD_Layer_0
10
3.000000
20
27.000000
30
0.0
11
3.000000
21
28.000000
31
0.0
0
LINE
8
MCD_Layer_0
10
4.000000
20
27.000000
30
0.0
11
4.000000
21
28.000000
31
0.0
0
LINE
8
MCD_Layer_0
10
5.000000
20
27.000000
30
0.0
11
5.000000
21
28.000000
31
0.0
0
LINE
8
MCD_Layer_0
10
6.000000
20
27.000000
30
0.0
11
6.000000
21
28.000000
31
0.0
0
LINE
8
MCD_Layer_0
10
7.000000
20
27.000000
30
0.0
11
7.000000
21
28.000000
31
0.0
0
LINE
8
MCD_Layer_0
10
8.000000
20
27.000000
30
0.0
11
8.000000
21
28.000000
31
0.0
0
LINE
8
MCD_Layer_0
10
9.000000
20
27.000000
30
0.0
11
9.000000
21
28.000000
31
0.0
0
LINE
8
MCD_Layer_0
10
10.000000
20
27.000000
30
0.0
11
10.000000
21
28.000000
31
0.0
0
LINE
8
MCD_Layer_0
10
11.000000
20
27.000000
30
0.0
11
11.000000
21
28.000000
31
0.0
0
LINE
8
MCD_Layer_0
10
12.000000
20
27.000000
30
0.0
11
12.000000
21
28.000000
31
0.0
0
LINE
8
MCD_Layer_0
10
12.000000
20
28.000000
30
0.0
11
0.000000
21
28.000000
31
0.0
0
LINE
8
MCD_Layer_0
10
12.000000
20
27.000000
30
0.0
11
0.000000
21
27.000000
31
0.0
0
ARC
8
MCD_Layer_0
10
-1.137119
20
0.941848
40
1.476522
50
137.962652
51
320.365892
0
CIRCLE
8
MCD_Layer_0
10
3.193400
20
-2.504820
40
0.276935
0
CIRCLE
8
MCD_Layer_0
10
2.409406
20
-3.725201
40
0.276935
0
CIRCLE
8
MCD_Layer_0
10
1.375000
20
1.187500
40
0.125000
0
CIRCLE
8
MCD_Layer_0
10
1.062500
20
2.312500
40
0.125000
0
CIRCLE
8
MCD_Layer_0
10
-0.632601
20
1.879100
40
0.105374
0
CIRCLE
8
MCD_Layer_0
10
0.576302
20
1.666000
40
0.105370
0
CIRCLE
8
MCD_Layer_0
10
0.534000
20
2.502800
40
0.072077
0
CIRCLE
8
MCD_Layer_0
10
0.369400
20
2.531200
40
0.072295
0
CIRCLE
8
MCD_Layer_0
10
0.204901
20
2.560200
40
0.072296
0
CIRCLE
8
MCD_Layer_0
10
0.040501
20
2.589199
40
0.072270
0
CIRCLE
8
MCD_Layer_0
10
-0.124001
20
2.618299
40
0.071982
0
CIRCLE
8
MCD_Layer_0
10
-0.288500
20
2.647301
40
0.072199
0
CIRCLE
8
MCD_Layer_0
10
0.069000
20
4.774000
40
0.072076
0
CIRCLE
8
MCD_Layer_0
10
0.233500
20
4.745499
40
0.072172
0
CIRCLE
8
MCD_Layer_0
10
0.397999
20
4.716499
40
0.072172
0
CIRCLE
8
MCD_Layer_0
10
0.562500
20
4.687500
40
0.072198
0
CIRCLE
8
MCD_Layer_0
10
0.726999
20
4.658501
40
0.072104
0
CIRCLE
8
MCD_Layer_0
10
0.891399
20
4.629499
40
0.072172
0
CIRCLE
8
MCD_Layer_0
10
0.987900
20
6.636799
40
0.099091
0
CIRCLE
8
MCD_Layer_0
10
0.708199
20
6.695400
40
0.093800
0
CIRCLE
8
MCD_Layer_0
10
1.022701
20
7.569599
40
0.090420
0
CIRCLE
8
MCD_Layer_0
10
1.157400
20
8.249699
40
0.090448
0
CIRCLE
8
MCD_Layer_0
10
1.281700
20
8.994400
40
0.096081
0
CIRCLE
8
MCD_Layer_0
10
1.472200
20
9.936699
40
0.091950
0
CIRCLE
8
MCD_Layer_0
10
1.404800
20
12.152599
40
0.079126
0
CIRCLE
8
MCD_Layer_0
10
1.614300
20
12.617599
40
0.079140
0
CIRCLE
8
MCD_Layer_0
10
1.756102
20
13.101200
40
0.079130
0
CIRCLE
8
MCD_Layer_0
10
2.222401
20
13.025299
40
0.079140
0
CIRCLE
8
MCD_Layer_0
10
2.203400
20
12.521700
40
0.079226
0
CIRCLE
8
MCD_Layer_0
10
2.285301
20
12.008801
40
0.079141
0
ENDSEC
0
EOF
